g Bikes_Dirt
v 1.381886 0.02500105 0.5249784
v 1.493752 0.02500105 -0.8056262
v 2.36875 0.02500105 -1.19313
v 2.106636 0.02500105 0.7310767
v 0.6187491 0.02500105 -2.168128
v 0.3312504 0.02500105 -1.518129
v -1.720879 0.02500105 -1.863734
v -1.213311 0.02500105 -1.283934
v -2.56875 0.02500105 -0.5556281
v -1.753737 0.02500105 -0.5666418
v -1.381777 0.02500105 0.7649186
v -0.8807261 0.02500105 0.498826
v -0.8294241 0.02500105 2.120423
v -0.4330773 0.02500105 1.418322
v 1.275265 0.02500105 2.393127
v 0.9287417 0.02500105 1.663847
vn 0 1 0
vn 0 1 0
vn 0 1 0
vn 0 1 0
vn 0 1 0
vn 0 1 0
vn 0 1 0
vn 0 1 0
vn 0 1 0
vn 0 1 0
vn 0 1 0
vn 0 1 0
vn 0 1 0
vn 0 1 0
vn 0 1 0
vn 0 1 0
g Bikes_Dirt_0
f 3/3/3 2/2/2 1/1/1
f 4/4/4 3/3/3 1/1/1
f 3/3/3 5/5/5 2/2/2
f 5/5/5 6/6/6 2/2/2
f 5/5/5 7/7/7 6/6/6
f 7/7/7 8/8/8 6/6/6
f 2/2/2 6/6/6 8/8/8
f 7/7/7 9/9/9 8/8/8
f 9/9/9 10/10/10 8/8/8
f 8/8/8 10/10/10 2/2/2
f 10/10/10 1/1/1 2/2/2
f 9/9/9 11/11/11 10/10/10
f 11/11/11 12/12/12 10/10/10
f 10/10/10 12/12/12 1/1/1
f 11/11/11 13/13/13 12/12/12
f 13/13/13 14/14/14 12/12/12
f 12/12/12 14/14/14 1/1/1
f 13/13/13 15/15/15 14/14/14
f 4/4/4 1/1/1 15/15/15
f 15/15/15 16/16/16 14/14/14
f 1/1/1 16/16/16 15/15/15
f 14/14/14 16/16/16 1/1/1
