g Dirt
v 1.710535 -9.536743E-07 0.9082088
v 1.858534 -9.536743E-07 -0.852181
v 3.016156 -9.536743E-07 -1.364848
v 2.669379 -9.536743E-07 1.180877
v 0.7009051 -9.536743E-07 -2.654771
v 0.3205442 -9.536743E-07 -1.794822
v -2.394423 -9.536743E-07 -2.252058
v -1.722911 -9.536743E-07 -1.484982
v -3.516156 -9.536743E-07 -0.5214336
v -2.437894 -9.536743E-07 -0.5360048
v -1.945791 -9.536743E-07 1.22565
v -1.282901 -9.536743E-07 0.8736091
v -1.215028 -9.536743E-07 3.018982
v -0.6906614 -9.536743E-07 2.090102
v 1.569475 -9.536743E-07 3.379769
v 1.111025 -9.536743E-07 2.414932
vt 0.7096887 0.3631526
vt 0.8005729 0.611242
vt 0.9878049 0.6394675
vt 0.8372244 0.2859494
vt 0.704776 0.9169881
vt 0.6159462 0.8079717
vt 0.2423607 0.9811653
vt 0.3089347 0.843983
vt 0.01219512 0.775831
vt 0.1683135 0.7353387
vt 0.1697129 0.461778
vt 0.2792503 0.486386
vt 0.204295 0.1742236
vt 0.3166312 0.2874976
vt 0.5917104 0.01219512
vt 0.5636934 0.1694896
vn 0 1 0
vn 0 1 0
vn 0 1 0
vn 0 1 0
vn 0 1 0
vn 0 1 0
vn 0 1 0
vn 0 1 0
vn 0 1 0
vn 0 1 0
vn 0 1 0
vn 0 1 0
vn 0 1 0
vn 0 1 0
vn 0 1 0
vn 0 1 0
g Dirt_0
f 3/3/3 2/2/2 1/1/1
f 4/4/4 3/3/3 1/1/1
f 3/3/3 5/5/5 2/2/2
f 5/5/5 6/6/6 2/2/2
f 5/5/5 7/7/7 6/6/6
f 7/7/7 8/8/8 6/6/6
f 2/2/2 6/6/6 8/8/8
f 7/7/7 9/9/9 8/8/8
f 9/9/9 10/10/10 8/8/8
f 8/8/8 10/10/10 2/2/2
f 10/10/10 1/1/1 2/2/2
f 9/9/9 11/11/11 10/10/10
f 11/11/11 12/12/12 10/10/10
f 10/10/10 12/12/12 1/1/1
f 11/11/11 13/13/13 12/12/12
f 13/13/13 14/14/14 12/12/12
f 12/12/12 14/14/14 1/1/1
f 13/13/13 15/15/15 14/14/14
f 4/4/4 1/1/1 15/15/15
f 15/15/15 16/16/16 14/14/14
f 1/1/1 16/16/16 15/15/15
f 14/14/14 16/16/16 1/1/1
