g Grass_0_Cluster71
v -53.01171 0 82.92839
v -53.8336 0 82.92839
v -53.01171 0 84.07903
v -53.8336 0 84.07903
v -55.72393 0 82.76402
v -56.62801 0 82.76402
v -55.72393 0 83.91466
v -56.62801 0 83.91466
v -54.65548 0 82.43526
v -55.55956 0 82.43526
v -54.65548 0 83.66809
v -55.55956 0 83.66809
v -56.21707 0 82.35307
v -57.12114 0 82.35307
v -56.21707 0 83.66809
v -57.12114 0 83.66809
v -34.84801 0 81.61337
v -35.75208 0 81.61337
v -34.84801 0 82.92839
v -35.75208 0 82.92839
v -37.23148 0 81.77775
v -38.13556 0 81.77775
v -37.23148 0 83.01058
v -38.13556 0 83.01058
v -58.43616 0 81.449
v -59.34024 0 81.449
v -58.43616 0 82.59964
v -59.34024 0 82.59964
v -39.53276 0 80.79149
v -40.43684 0 80.79149
v -39.53276 0 82.02431
v -40.43684 0 82.02431
v -49.55978 0 80.21616
v -50.46386 0 80.21616
v -49.55978 0 81.449
v -50.46386 0 81.449
v -39.69714 0 80.05179
v -40.60122 0 80.05179
v -39.69714 0 81.28461
v -40.60122 0 81.28461
v -59.17586 0 79.39428
v -59.99775 0 79.39428
v -59.17586 0 80.62711
v -59.99775 0 80.62711
v -31.47827 0 78.16145
v -32.30016 0 78.16145
v -31.47827 0 79.31209
v -32.30016 0 79.31209
v -58.68273 0 75.03828
v -59.5868 0 75.03828
v -58.68273 0 76.18892
v -59.5868 0 76.18892
v -51.45012 0 71.91511
v -52.3542 0 71.91511
v -51.45012 0 73.14793
v -52.3542 0 73.14793
v -52.27201 0 70.18914
v -53.17608 0 70.18914
v -52.27201 0 71.42197
v -53.17608 0 71.42197
v -48.32695 0 68.21661
v -49.23103 0 68.21661
v -48.32695 0 69.44945
v -49.23103 0 69.44945
v -49.72416 0 67.5591
v -50.62823 0 67.5591
v -49.72416 0 68.79194
v -50.62823 0 68.79194
v -50.21729 0 67.39473
v -51.20356 0 67.39473
v -50.21729 0 68.70975
v -51.20356 0 68.70975
v -48.7379 0 66.98379
v -49.64197 0 66.98379
v -48.7379 0 68.21661
v -49.64197 0 68.21661
v -43.80657 0 66.40846
v -44.62846 0 66.40846
v -43.80657 0 67.5591
v -44.62846 0 67.5591
v -48.90227 0 66.40846
v -49.80635 0 66.40846
v -48.90227 0 67.72348
v -49.80635 0 67.72348
v -46.76537 0 65.75095
v -47.66944 0 65.75095
v -46.76537 0 67.06597
v -47.66944 0 67.06597
v -47.58725 0 64.84688
v -48.49133 0 64.84688
v -47.58725 0 66.07971
v -48.49133 0 66.07971
v -42.24499 0 64.6825
v -43.14906 0 64.6825
v -42.24499 0 65.99752
v -43.14906 0 65.99752
v -45.53254 0 64.02499
v -46.35442 0 64.02499
v -45.53254 0 65.25782
v -46.35442 0 65.25782
v -49.3954 0 63.61405
v -50.21729 0 63.61405
v -49.3954 0 64.84688
v -50.21729 0 64.84688
v -50.1351 0 60.57307
v -50.95699 0 60.57307
v -50.1351 0 61.8059
v -50.95699 0 61.8059
v -39.28619 0 59.09367
v -40.19027 0 59.09367
v -39.28619 0 60.40869
v -40.19027 0 60.40869
v -39.20401 0 57.4499
v -40.02589 0 57.4499
v -39.20401 0 58.68273
v -40.02589 0 58.68273
v -40.35465 0 56.87458
v -41.17654 0 56.87458
v -40.35465 0 58.10741
v -41.17654 0 58.10741
v -43.31344 0 56.79239
v -44.29971 0 56.79239
v -43.31344 0 58.10741
v -44.29971 0 58.10741
v -41.4231 0 56.46363
v -42.32718 0 56.46363
v -41.4231 0 57.69646
v -42.32718 0 57.69646
v -39.94371 0 54.73767
v -40.84778 0 54.73767
v -39.94371 0 56.05269
v -40.84778 0 56.05269
v -42.24499 0 54.65548
v -43.06688 0 54.65548
v -42.24499 0 55.80612
v -43.06688 0 55.80612
v -40.76559 0 54.40892
v -41.75186 0 54.40892
v -40.76559 0 55.72393
v -41.75186 0 55.72393
v -41.50529 0 53.7514
v -42.49155 0 53.7514
v -41.50529 0 55.06643
v -42.49155 0 55.06643
v -38.87525 0 53.42265
v -39.77933 0 53.42265
v -38.87525 0 54.65548
v -39.77933 0 54.65548
v -41.83405 0 53.01171
v -42.65593 0 53.01171
v -41.83405 0 54.16235
v -42.65593 0 54.16235
vt 0 0.9058824
vt 0.06666667 0.9058824
vt 0 1
vt 0.06666667 1
vt 0 0.9058824
vt 0.06666667 0.9058824
vt 0 1
vt 0.06666667 1
vt 0 0.9058824
vt 0.06666667 0.9058824
vt 0 1
vt 0.06666667 1
vt 0 0.9058824
vt 0.06666667 0.9058824
vt 0 1
vt 0.06666667 1
vt 0 0.9058824
vt 0.06666667 0.9058824
vt 0 1
vt 0.06666667 1
vt 0 0.9058824
vt 0.06666667 0.9058824
vt 0 1
vt 0.06666667 1
vt 0 0.9058824
vt 0.06666667 0.9058824
vt 0 1
vt 0.06666667 1
vt 0 0.9058824
vt 0.06666667 0.9058824
vt 0 1
vt 0.06666667 1
vt 0 0.9058824
vt 0.06666667 0.9058824
vt 0 1
vt 0.06666667 1
vt 0 0.9058824
vt 0.06666667 0.9058824
vt 0 1
vt 0.06666667 1
vt 0 0.9058824
vt 0.06666667 0.9058824
vt 0 1
vt 0.06666667 1
vt 0 0.9058824
vt 0.06666667 0.9058824
vt 0 1
vt 0.06666667 1
vt 0 0.9058824
vt 0.06666667 0.9058824
vt 0 1
vt 0.06666667 1
vt 0 0.9058824
vt 0.06666667 0.9058824
vt 0 1
vt 0.06666667 1
vt 0 0.9058824
vt 0.06666667 0.9058824
vt 0 1
vt 0.06666667 1
vt 0 0.9058824
vt 0.06666667 0.9058824
vt 0 1
vt 0.06666667 1
vt 0 0.9058824
vt 0.06666667 0.9058824
vt 0 1
vt 0.06666667 1
vt 0 0.9058824
vt 0.06666667 0.9058824
vt 0 1
vt 0.06666667 1
vt 0 0.9058824
vt 0.06666667 0.9058824
vt 0 1
vt 0.06666667 1
vt 0 0.9058824
vt 0.06666667 0.9058824
vt 0 1
vt 0.06666667 1
vt 0 0.9058824
vt 0.06666667 0.9058824
vt 0 1
vt 0.06666667 1
vt 0 0.9058824
vt 0.06666667 0.9058824
vt 0 1
vt 0.06666667 1
vt 0 0.9058824
vt 0.06666667 0.9058824
vt 0 1
vt 0.06666667 1
vt 0 0.9058824
vt 0.06666667 0.9058824
vt 0 1
vt 0.06666667 1
vt 0 0.9058824
vt 0.06666667 0.9058824
vt 0 1
vt 0.06666667 1
vt 0 0.9058824
vt 0.06666667 0.9058824
vt 0 1
vt 0.06666667 1
vt 0 0.9058824
vt 0.06666667 0.9058824
vt 0 1
vt 0.06666667 1
vt 0 0.9058824
vt 0.06666667 0.9058824
vt 0 1
vt 0.06666667 1
vt 0 0.9058824
vt 0.06666667 0.9058824
vt 0 1
vt 0.06666667 1
vt 0 0.9058824
vt 0.06666667 0.9058824
vt 0 1
vt 0.06666667 1
vt 0 0.9058824
vt 0.06666667 0.9058824
vt 0 1
vt 0.06666667 1
vt 0 0.9058824
vt 0.06666667 0.9058824
vt 0 1
vt 0.06666667 1
vt 0 0.9058824
vt 0.06666667 0.9058824
vt 0 1
vt 0.06666667 1
vt 0 0.9058824
vt 0.06666667 0.9058824
vt 0 1
vt 0.06666667 1
vt 0 0.9058824
vt 0.06666667 0.9058824
vt 0 1
vt 0.06666667 1
vt 0 0.9058824
vt 0.06666667 0.9058824
vt 0 1
vt 0.06666667 1
vt 0 0.9058824
vt 0.06666667 0.9058824
vt 0 1
vt 0.06666667 1
vt 0 0.9058824
vt 0.06666667 0.9058824
vt 0 1
vt 0.06666667 1
vn 0 1 0
vn 0 1 0
vn 0 1 0
vn 0 1 0
vn 0 1 0
vn 0 1 0
vn 0 1 0
vn 0 1 0
vn 0 1 0
vn 0 1 0
vn 0 1 0
vn 0 1 0
vn 0 1 0
vn 0 1 0
vn 0 1 0
vn 0 1 0
vn 0 1 0
vn 0 1 0
vn 0 1 0
vn 0 1 0
vn 0 1 0
vn 0 1 0
vn 0 1 0
vn 0 1 0
vn 0 1 0
vn 0 1 0
vn 0 1 0
vn 0 1 0
vn 0 1 0
vn 0 1 0
vn 0 1 0
vn 0 1 0
vn 0 1 0
vn 0 1 0
vn 0 1 0
vn 0 1 0
vn 0 1 0
vn 0 1 0
vn 0 1 0
vn 0 1 0
vn 0 1 0
vn 0 1 0
vn 0 1 0
vn 0 1 0
vn 0 1 0
vn 0 1 0
vn 0 1 0
vn 0 1 0
vn 0 1 0
vn 0 1 0
vn 0 1 0
vn 0 1 0
vn 0 1 0
vn 0 1 0
vn 0 1 0
vn 0 1 0
vn 0 1 0
vn 0 1 0
vn 0 1 0
vn 0 1 0
vn 0 1 0
vn 0 1 0
vn 0 1 0
vn 0 1 0
vn 0 1 0
vn 0 1 0
vn 0 1 0
vn 0 1 0
vn 0 1 0
vn 0 1 0
vn 0 1 0
vn 0 1 0
vn 0 1 0
vn 0 1 0
vn 0 1 0
vn 0 1 0
vn 0 1 0
vn 0 1 0
vn 0 1 0
vn 0 1 0
vn 0 1 0
vn 0 1 0
vn 0 1 0
vn 0 1 0
vn 0 1 0
vn 0 1 0
vn 0 1 0
vn 0 1 0
vn 0 1 0
vn 0 1 0
vn 0 1 0
vn 0 1 0
vn 0 1 0
vn 0 1 0
vn 0 1 0
vn 0 1 0
vn 0 1 0
vn 0 1 0
vn 0 1 0
vn 0 1 0
vn 0 1 0
vn 0 1 0
vn 0 1 0
vn 0 1 0
vn 0 1 0
vn 0 1 0
vn 0 1 0
vn 0 1 0
vn 0 1 0
vn 0 1 0
vn 0 1 0
vn 0 1 0
vn 0 1 0
vn 0 1 0
vn 0 1 0
vn 0 1 0
vn 0 1 0
vn 0 1 0
vn 0 1 0
vn 0 1 0
vn 0 1 0
vn 0 1 0
vn 0 1 0
vn 0 1 0
vn 0 1 0
vn 0 1 0
vn 0 1 0
vn 0 1 0
vn 0 1 0
vn 0 1 0
vn 0 1 0
vn 0 1 0
vn 0 1 0
vn 0 1 0
vn 0 1 0
vn 0 1 0
vn 0 1 0
vn 0 1 0
vn 0 1 0
vn 0 1 0
vn 0 1 0
vn 0 1 0
vn 0 1 0
vn 0 1 0
vn 0 1 0
vn 0 1 0
vn 0 1 0
vn 0 1 0
vn 0 1 0
vn 0 1 0
vn 0 1 0
vn 0 1 0
g Grass_0_Cluster71_0
f 2/2/2 3/3/3 1/1/1
f 2/2/2 4/4/4 3/3/3
f 6/6/6 7/7/7 5/5/5
f 6/6/6 8/8/8 7/7/7
f 10/10/10 11/11/11 9/9/9
f 10/10/10 12/12/12 11/11/11
f 14/14/14 15/15/15 13/13/13
f 14/14/14 16/16/16 15/15/15
f 18/18/18 19/19/19 17/17/17
f 18/18/18 20/20/20 19/19/19
f 22/22/22 23/23/23 21/21/21
f 22/22/22 24/24/24 23/23/23
f 26/26/26 27/27/27 25/25/25
f 26/26/26 28/28/28 27/27/27
f 30/30/30 31/31/31 29/29/29
f 30/30/30 32/32/32 31/31/31
f 34/34/34 35/35/35 33/33/33
f 34/34/34 36/36/36 35/35/35
f 38/38/38 39/39/39 37/37/37
f 38/38/38 40/40/40 39/39/39
f 42/42/42 43/43/43 41/41/41
f 42/42/42 44/44/44 43/43/43
f 46/46/46 47/47/47 45/45/45
f 46/46/46 48/48/48 47/47/47
f 50/50/50 51/51/51 49/49/49
f 50/50/50 52/52/52 51/51/51
f 54/54/54 55/55/55 53/53/53
f 54/54/54 56/56/56 55/55/55
f 58/58/58 59/59/59 57/57/57
f 58/58/58 60/60/60 59/59/59
f 62/62/62 63/63/63 61/61/61
f 62/62/62 64/64/64 63/63/63
f 66/66/66 67/67/67 65/65/65
f 66/66/66 68/68/68 67/67/67
f 70/70/70 71/71/71 69/69/69
f 70/70/70 72/72/72 71/71/71
f 74/74/74 75/75/75 73/73/73
f 74/74/74 76/76/76 75/75/75
f 78/78/78 79/79/79 77/77/77
f 78/78/78 80/80/80 79/79/79
f 82/82/82 83/83/83 81/81/81
f 82/82/82 84/84/84 83/83/83
f 86/86/86 87/87/87 85/85/85
f 86/86/86 88/88/88 87/87/87
f 90/90/90 91/91/91 89/89/89
f 90/90/90 92/92/92 91/91/91
f 94/94/94 95/95/95 93/93/93
f 94/94/94 96/96/96 95/95/95
f 98/98/98 99/99/99 97/97/97
f 98/98/98 100/100/100 99/99/99
f 102/102/102 103/103/103 101/101/101
f 102/102/102 104/104/104 103/103/103
f 106/106/106 107/107/107 105/105/105
f 106/106/106 108/108/108 107/107/107
f 110/110/110 111/111/111 109/109/109
f 110/110/110 112/112/112 111/111/111
f 114/114/114 115/115/115 113/113/113
f 114/114/114 116/116/116 115/115/115
f 118/118/118 119/119/119 117/117/117
f 118/118/118 120/120/120 119/119/119
f 122/122/122 123/123/123 121/121/121
f 122/122/122 124/124/124 123/123/123
f 126/126/126 127/127/127 125/125/125
f 126/126/126 128/128/128 127/127/127
f 130/130/130 131/131/131 129/129/129
f 130/130/130 132/132/132 131/131/131
f 134/134/134 135/135/135 133/133/133
f 134/134/134 136/136/136 135/135/135
f 138/138/138 139/139/139 137/137/137
f 138/138/138 140/140/140 139/139/139
f 142/142/142 143/143/143 141/141/141
f 142/142/142 144/144/144 143/143/143
f 146/146/146 147/147/147 145/145/145
f 146/146/146 148/148/148 147/147/147
f 150/150/150 151/151/151 149/149/149
f 150/150/150 152/152/152 151/151/151
