g Grass_1_Cluster286
v 117.0477 0.0797348 406.4297
v 116.534 0.0797348 406.4297
v 117.0477 0.0797348 406.9435
v 116.534 0.0797348 406.9435
v 118.5888 0.0797348 405.4023
v 117.5614 0.0797348 405.4023
v 118.5888 0.0797348 405.916
v 117.5614 0.0797348 405.916
v 116.534 0.0797348 403.8612
v 116.0203 0.0797348 403.8612
v 116.534 0.0797348 404.8886
v 116.0203 0.0797348 404.8886
v 115.5065 0.0797348 402.32
v 114.9928 0.0797348 402.32
v 115.5065 0.0797348 403.3474
v 114.9928 0.0797348 403.3474
v 99.0676 0.0797348 400.2651
v 98.04018 0.0797348 400.2651
v 99.0676 0.0797348 401.2926
v 98.04018 0.0797348 401.2926
v 99.58132 0.0797348 399.7514
v 98.55389 0.0797348 399.7514
v 99.58132 0.0797348 400.2651
v 98.55389 0.0797348 400.2651
v 112.4242 0.0797348 399.2377
v 111.9105 0.0797348 399.2377
v 112.4242 0.0797348 399.7514
v 111.9105 0.0797348 399.7514
vt 0.06738281 0.9369141
vt 0.1331457 0.9369141
vt 0.06738281 0.9990234
vt 0.1331457 0.9990234
vt 0.06738281 0.9369141
vt 0.1331457 0.9369141
vt 0.06738281 0.9990234
vt 0.1331457 0.9990234
vt 0.06738281 0.9369141
vt 0.1331457 0.9369141
vt 0.06738281 0.9990234
vt 0.1331457 0.9990234
vt 0.06738281 0.9369141
vt 0.1331457 0.9369141
vt 0.06738281 0.9990234
vt 0.1331457 0.9990234
vt 0.06738281 0.9369141
vt 0.1331457 0.9369141
vt 0.06738281 0.9990234
vt 0.1331457 0.9990234
vt 0.06738281 0.9369141
vt 0.1331457 0.9369141
vt 0.06738281 0.9990234
vt 0.1331457 0.9990234
vt 0.06738281 0.9369141
vt 0.1331457 0.9369141
vt 0.06738281 0.9990234
vt 0.1331457 0.9990234
vn 0 1 0
vn 0 1 0
vn 0 1 0
vn 0 1 0
vn 0 1 0
vn 0 1 0
vn 0 1 0
vn 0 1 0
vn 0 1 0
vn 0 1 0
vn 0 1 0
vn 0 1 0
vn 0 1 0
vn 0 1 0
vn 0 1 0
vn 0 1 0
vn 0 1 0
vn 0 1 0
vn 0 1 0
vn 0 1 0
vn 0 1 0
vn 0 1 0
vn 0 1 0
vn 0 1 0
vn 0 1 0
vn 0 1 0
vn 0 1 0
vn 0 1 0
g Grass_1_Cluster286_0
f 2/2/2 3/3/3 1/1/1
f 2/2/2 4/4/4 3/3/3
f 6/6/6 7/7/7 5/5/5
f 6/6/6 8/8/8 7/7/7
f 10/10/10 11/11/11 9/9/9
f 10/10/10 12/12/12 11/11/11
f 14/14/14 15/15/15 13/13/13
f 14/14/14 16/16/16 15/15/15
f 18/18/18 19/19/19 17/17/17
f 18/18/18 20/20/20 19/19/19
f 22/22/22 23/23/23 21/21/21
f 22/22/22 24/24/24 23/23/23
f 26/26/26 27/27/27 25/25/25
f 26/26/26 28/28/28 27/27/27
