g Grass_0_Cluster49
v 3.87491 0.01532173 52.98869
v 3.047201 0.01532173 52.98869
v 3.87491 0.01532173 54.23026
v 3.047201 0.01532173 54.23026
v 6.689121 0.01532173 51.49882
v 5.778641 0.01532173 51.49882
v 6.689121 0.01532173 52.74038
v 5.778641 0.01532173 52.74038
v 2.467806 0.01532173 49.8434
v 1.557325 0.01532173 49.8434
v 2.467806 0.01532173 51.08496
v 1.557325 0.01532173 51.08496
v 28.78895 0.01532173 47.44304
v 27.7957 0.01532173 47.44304
v 28.78895 0.01532173 48.76738
v 27.7957 0.01532173 48.76738
v 30.44437 0.01532173 46.11871
v 29.61666 0.01532173 46.11871
v 30.44437 0.01532173 47.2775
v 29.61666 0.01532173 47.2775
v 17.94596 0.01532173 34.53078
v 17.03548 0.01532173 34.53078
v 17.94596 0.01532173 35.77235
v 17.03548 0.01532173 35.77235
v 19.84969 0.01532173 32.54428
v 18.93921 0.01532173 32.54428
v 19.84969 0.01532173 33.86861
v 18.93921 0.01532173 33.86861
v 24.48486 0.01532173 27.57803
v 23.57438 0.01532173 27.57803
v 24.48486 0.01532173 28.73682
v 23.57438 0.01532173 28.73682
v 27.87847 0.01532173 25.34322
v 27.05076 0.01532173 25.34322
v 27.87847 0.01532173 26.58478
v 27.05076 0.01532173 26.58478
vt 0 0.9058824
vt 0.06666667 0.9058824
vt 0 1
vt 0.06666667 1
vt 0 0.9058824
vt 0.06666667 0.9058824
vt 0 1
vt 0.06666667 1
vt 0 0.9058824
vt 0.06666667 0.9058824
vt 0 1
vt 0.06666667 1
vt 0 0.9058824
vt 0.06666667 0.9058824
vt 0 1
vt 0.06666667 1
vt 0 0.9058824
vt 0.06666667 0.9058824
vt 0 1
vt 0.06666667 1
vt 0 0.9058824
vt 0.06666667 0.9058824
vt 0 1
vt 0.06666667 1
vt 0 0.9058824
vt 0.06666667 0.9058824
vt 0 1
vt 0.06666667 1
vt 0 0.9058824
vt 0.06666667 0.9058824
vt 0 1
vt 0.06666667 1
vt 0 0.9058824
vt 0.06666667 0.9058824
vt 0 1
vt 0.06666667 1
vn 0 1 0
vn 0 1 0
vn 0 1 0
vn 0 1 0
vn 0 1 0
vn 0 1 0
vn 0 1 0
vn 0 1 0
vn 0 1 0
vn 0 1 0
vn 0 1 0
vn 0 1 0
vn 0 1 0
vn 0 1 0
vn 0 1 0
vn 0 1 0
vn 0 1 0
vn 0 1 0
vn 0 1 0
vn 0 1 0
vn 0 1 0
vn 0 1 0
vn 0 1 0
vn 0 1 0
vn 0 1 0
vn 0 1 0
vn 0 1 0
vn 0 1 0
vn 0 1 0
vn 0 1 0
vn 0 1 0
vn 0 1 0
vn 0 1 0
vn 0 1 0
vn 0 1 0
vn 0 1 0
g Grass_0_Cluster49_0
f 2/2/2 3/3/3 1/1/1
f 2/2/2 4/4/4 3/3/3
f 6/6/6 7/7/7 5/5/5
f 6/6/6 8/8/8 7/7/7
f 10/10/10 11/11/11 9/9/9
f 10/10/10 12/12/12 11/11/11
f 14/14/14 15/15/15 13/13/13
f 14/14/14 16/16/16 15/15/15
f 18/18/18 19/19/19 17/17/17
f 18/18/18 20/20/20 19/19/19
f 22/22/22 23/23/23 21/21/21
f 22/22/22 24/24/24 23/23/23
f 26/26/26 27/27/27 25/25/25
f 26/26/26 28/28/28 27/27/27
f 30/30/30 31/31/31 29/29/29
f 30/30/30 32/32/32 31/31/31
f 34/34/34 35/35/35 33/33/33
f 34/34/34 36/36/36 35/35/35
