g Grass_0_Cluster319
v -298.66 0 442.7808
v -299.5282 0 442.7808
v -298.66 0 444.0831
v -299.5282 0 444.0831
v -296.9236 0 441.4785
v -297.7918 0 441.4785
v -296.9236 0 442.3467
v -297.7918 0 442.3467
v -299.0941 0 440.1762
v -299.9623 0 440.1762
v -299.0941 0 441.0444
v -299.9623 0 441.0444
v -298.2259 0 439.308
v -299.0941 0 439.308
v -298.2259 0 440.6103
v -299.0941 0 440.6103
v -296.9236 0 437.1375
v -297.7918 0 437.1375
v -296.9236 0 438.4398
v -297.7918 0 438.4398
v -283.0324 0 435.8352
v -283.9006 0 435.8352
v -283.0324 0 437.1375
v -283.9006 0 437.1375
v -273.4823 0 435.4011
v -273.9164 0 435.4011
v -273.4823 0 436.2693
v -273.9164 0 436.2693
v -284.3347 0 434.967
v -285.637 0 434.967
v -284.3347 0 436.2693
v -285.637 0 436.2693
v -270.0095 0 434.967
v -270.8777 0 434.967
v -270.0095 0 436.2693
v -270.8777 0 436.2693
v -283.0324 0 434.5329
v -283.9006 0 434.5329
v -283.0324 0 435.8352
v -283.9006 0 435.8352
v -280.8619 0 434.0988
v -281.7301 0 434.0988
v -280.8619 0 434.967
v -281.7301 0 434.967
v -278.2574 0 434.0988
v -279.1255 0 434.0988
v -278.2574 0 435.4011
v -279.1255 0 435.4011
v -286.0711 0 433.6647
v -286.9393 0 433.6647
v -286.0711 0 434.967
v -286.9393 0 434.967
v -270.8777 0 433.6647
v -271.7458 0 433.6647
v -270.8777 0 434.967
v -271.7458 0 434.967
v -272.18 0 433.2306
v -273.0482 0 433.2306
v -272.18 0 434.5329
v -273.0482 0 434.5329
v -296.4895 0 433.2306
v -297.3577 0 433.2306
v -296.4895 0 434.5329
v -297.3577 0 434.5329
v -274.3505 0 433.2306
v -275.2187 0 433.2306
v -274.3505 0 434.5329
v -275.2187 0 434.5329
v -280.4278 0 433.2306
v -281.7301 0 433.2306
v -280.4278 0 434.5329
v -281.7301 0 434.5329
v -273.0482 0 433.2306
v -273.9164 0 433.2306
v -273.0482 0 434.5329
v -273.9164 0 434.5329
v -281.296 0 432.7965
v -282.1642 0 432.7965
v -281.296 0 433.6647
v -282.1642 0 433.6647
v -296.4895 0 432.3624
v -297.3577 0 432.3624
v -296.4895 0 433.6647
v -297.3577 0 433.6647
v -278.2574 0 432.3624
v -279.1255 0 432.3624
v -278.2574 0 433.6647
v -279.1255 0 433.6647
v -282.1642 0 432.3624
v -282.5983 0 432.3624
v -282.1642 0 433.2306
v -282.5983 0 433.2306
v -277.3891 0 431.4942
v -278.2574 0 431.4942
v -277.3891 0 432.7965
v -278.2574 0 432.7965
v -283.0324 0 431.4942
v -283.9006 0 431.4942
v -283.0324 0 432.7965
v -283.9006 0 432.7965
v -278.6914 0 430.626
v -279.5596 0 430.626
v -278.6914 0 431.9283
v -279.5596 0 431.9283
v -277.8232 0 430.626
v -278.6914 0 430.626
v -277.8232 0 431.4942
v -278.6914 0 431.4942
v -280.8619 0 429.3237
v -281.7301 0 429.3237
v -280.8619 0 430.1919
v -281.7301 0 430.1919
v -297.7918 0 428.8896
v -298.66 0 428.8896
v -297.7918 0 430.1919
v -298.66 0 430.1919
v -296.4895 0 428.4555
v -297.3577 0 428.4555
v -296.4895 0 429.7578
v -297.3577 0 429.7578
v -295.6213 0 427.5873
v -296.4895 0 427.5873
v -295.6213 0 428.8896
v -296.4895 0 428.8896
v -298.2259 0 426.7191
v -299.0941 0 426.7191
v -298.2259 0 428.0214
v -299.0941 0 428.0214
v -297.3577 0 424.5486
v -298.2259 0 424.5486
v -297.3577 0 425.851
v -298.2259 0 425.851
v -293.4508 0 424.1145
v -294.319 0 424.1145
v -293.4508 0 425.4168
v -294.319 0 425.4168
v -295.1872 0 424.1145
v -296.0554 0 424.1145
v -295.1872 0 425.4168
v -296.0554 0 425.4168
v -296.0554 0 424.1145
v -296.9236 0 424.1145
v -296.0554 0 425.4168
v -296.9236 0 425.4168
v -299.0941 0 423.6805
v -299.9623 0 423.6805
v -299.0941 0 424.9827
v -299.9623 0 424.9827
v -295.6213 0 423.6805
v -296.4895 0 423.6805
v -295.6213 0 424.5486
v -296.4895 0 424.5486
v -296.9236 0 423.2463
v -297.7918 0 423.2463
v -296.9236 0 424.5486
v -297.7918 0 424.5486
v -294.319 0 422.8123
v -295.1872 0 422.8123
v -294.319 0 424.1145
v -295.1872 0 424.1145
v -296.9236 0 422.3781
v -298.2259 0 422.3781
v -296.9236 0 423.6805
v -298.2259 0 423.6805
v -297.7918 0 421.9441
v -298.66 0 421.9441
v -297.7918 0 423.2463
v -298.66 0 423.2463
v -298.66 0 421.0759
v -299.5282 0 421.0759
v -298.66 0 422.3781
v -299.5282 0 422.3781
v -296.0554 0 420.6418
v -296.9236 0 420.6418
v -296.0554 0 421.9441
v -296.9236 0 421.9441
v -298.66 0 419.7736
v -299.5282 0 419.7736
v -298.66 0 421.0759
v -299.5282 0 421.0759
v -298.2259 0 418.9054
v -299.0941 0 418.9054
v -298.2259 0 420.2076
v -299.0941 0 420.2076
v -298.2259 0 418.0372
v -299.0941 0 418.0372
v -298.2259 0 419.3394
v -299.0941 0 419.3394
v -283.0324 0 417.6031
v -283.9006 0 417.6031
v -283.0324 0 418.9054
v -283.9006 0 418.9054
v -271.3118 0 417.169
v -272.18 0 417.169
v -271.3118 0 418.4713
v -272.18 0 418.4713
v -270.8777 0 415.8667
v -271.7458 0 415.8667
v -270.8777 0 416.7349
v -271.7458 0 416.7349
v -282.5983 0 415.4326
v -283.4665 0 415.4326
v -282.5983 0 416.7349
v -283.4665 0 416.7349
v -283.9006 0 415.4326
v -284.7688 0 415.4326
v -283.9006 0 416.7349
v -284.7688 0 416.7349
vt 0 0.9058824
vt 0.06666667 0.9058824
vt 0 1
vt 0.06666667 1
vt 0 0.9058824
vt 0.06666667 0.9058824
vt 0 1
vt 0.06666667 1
vt 0 0.9058824
vt 0.06666667 0.9058824
vt 0 1
vt 0.06666667 1
vt 0 0.9058824
vt 0.06666667 0.9058824
vt 0 1
vt 0.06666667 1
vt 0 0.9058824
vt 0.06666667 0.9058824
vt 0 1
vt 0.06666667 1
vt 0 0.9058824
vt 0.06666667 0.9058824
vt 0 1
vt 0.06666667 1
vt 0 0.9058824
vt 0.06666667 0.9058824
vt 0 1
vt 0.06666667 1
vt 0 0.9058824
vt 0.06666667 0.9058824
vt 0 1
vt 0.06666667 1
vt 0 0.9058824
vt 0.06666667 0.9058824
vt 0 1
vt 0.06666667 1
vt 0 0.9058824
vt 0.06666667 0.9058824
vt 0 1
vt 0.06666667 1
vt 0 0.9058824
vt 0.06666667 0.9058824
vt 0 1
vt 0.06666667 1
vt 0 0.9058824
vt 0.06666667 0.9058824
vt 0 1
vt 0.06666667 1
vt 0 0.9058824
vt 0.06666667 0.9058824
vt 0 1
vt 0.06666667 1
vt 0 0.9058824
vt 0.06666667 0.9058824
vt 0 1
vt 0.06666667 1
vt 0 0.9058824
vt 0.06666667 0.9058824
vt 0 1
vt 0.06666667 1
vt 0 0.9058824
vt 0.06666667 0.9058824
vt 0 1
vt 0.06666667 1
vt 0 0.9058824
vt 0.06666667 0.9058824
vt 0 1
vt 0.06666667 1
vt 0 0.9058824
vt 0.06666667 0.9058824
vt 0 1
vt 0.06666667 1
vt 0 0.9058824
vt 0.06666667 0.9058824
vt 0 1
vt 0.06666667 1
vt 0 0.9058824
vt 0.06666667 0.9058824
vt 0 1
vt 0.06666667 1
vt 0 0.9058824
vt 0.06666667 0.9058824
vt 0 1
vt 0.06666667 1
vt 0 0.9058824
vt 0.06666667 0.9058824
vt 0 1
vt 0.06666667 1
vt 0 0.9058824
vt 0.06666667 0.9058824
vt 0 1
vt 0.06666667 1
vt 0 0.9058824
vt 0.06666667 0.9058824
vt 0 1
vt 0.06666667 1
vt 0 0.9058824
vt 0.06666667 0.9058824
vt 0 1
vt 0.06666667 1
vt 0 0.9058824
vt 0.06666667 0.9058824
vt 0 1
vt 0.06666667 1
vt 0 0.9058824
vt 0.06666667 0.9058824
vt 0 1
vt 0.06666667 1
vt 0 0.9058824
vt 0.06666667 0.9058824
vt 0 1
vt 0.06666667 1
vt 0 0.9058824
vt 0.06666667 0.9058824
vt 0 1
vt 0.06666667 1
vt 0 0.9058824
vt 0.06666667 0.9058824
vt 0 1
vt 0.06666667 1
vt 0 0.9058824
vt 0.06666667 0.9058824
vt 0 1
vt 0.06666667 1
vt 0 0.9058824
vt 0.06666667 0.9058824
vt 0 1
vt 0.06666667 1
vt 0 0.9058824
vt 0.06666667 0.9058824
vt 0 1
vt 0.06666667 1
vt 0 0.9058824
vt 0.06666667 0.9058824
vt 0 1
vt 0.06666667 1
vt 0 0.9058824
vt 0.06666667 0.9058824
vt 0 1
vt 0.06666667 1
vt 0 0.9058824
vt 0.06666667 0.9058824
vt 0 1
vt 0.06666667 1
vt 0 0.9058824
vt 0.06666667 0.9058824
vt 0 1
vt 0.06666667 1
vt 0 0.9058824
vt 0.06666667 0.9058824
vt 0 1
vt 0.06666667 1
vt 0 0.9058824
vt 0.06666667 0.9058824
vt 0 1
vt 0.06666667 1
vt 0 0.9058824
vt 0.06666667 0.9058824
vt 0 1
vt 0.06666667 1
vt 0 0.9058824
vt 0.06666667 0.9058824
vt 0 1
vt 0.06666667 1
vt 0 0.9058824
vt 0.06666667 0.9058824
vt 0 1
vt 0.06666667 1
vt 0 0.9058824
vt 0.06666667 0.9058824
vt 0 1
vt 0.06666667 1
vt 0 0.9058824
vt 0.06666667 0.9058824
vt 0 1
vt 0.06666667 1
vt 0 0.9058824
vt 0.06666667 0.9058824
vt 0 1
vt 0.06666667 1
vt 0 0.9058824
vt 0.06666667 0.9058824
vt 0 1
vt 0.06666667 1
vt 0 0.9058824
vt 0.06666667 0.9058824
vt 0 1
vt 0.06666667 1
vt 0 0.9058824
vt 0.06666667 0.9058824
vt 0 1
vt 0.06666667 1
vt 0 0.9058824
vt 0.06666667 0.9058824
vt 0 1
vt 0.06666667 1
vt 0 0.9058824
vt 0.06666667 0.9058824
vt 0 1
vt 0.06666667 1
vt 0 0.9058824
vt 0.06666667 0.9058824
vt 0 1
vt 0.06666667 1
vt 0 0.9058824
vt 0.06666667 0.9058824
vt 0 1
vt 0.06666667 1
vn 0 1 0
vn 0 1 0
vn 0 1 0
vn 0 1 0
vn 0 1 0
vn 0 1 0
vn 0 1 0
vn 0 1 0
vn 0 1 0
vn 0 1 0
vn 0 1 0
vn 0 1 0
vn 0 1 0
vn 0 1 0
vn 0 1 0
vn 0 1 0
vn 0 1 0
vn 0 1 0
vn 0 1 0
vn 0 1 0
vn 0 1 0
vn 0 1 0
vn 0 1 0
vn 0 1 0
vn 0 1 0
vn 0 1 0
vn 0 1 0
vn 0 1 0
vn 0 1 0
vn 0 1 0
vn 0 1 0
vn 0 1 0
vn 0 1 0
vn 0 1 0
vn 0 1 0
vn 0 1 0
vn 0 1 0
vn 0 1 0
vn 0 1 0
vn 0 1 0
vn 0 1 0
vn 0 1 0
vn 0 1 0
vn 0 1 0
vn 0 1 0
vn 0 1 0
vn 0 1 0
vn 0 1 0
vn 0 1 0
vn 0 1 0
vn 0 1 0
vn 0 1 0
vn 0 1 0
vn 0 1 0
vn 0 1 0
vn 0 1 0
vn 0 1 0
vn 0 1 0
vn 0 1 0
vn 0 1 0
vn 0 1 0
vn 0 1 0
vn 0 1 0
vn 0 1 0
vn 0 1 0
vn 0 1 0
vn 0 1 0
vn 0 1 0
vn 0 1 0
vn 0 1 0
vn 0 1 0
vn 0 1 0
vn 0 1 0
vn 0 1 0
vn 0 1 0
vn 0 1 0
vn 0 1 0
vn 0 1 0
vn 0 1 0
vn 0 1 0
vn 0 1 0
vn 0 1 0
vn 0 1 0
vn 0 1 0
vn 0 1 0
vn 0 1 0
vn 0 1 0
vn 0 1 0
vn 0 1 0
vn 0 1 0
vn 0 1 0
vn 0 1 0
vn 0 1 0
vn 0 1 0
vn 0 1 0
vn 0 1 0
vn 0 1 0
vn 0 1 0
vn 0 1 0
vn 0 1 0
vn 0 1 0
vn 0 1 0
vn 0 1 0
vn 0 1 0
vn 0 1 0
vn 0 1 0
vn 0 1 0
vn 0 1 0
vn 0 1 0
vn 0 1 0
vn 0 1 0
vn 0 1 0
vn 0 1 0
vn 0 1 0
vn 0 1 0
vn 0 1 0
vn 0 1 0
vn 0 1 0
vn 0 1 0
vn 0 1 0
vn 0 1 0
vn 0 1 0
vn 0 1 0
vn 0 1 0
vn 0 1 0
vn 0 1 0
vn 0 1 0
vn 0 1 0
vn 0 1 0
vn 0 1 0
vn 0 1 0
vn 0 1 0
vn 0 1 0
vn 0 1 0
vn 0 1 0
vn 0 1 0
vn 0 1 0
vn 0 1 0
vn 0 1 0
vn 0 1 0
vn 0 1 0
vn 0 1 0
vn 0 1 0
vn 0 1 0
vn 0 1 0
vn 0 1 0
vn 0 1 0
vn 0 1 0
vn 0 1 0
vn 0 1 0
vn 0 1 0
vn 0 1 0
vn 0 1 0
vn 0 1 0
vn 0 1 0
vn 0 1 0
vn 0 1 0
vn 0 1 0
vn 0 1 0
vn 0 1 0
vn 0 1 0
vn 0 1 0
vn 0 1 0
vn 0 1 0
vn 0 1 0
vn 0 1 0
vn 0 1 0
vn 0 1 0
vn 0 1 0
vn 0 1 0
vn 0 1 0
vn 0 1 0
vn 0 1 0
vn 0 1 0
vn 0 1 0
vn 0 1 0
vn 0 1 0
vn 0 1 0
vn 0 1 0
vn 0 1 0
vn 0 1 0
vn 0 1 0
vn 0 1 0
vn 0 1 0
vn 0 1 0
vn 0 1 0
vn 0 1 0
vn 0 1 0
vn 0 1 0
vn 0 1 0
vn 0 1 0
vn 0 1 0
vn 0 1 0
vn 0 1 0
vn 0 1 0
vn 0 1 0
vn 0 1 0
vn 0 1 0
vn 0 1 0
vn 0 1 0
vn 0 1 0
vn 0 1 0
vn 0 1 0
vn 0 1 0
vn 0 1 0
vn 0 1 0
vn 0 1 0
vn 0 1 0
g Grass_0_Cluster319_0
f 2/2/2 3/3/3 1/1/1
f 2/2/2 4/4/4 3/3/3
f 6/6/6 7/7/7 5/5/5
f 6/6/6 8/8/8 7/7/7
f 10/10/10 11/11/11 9/9/9
f 10/10/10 12/12/12 11/11/11
f 14/14/14 15/15/15 13/13/13
f 14/14/14 16/16/16 15/15/15
f 18/18/18 19/19/19 17/17/17
f 18/18/18 20/20/20 19/19/19
f 22/22/22 23/23/23 21/21/21
f 22/22/22 24/24/24 23/23/23
f 26/26/26 27/27/27 25/25/25
f 26/26/26 28/28/28 27/27/27
f 30/30/30 31/31/31 29/29/29
f 30/30/30 32/32/32 31/31/31
f 34/34/34 35/35/35 33/33/33
f 34/34/34 36/36/36 35/35/35
f 38/38/38 39/39/39 37/37/37
f 38/38/38 40/40/40 39/39/39
f 42/42/42 43/43/43 41/41/41
f 42/42/42 44/44/44 43/43/43
f 46/46/46 47/47/47 45/45/45
f 46/46/46 48/48/48 47/47/47
f 50/50/50 51/51/51 49/49/49
f 50/50/50 52/52/52 51/51/51
f 54/54/54 55/55/55 53/53/53
f 54/54/54 56/56/56 55/55/55
f 58/58/58 59/59/59 57/57/57
f 58/58/58 60/60/60 59/59/59
f 62/62/62 63/63/63 61/61/61
f 62/62/62 64/64/64 63/63/63
f 66/66/66 67/67/67 65/65/65
f 66/66/66 68/68/68 67/67/67
f 70/70/70 71/71/71 69/69/69
f 70/70/70 72/72/72 71/71/71
f 74/74/74 75/75/75 73/73/73
f 74/74/74 76/76/76 75/75/75
f 78/78/78 79/79/79 77/77/77
f 78/78/78 80/80/80 79/79/79
f 82/82/82 83/83/83 81/81/81
f 82/82/82 84/84/84 83/83/83
f 86/86/86 87/87/87 85/85/85
f 86/86/86 88/88/88 87/87/87
f 90/90/90 91/91/91 89/89/89
f 90/90/90 92/92/92 91/91/91
f 94/94/94 95/95/95 93/93/93
f 94/94/94 96/96/96 95/95/95
f 98/98/98 99/99/99 97/97/97
f 98/98/98 100/100/100 99/99/99
f 102/102/102 103/103/103 101/101/101
f 102/102/102 104/104/104 103/103/103
f 106/106/106 107/107/107 105/105/105
f 106/106/106 108/108/108 107/107/107
f 110/110/110 111/111/111 109/109/109
f 110/110/110 112/112/112 111/111/111
f 114/114/114 115/115/115 113/113/113
f 114/114/114 116/116/116 115/115/115
f 118/118/118 119/119/119 117/117/117
f 118/118/118 120/120/120 119/119/119
f 122/122/122 123/123/123 121/121/121
f 122/122/122 124/124/124 123/123/123
f 126/126/126 127/127/127 125/125/125
f 126/126/126 128/128/128 127/127/127
f 130/130/130 131/131/131 129/129/129
f 130/130/130 132/132/132 131/131/131
f 134/134/134 135/135/135 133/133/133
f 134/134/134 136/136/136 135/135/135
f 138/138/138 139/139/139 137/137/137
f 138/138/138 140/140/140 139/139/139
f 142/142/142 143/143/143 141/141/141
f 142/142/142 144/144/144 143/143/143
f 146/146/146 147/147/147 145/145/145
f 146/146/146 148/148/148 147/147/147
f 150/150/150 151/151/151 149/149/149
f 150/150/150 152/152/152 151/151/151
f 154/154/154 155/155/155 153/153/153
f 154/154/154 156/156/156 155/155/155
f 158/158/158 159/159/159 157/157/157
f 158/158/158 160/160/160 159/159/159
f 162/162/162 163/163/163 161/161/161
f 162/162/162 164/164/164 163/163/163
f 166/166/166 167/167/167 165/165/165
f 166/166/166 168/168/168 167/167/167
f 170/170/170 171/171/171 169/169/169
f 170/170/170 172/172/172 171/171/171
f 174/174/174 175/175/175 173/173/173
f 174/174/174 176/176/176 175/175/175
f 178/178/178 179/179/179 177/177/177
f 178/178/178 180/180/180 179/179/179
f 182/182/182 183/183/183 181/181/181
f 182/182/182 184/184/184 183/183/183
f 186/186/186 187/187/187 185/185/185
f 186/186/186 188/188/188 187/187/187
f 190/190/190 191/191/191 189/189/189
f 190/190/190 192/192/192 191/191/191
f 194/194/194 195/195/195 193/193/193
f 194/194/194 196/196/196 195/195/195
f 198/198/198 199/199/199 197/197/197
f 198/198/198 200/200/200 199/199/199
f 202/202/202 203/203/203 201/201/201
f 202/202/202 204/204/204 203/203/203
f 206/206/206 207/207/207 205/205/205
f 206/206/206 208/208/208 207/207/207
