g Grass_0_Cluster257
v -224.4983 0 352.2896
v -225.5344 0 352.2896
v -224.4983 0 353.3257
v -225.5344 0 353.3257
v -217.5906 0 351.9442
v -218.2814 0 351.9442
v -217.5906 0 353.3257
v -218.2814 0 353.3257
v -223.1167 0 350.2173
v -223.8075 0 350.2173
v -223.1167 0 351.5988
v -223.8075 0 351.5988
v -217.5906 0 350.2173
v -218.6268 0 350.2173
v -217.5906 0 351.5988
v -218.6268 0 351.5988
v -236.2412 0 350.2173
v -237.2774 0 350.2173
v -236.2412 0 351.2534
v -237.2774 0 351.2534
v -238.6589 0 349.5265
v -239.6951 0 349.5265
v -238.6589 0 350.9081
v -239.6951 0 350.9081
v -237.2774 0 349.1811
v -238.3135 0 349.1811
v -237.2774 0 350.5627
v -238.3135 0 350.5627
v -237.9682 0 346.0727
v -239.0043 0 346.0727
v -237.9682 0 347.4542
v -239.0043 0 347.4542
v -218.2814 0 344.0004
v -219.3175 0 344.0004
v -218.2814 0 345.3819
v -219.3175 0 345.3819
v -229.679 0 339.1651
v -230.3698 0 339.1651
v -229.679 0 340.2012
v -230.3698 0 340.2012
v -212.0645 0 337.4381
v -213.1006 0 337.4381
v -212.0645 0 338.4743
v -213.1006 0 338.4743
v -230.3698 0 337.0928
v -231.0605 0 337.0928
v -230.3698 0 338.1289
v -231.0605 0 338.1289
v -232.442 0 336.402
v -233.4782 0 336.402
v -232.442 0 337.7835
v -233.4782 0 337.7835
v -220.3537 0 336.402
v -221.3898 0 336.402
v -220.3537 0 337.4381
v -221.3898 0 337.4381
v -227.9521 0 334.3297
v -228.9882 0 334.3297
v -227.9521 0 335.7112
v -228.9882 0 335.7112
v -229.3336 0 334.3297
v -230.3698 0 334.3297
v -229.3336 0 335.3658
v -230.3698 0 335.3658
v -228.2975 0 333.9843
v -229.3336 0 333.9843
v -228.2975 0 335.3658
v -229.3336 0 335.3658
v -221.0444 0 333.9843
v -221.7352 0 333.9843
v -221.0444 0 335.3658
v -221.7352 0 335.3658
v -226.9159 0 333.6389
v -227.6067 0 333.6389
v -226.9159 0 335.0205
v -227.6067 0 335.0205
v -230.7151 0 332.9482
v -231.7513 0 332.9482
v -230.7151 0 334.3297
v -231.7513 0 334.3297
v -227.2613 0 332.6028
v -227.9521 0 332.6028
v -227.2613 0 333.6389
v -227.9521 0 333.6389
v -212.0645 0 331.912
v -212.7553 0 331.912
v -212.0645 0 333.2935
v -212.7553 0 333.2935
v -229.679 0 330.8759
v -230.7151 0 330.8759
v -229.679 0 332.2574
v -230.7151 0 332.2574
v -233.8236 0 330.1851
v -234.8597 0 330.1851
v -233.8236 0 331.5667
v -234.8597 0 331.5667
vt 0 0.9058824
vt 0.06666667 0.9058824
vt 0 1
vt 0.06666667 1
vt 0 0.9058824
vt 0.06666667 0.9058824
vt 0 1
vt 0.06666667 1
vt 0 0.9058824
vt 0.06666667 0.9058824
vt 0 1
vt 0.06666667 1
vt 0 0.9058824
vt 0.06666667 0.9058824
vt 0 1
vt 0.06666667 1
vt 0 0.9058824
vt 0.06666667 0.9058824
vt 0 1
vt 0.06666667 1
vt 0 0.9058824
vt 0.06666667 0.9058824
vt 0 1
vt 0.06666667 1
vt 0 0.9058824
vt 0.06666667 0.9058824
vt 0 1
vt 0.06666667 1
vt 0 0.9058824
vt 0.06666667 0.9058824
vt 0 1
vt 0.06666667 1
vt 0 0.9058824
vt 0.06666667 0.9058824
vt 0 1
vt 0.06666667 1
vt 0 0.9058824
vt 0.06666667 0.9058824
vt 0 1
vt 0.06666667 1
vt 0 0.9058824
vt 0.06666667 0.9058824
vt 0 1
vt 0.06666667 1
vt 0 0.9058824
vt 0.06666667 0.9058824
vt 0 1
vt 0.06666667 1
vt 0 0.9058824
vt 0.06666667 0.9058824
vt 0 1
vt 0.06666667 1
vt 0 0.9058824
vt 0.06666667 0.9058824
vt 0 1
vt 0.06666667 1
vt 0 0.9058824
vt 0.06666667 0.9058824
vt 0 1
vt 0.06666667 1
vt 0 0.9058824
vt 0.06666667 0.9058824
vt 0 1
vt 0.06666667 1
vt 0 0.9058824
vt 0.06666667 0.9058824
vt 0 1
vt 0.06666667 1
vt 0 0.9058824
vt 0.06666667 0.9058824
vt 0 1
vt 0.06666667 1
vt 0 0.9058824
vt 0.06666667 0.9058824
vt 0 1
vt 0.06666667 1
vt 0 0.9058824
vt 0.06666667 0.9058824
vt 0 1
vt 0.06666667 1
vt 0 0.9058824
vt 0.06666667 0.9058824
vt 0 1
vt 0.06666667 1
vt 0 0.9058824
vt 0.06666667 0.9058824
vt 0 1
vt 0.06666667 1
vt 0 0.9058824
vt 0.06666667 0.9058824
vt 0 1
vt 0.06666667 1
vt 0 0.9058824
vt 0.06666667 0.9058824
vt 0 1
vt 0.06666667 1
vn 0 1 0
vn 0 1 0
vn 0 1 0
vn 0 1 0
vn 0 1 0
vn 0 1 0
vn 0 1 0
vn 0 1 0
vn 0 1 0
vn 0 1 0
vn 0 1 0
vn 0 1 0
vn 0 1 0
vn 0 1 0
vn 0 1 0
vn 0 1 0
vn 0 1 0
vn 0 1 0
vn 0 1 0
vn 0 1 0
vn 0 1 0
vn 0 1 0
vn 0 1 0
vn 0 1 0
vn 0 1 0
vn 0 1 0
vn 0 1 0
vn 0 1 0
vn 0 1 0
vn 0 1 0
vn 0 1 0
vn 0 1 0
vn 0 1 0
vn 0 1 0
vn 0 1 0
vn 0 1 0
vn 0 1 0
vn 0 1 0
vn 0 1 0
vn 0 1 0
vn 0 1 0
vn 0 1 0
vn 0 1 0
vn 0 1 0
vn 0 1 0
vn 0 1 0
vn 0 1 0
vn 0 1 0
vn 0 1 0
vn 0 1 0
vn 0 1 0
vn 0 1 0
vn 0 1 0
vn 0 1 0
vn 0 1 0
vn 0 1 0
vn 0 1 0
vn 0 1 0
vn 0 1 0
vn 0 1 0
vn 0 1 0
vn 0 1 0
vn 0 1 0
vn 0 1 0
vn 0 1 0
vn 0 1 0
vn 0 1 0
vn 0 1 0
vn 0 1 0
vn 0 1 0
vn 0 1 0
vn 0 1 0
vn 0 1 0
vn 0 1 0
vn 0 1 0
vn 0 1 0
vn 0 1 0
vn 0 1 0
vn 0 1 0
vn 0 1 0
vn 0 1 0
vn 0 1 0
vn 0 1 0
vn 0 1 0
vn 0 1 0
vn 0 1 0
vn 0 1 0
vn 0 1 0
vn 0 1 0
vn 0 1 0
vn 0 1 0
vn 0 1 0
vn 0 1 0
vn 0 1 0
vn 0 1 0
vn 0 1 0
g Grass_0_Cluster257_0
f 2/2/2 3/3/3 1/1/1
f 2/2/2 4/4/4 3/3/3
f 6/6/6 7/7/7 5/5/5
f 6/6/6 8/8/8 7/7/7
f 10/10/10 11/11/11 9/9/9
f 10/10/10 12/12/12 11/11/11
f 14/14/14 15/15/15 13/13/13
f 14/14/14 16/16/16 15/15/15
f 18/18/18 19/19/19 17/17/17
f 18/18/18 20/20/20 19/19/19
f 22/22/22 23/23/23 21/21/21
f 22/22/22 24/24/24 23/23/23
f 26/26/26 27/27/27 25/25/25
f 26/26/26 28/28/28 27/27/27
f 30/30/30 31/31/31 29/29/29
f 30/30/30 32/32/32 31/31/31
f 34/34/34 35/35/35 33/33/33
f 34/34/34 36/36/36 35/35/35
f 38/38/38 39/39/39 37/37/37
f 38/38/38 40/40/40 39/39/39
f 42/42/42 43/43/43 41/41/41
f 42/42/42 44/44/44 43/43/43
f 46/46/46 47/47/47 45/45/45
f 46/46/46 48/48/48 47/47/47
f 50/50/50 51/51/51 49/49/49
f 50/50/50 52/52/52 51/51/51
f 54/54/54 55/55/55 53/53/53
f 54/54/54 56/56/56 55/55/55
f 58/58/58 59/59/59 57/57/57
f 58/58/58 60/60/60 59/59/59
f 62/62/62 63/63/63 61/61/61
f 62/62/62 64/64/64 63/63/63
f 66/66/66 67/67/67 65/65/65
f 66/66/66 68/68/68 67/67/67
f 70/70/70 71/71/71 69/69/69
f 70/70/70 72/72/72 71/71/71
f 74/74/74 75/75/75 73/73/73
f 74/74/74 76/76/76 75/75/75
f 78/78/78 79/79/79 77/77/77
f 78/78/78 80/80/80 79/79/79
f 82/82/82 83/83/83 81/81/81
f 82/82/82 84/84/84 83/83/83
f 86/86/86 87/87/87 85/85/85
f 86/86/86 88/88/88 87/87/87
f 90/90/90 91/91/91 89/89/89
f 90/90/90 92/92/92 91/91/91
f 94/94/94 95/95/95 93/93/93
f 94/94/94 96/96/96 95/95/95
