g Grass_0_Cluster97
v -213.392 0 112.917
v -214.331 0 112.917
v -213.392 0 114.0908
v -214.331 0 114.0908
v -216.4438 0 112.917
v -217.1481 0 112.917
v -216.4438 0 114.0908
v -217.1481 0 114.0908
v -217.1481 0 112.6823
v -218.0871 0 112.6823
v -217.1481 0 113.856
v -218.0871 0 113.856
v -218.3219 0 111.978
v -219.2609 0 111.978
v -218.3219 0 113.1518
v -219.2609 0 113.1518
v -214.0963 0 111.7432
v -214.8006 0 111.7432
v -214.0963 0 112.917
v -214.8006 0 112.917
v -215.9743 0 111.5085
v -216.9133 0 111.5085
v -215.9743 0 112.6823
v -216.9133 0 112.6823
v -217.1481 0 111.039
v -218.0871 0 111.039
v -217.1481 0 112.4475
v -218.0871 0 112.4475
v -219.4957 0 111.039
v -220.1999 0 111.039
v -219.4957 0 112.2127
v -220.1999 0 112.2127
v -237.5718 0 108.6914
v -238.276 0 108.6914
v -237.5718 0 109.8652
v -238.276 0 109.8652
v -236.8675 0 107.0481
v -237.5718 0 107.0481
v -236.8675 0 108.2219
v -237.5718 0 108.2219
v -234.5199 0 104.2311
v -235.2242 0 104.2311
v -234.5199 0 105.4049
v -235.2242 0 105.4049
v -211.7487 0 99.06648
v -212.453 0 99.06648
v -211.7487 0 100.2403
v -212.453 0 100.2403
v -237.337 0 98.83173
v -238.276 0 98.83173
v -237.337 0 100.0055
v -238.276 0 100.0055
v -235.2242 0 97.65795
v -236.1632 0 97.65795
v -235.2242 0 98.83173
v -236.1632 0 98.83173
v -228.4163 0 96.71893
v -229.1206 0 96.71893
v -228.4163 0 98.12746
v -229.1206 0 98.12746
v -225.3645 0 96.24943
v -226.3035 0 96.24943
v -225.3645 0 97.4232
v -226.3035 0 97.4232
v -227.7121 0 96.24943
v -228.4163 0 96.24943
v -227.7121 0 97.4232
v -228.4163 0 97.4232
v -237.1022 0 95.54517
v -238.0413 0 95.54517
v -237.1022 0 96.71893
v -238.0413 0 96.71893
v -238.9803 0 95.31041
v -239.9193 0 95.31041
v -238.9803 0 96.71893
v -239.9193 0 96.71893
v -228.4163 0 95.31041
v -229.3553 0 95.31041
v -228.4163 0 96.48418
v -229.3553 0 96.48418
v -225.834 0 94.60615
v -226.5383 0 94.60615
v -225.834 0 95.77991
v -226.5383 0 95.77991
v -239.215 0 94.60615
v -240.1541 0 94.60615
v -239.215 0 96.01467
v -240.1541 0 96.01467
v -238.5108 0 94.60615
v -239.215 0 94.60615
v -238.5108 0 95.77991
v -239.215 0 95.77991
v -225.5993 0 94.37139
v -226.5383 0 94.37139
v -225.5993 0 95.54517
v -226.5383 0 95.54517
v -226.5383 0 93.90188
v -227.4773 0 93.90188
v -226.5383 0 95.07565
v -227.4773 0 95.07565
v -237.8065 0 93.90188
v -238.7455 0 93.90188
v -237.8065 0 95.07565
v -238.7455 0 95.07565
v -236.8675 0 93.66712
v -237.8065 0 93.66712
v -236.8675 0 94.8409
v -237.8065 0 94.8409
v -238.9803 0 93.43237
v -239.9193 0 93.43237
v -238.9803 0 94.8409
v -239.9193 0 94.8409
v -233.1114 0 93.43237
v -234.0504 0 93.43237
v -233.1114 0 94.60615
v -234.0504 0 94.60615
v -234.9895 0 92.96286
v -235.9285 0 92.96286
v -234.9895 0 94.37139
v -235.9285 0 94.37139
v -238.9803 0 92.49335
v -239.9193 0 92.49335
v -238.9803 0 93.66712
v -239.9193 0 93.66712
v -237.5718 0 92.49335
v -238.5108 0 92.49335
v -237.5718 0 93.66712
v -238.5108 0 93.66712
v -238.5108 0 91.78909
v -239.4498 0 91.78909
v -238.5108 0 92.96286
v -239.4498 0 92.96286
v -223.956 0 90.85007
v -224.895 0 90.85007
v -223.956 0 92.02384
v -224.895 0 92.02384
v -238.276 0 90.61531
v -238.9803 0 90.61531
v -238.276 0 91.78909
v -238.9803 0 91.78909
v -237.1022 0 89.44154
v -238.0413 0 89.44154
v -237.1022 0 90.61531
v -238.0413 0 90.61531
v -238.7455 0 89.20679
v -239.6846 0 89.20679
v -238.7455 0 90.38056
v -239.6846 0 90.38056
v -238.7455 0 88.73727
v -239.6846 0 88.73727
v -238.7455 0 89.91105
v -239.6846 0 89.91105
v -238.276 0 87.79826
v -239.215 0 87.79826
v -238.276 0 88.97203
v -239.215 0 88.97203
v -238.276 0 86.62448
v -239.215 0 86.62448
v -238.276 0 87.79826
v -239.215 0 87.79826
v -236.6327 0 85.45071
v -237.5718 0 85.45071
v -236.6327 0 86.85924
v -237.5718 0 86.85924
v -235.6937 0 84.51169
v -236.6327 0 84.51169
v -235.6937 0 85.92022
v -236.6327 0 85.92022
v -232.8767 0 84.04218
v -233.8157 0 84.04218
v -232.8767 0 85.21596
v -233.8157 0 85.21596
v -238.7455 0 83.80743
v -239.6846 0 83.80743
v -238.7455 0 85.21596
v -239.6846 0 85.21596
v -237.337 0 83.33792
v -238.276 0 83.33792
v -237.337 0 84.74644
v -238.276 0 84.74644
vt 0 0.9058824
vt 0.06666667 0.9058824
vt 0 1
vt 0.06666667 1
vt 0 0.9058824
vt 0.06666667 0.9058824
vt 0 1
vt 0.06666667 1
vt 0 0.9058824
vt 0.06666667 0.9058824
vt 0 1
vt 0.06666667 1
vt 0 0.9058824
vt 0.06666667 0.9058824
vt 0 1
vt 0.06666667 1
vt 0 0.9058824
vt 0.06666667 0.9058824
vt 0 1
vt 0.06666667 1
vt 0 0.9058824
vt 0.06666667 0.9058824
vt 0 1
vt 0.06666667 1
vt 0 0.9058824
vt 0.06666667 0.9058824
vt 0 1
vt 0.06666667 1
vt 0 0.9058824
vt 0.06666667 0.9058824
vt 0 1
vt 0.06666667 1
vt 0 0.9058824
vt 0.06666667 0.9058824
vt 0 1
vt 0.06666667 1
vt 0 0.9058824
vt 0.06666667 0.9058824
vt 0 1
vt 0.06666667 1
vt 0 0.9058824
vt 0.06666667 0.9058824
vt 0 1
vt 0.06666667 1
vt 0 0.9058824
vt 0.06666667 0.9058824
vt 0 1
vt 0.06666667 1
vt 0 0.9058824
vt 0.06666667 0.9058824
vt 0 1
vt 0.06666667 1
vt 0 0.9058824
vt 0.06666667 0.9058824
vt 0 1
vt 0.06666667 1
vt 0 0.9058824
vt 0.06666667 0.9058824
vt 0 1
vt 0.06666667 1
vt 0 0.9058824
vt 0.06666667 0.9058824
vt 0 1
vt 0.06666667 1
vt 0 0.9058824
vt 0.06666667 0.9058824
vt 0 1
vt 0.06666667 1
vt 0 0.9058824
vt 0.06666667 0.9058824
vt 0 1
vt 0.06666667 1
vt 0 0.9058824
vt 0.06666667 0.9058824
vt 0 1
vt 0.06666667 1
vt 0 0.9058824
vt 0.06666667 0.9058824
vt 0 1
vt 0.06666667 1
vt 0 0.9058824
vt 0.06666667 0.9058824
vt 0 1
vt 0.06666667 1
vt 0 0.9058824
vt 0.06666667 0.9058824
vt 0 1
vt 0.06666667 1
vt 0 0.9058824
vt 0.06666667 0.9058824
vt 0 1
vt 0.06666667 1
vt 0 0.9058824
vt 0.06666667 0.9058824
vt 0 1
vt 0.06666667 1
vt 0 0.9058824
vt 0.06666667 0.9058824
vt 0 1
vt 0.06666667 1
vt 0 0.9058824
vt 0.06666667 0.9058824
vt 0 1
vt 0.06666667 1
vt 0 0.9058824
vt 0.06666667 0.9058824
vt 0 1
vt 0.06666667 1
vt 0 0.9058824
vt 0.06666667 0.9058824
vt 0 1
vt 0.06666667 1
vt 0 0.9058824
vt 0.06666667 0.9058824
vt 0 1
vt 0.06666667 1
vt 0 0.9058824
vt 0.06666667 0.9058824
vt 0 1
vt 0.06666667 1
vt 0 0.9058824
vt 0.06666667 0.9058824
vt 0 1
vt 0.06666667 1
vt 0 0.9058824
vt 0.06666667 0.9058824
vt 0 1
vt 0.06666667 1
vt 0 0.9058824
vt 0.06666667 0.9058824
vt 0 1
vt 0.06666667 1
vt 0 0.9058824
vt 0.06666667 0.9058824
vt 0 1
vt 0.06666667 1
vt 0 0.9058824
vt 0.06666667 0.9058824
vt 0 1
vt 0.06666667 1
vt 0 0.9058824
vt 0.06666667 0.9058824
vt 0 1
vt 0.06666667 1
vt 0 0.9058824
vt 0.06666667 0.9058824
vt 0 1
vt 0.06666667 1
vt 0 0.9058824
vt 0.06666667 0.9058824
vt 0 1
vt 0.06666667 1
vt 0 0.9058824
vt 0.06666667 0.9058824
vt 0 1
vt 0.06666667 1
vt 0 0.9058824
vt 0.06666667 0.9058824
vt 0 1
vt 0.06666667 1
vt 0 0.9058824
vt 0.06666667 0.9058824
vt 0 1
vt 0.06666667 1
vt 0 0.9058824
vt 0.06666667 0.9058824
vt 0 1
vt 0.06666667 1
vt 0 0.9058824
vt 0.06666667 0.9058824
vt 0 1
vt 0.06666667 1
vt 0 0.9058824
vt 0.06666667 0.9058824
vt 0 1
vt 0.06666667 1
vt 0 0.9058824
vt 0.06666667 0.9058824
vt 0 1
vt 0.06666667 1
vn 0 1 0
vn 0 1 0
vn 0 1 0
vn 0 1 0
vn 0 1 0
vn 0 1 0
vn 0 1 0
vn 0 1 0
vn 0 1 0
vn 0 1 0
vn 0 1 0
vn 0 1 0
vn 0 1 0
vn 0 1 0
vn 0 1 0
vn 0 1 0
vn 0 1 0
vn 0 1 0
vn 0 1 0
vn 0 1 0
vn 0 1 0
vn 0 1 0
vn 0 1 0
vn 0 1 0
vn 0 1 0
vn 0 1 0
vn 0 1 0
vn 0 1 0
vn 0 1 0
vn 0 1 0
vn 0 1 0
vn 0 1 0
vn 0 1 0
vn 0 1 0
vn 0 1 0
vn 0 1 0
vn 0 1 0
vn 0 1 0
vn 0 1 0
vn 0 1 0
vn 0 1 0
vn 0 1 0
vn 0 1 0
vn 0 1 0
vn 0 1 0
vn 0 1 0
vn 0 1 0
vn 0 1 0
vn 0 1 0
vn 0 1 0
vn 0 1 0
vn 0 1 0
vn 0 1 0
vn 0 1 0
vn 0 1 0
vn 0 1 0
vn 0 1 0
vn 0 1 0
vn 0 1 0
vn 0 1 0
vn 0 1 0
vn 0 1 0
vn 0 1 0
vn 0 1 0
vn 0 1 0
vn 0 1 0
vn 0 1 0
vn 0 1 0
vn 0 1 0
vn 0 1 0
vn 0 1 0
vn 0 1 0
vn 0 1 0
vn 0 1 0
vn 0 1 0
vn 0 1 0
vn 0 1 0
vn 0 1 0
vn 0 1 0
vn 0 1 0
vn 0 1 0
vn 0 1 0
vn 0 1 0
vn 0 1 0
vn 0 1 0
vn 0 1 0
vn 0 1 0
vn 0 1 0
vn 0 1 0
vn 0 1 0
vn 0 1 0
vn 0 1 0
vn 0 1 0
vn 0 1 0
vn 0 1 0
vn 0 1 0
vn 0 1 0
vn 0 1 0
vn 0 1 0
vn 0 1 0
vn 0 1 0
vn 0 1 0
vn 0 1 0
vn 0 1 0
vn 0 1 0
vn 0 1 0
vn 0 1 0
vn 0 1 0
vn 0 1 0
vn 0 1 0
vn 0 1 0
vn 0 1 0
vn 0 1 0
vn 0 1 0
vn 0 1 0
vn 0 1 0
vn 0 1 0
vn 0 1 0
vn 0 1 0
vn 0 1 0
vn 0 1 0
vn 0 1 0
vn 0 1 0
vn 0 1 0
vn 0 1 0
vn 0 1 0
vn 0 1 0
vn 0 1 0
vn 0 1 0
vn 0 1 0
vn 0 1 0
vn 0 1 0
vn 0 1 0
vn 0 1 0
vn 0 1 0
vn 0 1 0
vn 0 1 0
vn 0 1 0
vn 0 1 0
vn 0 1 0
vn 0 1 0
vn 0 1 0
vn 0 1 0
vn 0 1 0
vn 0 1 0
vn 0 1 0
vn 0 1 0
vn 0 1 0
vn 0 1 0
vn 0 1 0
vn 0 1 0
vn 0 1 0
vn 0 1 0
vn 0 1 0
vn 0 1 0
vn 0 1 0
vn 0 1 0
vn 0 1 0
vn 0 1 0
vn 0 1 0
vn 0 1 0
vn 0 1 0
vn 0 1 0
vn 0 1 0
vn 0 1 0
vn 0 1 0
vn 0 1 0
vn 0 1 0
vn 0 1 0
vn 0 1 0
vn 0 1 0
vn 0 1 0
vn 0 1 0
vn 0 1 0
vn 0 1 0
vn 0 1 0
vn 0 1 0
vn 0 1 0
vn 0 1 0
vn 0 1 0
g Grass_0_Cluster97_0
f 2/2/2 3/3/3 1/1/1
f 2/2/2 4/4/4 3/3/3
f 6/6/6 7/7/7 5/5/5
f 6/6/6 8/8/8 7/7/7
f 10/10/10 11/11/11 9/9/9
f 10/10/10 12/12/12 11/11/11
f 14/14/14 15/15/15 13/13/13
f 14/14/14 16/16/16 15/15/15
f 18/18/18 19/19/19 17/17/17
f 18/18/18 20/20/20 19/19/19
f 22/22/22 23/23/23 21/21/21
f 22/22/22 24/24/24 23/23/23
f 26/26/26 27/27/27 25/25/25
f 26/26/26 28/28/28 27/27/27
f 30/30/30 31/31/31 29/29/29
f 30/30/30 32/32/32 31/31/31
f 34/34/34 35/35/35 33/33/33
f 34/34/34 36/36/36 35/35/35
f 38/38/38 39/39/39 37/37/37
f 38/38/38 40/40/40 39/39/39
f 42/42/42 43/43/43 41/41/41
f 42/42/42 44/44/44 43/43/43
f 46/46/46 47/47/47 45/45/45
f 46/46/46 48/48/48 47/47/47
f 50/50/50 51/51/51 49/49/49
f 50/50/50 52/52/52 51/51/51
f 54/54/54 55/55/55 53/53/53
f 54/54/54 56/56/56 55/55/55
f 58/58/58 59/59/59 57/57/57
f 58/58/58 60/60/60 59/59/59
f 62/62/62 63/63/63 61/61/61
f 62/62/62 64/64/64 63/63/63
f 66/66/66 67/67/67 65/65/65
f 66/66/66 68/68/68 67/67/67
f 70/70/70 71/71/71 69/69/69
f 70/70/70 72/72/72 71/71/71
f 74/74/74 75/75/75 73/73/73
f 74/74/74 76/76/76 75/75/75
f 78/78/78 79/79/79 77/77/77
f 78/78/78 80/80/80 79/79/79
f 82/82/82 83/83/83 81/81/81
f 82/82/82 84/84/84 83/83/83
f 86/86/86 87/87/87 85/85/85
f 86/86/86 88/88/88 87/87/87
f 90/90/90 91/91/91 89/89/89
f 90/90/90 92/92/92 91/91/91
f 94/94/94 95/95/95 93/93/93
f 94/94/94 96/96/96 95/95/95
f 98/98/98 99/99/99 97/97/97
f 98/98/98 100/100/100 99/99/99
f 102/102/102 103/103/103 101/101/101
f 102/102/102 104/104/104 103/103/103
f 106/106/106 107/107/107 105/105/105
f 106/106/106 108/108/108 107/107/107
f 110/110/110 111/111/111 109/109/109
f 110/110/110 112/112/112 111/111/111
f 114/114/114 115/115/115 113/113/113
f 114/114/114 116/116/116 115/115/115
f 118/118/118 119/119/119 117/117/117
f 118/118/118 120/120/120 119/119/119
f 122/122/122 123/123/123 121/121/121
f 122/122/122 124/124/124 123/123/123
f 126/126/126 127/127/127 125/125/125
f 126/126/126 128/128/128 127/127/127
f 130/130/130 131/131/131 129/129/129
f 130/130/130 132/132/132 131/131/131
f 134/134/134 135/135/135 133/133/133
f 134/134/134 136/136/136 135/135/135
f 138/138/138 139/139/139 137/137/137
f 138/138/138 140/140/140 139/139/139
f 142/142/142 143/143/143 141/141/141
f 142/142/142 144/144/144 143/143/143
f 146/146/146 147/147/147 145/145/145
f 146/146/146 148/148/148 147/147/147
f 150/150/150 151/151/151 149/149/149
f 150/150/150 152/152/152 151/151/151
f 154/154/154 155/155/155 153/153/153
f 154/154/154 156/156/156 155/155/155
f 158/158/158 159/159/159 157/157/157
f 158/158/158 160/160/160 159/159/159
f 162/162/162 163/163/163 161/161/161
f 162/162/162 164/164/164 163/163/163
f 166/166/166 167/167/167 165/165/165
f 166/166/166 168/168/168 167/167/167
f 170/170/170 171/171/171 169/169/169
f 170/170/170 172/172/172 171/171/171
f 174/174/174 175/175/175 173/173/173
f 174/174/174 176/176/176 175/175/175
f 178/178/178 179/179/179 177/177/177
f 178/178/178 180/180/180 179/179/179
