g Grass_2_Cluster308
v 55.41256 -0.2250175 438.8334
v 54.43579 -0.2250175 438.8334
v 55.41256 -0.2250175 439.8102
v 54.43579 -0.2250175 439.8102
v 55.90095 -0.2250175 438.8334
v 54.92418 -0.2250175 438.8334
v 55.90095 -0.2250175 439.8102
v 54.92418 -0.2250175 439.8102
v 56.38934 -0.2250175 437.8567
v 55.41256 -0.2250175 437.8567
v 56.38934 -0.2250175 439.3218
v 55.41256 -0.2250175 439.3218
v 50.52871 -0.2250175 437.8567
v 49.55194 -0.2250175 437.8567
v 50.52871 -0.2250175 438.8334
v 49.55194 -0.2250175 438.8334
v 56.87772 -0.2250175 437.8567
v 55.90095 -0.2250175 437.8567
v 56.87772 -0.2250175 438.8334
v 55.90095 -0.2250175 438.8334
v 51.99387 -0.2250175 437.3683
v 51.0171 -0.2250175 437.3683
v 51.99387 -0.2250175 438.3451
v 51.0171 -0.2250175 438.3451
v 57.3661 -0.2250175 436.8799
v 56.87772 -0.2250175 436.8799
v 57.3661 -0.2250175 438.3451
v 56.87772 -0.2250175 438.3451
v 54.92418 -0.2250175 436.8799
v 53.94741 -0.2250175 436.8799
v 54.92418 -0.2250175 437.8567
v 53.94741 -0.2250175 437.8567
v 56.38934 -0.2250175 436.3915
v 55.41256 -0.2250175 436.3915
v 56.38934 -0.2250175 437.8567
v 55.41256 -0.2250175 437.8567
v 56.87772 -0.2250175 436.3915
v 55.90095 -0.2250175 436.3915
v 56.87772 -0.2250175 437.3683
v 55.90095 -0.2250175 437.3683
v 53.94741 -0.2250175 436.3915
v 52.97064 -0.2250175 436.3915
v 53.94741 -0.2250175 437.3683
v 52.97064 -0.2250175 437.3683
v 51.0171 -0.2250175 435.9031
v 50.04033 -0.2250175 435.9031
v 51.0171 -0.2250175 436.8799
v 50.04033 -0.2250175 436.8799
v 55.41256 -0.2250175 435.9031
v 54.92418 -0.2250175 435.9031
v 55.41256 -0.2250175 436.8799
v 54.92418 -0.2250175 436.8799
v 59.80803 -0.2250175 435.9031
v 58.83126 -0.2250175 435.9031
v 59.80803 -0.2250175 436.8799
v 58.83126 -0.2250175 436.8799
v 55.41256 -0.2250175 435.4147
v 54.43579 -0.2250175 435.4147
v 55.41256 -0.2250175 436.8799
v 54.43579 -0.2250175 436.8799
v 53.45902 -0.2250175 434.9264
v 52.48225 -0.2250175 434.9264
v 53.45902 -0.2250175 436.3915
v 52.48225 -0.2250175 436.3915
v 50.52871 -0.2250175 434.9264
v 49.55194 -0.2250175 434.9264
v 50.52871 -0.2250175 435.9031
v 49.55194 -0.2250175 435.9031
v 54.92418 -0.2250175 434.9264
v 53.94741 -0.2250175 434.9264
v 54.92418 -0.2250175 435.9031
v 53.94741 -0.2250175 435.9031
v 49.06355 -0.2250175 434.438
v 48.08678 -0.2250175 434.438
v 49.06355 -0.2250175 435.4147
v 48.08678 -0.2250175 435.4147
v 53.94741 -0.2250175 434.438
v 52.97064 -0.2250175 434.438
v 53.94741 -0.2250175 435.4147
v 52.97064 -0.2250175 435.4147
v 54.92418 -0.2250175 433.4612
v 53.94741 -0.2250175 433.4612
v 54.92418 -0.2250175 434.9264
v 53.94741 -0.2250175 434.9264
v 52.97064 -0.2250175 433.4612
v 51.99387 -0.2250175 433.4612
v 52.97064 -0.2250175 434.438
v 51.99387 -0.2250175 434.438
v 44.1797 -0.2250175 431.0193
v 43.20293 -0.2250175 431.0193
v 44.1797 -0.2250175 431.996
v 43.20293 -0.2250175 431.996
v 43.69131 -0.2250175 430.5309
v 42.71455 -0.2250175 430.5309
v 43.69131 -0.2250175 431.5077
v 42.71455 -0.2250175 431.5077
v 45.64486 -0.2250175 423.2051
v 44.66809 -0.2250175 423.2051
v 45.64486 -0.2250175 424.6703
v 44.66809 -0.2250175 424.6703
v 46.62163 -0.2250175 423.2051
v 45.64486 -0.2250175 423.2051
v 46.62163 -0.2250175 424.1819
v 45.64486 -0.2250175 424.1819
v 46.62163 -0.2250175 422.7167
v 45.64486 -0.2250175 422.7167
v 46.62163 -0.2250175 423.6935
v 45.64486 -0.2250175 423.6935
v 46.13324 -0.2250175 422.2283
v 45.15647 -0.2250175 422.2283
v 46.13324 -0.2250175 423.2051
v 45.15647 -0.2250175 423.2051
v 48.08678 -0.2250175 421.74
v 47.11001 -0.2250175 421.74
v 48.08678 -0.2250175 422.7167
v 47.11001 -0.2250175 422.7167
v 45.15647 -0.2250175 421.2516
v 44.1797 -0.2250175 421.2516
v 45.15647 -0.2250175 422.7167
v 44.1797 -0.2250175 422.7167
v 44.66809 -0.2250175 421.2516
v 43.69131 -0.2250175 421.2516
v 44.66809 -0.2250175 422.2283
v 43.69131 -0.2250175 422.2283
v 45.64486 -0.2250175 420.2748
v 44.66809 -0.2250175 420.2748
v 45.64486 -0.2250175 421.2516
v 44.66809 -0.2250175 421.2516
v 46.13324 -0.2250175 419.298
v 45.15647 -0.2250175 419.298
v 46.13324 -0.2250175 420.7632
v 45.15647 -0.2250175 420.7632
v 47.5984 -0.2250175 419.298
v 46.62163 -0.2250175 419.298
v 47.5984 -0.2250175 420.2748
v 46.62163 -0.2250175 420.2748
v 46.13324 -0.2250175 418.3213
v 45.64486 -0.2250175 418.3213
v 46.13324 -0.2250175 419.298
v 45.64486 -0.2250175 419.298
v 44.66809 -0.2250175 418.3213
v 44.1797 -0.2250175 418.3213
v 44.66809 -0.2250175 419.298
v 44.1797 -0.2250175 419.298
v 45.15647 -0.2250175 415.8793
v 44.1797 -0.2250175 415.8793
v 45.15647 -0.2250175 416.8561
v 44.1797 -0.2250175 416.8561
vt 0.1347656 0.9185662
vt 0.2060202 0.9185662
vt 0.1347656 1
vt 0.2060202 1
vt 0.1347656 0.9185662
vt 0.2060202 0.9185662
vt 0.1347656 1
vt 0.2060202 1
vt 0.1347656 0.9185662
vt 0.2060202 0.9185662
vt 0.1347656 1
vt 0.2060202 1
vt 0.1347656 0.9185662
vt 0.2060202 0.9185662
vt 0.1347656 1
vt 0.2060202 1
vt 0.1347656 0.9185662
vt 0.2060202 0.9185662
vt 0.1347656 1
vt 0.2060202 1
vt 0.1347656 0.9185662
vt 0.2060202 0.9185662
vt 0.1347656 1
vt 0.2060202 1
vt 0.1347656 0.9185662
vt 0.2060202 0.9185662
vt 0.1347656 1
vt 0.2060202 1
vt 0.1347656 0.9185662
vt 0.2060202 0.9185662
vt 0.1347656 1
vt 0.2060202 1
vt 0.1347656 0.9185662
vt 0.2060202 0.9185662
vt 0.1347656 1
vt 0.2060202 1
vt 0.1347656 0.9185662
vt 0.2060202 0.9185662
vt 0.1347656 1
vt 0.2060202 1
vt 0.1347656 0.9185662
vt 0.2060202 0.9185662
vt 0.1347656 1
vt 0.2060202 1
vt 0.1347656 0.9185662
vt 0.2060202 0.9185662
vt 0.1347656 1
vt 0.2060202 1
vt 0.1347656 0.9185662
vt 0.2060202 0.9185662
vt 0.1347656 1
vt 0.2060202 1
vt 0.1347656 0.9185662
vt 0.2060202 0.9185662
vt 0.1347656 1
vt 0.2060202 1
vt 0.1347656 0.9185662
vt 0.2060202 0.9185662
vt 0.1347656 1
vt 0.2060202 1
vt 0.1347656 0.9185662
vt 0.2060202 0.9185662
vt 0.1347656 1
vt 0.2060202 1
vt 0.1347656 0.9185662
vt 0.2060202 0.9185662
vt 0.1347656 1
vt 0.2060202 1
vt 0.1347656 0.9185662
vt 0.2060202 0.9185662
vt 0.1347656 1
vt 0.2060202 1
vt 0.1347656 0.9185662
vt 0.2060202 0.9185662
vt 0.1347656 1
vt 0.2060202 1
vt 0.1347656 0.9185662
vt 0.2060202 0.9185662
vt 0.1347656 1
vt 0.2060202 1
vt 0.1347656 0.9185662
vt 0.2060202 0.9185662
vt 0.1347656 1
vt 0.2060202 1
vt 0.1347656 0.9185662
vt 0.2060202 0.9185662
vt 0.1347656 1
vt 0.2060202 1
vt 0.1347656 0.9185662
vt 0.2060202 0.9185662
vt 0.1347656 1
vt 0.2060202 1
vt 0.1347656 0.9185662
vt 0.2060202 0.9185662
vt 0.1347656 1
vt 0.2060202 1
vt 0.1347656 0.9185662
vt 0.2060202 0.9185662
vt 0.1347656 1
vt 0.2060202 1
vt 0.1347656 0.9185662
vt 0.2060202 0.9185662
vt 0.1347656 1
vt 0.2060202 1
vt 0.1347656 0.9185662
vt 0.2060202 0.9185662
vt 0.1347656 1
vt 0.2060202 1
vt 0.1347656 0.9185662
vt 0.2060202 0.9185662
vt 0.1347656 1
vt 0.2060202 1
vt 0.1347656 0.9185662
vt 0.2060202 0.9185662
vt 0.1347656 1
vt 0.2060202 1
vt 0.1347656 0.9185662
vt 0.2060202 0.9185662
vt 0.1347656 1
vt 0.2060202 1
vt 0.1347656 0.9185662
vt 0.2060202 0.9185662
vt 0.1347656 1
vt 0.2060202 1
vt 0.1347656 0.9185662
vt 0.2060202 0.9185662
vt 0.1347656 1
vt 0.2060202 1
vt 0.1347656 0.9185662
vt 0.2060202 0.9185662
vt 0.1347656 1
vt 0.2060202 1
vt 0.1347656 0.9185662
vt 0.2060202 0.9185662
vt 0.1347656 1
vt 0.2060202 1
vt 0.1347656 0.9185662
vt 0.2060202 0.9185662
vt 0.1347656 1
vt 0.2060202 1
vt 0.1347656 0.9185662
vt 0.2060202 0.9185662
vt 0.1347656 1
vt 0.2060202 1
vt 0.1347656 0.9185662
vt 0.2060202 0.9185662
vt 0.1347656 1
vt 0.2060202 1
vn 0 1 0
vn 0 1 0
vn 0 1 0
vn 0 1 0
vn 0 1 0
vn 0 1 0
vn 0 1 0
vn 0 1 0
vn 0 1 0
vn 0 1 0
vn 0 1 0
vn 0 1 0
vn 0 1 0
vn 0 1 0
vn 0 1 0
vn 0 1 0
vn 0 1 0
vn 0 1 0
vn 0 1 0
vn 0 1 0
vn 0 1 0
vn 0 1 0
vn 0 1 0
vn 0 1 0
vn 0 1 0
vn 0 1 0
vn 0 1 0
vn 0 1 0
vn 0 1 0
vn 0 1 0
vn 0 1 0
vn 0 1 0
vn 0 1 0
vn 0 1 0
vn 0 1 0
vn 0 1 0
vn 0 1 0
vn 0 1 0
vn 0 1 0
vn 0 1 0
vn 0 1 0
vn 0 1 0
vn 0 1 0
vn 0 1 0
vn 0 1 0
vn 0 1 0
vn 0 1 0
vn 0 1 0
vn 0 1 0
vn 0 1 0
vn 0 1 0
vn 0 1 0
vn 0 1 0
vn 0 1 0
vn 0 1 0
vn 0 1 0
vn 0 1 0
vn 0 1 0
vn 0 1 0
vn 0 1 0
vn 0 1 0
vn 0 1 0
vn 0 1 0
vn 0 1 0
vn 0 1 0
vn 0 1 0
vn 0 1 0
vn 0 1 0
vn 0 1 0
vn 0 1 0
vn 0 1 0
vn 0 1 0
vn 0 1 0
vn 0 1 0
vn 0 1 0
vn 0 1 0
vn 0 1 0
vn 0 1 0
vn 0 1 0
vn 0 1 0
vn 0 1 0
vn 0 1 0
vn 0 1 0
vn 0 1 0
vn 0 1 0
vn 0 1 0
vn 0 1 0
vn 0 1 0
vn 0 1 0
vn 0 1 0
vn 0 1 0
vn 0 1 0
vn 0 1 0
vn 0 1 0
vn 0 1 0
vn 0 1 0
vn 0 1 0
vn 0 1 0
vn 0 1 0
vn 0 1 0
vn 0 1 0
vn 0 1 0
vn 0 1 0
vn 0 1 0
vn 0 1 0
vn 0 1 0
vn 0 1 0
vn 0 1 0
vn 0 1 0
vn 0 1 0
vn 0 1 0
vn 0 1 0
vn 0 1 0
vn 0 1 0
vn 0 1 0
vn 0 1 0
vn 0 1 0
vn 0 1 0
vn 0 1 0
vn 0 1 0
vn 0 1 0
vn 0 1 0
vn 0 1 0
vn 0 1 0
vn 0 1 0
vn 0 1 0
vn 0 1 0
vn 0 1 0
vn 0 1 0
vn 0 1 0
vn 0 1 0
vn 0 1 0
vn 0 1 0
vn 0 1 0
vn 0 1 0
vn 0 1 0
vn 0 1 0
vn 0 1 0
vn 0 1 0
vn 0 1 0
vn 0 1 0
vn 0 1 0
vn 0 1 0
vn 0 1 0
vn 0 1 0
vn 0 1 0
vn 0 1 0
vn 0 1 0
g Grass_2_Cluster308_0
f 2/2/2 3/3/3 1/1/1
f 2/2/2 4/4/4 3/3/3
f 6/6/6 7/7/7 5/5/5
f 6/6/6 8/8/8 7/7/7
f 10/10/10 11/11/11 9/9/9
f 10/10/10 12/12/12 11/11/11
f 14/14/14 15/15/15 13/13/13
f 14/14/14 16/16/16 15/15/15
f 18/18/18 19/19/19 17/17/17
f 18/18/18 20/20/20 19/19/19
f 22/22/22 23/23/23 21/21/21
f 22/22/22 24/24/24 23/23/23
f 26/26/26 27/27/27 25/25/25
f 26/26/26 28/28/28 27/27/27
f 30/30/30 31/31/31 29/29/29
f 30/30/30 32/32/32 31/31/31
f 34/34/34 35/35/35 33/33/33
f 34/34/34 36/36/36 35/35/35
f 38/38/38 39/39/39 37/37/37
f 38/38/38 40/40/40 39/39/39
f 42/42/42 43/43/43 41/41/41
f 42/42/42 44/44/44 43/43/43
f 46/46/46 47/47/47 45/45/45
f 46/46/46 48/48/48 47/47/47
f 50/50/50 51/51/51 49/49/49
f 50/50/50 52/52/52 51/51/51
f 54/54/54 55/55/55 53/53/53
f 54/54/54 56/56/56 55/55/55
f 58/58/58 59/59/59 57/57/57
f 58/58/58 60/60/60 59/59/59
f 62/62/62 63/63/63 61/61/61
f 62/62/62 64/64/64 63/63/63
f 66/66/66 67/67/67 65/65/65
f 66/66/66 68/68/68 67/67/67
f 70/70/70 71/71/71 69/69/69
f 70/70/70 72/72/72 71/71/71
f 74/74/74 75/75/75 73/73/73
f 74/74/74 76/76/76 75/75/75
f 78/78/78 79/79/79 77/77/77
f 78/78/78 80/80/80 79/79/79
f 82/82/82 83/83/83 81/81/81
f 82/82/82 84/84/84 83/83/83
f 86/86/86 87/87/87 85/85/85
f 86/86/86 88/88/88 87/87/87
f 90/90/90 91/91/91 89/89/89
f 90/90/90 92/92/92 91/91/91
f 94/94/94 95/95/95 93/93/93
f 94/94/94 96/96/96 95/95/95
f 98/98/98 99/99/99 97/97/97
f 98/98/98 100/100/100 99/99/99
f 102/102/102 103/103/103 101/101/101
f 102/102/102 104/104/104 103/103/103
f 106/106/106 107/107/107 105/105/105
f 106/106/106 108/108/108 107/107/107
f 110/110/110 111/111/111 109/109/109
f 110/110/110 112/112/112 111/111/111
f 114/114/114 115/115/115 113/113/113
f 114/114/114 116/116/116 115/115/115
f 118/118/118 119/119/119 117/117/117
f 118/118/118 120/120/120 119/119/119
f 122/122/122 123/123/123 121/121/121
f 122/122/122 124/124/124 123/123/123
f 126/126/126 127/127/127 125/125/125
f 126/126/126 128/128/128 127/127/127
f 130/130/130 131/131/131 129/129/129
f 130/130/130 132/132/132 131/131/131
f 134/134/134 135/135/135 133/133/133
f 134/134/134 136/136/136 135/135/135
f 138/138/138 139/139/139 137/137/137
f 138/138/138 140/140/140 139/139/139
f 142/142/142 143/143/143 141/141/141
f 142/142/142 144/144/144 143/143/143
f 146/146/146 147/147/147 145/145/145
f 146/146/146 148/148/148 147/147/147
