g Grass_0_Cluster79
v -295.7515 0 80.89673
v -296.6213 0 80.89673
v -295.7515 0 82.34649
v -296.6213 0 82.34649
v -285.6031 0 79.44697
v -286.473 0 79.44697
v -285.6031 0 80.89673
v -286.473 0 80.89673
v -269.9457 0 79.44697
v -270.8156 0 79.44697
v -269.9457 0 80.60677
v -270.8156 0 80.60677
v -287.0529 0 78.28716
v -287.9228 0 78.28716
v -287.0529 0 79.44697
v -287.9228 0 79.44697
v -271.1055 0 77.99721
v -271.9754 0 77.99721
v -271.1055 0 79.15701
v -271.9754 0 79.15701
v -270.2357 0 76.83739
v -271.1055 0 76.83739
v -270.2357 0 77.99721
v -271.1055 0 77.99721
v -286.183 0 75.09768
v -287.0529 0 75.09768
v -286.183 0 76.25749
v -287.0529 0 76.25749
v -274.585 0 72.77806
v -275.4548 0 72.77806
v -274.585 0 73.93787
v -275.4548 0 73.93787
v -283.2835 0 72.48811
v -284.1534 0 72.48811
v -283.2835 0 73.93787
v -284.1534 0 73.93787
v -276.3247 0 71.3283
v -277.1945 0 71.3283
v -276.3247 0 72.48811
v -277.1945 0 72.48811
v -282.1237 0 71.03835
v -282.9936 0 71.03835
v -282.1237 0 72.19816
v -282.9936 0 72.19816
v -275.1649 0 69.00868
v -276.0347 0 69.00868
v -275.1649 0 70.16849
v -276.0347 0 70.16849
v -276.0347 0 68.42877
v -276.9046 0 68.42877
v -276.0347 0 69.87853
v -276.9046 0 69.87853
v -274.8749 0 68.13882
v -275.7448 0 68.13882
v -274.8749 0 69.29863
v -275.7448 0 69.29863
v -273.7151 0 67.26897
v -274.585 0 67.26897
v -273.7151 0 68.42877
v -274.585 0 68.42877
v -278.6443 0 66.97901
v -279.5141 0 66.97901
v -278.6443 0 68.13882
v -279.5141 0 68.13882
v -277.4845 0 65.2393
v -278.0644 0 65.2393
v -277.4845 0 66.39911
v -278.0644 0 66.39911
v -277.1945 0 64.94935
v -278.0644 0 64.94935
v -277.1945 0 66.39911
v -278.0644 0 66.39911
v -274.8749 0 64.36944
v -275.7448 0 64.36944
v -274.8749 0 65.52925
v -275.7448 0 65.52925
v -275.1649 0 63.49958
v -276.0347 0 63.49958
v -275.1649 0 64.65939
v -276.0347 0 64.65939
v -276.0347 0 62.91968
v -276.9046 0 62.91968
v -276.0347 0 64.07949
v -276.9046 0 64.07949
v -291.6921 0 62.62973
v -292.562 0 62.62973
v -291.6921 0 63.78954
v -292.562 0 63.78954
v -273.4251 0 62.62973
v -274.005 0 62.62973
v -273.4251 0 63.78954
v -274.005 0 63.78954
v -294.3017 0 61.75987
v -295.1716 0 61.75987
v -294.3017 0 62.91968
v -295.1716 0 62.91968
v -293.1419 0 61.46992
v -294.0118 0 61.46992
v -293.1419 0 62.62973
v -294.0118 0 62.62973
v -273.1352 0 60.3101
v -274.005 0 60.3101
v -273.1352 0 61.46992
v -274.005 0 61.46992
v -282.7036 0 60.3101
v -283.5735 0 60.3101
v -282.7036 0 61.46992
v -283.5735 0 61.46992
v -280.9639 0 59.1503
v -281.8338 0 59.1503
v -280.9639 0 60.3101
v -281.8338 0 60.3101
v -290.2424 0 58.86034
v -291.1122 0 58.86034
v -290.2424 0 60.02015
v -291.1122 0 60.02015
v -280.674 0 57.12063
v -281.5438 0 57.12063
v -280.674 0 58.28044
v -281.5438 0 58.28044
v -283.2835 0 56.54073
v -284.1534 0 56.54073
v -283.2835 0 57.99049
v -284.1534 0 57.99049
v -284.4433 0 56.25077
v -285.3132 0 56.25077
v -284.4433 0 57.41058
v -285.3132 0 57.41058
v -281.5438 0 55.67087
v -282.4137 0 55.67087
v -281.5438 0 56.83068
v -282.4137 0 56.83068
v -284.7333 0 54.80101
v -285.6031 0 54.80101
v -284.7333 0 55.96082
v -285.6031 0 55.96082
v -282.9936 0 54.2211
v -283.5735 0 54.2211
v -282.9936 0 55.38091
v -283.5735 0 55.38091
v -280.384 0 53.93115
v -281.2538 0 53.93115
v -280.384 0 55.09096
v -281.2538 0 55.09096
v -281.2538 0 53.35125
v -282.1237 0 53.35125
v -281.2538 0 54.51106
v -282.1237 0 54.51106
vt 0 0.9058824
vt 0.06666667 0.9058824
vt 0 1
vt 0.06666667 1
vt 0 0.9058824
vt 0.06666667 0.9058824
vt 0 1
vt 0.06666667 1
vt 0 0.9058824
vt 0.06666667 0.9058824
vt 0 1
vt 0.06666667 1
vt 0 0.9058824
vt 0.06666667 0.9058824
vt 0 1
vt 0.06666667 1
vt 0 0.9058824
vt 0.06666667 0.9058824
vt 0 1
vt 0.06666667 1
vt 0 0.9058824
vt 0.06666667 0.9058824
vt 0 1
vt 0.06666667 1
vt 0 0.9058824
vt 0.06666667 0.9058824
vt 0 1
vt 0.06666667 1
vt 0 0.9058824
vt 0.06666667 0.9058824
vt 0 1
vt 0.06666667 1
vt 0 0.9058824
vt 0.06666667 0.9058824
vt 0 1
vt 0.06666667 1
vt 0 0.9058824
vt 0.06666667 0.9058824
vt 0 1
vt 0.06666667 1
vt 0 0.9058824
vt 0.06666667 0.9058824
vt 0 1
vt 0.06666667 1
vt 0 0.9058824
vt 0.06666667 0.9058824
vt 0 1
vt 0.06666667 1
vt 0 0.9058824
vt 0.06666667 0.9058824
vt 0 1
vt 0.06666667 1
vt 0 0.9058824
vt 0.06666667 0.9058824
vt 0 1
vt 0.06666667 1
vt 0 0.9058824
vt 0.06666667 0.9058824
vt 0 1
vt 0.06666667 1
vt 0 0.9058824
vt 0.06666667 0.9058824
vt 0 1
vt 0.06666667 1
vt 0 0.9058824
vt 0.06666667 0.9058824
vt 0 1
vt 0.06666667 1
vt 0 0.9058824
vt 0.06666667 0.9058824
vt 0 1
vt 0.06666667 1
vt 0 0.9058824
vt 0.06666667 0.9058824
vt 0 1
vt 0.06666667 1
vt 0 0.9058824
vt 0.06666667 0.9058824
vt 0 1
vt 0.06666667 1
vt 0 0.9058824
vt 0.06666667 0.9058824
vt 0 1
vt 0.06666667 1
vt 0 0.9058824
vt 0.06666667 0.9058824
vt 0 1
vt 0.06666667 1
vt 0 0.9058824
vt 0.06666667 0.9058824
vt 0 1
vt 0.06666667 1
vt 0 0.9058824
vt 0.06666667 0.9058824
vt 0 1
vt 0.06666667 1
vt 0 0.9058824
vt 0.06666667 0.9058824
vt 0 1
vt 0.06666667 1
vt 0 0.9058824
vt 0.06666667 0.9058824
vt 0 1
vt 0.06666667 1
vt 0 0.9058824
vt 0.06666667 0.9058824
vt 0 1
vt 0.06666667 1
vt 0 0.9058824
vt 0.06666667 0.9058824
vt 0 1
vt 0.06666667 1
vt 0 0.9058824
vt 0.06666667 0.9058824
vt 0 1
vt 0.06666667 1
vt 0 0.9058824
vt 0.06666667 0.9058824
vt 0 1
vt 0.06666667 1
vt 0 0.9058824
vt 0.06666667 0.9058824
vt 0 1
vt 0.06666667 1
vt 0 0.9058824
vt 0.06666667 0.9058824
vt 0 1
vt 0.06666667 1
vt 0 0.9058824
vt 0.06666667 0.9058824
vt 0 1
vt 0.06666667 1
vt 0 0.9058824
vt 0.06666667 0.9058824
vt 0 1
vt 0.06666667 1
vt 0 0.9058824
vt 0.06666667 0.9058824
vt 0 1
vt 0.06666667 1
vt 0 0.9058824
vt 0.06666667 0.9058824
vt 0 1
vt 0.06666667 1
vt 0 0.9058824
vt 0.06666667 0.9058824
vt 0 1
vt 0.06666667 1
vn 0 1 0
vn 0 1 0
vn 0 1 0
vn 0 1 0
vn 0 1 0
vn 0 1 0
vn 0 1 0
vn 0 1 0
vn 0 1 0
vn 0 1 0
vn 0 1 0
vn 0 1 0
vn 0 1 0
vn 0 1 0
vn 0 1 0
vn 0 1 0
vn 0 1 0
vn 0 1 0
vn 0 1 0
vn 0 1 0
vn 0 1 0
vn 0 1 0
vn 0 1 0
vn 0 1 0
vn 0 1 0
vn 0 1 0
vn 0 1 0
vn 0 1 0
vn 0 1 0
vn 0 1 0
vn 0 1 0
vn 0 1 0
vn 0 1 0
vn 0 1 0
vn 0 1 0
vn 0 1 0
vn 0 1 0
vn 0 1 0
vn 0 1 0
vn 0 1 0
vn 0 1 0
vn 0 1 0
vn 0 1 0
vn 0 1 0
vn 0 1 0
vn 0 1 0
vn 0 1 0
vn 0 1 0
vn 0 1 0
vn 0 1 0
vn 0 1 0
vn 0 1 0
vn 0 1 0
vn 0 1 0
vn 0 1 0
vn 0 1 0
vn 0 1 0
vn 0 1 0
vn 0 1 0
vn 0 1 0
vn 0 1 0
vn 0 1 0
vn 0 1 0
vn 0 1 0
vn 0 1 0
vn 0 1 0
vn 0 1 0
vn 0 1 0
vn 0 1 0
vn 0 1 0
vn 0 1 0
vn 0 1 0
vn 0 1 0
vn 0 1 0
vn 0 1 0
vn 0 1 0
vn 0 1 0
vn 0 1 0
vn 0 1 0
vn 0 1 0
vn 0 1 0
vn 0 1 0
vn 0 1 0
vn 0 1 0
vn 0 1 0
vn 0 1 0
vn 0 1 0
vn 0 1 0
vn 0 1 0
vn 0 1 0
vn 0 1 0
vn 0 1 0
vn 0 1 0
vn 0 1 0
vn 0 1 0
vn 0 1 0
vn 0 1 0
vn 0 1 0
vn 0 1 0
vn 0 1 0
vn 0 1 0
vn 0 1 0
vn 0 1 0
vn 0 1 0
vn 0 1 0
vn 0 1 0
vn 0 1 0
vn 0 1 0
vn 0 1 0
vn 0 1 0
vn 0 1 0
vn 0 1 0
vn 0 1 0
vn 0 1 0
vn 0 1 0
vn 0 1 0
vn 0 1 0
vn 0 1 0
vn 0 1 0
vn 0 1 0
vn 0 1 0
vn 0 1 0
vn 0 1 0
vn 0 1 0
vn 0 1 0
vn 0 1 0
vn 0 1 0
vn 0 1 0
vn 0 1 0
vn 0 1 0
vn 0 1 0
vn 0 1 0
vn 0 1 0
vn 0 1 0
vn 0 1 0
vn 0 1 0
vn 0 1 0
vn 0 1 0
vn 0 1 0
vn 0 1 0
vn 0 1 0
vn 0 1 0
vn 0 1 0
vn 0 1 0
vn 0 1 0
vn 0 1 0
vn 0 1 0
vn 0 1 0
g Grass_0_Cluster79_0
f 2/2/2 3/3/3 1/1/1
f 2/2/2 4/4/4 3/3/3
f 6/6/6 7/7/7 5/5/5
f 6/6/6 8/8/8 7/7/7
f 10/10/10 11/11/11 9/9/9
f 10/10/10 12/12/12 11/11/11
f 14/14/14 15/15/15 13/13/13
f 14/14/14 16/16/16 15/15/15
f 18/18/18 19/19/19 17/17/17
f 18/18/18 20/20/20 19/19/19
f 22/22/22 23/23/23 21/21/21
f 22/22/22 24/24/24 23/23/23
f 26/26/26 27/27/27 25/25/25
f 26/26/26 28/28/28 27/27/27
f 30/30/30 31/31/31 29/29/29
f 30/30/30 32/32/32 31/31/31
f 34/34/34 35/35/35 33/33/33
f 34/34/34 36/36/36 35/35/35
f 38/38/38 39/39/39 37/37/37
f 38/38/38 40/40/40 39/39/39
f 42/42/42 43/43/43 41/41/41
f 42/42/42 44/44/44 43/43/43
f 46/46/46 47/47/47 45/45/45
f 46/46/46 48/48/48 47/47/47
f 50/50/50 51/51/51 49/49/49
f 50/50/50 52/52/52 51/51/51
f 54/54/54 55/55/55 53/53/53
f 54/54/54 56/56/56 55/55/55
f 58/58/58 59/59/59 57/57/57
f 58/58/58 60/60/60 59/59/59
f 62/62/62 63/63/63 61/61/61
f 62/62/62 64/64/64 63/63/63
f 66/66/66 67/67/67 65/65/65
f 66/66/66 68/68/68 67/67/67
f 70/70/70 71/71/71 69/69/69
f 70/70/70 72/72/72 71/71/71
f 74/74/74 75/75/75 73/73/73
f 74/74/74 76/76/76 75/75/75
f 78/78/78 79/79/79 77/77/77
f 78/78/78 80/80/80 79/79/79
f 82/82/82 83/83/83 81/81/81
f 82/82/82 84/84/84 83/83/83
f 86/86/86 87/87/87 85/85/85
f 86/86/86 88/88/88 87/87/87
f 90/90/90 91/91/91 89/89/89
f 90/90/90 92/92/92 91/91/91
f 94/94/94 95/95/95 93/93/93
f 94/94/94 96/96/96 95/95/95
f 98/98/98 99/99/99 97/97/97
f 98/98/98 100/100/100 99/99/99
f 102/102/102 103/103/103 101/101/101
f 102/102/102 104/104/104 103/103/103
f 106/106/106 107/107/107 105/105/105
f 106/106/106 108/108/108 107/107/107
f 110/110/110 111/111/111 109/109/109
f 110/110/110 112/112/112 111/111/111
f 114/114/114 115/115/115 113/113/113
f 114/114/114 116/116/116 115/115/115
f 118/118/118 119/119/119 117/117/117
f 118/118/118 120/120/120 119/119/119
f 122/122/122 123/123/123 121/121/121
f 122/122/122 124/124/124 123/123/123
f 126/126/126 127/127/127 125/125/125
f 126/126/126 128/128/128 127/127/127
f 130/130/130 131/131/131 129/129/129
f 130/130/130 132/132/132 131/131/131
f 134/134/134 135/135/135 133/133/133
f 134/134/134 136/136/136 135/135/135
f 138/138/138 139/139/139 137/137/137
f 138/138/138 140/140/140 139/139/139
f 142/142/142 143/143/143 141/141/141
f 142/142/142 144/144/144 143/143/143
f 146/146/146 147/147/147 145/145/145
f 146/146/146 148/148/148 147/147/147
