g Grass_0_Cluster278
v -242.7152 0 381.6772
v -243.8389 0 381.6772
v -242.7152 0 383.1754
v -243.8389 0 383.1754
v -252.4538 0 381.3026
v -253.5775 0 381.3026
v -252.4538 0 382.4263
v -253.5775 0 382.4263
v -240.0933 0 380.5535
v -241.217 0 380.5535
v -240.0933 0 382.0517
v -241.217 0 382.0517
v -240.0933 0 380.5535
v -241.217 0 380.5535
v -240.0933 0 381.6772
v -241.217 0 381.6772
v -241.217 0 380.1789
v -241.9661 0 380.1789
v -241.217 0 381.3026
v -241.9661 0 381.3026
v -264.0652 0 376.8079
v -264.8143 0 376.8079
v -264.0652 0 378.3061
v -264.8143 0 378.3061
v -261.4432 0 376.0588
v -262.5669 0 376.0588
v -261.4432 0 377.1824
v -262.5669 0 377.1824
v -240.4678 0 375.3096
v -241.217 0 375.3096
v -240.4678 0 376.8079
v -241.217 0 376.8079
v -261.8178 0 372.6877
v -262.9415 0 372.6877
v -261.8178 0 373.8114
v -262.9415 0 373.8114
v -259.945 0 370.8149
v -261.0687 0 370.8149
v -259.945 0 372.3132
v -261.0687 0 372.3132
v -251.7047 0 368.5676
v -252.4538 0 368.5676
v -251.7047 0 369.6912
v -252.4538 0 369.6912
v -258.0722 0 366.3202
v -258.8213 0 366.3202
v -258.0722 0 367.8184
v -258.8213 0 367.8184
v -246.0863 0 365.9456
v -246.8354 0 365.9456
v -246.0863 0 367.0693
v -246.8354 0 367.0693
v -253.2029 0 365.5711
v -253.952 0 365.5711
v -253.2029 0 366.6948
v -253.952 0 366.6948
v -247.2099 0 365.1965
v -247.9591 0 365.1965
v -247.2099 0 366.6948
v -247.9591 0 366.6948
v -250.9556 0 365.1965
v -251.7047 0 365.1965
v -250.9556 0 366.6948
v -251.7047 0 366.6948
v -252.4538 0 365.1965
v -253.5775 0 365.1965
v -252.4538 0 366.3202
v -253.5775 0 366.3202
v -253.952 0 365.1965
v -254.7012 0 365.1965
v -253.952 0 366.3202
v -254.7012 0 366.3202
v -252.0792 0 364.4474
v -252.8284 0 364.4474
v -252.0792 0 365.5711
v -252.8284 0 365.5711
v -254.7012 0 364.4474
v -255.4503 0 364.4474
v -254.7012 0 365.5711
v -255.4503 0 365.5711
v -249.4573 0 364.0728
v -250.2064 0 364.0728
v -249.4573 0 365.1965
v -250.2064 0 365.1965
v -255.8248 0 363.6983
v -256.5739 0 363.6983
v -255.8248 0 364.822
v -256.5739 0 364.822
v -249.0827 0 363.6983
v -250.2064 0 363.6983
v -249.0827 0 364.822
v -250.2064 0 364.822
v -247.9591 0 363.6983
v -249.0827 0 363.6983
v -247.9591 0 364.822
v -249.0827 0 364.822
v -251.7047 0 362.9492
v -252.4538 0 362.9492
v -251.7047 0 364.4474
v -252.4538 0 364.4474
v -246.0863 0 362.9492
v -246.8354 0 362.9492
v -246.0863 0 364.4474
v -246.8354 0 364.4474
v -249.0827 0 362.5746
v -249.8319 0 362.5746
v -249.0827 0 364.0728
v -249.8319 0 364.0728
v -255.0757 0 361.8255
v -255.8248 0 361.8255
v -255.0757 0 362.9492
v -255.8248 0 362.9492
v -245.7117 0 361.8255
v -246.4608 0 361.8255
v -245.7117 0 362.9492
v -246.4608 0 362.9492
v -250.9556 0 361.4509
v -252.0792 0 361.4509
v -250.9556 0 362.5746
v -252.0792 0 362.5746
v -250.581 0 359.9527
v -251.3301 0 359.9527
v -250.581 0 361.4509
v -251.3301 0 361.4509
v -249.8319 0 359.5781
v -250.581 0 359.5781
v -249.8319 0 361.0764
v -250.581 0 361.0764
v -246.4608 0 359.2036
v -247.2099 0 359.2036
v -246.4608 0 360.7018
v -247.2099 0 360.7018
v -247.5845 0 356.9562
v -248.3336 0 356.9562
v -247.5845 0 358.0799
v -248.3336 0 358.0799
vt 0 0.9058824
vt 0.06666667 0.9058824
vt 0 1
vt 0.06666667 1
vt 0 0.9058824
vt 0.06666667 0.9058824
vt 0 1
vt 0.06666667 1
vt 0 0.9058824
vt 0.06666667 0.9058824
vt 0 1
vt 0.06666667 1
vt 0 0.9058824
vt 0.06666667 0.9058824
vt 0 1
vt 0.06666667 1
vt 0 0.9058824
vt 0.06666667 0.9058824
vt 0 1
vt 0.06666667 1
vt 0 0.9058824
vt 0.06666667 0.9058824
vt 0 1
vt 0.06666667 1
vt 0 0.9058824
vt 0.06666667 0.9058824
vt 0 1
vt 0.06666667 1
vt 0 0.9058824
vt 0.06666667 0.9058824
vt 0 1
vt 0.06666667 1
vt 0 0.9058824
vt 0.06666667 0.9058824
vt 0 1
vt 0.06666667 1
vt 0 0.9058824
vt 0.06666667 0.9058824
vt 0 1
vt 0.06666667 1
vt 0 0.9058824
vt 0.06666667 0.9058824
vt 0 1
vt 0.06666667 1
vt 0 0.9058824
vt 0.06666667 0.9058824
vt 0 1
vt 0.06666667 1
vt 0 0.9058824
vt 0.06666667 0.9058824
vt 0 1
vt 0.06666667 1
vt 0 0.9058824
vt 0.06666667 0.9058824
vt 0 1
vt 0.06666667 1
vt 0 0.9058824
vt 0.06666667 0.9058824
vt 0 1
vt 0.06666667 1
vt 0 0.9058824
vt 0.06666667 0.9058824
vt 0 1
vt 0.06666667 1
vt 0 0.9058824
vt 0.06666667 0.9058824
vt 0 1
vt 0.06666667 1
vt 0 0.9058824
vt 0.06666667 0.9058824
vt 0 1
vt 0.06666667 1
vt 0 0.9058824
vt 0.06666667 0.9058824
vt 0 1
vt 0.06666667 1
vt 0 0.9058824
vt 0.06666667 0.9058824
vt 0 1
vt 0.06666667 1
vt 0 0.9058824
vt 0.06666667 0.9058824
vt 0 1
vt 0.06666667 1
vt 0 0.9058824
vt 0.06666667 0.9058824
vt 0 1
vt 0.06666667 1
vt 0 0.9058824
vt 0.06666667 0.9058824
vt 0 1
vt 0.06666667 1
vt 0 0.9058824
vt 0.06666667 0.9058824
vt 0 1
vt 0.06666667 1
vt 0 0.9058824
vt 0.06666667 0.9058824
vt 0 1
vt 0.06666667 1
vt 0 0.9058824
vt 0.06666667 0.9058824
vt 0 1
vt 0.06666667 1
vt 0 0.9058824
vt 0.06666667 0.9058824
vt 0 1
vt 0.06666667 1
vt 0 0.9058824
vt 0.06666667 0.9058824
vt 0 1
vt 0.06666667 1
vt 0 0.9058824
vt 0.06666667 0.9058824
vt 0 1
vt 0.06666667 1
vt 0 0.9058824
vt 0.06666667 0.9058824
vt 0 1
vt 0.06666667 1
vt 0 0.9058824
vt 0.06666667 0.9058824
vt 0 1
vt 0.06666667 1
vt 0 0.9058824
vt 0.06666667 0.9058824
vt 0 1
vt 0.06666667 1
vt 0 0.9058824
vt 0.06666667 0.9058824
vt 0 1
vt 0.06666667 1
vt 0 0.9058824
vt 0.06666667 0.9058824
vt 0 1
vt 0.06666667 1
vn 0 1 0
vn 0 1 0
vn 0 1 0
vn 0 1 0
vn 0 1 0
vn 0 1 0
vn 0 1 0
vn 0 1 0
vn 0 1 0
vn 0 1 0
vn 0 1 0
vn 0 1 0
vn 0 1 0
vn 0 1 0
vn 0 1 0
vn 0 1 0
vn 0 1 0
vn 0 1 0
vn 0 1 0
vn 0 1 0
vn 0 1 0
vn 0 1 0
vn 0 1 0
vn 0 1 0
vn 0 1 0
vn 0 1 0
vn 0 1 0
vn 0 1 0
vn 0 1 0
vn 0 1 0
vn 0 1 0
vn 0 1 0
vn 0 1 0
vn 0 1 0
vn 0 1 0
vn 0 1 0
vn 0 1 0
vn 0 1 0
vn 0 1 0
vn 0 1 0
vn 0 1 0
vn 0 1 0
vn 0 1 0
vn 0 1 0
vn 0 1 0
vn 0 1 0
vn 0 1 0
vn 0 1 0
vn 0 1 0
vn 0 1 0
vn 0 1 0
vn 0 1 0
vn 0 1 0
vn 0 1 0
vn 0 1 0
vn 0 1 0
vn 0 1 0
vn 0 1 0
vn 0 1 0
vn 0 1 0
vn 0 1 0
vn 0 1 0
vn 0 1 0
vn 0 1 0
vn 0 1 0
vn 0 1 0
vn 0 1 0
vn 0 1 0
vn 0 1 0
vn 0 1 0
vn 0 1 0
vn 0 1 0
vn 0 1 0
vn 0 1 0
vn 0 1 0
vn 0 1 0
vn 0 1 0
vn 0 1 0
vn 0 1 0
vn 0 1 0
vn 0 1 0
vn 0 1 0
vn 0 1 0
vn 0 1 0
vn 0 1 0
vn 0 1 0
vn 0 1 0
vn 0 1 0
vn 0 1 0
vn 0 1 0
vn 0 1 0
vn 0 1 0
vn 0 1 0
vn 0 1 0
vn 0 1 0
vn 0 1 0
vn 0 1 0
vn 0 1 0
vn 0 1 0
vn 0 1 0
vn 0 1 0
vn 0 1 0
vn 0 1 0
vn 0 1 0
vn 0 1 0
vn 0 1 0
vn 0 1 0
vn 0 1 0
vn 0 1 0
vn 0 1 0
vn 0 1 0
vn 0 1 0
vn 0 1 0
vn 0 1 0
vn 0 1 0
vn 0 1 0
vn 0 1 0
vn 0 1 0
vn 0 1 0
vn 0 1 0
vn 0 1 0
vn 0 1 0
vn 0 1 0
vn 0 1 0
vn 0 1 0
vn 0 1 0
vn 0 1 0
vn 0 1 0
vn 0 1 0
vn 0 1 0
vn 0 1 0
vn 0 1 0
vn 0 1 0
vn 0 1 0
vn 0 1 0
vn 0 1 0
g Grass_0_Cluster278_0
f 2/2/2 3/3/3 1/1/1
f 2/2/2 4/4/4 3/3/3
f 6/6/6 7/7/7 5/5/5
f 6/6/6 8/8/8 7/7/7
f 10/10/10 11/11/11 9/9/9
f 10/10/10 12/12/12 11/11/11
f 14/14/14 15/15/15 13/13/13
f 14/14/14 16/16/16 15/15/15
f 18/18/18 19/19/19 17/17/17
f 18/18/18 20/20/20 19/19/19
f 22/22/22 23/23/23 21/21/21
f 22/22/22 24/24/24 23/23/23
f 26/26/26 27/27/27 25/25/25
f 26/26/26 28/28/28 27/27/27
f 30/30/30 31/31/31 29/29/29
f 30/30/30 32/32/32 31/31/31
f 34/34/34 35/35/35 33/33/33
f 34/34/34 36/36/36 35/35/35
f 38/38/38 39/39/39 37/37/37
f 38/38/38 40/40/40 39/39/39
f 42/42/42 43/43/43 41/41/41
f 42/42/42 44/44/44 43/43/43
f 46/46/46 47/47/47 45/45/45
f 46/46/46 48/48/48 47/47/47
f 50/50/50 51/51/51 49/49/49
f 50/50/50 52/52/52 51/51/51
f 54/54/54 55/55/55 53/53/53
f 54/54/54 56/56/56 55/55/55
f 58/58/58 59/59/59 57/57/57
f 58/58/58 60/60/60 59/59/59
f 62/62/62 63/63/63 61/61/61
f 62/62/62 64/64/64 63/63/63
f 66/66/66 67/67/67 65/65/65
f 66/66/66 68/68/68 67/67/67
f 70/70/70 71/71/71 69/69/69
f 70/70/70 72/72/72 71/71/71
f 74/74/74 75/75/75 73/73/73
f 74/74/74 76/76/76 75/75/75
f 78/78/78 79/79/79 77/77/77
f 78/78/78 80/80/80 79/79/79
f 82/82/82 83/83/83 81/81/81
f 82/82/82 84/84/84 83/83/83
f 86/86/86 87/87/87 85/85/85
f 86/86/86 88/88/88 87/87/87
f 90/90/90 91/91/91 89/89/89
f 90/90/90 92/92/92 91/91/91
f 94/94/94 95/95/95 93/93/93
f 94/94/94 96/96/96 95/95/95
f 98/98/98 99/99/99 97/97/97
f 98/98/98 100/100/100 99/99/99
f 102/102/102 103/103/103 101/101/101
f 102/102/102 104/104/104 103/103/103
f 106/106/106 107/107/107 105/105/105
f 106/106/106 108/108/108 107/107/107
f 110/110/110 111/111/111 109/109/109
f 110/110/110 112/112/112 111/111/111
f 114/114/114 115/115/115 113/113/113
f 114/114/114 116/116/116 115/115/115
f 118/118/118 119/119/119 117/117/117
f 118/118/118 120/120/120 119/119/119
f 122/122/122 123/123/123 121/121/121
f 122/122/122 124/124/124 123/123/123
f 126/126/126 127/127/127 125/125/125
f 126/126/126 128/128/128 127/127/127
f 130/130/130 131/131/131 129/129/129
f 130/130/130 132/132/132 131/131/131
f 134/134/134 135/135/135 133/133/133
f 134/134/134 136/136/136 135/135/135
