g Grass_0_Cluster216
v -200.8779 0 292.8391
v -201.4526 0 292.8391
v -200.8779 0 293.9886
v -201.4526 0 293.9886
v -203.7516 0 292.5517
v -204.6138 0 292.5517
v -203.7516 0 293.7012
v -204.6138 0 293.7012
v -198.2914 0 291.977
v -199.1536 0 291.977
v -198.2914 0 293.1265
v -199.1536 0 293.1265
v -203.4643 0 291.1148
v -204.3264 0 291.1148
v -203.4643 0 292.5517
v -204.3264 0 292.5517
v -190.2448 0 290.8275
v -191.107 0 290.8275
v -190.2448 0 292.2643
v -191.107 0 292.2643
v -199.441 0 290.5401
v -200.3031 0 290.5401
v -199.441 0 291.6896
v -200.3031 0 291.6896
v -182.1982 0 288.241
v -183.0604 0 288.241
v -182.1982 0 289.3906
v -183.0604 0 289.3906
v -199.7283 0 287.9537
v -200.5905 0 287.9537
v -199.7283 0 289.1032
v -200.5905 0 289.1032
v -179.8992 0 287.6663
v -180.7613 0 287.6663
v -179.8992 0 289.1032
v -180.7613 0 289.1032
v -187.9458 0 286.2294
v -188.8079 0 286.2294
v -187.9458 0 287.3789
v -188.8079 0 287.3789
v -187.6584 0 285.942
v -188.5206 0 285.942
v -187.6584 0 287.0915
v -188.5206 0 287.0915
v -180.7613 0 283.3556
v -181.6235 0 283.3556
v -180.7613 0 284.5051
v -181.6235 0 284.5051
v -205.4759 0 281.3439
v -206.3381 0 281.3439
v -205.4759 0 282.4935
v -206.3381 0 282.4935
v -205.7633 0 280.1944
v -206.6254 0 280.1944
v -205.7633 0 281.6313
v -206.6254 0 281.6313
v -206.6254 0 279.6197
v -207.4876 0 279.6197
v -206.6254 0 281.0566
v -207.4876 0 281.0566
v -196.5672 0 277.0333
v -197.4293 0 277.0333
v -196.5672 0 278.1828
v -197.4293 0 278.1828
v -182.773 0 274.7342
v -183.6351 0 274.7342
v -182.773 0 276.1711
v -183.6351 0 276.1711
v -186.7963 0 274.4468
v -187.6584 0 274.4468
v -186.7963 0 275.5964
v -187.6584 0 275.5964
v -187.371 0 272.7226
v -188.2332 0 272.7226
v -187.371 0 274.1595
v -188.2332 0 274.1595
v -183.3477 0 272.7226
v -184.2099 0 272.7226
v -183.3477 0 273.8721
v -184.2099 0 273.8721
v -181.9108 0 272.7226
v -182.773 0 272.7226
v -181.9108 0 273.8721
v -182.773 0 273.8721
v -188.8079 0 270.4236
v -189.6701 0 270.4236
v -188.8079 0 271.8604
v -189.6701 0 271.8604
vt 0 0.9058824
vt 0.06666667 0.9058824
vt 0 1
vt 0.06666667 1
vt 0 0.9058824
vt 0.06666667 0.9058824
vt 0 1
vt 0.06666667 1
vt 0 0.9058824
vt 0.06666667 0.9058824
vt 0 1
vt 0.06666667 1
vt 0 0.9058824
vt 0.06666667 0.9058824
vt 0 1
vt 0.06666667 1
vt 0 0.9058824
vt 0.06666667 0.9058824
vt 0 1
vt 0.06666667 1
vt 0 0.9058824
vt 0.06666667 0.9058824
vt 0 1
vt 0.06666667 1
vt 0 0.9058824
vt 0.06666667 0.9058824
vt 0 1
vt 0.06666667 1
vt 0 0.9058824
vt 0.06666667 0.9058824
vt 0 1
vt 0.06666667 1
vt 0 0.9058824
vt 0.06666667 0.9058824
vt 0 1
vt 0.06666667 1
vt 0 0.9058824
vt 0.06666667 0.9058824
vt 0 1
vt 0.06666667 1
vt 0 0.9058824
vt 0.06666667 0.9058824
vt 0 1
vt 0.06666667 1
vt 0 0.9058824
vt 0.06666667 0.9058824
vt 0 1
vt 0.06666667 1
vt 0 0.9058824
vt 0.06666667 0.9058824
vt 0 1
vt 0.06666667 1
vt 0 0.9058824
vt 0.06666667 0.9058824
vt 0 1
vt 0.06666667 1
vt 0 0.9058824
vt 0.06666667 0.9058824
vt 0 1
vt 0.06666667 1
vt 0 0.9058824
vt 0.06666667 0.9058824
vt 0 1
vt 0.06666667 1
vt 0 0.9058824
vt 0.06666667 0.9058824
vt 0 1
vt 0.06666667 1
vt 0 0.9058824
vt 0.06666667 0.9058824
vt 0 1
vt 0.06666667 1
vt 0 0.9058824
vt 0.06666667 0.9058824
vt 0 1
vt 0.06666667 1
vt 0 0.9058824
vt 0.06666667 0.9058824
vt 0 1
vt 0.06666667 1
vt 0 0.9058824
vt 0.06666667 0.9058824
vt 0 1
vt 0.06666667 1
vt 0 0.9058824
vt 0.06666667 0.9058824
vt 0 1
vt 0.06666667 1
vn 0 1 0
vn 0 1 0
vn 0 1 0
vn 0 1 0
vn 0 1 0
vn 0 1 0
vn 0 1 0
vn 0 1 0
vn 0 1 0
vn 0 1 0
vn 0 1 0
vn 0 1 0
vn 0 1 0
vn 0 1 0
vn 0 1 0
vn 0 1 0
vn 0 1 0
vn 0 1 0
vn 0 1 0
vn 0 1 0
vn 0 1 0
vn 0 1 0
vn 0 1 0
vn 0 1 0
vn 0 1 0
vn 0 1 0
vn 0 1 0
vn 0 1 0
vn 0 1 0
vn 0 1 0
vn 0 1 0
vn 0 1 0
vn 0 1 0
vn 0 1 0
vn 0 1 0
vn 0 1 0
vn 0 1 0
vn 0 1 0
vn 0 1 0
vn 0 1 0
vn 0 1 0
vn 0 1 0
vn 0 1 0
vn 0 1 0
vn 0 1 0
vn 0 1 0
vn 0 1 0
vn 0 1 0
vn 0 1 0
vn 0 1 0
vn 0 1 0
vn 0 1 0
vn 0 1 0
vn 0 1 0
vn 0 1 0
vn 0 1 0
vn 0 1 0
vn 0 1 0
vn 0 1 0
vn 0 1 0
vn 0 1 0
vn 0 1 0
vn 0 1 0
vn 0 1 0
vn 0 1 0
vn 0 1 0
vn 0 1 0
vn 0 1 0
vn 0 1 0
vn 0 1 0
vn 0 1 0
vn 0 1 0
vn 0 1 0
vn 0 1 0
vn 0 1 0
vn 0 1 0
vn 0 1 0
vn 0 1 0
vn 0 1 0
vn 0 1 0
vn 0 1 0
vn 0 1 0
vn 0 1 0
vn 0 1 0
vn 0 1 0
vn 0 1 0
vn 0 1 0
vn 0 1 0
g Grass_0_Cluster216_0
f 2/2/2 3/3/3 1/1/1
f 2/2/2 4/4/4 3/3/3
f 6/6/6 7/7/7 5/5/5
f 6/6/6 8/8/8 7/7/7
f 10/10/10 11/11/11 9/9/9
f 10/10/10 12/12/12 11/11/11
f 14/14/14 15/15/15 13/13/13
f 14/14/14 16/16/16 15/15/15
f 18/18/18 19/19/19 17/17/17
f 18/18/18 20/20/20 19/19/19
f 22/22/22 23/23/23 21/21/21
f 22/22/22 24/24/24 23/23/23
f 26/26/26 27/27/27 25/25/25
f 26/26/26 28/28/28 27/27/27
f 30/30/30 31/31/31 29/29/29
f 30/30/30 32/32/32 31/31/31
f 34/34/34 35/35/35 33/33/33
f 34/34/34 36/36/36 35/35/35
f 38/38/38 39/39/39 37/37/37
f 38/38/38 40/40/40 39/39/39
f 42/42/42 43/43/43 41/41/41
f 42/42/42 44/44/44 43/43/43
f 46/46/46 47/47/47 45/45/45
f 46/46/46 48/48/48 47/47/47
f 50/50/50 51/51/51 49/49/49
f 50/50/50 52/52/52 51/51/51
f 54/54/54 55/55/55 53/53/53
f 54/54/54 56/56/56 55/55/55
f 58/58/58 59/59/59 57/57/57
f 58/58/58 60/60/60 59/59/59
f 62/62/62 63/63/63 61/61/61
f 62/62/62 64/64/64 63/63/63
f 66/66/66 67/67/67 65/65/65
f 66/66/66 68/68/68 67/67/67
f 70/70/70 71/71/71 69/69/69
f 70/70/70 72/72/72 71/71/71
f 74/74/74 75/75/75 73/73/73
f 74/74/74 76/76/76 75/75/75
f 78/78/78 79/79/79 77/77/77
f 78/78/78 80/80/80 79/79/79
f 82/82/82 83/83/83 81/81/81
f 82/82/82 84/84/84 83/83/83
f 86/86/86 87/87/87 85/85/85
f 86/86/86 88/88/88 87/87/87
