g Grass_1_Cluster284
v 155.7377 0.210907 412.0751
v 155.1664 0.210907 412.0751
v 155.7377 0.210907 412.6463
v 155.1664 0.210907 412.6463
v 157.4514 0.210907 411.5038
v 156.8801 0.210907 411.5038
v 157.4514 0.210907 412.0751
v 156.8801 0.210907 412.0751
v 156.3089 0.210907 407.5052
v 155.1664 0.210907 407.5052
v 156.3089 0.210907 408.6476
v 155.1664 0.210907 408.6476
v 168.3049 0.210907 400.6503
v 167.1625 0.210907 400.6503
v 168.3049 0.210907 401.7928
v 167.1625 0.210907 401.7928
v 171.7324 0.210907 398.9366
v 171.1611 0.210907 398.9366
v 171.7324 0.210907 399.5078
v 171.1611 0.210907 399.5078
vt 0.06738281 0.9369141
vt 0.1331457 0.9369141
vt 0.06738281 0.9990234
vt 0.1331457 0.9990234
vt 0.06738281 0.9369141
vt 0.1331457 0.9369141
vt 0.06738281 0.9990234
vt 0.1331457 0.9990234
vt 0.06738281 0.9369141
vt 0.1331457 0.9369141
vt 0.06738281 0.9990234
vt 0.1331457 0.9990234
vt 0.06738281 0.9369141
vt 0.1331457 0.9369141
vt 0.06738281 0.9990234
vt 0.1331457 0.9990234
vt 0.06738281 0.9369141
vt 0.1331457 0.9369141
vt 0.06738281 0.9990234
vt 0.1331457 0.9990234
vn 0 1 0
vn 0 1 0
vn 0 1 0
vn 0 1 0
vn 0 1 0
vn 0 1 0
vn 0 1 0
vn 0 1 0
vn 0 1 0
vn 0 1 0
vn 0 1 0
vn 0 1 0
vn 0 1 0
vn 0 1 0
vn 0 1 0
vn 0 1 0
vn 0 1 0
vn 0 1 0
vn 0 1 0
vn 0 1 0
g Grass_1_Cluster284_0
f 2/2/2 3/3/3 1/1/1
f 2/2/2 4/4/4 3/3/3
f 6/6/6 7/7/7 5/5/5
f 6/6/6 8/8/8 7/7/7
f 10/10/10 11/11/11 9/9/9
f 10/10/10 12/12/12 11/11/11
f 14/14/14 15/15/15 13/13/13
f 14/14/14 16/16/16 15/15/15
f 18/18/18 19/19/19 17/17/17
f 18/18/18 20/20/20 19/19/19
