g Grass_2_Cluster46
v 105.4928 -0.07582855 52.03851
v 104.4743 -0.07582855 52.03851
v 105.4928 -0.07582855 53.22678
v 104.4743 -0.07582855 53.22678
v 106.8508 -0.07582855 50.51073
v 105.8323 -0.07582855 50.51073
v 106.8508 -0.07582855 51.699
v 105.8323 -0.07582855 51.699
v 106.3415 -0.07582855 48.47369
v 105.323 -0.07582855 48.47369
v 106.3415 -0.07582855 49.66196
v 105.323 -0.07582855 49.66196
v 105.323 -0.07582855 40.49526
v 104.3045 -0.07582855 40.49526
v 105.323 -0.07582855 41.68354
v 104.3045 -0.07582855 41.68354
v 106.002 -0.07582855 40.15577
v 104.9835 -0.07582855 40.15577
v 106.002 -0.07582855 41.34403
v 104.9835 -0.07582855 41.34403
v 104.3045 -0.07582855 38.96749
v 103.4557 -0.07582855 38.96749
v 104.3045 -0.07582855 40.15577
v 103.4557 -0.07582855 40.15577
v 120.4311 -0.07582855 38.62798
v 119.4126 -0.07582855 38.62798
v 120.4311 -0.07582855 39.81626
v 119.4126 -0.07582855 39.81626
v 104.9835 -0.07582855 37.94897
v 103.965 -0.07582855 37.94897
v 104.9835 -0.07582855 38.96749
v 103.965 -0.07582855 38.96749
v 103.7952 -0.07582855 37.60946
v 102.7767 -0.07582855 37.60946
v 103.7952 -0.07582855 38.79774
v 102.7767 -0.07582855 38.79774
v 104.1347 -0.07582855 36.93044
v 103.286 -0.07582855 36.93044
v 104.1347 -0.07582855 37.94897
v 103.286 -0.07582855 37.94897
v 105.6625 -0.07582855 36.76069
v 104.644 -0.07582855 36.76069
v 105.6625 -0.07582855 37.94897
v 104.644 -0.07582855 37.94897
v 102.607 -0.07582855 36.76069
v 101.7582 -0.07582855 36.76069
v 102.607 -0.07582855 37.77921
v 101.7582 -0.07582855 37.77921
v 107.0206 -0.07582855 36.42118
v 106.1718 -0.07582855 36.42118
v 107.0206 -0.07582855 37.4397
v 106.1718 -0.07582855 37.4397
v 105.323 -0.07582855 35.74216
v 104.4743 -0.07582855 35.74216
v 105.323 -0.07582855 36.93044
v 104.4743 -0.07582855 36.93044
v 104.644 -0.07582855 35.57241
v 103.6255 -0.07582855 35.57241
v 104.644 -0.07582855 36.76069
v 103.6255 -0.07582855 36.76069
v 120.2613 -0.07582855 35.57241
v 119.2428 -0.07582855 35.57241
v 120.2613 -0.07582855 36.59093
v 119.2428 -0.07582855 36.59093
v 118.0545 -0.07582855 35.06315
v 117.2058 -0.07582855 35.06315
v 118.0545 -0.07582855 36.08167
v 117.2058 -0.07582855 36.08167
v 119.7521 -0.07582855 34.89341
v 118.9033 -0.07582855 34.89341
v 119.7521 -0.07582855 35.91192
v 118.9033 -0.07582855 35.91192
v 106.5113 -0.07582855 34.5539
v 105.6625 -0.07582855 34.5539
v 106.5113 -0.07582855 35.57241
v 105.6625 -0.07582855 35.57241
v 117.8848 -0.07582855 33.87489
v 116.8663 -0.07582855 33.87489
v 117.8848 -0.07582855 34.89341
v 116.8663 -0.07582855 34.89341
v 107.3601 -0.07582855 30.1403
v 106.3415 -0.07582855 30.1403
v 107.3601 -0.07582855 31.15882
v 106.3415 -0.07582855 31.15882
v 94.7983 -0.07582855 29.63105
v 93.94953 -0.07582855 29.63105
v 94.7983 -0.07582855 30.64956
v 93.94953 -0.07582855 30.64956
v 95.64706 -0.07582855 24.53843
v 94.62855 -0.07582855 24.53843
v 95.64706 -0.07582855 25.55695
v 94.62855 -0.07582855 25.55695
v 94.45879 -0.07582855 24.36869
v 93.61002 -0.07582855 24.36869
v 94.45879 -0.07582855 25.55695
v 93.61002 -0.07582855 25.55695
v 94.28904 -0.07582855 23.68967
v 93.44027 -0.07582855 23.68967
v 94.28904 -0.07582855 24.70818
v 93.44027 -0.07582855 24.70818
v 96.66559 -0.07582855 23.85943
v 95.64706 -0.07582855 23.85943
v 96.66559 -0.07582855 24.87794
v 95.64706 -0.07582855 24.87794
v 95.64706 -0.07582855 23.35017
v 94.7983 -0.07582855 23.35017
v 95.64706 -0.07582855 24.36869
v 94.7983 -0.07582855 24.36869
v 114.8292 -0.07582855 23.01066
v 113.9804 -0.07582855 23.01066
v 114.8292 -0.07582855 24.02918
v 113.9804 -0.07582855 24.02918
vt 0.1347656 0.9185662
vt 0.2060202 0.9185662
vt 0.1347656 1
vt 0.2060202 1
vt 0.1347656 0.9185662
vt 0.2060202 0.9185662
vt 0.1347656 1
vt 0.2060202 1
vt 0.1347656 0.9185662
vt 0.2060202 0.9185662
vt 0.1347656 1
vt 0.2060202 1
vt 0.1347656 0.9185662
vt 0.2060202 0.9185662
vt 0.1347656 1
vt 0.2060202 1
vt 0.1347656 0.9185662
vt 0.2060202 0.9185662
vt 0.1347656 1
vt 0.2060202 1
vt 0.1347656 0.9185662
vt 0.2060202 0.9185662
vt 0.1347656 1
vt 0.2060202 1
vt 0.1347656 0.9185662
vt 0.2060202 0.9185662
vt 0.1347656 1
vt 0.2060202 1
vt 0.1347656 0.9185662
vt 0.2060202 0.9185662
vt 0.1347656 1
vt 0.2060202 1
vt 0.1347656 0.9185662
vt 0.2060202 0.9185662
vt 0.1347656 1
vt 0.2060202 1
vt 0.1347656 0.9185662
vt 0.2060202 0.9185662
vt 0.1347656 1
vt 0.2060202 1
vt 0.1347656 0.9185662
vt 0.2060202 0.9185662
vt 0.1347656 1
vt 0.2060202 1
vt 0.1347656 0.9185662
vt 0.2060202 0.9185662
vt 0.1347656 1
vt 0.2060202 1
vt 0.1347656 0.9185662
vt 0.2060202 0.9185662
vt 0.1347656 1
vt 0.2060202 1
vt 0.1347656 0.9185662
vt 0.2060202 0.9185662
vt 0.1347656 1
vt 0.2060202 1
vt 0.1347656 0.9185662
vt 0.2060202 0.9185662
vt 0.1347656 1
vt 0.2060202 1
vt 0.1347656 0.9185662
vt 0.2060202 0.9185662
vt 0.1347656 1
vt 0.2060202 1
vt 0.1347656 0.9185662
vt 0.2060202 0.9185662
vt 0.1347656 1
vt 0.2060202 1
vt 0.1347656 0.9185662
vt 0.2060202 0.9185662
vt 0.1347656 1
vt 0.2060202 1
vt 0.1347656 0.9185662
vt 0.2060202 0.9185662
vt 0.1347656 1
vt 0.2060202 1
vt 0.1347656 0.9185662
vt 0.2060202 0.9185662
vt 0.1347656 1
vt 0.2060202 1
vt 0.1347656 0.9185662
vt 0.2060202 0.9185662
vt 0.1347656 1
vt 0.2060202 1
vt 0.1347656 0.9185662
vt 0.2060202 0.9185662
vt 0.1347656 1
vt 0.2060202 1
vt 0.1347656 0.9185662
vt 0.2060202 0.9185662
vt 0.1347656 1
vt 0.2060202 1
vt 0.1347656 0.9185662
vt 0.2060202 0.9185662
vt 0.1347656 1
vt 0.2060202 1
vt 0.1347656 0.9185662
vt 0.2060202 0.9185662
vt 0.1347656 1
vt 0.2060202 1
vt 0.1347656 0.9185662
vt 0.2060202 0.9185662
vt 0.1347656 1
vt 0.2060202 1
vt 0.1347656 0.9185662
vt 0.2060202 0.9185662
vt 0.1347656 1
vt 0.2060202 1
vt 0.1347656 0.9185662
vt 0.2060202 0.9185662
vt 0.1347656 1
vt 0.2060202 1
vn 0 1 0
vn 0 1 0
vn 0 1 0
vn 0 1 0
vn 0 1 0
vn 0 1 0
vn 0 1 0
vn 0 1 0
vn 0 1 0
vn 0 1 0
vn 0 1 0
vn 0 1 0
vn 0 1 0
vn 0 1 0
vn 0 1 0
vn 0 1 0
vn 0 1 0
vn 0 1 0
vn 0 1 0
vn 0 1 0
vn 0 1 0
vn 0 1 0
vn 0 1 0
vn 0 1 0
vn 0 1 0
vn 0 1 0
vn 0 1 0
vn 0 1 0
vn 0 1 0
vn 0 1 0
vn 0 1 0
vn 0 1 0
vn 0 1 0
vn 0 1 0
vn 0 1 0
vn 0 1 0
vn 0 1 0
vn 0 1 0
vn 0 1 0
vn 0 1 0
vn 0 1 0
vn 0 1 0
vn 0 1 0
vn 0 1 0
vn 0 1 0
vn 0 1 0
vn 0 1 0
vn 0 1 0
vn 0 1 0
vn 0 1 0
vn 0 1 0
vn 0 1 0
vn 0 1 0
vn 0 1 0
vn 0 1 0
vn 0 1 0
vn 0 1 0
vn 0 1 0
vn 0 1 0
vn 0 1 0
vn 0 1 0
vn 0 1 0
vn 0 1 0
vn 0 1 0
vn 0 1 0
vn 0 1 0
vn 0 1 0
vn 0 1 0
vn 0 1 0
vn 0 1 0
vn 0 1 0
vn 0 1 0
vn 0 1 0
vn 0 1 0
vn 0 1 0
vn 0 1 0
vn 0 1 0
vn 0 1 0
vn 0 1 0
vn 0 1 0
vn 0 1 0
vn 0 1 0
vn 0 1 0
vn 0 1 0
vn 0 1 0
vn 0 1 0
vn 0 1 0
vn 0 1 0
vn 0 1 0
vn 0 1 0
vn 0 1 0
vn 0 1 0
vn 0 1 0
vn 0 1 0
vn 0 1 0
vn 0 1 0
vn 0 1 0
vn 0 1 0
vn 0 1 0
vn 0 1 0
vn 0 1 0
vn 0 1 0
vn 0 1 0
vn 0 1 0
vn 0 1 0
vn 0 1 0
vn 0 1 0
vn 0 1 0
vn 0 1 0
vn 0 1 0
vn 0 1 0
vn 0 1 0
g Grass_2_Cluster46_0
f 2/2/2 3/3/3 1/1/1
f 2/2/2 4/4/4 3/3/3
f 6/6/6 7/7/7 5/5/5
f 6/6/6 8/8/8 7/7/7
f 10/10/10 11/11/11 9/9/9
f 10/10/10 12/12/12 11/11/11
f 14/14/14 15/15/15 13/13/13
f 14/14/14 16/16/16 15/15/15
f 18/18/18 19/19/19 17/17/17
f 18/18/18 20/20/20 19/19/19
f 22/22/22 23/23/23 21/21/21
f 22/22/22 24/24/24 23/23/23
f 26/26/26 27/27/27 25/25/25
f 26/26/26 28/28/28 27/27/27
f 30/30/30 31/31/31 29/29/29
f 30/30/30 32/32/32 31/31/31
f 34/34/34 35/35/35 33/33/33
f 34/34/34 36/36/36 35/35/35
f 38/38/38 39/39/39 37/37/37
f 38/38/38 40/40/40 39/39/39
f 42/42/42 43/43/43 41/41/41
f 42/42/42 44/44/44 43/43/43
f 46/46/46 47/47/47 45/45/45
f 46/46/46 48/48/48 47/47/47
f 50/50/50 51/51/51 49/49/49
f 50/50/50 52/52/52 51/51/51
f 54/54/54 55/55/55 53/53/53
f 54/54/54 56/56/56 55/55/55
f 58/58/58 59/59/59 57/57/57
f 58/58/58 60/60/60 59/59/59
f 62/62/62 63/63/63 61/61/61
f 62/62/62 64/64/64 63/63/63
f 66/66/66 67/67/67 65/65/65
f 66/66/66 68/68/68 67/67/67
f 70/70/70 71/71/71 69/69/69
f 70/70/70 72/72/72 71/71/71
f 74/74/74 75/75/75 73/73/73
f 74/74/74 76/76/76 75/75/75
f 78/78/78 79/79/79 77/77/77
f 78/78/78 80/80/80 79/79/79
f 82/82/82 83/83/83 81/81/81
f 82/82/82 84/84/84 83/83/83
f 86/86/86 87/87/87 85/85/85
f 86/86/86 88/88/88 87/87/87
f 90/90/90 91/91/91 89/89/89
f 90/90/90 92/92/92 91/91/91
f 94/94/94 95/95/95 93/93/93
f 94/94/94 96/96/96 95/95/95
f 98/98/98 99/99/99 97/97/97
f 98/98/98 100/100/100 99/99/99
f 102/102/102 103/103/103 101/101/101
f 102/102/102 104/104/104 103/103/103
f 106/106/106 107/107/107 105/105/105
f 106/106/106 108/108/108 107/107/107
f 110/110/110 111/111/111 109/109/109
f 110/110/110 112/112/112 111/111/111
