g Grass_2_Cluster124
v 161.7817 0.01480103 171.6171
v 160.8011 0.01480103 171.6171
v 161.7817 0.01480103 172.5977
v 160.8011 0.01480103 172.5977
v 154.9176 0.01480103 160.5038
v 153.937 0.01480103 160.5038
v 154.9176 0.01480103 161.8113
v 153.937 0.01480103 161.8113
v 158.5131 0.01480103 160.177
v 157.5325 0.01480103 160.177
v 158.5131 0.01480103 161.1576
v 157.5325 0.01480103 161.1576
v 155.8982 0.01480103 159.5233
v 154.9176 0.01480103 159.5233
v 155.8982 0.01480103 160.5038
v 154.9176 0.01480103 160.5038
v 156.8788 0.01480103 159.5233
v 156.2251 0.01480103 159.5233
v 156.8788 0.01480103 160.5038
v 156.2251 0.01480103 160.5038
v 154.5907 0.01480103 159.1964
v 153.937 0.01480103 159.1964
v 154.5907 0.01480103 160.177
v 153.937 0.01480103 160.177
v 157.2056 0.01480103 158.8695
v 156.2251 0.01480103 158.8695
v 157.2056 0.01480103 159.8501
v 156.2251 0.01480103 159.8501
v 154.5907 0.01480103 158.5427
v 153.6102 0.01480103 158.5427
v 154.5907 0.01480103 159.8501
v 153.6102 0.01480103 159.8501
v 154.2639 0.01480103 157.889
v 153.6102 0.01480103 157.889
v 154.2639 0.01480103 158.8695
v 153.6102 0.01480103 158.8695
v 155.2445 0.01480103 157.889
v 154.2639 0.01480103 157.889
v 155.2445 0.01480103 158.8695
v 154.2639 0.01480103 158.8695
v 155.8982 0.01480103 157.2352
v 154.9176 0.01480103 157.2352
v 155.8982 0.01480103 158.2158
v 154.9176 0.01480103 158.2158
v 154.9176 0.01480103 156.9084
v 153.937 0.01480103 156.9084
v 154.9176 0.01480103 157.889
v 153.937 0.01480103 157.889
v 156.8788 0.01480103 156.2547
v 155.8982 0.01480103 156.2547
v 156.8788 0.01480103 157.2352
v 155.8982 0.01480103 157.2352
v 155.2445 0.01480103 154.9472
v 154.2639 0.01480103 154.9472
v 155.2445 0.01480103 156.2547
v 154.2639 0.01480103 156.2547
v 156.5519 0.01480103 150.0443
v 155.5713 0.01480103 150.0443
v 156.5519 0.01480103 151.3517
v 155.5713 0.01480103 151.3517
vt 0.1347656 0.9185662
vt 0.2060202 0.9185662
vt 0.1347656 1
vt 0.2060202 1
vt 0.1347656 0.9185662
vt 0.2060202 0.9185662
vt 0.1347656 1
vt 0.2060202 1
vt 0.1347656 0.9185662
vt 0.2060202 0.9185662
vt 0.1347656 1
vt 0.2060202 1
vt 0.1347656 0.9185662
vt 0.2060202 0.9185662
vt 0.1347656 1
vt 0.2060202 1
vt 0.1347656 0.9185662
vt 0.2060202 0.9185662
vt 0.1347656 1
vt 0.2060202 1
vt 0.1347656 0.9185662
vt 0.2060202 0.9185662
vt 0.1347656 1
vt 0.2060202 1
vt 0.1347656 0.9185662
vt 0.2060202 0.9185662
vt 0.1347656 1
vt 0.2060202 1
vt 0.1347656 0.9185662
vt 0.2060202 0.9185662
vt 0.1347656 1
vt 0.2060202 1
vt 0.1347656 0.9185662
vt 0.2060202 0.9185662
vt 0.1347656 1
vt 0.2060202 1
vt 0.1347656 0.9185662
vt 0.2060202 0.9185662
vt 0.1347656 1
vt 0.2060202 1
vt 0.1347656 0.9185662
vt 0.2060202 0.9185662
vt 0.1347656 1
vt 0.2060202 1
vt 0.1347656 0.9185662
vt 0.2060202 0.9185662
vt 0.1347656 1
vt 0.2060202 1
vt 0.1347656 0.9185662
vt 0.2060202 0.9185662
vt 0.1347656 1
vt 0.2060202 1
vt 0.1347656 0.9185662
vt 0.2060202 0.9185662
vt 0.1347656 1
vt 0.2060202 1
vt 0.1347656 0.9185662
vt 0.2060202 0.9185662
vt 0.1347656 1
vt 0.2060202 1
vn 0 1 0
vn 0 1 0
vn 0 1 0
vn 0 1 0
vn 0 1 0
vn 0 1 0
vn 0 1 0
vn 0 1 0
vn 0 1 0
vn 0 1 0
vn 0 1 0
vn 0 1 0
vn 0 1 0
vn 0 1 0
vn 0 1 0
vn 0 1 0
vn 0 1 0
vn 0 1 0
vn 0 1 0
vn 0 1 0
vn 0 1 0
vn 0 1 0
vn 0 1 0
vn 0 1 0
vn 0 1 0
vn 0 1 0
vn 0 1 0
vn 0 1 0
vn 0 1 0
vn 0 1 0
vn 0 1 0
vn 0 1 0
vn 0 1 0
vn 0 1 0
vn 0 1 0
vn 0 1 0
vn 0 1 0
vn 0 1 0
vn 0 1 0
vn 0 1 0
vn 0 1 0
vn 0 1 0
vn 0 1 0
vn 0 1 0
vn 0 1 0
vn 0 1 0
vn 0 1 0
vn 0 1 0
vn 0 1 0
vn 0 1 0
vn 0 1 0
vn 0 1 0
vn 0 1 0
vn 0 1 0
vn 0 1 0
vn 0 1 0
vn 0 1 0
vn 0 1 0
vn 0 1 0
vn 0 1 0
g Grass_2_Cluster124_0
f 2/2/2 3/3/3 1/1/1
f 2/2/2 4/4/4 3/3/3
f 6/6/6 7/7/7 5/5/5
f 6/6/6 8/8/8 7/7/7
f 10/10/10 11/11/11 9/9/9
f 10/10/10 12/12/12 11/11/11
f 14/14/14 15/15/15 13/13/13
f 14/14/14 16/16/16 15/15/15
f 18/18/18 19/19/19 17/17/17
f 18/18/18 20/20/20 19/19/19
f 22/22/22 23/23/23 21/21/21
f 22/22/22 24/24/24 23/23/23
f 26/26/26 27/27/27 25/25/25
f 26/26/26 28/28/28 27/27/27
f 30/30/30 31/31/31 29/29/29
f 30/30/30 32/32/32 31/31/31
f 34/34/34 35/35/35 33/33/33
f 34/34/34 36/36/36 35/35/35
f 38/38/38 39/39/39 37/37/37
f 38/38/38 40/40/40 39/39/39
f 42/42/42 43/43/43 41/41/41
f 42/42/42 44/44/44 43/43/43
f 46/46/46 47/47/47 45/45/45
f 46/46/46 48/48/48 47/47/47
f 50/50/50 51/51/51 49/49/49
f 50/50/50 52/52/52 51/51/51
f 54/54/54 55/55/55 53/53/53
f 54/54/54 56/56/56 55/55/55
f 58/58/58 59/59/59 57/57/57
f 58/58/58 60/60/60 59/59/59
