g Grass_2_Cluster127
v 78.65475 0.01287842 172.8279
v 77.89345 0.01287842 172.8279
v 78.65475 0.01287842 173.8429
v 77.89345 0.01287842 173.8429
v 69.51915 0.01287842 167.7526
v 68.50408 0.01287842 167.7526
v 69.51915 0.01287842 169.0214
v 68.50408 0.01287842 169.0214
v 71.29552 0.01287842 166.23
v 70.28045 0.01287842 166.23
v 71.29552 0.01287842 167.245
v 70.28045 0.01287842 167.245
v 69.77292 0.01287842 165.9762
v 68.75785 0.01287842 165.9762
v 69.77292 0.01287842 166.9913
v 68.75785 0.01287842 166.9913
v 69.01162 0.01287842 165.9762
v 67.99655 0.01287842 165.9762
v 69.01162 0.01287842 166.9913
v 67.99655 0.01287842 166.9913
v 72.05682 0.01287842 164.9611
v 71.29552 0.01287842 164.9611
v 72.05682 0.01287842 166.23
v 71.29552 0.01287842 166.23
v 70.78798 0.01287842 164.7074
v 69.77292 0.01287842 164.7074
v 70.78798 0.01287842 165.7224
v 69.77292 0.01287842 165.7224
v 71.80305 0.01287842 164.1998
v 71.04175 0.01287842 164.1998
v 71.80305 0.01287842 165.2149
v 71.04175 0.01287842 165.2149
v 70.53422 0.01287842 164.1998
v 69.51915 0.01287842 164.1998
v 70.53422 0.01287842 165.2149
v 69.51915 0.01287842 165.2149
v 71.54929 0.01287842 164.1998
v 70.78798 0.01287842 164.1998
v 71.54929 0.01287842 165.2149
v 70.78798 0.01287842 165.2149
v 73.32565 0.01287842 163.6923
v 72.31059 0.01287842 163.6923
v 73.32565 0.01287842 164.9611
v 72.31059 0.01287842 164.9611
v 71.04175 0.01287842 163.4385
v 70.28045 0.01287842 163.4385
v 71.04175 0.01287842 164.4536
v 70.28045 0.01287842 164.4536
v 73.83318 0.01287842 163.1848
v 73.07188 0.01287842 163.1848
v 73.83318 0.01287842 164.1998
v 73.07188 0.01287842 164.1998
v 70.28045 0.01287842 162.931
v 69.26538 0.01287842 162.931
v 70.28045 0.01287842 164.1998
v 69.26538 0.01287842 164.1998
v 74.34071 0.01287842 161.4084
v 73.32565 0.01287842 161.4084
v 74.34071 0.01287842 162.6772
v 73.32565 0.01287842 162.6772
v 85.76021 0.01287842 157.6019
v 84.74514 0.01287842 157.6019
v 85.76021 0.01287842 158.8707
v 84.74514 0.01287842 158.8707
v 82.20747 0.01287842 157.3481
v 81.44617 0.01287842 157.3481
v 82.20747 0.01287842 158.3632
v 81.44617 0.01287842 158.3632
v 79.16228 0.01287842 157.0944
v 78.40098 0.01287842 157.0944
v 79.16228 0.01287842 158.1094
v 78.40098 0.01287842 158.1094
v 80.17735 0.01287842 157.0944
v 79.41605 0.01287842 157.0944
v 80.17735 0.01287842 158.1094
v 79.41605 0.01287842 158.1094
v 76.11708 0.01287842 156.5868
v 75.10201 0.01287842 156.5868
v 76.11708 0.01287842 157.6019
v 75.10201 0.01287842 157.6019
v 80.68488 0.01287842 156.3331
v 79.92358 0.01287842 156.3331
v 80.68488 0.01287842 157.3481
v 79.92358 0.01287842 157.3481
v 81.95371 0.01287842 156.0793
v 80.93864 0.01287842 156.0793
v 81.95371 0.01287842 157.0944
v 80.93864 0.01287842 157.0944
v 79.16228 0.01287842 155.8255
v 78.14721 0.01287842 155.8255
v 79.16228 0.01287842 156.8406
v 78.14721 0.01287842 156.8406
v 79.66982 0.01287842 155.0642
v 78.65475 0.01287842 155.0642
v 79.66982 0.01287842 156.0793
v 78.65475 0.01287842 156.0793
v 81.19241 0.01287842 155.0642
v 80.17735 0.01287842 155.0642
v 81.19241 0.01287842 156.0793
v 80.17735 0.01287842 156.0793
v 78.40098 0.01287842 154.8105
v 77.38591 0.01287842 154.8105
v 78.40098 0.01287842 155.8255
v 77.38591 0.01287842 155.8255
v 80.17735 0.01287842 154.3029
v 79.16228 0.01287842 154.3029
v 80.17735 0.01287842 155.318
v 79.16228 0.01287842 155.318
v 78.90851 0.01287842 154.0492
v 77.89345 0.01287842 154.0492
v 78.90851 0.01287842 155.318
v 77.89345 0.01287842 155.318
v 79.92358 0.01287842 153.5416
v 78.90851 0.01287842 153.5416
v 79.92358 0.01287842 154.5567
v 78.90851 0.01287842 154.5567
v 65.20512 0.01287842 151.2577
v 64.19005 0.01287842 151.2577
v 65.20512 0.01287842 152.2728
v 64.19005 0.01287842 152.2728
v 65.45889 0.01287842 150.4964
v 64.44382 0.01287842 150.4964
v 65.45889 0.01287842 151.7653
v 64.44382 0.01287842 151.7653
v 66.47395 0.01287842 150.4964
v 65.45889 0.01287842 150.4964
v 66.47395 0.01287842 151.7653
v 65.45889 0.01287842 151.7653
v 66.22018 0.01287842 149.4814
v 65.20512 0.01287842 149.4814
v 66.22018 0.01287842 150.4964
v 65.20512 0.01287842 150.4964
v 65.96642 0.01287842 149.2276
v 64.95135 0.01287842 149.2276
v 65.96642 0.01287842 150.2427
v 64.95135 0.01287842 150.2427
v 64.69759 0.01287842 148.9738
v 63.68252 0.01287842 148.9738
v 64.69759 0.01287842 150.2427
v 63.68252 0.01287842 150.2427
v 67.99655 0.01287842 148.4663
v 66.98148 0.01287842 148.4663
v 67.99655 0.01287842 149.4814
v 66.98148 0.01287842 149.4814
v 64.95135 0.01287842 148.4663
v 63.93629 0.01287842 148.4663
v 64.95135 0.01287842 149.4814
v 63.93629 0.01287842 149.4814
v 64.19005 0.01287842 148.2125
v 63.17499 0.01287842 148.2125
v 64.19005 0.01287842 149.4814
v 63.17499 0.01287842 149.4814
v 66.98148 0.01287842 148.2125
v 66.22018 0.01287842 148.2125
v 66.98148 0.01287842 149.2276
v 66.22018 0.01287842 149.2276
v 62.15992 0.01287842 147.4512
v 61.14485 0.01287842 147.4512
v 62.15992 0.01287842 148.4663
v 61.14485 0.01287842 148.4663
v 65.20512 0.01287842 147.1975
v 64.44382 0.01287842 147.1975
v 65.20512 0.01287842 148.2125
v 64.44382 0.01287842 148.2125
v 68.25032 0.01287842 146.9437
v 67.23525 0.01287842 146.9437
v 68.25032 0.01287842 147.9588
v 67.23525 0.01287842 147.9588
v 64.19005 0.01287842 146.6899
v 63.17499 0.01287842 146.6899
v 64.19005 0.01287842 147.9588
v 63.17499 0.01287842 147.9588
v 70.02668 0.01287842 146.6899
v 69.26538 0.01287842 146.6899
v 70.02668 0.01287842 147.705
v 69.26538 0.01287842 147.705
v 67.23525 0.01287842 146.4362
v 66.47395 0.01287842 146.4362
v 67.23525 0.01287842 147.4512
v 66.47395 0.01287842 147.4512
v 66.47395 0.01287842 145.9286
v 65.45889 0.01287842 145.9286
v 66.47395 0.01287842 147.1975
v 65.45889 0.01287842 147.1975
v 64.44382 0.01287842 146.1824
v 63.42875 0.01287842 146.1824
v 64.44382 0.01287842 147.1975
v 63.42875 0.01287842 147.1975
v 65.71265 0.01287842 145.9286
v 64.69759 0.01287842 145.9286
v 65.71265 0.01287842 146.9437
v 64.69759 0.01287842 146.9437
v 71.54929 0.01287842 145.9286
v 70.78798 0.01287842 145.9286
v 71.54929 0.01287842 147.1975
v 70.78798 0.01287842 147.1975
v 68.50408 0.01287842 145.6749
v 67.74278 0.01287842 145.6749
v 68.50408 0.01287842 146.6899
v 67.74278 0.01287842 146.6899
v 63.68252 0.01287842 145.6749
v 62.66745 0.01287842 145.6749
v 63.68252 0.01287842 146.6899
v 62.66745 0.01287842 146.6899
v 66.72772 0.01287842 145.6749
v 65.71265 0.01287842 145.6749
v 66.72772 0.01287842 146.6899
v 65.71265 0.01287842 146.6899
v 71.29552 0.01287842 145.4211
v 70.28045 0.01287842 145.4211
v 71.29552 0.01287842 146.4362
v 70.28045 0.01287842 146.4362
v 68.75785 0.01287842 145.1673
v 67.74278 0.01287842 145.1673
v 68.75785 0.01287842 146.1824
v 67.74278 0.01287842 146.1824
v 70.28045 0.01287842 144.6598
v 69.51915 0.01287842 144.6598
v 70.28045 0.01287842 145.6749
v 69.51915 0.01287842 145.6749
v 69.26538 0.01287842 144.406
v 68.25032 0.01287842 144.406
v 69.26538 0.01287842 145.4211
v 68.25032 0.01287842 145.4211
v 72.31059 0.01287842 144.406
v 71.29552 0.01287842 144.406
v 72.31059 0.01287842 145.4211
v 71.29552 0.01287842 145.4211
v 71.04175 0.01287842 144.1523
v 70.02668 0.01287842 144.1523
v 71.04175 0.01287842 145.1673
v 70.02668 0.01287842 145.1673
v 69.77292 0.01287842 143.8985
v 69.01162 0.01287842 143.8985
v 69.77292 0.01287842 144.9136
v 69.01162 0.01287842 144.9136
v 73.07188 0.01287842 143.6447
v 72.05682 0.01287842 143.6447
v 73.07188 0.01287842 144.6598
v 72.05682 0.01287842 144.6598
v 73.57941 0.01287842 143.391
v 72.56435 0.01287842 143.391
v 73.57941 0.01287842 144.6598
v 72.56435 0.01287842 144.6598
vt 0.1347656 0.9185662
vt 0.2060202 0.9185662
vt 0.1347656 1
vt 0.2060202 1
vt 0.1347656 0.9185662
vt 0.2060202 0.9185662
vt 0.1347656 1
vt 0.2060202 1
vt 0.1347656 0.9185662
vt 0.2060202 0.9185662
vt 0.1347656 1
vt 0.2060202 1
vt 0.1347656 0.9185662
vt 0.2060202 0.9185662
vt 0.1347656 1
vt 0.2060202 1
vt 0.1347656 0.9185662
vt 0.2060202 0.9185662
vt 0.1347656 1
vt 0.2060202 1
vt 0.1347656 0.9185662
vt 0.2060202 0.9185662
vt 0.1347656 1
vt 0.2060202 1
vt 0.1347656 0.9185662
vt 0.2060202 0.9185662
vt 0.1347656 1
vt 0.2060202 1
vt 0.1347656 0.9185662
vt 0.2060202 0.9185662
vt 0.1347656 1
vt 0.2060202 1
vt 0.1347656 0.9185662
vt 0.2060202 0.9185662
vt 0.1347656 1
vt 0.2060202 1
vt 0.1347656 0.9185662
vt 0.2060202 0.9185662
vt 0.1347656 1
vt 0.2060202 1
vt 0.1347656 0.9185662
vt 0.2060202 0.9185662
vt 0.1347656 1
vt 0.2060202 1
vt 0.1347656 0.9185662
vt 0.2060202 0.9185662
vt 0.1347656 1
vt 0.2060202 1
vt 0.1347656 0.9185662
vt 0.2060202 0.9185662
vt 0.1347656 1
vt 0.2060202 1
vt 0.1347656 0.9185662
vt 0.2060202 0.9185662
vt 0.1347656 1
vt 0.2060202 1
vt 0.1347656 0.9185662
vt 0.2060202 0.9185662
vt 0.1347656 1
vt 0.2060202 1
vt 0.1347656 0.9185662
vt 0.2060202 0.9185662
vt 0.1347656 1
vt 0.2060202 1
vt 0.1347656 0.9185662
vt 0.2060202 0.9185662
vt 0.1347656 1
vt 0.2060202 1
vt 0.1347656 0.9185662
vt 0.2060202 0.9185662
vt 0.1347656 1
vt 0.2060202 1
vt 0.1347656 0.9185662
vt 0.2060202 0.9185662
vt 0.1347656 1
vt 0.2060202 1
vt 0.1347656 0.9185662
vt 0.2060202 0.9185662
vt 0.1347656 1
vt 0.2060202 1
vt 0.1347656 0.9185662
vt 0.2060202 0.9185662
vt 0.1347656 1
vt 0.2060202 1
vt 0.1347656 0.9185662
vt 0.2060202 0.9185662
vt 0.1347656 1
vt 0.2060202 1
vt 0.1347656 0.9185662
vt 0.2060202 0.9185662
vt 0.1347656 1
vt 0.2060202 1
vt 0.1347656 0.9185662
vt 0.2060202 0.9185662
vt 0.1347656 1
vt 0.2060202 1
vt 0.1347656 0.9185662
vt 0.2060202 0.9185662
vt 0.1347656 1
vt 0.2060202 1
vt 0.1347656 0.9185662
vt 0.2060202 0.9185662
vt 0.1347656 1
vt 0.2060202 1
vt 0.1347656 0.9185662
vt 0.2060202 0.9185662
vt 0.1347656 1
vt 0.2060202 1
vt 0.1347656 0.9185662
vt 0.2060202 0.9185662
vt 0.1347656 1
vt 0.2060202 1
vt 0.1347656 0.9185662
vt 0.2060202 0.9185662
vt 0.1347656 1
vt 0.2060202 1
vt 0.1347656 0.9185662
vt 0.2060202 0.9185662
vt 0.1347656 1
vt 0.2060202 1
vt 0.1347656 0.9185662
vt 0.2060202 0.9185662
vt 0.1347656 1
vt 0.2060202 1
vt 0.1347656 0.9185662
vt 0.2060202 0.9185662
vt 0.1347656 1
vt 0.2060202 1
vt 0.1347656 0.9185662
vt 0.2060202 0.9185662
vt 0.1347656 1
vt 0.2060202 1
vt 0.1347656 0.9185662
vt 0.2060202 0.9185662
vt 0.1347656 1
vt 0.2060202 1
vt 0.1347656 0.9185662
vt 0.2060202 0.9185662
vt 0.1347656 1
vt 0.2060202 1
vt 0.1347656 0.9185662
vt 0.2060202 0.9185662
vt 0.1347656 1
vt 0.2060202 1
vt 0.1347656 0.9185662
vt 0.2060202 0.9185662
vt 0.1347656 1
vt 0.2060202 1
vt 0.1347656 0.9185662
vt 0.2060202 0.9185662
vt 0.1347656 1
vt 0.2060202 1
vt 0.1347656 0.9185662
vt 0.2060202 0.9185662
vt 0.1347656 1
vt 0.2060202 1
vt 0.1347656 0.9185662
vt 0.2060202 0.9185662
vt 0.1347656 1
vt 0.2060202 1
vt 0.1347656 0.9185662
vt 0.2060202 0.9185662
vt 0.1347656 1
vt 0.2060202 1
vt 0.1347656 0.9185662
vt 0.2060202 0.9185662
vt 0.1347656 1
vt 0.2060202 1
vt 0.1347656 0.9185662
vt 0.2060202 0.9185662
vt 0.1347656 1
vt 0.2060202 1
vt 0.1347656 0.9185662
vt 0.2060202 0.9185662
vt 0.1347656 1
vt 0.2060202 1
vt 0.1347656 0.9185662
vt 0.2060202 0.9185662
vt 0.1347656 1
vt 0.2060202 1
vt 0.1347656 0.9185662
vt 0.2060202 0.9185662
vt 0.1347656 1
vt 0.2060202 1
vt 0.1347656 0.9185662
vt 0.2060202 0.9185662
vt 0.1347656 1
vt 0.2060202 1
vt 0.1347656 0.9185662
vt 0.2060202 0.9185662
vt 0.1347656 1
vt 0.2060202 1
vt 0.1347656 0.9185662
vt 0.2060202 0.9185662
vt 0.1347656 1
vt 0.2060202 1
vt 0.1347656 0.9185662
vt 0.2060202 0.9185662
vt 0.1347656 1
vt 0.2060202 1
vt 0.1347656 0.9185662
vt 0.2060202 0.9185662
vt 0.1347656 1
vt 0.2060202 1
vt 0.1347656 0.9185662
vt 0.2060202 0.9185662
vt 0.1347656 1
vt 0.2060202 1
vt 0.1347656 0.9185662
vt 0.2060202 0.9185662
vt 0.1347656 1
vt 0.2060202 1
vt 0.1347656 0.9185662
vt 0.2060202 0.9185662
vt 0.1347656 1
vt 0.2060202 1
vt 0.1347656 0.9185662
vt 0.2060202 0.9185662
vt 0.1347656 1
vt 0.2060202 1
vt 0.1347656 0.9185662
vt 0.2060202 0.9185662
vt 0.1347656 1
vt 0.2060202 1
vt 0.1347656 0.9185662
vt 0.2060202 0.9185662
vt 0.1347656 1
vt 0.2060202 1
vt 0.1347656 0.9185662
vt 0.2060202 0.9185662
vt 0.1347656 1
vt 0.2060202 1
vt 0.1347656 0.9185662
vt 0.2060202 0.9185662
vt 0.1347656 1
vt 0.2060202 1
vt 0.1347656 0.9185662
vt 0.2060202 0.9185662
vt 0.1347656 1
vt 0.2060202 1
vt 0.1347656 0.9185662
vt 0.2060202 0.9185662
vt 0.1347656 1
vt 0.2060202 1
vn 0 1 0
vn 0 1 0
vn 0 1 0
vn 0 1 0
vn 0 1 0
vn 0 1 0
vn 0 1 0
vn 0 1 0
vn 0 1 0
vn 0 1 0
vn 0 1 0
vn 0 1 0
vn 0 1 0
vn 0 1 0
vn 0 1 0
vn 0 1 0
vn 0 1 0
vn 0 1 0
vn 0 1 0
vn 0 1 0
vn 0 1 0
vn 0 1 0
vn 0 1 0
vn 0 1 0
vn 0 1 0
vn 0 1 0
vn 0 1 0
vn 0 1 0
vn 0 1 0
vn 0 1 0
vn 0 1 0
vn 0 1 0
vn 0 1 0
vn 0 1 0
vn 0 1 0
vn 0 1 0
vn 0 1 0
vn 0 1 0
vn 0 1 0
vn 0 1 0
vn 0 1 0
vn 0 1 0
vn 0 1 0
vn 0 1 0
vn 0 1 0
vn 0 1 0
vn 0 1 0
vn 0 1 0
vn 0 1 0
vn 0 1 0
vn 0 1 0
vn 0 1 0
vn 0 1 0
vn 0 1 0
vn 0 1 0
vn 0 1 0
vn 0 1 0
vn 0 1 0
vn 0 1 0
vn 0 1 0
vn 0 1 0
vn 0 1 0
vn 0 1 0
vn 0 1 0
vn 0 1 0
vn 0 1 0
vn 0 1 0
vn 0 1 0
vn 0 1 0
vn 0 1 0
vn 0 1 0
vn 0 1 0
vn 0 1 0
vn 0 1 0
vn 0 1 0
vn 0 1 0
vn 0 1 0
vn 0 1 0
vn 0 1 0
vn 0 1 0
vn 0 1 0
vn 0 1 0
vn 0 1 0
vn 0 1 0
vn 0 1 0
vn 0 1 0
vn 0 1 0
vn 0 1 0
vn 0 1 0
vn 0 1 0
vn 0 1 0
vn 0 1 0
vn 0 1 0
vn 0 1 0
vn 0 1 0
vn 0 1 0
vn 0 1 0
vn 0 1 0
vn 0 1 0
vn 0 1 0
vn 0 1 0
vn 0 1 0
vn 0 1 0
vn 0 1 0
vn 0 1 0
vn 0 1 0
vn 0 1 0
vn 0 1 0
vn 0 1 0
vn 0 1 0
vn 0 1 0
vn 0 1 0
vn 0 1 0
vn 0 1 0
vn 0 1 0
vn 0 1 0
vn 0 1 0
vn 0 1 0
vn 0 1 0
vn 0 1 0
vn 0 1 0
vn 0 1 0
vn 0 1 0
vn 0 1 0
vn 0 1 0
vn 0 1 0
vn 0 1 0
vn 0 1 0
vn 0 1 0
vn 0 1 0
vn 0 1 0
vn 0 1 0
vn 0 1 0
vn 0 1 0
vn 0 1 0
vn 0 1 0
vn 0 1 0
vn 0 1 0
vn 0 1 0
vn 0 1 0
vn 0 1 0
vn 0 1 0
vn 0 1 0
vn 0 1 0
vn 0 1 0
vn 0 1 0
vn 0 1 0
vn 0 1 0
vn 0 1 0
vn 0 1 0
vn 0 1 0
vn 0 1 0
vn 0 1 0
vn 0 1 0
vn 0 1 0
vn 0 1 0
vn 0 1 0
vn 0 1 0
vn 0 1 0
vn 0 1 0
vn 0 1 0
vn 0 1 0
vn 0 1 0
vn 0 1 0
vn 0 1 0
vn 0 1 0
vn 0 1 0
vn 0 1 0
vn 0 1 0
vn 0 1 0
vn 0 1 0
vn 0 1 0
vn 0 1 0
vn 0 1 0
vn 0 1 0
vn 0 1 0
vn 0 1 0
vn 0 1 0
vn 0 1 0
vn 0 1 0
vn 0 1 0
vn 0 1 0
vn 0 1 0
vn 0 1 0
vn 0 1 0
vn 0 1 0
vn 0 1 0
vn 0 1 0
vn 0 1 0
vn 0 1 0
vn 0 1 0
vn 0 1 0
vn 0 1 0
vn 0 1 0
vn 0 1 0
vn 0 1 0
vn 0 1 0
vn 0 1 0
vn 0 1 0
vn 0 1 0
vn 0 1 0
vn 0 1 0
vn 0 1 0
vn 0 1 0
vn 0 1 0
vn 0 1 0
vn 0 1 0
vn 0 1 0
vn 0 1 0
vn 0 1 0
vn 0 1 0
vn 0 1 0
vn 0 1 0
vn 0 1 0
vn 0 1 0
vn 0 1 0
vn 0 1 0
vn 0 1 0
vn 0 1 0
vn 0 1 0
vn 0 1 0
vn 0 1 0
vn 0 1 0
vn 0 1 0
vn 0 1 0
vn 0 1 0
vn 0 1 0
vn 0 1 0
vn 0 1 0
vn 0 1 0
vn 0 1 0
vn 0 1 0
vn 0 1 0
vn 0 1 0
vn 0 1 0
vn 0 1 0
vn 0 1 0
vn 0 1 0
vn 0 1 0
vn 0 1 0
vn 0 1 0
vn 0 1 0
vn 0 1 0
vn 0 1 0
g Grass_2_Cluster127_0
f 2/2/2 3/3/3 1/1/1
f 2/2/2 4/4/4 3/3/3
f 6/6/6 7/7/7 5/5/5
f 6/6/6 8/8/8 7/7/7
f 10/10/10 11/11/11 9/9/9
f 10/10/10 12/12/12 11/11/11
f 14/14/14 15/15/15 13/13/13
f 14/14/14 16/16/16 15/15/15
f 18/18/18 19/19/19 17/17/17
f 18/18/18 20/20/20 19/19/19
f 22/22/22 23/23/23 21/21/21
f 22/22/22 24/24/24 23/23/23
f 26/26/26 27/27/27 25/25/25
f 26/26/26 28/28/28 27/27/27
f 30/30/30 31/31/31 29/29/29
f 30/30/30 32/32/32 31/31/31
f 34/34/34 35/35/35 33/33/33
f 34/34/34 36/36/36 35/35/35
f 38/38/38 39/39/39 37/37/37
f 38/38/38 40/40/40 39/39/39
f 42/42/42 43/43/43 41/41/41
f 42/42/42 44/44/44 43/43/43
f 46/46/46 47/47/47 45/45/45
f 46/46/46 48/48/48 47/47/47
f 50/50/50 51/51/51 49/49/49
f 50/50/50 52/52/52 51/51/51
f 54/54/54 55/55/55 53/53/53
f 54/54/54 56/56/56 55/55/55
f 58/58/58 59/59/59 57/57/57
f 58/58/58 60/60/60 59/59/59
f 62/62/62 63/63/63 61/61/61
f 62/62/62 64/64/64 63/63/63
f 66/66/66 67/67/67 65/65/65
f 66/66/66 68/68/68 67/67/67
f 70/70/70 71/71/71 69/69/69
f 70/70/70 72/72/72 71/71/71
f 74/74/74 75/75/75 73/73/73
f 74/74/74 76/76/76 75/75/75
f 78/78/78 79/79/79 77/77/77
f 78/78/78 80/80/80 79/79/79
f 82/82/82 83/83/83 81/81/81
f 82/82/82 84/84/84 83/83/83
f 86/86/86 87/87/87 85/85/85
f 86/86/86 88/88/88 87/87/87
f 90/90/90 91/91/91 89/89/89
f 90/90/90 92/92/92 91/91/91
f 94/94/94 95/95/95 93/93/93
f 94/94/94 96/96/96 95/95/95
f 98/98/98 99/99/99 97/97/97
f 98/98/98 100/100/100 99/99/99
f 102/102/102 103/103/103 101/101/101
f 102/102/102 104/104/104 103/103/103
f 106/106/106 107/107/107 105/105/105
f 106/106/106 108/108/108 107/107/107
f 110/110/110 111/111/111 109/109/109
f 110/110/110 112/112/112 111/111/111
f 114/114/114 115/115/115 113/113/113
f 114/114/114 116/116/116 115/115/115
f 118/118/118 119/119/119 117/117/117
f 118/118/118 120/120/120 119/119/119
f 122/122/122 123/123/123 121/121/121
f 122/122/122 124/124/124 123/123/123
f 126/126/126 127/127/127 125/125/125
f 126/126/126 128/128/128 127/127/127
f 130/130/130 131/131/131 129/129/129
f 130/130/130 132/132/132 131/131/131
f 134/134/134 135/135/135 133/133/133
f 134/134/134 136/136/136 135/135/135
f 138/138/138 139/139/139 137/137/137
f 138/138/138 140/140/140 139/139/139
f 142/142/142 143/143/143 141/141/141
f 142/142/142 144/144/144 143/143/143
f 146/146/146 147/147/147 145/145/145
f 146/146/146 148/148/148 147/147/147
f 150/150/150 151/151/151 149/149/149
f 150/150/150 152/152/152 151/151/151
f 154/154/154 155/155/155 153/153/153
f 154/154/154 156/156/156 155/155/155
f 158/158/158 159/159/159 157/157/157
f 158/158/158 160/160/160 159/159/159
f 162/162/162 163/163/163 161/161/161
f 162/162/162 164/164/164 163/163/163
f 166/166/166 167/167/167 165/165/165
f 166/166/166 168/168/168 167/167/167
f 170/170/170 171/171/171 169/169/169
f 170/170/170 172/172/172 171/171/171
f 174/174/174 175/175/175 173/173/173
f 174/174/174 176/176/176 175/175/175
f 178/178/178 179/179/179 177/177/177
f 178/178/178 180/180/180 179/179/179
f 182/182/182 183/183/183 181/181/181
f 182/182/182 184/184/184 183/183/183
f 186/186/186 187/187/187 185/185/185
f 186/186/186 188/188/188 187/187/187
f 190/190/190 191/191/191 189/189/189
f 190/190/190 192/192/192 191/191/191
f 194/194/194 195/195/195 193/193/193
f 194/194/194 196/196/196 195/195/195
f 198/198/198 199/199/199 197/197/197
f 198/198/198 200/200/200 199/199/199
f 202/202/202 203/203/203 201/201/201
f 202/202/202 204/204/204 203/203/203
f 206/206/206 207/207/207 205/205/205
f 206/206/206 208/208/208 207/207/207
f 210/210/210 211/211/211 209/209/209
f 210/210/210 212/212/212 211/211/211
f 214/214/214 215/215/215 213/213/213
f 214/214/214 216/216/216 215/215/215
f 218/218/218 219/219/219 217/217/217
f 218/218/218 220/220/220 219/219/219
f 222/222/222 223/223/223 221/221/221
f 222/222/222 224/224/224 223/223/223
f 226/226/226 227/227/227 225/225/225
f 226/226/226 228/228/228 227/227/227
f 230/230/230 231/231/231 229/229/229
f 230/230/230 232/232/232 231/231/231
f 234/234/234 235/235/235 233/233/233
f 234/234/234 236/236/236 235/235/235
f 238/238/238 239/239/239 237/237/237
f 238/238/238 240/240/240 239/239/239
f 242/242/242 243/243/243 241/241/241
f 242/242/242 244/244/244 243/243/243
