g Grass_1_Cluster307
v 71.70173 0.2549438 441.8308
v 70.66638 0.2549438 441.8308
v 71.70173 0.2549438 442.3485
v 70.66638 0.2549438 442.3485
v 87.23195 0.2549438 441.3132
v 86.1966 0.2549438 441.3132
v 87.23195 0.2549438 442.3485
v 86.1966 0.2549438 442.3485
v 84.12591 0.2549438 440.7955
v 83.60823 0.2549438 440.7955
v 84.12591 0.2549438 441.8308
v 83.60823 0.2549438 441.8308
v 87.23195 0.2549438 440.2778
v 86.1966 0.2549438 440.2778
v 87.23195 0.2549438 440.7955
v 86.1966 0.2549438 440.7955
v 75.32545 0.2549438 439.7601
v 74.2901 0.2549438 439.7601
v 75.32545 0.2549438 440.7955
v 74.2901 0.2549438 440.7955
v 77.39614 0.2549438 439.7601
v 76.36079 0.2549438 439.7601
v 77.39614 0.2549438 440.7955
v 76.36079 0.2549438 440.7955
v 75.84312 0.2549438 439.2425
v 74.80778 0.2549438 439.2425
v 75.84312 0.2549438 439.7601
v 74.80778 0.2549438 439.7601
v 78.94917 0.2549438 438.2071
v 77.91382 0.2549438 438.2071
v 78.94917 0.2549438 438.7248
v 77.91382 0.2549438 438.7248
v 76.36079 0.2549438 437.1718
v 75.32545 0.2549438 437.1718
v 76.36079 0.2549438 438.2071
v 75.32545 0.2549438 438.2071
v 70.66638 0.2549438 424.7476
v 69.63103 0.2549438 424.7476
v 70.66638 0.2549438 425.2653
v 69.63103 0.2549438 425.2653
v 86.71427 0.2549438 422.1592
v 85.67892 0.2549438 422.1592
v 86.71427 0.2549438 422.6769
v 85.67892 0.2549438 422.6769
v 85.16125 0.2549438 421.6415
v 84.12591 0.2549438 421.6415
v 85.16125 0.2549438 422.6769
v 84.12591 0.2549438 422.6769
v 83.60823 0.2549438 421.1238
v 83.09056 0.2549438 421.1238
v 83.60823 0.2549438 421.6415
v 83.09056 0.2549438 421.6415
v 85.67892 0.2549438 419.5709
v 85.16125 0.2549438 419.5709
v 85.67892 0.2549438 420.6062
v 85.16125 0.2549438 420.6062
v 84.64358 0.2549438 418.5355
v 83.60823 0.2549438 418.5355
v 84.64358 0.2549438 419.5709
v 83.60823 0.2549438 419.5709
v 82.57288 0.2549438 418.5355
v 81.53754 0.2549438 418.5355
v 82.57288 0.2549438 419.0532
v 81.53754 0.2549438 419.0532
v 75.84312 0.2549438 416.4648
v 74.80778 0.2549438 416.4648
v 75.84312 0.2549438 416.9825
v 74.80778 0.2549438 416.9825
v 74.80778 0.2549438 415.9471
v 73.77243 0.2549438 415.9471
v 74.80778 0.2549438 416.9825
v 73.77243 0.2549438 416.9825
vt 0.06738281 0.9369141
vt 0.1331457 0.9369141
vt 0.06738281 0.9990234
vt 0.1331457 0.9990234
vt 0.06738281 0.9369141
vt 0.1331457 0.9369141
vt 0.06738281 0.9990234
vt 0.1331457 0.9990234
vt 0.06738281 0.9369141
vt 0.1331457 0.9369141
vt 0.06738281 0.9990234
vt 0.1331457 0.9990234
vt 0.06738281 0.9369141
vt 0.1331457 0.9369141
vt 0.06738281 0.9990234
vt 0.1331457 0.9990234
vt 0.06738281 0.9369141
vt 0.1331457 0.9369141
vt 0.06738281 0.9990234
vt 0.1331457 0.9990234
vt 0.06738281 0.9369141
vt 0.1331457 0.9369141
vt 0.06738281 0.9990234
vt 0.1331457 0.9990234
vt 0.06738281 0.9369141
vt 0.1331457 0.9369141
vt 0.06738281 0.9990234
vt 0.1331457 0.9990234
vt 0.06738281 0.9369141
vt 0.1331457 0.9369141
vt 0.06738281 0.9990234
vt 0.1331457 0.9990234
vt 0.06738281 0.9369141
vt 0.1331457 0.9369141
vt 0.06738281 0.9990234
vt 0.1331457 0.9990234
vt 0.06738281 0.9369141
vt 0.1331457 0.9369141
vt 0.06738281 0.9990234
vt 0.1331457 0.9990234
vt 0.06738281 0.9369141
vt 0.1331457 0.9369141
vt 0.06738281 0.9990234
vt 0.1331457 0.9990234
vt 0.06738281 0.9369141
vt 0.1331457 0.9369141
vt 0.06738281 0.9990234
vt 0.1331457 0.9990234
vt 0.06738281 0.9369141
vt 0.1331457 0.9369141
vt 0.06738281 0.9990234
vt 0.1331457 0.9990234
vt 0.06738281 0.9369141
vt 0.1331457 0.9369141
vt 0.06738281 0.9990234
vt 0.1331457 0.9990234
vt 0.06738281 0.9369141
vt 0.1331457 0.9369141
vt 0.06738281 0.9990234
vt 0.1331457 0.9990234
vt 0.06738281 0.9369141
vt 0.1331457 0.9369141
vt 0.06738281 0.9990234
vt 0.1331457 0.9990234
vt 0.06738281 0.9369141
vt 0.1331457 0.9369141
vt 0.06738281 0.9990234
vt 0.1331457 0.9990234
vt 0.06738281 0.9369141
vt 0.1331457 0.9369141
vt 0.06738281 0.9990234
vt 0.1331457 0.9990234
vn 0 1 0
vn 0 1 0
vn 0 1 0
vn 0 1 0
vn 0 1 0
vn 0 1 0
vn 0 1 0
vn 0 1 0
vn 0 1 0
vn 0 1 0
vn 0 1 0
vn 0 1 0
vn 0 1 0
vn 0 1 0
vn 0 1 0
vn 0 1 0
vn 0 1 0
vn 0 1 0
vn 0 1 0
vn 0 1 0
vn 0 1 0
vn 0 1 0
vn 0 1 0
vn 0 1 0
vn 0 1 0
vn 0 1 0
vn 0 1 0
vn 0 1 0
vn 0 1 0
vn 0 1 0
vn 0 1 0
vn 0 1 0
vn 0 1 0
vn 0 1 0
vn 0 1 0
vn 0 1 0
vn 0 1 0
vn 0 1 0
vn 0 1 0
vn 0 1 0
vn 0 1 0
vn 0 1 0
vn 0 1 0
vn 0 1 0
vn 0 1 0
vn 0 1 0
vn 0 1 0
vn 0 1 0
vn 0 1 0
vn 0 1 0
vn 0 1 0
vn 0 1 0
vn 0 1 0
vn 0 1 0
vn 0 1 0
vn 0 1 0
vn 0 1 0
vn 0 1 0
vn 0 1 0
vn 0 1 0
vn 0 1 0
vn 0 1 0
vn 0 1 0
vn 0 1 0
vn 0 1 0
vn 0 1 0
vn 0 1 0
vn 0 1 0
vn 0 1 0
vn 0 1 0
vn 0 1 0
vn 0 1 0
g Grass_1_Cluster307_0
f 2/2/2 3/3/3 1/1/1
f 2/2/2 4/4/4 3/3/3
f 6/6/6 7/7/7 5/5/5
f 6/6/6 8/8/8 7/7/7
f 10/10/10 11/11/11 9/9/9
f 10/10/10 12/12/12 11/11/11
f 14/14/14 15/15/15 13/13/13
f 14/14/14 16/16/16 15/15/15
f 18/18/18 19/19/19 17/17/17
f 18/18/18 20/20/20 19/19/19
f 22/22/22 23/23/23 21/21/21
f 22/22/22 24/24/24 23/23/23
f 26/26/26 27/27/27 25/25/25
f 26/26/26 28/28/28 27/27/27
f 30/30/30 31/31/31 29/29/29
f 30/30/30 32/32/32 31/31/31
f 34/34/34 35/35/35 33/33/33
f 34/34/34 36/36/36 35/35/35
f 38/38/38 39/39/39 37/37/37
f 38/38/38 40/40/40 39/39/39
f 42/42/42 43/43/43 41/41/41
f 42/42/42 44/44/44 43/43/43
f 46/46/46 47/47/47 45/45/45
f 46/46/46 48/48/48 47/47/47
f 50/50/50 51/51/51 49/49/49
f 50/50/50 52/52/52 51/51/51
f 54/54/54 55/55/55 53/53/53
f 54/54/54 56/56/56 55/55/55
f 58/58/58 59/59/59 57/57/57
f 58/58/58 60/60/60 59/59/59
f 62/62/62 63/63/63 61/61/61
f 62/62/62 64/64/64 63/63/63
f 66/66/66 67/67/67 65/65/65
f 66/66/66 68/68/68 67/67/67
f 70/70/70 71/71/71 69/69/69
f 70/70/70 72/72/72 71/71/71
