g Grass_1_Cluster165
v 126.7472 0.1725464 231.9877
v 125.6273 0.1725464 231.9877
v 126.7472 0.1725464 232.7343
v 125.6273 0.1725464 232.7343
v 149.1448 0.1725464 231.6144
v 148.3982 0.1725464 231.6144
v 149.1448 0.1725464 232.3611
v 148.3982 0.1725464 232.3611
v 127.4938 0.1725464 231.6144
v 126.7472 0.1725464 231.6144
v 127.4938 0.1725464 232.3611
v 126.7472 0.1725464 232.3611
v 133.8398 0.1725464 231.6144
v 132.7199 0.1725464 231.6144
v 133.8398 0.1725464 232.3611
v 132.7199 0.1725464 232.3611
v 124.8807 0.1725464 231.2411
v 124.1341 0.1725464 231.2411
v 124.8807 0.1725464 231.9877
v 124.1341 0.1725464 231.9877
v 124.5074 0.1725464 230.8679
v 123.7609 0.1725464 230.8679
v 124.5074 0.1725464 231.6144
v 123.7609 0.1725464 231.6144
v 131.2267 0.1725464 230.1213
v 130.4801 0.1725464 230.1213
v 131.2267 0.1725464 230.8679
v 130.4801 0.1725464 230.8679
v 133.0932 0.1725464 229.3747
v 131.9733 0.1725464 229.3747
v 133.0932 0.1725464 230.1213
v 131.9733 0.1725464 230.1213
v 121.1478 0.1725464 229.3747
v 120.4012 0.1725464 229.3747
v 121.1478 0.1725464 230.1213
v 120.4012 0.1725464 230.1213
v 125.6273 0.1725464 229.3747
v 124.8807 0.1725464 229.3747
v 125.6273 0.1725464 230.1213
v 124.8807 0.1725464 230.1213
v 129.7336 0.1725464 229.0014
v 128.987 0.1725464 229.0014
v 129.7336 0.1725464 229.748
v 128.987 0.1725464 229.748
v 128.987 0.1725464 228.6281
v 127.8671 0.1725464 228.6281
v 128.987 0.1725464 229.3747
v 127.8671 0.1725464 229.3747
v 130.8534 0.1725464 227.8815
v 130.1068 0.1725464 227.8815
v 130.8534 0.1725464 228.6281
v 130.1068 0.1725464 228.6281
v 129.7336 0.1725464 227.1349
v 128.987 0.1725464 227.1349
v 129.7336 0.1725464 227.8815
v 128.987 0.1725464 227.8815
v 139.0659 0.1725464 212.9498
v 137.946 0.1725464 212.9498
v 139.0659 0.1725464 214.0697
v 137.946 0.1725464 214.0697
v 140.1858 0.1725464 212.5765
v 139.4392 0.1725464 212.5765
v 140.1858 0.1725464 213.3231
v 139.4392 0.1725464 213.3231
v 144.292 0.1725464 212.5765
v 143.1721 0.1725464 212.5765
v 144.292 0.1725464 213.3231
v 143.1721 0.1725464 213.3231
v 141.6789 0.1725464 210.71
v 140.5591 0.1725464 210.71
v 141.6789 0.1725464 211.8299
v 140.5591 0.1725464 211.8299
v 145.4119 0.1725464 209.2169
v 144.292 0.1725464 209.2169
v 145.4119 0.1725464 210.3367
v 144.292 0.1725464 210.3367
v 141.6789 0.1725464 208.8436
v 140.9324 0.1725464 208.8436
v 141.6789 0.1725464 209.5901
v 140.9324 0.1725464 209.5901
v 145.0386 0.1725464 207.7237
v 144.292 0.1725464 207.7237
v 145.0386 0.1725464 208.4703
v 144.292 0.1725464 208.4703
vt 0.06738281 0.9369141
vt 0.1331457 0.9369141
vt 0.06738281 0.9990234
vt 0.1331457 0.9990234
vt 0.06738281 0.9369141
vt 0.1331457 0.9369141
vt 0.06738281 0.9990234
vt 0.1331457 0.9990234
vt 0.06738281 0.9369141
vt 0.1331457 0.9369141
vt 0.06738281 0.9990234
vt 0.1331457 0.9990234
vt 0.06738281 0.9369141
vt 0.1331457 0.9369141
vt 0.06738281 0.9990234
vt 0.1331457 0.9990234
vt 0.06738281 0.9369141
vt 0.1331457 0.9369141
vt 0.06738281 0.9990234
vt 0.1331457 0.9990234
vt 0.06738281 0.9369141
vt 0.1331457 0.9369141
vt 0.06738281 0.9990234
vt 0.1331457 0.9990234
vt 0.06738281 0.9369141
vt 0.1331457 0.9369141
vt 0.06738281 0.9990234
vt 0.1331457 0.9990234
vt 0.06738281 0.9369141
vt 0.1331457 0.9369141
vt 0.06738281 0.9990234
vt 0.1331457 0.9990234
vt 0.06738281 0.9369141
vt 0.1331457 0.9369141
vt 0.06738281 0.9990234
vt 0.1331457 0.9990234
vt 0.06738281 0.9369141
vt 0.1331457 0.9369141
vt 0.06738281 0.9990234
vt 0.1331457 0.9990234
vt 0.06738281 0.9369141
vt 0.1331457 0.9369141
vt 0.06738281 0.9990234
vt 0.1331457 0.9990234
vt 0.06738281 0.9369141
vt 0.1331457 0.9369141
vt 0.06738281 0.9990234
vt 0.1331457 0.9990234
vt 0.06738281 0.9369141
vt 0.1331457 0.9369141
vt 0.06738281 0.9990234
vt 0.1331457 0.9990234
vt 0.06738281 0.9369141
vt 0.1331457 0.9369141
vt 0.06738281 0.9990234
vt 0.1331457 0.9990234
vt 0.06738281 0.9369141
vt 0.1331457 0.9369141
vt 0.06738281 0.9990234
vt 0.1331457 0.9990234
vt 0.06738281 0.9369141
vt 0.1331457 0.9369141
vt 0.06738281 0.9990234
vt 0.1331457 0.9990234
vt 0.06738281 0.9369141
vt 0.1331457 0.9369141
vt 0.06738281 0.9990234
vt 0.1331457 0.9990234
vt 0.06738281 0.9369141
vt 0.1331457 0.9369141
vt 0.06738281 0.9990234
vt 0.1331457 0.9990234
vt 0.06738281 0.9369141
vt 0.1331457 0.9369141
vt 0.06738281 0.9990234
vt 0.1331457 0.9990234
vt 0.06738281 0.9369141
vt 0.1331457 0.9369141
vt 0.06738281 0.9990234
vt 0.1331457 0.9990234
vt 0.06738281 0.9369141
vt 0.1331457 0.9369141
vt 0.06738281 0.9990234
vt 0.1331457 0.9990234
vn 0 1 0
vn 0 1 0
vn 0 1 0
vn 0 1 0
vn 0 1 0
vn 0 1 0
vn 0 1 0
vn 0 1 0
vn 0 1 0
vn 0 1 0
vn 0 1 0
vn 0 1 0
vn 0 1 0
vn 0 1 0
vn 0 1 0
vn 0 1 0
vn 0 1 0
vn 0 1 0
vn 0 1 0
vn 0 1 0
vn 0 1 0
vn 0 1 0
vn 0 1 0
vn 0 1 0
vn 0 1 0
vn 0 1 0
vn 0 1 0
vn 0 1 0
vn 0 1 0
vn 0 1 0
vn 0 1 0
vn 0 1 0
vn 0 1 0
vn 0 1 0
vn 0 1 0
vn 0 1 0
vn 0 1 0
vn 0 1 0
vn 0 1 0
vn 0 1 0
vn 0 1 0
vn 0 1 0
vn 0 1 0
vn 0 1 0
vn 0 1 0
vn 0 1 0
vn 0 1 0
vn 0 1 0
vn 0 1 0
vn 0 1 0
vn 0 1 0
vn 0 1 0
vn 0 1 0
vn 0 1 0
vn 0 1 0
vn 0 1 0
vn 0 1 0
vn 0 1 0
vn 0 1 0
vn 0 1 0
vn 0 1 0
vn 0 1 0
vn 0 1 0
vn 0 1 0
vn 0 1 0
vn 0 1 0
vn 0 1 0
vn 0 1 0
vn 0 1 0
vn 0 1 0
vn 0 1 0
vn 0 1 0
vn 0 1 0
vn 0 1 0
vn 0 1 0
vn 0 1 0
vn 0 1 0
vn 0 1 0
vn 0 1 0
vn 0 1 0
vn 0 1 0
vn 0 1 0
vn 0 1 0
vn 0 1 0
g Grass_1_Cluster165_0
f 2/2/2 3/3/3 1/1/1
f 2/2/2 4/4/4 3/3/3
f 6/6/6 7/7/7 5/5/5
f 6/6/6 8/8/8 7/7/7
f 10/10/10 11/11/11 9/9/9
f 10/10/10 12/12/12 11/11/11
f 14/14/14 15/15/15 13/13/13
f 14/14/14 16/16/16 15/15/15
f 18/18/18 19/19/19 17/17/17
f 18/18/18 20/20/20 19/19/19
f 22/22/22 23/23/23 21/21/21
f 22/22/22 24/24/24 23/23/23
f 26/26/26 27/27/27 25/25/25
f 26/26/26 28/28/28 27/27/27
f 30/30/30 31/31/31 29/29/29
f 30/30/30 32/32/32 31/31/31
f 34/34/34 35/35/35 33/33/33
f 34/34/34 36/36/36 35/35/35
f 38/38/38 39/39/39 37/37/37
f 38/38/38 40/40/40 39/39/39
f 42/42/42 43/43/43 41/41/41
f 42/42/42 44/44/44 43/43/43
f 46/46/46 47/47/47 45/45/45
f 46/46/46 48/48/48 47/47/47
f 50/50/50 51/51/51 49/49/49
f 50/50/50 52/52/52 51/51/51
f 54/54/54 55/55/55 53/53/53
f 54/54/54 56/56/56 55/55/55
f 58/58/58 59/59/59 57/57/57
f 58/58/58 60/60/60 59/59/59
f 62/62/62 63/63/63 61/61/61
f 62/62/62 64/64/64 63/63/63
f 66/66/66 67/67/67 65/65/65
f 66/66/66 68/68/68 67/67/67
f 70/70/70 71/71/71 69/69/69
f 70/70/70 72/72/72 71/71/71
f 74/74/74 75/75/75 73/73/73
f 74/74/74 76/76/76 75/75/75
f 78/78/78 79/79/79 77/77/77
f 78/78/78 80/80/80 79/79/79
f 82/82/82 83/83/83 81/81/81
f 82/82/82 84/84/84 83/83/83
