g Grass_0_Cluster228
v 50.33563 -0.004318237 320.6248
v 49.58998 -0.004318237 320.6248
v 50.33563 -0.004318237 322.1161
v 49.58998 -0.004318237 322.1161
v 49.58998 -0.004318237 318.3878
v 48.47151 -0.004318237 318.3878
v 49.58998 -0.004318237 319.5063
v 48.47151 -0.004318237 319.5063
v 53.69105 -0.004318237 318.015
v 52.9454 -0.004318237 318.015
v 53.69105 -0.004318237 319.5063
v 52.9454 -0.004318237 319.5063
v 57.79212 -0.004318237 313.1683
v 56.67365 -0.004318237 313.1683
v 57.79212 -0.004318237 314.2868
v 56.67365 -0.004318237 314.2868
v 42.13349 -0.004318237 310.9313
v 41.38784 -0.004318237 310.9313
v 42.13349 -0.004318237 312.0498
v 41.38784 -0.004318237 312.0498
v 38.77807 -0.004318237 310.5585
v 37.6596 -0.004318237 310.5585
v 38.77807 -0.004318237 311.677
v 37.6596 -0.004318237 311.677
v 38.40525 -0.004318237 309.8129
v 37.28677 -0.004318237 309.8129
v 38.40525 -0.004318237 310.9313
v 37.28677 -0.004318237 310.9313
v 39.52372 -0.004318237 309.4401
v 38.77807 -0.004318237 309.4401
v 39.52372 -0.004318237 310.5585
v 38.77807 -0.004318237 310.5585
v 44.74326 -0.004318237 308.6944
v 43.99762 -0.004318237 308.6944
v 44.74326 -0.004318237 309.8129
v 43.99762 -0.004318237 309.8129
v 40.26937 -0.004318237 308.3216
v 39.52372 -0.004318237 308.3216
v 40.26937 -0.004318237 309.4401
v 39.52372 -0.004318237 309.4401
v 42.50632 -0.004318237 307.2031
v 41.76067 -0.004318237 307.2031
v 42.50632 -0.004318237 308.3216
v 41.76067 -0.004318237 308.3216
v 41.38784 -0.004318237 306.4575
v 40.26937 -0.004318237 306.4575
v 41.38784 -0.004318237 307.5759
v 40.26937 -0.004318237 307.5759
v 59.28342 -0.004318237 306.4575
v 58.16495 -0.004318237 306.4575
v 59.28342 -0.004318237 307.9488
v 58.16495 -0.004318237 307.9488
v 41.76067 -0.004318237 306.4575
v 40.64219 -0.004318237 306.4575
v 41.76067 -0.004318237 307.5759
v 40.64219 -0.004318237 307.5759
v 44.37044 -0.004318237 306.0846
v 43.62479 -0.004318237 306.0846
v 44.37044 -0.004318237 307.2031
v 43.62479 -0.004318237 307.2031
v 39.15089 -0.004318237 305.7118
v 38.03242 -0.004318237 305.7118
v 39.15089 -0.004318237 307.2031
v 38.03242 -0.004318237 307.2031
v 43.62479 -0.004318237 305.7118
v 42.50632 -0.004318237 305.7118
v 43.62479 -0.004318237 306.8303
v 42.50632 -0.004318237 306.8303
v 46.23456 -0.004318237 305.339
v 45.48891 -0.004318237 305.339
v 46.23456 -0.004318237 306.4575
v 45.48891 -0.004318237 306.4575
v 40.64219 -0.004318237 305.339
v 39.89655 -0.004318237 305.339
v 40.64219 -0.004318237 306.4575
v 39.89655 -0.004318237 306.4575
v 41.76067 -0.004318237 304.9662
v 41.01502 -0.004318237 304.9662
v 41.76067 -0.004318237 306.4575
v 41.01502 -0.004318237 306.4575
v 45.86174 -0.004318237 304.9662
v 45.11609 -0.004318237 304.9662
v 45.86174 -0.004318237 306.0846
v 45.11609 -0.004318237 306.0846
v 42.50632 -0.004318237 304.2205
v 41.76067 -0.004318237 304.2205
v 42.50632 -0.004318237 305.7118
v 41.76067 -0.004318237 305.7118
v 43.25196 -0.004318237 304.2205
v 42.50632 -0.004318237 304.2205
v 43.25196 -0.004318237 305.339
v 42.50632 -0.004318237 305.339
v 46.60739 -0.004318237 304.2205
v 45.48891 -0.004318237 304.2205
v 46.60739 -0.004318237 305.339
v 45.48891 -0.004318237 305.339
v 50.33563 -0.004318237 303.8477
v 49.21716 -0.004318237 303.8477
v 50.33563 -0.004318237 304.9662
v 49.21716 -0.004318237 304.9662
v 43.99762 -0.004318237 303.4749
v 42.87914 -0.004318237 303.4749
v 43.99762 -0.004318237 304.9662
v 42.87914 -0.004318237 304.9662
v 42.87914 -0.004318237 303.4749
v 42.13349 -0.004318237 303.4749
v 42.87914 -0.004318237 304.5933
v 42.13349 -0.004318237 304.5933
v 41.01502 -0.004318237 303.4749
v 40.26937 -0.004318237 303.4749
v 41.01502 -0.004318237 304.5933
v 40.26937 -0.004318237 304.5933
v 43.25196 -0.004318237 302.7292
v 42.50632 -0.004318237 302.7292
v 43.25196 -0.004318237 303.8477
v 42.50632 -0.004318237 303.8477
v 40.26937 -0.004318237 302.7292
v 39.52372 -0.004318237 302.7292
v 40.26937 -0.004318237 303.8477
v 39.52372 -0.004318237 303.8477
v 41.01502 -0.004318237 301.6107
v 40.26937 -0.004318237 301.6107
v 41.01502 -0.004318237 303.102
v 40.26937 -0.004318237 303.102
v 55.928 -0.004318237 301.2379
v 55.18235 -0.004318237 301.2379
v 55.928 -0.004318237 302.3564
v 55.18235 -0.004318237 302.3564
v 52.9454 -0.004318237 300.1194
v 52.19975 -0.004318237 300.1194
v 52.9454 -0.004318237 301.2379
v 52.19975 -0.004318237 301.2379
v 42.13349 -0.004318237 299.001
v 41.38784 -0.004318237 299.001
v 42.13349 -0.004318237 300.1194
v 41.38784 -0.004318237 300.1194
v 39.52372 -0.004318237 298.2553
v 38.77807 -0.004318237 298.2553
v 39.52372 -0.004318237 299.3738
v 38.77807 -0.004318237 299.3738
v 54.80952 -0.004318237 296.0184
v 54.06388 -0.004318237 296.0184
v 54.80952 -0.004318237 297.1368
v 54.06388 -0.004318237 297.1368
v 39.15089 -0.004318237 295.2727
v 38.40525 -0.004318237 295.2727
v 39.15089 -0.004318237 296.764
v 38.40525 -0.004318237 296.764
vt 0 0.9058824
vt 0.06666667 0.9058824
vt 0 1
vt 0.06666667 1
vt 0 0.9058824
vt 0.06666667 0.9058824
vt 0 1
vt 0.06666667 1
vt 0 0.9058824
vt 0.06666667 0.9058824
vt 0 1
vt 0.06666667 1
vt 0 0.9058824
vt 0.06666667 0.9058824
vt 0 1
vt 0.06666667 1
vt 0 0.9058824
vt 0.06666667 0.9058824
vt 0 1
vt 0.06666667 1
vt 0 0.9058824
vt 0.06666667 0.9058824
vt 0 1
vt 0.06666667 1
vt 0 0.9058824
vt 0.06666667 0.9058824
vt 0 1
vt 0.06666667 1
vt 0 0.9058824
vt 0.06666667 0.9058824
vt 0 1
vt 0.06666667 1
vt 0 0.9058824
vt 0.06666667 0.9058824
vt 0 1
vt 0.06666667 1
vt 0 0.9058824
vt 0.06666667 0.9058824
vt 0 1
vt 0.06666667 1
vt 0 0.9058824
vt 0.06666667 0.9058824
vt 0 1
vt 0.06666667 1
vt 0 0.9058824
vt 0.06666667 0.9058824
vt 0 1
vt 0.06666667 1
vt 0 0.9058824
vt 0.06666667 0.9058824
vt 0 1
vt 0.06666667 1
vt 0 0.9058824
vt 0.06666667 0.9058824
vt 0 1
vt 0.06666667 1
vt 0 0.9058824
vt 0.06666667 0.9058824
vt 0 1
vt 0.06666667 1
vt 0 0.9058824
vt 0.06666667 0.9058824
vt 0 1
vt 0.06666667 1
vt 0 0.9058824
vt 0.06666667 0.9058824
vt 0 1
vt 0.06666667 1
vt 0 0.9058824
vt 0.06666667 0.9058824
vt 0 1
vt 0.06666667 1
vt 0 0.9058824
vt 0.06666667 0.9058824
vt 0 1
vt 0.06666667 1
vt 0 0.9058824
vt 0.06666667 0.9058824
vt 0 1
vt 0.06666667 1
vt 0 0.9058824
vt 0.06666667 0.9058824
vt 0 1
vt 0.06666667 1
vt 0 0.9058824
vt 0.06666667 0.9058824
vt 0 1
vt 0.06666667 1
vt 0 0.9058824
vt 0.06666667 0.9058824
vt 0 1
vt 0.06666667 1
vt 0 0.9058824
vt 0.06666667 0.9058824
vt 0 1
vt 0.06666667 1
vt 0 0.9058824
vt 0.06666667 0.9058824
vt 0 1
vt 0.06666667 1
vt 0 0.9058824
vt 0.06666667 0.9058824
vt 0 1
vt 0.06666667 1
vt 0 0.9058824
vt 0.06666667 0.9058824
vt 0 1
vt 0.06666667 1
vt 0 0.9058824
vt 0.06666667 0.9058824
vt 0 1
vt 0.06666667 1
vt 0 0.9058824
vt 0.06666667 0.9058824
vt 0 1
vt 0.06666667 1
vt 0 0.9058824
vt 0.06666667 0.9058824
vt 0 1
vt 0.06666667 1
vt 0 0.9058824
vt 0.06666667 0.9058824
vt 0 1
vt 0.06666667 1
vt 0 0.9058824
vt 0.06666667 0.9058824
vt 0 1
vt 0.06666667 1
vt 0 0.9058824
vt 0.06666667 0.9058824
vt 0 1
vt 0.06666667 1
vt 0 0.9058824
vt 0.06666667 0.9058824
vt 0 1
vt 0.06666667 1
vt 0 0.9058824
vt 0.06666667 0.9058824
vt 0 1
vt 0.06666667 1
vt 0 0.9058824
vt 0.06666667 0.9058824
vt 0 1
vt 0.06666667 1
vt 0 0.9058824
vt 0.06666667 0.9058824
vt 0 1
vt 0.06666667 1
vn 0 1 0
vn 0 1 0
vn 0 1 0
vn 0 1 0
vn 0 1 0
vn 0 1 0
vn 0 1 0
vn 0 1 0
vn 0 1 0
vn 0 1 0
vn 0 1 0
vn 0 1 0
vn 0 1 0
vn 0 1 0
vn 0 1 0
vn 0 1 0
vn 0 1 0
vn 0 1 0
vn 0 1 0
vn 0 1 0
vn 0 1 0
vn 0 1 0
vn 0 1 0
vn 0 1 0
vn 0 1 0
vn 0 1 0
vn 0 1 0
vn 0 1 0
vn 0 1 0
vn 0 1 0
vn 0 1 0
vn 0 1 0
vn 0 1 0
vn 0 1 0
vn 0 1 0
vn 0 1 0
vn 0 1 0
vn 0 1 0
vn 0 1 0
vn 0 1 0
vn 0 1 0
vn 0 1 0
vn 0 1 0
vn 0 1 0
vn 0 1 0
vn 0 1 0
vn 0 1 0
vn 0 1 0
vn 0 1 0
vn 0 1 0
vn 0 1 0
vn 0 1 0
vn 0 1 0
vn 0 1 0
vn 0 1 0
vn 0 1 0
vn 0 1 0
vn 0 1 0
vn 0 1 0
vn 0 1 0
vn 0 1 0
vn 0 1 0
vn 0 1 0
vn 0 1 0
vn 0 1 0
vn 0 1 0
vn 0 1 0
vn 0 1 0
vn 0 1 0
vn 0 1 0
vn 0 1 0
vn 0 1 0
vn 0 1 0
vn 0 1 0
vn 0 1 0
vn 0 1 0
vn 0 1 0
vn 0 1 0
vn 0 1 0
vn 0 1 0
vn 0 1 0
vn 0 1 0
vn 0 1 0
vn 0 1 0
vn 0 1 0
vn 0 1 0
vn 0 1 0
vn 0 1 0
vn 0 1 0
vn 0 1 0
vn 0 1 0
vn 0 1 0
vn 0 1 0
vn 0 1 0
vn 0 1 0
vn 0 1 0
vn 0 1 0
vn 0 1 0
vn 0 1 0
vn 0 1 0
vn 0 1 0
vn 0 1 0
vn 0 1 0
vn 0 1 0
vn 0 1 0
vn 0 1 0
vn 0 1 0
vn 0 1 0
vn 0 1 0
vn 0 1 0
vn 0 1 0
vn 0 1 0
vn 0 1 0
vn 0 1 0
vn 0 1 0
vn 0 1 0
vn 0 1 0
vn 0 1 0
vn 0 1 0
vn 0 1 0
vn 0 1 0
vn 0 1 0
vn 0 1 0
vn 0 1 0
vn 0 1 0
vn 0 1 0
vn 0 1 0
vn 0 1 0
vn 0 1 0
vn 0 1 0
vn 0 1 0
vn 0 1 0
vn 0 1 0
vn 0 1 0
vn 0 1 0
vn 0 1 0
vn 0 1 0
vn 0 1 0
vn 0 1 0
vn 0 1 0
vn 0 1 0
vn 0 1 0
vn 0 1 0
vn 0 1 0
vn 0 1 0
vn 0 1 0
vn 0 1 0
vn 0 1 0
g Grass_0_Cluster228_0
f 2/2/2 3/3/3 1/1/1
f 2/2/2 4/4/4 3/3/3
f 6/6/6 7/7/7 5/5/5
f 6/6/6 8/8/8 7/7/7
f 10/10/10 11/11/11 9/9/9
f 10/10/10 12/12/12 11/11/11
f 14/14/14 15/15/15 13/13/13
f 14/14/14 16/16/16 15/15/15
f 18/18/18 19/19/19 17/17/17
f 18/18/18 20/20/20 19/19/19
f 22/22/22 23/23/23 21/21/21
f 22/22/22 24/24/24 23/23/23
f 26/26/26 27/27/27 25/25/25
f 26/26/26 28/28/28 27/27/27
f 30/30/30 31/31/31 29/29/29
f 30/30/30 32/32/32 31/31/31
f 34/34/34 35/35/35 33/33/33
f 34/34/34 36/36/36 35/35/35
f 38/38/38 39/39/39 37/37/37
f 38/38/38 40/40/40 39/39/39
f 42/42/42 43/43/43 41/41/41
f 42/42/42 44/44/44 43/43/43
f 46/46/46 47/47/47 45/45/45
f 46/46/46 48/48/48 47/47/47
f 50/50/50 51/51/51 49/49/49
f 50/50/50 52/52/52 51/51/51
f 54/54/54 55/55/55 53/53/53
f 54/54/54 56/56/56 55/55/55
f 58/58/58 59/59/59 57/57/57
f 58/58/58 60/60/60 59/59/59
f 62/62/62 63/63/63 61/61/61
f 62/62/62 64/64/64 63/63/63
f 66/66/66 67/67/67 65/65/65
f 66/66/66 68/68/68 67/67/67
f 70/70/70 71/71/71 69/69/69
f 70/70/70 72/72/72 71/71/71
f 74/74/74 75/75/75 73/73/73
f 74/74/74 76/76/76 75/75/75
f 78/78/78 79/79/79 77/77/77
f 78/78/78 80/80/80 79/79/79
f 82/82/82 83/83/83 81/81/81
f 82/82/82 84/84/84 83/83/83
f 86/86/86 87/87/87 85/85/85
f 86/86/86 88/88/88 87/87/87
f 90/90/90 91/91/91 89/89/89
f 90/90/90 92/92/92 91/91/91
f 94/94/94 95/95/95 93/93/93
f 94/94/94 96/96/96 95/95/95
f 98/98/98 99/99/99 97/97/97
f 98/98/98 100/100/100 99/99/99
f 102/102/102 103/103/103 101/101/101
f 102/102/102 104/104/104 103/103/103
f 106/106/106 107/107/107 105/105/105
f 106/106/106 108/108/108 107/107/107
f 110/110/110 111/111/111 109/109/109
f 110/110/110 112/112/112 111/111/111
f 114/114/114 115/115/115 113/113/113
f 114/114/114 116/116/116 115/115/115
f 118/118/118 119/119/119 117/117/117
f 118/118/118 120/120/120 119/119/119
f 122/122/122 123/123/123 121/121/121
f 122/122/122 124/124/124 123/123/123
f 126/126/126 127/127/127 125/125/125
f 126/126/126 128/128/128 127/127/127
f 130/130/130 131/131/131 129/129/129
f 130/130/130 132/132/132 131/131/131
f 134/134/134 135/135/135 133/133/133
f 134/134/134 136/136/136 135/135/135
f 138/138/138 139/139/139 137/137/137
f 138/138/138 140/140/140 139/139/139
f 142/142/142 143/143/143 141/141/141
f 142/142/142 144/144/144 143/143/143
f 146/146/146 147/147/147 145/145/145
f 146/146/146 148/148/148 147/147/147
