g Grass_0_Cluster292
v -80.06265 0 412.444
v -80.87137 0 412.444
v -80.06265 0 413.657
v -80.87137 0 413.657
v -80.46701 0 412.0396
v -81.68008 0 412.0396
v -80.46701 0 413.2527
v -81.68008 0 413.2527
v -82.89315 0 411.6353
v -83.70187 0 411.6353
v -82.89315 0 412.8483
v -83.70187 0 412.8483
v -60.24917 0 409.2091
v -61.05788 0 409.2091
v -60.24917 0 410.4222
v -61.05788 0 410.4222
v -76.42344 0 409.2091
v -77.63651 0 409.2091
v -76.42344 0 410.4222
v -77.63651 0 410.4222
v -78.84958 0 407.5917
v -79.65829 0 407.5917
v -78.84958 0 409.2091
v -79.65829 0 409.2091
v -74.40166 0 407.1873
v -75.61472 0 407.1873
v -74.40166 0 408.8047
v -75.61472 0 408.8047
v -77.63651 0 405.9742
v -78.84958 0 405.9742
v -77.63651 0 407.1873
v -78.84958 0 407.1873
v -69.95373 0 403.5481
v -70.76244 0 403.5481
v -69.95373 0 404.7612
v -70.76244 0 404.7612
v -70.76244 0 402.7394
v -71.57116 0 402.7394
v -70.76244 0 403.9525
v -71.57116 0 403.9525
v -71.57116 0 402.3351
v -72.37988 0 402.3351
v -71.57116 0 403.9525
v -72.37988 0 403.9525
v -88.9585 0 400.3133
v -89.76721 0 400.3133
v -88.9585 0 401.5263
v -89.76721 0 401.5263
v -67.12323 0 400.3133
v -68.3363 0 400.3133
v -67.12323 0 401.5263
v -68.3363 0 401.5263
v -61.8666 0 399.5045
v -62.67531 0 399.5045
v -61.8666 0 400.7176
v -62.67531 0 400.7176
v -68.3363 0 399.5045
v -69.14502 0 399.5045
v -68.3363 0 400.7176
v -69.14502 0 400.7176
v -61.05788 0 397.8871
v -61.8666 0 397.8871
v -61.05788 0 399.1002
v -61.8666 0 399.1002
v -70.35809 0 397.0784
v -71.1668 0 397.0784
v -70.35809 0 398.6958
v -71.1668 0 398.6958
v -88.9585 0 397.0784
v -89.76721 0 397.0784
v -88.9585 0 398.2915
v -89.76721 0 398.2915
v -62.67531 0 395.8653
v -63.48402 0 395.8653
v -62.67531 0 397.0784
v -63.48402 0 397.0784
v -67.93195 0 395.8653
v -68.74066 0 395.8653
v -67.93195 0 397.0784
v -68.74066 0 397.0784
v -66.71888 0 394.2479
v -67.93195 0 394.2479
v -66.71888 0 395.461
v -67.93195 0 395.461
v -59.84481 0 393.8435
v -60.65352 0 393.8435
v -59.84481 0 395.0566
v -60.65352 0 395.0566
v -61.05788 0 393.0348
v -61.8666 0 393.0348
v -61.05788 0 394.2479
v -61.8666 0 394.2479
v -63.07967 0 393.0348
v -63.88838 0 393.0348
v -63.07967 0 394.2479
v -63.88838 0 394.2479
v -66.71888 0 392.6305
v -67.52759 0 392.6305
v -66.71888 0 393.8435
v -67.52759 0 393.8435
v -63.48402 0 391.8218
v -64.29273 0 391.8218
v -63.48402 0 393.0348
v -64.29273 0 393.0348
v -67.52759 0 391.4174
v -68.3363 0 391.4174
v -67.52759 0 392.6305
v -68.3363 0 392.6305
v -63.48402 0 391.0131
v -64.69709 0 391.0131
v -63.48402 0 392.6305
v -64.69709 0 392.6305
v -82.48879 0 391.0131
v -83.70187 0 391.0131
v -82.48879 0 392.2261
v -83.70187 0 392.2261
v -80.06265 0 388.1826
v -80.87137 0 388.1826
v -80.06265 0 389.3956
v -80.87137 0 389.3956
v -72.37988 0 387.7782
v -73.59294 0 387.7782
v -72.37988 0 388.9913
v -73.59294 0 388.9913
v -80.46701 0 386.5651
v -81.27572 0 386.5651
v -80.46701 0 388.1826
v -81.27572 0 388.1826
v -75.61472 0 385.7564
v -76.42344 0 385.7564
v -75.61472 0 387.3738
v -76.42344 0 387.3738
v -65.91016 0 384.9477
v -66.71888 0 384.9477
v -65.91016 0 386.1608
v -66.71888 0 386.1608
vt 0 0.9058824
vt 0.06666667 0.9058824
vt 0 1
vt 0.06666667 1
vt 0 0.9058824
vt 0.06666667 0.9058824
vt 0 1
vt 0.06666667 1
vt 0 0.9058824
vt 0.06666667 0.9058824
vt 0 1
vt 0.06666667 1
vt 0 0.9058824
vt 0.06666667 0.9058824
vt 0 1
vt 0.06666667 1
vt 0 0.9058824
vt 0.06666667 0.9058824
vt 0 1
vt 0.06666667 1
vt 0 0.9058824
vt 0.06666667 0.9058824
vt 0 1
vt 0.06666667 1
vt 0 0.9058824
vt 0.06666667 0.9058824
vt 0 1
vt 0.06666667 1
vt 0 0.9058824
vt 0.06666667 0.9058824
vt 0 1
vt 0.06666667 1
vt 0 0.9058824
vt 0.06666667 0.9058824
vt 0 1
vt 0.06666667 1
vt 0 0.9058824
vt 0.06666667 0.9058824
vt 0 1
vt 0.06666667 1
vt 0 0.9058824
vt 0.06666667 0.9058824
vt 0 1
vt 0.06666667 1
vt 0 0.9058824
vt 0.06666667 0.9058824
vt 0 1
vt 0.06666667 1
vt 0 0.9058824
vt 0.06666667 0.9058824
vt 0 1
vt 0.06666667 1
vt 0 0.9058824
vt 0.06666667 0.9058824
vt 0 1
vt 0.06666667 1
vt 0 0.9058824
vt 0.06666667 0.9058824
vt 0 1
vt 0.06666667 1
vt 0 0.9058824
vt 0.06666667 0.9058824
vt 0 1
vt 0.06666667 1
vt 0 0.9058824
vt 0.06666667 0.9058824
vt 0 1
vt 0.06666667 1
vt 0 0.9058824
vt 0.06666667 0.9058824
vt 0 1
vt 0.06666667 1
vt 0 0.9058824
vt 0.06666667 0.9058824
vt 0 1
vt 0.06666667 1
vt 0 0.9058824
vt 0.06666667 0.9058824
vt 0 1
vt 0.06666667 1
vt 0 0.9058824
vt 0.06666667 0.9058824
vt 0 1
vt 0.06666667 1
vt 0 0.9058824
vt 0.06666667 0.9058824
vt 0 1
vt 0.06666667 1
vt 0 0.9058824
vt 0.06666667 0.9058824
vt 0 1
vt 0.06666667 1
vt 0 0.9058824
vt 0.06666667 0.9058824
vt 0 1
vt 0.06666667 1
vt 0 0.9058824
vt 0.06666667 0.9058824
vt 0 1
vt 0.06666667 1
vt 0 0.9058824
vt 0.06666667 0.9058824
vt 0 1
vt 0.06666667 1
vt 0 0.9058824
vt 0.06666667 0.9058824
vt 0 1
vt 0.06666667 1
vt 0 0.9058824
vt 0.06666667 0.9058824
vt 0 1
vt 0.06666667 1
vt 0 0.9058824
vt 0.06666667 0.9058824
vt 0 1
vt 0.06666667 1
vt 0 0.9058824
vt 0.06666667 0.9058824
vt 0 1
vt 0.06666667 1
vt 0 0.9058824
vt 0.06666667 0.9058824
vt 0 1
vt 0.06666667 1
vt 0 0.9058824
vt 0.06666667 0.9058824
vt 0 1
vt 0.06666667 1
vt 0 0.9058824
vt 0.06666667 0.9058824
vt 0 1
vt 0.06666667 1
vt 0 0.9058824
vt 0.06666667 0.9058824
vt 0 1
vt 0.06666667 1
vn 0 1 0
vn 0 1 0
vn 0 1 0
vn 0 1 0
vn 0 1 0
vn 0 1 0
vn 0 1 0
vn 0 1 0
vn 0 1 0
vn 0 1 0
vn 0 1 0
vn 0 1 0
vn 0 1 0
vn 0 1 0
vn 0 1 0
vn 0 1 0
vn 0 1 0
vn 0 1 0
vn 0 1 0
vn 0 1 0
vn 0 1 0
vn 0 1 0
vn 0 1 0
vn 0 1 0
vn 0 1 0
vn 0 1 0
vn 0 1 0
vn 0 1 0
vn 0 1 0
vn 0 1 0
vn 0 1 0
vn 0 1 0
vn 0 1 0
vn 0 1 0
vn 0 1 0
vn 0 1 0
vn 0 1 0
vn 0 1 0
vn 0 1 0
vn 0 1 0
vn 0 1 0
vn 0 1 0
vn 0 1 0
vn 0 1 0
vn 0 1 0
vn 0 1 0
vn 0 1 0
vn 0 1 0
vn 0 1 0
vn 0 1 0
vn 0 1 0
vn 0 1 0
vn 0 1 0
vn 0 1 0
vn 0 1 0
vn 0 1 0
vn 0 1 0
vn 0 1 0
vn 0 1 0
vn 0 1 0
vn 0 1 0
vn 0 1 0
vn 0 1 0
vn 0 1 0
vn 0 1 0
vn 0 1 0
vn 0 1 0
vn 0 1 0
vn 0 1 0
vn 0 1 0
vn 0 1 0
vn 0 1 0
vn 0 1 0
vn 0 1 0
vn 0 1 0
vn 0 1 0
vn 0 1 0
vn 0 1 0
vn 0 1 0
vn 0 1 0
vn 0 1 0
vn 0 1 0
vn 0 1 0
vn 0 1 0
vn 0 1 0
vn 0 1 0
vn 0 1 0
vn 0 1 0
vn 0 1 0
vn 0 1 0
vn 0 1 0
vn 0 1 0
vn 0 1 0
vn 0 1 0
vn 0 1 0
vn 0 1 0
vn 0 1 0
vn 0 1 0
vn 0 1 0
vn 0 1 0
vn 0 1 0
vn 0 1 0
vn 0 1 0
vn 0 1 0
vn 0 1 0
vn 0 1 0
vn 0 1 0
vn 0 1 0
vn 0 1 0
vn 0 1 0
vn 0 1 0
vn 0 1 0
vn 0 1 0
vn 0 1 0
vn 0 1 0
vn 0 1 0
vn 0 1 0
vn 0 1 0
vn 0 1 0
vn 0 1 0
vn 0 1 0
vn 0 1 0
vn 0 1 0
vn 0 1 0
vn 0 1 0
vn 0 1 0
vn 0 1 0
vn 0 1 0
vn 0 1 0
vn 0 1 0
vn 0 1 0
vn 0 1 0
vn 0 1 0
vn 0 1 0
vn 0 1 0
vn 0 1 0
g Grass_0_Cluster292_0
f 2/2/2 3/3/3 1/1/1
f 2/2/2 4/4/4 3/3/3
f 6/6/6 7/7/7 5/5/5
f 6/6/6 8/8/8 7/7/7
f 10/10/10 11/11/11 9/9/9
f 10/10/10 12/12/12 11/11/11
f 14/14/14 15/15/15 13/13/13
f 14/14/14 16/16/16 15/15/15
f 18/18/18 19/19/19 17/17/17
f 18/18/18 20/20/20 19/19/19
f 22/22/22 23/23/23 21/21/21
f 22/22/22 24/24/24 23/23/23
f 26/26/26 27/27/27 25/25/25
f 26/26/26 28/28/28 27/27/27
f 30/30/30 31/31/31 29/29/29
f 30/30/30 32/32/32 31/31/31
f 34/34/34 35/35/35 33/33/33
f 34/34/34 36/36/36 35/35/35
f 38/38/38 39/39/39 37/37/37
f 38/38/38 40/40/40 39/39/39
f 42/42/42 43/43/43 41/41/41
f 42/42/42 44/44/44 43/43/43
f 46/46/46 47/47/47 45/45/45
f 46/46/46 48/48/48 47/47/47
f 50/50/50 51/51/51 49/49/49
f 50/50/50 52/52/52 51/51/51
f 54/54/54 55/55/55 53/53/53
f 54/54/54 56/56/56 55/55/55
f 58/58/58 59/59/59 57/57/57
f 58/58/58 60/60/60 59/59/59
f 62/62/62 63/63/63 61/61/61
f 62/62/62 64/64/64 63/63/63
f 66/66/66 67/67/67 65/65/65
f 66/66/66 68/68/68 67/67/67
f 70/70/70 71/71/71 69/69/69
f 70/70/70 72/72/72 71/71/71
f 74/74/74 75/75/75 73/73/73
f 74/74/74 76/76/76 75/75/75
f 78/78/78 79/79/79 77/77/77
f 78/78/78 80/80/80 79/79/79
f 82/82/82 83/83/83 81/81/81
f 82/82/82 84/84/84 83/83/83
f 86/86/86 87/87/87 85/85/85
f 86/86/86 88/88/88 87/87/87
f 90/90/90 91/91/91 89/89/89
f 90/90/90 92/92/92 91/91/91
f 94/94/94 95/95/95 93/93/93
f 94/94/94 96/96/96 95/95/95
f 98/98/98 99/99/99 97/97/97
f 98/98/98 100/100/100 99/99/99
f 102/102/102 103/103/103 101/101/101
f 102/102/102 104/104/104 103/103/103
f 106/106/106 107/107/107 105/105/105
f 106/106/106 108/108/108 107/107/107
f 110/110/110 111/111/111 109/109/109
f 110/110/110 112/112/112 111/111/111
f 114/114/114 115/115/115 113/113/113
f 114/114/114 116/116/116 115/115/115
f 118/118/118 119/119/119 117/117/117
f 118/118/118 120/120/120 119/119/119
f 122/122/122 123/123/123 121/121/121
f 122/122/122 124/124/124 123/123/123
f 126/126/126 127/127/127 125/125/125
f 126/126/126 128/128/128 127/127/127
f 130/130/130 131/131/131 129/129/129
f 130/130/130 132/132/132 131/131/131
f 134/134/134 135/135/135 133/133/133
f 134/134/134 136/136/136 135/135/135
