g Grass_2_Cluster191
v -31.43349 0 262.5469
v -32.20644 0 262.5469
v -31.43349 0 263.5775
v -32.20644 0 263.5775
v -36.07121 0 261.5163
v -37.10182 0 261.5163
v -36.07121 0 262.5469
v -37.10182 0 262.5469
v -51.015 0 255.5903
v -52.04561 0 255.5903
v -51.015 0 256.6209
v -52.04561 0 256.6209
v -36.07121 0 252.7561
v -37.10182 0 252.7561
v -36.07121 0 253.7867
v -37.10182 0 253.7867
v -31.69114 0 252.4985
v -32.72174 0 252.4985
v -31.69114 0 253.7867
v -32.72174 0 253.7867
v -34.78296 0 252.4985
v -35.81356 0 252.4985
v -34.78296 0 253.7867
v -35.81356 0 253.7867
v -34.5253 0 251.2102
v -35.29826 0 251.2102
v -34.5253 0 252.2408
v -35.29826 0 252.2408
v -35.29826 0 250.4373
v -36.32887 0 250.4373
v -35.29826 0 251.7255
v -36.32887 0 251.7255
v -55.39508 0 249.6643
v -56.42568 0 249.6643
v -55.39508 0 250.9526
v -56.42568 0 250.9526
v -52.56091 0 248.6337
v -53.59152 0 248.6337
v -52.56091 0 249.6643
v -53.59152 0 249.6643
v -49.46909 0 248.3761
v -50.4997 0 248.3761
v -49.46909 0 249.4067
v -50.4997 0 249.4067
v -53.84917 0 247.3455
v -54.87978 0 247.3455
v -53.84917 0 248.3761
v -54.87978 0 248.3761
v -52.30326 0 247.0878
v -53.07621 0 247.0878
v -52.30326 0 248.1184
v -53.07621 0 248.1184
v -52.81856 0 246.0572
v -53.59152 0 246.0572
v -52.81856 0 247.0878
v -53.59152 0 247.0878
vt 0.1347656 0.9185662
vt 0.2060202 0.9185662
vt 0.1347656 1
vt 0.2060202 1
vt 0.1347656 0.9185662
vt 0.2060202 0.9185662
vt 0.1347656 1
vt 0.2060202 1
vt 0.1347656 0.9185662
vt 0.2060202 0.9185662
vt 0.1347656 1
vt 0.2060202 1
vt 0.1347656 0.9185662
vt 0.2060202 0.9185662
vt 0.1347656 1
vt 0.2060202 1
vt 0.1347656 0.9185662
vt 0.2060202 0.9185662
vt 0.1347656 1
vt 0.2060202 1
vt 0.1347656 0.9185662
vt 0.2060202 0.9185662
vt 0.1347656 1
vt 0.2060202 1
vt 0.1347656 0.9185662
vt 0.2060202 0.9185662
vt 0.1347656 1
vt 0.2060202 1
vt 0.1347656 0.9185662
vt 0.2060202 0.9185662
vt 0.1347656 1
vt 0.2060202 1
vt 0.1347656 0.9185662
vt 0.2060202 0.9185662
vt 0.1347656 1
vt 0.2060202 1
vt 0.1347656 0.9185662
vt 0.2060202 0.9185662
vt 0.1347656 1
vt 0.2060202 1
vt 0.1347656 0.9185662
vt 0.2060202 0.9185662
vt 0.1347656 1
vt 0.2060202 1
vt 0.1347656 0.9185662
vt 0.2060202 0.9185662
vt 0.1347656 1
vt 0.2060202 1
vt 0.1347656 0.9185662
vt 0.2060202 0.9185662
vt 0.1347656 1
vt 0.2060202 1
vt 0.1347656 0.9185662
vt 0.2060202 0.9185662
vt 0.1347656 1
vt 0.2060202 1
vn 0 1 0
vn 0 1 0
vn 0 1 0
vn 0 1 0
vn 0 1 0
vn 0 1 0
vn 0 1 0
vn 0 1 0
vn 0 1 0
vn 0 1 0
vn 0 1 0
vn 0 1 0
vn 0 1 0
vn 0 1 0
vn 0 1 0
vn 0 1 0
vn 0 1 0
vn 0 1 0
vn 0 1 0
vn 0 1 0
vn 0 1 0
vn 0 1 0
vn 0 1 0
vn 0 1 0
vn 0 1 0
vn 0 1 0
vn 0 1 0
vn 0 1 0
vn 0 1 0
vn 0 1 0
vn 0 1 0
vn 0 1 0
vn 0 1 0
vn 0 1 0
vn 0 1 0
vn 0 1 0
vn 0 1 0
vn 0 1 0
vn 0 1 0
vn 0 1 0
vn 0 1 0
vn 0 1 0
vn 0 1 0
vn 0 1 0
vn 0 1 0
vn 0 1 0
vn 0 1 0
vn 0 1 0
vn 0 1 0
vn 0 1 0
vn 0 1 0
vn 0 1 0
vn 0 1 0
vn 0 1 0
vn 0 1 0
vn 0 1 0
g Grass_2_Cluster191_0
f 2/2/2 3/3/3 1/1/1
f 2/2/2 4/4/4 3/3/3
f 6/6/6 7/7/7 5/5/5
f 6/6/6 8/8/8 7/7/7
f 10/10/10 11/11/11 9/9/9
f 10/10/10 12/12/12 11/11/11
f 14/14/14 15/15/15 13/13/13
f 14/14/14 16/16/16 15/15/15
f 18/18/18 19/19/19 17/17/17
f 18/18/18 20/20/20 19/19/19
f 22/22/22 23/23/23 21/21/21
f 22/22/22 24/24/24 23/23/23
f 26/26/26 27/27/27 25/25/25
f 26/26/26 28/28/28 27/27/27
f 30/30/30 31/31/31 29/29/29
f 30/30/30 32/32/32 31/31/31
f 34/34/34 35/35/35 33/33/33
f 34/34/34 36/36/36 35/35/35
f 38/38/38 39/39/39 37/37/37
f 38/38/38 40/40/40 39/39/39
f 42/42/42 43/43/43 41/41/41
f 42/42/42 44/44/44 43/43/43
f 46/46/46 47/47/47 45/45/45
f 46/46/46 48/48/48 47/47/47
f 50/50/50 51/51/51 49/49/49
f 50/50/50 52/52/52 51/51/51
f 54/54/54 55/55/55 53/53/53
f 54/54/54 56/56/56 55/55/55
