g Grass_0_Cluster40
v 299.0695 0.1513062 50.76749
v 298.0365 0.1513062 50.76749
v 299.0695 0.1513062 51.80048
v 298.0365 0.1513062 51.80048
v 280.4758 0.1513062 49.39017
v 279.4428 0.1513062 49.39017
v 280.4758 0.1513062 50.76749
v 279.4428 0.1513062 50.76749
v 278.4098 0.1513062 46.63556
v 277.3768 0.1513062 46.63556
v 278.4098 0.1513062 48.01285
v 277.3768 0.1513062 48.01285
v 277.0325 0.1513062 46.63556
v 275.9995 0.1513062 46.63556
v 277.0325 0.1513062 47.66855
v 275.9995 0.1513062 47.66855
v 277.3768 0.1513062 45.60257
v 276.6882 0.1513062 45.60257
v 277.3768 0.1513062 46.97989
v 276.6882 0.1513062 46.97989
v 283.2304 0.1513062 45.60257
v 282.1974 0.1513062 45.60257
v 283.2304 0.1513062 46.97989
v 282.1974 0.1513062 46.97989
v 279.0984 0.1513062 45.60257
v 278.0655 0.1513062 45.60257
v 279.0984 0.1513062 46.97989
v 278.0655 0.1513062 46.97989
v 275.3109 0.1513062 45.25824
v 274.2779 0.1513062 45.25824
v 275.3109 0.1513062 46.63556
v 274.2779 0.1513062 46.63556
v 280.1314 0.1513062 44.91391
v 279.0984 0.1513062 44.91391
v 280.1314 0.1513062 46.29123
v 279.0984 0.1513062 46.29123
v 278.0655 0.1513062 44.91391
v 277.0325 0.1513062 44.91391
v 278.0655 0.1513062 46.29123
v 277.0325 0.1513062 46.29123
v 279.0984 0.1513062 44.56958
v 278.4098 0.1513062 44.56958
v 279.0984 0.1513062 45.9469
v 278.4098 0.1513062 45.9469
v 276.3438 0.1513062 44.22525
v 275.6552 0.1513062 44.22525
v 276.3438 0.1513062 45.60257
v 275.6552 0.1513062 45.60257
v 273.2449 0.1513062 44.22525
v 272.5562 0.1513062 44.22525
v 273.2449 0.1513062 45.60257
v 272.5562 0.1513062 45.60257
v 278.0655 0.1513062 43.88092
v 277.3768 0.1513062 43.88092
v 278.0655 0.1513062 45.25824
v 277.3768 0.1513062 45.25824
v 278.0655 0.1513062 43.88092
v 277.0325 0.1513062 43.88092
v 278.0655 0.1513062 44.91391
v 277.0325 0.1513062 44.91391
v 276.6882 0.1513062 43.88092
v 275.9995 0.1513062 43.88092
v 276.6882 0.1513062 44.91391
v 275.9995 0.1513062 44.91391
v 279.4428 0.1513062 43.19226
v 278.4098 0.1513062 43.19226
v 279.4428 0.1513062 44.56958
v 278.4098 0.1513062 44.56958
v 277.3768 0.1513062 43.19226
v 276.3438 0.1513062 43.19226
v 277.3768 0.1513062 44.22525
v 276.3438 0.1513062 44.22525
v 278.7541 0.1513062 42.50363
v 277.7212 0.1513062 42.50363
v 278.7541 0.1513062 43.88092
v 277.7212 0.1513062 43.88092
v 276.6882 0.1513062 42.50363
v 275.6552 0.1513062 42.50363
v 276.6882 0.1513062 43.88092
v 275.6552 0.1513062 43.88092
v 276.3438 0.1513062 41.81497
v 275.3109 0.1513062 41.81497
v 276.3438 0.1513062 42.84793
v 275.3109 0.1513062 42.84793
v 277.0325 0.1513062 41.47064
v 276.3438 0.1513062 41.47064
v 277.0325 0.1513062 42.84793
v 276.3438 0.1513062 42.84793
v 274.9665 0.1513062 40.78198
v 273.9335 0.1513062 40.78198
v 274.9665 0.1513062 42.1593
v 273.9335 0.1513062 42.1593
v 275.9995 0.1513062 40.43765
v 274.9665 0.1513062 40.43765
v 275.9995 0.1513062 41.47064
v 274.9665 0.1513062 41.47064
v 299.7581 0.1513062 38.716
v 299.0695 0.1513062 38.716
v 299.7581 0.1513062 40.09332
v 299.0695 0.1513062 40.09332
v 300.1024 0.1513062 37.68304
v 299.0695 0.1513062 37.68304
v 300.1024 0.1513062 38.716
v 299.0695 0.1513062 38.716
v 298.0365 0.1513062 37.33871
v 297.0035 0.1513062 37.33871
v 298.0365 0.1513062 38.37167
v 297.0035 0.1513062 38.37167
v 299.4138 0.1513062 36.65005
v 298.7251 0.1513062 36.65005
v 299.4138 0.1513062 38.02734
v 298.7251 0.1513062 38.02734
v 299.4138 0.1513062 36.65005
v 298.3808 0.1513062 36.65005
v 299.4138 0.1513062 37.68304
v 298.3808 0.1513062 37.68304
v 299.0695 0.1513062 36.30573
v 298.3808 0.1513062 36.30573
v 299.0695 0.1513062 37.68304
v 298.3808 0.1513062 37.68304
v 300.4468 0.1513062 36.30573
v 299.4138 0.1513062 36.30573
v 300.4468 0.1513062 37.33871
v 299.4138 0.1513062 37.33871
v 299.4138 0.1513062 35.61707
v 298.7251 0.1513062 35.61707
v 299.4138 0.1513062 36.99438
v 298.7251 0.1513062 36.99438
v 298.7251 0.1513062 34.23975
v 297.6922 0.1513062 34.23975
v 298.7251 0.1513062 35.61707
v 297.6922 0.1513062 35.61707
v 294.2489 0.1513062 33.20676
v 293.2159 0.1513062 33.20676
v 294.2489 0.1513062 34.58408
v 293.2159 0.1513062 34.58408
v 292.1829 0.1513062 33.20676
v 291.1499 0.1513062 33.20676
v 292.1829 0.1513062 34.23975
v 291.1499 0.1513062 34.23975
v 291.8386 0.1513062 30.45215
v 291.1499 0.1513062 30.45215
v 291.8386 0.1513062 31.48514
v 291.1499 0.1513062 31.48514
v 272.2119 0.1513062 29.07483
v 271.5233 0.1513062 29.07483
v 272.2119 0.1513062 30.45215
v 271.5233 0.1513062 30.45215
v 274.2779 0.1513062 28.38617
v 273.2449 0.1513062 28.38617
v 274.2779 0.1513062 29.41916
v 273.2449 0.1513062 29.41916
v 290.8056 0.1513062 28.04184
v 289.7726 0.1513062 28.04184
v 290.8056 0.1513062 29.41916
v 289.7726 0.1513062 29.41916
v 275.3109 0.1513062 27.35321
v 274.6222 0.1513062 27.35321
v 275.3109 0.1513062 28.38617
v 274.6222 0.1513062 28.38617
v 294.5932 0.1513062 26.66455
v 293.5602 0.1513062 26.66455
v 294.5932 0.1513062 27.69754
v 293.5602 0.1513062 27.69754
v 273.2449 0.1513062 26.32022
v 272.5562 0.1513062 26.32022
v 273.2449 0.1513062 27.69754
v 272.5562 0.1513062 27.69754
v 273.5892 0.1513062 25.97589
v 272.5562 0.1513062 25.97589
v 273.5892 0.1513062 27.35321
v 272.5562 0.1513062 27.35321
v 289.4283 0.1513062 25.63156
v 288.7396 0.1513062 25.63156
v 289.4283 0.1513062 27.00888
v 288.7396 0.1513062 27.00888
v 285.985 0.1513062 25.28723
v 285.2964 0.1513062 25.28723
v 285.985 0.1513062 26.32022
v 285.2964 0.1513062 26.32022
v 271.8676 0.1513062 24.9429
v 270.8346 0.1513062 24.9429
v 271.8676 0.1513062 26.32022
v 270.8346 0.1513062 26.32022
v 291.1499 0.1513062 24.25424
v 290.1169 0.1513062 24.25424
v 291.1499 0.1513062 25.63156
v 290.1169 0.1513062 25.63156
v 271.8676 0.1513062 24.25424
v 270.8346 0.1513062 24.25424
v 271.8676 0.1513062 25.63156
v 270.8346 0.1513062 25.63156
v 290.8056 0.1513062 24.25424
v 290.1169 0.1513062 24.25424
v 290.8056 0.1513062 25.28723
v 290.1169 0.1513062 25.28723
v 292.1829 0.1513062 24.25424
v 291.4943 0.1513062 24.25424
v 292.1829 0.1513062 25.28723
v 291.4943 0.1513062 25.28723
v 270.8346 0.1513062 23.90991
v 270.1459 0.1513062 23.90991
v 270.8346 0.1513062 24.9429
v 270.1459 0.1513062 24.9429
v 288.7396 0.1513062 23.56558
v 288.051 0.1513062 23.56558
v 288.7396 0.1513062 24.9429
v 288.051 0.1513062 24.9429
v 284.6077 0.1513062 23.56558
v 283.5747 0.1513062 23.56558
v 284.6077 0.1513062 24.59857
v 283.5747 0.1513062 24.59857
v 291.4943 0.1513062 23.22125
v 290.4613 0.1513062 23.22125
v 291.4943 0.1513062 24.59857
v 290.4613 0.1513062 24.59857
v 289.4283 0.1513062 23.22125
v 288.7396 0.1513062 23.22125
v 289.4283 0.1513062 24.25424
v 288.7396 0.1513062 24.25424
vt 0 0.9058824
vt 0.06666667 0.9058824
vt 0 1
vt 0.06666667 1
vt 0 0.9058824
vt 0.06666667 0.9058824
vt 0 1
vt 0.06666667 1
vt 0 0.9058824
vt 0.06666667 0.9058824
vt 0 1
vt 0.06666667 1
vt 0 0.9058824
vt 0.06666667 0.9058824
vt 0 1
vt 0.06666667 1
vt 0 0.9058824
vt 0.06666667 0.9058824
vt 0 1
vt 0.06666667 1
vt 0 0.9058824
vt 0.06666667 0.9058824
vt 0 1
vt 0.06666667 1
vt 0 0.9058824
vt 0.06666667 0.9058824
vt 0 1
vt 0.06666667 1
vt 0 0.9058824
vt 0.06666667 0.9058824
vt 0 1
vt 0.06666667 1
vt 0 0.9058824
vt 0.06666667 0.9058824
vt 0 1
vt 0.06666667 1
vt 0 0.9058824
vt 0.06666667 0.9058824
vt 0 1
vt 0.06666667 1
vt 0 0.9058824
vt 0.06666667 0.9058824
vt 0 1
vt 0.06666667 1
vt 0 0.9058824
vt 0.06666667 0.9058824
vt 0 1
vt 0.06666667 1
vt 0 0.9058824
vt 0.06666667 0.9058824
vt 0 1
vt 0.06666667 1
vt 0 0.9058824
vt 0.06666667 0.9058824
vt 0 1
vt 0.06666667 1
vt 0 0.9058824
vt 0.06666667 0.9058824
vt 0 1
vt 0.06666667 1
vt 0 0.9058824
vt 0.06666667 0.9058824
vt 0 1
vt 0.06666667 1
vt 0 0.9058824
vt 0.06666667 0.9058824
vt 0 1
vt 0.06666667 1
vt 0 0.9058824
vt 0.06666667 0.9058824
vt 0 1
vt 0.06666667 1
vt 0 0.9058824
vt 0.06666667 0.9058824
vt 0 1
vt 0.06666667 1
vt 0 0.9058824
vt 0.06666667 0.9058824
vt 0 1
vt 0.06666667 1
vt 0 0.9058824
vt 0.06666667 0.9058824
vt 0 1
vt 0.06666667 1
vt 0 0.9058824
vt 0.06666667 0.9058824
vt 0 1
vt 0.06666667 1
vt 0 0.9058824
vt 0.06666667 0.9058824
vt 0 1
vt 0.06666667 1
vt 0 0.9058824
vt 0.06666667 0.9058824
vt 0 1
vt 0.06666667 1
vt 0 0.9058824
vt 0.06666667 0.9058824
vt 0 1
vt 0.06666667 1
vt 0 0.9058824
vt 0.06666667 0.9058824
vt 0 1
vt 0.06666667 1
vt 0 0.9058824
vt 0.06666667 0.9058824
vt 0 1
vt 0.06666667 1
vt 0 0.9058824
vt 0.06666667 0.9058824
vt 0 1
vt 0.06666667 1
vt 0 0.9058824
vt 0.06666667 0.9058824
vt 0 1
vt 0.06666667 1
vt 0 0.9058824
vt 0.06666667 0.9058824
vt 0 1
vt 0.06666667 1
vt 0 0.9058824
vt 0.06666667 0.9058824
vt 0 1
vt 0.06666667 1
vt 0 0.9058824
vt 0.06666667 0.9058824
vt 0 1
vt 0.06666667 1
vt 0 0.9058824
vt 0.06666667 0.9058824
vt 0 1
vt 0.06666667 1
vt 0 0.9058824
vt 0.06666667 0.9058824
vt 0 1
vt 0.06666667 1
vt 0 0.9058824
vt 0.06666667 0.9058824
vt 0 1
vt 0.06666667 1
vt 0 0.9058824
vt 0.06666667 0.9058824
vt 0 1
vt 0.06666667 1
vt 0 0.9058824
vt 0.06666667 0.9058824
vt 0 1
vt 0.06666667 1
vt 0 0.9058824
vt 0.06666667 0.9058824
vt 0 1
vt 0.06666667 1
vt 0 0.9058824
vt 0.06666667 0.9058824
vt 0 1
vt 0.06666667 1
vt 0 0.9058824
vt 0.06666667 0.9058824
vt 0 1
vt 0.06666667 1
vt 0 0.9058824
vt 0.06666667 0.9058824
vt 0 1
vt 0.06666667 1
vt 0 0.9058824
vt 0.06666667 0.9058824
vt 0 1
vt 0.06666667 1
vt 0 0.9058824
vt 0.06666667 0.9058824
vt 0 1
vt 0.06666667 1
vt 0 0.9058824
vt 0.06666667 0.9058824
vt 0 1
vt 0.06666667 1
vt 0 0.9058824
vt 0.06666667 0.9058824
vt 0 1
vt 0.06666667 1
vt 0 0.9058824
vt 0.06666667 0.9058824
vt 0 1
vt 0.06666667 1
vt 0 0.9058824
vt 0.06666667 0.9058824
vt 0 1
vt 0.06666667 1
vt 0 0.9058824
vt 0.06666667 0.9058824
vt 0 1
vt 0.06666667 1
vt 0 0.9058824
vt 0.06666667 0.9058824
vt 0 1
vt 0.06666667 1
vt 0 0.9058824
vt 0.06666667 0.9058824
vt 0 1
vt 0.06666667 1
vt 0 0.9058824
vt 0.06666667 0.9058824
vt 0 1
vt 0.06666667 1
vt 0 0.9058824
vt 0.06666667 0.9058824
vt 0 1
vt 0.06666667 1
vt 0 0.9058824
vt 0.06666667 0.9058824
vt 0 1
vt 0.06666667 1
vt 0 0.9058824
vt 0.06666667 0.9058824
vt 0 1
vt 0.06666667 1
vt 0 0.9058824
vt 0.06666667 0.9058824
vt 0 1
vt 0.06666667 1
vn 0 1 0
vn 0 1 0
vn 0 1 0
vn 0 1 0
vn 0 1 0
vn 0 1 0
vn 0 1 0
vn 0 1 0
vn 0 1 0
vn 0 1 0
vn 0 1 0
vn 0 1 0
vn 0 1 0
vn 0 1 0
vn 0 1 0
vn 0 1 0
vn 0 1 0
vn 0 1 0
vn 0 1 0
vn 0 1 0
vn 0 1 0
vn 0 1 0
vn 0 1 0
vn 0 1 0
vn 0 1 0
vn 0 1 0
vn 0 1 0
vn 0 1 0
vn 0 1 0
vn 0 1 0
vn 0 1 0
vn 0 1 0
vn 0 1 0
vn 0 1 0
vn 0 1 0
vn 0 1 0
vn 0 1 0
vn 0 1 0
vn 0 1 0
vn 0 1 0
vn 0 1 0
vn 0 1 0
vn 0 1 0
vn 0 1 0
vn 0 1 0
vn 0 1 0
vn 0 1 0
vn 0 1 0
vn 0 1 0
vn 0 1 0
vn 0 1 0
vn 0 1 0
vn 0 1 0
vn 0 1 0
vn 0 1 0
vn 0 1 0
vn 0 1 0
vn 0 1 0
vn 0 1 0
vn 0 1 0
vn 0 1 0
vn 0 1 0
vn 0 1 0
vn 0 1 0
vn 0 1 0
vn 0 1 0
vn 0 1 0
vn 0 1 0
vn 0 1 0
vn 0 1 0
vn 0 1 0
vn 0 1 0
vn 0 1 0
vn 0 1 0
vn 0 1 0
vn 0 1 0
vn 0 1 0
vn 0 1 0
vn 0 1 0
vn 0 1 0
vn 0 1 0
vn 0 1 0
vn 0 1 0
vn 0 1 0
vn 0 1 0
vn 0 1 0
vn 0 1 0
vn 0 1 0
vn 0 1 0
vn 0 1 0
vn 0 1 0
vn 0 1 0
vn 0 1 0
vn 0 1 0
vn 0 1 0
vn 0 1 0
vn 0 1 0
vn 0 1 0
vn 0 1 0
vn 0 1 0
vn 0 1 0
vn 0 1 0
vn 0 1 0
vn 0 1 0
vn 0 1 0
vn 0 1 0
vn 0 1 0
vn 0 1 0
vn 0 1 0
vn 0 1 0
vn 0 1 0
vn 0 1 0
vn 0 1 0
vn 0 1 0
vn 0 1 0
vn 0 1 0
vn 0 1 0
vn 0 1 0
vn 0 1 0
vn 0 1 0
vn 0 1 0
vn 0 1 0
vn 0 1 0
vn 0 1 0
vn 0 1 0
vn 0 1 0
vn 0 1 0
vn 0 1 0
vn 0 1 0
vn 0 1 0
vn 0 1 0
vn 0 1 0
vn 0 1 0
vn 0 1 0
vn 0 1 0
vn 0 1 0
vn 0 1 0
vn 0 1 0
vn 0 1 0
vn 0 1 0
vn 0 1 0
vn 0 1 0
vn 0 1 0
vn 0 1 0
vn 0 1 0
vn 0 1 0
vn 0 1 0
vn 0 1 0
vn 0 1 0
vn 0 1 0
vn 0 1 0
vn 0 1 0
vn 0 1 0
vn 0 1 0
vn 0 1 0
vn 0 1 0
vn 0 1 0
vn 0 1 0
vn 0 1 0
vn 0 1 0
vn 0 1 0
vn 0 1 0
vn 0 1 0
vn 0 1 0
vn 0 1 0
vn 0 1 0
vn 0 1 0
vn 0 1 0
vn 0 1 0
vn 0 1 0
vn 0 1 0
vn 0 1 0
vn 0 1 0
vn 0 1 0
vn 0 1 0
vn 0 1 0
vn 0 1 0
vn 0 1 0
vn 0 1 0
vn 0 1 0
vn 0 1 0
vn 0 1 0
vn 0 1 0
vn 0 1 0
vn 0 1 0
vn 0 1 0
vn 0 1 0
vn 0 1 0
vn 0 1 0
vn 0 1 0
vn 0 1 0
vn 0 1 0
vn 0 1 0
vn 0 1 0
vn 0 1 0
vn 0 1 0
vn 0 1 0
vn 0 1 0
vn 0 1 0
vn 0 1 0
vn 0 1 0
vn 0 1 0
vn 0 1 0
vn 0 1 0
vn 0 1 0
vn 0 1 0
vn 0 1 0
vn 0 1 0
vn 0 1 0
vn 0 1 0
vn 0 1 0
vn 0 1 0
vn 0 1 0
vn 0 1 0
vn 0 1 0
vn 0 1 0
vn 0 1 0
vn 0 1 0
vn 0 1 0
vn 0 1 0
g Grass_0_Cluster40_0
f 2/2/2 3/3/3 1/1/1
f 2/2/2 4/4/4 3/3/3
f 6/6/6 7/7/7 5/5/5
f 6/6/6 8/8/8 7/7/7
f 10/10/10 11/11/11 9/9/9
f 10/10/10 12/12/12 11/11/11
f 14/14/14 15/15/15 13/13/13
f 14/14/14 16/16/16 15/15/15
f 18/18/18 19/19/19 17/17/17
f 18/18/18 20/20/20 19/19/19
f 22/22/22 23/23/23 21/21/21
f 22/22/22 24/24/24 23/23/23
f 26/26/26 27/27/27 25/25/25
f 26/26/26 28/28/28 27/27/27
f 30/30/30 31/31/31 29/29/29
f 30/30/30 32/32/32 31/31/31
f 34/34/34 35/35/35 33/33/33
f 34/34/34 36/36/36 35/35/35
f 38/38/38 39/39/39 37/37/37
f 38/38/38 40/40/40 39/39/39
f 42/42/42 43/43/43 41/41/41
f 42/42/42 44/44/44 43/43/43
f 46/46/46 47/47/47 45/45/45
f 46/46/46 48/48/48 47/47/47
f 50/50/50 51/51/51 49/49/49
f 50/50/50 52/52/52 51/51/51
f 54/54/54 55/55/55 53/53/53
f 54/54/54 56/56/56 55/55/55
f 58/58/58 59/59/59 57/57/57
f 58/58/58 60/60/60 59/59/59
f 62/62/62 63/63/63 61/61/61
f 62/62/62 64/64/64 63/63/63
f 66/66/66 67/67/67 65/65/65
f 66/66/66 68/68/68 67/67/67
f 70/70/70 71/71/71 69/69/69
f 70/70/70 72/72/72 71/71/71
f 74/74/74 75/75/75 73/73/73
f 74/74/74 76/76/76 75/75/75
f 78/78/78 79/79/79 77/77/77
f 78/78/78 80/80/80 79/79/79
f 82/82/82 83/83/83 81/81/81
f 82/82/82 84/84/84 83/83/83
f 86/86/86 87/87/87 85/85/85
f 86/86/86 88/88/88 87/87/87
f 90/90/90 91/91/91 89/89/89
f 90/90/90 92/92/92 91/91/91
f 94/94/94 95/95/95 93/93/93
f 94/94/94 96/96/96 95/95/95
f 98/98/98 99/99/99 97/97/97
f 98/98/98 100/100/100 99/99/99
f 102/102/102 103/103/103 101/101/101
f 102/102/102 104/104/104 103/103/103
f 106/106/106 107/107/107 105/105/105
f 106/106/106 108/108/108 107/107/107
f 110/110/110 111/111/111 109/109/109
f 110/110/110 112/112/112 111/111/111
f 114/114/114 115/115/115 113/113/113
f 114/114/114 116/116/116 115/115/115
f 118/118/118 119/119/119 117/117/117
f 118/118/118 120/120/120 119/119/119
f 122/122/122 123/123/123 121/121/121
f 122/122/122 124/124/124 123/123/123
f 126/126/126 127/127/127 125/125/125
f 126/126/126 128/128/128 127/127/127
f 130/130/130 131/131/131 129/129/129
f 130/130/130 132/132/132 131/131/131
f 134/134/134 135/135/135 133/133/133
f 134/134/134 136/136/136 135/135/135
f 138/138/138 139/139/139 137/137/137
f 138/138/138 140/140/140 139/139/139
f 142/142/142 143/143/143 141/141/141
f 142/142/142 144/144/144 143/143/143
f 146/146/146 147/147/147 145/145/145
f 146/146/146 148/148/148 147/147/147
f 150/150/150 151/151/151 149/149/149
f 150/150/150 152/152/152 151/151/151
f 154/154/154 155/155/155 153/153/153
f 154/154/154 156/156/156 155/155/155
f 158/158/158 159/159/159 157/157/157
f 158/158/158 160/160/160 159/159/159
f 162/162/162 163/163/163 161/161/161
f 162/162/162 164/164/164 163/163/163
f 166/166/166 167/167/167 165/165/165
f 166/166/166 168/168/168 167/167/167
f 170/170/170 171/171/171 169/169/169
f 170/170/170 172/172/172 171/171/171
f 174/174/174 175/175/175 173/173/173
f 174/174/174 176/176/176 175/175/175
f 178/178/178 179/179/179 177/177/177
f 178/178/178 180/180/180 179/179/179
f 182/182/182 183/183/183 181/181/181
f 182/182/182 184/184/184 183/183/183
f 186/186/186 187/187/187 185/185/185
f 186/186/186 188/188/188 187/187/187
f 190/190/190 191/191/191 189/189/189
f 190/190/190 192/192/192 191/191/191
f 194/194/194 195/195/195 193/193/193
f 194/194/194 196/196/196 195/195/195
f 198/198/198 199/199/199 197/197/197
f 198/198/198 200/200/200 199/199/199
f 202/202/202 203/203/203 201/201/201
f 202/202/202 204/204/204 203/203/203
f 206/206/206 207/207/207 205/205/205
f 206/206/206 208/208/208 207/207/207
f 210/210/210 211/211/211 209/209/209
f 210/210/210 212/212/212 211/211/211
f 214/214/214 215/215/215 213/213/213
f 214/214/214 216/216/216 215/215/215
f 218/218/218 219/219/219 217/217/217
f 218/218/218 220/220/220 219/219/219
