g Grass_0_Cluster301
v 240.9366 -0.2029419 442.8865
v 239.541 -0.2029419 442.8865
v 240.9366 -0.2029419 444.2821
v 239.541 -0.2029419 444.2821
v 245.821 -0.2029419 442.8865
v 245.1232 -0.2029419 442.8865
v 245.821 -0.2029419 444.2821
v 245.1232 -0.2029419 444.2821
v 241.6344 -0.2029419 442.1888
v 240.9366 -0.2029419 442.1888
v 241.6344 -0.2029419 443.5843
v 240.9366 -0.2029419 443.5843
v 241.6344 -0.2029419 442.1888
v 240.9366 -0.2029419 442.1888
v 241.6344 -0.2029419 443.5843
v 240.9366 -0.2029419 443.5843
v 269.5455 -0.2029419 440.0954
v 268.8477 -0.2029419 440.0954
v 269.5455 -0.2029419 441.491
v 268.8477 -0.2029419 441.491
v 252.101 -0.2029419 431.0243
v 251.4033 -0.2029419 431.0243
v 252.101 -0.2029419 431.7221
v 251.4033 -0.2029419 431.7221
v 250.7055 -0.2029419 423.3487
v 250.0077 -0.2029419 423.3487
v 250.7055 -0.2029419 424.7443
v 250.0077 -0.2029419 424.7443
v 254.8922 -0.2029419 421.2554
v 253.4966 -0.2029419 421.2554
v 254.8922 -0.2029419 422.651
v 253.4966 -0.2029419 422.651
v 249.3099 -0.2029419 420.5576
v 248.6121 -0.2029419 420.5576
v 249.3099 -0.2029419 421.9532
v 248.6121 -0.2029419 421.9532
v 265.3588 -0.2029419 417.7665
v 264.661 -0.2029419 417.7665
v 265.3588 -0.2029419 419.1621
v 264.661 -0.2029419 419.1621
v 246.5188 -0.2029419 416.3709
v 245.1232 -0.2029419 416.3709
v 246.5188 -0.2029419 417.7665
v 245.1232 -0.2029419 417.7665
v 261.8699 -0.2029419 414.9754
v 261.1721 -0.2029419 414.9754
v 261.8699 -0.2029419 416.3709
v 261.1721 -0.2029419 416.3709
v 262.5677 -0.2029419 414.2776
v 261.1721 -0.2029419 414.2776
v 262.5677 -0.2029419 414.9754
v 261.1721 -0.2029419 414.9754
vt 0 0.9058824
vt 0.06666667 0.9058824
vt 0 1
vt 0.06666667 1
vt 0 0.9058824
vt 0.06666667 0.9058824
vt 0 1
vt 0.06666667 1
vt 0 0.9058824
vt 0.06666667 0.9058824
vt 0 1
vt 0.06666667 1
vt 0 0.9058824
vt 0.06666667 0.9058824
vt 0 1
vt 0.06666667 1
vt 0 0.9058824
vt 0.06666667 0.9058824
vt 0 1
vt 0.06666667 1
vt 0 0.9058824
vt 0.06666667 0.9058824
vt 0 1
vt 0.06666667 1
vt 0 0.9058824
vt 0.06666667 0.9058824
vt 0 1
vt 0.06666667 1
vt 0 0.9058824
vt 0.06666667 0.9058824
vt 0 1
vt 0.06666667 1
vt 0 0.9058824
vt 0.06666667 0.9058824
vt 0 1
vt 0.06666667 1
vt 0 0.9058824
vt 0.06666667 0.9058824
vt 0 1
vt 0.06666667 1
vt 0 0.9058824
vt 0.06666667 0.9058824
vt 0 1
vt 0.06666667 1
vt 0 0.9058824
vt 0.06666667 0.9058824
vt 0 1
vt 0.06666667 1
vt 0 0.9058824
vt 0.06666667 0.9058824
vt 0 1
vt 0.06666667 1
vn 0 1 0
vn 0 1 0
vn 0 1 0
vn 0 1 0
vn 0 1 0
vn 0 1 0
vn 0 1 0
vn 0 1 0
vn 0 1 0
vn 0 1 0
vn 0 1 0
vn 0 1 0
vn 0 1 0
vn 0 1 0
vn 0 1 0
vn 0 1 0
vn 0 1 0
vn 0 1 0
vn 0 1 0
vn 0 1 0
vn 0 1 0
vn 0 1 0
vn 0 1 0
vn 0 1 0
vn 0 1 0
vn 0 1 0
vn 0 1 0
vn 0 1 0
vn 0 1 0
vn 0 1 0
vn 0 1 0
vn 0 1 0
vn 0 1 0
vn 0 1 0
vn 0 1 0
vn 0 1 0
vn 0 1 0
vn 0 1 0
vn 0 1 0
vn 0 1 0
vn 0 1 0
vn 0 1 0
vn 0 1 0
vn 0 1 0
vn 0 1 0
vn 0 1 0
vn 0 1 0
vn 0 1 0
vn 0 1 0
vn 0 1 0
vn 0 1 0
vn 0 1 0
g Grass_0_Cluster301_0
f 2/2/2 3/3/3 1/1/1
f 2/2/2 4/4/4 3/3/3
f 6/6/6 7/7/7 5/5/5
f 6/6/6 8/8/8 7/7/7
f 10/10/10 11/11/11 9/9/9
f 10/10/10 12/12/12 11/11/11
f 14/14/14 15/15/15 13/13/13
f 14/14/14 16/16/16 15/15/15
f 18/18/18 19/19/19 17/17/17
f 18/18/18 20/20/20 19/19/19
f 22/22/22 23/23/23 21/21/21
f 22/22/22 24/24/24 23/23/23
f 26/26/26 27/27/27 25/25/25
f 26/26/26 28/28/28 27/27/27
f 30/30/30 31/31/31 29/29/29
f 30/30/30 32/32/32 31/31/31
f 34/34/34 35/35/35 33/33/33
f 34/34/34 36/36/36 35/35/35
f 38/38/38 39/39/39 37/37/37
f 38/38/38 40/40/40 39/39/39
f 42/42/42 43/43/43 41/41/41
f 42/42/42 44/44/44 43/43/43
f 46/46/46 47/47/47 45/45/45
f 46/46/46 48/48/48 47/47/47
f 50/50/50 51/51/51 49/49/49
f 50/50/50 52/52/52 51/51/51
