g Grass_2_Cluster217
v -232.2013 0 287.5007
v -233.0477 0 287.5007
v -232.2013 0 288.6293
v -233.0477 0 288.6293
v -232.2013 0 286.6543
v -233.0477 0 286.6543
v -232.2013 0 288.065
v -233.0477 0 288.065
v -232.7655 0 286.6543
v -233.8941 0 286.6543
v -232.7655 0 287.5007
v -233.8941 0 287.5007
v -230.2263 0 286.3722
v -231.0727 0 286.3722
v -230.2263 0 287.5007
v -231.0727 0 287.5007
v -231.9191 0 286.09
v -232.7655 0 286.09
v -231.9191 0 287.2186
v -232.7655 0 287.2186
v -228.8156 0 286.09
v -229.662 0 286.09
v -228.8156 0 286.9364
v -229.662 0 286.9364
v -230.7906 0 285.8079
v -231.637 0 285.8079
v -230.7906 0 286.6543
v -231.637 0 286.6543
v -232.7655 0 285.8079
v -233.8941 0 285.8079
v -232.7655 0 286.6543
v -233.8941 0 286.6543
v -232.7655 0 285.2436
v -233.8941 0 285.2436
v -232.7655 0 286.6543
v -233.8941 0 286.6543
v -229.9442 0 284.9615
v -230.7906 0 284.9615
v -229.9442 0 286.09
v -230.7906 0 286.09
v -229.3799 0 284.3972
v -230.5084 0 284.3972
v -229.3799 0 285.5257
v -230.5084 0 285.5257
v -228.2513 0 284.1151
v -229.3799 0 284.1151
v -228.2513 0 285.2436
v -229.3799 0 285.2436
v -230.7906 0 284.1151
v -231.637 0 284.1151
v -230.7906 0 285.2436
v -231.637 0 285.2436
v -231.637 0 283.5508
v -232.4834 0 283.5508
v -231.637 0 284.6793
v -232.4834 0 284.6793
v -231.9191 0 279.3187
v -232.7655 0 279.3187
v -231.9191 0 280.4472
v -232.7655 0 280.4472
v -237.8441 0 274.8044
v -238.9726 0 274.8044
v -237.8441 0 275.933
v -238.9726 0 275.933
v -235.8691 0 273.6759
v -236.7155 0 273.6759
v -235.8691 0 274.8044
v -236.7155 0 274.8044
v -221.7621 0 266.9045
v -222.6085 0 266.9045
v -221.7621 0 268.0331
v -222.6085 0 268.0331
v -220.0692 0 266.3402
v -220.9157 0 266.3402
v -220.0692 0 267.4688
v -220.9157 0 267.4688
v -222.6085 0 266.3402
v -223.4549 0 266.3402
v -222.6085 0 267.1866
v -223.4549 0 267.1866
v -219.2228 0 265.7759
v -220.3514 0 265.7759
v -219.2228 0 266.9045
v -220.3514 0 266.9045
v -220.6335 0 265.7759
v -221.7621 0 265.7759
v -220.6335 0 266.9045
v -221.7621 0 266.9045
v -218.6585 0 264.9295
v -219.7871 0 264.9295
v -218.6585 0 266.0581
v -219.7871 0 266.0581
v -223.1728 0 264.9295
v -224.3013 0 264.9295
v -223.1728 0 266.0581
v -224.3013 0 266.0581
v -221.7621 0 264.9295
v -222.6085 0 264.9295
v -221.7621 0 265.7759
v -222.6085 0 265.7759
v -222.6085 0 264.3652
v -223.4549 0 264.3652
v -222.6085 0 265.4938
v -223.4549 0 265.4938
v -218.6585 0 264.0831
v -219.7871 0 264.0831
v -218.6585 0 265.2117
v -219.7871 0 265.2117
v -220.0692 0 263.801
v -220.9157 0 263.801
v -220.0692 0 264.9295
v -220.9157 0 264.9295
vt 0.1347656 0.9185662
vt 0.2060202 0.9185662
vt 0.1347656 1
vt 0.2060202 1
vt 0.1347656 0.9185662
vt 0.2060202 0.9185662
vt 0.1347656 1
vt 0.2060202 1
vt 0.1347656 0.9185662
vt 0.2060202 0.9185662
vt 0.1347656 1
vt 0.2060202 1
vt 0.1347656 0.9185662
vt 0.2060202 0.9185662
vt 0.1347656 1
vt 0.2060202 1
vt 0.1347656 0.9185662
vt 0.2060202 0.9185662
vt 0.1347656 1
vt 0.2060202 1
vt 0.1347656 0.9185662
vt 0.2060202 0.9185662
vt 0.1347656 1
vt 0.2060202 1
vt 0.1347656 0.9185662
vt 0.2060202 0.9185662
vt 0.1347656 1
vt 0.2060202 1
vt 0.1347656 0.9185662
vt 0.2060202 0.9185662
vt 0.1347656 1
vt 0.2060202 1
vt 0.1347656 0.9185662
vt 0.2060202 0.9185662
vt 0.1347656 1
vt 0.2060202 1
vt 0.1347656 0.9185662
vt 0.2060202 0.9185662
vt 0.1347656 1
vt 0.2060202 1
vt 0.1347656 0.9185662
vt 0.2060202 0.9185662
vt 0.1347656 1
vt 0.2060202 1
vt 0.1347656 0.9185662
vt 0.2060202 0.9185662
vt 0.1347656 1
vt 0.2060202 1
vt 0.1347656 0.9185662
vt 0.2060202 0.9185662
vt 0.1347656 1
vt 0.2060202 1
vt 0.1347656 0.9185662
vt 0.2060202 0.9185662
vt 0.1347656 1
vt 0.2060202 1
vt 0.1347656 0.9185662
vt 0.2060202 0.9185662
vt 0.1347656 1
vt 0.2060202 1
vt 0.1347656 0.9185662
vt 0.2060202 0.9185662
vt 0.1347656 1
vt 0.2060202 1
vt 0.1347656 0.9185662
vt 0.2060202 0.9185662
vt 0.1347656 1
vt 0.2060202 1
vt 0.1347656 0.9185662
vt 0.2060202 0.9185662
vt 0.1347656 1
vt 0.2060202 1
vt 0.1347656 0.9185662
vt 0.2060202 0.9185662
vt 0.1347656 1
vt 0.2060202 1
vt 0.1347656 0.9185662
vt 0.2060202 0.9185662
vt 0.1347656 1
vt 0.2060202 1
vt 0.1347656 0.9185662
vt 0.2060202 0.9185662
vt 0.1347656 1
vt 0.2060202 1
vt 0.1347656 0.9185662
vt 0.2060202 0.9185662
vt 0.1347656 1
vt 0.2060202 1
vt 0.1347656 0.9185662
vt 0.2060202 0.9185662
vt 0.1347656 1
vt 0.2060202 1
vt 0.1347656 0.9185662
vt 0.2060202 0.9185662
vt 0.1347656 1
vt 0.2060202 1
vt 0.1347656 0.9185662
vt 0.2060202 0.9185662
vt 0.1347656 1
vt 0.2060202 1
vt 0.1347656 0.9185662
vt 0.2060202 0.9185662
vt 0.1347656 1
vt 0.2060202 1
vt 0.1347656 0.9185662
vt 0.2060202 0.9185662
vt 0.1347656 1
vt 0.2060202 1
vt 0.1347656 0.9185662
vt 0.2060202 0.9185662
vt 0.1347656 1
vt 0.2060202 1
vn 0 1 0
vn 0 1 0
vn 0 1 0
vn 0 1 0
vn 0 1 0
vn 0 1 0
vn 0 1 0
vn 0 1 0
vn 0 1 0
vn 0 1 0
vn 0 1 0
vn 0 1 0
vn 0 1 0
vn 0 1 0
vn 0 1 0
vn 0 1 0
vn 0 1 0
vn 0 1 0
vn 0 1 0
vn 0 1 0
vn 0 1 0
vn 0 1 0
vn 0 1 0
vn 0 1 0
vn 0 1 0
vn 0 1 0
vn 0 1 0
vn 0 1 0
vn 0 1 0
vn 0 1 0
vn 0 1 0
vn 0 1 0
vn 0 1 0
vn 0 1 0
vn 0 1 0
vn 0 1 0
vn 0 1 0
vn 0 1 0
vn 0 1 0
vn 0 1 0
vn 0 1 0
vn 0 1 0
vn 0 1 0
vn 0 1 0
vn 0 1 0
vn 0 1 0
vn 0 1 0
vn 0 1 0
vn 0 1 0
vn 0 1 0
vn 0 1 0
vn 0 1 0
vn 0 1 0
vn 0 1 0
vn 0 1 0
vn 0 1 0
vn 0 1 0
vn 0 1 0
vn 0 1 0
vn 0 1 0
vn 0 1 0
vn 0 1 0
vn 0 1 0
vn 0 1 0
vn 0 1 0
vn 0 1 0
vn 0 1 0
vn 0 1 0
vn 0 1 0
vn 0 1 0
vn 0 1 0
vn 0 1 0
vn 0 1 0
vn 0 1 0
vn 0 1 0
vn 0 1 0
vn 0 1 0
vn 0 1 0
vn 0 1 0
vn 0 1 0
vn 0 1 0
vn 0 1 0
vn 0 1 0
vn 0 1 0
vn 0 1 0
vn 0 1 0
vn 0 1 0
vn 0 1 0
vn 0 1 0
vn 0 1 0
vn 0 1 0
vn 0 1 0
vn 0 1 0
vn 0 1 0
vn 0 1 0
vn 0 1 0
vn 0 1 0
vn 0 1 0
vn 0 1 0
vn 0 1 0
vn 0 1 0
vn 0 1 0
vn 0 1 0
vn 0 1 0
vn 0 1 0
vn 0 1 0
vn 0 1 0
vn 0 1 0
vn 0 1 0
vn 0 1 0
vn 0 1 0
vn 0 1 0
g Grass_2_Cluster217_0
f 2/2/2 3/3/3 1/1/1
f 2/2/2 4/4/4 3/3/3
f 6/6/6 7/7/7 5/5/5
f 6/6/6 8/8/8 7/7/7
f 10/10/10 11/11/11 9/9/9
f 10/10/10 12/12/12 11/11/11
f 14/14/14 15/15/15 13/13/13
f 14/14/14 16/16/16 15/15/15
f 18/18/18 19/19/19 17/17/17
f 18/18/18 20/20/20 19/19/19
f 22/22/22 23/23/23 21/21/21
f 22/22/22 24/24/24 23/23/23
f 26/26/26 27/27/27 25/25/25
f 26/26/26 28/28/28 27/27/27
f 30/30/30 31/31/31 29/29/29
f 30/30/30 32/32/32 31/31/31
f 34/34/34 35/35/35 33/33/33
f 34/34/34 36/36/36 35/35/35
f 38/38/38 39/39/39 37/37/37
f 38/38/38 40/40/40 39/39/39
f 42/42/42 43/43/43 41/41/41
f 42/42/42 44/44/44 43/43/43
f 46/46/46 47/47/47 45/45/45
f 46/46/46 48/48/48 47/47/47
f 50/50/50 51/51/51 49/49/49
f 50/50/50 52/52/52 51/51/51
f 54/54/54 55/55/55 53/53/53
f 54/54/54 56/56/56 55/55/55
f 58/58/58 59/59/59 57/57/57
f 58/58/58 60/60/60 59/59/59
f 62/62/62 63/63/63 61/61/61
f 62/62/62 64/64/64 63/63/63
f 66/66/66 67/67/67 65/65/65
f 66/66/66 68/68/68 67/67/67
f 70/70/70 71/71/71 69/69/69
f 70/70/70 72/72/72 71/71/71
f 74/74/74 75/75/75 73/73/73
f 74/74/74 76/76/76 75/75/75
f 78/78/78 79/79/79 77/77/77
f 78/78/78 80/80/80 79/79/79
f 82/82/82 83/83/83 81/81/81
f 82/82/82 84/84/84 83/83/83
f 86/86/86 87/87/87 85/85/85
f 86/86/86 88/88/88 87/87/87
f 90/90/90 91/91/91 89/89/89
f 90/90/90 92/92/92 91/91/91
f 94/94/94 95/95/95 93/93/93
f 94/94/94 96/96/96 95/95/95
f 98/98/98 99/99/99 97/97/97
f 98/98/98 100/100/100 99/99/99
f 102/102/102 103/103/103 101/101/101
f 102/102/102 104/104/104 103/103/103
f 106/106/106 107/107/107 105/105/105
f 106/106/106 108/108/108 107/107/107
f 110/110/110 111/111/111 109/109/109
f 110/110/110 112/112/112 111/111/111
