g Grass_0_Cluster126
v 90.73962 0.09105682 171.7553
v 89.88272 0.09105682 171.7553
v 90.73962 0.09105682 172.8978
v 89.88272 0.09105682 172.8978
v 108.4487 0.09105682 171.4697
v 107.5918 0.09105682 171.4697
v 108.4487 0.09105682 172.8978
v 107.5918 0.09105682 172.8978
v 98.16602 0.09105682 171.1841
v 97.30913 0.09105682 171.1841
v 98.16602 0.09105682 172.3266
v 97.30913 0.09105682 172.3266
v 109.8769 0.09105682 170.6128
v 109.02 0.09105682 170.6128
v 109.8769 0.09105682 172.0409
v 109.02 0.09105682 172.0409
v 99.02292 0.09105682 168.3277
v 98.16602 0.09105682 168.3277
v 99.02292 0.09105682 169.4703
v 98.16602 0.09105682 169.4703
v 103.593 0.09105682 167.7565
v 102.7361 0.09105682 167.7565
v 103.593 0.09105682 168.899
v 102.7361 0.09105682 168.899
v 90.73962 0.09105682 160.6157
v 89.88272 0.09105682 160.6157
v 90.73962 0.09105682 162.0439
v 89.88272 0.09105682 162.0439
v 110.1625 0.09105682 159.7588
v 109.3056 0.09105682 159.7588
v 110.1625 0.09105682 160.9014
v 109.3056 0.09105682 160.9014
v 92.16777 0.09105682 159.1875
v 91.02525 0.09105682 159.1875
v 92.16777 0.09105682 160.3301
v 91.02525 0.09105682 160.3301
v 96.73787 0.09105682 158.6163
v 95.88097 0.09105682 158.6163
v 96.73787 0.09105682 160.0444
v 95.88097 0.09105682 160.0444
v 91.88214 0.09105682 158.6163
v 91.02525 0.09105682 158.6163
v 91.88214 0.09105682 159.7588
v 91.02525 0.09105682 159.7588
v 109.5913 0.09105682 158.3307
v 108.7344 0.09105682 158.3307
v 109.5913 0.09105682 159.4732
v 108.7344 0.09105682 159.4732
v 111.3051 0.09105682 158.3307
v 110.4482 0.09105682 158.3307
v 111.3051 0.09105682 159.4732
v 110.4482 0.09105682 159.4732
v 113.0188 0.09105682 158.3307
v 112.4476 0.09105682 158.3307
v 113.0188 0.09105682 159.4732
v 112.4476 0.09105682 159.4732
v 112.4476 0.09105682 158.045
v 111.3051 0.09105682 158.045
v 112.4476 0.09105682 159.1875
v 111.3051 0.09105682 159.1875
v 109.5913 0.09105682 157.7594
v 108.7344 0.09105682 157.7594
v 109.5913 0.09105682 158.9019
v 108.7344 0.09105682 158.9019
v 94.16719 0.09105682 157.7594
v 93.3103 0.09105682 157.7594
v 94.16719 0.09105682 158.9019
v 93.3103 0.09105682 158.9019
v 113.3045 0.09105682 157.7594
v 112.4476 0.09105682 157.7594
v 113.3045 0.09105682 158.9019
v 112.4476 0.09105682 158.9019
v 113.0188 0.09105682 157.4738
v 111.8763 0.09105682 157.4738
v 113.0188 0.09105682 158.6163
v 111.8763 0.09105682 158.6163
v 92.73903 0.09105682 157.1881
v 91.88214 0.09105682 157.1881
v 92.73903 0.09105682 158.3307
v 91.88214 0.09105682 158.3307
v 115.8751 0.09105682 157.1881
v 115.0182 0.09105682 157.1881
v 115.8751 0.09105682 158.3307
v 115.0182 0.09105682 158.3307
v 107.3062 0.09105682 156.9025
v 106.1637 0.09105682 156.9025
v 107.3062 0.09105682 158.045
v 106.1637 0.09105682 158.045
v 108.7344 0.09105682 156.9025
v 107.8775 0.09105682 156.9025
v 108.7344 0.09105682 158.045
v 107.8775 0.09105682 158.045
v 91.31087 0.09105682 156.6169
v 90.45398 0.09105682 156.6169
v 91.31087 0.09105682 157.7594
v 90.45398 0.09105682 157.7594
v 110.4482 0.09105682 156.6169
v 109.5913 0.09105682 156.6169
v 110.4482 0.09105682 158.045
v 109.5913 0.09105682 158.045
v 114.447 0.09105682 156.6169
v 113.5901 0.09105682 156.6169
v 114.447 0.09105682 157.7594
v 113.5901 0.09105682 157.7594
v 91.88214 0.09105682 156.6169
v 91.02525 0.09105682 156.6169
v 91.88214 0.09105682 157.7594
v 91.02525 0.09105682 157.7594
v 111.3051 0.09105682 156.6169
v 110.4482 0.09105682 156.6169
v 111.3051 0.09105682 157.7594
v 110.4482 0.09105682 157.7594
v 109.3056 0.09105682 156.0456
v 108.4487 0.09105682 156.0456
v 109.3056 0.09105682 157.1881
v 108.4487 0.09105682 157.1881
v 93.02466 0.09105682 156.0456
v 92.16777 0.09105682 156.0456
v 93.02466 0.09105682 157.1881
v 92.16777 0.09105682 157.1881
v 112.4476 0.09105682 156.0456
v 111.5907 0.09105682 156.0456
v 112.4476 0.09105682 157.1881
v 111.5907 0.09105682 157.1881
v 110.4482 0.09105682 155.76
v 109.5913 0.09105682 155.76
v 110.4482 0.09105682 156.9025
v 109.5913 0.09105682 156.9025
v 116.1608 0.09105682 155.76
v 115.3039 0.09105682 155.76
v 116.1608 0.09105682 156.9025
v 115.3039 0.09105682 156.9025
v 92.73903 0.09105682 155.76
v 91.88214 0.09105682 155.76
v 92.73903 0.09105682 156.9025
v 91.88214 0.09105682 156.9025
v 107.3062 0.09105682 155.4743
v 106.4493 0.09105682 155.4743
v 107.3062 0.09105682 156.6169
v 106.4493 0.09105682 156.6169
v 90.45398 0.09105682 155.4743
v 89.59709 0.09105682 155.4743
v 90.45398 0.09105682 156.9025
v 89.59709 0.09105682 156.9025
v 113.5901 0.09105682 155.4743
v 112.7332 0.09105682 155.4743
v 113.5901 0.09105682 156.6169
v 112.7332 0.09105682 156.6169
v 96.1666 0.09105682 155.4743
v 95.30971 0.09105682 155.4743
v 96.1666 0.09105682 156.6169
v 95.30971 0.09105682 156.6169
v 90.73962 0.09105682 155.4743
v 89.88272 0.09105682 155.4743
v 90.73962 0.09105682 156.6169
v 89.88272 0.09105682 156.6169
v 114.7326 0.09105682 155.1887
v 113.8757 0.09105682 155.1887
v 114.7326 0.09105682 156.3313
v 113.8757 0.09105682 156.3313
v 112.1619 0.09105682 155.1887
v 111.3051 0.09105682 155.1887
v 112.1619 0.09105682 156.6169
v 111.3051 0.09105682 156.6169
v 92.16777 0.09105682 154.9031
v 91.31087 0.09105682 154.9031
v 92.16777 0.09105682 156.3313
v 91.31087 0.09105682 156.3313
v 111.5907 0.09105682 154.9031
v 110.7338 0.09105682 154.9031
v 111.5907 0.09105682 156.0456
v 110.7338 0.09105682 156.0456
v 91.31087 0.09105682 154.6174
v 90.45398 0.09105682 154.6174
v 91.31087 0.09105682 155.76
v 90.45398 0.09105682 155.76
v 109.8769 0.09105682 154.6174
v 109.02 0.09105682 154.6174
v 109.8769 0.09105682 155.76
v 109.02 0.09105682 155.76
v 115.0182 0.09105682 154.6174
v 114.1614 0.09105682 154.6174
v 115.0182 0.09105682 155.76
v 114.1614 0.09105682 155.76
v 119.3027 0.09105682 154.3318
v 118.4458 0.09105682 154.3318
v 119.3027 0.09105682 155.4743
v 118.4458 0.09105682 155.4743
v 117.0177 0.09105682 154.0462
v 116.1608 0.09105682 154.0462
v 117.0177 0.09105682 155.1887
v 116.1608 0.09105682 155.1887
v 112.1619 0.09105682 154.0462
v 111.3051 0.09105682 154.0462
v 112.1619 0.09105682 155.1887
v 111.3051 0.09105682 155.1887
v 100.7367 0.09105682 153.7606
v 99.87981 0.09105682 153.7606
v 100.7367 0.09105682 155.1887
v 99.87981 0.09105682 155.1887
v 115.0182 0.09105682 153.1893
v 114.1614 0.09105682 153.1893
v 115.0182 0.09105682 154.6174
v 114.1614 0.09105682 154.6174
v 100.4511 0.09105682 152.9037
v 99.59418 0.09105682 152.9037
v 100.4511 0.09105682 154.3318
v 99.59418 0.09105682 154.3318
v 116.4464 0.09105682 152.9037
v 115.5895 0.09105682 152.9037
v 116.4464 0.09105682 154.0462
v 115.5895 0.09105682 154.0462
v 114.447 0.09105682 152.618
v 113.5901 0.09105682 152.618
v 114.447 0.09105682 153.7606
v 113.5901 0.09105682 153.7606
v 101.5936 0.09105682 152.3324
v 100.7367 0.09105682 152.3324
v 101.5936 0.09105682 153.7606
v 100.7367 0.09105682 153.7606
v 99.30855 0.09105682 152.3324
v 98.45165 0.09105682 152.3324
v 99.30855 0.09105682 153.4749
v 98.45165 0.09105682 153.4749
v 97.59476 0.09105682 152.0468
v 96.73787 0.09105682 152.0468
v 97.59476 0.09105682 153.1893
v 96.73787 0.09105682 153.1893
v 116.732 0.09105682 152.0468
v 115.5895 0.09105682 152.0468
v 116.732 0.09105682 153.1893
v 115.5895 0.09105682 153.1893
v 103.8786 0.09105682 151.7612
v 102.7361 0.09105682 151.7612
v 103.8786 0.09105682 153.1893
v 102.7361 0.09105682 153.1893
v 113.0188 0.09105682 151.4755
v 112.1619 0.09105682 151.4755
v 113.0188 0.09105682 152.618
v 112.1619 0.09105682 152.618
v 100.7367 0.09105682 151.1899
v 99.87981 0.09105682 151.1899
v 100.7367 0.09105682 152.3324
v 99.87981 0.09105682 152.3324
v 98.45165 0.09105682 151.1899
v 97.59476 0.09105682 151.1899
v 98.45165 0.09105682 152.3324
v 97.59476 0.09105682 152.3324
v 116.1608 0.09105682 151.1899
v 115.3039 0.09105682 151.1899
v 116.1608 0.09105682 152.3324
v 115.3039 0.09105682 152.3324
v 99.87981 0.09105682 148.3336
v 99.02292 0.09105682 148.3336
v 99.87981 0.09105682 149.7617
v 99.02292 0.09105682 149.7617
v 101.8792 0.09105682 148.0479
v 101.0223 0.09105682 148.0479
v 101.8792 0.09105682 149.1905
v 101.0223 0.09105682 149.1905
v 103.0218 0.09105682 147.4767
v 102.1649 0.09105682 147.4767
v 103.0218 0.09105682 148.6192
v 102.1649 0.09105682 148.6192
v 101.0223 0.09105682 147.1911
v 100.1654 0.09105682 147.1911
v 101.0223 0.09105682 148.3336
v 100.1654 0.09105682 148.3336
v 107.5918 0.09105682 146.9054
v 106.735 0.09105682 146.9054
v 107.5918 0.09105682 148.0479
v 106.735 0.09105682 148.0479
v 104.1643 0.09105682 144.906
v 103.3074 0.09105682 144.906
v 104.1643 0.09105682 146.0485
v 103.3074 0.09105682 146.0485
v 103.3074 0.09105682 143.4779
v 102.4505 0.09105682 143.4779
v 103.3074 0.09105682 144.6204
v 102.4505 0.09105682 144.6204
vt 0 0.9058824
vt 0.06666667 0.9058824
vt 0 1
vt 0.06666667 1
vt 0 0.9058824
vt 0.06666667 0.9058824
vt 0 1
vt 0.06666667 1
vt 0 0.9058824
vt 0.06666667 0.9058824
vt 0 1
vt 0.06666667 1
vt 0 0.9058824
vt 0.06666667 0.9058824
vt 0 1
vt 0.06666667 1
vt 0 0.9058824
vt 0.06666667 0.9058824
vt 0 1
vt 0.06666667 1
vt 0 0.9058824
vt 0.06666667 0.9058824
vt 0 1
vt 0.06666667 1
vt 0 0.9058824
vt 0.06666667 0.9058824
vt 0 1
vt 0.06666667 1
vt 0 0.9058824
vt 0.06666667 0.9058824
vt 0 1
vt 0.06666667 1
vt 0 0.9058824
vt 0.06666667 0.9058824
vt 0 1
vt 0.06666667 1
vt 0 0.9058824
vt 0.06666667 0.9058824
vt 0 1
vt 0.06666667 1
vt 0 0.9058824
vt 0.06666667 0.9058824
vt 0 1
vt 0.06666667 1
vt 0 0.9058824
vt 0.06666667 0.9058824
vt 0 1
vt 0.06666667 1
vt 0 0.9058824
vt 0.06666667 0.9058824
vt 0 1
vt 0.06666667 1
vt 0 0.9058824
vt 0.06666667 0.9058824
vt 0 1
vt 0.06666667 1
vt 0 0.9058824
vt 0.06666667 0.9058824
vt 0 1
vt 0.06666667 1
vt 0 0.9058824
vt 0.06666667 0.9058824
vt 0 1
vt 0.06666667 1
vt 0 0.9058824
vt 0.06666667 0.9058824
vt 0 1
vt 0.06666667 1
vt 0 0.9058824
vt 0.06666667 0.9058824
vt 0 1
vt 0.06666667 1
vt 0 0.9058824
vt 0.06666667 0.9058824
vt 0 1
vt 0.06666667 1
vt 0 0.9058824
vt 0.06666667 0.9058824
vt 0 1
vt 0.06666667 1
vt 0 0.9058824
vt 0.06666667 0.9058824
vt 0 1
vt 0.06666667 1
vt 0 0.9058824
vt 0.06666667 0.9058824
vt 0 1
vt 0.06666667 1
vt 0 0.9058824
vt 0.06666667 0.9058824
vt 0 1
vt 0.06666667 1
vt 0 0.9058824
vt 0.06666667 0.9058824
vt 0 1
vt 0.06666667 1
vt 0 0.9058824
vt 0.06666667 0.9058824
vt 0 1
vt 0.06666667 1
vt 0 0.9058824
vt 0.06666667 0.9058824
vt 0 1
vt 0.06666667 1
vt 0 0.9058824
vt 0.06666667 0.9058824
vt 0 1
vt 0.06666667 1
vt 0 0.9058824
vt 0.06666667 0.9058824
vt 0 1
vt 0.06666667 1
vt 0 0.9058824
vt 0.06666667 0.9058824
vt 0 1
vt 0.06666667 1
vt 0 0.9058824
vt 0.06666667 0.9058824
vt 0 1
vt 0.06666667 1
vt 0 0.9058824
vt 0.06666667 0.9058824
vt 0 1
vt 0.06666667 1
vt 0 0.9058824
vt 0.06666667 0.9058824
vt 0 1
vt 0.06666667 1
vt 0 0.9058824
vt 0.06666667 0.9058824
vt 0 1
vt 0.06666667 1
vt 0 0.9058824
vt 0.06666667 0.9058824
vt 0 1
vt 0.06666667 1
vt 0 0.9058824
vt 0.06666667 0.9058824
vt 0 1
vt 0.06666667 1
vt 0 0.9058824
vt 0.06666667 0.9058824
vt 0 1
vt 0.06666667 1
vt 0 0.9058824
vt 0.06666667 0.9058824
vt 0 1
vt 0.06666667 1
vt 0 0.9058824
vt 0.06666667 0.9058824
vt 0 1
vt 0.06666667 1
vt 0 0.9058824
vt 0.06666667 0.9058824
vt 0 1
vt 0.06666667 1
vt 0 0.9058824
vt 0.06666667 0.9058824
vt 0 1
vt 0.06666667 1
vt 0 0.9058824
vt 0.06666667 0.9058824
vt 0 1
vt 0.06666667 1
vt 0 0.9058824
vt 0.06666667 0.9058824
vt 0 1
vt 0.06666667 1
vt 0 0.9058824
vt 0.06666667 0.9058824
vt 0 1
vt 0.06666667 1
vt 0 0.9058824
vt 0.06666667 0.9058824
vt 0 1
vt 0.06666667 1
vt 0 0.9058824
vt 0.06666667 0.9058824
vt 0 1
vt 0.06666667 1
vt 0 0.9058824
vt 0.06666667 0.9058824
vt 0 1
vt 0.06666667 1
vt 0 0.9058824
vt 0.06666667 0.9058824
vt 0 1
vt 0.06666667 1
vt 0 0.9058824
vt 0.06666667 0.9058824
vt 0 1
vt 0.06666667 1
vt 0 0.9058824
vt 0.06666667 0.9058824
vt 0 1
vt 0.06666667 1
vt 0 0.9058824
vt 0.06666667 0.9058824
vt 0 1
vt 0.06666667 1
vt 0 0.9058824
vt 0.06666667 0.9058824
vt 0 1
vt 0.06666667 1
vt 0 0.9058824
vt 0.06666667 0.9058824
vt 0 1
vt 0.06666667 1
vt 0 0.9058824
vt 0.06666667 0.9058824
vt 0 1
vt 0.06666667 1
vt 0 0.9058824
vt 0.06666667 0.9058824
vt 0 1
vt 0.06666667 1
vt 0 0.9058824
vt 0.06666667 0.9058824
vt 0 1
vt 0.06666667 1
vt 0 0.9058824
vt 0.06666667 0.9058824
vt 0 1
vt 0.06666667 1
vt 0 0.9058824
vt 0.06666667 0.9058824
vt 0 1
vt 0.06666667 1
vt 0 0.9058824
vt 0.06666667 0.9058824
vt 0 1
vt 0.06666667 1
vt 0 0.9058824
vt 0.06666667 0.9058824
vt 0 1
vt 0.06666667 1
vt 0 0.9058824
vt 0.06666667 0.9058824
vt 0 1
vt 0.06666667 1
vt 0 0.9058824
vt 0.06666667 0.9058824
vt 0 1
vt 0.06666667 1
vt 0 0.9058824
vt 0.06666667 0.9058824
vt 0 1
vt 0.06666667 1
vt 0 0.9058824
vt 0.06666667 0.9058824
vt 0 1
vt 0.06666667 1
vt 0 0.9058824
vt 0.06666667 0.9058824
vt 0 1
vt 0.06666667 1
vt 0 0.9058824
vt 0.06666667 0.9058824
vt 0 1
vt 0.06666667 1
vt 0 0.9058824
vt 0.06666667 0.9058824
vt 0 1
vt 0.06666667 1
vt 0 0.9058824
vt 0.06666667 0.9058824
vt 0 1
vt 0.06666667 1
vt 0 0.9058824
vt 0.06666667 0.9058824
vt 0 1
vt 0.06666667 1
vt 0 0.9058824
vt 0.06666667 0.9058824
vt 0 1
vt 0.06666667 1
vt 0 0.9058824
vt 0.06666667 0.9058824
vt 0 1
vt 0.06666667 1
vn 0 1 0
vn 0 1 0
vn 0 1 0
vn 0 1 0
vn 0 1 0
vn 0 1 0
vn 0 1 0
vn 0 1 0
vn 0 1 0
vn 0 1 0
vn 0 1 0
vn 0 1 0
vn 0 1 0
vn 0 1 0
vn 0 1 0
vn 0 1 0
vn 0 1 0
vn 0 1 0
vn 0 1 0
vn 0 1 0
vn 0 1 0
vn 0 1 0
vn 0 1 0
vn 0 1 0
vn 0 1 0
vn 0 1 0
vn 0 1 0
vn 0 1 0
vn 0 1 0
vn 0 1 0
vn 0 1 0
vn 0 1 0
vn 0 1 0
vn 0 1 0
vn 0 1 0
vn 0 1 0
vn 0 1 0
vn 0 1 0
vn 0 1 0
vn 0 1 0
vn 0 1 0
vn 0 1 0
vn 0 1 0
vn 0 1 0
vn 0 1 0
vn 0 1 0
vn 0 1 0
vn 0 1 0
vn 0 1 0
vn 0 1 0
vn 0 1 0
vn 0 1 0
vn 0 1 0
vn 0 1 0
vn 0 1 0
vn 0 1 0
vn 0 1 0
vn 0 1 0
vn 0 1 0
vn 0 1 0
vn 0 1 0
vn 0 1 0
vn 0 1 0
vn 0 1 0
vn 0 1 0
vn 0 1 0
vn 0 1 0
vn 0 1 0
vn 0 1 0
vn 0 1 0
vn 0 1 0
vn 0 1 0
vn 0 1 0
vn 0 1 0
vn 0 1 0
vn 0 1 0
vn 0 1 0
vn 0 1 0
vn 0 1 0
vn 0 1 0
vn 0 1 0
vn 0 1 0
vn 0 1 0
vn 0 1 0
vn 0 1 0
vn 0 1 0
vn 0 1 0
vn 0 1 0
vn 0 1 0
vn 0 1 0
vn 0 1 0
vn 0 1 0
vn 0 1 0
vn 0 1 0
vn 0 1 0
vn 0 1 0
vn 0 1 0
vn 0 1 0
vn 0 1 0
vn 0 1 0
vn 0 1 0
vn 0 1 0
vn 0 1 0
vn 0 1 0
vn 0 1 0
vn 0 1 0
vn 0 1 0
vn 0 1 0
vn 0 1 0
vn 0 1 0
vn 0 1 0
vn 0 1 0
vn 0 1 0
vn 0 1 0
vn 0 1 0
vn 0 1 0
vn 0 1 0
vn 0 1 0
vn 0 1 0
vn 0 1 0
vn 0 1 0
vn 0 1 0
vn 0 1 0
vn 0 1 0
vn 0 1 0
vn 0 1 0
vn 0 1 0
vn 0 1 0
vn 0 1 0
vn 0 1 0
vn 0 1 0
vn 0 1 0
vn 0 1 0
vn 0 1 0
vn 0 1 0
vn 0 1 0
vn 0 1 0
vn 0 1 0
vn 0 1 0
vn 0 1 0
vn 0 1 0
vn 0 1 0
vn 0 1 0
vn 0 1 0
vn 0 1 0
vn 0 1 0
vn 0 1 0
vn 0 1 0
vn 0 1 0
vn 0 1 0
vn 0 1 0
vn 0 1 0
vn 0 1 0
vn 0 1 0
vn 0 1 0
vn 0 1 0
vn 0 1 0
vn 0 1 0
vn 0 1 0
vn 0 1 0
vn 0 1 0
vn 0 1 0
vn 0 1 0
vn 0 1 0
vn 0 1 0
vn 0 1 0
vn 0 1 0
vn 0 1 0
vn 0 1 0
vn 0 1 0
vn 0 1 0
vn 0 1 0
vn 0 1 0
vn 0 1 0
vn 0 1 0
vn 0 1 0
vn 0 1 0
vn 0 1 0
vn 0 1 0
vn 0 1 0
vn 0 1 0
vn 0 1 0
vn 0 1 0
vn 0 1 0
vn 0 1 0
vn 0 1 0
vn 0 1 0
vn 0 1 0
vn 0 1 0
vn 0 1 0
vn 0 1 0
vn 0 1 0
vn 0 1 0
vn 0 1 0
vn 0 1 0
vn 0 1 0
vn 0 1 0
vn 0 1 0
vn 0 1 0
vn 0 1 0
vn 0 1 0
vn 0 1 0
vn 0 1 0
vn 0 1 0
vn 0 1 0
vn 0 1 0
vn 0 1 0
vn 0 1 0
vn 0 1 0
vn 0 1 0
vn 0 1 0
vn 0 1 0
vn 0 1 0
vn 0 1 0
vn 0 1 0
vn 0 1 0
vn 0 1 0
vn 0 1 0
vn 0 1 0
vn 0 1 0
vn 0 1 0
vn 0 1 0
vn 0 1 0
vn 0 1 0
vn 0 1 0
vn 0 1 0
vn 0 1 0
vn 0 1 0
vn 0 1 0
vn 0 1 0
vn 0 1 0
vn 0 1 0
vn 0 1 0
vn 0 1 0
vn 0 1 0
vn 0 1 0
vn 0 1 0
vn 0 1 0
vn 0 1 0
vn 0 1 0
vn 0 1 0
vn 0 1 0
vn 0 1 0
vn 0 1 0
vn 0 1 0
vn 0 1 0
vn 0 1 0
vn 0 1 0
vn 0 1 0
vn 0 1 0
vn 0 1 0
vn 0 1 0
vn 0 1 0
vn 0 1 0
vn 0 1 0
vn 0 1 0
vn 0 1 0
vn 0 1 0
vn 0 1 0
vn 0 1 0
vn 0 1 0
vn 0 1 0
vn 0 1 0
vn 0 1 0
vn 0 1 0
vn 0 1 0
vn 0 1 0
vn 0 1 0
vn 0 1 0
vn 0 1 0
vn 0 1 0
vn 0 1 0
vn 0 1 0
vn 0 1 0
vn 0 1 0
vn 0 1 0
vn 0 1 0
vn 0 1 0
vn 0 1 0
vn 0 1 0
g Grass_0_Cluster126_0
f 2/2/2 3/3/3 1/1/1
f 2/2/2 4/4/4 3/3/3
f 6/6/6 7/7/7 5/5/5
f 6/6/6 8/8/8 7/7/7
f 10/10/10 11/11/11 9/9/9
f 10/10/10 12/12/12 11/11/11
f 14/14/14 15/15/15 13/13/13
f 14/14/14 16/16/16 15/15/15
f 18/18/18 19/19/19 17/17/17
f 18/18/18 20/20/20 19/19/19
f 22/22/22 23/23/23 21/21/21
f 22/22/22 24/24/24 23/23/23
f 26/26/26 27/27/27 25/25/25
f 26/26/26 28/28/28 27/27/27
f 30/30/30 31/31/31 29/29/29
f 30/30/30 32/32/32 31/31/31
f 34/34/34 35/35/35 33/33/33
f 34/34/34 36/36/36 35/35/35
f 38/38/38 39/39/39 37/37/37
f 38/38/38 40/40/40 39/39/39
f 42/42/42 43/43/43 41/41/41
f 42/42/42 44/44/44 43/43/43
f 46/46/46 47/47/47 45/45/45
f 46/46/46 48/48/48 47/47/47
f 50/50/50 51/51/51 49/49/49
f 50/50/50 52/52/52 51/51/51
f 54/54/54 55/55/55 53/53/53
f 54/54/54 56/56/56 55/55/55
f 58/58/58 59/59/59 57/57/57
f 58/58/58 60/60/60 59/59/59
f 62/62/62 63/63/63 61/61/61
f 62/62/62 64/64/64 63/63/63
f 66/66/66 67/67/67 65/65/65
f 66/66/66 68/68/68 67/67/67
f 70/70/70 71/71/71 69/69/69
f 70/70/70 72/72/72 71/71/71
f 74/74/74 75/75/75 73/73/73
f 74/74/74 76/76/76 75/75/75
f 78/78/78 79/79/79 77/77/77
f 78/78/78 80/80/80 79/79/79
f 82/82/82 83/83/83 81/81/81
f 82/82/82 84/84/84 83/83/83
f 86/86/86 87/87/87 85/85/85
f 86/86/86 88/88/88 87/87/87
f 90/90/90 91/91/91 89/89/89
f 90/90/90 92/92/92 91/91/91
f 94/94/94 95/95/95 93/93/93
f 94/94/94 96/96/96 95/95/95
f 98/98/98 99/99/99 97/97/97
f 98/98/98 100/100/100 99/99/99
f 102/102/102 103/103/103 101/101/101
f 102/102/102 104/104/104 103/103/103
f 106/106/106 107/107/107 105/105/105
f 106/106/106 108/108/108 107/107/107
f 110/110/110 111/111/111 109/109/109
f 110/110/110 112/112/112 111/111/111
f 114/114/114 115/115/115 113/113/113
f 114/114/114 116/116/116 115/115/115
f 118/118/118 119/119/119 117/117/117
f 118/118/118 120/120/120 119/119/119
f 122/122/122 123/123/123 121/121/121
f 122/122/122 124/124/124 123/123/123
f 126/126/126 127/127/127 125/125/125
f 126/126/126 128/128/128 127/127/127
f 130/130/130 131/131/131 129/129/129
f 130/130/130 132/132/132 131/131/131
f 134/134/134 135/135/135 133/133/133
f 134/134/134 136/136/136 135/135/135
f 138/138/138 139/139/139 137/137/137
f 138/138/138 140/140/140 139/139/139
f 142/142/142 143/143/143 141/141/141
f 142/142/142 144/144/144 143/143/143
f 146/146/146 147/147/147 145/145/145
f 146/146/146 148/148/148 147/147/147
f 150/150/150 151/151/151 149/149/149
f 150/150/150 152/152/152 151/151/151
f 154/154/154 155/155/155 153/153/153
f 154/154/154 156/156/156 155/155/155
f 158/158/158 159/159/159 157/157/157
f 158/158/158 160/160/160 159/159/159
f 162/162/162 163/163/163 161/161/161
f 162/162/162 164/164/164 163/163/163
f 166/166/166 167/167/167 165/165/165
f 166/166/166 168/168/168 167/167/167
f 170/170/170 171/171/171 169/169/169
f 170/170/170 172/172/172 171/171/171
f 174/174/174 175/175/175 173/173/173
f 174/174/174 176/176/176 175/175/175
f 178/178/178 179/179/179 177/177/177
f 178/178/178 180/180/180 179/179/179
f 182/182/182 183/183/183 181/181/181
f 182/182/182 184/184/184 183/183/183
f 186/186/186 187/187/187 185/185/185
f 186/186/186 188/188/188 187/187/187
f 190/190/190 191/191/191 189/189/189
f 190/190/190 192/192/192 191/191/191
f 194/194/194 195/195/195 193/193/193
f 194/194/194 196/196/196 195/195/195
f 198/198/198 199/199/199 197/197/197
f 198/198/198 200/200/200 199/199/199
f 202/202/202 203/203/203 201/201/201
f 202/202/202 204/204/204 203/203/203
f 206/206/206 207/207/207 205/205/205
f 206/206/206 208/208/208 207/207/207
f 210/210/210 211/211/211 209/209/209
f 210/210/210 212/212/212 211/211/211
f 214/214/214 215/215/215 213/213/213
f 214/214/214 216/216/216 215/215/215
f 218/218/218 219/219/219 217/217/217
f 218/218/218 220/220/220 219/219/219
f 222/222/222 223/223/223 221/221/221
f 222/222/222 224/224/224 223/223/223
f 226/226/226 227/227/227 225/225/225
f 226/226/226 228/228/228 227/227/227
f 230/230/230 231/231/231 229/229/229
f 230/230/230 232/232/232 231/231/231
f 234/234/234 235/235/235 233/233/233
f 234/234/234 236/236/236 235/235/235
f 238/238/238 239/239/239 237/237/237
f 238/238/238 240/240/240 239/239/239
f 242/242/242 243/243/243 241/241/241
f 242/242/242 244/244/244 243/243/243
f 246/246/246 247/247/247 245/245/245
f 246/246/246 248/248/248 247/247/247
f 250/250/250 251/251/251 249/249/249
f 250/250/250 252/252/252 251/251/251
f 254/254/254 255/255/255 253/253/253
f 254/254/254 256/256/256 255/255/255
f 258/258/258 259/259/259 257/257/257
f 258/258/258 260/260/260 259/259/259
f 262/262/262 263/263/263 261/261/261
f 262/262/262 264/264/264 263/263/263
f 266/266/266 267/267/267 265/265/265
f 266/266/266 268/268/268 267/267/267
f 270/270/270 271/271/271 269/269/269
f 270/270/270 272/272/272 271/271/271
f 274/274/274 275/275/275 273/273/273
f 274/274/274 276/276/276 275/275/275
f 278/278/278 279/279/279 277/277/277
f 278/278/278 280/280/280 279/279/279
