g Grass_0_Cluster227
v 83.31078 0.1056519 322.8381
v 82.09598 0.1056519 322.8381
v 83.31078 0.1056519 324.053
v 82.09598 0.1056519 324.053
v 68.32822 0.1056519 322.8381
v 67.51834 0.1056519 322.8381
v 68.32822 0.1056519 324.053
v 67.51834 0.1056519 324.053
v 84.12064 0.1056519 322.4332
v 83.31078 0.1056519 322.4332
v 84.12064 0.1056519 324.053
v 83.31078 0.1056519 324.053
v 89.78972 0.1056519 322.4332
v 88.97985 0.1056519 322.4332
v 89.78972 0.1056519 323.648
v 88.97985 0.1056519 323.648
v 69.54301 0.1056519 322.0283
v 68.73315 0.1056519 322.0283
v 69.54301 0.1056519 323.2431
v 68.73315 0.1056519 323.2431
v 87.36012 0.1056519 321.6234
v 86.55025 0.1056519 321.6234
v 87.36012 0.1056519 322.8381
v 86.55025 0.1056519 322.8381
v 88.57492 0.1056519 321.2184
v 87.76505 0.1056519 321.2184
v 88.57492 0.1056519 322.4332
v 87.76505 0.1056519 322.4332
v 83.31078 0.1056519 320.8135
v 82.50091 0.1056519 320.8135
v 83.31078 0.1056519 322.0283
v 82.50091 0.1056519 322.0283
v 81.2861 0.1056519 320.4086
v 80.47623 0.1056519 320.4086
v 81.2861 0.1056519 321.6234
v 80.47623 0.1056519 321.6234
v 80.0713 0.1056519 320.0036
v 78.8565 0.1056519 320.0036
v 80.0713 0.1056519 321.6234
v 78.8565 0.1056519 321.6234
v 69.54301 0.1056519 320.0036
v 68.73315 0.1056519 320.0036
v 69.54301 0.1056519 321.2184
v 68.73315 0.1056519 321.2184
v 85.74038 0.1056519 318.7888
v 84.93051 0.1056519 318.7888
v 85.74038 0.1056519 320.0036
v 84.93051 0.1056519 320.0036
v 77.23676 0.1056519 317.1691
v 76.4269 0.1056519 317.1691
v 77.23676 0.1056519 318.3839
v 76.4269 0.1056519 318.3839
v 79.26144 0.1056519 316.7642
v 78.45157 0.1056519 316.7642
v 79.26144 0.1056519 317.9789
v 78.45157 0.1056519 317.9789
v 75.61703 0.1056519 315.9543
v 74.40222 0.1056519 315.9543
v 75.61703 0.1056519 317.574
v 74.40222 0.1056519 317.574
v 79.66637 0.1056519 315.9543
v 78.8565 0.1056519 315.9543
v 79.66637 0.1056519 317.1691
v 78.8565 0.1056519 317.1691
v 77.6417 0.1056519 314.3345
v 76.4269 0.1056519 314.3345
v 77.6417 0.1056519 315.5493
v 76.4269 0.1056519 315.5493
v 60.63447 0.1056519 313.9296
v 59.8246 0.1056519 313.9296
v 60.63447 0.1056519 314.7394
v 59.8246 0.1056519 314.7394
v 67.51834 0.1056519 313.5247
v 66.70848 0.1056519 313.5247
v 67.51834 0.1056519 314.7394
v 66.70848 0.1056519 314.7394
v 62.2542 0.1056519 310.6901
v 61.44434 0.1056519 310.6901
v 62.2542 0.1056519 312.3099
v 61.44434 0.1056519 312.3099
v 62.65913 0.1056519 310.6901
v 61.84927 0.1056519 310.6901
v 62.65913 0.1056519 311.9049
v 61.84927 0.1056519 311.9049
v 65.89861 0.1056519 309.4753
v 65.08875 0.1056519 309.4753
v 65.89861 0.1056519 310.6901
v 65.08875 0.1056519 310.6901
v 80.0713 0.1056519 305.8309
v 79.26144 0.1056519 305.8309
v 80.0713 0.1056519 307.0457
v 79.26144 0.1056519 307.0457
v 88.97985 0.1056519 305.0211
v 87.76505 0.1056519 305.0211
v 88.97985 0.1056519 306.2358
v 87.76505 0.1056519 306.2358
v 61.84927 0.1056519 304.6161
v 60.63447 0.1056519 304.6161
v 61.84927 0.1056519 306.2358
v 60.63447 0.1056519 306.2358
v 90.19466 0.1056519 304.2112
v 89.38479 0.1056519 304.2112
v 90.19466 0.1056519 305.426
v 89.38479 0.1056519 305.426
v 87.36012 0.1056519 303.8063
v 86.55025 0.1056519 303.8063
v 87.36012 0.1056519 305.0211
v 86.55025 0.1056519 305.0211
v 89.38479 0.1056519 303.4013
v 88.57492 0.1056519 303.4013
v 89.38479 0.1056519 304.6161
v 88.57492 0.1056519 304.6161
v 86.55025 0.1056519 302.9964
v 85.33545 0.1056519 302.9964
v 86.55025 0.1056519 304.2112
v 85.33545 0.1056519 304.2112
v 64.68381 0.1056519 297.7322
v 63.87394 0.1056519 297.7322
v 64.68381 0.1056519 298.947
v 63.87394 0.1056519 298.947
v 65.89861 0.1056519 295.7076
v 64.68381 0.1056519 295.7076
v 65.89861 0.1056519 296.9224
v 64.68381 0.1056519 296.9224
v 78.45157 0.1056519 295.3026
v 77.6417 0.1056519 295.3026
v 78.45157 0.1056519 296.5175
v 77.6417 0.1056519 296.5175
v 65.89861 0.1056519 294.4927
v 65.08875 0.1056519 294.4927
v 65.89861 0.1056519 295.7076
v 65.08875 0.1056519 295.7076
vt 0 0.9058824
vt 0.06666667 0.9058824
vt 0 1
vt 0.06666667 1
vt 0 0.9058824
vt 0.06666667 0.9058824
vt 0 1
vt 0.06666667 1
vt 0 0.9058824
vt 0.06666667 0.9058824
vt 0 1
vt 0.06666667 1
vt 0 0.9058824
vt 0.06666667 0.9058824
vt 0 1
vt 0.06666667 1
vt 0 0.9058824
vt 0.06666667 0.9058824
vt 0 1
vt 0.06666667 1
vt 0 0.9058824
vt 0.06666667 0.9058824
vt 0 1
vt 0.06666667 1
vt 0 0.9058824
vt 0.06666667 0.9058824
vt 0 1
vt 0.06666667 1
vt 0 0.9058824
vt 0.06666667 0.9058824
vt 0 1
vt 0.06666667 1
vt 0 0.9058824
vt 0.06666667 0.9058824
vt 0 1
vt 0.06666667 1
vt 0 0.9058824
vt 0.06666667 0.9058824
vt 0 1
vt 0.06666667 1
vt 0 0.9058824
vt 0.06666667 0.9058824
vt 0 1
vt 0.06666667 1
vt 0 0.9058824
vt 0.06666667 0.9058824
vt 0 1
vt 0.06666667 1
vt 0 0.9058824
vt 0.06666667 0.9058824
vt 0 1
vt 0.06666667 1
vt 0 0.9058824
vt 0.06666667 0.9058824
vt 0 1
vt 0.06666667 1
vt 0 0.9058824
vt 0.06666667 0.9058824
vt 0 1
vt 0.06666667 1
vt 0 0.9058824
vt 0.06666667 0.9058824
vt 0 1
vt 0.06666667 1
vt 0 0.9058824
vt 0.06666667 0.9058824
vt 0 1
vt 0.06666667 1
vt 0 0.9058824
vt 0.06666667 0.9058824
vt 0 1
vt 0.06666667 1
vt 0 0.9058824
vt 0.06666667 0.9058824
vt 0 1
vt 0.06666667 1
vt 0 0.9058824
vt 0.06666667 0.9058824
vt 0 1
vt 0.06666667 1
vt 0 0.9058824
vt 0.06666667 0.9058824
vt 0 1
vt 0.06666667 1
vt 0 0.9058824
vt 0.06666667 0.9058824
vt 0 1
vt 0.06666667 1
vt 0 0.9058824
vt 0.06666667 0.9058824
vt 0 1
vt 0.06666667 1
vt 0 0.9058824
vt 0.06666667 0.9058824
vt 0 1
vt 0.06666667 1
vt 0 0.9058824
vt 0.06666667 0.9058824
vt 0 1
vt 0.06666667 1
vt 0 0.9058824
vt 0.06666667 0.9058824
vt 0 1
vt 0.06666667 1
vt 0 0.9058824
vt 0.06666667 0.9058824
vt 0 1
vt 0.06666667 1
vt 0 0.9058824
vt 0.06666667 0.9058824
vt 0 1
vt 0.06666667 1
vt 0 0.9058824
vt 0.06666667 0.9058824
vt 0 1
vt 0.06666667 1
vt 0 0.9058824
vt 0.06666667 0.9058824
vt 0 1
vt 0.06666667 1
vt 0 0.9058824
vt 0.06666667 0.9058824
vt 0 1
vt 0.06666667 1
vt 0 0.9058824
vt 0.06666667 0.9058824
vt 0 1
vt 0.06666667 1
vt 0 0.9058824
vt 0.06666667 0.9058824
vt 0 1
vt 0.06666667 1
vn 0 1 0
vn 0 1 0
vn 0 1 0
vn 0 1 0
vn 0 1 0
vn 0 1 0
vn 0 1 0
vn 0 1 0
vn 0 1 0
vn 0 1 0
vn 0 1 0
vn 0 1 0
vn 0 1 0
vn 0 1 0
vn 0 1 0
vn 0 1 0
vn 0 1 0
vn 0 1 0
vn 0 1 0
vn 0 1 0
vn 0 1 0
vn 0 1 0
vn 0 1 0
vn 0 1 0
vn 0 1 0
vn 0 1 0
vn 0 1 0
vn 0 1 0
vn 0 1 0
vn 0 1 0
vn 0 1 0
vn 0 1 0
vn 0 1 0
vn 0 1 0
vn 0 1 0
vn 0 1 0
vn 0 1 0
vn 0 1 0
vn 0 1 0
vn 0 1 0
vn 0 1 0
vn 0 1 0
vn 0 1 0
vn 0 1 0
vn 0 1 0
vn 0 1 0
vn 0 1 0
vn 0 1 0
vn 0 1 0
vn 0 1 0
vn 0 1 0
vn 0 1 0
vn 0 1 0
vn 0 1 0
vn 0 1 0
vn 0 1 0
vn 0 1 0
vn 0 1 0
vn 0 1 0
vn 0 1 0
vn 0 1 0
vn 0 1 0
vn 0 1 0
vn 0 1 0
vn 0 1 0
vn 0 1 0
vn 0 1 0
vn 0 1 0
vn 0 1 0
vn 0 1 0
vn 0 1 0
vn 0 1 0
vn 0 1 0
vn 0 1 0
vn 0 1 0
vn 0 1 0
vn 0 1 0
vn 0 1 0
vn 0 1 0
vn 0 1 0
vn 0 1 0
vn 0 1 0
vn 0 1 0
vn 0 1 0
vn 0 1 0
vn 0 1 0
vn 0 1 0
vn 0 1 0
vn 0 1 0
vn 0 1 0
vn 0 1 0
vn 0 1 0
vn 0 1 0
vn 0 1 0
vn 0 1 0
vn 0 1 0
vn 0 1 0
vn 0 1 0
vn 0 1 0
vn 0 1 0
vn 0 1 0
vn 0 1 0
vn 0 1 0
vn 0 1 0
vn 0 1 0
vn 0 1 0
vn 0 1 0
vn 0 1 0
vn 0 1 0
vn 0 1 0
vn 0 1 0
vn 0 1 0
vn 0 1 0
vn 0 1 0
vn 0 1 0
vn 0 1 0
vn 0 1 0
vn 0 1 0
vn 0 1 0
vn 0 1 0
vn 0 1 0
vn 0 1 0
vn 0 1 0
vn 0 1 0
vn 0 1 0
vn 0 1 0
vn 0 1 0
vn 0 1 0
vn 0 1 0
vn 0 1 0
vn 0 1 0
vn 0 1 0
g Grass_0_Cluster227_0
f 2/2/2 3/3/3 1/1/1
f 2/2/2 4/4/4 3/3/3
f 6/6/6 7/7/7 5/5/5
f 6/6/6 8/8/8 7/7/7
f 10/10/10 11/11/11 9/9/9
f 10/10/10 12/12/12 11/11/11
f 14/14/14 15/15/15 13/13/13
f 14/14/14 16/16/16 15/15/15
f 18/18/18 19/19/19 17/17/17
f 18/18/18 20/20/20 19/19/19
f 22/22/22 23/23/23 21/21/21
f 22/22/22 24/24/24 23/23/23
f 26/26/26 27/27/27 25/25/25
f 26/26/26 28/28/28 27/27/27
f 30/30/30 31/31/31 29/29/29
f 30/30/30 32/32/32 31/31/31
f 34/34/34 35/35/35 33/33/33
f 34/34/34 36/36/36 35/35/35
f 38/38/38 39/39/39 37/37/37
f 38/38/38 40/40/40 39/39/39
f 42/42/42 43/43/43 41/41/41
f 42/42/42 44/44/44 43/43/43
f 46/46/46 47/47/47 45/45/45
f 46/46/46 48/48/48 47/47/47
f 50/50/50 51/51/51 49/49/49
f 50/50/50 52/52/52 51/51/51
f 54/54/54 55/55/55 53/53/53
f 54/54/54 56/56/56 55/55/55
f 58/58/58 59/59/59 57/57/57
f 58/58/58 60/60/60 59/59/59
f 62/62/62 63/63/63 61/61/61
f 62/62/62 64/64/64 63/63/63
f 66/66/66 67/67/67 65/65/65
f 66/66/66 68/68/68 67/67/67
f 70/70/70 71/71/71 69/69/69
f 70/70/70 72/72/72 71/71/71
f 74/74/74 75/75/75 73/73/73
f 74/74/74 76/76/76 75/75/75
f 78/78/78 79/79/79 77/77/77
f 78/78/78 80/80/80 79/79/79
f 82/82/82 83/83/83 81/81/81
f 82/82/82 84/84/84 83/83/83
f 86/86/86 87/87/87 85/85/85
f 86/86/86 88/88/88 87/87/87
f 90/90/90 91/91/91 89/89/89
f 90/90/90 92/92/92 91/91/91
f 94/94/94 95/95/95 93/93/93
f 94/94/94 96/96/96 95/95/95
f 98/98/98 99/99/99 97/97/97
f 98/98/98 100/100/100 99/99/99
f 102/102/102 103/103/103 101/101/101
f 102/102/102 104/104/104 103/103/103
f 106/106/106 107/107/107 105/105/105
f 106/106/106 108/108/108 107/107/107
f 110/110/110 111/111/111 109/109/109
f 110/110/110 112/112/112 111/111/111
f 114/114/114 115/115/115 113/113/113
f 114/114/114 116/116/116 115/115/115
f 118/118/118 119/119/119 117/117/117
f 118/118/118 120/120/120 119/119/119
f 122/122/122 123/123/123 121/121/121
f 122/122/122 124/124/124 123/123/123
f 126/126/126 127/127/127 125/125/125
f 126/126/126 128/128/128 127/127/127
f 130/130/130 131/131/131 129/129/129
f 130/130/130 132/132/132 131/131/131
