g Grass_0_Cluster121
v 242.3447 -0.0166626 172.084
v 241.4777 -0.0166626 172.084
v 242.3447 -0.0166626 173.3845
v 241.4777 -0.0166626 173.3845
v 254.4828 -0.0166626 171.2169
v 253.6158 -0.0166626 171.2169
v 254.4828 -0.0166626 172.5175
v 253.6158 -0.0166626 172.5175
v 244.9458 -0.0166626 170.3499
v 244.0788 -0.0166626 170.3499
v 244.9458 -0.0166626 171.6505
v 244.0788 -0.0166626 171.6505
v 256.6503 -0.0166626 169.9164
v 255.7833 -0.0166626 169.9164
v 256.6503 -0.0166626 170.7834
v 255.7833 -0.0166626 170.7834
v 251.8818 -0.0166626 166.0149
v 251.0148 -0.0166626 166.0149
v 251.8818 -0.0166626 166.8819
v 251.0148 -0.0166626 166.8819
v 253.6158 -0.0166626 163.4139
v 252.7488 -0.0166626 163.4139
v 253.6158 -0.0166626 164.7144
v 252.7488 -0.0166626 164.7144
v 251.4483 -0.0166626 162.9804
v 250.5813 -0.0166626 162.9804
v 251.4483 -0.0166626 164.2809
v 250.5813 -0.0166626 164.2809
v 251.0148 -0.0166626 162.5469
v 250.1478 -0.0166626 162.5469
v 251.0148 -0.0166626 163.8474
v 250.1478 -0.0166626 163.8474
v 253.1823 -0.0166626 162.1134
v 252.3153 -0.0166626 162.1134
v 253.1823 -0.0166626 162.9804
v 252.3153 -0.0166626 162.9804
v 251.0148 -0.0166626 161.6799
v 250.1478 -0.0166626 161.6799
v 251.0148 -0.0166626 162.9804
v 250.1478 -0.0166626 162.9804
v 251.8818 -0.0166626 161.2464
v 251.0148 -0.0166626 161.2464
v 251.8818 -0.0166626 162.5469
v 251.0148 -0.0166626 162.5469
v 252.7488 -0.0166626 159.9459
v 251.8818 -0.0166626 159.9459
v 252.7488 -0.0166626 161.2464
v 251.8818 -0.0166626 161.2464
v 267.9214 -0.0166626 159.5124
v 267.0544 -0.0166626 159.5124
v 267.9214 -0.0166626 160.8129
v 267.0544 -0.0166626 160.8129
v 269.6554 -0.0166626 158.2119
v 268.7884 -0.0166626 158.2119
v 269.6554 -0.0166626 159.5124
v 268.7884 -0.0166626 159.5124
v 270.0889 -0.0166626 156.0443
v 269.2219 -0.0166626 156.0443
v 270.0889 -0.0166626 157.3448
v 269.2219 -0.0166626 157.3448
v 269.2219 -0.0166626 155.1773
v 268.3549 -0.0166626 155.1773
v 269.2219 -0.0166626 156.4778
v 268.3549 -0.0166626 156.4778
v 264.4534 -0.0166626 153.4433
v 263.5864 -0.0166626 153.4433
v 264.4534 -0.0166626 154.7438
v 263.5864 -0.0166626 154.7438
v 264.8869 -0.0166626 151.7093
v 264.0199 -0.0166626 151.7093
v 264.8869 -0.0166626 153.0098
v 264.0199 -0.0166626 153.0098
v 249.7143 -0.0166626 149.5418
v 249.2808 -0.0166626 149.5418
v 249.7143 -0.0166626 150.8423
v 249.2808 -0.0166626 150.8423
v 260.9854 -0.0166626 149.1083
v 260.1184 -0.0166626 149.1083
v 260.9854 -0.0166626 150.4088
v 260.1184 -0.0166626 150.4088
v 258.8178 -0.0166626 148.6748
v 257.9508 -0.0166626 148.6748
v 258.8178 -0.0166626 149.9753
v 257.9508 -0.0166626 149.9753
v 263.1529 -0.0166626 148.6748
v 261.8524 -0.0166626 148.6748
v 263.1529 -0.0166626 149.9753
v 261.8524 -0.0166626 149.9753
v 259.2513 -0.0166626 147.8078
v 258.3843 -0.0166626 147.8078
v 259.2513 -0.0166626 149.1083
v 258.3843 -0.0166626 149.1083
v 260.5519 -0.0166626 147.8078
v 259.6849 -0.0166626 147.8078
v 260.5519 -0.0166626 149.1083
v 259.6849 -0.0166626 149.1083
v 260.5519 -0.0166626 147.3743
v 259.6849 -0.0166626 147.3743
v 260.5519 -0.0166626 148.6748
v 259.6849 -0.0166626 148.6748
v 262.2859 -0.0166626 146.9408
v 261.4189 -0.0166626 146.9408
v 262.2859 -0.0166626 148.2413
v 261.4189 -0.0166626 148.2413
v 264.4534 -0.0166626 146.5073
v 263.5864 -0.0166626 146.5073
v 264.4534 -0.0166626 147.3743
v 263.5864 -0.0166626 147.3743
v 260.9854 -0.0166626 145.6403
v 260.1184 -0.0166626 145.6403
v 260.9854 -0.0166626 146.9408
v 260.1184 -0.0166626 146.9408
v 251.0148 -0.0166626 143.9063
v 250.1478 -0.0166626 143.9063
v 251.0148 -0.0166626 145.2068
v 250.1478 -0.0166626 145.2068
v 264.0199 -0.0166626 143.4727
v 263.1529 -0.0166626 143.4727
v 264.0199 -0.0166626 144.3398
v 263.1529 -0.0166626 144.3398
vt 0 0.9058824
vt 0.06666667 0.9058824
vt 0 1
vt 0.06666667 1
vt 0 0.9058824
vt 0.06666667 0.9058824
vt 0 1
vt 0.06666667 1
vt 0 0.9058824
vt 0.06666667 0.9058824
vt 0 1
vt 0.06666667 1
vt 0 0.9058824
vt 0.06666667 0.9058824
vt 0 1
vt 0.06666667 1
vt 0 0.9058824
vt 0.06666667 0.9058824
vt 0 1
vt 0.06666667 1
vt 0 0.9058824
vt 0.06666667 0.9058824
vt 0 1
vt 0.06666667 1
vt 0 0.9058824
vt 0.06666667 0.9058824
vt 0 1
vt 0.06666667 1
vt 0 0.9058824
vt 0.06666667 0.9058824
vt 0 1
vt 0.06666667 1
vt 0 0.9058824
vt 0.06666667 0.9058824
vt 0 1
vt 0.06666667 1
vt 0 0.9058824
vt 0.06666667 0.9058824
vt 0 1
vt 0.06666667 1
vt 0 0.9058824
vt 0.06666667 0.9058824
vt 0 1
vt 0.06666667 1
vt 0 0.9058824
vt 0.06666667 0.9058824
vt 0 1
vt 0.06666667 1
vt 0 0.9058824
vt 0.06666667 0.9058824
vt 0 1
vt 0.06666667 1
vt 0 0.9058824
vt 0.06666667 0.9058824
vt 0 1
vt 0.06666667 1
vt 0 0.9058824
vt 0.06666667 0.9058824
vt 0 1
vt 0.06666667 1
vt 0 0.9058824
vt 0.06666667 0.9058824
vt 0 1
vt 0.06666667 1
vt 0 0.9058824
vt 0.06666667 0.9058824
vt 0 1
vt 0.06666667 1
vt 0 0.9058824
vt 0.06666667 0.9058824
vt 0 1
vt 0.06666667 1
vt 0 0.9058824
vt 0.06666667 0.9058824
vt 0 1
vt 0.06666667 1
vt 0 0.9058824
vt 0.06666667 0.9058824
vt 0 1
vt 0.06666667 1
vt 0 0.9058824
vt 0.06666667 0.9058824
vt 0 1
vt 0.06666667 1
vt 0 0.9058824
vt 0.06666667 0.9058824
vt 0 1
vt 0.06666667 1
vt 0 0.9058824
vt 0.06666667 0.9058824
vt 0 1
vt 0.06666667 1
vt 0 0.9058824
vt 0.06666667 0.9058824
vt 0 1
vt 0.06666667 1
vt 0 0.9058824
vt 0.06666667 0.9058824
vt 0 1
vt 0.06666667 1
vt 0 0.9058824
vt 0.06666667 0.9058824
vt 0 1
vt 0.06666667 1
vt 0 0.9058824
vt 0.06666667 0.9058824
vt 0 1
vt 0.06666667 1
vt 0 0.9058824
vt 0.06666667 0.9058824
vt 0 1
vt 0.06666667 1
vt 0 0.9058824
vt 0.06666667 0.9058824
vt 0 1
vt 0.06666667 1
vt 0 0.9058824
vt 0.06666667 0.9058824
vt 0 1
vt 0.06666667 1
vn 0 1 0
vn 0 1 0
vn 0 1 0
vn 0 1 0
vn 0 1 0
vn 0 1 0
vn 0 1 0
vn 0 1 0
vn 0 1 0
vn 0 1 0
vn 0 1 0
vn 0 1 0
vn 0 1 0
vn 0 1 0
vn 0 1 0
vn 0 1 0
vn 0 1 0
vn 0 1 0
vn 0 1 0
vn 0 1 0
vn 0 1 0
vn 0 1 0
vn 0 1 0
vn 0 1 0
vn 0 1 0
vn 0 1 0
vn 0 1 0
vn 0 1 0
vn 0 1 0
vn 0 1 0
vn 0 1 0
vn 0 1 0
vn 0 1 0
vn 0 1 0
vn 0 1 0
vn 0 1 0
vn 0 1 0
vn 0 1 0
vn 0 1 0
vn 0 1 0
vn 0 1 0
vn 0 1 0
vn 0 1 0
vn 0 1 0
vn 0 1 0
vn 0 1 0
vn 0 1 0
vn 0 1 0
vn 0 1 0
vn 0 1 0
vn 0 1 0
vn 0 1 0
vn 0 1 0
vn 0 1 0
vn 0 1 0
vn 0 1 0
vn 0 1 0
vn 0 1 0
vn 0 1 0
vn 0 1 0
vn 0 1 0
vn 0 1 0
vn 0 1 0
vn 0 1 0
vn 0 1 0
vn 0 1 0
vn 0 1 0
vn 0 1 0
vn 0 1 0
vn 0 1 0
vn 0 1 0
vn 0 1 0
vn 0 1 0
vn 0 1 0
vn 0 1 0
vn 0 1 0
vn 0 1 0
vn 0 1 0
vn 0 1 0
vn 0 1 0
vn 0 1 0
vn 0 1 0
vn 0 1 0
vn 0 1 0
vn 0 1 0
vn 0 1 0
vn 0 1 0
vn 0 1 0
vn 0 1 0
vn 0 1 0
vn 0 1 0
vn 0 1 0
vn 0 1 0
vn 0 1 0
vn 0 1 0
vn 0 1 0
vn 0 1 0
vn 0 1 0
vn 0 1 0
vn 0 1 0
vn 0 1 0
vn 0 1 0
vn 0 1 0
vn 0 1 0
vn 0 1 0
vn 0 1 0
vn 0 1 0
vn 0 1 0
vn 0 1 0
vn 0 1 0
vn 0 1 0
vn 0 1 0
vn 0 1 0
vn 0 1 0
vn 0 1 0
vn 0 1 0
vn 0 1 0
vn 0 1 0
vn 0 1 0
vn 0 1 0
g Grass_0_Cluster121_0
f 2/2/2 3/3/3 1/1/1
f 2/2/2 4/4/4 3/3/3
f 6/6/6 7/7/7 5/5/5
f 6/6/6 8/8/8 7/7/7
f 10/10/10 11/11/11 9/9/9
f 10/10/10 12/12/12 11/11/11
f 14/14/14 15/15/15 13/13/13
f 14/14/14 16/16/16 15/15/15
f 18/18/18 19/19/19 17/17/17
f 18/18/18 20/20/20 19/19/19
f 22/22/22 23/23/23 21/21/21
f 22/22/22 24/24/24 23/23/23
f 26/26/26 27/27/27 25/25/25
f 26/26/26 28/28/28 27/27/27
f 30/30/30 31/31/31 29/29/29
f 30/30/30 32/32/32 31/31/31
f 34/34/34 35/35/35 33/33/33
f 34/34/34 36/36/36 35/35/35
f 38/38/38 39/39/39 37/37/37
f 38/38/38 40/40/40 39/39/39
f 42/42/42 43/43/43 41/41/41
f 42/42/42 44/44/44 43/43/43
f 46/46/46 47/47/47 45/45/45
f 46/46/46 48/48/48 47/47/47
f 50/50/50 51/51/51 49/49/49
f 50/50/50 52/52/52 51/51/51
f 54/54/54 55/55/55 53/53/53
f 54/54/54 56/56/56 55/55/55
f 58/58/58 59/59/59 57/57/57
f 58/58/58 60/60/60 59/59/59
f 62/62/62 63/63/63 61/61/61
f 62/62/62 64/64/64 63/63/63
f 66/66/66 67/67/67 65/65/65
f 66/66/66 68/68/68 67/67/67
f 70/70/70 71/71/71 69/69/69
f 70/70/70 72/72/72 71/71/71
f 74/74/74 75/75/75 73/73/73
f 74/74/74 76/76/76 75/75/75
f 78/78/78 79/79/79 77/77/77
f 78/78/78 80/80/80 79/79/79
f 82/82/82 83/83/83 81/81/81
f 82/82/82 84/84/84 83/83/83
f 86/86/86 87/87/87 85/85/85
f 86/86/86 88/88/88 87/87/87
f 90/90/90 91/91/91 89/89/89
f 90/90/90 92/92/92 91/91/91
f 94/94/94 95/95/95 93/93/93
f 94/94/94 96/96/96 95/95/95
f 98/98/98 99/99/99 97/97/97
f 98/98/98 100/100/100 99/99/99
f 102/102/102 103/103/103 101/101/101
f 102/102/102 104/104/104 103/103/103
f 106/106/106 107/107/107 105/105/105
f 106/106/106 108/108/108 107/107/107
f 110/110/110 111/111/111 109/109/109
f 110/110/110 112/112/112 111/111/111
f 114/114/114 115/115/115 113/113/113
f 114/114/114 116/116/116 115/115/115
f 118/118/118 119/119/119 117/117/117
f 118/118/118 120/120/120 119/119/119
