g Grass_0_Cluster56
v -208.735 0 52.90142
v -209.5552 0 52.90142
v -208.735 0 54.13168
v -209.5552 0 54.13168
v -193.1517 0 52.90142
v -194.1769 0 52.90142
v -193.1517 0 54.13168
v -194.1769 0 54.13168
v -201.3535 0 52.69637
v -202.1736 0 52.69637
v -201.3535 0 53.92664
v -202.1736 0 53.92664
v -207.2997 0 52.49133
v -208.1199 0 52.49133
v -207.2997 0 53.72159
v -208.1199 0 53.72159
v -206.8896 0 52.28629
v -207.7098 0 52.28629
v -206.8896 0 53.72159
v -207.7098 0 53.72159
v -202.7888 0 52.49133
v -203.814 0 52.49133
v -202.7888 0 53.72159
v -203.814 0 53.72159
v -208.9401 0 52.28629
v -209.7603 0 52.28629
v -208.9401 0 53.51655
v -209.7603 0 53.51655
v -193.7668 0 52.28629
v -194.587 0 52.28629
v -193.7668 0 53.3115
v -194.587 0 53.3115
v -206.2745 0 51.67115
v -207.2997 0 51.67115
v -206.2745 0 52.90142
v -207.2997 0 52.90142
v -202.9938 0 51.05602
v -204.019 0 51.05602
v -202.9938 0 52.28629
v -204.019 0 52.28629
v -180.644 0 50.0308
v -181.4642 0 50.0308
v -180.644 0 51.26106
v -181.4642 0 51.26106
v -179.8238 0 49.82575
v -180.644 0 49.82575
v -179.8238 0 51.05602
v -180.644 0 51.05602
v -182.8995 0 46.95514
v -183.7197 0 46.95514
v -182.8995 0 48.1854
v -183.7197 0 48.1854
v -180.0289 0 46.54504
v -181.0541 0 46.54504
v -180.0289 0 47.77531
v -181.0541 0 47.77531
v -181.0541 0 45.72487
v -181.8743 0 45.72487
v -181.0541 0 47.16018
v -181.8743 0 47.16018
v -182.4894 0 45.72487
v -183.3096 0 45.72487
v -182.4894 0 46.75009
v -183.3096 0 46.75009
v -183.3096 0 44.90469
v -184.1297 0 44.90469
v -183.3096 0 45.92991
v -184.1297 0 45.92991
v -181.8743 0 44.69965
v -182.8995 0 44.69965
v -181.8743 0 46.13496
v -182.8995 0 46.13496
v -180.0289 0 44.28956
v -180.849 0 44.28956
v -180.0289 0 45.51982
v -180.849 0 45.51982
v -181.8743 0 44.28956
v -182.8995 0 44.28956
v -181.8743 0 45.72487
v -182.8995 0 45.72487
v -180.2339 0 44.08451
v -181.0541 0 44.08451
v -180.2339 0 45.51982
v -181.0541 0 45.51982
v -182.8995 0 43.87947
v -183.7197 0 43.87947
v -182.8995 0 45.10973
v -183.7197 0 45.10973
v -186.7953 0 43.26434
v -187.6155 0 43.26434
v -186.7953 0 44.4946
v -187.6155 0 44.4946
v -184.5398 0 42.6492
v -185.36 0 42.6492
v -184.5398 0 43.87947
v -185.36 0 43.87947
v -181.6692 0 42.23912
v -182.6944 0 42.23912
v -181.6692 0 43.46938
v -182.6944 0 43.46938
v -185.565 0 42.23912
v -186.3852 0 42.23912
v -185.565 0 43.46938
v -186.3852 0 43.46938
v -189.4609 0 42.03407
v -190.2811 0 42.03407
v -189.4609 0 43.26434
v -190.2811 0 43.26434
v -184.9499 0 41.41894
v -185.7701 0 41.41894
v -184.9499 0 42.6492
v -185.7701 0 42.6492
v -187.4104 0 41.00885
v -188.2306 0 41.00885
v -187.4104 0 42.23912
v -188.2306 0 42.23912
v -189.6659 0 40.80381
v -190.4861 0 40.80381
v -189.6659 0 42.03407
v -190.4861 0 42.03407
v -187.0004 0 38.95841
v -187.8205 0 38.95841
v -187.0004 0 40.18867
v -187.8205 0 40.18867
v -188.2306 0 38.95841
v -189.0508 0 38.95841
v -188.2306 0 40.39372
v -189.0508 0 40.39372
v -190.2811 0 38.54832
v -191.1012 0 38.54832
v -190.2811 0 39.77858
v -191.1012 0 39.77858
vt 0 0.9058824
vt 0.06666667 0.9058824
vt 0 1
vt 0.06666667 1
vt 0 0.9058824
vt 0.06666667 0.9058824
vt 0 1
vt 0.06666667 1
vt 0 0.9058824
vt 0.06666667 0.9058824
vt 0 1
vt 0.06666667 1
vt 0 0.9058824
vt 0.06666667 0.9058824
vt 0 1
vt 0.06666667 1
vt 0 0.9058824
vt 0.06666667 0.9058824
vt 0 1
vt 0.06666667 1
vt 0 0.9058824
vt 0.06666667 0.9058824
vt 0 1
vt 0.06666667 1
vt 0 0.9058824
vt 0.06666667 0.9058824
vt 0 1
vt 0.06666667 1
vt 0 0.9058824
vt 0.06666667 0.9058824
vt 0 1
vt 0.06666667 1
vt 0 0.9058824
vt 0.06666667 0.9058824
vt 0 1
vt 0.06666667 1
vt 0 0.9058824
vt 0.06666667 0.9058824
vt 0 1
vt 0.06666667 1
vt 0 0.9058824
vt 0.06666667 0.9058824
vt 0 1
vt 0.06666667 1
vt 0 0.9058824
vt 0.06666667 0.9058824
vt 0 1
vt 0.06666667 1
vt 0 0.9058824
vt 0.06666667 0.9058824
vt 0 1
vt 0.06666667 1
vt 0 0.9058824
vt 0.06666667 0.9058824
vt 0 1
vt 0.06666667 1
vt 0 0.9058824
vt 0.06666667 0.9058824
vt 0 1
vt 0.06666667 1
vt 0 0.9058824
vt 0.06666667 0.9058824
vt 0 1
vt 0.06666667 1
vt 0 0.9058824
vt 0.06666667 0.9058824
vt 0 1
vt 0.06666667 1
vt 0 0.9058824
vt 0.06666667 0.9058824
vt 0 1
vt 0.06666667 1
vt 0 0.9058824
vt 0.06666667 0.9058824
vt 0 1
vt 0.06666667 1
vt 0 0.9058824
vt 0.06666667 0.9058824
vt 0 1
vt 0.06666667 1
vt 0 0.9058824
vt 0.06666667 0.9058824
vt 0 1
vt 0.06666667 1
vt 0 0.9058824
vt 0.06666667 0.9058824
vt 0 1
vt 0.06666667 1
vt 0 0.9058824
vt 0.06666667 0.9058824
vt 0 1
vt 0.06666667 1
vt 0 0.9058824
vt 0.06666667 0.9058824
vt 0 1
vt 0.06666667 1
vt 0 0.9058824
vt 0.06666667 0.9058824
vt 0 1
vt 0.06666667 1
vt 0 0.9058824
vt 0.06666667 0.9058824
vt 0 1
vt 0.06666667 1
vt 0 0.9058824
vt 0.06666667 0.9058824
vt 0 1
vt 0.06666667 1
vt 0 0.9058824
vt 0.06666667 0.9058824
vt 0 1
vt 0.06666667 1
vt 0 0.9058824
vt 0.06666667 0.9058824
vt 0 1
vt 0.06666667 1
vt 0 0.9058824
vt 0.06666667 0.9058824
vt 0 1
vt 0.06666667 1
vt 0 0.9058824
vt 0.06666667 0.9058824
vt 0 1
vt 0.06666667 1
vt 0 0.9058824
vt 0.06666667 0.9058824
vt 0 1
vt 0.06666667 1
vt 0 0.9058824
vt 0.06666667 0.9058824
vt 0 1
vt 0.06666667 1
vn 0 1 0
vn 0 1 0
vn 0 1 0
vn 0 1 0
vn 0 1 0
vn 0 1 0
vn 0 1 0
vn 0 1 0
vn 0 1 0
vn 0 1 0
vn 0 1 0
vn 0 1 0
vn 0 1 0
vn 0 1 0
vn 0 1 0
vn 0 1 0
vn 0 1 0
vn 0 1 0
vn 0 1 0
vn 0 1 0
vn 0 1 0
vn 0 1 0
vn 0 1 0
vn 0 1 0
vn 0 1 0
vn 0 1 0
vn 0 1 0
vn 0 1 0
vn 0 1 0
vn 0 1 0
vn 0 1 0
vn 0 1 0
vn 0 1 0
vn 0 1 0
vn 0 1 0
vn 0 1 0
vn 0 1 0
vn 0 1 0
vn 0 1 0
vn 0 1 0
vn 0 1 0
vn 0 1 0
vn 0 1 0
vn 0 1 0
vn 0 1 0
vn 0 1 0
vn 0 1 0
vn 0 1 0
vn 0 1 0
vn 0 1 0
vn 0 1 0
vn 0 1 0
vn 0 1 0
vn 0 1 0
vn 0 1 0
vn 0 1 0
vn 0 1 0
vn 0 1 0
vn 0 1 0
vn 0 1 0
vn 0 1 0
vn 0 1 0
vn 0 1 0
vn 0 1 0
vn 0 1 0
vn 0 1 0
vn 0 1 0
vn 0 1 0
vn 0 1 0
vn 0 1 0
vn 0 1 0
vn 0 1 0
vn 0 1 0
vn 0 1 0
vn 0 1 0
vn 0 1 0
vn 0 1 0
vn 0 1 0
vn 0 1 0
vn 0 1 0
vn 0 1 0
vn 0 1 0
vn 0 1 0
vn 0 1 0
vn 0 1 0
vn 0 1 0
vn 0 1 0
vn 0 1 0
vn 0 1 0
vn 0 1 0
vn 0 1 0
vn 0 1 0
vn 0 1 0
vn 0 1 0
vn 0 1 0
vn 0 1 0
vn 0 1 0
vn 0 1 0
vn 0 1 0
vn 0 1 0
vn 0 1 0
vn 0 1 0
vn 0 1 0
vn 0 1 0
vn 0 1 0
vn 0 1 0
vn 0 1 0
vn 0 1 0
vn 0 1 0
vn 0 1 0
vn 0 1 0
vn 0 1 0
vn 0 1 0
vn 0 1 0
vn 0 1 0
vn 0 1 0
vn 0 1 0
vn 0 1 0
vn 0 1 0
vn 0 1 0
vn 0 1 0
vn 0 1 0
vn 0 1 0
vn 0 1 0
vn 0 1 0
vn 0 1 0
vn 0 1 0
vn 0 1 0
vn 0 1 0
vn 0 1 0
vn 0 1 0
vn 0 1 0
g Grass_0_Cluster56_0
f 2/2/2 3/3/3 1/1/1
f 2/2/2 4/4/4 3/3/3
f 6/6/6 7/7/7 5/5/5
f 6/6/6 8/8/8 7/7/7
f 10/10/10 11/11/11 9/9/9
f 10/10/10 12/12/12 11/11/11
f 14/14/14 15/15/15 13/13/13
f 14/14/14 16/16/16 15/15/15
f 18/18/18 19/19/19 17/17/17
f 18/18/18 20/20/20 19/19/19
f 22/22/22 23/23/23 21/21/21
f 22/22/22 24/24/24 23/23/23
f 26/26/26 27/27/27 25/25/25
f 26/26/26 28/28/28 27/27/27
f 30/30/30 31/31/31 29/29/29
f 30/30/30 32/32/32 31/31/31
f 34/34/34 35/35/35 33/33/33
f 34/34/34 36/36/36 35/35/35
f 38/38/38 39/39/39 37/37/37
f 38/38/38 40/40/40 39/39/39
f 42/42/42 43/43/43 41/41/41
f 42/42/42 44/44/44 43/43/43
f 46/46/46 47/47/47 45/45/45
f 46/46/46 48/48/48 47/47/47
f 50/50/50 51/51/51 49/49/49
f 50/50/50 52/52/52 51/51/51
f 54/54/54 55/55/55 53/53/53
f 54/54/54 56/56/56 55/55/55
f 58/58/58 59/59/59 57/57/57
f 58/58/58 60/60/60 59/59/59
f 62/62/62 63/63/63 61/61/61
f 62/62/62 64/64/64 63/63/63
f 66/66/66 67/67/67 65/65/65
f 66/66/66 68/68/68 67/67/67
f 70/70/70 71/71/71 69/69/69
f 70/70/70 72/72/72 71/71/71
f 74/74/74 75/75/75 73/73/73
f 74/74/74 76/76/76 75/75/75
f 78/78/78 79/79/79 77/77/77
f 78/78/78 80/80/80 79/79/79
f 82/82/82 83/83/83 81/81/81
f 82/82/82 84/84/84 83/83/83
f 86/86/86 87/87/87 85/85/85
f 86/86/86 88/88/88 87/87/87
f 90/90/90 91/91/91 89/89/89
f 90/90/90 92/92/92 91/91/91
f 94/94/94 95/95/95 93/93/93
f 94/94/94 96/96/96 95/95/95
f 98/98/98 99/99/99 97/97/97
f 98/98/98 100/100/100 99/99/99
f 102/102/102 103/103/103 101/101/101
f 102/102/102 104/104/104 103/103/103
f 106/106/106 107/107/107 105/105/105
f 106/106/106 108/108/108 107/107/107
f 110/110/110 111/111/111 109/109/109
f 110/110/110 112/112/112 111/111/111
f 114/114/114 115/115/115 113/113/113
f 114/114/114 116/116/116 115/115/115
f 118/118/118 119/119/119 117/117/117
f 118/118/118 120/120/120 119/119/119
f 122/122/122 123/123/123 121/121/121
f 122/122/122 124/124/124 123/123/123
f 126/126/126 127/127/127 125/125/125
f 126/126/126 128/128/128 127/127/127
f 130/130/130 131/131/131 129/129/129
f 130/130/130 132/132/132 131/131/131
