g Grass_0_Cluster72
v -88.04465 0 79.65944
v -88.91811 0 79.65944
v -88.04465 0 80.96963
v -88.91811 0 80.96963
v -60.00662 0 78.52394
v -60.88008 0 78.52394
v -60.00662 0 79.74679
v -60.88008 0 79.74679
v -84.46346 0 77.47579
v -85.33692 0 77.47579
v -84.46346 0 78.69864
v -85.33692 0 78.69864
v -62.88903 0 76.86437
v -63.67514 0 76.86437
v -62.88903 0 77.99987
v -63.67514 0 77.99987
v -86.73446 0 76.60233
v -87.69526 0 76.60233
v -86.73446 0 77.91252
v -87.69526 0 77.91252
v -83.67735 0 76.42764
v -84.63815 0 76.42764
v -83.67735 0 77.73783
v -84.63815 0 77.73783
v -85.33692 0 76.42764
v -86.12304 0 76.42764
v -85.33692 0 77.56314
v -86.12304 0 77.56314
v -86.90915 0 76.1656
v -87.78261 0 76.1656
v -86.90915 0 77.47579
v -87.78261 0 77.47579
v -63.5878 0 75.81622
v -64.46126 0 75.81622
v -63.5878 0 77.03906
v -64.46126 0 77.03906
v -62.71434 0 75.72887
v -63.67514 0 75.72887
v -62.71434 0 77.03906
v -63.67514 0 77.03906
v -85.68631 0 75.55418
v -86.55977 0 75.55418
v -85.68631 0 76.77702
v -86.55977 0 76.77702
v -73.02116 0 75.37949
v -73.98196 0 75.37949
v -73.02116 0 76.68968
v -73.98196 0 76.68968
v -87.60792 0 75.37949
v -88.56872 0 75.37949
v -87.60792 0 76.68968
v -88.56872 0 76.68968
v -81.93044 0 75.11745
v -82.71655 0 75.11745
v -81.93044 0 76.25295
v -82.71655 0 76.25295
v -82.89124 0 74.85542
v -83.85204 0 74.85542
v -82.89124 0 76.1656
v -83.85204 0 76.1656
v -60.44335 0 74.76807
v -61.31681 0 74.76807
v -60.44335 0 75.99091
v -61.31681 0 75.99091
v -85.861 0 74.85542
v -86.64711 0 74.85542
v -85.861 0 75.99091
v -86.64711 0 75.99091
v -62.01558 0 74.50603
v -62.88903 0 74.50603
v -62.01558 0 75.72887
v -62.88903 0 75.72887
v -80.27086 0 74.50603
v -81.14432 0 74.50603
v -80.27086 0 75.81622
v -81.14432 0 75.81622
v -64.37391 0 74.41869
v -65.16003 0 74.41869
v -64.37391 0 75.55418
v -65.16003 0 75.55418
v -74.68073 0 74.15665
v -75.55418 0 74.15665
v -74.68073 0 75.37949
v -75.55418 0 75.37949
v -80.79494 0 74.15665
v -81.6684 0 74.15665
v -80.79494 0 75.37949
v -81.6684 0 75.37949
v -60.61804 0 74.06931
v -61.4915 0 74.06931
v -60.61804 0 75.2048
v -61.4915 0 75.2048
v -87.69526 0 73.80727
v -88.65607 0 73.80727
v -87.69526 0 75.11745
v -88.65607 0 75.11745
v -84.63815 0 73.71992
v -85.59896 0 73.71992
v -84.63815 0 75.03011
v -85.59896 0 75.03011
v -86.21038 0 73.45789
v -87.08384 0 73.45789
v -86.21038 0 74.76807
v -87.08384 0 74.76807
v -60.18131 0 73.54523
v -61.05477 0 73.54523
v -60.18131 0 74.85542
v -61.05477 0 74.85542
v -83.32796 0 73.2832
v -84.20142 0 73.2832
v -83.32796 0 74.41869
v -84.20142 0 74.41869
v -61.4915 0 73.2832
v -62.36496 0 73.2832
v -61.4915 0 74.41869
v -62.36496 0 74.41869
v -82.54185 0 73.1085
v -83.41531 0 73.1085
v -82.54185 0 74.244
v -83.41531 0 74.244
v -63.76249 0 72.58443
v -64.7233 0 72.58443
v -63.76249 0 73.89462
v -64.7233 0 73.89462
v -83.41531 0 72.58443
v -84.37612 0 72.58443
v -83.41531 0 73.89462
v -84.37612 0 73.89462
v -84.46346 0 72.49708
v -85.33692 0 72.49708
v -84.46346 0 73.71992
v -85.33692 0 73.71992
v -88.39403 0 71.79831
v -89.35484 0 71.79831
v -88.39403 0 73.1085
v -89.35484 0 73.1085
v -87.78261 0 69.96405
v -88.65607 0 69.96405
v -87.78261 0 71.27424
v -88.65607 0 71.27424
v -80.00883 0 67.7804
v -80.79494 0 67.7804
v -80.00883 0 69.00324
v -80.79494 0 69.00324
v -87.52057 0 66.99429
v -88.39403 0 66.99429
v -87.52057 0 68.12978
v -88.39403 0 68.12978
v -74.41869 0 65.50941
v -75.29214 0 65.50941
v -74.41869 0 66.73225
v -75.29214 0 66.73225
v -73.2832 0 65.07268
v -74.15665 0 65.07268
v -73.2832 0 66.29552
v -74.15665 0 66.29552
v -75.11745 0 64.89799
v -76.07826 0 64.89799
v -75.11745 0 66.20818
v -76.07826 0 66.20818
v -72.67177 0 64.54861
v -73.54523 0 64.54861
v -72.67177 0 65.77145
v -73.54523 0 65.77145
v -73.2832 0 64.28657
v -74.244 0 64.28657
v -73.2832 0 65.59676
v -74.244 0 65.59676
v -71.44893 0 63.15107
v -72.40974 0 63.15107
v -71.44893 0 64.46126
v -72.40974 0 64.46126
v -65.24737 0 62.97638
v -66.03349 0 62.97638
v -65.24737 0 64.19922
v -66.03349 0 64.19922
v -73.02116 0 62.80169
v -73.98196 0 62.80169
v -73.02116 0 64.11188
v -73.98196 0 64.11188
v -71.62362 0 62.4523
v -72.49708 0 62.4523
v -71.62362 0 63.76249
v -72.49708 0 63.76249
v -72.67177 0 61.92823
v -73.63258 0 61.92823
v -72.67177 0 63.23841
v -73.63258 0 63.23841
v -68.47917 0 61.84088
v -69.43997 0 61.84088
v -68.47917 0 63.15107
v -69.43997 0 63.15107
v -74.59338 0 60.70539
v -75.46684 0 60.70539
v -74.59338 0 61.92823
v -75.46684 0 61.92823
v -70.31343 0 60.79273
v -71.27424 0 60.79273
v -70.31343 0 62.10292
v -71.27424 0 62.10292
v -65.6841 0 59.91927
v -66.55756 0 59.91927
v -65.6841 0 61.05477
v -66.55756 0 61.05477
v -67.08163 0 59.30785
v -68.04244 0 59.30785
v -67.08163 0 60.53069
v -68.04244 0 60.53069
v -65.33472 0 56.77482
v -66.20818 0 56.77482
v -65.33472 0 57.99766
v -66.20818 0 57.99766
v -84.63815 0 55.63932
v -85.59896 0 55.63932
v -84.63815 0 56.94951
v -85.59896 0 56.94951
v -81.58105 0 55.63932
v -82.54185 0 55.63932
v -81.58105 0 56.94951
v -82.54185 0 56.94951
v -83.85204 0 55.20259
v -84.7255 0 55.20259
v -83.85204 0 56.42544
v -84.7255 0 56.42544
v -85.07488 0 54.24179
v -85.94834 0 54.24179
v -85.07488 0 55.46463
v -85.94834 0 55.46463
v -80.62025 0 54.0671
v -81.58105 0 54.0671
v -80.62025 0 55.37729
v -81.58105 0 55.37729
v -82.27982 0 53.54302
v -83.24062 0 53.54302
v -82.27982 0 54.85321
v -83.24062 0 54.85321
v -84.28877 0 53.45568
v -85.16223 0 53.45568
v -84.28877 0 54.67852
v -85.16223 0 54.67852
v -82.89124 0 53.01895
v -83.76469 0 53.01895
v -82.89124 0 54.32914
v -83.76469 0 54.32914
vt 0 0.9058824
vt 0.06666667 0.9058824
vt 0 1
vt 0.06666667 1
vt 0 0.9058824
vt 0.06666667 0.9058824
vt 0 1
vt 0.06666667 1
vt 0 0.9058824
vt 0.06666667 0.9058824
vt 0 1
vt 0.06666667 1
vt 0 0.9058824
vt 0.06666667 0.9058824
vt 0 1
vt 0.06666667 1
vt 0 0.9058824
vt 0.06666667 0.9058824
vt 0 1
vt 0.06666667 1
vt 0 0.9058824
vt 0.06666667 0.9058824
vt 0 1
vt 0.06666667 1
vt 0 0.9058824
vt 0.06666667 0.9058824
vt 0 1
vt 0.06666667 1
vt 0 0.9058824
vt 0.06666667 0.9058824
vt 0 1
vt 0.06666667 1
vt 0 0.9058824
vt 0.06666667 0.9058824
vt 0 1
vt 0.06666667 1
vt 0 0.9058824
vt 0.06666667 0.9058824
vt 0 1
vt 0.06666667 1
vt 0 0.9058824
vt 0.06666667 0.9058824
vt 0 1
vt 0.06666667 1
vt 0 0.9058824
vt 0.06666667 0.9058824
vt 0 1
vt 0.06666667 1
vt 0 0.9058824
vt 0.06666667 0.9058824
vt 0 1
vt 0.06666667 1
vt 0 0.9058824
vt 0.06666667 0.9058824
vt 0 1
vt 0.06666667 1
vt 0 0.9058824
vt 0.06666667 0.9058824
vt 0 1
vt 0.06666667 1
vt 0 0.9058824
vt 0.06666667 0.9058824
vt 0 1
vt 0.06666667 1
vt 0 0.9058824
vt 0.06666667 0.9058824
vt 0 1
vt 0.06666667 1
vt 0 0.9058824
vt 0.06666667 0.9058824
vt 0 1
vt 0.06666667 1
vt 0 0.9058824
vt 0.06666667 0.9058824
vt 0 1
vt 0.06666667 1
vt 0 0.9058824
vt 0.06666667 0.9058824
vt 0 1
vt 0.06666667 1
vt 0 0.9058824
vt 0.06666667 0.9058824
vt 0 1
vt 0.06666667 1
vt 0 0.9058824
vt 0.06666667 0.9058824
vt 0 1
vt 0.06666667 1
vt 0 0.9058824
vt 0.06666667 0.9058824
vt 0 1
vt 0.06666667 1
vt 0 0.9058824
vt 0.06666667 0.9058824
vt 0 1
vt 0.06666667 1
vt 0 0.9058824
vt 0.06666667 0.9058824
vt 0 1
vt 0.06666667 1
vt 0 0.9058824
vt 0.06666667 0.9058824
vt 0 1
vt 0.06666667 1
vt 0 0.9058824
vt 0.06666667 0.9058824
vt 0 1
vt 0.06666667 1
vt 0 0.9058824
vt 0.06666667 0.9058824
vt 0 1
vt 0.06666667 1
vt 0 0.9058824
vt 0.06666667 0.9058824
vt 0 1
vt 0.06666667 1
vt 0 0.9058824
vt 0.06666667 0.9058824
vt 0 1
vt 0.06666667 1
vt 0 0.9058824
vt 0.06666667 0.9058824
vt 0 1
vt 0.06666667 1
vt 0 0.9058824
vt 0.06666667 0.9058824
vt 0 1
vt 0.06666667 1
vt 0 0.9058824
vt 0.06666667 0.9058824
vt 0 1
vt 0.06666667 1
vt 0 0.9058824
vt 0.06666667 0.9058824
vt 0 1
vt 0.06666667 1
vt 0 0.9058824
vt 0.06666667 0.9058824
vt 0 1
vt 0.06666667 1
vt 0 0.9058824
vt 0.06666667 0.9058824
vt 0 1
vt 0.06666667 1
vt 0 0.9058824
vt 0.06666667 0.9058824
vt 0 1
vt 0.06666667 1
vt 0 0.9058824
vt 0.06666667 0.9058824
vt 0 1
vt 0.06666667 1
vt 0 0.9058824
vt 0.06666667 0.9058824
vt 0 1
vt 0.06666667 1
vt 0 0.9058824
vt 0.06666667 0.9058824
vt 0 1
vt 0.06666667 1
vt 0 0.9058824
vt 0.06666667 0.9058824
vt 0 1
vt 0.06666667 1
vt 0 0.9058824
vt 0.06666667 0.9058824
vt 0 1
vt 0.06666667 1
vt 0 0.9058824
vt 0.06666667 0.9058824
vt 0 1
vt 0.06666667 1
vt 0 0.9058824
vt 0.06666667 0.9058824
vt 0 1
vt 0.06666667 1
vt 0 0.9058824
vt 0.06666667 0.9058824
vt 0 1
vt 0.06666667 1
vt 0 0.9058824
vt 0.06666667 0.9058824
vt 0 1
vt 0.06666667 1
vt 0 0.9058824
vt 0.06666667 0.9058824
vt 0 1
vt 0.06666667 1
vt 0 0.9058824
vt 0.06666667 0.9058824
vt 0 1
vt 0.06666667 1
vt 0 0.9058824
vt 0.06666667 0.9058824
vt 0 1
vt 0.06666667 1
vt 0 0.9058824
vt 0.06666667 0.9058824
vt 0 1
vt 0.06666667 1
vt 0 0.9058824
vt 0.06666667 0.9058824
vt 0 1
vt 0.06666667 1
vt 0 0.9058824
vt 0.06666667 0.9058824
vt 0 1
vt 0.06666667 1
vt 0 0.9058824
vt 0.06666667 0.9058824
vt 0 1
vt 0.06666667 1
vt 0 0.9058824
vt 0.06666667 0.9058824
vt 0 1
vt 0.06666667 1
vt 0 0.9058824
vt 0.06666667 0.9058824
vt 0 1
vt 0.06666667 1
vt 0 0.9058824
vt 0.06666667 0.9058824
vt 0 1
vt 0.06666667 1
vt 0 0.9058824
vt 0.06666667 0.9058824
vt 0 1
vt 0.06666667 1
vt 0 0.9058824
vt 0.06666667 0.9058824
vt 0 1
vt 0.06666667 1
vt 0 0.9058824
vt 0.06666667 0.9058824
vt 0 1
vt 0.06666667 1
vt 0 0.9058824
vt 0.06666667 0.9058824
vt 0 1
vt 0.06666667 1
vt 0 0.9058824
vt 0.06666667 0.9058824
vt 0 1
vt 0.06666667 1
vn 0 1 0
vn 0 1 0
vn 0 1 0
vn 0 1 0
vn 0 1 0
vn 0 1 0
vn 0 1 0
vn 0 1 0
vn 0 1 0
vn 0 1 0
vn 0 1 0
vn 0 1 0
vn 0 1 0
vn 0 1 0
vn 0 1 0
vn 0 1 0
vn 0 1 0
vn 0 1 0
vn 0 1 0
vn 0 1 0
vn 0 1 0
vn 0 1 0
vn 0 1 0
vn 0 1 0
vn 0 1 0
vn 0 1 0
vn 0 1 0
vn 0 1 0
vn 0 1 0
vn 0 1 0
vn 0 1 0
vn 0 1 0
vn 0 1 0
vn 0 1 0
vn 0 1 0
vn 0 1 0
vn 0 1 0
vn 0 1 0
vn 0 1 0
vn 0 1 0
vn 0 1 0
vn 0 1 0
vn 0 1 0
vn 0 1 0
vn 0 1 0
vn 0 1 0
vn 0 1 0
vn 0 1 0
vn 0 1 0
vn 0 1 0
vn 0 1 0
vn 0 1 0
vn 0 1 0
vn 0 1 0
vn 0 1 0
vn 0 1 0
vn 0 1 0
vn 0 1 0
vn 0 1 0
vn 0 1 0
vn 0 1 0
vn 0 1 0
vn 0 1 0
vn 0 1 0
vn 0 1 0
vn 0 1 0
vn 0 1 0
vn 0 1 0
vn 0 1 0
vn 0 1 0
vn 0 1 0
vn 0 1 0
vn 0 1 0
vn 0 1 0
vn 0 1 0
vn 0 1 0
vn 0 1 0
vn 0 1 0
vn 0 1 0
vn 0 1 0
vn 0 1 0
vn 0 1 0
vn 0 1 0
vn 0 1 0
vn 0 1 0
vn 0 1 0
vn 0 1 0
vn 0 1 0
vn 0 1 0
vn 0 1 0
vn 0 1 0
vn 0 1 0
vn 0 1 0
vn 0 1 0
vn 0 1 0
vn 0 1 0
vn 0 1 0
vn 0 1 0
vn 0 1 0
vn 0 1 0
vn 0 1 0
vn 0 1 0
vn 0 1 0
vn 0 1 0
vn 0 1 0
vn 0 1 0
vn 0 1 0
vn 0 1 0
vn 0 1 0
vn 0 1 0
vn 0 1 0
vn 0 1 0
vn 0 1 0
vn 0 1 0
vn 0 1 0
vn 0 1 0
vn 0 1 0
vn 0 1 0
vn 0 1 0
vn 0 1 0
vn 0 1 0
vn 0 1 0
vn 0 1 0
vn 0 1 0
vn 0 1 0
vn 0 1 0
vn 0 1 0
vn 0 1 0
vn 0 1 0
vn 0 1 0
vn 0 1 0
vn 0 1 0
vn 0 1 0
vn 0 1 0
vn 0 1 0
vn 0 1 0
vn 0 1 0
vn 0 1 0
vn 0 1 0
vn 0 1 0
vn 0 1 0
vn 0 1 0
vn 0 1 0
vn 0 1 0
vn 0 1 0
vn 0 1 0
vn 0 1 0
vn 0 1 0
vn 0 1 0
vn 0 1 0
vn 0 1 0
vn 0 1 0
vn 0 1 0
vn 0 1 0
vn 0 1 0
vn 0 1 0
vn 0 1 0
vn 0 1 0
vn 0 1 0
vn 0 1 0
vn 0 1 0
vn 0 1 0
vn 0 1 0
vn 0 1 0
vn 0 1 0
vn 0 1 0
vn 0 1 0
vn 0 1 0
vn 0 1 0
vn 0 1 0
vn 0 1 0
vn 0 1 0
vn 0 1 0
vn 0 1 0
vn 0 1 0
vn 0 1 0
vn 0 1 0
vn 0 1 0
vn 0 1 0
vn 0 1 0
vn 0 1 0
vn 0 1 0
vn 0 1 0
vn 0 1 0
vn 0 1 0
vn 0 1 0
vn 0 1 0
vn 0 1 0
vn 0 1 0
vn 0 1 0
vn 0 1 0
vn 0 1 0
vn 0 1 0
vn 0 1 0
vn 0 1 0
vn 0 1 0
vn 0 1 0
vn 0 1 0
vn 0 1 0
vn 0 1 0
vn 0 1 0
vn 0 1 0
vn 0 1 0
vn 0 1 0
vn 0 1 0
vn 0 1 0
vn 0 1 0
vn 0 1 0
vn 0 1 0
vn 0 1 0
vn 0 1 0
vn 0 1 0
vn 0 1 0
vn 0 1 0
vn 0 1 0
vn 0 1 0
vn 0 1 0
vn 0 1 0
vn 0 1 0
vn 0 1 0
vn 0 1 0
vn 0 1 0
vn 0 1 0
vn 0 1 0
vn 0 1 0
vn 0 1 0
vn 0 1 0
vn 0 1 0
vn 0 1 0
vn 0 1 0
vn 0 1 0
vn 0 1 0
vn 0 1 0
vn 0 1 0
vn 0 1 0
vn 0 1 0
vn 0 1 0
vn 0 1 0
vn 0 1 0
vn 0 1 0
vn 0 1 0
vn 0 1 0
vn 0 1 0
vn 0 1 0
g Grass_0_Cluster72_0
f 2/2/2 3/3/3 1/1/1
f 2/2/2 4/4/4 3/3/3
f 6/6/6 7/7/7 5/5/5
f 6/6/6 8/8/8 7/7/7
f 10/10/10 11/11/11 9/9/9
f 10/10/10 12/12/12 11/11/11
f 14/14/14 15/15/15 13/13/13
f 14/14/14 16/16/16 15/15/15
f 18/18/18 19/19/19 17/17/17
f 18/18/18 20/20/20 19/19/19
f 22/22/22 23/23/23 21/21/21
f 22/22/22 24/24/24 23/23/23
f 26/26/26 27/27/27 25/25/25
f 26/26/26 28/28/28 27/27/27
f 30/30/30 31/31/31 29/29/29
f 30/30/30 32/32/32 31/31/31
f 34/34/34 35/35/35 33/33/33
f 34/34/34 36/36/36 35/35/35
f 38/38/38 39/39/39 37/37/37
f 38/38/38 40/40/40 39/39/39
f 42/42/42 43/43/43 41/41/41
f 42/42/42 44/44/44 43/43/43
f 46/46/46 47/47/47 45/45/45
f 46/46/46 48/48/48 47/47/47
f 50/50/50 51/51/51 49/49/49
f 50/50/50 52/52/52 51/51/51
f 54/54/54 55/55/55 53/53/53
f 54/54/54 56/56/56 55/55/55
f 58/58/58 59/59/59 57/57/57
f 58/58/58 60/60/60 59/59/59
f 62/62/62 63/63/63 61/61/61
f 62/62/62 64/64/64 63/63/63
f 66/66/66 67/67/67 65/65/65
f 66/66/66 68/68/68 67/67/67
f 70/70/70 71/71/71 69/69/69
f 70/70/70 72/72/72 71/71/71
f 74/74/74 75/75/75 73/73/73
f 74/74/74 76/76/76 75/75/75
f 78/78/78 79/79/79 77/77/77
f 78/78/78 80/80/80 79/79/79
f 82/82/82 83/83/83 81/81/81
f 82/82/82 84/84/84 83/83/83
f 86/86/86 87/87/87 85/85/85
f 86/86/86 88/88/88 87/87/87
f 90/90/90 91/91/91 89/89/89
f 90/90/90 92/92/92 91/91/91
f 94/94/94 95/95/95 93/93/93
f 94/94/94 96/96/96 95/95/95
f 98/98/98 99/99/99 97/97/97
f 98/98/98 100/100/100 99/99/99
f 102/102/102 103/103/103 101/101/101
f 102/102/102 104/104/104 103/103/103
f 106/106/106 107/107/107 105/105/105
f 106/106/106 108/108/108 107/107/107
f 110/110/110 111/111/111 109/109/109
f 110/110/110 112/112/112 111/111/111
f 114/114/114 115/115/115 113/113/113
f 114/114/114 116/116/116 115/115/115
f 118/118/118 119/119/119 117/117/117
f 118/118/118 120/120/120 119/119/119
f 122/122/122 123/123/123 121/121/121
f 122/122/122 124/124/124 123/123/123
f 126/126/126 127/127/127 125/125/125
f 126/126/126 128/128/128 127/127/127
f 130/130/130 131/131/131 129/129/129
f 130/130/130 132/132/132 131/131/131
f 134/134/134 135/135/135 133/133/133
f 134/134/134 136/136/136 135/135/135
f 138/138/138 139/139/139 137/137/137
f 138/138/138 140/140/140 139/139/139
f 142/142/142 143/143/143 141/141/141
f 142/142/142 144/144/144 143/143/143
f 146/146/146 147/147/147 145/145/145
f 146/146/146 148/148/148 147/147/147
f 150/150/150 151/151/151 149/149/149
f 150/150/150 152/152/152 151/151/151
f 154/154/154 155/155/155 153/153/153
f 154/154/154 156/156/156 155/155/155
f 158/158/158 159/159/159 157/157/157
f 158/158/158 160/160/160 159/159/159
f 162/162/162 163/163/163 161/161/161
f 162/162/162 164/164/164 163/163/163
f 166/166/166 167/167/167 165/165/165
f 166/166/166 168/168/168 167/167/167
f 170/170/170 171/171/171 169/169/169
f 170/170/170 172/172/172 171/171/171
f 174/174/174 175/175/175 173/173/173
f 174/174/174 176/176/176 175/175/175
f 178/178/178 179/179/179 177/177/177
f 178/178/178 180/180/180 179/179/179
f 182/182/182 183/183/183 181/181/181
f 182/182/182 184/184/184 183/183/183
f 186/186/186 187/187/187 185/185/185
f 186/186/186 188/188/188 187/187/187
f 190/190/190 191/191/191 189/189/189
f 190/190/190 192/192/192 191/191/191
f 194/194/194 195/195/195 193/193/193
f 194/194/194 196/196/196 195/195/195
f 198/198/198 199/199/199 197/197/197
f 198/198/198 200/200/200 199/199/199
f 202/202/202 203/203/203 201/201/201
f 202/202/202 204/204/204 203/203/203
f 206/206/206 207/207/207 205/205/205
f 206/206/206 208/208/208 207/207/207
f 210/210/210 211/211/211 209/209/209
f 210/210/210 212/212/212 211/211/211
f 214/214/214 215/215/215 213/213/213
f 214/214/214 216/216/216 215/215/215
f 218/218/218 219/219/219 217/217/217
f 218/218/218 220/220/220 219/219/219
f 222/222/222 223/223/223 221/221/221
f 222/222/222 224/224/224 223/223/223
f 226/226/226 227/227/227 225/225/225
f 226/226/226 228/228/228 227/227/227
f 230/230/230 231/231/231 229/229/229
f 230/230/230 232/232/232 231/231/231
f 234/234/234 235/235/235 233/233/233
f 234/234/234 236/236/236 235/235/235
f 238/238/238 239/239/239 237/237/237
f 238/238/238 240/240/240 239/239/239
f 242/242/242 243/243/243 241/241/241
f 242/242/242 244/244/244 243/243/243
