g Grass_0_Cluster226
v 97.21482 0.1003799 322.8914
v 96.78038 0.1003799 322.8914
v 97.21482 0.1003799 324.1948
v 96.78038 0.1003799 324.1948
v 105.0348 0.1003799 322.8914
v 104.1659 0.1003799 322.8914
v 105.0348 0.1003799 324.1948
v 104.1659 0.1003799 324.1948
v 110.2481 0.1003799 322.457
v 109.3792 0.1003799 322.457
v 110.2481 0.1003799 323.7603
v 109.3792 0.1003799 323.7603
v 101.9937 0.1003799 322.0226
v 101.1248 0.1003799 322.0226
v 101.9937 0.1003799 323.3259
v 101.1248 0.1003799 323.3259
v 105.4692 0.1003799 321.5881
v 104.6003 0.1003799 321.5881
v 105.4692 0.1003799 322.8914
v 104.6003 0.1003799 322.8914
v 102.4281 0.1003799 321.5881
v 101.5592 0.1003799 321.5881
v 102.4281 0.1003799 322.8914
v 101.5592 0.1003799 322.8914
v 91.56706 0.1003799 321.5881
v 90.69818 0.1003799 321.5881
v 91.56706 0.1003799 322.8914
v 90.69818 0.1003799 322.8914
v 100.2559 0.1003799 321.5881
v 99.38704 0.1003799 321.5881
v 100.2559 0.1003799 322.8914
v 99.38704 0.1003799 322.8914
v 104.6003 0.1003799 321.1537
v 103.7315 0.1003799 321.1537
v 104.6003 0.1003799 322.457
v 103.7315 0.1003799 322.457
v 103.297 0.1003799 321.1537
v 102.4281 0.1003799 321.1537
v 103.297 0.1003799 322.457
v 102.4281 0.1003799 322.457
v 97.64926 0.1003799 321.1537
v 96.78038 0.1003799 321.1537
v 97.64926 0.1003799 322.0226
v 96.78038 0.1003799 322.0226
v 101.5592 0.1003799 320.7192
v 100.6904 0.1003799 320.7192
v 101.5592 0.1003799 322.0226
v 100.6904 0.1003799 322.0226
v 102.4281 0.1003799 319.8503
v 101.5592 0.1003799 319.8503
v 102.4281 0.1003799 321.1537
v 101.5592 0.1003799 321.1537
v 101.5592 0.1003799 318.1126
v 100.6904 0.1003799 318.1126
v 101.5592 0.1003799 318.9814
v 100.6904 0.1003799 318.9814
v 102.8626 0.1003799 317.6781
v 101.9937 0.1003799 317.6781
v 102.8626 0.1003799 318.547
v 101.9937 0.1003799 318.547
v 104.6003 0.1003799 312.8993
v 103.7315 0.1003799 312.8993
v 104.6003 0.1003799 314.2026
v 103.7315 0.1003799 314.2026
v 115.8959 0.1003799 312.0304
v 115.027 0.1003799 312.0304
v 115.8959 0.1003799 312.8993
v 115.027 0.1003799 312.8993
v 114.5925 0.1003799 311.5959
v 113.2892 0.1003799 311.5959
v 114.5925 0.1003799 312.8993
v 113.2892 0.1003799 312.8993
v 116.7648 0.1003799 310.7271
v 115.8959 0.1003799 310.7271
v 116.7648 0.1003799 312.0304
v 115.8959 0.1003799 312.0304
v 104.6003 0.1003799 309.8582
v 103.7315 0.1003799 309.8582
v 104.6003 0.1003799 311.1615
v 103.7315 0.1003799 311.1615
v 91.56706 0.1003799 309.4237
v 90.69818 0.1003799 309.4237
v 91.56706 0.1003799 310.7271
v 90.69818 0.1003799 310.7271
v 120.2403 0.1003799 308.9893
v 119.3714 0.1003799 308.9893
v 120.2403 0.1003799 310.2926
v 119.3714 0.1003799 310.2926
v 90.69818 0.1003799 308.5548
v 89.82929 0.1003799 308.5548
v 90.69818 0.1003799 309.4237
v 89.82929 0.1003799 309.4237
v 90.69818 0.1003799 306.3826
v 89.82929 0.1003799 306.3826
v 90.69818 0.1003799 307.6859
v 89.82929 0.1003799 307.6859
v 90.69818 0.1003799 305.9482
v 89.39485 0.1003799 305.9482
v 90.69818 0.1003799 307.2515
v 89.39485 0.1003799 307.2515
v 96.34594 0.1003799 305.5137
v 95.47705 0.1003799 305.5137
v 96.34594 0.1003799 306.817
v 95.47705 0.1003799 306.817
v 91.56706 0.1003799 305.5137
v 90.69818 0.1003799 305.5137
v 91.56706 0.1003799 306.817
v 90.69818 0.1003799 306.817
v 98.51815 0.1003799 305.0793
v 97.64926 0.1003799 305.0793
v 98.51815 0.1003799 306.3826
v 97.64926 0.1003799 306.3826
v 96.34594 0.1003799 304.2104
v 95.47705 0.1003799 304.2104
v 96.34594 0.1003799 305.5137
v 95.47705 0.1003799 305.5137
v 100.2559 0.1003799 304.2104
v 99.38704 0.1003799 304.2104
v 100.2559 0.1003799 305.5137
v 99.38704 0.1003799 305.5137
v 97.64926 0.1003799 304.2104
v 96.78038 0.1003799 304.2104
v 97.64926 0.1003799 305.5137
v 96.78038 0.1003799 305.5137
v 101.5592 0.1003799 303.7759
v 100.6904 0.1003799 303.7759
v 101.5592 0.1003799 304.6448
v 100.6904 0.1003799 304.6448
v 100.6904 0.1003799 303.3415
v 99.82148 0.1003799 303.3415
v 100.6904 0.1003799 304.6448
v 99.82148 0.1003799 304.6448
v 97.64926 0.1003799 302.9071
v 96.78038 0.1003799 302.9071
v 97.64926 0.1003799 304.2104
v 96.78038 0.1003799 304.2104
v 98.51815 0.1003799 302.4726
v 97.64926 0.1003799 302.4726
v 98.51815 0.1003799 303.7759
v 97.64926 0.1003799 303.7759
v 97.64926 0.1003799 301.6037
v 96.78038 0.1003799 301.6037
v 97.64926 0.1003799 302.9071
v 96.78038 0.1003799 302.9071
v 95.47705 0.1003799 301.1693
v 94.60817 0.1003799 301.1693
v 95.47705 0.1003799 302.0382
v 94.60817 0.1003799 302.0382
v 99.82148 0.1003799 301.1693
v 98.95259 0.1003799 301.1693
v 99.82148 0.1003799 302.0382
v 98.95259 0.1003799 302.0382
v 99.38704 0.1003799 299.4315
v 98.51815 0.1003799 299.4315
v 99.38704 0.1003799 300.7349
v 98.51815 0.1003799 300.7349
vt 0 0.9058824
vt 0.06666667 0.9058824
vt 0 1
vt 0.06666667 1
vt 0 0.9058824
vt 0.06666667 0.9058824
vt 0 1
vt 0.06666667 1
vt 0 0.9058824
vt 0.06666667 0.9058824
vt 0 1
vt 0.06666667 1
vt 0 0.9058824
vt 0.06666667 0.9058824
vt 0 1
vt 0.06666667 1
vt 0 0.9058824
vt 0.06666667 0.9058824
vt 0 1
vt 0.06666667 1
vt 0 0.9058824
vt 0.06666667 0.9058824
vt 0 1
vt 0.06666667 1
vt 0 0.9058824
vt 0.06666667 0.9058824
vt 0 1
vt 0.06666667 1
vt 0 0.9058824
vt 0.06666667 0.9058824
vt 0 1
vt 0.06666667 1
vt 0 0.9058824
vt 0.06666667 0.9058824
vt 0 1
vt 0.06666667 1
vt 0 0.9058824
vt 0.06666667 0.9058824
vt 0 1
vt 0.06666667 1
vt 0 0.9058824
vt 0.06666667 0.9058824
vt 0 1
vt 0.06666667 1
vt 0 0.9058824
vt 0.06666667 0.9058824
vt 0 1
vt 0.06666667 1
vt 0 0.9058824
vt 0.06666667 0.9058824
vt 0 1
vt 0.06666667 1
vt 0 0.9058824
vt 0.06666667 0.9058824
vt 0 1
vt 0.06666667 1
vt 0 0.9058824
vt 0.06666667 0.9058824
vt 0 1
vt 0.06666667 1
vt 0 0.9058824
vt 0.06666667 0.9058824
vt 0 1
vt 0.06666667 1
vt 0 0.9058824
vt 0.06666667 0.9058824
vt 0 1
vt 0.06666667 1
vt 0 0.9058824
vt 0.06666667 0.9058824
vt 0 1
vt 0.06666667 1
vt 0 0.9058824
vt 0.06666667 0.9058824
vt 0 1
vt 0.06666667 1
vt 0 0.9058824
vt 0.06666667 0.9058824
vt 0 1
vt 0.06666667 1
vt 0 0.9058824
vt 0.06666667 0.9058824
vt 0 1
vt 0.06666667 1
vt 0 0.9058824
vt 0.06666667 0.9058824
vt 0 1
vt 0.06666667 1
vt 0 0.9058824
vt 0.06666667 0.9058824
vt 0 1
vt 0.06666667 1
vt 0 0.9058824
vt 0.06666667 0.9058824
vt 0 1
vt 0.06666667 1
vt 0 0.9058824
vt 0.06666667 0.9058824
vt 0 1
vt 0.06666667 1
vt 0 0.9058824
vt 0.06666667 0.9058824
vt 0 1
vt 0.06666667 1
vt 0 0.9058824
vt 0.06666667 0.9058824
vt 0 1
vt 0.06666667 1
vt 0 0.9058824
vt 0.06666667 0.9058824
vt 0 1
vt 0.06666667 1
vt 0 0.9058824
vt 0.06666667 0.9058824
vt 0 1
vt 0.06666667 1
vt 0 0.9058824
vt 0.06666667 0.9058824
vt 0 1
vt 0.06666667 1
vt 0 0.9058824
vt 0.06666667 0.9058824
vt 0 1
vt 0.06666667 1
vt 0 0.9058824
vt 0.06666667 0.9058824
vt 0 1
vt 0.06666667 1
vt 0 0.9058824
vt 0.06666667 0.9058824
vt 0 1
vt 0.06666667 1
vt 0 0.9058824
vt 0.06666667 0.9058824
vt 0 1
vt 0.06666667 1
vt 0 0.9058824
vt 0.06666667 0.9058824
vt 0 1
vt 0.06666667 1
vt 0 0.9058824
vt 0.06666667 0.9058824
vt 0 1
vt 0.06666667 1
vt 0 0.9058824
vt 0.06666667 0.9058824
vt 0 1
vt 0.06666667 1
vt 0 0.9058824
vt 0.06666667 0.9058824
vt 0 1
vt 0.06666667 1
vt 0 0.9058824
vt 0.06666667 0.9058824
vt 0 1
vt 0.06666667 1
vn 0 1 0
vn 0 1 0
vn 0 1 0
vn 0 1 0
vn 0 1 0
vn 0 1 0
vn 0 1 0
vn 0 1 0
vn 0 1 0
vn 0 1 0
vn 0 1 0
vn 0 1 0
vn 0 1 0
vn 0 1 0
vn 0 1 0
vn 0 1 0
vn 0 1 0
vn 0 1 0
vn 0 1 0
vn 0 1 0
vn 0 1 0
vn 0 1 0
vn 0 1 0
vn 0 1 0
vn 0 1 0
vn 0 1 0
vn 0 1 0
vn 0 1 0
vn 0 1 0
vn 0 1 0
vn 0 1 0
vn 0 1 0
vn 0 1 0
vn 0 1 0
vn 0 1 0
vn 0 1 0
vn 0 1 0
vn 0 1 0
vn 0 1 0
vn 0 1 0
vn 0 1 0
vn 0 1 0
vn 0 1 0
vn 0 1 0
vn 0 1 0
vn 0 1 0
vn 0 1 0
vn 0 1 0
vn 0 1 0
vn 0 1 0
vn 0 1 0
vn 0 1 0
vn 0 1 0
vn 0 1 0
vn 0 1 0
vn 0 1 0
vn 0 1 0
vn 0 1 0
vn 0 1 0
vn 0 1 0
vn 0 1 0
vn 0 1 0
vn 0 1 0
vn 0 1 0
vn 0 1 0
vn 0 1 0
vn 0 1 0
vn 0 1 0
vn 0 1 0
vn 0 1 0
vn 0 1 0
vn 0 1 0
vn 0 1 0
vn 0 1 0
vn 0 1 0
vn 0 1 0
vn 0 1 0
vn 0 1 0
vn 0 1 0
vn 0 1 0
vn 0 1 0
vn 0 1 0
vn 0 1 0
vn 0 1 0
vn 0 1 0
vn 0 1 0
vn 0 1 0
vn 0 1 0
vn 0 1 0
vn 0 1 0
vn 0 1 0
vn 0 1 0
vn 0 1 0
vn 0 1 0
vn 0 1 0
vn 0 1 0
vn 0 1 0
vn 0 1 0
vn 0 1 0
vn 0 1 0
vn 0 1 0
vn 0 1 0
vn 0 1 0
vn 0 1 0
vn 0 1 0
vn 0 1 0
vn 0 1 0
vn 0 1 0
vn 0 1 0
vn 0 1 0
vn 0 1 0
vn 0 1 0
vn 0 1 0
vn 0 1 0
vn 0 1 0
vn 0 1 0
vn 0 1 0
vn 0 1 0
vn 0 1 0
vn 0 1 0
vn 0 1 0
vn 0 1 0
vn 0 1 0
vn 0 1 0
vn 0 1 0
vn 0 1 0
vn 0 1 0
vn 0 1 0
vn 0 1 0
vn 0 1 0
vn 0 1 0
vn 0 1 0
vn 0 1 0
vn 0 1 0
vn 0 1 0
vn 0 1 0
vn 0 1 0
vn 0 1 0
vn 0 1 0
vn 0 1 0
vn 0 1 0
vn 0 1 0
vn 0 1 0
vn 0 1 0
vn 0 1 0
vn 0 1 0
vn 0 1 0
vn 0 1 0
vn 0 1 0
vn 0 1 0
vn 0 1 0
vn 0 1 0
vn 0 1 0
vn 0 1 0
vn 0 1 0
vn 0 1 0
g Grass_0_Cluster226_0
f 2/2/2 3/3/3 1/1/1
f 2/2/2 4/4/4 3/3/3
f 6/6/6 7/7/7 5/5/5
f 6/6/6 8/8/8 7/7/7
f 10/10/10 11/11/11 9/9/9
f 10/10/10 12/12/12 11/11/11
f 14/14/14 15/15/15 13/13/13
f 14/14/14 16/16/16 15/15/15
f 18/18/18 19/19/19 17/17/17
f 18/18/18 20/20/20 19/19/19
f 22/22/22 23/23/23 21/21/21
f 22/22/22 24/24/24 23/23/23
f 26/26/26 27/27/27 25/25/25
f 26/26/26 28/28/28 27/27/27
f 30/30/30 31/31/31 29/29/29
f 30/30/30 32/32/32 31/31/31
f 34/34/34 35/35/35 33/33/33
f 34/34/34 36/36/36 35/35/35
f 38/38/38 39/39/39 37/37/37
f 38/38/38 40/40/40 39/39/39
f 42/42/42 43/43/43 41/41/41
f 42/42/42 44/44/44 43/43/43
f 46/46/46 47/47/47 45/45/45
f 46/46/46 48/48/48 47/47/47
f 50/50/50 51/51/51 49/49/49
f 50/50/50 52/52/52 51/51/51
f 54/54/54 55/55/55 53/53/53
f 54/54/54 56/56/56 55/55/55
f 58/58/58 59/59/59 57/57/57
f 58/58/58 60/60/60 59/59/59
f 62/62/62 63/63/63 61/61/61
f 62/62/62 64/64/64 63/63/63
f 66/66/66 67/67/67 65/65/65
f 66/66/66 68/68/68 67/67/67
f 70/70/70 71/71/71 69/69/69
f 70/70/70 72/72/72 71/71/71
f 74/74/74 75/75/75 73/73/73
f 74/74/74 76/76/76 75/75/75
f 78/78/78 79/79/79 77/77/77
f 78/78/78 80/80/80 79/79/79
f 82/82/82 83/83/83 81/81/81
f 82/82/82 84/84/84 83/83/83
f 86/86/86 87/87/87 85/85/85
f 86/86/86 88/88/88 87/87/87
f 90/90/90 91/91/91 89/89/89
f 90/90/90 92/92/92 91/91/91
f 94/94/94 95/95/95 93/93/93
f 94/94/94 96/96/96 95/95/95
f 98/98/98 99/99/99 97/97/97
f 98/98/98 100/100/100 99/99/99
f 102/102/102 103/103/103 101/101/101
f 102/102/102 104/104/104 103/103/103
f 106/106/106 107/107/107 105/105/105
f 106/106/106 108/108/108 107/107/107
f 110/110/110 111/111/111 109/109/109
f 110/110/110 112/112/112 111/111/111
f 114/114/114 115/115/115 113/113/113
f 114/114/114 116/116/116 115/115/115
f 118/118/118 119/119/119 117/117/117
f 118/118/118 120/120/120 119/119/119
f 122/122/122 123/123/123 121/121/121
f 122/122/122 124/124/124 123/123/123
f 126/126/126 127/127/127 125/125/125
f 126/126/126 128/128/128 127/127/127
f 130/130/130 131/131/131 129/129/129
f 130/130/130 132/132/132 131/131/131
f 134/134/134 135/135/135 133/133/133
f 134/134/134 136/136/136 135/135/135
f 138/138/138 139/139/139 137/137/137
f 138/138/138 140/140/140 139/139/139
f 142/142/142 143/143/143 141/141/141
f 142/142/142 144/144/144 143/143/143
f 146/146/146 147/147/147 145/145/145
f 146/146/146 148/148/148 147/147/147
f 150/150/150 151/151/151 149/149/149
f 150/150/150 152/152/152 151/151/151
f 154/154/154 155/155/155 153/153/153
f 154/154/154 156/156/156 155/155/155
