g Grass_0_Cluster308
v 60.12217 -0.2302094 441.1048
v 59.14033 -0.2302094 441.1048
v 60.12217 -0.2302094 442.0866
v 59.14033 -0.2302094 442.0866
v 43.43096 -0.2302094 438.1593
v 42.44913 -0.2302094 438.1593
v 43.43096 -0.2302094 439.1411
v 42.44913 -0.2302094 439.1411
v 44.4128 -0.2302094 437.6684
v 43.43096 -0.2302094 437.6684
v 44.4128 -0.2302094 439.1411
v 43.43096 -0.2302094 439.1411
v 41.95821 -0.2302094 437.6684
v 41.46729 -0.2302094 437.6684
v 41.95821 -0.2302094 438.6502
v 41.46729 -0.2302094 438.6502
v 40.48546 -0.2302094 437.6684
v 39.50362 -0.2302094 437.6684
v 40.48546 -0.2302094 438.6502
v 39.50362 -0.2302094 438.6502
v 41.95821 -0.2302094 436.6865
v 40.97638 -0.2302094 436.6865
v 41.95821 -0.2302094 437.6684
v 40.97638 -0.2302094 437.6684
v 59.14033 -0.2302094 436.6865
v 58.15849 -0.2302094 436.6865
v 59.14033 -0.2302094 437.6684
v 58.15849 -0.2302094 437.6684
v 41.46729 -0.2302094 436.1956
v 40.48546 -0.2302094 436.1956
v 41.46729 -0.2302094 437.6684
v 40.48546 -0.2302094 437.6684
v 45.39463 -0.2302094 436.1956
v 44.4128 -0.2302094 436.1956
v 45.39463 -0.2302094 437.6684
v 44.4128 -0.2302094 437.6684
v 39.50362 -0.2302094 436.1956
v 38.52179 -0.2302094 436.1956
v 39.50362 -0.2302094 437.1775
v 38.52179 -0.2302094 437.1775
v 41.46729 -0.2302094 435.2138
v 40.97638 -0.2302094 435.2138
v 41.46729 -0.2302094 436.6865
v 40.97638 -0.2302094 436.6865
v 39.99454 -0.2302094 435.2138
v 39.0127 -0.2302094 435.2138
v 39.99454 -0.2302094 436.6865
v 39.0127 -0.2302094 436.6865
v 58.64941 -0.2302094 435.2138
v 58.15849 -0.2302094 435.2138
v 58.64941 -0.2302094 436.6865
v 58.15849 -0.2302094 436.6865
v 47.35831 -0.2302094 435.2138
v 46.37647 -0.2302094 435.2138
v 47.35831 -0.2302094 436.1956
v 46.37647 -0.2302094 436.1956
v 38.03087 -0.2302094 435.2138
v 37.53995 -0.2302094 435.2138
v 38.03087 -0.2302094 436.1956
v 37.53995 -0.2302094 436.1956
v 50.79473 -0.2302094 434.7229
v 49.81289 -0.2302094 434.7229
v 50.79473 -0.2302094 436.1956
v 49.81289 -0.2302094 436.1956
v 40.97638 -0.2302094 434.7229
v 39.99454 -0.2302094 434.7229
v 40.97638 -0.2302094 436.1956
v 39.99454 -0.2302094 436.1956
v 49.32198 -0.2302094 434.7229
v 48.34014 -0.2302094 434.7229
v 49.32198 -0.2302094 435.7047
v 48.34014 -0.2302094 435.7047
v 57.17666 -0.2302094 434.2319
v 56.19482 -0.2302094 434.2319
v 57.17666 -0.2302094 435.7047
v 56.19482 -0.2302094 435.7047
v 45.39463 -0.2302094 434.2319
v 44.4128 -0.2302094 434.2319
v 45.39463 -0.2302094 435.2138
v 44.4128 -0.2302094 435.2138
v 42.94005 -0.2302094 434.2319
v 41.95821 -0.2302094 434.2319
v 42.94005 -0.2302094 435.7047
v 41.95821 -0.2302094 435.7047
v 41.46729 -0.2302094 433.741
v 40.48546 -0.2302094 433.741
v 41.46729 -0.2302094 434.7229
v 40.48546 -0.2302094 434.7229
v 47.35831 -0.2302094 433.741
v 46.86739 -0.2302094 433.741
v 47.35831 -0.2302094 434.7229
v 46.86739 -0.2302094 434.7229
v 59.14033 -0.2302094 433.2501
v 58.15849 -0.2302094 433.2501
v 59.14033 -0.2302094 434.7229
v 58.15849 -0.2302094 434.7229
v 33.61261 -0.2302094 432.7592
v 32.63078 -0.2302094 432.7592
v 33.61261 -0.2302094 434.2319
v 32.63078 -0.2302094 434.2319
v 48.34014 -0.2302094 432.7592
v 47.84922 -0.2302094 432.7592
v 48.34014 -0.2302094 433.741
v 47.84922 -0.2302094 433.741
v 31.15802 -0.2302094 431.7774
v 30.6671 -0.2302094 431.7774
v 31.15802 -0.2302094 433.2501
v 30.6671 -0.2302094 433.2501
v 48.34014 -0.2302094 431.7774
v 47.35831 -0.2302094 431.7774
v 48.34014 -0.2302094 432.7592
v 47.35831 -0.2302094 432.7592
v 52.26748 -0.2302094 431.2864
v 51.28565 -0.2302094 431.2864
v 52.26748 -0.2302094 432.7592
v 51.28565 -0.2302094 432.7592
v 33.12169 -0.2302094 431.2864
v 32.13986 -0.2302094 431.2864
v 33.12169 -0.2302094 432.2683
v 32.13986 -0.2302094 432.2683
v 51.77657 -0.2302094 430.7955
v 50.79473 -0.2302094 430.7955
v 51.77657 -0.2302094 431.7774
v 50.79473 -0.2302094 431.7774
v 52.26748 -0.2302094 429.8137
v 51.28565 -0.2302094 429.8137
v 52.26748 -0.2302094 431.2864
v 51.28565 -0.2302094 431.2864
v 50.79473 -0.2302094 429.8137
v 49.81289 -0.2302094 429.8137
v 50.79473 -0.2302094 430.7955
v 49.81289 -0.2302094 430.7955
v 54.23116 -0.2302094 429.3228
v 53.24932 -0.2302094 429.3228
v 54.23116 -0.2302094 430.3046
v 53.24932 -0.2302094 430.3046
v 32.63078 -0.2302094 428.8318
v 31.64894 -0.2302094 428.8318
v 32.63078 -0.2302094 430.3046
v 31.64894 -0.2302094 430.3046
v 32.63078 -0.2302094 428.3409
v 31.64894 -0.2302094 428.3409
v 32.63078 -0.2302094 429.8137
v 31.64894 -0.2302094 429.8137
v 31.15802 -0.2302094 428.3409
v 30.17619 -0.2302094 428.3409
v 31.15802 -0.2302094 429.3228
v 30.17619 -0.2302094 429.3228
v 51.77657 -0.2302094 428.3409
v 50.79473 -0.2302094 428.3409
v 51.77657 -0.2302094 429.8137
v 50.79473 -0.2302094 429.8137
v 34.10353 -0.2302094 427.3591
v 33.12169 -0.2302094 427.3591
v 34.10353 -0.2302094 428.8318
v 33.12169 -0.2302094 428.8318
v 31.15802 -0.2302094 426.8682
v 30.17619 -0.2302094 426.8682
v 31.15802 -0.2302094 427.85
v 30.17619 -0.2302094 427.85
v 51.77657 -0.2302094 426.3773
v 50.79473 -0.2302094 426.3773
v 51.77657 -0.2302094 427.85
v 50.79473 -0.2302094 427.85
v 34.10353 -0.2302094 426.3773
v 33.61261 -0.2302094 426.3773
v 34.10353 -0.2302094 427.3591
v 33.61261 -0.2302094 427.3591
v 32.13986 -0.2302094 425.8864
v 31.15802 -0.2302094 425.8864
v 32.13986 -0.2302094 427.3591
v 31.15802 -0.2302094 427.3591
v 50.30381 -0.2302094 425.8864
v 49.81289 -0.2302094 425.8864
v 50.30381 -0.2302094 426.8682
v 49.81289 -0.2302094 426.8682
v 33.61261 -0.2302094 425.3954
v 32.63078 -0.2302094 425.3954
v 33.61261 -0.2302094 426.8682
v 32.63078 -0.2302094 426.8682
v 53.24932 -0.2302094 425.3954
v 52.26748 -0.2302094 425.3954
v 53.24932 -0.2302094 426.3773
v 52.26748 -0.2302094 426.3773
v 32.13986 -0.2302094 424.9045
v 31.15802 -0.2302094 424.9045
v 32.13986 -0.2302094 426.3773
v 31.15802 -0.2302094 426.3773
v 31.64894 -0.2302094 424.4136
v 30.6671 -0.2302094 424.4136
v 31.64894 -0.2302094 425.8864
v 30.6671 -0.2302094 425.8864
v 56.19482 -0.2302094 424.4136
v 55.70391 -0.2302094 424.4136
v 56.19482 -0.2302094 425.3954
v 55.70391 -0.2302094 425.3954
v 33.61261 -0.2302094 424.4136
v 32.63078 -0.2302094 424.4136
v 33.61261 -0.2302094 425.3954
v 32.63078 -0.2302094 425.3954
v 31.64894 -0.2302094 423.9227
v 30.6671 -0.2302094 423.9227
v 31.64894 -0.2302094 425.3954
v 30.6671 -0.2302094 425.3954
v 34.59444 -0.2302094 422.9408
v 33.61261 -0.2302094 422.9408
v 34.59444 -0.2302094 424.4136
v 33.61261 -0.2302094 424.4136
v 52.26748 -0.2302094 423.4318
v 51.77657 -0.2302094 423.4318
v 52.26748 -0.2302094 424.4136
v 51.77657 -0.2302094 424.4136
v 38.52179 -0.2302094 422.9408
v 37.53995 -0.2302094 422.9408
v 38.52179 -0.2302094 424.4136
v 37.53995 -0.2302094 424.4136
v 54.23116 -0.2302094 422.4499
v 53.74023 -0.2302094 422.4499
v 54.23116 -0.2302094 423.9227
v 53.74023 -0.2302094 423.9227
v 34.10353 -0.2302094 421.959
v 33.12169 -0.2302094 421.959
v 34.10353 -0.2302094 423.4318
v 33.12169 -0.2302094 423.4318
v 52.26748 -0.2302094 421.4681
v 51.28565 -0.2302094 421.4681
v 52.26748 -0.2302094 422.4499
v 51.28565 -0.2302094 422.4499
v 57.66758 -0.2302094 419.5044
v 56.68574 -0.2302094 419.5044
v 57.66758 -0.2302094 420.4863
v 56.68574 -0.2302094 420.4863
v 51.77657 -0.2302094 419.0135
v 50.79473 -0.2302094 419.0135
v 51.77657 -0.2302094 420.4863
v 50.79473 -0.2302094 420.4863
v 44.90372 -0.2302094 418.5226
v 43.92188 -0.2302094 418.5226
v 44.90372 -0.2302094 419.5044
v 43.92188 -0.2302094 419.5044
v 43.92188 -0.2302094 417.5407
v 42.94005 -0.2302094 417.5407
v 43.92188 -0.2302094 419.0135
v 42.94005 -0.2302094 419.0135
vt 0 0.9058824
vt 0.06666667 0.9058824
vt 0 1
vt 0.06666667 1
vt 0 0.9058824
vt 0.06666667 0.9058824
vt 0 1
vt 0.06666667 1
vt 0 0.9058824
vt 0.06666667 0.9058824
vt 0 1
vt 0.06666667 1
vt 0 0.9058824
vt 0.06666667 0.9058824
vt 0 1
vt 0.06666667 1
vt 0 0.9058824
vt 0.06666667 0.9058824
vt 0 1
vt 0.06666667 1
vt 0 0.9058824
vt 0.06666667 0.9058824
vt 0 1
vt 0.06666667 1
vt 0 0.9058824
vt 0.06666667 0.9058824
vt 0 1
vt 0.06666667 1
vt 0 0.9058824
vt 0.06666667 0.9058824
vt 0 1
vt 0.06666667 1
vt 0 0.9058824
vt 0.06666667 0.9058824
vt 0 1
vt 0.06666667 1
vt 0 0.9058824
vt 0.06666667 0.9058824
vt 0 1
vt 0.06666667 1
vt 0 0.9058824
vt 0.06666667 0.9058824
vt 0 1
vt 0.06666667 1
vt 0 0.9058824
vt 0.06666667 0.9058824
vt 0 1
vt 0.06666667 1
vt 0 0.9058824
vt 0.06666667 0.9058824
vt 0 1
vt 0.06666667 1
vt 0 0.9058824
vt 0.06666667 0.9058824
vt 0 1
vt 0.06666667 1
vt 0 0.9058824
vt 0.06666667 0.9058824
vt 0 1
vt 0.06666667 1
vt 0 0.9058824
vt 0.06666667 0.9058824
vt 0 1
vt 0.06666667 1
vt 0 0.9058824
vt 0.06666667 0.9058824
vt 0 1
vt 0.06666667 1
vt 0 0.9058824
vt 0.06666667 0.9058824
vt 0 1
vt 0.06666667 1
vt 0 0.9058824
vt 0.06666667 0.9058824
vt 0 1
vt 0.06666667 1
vt 0 0.9058824
vt 0.06666667 0.9058824
vt 0 1
vt 0.06666667 1
vt 0 0.9058824
vt 0.06666667 0.9058824
vt 0 1
vt 0.06666667 1
vt 0 0.9058824
vt 0.06666667 0.9058824
vt 0 1
vt 0.06666667 1
vt 0 0.9058824
vt 0.06666667 0.9058824
vt 0 1
vt 0.06666667 1
vt 0 0.9058824
vt 0.06666667 0.9058824
vt 0 1
vt 0.06666667 1
vt 0 0.9058824
vt 0.06666667 0.9058824
vt 0 1
vt 0.06666667 1
vt 0 0.9058824
vt 0.06666667 0.9058824
vt 0 1
vt 0.06666667 1
vt 0 0.9058824
vt 0.06666667 0.9058824
vt 0 1
vt 0.06666667 1
vt 0 0.9058824
vt 0.06666667 0.9058824
vt 0 1
vt 0.06666667 1
vt 0 0.9058824
vt 0.06666667 0.9058824
vt 0 1
vt 0.06666667 1
vt 0 0.9058824
vt 0.06666667 0.9058824
vt 0 1
vt 0.06666667 1
vt 0 0.9058824
vt 0.06666667 0.9058824
vt 0 1
vt 0.06666667 1
vt 0 0.9058824
vt 0.06666667 0.9058824
vt 0 1
vt 0.06666667 1
vt 0 0.9058824
vt 0.06666667 0.9058824
vt 0 1
vt 0.06666667 1
vt 0 0.9058824
vt 0.06666667 0.9058824
vt 0 1
vt 0.06666667 1
vt 0 0.9058824
vt 0.06666667 0.9058824
vt 0 1
vt 0.06666667 1
vt 0 0.9058824
vt 0.06666667 0.9058824
vt 0 1
vt 0.06666667 1
vt 0 0.9058824
vt 0.06666667 0.9058824
vt 0 1
vt 0.06666667 1
vt 0 0.9058824
vt 0.06666667 0.9058824
vt 0 1
vt 0.06666667 1
vt 0 0.9058824
vt 0.06666667 0.9058824
vt 0 1
vt 0.06666667 1
vt 0 0.9058824
vt 0.06666667 0.9058824
vt 0 1
vt 0.06666667 1
vt 0 0.9058824
vt 0.06666667 0.9058824
vt 0 1
vt 0.06666667 1
vt 0 0.9058824
vt 0.06666667 0.9058824
vt 0 1
vt 0.06666667 1
vt 0 0.9058824
vt 0.06666667 0.9058824
vt 0 1
vt 0.06666667 1
vt 0 0.9058824
vt 0.06666667 0.9058824
vt 0 1
vt 0.06666667 1
vt 0 0.9058824
vt 0.06666667 0.9058824
vt 0 1
vt 0.06666667 1
vt 0 0.9058824
vt 0.06666667 0.9058824
vt 0 1
vt 0.06666667 1
vt 0 0.9058824
vt 0.06666667 0.9058824
vt 0 1
vt 0.06666667 1
vt 0 0.9058824
vt 0.06666667 0.9058824
vt 0 1
vt 0.06666667 1
vt 0 0.9058824
vt 0.06666667 0.9058824
vt 0 1
vt 0.06666667 1
vt 0 0.9058824
vt 0.06666667 0.9058824
vt 0 1
vt 0.06666667 1
vt 0 0.9058824
vt 0.06666667 0.9058824
vt 0 1
vt 0.06666667 1
vt 0 0.9058824
vt 0.06666667 0.9058824
vt 0 1
vt 0.06666667 1
vt 0 0.9058824
vt 0.06666667 0.9058824
vt 0 1
vt 0.06666667 1
vt 0 0.9058824
vt 0.06666667 0.9058824
vt 0 1
vt 0.06666667 1
vt 0 0.9058824
vt 0.06666667 0.9058824
vt 0 1
vt 0.06666667 1
vt 0 0.9058824
vt 0.06666667 0.9058824
vt 0 1
vt 0.06666667 1
vt 0 0.9058824
vt 0.06666667 0.9058824
vt 0 1
vt 0.06666667 1
vt 0 0.9058824
vt 0.06666667 0.9058824
vt 0 1
vt 0.06666667 1
vt 0 0.9058824
vt 0.06666667 0.9058824
vt 0 1
vt 0.06666667 1
vt 0 0.9058824
vt 0.06666667 0.9058824
vt 0 1
vt 0.06666667 1
vt 0 0.9058824
vt 0.06666667 0.9058824
vt 0 1
vt 0.06666667 1
vn 0 1 0
vn 0 1 0
vn 0 1 0
vn 0 1 0
vn 0 1 0
vn 0 1 0
vn 0 1 0
vn 0 1 0
vn 0 1 0
vn 0 1 0
vn 0 1 0
vn 0 1 0
vn 0 1 0
vn 0 1 0
vn 0 1 0
vn 0 1 0
vn 0 1 0
vn 0 1 0
vn 0 1 0
vn 0 1 0
vn 0 1 0
vn 0 1 0
vn 0 1 0
vn 0 1 0
vn 0 1 0
vn 0 1 0
vn 0 1 0
vn 0 1 0
vn 0 1 0
vn 0 1 0
vn 0 1 0
vn 0 1 0
vn 0 1 0
vn 0 1 0
vn 0 1 0
vn 0 1 0
vn 0 1 0
vn 0 1 0
vn 0 1 0
vn 0 1 0
vn 0 1 0
vn 0 1 0
vn 0 1 0
vn 0 1 0
vn 0 1 0
vn 0 1 0
vn 0 1 0
vn 0 1 0
vn 0 1 0
vn 0 1 0
vn 0 1 0
vn 0 1 0
vn 0 1 0
vn 0 1 0
vn 0 1 0
vn 0 1 0
vn 0 1 0
vn 0 1 0
vn 0 1 0
vn 0 1 0
vn 0 1 0
vn 0 1 0
vn 0 1 0
vn 0 1 0
vn 0 1 0
vn 0 1 0
vn 0 1 0
vn 0 1 0
vn 0 1 0
vn 0 1 0
vn 0 1 0
vn 0 1 0
vn 0 1 0
vn 0 1 0
vn 0 1 0
vn 0 1 0
vn 0 1 0
vn 0 1 0
vn 0 1 0
vn 0 1 0
vn 0 1 0
vn 0 1 0
vn 0 1 0
vn 0 1 0
vn 0 1 0
vn 0 1 0
vn 0 1 0
vn 0 1 0
vn 0 1 0
vn 0 1 0
vn 0 1 0
vn 0 1 0
vn 0 1 0
vn 0 1 0
vn 0 1 0
vn 0 1 0
vn 0 1 0
vn 0 1 0
vn 0 1 0
vn 0 1 0
vn 0 1 0
vn 0 1 0
vn 0 1 0
vn 0 1 0
vn 0 1 0
vn 0 1 0
vn 0 1 0
vn 0 1 0
vn 0 1 0
vn 0 1 0
vn 0 1 0
vn 0 1 0
vn 0 1 0
vn 0 1 0
vn 0 1 0
vn 0 1 0
vn 0 1 0
vn 0 1 0
vn 0 1 0
vn 0 1 0
vn 0 1 0
vn 0 1 0
vn 0 1 0
vn 0 1 0
vn 0 1 0
vn 0 1 0
vn 0 1 0
vn 0 1 0
vn 0 1 0
vn 0 1 0
vn 0 1 0
vn 0 1 0
vn 0 1 0
vn 0 1 0
vn 0 1 0
vn 0 1 0
vn 0 1 0
vn 0 1 0
vn 0 1 0
vn 0 1 0
vn 0 1 0
vn 0 1 0
vn 0 1 0
vn 0 1 0
vn 0 1 0
vn 0 1 0
vn 0 1 0
vn 0 1 0
vn 0 1 0
vn 0 1 0
vn 0 1 0
vn 0 1 0
vn 0 1 0
vn 0 1 0
vn 0 1 0
vn 0 1 0
vn 0 1 0
vn 0 1 0
vn 0 1 0
vn 0 1 0
vn 0 1 0
vn 0 1 0
vn 0 1 0
vn 0 1 0
vn 0 1 0
vn 0 1 0
vn 0 1 0
vn 0 1 0
vn 0 1 0
vn 0 1 0
vn 0 1 0
vn 0 1 0
vn 0 1 0
vn 0 1 0
vn 0 1 0
vn 0 1 0
vn 0 1 0
vn 0 1 0
vn 0 1 0
vn 0 1 0
vn 0 1 0
vn 0 1 0
vn 0 1 0
vn 0 1 0
vn 0 1 0
vn 0 1 0
vn 0 1 0
vn 0 1 0
vn 0 1 0
vn 0 1 0
vn 0 1 0
vn 0 1 0
vn 0 1 0
vn 0 1 0
vn 0 1 0
vn 0 1 0
vn 0 1 0
vn 0 1 0
vn 0 1 0
vn 0 1 0
vn 0 1 0
vn 0 1 0
vn 0 1 0
vn 0 1 0
vn 0 1 0
vn 0 1 0
vn 0 1 0
vn 0 1 0
vn 0 1 0
vn 0 1 0
vn 0 1 0
vn 0 1 0
vn 0 1 0
vn 0 1 0
vn 0 1 0
vn 0 1 0
vn 0 1 0
vn 0 1 0
vn 0 1 0
vn 0 1 0
vn 0 1 0
vn 0 1 0
vn 0 1 0
vn 0 1 0
vn 0 1 0
vn 0 1 0
vn 0 1 0
vn 0 1 0
vn 0 1 0
vn 0 1 0
vn 0 1 0
vn 0 1 0
vn 0 1 0
vn 0 1 0
vn 0 1 0
vn 0 1 0
vn 0 1 0
vn 0 1 0
vn 0 1 0
vn 0 1 0
vn 0 1 0
vn 0 1 0
vn 0 1 0
vn 0 1 0
g Grass_0_Cluster308_0
f 2/2/2 3/3/3 1/1/1
f 2/2/2 4/4/4 3/3/3
f 6/6/6 7/7/7 5/5/5
f 6/6/6 8/8/8 7/7/7
f 10/10/10 11/11/11 9/9/9
f 10/10/10 12/12/12 11/11/11
f 14/14/14 15/15/15 13/13/13
f 14/14/14 16/16/16 15/15/15
f 18/18/18 19/19/19 17/17/17
f 18/18/18 20/20/20 19/19/19
f 22/22/22 23/23/23 21/21/21
f 22/22/22 24/24/24 23/23/23
f 26/26/26 27/27/27 25/25/25
f 26/26/26 28/28/28 27/27/27
f 30/30/30 31/31/31 29/29/29
f 30/30/30 32/32/32 31/31/31
f 34/34/34 35/35/35 33/33/33
f 34/34/34 36/36/36 35/35/35
f 38/38/38 39/39/39 37/37/37
f 38/38/38 40/40/40 39/39/39
f 42/42/42 43/43/43 41/41/41
f 42/42/42 44/44/44 43/43/43
f 46/46/46 47/47/47 45/45/45
f 46/46/46 48/48/48 47/47/47
f 50/50/50 51/51/51 49/49/49
f 50/50/50 52/52/52 51/51/51
f 54/54/54 55/55/55 53/53/53
f 54/54/54 56/56/56 55/55/55
f 58/58/58 59/59/59 57/57/57
f 58/58/58 60/60/60 59/59/59
f 62/62/62 63/63/63 61/61/61
f 62/62/62 64/64/64 63/63/63
f 66/66/66 67/67/67 65/65/65
f 66/66/66 68/68/68 67/67/67
f 70/70/70 71/71/71 69/69/69
f 70/70/70 72/72/72 71/71/71
f 74/74/74 75/75/75 73/73/73
f 74/74/74 76/76/76 75/75/75
f 78/78/78 79/79/79 77/77/77
f 78/78/78 80/80/80 79/79/79
f 82/82/82 83/83/83 81/81/81
f 82/82/82 84/84/84 83/83/83
f 86/86/86 87/87/87 85/85/85
f 86/86/86 88/88/88 87/87/87
f 90/90/90 91/91/91 89/89/89
f 90/90/90 92/92/92 91/91/91
f 94/94/94 95/95/95 93/93/93
f 94/94/94 96/96/96 95/95/95
f 98/98/98 99/99/99 97/97/97
f 98/98/98 100/100/100 99/99/99
f 102/102/102 103/103/103 101/101/101
f 102/102/102 104/104/104 103/103/103
f 106/106/106 107/107/107 105/105/105
f 106/106/106 108/108/108 107/107/107
f 110/110/110 111/111/111 109/109/109
f 110/110/110 112/112/112 111/111/111
f 114/114/114 115/115/115 113/113/113
f 114/114/114 116/116/116 115/115/115
f 118/118/118 119/119/119 117/117/117
f 118/118/118 120/120/120 119/119/119
f 122/122/122 123/123/123 121/121/121
f 122/122/122 124/124/124 123/123/123
f 126/126/126 127/127/127 125/125/125
f 126/126/126 128/128/128 127/127/127
f 130/130/130 131/131/131 129/129/129
f 130/130/130 132/132/132 131/131/131
f 134/134/134 135/135/135 133/133/133
f 134/134/134 136/136/136 135/135/135
f 138/138/138 139/139/139 137/137/137
f 138/138/138 140/140/140 139/139/139
f 142/142/142 143/143/143 141/141/141
f 142/142/142 144/144/144 143/143/143
f 146/146/146 147/147/147 145/145/145
f 146/146/146 148/148/148 147/147/147
f 150/150/150 151/151/151 149/149/149
f 150/150/150 152/152/152 151/151/151
f 154/154/154 155/155/155 153/153/153
f 154/154/154 156/156/156 155/155/155
f 158/158/158 159/159/159 157/157/157
f 158/158/158 160/160/160 159/159/159
f 162/162/162 163/163/163 161/161/161
f 162/162/162 164/164/164 163/163/163
f 166/166/166 167/167/167 165/165/165
f 166/166/166 168/168/168 167/167/167
f 170/170/170 171/171/171 169/169/169
f 170/170/170 172/172/172 171/171/171
f 174/174/174 175/175/175 173/173/173
f 174/174/174 176/176/176 175/175/175
f 178/178/178 179/179/179 177/177/177
f 178/178/178 180/180/180 179/179/179
f 182/182/182 183/183/183 181/181/181
f 182/182/182 184/184/184 183/183/183
f 186/186/186 187/187/187 185/185/185
f 186/186/186 188/188/188 187/187/187
f 190/190/190 191/191/191 189/189/189
f 190/190/190 192/192/192 191/191/191
f 194/194/194 195/195/195 193/193/193
f 194/194/194 196/196/196 195/195/195
f 198/198/198 199/199/199 197/197/197
f 198/198/198 200/200/200 199/199/199
f 202/202/202 203/203/203 201/201/201
f 202/202/202 204/204/204 203/203/203
f 206/206/206 207/207/207 205/205/205
f 206/206/206 208/208/208 207/207/207
f 210/210/210 211/211/211 209/209/209
f 210/210/210 212/212/212 211/211/211
f 214/214/214 215/215/215 213/213/213
f 214/214/214 216/216/216 215/215/215
f 218/218/218 219/219/219 217/217/217
f 218/218/218 220/220/220 219/219/219
f 222/222/222 223/223/223 221/221/221
f 222/222/222 224/224/224 223/223/223
f 226/226/226 227/227/227 225/225/225
f 226/226/226 228/228/228 227/227/227
f 230/230/230 231/231/231 229/229/229
f 230/230/230 232/232/232 231/231/231
f 234/234/234 235/235/235 233/233/233
f 234/234/234 236/236/236 235/235/235
f 238/238/238 239/239/239 237/237/237
f 238/238/238 240/240/240 239/239/239
f 242/242/242 243/243/243 241/241/241
f 242/242/242 244/244/244 243/243/243
