g Grass_1_Cluster260
v 276.4004 -0.2235107 381.7657
v 275.7349 -0.2235107 381.7657
v 276.4004 -0.2235107 382.4312
v 275.7349 -0.2235107 382.4312
v 273.0729 -0.2235107 381.1002
v 271.742 -0.2235107 381.1002
v 273.0729 -0.2235107 382.4312
v 271.742 -0.2235107 382.4312
v 274.4039 -0.2235107 380.4347
v 273.0729 -0.2235107 380.4347
v 274.4039 -0.2235107 381.1002
v 273.0729 -0.2235107 381.1002
v 277.7314 -0.2235107 379.1037
v 277.0659 -0.2235107 379.1037
v 277.7314 -0.2235107 379.7693
v 277.0659 -0.2235107 379.7693
v 297.0305 -0.2235107 377.1073
v 296.365 -0.2235107 377.1073
v 297.0305 -0.2235107 378.4383
v 296.365 -0.2235107 378.4383
v 298.3614 -0.2235107 371.7834
v 297.6959 -0.2235107 371.7834
v 298.3614 -0.2235107 372.4489
v 297.6959 -0.2235107 372.4489
v 298.3614 -0.2235107 371.1179
v 297.0305 -0.2235107 371.1179
v 298.3614 -0.2235107 371.7834
v 297.0305 -0.2235107 371.7834
v 295.6995 -0.2235107 368.456
v 295.034 -0.2235107 368.456
v 295.6995 -0.2235107 369.1214
v 295.034 -0.2235107 369.1214
v 297.0305 -0.2235107 367.7905
v 296.365 -0.2235107 367.7905
v 297.0305 -0.2235107 368.456
v 296.365 -0.2235107 368.456
v 274.4039 -0.2235107 365.794
v 273.7384 -0.2235107 365.794
v 274.4039 -0.2235107 367.125
v 273.7384 -0.2235107 367.125
v 283.0552 -0.2235107 360.4701
v 282.3897 -0.2235107 360.4701
v 283.0552 -0.2235107 361.1356
v 282.3897 -0.2235107 361.1356
v 285.7172 -0.2235107 359.8047
v 285.0517 -0.2235107 359.8047
v 285.7172 -0.2235107 361.1356
v 285.0517 -0.2235107 361.1356
v 284.3862 -0.2235107 359.8047
v 283.7207 -0.2235107 359.8047
v 284.3862 -0.2235107 360.4701
v 283.7207 -0.2235107 360.4701
vt 0.06738281 0.9369141
vt 0.1331457 0.9369141
vt 0.06738281 0.9990234
vt 0.1331457 0.9990234
vt 0.06738281 0.9369141
vt 0.1331457 0.9369141
vt 0.06738281 0.9990234
vt 0.1331457 0.9990234
vt 0.06738281 0.9369141
vt 0.1331457 0.9369141
vt 0.06738281 0.9990234
vt 0.1331457 0.9990234
vt 0.06738281 0.9369141
vt 0.1331457 0.9369141
vt 0.06738281 0.9990234
vt 0.1331457 0.9990234
vt 0.06738281 0.9369141
vt 0.1331457 0.9369141
vt 0.06738281 0.9990234
vt 0.1331457 0.9990234
vt 0.06738281 0.9369141
vt 0.1331457 0.9369141
vt 0.06738281 0.9990234
vt 0.1331457 0.9990234
vt 0.06738281 0.9369141
vt 0.1331457 0.9369141
vt 0.06738281 0.9990234
vt 0.1331457 0.9990234
vt 0.06738281 0.9369141
vt 0.1331457 0.9369141
vt 0.06738281 0.9990234
vt 0.1331457 0.9990234
vt 0.06738281 0.9369141
vt 0.1331457 0.9369141
vt 0.06738281 0.9990234
vt 0.1331457 0.9990234
vt 0.06738281 0.9369141
vt 0.1331457 0.9369141
vt 0.06738281 0.9990234
vt 0.1331457 0.9990234
vt 0.06738281 0.9369141
vt 0.1331457 0.9369141
vt 0.06738281 0.9990234
vt 0.1331457 0.9990234
vt 0.06738281 0.9369141
vt 0.1331457 0.9369141
vt 0.06738281 0.9990234
vt 0.1331457 0.9990234
vt 0.06738281 0.9369141
vt 0.1331457 0.9369141
vt 0.06738281 0.9990234
vt 0.1331457 0.9990234
vn 0 1 0
vn 0 1 0
vn 0 1 0
vn 0 1 0
vn 0 1 0
vn 0 1 0
vn 0 1 0
vn 0 1 0
vn 0 1 0
vn 0 1 0
vn 0 1 0
vn 0 1 0
vn 0 1 0
vn 0 1 0
vn 0 1 0
vn 0 1 0
vn 0 1 0
vn 0 1 0
vn 0 1 0
vn 0 1 0
vn 0 1 0
vn 0 1 0
vn 0 1 0
vn 0 1 0
vn 0 1 0
vn 0 1 0
vn 0 1 0
vn 0 1 0
vn 0 1 0
vn 0 1 0
vn 0 1 0
vn 0 1 0
vn 0 1 0
vn 0 1 0
vn 0 1 0
vn 0 1 0
vn 0 1 0
vn 0 1 0
vn 0 1 0
vn 0 1 0
vn 0 1 0
vn 0 1 0
vn 0 1 0
vn 0 1 0
vn 0 1 0
vn 0 1 0
vn 0 1 0
vn 0 1 0
vn 0 1 0
vn 0 1 0
vn 0 1 0
vn 0 1 0
g Grass_1_Cluster260_0
f 2/2/2 3/3/3 1/1/1
f 2/2/2 4/4/4 3/3/3
f 6/6/6 7/7/7 5/5/5
f 6/6/6 8/8/8 7/7/7
f 10/10/10 11/11/11 9/9/9
f 10/10/10 12/12/12 11/11/11
f 14/14/14 15/15/15 13/13/13
f 14/14/14 16/16/16 15/15/15
f 18/18/18 19/19/19 17/17/17
f 18/18/18 20/20/20 19/19/19
f 22/22/22 23/23/23 21/21/21
f 22/22/22 24/24/24 23/23/23
f 26/26/26 27/27/27 25/25/25
f 26/26/26 28/28/28 27/27/27
f 30/30/30 31/31/31 29/29/29
f 30/30/30 32/32/32 31/31/31
f 34/34/34 35/35/35 33/33/33
f 34/34/34 36/36/36 35/35/35
f 38/38/38 39/39/39 37/37/37
f 38/38/38 40/40/40 39/39/39
f 42/42/42 43/43/43 41/41/41
f 42/42/42 44/44/44 43/43/43
f 46/46/46 47/47/47 45/45/45
f 46/46/46 48/48/48 47/47/47
f 50/50/50 51/51/51 49/49/49
f 50/50/50 52/52/52 51/51/51
