g Grass_2_Cluster167
v 75.4019 -0.1544952 230.94
v 74.45737 -0.1544952 230.94
v 75.4019 -0.1544952 231.8846
v 74.45737 -0.1544952 231.8846
v 73.82769 -0.1544952 229.6807
v 72.88316 -0.1544952 229.6807
v 73.82769 -0.1544952 230.94
v 72.88316 -0.1544952 230.94
v 76.34643 -0.1544952 229.6807
v 75.4019 -0.1544952 229.6807
v 76.34643 -0.1544952 230.6252
v 75.4019 -0.1544952 230.6252
v 75.08706 -0.1544952 229.3658
v 74.14253 -0.1544952 229.3658
v 75.08706 -0.1544952 230.6252
v 74.14253 -0.1544952 230.6252
v 74.77222 -0.1544952 228.7362
v 73.82769 -0.1544952 228.7362
v 74.77222 -0.1544952 229.9955
v 73.82769 -0.1544952 229.9955
v 73.198 -0.1544952 227.7916
v 72.25348 -0.1544952 227.7916
v 73.198 -0.1544952 228.7362
v 72.25348 -0.1544952 228.7362
v 75.71674 -0.1544952 227.7916
v 74.77222 -0.1544952 227.7916
v 75.71674 -0.1544952 228.7362
v 74.77222 -0.1544952 228.7362
v 75.08706 -0.1544952 226.8471
v 74.14253 -0.1544952 226.8471
v 75.08706 -0.1544952 228.1065
v 74.14253 -0.1544952 228.1065
v 74.45737 -0.1544952 226.2174
v 73.51285 -0.1544952 226.2174
v 74.45737 -0.1544952 227.1619
v 73.51285 -0.1544952 227.1619
v 73.51285 -0.1544952 225.9026
v 72.56831 -0.1544952 225.9026
v 73.51285 -0.1544952 226.8471
v 72.56831 -0.1544952 226.8471
v 78.23549 -0.1544952 225.9026
v 77.29095 -0.1544952 225.9026
v 78.23549 -0.1544952 227.1619
v 77.29095 -0.1544952 227.1619
v 75.4019 -0.1544952 225.5877
v 74.45737 -0.1544952 225.5877
v 75.4019 -0.1544952 226.8471
v 74.45737 -0.1544952 226.8471
v 66.27146 -0.1544952 225.2729
v 65.32693 -0.1544952 225.2729
v 66.27146 -0.1544952 226.2174
v 65.32693 -0.1544952 226.2174
v 72.56831 -0.1544952 225.2729
v 71.62379 -0.1544952 225.2729
v 72.56831 -0.1544952 226.2174
v 71.62379 -0.1544952 226.2174
v 76.66127 -0.1544952 225.2729
v 75.71674 -0.1544952 225.2729
v 76.66127 -0.1544952 226.5322
v 75.71674 -0.1544952 226.5322
v 74.45737 -0.1544952 224.6432
v 73.51285 -0.1544952 224.6432
v 74.45737 -0.1544952 225.5877
v 73.51285 -0.1544952 225.5877
v 75.71674 -0.1544952 224.3284
v 74.77222 -0.1544952 224.3284
v 75.71674 -0.1544952 225.2729
v 74.77222 -0.1544952 225.2729
v 77.6058 -0.1544952 223.069
v 76.66127 -0.1544952 223.069
v 77.6058 -0.1544952 224.3284
v 76.66127 -0.1544952 224.3284
v 75.08706 -0.1544952 222.7541
v 74.14253 -0.1544952 222.7541
v 75.08706 -0.1544952 223.6987
v 74.14253 -0.1544952 223.6987
v 67.21599 -0.1544952 222.4393
v 66.27146 -0.1544952 222.4393
v 67.21599 -0.1544952 223.3838
v 66.27146 -0.1544952 223.3838
v 71.93863 -0.1544952 222.1245
v 70.9941 -0.1544952 222.1245
v 71.93863 -0.1544952 223.3838
v 70.9941 -0.1544952 223.3838
v 68.79021 -0.1544952 221.8096
v 67.84567 -0.1544952 221.8096
v 68.79021 -0.1544952 223.069
v 67.84567 -0.1544952 223.069
v 83.58781 -0.1544952 221.8096
v 82.64328 -0.1544952 221.8096
v 83.58781 -0.1544952 222.7541
v 82.64328 -0.1544952 222.7541
v 85.79171 -0.1544952 218.6612
v 84.84718 -0.1544952 218.6612
v 85.79171 -0.1544952 219.6057
v 84.84718 -0.1544952 219.6057
v 86.10655 -0.1544952 217.7167
v 85.16203 -0.1544952 217.7167
v 86.10655 -0.1544952 218.976
v 85.16203 -0.1544952 218.976
v 90.19951 -0.1544952 216.4573
v 89.25498 -0.1544952 216.4573
v 90.19951 -0.1544952 217.4018
v 89.25498 -0.1544952 217.4018
v 87.99561 -0.1544952 216.1424
v 87.05108 -0.1544952 216.1424
v 87.99561 -0.1544952 217.4018
v 87.05108 -0.1544952 217.4018
v 89.88467 -0.1544952 215.5128
v 88.94014 -0.1544952 215.5128
v 89.88467 -0.1544952 216.7721
v 88.94014 -0.1544952 216.7721
v 88.94014 -0.1544952 215.1979
v 87.99561 -0.1544952 215.1979
v 88.94014 -0.1544952 216.4573
v 87.99561 -0.1544952 216.4573
v 88.6253 -0.1544952 214.5682
v 87.68077 -0.1544952 214.5682
v 88.6253 -0.1544952 215.5128
v 87.68077 -0.1544952 215.5128
v 89.88467 -0.1544952 214.5682
v 88.94014 -0.1544952 214.5682
v 89.88467 -0.1544952 215.5128
v 88.94014 -0.1544952 215.5128
v 88.94014 -0.1544952 212.3643
v 87.99561 -0.1544952 212.3643
v 88.94014 -0.1544952 213.3089
v 87.99561 -0.1544952 213.3089
v 86.73624 -0.1544952 211.7346
v 85.79171 -0.1544952 211.7346
v 86.73624 -0.1544952 212.6792
v 85.79171 -0.1544952 212.6792
v 85.16203 -0.1544952 208.9011
v 84.2175 -0.1544952 208.9011
v 85.16203 -0.1544952 209.8456
v 84.2175 -0.1544952 209.8456
v 84.53234 -0.1544952 207.6417
v 83.58781 -0.1544952 207.6417
v 84.53234 -0.1544952 208.5862
v 83.58781 -0.1544952 208.5862
v 82.32844 -0.1544952 207.012
v 81.38391 -0.1544952 207.012
v 82.32844 -0.1544952 207.9565
v 81.38391 -0.1544952 207.9565
v 83.27297 -0.1544952 206.6972
v 82.32844 -0.1544952 206.6972
v 83.27297 -0.1544952 207.9565
v 82.32844 -0.1544952 207.9565
v 81.06907 -0.1544952 206.3823
v 80.43938 -0.1544952 206.3823
v 81.06907 -0.1544952 207.3269
v 80.43938 -0.1544952 207.3269
v 84.53234 -0.1544952 206.3823
v 83.58781 -0.1544952 206.3823
v 84.53234 -0.1544952 207.6417
v 83.58781 -0.1544952 207.6417
v 82.32844 -0.1544952 206.3823
v 81.38391 -0.1544952 206.3823
v 82.32844 -0.1544952 207.3269
v 81.38391 -0.1544952 207.3269
v 74.45737 -0.1544952 206.0675
v 73.51285 -0.1544952 206.0675
v 74.45737 -0.1544952 207.012
v 73.51285 -0.1544952 207.012
v 79.18002 -0.1544952 206.0675
v 78.23549 -0.1544952 206.0675
v 79.18002 -0.1544952 207.012
v 78.23549 -0.1544952 207.012
v 84.2175 -0.1544952 205.4378
v 83.27297 -0.1544952 205.4378
v 84.2175 -0.1544952 206.6972
v 83.27297 -0.1544952 206.6972
v 83.58781 -0.1544952 205.1229
v 82.64328 -0.1544952 205.1229
v 83.58781 -0.1544952 206.3823
v 82.64328 -0.1544952 206.3823
v 80.75423 -0.1544952 205.1229
v 79.8097 -0.1544952 205.1229
v 80.75423 -0.1544952 206.3823
v 79.8097 -0.1544952 206.3823
v 81.69875 -0.1544952 205.1229
v 80.75423 -0.1544952 205.1229
v 81.69875 -0.1544952 206.0675
v 80.75423 -0.1544952 206.0675
v 79.8097 -0.1544952 204.8081
v 78.86517 -0.1544952 204.8081
v 79.8097 -0.1544952 205.7526
v 78.86517 -0.1544952 205.7526
v 82.64328 -0.1544952 204.4933
v 81.69875 -0.1544952 204.4933
v 82.64328 -0.1544952 205.7526
v 81.69875 -0.1544952 205.7526
v 83.90266 -0.1544952 204.4933
v 82.95813 -0.1544952 204.4933
v 83.90266 -0.1544952 205.4378
v 82.95813 -0.1544952 205.4378
v 81.06907 -0.1544952 203.8636
v 80.12454 -0.1544952 203.8636
v 81.06907 -0.1544952 205.1229
v 80.12454 -0.1544952 205.1229
v 82.95813 -0.1544952 203.2339
v 82.0136 -0.1544952 203.2339
v 82.95813 -0.1544952 204.4933
v 82.0136 -0.1544952 204.4933
vt 0.1347656 0.9185662
vt 0.2060202 0.9185662
vt 0.1347656 1
vt 0.2060202 1
vt 0.1347656 0.9185662
vt 0.2060202 0.9185662
vt 0.1347656 1
vt 0.2060202 1
vt 0.1347656 0.9185662
vt 0.2060202 0.9185662
vt 0.1347656 1
vt 0.2060202 1
vt 0.1347656 0.9185662
vt 0.2060202 0.9185662
vt 0.1347656 1
vt 0.2060202 1
vt 0.1347656 0.9185662
vt 0.2060202 0.9185662
vt 0.1347656 1
vt 0.2060202 1
vt 0.1347656 0.9185662
vt 0.2060202 0.9185662
vt 0.1347656 1
vt 0.2060202 1
vt 0.1347656 0.9185662
vt 0.2060202 0.9185662
vt 0.1347656 1
vt 0.2060202 1
vt 0.1347656 0.9185662
vt 0.2060202 0.9185662
vt 0.1347656 1
vt 0.2060202 1
vt 0.1347656 0.9185662
vt 0.2060202 0.9185662
vt 0.1347656 1
vt 0.2060202 1
vt 0.1347656 0.9185662
vt 0.2060202 0.9185662
vt 0.1347656 1
vt 0.2060202 1
vt 0.1347656 0.9185662
vt 0.2060202 0.9185662
vt 0.1347656 1
vt 0.2060202 1
vt 0.1347656 0.9185662
vt 0.2060202 0.9185662
vt 0.1347656 1
vt 0.2060202 1
vt 0.1347656 0.9185662
vt 0.2060202 0.9185662
vt 0.1347656 1
vt 0.2060202 1
vt 0.1347656 0.9185662
vt 0.2060202 0.9185662
vt 0.1347656 1
vt 0.2060202 1
vt 0.1347656 0.9185662
vt 0.2060202 0.9185662
vt 0.1347656 1
vt 0.2060202 1
vt 0.1347656 0.9185662
vt 0.2060202 0.9185662
vt 0.1347656 1
vt 0.2060202 1
vt 0.1347656 0.9185662
vt 0.2060202 0.9185662
vt 0.1347656 1
vt 0.2060202 1
vt 0.1347656 0.9185662
vt 0.2060202 0.9185662
vt 0.1347656 1
vt 0.2060202 1
vt 0.1347656 0.9185662
vt 0.2060202 0.9185662
vt 0.1347656 1
vt 0.2060202 1
vt 0.1347656 0.9185662
vt 0.2060202 0.9185662
vt 0.1347656 1
vt 0.2060202 1
vt 0.1347656 0.9185662
vt 0.2060202 0.9185662
vt 0.1347656 1
vt 0.2060202 1
vt 0.1347656 0.9185662
vt 0.2060202 0.9185662
vt 0.1347656 1
vt 0.2060202 1
vt 0.1347656 0.9185662
vt 0.2060202 0.9185662
vt 0.1347656 1
vt 0.2060202 1
vt 0.1347656 0.9185662
vt 0.2060202 0.9185662
vt 0.1347656 1
vt 0.2060202 1
vt 0.1347656 0.9185662
vt 0.2060202 0.9185662
vt 0.1347656 1
vt 0.2060202 1
vt 0.1347656 0.9185662
vt 0.2060202 0.9185662
vt 0.1347656 1
vt 0.2060202 1
vt 0.1347656 0.9185662
vt 0.2060202 0.9185662
vt 0.1347656 1
vt 0.2060202 1
vt 0.1347656 0.9185662
vt 0.2060202 0.9185662
vt 0.1347656 1
vt 0.2060202 1
vt 0.1347656 0.9185662
vt 0.2060202 0.9185662
vt 0.1347656 1
vt 0.2060202 1
vt 0.1347656 0.9185662
vt 0.2060202 0.9185662
vt 0.1347656 1
vt 0.2060202 1
vt 0.1347656 0.9185662
vt 0.2060202 0.9185662
vt 0.1347656 1
vt 0.2060202 1
vt 0.1347656 0.9185662
vt 0.2060202 0.9185662
vt 0.1347656 1
vt 0.2060202 1
vt 0.1347656 0.9185662
vt 0.2060202 0.9185662
vt 0.1347656 1
vt 0.2060202 1
vt 0.1347656 0.9185662
vt 0.2060202 0.9185662
vt 0.1347656 1
vt 0.2060202 1
vt 0.1347656 0.9185662
vt 0.2060202 0.9185662
vt 0.1347656 1
vt 0.2060202 1
vt 0.1347656 0.9185662
vt 0.2060202 0.9185662
vt 0.1347656 1
vt 0.2060202 1
vt 0.1347656 0.9185662
vt 0.2060202 0.9185662
vt 0.1347656 1
vt 0.2060202 1
vt 0.1347656 0.9185662
vt 0.2060202 0.9185662
vt 0.1347656 1
vt 0.2060202 1
vt 0.1347656 0.9185662
vt 0.2060202 0.9185662
vt 0.1347656 1
vt 0.2060202 1
vt 0.1347656 0.9185662
vt 0.2060202 0.9185662
vt 0.1347656 1
vt 0.2060202 1
vt 0.1347656 0.9185662
vt 0.2060202 0.9185662
vt 0.1347656 1
vt 0.2060202 1
vt 0.1347656 0.9185662
vt 0.2060202 0.9185662
vt 0.1347656 1
vt 0.2060202 1
vt 0.1347656 0.9185662
vt 0.2060202 0.9185662
vt 0.1347656 1
vt 0.2060202 1
vt 0.1347656 0.9185662
vt 0.2060202 0.9185662
vt 0.1347656 1
vt 0.2060202 1
vt 0.1347656 0.9185662
vt 0.2060202 0.9185662
vt 0.1347656 1
vt 0.2060202 1
vt 0.1347656 0.9185662
vt 0.2060202 0.9185662
vt 0.1347656 1
vt 0.2060202 1
vt 0.1347656 0.9185662
vt 0.2060202 0.9185662
vt 0.1347656 1
vt 0.2060202 1
vt 0.1347656 0.9185662
vt 0.2060202 0.9185662
vt 0.1347656 1
vt 0.2060202 1
vt 0.1347656 0.9185662
vt 0.2060202 0.9185662
vt 0.1347656 1
vt 0.2060202 1
vt 0.1347656 0.9185662
vt 0.2060202 0.9185662
vt 0.1347656 1
vt 0.2060202 1
vt 0.1347656 0.9185662
vt 0.2060202 0.9185662
vt 0.1347656 1
vt 0.2060202 1
vn 0 1 0
vn 0 1 0
vn 0 1 0
vn 0 1 0
vn 0 1 0
vn 0 1 0
vn 0 1 0
vn 0 1 0
vn 0 1 0
vn 0 1 0
vn 0 1 0
vn 0 1 0
vn 0 1 0
vn 0 1 0
vn 0 1 0
vn 0 1 0
vn 0 1 0
vn 0 1 0
vn 0 1 0
vn 0 1 0
vn 0 1 0
vn 0 1 0
vn 0 1 0
vn 0 1 0
vn 0 1 0
vn 0 1 0
vn 0 1 0
vn 0 1 0
vn 0 1 0
vn 0 1 0
vn 0 1 0
vn 0 1 0
vn 0 1 0
vn 0 1 0
vn 0 1 0
vn 0 1 0
vn 0 1 0
vn 0 1 0
vn 0 1 0
vn 0 1 0
vn 0 1 0
vn 0 1 0
vn 0 1 0
vn 0 1 0
vn 0 1 0
vn 0 1 0
vn 0 1 0
vn 0 1 0
vn 0 1 0
vn 0 1 0
vn 0 1 0
vn 0 1 0
vn 0 1 0
vn 0 1 0
vn 0 1 0
vn 0 1 0
vn 0 1 0
vn 0 1 0
vn 0 1 0
vn 0 1 0
vn 0 1 0
vn 0 1 0
vn 0 1 0
vn 0 1 0
vn 0 1 0
vn 0 1 0
vn 0 1 0
vn 0 1 0
vn 0 1 0
vn 0 1 0
vn 0 1 0
vn 0 1 0
vn 0 1 0
vn 0 1 0
vn 0 1 0
vn 0 1 0
vn 0 1 0
vn 0 1 0
vn 0 1 0
vn 0 1 0
vn 0 1 0
vn 0 1 0
vn 0 1 0
vn 0 1 0
vn 0 1 0
vn 0 1 0
vn 0 1 0
vn 0 1 0
vn 0 1 0
vn 0 1 0
vn 0 1 0
vn 0 1 0
vn 0 1 0
vn 0 1 0
vn 0 1 0
vn 0 1 0
vn 0 1 0
vn 0 1 0
vn 0 1 0
vn 0 1 0
vn 0 1 0
vn 0 1 0
vn 0 1 0
vn 0 1 0
vn 0 1 0
vn 0 1 0
vn 0 1 0
vn 0 1 0
vn 0 1 0
vn 0 1 0
vn 0 1 0
vn 0 1 0
vn 0 1 0
vn 0 1 0
vn 0 1 0
vn 0 1 0
vn 0 1 0
vn 0 1 0
vn 0 1 0
vn 0 1 0
vn 0 1 0
vn 0 1 0
vn 0 1 0
vn 0 1 0
vn 0 1 0
vn 0 1 0
vn 0 1 0
vn 0 1 0
vn 0 1 0
vn 0 1 0
vn 0 1 0
vn 0 1 0
vn 0 1 0
vn 0 1 0
vn 0 1 0
vn 0 1 0
vn 0 1 0
vn 0 1 0
vn 0 1 0
vn 0 1 0
vn 0 1 0
vn 0 1 0
vn 0 1 0
vn 0 1 0
vn 0 1 0
vn 0 1 0
vn 0 1 0
vn 0 1 0
vn 0 1 0
vn 0 1 0
vn 0 1 0
vn 0 1 0
vn 0 1 0
vn 0 1 0
vn 0 1 0
vn 0 1 0
vn 0 1 0
vn 0 1 0
vn 0 1 0
vn 0 1 0
vn 0 1 0
vn 0 1 0
vn 0 1 0
vn 0 1 0
vn 0 1 0
vn 0 1 0
vn 0 1 0
vn 0 1 0
vn 0 1 0
vn 0 1 0
vn 0 1 0
vn 0 1 0
vn 0 1 0
vn 0 1 0
vn 0 1 0
vn 0 1 0
vn 0 1 0
vn 0 1 0
vn 0 1 0
vn 0 1 0
vn 0 1 0
vn 0 1 0
vn 0 1 0
vn 0 1 0
vn 0 1 0
vn 0 1 0
vn 0 1 0
vn 0 1 0
vn 0 1 0
vn 0 1 0
vn 0 1 0
vn 0 1 0
vn 0 1 0
vn 0 1 0
vn 0 1 0
vn 0 1 0
vn 0 1 0
vn 0 1 0
vn 0 1 0
vn 0 1 0
vn 0 1 0
vn 0 1 0
vn 0 1 0
vn 0 1 0
g Grass_2_Cluster167_0
f 2/2/2 3/3/3 1/1/1
f 2/2/2 4/4/4 3/3/3
f 6/6/6 7/7/7 5/5/5
f 6/6/6 8/8/8 7/7/7
f 10/10/10 11/11/11 9/9/9
f 10/10/10 12/12/12 11/11/11
f 14/14/14 15/15/15 13/13/13
f 14/14/14 16/16/16 15/15/15
f 18/18/18 19/19/19 17/17/17
f 18/18/18 20/20/20 19/19/19
f 22/22/22 23/23/23 21/21/21
f 22/22/22 24/24/24 23/23/23
f 26/26/26 27/27/27 25/25/25
f 26/26/26 28/28/28 27/27/27
f 30/30/30 31/31/31 29/29/29
f 30/30/30 32/32/32 31/31/31
f 34/34/34 35/35/35 33/33/33
f 34/34/34 36/36/36 35/35/35
f 38/38/38 39/39/39 37/37/37
f 38/38/38 40/40/40 39/39/39
f 42/42/42 43/43/43 41/41/41
f 42/42/42 44/44/44 43/43/43
f 46/46/46 47/47/47 45/45/45
f 46/46/46 48/48/48 47/47/47
f 50/50/50 51/51/51 49/49/49
f 50/50/50 52/52/52 51/51/51
f 54/54/54 55/55/55 53/53/53
f 54/54/54 56/56/56 55/55/55
f 58/58/58 59/59/59 57/57/57
f 58/58/58 60/60/60 59/59/59
f 62/62/62 63/63/63 61/61/61
f 62/62/62 64/64/64 63/63/63
f 66/66/66 67/67/67 65/65/65
f 66/66/66 68/68/68 67/67/67
f 70/70/70 71/71/71 69/69/69
f 70/70/70 72/72/72 71/71/71
f 74/74/74 75/75/75 73/73/73
f 74/74/74 76/76/76 75/75/75
f 78/78/78 79/79/79 77/77/77
f 78/78/78 80/80/80 79/79/79
f 82/82/82 83/83/83 81/81/81
f 82/82/82 84/84/84 83/83/83
f 86/86/86 87/87/87 85/85/85
f 86/86/86 88/88/88 87/87/87
f 90/90/90 91/91/91 89/89/89
f 90/90/90 92/92/92 91/91/91
f 94/94/94 95/95/95 93/93/93
f 94/94/94 96/96/96 95/95/95
f 98/98/98 99/99/99 97/97/97
f 98/98/98 100/100/100 99/99/99
f 102/102/102 103/103/103 101/101/101
f 102/102/102 104/104/104 103/103/103
f 106/106/106 107/107/107 105/105/105
f 106/106/106 108/108/108 107/107/107
f 110/110/110 111/111/111 109/109/109
f 110/110/110 112/112/112 111/111/111
f 114/114/114 115/115/115 113/113/113
f 114/114/114 116/116/116 115/115/115
f 118/118/118 119/119/119 117/117/117
f 118/118/118 120/120/120 119/119/119
f 122/122/122 123/123/123 121/121/121
f 122/122/122 124/124/124 123/123/123
f 126/126/126 127/127/127 125/125/125
f 126/126/126 128/128/128 127/127/127
f 130/130/130 131/131/131 129/129/129
f 130/130/130 132/132/132 131/131/131
f 134/134/134 135/135/135 133/133/133
f 134/134/134 136/136/136 135/135/135
f 138/138/138 139/139/139 137/137/137
f 138/138/138 140/140/140 139/139/139
f 142/142/142 143/143/143 141/141/141
f 142/142/142 144/144/144 143/143/143
f 146/146/146 147/147/147 145/145/145
f 146/146/146 148/148/148 147/147/147
f 150/150/150 151/151/151 149/149/149
f 150/150/150 152/152/152 151/151/151
f 154/154/154 155/155/155 153/153/153
f 154/154/154 156/156/156 155/155/155
f 158/158/158 159/159/159 157/157/157
f 158/158/158 160/160/160 159/159/159
f 162/162/162 163/163/163 161/161/161
f 162/162/162 164/164/164 163/163/163
f 166/166/166 167/167/167 165/165/165
f 166/166/166 168/168/168 167/167/167
f 170/170/170 171/171/171 169/169/169
f 170/170/170 172/172/172 171/171/171
f 174/174/174 175/175/175 173/173/173
f 174/174/174 176/176/176 175/175/175
f 178/178/178 179/179/179 177/177/177
f 178/178/178 180/180/180 179/179/179
f 182/182/182 183/183/183 181/181/181
f 182/182/182 184/184/184 183/183/183
f 186/186/186 187/187/187 185/185/185
f 186/186/186 188/188/188 187/187/187
f 190/190/190 191/191/191 189/189/189
f 190/190/190 192/192/192 191/191/191
f 194/194/194 195/195/195 193/193/193
f 194/194/194 196/196/196 195/195/195
f 198/198/198 199/199/199 197/197/197
f 198/198/198 200/200/200 199/199/199
f 202/202/202 203/203/203 201/201/201
f 202/202/202 204/204/204 203/203/203
