g Grass_2_Cluster247
v 66.56779 -0.2105331 351.96
v 65.26666 -0.2105331 351.96
v 66.56779 -0.2105331 353.2611
v 65.26666 -0.2105331 353.2611
v 66.56779 -0.2105331 350.6589
v 65.70037 -0.2105331 350.6589
v 66.56779 -0.2105331 351.96
v 65.70037 -0.2105331 351.96
v 65.26666 -0.2105331 350.6589
v 64.39925 -0.2105331 350.6589
v 65.26666 -0.2105331 351.5263
v 64.39925 -0.2105331 351.5263
v 67.0015 -0.2105331 350.2252
v 66.13408 -0.2105331 350.2252
v 67.0015 -0.2105331 351.0926
v 66.13408 -0.2105331 351.0926
v 65.70037 -0.2105331 349.7914
v 64.83295 -0.2105331 349.7914
v 65.70037 -0.2105331 350.6589
v 64.83295 -0.2105331 350.6589
v 63.96554 -0.2105331 349.7914
v 62.66442 -0.2105331 349.7914
v 63.96554 -0.2105331 350.6589
v 62.66442 -0.2105331 350.6589
v 62.66442 -0.2105331 348.924
v 61.797 -0.2105331 348.924
v 62.66442 -0.2105331 349.7914
v 61.797 -0.2105331 349.7914
v 63.96554 -0.2105331 348.4903
v 63.09813 -0.2105331 348.4903
v 63.96554 -0.2105331 349.3578
v 63.09813 -0.2105331 349.3578
v 67.0015 -0.2105331 348.4903
v 65.70037 -0.2105331 348.4903
v 67.0015 -0.2105331 349.3578
v 65.70037 -0.2105331 349.3578
v 65.70037 -0.2105331 348.4903
v 64.83295 -0.2105331 348.4903
v 65.70037 -0.2105331 349.3578
v 64.83295 -0.2105331 349.3578
v 63.53183 -0.2105331 348.0566
v 62.66442 -0.2105331 348.0566
v 63.53183 -0.2105331 349.3578
v 62.66442 -0.2105331 349.3578
v 61.797 -0.2105331 347.6229
v 60.49588 -0.2105331 347.6229
v 61.797 -0.2105331 348.924
v 60.49588 -0.2105331 348.924
v 64.83295 -0.2105331 347.6229
v 63.96554 -0.2105331 347.6229
v 64.83295 -0.2105331 348.4903
v 63.96554 -0.2105331 348.4903
v 62.23071 -0.2105331 347.1892
v 61.3633 -0.2105331 347.1892
v 62.23071 -0.2105331 348.4903
v 61.3633 -0.2105331 348.4903
v 63.53183 -0.2105331 347.1892
v 62.23071 -0.2105331 347.1892
v 63.53183 -0.2105331 348.0566
v 62.23071 -0.2105331 348.0566
v 64.83295 -0.2105331 346.7555
v 63.53183 -0.2105331 346.7555
v 64.83295 -0.2105331 347.6229
v 63.53183 -0.2105331 347.6229
v 62.23071 -0.2105331 346.3218
v 61.3633 -0.2105331 346.3218
v 62.23071 -0.2105331 347.6229
v 61.3633 -0.2105331 347.6229
v 63.09813 -0.2105331 346.3218
v 61.797 -0.2105331 346.3218
v 63.09813 -0.2105331 347.1892
v 61.797 -0.2105331 347.1892
v 61.3633 -0.2105331 345.4544
v 60.49588 -0.2105331 345.4544
v 61.3633 -0.2105331 346.3218
v 60.49588 -0.2105331 346.3218
v 62.66442 -0.2105331 344.587
v 61.797 -0.2105331 344.587
v 62.66442 -0.2105331 345.8881
v 61.797 -0.2105331 345.8881
v 61.3633 -0.2105331 344.587
v 60.06217 -0.2105331 344.587
v 61.3633 -0.2105331 345.4544
v 60.06217 -0.2105331 345.4544
v 62.23071 -0.2105331 343.2858
v 61.3633 -0.2105331 343.2858
v 62.23071 -0.2105331 344.587
v 61.3633 -0.2105331 344.587
v 72.63969 -0.2105331 336.7802
v 71.33857 -0.2105331 336.7802
v 72.63969 -0.2105331 337.6476
v 71.33857 -0.2105331 337.6476
v 70.47115 -0.2105331 335.9128
v 69.60374 -0.2105331 335.9128
v 70.47115 -0.2105331 336.7802
v 69.60374 -0.2105331 336.7802
v 86.51833 -0.2105331 327.6724
v 85.21721 -0.2105331 327.6724
v 86.51833 -0.2105331 328.9735
v 85.21721 -0.2105331 328.9735
v 88.68687 -0.2105331 326.805
v 87.81946 -0.2105331 326.805
v 88.68687 -0.2105331 327.6724
v 87.81946 -0.2105331 327.6724
v 86.51833 -0.2105331 325.9375
v 85.65092 -0.2105331 325.9375
v 86.51833 -0.2105331 326.805
v 85.65092 -0.2105331 326.805
v 89.55428 -0.2105331 325.5038
v 88.68687 -0.2105331 325.5038
v 89.55428 -0.2105331 326.805
v 88.68687 -0.2105331 326.805
v 88.25316 -0.2105331 325.5038
v 87.38575 -0.2105331 325.5038
v 88.25316 -0.2105331 326.3712
v 87.38575 -0.2105331 326.3712
v 88.25316 -0.2105331 325.0701
v 87.38575 -0.2105331 325.0701
v 88.25316 -0.2105331 326.3712
v 87.38575 -0.2105331 326.3712
v 86.51833 -0.2105331 325.0701
v 85.65092 -0.2105331 325.0701
v 86.51833 -0.2105331 325.9375
v 85.65092 -0.2105331 325.9375
v 90.4217 -0.2105331 324.6364
v 89.55428 -0.2105331 324.6364
v 90.4217 -0.2105331 325.5038
v 89.55428 -0.2105331 325.5038
v 87.81946 -0.2105331 324.2027
v 86.95204 -0.2105331 324.2027
v 87.81946 -0.2105331 325.0701
v 86.95204 -0.2105331 325.0701
v 88.68687 -0.2105331 323.769
v 87.81946 -0.2105331 323.769
v 88.68687 -0.2105331 325.0701
v 87.81946 -0.2105331 325.0701
vt 0.1347656 0.9185662
vt 0.2060202 0.9185662
vt 0.1347656 1
vt 0.2060202 1
vt 0.1347656 0.9185662
vt 0.2060202 0.9185662
vt 0.1347656 1
vt 0.2060202 1
vt 0.1347656 0.9185662
vt 0.2060202 0.9185662
vt 0.1347656 1
vt 0.2060202 1
vt 0.1347656 0.9185662
vt 0.2060202 0.9185662
vt 0.1347656 1
vt 0.2060202 1
vt 0.1347656 0.9185662
vt 0.2060202 0.9185662
vt 0.1347656 1
vt 0.2060202 1
vt 0.1347656 0.9185662
vt 0.2060202 0.9185662
vt 0.1347656 1
vt 0.2060202 1
vt 0.1347656 0.9185662
vt 0.2060202 0.9185662
vt 0.1347656 1
vt 0.2060202 1
vt 0.1347656 0.9185662
vt 0.2060202 0.9185662
vt 0.1347656 1
vt 0.2060202 1
vt 0.1347656 0.9185662
vt 0.2060202 0.9185662
vt 0.1347656 1
vt 0.2060202 1
vt 0.1347656 0.9185662
vt 0.2060202 0.9185662
vt 0.1347656 1
vt 0.2060202 1
vt 0.1347656 0.9185662
vt 0.2060202 0.9185662
vt 0.1347656 1
vt 0.2060202 1
vt 0.1347656 0.9185662
vt 0.2060202 0.9185662
vt 0.1347656 1
vt 0.2060202 1
vt 0.1347656 0.9185662
vt 0.2060202 0.9185662
vt 0.1347656 1
vt 0.2060202 1
vt 0.1347656 0.9185662
vt 0.2060202 0.9185662
vt 0.1347656 1
vt 0.2060202 1
vt 0.1347656 0.9185662
vt 0.2060202 0.9185662
vt 0.1347656 1
vt 0.2060202 1
vt 0.1347656 0.9185662
vt 0.2060202 0.9185662
vt 0.1347656 1
vt 0.2060202 1
vt 0.1347656 0.9185662
vt 0.2060202 0.9185662
vt 0.1347656 1
vt 0.2060202 1
vt 0.1347656 0.9185662
vt 0.2060202 0.9185662
vt 0.1347656 1
vt 0.2060202 1
vt 0.1347656 0.9185662
vt 0.2060202 0.9185662
vt 0.1347656 1
vt 0.2060202 1
vt 0.1347656 0.9185662
vt 0.2060202 0.9185662
vt 0.1347656 1
vt 0.2060202 1
vt 0.1347656 0.9185662
vt 0.2060202 0.9185662
vt 0.1347656 1
vt 0.2060202 1
vt 0.1347656 0.9185662
vt 0.2060202 0.9185662
vt 0.1347656 1
vt 0.2060202 1
vt 0.1347656 0.9185662
vt 0.2060202 0.9185662
vt 0.1347656 1
vt 0.2060202 1
vt 0.1347656 0.9185662
vt 0.2060202 0.9185662
vt 0.1347656 1
vt 0.2060202 1
vt 0.1347656 0.9185662
vt 0.2060202 0.9185662
vt 0.1347656 1
vt 0.2060202 1
vt 0.1347656 0.9185662
vt 0.2060202 0.9185662
vt 0.1347656 1
vt 0.2060202 1
vt 0.1347656 0.9185662
vt 0.2060202 0.9185662
vt 0.1347656 1
vt 0.2060202 1
vt 0.1347656 0.9185662
vt 0.2060202 0.9185662
vt 0.1347656 1
vt 0.2060202 1
vt 0.1347656 0.9185662
vt 0.2060202 0.9185662
vt 0.1347656 1
vt 0.2060202 1
vt 0.1347656 0.9185662
vt 0.2060202 0.9185662
vt 0.1347656 1
vt 0.2060202 1
vt 0.1347656 0.9185662
vt 0.2060202 0.9185662
vt 0.1347656 1
vt 0.2060202 1
vt 0.1347656 0.9185662
vt 0.2060202 0.9185662
vt 0.1347656 1
vt 0.2060202 1
vt 0.1347656 0.9185662
vt 0.2060202 0.9185662
vt 0.1347656 1
vt 0.2060202 1
vt 0.1347656 0.9185662
vt 0.2060202 0.9185662
vt 0.1347656 1
vt 0.2060202 1
vn 0 1 0
vn 0 1 0
vn 0 1 0
vn 0 1 0
vn 0 1 0
vn 0 1 0
vn 0 1 0
vn 0 1 0
vn 0 1 0
vn 0 1 0
vn 0 1 0
vn 0 1 0
vn 0 1 0
vn 0 1 0
vn 0 1 0
vn 0 1 0
vn 0 1 0
vn 0 1 0
vn 0 1 0
vn 0 1 0
vn 0 1 0
vn 0 1 0
vn 0 1 0
vn 0 1 0
vn 0 1 0
vn 0 1 0
vn 0 1 0
vn 0 1 0
vn 0 1 0
vn 0 1 0
vn 0 1 0
vn 0 1 0
vn 0 1 0
vn 0 1 0
vn 0 1 0
vn 0 1 0
vn 0 1 0
vn 0 1 0
vn 0 1 0
vn 0 1 0
vn 0 1 0
vn 0 1 0
vn 0 1 0
vn 0 1 0
vn 0 1 0
vn 0 1 0
vn 0 1 0
vn 0 1 0
vn 0 1 0
vn 0 1 0
vn 0 1 0
vn 0 1 0
vn 0 1 0
vn 0 1 0
vn 0 1 0
vn 0 1 0
vn 0 1 0
vn 0 1 0
vn 0 1 0
vn 0 1 0
vn 0 1 0
vn 0 1 0
vn 0 1 0
vn 0 1 0
vn 0 1 0
vn 0 1 0
vn 0 1 0
vn 0 1 0
vn 0 1 0
vn 0 1 0
vn 0 1 0
vn 0 1 0
vn 0 1 0
vn 0 1 0
vn 0 1 0
vn 0 1 0
vn 0 1 0
vn 0 1 0
vn 0 1 0
vn 0 1 0
vn 0 1 0
vn 0 1 0
vn 0 1 0
vn 0 1 0
vn 0 1 0
vn 0 1 0
vn 0 1 0
vn 0 1 0
vn 0 1 0
vn 0 1 0
vn 0 1 0
vn 0 1 0
vn 0 1 0
vn 0 1 0
vn 0 1 0
vn 0 1 0
vn 0 1 0
vn 0 1 0
vn 0 1 0
vn 0 1 0
vn 0 1 0
vn 0 1 0
vn 0 1 0
vn 0 1 0
vn 0 1 0
vn 0 1 0
vn 0 1 0
vn 0 1 0
vn 0 1 0
vn 0 1 0
vn 0 1 0
vn 0 1 0
vn 0 1 0
vn 0 1 0
vn 0 1 0
vn 0 1 0
vn 0 1 0
vn 0 1 0
vn 0 1 0
vn 0 1 0
vn 0 1 0
vn 0 1 0
vn 0 1 0
vn 0 1 0
vn 0 1 0
vn 0 1 0
vn 0 1 0
vn 0 1 0
vn 0 1 0
vn 0 1 0
vn 0 1 0
vn 0 1 0
vn 0 1 0
vn 0 1 0
vn 0 1 0
vn 0 1 0
g Grass_2_Cluster247_0
f 2/2/2 3/3/3 1/1/1
f 2/2/2 4/4/4 3/3/3
f 6/6/6 7/7/7 5/5/5
f 6/6/6 8/8/8 7/7/7
f 10/10/10 11/11/11 9/9/9
f 10/10/10 12/12/12 11/11/11
f 14/14/14 15/15/15 13/13/13
f 14/14/14 16/16/16 15/15/15
f 18/18/18 19/19/19 17/17/17
f 18/18/18 20/20/20 19/19/19
f 22/22/22 23/23/23 21/21/21
f 22/22/22 24/24/24 23/23/23
f 26/26/26 27/27/27 25/25/25
f 26/26/26 28/28/28 27/27/27
f 30/30/30 31/31/31 29/29/29
f 30/30/30 32/32/32 31/31/31
f 34/34/34 35/35/35 33/33/33
f 34/34/34 36/36/36 35/35/35
f 38/38/38 39/39/39 37/37/37
f 38/38/38 40/40/40 39/39/39
f 42/42/42 43/43/43 41/41/41
f 42/42/42 44/44/44 43/43/43
f 46/46/46 47/47/47 45/45/45
f 46/46/46 48/48/48 47/47/47
f 50/50/50 51/51/51 49/49/49
f 50/50/50 52/52/52 51/51/51
f 54/54/54 55/55/55 53/53/53
f 54/54/54 56/56/56 55/55/55
f 58/58/58 59/59/59 57/57/57
f 58/58/58 60/60/60 59/59/59
f 62/62/62 63/63/63 61/61/61
f 62/62/62 64/64/64 63/63/63
f 66/66/66 67/67/67 65/65/65
f 66/66/66 68/68/68 67/67/67
f 70/70/70 71/71/71 69/69/69
f 70/70/70 72/72/72 71/71/71
f 74/74/74 75/75/75 73/73/73
f 74/74/74 76/76/76 75/75/75
f 78/78/78 79/79/79 77/77/77
f 78/78/78 80/80/80 79/79/79
f 82/82/82 83/83/83 81/81/81
f 82/82/82 84/84/84 83/83/83
f 86/86/86 87/87/87 85/85/85
f 86/86/86 88/88/88 87/87/87
f 90/90/90 91/91/91 89/89/89
f 90/90/90 92/92/92 91/91/91
f 94/94/94 95/95/95 93/93/93
f 94/94/94 96/96/96 95/95/95
f 98/98/98 99/99/99 97/97/97
f 98/98/98 100/100/100 99/99/99
f 102/102/102 103/103/103 101/101/101
f 102/102/102 104/104/104 103/103/103
f 106/106/106 107/107/107 105/105/105
f 106/106/106 108/108/108 107/107/107
f 110/110/110 111/111/111 109/109/109
f 110/110/110 112/112/112 111/111/111
f 114/114/114 115/115/115 113/113/113
f 114/114/114 116/116/116 115/115/115
f 118/118/118 119/119/119 117/117/117
f 118/118/118 120/120/120 119/119/119
f 122/122/122 123/123/123 121/121/121
f 122/122/122 124/124/124 123/123/123
f 126/126/126 127/127/127 125/125/125
f 126/126/126 128/128/128 127/127/127
f 130/130/130 131/131/131 129/129/129
f 130/130/130 132/132/132 131/131/131
f 134/134/134 135/135/135 133/133/133
f 134/134/134 136/136/136 135/135/135
