g Grass_2_Cluster130
v -2.027989 0 171.8721
v -2.872985 0 171.8721
v -2.027989 0 172.8861
v -2.872985 0 172.8861
v -15.37892 0 171.3651
v -16.22391 0 171.3651
v -15.37892 0 172.3791
v -16.22391 0 172.3791
v -11.66094 0 164.6051
v -12.67493 0 164.6051
v -11.66094 0 165.6191
v -12.67493 0 165.6191
v -12.33693 0 163.5911
v -13.35093 0 163.5911
v -12.33693 0 164.6051
v -13.35093 0 164.6051
v -13.51993 0 162.4081
v -14.36492 0 162.4081
v -13.51993 0 163.4221
v -14.36492 0 163.4221
v -13.01293 0 161.5631
v -13.85793 0 161.5631
v -13.01293 0 162.5771
v -13.85793 0 162.5771
v -1.013995 0 155.3102
v -2.027989 0 155.3102
v -1.013995 0 156.4932
v -2.027989 0 156.4932
v -11.49194 0 155.1412
v -12.33693 0 155.1412
v -11.49194 0 156.1552
v -12.33693 0 156.1552
v -2.872985 0 154.9722
v -3.886979 0 154.9722
v -2.872985 0 156.1552
v -3.886979 0 156.1552
v -2.027989 0 152.9442
v -2.872985 0 152.9442
v -2.027989 0 153.9582
v -2.872985 0 153.9582
vt 0.1347656 0.9185662
vt 0.2060202 0.9185662
vt 0.1347656 1
vt 0.2060202 1
vt 0.1347656 0.9185662
vt 0.2060202 0.9185662
vt 0.1347656 1
vt 0.2060202 1
vt 0.1347656 0.9185662
vt 0.2060202 0.9185662
vt 0.1347656 1
vt 0.2060202 1
vt 0.1347656 0.9185662
vt 0.2060202 0.9185662
vt 0.1347656 1
vt 0.2060202 1
vt 0.1347656 0.9185662
vt 0.2060202 0.9185662
vt 0.1347656 1
vt 0.2060202 1
vt 0.1347656 0.9185662
vt 0.2060202 0.9185662
vt 0.1347656 1
vt 0.2060202 1
vt 0.1347656 0.9185662
vt 0.2060202 0.9185662
vt 0.1347656 1
vt 0.2060202 1
vt 0.1347656 0.9185662
vt 0.2060202 0.9185662
vt 0.1347656 1
vt 0.2060202 1
vt 0.1347656 0.9185662
vt 0.2060202 0.9185662
vt 0.1347656 1
vt 0.2060202 1
vt 0.1347656 0.9185662
vt 0.2060202 0.9185662
vt 0.1347656 1
vt 0.2060202 1
vn 0 1 0
vn 0 1 0
vn 0 1 0
vn 0 1 0
vn 0 1 0
vn 0 1 0
vn 0 1 0
vn 0 1 0
vn 0 1 0
vn 0 1 0
vn 0 1 0
vn 0 1 0
vn 0 1 0
vn 0 1 0
vn 0 1 0
vn 0 1 0
vn 0 1 0
vn 0 1 0
vn 0 1 0
vn 0 1 0
vn 0 1 0
vn 0 1 0
vn 0 1 0
vn 0 1 0
vn 0 1 0
vn 0 1 0
vn 0 1 0
vn 0 1 0
vn 0 1 0
vn 0 1 0
vn 0 1 0
vn 0 1 0
vn 0 1 0
vn 0 1 0
vn 0 1 0
vn 0 1 0
vn 0 1 0
vn 0 1 0
vn 0 1 0
vn 0 1 0
g Grass_2_Cluster130_0
f 2/2/2 3/3/3 1/1/1
f 2/2/2 4/4/4 3/3/3
f 6/6/6 7/7/7 5/5/5
f 6/6/6 8/8/8 7/7/7
f 10/10/10 11/11/11 9/9/9
f 10/10/10 12/12/12 11/11/11
f 14/14/14 15/15/15 13/13/13
f 14/14/14 16/16/16 15/15/15
f 18/18/18 19/19/19 17/17/17
f 18/18/18 20/20/20 19/19/19
f 22/22/22 23/23/23 21/21/21
f 22/22/22 24/24/24 23/23/23
f 26/26/26 27/27/27 25/25/25
f 26/26/26 28/28/28 27/27/27
f 30/30/30 31/31/31 29/29/29
f 30/30/30 32/32/32 31/31/31
f 34/34/34 35/35/35 33/33/33
f 34/34/34 36/36/36 35/35/35
f 38/38/38 39/39/39 37/37/37
f 38/38/38 40/40/40 39/39/39
