g Grass_1_Cluster287
v 62.07636 -0.2414322 411.9914
v 61.09486 -0.2414322 411.9914
v 62.07636 -0.2414322 412.9729
v 61.09486 -0.2414322 412.9729
v 63.05787 -0.2414322 411.9914
v 62.07636 -0.2414322 411.9914
v 63.05787 -0.2414322 412.4822
v 62.07636 -0.2414322 412.4822
v 64.53014 -0.2414322 410.5192
v 63.54863 -0.2414322 410.5192
v 64.53014 -0.2414322 411.0099
v 63.54863 -0.2414322 411.0099
v 64.03938 -0.2414322 409.5377
v 63.05787 -0.2414322 409.5377
v 64.03938 -0.2414322 410.5192
v 63.05787 -0.2414322 410.5192
v 78.76198 -0.2414322 402.1764
v 77.78047 -0.2414322 402.1764
v 78.76198 -0.2414322 403.1579
v 77.78047 -0.2414322 403.1579
v 67.47466 -0.2414322 402.1764
v 66.9839 -0.2414322 402.1764
v 67.47466 -0.2414322 402.6671
v 66.9839 -0.2414322 402.6671
v 81.7065 -0.2414322 401.1949
v 80.72499 -0.2414322 401.1949
v 81.7065 -0.2414322 402.1764
v 80.72499 -0.2414322 402.1764
v 79.74348 -0.2414322 401.1949
v 78.76198 -0.2414322 401.1949
v 79.74348 -0.2414322 401.6856
v 78.76198 -0.2414322 401.6856
v 84.65102 -0.2414322 399.2318
v 83.66952 -0.2414322 399.2318
v 84.65102 -0.2414322 400.2133
v 83.66952 -0.2414322 400.2133
v 79.25273 -0.2414322 399.2318
v 78.27122 -0.2414322 399.2318
v 79.25273 -0.2414322 399.7226
v 78.27122 -0.2414322 399.7226
v 81.21574 -0.2414322 398.2503
v 80.23424 -0.2414322 398.2503
v 81.21574 -0.2414322 399.2318
v 80.23424 -0.2414322 399.2318
v 67.96541 -0.2414322 396.7781
v 67.47466 -0.2414322 396.7781
v 67.96541 -0.2414322 397.2688
v 67.47466 -0.2414322 397.2688
v 66.49315 -0.2414322 393.8336
v 65.51164 -0.2414322 393.8336
v 66.49315 -0.2414322 394.3243
v 65.51164 -0.2414322 394.3243
v 66.9839 -0.2414322 391.3798
v 66.0024 -0.2414322 391.3798
v 66.9839 -0.2414322 392.3613
v 66.0024 -0.2414322 392.3613
v 69.43767 -0.2414322 390.889
v 68.45616 -0.2414322 390.889
v 69.43767 -0.2414322 391.8705
v 68.45616 -0.2414322 391.8705
v 72.38219 -0.2414322 387.9445
v 71.40068 -0.2414322 387.9445
v 72.38219 -0.2414322 388.926
v 71.40068 -0.2414322 388.926
v 89.0678 -0.2414322 383.5277
v 88.0863 -0.2414322 383.5277
v 89.0678 -0.2414322 384.5092
v 88.0863 -0.2414322 384.5092
vt 0.06738281 0.9369141
vt 0.1331457 0.9369141
vt 0.06738281 0.9990234
vt 0.1331457 0.9990234
vt 0.06738281 0.9369141
vt 0.1331457 0.9369141
vt 0.06738281 0.9990234
vt 0.1331457 0.9990234
vt 0.06738281 0.9369141
vt 0.1331457 0.9369141
vt 0.06738281 0.9990234
vt 0.1331457 0.9990234
vt 0.06738281 0.9369141
vt 0.1331457 0.9369141
vt 0.06738281 0.9990234
vt 0.1331457 0.9990234
vt 0.06738281 0.9369141
vt 0.1331457 0.9369141
vt 0.06738281 0.9990234
vt 0.1331457 0.9990234
vt 0.06738281 0.9369141
vt 0.1331457 0.9369141
vt 0.06738281 0.9990234
vt 0.1331457 0.9990234
vt 0.06738281 0.9369141
vt 0.1331457 0.9369141
vt 0.06738281 0.9990234
vt 0.1331457 0.9990234
vt 0.06738281 0.9369141
vt 0.1331457 0.9369141
vt 0.06738281 0.9990234
vt 0.1331457 0.9990234
vt 0.06738281 0.9369141
vt 0.1331457 0.9369141
vt 0.06738281 0.9990234
vt 0.1331457 0.9990234
vt 0.06738281 0.9369141
vt 0.1331457 0.9369141
vt 0.06738281 0.9990234
vt 0.1331457 0.9990234
vt 0.06738281 0.9369141
vt 0.1331457 0.9369141
vt 0.06738281 0.9990234
vt 0.1331457 0.9990234
vt 0.06738281 0.9369141
vt 0.1331457 0.9369141
vt 0.06738281 0.9990234
vt 0.1331457 0.9990234
vt 0.06738281 0.9369141
vt 0.1331457 0.9369141
vt 0.06738281 0.9990234
vt 0.1331457 0.9990234
vt 0.06738281 0.9369141
vt 0.1331457 0.9369141
vt 0.06738281 0.9990234
vt 0.1331457 0.9990234
vt 0.06738281 0.9369141
vt 0.1331457 0.9369141
vt 0.06738281 0.9990234
vt 0.1331457 0.9990234
vt 0.06738281 0.9369141
vt 0.1331457 0.9369141
vt 0.06738281 0.9990234
vt 0.1331457 0.9990234
vt 0.06738281 0.9369141
vt 0.1331457 0.9369141
vt 0.06738281 0.9990234
vt 0.1331457 0.9990234
vn 0 1 0
vn 0 1 0
vn 0 1 0
vn 0 1 0
vn 0 1 0
vn 0 1 0
vn 0 1 0
vn 0 1 0
vn 0 1 0
vn 0 1 0
vn 0 1 0
vn 0 1 0
vn 0 1 0
vn 0 1 0
vn 0 1 0
vn 0 1 0
vn 0 1 0
vn 0 1 0
vn 0 1 0
vn 0 1 0
vn 0 1 0
vn 0 1 0
vn 0 1 0
vn 0 1 0
vn 0 1 0
vn 0 1 0
vn 0 1 0
vn 0 1 0
vn 0 1 0
vn 0 1 0
vn 0 1 0
vn 0 1 0
vn 0 1 0
vn 0 1 0
vn 0 1 0
vn 0 1 0
vn 0 1 0
vn 0 1 0
vn 0 1 0
vn 0 1 0
vn 0 1 0
vn 0 1 0
vn 0 1 0
vn 0 1 0
vn 0 1 0
vn 0 1 0
vn 0 1 0
vn 0 1 0
vn 0 1 0
vn 0 1 0
vn 0 1 0
vn 0 1 0
vn 0 1 0
vn 0 1 0
vn 0 1 0
vn 0 1 0
vn 0 1 0
vn 0 1 0
vn 0 1 0
vn 0 1 0
vn 0 1 0
vn 0 1 0
vn 0 1 0
vn 0 1 0
vn 0 1 0
vn 0 1 0
vn 0 1 0
vn 0 1 0
g Grass_1_Cluster287_0
f 2/2/2 3/3/3 1/1/1
f 2/2/2 4/4/4 3/3/3
f 6/6/6 7/7/7 5/5/5
f 6/6/6 8/8/8 7/7/7
f 10/10/10 11/11/11 9/9/9
f 10/10/10 12/12/12 11/11/11
f 14/14/14 15/15/15 13/13/13
f 14/14/14 16/16/16 15/15/15
f 18/18/18 19/19/19 17/17/17
f 18/18/18 20/20/20 19/19/19
f 22/22/22 23/23/23 21/21/21
f 22/22/22 24/24/24 23/23/23
f 26/26/26 27/27/27 25/25/25
f 26/26/26 28/28/28 27/27/27
f 30/30/30 31/31/31 29/29/29
f 30/30/30 32/32/32 31/31/31
f 34/34/34 35/35/35 33/33/33
f 34/34/34 36/36/36 35/35/35
f 38/38/38 39/39/39 37/37/37
f 38/38/38 40/40/40 39/39/39
f 42/42/42 43/43/43 41/41/41
f 42/42/42 44/44/44 43/43/43
f 46/46/46 47/47/47 45/45/45
f 46/46/46 48/48/48 47/47/47
f 50/50/50 51/51/51 49/49/49
f 50/50/50 52/52/52 51/51/51
f 54/54/54 55/55/55 53/53/53
f 54/54/54 56/56/56 55/55/55
f 58/58/58 59/59/59 57/57/57
f 58/58/58 60/60/60 59/59/59
f 62/62/62 63/63/63 61/61/61
f 62/62/62 64/64/64 63/63/63
f 66/66/66 67/67/67 65/65/65
f 66/66/66 68/68/68 67/67/67
