g Grass_0_Cluster26
v 99.87671 0.0625 20.07757
v 98.92361 0.0625 20.07757
v 99.87671 0.0625 21.30299
v 98.92361 0.0625 21.30299
v 102.5999 0.0625 19.80526
v 101.6468 0.0625 19.80526
v 102.5999 0.0625 21.03066
v 101.6468 0.0625 21.03066
v 101.7829 0.0625 18.98832
v 100.966 0.0625 18.98832
v 101.7829 0.0625 20.21372
v 100.966 0.0625 20.21372
v 102.736 0.0625 18.85215
v 101.7829 0.0625 18.85215
v 102.736 0.0625 20.21372
v 101.7829 0.0625 20.21372
v 99.46824 0.0625 18.30753
v 98.6513 0.0625 18.30753
v 99.46824 0.0625 19.53294
v 98.6513 0.0625 19.53294
v 104.7784 0.0625 18.30753
v 103.9614 0.0625 18.30753
v 104.7784 0.0625 19.53294
v 103.9614 0.0625 19.53294
v 101.3744 0.0625 17.7629
v 100.5575 0.0625 17.7629
v 101.3744 0.0625 19.12447
v 100.5575 0.0625 19.12447
v 99.46824 0.0625 17.7629
v 98.51514 0.0625 17.7629
v 99.46824 0.0625 18.98832
v 98.51514 0.0625 18.98832
v 102.5999 0.0625 17.49059
v 101.7829 0.0625 17.49059
v 102.5999 0.0625 18.716
v 101.7829 0.0625 18.716
v 100.4213 0.0625 17.08212
v 99.6044 0.0625 17.08212
v 100.4213 0.0625 18.17138
v 99.6044 0.0625 18.17138
v 101.2383 0.0625 17.08212
v 100.2852 0.0625 17.08212
v 101.2383 0.0625 18.17138
v 100.2852 0.0625 18.17138
v 98.92361 0.0625 16.40133
v 98.10667 0.0625 16.40133
v 98.92361 0.0625 17.62675
v 98.10667 0.0625 17.62675
v 102.1914 0.0625 15.8567
v 101.3744 0.0625 15.8567
v 102.1914 0.0625 17.08212
v 101.3744 0.0625 17.08212
v 99.6044 0.0625 15.72054
v 98.78746 0.0625 15.72054
v 99.6044 0.0625 16.80981
v 98.78746 0.0625 16.80981
v 103.4168 0.0625 15.31208
v 102.5999 0.0625 15.31208
v 103.4168 0.0625 16.40133
v 102.5999 0.0625 16.40133
v 100.8298 0.0625 15.17593
v 100.0129 0.0625 15.17593
v 100.8298 0.0625 16.26517
v 100.0129 0.0625 16.26517
v 100.0129 0.0625 13.95051
v 99.05977 0.0625 13.95051
v 100.0129 0.0625 15.31208
v 99.05977 0.0625 15.31208
v 117.9856 0.0625 14.08666
v 117.1686 0.0625 14.08666
v 117.9856 0.0625 15.17593
v 117.1686 0.0625 15.17593
v 115.2625 0.0625 13.26972
v 114.4455 0.0625 13.26972
v 115.2625 0.0625 14.49514
v 114.4455 0.0625 14.49514
v 114.1732 0.0625 12.58894
v 113.3563 0.0625 12.58894
v 114.1732 0.0625 13.6782
v 113.3563 0.0625 13.6782
v 117.0325 0.0625 12.0443
v 116.0794 0.0625 12.0443
v 117.0325 0.0625 13.40588
v 116.0794 0.0625 13.40588
v 99.74055 0.0625 11.772
v 98.78746 0.0625 11.772
v 99.74055 0.0625 12.99741
v 98.78746 0.0625 12.99741
v 113.4924 0.0625 11.49969
v 112.6755 0.0625 11.49969
v 113.4924 0.0625 12.58894
v 112.6755 0.0625 12.58894
v 112.267 0.0625 11.49969
v 111.4501 0.0625 11.49969
v 112.267 0.0625 12.72509
v 111.4501 0.0625 12.72509
v 112.1308 0.0625 11.22736
v 111.3139 0.0625 11.22736
v 112.1308 0.0625 12.45278
v 111.3139 0.0625 12.45278
v 111.7224 0.0625 10.95506
v 110.9054 0.0625 10.95506
v 111.7224 0.0625 12.18047
v 110.9054 0.0625 12.18047
v 110.7693 0.0625 10.13811
v 109.9523 0.0625 10.13811
v 110.7693 0.0625 11.36352
v 109.9523 0.0625 11.36352
v 111.7224 0.0625 8.095757
v 110.7693 0.0625 8.095757
v 111.7224 0.0625 9.457329
v 110.7693 0.0625 9.457329
v 113.2201 0.0625 7.41497
v 112.267 0.0625 7.41497
v 113.2201 0.0625 8.776543
v 112.267 0.0625 8.776543
v 107.7738 0.0625 7.41497
v 106.8207 0.0625 7.41497
v 107.7738 0.0625 8.640388
v 106.8207 0.0625 8.640388
v 109.4077 0.0625 6.59803
v 108.5908 0.0625 6.59803
v 109.4077 0.0625 7.823441
v 108.5908 0.0625 7.823441
v 113.0839 0.0625 6.59803
v 112.1308 0.0625 6.59803
v 113.0839 0.0625 7.959602
v 112.1308 0.0625 7.959602
v 111.9947 0.0625 6.59803
v 111.0416 0.0625 6.59803
v 111.9947 0.0625 7.823441
v 111.0416 0.0625 7.823441
v 106.2761 0.0625 6.461876
v 105.4591 0.0625 6.461876
v 106.2761 0.0625 7.687286
v 105.4591 0.0625 7.687286
v 111.0416 0.0625 6.18956
v 110.0885 0.0625 6.18956
v 111.0416 0.0625 7.41497
v 110.0885 0.0625 7.41497
v 108.4546 0.0625 5.917244
v 107.6377 0.0625 5.917244
v 108.4546 0.0625 7.142662
v 107.6377 0.0625 7.142662
v 109.68 0.0625 5.644936
v 108.7269 0.0625 5.644936
v 109.68 0.0625 6.870346
v 108.7269 0.0625 6.870346
v 110.0885 0.0625 4.964149
v 109.2715 0.0625 4.964149
v 110.0885 0.0625 6.18956
v 109.2715 0.0625 6.18956
v 104.5061 0.0625 5.100304
v 103.5529 0.0625 5.100304
v 104.5061 0.0625 6.325714
v 103.5529 0.0625 6.325714
v 110.7693 0.0625 4.964149
v 109.8162 0.0625 4.964149
v 110.7693 0.0625 6.18956
v 109.8162 0.0625 6.18956
v 108.7269 0.0625 4.691833
v 107.91 0.0625 4.691833
v 108.7269 0.0625 5.917244
v 107.91 0.0625 5.917244
v 111.3139 0.0625 4.147209
v 110.3608 0.0625 4.147209
v 111.3139 0.0625 5.37262
v 110.3608 0.0625 5.37262
v 107.3653 0.0625 4.147209
v 106.4122 0.0625 4.147209
v 107.3653 0.0625 5.37262
v 106.4122 0.0625 5.37262
v 110.497 0.0625 3.738731
v 109.5439 0.0625 3.738731
v 110.497 0.0625 5.100304
v 109.5439 0.0625 5.100304
v 108.1823 0.0625 3.466423
v 107.3653 0.0625 3.466423
v 108.1823 0.0625 4.555679
v 107.3653 0.0625 4.555679
v 109.68 0.0625 2.921791
v 108.7269 0.0625 2.921791
v 109.68 0.0625 4.147209
v 108.7269 0.0625 4.147209
v 111.5862 0.0625 2.921791
v 110.7693 0.0625 2.921791
v 111.5862 0.0625 4.147209
v 110.7693 0.0625 4.147209
v 103.1445 0.0625 2.513321
v 102.1914 0.0625 2.513321
v 103.1445 0.0625 3.738731
v 102.1914 0.0625 3.738731
v 109.2715 0.0625 -3.477585
v 108.3184 0.0625 -3.477585
v 109.2715 0.0625 -2.116013
v 108.3184 0.0625 -2.116013
v 95.65585 0.0625 -4.702995
v 94.70274 0.0625 -4.702995
v 95.65585 0.0625 -3.341431
v 94.70274 0.0625 -3.341431
v 95.92816 0.0625 -5.383781
v 95.11122 0.0625 -5.383781
v 95.92816 0.0625 -4.158371
v 95.11122 0.0625 -4.158371
vt 0 0.9058824
vt 0.06666667 0.9058824
vt 0 1
vt 0.06666667 1
vt 0 0.9058824
vt 0.06666667 0.9058824
vt 0 1
vt 0.06666667 1
vt 0 0.9058824
vt 0.06666667 0.9058824
vt 0 1
vt 0.06666667 1
vt 0 0.9058824
vt 0.06666667 0.9058824
vt 0 1
vt 0.06666667 1
vt 0 0.9058824
vt 0.06666667 0.9058824
vt 0 1
vt 0.06666667 1
vt 0 0.9058824
vt 0.06666667 0.9058824
vt 0 1
vt 0.06666667 1
vt 0 0.9058824
vt 0.06666667 0.9058824
vt 0 1
vt 0.06666667 1
vt 0 0.9058824
vt 0.06666667 0.9058824
vt 0 1
vt 0.06666667 1
vt 0 0.9058824
vt 0.06666667 0.9058824
vt 0 1
vt 0.06666667 1
vt 0 0.9058824
vt 0.06666667 0.9058824
vt 0 1
vt 0.06666667 1
vt 0 0.9058824
vt 0.06666667 0.9058824
vt 0 1
vt 0.06666667 1
vt 0 0.9058824
vt 0.06666667 0.9058824
vt 0 1
vt 0.06666667 1
vt 0 0.9058824
vt 0.06666667 0.9058824
vt 0 1
vt 0.06666667 1
vt 0 0.9058824
vt 0.06666667 0.9058824
vt 0 1
vt 0.06666667 1
vt 0 0.9058824
vt 0.06666667 0.9058824
vt 0 1
vt 0.06666667 1
vt 0 0.9058824
vt 0.06666667 0.9058824
vt 0 1
vt 0.06666667 1
vt 0 0.9058824
vt 0.06666667 0.9058824
vt 0 1
vt 0.06666667 1
vt 0 0.9058824
vt 0.06666667 0.9058824
vt 0 1
vt 0.06666667 1
vt 0 0.9058824
vt 0.06666667 0.9058824
vt 0 1
vt 0.06666667 1
vt 0 0.9058824
vt 0.06666667 0.9058824
vt 0 1
vt 0.06666667 1
vt 0 0.9058824
vt 0.06666667 0.9058824
vt 0 1
vt 0.06666667 1
vt 0 0.9058824
vt 0.06666667 0.9058824
vt 0 1
vt 0.06666667 1
vt 0 0.9058824
vt 0.06666667 0.9058824
vt 0 1
vt 0.06666667 1
vt 0 0.9058824
vt 0.06666667 0.9058824
vt 0 1
vt 0.06666667 1
vt 0 0.9058824
vt 0.06666667 0.9058824
vt 0 1
vt 0.06666667 1
vt 0 0.9058824
vt 0.06666667 0.9058824
vt 0 1
vt 0.06666667 1
vt 0 0.9058824
vt 0.06666667 0.9058824
vt 0 1
vt 0.06666667 1
vt 0 0.9058824
vt 0.06666667 0.9058824
vt 0 1
vt 0.06666667 1
vt 0 0.9058824
vt 0.06666667 0.9058824
vt 0 1
vt 0.06666667 1
vt 0 0.9058824
vt 0.06666667 0.9058824
vt 0 1
vt 0.06666667 1
vt 0 0.9058824
vt 0.06666667 0.9058824
vt 0 1
vt 0.06666667 1
vt 0 0.9058824
vt 0.06666667 0.9058824
vt 0 1
vt 0.06666667 1
vt 0 0.9058824
vt 0.06666667 0.9058824
vt 0 1
vt 0.06666667 1
vt 0 0.9058824
vt 0.06666667 0.9058824
vt 0 1
vt 0.06666667 1
vt 0 0.9058824
vt 0.06666667 0.9058824
vt 0 1
vt 0.06666667 1
vt 0 0.9058824
vt 0.06666667 0.9058824
vt 0 1
vt 0.06666667 1
vt 0 0.9058824
vt 0.06666667 0.9058824
vt 0 1
vt 0.06666667 1
vt 0 0.9058824
vt 0.06666667 0.9058824
vt 0 1
vt 0.06666667 1
vt 0 0.9058824
vt 0.06666667 0.9058824
vt 0 1
vt 0.06666667 1
vt 0 0.9058824
vt 0.06666667 0.9058824
vt 0 1
vt 0.06666667 1
vt 0 0.9058824
vt 0.06666667 0.9058824
vt 0 1
vt 0.06666667 1
vt 0 0.9058824
vt 0.06666667 0.9058824
vt 0 1
vt 0.06666667 1
vt 0 0.9058824
vt 0.06666667 0.9058824
vt 0 1
vt 0.06666667 1
vt 0 0.9058824
vt 0.06666667 0.9058824
vt 0 1
vt 0.06666667 1
vt 0 0.9058824
vt 0.06666667 0.9058824
vt 0 1
vt 0.06666667 1
vt 0 0.9058824
vt 0.06666667 0.9058824
vt 0 1
vt 0.06666667 1
vt 0 0.9058824
vt 0.06666667 0.9058824
vt 0 1
vt 0.06666667 1
vt 0 0.9058824
vt 0.06666667 0.9058824
vt 0 1
vt 0.06666667 1
vt 0 0.9058824
vt 0.06666667 0.9058824
vt 0 1
vt 0.06666667 1
vt 0 0.9058824
vt 0.06666667 0.9058824
vt 0 1
vt 0.06666667 1
vt 0 0.9058824
vt 0.06666667 0.9058824
vt 0 1
vt 0.06666667 1
vn 0 1 0
vn 0 1 0
vn 0 1 0
vn 0 1 0
vn 0 1 0
vn 0 1 0
vn 0 1 0
vn 0 1 0
vn 0 1 0
vn 0 1 0
vn 0 1 0
vn 0 1 0
vn 0 1 0
vn 0 1 0
vn 0 1 0
vn 0 1 0
vn 0 1 0
vn 0 1 0
vn 0 1 0
vn 0 1 0
vn 0 1 0
vn 0 1 0
vn 0 1 0
vn 0 1 0
vn 0 1 0
vn 0 1 0
vn 0 1 0
vn 0 1 0
vn 0 1 0
vn 0 1 0
vn 0 1 0
vn 0 1 0
vn 0 1 0
vn 0 1 0
vn 0 1 0
vn 0 1 0
vn 0 1 0
vn 0 1 0
vn 0 1 0
vn 0 1 0
vn 0 1 0
vn 0 1 0
vn 0 1 0
vn 0 1 0
vn 0 1 0
vn 0 1 0
vn 0 1 0
vn 0 1 0
vn 0 1 0
vn 0 1 0
vn 0 1 0
vn 0 1 0
vn 0 1 0
vn 0 1 0
vn 0 1 0
vn 0 1 0
vn 0 1 0
vn 0 1 0
vn 0 1 0
vn 0 1 0
vn 0 1 0
vn 0 1 0
vn 0 1 0
vn 0 1 0
vn 0 1 0
vn 0 1 0
vn 0 1 0
vn 0 1 0
vn 0 1 0
vn 0 1 0
vn 0 1 0
vn 0 1 0
vn 0 1 0
vn 0 1 0
vn 0 1 0
vn 0 1 0
vn 0 1 0
vn 0 1 0
vn 0 1 0
vn 0 1 0
vn 0 1 0
vn 0 1 0
vn 0 1 0
vn 0 1 0
vn 0 1 0
vn 0 1 0
vn 0 1 0
vn 0 1 0
vn 0 1 0
vn 0 1 0
vn 0 1 0
vn 0 1 0
vn 0 1 0
vn 0 1 0
vn 0 1 0
vn 0 1 0
vn 0 1 0
vn 0 1 0
vn 0 1 0
vn 0 1 0
vn 0 1 0
vn 0 1 0
vn 0 1 0
vn 0 1 0
vn 0 1 0
vn 0 1 0
vn 0 1 0
vn 0 1 0
vn 0 1 0
vn 0 1 0
vn 0 1 0
vn 0 1 0
vn 0 1 0
vn 0 1 0
vn 0 1 0
vn 0 1 0
vn 0 1 0
vn 0 1 0
vn 0 1 0
vn 0 1 0
vn 0 1 0
vn 0 1 0
vn 0 1 0
vn 0 1 0
vn 0 1 0
vn 0 1 0
vn 0 1 0
vn 0 1 0
vn 0 1 0
vn 0 1 0
vn 0 1 0
vn 0 1 0
vn 0 1 0
vn 0 1 0
vn 0 1 0
vn 0 1 0
vn 0 1 0
vn 0 1 0
vn 0 1 0
vn 0 1 0
vn 0 1 0
vn 0 1 0
vn 0 1 0
vn 0 1 0
vn 0 1 0
vn 0 1 0
vn 0 1 0
vn 0 1 0
vn 0 1 0
vn 0 1 0
vn 0 1 0
vn 0 1 0
vn 0 1 0
vn 0 1 0
vn 0 1 0
vn 0 1 0
vn 0 1 0
vn 0 1 0
vn 0 1 0
vn 0 1 0
vn 0 1 0
vn 0 1 0
vn 0 1 0
vn 0 1 0
vn 0 1 0
vn 0 1 0
vn 0 1 0
vn 0 1 0
vn 0 1 0
vn 0 1 0
vn 0 1 0
vn 0 1 0
vn 0 1 0
vn 0 1 0
vn 0 1 0
vn 0 1 0
vn 0 1 0
vn 0 1 0
vn 0 1 0
vn 0 1 0
vn 0 1 0
vn 0 1 0
vn 0 1 0
vn 0 1 0
vn 0 1 0
vn 0 1 0
vn 0 1 0
vn 0 1 0
vn 0 1 0
vn 0 1 0
vn 0 1 0
vn 0 1 0
vn 0 1 0
vn 0 1 0
vn 0 1 0
vn 0 1 0
vn 0 1 0
vn 0 1 0
vn 0 1 0
vn 0 1 0
vn 0 1 0
vn 0 1 0
vn 0 1 0
vn 0 1 0
g Grass_0_Cluster26_0
f 2/2/2 3/3/3 1/1/1
f 2/2/2 4/4/4 3/3/3
f 6/6/6 7/7/7 5/5/5
f 6/6/6 8/8/8 7/7/7
f 10/10/10 11/11/11 9/9/9
f 10/10/10 12/12/12 11/11/11
f 14/14/14 15/15/15 13/13/13
f 14/14/14 16/16/16 15/15/15
f 18/18/18 19/19/19 17/17/17
f 18/18/18 20/20/20 19/19/19
f 22/22/22 23/23/23 21/21/21
f 22/22/22 24/24/24 23/23/23
f 26/26/26 27/27/27 25/25/25
f 26/26/26 28/28/28 27/27/27
f 30/30/30 31/31/31 29/29/29
f 30/30/30 32/32/32 31/31/31
f 34/34/34 35/35/35 33/33/33
f 34/34/34 36/36/36 35/35/35
f 38/38/38 39/39/39 37/37/37
f 38/38/38 40/40/40 39/39/39
f 42/42/42 43/43/43 41/41/41
f 42/42/42 44/44/44 43/43/43
f 46/46/46 47/47/47 45/45/45
f 46/46/46 48/48/48 47/47/47
f 50/50/50 51/51/51 49/49/49
f 50/50/50 52/52/52 51/51/51
f 54/54/54 55/55/55 53/53/53
f 54/54/54 56/56/56 55/55/55
f 58/58/58 59/59/59 57/57/57
f 58/58/58 60/60/60 59/59/59
f 62/62/62 63/63/63 61/61/61
f 62/62/62 64/64/64 63/63/63
f 66/66/66 67/67/67 65/65/65
f 66/66/66 68/68/68 67/67/67
f 70/70/70 71/71/71 69/69/69
f 70/70/70 72/72/72 71/71/71
f 74/74/74 75/75/75 73/73/73
f 74/74/74 76/76/76 75/75/75
f 78/78/78 79/79/79 77/77/77
f 78/78/78 80/80/80 79/79/79
f 82/82/82 83/83/83 81/81/81
f 82/82/82 84/84/84 83/83/83
f 86/86/86 87/87/87 85/85/85
f 86/86/86 88/88/88 87/87/87
f 90/90/90 91/91/91 89/89/89
f 90/90/90 92/92/92 91/91/91
f 94/94/94 95/95/95 93/93/93
f 94/94/94 96/96/96 95/95/95
f 98/98/98 99/99/99 97/97/97
f 98/98/98 100/100/100 99/99/99
f 102/102/102 103/103/103 101/101/101
f 102/102/102 104/104/104 103/103/103
f 106/106/106 107/107/107 105/105/105
f 106/106/106 108/108/108 107/107/107
f 110/110/110 111/111/111 109/109/109
f 110/110/110 112/112/112 111/111/111
f 114/114/114 115/115/115 113/113/113
f 114/114/114 116/116/116 115/115/115
f 118/118/118 119/119/119 117/117/117
f 118/118/118 120/120/120 119/119/119
f 122/122/122 123/123/123 121/121/121
f 122/122/122 124/124/124 123/123/123
f 126/126/126 127/127/127 125/125/125
f 126/126/126 128/128/128 127/127/127
f 130/130/130 131/131/131 129/129/129
f 130/130/130 132/132/132 131/131/131
f 134/134/134 135/135/135 133/133/133
f 134/134/134 136/136/136 135/135/135
f 138/138/138 139/139/139 137/137/137
f 138/138/138 140/140/140 139/139/139
f 142/142/142 143/143/143 141/141/141
f 142/142/142 144/144/144 143/143/143
f 146/146/146 147/147/147 145/145/145
f 146/146/146 148/148/148 147/147/147
f 150/150/150 151/151/151 149/149/149
f 150/150/150 152/152/152 151/151/151
f 154/154/154 155/155/155 153/153/153
f 154/154/154 156/156/156 155/155/155
f 158/158/158 159/159/159 157/157/157
f 158/158/158 160/160/160 159/159/159
f 162/162/162 163/163/163 161/161/161
f 162/162/162 164/164/164 163/163/163
f 166/166/166 167/167/167 165/165/165
f 166/166/166 168/168/168 167/167/167
f 170/170/170 171/171/171 169/169/169
f 170/170/170 172/172/172 171/171/171
f 174/174/174 175/175/175 173/173/173
f 174/174/174 176/176/176 175/175/175
f 178/178/178 179/179/179 177/177/177
f 178/178/178 180/180/180 179/179/179
f 182/182/182 183/183/183 181/181/181
f 182/182/182 184/184/184 183/183/183
f 186/186/186 187/187/187 185/185/185
f 186/186/186 188/188/188 187/187/187
f 190/190/190 191/191/191 189/189/189
f 190/190/190 192/192/192 191/191/191
f 194/194/194 195/195/195 193/193/193
f 194/194/194 196/196/196 195/195/195
f 198/198/198 199/199/199 197/197/197
f 198/198/198 200/200/200 199/199/199
f 202/202/202 203/203/203 201/201/201
f 202/202/202 204/204/204 203/203/203
