g Grass_1_Cluster167
v 62.45774 -0.1082153 231.0789
v 61.53176 -0.1082153 231.0789
v 62.45774 -0.1082153 231.6962
v 61.53176 -0.1082153 231.6962
v 64.00105 -0.1082153 229.2269
v 63.07507 -0.1082153 229.2269
v 64.00105 -0.1082153 230.1529
v 63.07507 -0.1082153 230.1529
v 60.60578 -0.1082153 228.301
v 59.67979 -0.1082153 228.301
v 60.60578 -0.1082153 229.2269
v 59.67979 -0.1082153 229.2269
v 70.48293 -0.1082153 221.5104
v 69.55695 -0.1082153 221.5104
v 70.48293 -0.1082153 222.4364
v 69.55695 -0.1082153 222.4364
v 62.45774 -0.1082153 213.1766
v 61.53176 -0.1082153 213.1766
v 62.45774 -0.1082153 214.1025
v 61.53176 -0.1082153 214.1025
v 82.82938 -0.1082153 210.7073
v 81.90339 -0.1082153 210.7073
v 82.82938 -0.1082153 211.6333
v 81.90339 -0.1082153 211.6333
v 60.60578 -0.1082153 210.3986
v 59.67979 -0.1082153 210.3986
v 60.60578 -0.1082153 211.0159
v 59.67979 -0.1082153 211.0159
v 84.06402 -0.1082153 210.3986
v 83.13804 -0.1082153 210.3986
v 84.06402 -0.1082153 211.0159
v 83.13804 -0.1082153 211.0159
v 61.53176 -0.1082153 209.7813
v 60.60578 -0.1082153 209.7813
v 61.53176 -0.1082153 210.3986
v 60.60578 -0.1082153 210.3986
v 61.2231 -0.1082153 208.5467
v 60.29712 -0.1082153 208.5467
v 61.2231 -0.1082153 209.164
v 60.29712 -0.1082153 209.164
vt 0.06738281 0.9369141
vt 0.1331457 0.9369141
vt 0.06738281 0.9990234
vt 0.1331457 0.9990234
vt 0.06738281 0.9369141
vt 0.1331457 0.9369141
vt 0.06738281 0.9990234
vt 0.1331457 0.9990234
vt 0.06738281 0.9369141
vt 0.1331457 0.9369141
vt 0.06738281 0.9990234
vt 0.1331457 0.9990234
vt 0.06738281 0.9369141
vt 0.1331457 0.9369141
vt 0.06738281 0.9990234
vt 0.1331457 0.9990234
vt 0.06738281 0.9369141
vt 0.1331457 0.9369141
vt 0.06738281 0.9990234
vt 0.1331457 0.9990234
vt 0.06738281 0.9369141
vt 0.1331457 0.9369141
vt 0.06738281 0.9990234
vt 0.1331457 0.9990234
vt 0.06738281 0.9369141
vt 0.1331457 0.9369141
vt 0.06738281 0.9990234
vt 0.1331457 0.9990234
vt 0.06738281 0.9369141
vt 0.1331457 0.9369141
vt 0.06738281 0.9990234
vt 0.1331457 0.9990234
vt 0.06738281 0.9369141
vt 0.1331457 0.9369141
vt 0.06738281 0.9990234
vt 0.1331457 0.9990234
vt 0.06738281 0.9369141
vt 0.1331457 0.9369141
vt 0.06738281 0.9990234
vt 0.1331457 0.9990234
vn 0 1 0
vn 0 1 0
vn 0 1 0
vn 0 1 0
vn 0 1 0
vn 0 1 0
vn 0 1 0
vn 0 1 0
vn 0 1 0
vn 0 1 0
vn 0 1 0
vn 0 1 0
vn 0 1 0
vn 0 1 0
vn 0 1 0
vn 0 1 0
vn 0 1 0
vn 0 1 0
vn 0 1 0
vn 0 1 0
vn 0 1 0
vn 0 1 0
vn 0 1 0
vn 0 1 0
vn 0 1 0
vn 0 1 0
vn 0 1 0
vn 0 1 0
vn 0 1 0
vn 0 1 0
vn 0 1 0
vn 0 1 0
vn 0 1 0
vn 0 1 0
vn 0 1 0
vn 0 1 0
vn 0 1 0
vn 0 1 0
vn 0 1 0
vn 0 1 0
g Grass_1_Cluster167_0
f 2/2/2 3/3/3 1/1/1
f 2/2/2 4/4/4 3/3/3
f 6/6/6 7/7/7 5/5/5
f 6/6/6 8/8/8 7/7/7
f 10/10/10 11/11/11 9/9/9
f 10/10/10 12/12/12 11/11/11
f 14/14/14 15/15/15 13/13/13
f 14/14/14 16/16/16 15/15/15
f 18/18/18 19/19/19 17/17/17
f 18/18/18 20/20/20 19/19/19
f 22/22/22 23/23/23 21/21/21
f 22/22/22 24/24/24 23/23/23
f 26/26/26 27/27/27 25/25/25
f 26/26/26 28/28/28 27/27/27
f 30/30/30 31/31/31 29/29/29
f 30/30/30 32/32/32 31/31/31
f 34/34/34 35/35/35 33/33/33
f 34/34/34 36/36/36 35/35/35
f 38/38/38 39/39/39 37/37/37
f 38/38/38 40/40/40 39/39/39
