g Grass_2_Cluster256
v -193.6754 0 352.766
v -194.3671 0 352.766
v -193.6754 0 353.8035
v -194.3671 0 353.8035
v -191.6003 0 352.766
v -192.6379 0 352.766
v -191.6003 0 353.8035
v -192.6379 0 353.8035
v -192.6379 0 338.2403
v -193.6754 0 338.2403
v -192.6379 0 339.2779
v -193.6754 0 339.2779
v -191.6003 0 336.8569
v -192.6379 0 336.8569
v -191.6003 0 337.8945
v -192.6379 0 337.8945
v -206.8177 0 335.4735
v -207.8552 0 335.4735
v -206.8177 0 336.5111
v -207.8552 0 336.5111
v -208.5469 0 335.1277
v -209.5845 0 335.1277
v -208.5469 0 336.1652
v -209.5845 0 336.1652
v -181.9166 0 335.1277
v -182.9541 0 335.1277
v -181.9166 0 336.1652
v -182.9541 0 336.1652
v -208.8928 0 334.7818
v -209.9303 0 334.7818
v -208.8928 0 335.8194
v -209.9303 0 335.8194
v -209.5845 0 334.436
v -210.2762 0 334.436
v -209.5845 0 335.4735
v -210.2762 0 335.4735
v -191.9462 0 333.3984
v -192.6379 0 333.3984
v -191.9462 0 334.436
v -192.6379 0 334.436
v -180.879 0 327.519
v -181.9166 0 327.519
v -180.879 0 328.5565
v -181.9166 0 328.5565
v -200.2466 0 327.519
v -200.9383 0 327.519
v -200.2466 0 328.5565
v -200.9383 0 328.5565
v -195.4047 0 327.1732
v -196.4422 0 327.1732
v -195.4047 0 328.2107
v -196.4422 0 328.2107
v -192.9837 0 326.8273
v -194.0213 0 326.8273
v -192.9837 0 327.8648
v -194.0213 0 327.8648
v -195.0588 0 326.4814
v -196.0964 0 326.4814
v -195.0588 0 327.519
v -196.0964 0 327.519
v -196.4422 0 326.1356
v -197.4798 0 326.1356
v -196.4422 0 327.1732
v -197.4798 0 327.1732
v -195.7505 0 325.7897
v -196.7881 0 325.7897
v -195.7505 0 326.8273
v -196.7881 0 326.8273
v -198.8632 0 325.7897
v -199.5549 0 325.7897
v -198.8632 0 326.8273
v -199.5549 0 326.8273
v -198.8632 0 325.4439
v -199.9007 0 325.4439
v -198.8632 0 326.4814
v -199.9007 0 326.4814
v -193.6754 0 325.0981
v -194.713 0 325.0981
v -193.6754 0 326.1356
v -194.713 0 326.1356
v -201.9758 0 325.0981
v -202.6675 0 325.0981
v -201.9758 0 326.1356
v -202.6675 0 326.1356
v -196.0964 0 325.0981
v -196.7881 0 325.0981
v -196.0964 0 326.1356
v -196.7881 0 326.1356
v -196.7881 0 324.7522
v -197.8256 0 324.7522
v -196.7881 0 326.1356
v -197.8256 0 326.1356
v -191.2545 0 324.7522
v -191.9462 0 324.7522
v -191.2545 0 325.7897
v -191.9462 0 325.7897
v -193.3296 0 324.4063
v -194.3671 0 324.4063
v -193.3296 0 325.7897
v -194.3671 0 325.7897
v -201.2841 0 324.4063
v -201.9758 0 324.4063
v -201.2841 0 325.4439
v -201.9758 0 325.4439
v -200.2466 0 324.4063
v -200.9383 0 324.4063
v -200.2466 0 325.4439
v -200.9383 0 325.4439
v -194.0213 0 324.0605
v -195.0588 0 324.0605
v -194.0213 0 325.0981
v -195.0588 0 325.0981
v -199.209 0 323.7147
v -199.9007 0 323.7147
v -199.209 0 324.7522
v -199.9007 0 324.7522
v -197.4798 0 323.7147
v -198.5173 0 323.7147
v -197.4798 0 324.7522
v -198.5173 0 324.7522
v -192.292 0 323.3688
v -193.3296 0 323.3688
v -192.292 0 324.4063
v -193.3296 0 324.4063
v -199.5549 0 323.0229
v -200.5924 0 323.0229
v -199.5549 0 324.0605
v -200.5924 0 324.0605
vt 0.1347656 0.9185662
vt 0.2060202 0.9185662
vt 0.1347656 1
vt 0.2060202 1
vt 0.1347656 0.9185662
vt 0.2060202 0.9185662
vt 0.1347656 1
vt 0.2060202 1
vt 0.1347656 0.9185662
vt 0.2060202 0.9185662
vt 0.1347656 1
vt 0.2060202 1
vt 0.1347656 0.9185662
vt 0.2060202 0.9185662
vt 0.1347656 1
vt 0.2060202 1
vt 0.1347656 0.9185662
vt 0.2060202 0.9185662
vt 0.1347656 1
vt 0.2060202 1
vt 0.1347656 0.9185662
vt 0.2060202 0.9185662
vt 0.1347656 1
vt 0.2060202 1
vt 0.1347656 0.9185662
vt 0.2060202 0.9185662
vt 0.1347656 1
vt 0.2060202 1
vt 0.1347656 0.9185662
vt 0.2060202 0.9185662
vt 0.1347656 1
vt 0.2060202 1
vt 0.1347656 0.9185662
vt 0.2060202 0.9185662
vt 0.1347656 1
vt 0.2060202 1
vt 0.1347656 0.9185662
vt 0.2060202 0.9185662
vt 0.1347656 1
vt 0.2060202 1
vt 0.1347656 0.9185662
vt 0.2060202 0.9185662
vt 0.1347656 1
vt 0.2060202 1
vt 0.1347656 0.9185662
vt 0.2060202 0.9185662
vt 0.1347656 1
vt 0.2060202 1
vt 0.1347656 0.9185662
vt 0.2060202 0.9185662
vt 0.1347656 1
vt 0.2060202 1
vt 0.1347656 0.9185662
vt 0.2060202 0.9185662
vt 0.1347656 1
vt 0.2060202 1
vt 0.1347656 0.9185662
vt 0.2060202 0.9185662
vt 0.1347656 1
vt 0.2060202 1
vt 0.1347656 0.9185662
vt 0.2060202 0.9185662
vt 0.1347656 1
vt 0.2060202 1
vt 0.1347656 0.9185662
vt 0.2060202 0.9185662
vt 0.1347656 1
vt 0.2060202 1
vt 0.1347656 0.9185662
vt 0.2060202 0.9185662
vt 0.1347656 1
vt 0.2060202 1
vt 0.1347656 0.9185662
vt 0.2060202 0.9185662
vt 0.1347656 1
vt 0.2060202 1
vt 0.1347656 0.9185662
vt 0.2060202 0.9185662
vt 0.1347656 1
vt 0.2060202 1
vt 0.1347656 0.9185662
vt 0.2060202 0.9185662
vt 0.1347656 1
vt 0.2060202 1
vt 0.1347656 0.9185662
vt 0.2060202 0.9185662
vt 0.1347656 1
vt 0.2060202 1
vt 0.1347656 0.9185662
vt 0.2060202 0.9185662
vt 0.1347656 1
vt 0.2060202 1
vt 0.1347656 0.9185662
vt 0.2060202 0.9185662
vt 0.1347656 1
vt 0.2060202 1
vt 0.1347656 0.9185662
vt 0.2060202 0.9185662
vt 0.1347656 1
vt 0.2060202 1
vt 0.1347656 0.9185662
vt 0.2060202 0.9185662
vt 0.1347656 1
vt 0.2060202 1
vt 0.1347656 0.9185662
vt 0.2060202 0.9185662
vt 0.1347656 1
vt 0.2060202 1
vt 0.1347656 0.9185662
vt 0.2060202 0.9185662
vt 0.1347656 1
vt 0.2060202 1
vt 0.1347656 0.9185662
vt 0.2060202 0.9185662
vt 0.1347656 1
vt 0.2060202 1
vt 0.1347656 0.9185662
vt 0.2060202 0.9185662
vt 0.1347656 1
vt 0.2060202 1
vt 0.1347656 0.9185662
vt 0.2060202 0.9185662
vt 0.1347656 1
vt 0.2060202 1
vt 0.1347656 0.9185662
vt 0.2060202 0.9185662
vt 0.1347656 1
vt 0.2060202 1
vn 0 1 0
vn 0 1 0
vn 0 1 0
vn 0 1 0
vn 0 1 0
vn 0 1 0
vn 0 1 0
vn 0 1 0
vn 0 1 0
vn 0 1 0
vn 0 1 0
vn 0 1 0
vn 0 1 0
vn 0 1 0
vn 0 1 0
vn 0 1 0
vn 0 1 0
vn 0 1 0
vn 0 1 0
vn 0 1 0
vn 0 1 0
vn 0 1 0
vn 0 1 0
vn 0 1 0
vn 0 1 0
vn 0 1 0
vn 0 1 0
vn 0 1 0
vn 0 1 0
vn 0 1 0
vn 0 1 0
vn 0 1 0
vn 0 1 0
vn 0 1 0
vn 0 1 0
vn 0 1 0
vn 0 1 0
vn 0 1 0
vn 0 1 0
vn 0 1 0
vn 0 1 0
vn 0 1 0
vn 0 1 0
vn 0 1 0
vn 0 1 0
vn 0 1 0
vn 0 1 0
vn 0 1 0
vn 0 1 0
vn 0 1 0
vn 0 1 0
vn 0 1 0
vn 0 1 0
vn 0 1 0
vn 0 1 0
vn 0 1 0
vn 0 1 0
vn 0 1 0
vn 0 1 0
vn 0 1 0
vn 0 1 0
vn 0 1 0
vn 0 1 0
vn 0 1 0
vn 0 1 0
vn 0 1 0
vn 0 1 0
vn 0 1 0
vn 0 1 0
vn 0 1 0
vn 0 1 0
vn 0 1 0
vn 0 1 0
vn 0 1 0
vn 0 1 0
vn 0 1 0
vn 0 1 0
vn 0 1 0
vn 0 1 0
vn 0 1 0
vn 0 1 0
vn 0 1 0
vn 0 1 0
vn 0 1 0
vn 0 1 0
vn 0 1 0
vn 0 1 0
vn 0 1 0
vn 0 1 0
vn 0 1 0
vn 0 1 0
vn 0 1 0
vn 0 1 0
vn 0 1 0
vn 0 1 0
vn 0 1 0
vn 0 1 0
vn 0 1 0
vn 0 1 0
vn 0 1 0
vn 0 1 0
vn 0 1 0
vn 0 1 0
vn 0 1 0
vn 0 1 0
vn 0 1 0
vn 0 1 0
vn 0 1 0
vn 0 1 0
vn 0 1 0
vn 0 1 0
vn 0 1 0
vn 0 1 0
vn 0 1 0
vn 0 1 0
vn 0 1 0
vn 0 1 0
vn 0 1 0
vn 0 1 0
vn 0 1 0
vn 0 1 0
vn 0 1 0
vn 0 1 0
vn 0 1 0
vn 0 1 0
vn 0 1 0
vn 0 1 0
vn 0 1 0
g Grass_2_Cluster256_0
f 2/2/2 3/3/3 1/1/1
f 2/2/2 4/4/4 3/3/3
f 6/6/6 7/7/7 5/5/5
f 6/6/6 8/8/8 7/7/7
f 10/10/10 11/11/11 9/9/9
f 10/10/10 12/12/12 11/11/11
f 14/14/14 15/15/15 13/13/13
f 14/14/14 16/16/16 15/15/15
f 18/18/18 19/19/19 17/17/17
f 18/18/18 20/20/20 19/19/19
f 22/22/22 23/23/23 21/21/21
f 22/22/22 24/24/24 23/23/23
f 26/26/26 27/27/27 25/25/25
f 26/26/26 28/28/28 27/27/27
f 30/30/30 31/31/31 29/29/29
f 30/30/30 32/32/32 31/31/31
f 34/34/34 35/35/35 33/33/33
f 34/34/34 36/36/36 35/35/35
f 38/38/38 39/39/39 37/37/37
f 38/38/38 40/40/40 39/39/39
f 42/42/42 43/43/43 41/41/41
f 42/42/42 44/44/44 43/43/43
f 46/46/46 47/47/47 45/45/45
f 46/46/46 48/48/48 47/47/47
f 50/50/50 51/51/51 49/49/49
f 50/50/50 52/52/52 51/51/51
f 54/54/54 55/55/55 53/53/53
f 54/54/54 56/56/56 55/55/55
f 58/58/58 59/59/59 57/57/57
f 58/58/58 60/60/60 59/59/59
f 62/62/62 63/63/63 61/61/61
f 62/62/62 64/64/64 63/63/63
f 66/66/66 67/67/67 65/65/65
f 66/66/66 68/68/68 67/67/67
f 70/70/70 71/71/71 69/69/69
f 70/70/70 72/72/72 71/71/71
f 74/74/74 75/75/75 73/73/73
f 74/74/74 76/76/76 75/75/75
f 78/78/78 79/79/79 77/77/77
f 78/78/78 80/80/80 79/79/79
f 82/82/82 83/83/83 81/81/81
f 82/82/82 84/84/84 83/83/83
f 86/86/86 87/87/87 85/85/85
f 86/86/86 88/88/88 87/87/87
f 90/90/90 91/91/91 89/89/89
f 90/90/90 92/92/92 91/91/91
f 94/94/94 95/95/95 93/93/93
f 94/94/94 96/96/96 95/95/95
f 98/98/98 99/99/99 97/97/97
f 98/98/98 100/100/100 99/99/99
f 102/102/102 103/103/103 101/101/101
f 102/102/102 104/104/104 103/103/103
f 106/106/106 107/107/107 105/105/105
f 106/106/106 108/108/108 107/107/107
f 110/110/110 111/111/111 109/109/109
f 110/110/110 112/112/112 111/111/111
f 114/114/114 115/115/115 113/113/113
f 114/114/114 116/116/116 115/115/115
f 118/118/118 119/119/119 117/117/117
f 118/118/118 120/120/120 119/119/119
f 122/122/122 123/123/123 121/121/121
f 122/122/122 124/124/124 123/123/123
f 126/126/126 127/127/127 125/125/125
f 126/126/126 128/128/128 127/127/127
