g Grass_1_Cluster162
v 218.4837 0.1282349 226.8037
v 217.5877 0.1282349 226.8037
v 218.4837 0.1282349 227.6996
v 217.5877 0.1282349 227.6996
v 222.9634 0.1282349 212.4685
v 222.0675 0.1282349 212.4685
v 222.9634 0.1282349 212.9165
v 222.0675 0.1282349 212.9165
v 222.9634 0.1282349 211.1246
v 222.5154 0.1282349 211.1246
v 222.9634 0.1282349 212.0205
v 222.5154 0.1282349 212.0205
v 225.6513 0.1282349 210.6766
v 224.7553 0.1282349 210.6766
v 225.6513 0.1282349 211.5725
v 224.7553 0.1282349 211.5725
v 226.9952 0.1282349 210.2286
v 225.6513 0.1282349 210.2286
v 226.9952 0.1282349 211.1246
v 225.6513 0.1282349 211.1246
v 220.7235 0.1282349 210.2286
v 219.8276 0.1282349 210.2286
v 220.7235 0.1282349 211.1246
v 219.8276 0.1282349 211.1246
v 230.131 0.1282349 209.7806
v 229.2351 0.1282349 209.7806
v 230.131 0.1282349 210.6766
v 229.2351 0.1282349 210.6766
v 220.7235 0.1282349 209.3327
v 219.8276 0.1282349 209.3327
v 220.7235 0.1282349 210.2286
v 219.8276 0.1282349 210.2286
v 230.579 0.1282349 209.3327
v 229.683 0.1282349 209.3327
v 230.579 0.1282349 210.2286
v 229.683 0.1282349 210.2286
v 224.3073 0.1282349 208.8847
v 223.4114 0.1282349 208.8847
v 224.3073 0.1282349 209.7806
v 223.4114 0.1282349 209.7806
vt 0.06738281 0.9369141
vt 0.1331457 0.9369141
vt 0.06738281 0.9990234
vt 0.1331457 0.9990234
vt 0.06738281 0.9369141
vt 0.1331457 0.9369141
vt 0.06738281 0.9990234
vt 0.1331457 0.9990234
vt 0.06738281 0.9369141
vt 0.1331457 0.9369141
vt 0.06738281 0.9990234
vt 0.1331457 0.9990234
vt 0.06738281 0.9369141
vt 0.1331457 0.9369141
vt 0.06738281 0.9990234
vt 0.1331457 0.9990234
vt 0.06738281 0.9369141
vt 0.1331457 0.9369141
vt 0.06738281 0.9990234
vt 0.1331457 0.9990234
vt 0.06738281 0.9369141
vt 0.1331457 0.9369141
vt 0.06738281 0.9990234
vt 0.1331457 0.9990234
vt 0.06738281 0.9369141
vt 0.1331457 0.9369141
vt 0.06738281 0.9990234
vt 0.1331457 0.9990234
vt 0.06738281 0.9369141
vt 0.1331457 0.9369141
vt 0.06738281 0.9990234
vt 0.1331457 0.9990234
vt 0.06738281 0.9369141
vt 0.1331457 0.9369141
vt 0.06738281 0.9990234
vt 0.1331457 0.9990234
vt 0.06738281 0.9369141
vt 0.1331457 0.9369141
vt 0.06738281 0.9990234
vt 0.1331457 0.9990234
vn 0 1 0
vn 0 1 0
vn 0 1 0
vn 0 1 0
vn 0 1 0
vn 0 1 0
vn 0 1 0
vn 0 1 0
vn 0 1 0
vn 0 1 0
vn 0 1 0
vn 0 1 0
vn 0 1 0
vn 0 1 0
vn 0 1 0
vn 0 1 0
vn 0 1 0
vn 0 1 0
vn 0 1 0
vn 0 1 0
vn 0 1 0
vn 0 1 0
vn 0 1 0
vn 0 1 0
vn 0 1 0
vn 0 1 0
vn 0 1 0
vn 0 1 0
vn 0 1 0
vn 0 1 0
vn 0 1 0
vn 0 1 0
vn 0 1 0
vn 0 1 0
vn 0 1 0
vn 0 1 0
vn 0 1 0
vn 0 1 0
vn 0 1 0
vn 0 1 0
g Grass_1_Cluster162_0
f 2/2/2 3/3/3 1/1/1
f 2/2/2 4/4/4 3/3/3
f 6/6/6 7/7/7 5/5/5
f 6/6/6 8/8/8 7/7/7
f 10/10/10 11/11/11 9/9/9
f 10/10/10 12/12/12 11/11/11
f 14/14/14 15/15/15 13/13/13
f 14/14/14 16/16/16 15/15/15
f 18/18/18 19/19/19 17/17/17
f 18/18/18 20/20/20 19/19/19
f 22/22/22 23/23/23 21/21/21
f 22/22/22 24/24/24 23/23/23
f 26/26/26 27/27/27 25/25/25
f 26/26/26 28/28/28 27/27/27
f 30/30/30 31/31/31 29/29/29
f 30/30/30 32/32/32 31/31/31
f 34/34/34 35/35/35 33/33/33
f 34/34/34 36/36/36 35/35/35
f 38/38/38 39/39/39 37/37/37
f 38/38/38 40/40/40 39/39/39
