g Grass_2_Cluster270
v -7.883906 0 382.9326
v -9.010179 0 382.9326
v -7.883906 0 384.0588
v -9.010179 0 384.0588
v -1.126272 0 382.9326
v -2.252545 0 382.9326
v -1.126272 0 384.0588
v -2.252545 0 384.0588
v -23.65172 0 382.5572
v -24.77799 0 382.5572
v -23.65172 0 383.6834
v -24.77799 0 383.6834
v -4.505089 0 382.5572
v -5.255937 0 382.5572
v -4.505089 0 383.6834
v -5.255937 0 383.6834
v -3.754241 0 382.1817
v -4.880513 0 382.1817
v -3.754241 0 383.308
v -4.880513 0 383.308
v -5.255937 0 381.8063
v -6.006785 0 381.8063
v -5.255937 0 382.9326
v -6.006785 0 382.9326
v -24.77799 0 380.3046
v -25.90426 0 380.3046
v -24.77799 0 381.0555
v -25.90426 0 381.0555
v -21.7746 0 379.9292
v -22.52545 0 379.9292
v -21.7746 0 380.68
v -22.52545 0 380.68
v -24.40257 0 379.5537
v -25.15341 0 379.5537
v -24.40257 0 380.68
v -25.15341 0 380.68
v -26.27969 0 379.1783
v -27.03053 0 379.1783
v -26.27969 0 380.3046
v -27.03053 0 380.3046
v -24.02714 0 378.8029
v -25.15341 0 378.8029
v -24.02714 0 379.9292
v -25.15341 0 379.9292
v -24.77799 0 378.4275
v -25.90426 0 378.4275
v -24.77799 0 379.9292
v -25.90426 0 379.9292
v -24.40257 0 377.6766
v -25.52884 0 377.6766
v -24.40257 0 378.8029
v -25.52884 0 378.8029
v -25.90426 0 377.3012
v -26.65511 0 377.3012
v -25.90426 0 378.4275
v -26.65511 0 378.4275
v -26.65511 0 376.9258
v -27.78138 0 376.9258
v -26.65511 0 378.0521
v -27.78138 0 378.0521
v -24.02714 0 376.9258
v -24.77799 0 376.9258
v -24.02714 0 378.0521
v -24.77799 0 378.0521
v -25.90426 0 376.5504
v -27.03053 0 376.5504
v -25.90426 0 377.6766
v -27.03053 0 377.6766
v -24.40257 0 376.1749
v -25.52884 0 376.1749
v -24.40257 0 377.3012
v -25.52884 0 377.3012
v -26.27969 0 376.1749
v -27.40596 0 376.1749
v -26.27969 0 377.3012
v -27.40596 0 377.3012
v -28.53223 0 375.7995
v -29.6585 0 375.7995
v -28.53223 0 376.9258
v -29.6585 0 376.9258
v -22.52545 0 375.7995
v -23.65172 0 375.7995
v -22.52545 0 376.9258
v -23.65172 0 376.9258
v -25.15341 0 375.7995
v -25.90426 0 375.7995
v -25.15341 0 376.9258
v -25.90426 0 376.9258
v -23.65172 0 375.4241
v -24.40257 0 375.4241
v -23.65172 0 376.5504
v -24.40257 0 376.5504
v -27.78138 0 375.4241
v -28.53223 0 375.4241
v -27.78138 0 376.5504
v -28.53223 0 376.5504
v -26.27969 0 375.0487
v -27.40596 0 375.0487
v -26.27969 0 376.1749
v -27.40596 0 376.1749
v -21.7746 0 375.0487
v -22.52545 0 375.0487
v -21.7746 0 376.1749
v -22.52545 0 376.1749
v -27.40596 0 375.0487
v -28.15681 0 375.0487
v -27.40596 0 375.7995
v -28.15681 0 375.7995
v -29.28308 0 374.6732
v -30.40935 0 374.6732
v -29.28308 0 375.7995
v -30.40935 0 375.7995
v -23.27629 0 374.6732
v -24.02714 0 374.6732
v -23.27629 0 375.7995
v -24.02714 0 375.7995
v -25.15341 0 374.2978
v -26.27969 0 374.2978
v -25.15341 0 375.0487
v -26.27969 0 375.0487
v -22.15002 0 373.9224
v -23.27629 0 373.9224
v -22.15002 0 375.0487
v -23.27629 0 375.0487
v -26.27969 0 373.9224
v -27.03053 0 373.9224
v -26.27969 0 375.0487
v -27.03053 0 375.0487
v -28.90766 0 373.547
v -30.03393 0 373.547
v -28.90766 0 374.6732
v -30.03393 0 374.6732
v -10.8873 0 357.4037
v -12.01357 0 357.4037
v -10.8873 0 358.53
v -12.01357 0 358.53
v -13.51527 0 357.4037
v -14.64154 0 357.4037
v -13.51527 0 358.53
v -14.64154 0 358.53
v -25.90426 0 357.0283
v -27.03053 0 357.0283
v -25.90426 0 358.1546
v -27.03053 0 358.1546
v -12.389 0 357.0283
v -13.13984 0 357.0283
v -12.389 0 357.7791
v -13.13984 0 357.7791
v -13.13984 0 356.6529
v -13.89069 0 356.6529
v -13.13984 0 357.7791
v -13.89069 0 357.7791
v -27.78138 0 356.2775
v -28.53223 0 356.2775
v -27.78138 0 357.4037
v -28.53223 0 357.4037
v -11.26272 0 356.2775
v -12.01357 0 356.2775
v -11.26272 0 357.4037
v -12.01357 0 357.4037
v -28.90766 0 356.2775
v -29.6585 0 356.2775
v -28.90766 0 357.0283
v -29.6585 0 357.0283
v -25.90426 0 355.902
v -26.65511 0 355.902
v -25.90426 0 357.0283
v -26.65511 0 357.0283
v -11.26272 0 355.5266
v -12.389 0 355.5266
v -11.26272 0 356.6529
v -12.389 0 356.6529
v -27.03053 0 355.902
v -27.78138 0 355.902
v -27.03053 0 357.0283
v -27.78138 0 357.0283
v -8.634754 0 355.5266
v -9.385602 0 355.5266
v -8.634754 0 356.6529
v -9.385602 0 356.6529
v -10.51187 0 355.5266
v -11.63815 0 355.5266
v -10.51187 0 356.6529
v -11.63815 0 356.6529
v -14.64154 0 355.5266
v -15.39239 0 355.5266
v -14.64154 0 356.6529
v -15.39239 0 356.6529
v -13.51527 0 355.5266
v -14.64154 0 355.5266
v -13.51527 0 356.2775
v -14.64154 0 356.2775
v -14.26612 0 355.1512
v -15.01696 0 355.1512
v -14.26612 0 356.2775
v -15.01696 0 356.2775
v -25.90426 0 355.1512
v -26.65511 0 355.1512
v -25.90426 0 356.2775
v -26.65511 0 356.2775
v -9.385602 0 355.1512
v -10.13645 0 355.1512
v -9.385602 0 356.2775
v -10.13645 0 356.2775
v -29.28308 0 354.7758
v -30.03393 0 354.7758
v -29.28308 0 355.902
v -30.03393 0 355.902
v -27.03053 0 354.7758
v -28.15681 0 354.7758
v -27.03053 0 355.902
v -28.15681 0 355.902
v -12.76442 0 354.7758
v -13.51527 0 354.7758
v -12.76442 0 355.902
v -13.51527 0 355.902
v -28.53223 0 354.4003
v -29.28308 0 354.4003
v -28.53223 0 355.5266
v -29.28308 0 355.5266
v -24.77799 0 354.4003
v -25.52884 0 354.4003
v -24.77799 0 355.5266
v -25.52884 0 355.5266
v -11.63815 0 354.4003
v -12.76442 0 354.4003
v -11.63815 0 355.5266
v -12.76442 0 355.5266
v -10.51187 0 354.4003
v -11.26272 0 354.4003
v -10.51187 0 355.5266
v -11.26272 0 355.5266
v -29.28308 0 354.4003
v -30.40935 0 354.4003
v -29.28308 0 355.1512
v -30.40935 0 355.1512
v -26.65511 0 354.0249
v -27.40596 0 354.0249
v -26.65511 0 355.1512
v -27.40596 0 355.1512
v -26.27969 0 354.0249
v -27.40596 0 354.0249
v -26.27969 0 355.1512
v -27.40596 0 355.1512
v -9.761026 0 353.6495
v -10.51187 0 353.6495
v -9.761026 0 354.7758
v -10.51187 0 354.7758
v -27.78138 0 354.0249
v -28.53223 0 354.0249
v -27.78138 0 355.1512
v -28.53223 0 355.1512
v -25.15341 0 354.0249
v -25.90426 0 354.0249
v -25.15341 0 355.1512
v -25.90426 0 355.1512
v -8.25933 0 353.2741
v -9.010179 0 353.2741
v -8.25933 0 354.4003
v -9.010179 0 354.4003
v -26.27969 0 353.2741
v -27.40596 0 353.2741
v -26.27969 0 354.4003
v -27.40596 0 354.4003
v -28.15681 0 353.2741
v -28.90766 0 353.2741
v -28.15681 0 354.4003
v -28.90766 0 354.4003
v -10.13645 0 353.2741
v -10.8873 0 353.2741
v -10.13645 0 354.4003
v -10.8873 0 354.4003
vt 0.1347656 0.9185662
vt 0.2060202 0.9185662
vt 0.1347656 1
vt 0.2060202 1
vt 0.1347656 0.9185662
vt 0.2060202 0.9185662
vt 0.1347656 1
vt 0.2060202 1
vt 0.1347656 0.9185662
vt 0.2060202 0.9185662
vt 0.1347656 1
vt 0.2060202 1
vt 0.1347656 0.9185662
vt 0.2060202 0.9185662
vt 0.1347656 1
vt 0.2060202 1
vt 0.1347656 0.9185662
vt 0.2060202 0.9185662
vt 0.1347656 1
vt 0.2060202 1
vt 0.1347656 0.9185662
vt 0.2060202 0.9185662
vt 0.1347656 1
vt 0.2060202 1
vt 0.1347656 0.9185662
vt 0.2060202 0.9185662
vt 0.1347656 1
vt 0.2060202 1
vt 0.1347656 0.9185662
vt 0.2060202 0.9185662
vt 0.1347656 1
vt 0.2060202 1
vt 0.1347656 0.9185662
vt 0.2060202 0.9185662
vt 0.1347656 1
vt 0.2060202 1
vt 0.1347656 0.9185662
vt 0.2060202 0.9185662
vt 0.1347656 1
vt 0.2060202 1
vt 0.1347656 0.9185662
vt 0.2060202 0.9185662
vt 0.1347656 1
vt 0.2060202 1
vt 0.1347656 0.9185662
vt 0.2060202 0.9185662
vt 0.1347656 1
vt 0.2060202 1
vt 0.1347656 0.9185662
vt 0.2060202 0.9185662
vt 0.1347656 1
vt 0.2060202 1
vt 0.1347656 0.9185662
vt 0.2060202 0.9185662
vt 0.1347656 1
vt 0.2060202 1
vt 0.1347656 0.9185662
vt 0.2060202 0.9185662
vt 0.1347656 1
vt 0.2060202 1
vt 0.1347656 0.9185662
vt 0.2060202 0.9185662
vt 0.1347656 1
vt 0.2060202 1
vt 0.1347656 0.9185662
vt 0.2060202 0.9185662
vt 0.1347656 1
vt 0.2060202 1
vt 0.1347656 0.9185662
vt 0.2060202 0.9185662
vt 0.1347656 1
vt 0.2060202 1
vt 0.1347656 0.9185662
vt 0.2060202 0.9185662
vt 0.1347656 1
vt 0.2060202 1
vt 0.1347656 0.9185662
vt 0.2060202 0.9185662
vt 0.1347656 1
vt 0.2060202 1
vt 0.1347656 0.9185662
vt 0.2060202 0.9185662
vt 0.1347656 1
vt 0.2060202 1
vt 0.1347656 0.9185662
vt 0.2060202 0.9185662
vt 0.1347656 1
vt 0.2060202 1
vt 0.1347656 0.9185662
vt 0.2060202 0.9185662
vt 0.1347656 1
vt 0.2060202 1
vt 0.1347656 0.9185662
vt 0.2060202 0.9185662
vt 0.1347656 1
vt 0.2060202 1
vt 0.1347656 0.9185662
vt 0.2060202 0.9185662
vt 0.1347656 1
vt 0.2060202 1
vt 0.1347656 0.9185662
vt 0.2060202 0.9185662
vt 0.1347656 1
vt 0.2060202 1
vt 0.1347656 0.9185662
vt 0.2060202 0.9185662
vt 0.1347656 1
vt 0.2060202 1
vt 0.1347656 0.9185662
vt 0.2060202 0.9185662
vt 0.1347656 1
vt 0.2060202 1
vt 0.1347656 0.9185662
vt 0.2060202 0.9185662
vt 0.1347656 1
vt 0.2060202 1
vt 0.1347656 0.9185662
vt 0.2060202 0.9185662
vt 0.1347656 1
vt 0.2060202 1
vt 0.1347656 0.9185662
vt 0.2060202 0.9185662
vt 0.1347656 1
vt 0.2060202 1
vt 0.1347656 0.9185662
vt 0.2060202 0.9185662
vt 0.1347656 1
vt 0.2060202 1
vt 0.1347656 0.9185662
vt 0.2060202 0.9185662
vt 0.1347656 1
vt 0.2060202 1
vt 0.1347656 0.9185662
vt 0.2060202 0.9185662
vt 0.1347656 1
vt 0.2060202 1
vt 0.1347656 0.9185662
vt 0.2060202 0.9185662
vt 0.1347656 1
vt 0.2060202 1
vt 0.1347656 0.9185662
vt 0.2060202 0.9185662
vt 0.1347656 1
vt 0.2060202 1
vt 0.1347656 0.9185662
vt 0.2060202 0.9185662
vt 0.1347656 1
vt 0.2060202 1
vt 0.1347656 0.9185662
vt 0.2060202 0.9185662
vt 0.1347656 1
vt 0.2060202 1
vt 0.1347656 0.9185662
vt 0.2060202 0.9185662
vt 0.1347656 1
vt 0.2060202 1
vt 0.1347656 0.9185662
vt 0.2060202 0.9185662
vt 0.1347656 1
vt 0.2060202 1
vt 0.1347656 0.9185662
vt 0.2060202 0.9185662
vt 0.1347656 1
vt 0.2060202 1
vt 0.1347656 0.9185662
vt 0.2060202 0.9185662
vt 0.1347656 1
vt 0.2060202 1
vt 0.1347656 0.9185662
vt 0.2060202 0.9185662
vt 0.1347656 1
vt 0.2060202 1
vt 0.1347656 0.9185662
vt 0.2060202 0.9185662
vt 0.1347656 1
vt 0.2060202 1
vt 0.1347656 0.9185662
vt 0.2060202 0.9185662
vt 0.1347656 1
vt 0.2060202 1
vt 0.1347656 0.9185662
vt 0.2060202 0.9185662
vt 0.1347656 1
vt 0.2060202 1
vt 0.1347656 0.9185662
vt 0.2060202 0.9185662
vt 0.1347656 1
vt 0.2060202 1
vt 0.1347656 0.9185662
vt 0.2060202 0.9185662
vt 0.1347656 1
vt 0.2060202 1
vt 0.1347656 0.9185662
vt 0.2060202 0.9185662
vt 0.1347656 1
vt 0.2060202 1
vt 0.1347656 0.9185662
vt 0.2060202 0.9185662
vt 0.1347656 1
vt 0.2060202 1
vt 0.1347656 0.9185662
vt 0.2060202 0.9185662
vt 0.1347656 1
vt 0.2060202 1
vt 0.1347656 0.9185662
vt 0.2060202 0.9185662
vt 0.1347656 1
vt 0.2060202 1
vt 0.1347656 0.9185662
vt 0.2060202 0.9185662
vt 0.1347656 1
vt 0.2060202 1
vt 0.1347656 0.9185662
vt 0.2060202 0.9185662
vt 0.1347656 1
vt 0.2060202 1
vt 0.1347656 0.9185662
vt 0.2060202 0.9185662
vt 0.1347656 1
vt 0.2060202 1
vt 0.1347656 0.9185662
vt 0.2060202 0.9185662
vt 0.1347656 1
vt 0.2060202 1
vt 0.1347656 0.9185662
vt 0.2060202 0.9185662
vt 0.1347656 1
vt 0.2060202 1
vt 0.1347656 0.9185662
vt 0.2060202 0.9185662
vt 0.1347656 1
vt 0.2060202 1
vt 0.1347656 0.9185662
vt 0.2060202 0.9185662
vt 0.1347656 1
vt 0.2060202 1
vt 0.1347656 0.9185662
vt 0.2060202 0.9185662
vt 0.1347656 1
vt 0.2060202 1
vt 0.1347656 0.9185662
vt 0.2060202 0.9185662
vt 0.1347656 1
vt 0.2060202 1
vt 0.1347656 0.9185662
vt 0.2060202 0.9185662
vt 0.1347656 1
vt 0.2060202 1
vt 0.1347656 0.9185662
vt 0.2060202 0.9185662
vt 0.1347656 1
vt 0.2060202 1
vt 0.1347656 0.9185662
vt 0.2060202 0.9185662
vt 0.1347656 1
vt 0.2060202 1
vt 0.1347656 0.9185662
vt 0.2060202 0.9185662
vt 0.1347656 1
vt 0.2060202 1
vt 0.1347656 0.9185662
vt 0.2060202 0.9185662
vt 0.1347656 1
vt 0.2060202 1
vt 0.1347656 0.9185662
vt 0.2060202 0.9185662
vt 0.1347656 1
vt 0.2060202 1
vt 0.1347656 0.9185662
vt 0.2060202 0.9185662
vt 0.1347656 1
vt 0.2060202 1
vn 0 1 0
vn 0 1 0
vn 0 1 0
vn 0 1 0
vn 0 1 0
vn 0 1 0
vn 0 1 0
vn 0 1 0
vn 0 1 0
vn 0 1 0
vn 0 1 0
vn 0 1 0
vn 0 1 0
vn 0 1 0
vn 0 1 0
vn 0 1 0
vn 0 1 0
vn 0 1 0
vn 0 1 0
vn 0 1 0
vn 0 1 0
vn 0 1 0
vn 0 1 0
vn 0 1 0
vn 0 1 0
vn 0 1 0
vn 0 1 0
vn 0 1 0
vn 0 1 0
vn 0 1 0
vn 0 1 0
vn 0 1 0
vn 0 1 0
vn 0 1 0
vn 0 1 0
vn 0 1 0
vn 0 1 0
vn 0 1 0
vn 0 1 0
vn 0 1 0
vn 0 1 0
vn 0 1 0
vn 0 1 0
vn 0 1 0
vn 0 1 0
vn 0 1 0
vn 0 1 0
vn 0 1 0
vn 0 1 0
vn 0 1 0
vn 0 1 0
vn 0 1 0
vn 0 1 0
vn 0 1 0
vn 0 1 0
vn 0 1 0
vn 0 1 0
vn 0 1 0
vn 0 1 0
vn 0 1 0
vn 0 1 0
vn 0 1 0
vn 0 1 0
vn 0 1 0
vn 0 1 0
vn 0 1 0
vn 0 1 0
vn 0 1 0
vn 0 1 0
vn 0 1 0
vn 0 1 0
vn 0 1 0
vn 0 1 0
vn 0 1 0
vn 0 1 0
vn 0 1 0
vn 0 1 0
vn 0 1 0
vn 0 1 0
vn 0 1 0
vn 0 1 0
vn 0 1 0
vn 0 1 0
vn 0 1 0
vn 0 1 0
vn 0 1 0
vn 0 1 0
vn 0 1 0
vn 0 1 0
vn 0 1 0
vn 0 1 0
vn 0 1 0
vn 0 1 0
vn 0 1 0
vn 0 1 0
vn 0 1 0
vn 0 1 0
vn 0 1 0
vn 0 1 0
vn 0 1 0
vn 0 1 0
vn 0 1 0
vn 0 1 0
vn 0 1 0
vn 0 1 0
vn 0 1 0
vn 0 1 0
vn 0 1 0
vn 0 1 0
vn 0 1 0
vn 0 1 0
vn 0 1 0
vn 0 1 0
vn 0 1 0
vn 0 1 0
vn 0 1 0
vn 0 1 0
vn 0 1 0
vn 0 1 0
vn 0 1 0
vn 0 1 0
vn 0 1 0
vn 0 1 0
vn 0 1 0
vn 0 1 0
vn 0 1 0
vn 0 1 0
vn 0 1 0
vn 0 1 0
vn 0 1 0
vn 0 1 0
vn 0 1 0
vn 0 1 0
vn 0 1 0
vn 0 1 0
vn 0 1 0
vn 0 1 0
vn 0 1 0
vn 0 1 0
vn 0 1 0
vn 0 1 0
vn 0 1 0
vn 0 1 0
vn 0 1 0
vn 0 1 0
vn 0 1 0
vn 0 1 0
vn 0 1 0
vn 0 1 0
vn 0 1 0
vn 0 1 0
vn 0 1 0
vn 0 1 0
vn 0 1 0
vn 0 1 0
vn 0 1 0
vn 0 1 0
vn 0 1 0
vn 0 1 0
vn 0 1 0
vn 0 1 0
vn 0 1 0
vn 0 1 0
vn 0 1 0
vn 0 1 0
vn 0 1 0
vn 0 1 0
vn 0 1 0
vn 0 1 0
vn 0 1 0
vn 0 1 0
vn 0 1 0
vn 0 1 0
vn 0 1 0
vn 0 1 0
vn 0 1 0
vn 0 1 0
vn 0 1 0
vn 0 1 0
vn 0 1 0
vn 0 1 0
vn 0 1 0
vn 0 1 0
vn 0 1 0
vn 0 1 0
vn 0 1 0
vn 0 1 0
vn 0 1 0
vn 0 1 0
vn 0 1 0
vn 0 1 0
vn 0 1 0
vn 0 1 0
vn 0 1 0
vn 0 1 0
vn 0 1 0
vn 0 1 0
vn 0 1 0
vn 0 1 0
vn 0 1 0
vn 0 1 0
vn 0 1 0
vn 0 1 0
vn 0 1 0
vn 0 1 0
vn 0 1 0
vn 0 1 0
vn 0 1 0
vn 0 1 0
vn 0 1 0
vn 0 1 0
vn 0 1 0
vn 0 1 0
vn 0 1 0
vn 0 1 0
vn 0 1 0
vn 0 1 0
vn 0 1 0
vn 0 1 0
vn 0 1 0
vn 0 1 0
vn 0 1 0
vn 0 1 0
vn 0 1 0
vn 0 1 0
vn 0 1 0
vn 0 1 0
vn 0 1 0
vn 0 1 0
vn 0 1 0
vn 0 1 0
vn 0 1 0
vn 0 1 0
vn 0 1 0
vn 0 1 0
vn 0 1 0
vn 0 1 0
vn 0 1 0
vn 0 1 0
vn 0 1 0
vn 0 1 0
vn 0 1 0
vn 0 1 0
vn 0 1 0
vn 0 1 0
vn 0 1 0
vn 0 1 0
vn 0 1 0
vn 0 1 0
vn 0 1 0
vn 0 1 0
vn 0 1 0
vn 0 1 0
vn 0 1 0
vn 0 1 0
vn 0 1 0
vn 0 1 0
vn 0 1 0
vn 0 1 0
vn 0 1 0
vn 0 1 0
vn 0 1 0
vn 0 1 0
vn 0 1 0
vn 0 1 0
vn 0 1 0
vn 0 1 0
vn 0 1 0
vn 0 1 0
vn 0 1 0
vn 0 1 0
vn 0 1 0
g Grass_2_Cluster270_0
f 2/2/2 3/3/3 1/1/1
f 2/2/2 4/4/4 3/3/3
f 6/6/6 7/7/7 5/5/5
f 6/6/6 8/8/8 7/7/7
f 10/10/10 11/11/11 9/9/9
f 10/10/10 12/12/12 11/11/11
f 14/14/14 15/15/15 13/13/13
f 14/14/14 16/16/16 15/15/15
f 18/18/18 19/19/19 17/17/17
f 18/18/18 20/20/20 19/19/19
f 22/22/22 23/23/23 21/21/21
f 22/22/22 24/24/24 23/23/23
f 26/26/26 27/27/27 25/25/25
f 26/26/26 28/28/28 27/27/27
f 30/30/30 31/31/31 29/29/29
f 30/30/30 32/32/32 31/31/31
f 34/34/34 35/35/35 33/33/33
f 34/34/34 36/36/36 35/35/35
f 38/38/38 39/39/39 37/37/37
f 38/38/38 40/40/40 39/39/39
f 42/42/42 43/43/43 41/41/41
f 42/42/42 44/44/44 43/43/43
f 46/46/46 47/47/47 45/45/45
f 46/46/46 48/48/48 47/47/47
f 50/50/50 51/51/51 49/49/49
f 50/50/50 52/52/52 51/51/51
f 54/54/54 55/55/55 53/53/53
f 54/54/54 56/56/56 55/55/55
f 58/58/58 59/59/59 57/57/57
f 58/58/58 60/60/60 59/59/59
f 62/62/62 63/63/63 61/61/61
f 62/62/62 64/64/64 63/63/63
f 66/66/66 67/67/67 65/65/65
f 66/66/66 68/68/68 67/67/67
f 70/70/70 71/71/71 69/69/69
f 70/70/70 72/72/72 71/71/71
f 74/74/74 75/75/75 73/73/73
f 74/74/74 76/76/76 75/75/75
f 78/78/78 79/79/79 77/77/77
f 78/78/78 80/80/80 79/79/79
f 82/82/82 83/83/83 81/81/81
f 82/82/82 84/84/84 83/83/83
f 86/86/86 87/87/87 85/85/85
f 86/86/86 88/88/88 87/87/87
f 90/90/90 91/91/91 89/89/89
f 90/90/90 92/92/92 91/91/91
f 94/94/94 95/95/95 93/93/93
f 94/94/94 96/96/96 95/95/95
f 98/98/98 99/99/99 97/97/97
f 98/98/98 100/100/100 99/99/99
f 102/102/102 103/103/103 101/101/101
f 102/102/102 104/104/104 103/103/103
f 106/106/106 107/107/107 105/105/105
f 106/106/106 108/108/108 107/107/107
f 110/110/110 111/111/111 109/109/109
f 110/110/110 112/112/112 111/111/111
f 114/114/114 115/115/115 113/113/113
f 114/114/114 116/116/116 115/115/115
f 118/118/118 119/119/119 117/117/117
f 118/118/118 120/120/120 119/119/119
f 122/122/122 123/123/123 121/121/121
f 122/122/122 124/124/124 123/123/123
f 126/126/126 127/127/127 125/125/125
f 126/126/126 128/128/128 127/127/127
f 130/130/130 131/131/131 129/129/129
f 130/130/130 132/132/132 131/131/131
f 134/134/134 135/135/135 133/133/133
f 134/134/134 136/136/136 135/135/135
f 138/138/138 139/139/139 137/137/137
f 138/138/138 140/140/140 139/139/139
f 142/142/142 143/143/143 141/141/141
f 142/142/142 144/144/144 143/143/143
f 146/146/146 147/147/147 145/145/145
f 146/146/146 148/148/148 147/147/147
f 150/150/150 151/151/151 149/149/149
f 150/150/150 152/152/152 151/151/151
f 154/154/154 155/155/155 153/153/153
f 154/154/154 156/156/156 155/155/155
f 158/158/158 159/159/159 157/157/157
f 158/158/158 160/160/160 159/159/159
f 162/162/162 163/163/163 161/161/161
f 162/162/162 164/164/164 163/163/163
f 166/166/166 167/167/167 165/165/165
f 166/166/166 168/168/168 167/167/167
f 170/170/170 171/171/171 169/169/169
f 170/170/170 172/172/172 171/171/171
f 174/174/174 175/175/175 173/173/173
f 174/174/174 176/176/176 175/175/175
f 178/178/178 179/179/179 177/177/177
f 178/178/178 180/180/180 179/179/179
f 182/182/182 183/183/183 181/181/181
f 182/182/182 184/184/184 183/183/183
f 186/186/186 187/187/187 185/185/185
f 186/186/186 188/188/188 187/187/187
f 190/190/190 191/191/191 189/189/189
f 190/190/190 192/192/192 191/191/191
f 194/194/194 195/195/195 193/193/193
f 194/194/194 196/196/196 195/195/195
f 198/198/198 199/199/199 197/197/197
f 198/198/198 200/200/200 199/199/199
f 202/202/202 203/203/203 201/201/201
f 202/202/202 204/204/204 203/203/203
f 206/206/206 207/207/207 205/205/205
f 206/206/206 208/208/208 207/207/207
f 210/210/210 211/211/211 209/209/209
f 210/210/210 212/212/212 211/211/211
f 214/214/214 215/215/215 213/213/213
f 214/214/214 216/216/216 215/215/215
f 218/218/218 219/219/219 217/217/217
f 218/218/218 220/220/220 219/219/219
f 222/222/222 223/223/223 221/221/221
f 222/222/222 224/224/224 223/223/223
f 226/226/226 227/227/227 225/225/225
f 226/226/226 228/228/228 227/227/227
f 230/230/230 231/231/231 229/229/229
f 230/230/230 232/232/232 231/231/231
f 234/234/234 235/235/235 233/233/233
f 234/234/234 236/236/236 235/235/235
f 238/238/238 239/239/239 237/237/237
f 238/238/238 240/240/240 239/239/239
f 242/242/242 243/243/243 241/241/241
f 242/242/242 244/244/244 243/243/243
f 246/246/246 247/247/247 245/245/245
f 246/246/246 248/248/248 247/247/247
f 250/250/250 251/251/251 249/249/249
f 250/250/250 252/252/252 251/251/251
f 254/254/254 255/255/255 253/253/253
f 254/254/254 256/256/256 255/255/255
f 258/258/258 259/259/259 257/257/257
f 258/258/258 260/260/260 259/259/259
f 262/262/262 263/263/263 261/261/261
f 262/262/262 264/264/264 263/263/263
f 266/266/266 267/267/267 265/265/265
f 266/266/266 268/268/268 267/267/267
f 270/270/270 271/271/271 269/269/269
f 270/270/270 272/272/272 271/271/271
