g Grass_2_Cluster106
v 115.6545 -0.0112915 142.9939
v 114.8801 -0.0112915 142.9939
v 115.6545 -0.0112915 144.0265
v 114.8801 -0.0112915 144.0265
v 117.4614 -0.0112915 142.7358
v 116.4289 -0.0112915 142.7358
v 117.4614 -0.0112915 143.7684
v 116.4289 -0.0112915 143.7684
v 115.1383 -0.0112915 142.2196
v 114.1057 -0.0112915 142.2196
v 115.1383 -0.0112915 143.5102
v 114.1057 -0.0112915 143.5102
v 116.4289 -0.0112915 141.9614
v 115.6545 -0.0112915 141.9614
v 116.4289 -0.0112915 142.9939
v 115.6545 -0.0112915 142.9939
v 112.8151 -0.0112915 141.9614
v 111.7825 -0.0112915 141.9614
v 112.8151 -0.0112915 142.9939
v 111.7825 -0.0112915 142.9939
v 92.93889 -0.0112915 138.0894
v 92.16449 -0.0112915 138.0894
v 92.93889 -0.0112915 139.122
v 92.16449 -0.0112915 139.122
v 103.006 -0.0112915 138.0894
v 101.9735 -0.0112915 138.0894
v 103.006 -0.0112915 139.122
v 101.9735 -0.0112915 139.122
v 102.4898 -0.0112915 136.5406
v 101.4573 -0.0112915 136.5406
v 102.4898 -0.0112915 137.8313
v 101.4573 -0.0112915 137.8313
v 103.2642 -0.0112915 136.0244
v 102.2316 -0.0112915 136.0244
v 103.2642 -0.0112915 137.0569
v 102.2316 -0.0112915 137.0569
v 102.2316 -0.0112915 135.7663
v 101.1991 -0.0112915 135.7663
v 102.2316 -0.0112915 137.0569
v 101.1991 -0.0112915 137.0569
v 103.7804 -0.0112915 135.5081
v 102.7479 -0.0112915 135.5081
v 103.7804 -0.0112915 136.7988
v 102.7479 -0.0112915 136.7988
v 95.77834 -0.0112915 135.5081
v 94.74581 -0.0112915 135.5081
v 95.77834 -0.0112915 136.5406
v 94.74581 -0.0112915 136.5406
v 99.3922 -0.0112915 135.25
v 98.6178 -0.0112915 135.25
v 99.3922 -0.0112915 136.2825
v 98.6178 -0.0112915 136.2825
v 100.941 -0.0112915 135.25
v 100.1666 -0.0112915 135.25
v 100.941 -0.0112915 136.5406
v 100.1666 -0.0112915 136.5406
v 94.22955 -0.0112915 135.25
v 93.19702 -0.0112915 135.25
v 94.22955 -0.0112915 136.2825
v 93.19702 -0.0112915 136.2825
v 100.6829 -0.0112915 134.9919
v 99.90846 -0.0112915 134.9919
v 100.6829 -0.0112915 136.2825
v 99.90846 -0.0112915 136.2825
v 98.10153 -0.0112915 134.9919
v 97.069 -0.0112915 134.9919
v 98.10153 -0.0112915 136.0244
v 97.069 -0.0112915 136.0244
v 104.0386 -0.0112915 134.7337
v 103.006 -0.0112915 134.7337
v 104.0386 -0.0112915 136.0244
v 103.006 -0.0112915 136.0244
v 103.5223 -0.0112915 134.7337
v 102.4898 -0.0112915 134.7337
v 103.5223 -0.0112915 135.7663
v 102.4898 -0.0112915 135.7663
v 101.7154 -0.0112915 134.2175
v 100.941 -0.0112915 134.2175
v 101.7154 -0.0112915 135.25
v 100.941 -0.0112915 135.25
v 99.65033 -0.0112915 133.9593
v 98.87593 -0.0112915 133.9593
v 99.65033 -0.0112915 134.9919
v 98.87593 -0.0112915 134.9919
v 102.7479 -0.0112915 133.9593
v 101.9735 -0.0112915 133.9593
v 102.7479 -0.0112915 134.9919
v 101.9735 -0.0112915 134.9919
v 98.6178 -0.0112915 133.7012
v 97.8434 -0.0112915 133.7012
v 98.6178 -0.0112915 134.7337
v 97.8434 -0.0112915 134.7337
v 101.7154 -0.0112915 133.7012
v 100.6829 -0.0112915 133.7012
v 101.7154 -0.0112915 134.7337
v 100.6829 -0.0112915 134.7337
v 105.5874 -0.0112915 132.4105
v 104.5548 -0.0112915 132.4105
v 105.5874 -0.0112915 133.4431
v 104.5548 -0.0112915 133.4431
v 106.6199 -0.0112915 131.6361
v 105.8455 -0.0112915 131.6361
v 106.6199 -0.0112915 132.6687
v 105.8455 -0.0112915 132.6687
v 118.7521 -0.0112915 125.6991
v 117.7196 -0.0112915 125.6991
v 118.7521 -0.0112915 126.9897
v 117.7196 -0.0112915 126.9897
v 120.0428 -0.0112915 123.8922
v 119.0102 -0.0112915 123.8922
v 120.0428 -0.0112915 124.9247
v 119.0102 -0.0112915 124.9247
v 119.2684 -0.0112915 123.3759
v 118.494 -0.0112915 123.3759
v 119.2684 -0.0112915 124.4084
v 118.494 -0.0112915 124.4084
v 91.39009 -0.0112915 115.3738
v 90.35757 -0.0112915 115.3738
v 91.39009 -0.0112915 116.4063
v 90.35757 -0.0112915 116.4063
v 93.97142 -0.0112915 114.8575
v 93.19702 -0.0112915 114.8575
v 93.97142 -0.0112915 115.8901
v 93.19702 -0.0112915 115.8901
v 93.19702 -0.0112915 114.3413
v 92.16449 -0.0112915 114.3413
v 93.19702 -0.0112915 115.3738
v 92.16449 -0.0112915 115.3738
v 92.42262 -0.0112915 114.0831
v 91.39009 -0.0112915 114.0831
v 92.42262 -0.0112915 115.1157
v 91.39009 -0.0112915 115.1157
vt 0.1347656 0.9185662
vt 0.2060202 0.9185662
vt 0.1347656 1
vt 0.2060202 1
vt 0.1347656 0.9185662
vt 0.2060202 0.9185662
vt 0.1347656 1
vt 0.2060202 1
vt 0.1347656 0.9185662
vt 0.2060202 0.9185662
vt 0.1347656 1
vt 0.2060202 1
vt 0.1347656 0.9185662
vt 0.2060202 0.9185662
vt 0.1347656 1
vt 0.2060202 1
vt 0.1347656 0.9185662
vt 0.2060202 0.9185662
vt 0.1347656 1
vt 0.2060202 1
vt 0.1347656 0.9185662
vt 0.2060202 0.9185662
vt 0.1347656 1
vt 0.2060202 1
vt 0.1347656 0.9185662
vt 0.2060202 0.9185662
vt 0.1347656 1
vt 0.2060202 1
vt 0.1347656 0.9185662
vt 0.2060202 0.9185662
vt 0.1347656 1
vt 0.2060202 1
vt 0.1347656 0.9185662
vt 0.2060202 0.9185662
vt 0.1347656 1
vt 0.2060202 1
vt 0.1347656 0.9185662
vt 0.2060202 0.9185662
vt 0.1347656 1
vt 0.2060202 1
vt 0.1347656 0.9185662
vt 0.2060202 0.9185662
vt 0.1347656 1
vt 0.2060202 1
vt 0.1347656 0.9185662
vt 0.2060202 0.9185662
vt 0.1347656 1
vt 0.2060202 1
vt 0.1347656 0.9185662
vt 0.2060202 0.9185662
vt 0.1347656 1
vt 0.2060202 1
vt 0.1347656 0.9185662
vt 0.2060202 0.9185662
vt 0.1347656 1
vt 0.2060202 1
vt 0.1347656 0.9185662
vt 0.2060202 0.9185662
vt 0.1347656 1
vt 0.2060202 1
vt 0.1347656 0.9185662
vt 0.2060202 0.9185662
vt 0.1347656 1
vt 0.2060202 1
vt 0.1347656 0.9185662
vt 0.2060202 0.9185662
vt 0.1347656 1
vt 0.2060202 1
vt 0.1347656 0.9185662
vt 0.2060202 0.9185662
vt 0.1347656 1
vt 0.2060202 1
vt 0.1347656 0.9185662
vt 0.2060202 0.9185662
vt 0.1347656 1
vt 0.2060202 1
vt 0.1347656 0.9185662
vt 0.2060202 0.9185662
vt 0.1347656 1
vt 0.2060202 1
vt 0.1347656 0.9185662
vt 0.2060202 0.9185662
vt 0.1347656 1
vt 0.2060202 1
vt 0.1347656 0.9185662
vt 0.2060202 0.9185662
vt 0.1347656 1
vt 0.2060202 1
vt 0.1347656 0.9185662
vt 0.2060202 0.9185662
vt 0.1347656 1
vt 0.2060202 1
vt 0.1347656 0.9185662
vt 0.2060202 0.9185662
vt 0.1347656 1
vt 0.2060202 1
vt 0.1347656 0.9185662
vt 0.2060202 0.9185662
vt 0.1347656 1
vt 0.2060202 1
vt 0.1347656 0.9185662
vt 0.2060202 0.9185662
vt 0.1347656 1
vt 0.2060202 1
vt 0.1347656 0.9185662
vt 0.2060202 0.9185662
vt 0.1347656 1
vt 0.2060202 1
vt 0.1347656 0.9185662
vt 0.2060202 0.9185662
vt 0.1347656 1
vt 0.2060202 1
vt 0.1347656 0.9185662
vt 0.2060202 0.9185662
vt 0.1347656 1
vt 0.2060202 1
vt 0.1347656 0.9185662
vt 0.2060202 0.9185662
vt 0.1347656 1
vt 0.2060202 1
vt 0.1347656 0.9185662
vt 0.2060202 0.9185662
vt 0.1347656 1
vt 0.2060202 1
vt 0.1347656 0.9185662
vt 0.2060202 0.9185662
vt 0.1347656 1
vt 0.2060202 1
vt 0.1347656 0.9185662
vt 0.2060202 0.9185662
vt 0.1347656 1
vt 0.2060202 1
vn 0 1 0
vn 0 1 0
vn 0 1 0
vn 0 1 0
vn 0 1 0
vn 0 1 0
vn 0 1 0
vn 0 1 0
vn 0 1 0
vn 0 1 0
vn 0 1 0
vn 0 1 0
vn 0 1 0
vn 0 1 0
vn 0 1 0
vn 0 1 0
vn 0 1 0
vn 0 1 0
vn 0 1 0
vn 0 1 0
vn 0 1 0
vn 0 1 0
vn 0 1 0
vn 0 1 0
vn 0 1 0
vn 0 1 0
vn 0 1 0
vn 0 1 0
vn 0 1 0
vn 0 1 0
vn 0 1 0
vn 0 1 0
vn 0 1 0
vn 0 1 0
vn 0 1 0
vn 0 1 0
vn 0 1 0
vn 0 1 0
vn 0 1 0
vn 0 1 0
vn 0 1 0
vn 0 1 0
vn 0 1 0
vn 0 1 0
vn 0 1 0
vn 0 1 0
vn 0 1 0
vn 0 1 0
vn 0 1 0
vn 0 1 0
vn 0 1 0
vn 0 1 0
vn 0 1 0
vn 0 1 0
vn 0 1 0
vn 0 1 0
vn 0 1 0
vn 0 1 0
vn 0 1 0
vn 0 1 0
vn 0 1 0
vn 0 1 0
vn 0 1 0
vn 0 1 0
vn 0 1 0
vn 0 1 0
vn 0 1 0
vn 0 1 0
vn 0 1 0
vn 0 1 0
vn 0 1 0
vn 0 1 0
vn 0 1 0
vn 0 1 0
vn 0 1 0
vn 0 1 0
vn 0 1 0
vn 0 1 0
vn 0 1 0
vn 0 1 0
vn 0 1 0
vn 0 1 0
vn 0 1 0
vn 0 1 0
vn 0 1 0
vn 0 1 0
vn 0 1 0
vn 0 1 0
vn 0 1 0
vn 0 1 0
vn 0 1 0
vn 0 1 0
vn 0 1 0
vn 0 1 0
vn 0 1 0
vn 0 1 0
vn 0 1 0
vn 0 1 0
vn 0 1 0
vn 0 1 0
vn 0 1 0
vn 0 1 0
vn 0 1 0
vn 0 1 0
vn 0 1 0
vn 0 1 0
vn 0 1 0
vn 0 1 0
vn 0 1 0
vn 0 1 0
vn 0 1 0
vn 0 1 0
vn 0 1 0
vn 0 1 0
vn 0 1 0
vn 0 1 0
vn 0 1 0
vn 0 1 0
vn 0 1 0
vn 0 1 0
vn 0 1 0
vn 0 1 0
vn 0 1 0
vn 0 1 0
vn 0 1 0
vn 0 1 0
vn 0 1 0
vn 0 1 0
vn 0 1 0
vn 0 1 0
vn 0 1 0
vn 0 1 0
g Grass_2_Cluster106_0
f 2/2/2 3/3/3 1/1/1
f 2/2/2 4/4/4 3/3/3
f 6/6/6 7/7/7 5/5/5
f 6/6/6 8/8/8 7/7/7
f 10/10/10 11/11/11 9/9/9
f 10/10/10 12/12/12 11/11/11
f 14/14/14 15/15/15 13/13/13
f 14/14/14 16/16/16 15/15/15
f 18/18/18 19/19/19 17/17/17
f 18/18/18 20/20/20 19/19/19
f 22/22/22 23/23/23 21/21/21
f 22/22/22 24/24/24 23/23/23
f 26/26/26 27/27/27 25/25/25
f 26/26/26 28/28/28 27/27/27
f 30/30/30 31/31/31 29/29/29
f 30/30/30 32/32/32 31/31/31
f 34/34/34 35/35/35 33/33/33
f 34/34/34 36/36/36 35/35/35
f 38/38/38 39/39/39 37/37/37
f 38/38/38 40/40/40 39/39/39
f 42/42/42 43/43/43 41/41/41
f 42/42/42 44/44/44 43/43/43
f 46/46/46 47/47/47 45/45/45
f 46/46/46 48/48/48 47/47/47
f 50/50/50 51/51/51 49/49/49
f 50/50/50 52/52/52 51/51/51
f 54/54/54 55/55/55 53/53/53
f 54/54/54 56/56/56 55/55/55
f 58/58/58 59/59/59 57/57/57
f 58/58/58 60/60/60 59/59/59
f 62/62/62 63/63/63 61/61/61
f 62/62/62 64/64/64 63/63/63
f 66/66/66 67/67/67 65/65/65
f 66/66/66 68/68/68 67/67/67
f 70/70/70 71/71/71 69/69/69
f 70/70/70 72/72/72 71/71/71
f 74/74/74 75/75/75 73/73/73
f 74/74/74 76/76/76 75/75/75
f 78/78/78 79/79/79 77/77/77
f 78/78/78 80/80/80 79/79/79
f 82/82/82 83/83/83 81/81/81
f 82/82/82 84/84/84 83/83/83
f 86/86/86 87/87/87 85/85/85
f 86/86/86 88/88/88 87/87/87
f 90/90/90 91/91/91 89/89/89
f 90/90/90 92/92/92 91/91/91
f 94/94/94 95/95/95 93/93/93
f 94/94/94 96/96/96 95/95/95
f 98/98/98 99/99/99 97/97/97
f 98/98/98 100/100/100 99/99/99
f 102/102/102 103/103/103 101/101/101
f 102/102/102 104/104/104 103/103/103
f 106/106/106 107/107/107 105/105/105
f 106/106/106 108/108/108 107/107/107
f 110/110/110 111/111/111 109/109/109
f 110/110/110 112/112/112 111/111/111
f 114/114/114 115/115/115 113/113/113
f 114/114/114 116/116/116 115/115/115
f 118/118/118 119/119/119 117/117/117
f 118/118/118 120/120/120 119/119/119
f 122/122/122 123/123/123 121/121/121
f 122/122/122 124/124/124 123/123/123
f 126/126/126 127/127/127 125/125/125
f 126/126/126 128/128/128 127/127/127
f 130/130/130 131/131/131 129/129/129
f 130/130/130 132/132/132 131/131/131
