g Grass_0_Cluster21
v 249.5972 -0.04580688 22.64069
v 248.7357 -0.04580688 22.64069
v 249.5972 -0.04580688 23.78937
v 248.7357 -0.04580688 23.78937
v 269.412 -0.04580688 22.64069
v 268.2633 -0.04580688 22.64069
v 269.412 -0.04580688 23.78937
v 268.2633 -0.04580688 23.78937
v 269.1248 -0.04580688 21.20483
v 268.2633 -0.04580688 21.20483
v 269.1248 -0.04580688 22.64069
v 268.2633 -0.04580688 22.64069
v 269.9864 -0.04580688 19.76898
v 269.1248 -0.04580688 19.76898
v 269.9864 -0.04580688 20.91766
v 269.1248 -0.04580688 20.91766
v 260.7969 -0.04580688 17.75876
v 259.9354 -0.04580688 17.75876
v 260.7969 -0.04580688 18.90747
v 259.9354 -0.04580688 18.90747
v 269.412 -0.04580688 17.47159
v 268.5505 -0.04580688 17.47159
v 269.412 -0.04580688 18.6203
v 268.5505 -0.04580688 18.6203
v 258.4995 -0.04580688 16.61008
v 257.638 -0.04580688 16.61008
v 258.4995 -0.04580688 18.04596
v 257.638 -0.04580688 18.04596
v 260.2226 -0.04580688 15.74857
v 259.3611 -0.04580688 15.74857
v 260.2226 -0.04580688 16.89725
v 259.3611 -0.04580688 16.89725
v 249.0229 -0.04580688 15.4614
v 248.1614 -0.04580688 15.4614
v 249.0229 -0.04580688 16.61008
v 248.1614 -0.04580688 16.61008
v 257.3508 -0.04580688 15.4614
v 256.4893 -0.04580688 15.4614
v 257.3508 -0.04580688 16.61008
v 256.4893 -0.04580688 16.61008
v 251.0331 -0.04580688 14.31271
v 250.1716 -0.04580688 14.31271
v 251.0331 -0.04580688 15.4614
v 250.1716 -0.04580688 15.4614
v 247.0127 -0.04580688 14.02554
v 246.1512 -0.04580688 14.02554
v 247.0127 -0.04580688 15.17422
v 246.1512 -0.04580688 15.17422
v 259.6482 -0.04580688 13.73837
v 258.7867 -0.04580688 13.73837
v 259.6482 -0.04580688 14.88705
v 258.7867 -0.04580688 14.88705
v 261.0841 -0.04580688 13.4512
v 260.2226 -0.04580688 13.4512
v 261.0841 -0.04580688 14.59988
v 260.2226 -0.04580688 14.59988
v 262.8071 -0.04580688 12.58969
v 261.9456 -0.04580688 12.58969
v 262.8071 -0.04580688 13.73837
v 261.9456 -0.04580688 13.73837
v 264.5301 -0.04580688 11.72818
v 263.6686 -0.04580688 11.72818
v 264.5301 -0.04580688 12.87686
v 263.6686 -0.04580688 12.87686
v 263.3814 -0.04580688 10.00516
v 262.5199 -0.04580688 10.00516
v 263.3814 -0.04580688 11.15384
v 262.5199 -0.04580688 11.15384
v 259.9354 -0.04580688 9.717987
v 259.0739 -0.04580688 9.717987
v 259.9354 -0.04580688 10.86667
v 259.0739 -0.04580688 10.86667
v 260.7969 -0.04580688 9.430817
v 259.9354 -0.04580688 9.430817
v 260.7969 -0.04580688 10.5795
v 259.9354 -0.04580688 10.5795
v 243.8538 -0.04580688 9.430817
v 242.9923 -0.04580688 9.430817
v 243.8538 -0.04580688 10.5795
v 242.9923 -0.04580688 10.5795
v 261.9456 -0.04580688 9.143646
v 261.0841 -0.04580688 9.143646
v 261.9456 -0.04580688 10.29233
v 261.0841 -0.04580688 10.29233
v 259.9354 -0.04580688 8.569305
v 259.0739 -0.04580688 8.569305
v 259.9354 -0.04580688 10.00516
v 259.0739 -0.04580688 10.00516
v 261.0841 -0.04580688 8.282135
v 260.2226 -0.04580688 8.282135
v 261.0841 -0.04580688 9.430817
v 260.2226 -0.04580688 9.430817
v 259.9354 -0.04580688 7.420624
v 259.0739 -0.04580688 7.420624
v 259.9354 -0.04580688 8.856476
v 259.0739 -0.04580688 8.856476
v 261.3712 -0.04580688 7.420624
v 260.5097 -0.04580688 7.420624
v 261.3712 -0.04580688 8.569305
v 260.5097 -0.04580688 8.569305
v 261.6584 -0.04580688 6.846283
v 260.7969 -0.04580688 6.846283
v 261.6584 -0.04580688 8.282135
v 260.7969 -0.04580688 8.282135
v 262.8071 -0.04580688 6.559113
v 261.9456 -0.04580688 6.559113
v 262.8071 -0.04580688 7.707794
v 261.9456 -0.04580688 7.707794
v 263.0943 -0.04580688 5.984772
v 262.2328 -0.04580688 5.984772
v 263.0943 -0.04580688 7.420624
v 262.2328 -0.04580688 7.420624
v 261.6584 -0.04580688 5.697601
v 260.7969 -0.04580688 5.697601
v 261.6584 -0.04580688 6.846283
v 260.7969 -0.04580688 6.846283
v 261.0841 -0.04580688 5.697601
v 260.2226 -0.04580688 5.697601
v 261.0841 -0.04580688 6.846283
v 260.2226 -0.04580688 6.846283
v 263.9558 -0.04580688 3.974579
v 263.0943 -0.04580688 3.974579
v 263.9558 -0.04580688 5.12326
v 263.0943 -0.04580688 5.12326
v 263.6686 -0.04580688 0.5285339
v 262.8071 -0.04580688 0.5285339
v 263.6686 -0.04580688 1.964386
v 262.8071 -0.04580688 1.964386
v 251.3203 -0.04580688 0.2413635
v 250.4587 -0.04580688 0.2413635
v 251.3203 -0.04580688 1.677216
v 250.4587 -0.04580688 1.677216
v 248.1614 -0.04580688 -0.6201477
v 247.2999 -0.04580688 -0.6201477
v 248.1614 -0.04580688 0.8157043
v 247.2999 -0.04580688 0.8157043
v 264.243 -0.04580688 -1.768829
v 263.3814 -0.04580688 -1.768829
v 264.243 -0.04580688 -0.6201477
v 263.3814 -0.04580688 -0.6201477
v 252.1818 -0.04580688 -1.768829
v 251.3203 -0.04580688 -1.768829
v 252.1818 -0.04580688 -0.6201477
v 251.3203 -0.04580688 -0.6201477
v 264.8173 -0.04580688 -2.630341
v 263.9558 -0.04580688 -2.630341
v 264.8173 -0.04580688 -1.194489
v 263.9558 -0.04580688 -1.194489
v 261.0841 -0.04580688 -2.630341
v 260.2226 -0.04580688 -2.630341
v 261.0841 -0.04580688 -1.481659
v 260.2226 -0.04580688 -1.481659
v 263.0943 -0.04580688 -2.917511
v 262.2328 -0.04580688 -2.917511
v 263.0943 -0.04580688 -1.768829
v 262.2328 -0.04580688 -1.768829
v 262.8071 -0.04580688 -3.779022
v 261.9456 -0.04580688 -3.779022
v 262.8071 -0.04580688 -2.34317
v 261.9456 -0.04580688 -2.34317
v 256.7765 -0.04580688 -3.779022
v 255.915 -0.04580688 -3.779022
v 256.7765 -0.04580688 -2.630341
v 255.915 -0.04580688 -2.630341
v 253.3304 -0.04580688 -4.353363
v 252.4689 -0.04580688 -4.353363
v 253.3304 -0.04580688 -2.917511
v 252.4689 -0.04580688 -2.917511
v 245.2897 -0.04580688 -4.353363
v 244.141 -0.04580688 -4.353363
v 245.2897 -0.04580688 -3.204681
v 244.141 -0.04580688 -3.204681
v 254.192 -0.04580688 -5.214874
v 253.0433 -0.04580688 -5.214874
v 254.192 -0.04580688 -3.779022
v 253.0433 -0.04580688 -3.779022
v 263.3814 -0.04580688 -5.502075
v 262.5199 -0.04580688 -5.502075
v 263.3814 -0.04580688 -4.353363
v 262.5199 -0.04580688 -4.353363
v 245.5768 -0.04580688 -5.502075
v 244.7153 -0.04580688 -5.502075
v 245.5768 -0.04580688 -4.353363
v 244.7153 -0.04580688 -4.353363
v 251.0331 -0.04580688 -5.789246
v 250.1716 -0.04580688 -5.789246
v 251.0331 -0.04580688 -4.353363
v 250.1716 -0.04580688 -4.353363
v 251.8946 -0.04580688 -5.789246
v 251.0331 -0.04580688 -5.789246
v 251.8946 -0.04580688 -4.640533
v 251.0331 -0.04580688 -4.640533
v 256.4893 -0.04580688 -6.363586
v 255.6278 -0.04580688 -6.363586
v 256.4893 -0.04580688 -5.214874
v 255.6278 -0.04580688 -5.214874
v 260.7969 -0.04580688 -6.363586
v 259.9354 -0.04580688 -6.363586
v 260.7969 -0.04580688 -5.214874
v 259.9354 -0.04580688 -5.214874
vt 0 0.9058824
vt 0.06666667 0.9058824
vt 0 1
vt 0.06666667 1
vt 0 0.9058824
vt 0.06666667 0.9058824
vt 0 1
vt 0.06666667 1
vt 0 0.9058824
vt 0.06666667 0.9058824
vt 0 1
vt 0.06666667 1
vt 0 0.9058824
vt 0.06666667 0.9058824
vt 0 1
vt 0.06666667 1
vt 0 0.9058824
vt 0.06666667 0.9058824
vt 0 1
vt 0.06666667 1
vt 0 0.9058824
vt 0.06666667 0.9058824
vt 0 1
vt 0.06666667 1
vt 0 0.9058824
vt 0.06666667 0.9058824
vt 0 1
vt 0.06666667 1
vt 0 0.9058824
vt 0.06666667 0.9058824
vt 0 1
vt 0.06666667 1
vt 0 0.9058824
vt 0.06666667 0.9058824
vt 0 1
vt 0.06666667 1
vt 0 0.9058824
vt 0.06666667 0.9058824
vt 0 1
vt 0.06666667 1
vt 0 0.9058824
vt 0.06666667 0.9058824
vt 0 1
vt 0.06666667 1
vt 0 0.9058824
vt 0.06666667 0.9058824
vt 0 1
vt 0.06666667 1
vt 0 0.9058824
vt 0.06666667 0.9058824
vt 0 1
vt 0.06666667 1
vt 0 0.9058824
vt 0.06666667 0.9058824
vt 0 1
vt 0.06666667 1
vt 0 0.9058824
vt 0.06666667 0.9058824
vt 0 1
vt 0.06666667 1
vt 0 0.9058824
vt 0.06666667 0.9058824
vt 0 1
vt 0.06666667 1
vt 0 0.9058824
vt 0.06666667 0.9058824
vt 0 1
vt 0.06666667 1
vt 0 0.9058824
vt 0.06666667 0.9058824
vt 0 1
vt 0.06666667 1
vt 0 0.9058824
vt 0.06666667 0.9058824
vt 0 1
vt 0.06666667 1
vt 0 0.9058824
vt 0.06666667 0.9058824
vt 0 1
vt 0.06666667 1
vt 0 0.9058824
vt 0.06666667 0.9058824
vt 0 1
vt 0.06666667 1
vt 0 0.9058824
vt 0.06666667 0.9058824
vt 0 1
vt 0.06666667 1
vt 0 0.9058824
vt 0.06666667 0.9058824
vt 0 1
vt 0.06666667 1
vt 0 0.9058824
vt 0.06666667 0.9058824
vt 0 1
vt 0.06666667 1
vt 0 0.9058824
vt 0.06666667 0.9058824
vt 0 1
vt 0.06666667 1
vt 0 0.9058824
vt 0.06666667 0.9058824
vt 0 1
vt 0.06666667 1
vt 0 0.9058824
vt 0.06666667 0.9058824
vt 0 1
vt 0.06666667 1
vt 0 0.9058824
vt 0.06666667 0.9058824
vt 0 1
vt 0.06666667 1
vt 0 0.9058824
vt 0.06666667 0.9058824
vt 0 1
vt 0.06666667 1
vt 0 0.9058824
vt 0.06666667 0.9058824
vt 0 1
vt 0.06666667 1
vt 0 0.9058824
vt 0.06666667 0.9058824
vt 0 1
vt 0.06666667 1
vt 0 0.9058824
vt 0.06666667 0.9058824
vt 0 1
vt 0.06666667 1
vt 0 0.9058824
vt 0.06666667 0.9058824
vt 0 1
vt 0.06666667 1
vt 0 0.9058824
vt 0.06666667 0.9058824
vt 0 1
vt 0.06666667 1
vt 0 0.9058824
vt 0.06666667 0.9058824
vt 0 1
vt 0.06666667 1
vt 0 0.9058824
vt 0.06666667 0.9058824
vt 0 1
vt 0.06666667 1
vt 0 0.9058824
vt 0.06666667 0.9058824
vt 0 1
vt 0.06666667 1
vt 0 0.9058824
vt 0.06666667 0.9058824
vt 0 1
vt 0.06666667 1
vt 0 0.9058824
vt 0.06666667 0.9058824
vt 0 1
vt 0.06666667 1
vt 0 0.9058824
vt 0.06666667 0.9058824
vt 0 1
vt 0.06666667 1
vt 0 0.9058824
vt 0.06666667 0.9058824
vt 0 1
vt 0.06666667 1
vt 0 0.9058824
vt 0.06666667 0.9058824
vt 0 1
vt 0.06666667 1
vt 0 0.9058824
vt 0.06666667 0.9058824
vt 0 1
vt 0.06666667 1
vt 0 0.9058824
vt 0.06666667 0.9058824
vt 0 1
vt 0.06666667 1
vt 0 0.9058824
vt 0.06666667 0.9058824
vt 0 1
vt 0.06666667 1
vt 0 0.9058824
vt 0.06666667 0.9058824
vt 0 1
vt 0.06666667 1
vt 0 0.9058824
vt 0.06666667 0.9058824
vt 0 1
vt 0.06666667 1
vt 0 0.9058824
vt 0.06666667 0.9058824
vt 0 1
vt 0.06666667 1
vt 0 0.9058824
vt 0.06666667 0.9058824
vt 0 1
vt 0.06666667 1
vt 0 0.9058824
vt 0.06666667 0.9058824
vt 0 1
vt 0.06666667 1
vn 0 1 0
vn 0 1 0
vn 0 1 0
vn 0 1 0
vn 0 1 0
vn 0 1 0
vn 0 1 0
vn 0 1 0
vn 0 1 0
vn 0 1 0
vn 0 1 0
vn 0 1 0
vn 0 1 0
vn 0 1 0
vn 0 1 0
vn 0 1 0
vn 0 1 0
vn 0 1 0
vn 0 1 0
vn 0 1 0
vn 0 1 0
vn 0 1 0
vn 0 1 0
vn 0 1 0
vn 0 1 0
vn 0 1 0
vn 0 1 0
vn 0 1 0
vn 0 1 0
vn 0 1 0
vn 0 1 0
vn 0 1 0
vn 0 1 0
vn 0 1 0
vn 0 1 0
vn 0 1 0
vn 0 1 0
vn 0 1 0
vn 0 1 0
vn 0 1 0
vn 0 1 0
vn 0 1 0
vn 0 1 0
vn 0 1 0
vn 0 1 0
vn 0 1 0
vn 0 1 0
vn 0 1 0
vn 0 1 0
vn 0 1 0
vn 0 1 0
vn 0 1 0
vn 0 1 0
vn 0 1 0
vn 0 1 0
vn 0 1 0
vn 0 1 0
vn 0 1 0
vn 0 1 0
vn 0 1 0
vn 0 1 0
vn 0 1 0
vn 0 1 0
vn 0 1 0
vn 0 1 0
vn 0 1 0
vn 0 1 0
vn 0 1 0
vn 0 1 0
vn 0 1 0
vn 0 1 0
vn 0 1 0
vn 0 1 0
vn 0 1 0
vn 0 1 0
vn 0 1 0
vn 0 1 0
vn 0 1 0
vn 0 1 0
vn 0 1 0
vn 0 1 0
vn 0 1 0
vn 0 1 0
vn 0 1 0
vn 0 1 0
vn 0 1 0
vn 0 1 0
vn 0 1 0
vn 0 1 0
vn 0 1 0
vn 0 1 0
vn 0 1 0
vn 0 1 0
vn 0 1 0
vn 0 1 0
vn 0 1 0
vn 0 1 0
vn 0 1 0
vn 0 1 0
vn 0 1 0
vn 0 1 0
vn 0 1 0
vn 0 1 0
vn 0 1 0
vn 0 1 0
vn 0 1 0
vn 0 1 0
vn 0 1 0
vn 0 1 0
vn 0 1 0
vn 0 1 0
vn 0 1 0
vn 0 1 0
vn 0 1 0
vn 0 1 0
vn 0 1 0
vn 0 1 0
vn 0 1 0
vn 0 1 0
vn 0 1 0
vn 0 1 0
vn 0 1 0
vn 0 1 0
vn 0 1 0
vn 0 1 0
vn 0 1 0
vn 0 1 0
vn 0 1 0
vn 0 1 0
vn 0 1 0
vn 0 1 0
vn 0 1 0
vn 0 1 0
vn 0 1 0
vn 0 1 0
vn 0 1 0
vn 0 1 0
vn 0 1 0
vn 0 1 0
vn 0 1 0
vn 0 1 0
vn 0 1 0
vn 0 1 0
vn 0 1 0
vn 0 1 0
vn 0 1 0
vn 0 1 0
vn 0 1 0
vn 0 1 0
vn 0 1 0
vn 0 1 0
vn 0 1 0
vn 0 1 0
vn 0 1 0
vn 0 1 0
vn 0 1 0
vn 0 1 0
vn 0 1 0
vn 0 1 0
vn 0 1 0
vn 0 1 0
vn 0 1 0
vn 0 1 0
vn 0 1 0
vn 0 1 0
vn 0 1 0
vn 0 1 0
vn 0 1 0
vn 0 1 0
vn 0 1 0
vn 0 1 0
vn 0 1 0
vn 0 1 0
vn 0 1 0
vn 0 1 0
vn 0 1 0
vn 0 1 0
vn 0 1 0
vn 0 1 0
vn 0 1 0
vn 0 1 0
vn 0 1 0
vn 0 1 0
vn 0 1 0
vn 0 1 0
vn 0 1 0
vn 0 1 0
vn 0 1 0
vn 0 1 0
vn 0 1 0
vn 0 1 0
vn 0 1 0
vn 0 1 0
vn 0 1 0
vn 0 1 0
vn 0 1 0
vn 0 1 0
vn 0 1 0
vn 0 1 0
vn 0 1 0
g Grass_0_Cluster21_0
f 2/2/2 3/3/3 1/1/1
f 2/2/2 4/4/4 3/3/3
f 6/6/6 7/7/7 5/5/5
f 6/6/6 8/8/8 7/7/7
f 10/10/10 11/11/11 9/9/9
f 10/10/10 12/12/12 11/11/11
f 14/14/14 15/15/15 13/13/13
f 14/14/14 16/16/16 15/15/15
f 18/18/18 19/19/19 17/17/17
f 18/18/18 20/20/20 19/19/19
f 22/22/22 23/23/23 21/21/21
f 22/22/22 24/24/24 23/23/23
f 26/26/26 27/27/27 25/25/25
f 26/26/26 28/28/28 27/27/27
f 30/30/30 31/31/31 29/29/29
f 30/30/30 32/32/32 31/31/31
f 34/34/34 35/35/35 33/33/33
f 34/34/34 36/36/36 35/35/35
f 38/38/38 39/39/39 37/37/37
f 38/38/38 40/40/40 39/39/39
f 42/42/42 43/43/43 41/41/41
f 42/42/42 44/44/44 43/43/43
f 46/46/46 47/47/47 45/45/45
f 46/46/46 48/48/48 47/47/47
f 50/50/50 51/51/51 49/49/49
f 50/50/50 52/52/52 51/51/51
f 54/54/54 55/55/55 53/53/53
f 54/54/54 56/56/56 55/55/55
f 58/58/58 59/59/59 57/57/57
f 58/58/58 60/60/60 59/59/59
f 62/62/62 63/63/63 61/61/61
f 62/62/62 64/64/64 63/63/63
f 66/66/66 67/67/67 65/65/65
f 66/66/66 68/68/68 67/67/67
f 70/70/70 71/71/71 69/69/69
f 70/70/70 72/72/72 71/71/71
f 74/74/74 75/75/75 73/73/73
f 74/74/74 76/76/76 75/75/75
f 78/78/78 79/79/79 77/77/77
f 78/78/78 80/80/80 79/79/79
f 82/82/82 83/83/83 81/81/81
f 82/82/82 84/84/84 83/83/83
f 86/86/86 87/87/87 85/85/85
f 86/86/86 88/88/88 87/87/87
f 90/90/90 91/91/91 89/89/89
f 90/90/90 92/92/92 91/91/91
f 94/94/94 95/95/95 93/93/93
f 94/94/94 96/96/96 95/95/95
f 98/98/98 99/99/99 97/97/97
f 98/98/98 100/100/100 99/99/99
f 102/102/102 103/103/103 101/101/101
f 102/102/102 104/104/104 103/103/103
f 106/106/106 107/107/107 105/105/105
f 106/106/106 108/108/108 107/107/107
f 110/110/110 111/111/111 109/109/109
f 110/110/110 112/112/112 111/111/111
f 114/114/114 115/115/115 113/113/113
f 114/114/114 116/116/116 115/115/115
f 118/118/118 119/119/119 117/117/117
f 118/118/118 120/120/120 119/119/119
f 122/122/122 123/123/123 121/121/121
f 122/122/122 124/124/124 123/123/123
f 126/126/126 127/127/127 125/125/125
f 126/126/126 128/128/128 127/127/127
f 130/130/130 131/131/131 129/129/129
f 130/130/130 132/132/132 131/131/131
f 134/134/134 135/135/135 133/133/133
f 134/134/134 136/136/136 135/135/135
f 138/138/138 139/139/139 137/137/137
f 138/138/138 140/140/140 139/139/139
f 142/142/142 143/143/143 141/141/141
f 142/142/142 144/144/144 143/143/143
f 146/146/146 147/147/147 145/145/145
f 146/146/146 148/148/148 147/147/147
f 150/150/150 151/151/151 149/149/149
f 150/150/150 152/152/152 151/151/151
f 154/154/154 155/155/155 153/153/153
f 154/154/154 156/156/156 155/155/155
f 158/158/158 159/159/159 157/157/157
f 158/158/158 160/160/160 159/159/159
f 162/162/162 163/163/163 161/161/161
f 162/162/162 164/164/164 163/163/163
f 166/166/166 167/167/167 165/165/165
f 166/166/166 168/168/168 167/167/167
f 170/170/170 171/171/171 169/169/169
f 170/170/170 172/172/172 171/171/171
f 174/174/174 175/175/175 173/173/173
f 174/174/174 176/176/176 175/175/175
f 178/178/178 179/179/179 177/177/177
f 178/178/178 180/180/180 179/179/179
f 182/182/182 183/183/183 181/181/181
f 182/182/182 184/184/184 183/183/183
f 186/186/186 187/187/187 185/185/185
f 186/186/186 188/188/188 187/187/187
f 190/190/190 191/191/191 189/189/189
f 190/190/190 192/192/192 191/191/191
f 194/194/194 195/195/195 193/193/193
f 194/194/194 196/196/196 195/195/195
f 198/198/198 199/199/199 197/197/197
f 198/198/198 200/200/200 199/199/199
