g Grass_0_Cluster332
v -87.81286 0 471.4164
v -88.27503 0 471.4164
v -87.81286 0 472.8029
v -88.27503 0 472.8029
v -88.73721 0 471.4164
v -89.66155 0 471.4164
v -88.73721 0 472.3407
v -89.66155 0 472.3407
v -85.03982 0 471.4164
v -85.96416 0 471.4164
v -85.03982 0 472.3407
v -85.96416 0 472.3407
v -89.19938 0 470.4921
v -90.12373 0 470.4921
v -89.19938 0 471.8786
v -90.12373 0 471.8786
v -88.73721 0 470.0299
v -89.66155 0 470.0299
v -88.73721 0 471.4164
v -89.66155 0 471.4164
v -68.4016 0 469.5677
v -69.32594 0 469.5677
v -68.4016 0 470.9542
v -69.32594 0 470.9542
v -87.35069 0 469.5677
v -87.81286 0 469.5677
v -87.35069 0 470.9542
v -87.81286 0 470.9542
v -85.96416 0 468.6434
v -86.88851 0 468.6434
v -85.96416 0 470.0299
v -86.88851 0 470.0299
v -66.09073 0 468.6434
v -67.01508 0 468.6434
v -66.09073 0 470.0299
v -67.01508 0 470.0299
v -85.96416 0 468.6434
v -86.88851 0 468.6434
v -85.96416 0 469.5677
v -86.88851 0 469.5677
v -86.88851 0 468.1812
v -87.81286 0 468.1812
v -86.88851 0 469.5677
v -87.81286 0 469.5677
v -76.72071 0 461.2486
v -77.64505 0 461.2486
v -76.72071 0 462.6351
v -77.64505 0 462.6351
v -77.18288 0 460.7864
v -77.64505 0 460.7864
v -77.18288 0 461.7108
v -77.64505 0 461.7108
v -79.95592 0 459.8621
v -80.88026 0 459.8621
v -79.95592 0 460.7864
v -80.88026 0 460.7864
v -80.41809 0 456.6269
v -81.34244 0 456.6269
v -80.41809 0 458.0134
v -81.34244 0 458.0134
v -86.42634 0 454.316
v -87.35069 0 454.316
v -86.42634 0 455.2404
v -87.35069 0 455.2404
v -66.09073 0 453.8538
v -67.01508 0 453.8538
v -66.09073 0 455.2404
v -67.01508 0 455.2404
v -87.81286 0 453.3917
v -88.73721 0 453.3917
v -87.81286 0 454.316
v -88.73721 0 454.316
v -86.42634 0 452.4673
v -87.35069 0 452.4673
v -86.42634 0 453.3917
v -87.35069 0 453.3917
v -87.35069 0 449.6943
v -88.27503 0 449.6943
v -87.35069 0 450.6186
v -88.27503 0 450.6186
v -67.93942 0 448.3077
v -68.4016 0 448.3077
v -67.93942 0 449.6943
v -68.4016 0 449.6943
v -65.62856 0 447.3834
v -66.5529 0 447.3834
v -65.62856 0 448.3077
v -66.5529 0 448.3077
v -61.469 0 444.6104
v -62.39334 0 444.6104
v -61.469 0 445.9969
v -62.39334 0 445.9969
v -65.16638 0 443.686
v -66.09073 0 443.686
v -65.16638 0 445.0725
v -66.09073 0 445.0725
v -82.26678 0 443.686
v -83.19113 0 443.686
v -82.26678 0 444.6104
v -83.19113 0 444.6104
v -62.39334 0 443.686
v -63.31769 0 443.686
v -62.39334 0 444.6104
v -63.31769 0 444.6104
vt 0 0.9058824
vt 0.06666667 0.9058824
vt 0 1
vt 0.06666667 1
vt 0 0.9058824
vt 0.06666667 0.9058824
vt 0 1
vt 0.06666667 1
vt 0 0.9058824
vt 0.06666667 0.9058824
vt 0 1
vt 0.06666667 1
vt 0 0.9058824
vt 0.06666667 0.9058824
vt 0 1
vt 0.06666667 1
vt 0 0.9058824
vt 0.06666667 0.9058824
vt 0 1
vt 0.06666667 1
vt 0 0.9058824
vt 0.06666667 0.9058824
vt 0 1
vt 0.06666667 1
vt 0 0.9058824
vt 0.06666667 0.9058824
vt 0 1
vt 0.06666667 1
vt 0 0.9058824
vt 0.06666667 0.9058824
vt 0 1
vt 0.06666667 1
vt 0 0.9058824
vt 0.06666667 0.9058824
vt 0 1
vt 0.06666667 1
vt 0 0.9058824
vt 0.06666667 0.9058824
vt 0 1
vt 0.06666667 1
vt 0 0.9058824
vt 0.06666667 0.9058824
vt 0 1
vt 0.06666667 1
vt 0 0.9058824
vt 0.06666667 0.9058824
vt 0 1
vt 0.06666667 1
vt 0 0.9058824
vt 0.06666667 0.9058824
vt 0 1
vt 0.06666667 1
vt 0 0.9058824
vt 0.06666667 0.9058824
vt 0 1
vt 0.06666667 1
vt 0 0.9058824
vt 0.06666667 0.9058824
vt 0 1
vt 0.06666667 1
vt 0 0.9058824
vt 0.06666667 0.9058824
vt 0 1
vt 0.06666667 1
vt 0 0.9058824
vt 0.06666667 0.9058824
vt 0 1
vt 0.06666667 1
vt 0 0.9058824
vt 0.06666667 0.9058824
vt 0 1
vt 0.06666667 1
vt 0 0.9058824
vt 0.06666667 0.9058824
vt 0 1
vt 0.06666667 1
vt 0 0.9058824
vt 0.06666667 0.9058824
vt 0 1
vt 0.06666667 1
vt 0 0.9058824
vt 0.06666667 0.9058824
vt 0 1
vt 0.06666667 1
vt 0 0.9058824
vt 0.06666667 0.9058824
vt 0 1
vt 0.06666667 1
vt 0 0.9058824
vt 0.06666667 0.9058824
vt 0 1
vt 0.06666667 1
vt 0 0.9058824
vt 0.06666667 0.9058824
vt 0 1
vt 0.06666667 1
vt 0 0.9058824
vt 0.06666667 0.9058824
vt 0 1
vt 0.06666667 1
vt 0 0.9058824
vt 0.06666667 0.9058824
vt 0 1
vt 0.06666667 1
vn 0 1 0
vn 0 1 0
vn 0 1 0
vn 0 1 0
vn 0 1 0
vn 0 1 0
vn 0 1 0
vn 0 1 0
vn 0 1 0
vn 0 1 0
vn 0 1 0
vn 0 1 0
vn 0 1 0
vn 0 1 0
vn 0 1 0
vn 0 1 0
vn 0 1 0
vn 0 1 0
vn 0 1 0
vn 0 1 0
vn 0 1 0
vn 0 1 0
vn 0 1 0
vn 0 1 0
vn 0 1 0
vn 0 1 0
vn 0 1 0
vn 0 1 0
vn 0 1 0
vn 0 1 0
vn 0 1 0
vn 0 1 0
vn 0 1 0
vn 0 1 0
vn 0 1 0
vn 0 1 0
vn 0 1 0
vn 0 1 0
vn 0 1 0
vn 0 1 0
vn 0 1 0
vn 0 1 0
vn 0 1 0
vn 0 1 0
vn 0 1 0
vn 0 1 0
vn 0 1 0
vn 0 1 0
vn 0 1 0
vn 0 1 0
vn 0 1 0
vn 0 1 0
vn 0 1 0
vn 0 1 0
vn 0 1 0
vn 0 1 0
vn 0 1 0
vn 0 1 0
vn 0 1 0
vn 0 1 0
vn 0 1 0
vn 0 1 0
vn 0 1 0
vn 0 1 0
vn 0 1 0
vn 0 1 0
vn 0 1 0
vn 0 1 0
vn 0 1 0
vn 0 1 0
vn 0 1 0
vn 0 1 0
vn 0 1 0
vn 0 1 0
vn 0 1 0
vn 0 1 0
vn 0 1 0
vn 0 1 0
vn 0 1 0
vn 0 1 0
vn 0 1 0
vn 0 1 0
vn 0 1 0
vn 0 1 0
vn 0 1 0
vn 0 1 0
vn 0 1 0
vn 0 1 0
vn 0 1 0
vn 0 1 0
vn 0 1 0
vn 0 1 0
vn 0 1 0
vn 0 1 0
vn 0 1 0
vn 0 1 0
vn 0 1 0
vn 0 1 0
vn 0 1 0
vn 0 1 0
vn 0 1 0
vn 0 1 0
vn 0 1 0
vn 0 1 0
g Grass_0_Cluster332_0
f 2/2/2 3/3/3 1/1/1
f 2/2/2 4/4/4 3/3/3
f 6/6/6 7/7/7 5/5/5
f 6/6/6 8/8/8 7/7/7
f 10/10/10 11/11/11 9/9/9
f 10/10/10 12/12/12 11/11/11
f 14/14/14 15/15/15 13/13/13
f 14/14/14 16/16/16 15/15/15
f 18/18/18 19/19/19 17/17/17
f 18/18/18 20/20/20 19/19/19
f 22/22/22 23/23/23 21/21/21
f 22/22/22 24/24/24 23/23/23
f 26/26/26 27/27/27 25/25/25
f 26/26/26 28/28/28 27/27/27
f 30/30/30 31/31/31 29/29/29
f 30/30/30 32/32/32 31/31/31
f 34/34/34 35/35/35 33/33/33
f 34/34/34 36/36/36 35/35/35
f 38/38/38 39/39/39 37/37/37
f 38/38/38 40/40/40 39/39/39
f 42/42/42 43/43/43 41/41/41
f 42/42/42 44/44/44 43/43/43
f 46/46/46 47/47/47 45/45/45
f 46/46/46 48/48/48 47/47/47
f 50/50/50 51/51/51 49/49/49
f 50/50/50 52/52/52 51/51/51
f 54/54/54 55/55/55 53/53/53
f 54/54/54 56/56/56 55/55/55
f 58/58/58 59/59/59 57/57/57
f 58/58/58 60/60/60 59/59/59
f 62/62/62 63/63/63 61/61/61
f 62/62/62 64/64/64 63/63/63
f 66/66/66 67/67/67 65/65/65
f 66/66/66 68/68/68 67/67/67
f 70/70/70 71/71/71 69/69/69
f 70/70/70 72/72/72 71/71/71
f 74/74/74 75/75/75 73/73/73
f 74/74/74 76/76/76 75/75/75
f 78/78/78 79/79/79 77/77/77
f 78/78/78 80/80/80 79/79/79
f 82/82/82 83/83/83 81/81/81
f 82/82/82 84/84/84 83/83/83
f 86/86/86 87/87/87 85/85/85
f 86/86/86 88/88/88 87/87/87
f 90/90/90 91/91/91 89/89/89
f 90/90/90 92/92/92 91/91/91
f 94/94/94 95/95/95 93/93/93
f 94/94/94 96/96/96 95/95/95
f 98/98/98 99/99/99 97/97/97
f 98/98/98 100/100/100 99/99/99
f 102/102/102 103/103/103 101/101/101
f 102/102/102 104/104/104 103/103/103
