g Grass_0_Cluster77
v -224.0195 0 77.1022
v -224.9598 0 77.1022
v -224.0195 0 78.27753
v -224.9598 0 78.27753
v -219.0831 0 76.63206
v -220.0233 0 76.63206
v -219.0831 0 78.04247
v -220.0233 0 78.04247
v -212.9713 0 76.397
v -213.9116 0 76.397
v -212.9713 0 77.57233
v -213.9116 0 77.57233
v -223.0792 0 76.16193
v -224.0195 0 76.16193
v -223.0792 0 77.57233
v -224.0195 0 77.57233
v -218.3779 0 75.22166
v -219.3181 0 75.22166
v -218.3779 0 76.397
v -219.3181 0 76.397
v -220.2584 0 75.22166
v -221.1987 0 75.22166
v -220.2584 0 76.397
v -221.1987 0 76.397
v -214.3817 0 74.98659
v -215.322 0 74.98659
v -214.3817 0 76.16193
v -215.322 0 76.16193
v -212.7362 0 74.75152
v -213.6765 0 74.75152
v -212.7362 0 75.92686
v -213.6765 0 75.92686
v -211.5609 0 74.04632
v -212.5012 0 74.04632
v -211.5609 0 75.22166
v -212.5012 0 75.22166
v -216.7324 0 73.57618
v -217.9077 0 73.57618
v -216.7324 0 74.98659
v -217.9077 0 74.98659
v -239.534 0 73.57618
v -240.2392 0 73.57618
v -239.534 0 74.75152
v -240.2392 0 74.75152
v -215.322 0 73.34111
v -216.2623 0 73.34111
v -215.322 0 74.51645
v -216.2623 0 74.51645
v -214.8519 0 72.87098
v -215.7921 0 72.87098
v -214.8519 0 74.28139
v -215.7921 0 74.28139
v -212.9713 0 72.87098
v -213.9116 0 72.87098
v -212.9713 0 74.04632
v -213.9116 0 74.04632
v -217.6727 0 71.69564
v -218.848 0 71.69564
v -217.6727 0 72.87098
v -218.848 0 72.87098
v -238.8288 0 71.2255
v -239.769 0 71.2255
v -238.8288 0 72.63591
v -239.769 0 72.63591
v -236.9482 0 70.75537
v -237.8885 0 70.75537
v -236.9482 0 71.93071
v -237.8885 0 71.93071
v -238.3586 0 70.75537
v -239.2989 0 70.75537
v -238.3586 0 71.93071
v -239.2989 0 71.93071
v -219.5532 0 70.28523
v -220.2584 0 70.28523
v -219.5532 0 71.46057
v -220.2584 0 71.46057
v -238.3586 0 69.8151
v -239.2989 0 69.8151
v -238.3586 0 70.99044
v -239.2989 0 70.99044
v -236.7132 0 69.10989
v -237.6534 0 69.10989
v -236.7132 0 70.5203
v -237.6534 0 70.5203
v -239.534 0 68.87482
v -240.4742 0 68.87482
v -239.534 0 70.05016
v -240.4742 0 70.05016
v -239.0638 0 68.16962
v -240.0041 0 68.16962
v -239.0638 0 69.34496
v -240.0041 0 69.34496
v -237.6534 0 67.93456
v -238.5937 0 67.93456
v -237.6534 0 69.34496
v -238.5937 0 69.34496
v -235.5378 0 67.22935
v -236.4781 0 67.22935
v -235.5378 0 68.63976
v -236.4781 0 68.63976
v -234.5975 0 67.22935
v -235.5378 0 67.22935
v -234.5975 0 68.40469
v -235.5378 0 68.40469
v -237.4184 0 66.75922
v -238.1236 0 66.75922
v -237.4184 0 67.93456
v -238.1236 0 67.93456
v -238.8288 0 66.52415
v -239.534 0 66.52415
v -238.8288 0 67.93456
v -239.534 0 67.93456
v -234.3625 0 66.52415
v -235.0677 0 66.52415
v -234.3625 0 67.69949
v -235.0677 0 67.69949
v -236.243 0 66.28909
v -237.1833 0 66.28909
v -236.243 0 67.46442
v -237.1833 0 67.46442
v -238.3586 0 66.05402
v -239.0638 0 66.05402
v -238.3586 0 67.22935
v -239.0638 0 67.22935
v -237.1833 0 65.34882
v -237.8885 0 65.34882
v -237.1833 0 66.52415
v -237.8885 0 66.52415
v -236.0079 0 65.11375
v -236.9482 0 65.11375
v -236.0079 0 66.52415
v -236.9482 0 66.52415
v -233.1871 0 65.11375
v -234.1274 0 65.11375
v -233.1871 0 66.52415
v -234.1274 0 66.52415
v -234.3625 0 64.87868
v -235.3027 0 64.87868
v -234.3625 0 66.28909
v -235.3027 0 66.28909
v -236.243 0 64.64361
v -237.1833 0 64.64361
v -236.243 0 66.05402
v -237.1833 0 66.05402
v -233.6573 0 63.46827
v -234.5975 0 63.46827
v -233.6573 0 64.64361
v -234.5975 0 64.64361
v -234.3625 0 61.8228
v -235.3027 0 61.8228
v -234.3625 0 62.99813
v -235.3027 0 62.99813
v -211.796 0 58.29678
v -212.7362 0 58.29678
v -211.796 0 59.47212
v -212.7362 0 59.47212
v -211.3258 0 58.06171
v -212.2661 0 58.06171
v -211.3258 0 59.23705
v -212.2661 0 59.23705
v -219.0831 0 56.18118
v -220.0233 0 56.18118
v -219.0831 0 57.35651
v -220.0233 0 57.35651
v -209.9154 0 55.47597
v -210.8557 0 55.47597
v -209.9154 0 56.65131
v -210.8557 0 56.65131
v -210.1505 0 55.47597
v -210.8557 0 55.47597
v -210.1505 0 56.65131
v -210.8557 0 56.65131
v -220.2584 0 54.77077
v -220.9636 0 54.77077
v -220.2584 0 55.94611
v -220.9636 0 55.94611
v -219.0831 0 54.5357
v -220.0233 0 54.5357
v -219.0831 0 55.94611
v -220.0233 0 55.94611
v -211.0908 0 54.06556
v -212.031 0 54.06556
v -211.0908 0 55.47597
v -212.031 0 55.47597
v -219.3181 0 53.8305
v -220.2584 0 53.8305
v -219.3181 0 55.2409
v -220.2584 0 55.2409
v -221.6688 0 53.8305
v -222.6091 0 53.8305
v -221.6688 0 55.2409
v -222.6091 0 55.2409
v -209.9154 0 53.36036
v -210.6206 0 53.36036
v -209.9154 0 54.5357
v -210.6206 0 54.5357
v -213.4415 0 53.36036
v -214.3817 0 53.36036
v -213.4415 0 54.5357
v -214.3817 0 54.5357
v -209.6804 0 53.12529
v -210.6206 0 53.12529
v -209.6804 0 54.30063
v -210.6206 0 54.30063
vt 0 0.9058824
vt 0.06666667 0.9058824
vt 0 1
vt 0.06666667 1
vt 0 0.9058824
vt 0.06666667 0.9058824
vt 0 1
vt 0.06666667 1
vt 0 0.9058824
vt 0.06666667 0.9058824
vt 0 1
vt 0.06666667 1
vt 0 0.9058824
vt 0.06666667 0.9058824
vt 0 1
vt 0.06666667 1
vt 0 0.9058824
vt 0.06666667 0.9058824
vt 0 1
vt 0.06666667 1
vt 0 0.9058824
vt 0.06666667 0.9058824
vt 0 1
vt 0.06666667 1
vt 0 0.9058824
vt 0.06666667 0.9058824
vt 0 1
vt 0.06666667 1
vt 0 0.9058824
vt 0.06666667 0.9058824
vt 0 1
vt 0.06666667 1
vt 0 0.9058824
vt 0.06666667 0.9058824
vt 0 1
vt 0.06666667 1
vt 0 0.9058824
vt 0.06666667 0.9058824
vt 0 1
vt 0.06666667 1
vt 0 0.9058824
vt 0.06666667 0.9058824
vt 0 1
vt 0.06666667 1
vt 0 0.9058824
vt 0.06666667 0.9058824
vt 0 1
vt 0.06666667 1
vt 0 0.9058824
vt 0.06666667 0.9058824
vt 0 1
vt 0.06666667 1
vt 0 0.9058824
vt 0.06666667 0.9058824
vt 0 1
vt 0.06666667 1
vt 0 0.9058824
vt 0.06666667 0.9058824
vt 0 1
vt 0.06666667 1
vt 0 0.9058824
vt 0.06666667 0.9058824
vt 0 1
vt 0.06666667 1
vt 0 0.9058824
vt 0.06666667 0.9058824
vt 0 1
vt 0.06666667 1
vt 0 0.9058824
vt 0.06666667 0.9058824
vt 0 1
vt 0.06666667 1
vt 0 0.9058824
vt 0.06666667 0.9058824
vt 0 1
vt 0.06666667 1
vt 0 0.9058824
vt 0.06666667 0.9058824
vt 0 1
vt 0.06666667 1
vt 0 0.9058824
vt 0.06666667 0.9058824
vt 0 1
vt 0.06666667 1
vt 0 0.9058824
vt 0.06666667 0.9058824
vt 0 1
vt 0.06666667 1
vt 0 0.9058824
vt 0.06666667 0.9058824
vt 0 1
vt 0.06666667 1
vt 0 0.9058824
vt 0.06666667 0.9058824
vt 0 1
vt 0.06666667 1
vt 0 0.9058824
vt 0.06666667 0.9058824
vt 0 1
vt 0.06666667 1
vt 0 0.9058824
vt 0.06666667 0.9058824
vt 0 1
vt 0.06666667 1
vt 0 0.9058824
vt 0.06666667 0.9058824
vt 0 1
vt 0.06666667 1
vt 0 0.9058824
vt 0.06666667 0.9058824
vt 0 1
vt 0.06666667 1
vt 0 0.9058824
vt 0.06666667 0.9058824
vt 0 1
vt 0.06666667 1
vt 0 0.9058824
vt 0.06666667 0.9058824
vt 0 1
vt 0.06666667 1
vt 0 0.9058824
vt 0.06666667 0.9058824
vt 0 1
vt 0.06666667 1
vt 0 0.9058824
vt 0.06666667 0.9058824
vt 0 1
vt 0.06666667 1
vt 0 0.9058824
vt 0.06666667 0.9058824
vt 0 1
vt 0.06666667 1
vt 0 0.9058824
vt 0.06666667 0.9058824
vt 0 1
vt 0.06666667 1
vt 0 0.9058824
vt 0.06666667 0.9058824
vt 0 1
vt 0.06666667 1
vt 0 0.9058824
vt 0.06666667 0.9058824
vt 0 1
vt 0.06666667 1
vt 0 0.9058824
vt 0.06666667 0.9058824
vt 0 1
vt 0.06666667 1
vt 0 0.9058824
vt 0.06666667 0.9058824
vt 0 1
vt 0.06666667 1
vt 0 0.9058824
vt 0.06666667 0.9058824
vt 0 1
vt 0.06666667 1
vt 0 0.9058824
vt 0.06666667 0.9058824
vt 0 1
vt 0.06666667 1
vt 0 0.9058824
vt 0.06666667 0.9058824
vt 0 1
vt 0.06666667 1
vt 0 0.9058824
vt 0.06666667 0.9058824
vt 0 1
vt 0.06666667 1
vt 0 0.9058824
vt 0.06666667 0.9058824
vt 0 1
vt 0.06666667 1
vt 0 0.9058824
vt 0.06666667 0.9058824
vt 0 1
vt 0.06666667 1
vt 0 0.9058824
vt 0.06666667 0.9058824
vt 0 1
vt 0.06666667 1
vt 0 0.9058824
vt 0.06666667 0.9058824
vt 0 1
vt 0.06666667 1
vt 0 0.9058824
vt 0.06666667 0.9058824
vt 0 1
vt 0.06666667 1
vt 0 0.9058824
vt 0.06666667 0.9058824
vt 0 1
vt 0.06666667 1
vt 0 0.9058824
vt 0.06666667 0.9058824
vt 0 1
vt 0.06666667 1
vt 0 0.9058824
vt 0.06666667 0.9058824
vt 0 1
vt 0.06666667 1
vt 0 0.9058824
vt 0.06666667 0.9058824
vt 0 1
vt 0.06666667 1
vn 0 1 0
vn 0 1 0
vn 0 1 0
vn 0 1 0
vn 0 1 0
vn 0 1 0
vn 0 1 0
vn 0 1 0
vn 0 1 0
vn 0 1 0
vn 0 1 0
vn 0 1 0
vn 0 1 0
vn 0 1 0
vn 0 1 0
vn 0 1 0
vn 0 1 0
vn 0 1 0
vn 0 1 0
vn 0 1 0
vn 0 1 0
vn 0 1 0
vn 0 1 0
vn 0 1 0
vn 0 1 0
vn 0 1 0
vn 0 1 0
vn 0 1 0
vn 0 1 0
vn 0 1 0
vn 0 1 0
vn 0 1 0
vn 0 1 0
vn 0 1 0
vn 0 1 0
vn 0 1 0
vn 0 1 0
vn 0 1 0
vn 0 1 0
vn 0 1 0
vn 0 1 0
vn 0 1 0
vn 0 1 0
vn 0 1 0
vn 0 1 0
vn 0 1 0
vn 0 1 0
vn 0 1 0
vn 0 1 0
vn 0 1 0
vn 0 1 0
vn 0 1 0
vn 0 1 0
vn 0 1 0
vn 0 1 0
vn 0 1 0
vn 0 1 0
vn 0 1 0
vn 0 1 0
vn 0 1 0
vn 0 1 0
vn 0 1 0
vn 0 1 0
vn 0 1 0
vn 0 1 0
vn 0 1 0
vn 0 1 0
vn 0 1 0
vn 0 1 0
vn 0 1 0
vn 0 1 0
vn 0 1 0
vn 0 1 0
vn 0 1 0
vn 0 1 0
vn 0 1 0
vn 0 1 0
vn 0 1 0
vn 0 1 0
vn 0 1 0
vn 0 1 0
vn 0 1 0
vn 0 1 0
vn 0 1 0
vn 0 1 0
vn 0 1 0
vn 0 1 0
vn 0 1 0
vn 0 1 0
vn 0 1 0
vn 0 1 0
vn 0 1 0
vn 0 1 0
vn 0 1 0
vn 0 1 0
vn 0 1 0
vn 0 1 0
vn 0 1 0
vn 0 1 0
vn 0 1 0
vn 0 1 0
vn 0 1 0
vn 0 1 0
vn 0 1 0
vn 0 1 0
vn 0 1 0
vn 0 1 0
vn 0 1 0
vn 0 1 0
vn 0 1 0
vn 0 1 0
vn 0 1 0
vn 0 1 0
vn 0 1 0
vn 0 1 0
vn 0 1 0
vn 0 1 0
vn 0 1 0
vn 0 1 0
vn 0 1 0
vn 0 1 0
vn 0 1 0
vn 0 1 0
vn 0 1 0
vn 0 1 0
vn 0 1 0
vn 0 1 0
vn 0 1 0
vn 0 1 0
vn 0 1 0
vn 0 1 0
vn 0 1 0
vn 0 1 0
vn 0 1 0
vn 0 1 0
vn 0 1 0
vn 0 1 0
vn 0 1 0
vn 0 1 0
vn 0 1 0
vn 0 1 0
vn 0 1 0
vn 0 1 0
vn 0 1 0
vn 0 1 0
vn 0 1 0
vn 0 1 0
vn 0 1 0
vn 0 1 0
vn 0 1 0
vn 0 1 0
vn 0 1 0
vn 0 1 0
vn 0 1 0
vn 0 1 0
vn 0 1 0
vn 0 1 0
vn 0 1 0
vn 0 1 0
vn 0 1 0
vn 0 1 0
vn 0 1 0
vn 0 1 0
vn 0 1 0
vn 0 1 0
vn 0 1 0
vn 0 1 0
vn 0 1 0
vn 0 1 0
vn 0 1 0
vn 0 1 0
vn 0 1 0
vn 0 1 0
vn 0 1 0
vn 0 1 0
vn 0 1 0
vn 0 1 0
vn 0 1 0
vn 0 1 0
vn 0 1 0
vn 0 1 0
vn 0 1 0
vn 0 1 0
vn 0 1 0
vn 0 1 0
vn 0 1 0
vn 0 1 0
vn 0 1 0
vn 0 1 0
vn 0 1 0
vn 0 1 0
vn 0 1 0
vn 0 1 0
vn 0 1 0
vn 0 1 0
vn 0 1 0
vn 0 1 0
vn 0 1 0
vn 0 1 0
vn 0 1 0
vn 0 1 0
vn 0 1 0
vn 0 1 0
vn 0 1 0
g Grass_0_Cluster77_0
f 2/2/2 3/3/3 1/1/1
f 2/2/2 4/4/4 3/3/3
f 6/6/6 7/7/7 5/5/5
f 6/6/6 8/8/8 7/7/7
f 10/10/10 11/11/11 9/9/9
f 10/10/10 12/12/12 11/11/11
f 14/14/14 15/15/15 13/13/13
f 14/14/14 16/16/16 15/15/15
f 18/18/18 19/19/19 17/17/17
f 18/18/18 20/20/20 19/19/19
f 22/22/22 23/23/23 21/21/21
f 22/22/22 24/24/24 23/23/23
f 26/26/26 27/27/27 25/25/25
f 26/26/26 28/28/28 27/27/27
f 30/30/30 31/31/31 29/29/29
f 30/30/30 32/32/32 31/31/31
f 34/34/34 35/35/35 33/33/33
f 34/34/34 36/36/36 35/35/35
f 38/38/38 39/39/39 37/37/37
f 38/38/38 40/40/40 39/39/39
f 42/42/42 43/43/43 41/41/41
f 42/42/42 44/44/44 43/43/43
f 46/46/46 47/47/47 45/45/45
f 46/46/46 48/48/48 47/47/47
f 50/50/50 51/51/51 49/49/49
f 50/50/50 52/52/52 51/51/51
f 54/54/54 55/55/55 53/53/53
f 54/54/54 56/56/56 55/55/55
f 58/58/58 59/59/59 57/57/57
f 58/58/58 60/60/60 59/59/59
f 62/62/62 63/63/63 61/61/61
f 62/62/62 64/64/64 63/63/63
f 66/66/66 67/67/67 65/65/65
f 66/66/66 68/68/68 67/67/67
f 70/70/70 71/71/71 69/69/69
f 70/70/70 72/72/72 71/71/71
f 74/74/74 75/75/75 73/73/73
f 74/74/74 76/76/76 75/75/75
f 78/78/78 79/79/79 77/77/77
f 78/78/78 80/80/80 79/79/79
f 82/82/82 83/83/83 81/81/81
f 82/82/82 84/84/84 83/83/83
f 86/86/86 87/87/87 85/85/85
f 86/86/86 88/88/88 87/87/87
f 90/90/90 91/91/91 89/89/89
f 90/90/90 92/92/92 91/91/91
f 94/94/94 95/95/95 93/93/93
f 94/94/94 96/96/96 95/95/95
f 98/98/98 99/99/99 97/97/97
f 98/98/98 100/100/100 99/99/99
f 102/102/102 103/103/103 101/101/101
f 102/102/102 104/104/104 103/103/103
f 106/106/106 107/107/107 105/105/105
f 106/106/106 108/108/108 107/107/107
f 110/110/110 111/111/111 109/109/109
f 110/110/110 112/112/112 111/111/111
f 114/114/114 115/115/115 113/113/113
f 114/114/114 116/116/116 115/115/115
f 118/118/118 119/119/119 117/117/117
f 118/118/118 120/120/120 119/119/119
f 122/122/122 123/123/123 121/121/121
f 122/122/122 124/124/124 123/123/123
f 126/126/126 127/127/127 125/125/125
f 126/126/126 128/128/128 127/127/127
f 130/130/130 131/131/131 129/129/129
f 130/130/130 132/132/132 131/131/131
f 134/134/134 135/135/135 133/133/133
f 134/134/134 136/136/136 135/135/135
f 138/138/138 139/139/139 137/137/137
f 138/138/138 140/140/140 139/139/139
f 142/142/142 143/143/143 141/141/141
f 142/142/142 144/144/144 143/143/143
f 146/146/146 147/147/147 145/145/145
f 146/146/146 148/148/148 147/147/147
f 150/150/150 151/151/151 149/149/149
f 150/150/150 152/152/152 151/151/151
f 154/154/154 155/155/155 153/153/153
f 154/154/154 156/156/156 155/155/155
f 158/158/158 159/159/159 157/157/157
f 158/158/158 160/160/160 159/159/159
f 162/162/162 163/163/163 161/161/161
f 162/162/162 164/164/164 163/163/163
f 166/166/166 167/167/167 165/165/165
f 166/166/166 168/168/168 167/167/167
f 170/170/170 171/171/171 169/169/169
f 170/170/170 172/172/172 171/171/171
f 174/174/174 175/175/175 173/173/173
f 174/174/174 176/176/176 175/175/175
f 178/178/178 179/179/179 177/177/177
f 178/178/178 180/180/180 179/179/179
f 182/182/182 183/183/183 181/181/181
f 182/182/182 184/184/184 183/183/183
f 186/186/186 187/187/187 185/185/185
f 186/186/186 188/188/188 187/187/187
f 190/190/190 191/191/191 189/189/189
f 190/190/190 192/192/192 191/191/191
f 194/194/194 195/195/195 193/193/193
f 194/194/194 196/196/196 195/195/195
f 198/198/198 199/199/199 197/197/197
f 198/198/198 200/200/200 199/199/199
f 202/202/202 203/203/203 201/201/201
f 202/202/202 204/204/204 203/203/203
