g Grass_0_Cluster4
v 177.8227 1.525879E-05 -7.300629
v 176.9536 1.525879E-05 -7.300629
v 177.8227 1.525879E-05 -5.910034
v 176.9536 1.525879E-05 -5.910034
v 171.7388 1.525879E-05 -8.169754
v 171.0435 1.525879E-05 -8.169754
v 171.7388 1.525879E-05 -6.952972
v 171.0435 1.525879E-05 -6.952972
v 175.9106 1.525879E-05 -8.169754
v 175.0415 1.525879E-05 -8.169754
v 175.9106 1.525879E-05 -6.952972
v 175.0415 1.525879E-05 -6.952972
v 168.9576 1.525879E-05 -8.343567
v 168.0885 1.525879E-05 -8.343567
v 168.9576 1.525879E-05 -7.126801
v 168.0885 1.525879E-05 -7.126801
v 173.4771 1.525879E-05 -8.517395
v 172.4341 1.525879E-05 -8.517395
v 173.4771 1.525879E-05 -7.126801
v 172.4341 1.525879E-05 -7.126801
v 171.3912 1.525879E-05 -8.517395
v 170.6959 1.525879E-05 -8.517395
v 171.3912 1.525879E-05 -7.474442
v 170.6959 1.525879E-05 -7.474442
v 169.4791 1.525879E-05 -9.038864
v 168.61 1.525879E-05 -9.038864
v 169.4791 1.525879E-05 -7.822098
v 168.61 1.525879E-05 -7.822098
v 174.1724 1.525879E-05 -9.212692
v 173.3032 1.525879E-05 -9.212692
v 174.1724 1.525879E-05 -7.995926
v 173.3032 1.525879E-05 -7.995926
v 172.6079 1.525879E-05 -9.38652
v 171.7388 1.525879E-05 -9.38652
v 172.6079 1.525879E-05 -7.995926
v 171.7388 1.525879E-05 -7.995926
v 168.4361 1.525879E-05 -9.38652
v 167.567 1.525879E-05 -9.38652
v 168.4361 1.525879E-05 -8.169754
v 167.567 1.525879E-05 -8.169754
v 172.7818 1.525879E-05 -10.42947
v 171.9126 1.525879E-05 -10.42947
v 172.7818 1.525879E-05 -9.212692
v 171.9126 1.525879E-05 -9.212692
v 170.1744 1.525879E-05 -11.12477
v 169.3053 1.525879E-05 -11.12477
v 170.1744 1.525879E-05 -9.90799
v 169.3053 1.525879E-05 -9.90799
v 170.522 1.525879E-05 -11.12477
v 169.6529 1.525879E-05 -11.12477
v 170.522 1.525879E-05 -9.90799
v 169.6529 1.525879E-05 -9.90799
v 156.6161 1.525879E-05 -11.47241
v 155.7469 1.525879E-05 -11.47241
v 156.6161 1.525879E-05 -10.25565
v 155.7469 1.525879E-05 -10.25565
v 168.7838 1.525879E-05 -11.47241
v 167.9147 1.525879E-05 -11.47241
v 168.7838 1.525879E-05 -10.25565
v 167.9147 1.525879E-05 -10.25565
v 171.2173 1.525879E-05 -12.86302
v 170.3482 1.525879E-05 -12.86302
v 171.2173 1.525879E-05 -11.64624
v 170.3482 1.525879E-05 -11.64624
v 167.9147 1.525879E-05 -13.21066
v 167.0455 1.525879E-05 -13.21066
v 167.9147 1.525879E-05 -11.82007
v 167.0455 1.525879E-05 -11.82007
v 168.0885 1.525879E-05 -13.21066
v 167.2194 1.525879E-05 -13.21066
v 168.0885 1.525879E-05 -11.9939
v 167.2194 1.525879E-05 -11.9939
v 172.4341 1.525879E-05 -13.38449
v 171.565 1.525879E-05 -13.38449
v 172.4341 1.525879E-05 -12.16771
v 171.565 1.525879E-05 -12.16771
v 160.0926 1.525879E-05 -13.38449
v 159.2234 1.525879E-05 -13.38449
v 160.0926 1.525879E-05 -12.16771
v 159.2234 1.525879E-05 -12.16771
v 168.61 1.525879E-05 -22.24956
v 167.7408 1.525879E-05 -22.24956
v 168.61 1.525879E-05 -21.03278
v 167.7408 1.525879E-05 -21.03278
v 167.2194 1.525879E-05 -22.5972
v 166.3503 1.525879E-05 -22.5972
v 167.2194 1.525879E-05 -21.38043
v 166.3503 1.525879E-05 -21.38043
v 173.9985 1.525879E-05 -28.50725
v 173.1294 1.525879E-05 -28.50725
v 173.9985 1.525879E-05 -27.29047
v 173.1294 1.525879E-05 -27.29047
v 175.0415 1.525879E-05 -29.02872
v 174.1724 1.525879E-05 -29.02872
v 175.0415 1.525879E-05 -27.98576
v 174.1724 1.525879E-05 -27.98576
v 151.2275 1.525879E-05 -29.20255
v 150.3584 1.525879E-05 -29.20255
v 151.2275 1.525879E-05 -28.15959
v 150.3584 1.525879E-05 -28.15959
v 153.1396 1.525879E-05 -30.76697
v 152.2704 1.525879E-05 -30.76697
v 153.1396 1.525879E-05 -29.72401
v 152.2704 1.525879E-05 -29.72401
v 150.706 1.525879E-05 -31.11461
v 149.8369 1.525879E-05 -31.11461
v 150.706 1.525879E-05 -29.72401
v 149.8369 1.525879E-05 -29.72401
v 160.7879 1.525879E-05 -31.80991
v 159.9187 1.525879E-05 -31.80991
v 160.7879 1.525879E-05 -30.59314
v 159.9187 1.525879E-05 -30.59314
v 152.4443 1.525879E-05 -31.98373
v 151.5751 1.525879E-05 -31.98373
v 152.4443 1.525879E-05 -30.76697
v 151.5751 1.525879E-05 -30.76697
v 151.9228 1.525879E-05 -32.67903
v 151.0537 1.525879E-05 -32.67903
v 151.9228 1.525879E-05 -31.46227
v 151.0537 1.525879E-05 -31.46227
v 153.4872 1.525879E-05 -32.85286
v 152.6181 1.525879E-05 -32.85286
v 153.4872 1.525879E-05 -31.63609
v 152.6181 1.525879E-05 -31.63609
v 151.4013 1.525879E-05 -33.02669
v 150.5322 1.525879E-05 -33.02669
v 151.4013 1.525879E-05 -31.80991
v 150.5322 1.525879E-05 -31.80991
v 166.5241 1.525879E-05 -33.20052
v 165.655 1.525879E-05 -33.20052
v 166.5241 1.525879E-05 -31.98373
v 165.655 1.525879E-05 -31.98373
v 153.3134 1.525879E-05 -33.72198
v 152.4443 1.525879E-05 -33.72198
v 153.3134 1.525879E-05 -32.33139
v 152.4443 1.525879E-05 -32.33139
v 165.8288 1.525879E-05 -33.89581
v 164.9597 1.525879E-05 -33.89581
v 165.8288 1.525879E-05 -32.67903
v 164.9597 1.525879E-05 -32.67903
v 151.749 1.525879E-05 -34.06963
v 150.8799 1.525879E-05 -34.06963
v 151.749 1.525879E-05 -32.85286
v 150.8799 1.525879E-05 -32.85286
v 164.2643 1.525879E-05 -34.24345
v 163.3952 1.525879E-05 -34.24345
v 164.2643 1.525879E-05 -32.85286
v 163.3952 1.525879E-05 -32.85286
v 150.8799 1.525879E-05 -34.24345
v 150.0107 1.525879E-05 -34.24345
v 150.8799 1.525879E-05 -33.02669
v 150.0107 1.525879E-05 -33.02669
v 162.8737 1.525879E-05 -34.24345
v 162.0046 1.525879E-05 -34.24345
v 162.8737 1.525879E-05 -33.02669
v 162.0046 1.525879E-05 -33.02669
v 164.9597 1.525879E-05 -34.76492
v 164.0905 1.525879E-05 -34.76492
v 164.9597 1.525879E-05 -33.54816
v 164.0905 1.525879E-05 -33.54816
v 152.2704 1.525879E-05 -34.59111
v 151.2275 1.525879E-05 -34.59111
v 152.2704 1.525879E-05 -33.37433
v 151.2275 1.525879E-05 -33.37433
v 152.7919 1.525879E-05 -34.93875
v 151.749 1.525879E-05 -34.93875
v 152.7919 1.525879E-05 -33.72198
v 151.749 1.525879E-05 -33.72198
v 166.0026 1.525879E-05 -35.28641
v 165.1335 1.525879E-05 -35.28641
v 166.0026 1.525879E-05 -33.89581
v 165.1335 1.525879E-05 -33.89581
v 150.8799 1.525879E-05 -35.28641
v 150.0107 1.525879E-05 -35.28641
v 150.8799 1.525879E-05 -34.24345
v 150.0107 1.525879E-05 -34.24345
v 152.0966 1.525879E-05 -35.46024
v 151.2275 1.525879E-05 -35.46024
v 152.0966 1.525879E-05 -34.06963
v 151.2275 1.525879E-05 -34.06963
v 164.0905 1.525879E-05 -35.46024
v 163.2214 1.525879E-05 -35.46024
v 164.0905 1.525879E-05 -34.24345
v 163.2214 1.525879E-05 -34.24345
v 163.2214 1.525879E-05 -35.63405
v 162.3523 1.525879E-05 -35.63405
v 163.2214 1.525879E-05 -34.59111
v 162.3523 1.525879E-05 -34.59111
v 163.7429 1.525879E-05 -36.32935
v 162.8737 1.525879E-05 -36.32935
v 163.7429 1.525879E-05 -35.11258
v 162.8737 1.525879E-05 -35.11258
v 164.7858 1.525879E-05 -36.32935
v 163.9167 1.525879E-05 -36.32935
v 164.7858 1.525879E-05 -35.11258
v 163.9167 1.525879E-05 -35.11258
v 167.9147 1.525879E-05 -36.677
v 167.0455 1.525879E-05 -36.677
v 167.9147 1.525879E-05 -35.46024
v 167.0455 1.525879E-05 -35.46024
v 165.3073 1.525879E-05 -36.85083
v 164.2643 1.525879E-05 -36.85083
v 165.3073 1.525879E-05 -35.63405
v 164.2643 1.525879E-05 -35.63405
vt 0 0.9058824
vt 0.06666667 0.9058824
vt 0 1
vt 0.06666667 1
vt 0 0.9058824
vt 0.06666667 0.9058824
vt 0 1
vt 0.06666667 1
vt 0 0.9058824
vt 0.06666667 0.9058824
vt 0 1
vt 0.06666667 1
vt 0 0.9058824
vt 0.06666667 0.9058824
vt 0 1
vt 0.06666667 1
vt 0 0.9058824
vt 0.06666667 0.9058824
vt 0 1
vt 0.06666667 1
vt 0 0.9058824
vt 0.06666667 0.9058824
vt 0 1
vt 0.06666667 1
vt 0 0.9058824
vt 0.06666667 0.9058824
vt 0 1
vt 0.06666667 1
vt 0 0.9058824
vt 0.06666667 0.9058824
vt 0 1
vt 0.06666667 1
vt 0 0.9058824
vt 0.06666667 0.9058824
vt 0 1
vt 0.06666667 1
vt 0 0.9058824
vt 0.06666667 0.9058824
vt 0 1
vt 0.06666667 1
vt 0 0.9058824
vt 0.06666667 0.9058824
vt 0 1
vt 0.06666667 1
vt 0 0.9058824
vt 0.06666667 0.9058824
vt 0 1
vt 0.06666667 1
vt 0 0.9058824
vt 0.06666667 0.9058824
vt 0 1
vt 0.06666667 1
vt 0 0.9058824
vt 0.06666667 0.9058824
vt 0 1
vt 0.06666667 1
vt 0 0.9058824
vt 0.06666667 0.9058824
vt 0 1
vt 0.06666667 1
vt 0 0.9058824
vt 0.06666667 0.9058824
vt 0 1
vt 0.06666667 1
vt 0 0.9058824
vt 0.06666667 0.9058824
vt 0 1
vt 0.06666667 1
vt 0 0.9058824
vt 0.06666667 0.9058824
vt 0 1
vt 0.06666667 1
vt 0 0.9058824
vt 0.06666667 0.9058824
vt 0 1
vt 0.06666667 1
vt 0 0.9058824
vt 0.06666667 0.9058824
vt 0 1
vt 0.06666667 1
vt 0 0.9058824
vt 0.06666667 0.9058824
vt 0 1
vt 0.06666667 1
vt 0 0.9058824
vt 0.06666667 0.9058824
vt 0 1
vt 0.06666667 1
vt 0 0.9058824
vt 0.06666667 0.9058824
vt 0 1
vt 0.06666667 1
vt 0 0.9058824
vt 0.06666667 0.9058824
vt 0 1
vt 0.06666667 1
vt 0 0.9058824
vt 0.06666667 0.9058824
vt 0 1
vt 0.06666667 1
vt 0 0.9058824
vt 0.06666667 0.9058824
vt 0 1
vt 0.06666667 1
vt 0 0.9058824
vt 0.06666667 0.9058824
vt 0 1
vt 0.06666667 1
vt 0 0.9058824
vt 0.06666667 0.9058824
vt 0 1
vt 0.06666667 1
vt 0 0.9058824
vt 0.06666667 0.9058824
vt 0 1
vt 0.06666667 1
vt 0 0.9058824
vt 0.06666667 0.9058824
vt 0 1
vt 0.06666667 1
vt 0 0.9058824
vt 0.06666667 0.9058824
vt 0 1
vt 0.06666667 1
vt 0 0.9058824
vt 0.06666667 0.9058824
vt 0 1
vt 0.06666667 1
vt 0 0.9058824
vt 0.06666667 0.9058824
vt 0 1
vt 0.06666667 1
vt 0 0.9058824
vt 0.06666667 0.9058824
vt 0 1
vt 0.06666667 1
vt 0 0.9058824
vt 0.06666667 0.9058824
vt 0 1
vt 0.06666667 1
vt 0 0.9058824
vt 0.06666667 0.9058824
vt 0 1
vt 0.06666667 1
vt 0 0.9058824
vt 0.06666667 0.9058824
vt 0 1
vt 0.06666667 1
vt 0 0.9058824
vt 0.06666667 0.9058824
vt 0 1
vt 0.06666667 1
vt 0 0.9058824
vt 0.06666667 0.9058824
vt 0 1
vt 0.06666667 1
vt 0 0.9058824
vt 0.06666667 0.9058824
vt 0 1
vt 0.06666667 1
vt 0 0.9058824
vt 0.06666667 0.9058824
vt 0 1
vt 0.06666667 1
vt 0 0.9058824
vt 0.06666667 0.9058824
vt 0 1
vt 0.06666667 1
vt 0 0.9058824
vt 0.06666667 0.9058824
vt 0 1
vt 0.06666667 1
vt 0 0.9058824
vt 0.06666667 0.9058824
vt 0 1
vt 0.06666667 1
vt 0 0.9058824
vt 0.06666667 0.9058824
vt 0 1
vt 0.06666667 1
vt 0 0.9058824
vt 0.06666667 0.9058824
vt 0 1
vt 0.06666667 1
vt 0 0.9058824
vt 0.06666667 0.9058824
vt 0 1
vt 0.06666667 1
vt 0 0.9058824
vt 0.06666667 0.9058824
vt 0 1
vt 0.06666667 1
vt 0 0.9058824
vt 0.06666667 0.9058824
vt 0 1
vt 0.06666667 1
vt 0 0.9058824
vt 0.06666667 0.9058824
vt 0 1
vt 0.06666667 1
vt 0 0.9058824
vt 0.06666667 0.9058824
vt 0 1
vt 0.06666667 1
vn 0 1 0
vn 0 1 0
vn 0 1 0
vn 0 1 0
vn 0 1 0
vn 0 1 0
vn 0 1 0
vn 0 1 0
vn 0 1 0
vn 0 1 0
vn 0 1 0
vn 0 1 0
vn 0 1 0
vn 0 1 0
vn 0 1 0
vn 0 1 0
vn 0 1 0
vn 0 1 0
vn 0 1 0
vn 0 1 0
vn 0 1 0
vn 0 1 0
vn 0 1 0
vn 0 1 0
vn 0 1 0
vn 0 1 0
vn 0 1 0
vn 0 1 0
vn 0 1 0
vn 0 1 0
vn 0 1 0
vn 0 1 0
vn 0 1 0
vn 0 1 0
vn 0 1 0
vn 0 1 0
vn 0 1 0
vn 0 1 0
vn 0 1 0
vn 0 1 0
vn 0 1 0
vn 0 1 0
vn 0 1 0
vn 0 1 0
vn 0 1 0
vn 0 1 0
vn 0 1 0
vn 0 1 0
vn 0 1 0
vn 0 1 0
vn 0 1 0
vn 0 1 0
vn 0 1 0
vn 0 1 0
vn 0 1 0
vn 0 1 0
vn 0 1 0
vn 0 1 0
vn 0 1 0
vn 0 1 0
vn 0 1 0
vn 0 1 0
vn 0 1 0
vn 0 1 0
vn 0 1 0
vn 0 1 0
vn 0 1 0
vn 0 1 0
vn 0 1 0
vn 0 1 0
vn 0 1 0
vn 0 1 0
vn 0 1 0
vn 0 1 0
vn 0 1 0
vn 0 1 0
vn 0 1 0
vn 0 1 0
vn 0 1 0
vn 0 1 0
vn 0 1 0
vn 0 1 0
vn 0 1 0
vn 0 1 0
vn 0 1 0
vn 0 1 0
vn 0 1 0
vn 0 1 0
vn 0 1 0
vn 0 1 0
vn 0 1 0
vn 0 1 0
vn 0 1 0
vn 0 1 0
vn 0 1 0
vn 0 1 0
vn 0 1 0
vn 0 1 0
vn 0 1 0
vn 0 1 0
vn 0 1 0
vn 0 1 0
vn 0 1 0
vn 0 1 0
vn 0 1 0
vn 0 1 0
vn 0 1 0
vn 0 1 0
vn 0 1 0
vn 0 1 0
vn 0 1 0
vn 0 1 0
vn 0 1 0
vn 0 1 0
vn 0 1 0
vn 0 1 0
vn 0 1 0
vn 0 1 0
vn 0 1 0
vn 0 1 0
vn 0 1 0
vn 0 1 0
vn 0 1 0
vn 0 1 0
vn 0 1 0
vn 0 1 0
vn 0 1 0
vn 0 1 0
vn 0 1 0
vn 0 1 0
vn 0 1 0
vn 0 1 0
vn 0 1 0
vn 0 1 0
vn 0 1 0
vn 0 1 0
vn 0 1 0
vn 0 1 0
vn 0 1 0
vn 0 1 0
vn 0 1 0
vn 0 1 0
vn 0 1 0
vn 0 1 0
vn 0 1 0
vn 0 1 0
vn 0 1 0
vn 0 1 0
vn 0 1 0
vn 0 1 0
vn 0 1 0
vn 0 1 0
vn 0 1 0
vn 0 1 0
vn 0 1 0
vn 0 1 0
vn 0 1 0
vn 0 1 0
vn 0 1 0
vn 0 1 0
vn 0 1 0
vn 0 1 0
vn 0 1 0
vn 0 1 0
vn 0 1 0
vn 0 1 0
vn 0 1 0
vn 0 1 0
vn 0 1 0
vn 0 1 0
vn 0 1 0
vn 0 1 0
vn 0 1 0
vn 0 1 0
vn 0 1 0
vn 0 1 0
vn 0 1 0
vn 0 1 0
vn 0 1 0
vn 0 1 0
vn 0 1 0
vn 0 1 0
vn 0 1 0
vn 0 1 0
vn 0 1 0
vn 0 1 0
vn 0 1 0
vn 0 1 0
vn 0 1 0
vn 0 1 0
vn 0 1 0
vn 0 1 0
vn 0 1 0
vn 0 1 0
vn 0 1 0
vn 0 1 0
vn 0 1 0
vn 0 1 0
vn 0 1 0
vn 0 1 0
vn 0 1 0
vn 0 1 0
vn 0 1 0
vn 0 1 0
g Grass_0_Cluster4_0
f 2/2/2 3/3/3 1/1/1
f 2/2/2 4/4/4 3/3/3
f 6/6/6 7/7/7 5/5/5
f 6/6/6 8/8/8 7/7/7
f 10/10/10 11/11/11 9/9/9
f 10/10/10 12/12/12 11/11/11
f 14/14/14 15/15/15 13/13/13
f 14/14/14 16/16/16 15/15/15
f 18/18/18 19/19/19 17/17/17
f 18/18/18 20/20/20 19/19/19
f 22/22/22 23/23/23 21/21/21
f 22/22/22 24/24/24 23/23/23
f 26/26/26 27/27/27 25/25/25
f 26/26/26 28/28/28 27/27/27
f 30/30/30 31/31/31 29/29/29
f 30/30/30 32/32/32 31/31/31
f 34/34/34 35/35/35 33/33/33
f 34/34/34 36/36/36 35/35/35
f 38/38/38 39/39/39 37/37/37
f 38/38/38 40/40/40 39/39/39
f 42/42/42 43/43/43 41/41/41
f 42/42/42 44/44/44 43/43/43
f 46/46/46 47/47/47 45/45/45
f 46/46/46 48/48/48 47/47/47
f 50/50/50 51/51/51 49/49/49
f 50/50/50 52/52/52 51/51/51
f 54/54/54 55/55/55 53/53/53
f 54/54/54 56/56/56 55/55/55
f 58/58/58 59/59/59 57/57/57
f 58/58/58 60/60/60 59/59/59
f 62/62/62 63/63/63 61/61/61
f 62/62/62 64/64/64 63/63/63
f 66/66/66 67/67/67 65/65/65
f 66/66/66 68/68/68 67/67/67
f 70/70/70 71/71/71 69/69/69
f 70/70/70 72/72/72 71/71/71
f 74/74/74 75/75/75 73/73/73
f 74/74/74 76/76/76 75/75/75
f 78/78/78 79/79/79 77/77/77
f 78/78/78 80/80/80 79/79/79
f 82/82/82 83/83/83 81/81/81
f 82/82/82 84/84/84 83/83/83
f 86/86/86 87/87/87 85/85/85
f 86/86/86 88/88/88 87/87/87
f 90/90/90 91/91/91 89/89/89
f 90/90/90 92/92/92 91/91/91
f 94/94/94 95/95/95 93/93/93
f 94/94/94 96/96/96 95/95/95
f 98/98/98 99/99/99 97/97/97
f 98/98/98 100/100/100 99/99/99
f 102/102/102 103/103/103 101/101/101
f 102/102/102 104/104/104 103/103/103
f 106/106/106 107/107/107 105/105/105
f 106/106/106 108/108/108 107/107/107
f 110/110/110 111/111/111 109/109/109
f 110/110/110 112/112/112 111/111/111
f 114/114/114 115/115/115 113/113/113
f 114/114/114 116/116/116 115/115/115
f 118/118/118 119/119/119 117/117/117
f 118/118/118 120/120/120 119/119/119
f 122/122/122 123/123/123 121/121/121
f 122/122/122 124/124/124 123/123/123
f 126/126/126 127/127/127 125/125/125
f 126/126/126 128/128/128 127/127/127
f 130/130/130 131/131/131 129/129/129
f 130/130/130 132/132/132 131/131/131
f 134/134/134 135/135/135 133/133/133
f 134/134/134 136/136/136 135/135/135
f 138/138/138 139/139/139 137/137/137
f 138/138/138 140/140/140 139/139/139
f 142/142/142 143/143/143 141/141/141
f 142/142/142 144/144/144 143/143/143
f 146/146/146 147/147/147 145/145/145
f 146/146/146 148/148/148 147/147/147
f 150/150/150 151/151/151 149/149/149
f 150/150/150 152/152/152 151/151/151
f 154/154/154 155/155/155 153/153/153
f 154/154/154 156/156/156 155/155/155
f 158/158/158 159/159/159 157/157/157
f 158/158/158 160/160/160 159/159/159
f 162/162/162 163/163/163 161/161/161
f 162/162/162 164/164/164 163/163/163
f 166/166/166 167/167/167 165/165/165
f 166/166/166 168/168/168 167/167/167
f 170/170/170 171/171/171 169/169/169
f 170/170/170 172/172/172 171/171/171
f 174/174/174 175/175/175 173/173/173
f 174/174/174 176/176/176 175/175/175
f 178/178/178 179/179/179 177/177/177
f 178/178/178 180/180/180 179/179/179
f 182/182/182 183/183/183 181/181/181
f 182/182/182 184/184/184 183/183/183
f 186/186/186 187/187/187 185/185/185
f 186/186/186 188/188/188 187/187/187
f 190/190/190 191/191/191 189/189/189
f 190/190/190 192/192/192 191/191/191
f 194/194/194 195/195/195 193/193/193
f 194/194/194 196/196/196 195/195/195
f 198/198/198 199/199/199 197/197/197
f 198/198/198 200/200/200 199/199/199
f 202/202/202 203/203/203 201/201/201
f 202/202/202 204/204/204 203/203/203
