g Grass_2_Cluster280
v 296.0455 -0.1832886 412.2096
v 295.3477 -0.1832886 412.2096
v 296.0455 -0.1832886 413.6052
v 295.3477 -0.1832886 413.6052
v 295.3477 -0.1832886 411.5118
v 294.6499 -0.1832886 411.5118
v 295.3477 -0.1832886 412.9073
v 294.6499 -0.1832886 412.9073
v 294.6499 -0.1832886 410.814
v 293.9521 -0.1832886 410.814
v 294.6499 -0.1832886 412.2096
v 293.9521 -0.1832886 412.2096
v 294.6499 -0.1832886 410.814
v 293.9521 -0.1832886 410.814
v 294.6499 -0.1832886 412.2096
v 293.9521 -0.1832886 412.2096
v 292.5566 -0.1832886 410.1162
v 291.8588 -0.1832886 410.1162
v 292.5566 -0.1832886 411.5118
v 291.8588 -0.1832886 411.5118
v 293.9521 -0.1832886 410.1162
v 292.5566 -0.1832886 410.1162
v 293.9521 -0.1832886 411.5118
v 292.5566 -0.1832886 411.5118
v 297.4411 -0.1832886 409.4184
v 296.7433 -0.1832886 409.4184
v 297.4411 -0.1832886 410.1162
v 296.7433 -0.1832886 410.1162
v 295.3477 -0.1832886 409.4184
v 294.6499 -0.1832886 409.4184
v 295.3477 -0.1832886 410.1162
v 294.6499 -0.1832886 410.1162
v 297.4411 -0.1832886 408.7206
v 296.7433 -0.1832886 408.7206
v 297.4411 -0.1832886 409.4184
v 296.7433 -0.1832886 409.4184
v 296.0455 -0.1832886 408.7206
v 294.6499 -0.1832886 408.7206
v 296.0455 -0.1832886 409.4184
v 294.6499 -0.1832886 409.4184
v 298.1389 -0.1832886 408.0228
v 297.4411 -0.1832886 408.0228
v 298.1389 -0.1832886 408.7206
v 297.4411 -0.1832886 408.7206
v 295.3477 -0.1832886 408.0228
v 294.6499 -0.1832886 408.0228
v 295.3477 -0.1832886 408.7206
v 294.6499 -0.1832886 408.7206
v 281.392 -0.1832886 407.3251
v 279.9964 -0.1832886 407.3251
v 281.392 -0.1832886 408.7206
v 279.9964 -0.1832886 408.7206
v 296.7433 -0.1832886 407.3251
v 296.0455 -0.1832886 407.3251
v 296.7433 -0.1832886 408.0228
v 296.0455 -0.1832886 408.0228
v 296.0455 -0.1832886 407.3251
v 295.3477 -0.1832886 407.3251
v 296.0455 -0.1832886 408.0228
v 295.3477 -0.1832886 408.0228
v 282.7875 -0.1832886 405.9294
v 281.392 -0.1832886 405.9294
v 282.7875 -0.1832886 407.3251
v 281.392 -0.1832886 407.3251
v 280.6942 -0.1832886 405.2317
v 279.9964 -0.1832886 405.2317
v 280.6942 -0.1832886 406.6273
v 279.9964 -0.1832886 406.6273
v 282.7875 -0.1832886 405.2317
v 282.0898 -0.1832886 405.2317
v 282.7875 -0.1832886 405.9294
v 282.0898 -0.1832886 405.9294
v 300.2322 -0.1832886 396.1605
v 299.5345 -0.1832886 396.1605
v 300.2322 -0.1832886 397.556
v 299.5345 -0.1832886 397.556
v 285.5787 -0.1832886 396.1605
v 284.1831 -0.1832886 396.1605
v 285.5787 -0.1832886 396.8582
v 284.1831 -0.1832886 396.8582
v 284.8809 -0.1832886 395.4626
v 283.4853 -0.1832886 395.4626
v 284.8809 -0.1832886 396.8582
v 283.4853 -0.1832886 396.8582
v 272.3207 -0.1832886 394.7648
v 270.9251 -0.1832886 394.7648
v 272.3207 -0.1832886 396.1605
v 270.9251 -0.1832886 396.1605
v 284.1831 -0.1832886 394.7648
v 282.7875 -0.1832886 394.7648
v 284.1831 -0.1832886 396.1605
v 282.7875 -0.1832886 396.1605
v 284.8809 -0.1832886 394.7648
v 284.1831 -0.1832886 394.7648
v 284.8809 -0.1832886 396.1605
v 284.1831 -0.1832886 396.1605
v 285.5787 -0.1832886 394.7648
v 284.8809 -0.1832886 394.7648
v 285.5787 -0.1832886 395.4626
v 284.8809 -0.1832886 395.4626
v 282.7875 -0.1832886 394.0671
v 282.0898 -0.1832886 394.0671
v 282.7875 -0.1832886 395.4626
v 282.0898 -0.1832886 395.4626
v 282.7875 -0.1832886 394.0671
v 281.392 -0.1832886 394.0671
v 282.7875 -0.1832886 395.4626
v 281.392 -0.1832886 395.4626
v 286.9743 -0.1832886 394.0671
v 286.2765 -0.1832886 394.0671
v 286.9743 -0.1832886 394.7648
v 286.2765 -0.1832886 394.7648
v 298.1389 -0.1832886 394.0671
v 297.4411 -0.1832886 394.0671
v 298.1389 -0.1832886 394.7648
v 297.4411 -0.1832886 394.7648
v 281.392 -0.1832886 393.3693
v 280.6942 -0.1832886 393.3693
v 281.392 -0.1832886 394.7648
v 280.6942 -0.1832886 394.7648
v 284.1831 -0.1832886 393.3693
v 283.4853 -0.1832886 393.3693
v 284.1831 -0.1832886 394.7648
v 283.4853 -0.1832886 394.7648
v 270.2274 -0.1832886 393.3693
v 269.5295 -0.1832886 393.3693
v 270.2274 -0.1832886 394.0671
v 269.5295 -0.1832886 394.0671
v 285.5787 -0.1832886 393.3693
v 284.1831 -0.1832886 393.3693
v 285.5787 -0.1832886 394.0671
v 284.1831 -0.1832886 394.0671
v 283.4853 -0.1832886 392.6715
v 282.0898 -0.1832886 392.6715
v 283.4853 -0.1832886 394.0671
v 282.0898 -0.1832886 394.0671
v 284.1831 -0.1832886 392.6715
v 283.4853 -0.1832886 392.6715
v 284.1831 -0.1832886 394.0671
v 283.4853 -0.1832886 394.0671
v 298.8367 -0.1832886 392.6715
v 297.4411 -0.1832886 392.6715
v 298.8367 -0.1832886 393.3693
v 297.4411 -0.1832886 393.3693
v 286.2765 -0.1832886 391.9737
v 284.8809 -0.1832886 391.9737
v 286.2765 -0.1832886 393.3693
v 284.8809 -0.1832886 393.3693
v 286.9743 -0.1832886 391.9737
v 285.5787 -0.1832886 391.9737
v 286.9743 -0.1832886 392.6715
v 285.5787 -0.1832886 392.6715
v 285.5787 -0.1832886 391.9737
v 284.1831 -0.1832886 391.9737
v 285.5787 -0.1832886 392.6715
v 284.1831 -0.1832886 392.6715
v 283.4853 -0.1832886 391.2759
v 282.7875 -0.1832886 391.2759
v 283.4853 -0.1832886 391.9737
v 282.7875 -0.1832886 391.9737
v 286.2765 -0.1832886 391.2759
v 285.5787 -0.1832886 391.2759
v 286.2765 -0.1832886 391.9737
v 285.5787 -0.1832886 391.9737
v 284.8809 -0.1832886 390.5781
v 284.1831 -0.1832886 390.5781
v 284.8809 -0.1832886 391.9737
v 284.1831 -0.1832886 391.9737
v 285.5787 -0.1832886 389.8804
v 284.8809 -0.1832886 389.8804
v 285.5787 -0.1832886 391.2759
v 284.8809 -0.1832886 391.2759
v 284.8809 -0.1832886 389.8804
v 283.4853 -0.1832886 389.8804
v 284.8809 -0.1832886 390.5781
v 283.4853 -0.1832886 390.5781
v 285.5787 -0.1832886 389.1826
v 284.8809 -0.1832886 389.1826
v 285.5787 -0.1832886 390.5781
v 284.8809 -0.1832886 390.5781
v 282.7875 -0.1832886 389.1826
v 282.0898 -0.1832886 389.1826
v 282.7875 -0.1832886 389.8804
v 282.0898 -0.1832886 389.8804
v 287.6721 -0.1832886 387.787
v 286.9743 -0.1832886 387.787
v 287.6721 -0.1832886 389.1826
v 286.9743 -0.1832886 389.1826
vt 0.1347656 0.9185662
vt 0.2060202 0.9185662
vt 0.1347656 1
vt 0.2060202 1
vt 0.1347656 0.9185662
vt 0.2060202 0.9185662
vt 0.1347656 1
vt 0.2060202 1
vt 0.1347656 0.9185662
vt 0.2060202 0.9185662
vt 0.1347656 1
vt 0.2060202 1
vt 0.1347656 0.9185662
vt 0.2060202 0.9185662
vt 0.1347656 1
vt 0.2060202 1
vt 0.1347656 0.9185662
vt 0.2060202 0.9185662
vt 0.1347656 1
vt 0.2060202 1
vt 0.1347656 0.9185662
vt 0.2060202 0.9185662
vt 0.1347656 1
vt 0.2060202 1
vt 0.1347656 0.9185662
vt 0.2060202 0.9185662
vt 0.1347656 1
vt 0.2060202 1
vt 0.1347656 0.9185662
vt 0.2060202 0.9185662
vt 0.1347656 1
vt 0.2060202 1
vt 0.1347656 0.9185662
vt 0.2060202 0.9185662
vt 0.1347656 1
vt 0.2060202 1
vt 0.1347656 0.9185662
vt 0.2060202 0.9185662
vt 0.1347656 1
vt 0.2060202 1
vt 0.1347656 0.9185662
vt 0.2060202 0.9185662
vt 0.1347656 1
vt 0.2060202 1
vt 0.1347656 0.9185662
vt 0.2060202 0.9185662
vt 0.1347656 1
vt 0.2060202 1
vt 0.1347656 0.9185662
vt 0.2060202 0.9185662
vt 0.1347656 1
vt 0.2060202 1
vt 0.1347656 0.9185662
vt 0.2060202 0.9185662
vt 0.1347656 1
vt 0.2060202 1
vt 0.1347656 0.9185662
vt 0.2060202 0.9185662
vt 0.1347656 1
vt 0.2060202 1
vt 0.1347656 0.9185662
vt 0.2060202 0.9185662
vt 0.1347656 1
vt 0.2060202 1
vt 0.1347656 0.9185662
vt 0.2060202 0.9185662
vt 0.1347656 1
vt 0.2060202 1
vt 0.1347656 0.9185662
vt 0.2060202 0.9185662
vt 0.1347656 1
vt 0.2060202 1
vt 0.1347656 0.9185662
vt 0.2060202 0.9185662
vt 0.1347656 1
vt 0.2060202 1
vt 0.1347656 0.9185662
vt 0.2060202 0.9185662
vt 0.1347656 1
vt 0.2060202 1
vt 0.1347656 0.9185662
vt 0.2060202 0.9185662
vt 0.1347656 1
vt 0.2060202 1
vt 0.1347656 0.9185662
vt 0.2060202 0.9185662
vt 0.1347656 1
vt 0.2060202 1
vt 0.1347656 0.9185662
vt 0.2060202 0.9185662
vt 0.1347656 1
vt 0.2060202 1
vt 0.1347656 0.9185662
vt 0.2060202 0.9185662
vt 0.1347656 1
vt 0.2060202 1
vt 0.1347656 0.9185662
vt 0.2060202 0.9185662
vt 0.1347656 1
vt 0.2060202 1
vt 0.1347656 0.9185662
vt 0.2060202 0.9185662
vt 0.1347656 1
vt 0.2060202 1
vt 0.1347656 0.9185662
vt 0.2060202 0.9185662
vt 0.1347656 1
vt 0.2060202 1
vt 0.1347656 0.9185662
vt 0.2060202 0.9185662
vt 0.1347656 1
vt 0.2060202 1
vt 0.1347656 0.9185662
vt 0.2060202 0.9185662
vt 0.1347656 1
vt 0.2060202 1
vt 0.1347656 0.9185662
vt 0.2060202 0.9185662
vt 0.1347656 1
vt 0.2060202 1
vt 0.1347656 0.9185662
vt 0.2060202 0.9185662
vt 0.1347656 1
vt 0.2060202 1
vt 0.1347656 0.9185662
vt 0.2060202 0.9185662
vt 0.1347656 1
vt 0.2060202 1
vt 0.1347656 0.9185662
vt 0.2060202 0.9185662
vt 0.1347656 1
vt 0.2060202 1
vt 0.1347656 0.9185662
vt 0.2060202 0.9185662
vt 0.1347656 1
vt 0.2060202 1
vt 0.1347656 0.9185662
vt 0.2060202 0.9185662
vt 0.1347656 1
vt 0.2060202 1
vt 0.1347656 0.9185662
vt 0.2060202 0.9185662
vt 0.1347656 1
vt 0.2060202 1
vt 0.1347656 0.9185662
vt 0.2060202 0.9185662
vt 0.1347656 1
vt 0.2060202 1
vt 0.1347656 0.9185662
vt 0.2060202 0.9185662
vt 0.1347656 1
vt 0.2060202 1
vt 0.1347656 0.9185662
vt 0.2060202 0.9185662
vt 0.1347656 1
vt 0.2060202 1
vt 0.1347656 0.9185662
vt 0.2060202 0.9185662
vt 0.1347656 1
vt 0.2060202 1
vt 0.1347656 0.9185662
vt 0.2060202 0.9185662
vt 0.1347656 1
vt 0.2060202 1
vt 0.1347656 0.9185662
vt 0.2060202 0.9185662
vt 0.1347656 1
vt 0.2060202 1
vt 0.1347656 0.9185662
vt 0.2060202 0.9185662
vt 0.1347656 1
vt 0.2060202 1
vt 0.1347656 0.9185662
vt 0.2060202 0.9185662
vt 0.1347656 1
vt 0.2060202 1
vt 0.1347656 0.9185662
vt 0.2060202 0.9185662
vt 0.1347656 1
vt 0.2060202 1
vt 0.1347656 0.9185662
vt 0.2060202 0.9185662
vt 0.1347656 1
vt 0.2060202 1
vt 0.1347656 0.9185662
vt 0.2060202 0.9185662
vt 0.1347656 1
vt 0.2060202 1
vn 0 1 0
vn 0 1 0
vn 0 1 0
vn 0 1 0
vn 0 1 0
vn 0 1 0
vn 0 1 0
vn 0 1 0
vn 0 1 0
vn 0 1 0
vn 0 1 0
vn 0 1 0
vn 0 1 0
vn 0 1 0
vn 0 1 0
vn 0 1 0
vn 0 1 0
vn 0 1 0
vn 0 1 0
vn 0 1 0
vn 0 1 0
vn 0 1 0
vn 0 1 0
vn 0 1 0
vn 0 1 0
vn 0 1 0
vn 0 1 0
vn 0 1 0
vn 0 1 0
vn 0 1 0
vn 0 1 0
vn 0 1 0
vn 0 1 0
vn 0 1 0
vn 0 1 0
vn 0 1 0
vn 0 1 0
vn 0 1 0
vn 0 1 0
vn 0 1 0
vn 0 1 0
vn 0 1 0
vn 0 1 0
vn 0 1 0
vn 0 1 0
vn 0 1 0
vn 0 1 0
vn 0 1 0
vn 0 1 0
vn 0 1 0
vn 0 1 0
vn 0 1 0
vn 0 1 0
vn 0 1 0
vn 0 1 0
vn 0 1 0
vn 0 1 0
vn 0 1 0
vn 0 1 0
vn 0 1 0
vn 0 1 0
vn 0 1 0
vn 0 1 0
vn 0 1 0
vn 0 1 0
vn 0 1 0
vn 0 1 0
vn 0 1 0
vn 0 1 0
vn 0 1 0
vn 0 1 0
vn 0 1 0
vn 0 1 0
vn 0 1 0
vn 0 1 0
vn 0 1 0
vn 0 1 0
vn 0 1 0
vn 0 1 0
vn 0 1 0
vn 0 1 0
vn 0 1 0
vn 0 1 0
vn 0 1 0
vn 0 1 0
vn 0 1 0
vn 0 1 0
vn 0 1 0
vn 0 1 0
vn 0 1 0
vn 0 1 0
vn 0 1 0
vn 0 1 0
vn 0 1 0
vn 0 1 0
vn 0 1 0
vn 0 1 0
vn 0 1 0
vn 0 1 0
vn 0 1 0
vn 0 1 0
vn 0 1 0
vn 0 1 0
vn 0 1 0
vn 0 1 0
vn 0 1 0
vn 0 1 0
vn 0 1 0
vn 0 1 0
vn 0 1 0
vn 0 1 0
vn 0 1 0
vn 0 1 0
vn 0 1 0
vn 0 1 0
vn 0 1 0
vn 0 1 0
vn 0 1 0
vn 0 1 0
vn 0 1 0
vn 0 1 0
vn 0 1 0
vn 0 1 0
vn 0 1 0
vn 0 1 0
vn 0 1 0
vn 0 1 0
vn 0 1 0
vn 0 1 0
vn 0 1 0
vn 0 1 0
vn 0 1 0
vn 0 1 0
vn 0 1 0
vn 0 1 0
vn 0 1 0
vn 0 1 0
vn 0 1 0
vn 0 1 0
vn 0 1 0
vn 0 1 0
vn 0 1 0
vn 0 1 0
vn 0 1 0
vn 0 1 0
vn 0 1 0
vn 0 1 0
vn 0 1 0
vn 0 1 0
vn 0 1 0
vn 0 1 0
vn 0 1 0
vn 0 1 0
vn 0 1 0
vn 0 1 0
vn 0 1 0
vn 0 1 0
vn 0 1 0
vn 0 1 0
vn 0 1 0
vn 0 1 0
vn 0 1 0
vn 0 1 0
vn 0 1 0
vn 0 1 0
vn 0 1 0
vn 0 1 0
vn 0 1 0
vn 0 1 0
vn 0 1 0
vn 0 1 0
vn 0 1 0
vn 0 1 0
vn 0 1 0
vn 0 1 0
vn 0 1 0
vn 0 1 0
vn 0 1 0
vn 0 1 0
vn 0 1 0
vn 0 1 0
vn 0 1 0
vn 0 1 0
vn 0 1 0
vn 0 1 0
vn 0 1 0
vn 0 1 0
vn 0 1 0
g Grass_2_Cluster280_0
f 2/2/2 3/3/3 1/1/1
f 2/2/2 4/4/4 3/3/3
f 6/6/6 7/7/7 5/5/5
f 6/6/6 8/8/8 7/7/7
f 10/10/10 11/11/11 9/9/9
f 10/10/10 12/12/12 11/11/11
f 14/14/14 15/15/15 13/13/13
f 14/14/14 16/16/16 15/15/15
f 18/18/18 19/19/19 17/17/17
f 18/18/18 20/20/20 19/19/19
f 22/22/22 23/23/23 21/21/21
f 22/22/22 24/24/24 23/23/23
f 26/26/26 27/27/27 25/25/25
f 26/26/26 28/28/28 27/27/27
f 30/30/30 31/31/31 29/29/29
f 30/30/30 32/32/32 31/31/31
f 34/34/34 35/35/35 33/33/33
f 34/34/34 36/36/36 35/35/35
f 38/38/38 39/39/39 37/37/37
f 38/38/38 40/40/40 39/39/39
f 42/42/42 43/43/43 41/41/41
f 42/42/42 44/44/44 43/43/43
f 46/46/46 47/47/47 45/45/45
f 46/46/46 48/48/48 47/47/47
f 50/50/50 51/51/51 49/49/49
f 50/50/50 52/52/52 51/51/51
f 54/54/54 55/55/55 53/53/53
f 54/54/54 56/56/56 55/55/55
f 58/58/58 59/59/59 57/57/57
f 58/58/58 60/60/60 59/59/59
f 62/62/62 63/63/63 61/61/61
f 62/62/62 64/64/64 63/63/63
f 66/66/66 67/67/67 65/65/65
f 66/66/66 68/68/68 67/67/67
f 70/70/70 71/71/71 69/69/69
f 70/70/70 72/72/72 71/71/71
f 74/74/74 75/75/75 73/73/73
f 74/74/74 76/76/76 75/75/75
f 78/78/78 79/79/79 77/77/77
f 78/78/78 80/80/80 79/79/79
f 82/82/82 83/83/83 81/81/81
f 82/82/82 84/84/84 83/83/83
f 86/86/86 87/87/87 85/85/85
f 86/86/86 88/88/88 87/87/87
f 90/90/90 91/91/91 89/89/89
f 90/90/90 92/92/92 91/91/91
f 94/94/94 95/95/95 93/93/93
f 94/94/94 96/96/96 95/95/95
f 98/98/98 99/99/99 97/97/97
f 98/98/98 100/100/100 99/99/99
f 102/102/102 103/103/103 101/101/101
f 102/102/102 104/104/104 103/103/103
f 106/106/106 107/107/107 105/105/105
f 106/106/106 108/108/108 107/107/107
f 110/110/110 111/111/111 109/109/109
f 110/110/110 112/112/112 111/111/111
f 114/114/114 115/115/115 113/113/113
f 114/114/114 116/116/116 115/115/115
f 118/118/118 119/119/119 117/117/117
f 118/118/118 120/120/120 119/119/119
f 122/122/122 123/123/123 121/121/121
f 122/122/122 124/124/124 123/123/123
f 126/126/126 127/127/127 125/125/125
f 126/126/126 128/128/128 127/127/127
f 130/130/130 131/131/131 129/129/129
f 130/130/130 132/132/132 131/131/131
f 134/134/134 135/135/135 133/133/133
f 134/134/134 136/136/136 135/135/135
f 138/138/138 139/139/139 137/137/137
f 138/138/138 140/140/140 139/139/139
f 142/142/142 143/143/143 141/141/141
f 142/142/142 144/144/144 143/143/143
f 146/146/146 147/147/147 145/145/145
f 146/146/146 148/148/148 147/147/147
f 150/150/150 151/151/151 149/149/149
f 150/150/150 152/152/152 151/151/151
f 154/154/154 155/155/155 153/153/153
f 154/154/154 156/156/156 155/155/155
f 158/158/158 159/159/159 157/157/157
f 158/158/158 160/160/160 159/159/159
f 162/162/162 163/163/163 161/161/161
f 162/162/162 164/164/164 163/163/163
f 166/166/166 167/167/167 165/165/165
f 166/166/166 168/168/168 167/167/167
f 170/170/170 171/171/171 169/169/169
f 170/170/170 172/172/172 171/171/171
f 174/174/174 175/175/175 173/173/173
f 174/174/174 176/176/176 175/175/175
f 178/178/178 179/179/179 177/177/177
f 178/178/178 180/180/180 179/179/179
f 182/182/182 183/183/183 181/181/181
f 182/182/182 184/184/184 183/183/183
f 186/186/186 187/187/187 185/185/185
f 186/186/186 188/188/188 187/187/187
