g Grass_0_Cluster175
v -172.5782 0 232.6949
v -173.4926 0 232.6949
v -172.5782 0 233.8378
v -173.4926 0 233.8378
v -154.749 0 232.0092
v -155.6633 0 232.0092
v -154.749 0 233.3806
v -155.6633 0 233.3806
v -165.2637 0 231.7806
v -166.178 0 231.7806
v -165.2637 0 232.9235
v -166.178 0 232.9235
v -170.7496 0 231.552
v -171.6639 0 231.552
v -170.7496 0 232.6949
v -171.6639 0 232.6949
v -165.0351 0 230.4091
v -165.9494 0 230.4091
v -165.0351 0 231.552
v -165.9494 0 231.552
v -168.9209 0 230.4091
v -169.8353 0 230.4091
v -168.9209 0 231.552
v -169.8353 0 231.552
v -164.5779 0 229.9519
v -165.2637 0 229.9519
v -164.5779 0 231.0948
v -165.2637 0 231.0948
v -166.8637 0 222.4088
v -167.5495 0 222.4088
v -166.8637 0 223.5517
v -167.5495 0 223.5517
v -170.521 0 221.9516
v -171.4353 0 221.9516
v -170.521 0 223.0945
v -171.4353 0 223.0945
v -168.6924 0 221.9516
v -169.3781 0 221.9516
v -168.6924 0 223.0945
v -169.3781 0 223.0945
v -168.0066 0 221.723
v -168.9209 0 221.723
v -168.0066 0 222.8659
v -168.9209 0 222.8659
v -156.8062 0 221.0373
v -157.7205 0 221.0373
v -156.8062 0 222.1802
v -157.7205 0 222.1802
v -168.9209 0 221.0373
v -169.8353 0 221.0373
v -168.9209 0 222.1802
v -169.8353 0 222.1802
v -168.2352 0 220.8087
v -169.1495 0 220.8087
v -168.2352 0 222.1802
v -169.1495 0 222.1802
v -151.5488 0 220.5801
v -152.4632 0 220.5801
v -151.5488 0 221.723
v -152.4632 0 221.723
v -169.6067 0 220.123
v -170.521 0 220.123
v -169.6067 0 221.2659
v -170.521 0 221.2659
v -167.3209 0 219.6658
v -168.2352 0 219.6658
v -167.3209 0 220.8087
v -168.2352 0 220.8087
v -170.521 0 219.6658
v -171.4353 0 219.6658
v -170.521 0 220.8087
v -171.4353 0 220.8087
v -167.0923 0 218.7515
v -168.0066 0 218.7515
v -167.0923 0 220.123
v -168.0066 0 220.123
v -171.8925 0 208.4654
v -172.8068 0 208.4654
v -171.8925 0 209.8369
v -172.8068 0 209.8369
v -178.7499 0 207.7796
v -179.6642 0 207.7796
v -178.7499 0 209.1511
v -179.6642 0 209.1511
v -170.2924 0 207.3225
v -170.9782 0 207.3225
v -170.2924 0 208.4654
v -170.9782 0 208.4654
v -170.9782 0 206.6367
v -171.8925 0 206.6367
v -170.9782 0 208.0082
v -171.8925 0 208.0082
v -172.5782 0 206.6367
v -173.4926 0 206.6367
v -172.5782 0 208.0082
v -173.4926 0 208.0082
v -151.5488 0 206.4081
v -152.4632 0 206.4081
v -151.5488 0 207.7796
v -152.4632 0 207.7796
v -168.6924 0 205.4938
v -169.6067 0 205.4938
v -168.6924 0 206.8653
v -169.6067 0 206.8653
v -169.1495 0 204.8081
v -170.0639 0 204.8081
v -169.1495 0 205.951
v -170.0639 0 205.951
v -173.264 0 204.3509
v -174.1783 0 204.3509
v -173.264 0 205.7224
v -174.1783 0 205.7224
v -178.0642 0 204.1223
v -178.9785 0 204.1223
v -178.0642 0 205.4938
v -178.9785 0 205.4938
v -172.1211 0 204.1223
v -173.0354 0 204.1223
v -172.1211 0 205.4938
v -173.0354 0 205.4938
v -171.2068 0 204.1223
v -172.1211 0 204.1223
v -171.2068 0 205.2652
v -172.1211 0 205.2652
v -175.3212 0 204.1223
v -176.0069 0 204.1223
v -175.3212 0 205.2652
v -176.0069 0 205.2652
v -175.5498 0 203.6652
v -176.4641 0 203.6652
v -175.5498 0 204.8081
v -176.4641 0 204.8081
v -169.1495 0 203.4366
v -170.0639 0 203.4366
v -169.1495 0 204.5795
v -170.0639 0 204.5795
v -177.607 0 203.208
v -178.5213 0 203.208
v -177.607 0 204.3509
v -178.5213 0 204.3509
v -178.9785 0 203.208
v -179.6642 0 203.208
v -178.9785 0 204.3509
v -179.6642 0 204.3509
v -173.4926 0 202.9794
v -174.4069 0 202.9794
v -173.4926 0 204.3509
v -174.4069 0 204.3509
vt 0 0.9058824
vt 0.06666667 0.9058824
vt 0 1
vt 0.06666667 1
vt 0 0.9058824
vt 0.06666667 0.9058824
vt 0 1
vt 0.06666667 1
vt 0 0.9058824
vt 0.06666667 0.9058824
vt 0 1
vt 0.06666667 1
vt 0 0.9058824
vt 0.06666667 0.9058824
vt 0 1
vt 0.06666667 1
vt 0 0.9058824
vt 0.06666667 0.9058824
vt 0 1
vt 0.06666667 1
vt 0 0.9058824
vt 0.06666667 0.9058824
vt 0 1
vt 0.06666667 1
vt 0 0.9058824
vt 0.06666667 0.9058824
vt 0 1
vt 0.06666667 1
vt 0 0.9058824
vt 0.06666667 0.9058824
vt 0 1
vt 0.06666667 1
vt 0 0.9058824
vt 0.06666667 0.9058824
vt 0 1
vt 0.06666667 1
vt 0 0.9058824
vt 0.06666667 0.9058824
vt 0 1
vt 0.06666667 1
vt 0 0.9058824
vt 0.06666667 0.9058824
vt 0 1
vt 0.06666667 1
vt 0 0.9058824
vt 0.06666667 0.9058824
vt 0 1
vt 0.06666667 1
vt 0 0.9058824
vt 0.06666667 0.9058824
vt 0 1
vt 0.06666667 1
vt 0 0.9058824
vt 0.06666667 0.9058824
vt 0 1
vt 0.06666667 1
vt 0 0.9058824
vt 0.06666667 0.9058824
vt 0 1
vt 0.06666667 1
vt 0 0.9058824
vt 0.06666667 0.9058824
vt 0 1
vt 0.06666667 1
vt 0 0.9058824
vt 0.06666667 0.9058824
vt 0 1
vt 0.06666667 1
vt 0 0.9058824
vt 0.06666667 0.9058824
vt 0 1
vt 0.06666667 1
vt 0 0.9058824
vt 0.06666667 0.9058824
vt 0 1
vt 0.06666667 1
vt 0 0.9058824
vt 0.06666667 0.9058824
vt 0 1
vt 0.06666667 1
vt 0 0.9058824
vt 0.06666667 0.9058824
vt 0 1
vt 0.06666667 1
vt 0 0.9058824
vt 0.06666667 0.9058824
vt 0 1
vt 0.06666667 1
vt 0 0.9058824
vt 0.06666667 0.9058824
vt 0 1
vt 0.06666667 1
vt 0 0.9058824
vt 0.06666667 0.9058824
vt 0 1
vt 0.06666667 1
vt 0 0.9058824
vt 0.06666667 0.9058824
vt 0 1
vt 0.06666667 1
vt 0 0.9058824
vt 0.06666667 0.9058824
vt 0 1
vt 0.06666667 1
vt 0 0.9058824
vt 0.06666667 0.9058824
vt 0 1
vt 0.06666667 1
vt 0 0.9058824
vt 0.06666667 0.9058824
vt 0 1
vt 0.06666667 1
vt 0 0.9058824
vt 0.06666667 0.9058824
vt 0 1
vt 0.06666667 1
vt 0 0.9058824
vt 0.06666667 0.9058824
vt 0 1
vt 0.06666667 1
vt 0 0.9058824
vt 0.06666667 0.9058824
vt 0 1
vt 0.06666667 1
vt 0 0.9058824
vt 0.06666667 0.9058824
vt 0 1
vt 0.06666667 1
vt 0 0.9058824
vt 0.06666667 0.9058824
vt 0 1
vt 0.06666667 1
vt 0 0.9058824
vt 0.06666667 0.9058824
vt 0 1
vt 0.06666667 1
vt 0 0.9058824
vt 0.06666667 0.9058824
vt 0 1
vt 0.06666667 1
vt 0 0.9058824
vt 0.06666667 0.9058824
vt 0 1
vt 0.06666667 1
vt 0 0.9058824
vt 0.06666667 0.9058824
vt 0 1
vt 0.06666667 1
vn 0 1 0
vn 0 1 0
vn 0 1 0
vn 0 1 0
vn 0 1 0
vn 0 1 0
vn 0 1 0
vn 0 1 0
vn 0 1 0
vn 0 1 0
vn 0 1 0
vn 0 1 0
vn 0 1 0
vn 0 1 0
vn 0 1 0
vn 0 1 0
vn 0 1 0
vn 0 1 0
vn 0 1 0
vn 0 1 0
vn 0 1 0
vn 0 1 0
vn 0 1 0
vn 0 1 0
vn 0 1 0
vn 0 1 0
vn 0 1 0
vn 0 1 0
vn 0 1 0
vn 0 1 0
vn 0 1 0
vn 0 1 0
vn 0 1 0
vn 0 1 0
vn 0 1 0
vn 0 1 0
vn 0 1 0
vn 0 1 0
vn 0 1 0
vn 0 1 0
vn 0 1 0
vn 0 1 0
vn 0 1 0
vn 0 1 0
vn 0 1 0
vn 0 1 0
vn 0 1 0
vn 0 1 0
vn 0 1 0
vn 0 1 0
vn 0 1 0
vn 0 1 0
vn 0 1 0
vn 0 1 0
vn 0 1 0
vn 0 1 0
vn 0 1 0
vn 0 1 0
vn 0 1 0
vn 0 1 0
vn 0 1 0
vn 0 1 0
vn 0 1 0
vn 0 1 0
vn 0 1 0
vn 0 1 0
vn 0 1 0
vn 0 1 0
vn 0 1 0
vn 0 1 0
vn 0 1 0
vn 0 1 0
vn 0 1 0
vn 0 1 0
vn 0 1 0
vn 0 1 0
vn 0 1 0
vn 0 1 0
vn 0 1 0
vn 0 1 0
vn 0 1 0
vn 0 1 0
vn 0 1 0
vn 0 1 0
vn 0 1 0
vn 0 1 0
vn 0 1 0
vn 0 1 0
vn 0 1 0
vn 0 1 0
vn 0 1 0
vn 0 1 0
vn 0 1 0
vn 0 1 0
vn 0 1 0
vn 0 1 0
vn 0 1 0
vn 0 1 0
vn 0 1 0
vn 0 1 0
vn 0 1 0
vn 0 1 0
vn 0 1 0
vn 0 1 0
vn 0 1 0
vn 0 1 0
vn 0 1 0
vn 0 1 0
vn 0 1 0
vn 0 1 0
vn 0 1 0
vn 0 1 0
vn 0 1 0
vn 0 1 0
vn 0 1 0
vn 0 1 0
vn 0 1 0
vn 0 1 0
vn 0 1 0
vn 0 1 0
vn 0 1 0
vn 0 1 0
vn 0 1 0
vn 0 1 0
vn 0 1 0
vn 0 1 0
vn 0 1 0
vn 0 1 0
vn 0 1 0
vn 0 1 0
vn 0 1 0
vn 0 1 0
vn 0 1 0
vn 0 1 0
vn 0 1 0
vn 0 1 0
vn 0 1 0
vn 0 1 0
vn 0 1 0
vn 0 1 0
vn 0 1 0
vn 0 1 0
vn 0 1 0
vn 0 1 0
vn 0 1 0
vn 0 1 0
vn 0 1 0
vn 0 1 0
g Grass_0_Cluster175_0
f 2/2/2 3/3/3 1/1/1
f 2/2/2 4/4/4 3/3/3
f 6/6/6 7/7/7 5/5/5
f 6/6/6 8/8/8 7/7/7
f 10/10/10 11/11/11 9/9/9
f 10/10/10 12/12/12 11/11/11
f 14/14/14 15/15/15 13/13/13
f 14/14/14 16/16/16 15/15/15
f 18/18/18 19/19/19 17/17/17
f 18/18/18 20/20/20 19/19/19
f 22/22/22 23/23/23 21/21/21
f 22/22/22 24/24/24 23/23/23
f 26/26/26 27/27/27 25/25/25
f 26/26/26 28/28/28 27/27/27
f 30/30/30 31/31/31 29/29/29
f 30/30/30 32/32/32 31/31/31
f 34/34/34 35/35/35 33/33/33
f 34/34/34 36/36/36 35/35/35
f 38/38/38 39/39/39 37/37/37
f 38/38/38 40/40/40 39/39/39
f 42/42/42 43/43/43 41/41/41
f 42/42/42 44/44/44 43/43/43
f 46/46/46 47/47/47 45/45/45
f 46/46/46 48/48/48 47/47/47
f 50/50/50 51/51/51 49/49/49
f 50/50/50 52/52/52 51/51/51
f 54/54/54 55/55/55 53/53/53
f 54/54/54 56/56/56 55/55/55
f 58/58/58 59/59/59 57/57/57
f 58/58/58 60/60/60 59/59/59
f 62/62/62 63/63/63 61/61/61
f 62/62/62 64/64/64 63/63/63
f 66/66/66 67/67/67 65/65/65
f 66/66/66 68/68/68 67/67/67
f 70/70/70 71/71/71 69/69/69
f 70/70/70 72/72/72 71/71/71
f 74/74/74 75/75/75 73/73/73
f 74/74/74 76/76/76 75/75/75
f 78/78/78 79/79/79 77/77/77
f 78/78/78 80/80/80 79/79/79
f 82/82/82 83/83/83 81/81/81
f 82/82/82 84/84/84 83/83/83
f 86/86/86 87/87/87 85/85/85
f 86/86/86 88/88/88 87/87/87
f 90/90/90 91/91/91 89/89/89
f 90/90/90 92/92/92 91/91/91
f 94/94/94 95/95/95 93/93/93
f 94/94/94 96/96/96 95/95/95
f 98/98/98 99/99/99 97/97/97
f 98/98/98 100/100/100 99/99/99
f 102/102/102 103/103/103 101/101/101
f 102/102/102 104/104/104 103/103/103
f 106/106/106 107/107/107 105/105/105
f 106/106/106 108/108/108 107/107/107
f 110/110/110 111/111/111 109/109/109
f 110/110/110 112/112/112 111/111/111
f 114/114/114 115/115/115 113/113/113
f 114/114/114 116/116/116 115/115/115
f 118/118/118 119/119/119 117/117/117
f 118/118/118 120/120/120 119/119/119
f 122/122/122 123/123/123 121/121/121
f 122/122/122 124/124/124 123/123/123
f 126/126/126 127/127/127 125/125/125
f 126/126/126 128/128/128 127/127/127
f 130/130/130 131/131/131 129/129/129
f 130/130/130 132/132/132 131/131/131
f 134/134/134 135/135/135 133/133/133
f 134/134/134 136/136/136 135/135/135
f 138/138/138 139/139/139 137/137/137
f 138/138/138 140/140/140 139/139/139
f 142/142/142 143/143/143 141/141/141
f 142/142/142 144/144/144 143/143/143
f 146/146/146 147/147/147 145/145/145
f 146/146/146 148/148/148 147/147/147
