g Grass_2_Cluster328
v 51.35307 0.2076683 472.504
v 50.32185 0.2076683 472.504
v 51.35307 0.2076683 473.5352
v 50.32185 0.2076683 473.5352
v 53.93111 0.2076683 469.4104
v 52.89989 0.2076683 469.4104
v 53.93111 0.2076683 470.4416
v 52.89989 0.2076683 470.4416
v 31.75999 0.2076683 466.8323
v 30.72878 0.2076683 466.8323
v 31.75999 0.2076683 467.8636
v 30.72878 0.2076683 467.8636
v 30.72878 0.2076683 465.8011
v 29.69756 0.2076683 465.8011
v 30.72878 0.2076683 466.8323
v 29.69756 0.2076683 466.8323
v 32.2756 0.2076683 465.8011
v 31.24438 0.2076683 465.8011
v 32.2756 0.2076683 466.8323
v 31.24438 0.2076683 466.8323
v 33.82242 0.2076683 464.7699
v 32.79121 0.2076683 464.7699
v 33.82242 0.2076683 465.8011
v 32.79121 0.2076683 465.8011
v 32.2756 0.2076683 464.7699
v 31.24438 0.2076683 464.7699
v 32.2756 0.2076683 465.8011
v 31.24438 0.2076683 465.8011
v 30.72878 0.2076683 464.2543
v 29.69756 0.2076683 464.2543
v 30.72878 0.2076683 465.8011
v 29.69756 0.2076683 465.8011
v 31.75999 0.2076683 464.2543
v 30.72878 0.2076683 464.2543
v 31.75999 0.2076683 465.8011
v 30.72878 0.2076683 465.8011
v 32.79121 0.2076683 463.2231
v 31.75999 0.2076683 463.2231
v 32.79121 0.2076683 464.2543
v 31.75999 0.2076683 464.2543
v 31.24438 0.2076683 463.2231
v 30.21317 0.2076683 463.2231
v 31.24438 0.2076683 464.2543
v 30.21317 0.2076683 464.2543
v 48.25943 0.2076683 455.489
v 47.22821 0.2076683 455.489
v 48.25943 0.2076683 456.5202
v 47.22821 0.2076683 456.5202
v 50.83746 0.2076683 452.9109
v 49.80625 0.2076683 452.9109
v 50.83746 0.2076683 453.9421
v 49.80625 0.2076683 453.9421
vt 0.1347656 0.9185662
vt 0.2060202 0.9185662
vt 0.1347656 1
vt 0.2060202 1
vt 0.1347656 0.9185662
vt 0.2060202 0.9185662
vt 0.1347656 1
vt 0.2060202 1
vt 0.1347656 0.9185662
vt 0.2060202 0.9185662
vt 0.1347656 1
vt 0.2060202 1
vt 0.1347656 0.9185662
vt 0.2060202 0.9185662
vt 0.1347656 1
vt 0.2060202 1
vt 0.1347656 0.9185662
vt 0.2060202 0.9185662
vt 0.1347656 1
vt 0.2060202 1
vt 0.1347656 0.9185662
vt 0.2060202 0.9185662
vt 0.1347656 1
vt 0.2060202 1
vt 0.1347656 0.9185662
vt 0.2060202 0.9185662
vt 0.1347656 1
vt 0.2060202 1
vt 0.1347656 0.9185662
vt 0.2060202 0.9185662
vt 0.1347656 1
vt 0.2060202 1
vt 0.1347656 0.9185662
vt 0.2060202 0.9185662
vt 0.1347656 1
vt 0.2060202 1
vt 0.1347656 0.9185662
vt 0.2060202 0.9185662
vt 0.1347656 1
vt 0.2060202 1
vt 0.1347656 0.9185662
vt 0.2060202 0.9185662
vt 0.1347656 1
vt 0.2060202 1
vt 0.1347656 0.9185662
vt 0.2060202 0.9185662
vt 0.1347656 1
vt 0.2060202 1
vt 0.1347656 0.9185662
vt 0.2060202 0.9185662
vt 0.1347656 1
vt 0.2060202 1
vn 0 1 0
vn 0 1 0
vn 0 1 0
vn 0 1 0
vn 0 1 0
vn 0 1 0
vn 0 1 0
vn 0 1 0
vn 0 1 0
vn 0 1 0
vn 0 1 0
vn 0 1 0
vn 0 1 0
vn 0 1 0
vn 0 1 0
vn 0 1 0
vn 0 1 0
vn 0 1 0
vn 0 1 0
vn 0 1 0
vn 0 1 0
vn 0 1 0
vn 0 1 0
vn 0 1 0
vn 0 1 0
vn 0 1 0
vn 0 1 0
vn 0 1 0
vn 0 1 0
vn 0 1 0
vn 0 1 0
vn 0 1 0
vn 0 1 0
vn 0 1 0
vn 0 1 0
vn 0 1 0
vn 0 1 0
vn 0 1 0
vn 0 1 0
vn 0 1 0
vn 0 1 0
vn 0 1 0
vn 0 1 0
vn 0 1 0
vn 0 1 0
vn 0 1 0
vn 0 1 0
vn 0 1 0
vn 0 1 0
vn 0 1 0
vn 0 1 0
vn 0 1 0
g Grass_2_Cluster328_0
f 2/2/2 3/3/3 1/1/1
f 2/2/2 4/4/4 3/3/3
f 6/6/6 7/7/7 5/5/5
f 6/6/6 8/8/8 7/7/7
f 10/10/10 11/11/11 9/9/9
f 10/10/10 12/12/12 11/11/11
f 14/14/14 15/15/15 13/13/13
f 14/14/14 16/16/16 15/15/15
f 18/18/18 19/19/19 17/17/17
f 18/18/18 20/20/20 19/19/19
f 22/22/22 23/23/23 21/21/21
f 22/22/22 24/24/24 23/23/23
f 26/26/26 27/27/27 25/25/25
f 26/26/26 28/28/28 27/27/27
f 30/30/30 31/31/31 29/29/29
f 30/30/30 32/32/32 31/31/31
f 34/34/34 35/35/35 33/33/33
f 34/34/34 36/36/36 35/35/35
f 38/38/38 39/39/39 37/37/37
f 38/38/38 40/40/40 39/39/39
f 42/42/42 43/43/43 41/41/41
f 42/42/42 44/44/44 43/43/43
f 46/46/46 47/47/47 45/45/45
f 46/46/46 48/48/48 47/47/47
f 50/50/50 51/51/51 49/49/49
f 50/50/50 52/52/52 51/51/51
