g Grass_1_Cluster126
v 110.6349 -0.03166962 164.5244
v 109.8256 -0.03166962 164.5244
v 110.6349 -0.03166962 165.3337
v 109.8256 -0.03166962 165.3337
v 102.8118 -0.03166962 149.4176
v 102.0025 -0.03166962 149.4176
v 102.8118 -0.03166962 150.2269
v 102.0025 -0.03166962 150.2269
vt 0.06738281 0.9369141
vt 0.1331457 0.9369141
vt 0.06738281 0.9990234
vt 0.1331457 0.9990234
vt 0.06738281 0.9369141
vt 0.1331457 0.9369141
vt 0.06738281 0.9990234
vt 0.1331457 0.9990234
vn 0 1 0
vn 0 1 0
vn 0 1 0
vn 0 1 0
vn 0 1 0
vn 0 1 0
vn 0 1 0
vn 0 1 0
g Grass_1_Cluster126_0
f 2/2/2 3/3/3 1/1/1
f 2/2/2 4/4/4 3/3/3
f 6/6/6 7/7/7 5/5/5
f 6/6/6 8/8/8 7/7/7
