g Grass_2_Cluster66
v 112.2598 -0.06848907 76.24439
v 111.3106 -0.06848907 76.24439
v 112.2598 -0.06848907 77.3834
v 111.3106 -0.06848907 77.3834
v 116.8158 -0.06848907 65.99342
v 115.8666 -0.06848907 65.99342
v 116.8158 -0.06848907 67.13241
v 115.8666 -0.06848907 67.13241
vt 0.1347656 0.9185662
vt 0.2060202 0.9185662
vt 0.1347656 1
vt 0.2060202 1
vt 0.1347656 0.9185662
vt 0.2060202 0.9185662
vt 0.1347656 1
vt 0.2060202 1
vn 0 1 0
vn 0 1 0
vn 0 1 0
vn 0 1 0
vn 0 1 0
vn 0 1 0
vn 0 1 0
vn 0 1 0
g Grass_2_Cluster66_0
f 2/2/2 3/3/3 1/1/1
f 2/2/2 4/4/4 3/3/3
f 6/6/6 7/7/7 5/5/5
f 6/6/6 8/8/8 7/7/7
