g Grass_2_Cluster223
v 206.1513 -0.06929016 322.8795
v 205.1078 -0.06929016 322.8795
v 206.1513 -0.06929016 323.9229
v 205.1078 -0.06929016 323.9229
v 183.1953 -0.06929016 322.3577
v 182.6736 -0.06929016 322.3577
v 183.1953 -0.06929016 323.9229
v 182.6736 -0.06929016 323.9229
v 207.1948 -0.06929016 322.3577
v 206.1513 -0.06929016 322.3577
v 207.1948 -0.06929016 323.9229
v 206.1513 -0.06929016 323.9229
v 182.1519 -0.06929016 322.3577
v 181.1084 -0.06929016 322.3577
v 182.1519 -0.06929016 323.4012
v 181.1084 -0.06929016 323.4012
v 205.1078 -0.06929016 321.836
v 204.0644 -0.06929016 321.836
v 205.1078 -0.06929016 322.8795
v 204.0644 -0.06929016 322.8795
v 185.2822 -0.06929016 321.3143
v 184.2388 -0.06929016 321.3143
v 185.2822 -0.06929016 322.3577
v 184.2388 -0.06929016 322.3577
v 204.5861 -0.06929016 321.3143
v 204.0644 -0.06929016 321.3143
v 204.5861 -0.06929016 322.3577
v 204.0644 -0.06929016 322.3577
v 205.6296 -0.06929016 320.7925
v 205.1078 -0.06929016 320.7925
v 205.6296 -0.06929016 321.836
v 205.1078 -0.06929016 321.836
v 184.7605 -0.06929016 320.2708
v 183.7171 -0.06929016 320.2708
v 184.7605 -0.06929016 321.3143
v 183.7171 -0.06929016 321.3143
v 185.804 -0.06929016 320.2708
v 185.2822 -0.06929016 320.2708
v 185.804 -0.06929016 321.3143
v 185.2822 -0.06929016 321.3143
v 204.5861 -0.06929016 319.7491
v 203.5427 -0.06929016 319.7491
v 204.5861 -0.06929016 320.7925
v 203.5427 -0.06929016 320.7925
v 184.7605 -0.06929016 319.2274
v 183.7171 -0.06929016 319.2274
v 184.7605 -0.06929016 320.2708
v 183.7171 -0.06929016 320.2708
v 187.8909 -0.06929016 318.7056
v 186.8474 -0.06929016 318.7056
v 187.8909 -0.06929016 319.7491
v 186.8474 -0.06929016 319.7491
v 185.804 -0.06929016 318.7056
v 184.7605 -0.06929016 318.7056
v 185.804 -0.06929016 319.7491
v 184.7605 -0.06929016 319.7491
v 206.1513 -0.06929016 318.7056
v 205.1078 -0.06929016 318.7056
v 206.1513 -0.06929016 319.7491
v 205.1078 -0.06929016 319.7491
v 185.2822 -0.06929016 318.1839
v 184.2388 -0.06929016 318.1839
v 185.2822 -0.06929016 319.2274
v 184.2388 -0.06929016 319.2274
v 186.3257 -0.06929016 318.1839
v 185.2822 -0.06929016 318.1839
v 186.3257 -0.06929016 319.2274
v 185.2822 -0.06929016 319.2274
v 206.1513 -0.06929016 318.1839
v 205.1078 -0.06929016 318.1839
v 206.1513 -0.06929016 319.2274
v 205.1078 -0.06929016 319.2274
v 205.1078 -0.06929016 317.6622
v 204.5861 -0.06929016 317.6622
v 205.1078 -0.06929016 318.7056
v 204.5861 -0.06929016 318.7056
v 187.3691 -0.06929016 317.6622
v 186.8474 -0.06929016 317.6622
v 187.3691 -0.06929016 318.7056
v 186.8474 -0.06929016 318.7056
v 205.6296 -0.06929016 317.6622
v 204.5861 -0.06929016 317.6622
v 205.6296 -0.06929016 318.7056
v 204.5861 -0.06929016 318.7056
v 205.6296 -0.06929016 316.6188
v 204.5861 -0.06929016 316.6188
v 205.6296 -0.06929016 317.6622
v 204.5861 -0.06929016 317.6622
v 204.5861 -0.06929016 311.9232
v 203.5427 -0.06929016 311.9232
v 204.5861 -0.06929016 312.9667
v 203.5427 -0.06929016 312.9667
v 205.1078 -0.06929016 308.7928
v 204.5861 -0.06929016 308.7928
v 205.1078 -0.06929016 309.8363
v 204.5861 -0.06929016 309.8363
v 205.6296 -0.06929016 307.7494
v 204.5861 -0.06929016 307.7494
v 205.6296 -0.06929016 309.3146
v 204.5861 -0.06929016 309.3146
v 207.1948 -0.06929016 306.1842
v 206.1513 -0.06929016 306.1842
v 207.1948 -0.06929016 307.7494
v 206.1513 -0.06929016 307.7494
v 209.2817 -0.06929016 306.1842
v 208.2382 -0.06929016 306.1842
v 209.2817 -0.06929016 307.2277
v 208.2382 -0.06929016 307.2277
v 208.7599 -0.06929016 305.6625
v 207.7165 -0.06929016 305.6625
v 208.7599 -0.06929016 306.7059
v 207.7165 -0.06929016 306.7059
v 209.8034 -0.06929016 305.1407
v 208.7599 -0.06929016 305.1407
v 209.8034 -0.06929016 306.1842
v 208.7599 -0.06929016 306.1842
v 186.8474 -0.06929016 297.8366
v 185.804 -0.06929016 297.8366
v 186.8474 -0.06929016 298.8801
v 185.804 -0.06929016 298.8801
v 196.7602 -0.06929016 293.6628
v 195.7168 -0.06929016 293.6628
v 196.7602 -0.06929016 295.228
v 195.7168 -0.06929016 295.228
vt 0.1347656 0.9185662
vt 0.2060202 0.9185662
vt 0.1347656 1
vt 0.2060202 1
vt 0.1347656 0.9185662
vt 0.2060202 0.9185662
vt 0.1347656 1
vt 0.2060202 1
vt 0.1347656 0.9185662
vt 0.2060202 0.9185662
vt 0.1347656 1
vt 0.2060202 1
vt 0.1347656 0.9185662
vt 0.2060202 0.9185662
vt 0.1347656 1
vt 0.2060202 1
vt 0.1347656 0.9185662
vt 0.2060202 0.9185662
vt 0.1347656 1
vt 0.2060202 1
vt 0.1347656 0.9185662
vt 0.2060202 0.9185662
vt 0.1347656 1
vt 0.2060202 1
vt 0.1347656 0.9185662
vt 0.2060202 0.9185662
vt 0.1347656 1
vt 0.2060202 1
vt 0.1347656 0.9185662
vt 0.2060202 0.9185662
vt 0.1347656 1
vt 0.2060202 1
vt 0.1347656 0.9185662
vt 0.2060202 0.9185662
vt 0.1347656 1
vt 0.2060202 1
vt 0.1347656 0.9185662
vt 0.2060202 0.9185662
vt 0.1347656 1
vt 0.2060202 1
vt 0.1347656 0.9185662
vt 0.2060202 0.9185662
vt 0.1347656 1
vt 0.2060202 1
vt 0.1347656 0.9185662
vt 0.2060202 0.9185662
vt 0.1347656 1
vt 0.2060202 1
vt 0.1347656 0.9185662
vt 0.2060202 0.9185662
vt 0.1347656 1
vt 0.2060202 1
vt 0.1347656 0.9185662
vt 0.2060202 0.9185662
vt 0.1347656 1
vt 0.2060202 1
vt 0.1347656 0.9185662
vt 0.2060202 0.9185662
vt 0.1347656 1
vt 0.2060202 1
vt 0.1347656 0.9185662
vt 0.2060202 0.9185662
vt 0.1347656 1
vt 0.2060202 1
vt 0.1347656 0.9185662
vt 0.2060202 0.9185662
vt 0.1347656 1
vt 0.2060202 1
vt 0.1347656 0.9185662
vt 0.2060202 0.9185662
vt 0.1347656 1
vt 0.2060202 1
vt 0.1347656 0.9185662
vt 0.2060202 0.9185662
vt 0.1347656 1
vt 0.2060202 1
vt 0.1347656 0.9185662
vt 0.2060202 0.9185662
vt 0.1347656 1
vt 0.2060202 1
vt 0.1347656 0.9185662
vt 0.2060202 0.9185662
vt 0.1347656 1
vt 0.2060202 1
vt 0.1347656 0.9185662
vt 0.2060202 0.9185662
vt 0.1347656 1
vt 0.2060202 1
vt 0.1347656 0.9185662
vt 0.2060202 0.9185662
vt 0.1347656 1
vt 0.2060202 1
vt 0.1347656 0.9185662
vt 0.2060202 0.9185662
vt 0.1347656 1
vt 0.2060202 1
vt 0.1347656 0.9185662
vt 0.2060202 0.9185662
vt 0.1347656 1
vt 0.2060202 1
vt 0.1347656 0.9185662
vt 0.2060202 0.9185662
vt 0.1347656 1
vt 0.2060202 1
vt 0.1347656 0.9185662
vt 0.2060202 0.9185662
vt 0.1347656 1
vt 0.2060202 1
vt 0.1347656 0.9185662
vt 0.2060202 0.9185662
vt 0.1347656 1
vt 0.2060202 1
vt 0.1347656 0.9185662
vt 0.2060202 0.9185662
vt 0.1347656 1
vt 0.2060202 1
vt 0.1347656 0.9185662
vt 0.2060202 0.9185662
vt 0.1347656 1
vt 0.2060202 1
vt 0.1347656 0.9185662
vt 0.2060202 0.9185662
vt 0.1347656 1
vt 0.2060202 1
vn 0 1 0
vn 0 1 0
vn 0 1 0
vn 0 1 0
vn 0 1 0
vn 0 1 0
vn 0 1 0
vn 0 1 0
vn 0 1 0
vn 0 1 0
vn 0 1 0
vn 0 1 0
vn 0 1 0
vn 0 1 0
vn 0 1 0
vn 0 1 0
vn 0 1 0
vn 0 1 0
vn 0 1 0
vn 0 1 0
vn 0 1 0
vn 0 1 0
vn 0 1 0
vn 0 1 0
vn 0 1 0
vn 0 1 0
vn 0 1 0
vn 0 1 0
vn 0 1 0
vn 0 1 0
vn 0 1 0
vn 0 1 0
vn 0 1 0
vn 0 1 0
vn 0 1 0
vn 0 1 0
vn 0 1 0
vn 0 1 0
vn 0 1 0
vn 0 1 0
vn 0 1 0
vn 0 1 0
vn 0 1 0
vn 0 1 0
vn 0 1 0
vn 0 1 0
vn 0 1 0
vn 0 1 0
vn 0 1 0
vn 0 1 0
vn 0 1 0
vn 0 1 0
vn 0 1 0
vn 0 1 0
vn 0 1 0
vn 0 1 0
vn 0 1 0
vn 0 1 0
vn 0 1 0
vn 0 1 0
vn 0 1 0
vn 0 1 0
vn 0 1 0
vn 0 1 0
vn 0 1 0
vn 0 1 0
vn 0 1 0
vn 0 1 0
vn 0 1 0
vn 0 1 0
vn 0 1 0
vn 0 1 0
vn 0 1 0
vn 0 1 0
vn 0 1 0
vn 0 1 0
vn 0 1 0
vn 0 1 0
vn 0 1 0
vn 0 1 0
vn 0 1 0
vn 0 1 0
vn 0 1 0
vn 0 1 0
vn 0 1 0
vn 0 1 0
vn 0 1 0
vn 0 1 0
vn 0 1 0
vn 0 1 0
vn 0 1 0
vn 0 1 0
vn 0 1 0
vn 0 1 0
vn 0 1 0
vn 0 1 0
vn 0 1 0
vn 0 1 0
vn 0 1 0
vn 0 1 0
vn 0 1 0
vn 0 1 0
vn 0 1 0
vn 0 1 0
vn 0 1 0
vn 0 1 0
vn 0 1 0
vn 0 1 0
vn 0 1 0
vn 0 1 0
vn 0 1 0
vn 0 1 0
vn 0 1 0
vn 0 1 0
vn 0 1 0
vn 0 1 0
vn 0 1 0
vn 0 1 0
vn 0 1 0
vn 0 1 0
vn 0 1 0
vn 0 1 0
vn 0 1 0
vn 0 1 0
g Grass_2_Cluster223_0
f 2/2/2 3/3/3 1/1/1
f 2/2/2 4/4/4 3/3/3
f 6/6/6 7/7/7 5/5/5
f 6/6/6 8/8/8 7/7/7
f 10/10/10 11/11/11 9/9/9
f 10/10/10 12/12/12 11/11/11
f 14/14/14 15/15/15 13/13/13
f 14/14/14 16/16/16 15/15/15
f 18/18/18 19/19/19 17/17/17
f 18/18/18 20/20/20 19/19/19
f 22/22/22 23/23/23 21/21/21
f 22/22/22 24/24/24 23/23/23
f 26/26/26 27/27/27 25/25/25
f 26/26/26 28/28/28 27/27/27
f 30/30/30 31/31/31 29/29/29
f 30/30/30 32/32/32 31/31/31
f 34/34/34 35/35/35 33/33/33
f 34/34/34 36/36/36 35/35/35
f 38/38/38 39/39/39 37/37/37
f 38/38/38 40/40/40 39/39/39
f 42/42/42 43/43/43 41/41/41
f 42/42/42 44/44/44 43/43/43
f 46/46/46 47/47/47 45/45/45
f 46/46/46 48/48/48 47/47/47
f 50/50/50 51/51/51 49/49/49
f 50/50/50 52/52/52 51/51/51
f 54/54/54 55/55/55 53/53/53
f 54/54/54 56/56/56 55/55/55
f 58/58/58 59/59/59 57/57/57
f 58/58/58 60/60/60 59/59/59
f 62/62/62 63/63/63 61/61/61
f 62/62/62 64/64/64 63/63/63
f 66/66/66 67/67/67 65/65/65
f 66/66/66 68/68/68 67/67/67
f 70/70/70 71/71/71 69/69/69
f 70/70/70 72/72/72 71/71/71
f 74/74/74 75/75/75 73/73/73
f 74/74/74 76/76/76 75/75/75
f 78/78/78 79/79/79 77/77/77
f 78/78/78 80/80/80 79/79/79
f 82/82/82 83/83/83 81/81/81
f 82/82/82 84/84/84 83/83/83
f 86/86/86 87/87/87 85/85/85
f 86/86/86 88/88/88 87/87/87
f 90/90/90 91/91/91 89/89/89
f 90/90/90 92/92/92 91/91/91
f 94/94/94 95/95/95 93/93/93
f 94/94/94 96/96/96 95/95/95
f 98/98/98 99/99/99 97/97/97
f 98/98/98 100/100/100 99/99/99
f 102/102/102 103/103/103 101/101/101
f 102/102/102 104/104/104 103/103/103
f 106/106/106 107/107/107 105/105/105
f 106/106/106 108/108/108 107/107/107
f 110/110/110 111/111/111 109/109/109
f 110/110/110 112/112/112 111/111/111
f 114/114/114 115/115/115 113/113/113
f 114/114/114 116/116/116 115/115/115
f 118/118/118 119/119/119 117/117/117
f 118/118/118 120/120/120 119/119/119
f 122/122/122 123/123/123 121/121/121
f 122/122/122 124/124/124 123/123/123
