g Grass_2_Cluster85
v 134.7196 0.1208191 104.4973
v 133.7208 0.1208191 104.4973
v 134.7196 0.1208191 105.4961
v 133.7208 0.1208191 105.4961
v 136.4675 0.1208191 104.2476
v 135.4687 0.1208191 104.2476
v 136.4675 0.1208191 105.2464
v 135.4687 0.1208191 105.2464
v 137.716 0.1208191 103.7482
v 136.7172 0.1208191 103.7482
v 137.716 0.1208191 104.9967
v 136.7172 0.1208191 104.9967
v 139.7137 0.1208191 103.7482
v 138.7149 0.1208191 103.7482
v 139.7137 0.1208191 104.747
v 138.7149 0.1208191 104.747
v 134.2202 0.1208191 102.9991
v 133.2214 0.1208191 102.9991
v 134.2202 0.1208191 103.9979
v 133.2214 0.1208191 103.9979
v 135.7184 0.1208191 102.0002
v 134.9693 0.1208191 102.0002
v 135.7184 0.1208191 103.2488
v 134.9693 0.1208191 103.2488
v 136.4675 0.1208191 102.0002
v 135.4687 0.1208191 102.0002
v 136.4675 0.1208191 102.9991
v 135.4687 0.1208191 102.9991
v 136.7172 0.1208191 101.2511
v 135.7184 0.1208191 101.2511
v 136.7172 0.1208191 102.4996
v 135.7184 0.1208191 102.4996
v 135.219 0.1208191 101.2511
v 134.2202 0.1208191 101.2511
v 135.219 0.1208191 102.25
v 134.2202 0.1208191 102.25
v 133.9705 0.1208191 100.0026
v 133.2214 0.1208191 100.0026
v 133.9705 0.1208191 101.0014
v 133.2214 0.1208191 101.0014
v 135.9681 0.1208191 99.5032
v 134.9693 0.1208191 99.5032
v 135.9681 0.1208191 100.502
v 134.9693 0.1208191 100.502
v 137.2166 0.1208191 99.5032
v 136.4675 0.1208191 99.5032
v 137.2166 0.1208191 100.502
v 136.4675 0.1208191 100.502
v 134.4699 0.1208191 99.25349
v 133.7208 0.1208191 99.25349
v 134.4699 0.1208191 100.2523
v 133.7208 0.1208191 100.2523
v 133.4711 0.1208191 98.50438
v 132.4723 0.1208191 98.50438
v 133.4711 0.1208191 99.7529
v 132.4723 0.1208191 99.7529
v 120.9858 0.1208191 97.75526
v 120.2367 0.1208191 97.75526
v 120.9858 0.1208191 98.75409
v 120.2367 0.1208191 98.75409
v 135.4687 0.1208191 97.50557
v 134.4699 0.1208191 97.50557
v 135.4687 0.1208191 98.50438
v 134.4699 0.1208191 98.50438
v 136.9669 0.1208191 97.50557
v 135.9681 0.1208191 97.50557
v 136.9669 0.1208191 98.50438
v 135.9681 0.1208191 98.50438
v 133.7208 0.1208191 97.25586
v 132.9717 0.1208191 97.25586
v 133.7208 0.1208191 98.25468
v 132.9717 0.1208191 98.25468
v 124.232 0.1208191 96.75645
v 123.2332 0.1208191 96.75645
v 124.232 0.1208191 97.75526
v 123.2332 0.1208191 97.75526
v 149.7019 0.1208191 96.25703
v 148.703 0.1208191 96.25703
v 149.7019 0.1208191 97.25586
v 148.703 0.1208191 97.25586
v 123.7326 0.1208191 96.00734
v 122.9835 0.1208191 96.00734
v 123.7326 0.1208191 97.00615
v 122.9835 0.1208191 97.00615
v 149.9516 0.1208191 95.00851
v 148.9527 0.1208191 95.00851
v 149.9516 0.1208191 96.25703
v 148.9527 0.1208191 96.25703
v 122.4841 0.1208191 94.75882
v 121.4853 0.1208191 94.75882
v 122.4841 0.1208191 96.00734
v 121.4853 0.1208191 96.00734
v 149.7019 0.1208191 94.2594
v 148.703 0.1208191 94.2594
v 149.7019 0.1208191 95.50793
v 148.703 0.1208191 95.50793
v 142.4604 0.1208191 91.01324
v 141.7113 0.1208191 91.01324
v 142.4604 0.1208191 92.01207
v 141.7113 0.1208191 92.01207
v 126.4793 0.1208191 87.26768
v 125.4805 0.1208191 87.26768
v 126.4793 0.1208191 88.5162
v 125.4805 0.1208191 88.5162
v 130.7243 0.1208191 87.26768
v 129.7255 0.1208191 87.26768
v 130.7243 0.1208191 88.26649
v 129.7255 0.1208191 88.26649
v 128.7267 0.1208191 87.01797
v 127.7279 0.1208191 87.01797
v 128.7267 0.1208191 88.26649
v 127.7279 0.1208191 88.26649
v 122.2344 0.1208191 86.76826
v 121.2355 0.1208191 86.76826
v 122.2344 0.1208191 87.76709
v 121.2355 0.1208191 87.76709
v 127.9776 0.1208191 86.51857
v 127.2285 0.1208191 86.51857
v 127.9776 0.1208191 87.51738
v 127.2285 0.1208191 87.51738
v 123.4829 0.1208191 86.26886
v 122.4841 0.1208191 86.26886
v 123.4829 0.1208191 87.51738
v 122.4841 0.1208191 87.51738
v 125.2308 0.1208191 86.26886
v 124.232 0.1208191 86.26886
v 125.2308 0.1208191 87.26768
v 124.232 0.1208191 87.26768
v 126.9788 0.1208191 86.26886
v 125.9799 0.1208191 86.26886
v 126.9788 0.1208191 87.26768
v 125.9799 0.1208191 87.26768
v 129.7255 0.1208191 86.01917
v 128.7267 0.1208191 86.01917
v 129.7255 0.1208191 87.26768
v 128.7267 0.1208191 87.26768
v 124.4817 0.1208191 85.76945
v 123.4829 0.1208191 85.76945
v 124.4817 0.1208191 87.01797
v 123.4829 0.1208191 87.01797
v 128.2273 0.1208191 85.51974
v 127.2285 0.1208191 85.51974
v 128.2273 0.1208191 86.51857
v 127.2285 0.1208191 86.51857
v 125.7302 0.1208191 85.27005
v 124.9811 0.1208191 85.27005
v 125.7302 0.1208191 86.26886
v 124.9811 0.1208191 86.26886
v 127.2285 0.1208191 85.27005
v 126.4793 0.1208191 85.27005
v 127.2285 0.1208191 86.26886
v 126.4793 0.1208191 86.26886
v 131.7231 0.1208191 85.27005
v 130.7243 0.1208191 85.27005
v 131.7231 0.1208191 86.26886
v 130.7243 0.1208191 86.26886
v 131.9728 0.1208191 85.02034
v 131.2237 0.1208191 85.02034
v 131.9728 0.1208191 86.01917
v 131.2237 0.1208191 86.01917
v 123.4829 0.1208191 84.77063
v 122.4841 0.1208191 84.77063
v 123.4829 0.1208191 86.01917
v 122.4841 0.1208191 86.01917
v 128.9764 0.1208191 84.77063
v 127.9776 0.1208191 84.77063
v 128.9764 0.1208191 86.01917
v 127.9776 0.1208191 86.01917
v 129.7255 0.1208191 84.52094
v 128.7267 0.1208191 84.52094
v 129.7255 0.1208191 85.76945
v 128.7267 0.1208191 85.76945
v 127.4782 0.1208191 84.52094
v 126.4793 0.1208191 84.52094
v 127.4782 0.1208191 85.76945
v 126.4793 0.1208191 85.76945
v 124.7314 0.1208191 84.52094
v 123.7326 0.1208191 84.52094
v 124.7314 0.1208191 85.51974
v 123.7326 0.1208191 85.51974
v 121.4853 0.1208191 84.27122
v 120.7361 0.1208191 84.27122
v 121.4853 0.1208191 85.27005
v 120.7361 0.1208191 85.27005
v 125.2308 0.1208191 84.27122
v 124.4817 0.1208191 84.27122
v 125.2308 0.1208191 85.27005
v 124.4817 0.1208191 85.27005
v 128.7267 0.1208191 84.02151
v 127.7279 0.1208191 84.02151
v 128.7267 0.1208191 85.27005
v 127.7279 0.1208191 85.27005
v 126.2296 0.1208191 83.77182
v 125.2308 0.1208191 83.77182
v 126.2296 0.1208191 84.77063
v 125.2308 0.1208191 84.77063
v 123.7326 0.1208191 83.77182
v 122.9835 0.1208191 83.77182
v 123.7326 0.1208191 84.77063
v 122.9835 0.1208191 84.77063
v 131.4734 0.1208191 83.52211
v 130.4746 0.1208191 83.52211
v 131.4734 0.1208191 84.77063
v 130.4746 0.1208191 84.77063
v 129.2261 0.1208191 83.52211
v 128.2273 0.1208191 83.52211
v 129.2261 0.1208191 84.77063
v 128.2273 0.1208191 84.77063
v 127.7279 0.1208191 83.27242
v 126.729 0.1208191 83.27242
v 127.7279 0.1208191 84.52094
v 126.729 0.1208191 84.52094
v 126.9788 0.1208191 83.27242
v 125.9799 0.1208191 83.27242
v 126.9788 0.1208191 84.27122
v 125.9799 0.1208191 84.27122
v 124.9811 0.1208191 83.02271
v 123.9823 0.1208191 83.02271
v 124.9811 0.1208191 84.02151
v 123.9823 0.1208191 84.02151
vt 0.1347656 0.9185662
vt 0.2060202 0.9185662
vt 0.1347656 1
vt 0.2060202 1
vt 0.1347656 0.9185662
vt 0.2060202 0.9185662
vt 0.1347656 1
vt 0.2060202 1
vt 0.1347656 0.9185662
vt 0.2060202 0.9185662
vt 0.1347656 1
vt 0.2060202 1
vt 0.1347656 0.9185662
vt 0.2060202 0.9185662
vt 0.1347656 1
vt 0.2060202 1
vt 0.1347656 0.9185662
vt 0.2060202 0.9185662
vt 0.1347656 1
vt 0.2060202 1
vt 0.1347656 0.9185662
vt 0.2060202 0.9185662
vt 0.1347656 1
vt 0.2060202 1
vt 0.1347656 0.9185662
vt 0.2060202 0.9185662
vt 0.1347656 1
vt 0.2060202 1
vt 0.1347656 0.9185662
vt 0.2060202 0.9185662
vt 0.1347656 1
vt 0.2060202 1
vt 0.1347656 0.9185662
vt 0.2060202 0.9185662
vt 0.1347656 1
vt 0.2060202 1
vt 0.1347656 0.9185662
vt 0.2060202 0.9185662
vt 0.1347656 1
vt 0.2060202 1
vt 0.1347656 0.9185662
vt 0.2060202 0.9185662
vt 0.1347656 1
vt 0.2060202 1
vt 0.1347656 0.9185662
vt 0.2060202 0.9185662
vt 0.1347656 1
vt 0.2060202 1
vt 0.1347656 0.9185662
vt 0.2060202 0.9185662
vt 0.1347656 1
vt 0.2060202 1
vt 0.1347656 0.9185662
vt 0.2060202 0.9185662
vt 0.1347656 1
vt 0.2060202 1
vt 0.1347656 0.9185662
vt 0.2060202 0.9185662
vt 0.1347656 1
vt 0.2060202 1
vt 0.1347656 0.9185662
vt 0.2060202 0.9185662
vt 0.1347656 1
vt 0.2060202 1
vt 0.1347656 0.9185662
vt 0.2060202 0.9185662
vt 0.1347656 1
vt 0.2060202 1
vt 0.1347656 0.9185662
vt 0.2060202 0.9185662
vt 0.1347656 1
vt 0.2060202 1
vt 0.1347656 0.9185662
vt 0.2060202 0.9185662
vt 0.1347656 1
vt 0.2060202 1
vt 0.1347656 0.9185662
vt 0.2060202 0.9185662
vt 0.1347656 1
vt 0.2060202 1
vt 0.1347656 0.9185662
vt 0.2060202 0.9185662
vt 0.1347656 1
vt 0.2060202 1
vt 0.1347656 0.9185662
vt 0.2060202 0.9185662
vt 0.1347656 1
vt 0.2060202 1
vt 0.1347656 0.9185662
vt 0.2060202 0.9185662
vt 0.1347656 1
vt 0.2060202 1
vt 0.1347656 0.9185662
vt 0.2060202 0.9185662
vt 0.1347656 1
vt 0.2060202 1
vt 0.1347656 0.9185662
vt 0.2060202 0.9185662
vt 0.1347656 1
vt 0.2060202 1
vt 0.1347656 0.9185662
vt 0.2060202 0.9185662
vt 0.1347656 1
vt 0.2060202 1
vt 0.1347656 0.9185662
vt 0.2060202 0.9185662
vt 0.1347656 1
vt 0.2060202 1
vt 0.1347656 0.9185662
vt 0.2060202 0.9185662
vt 0.1347656 1
vt 0.2060202 1
vt 0.1347656 0.9185662
vt 0.2060202 0.9185662
vt 0.1347656 1
vt 0.2060202 1
vt 0.1347656 0.9185662
vt 0.2060202 0.9185662
vt 0.1347656 1
vt 0.2060202 1
vt 0.1347656 0.9185662
vt 0.2060202 0.9185662
vt 0.1347656 1
vt 0.2060202 1
vt 0.1347656 0.9185662
vt 0.2060202 0.9185662
vt 0.1347656 1
vt 0.2060202 1
vt 0.1347656 0.9185662
vt 0.2060202 0.9185662
vt 0.1347656 1
vt 0.2060202 1
vt 0.1347656 0.9185662
vt 0.2060202 0.9185662
vt 0.1347656 1
vt 0.2060202 1
vt 0.1347656 0.9185662
vt 0.2060202 0.9185662
vt 0.1347656 1
vt 0.2060202 1
vt 0.1347656 0.9185662
vt 0.2060202 0.9185662
vt 0.1347656 1
vt 0.2060202 1
vt 0.1347656 0.9185662
vt 0.2060202 0.9185662
vt 0.1347656 1
vt 0.2060202 1
vt 0.1347656 0.9185662
vt 0.2060202 0.9185662
vt 0.1347656 1
vt 0.2060202 1
vt 0.1347656 0.9185662
vt 0.2060202 0.9185662
vt 0.1347656 1
vt 0.2060202 1
vt 0.1347656 0.9185662
vt 0.2060202 0.9185662
vt 0.1347656 1
vt 0.2060202 1
vt 0.1347656 0.9185662
vt 0.2060202 0.9185662
vt 0.1347656 1
vt 0.2060202 1
vt 0.1347656 0.9185662
vt 0.2060202 0.9185662
vt 0.1347656 1
vt 0.2060202 1
vt 0.1347656 0.9185662
vt 0.2060202 0.9185662
vt 0.1347656 1
vt 0.2060202 1
vt 0.1347656 0.9185662
vt 0.2060202 0.9185662
vt 0.1347656 1
vt 0.2060202 1
vt 0.1347656 0.9185662
vt 0.2060202 0.9185662
vt 0.1347656 1
vt 0.2060202 1
vt 0.1347656 0.9185662
vt 0.2060202 0.9185662
vt 0.1347656 1
vt 0.2060202 1
vt 0.1347656 0.9185662
vt 0.2060202 0.9185662
vt 0.1347656 1
vt 0.2060202 1
vt 0.1347656 0.9185662
vt 0.2060202 0.9185662
vt 0.1347656 1
vt 0.2060202 1
vt 0.1347656 0.9185662
vt 0.2060202 0.9185662
vt 0.1347656 1
vt 0.2060202 1
vt 0.1347656 0.9185662
vt 0.2060202 0.9185662
vt 0.1347656 1
vt 0.2060202 1
vt 0.1347656 0.9185662
vt 0.2060202 0.9185662
vt 0.1347656 1
vt 0.2060202 1
vt 0.1347656 0.9185662
vt 0.2060202 0.9185662
vt 0.1347656 1
vt 0.2060202 1
vt 0.1347656 0.9185662
vt 0.2060202 0.9185662
vt 0.1347656 1
vt 0.2060202 1
vt 0.1347656 0.9185662
vt 0.2060202 0.9185662
vt 0.1347656 1
vt 0.2060202 1
vt 0.1347656 0.9185662
vt 0.2060202 0.9185662
vt 0.1347656 1
vt 0.2060202 1
vn 0 1 0
vn 0 1 0
vn 0 1 0
vn 0 1 0
vn 0 1 0
vn 0 1 0
vn 0 1 0
vn 0 1 0
vn 0 1 0
vn 0 1 0
vn 0 1 0
vn 0 1 0
vn 0 1 0
vn 0 1 0
vn 0 1 0
vn 0 1 0
vn 0 1 0
vn 0 1 0
vn 0 1 0
vn 0 1 0
vn 0 1 0
vn 0 1 0
vn 0 1 0
vn 0 1 0
vn 0 1 0
vn 0 1 0
vn 0 1 0
vn 0 1 0
vn 0 1 0
vn 0 1 0
vn 0 1 0
vn 0 1 0
vn 0 1 0
vn 0 1 0
vn 0 1 0
vn 0 1 0
vn 0 1 0
vn 0 1 0
vn 0 1 0
vn 0 1 0
vn 0 1 0
vn 0 1 0
vn 0 1 0
vn 0 1 0
vn 0 1 0
vn 0 1 0
vn 0 1 0
vn 0 1 0
vn 0 1 0
vn 0 1 0
vn 0 1 0
vn 0 1 0
vn 0 1 0
vn 0 1 0
vn 0 1 0
vn 0 1 0
vn 0 1 0
vn 0 1 0
vn 0 1 0
vn 0 1 0
vn 0 1 0
vn 0 1 0
vn 0 1 0
vn 0 1 0
vn 0 1 0
vn 0 1 0
vn 0 1 0
vn 0 1 0
vn 0 1 0
vn 0 1 0
vn 0 1 0
vn 0 1 0
vn 0 1 0
vn 0 1 0
vn 0 1 0
vn 0 1 0
vn 0 1 0
vn 0 1 0
vn 0 1 0
vn 0 1 0
vn 0 1 0
vn 0 1 0
vn 0 1 0
vn 0 1 0
vn 0 1 0
vn 0 1 0
vn 0 1 0
vn 0 1 0
vn 0 1 0
vn 0 1 0
vn 0 1 0
vn 0 1 0
vn 0 1 0
vn 0 1 0
vn 0 1 0
vn 0 1 0
vn 0 1 0
vn 0 1 0
vn 0 1 0
vn 0 1 0
vn 0 1 0
vn 0 1 0
vn 0 1 0
vn 0 1 0
vn 0 1 0
vn 0 1 0
vn 0 1 0
vn 0 1 0
vn 0 1 0
vn 0 1 0
vn 0 1 0
vn 0 1 0
vn 0 1 0
vn 0 1 0
vn 0 1 0
vn 0 1 0
vn 0 1 0
vn 0 1 0
vn 0 1 0
vn 0 1 0
vn 0 1 0
vn 0 1 0
vn 0 1 0
vn 0 1 0
vn 0 1 0
vn 0 1 0
vn 0 1 0
vn 0 1 0
vn 0 1 0
vn 0 1 0
vn 0 1 0
vn 0 1 0
vn 0 1 0
vn 0 1 0
vn 0 1 0
vn 0 1 0
vn 0 1 0
vn 0 1 0
vn 0 1 0
vn 0 1 0
vn 0 1 0
vn 0 1 0
vn 0 1 0
vn 0 1 0
vn 0 1 0
vn 0 1 0
vn 0 1 0
vn 0 1 0
vn 0 1 0
vn 0 1 0
vn 0 1 0
vn 0 1 0
vn 0 1 0
vn 0 1 0
vn 0 1 0
vn 0 1 0
vn 0 1 0
vn 0 1 0
vn 0 1 0
vn 0 1 0
vn 0 1 0
vn 0 1 0
vn 0 1 0
vn 0 1 0
vn 0 1 0
vn 0 1 0
vn 0 1 0
vn 0 1 0
vn 0 1 0
vn 0 1 0
vn 0 1 0
vn 0 1 0
vn 0 1 0
vn 0 1 0
vn 0 1 0
vn 0 1 0
vn 0 1 0
vn 0 1 0
vn 0 1 0
vn 0 1 0
vn 0 1 0
vn 0 1 0
vn 0 1 0
vn 0 1 0
vn 0 1 0
vn 0 1 0
vn 0 1 0
vn 0 1 0
vn 0 1 0
vn 0 1 0
vn 0 1 0
vn 0 1 0
vn 0 1 0
vn 0 1 0
vn 0 1 0
vn 0 1 0
vn 0 1 0
vn 0 1 0
vn 0 1 0
vn 0 1 0
vn 0 1 0
vn 0 1 0
vn 0 1 0
vn 0 1 0
vn 0 1 0
vn 0 1 0
vn 0 1 0
vn 0 1 0
vn 0 1 0
vn 0 1 0
vn 0 1 0
vn 0 1 0
vn 0 1 0
vn 0 1 0
vn 0 1 0
vn 0 1 0
vn 0 1 0
vn 0 1 0
vn 0 1 0
vn 0 1 0
g Grass_2_Cluster85_0
f 2/2/2 3/3/3 1/1/1
f 2/2/2 4/4/4 3/3/3
f 6/6/6 7/7/7 5/5/5
f 6/6/6 8/8/8 7/7/7
f 10/10/10 11/11/11 9/9/9
f 10/10/10 12/12/12 11/11/11
f 14/14/14 15/15/15 13/13/13
f 14/14/14 16/16/16 15/15/15
f 18/18/18 19/19/19 17/17/17
f 18/18/18 20/20/20 19/19/19
f 22/22/22 23/23/23 21/21/21
f 22/22/22 24/24/24 23/23/23
f 26/26/26 27/27/27 25/25/25
f 26/26/26 28/28/28 27/27/27
f 30/30/30 31/31/31 29/29/29
f 30/30/30 32/32/32 31/31/31
f 34/34/34 35/35/35 33/33/33
f 34/34/34 36/36/36 35/35/35
f 38/38/38 39/39/39 37/37/37
f 38/38/38 40/40/40 39/39/39
f 42/42/42 43/43/43 41/41/41
f 42/42/42 44/44/44 43/43/43
f 46/46/46 47/47/47 45/45/45
f 46/46/46 48/48/48 47/47/47
f 50/50/50 51/51/51 49/49/49
f 50/50/50 52/52/52 51/51/51
f 54/54/54 55/55/55 53/53/53
f 54/54/54 56/56/56 55/55/55
f 58/58/58 59/59/59 57/57/57
f 58/58/58 60/60/60 59/59/59
f 62/62/62 63/63/63 61/61/61
f 62/62/62 64/64/64 63/63/63
f 66/66/66 67/67/67 65/65/65
f 66/66/66 68/68/68 67/67/67
f 70/70/70 71/71/71 69/69/69
f 70/70/70 72/72/72 71/71/71
f 74/74/74 75/75/75 73/73/73
f 74/74/74 76/76/76 75/75/75
f 78/78/78 79/79/79 77/77/77
f 78/78/78 80/80/80 79/79/79
f 82/82/82 83/83/83 81/81/81
f 82/82/82 84/84/84 83/83/83
f 86/86/86 87/87/87 85/85/85
f 86/86/86 88/88/88 87/87/87
f 90/90/90 91/91/91 89/89/89
f 90/90/90 92/92/92 91/91/91
f 94/94/94 95/95/95 93/93/93
f 94/94/94 96/96/96 95/95/95
f 98/98/98 99/99/99 97/97/97
f 98/98/98 100/100/100 99/99/99
f 102/102/102 103/103/103 101/101/101
f 102/102/102 104/104/104 103/103/103
f 106/106/106 107/107/107 105/105/105
f 106/106/106 108/108/108 107/107/107
f 110/110/110 111/111/111 109/109/109
f 110/110/110 112/112/112 111/111/111
f 114/114/114 115/115/115 113/113/113
f 114/114/114 116/116/116 115/115/115
f 118/118/118 119/119/119 117/117/117
f 118/118/118 120/120/120 119/119/119
f 122/122/122 123/123/123 121/121/121
f 122/122/122 124/124/124 123/123/123
f 126/126/126 127/127/127 125/125/125
f 126/126/126 128/128/128 127/127/127
f 130/130/130 131/131/131 129/129/129
f 130/130/130 132/132/132 131/131/131
f 134/134/134 135/135/135 133/133/133
f 134/134/134 136/136/136 135/135/135
f 138/138/138 139/139/139 137/137/137
f 138/138/138 140/140/140 139/139/139
f 142/142/142 143/143/143 141/141/141
f 142/142/142 144/144/144 143/143/143
f 146/146/146 147/147/147 145/145/145
f 146/146/146 148/148/148 147/147/147
f 150/150/150 151/151/151 149/149/149
f 150/150/150 152/152/152 151/151/151
f 154/154/154 155/155/155 153/153/153
f 154/154/154 156/156/156 155/155/155
f 158/158/158 159/159/159 157/157/157
f 158/158/158 160/160/160 159/159/159
f 162/162/162 163/163/163 161/161/161
f 162/162/162 164/164/164 163/163/163
f 166/166/166 167/167/167 165/165/165
f 166/166/166 168/168/168 167/167/167
f 170/170/170 171/171/171 169/169/169
f 170/170/170 172/172/172 171/171/171
f 174/174/174 175/175/175 173/173/173
f 174/174/174 176/176/176 175/175/175
f 178/178/178 179/179/179 177/177/177
f 178/178/178 180/180/180 179/179/179
f 182/182/182 183/183/183 181/181/181
f 182/182/182 184/184/184 183/183/183
f 186/186/186 187/187/187 185/185/185
f 186/186/186 188/188/188 187/187/187
f 190/190/190 191/191/191 189/189/189
f 190/190/190 192/192/192 191/191/191
f 194/194/194 195/195/195 193/193/193
f 194/194/194 196/196/196 195/195/195
f 198/198/198 199/199/199 197/197/197
f 198/198/198 200/200/200 199/199/199
f 202/202/202 203/203/203 201/201/201
f 202/202/202 204/204/204 203/203/203
f 206/206/206 207/207/207 205/205/205
f 206/206/206 208/208/208 207/207/207
f 210/210/210 211/211/211 209/209/209
f 210/210/210 212/212/212 211/211/211
f 214/214/214 215/215/215 213/213/213
f 214/214/214 216/216/216 215/215/215
f 218/218/218 219/219/219 217/217/217
f 218/218/218 220/220/220 219/219/219
