g Grass_2_Cluster13
v -94.1535 0.012043 -7.348812
v -95.18661 0.012043 -7.348812
v -94.1535 0.012043 -6.186571
v -95.18661 0.012043 -6.186571
v -96.34885 0.012043 -7.477949
v -97.25281 0.012043 -7.477949
v -96.34885 0.012043 -6.444847
v -97.25281 0.012043 -6.444847
v -92.34557 0.012043 -7.348812
v -93.24954 0.012043 -7.348812
v -92.34557 0.012043 -6.444847
v -93.24954 0.012043 -6.444847
v -94.79919 0.012043 -7.865362
v -95.70316 0.012043 -7.865362
v -94.79919 0.012043 -6.83226
v -95.70316 0.012043 -6.83226
v -96.73627 0.012043 -7.865362
v -97.76936 0.012043 -7.865362
v -96.73627 0.012043 -6.83226
v -97.76936 0.012043 -6.83226
v -95.31574 0.012043 -8.64019
v -96.34885 0.012043 -8.64019
v -95.31574 0.012043 -7.477949
v -96.34885 0.012043 -7.477949
v -95.96143 0.012043 -9.802429
v -96.99454 0.012043 -9.802429
v -95.96143 0.012043 -8.64019
v -96.99454 0.012043 -8.64019
v -93.63696 0.012043 -10.83553
v -94.54092 0.012043 -10.83553
v -93.63696 0.012043 -9.673292
v -94.54092 0.012043 -9.673292
v -99.18988 0.012043 -24.13673
v -100.223 0.012043 -24.13673
v -99.18988 0.012043 -23.10362
v -100.223 0.012043 -23.10362
v -98.15677 0.012043 -24.52414
v -99.18988 0.012043 -24.52414
v -98.15677 0.012043 -23.49104
v -99.18988 0.012043 -23.49104
v -99.06075 0.012043 -24.91155
v -100.0938 0.012043 -24.91155
v -99.06075 0.012043 -23.74931
v -100.0938 0.012043 -23.74931
v -96.8654 0.012043 -25.04069
v -97.64023 0.012043 -25.04069
v -96.8654 0.012043 -24.00759
v -97.64023 0.012043 -24.00759
v -99.06075 0.012043 -25.29897
v -99.96471 0.012043 -25.29897
v -99.06075 0.012043 -24.26586
v -99.96471 0.012043 -24.26586
v -96.99454 0.012043 -25.94466
v -97.8985 0.012043 -25.94466
v -96.99454 0.012043 -24.78242
v -97.8985 0.012043 -24.78242
v -98.67332 0.012043 -26.71948
v -99.57729 0.012043 -26.71948
v -98.67332 0.012043 -25.55724
v -99.57729 0.012043 -25.55724
v -98.02763 0.012043 -27.23603
v -98.93161 0.012043 -27.23603
v -98.02763 0.012043 -26.07379
v -98.93161 0.012043 -26.07379
v -92.21644 0.012043 -31.88499
v -93.1204 0.012043 -31.88499
v -92.21644 0.012043 -30.85189
v -93.1204 0.012043 -30.85189
vt 0.1347656 0.9185662
vt 0.2060202 0.9185662
vt 0.1347656 1
vt 0.2060202 1
vt 0.1347656 0.9185662
vt 0.2060202 0.9185662
vt 0.1347656 1
vt 0.2060202 1
vt 0.1347656 0.9185662
vt 0.2060202 0.9185662
vt 0.1347656 1
vt 0.2060202 1
vt 0.1347656 0.9185662
vt 0.2060202 0.9185662
vt 0.1347656 1
vt 0.2060202 1
vt 0.1347656 0.9185662
vt 0.2060202 0.9185662
vt 0.1347656 1
vt 0.2060202 1
vt 0.1347656 0.9185662
vt 0.2060202 0.9185662
vt 0.1347656 1
vt 0.2060202 1
vt 0.1347656 0.9185662
vt 0.2060202 0.9185662
vt 0.1347656 1
vt 0.2060202 1
vt 0.1347656 0.9185662
vt 0.2060202 0.9185662
vt 0.1347656 1
vt 0.2060202 1
vt 0.1347656 0.9185662
vt 0.2060202 0.9185662
vt 0.1347656 1
vt 0.2060202 1
vt 0.1347656 0.9185662
vt 0.2060202 0.9185662
vt 0.1347656 1
vt 0.2060202 1
vt 0.1347656 0.9185662
vt 0.2060202 0.9185662
vt 0.1347656 1
vt 0.2060202 1
vt 0.1347656 0.9185662
vt 0.2060202 0.9185662
vt 0.1347656 1
vt 0.2060202 1
vt 0.1347656 0.9185662
vt 0.2060202 0.9185662
vt 0.1347656 1
vt 0.2060202 1
vt 0.1347656 0.9185662
vt 0.2060202 0.9185662
vt 0.1347656 1
vt 0.2060202 1
vt 0.1347656 0.9185662
vt 0.2060202 0.9185662
vt 0.1347656 1
vt 0.2060202 1
vt 0.1347656 0.9185662
vt 0.2060202 0.9185662
vt 0.1347656 1
vt 0.2060202 1
vt 0.1347656 0.9185662
vt 0.2060202 0.9185662
vt 0.1347656 1
vt 0.2060202 1
vn 0 1 0
vn 0 1 0
vn 0 1 0
vn 0 1 0
vn 0 1 0
vn 0 1 0
vn 0 1 0
vn 0 1 0
vn 0 1 0
vn 0 1 0
vn 0 1 0
vn 0 1 0
vn 0 1 0
vn 0 1 0
vn 0 1 0
vn 0 1 0
vn 0 1 0
vn 0 1 0
vn 0 1 0
vn 0 1 0
vn 0 1 0
vn 0 1 0
vn 0 1 0
vn 0 1 0
vn 0 1 0
vn 0 1 0
vn 0 1 0
vn 0 1 0
vn 0 1 0
vn 0 1 0
vn 0 1 0
vn 0 1 0
vn 0 1 0
vn 0 1 0
vn 0 1 0
vn 0 1 0
vn 0 1 0
vn 0 1 0
vn 0 1 0
vn 0 1 0
vn 0 1 0
vn 0 1 0
vn 0 1 0
vn 0 1 0
vn 0 1 0
vn 0 1 0
vn 0 1 0
vn 0 1 0
vn 0 1 0
vn 0 1 0
vn 0 1 0
vn 0 1 0
vn 0 1 0
vn 0 1 0
vn 0 1 0
vn 0 1 0
vn 0 1 0
vn 0 1 0
vn 0 1 0
vn 0 1 0
vn 0 1 0
vn 0 1 0
vn 0 1 0
vn 0 1 0
vn 0 1 0
vn 0 1 0
vn 0 1 0
vn 0 1 0
g Grass_2_Cluster13_0
f 2/2/2 3/3/3 1/1/1
f 2/2/2 4/4/4 3/3/3
f 6/6/6 7/7/7 5/5/5
f 6/6/6 8/8/8 7/7/7
f 10/10/10 11/11/11 9/9/9
f 10/10/10 12/12/12 11/11/11
f 14/14/14 15/15/15 13/13/13
f 14/14/14 16/16/16 15/15/15
f 18/18/18 19/19/19 17/17/17
f 18/18/18 20/20/20 19/19/19
f 22/22/22 23/23/23 21/21/21
f 22/22/22 24/24/24 23/23/23
f 26/26/26 27/27/27 25/25/25
f 26/26/26 28/28/28 27/27/27
f 30/30/30 31/31/31 29/29/29
f 30/30/30 32/32/32 31/31/31
f 34/34/34 35/35/35 33/33/33
f 34/34/34 36/36/36 35/35/35
f 38/38/38 39/39/39 37/37/37
f 38/38/38 40/40/40 39/39/39
f 42/42/42 43/43/43 41/41/41
f 42/42/42 44/44/44 43/43/43
f 46/46/46 47/47/47 45/45/45
f 46/46/46 48/48/48 47/47/47
f 50/50/50 51/51/51 49/49/49
f 50/50/50 52/52/52 51/51/51
f 54/54/54 55/55/55 53/53/53
f 54/54/54 56/56/56 55/55/55
f 58/58/58 59/59/59 57/57/57
f 58/58/58 60/60/60 59/59/59
f 62/62/62 63/63/63 61/61/61
f 62/62/62 64/64/64 63/63/63
f 66/66/66 67/67/67 65/65/65
f 66/66/66 68/68/68 67/67/67
