g Grass_2_Cluster49
v 0.5078278 -0.03450394 51.47887
v -0.3599319 -0.03450394 51.47887
v 0.5078278 -0.03450394 52.50441
v -0.3599319 -0.03450394 52.50441
v 4.609966 -0.03450394 51.32109
v 3.742205 -0.03450394 51.32109
v 4.609966 -0.03450394 52.34663
v 3.742205 -0.03450394 52.34663
v 27.01394 -0.03450394 50.45333
v 26.0673 -0.03450394 50.45333
v 27.01394 -0.03450394 51.55776
v 26.0673 -0.03450394 51.55776
v 28.19725 -0.03450394 48.2445
v 27.32949 -0.03450394 48.2445
v 28.19725 -0.03450394 49.27003
v 27.32949 -0.03450394 49.27003
v 25.35731 -0.03450394 44.77346
v 24.48955 -0.03450394 44.77346
v 25.35731 -0.03450394 45.79899
v 24.48955 -0.03450394 45.79899
vt 0.1347656 0.9185662
vt 0.2060202 0.9185662
vt 0.1347656 1
vt 0.2060202 1
vt 0.1347656 0.9185662
vt 0.2060202 0.9185662
vt 0.1347656 1
vt 0.2060202 1
vt 0.1347656 0.9185662
vt 0.2060202 0.9185662
vt 0.1347656 1
vt 0.2060202 1
vt 0.1347656 0.9185662
vt 0.2060202 0.9185662
vt 0.1347656 1
vt 0.2060202 1
vt 0.1347656 0.9185662
vt 0.2060202 0.9185662
vt 0.1347656 1
vt 0.2060202 1
vn 0 1 0
vn 0 1 0
vn 0 1 0
vn 0 1 0
vn 0 1 0
vn 0 1 0
vn 0 1 0
vn 0 1 0
vn 0 1 0
vn 0 1 0
vn 0 1 0
vn 0 1 0
vn 0 1 0
vn 0 1 0
vn 0 1 0
vn 0 1 0
vn 0 1 0
vn 0 1 0
vn 0 1 0
vn 0 1 0
g Grass_2_Cluster49_0
f 2/2/2 3/3/3 1/1/1
f 2/2/2 4/4/4 3/3/3
f 6/6/6 7/7/7 5/5/5
f 6/6/6 8/8/8 7/7/7
f 10/10/10 11/11/11 9/9/9
f 10/10/10 12/12/12 11/11/11
f 14/14/14 15/15/15 13/13/13
f 14/14/14 16/16/16 15/15/15
f 18/18/18 19/19/19 17/17/17
f 18/18/18 20/20/20 19/19/19
