g Grass_1_Cluster264
v 151.6031 -0.1812744 379.7398
v 151.0564 -0.1812744 379.7398
v 151.6031 -0.1812744 380.8332
v 151.0564 -0.1812744 380.8332
v 173.469 -0.1812744 370.9934
v 172.3757 -0.1812744 370.9934
v 173.469 -0.1812744 372.0868
v 172.3757 -0.1812744 372.0868
v 175.109 -0.1812744 361.7004
v 174.5623 -0.1812744 361.7004
v 175.109 -0.1812744 362.247
v 174.5623 -0.1812744 362.247
v 178.3889 -0.1812744 360.6071
v 177.2956 -0.1812744 360.6071
v 178.3889 -0.1812744 361.1538
v 177.2956 -0.1812744 361.1538
v 176.2023 -0.1812744 357.8739
v 175.6556 -0.1812744 357.8739
v 176.2023 -0.1812744 358.4205
v 175.6556 -0.1812744 358.4205
vt 0.06738281 0.9369141
vt 0.1331457 0.9369141
vt 0.06738281 0.9990234
vt 0.1331457 0.9990234
vt 0.06738281 0.9369141
vt 0.1331457 0.9369141
vt 0.06738281 0.9990234
vt 0.1331457 0.9990234
vt 0.06738281 0.9369141
vt 0.1331457 0.9369141
vt 0.06738281 0.9990234
vt 0.1331457 0.9990234
vt 0.06738281 0.9369141
vt 0.1331457 0.9369141
vt 0.06738281 0.9990234
vt 0.1331457 0.9990234
vt 0.06738281 0.9369141
vt 0.1331457 0.9369141
vt 0.06738281 0.9990234
vt 0.1331457 0.9990234
vn 0 1 0
vn 0 1 0
vn 0 1 0
vn 0 1 0
vn 0 1 0
vn 0 1 0
vn 0 1 0
vn 0 1 0
vn 0 1 0
vn 0 1 0
vn 0 1 0
vn 0 1 0
vn 0 1 0
vn 0 1 0
vn 0 1 0
vn 0 1 0
vn 0 1 0
vn 0 1 0
vn 0 1 0
vn 0 1 0
g Grass_1_Cluster264_0
f 2/2/2 3/3/3 1/1/1
f 2/2/2 4/4/4 3/3/3
f 6/6/6 7/7/7 5/5/5
f 6/6/6 8/8/8 7/7/7
f 10/10/10 11/11/11 9/9/9
f 10/10/10 12/12/12 11/11/11
f 14/14/14 15/15/15 13/13/13
f 14/14/14 16/16/16 15/15/15
f 18/18/18 19/19/19 17/17/17
f 18/18/18 20/20/20 19/19/19
