g Grass_2_Cluster123
v 191.8233 -0.06549072 172.9293
v 190.6975 -0.06549072 172.9293
v 191.8233 -0.06549072 174.0551
v 190.6975 -0.06549072 174.0551
v 192.5738 -0.06549072 172.9293
v 191.8233 -0.06549072 172.9293
v 192.5738 -0.06549072 173.6798
v 191.8233 -0.06549072 173.6798
v 194.0748 -0.06549072 171.053
v 193.3243 -0.06549072 171.053
v 194.0748 -0.06549072 172.1788
v 193.3243 -0.06549072 172.1788
v 194.8253 -0.06549072 169.9272
v 193.6996 -0.06549072 169.9272
v 194.8253 -0.06549072 171.053
v 193.6996 -0.06549072 171.053
v 198.5779 -0.06549072 167.6756
v 197.4521 -0.06549072 167.6756
v 198.5779 -0.06549072 168.8014
v 197.4521 -0.06549072 168.8014
v 204.5821 -0.06549072 164.6736
v 203.8316 -0.06549072 164.6736
v 204.5821 -0.06549072 165.7993
v 203.8316 -0.06549072 165.7993
v 203.8316 -0.06549072 164.2983
v 202.7058 -0.06549072 164.2983
v 203.8316 -0.06549072 165.4241
v 202.7058 -0.06549072 165.4241
v 206.0831 -0.06549072 163.1725
v 205.3326 -0.06549072 163.1725
v 206.0831 -0.06549072 164.2983
v 205.3326 -0.06549072 164.2983
v 203.8316 -0.06549072 162.0468
v 203.0811 -0.06549072 162.0468
v 203.8316 -0.06549072 163.1725
v 203.0811 -0.06549072 163.1725
v 197.8274 -0.06549072 149.6632
v 197.0769 -0.06549072 149.6632
v 197.8274 -0.06549072 150.7889
v 197.0769 -0.06549072 150.7889
v 198.2027 -0.06549072 147.0363
v 197.4521 -0.06549072 147.0363
v 198.2027 -0.06549072 148.5374
v 197.4521 -0.06549072 148.5374
v 209.8357 -0.06549072 145.5353
v 208.7099 -0.06549072 145.5353
v 209.8357 -0.06549072 146.6611
v 208.7099 -0.06549072 146.6611
v 208.7099 -0.06549072 145.1601
v 207.9594 -0.06549072 145.1601
v 208.7099 -0.06549072 146.2858
v 207.9594 -0.06549072 146.2858
v 209.8357 -0.06549072 145.1601
v 208.7099 -0.06549072 145.1601
v 209.8357 -0.06549072 146.2858
v 208.7099 -0.06549072 146.2858
v 206.4584 -0.06549072 144.0343
v 205.7079 -0.06549072 144.0343
v 206.4584 -0.06549072 145.1601
v 205.7079 -0.06549072 145.1601
vt 0.1347656 0.9185662
vt 0.2060202 0.9185662
vt 0.1347656 1
vt 0.2060202 1
vt 0.1347656 0.9185662
vt 0.2060202 0.9185662
vt 0.1347656 1
vt 0.2060202 1
vt 0.1347656 0.9185662
vt 0.2060202 0.9185662
vt 0.1347656 1
vt 0.2060202 1
vt 0.1347656 0.9185662
vt 0.2060202 0.9185662
vt 0.1347656 1
vt 0.2060202 1
vt 0.1347656 0.9185662
vt 0.2060202 0.9185662
vt 0.1347656 1
vt 0.2060202 1
vt 0.1347656 0.9185662
vt 0.2060202 0.9185662
vt 0.1347656 1
vt 0.2060202 1
vt 0.1347656 0.9185662
vt 0.2060202 0.9185662
vt 0.1347656 1
vt 0.2060202 1
vt 0.1347656 0.9185662
vt 0.2060202 0.9185662
vt 0.1347656 1
vt 0.2060202 1
vt 0.1347656 0.9185662
vt 0.2060202 0.9185662
vt 0.1347656 1
vt 0.2060202 1
vt 0.1347656 0.9185662
vt 0.2060202 0.9185662
vt 0.1347656 1
vt 0.2060202 1
vt 0.1347656 0.9185662
vt 0.2060202 0.9185662
vt 0.1347656 1
vt 0.2060202 1
vt 0.1347656 0.9185662
vt 0.2060202 0.9185662
vt 0.1347656 1
vt 0.2060202 1
vt 0.1347656 0.9185662
vt 0.2060202 0.9185662
vt 0.1347656 1
vt 0.2060202 1
vt 0.1347656 0.9185662
vt 0.2060202 0.9185662
vt 0.1347656 1
vt 0.2060202 1
vt 0.1347656 0.9185662
vt 0.2060202 0.9185662
vt 0.1347656 1
vt 0.2060202 1
vn 0 1 0
vn 0 1 0
vn 0 1 0
vn 0 1 0
vn 0 1 0
vn 0 1 0
vn 0 1 0
vn 0 1 0
vn 0 1 0
vn 0 1 0
vn 0 1 0
vn 0 1 0
vn 0 1 0
vn 0 1 0
vn 0 1 0
vn 0 1 0
vn 0 1 0
vn 0 1 0
vn 0 1 0
vn 0 1 0
vn 0 1 0
vn 0 1 0
vn 0 1 0
vn 0 1 0
vn 0 1 0
vn 0 1 0
vn 0 1 0
vn 0 1 0
vn 0 1 0
vn 0 1 0
vn 0 1 0
vn 0 1 0
vn 0 1 0
vn 0 1 0
vn 0 1 0
vn 0 1 0
vn 0 1 0
vn 0 1 0
vn 0 1 0
vn 0 1 0
vn 0 1 0
vn 0 1 0
vn 0 1 0
vn 0 1 0
vn 0 1 0
vn 0 1 0
vn 0 1 0
vn 0 1 0
vn 0 1 0
vn 0 1 0
vn 0 1 0
vn 0 1 0
vn 0 1 0
vn 0 1 0
vn 0 1 0
vn 0 1 0
vn 0 1 0
vn 0 1 0
vn 0 1 0
vn 0 1 0
g Grass_2_Cluster123_0
f 2/2/2 3/3/3 1/1/1
f 2/2/2 4/4/4 3/3/3
f 6/6/6 7/7/7 5/5/5
f 6/6/6 8/8/8 7/7/7
f 10/10/10 11/11/11 9/9/9
f 10/10/10 12/12/12 11/11/11
f 14/14/14 15/15/15 13/13/13
f 14/14/14 16/16/16 15/15/15
f 18/18/18 19/19/19 17/17/17
f 18/18/18 20/20/20 19/19/19
f 22/22/22 23/23/23 21/21/21
f 22/22/22 24/24/24 23/23/23
f 26/26/26 27/27/27 25/25/25
f 26/26/26 28/28/28 27/27/27
f 30/30/30 31/31/31 29/29/29
f 30/30/30 32/32/32 31/31/31
f 34/34/34 35/35/35 33/33/33
f 34/34/34 36/36/36 35/35/35
f 38/38/38 39/39/39 37/37/37
f 38/38/38 40/40/40 39/39/39
f 42/42/42 43/43/43 41/41/41
f 42/42/42 44/44/44 43/43/43
f 46/46/46 47/47/47 45/45/45
f 46/46/46 48/48/48 47/47/47
f 50/50/50 51/51/51 49/49/49
f 50/50/50 52/52/52 51/51/51
f 54/54/54 55/55/55 53/53/53
f 54/54/54 56/56/56 55/55/55
f 58/58/58 59/59/59 57/57/57
f 58/58/58 60/60/60 59/59/59
