g Grass_1_Cluster220
v 277.2591 -0.1091614 312.9566
v 276.6606 -0.1091614 312.9566
v 277.2591 -0.1091614 313.5552
v 276.6606 -0.1091614 313.5552
v 281.4493 -0.1091614 311.1608
v 280.2521 -0.1091614 311.1608
v 281.4493 -0.1091614 311.7594
v 280.2521 -0.1091614 311.7594
v 283.8437 -0.1091614 310.5622
v 282.6465 -0.1091614 310.5622
v 283.8437 -0.1091614 311.7594
v 282.6465 -0.1091614 311.7594
v 274.8647 -0.1091614 309.9636
v 273.6676 -0.1091614 309.9636
v 274.8647 -0.1091614 311.1608
v 273.6676 -0.1091614 311.1608
v 280.2521 -0.1091614 309.9636
v 279.6535 -0.1091614 309.9636
v 280.2521 -0.1091614 310.5622
v 279.6535 -0.1091614 310.5622
v 278.4563 -0.1091614 309.9636
v 277.8577 -0.1091614 309.9636
v 278.4563 -0.1091614 310.5622
v 277.8577 -0.1091614 310.5622
v 298.8086 -0.1091614 309.365
v 298.21 -0.1091614 309.365
v 298.8086 -0.1091614 309.9636
v 298.21 -0.1091614 309.9636
v 282.6465 -0.1091614 308.7664
v 282.0479 -0.1091614 308.7664
v 282.6465 -0.1091614 309.9636
v 282.0479 -0.1091614 309.9636
v 276.6606 -0.1091614 308.7664
v 275.4633 -0.1091614 308.7664
v 276.6606 -0.1091614 309.365
v 275.4633 -0.1091614 309.365
v 277.2591 -0.1091614 308.1678
v 276.062 -0.1091614 308.1678
v 277.2591 -0.1091614 308.7664
v 276.062 -0.1091614 308.7664
v 280.2521 -0.1091614 307.5692
v 279.6535 -0.1091614 307.5692
v 280.2521 -0.1091614 308.1678
v 279.6535 -0.1091614 308.1678
v 295.8156 -0.1091614 307.5692
v 295.217 -0.1091614 307.5692
v 295.8156 -0.1091614 308.1678
v 295.217 -0.1091614 308.1678
v 281.4493 -0.1091614 306.9706
v 280.8507 -0.1091614 306.9706
v 281.4493 -0.1091614 308.1678
v 280.8507 -0.1091614 308.1678
v 286.8367 -0.1091614 295.5973
v 285.6395 -0.1091614 295.5973
v 286.8367 -0.1091614 296.7945
v 285.6395 -0.1091614 296.7945
vt 0.06738281 0.9369141
vt 0.1331457 0.9369141
vt 0.06738281 0.9990234
vt 0.1331457 0.9990234
vt 0.06738281 0.9369141
vt 0.1331457 0.9369141
vt 0.06738281 0.9990234
vt 0.1331457 0.9990234
vt 0.06738281 0.9369141
vt 0.1331457 0.9369141
vt 0.06738281 0.9990234
vt 0.1331457 0.9990234
vt 0.06738281 0.9369141
vt 0.1331457 0.9369141
vt 0.06738281 0.9990234
vt 0.1331457 0.9990234
vt 0.06738281 0.9369141
vt 0.1331457 0.9369141
vt 0.06738281 0.9990234
vt 0.1331457 0.9990234
vt 0.06738281 0.9369141
vt 0.1331457 0.9369141
vt 0.06738281 0.9990234
vt 0.1331457 0.9990234
vt 0.06738281 0.9369141
vt 0.1331457 0.9369141
vt 0.06738281 0.9990234
vt 0.1331457 0.9990234
vt 0.06738281 0.9369141
vt 0.1331457 0.9369141
vt 0.06738281 0.9990234
vt 0.1331457 0.9990234
vt 0.06738281 0.9369141
vt 0.1331457 0.9369141
vt 0.06738281 0.9990234
vt 0.1331457 0.9990234
vt 0.06738281 0.9369141
vt 0.1331457 0.9369141
vt 0.06738281 0.9990234
vt 0.1331457 0.9990234
vt 0.06738281 0.9369141
vt 0.1331457 0.9369141
vt 0.06738281 0.9990234
vt 0.1331457 0.9990234
vt 0.06738281 0.9369141
vt 0.1331457 0.9369141
vt 0.06738281 0.9990234
vt 0.1331457 0.9990234
vt 0.06738281 0.9369141
vt 0.1331457 0.9369141
vt 0.06738281 0.9990234
vt 0.1331457 0.9990234
vt 0.06738281 0.9369141
vt 0.1331457 0.9369141
vt 0.06738281 0.9990234
vt 0.1331457 0.9990234
vn 0 1 0
vn 0 1 0
vn 0 1 0
vn 0 1 0
vn 0 1 0
vn 0 1 0
vn 0 1 0
vn 0 1 0
vn 0 1 0
vn 0 1 0
vn 0 1 0
vn 0 1 0
vn 0 1 0
vn 0 1 0
vn 0 1 0
vn 0 1 0
vn 0 1 0
vn 0 1 0
vn 0 1 0
vn 0 1 0
vn 0 1 0
vn 0 1 0
vn 0 1 0
vn 0 1 0
vn 0 1 0
vn 0 1 0
vn 0 1 0
vn 0 1 0
vn 0 1 0
vn 0 1 0
vn 0 1 0
vn 0 1 0
vn 0 1 0
vn 0 1 0
vn 0 1 0
vn 0 1 0
vn 0 1 0
vn 0 1 0
vn 0 1 0
vn 0 1 0
vn 0 1 0
vn 0 1 0
vn 0 1 0
vn 0 1 0
vn 0 1 0
vn 0 1 0
vn 0 1 0
vn 0 1 0
vn 0 1 0
vn 0 1 0
vn 0 1 0
vn 0 1 0
vn 0 1 0
vn 0 1 0
vn 0 1 0
vn 0 1 0
g Grass_1_Cluster220_0
f 2/2/2 3/3/3 1/1/1
f 2/2/2 4/4/4 3/3/3
f 6/6/6 7/7/7 5/5/5
f 6/6/6 8/8/8 7/7/7
f 10/10/10 11/11/11 9/9/9
f 10/10/10 12/12/12 11/11/11
f 14/14/14 15/15/15 13/13/13
f 14/14/14 16/16/16 15/15/15
f 18/18/18 19/19/19 17/17/17
f 18/18/18 20/20/20 19/19/19
f 22/22/22 23/23/23 21/21/21
f 22/22/22 24/24/24 23/23/23
f 26/26/26 27/27/27 25/25/25
f 26/26/26 28/28/28 27/27/27
f 30/30/30 31/31/31 29/29/29
f 30/30/30 32/32/32 31/31/31
f 34/34/34 35/35/35 33/33/33
f 34/34/34 36/36/36 35/35/35
f 38/38/38 39/39/39 37/37/37
f 38/38/38 40/40/40 39/39/39
f 42/42/42 43/43/43 41/41/41
f 42/42/42 44/44/44 43/43/43
f 46/46/46 47/47/47 45/45/45
f 46/46/46 48/48/48 47/47/47
f 50/50/50 51/51/51 49/49/49
f 50/50/50 52/52/52 51/51/51
f 54/54/54 55/55/55 53/53/53
f 54/54/54 56/56/56 55/55/55
