g Grass_2_Cluster97
v -238.5195 0 113.0446
v -239.4576 0 113.0446
v -238.5195 0 113.9828
v -239.4576 0 113.9828
v -213.19 0 112.8101
v -214.1281 0 112.8101
v -213.19 0 113.9828
v -214.1281 0 113.9828
v -232.6562 0 112.8101
v -233.5943 0 112.8101
v -232.6562 0 113.9828
v -233.5943 0 113.9828
v -214.3626 0 112.341
v -215.3008 0 112.341
v -214.3626 0 113.5137
v -215.3008 0 113.5137
v -213.6591 0 112.1065
v -214.5972 0 112.1065
v -213.6591 0 113.2792
v -214.5972 0 113.2792
v -234.767 0 111.872
v -235.7051 0 111.872
v -234.767 0 113.0446
v -235.7051 0 113.0446
v -214.1281 0 111.6374
v -215.0662 0 111.6374
v -214.1281 0 112.5756
v -215.0662 0 112.5756
v -234.2979 0 111.4029
v -235.236 0 111.4029
v -234.2979 0 112.5756
v -235.236 0 112.5756
v -215.3008 0 110.6993
v -216.2389 0 110.6993
v -215.3008 0 111.872
v -216.2389 0 111.872
v -213.8936 0 110.4648
v -214.8317 0 110.4648
v -213.8936 0 111.6374
v -214.8317 0 111.6374
v -214.8317 0 110.4648
v -215.7698 0 110.4648
v -214.8317 0 111.4029
v -215.7698 0 111.4029
v -231.4835 0 110.4648
v -232.4216 0 110.4648
v -231.4835 0 111.6374
v -232.4216 0 111.6374
v -213.6591 0 109.2921
v -214.5972 0 109.2921
v -213.6591 0 110.4648
v -214.5972 0 110.4648
v -214.5972 0 108.354
v -215.5353 0 108.354
v -214.5972 0 109.5266
v -215.5353 0 109.5266
v -214.3626 0 107.6504
v -215.3008 0 107.6504
v -214.3626 0 108.8231
v -215.3008 0 108.8231
v -213.4245 0 106.7123
v -214.3626 0 106.7123
v -213.4245 0 107.8849
v -214.3626 0 107.8849
v -215.5353 0 106.7123
v -216.4734 0 106.7123
v -215.5353 0 107.8849
v -216.4734 0 107.8849
v -212.7209 0 106.4777
v -213.6591 0 106.4777
v -212.7209 0 107.6504
v -213.6591 0 107.6504
v -215.0662 0 105.7741
v -216.0044 0 105.7741
v -215.0662 0 106.9468
v -216.0044 0 106.9468
v -216.2389 0 105.7741
v -217.177 0 105.7741
v -216.2389 0 106.7123
v -217.177 0 106.7123
v -215.0662 0 105.7741
v -216.0044 0 105.7741
v -215.0662 0 106.7123
v -216.0044 0 106.7123
v -215.3008 0 105.5396
v -216.2389 0 105.5396
v -215.3008 0 106.7123
v -216.2389 0 106.7123
v -213.8936 0 105.3051
v -214.8317 0 105.3051
v -213.8936 0 106.4777
v -214.8317 0 106.4777
v -213.8936 0 103.8979
v -214.8317 0 103.8979
v -213.8936 0 104.836
v -214.8317 0 104.836
v -234.0634 0 91.46765
v -234.767 0 91.46765
v -234.0634 0 92.40578
v -234.767 0 92.40578
v -234.2979 0 91.23312
v -235.236 0 91.23312
v -234.2979 0 92.40578
v -235.236 0 92.40578
v -233.5943 0 90.06046
v -234.5324 0 90.06046
v -233.5943 0 90.99859
v -234.5324 0 90.99859
v -235.4706 0 90.06046
v -236.6432 0 90.06046
v -235.4706 0 91.23312
v -236.6432 0 91.23312
v -232.6562 0 89.35686
v -233.5943 0 89.35686
v -232.6562 0 90.29499
v -233.5943 0 90.29499
v -234.767 0 89.12233
v -235.7051 0 89.12233
v -234.767 0 90.06046
v -235.7051 0 90.06046
v -234.767 0 88.41873
v -235.7051 0 88.41873
v -234.767 0 89.59139
v -235.7051 0 89.59139
v -236.1742 0 88.1842
v -237.1123 0 88.1842
v -236.1742 0 89.35686
v -237.1123 0 89.35686
v -235.4706 0 87.4806
v -236.4087 0 87.4806
v -235.4706 0 88.65326
v -236.4087 0 88.65326
v -233.3598 0 87.4806
v -234.2979 0 87.4806
v -233.3598 0 88.41873
v -234.2979 0 88.41873
v -234.2979 0 87.01154
v -235.236 0 87.01154
v -234.2979 0 88.1842
v -235.236 0 88.1842
v -236.4087 0 87.01154
v -237.3468 0 87.01154
v -236.4087 0 88.1842
v -237.3468 0 88.1842
v -234.2979 0 86.30794
v -235.236 0 86.30794
v -234.2979 0 87.4806
v -235.236 0 87.4806
v -238.0504 0 85.83887
v -238.9886 0 85.83887
v -238.0504 0 86.777
v -238.9886 0 86.777
v -236.6432 0 85.60434
v -237.5814 0 85.60434
v -236.6432 0 86.54247
v -237.5814 0 86.54247
v -238.9886 0 85.3698
v -239.9267 0 85.3698
v -238.9886 0 86.54247
v -239.9267 0 86.54247
v -237.1123 0 84.90074
v -238.0504 0 84.90074
v -237.1123 0 85.83887
v -238.0504 0 85.83887
v -237.5814 0 84.66621
v -238.5195 0 84.66621
v -237.5814 0 85.60434
v -238.5195 0 85.60434
vt 0.1347656 0.9185662
vt 0.2060202 0.9185662
vt 0.1347656 1
vt 0.2060202 1
vt 0.1347656 0.9185662
vt 0.2060202 0.9185662
vt 0.1347656 1
vt 0.2060202 1
vt 0.1347656 0.9185662
vt 0.2060202 0.9185662
vt 0.1347656 1
vt 0.2060202 1
vt 0.1347656 0.9185662
vt 0.2060202 0.9185662
vt 0.1347656 1
vt 0.2060202 1
vt 0.1347656 0.9185662
vt 0.2060202 0.9185662
vt 0.1347656 1
vt 0.2060202 1
vt 0.1347656 0.9185662
vt 0.2060202 0.9185662
vt 0.1347656 1
vt 0.2060202 1
vt 0.1347656 0.9185662
vt 0.2060202 0.9185662
vt 0.1347656 1
vt 0.2060202 1
vt 0.1347656 0.9185662
vt 0.2060202 0.9185662
vt 0.1347656 1
vt 0.2060202 1
vt 0.1347656 0.9185662
vt 0.2060202 0.9185662
vt 0.1347656 1
vt 0.2060202 1
vt 0.1347656 0.9185662
vt 0.2060202 0.9185662
vt 0.1347656 1
vt 0.2060202 1
vt 0.1347656 0.9185662
vt 0.2060202 0.9185662
vt 0.1347656 1
vt 0.2060202 1
vt 0.1347656 0.9185662
vt 0.2060202 0.9185662
vt 0.1347656 1
vt 0.2060202 1
vt 0.1347656 0.9185662
vt 0.2060202 0.9185662
vt 0.1347656 1
vt 0.2060202 1
vt 0.1347656 0.9185662
vt 0.2060202 0.9185662
vt 0.1347656 1
vt 0.2060202 1
vt 0.1347656 0.9185662
vt 0.2060202 0.9185662
vt 0.1347656 1
vt 0.2060202 1
vt 0.1347656 0.9185662
vt 0.2060202 0.9185662
vt 0.1347656 1
vt 0.2060202 1
vt 0.1347656 0.9185662
vt 0.2060202 0.9185662
vt 0.1347656 1
vt 0.2060202 1
vt 0.1347656 0.9185662
vt 0.2060202 0.9185662
vt 0.1347656 1
vt 0.2060202 1
vt 0.1347656 0.9185662
vt 0.2060202 0.9185662
vt 0.1347656 1
vt 0.2060202 1
vt 0.1347656 0.9185662
vt 0.2060202 0.9185662
vt 0.1347656 1
vt 0.2060202 1
vt 0.1347656 0.9185662
vt 0.2060202 0.9185662
vt 0.1347656 1
vt 0.2060202 1
vt 0.1347656 0.9185662
vt 0.2060202 0.9185662
vt 0.1347656 1
vt 0.2060202 1
vt 0.1347656 0.9185662
vt 0.2060202 0.9185662
vt 0.1347656 1
vt 0.2060202 1
vt 0.1347656 0.9185662
vt 0.2060202 0.9185662
vt 0.1347656 1
vt 0.2060202 1
vt 0.1347656 0.9185662
vt 0.2060202 0.9185662
vt 0.1347656 1
vt 0.2060202 1
vt 0.1347656 0.9185662
vt 0.2060202 0.9185662
vt 0.1347656 1
vt 0.2060202 1
vt 0.1347656 0.9185662
vt 0.2060202 0.9185662
vt 0.1347656 1
vt 0.2060202 1
vt 0.1347656 0.9185662
vt 0.2060202 0.9185662
vt 0.1347656 1
vt 0.2060202 1
vt 0.1347656 0.9185662
vt 0.2060202 0.9185662
vt 0.1347656 1
vt 0.2060202 1
vt 0.1347656 0.9185662
vt 0.2060202 0.9185662
vt 0.1347656 1
vt 0.2060202 1
vt 0.1347656 0.9185662
vt 0.2060202 0.9185662
vt 0.1347656 1
vt 0.2060202 1
vt 0.1347656 0.9185662
vt 0.2060202 0.9185662
vt 0.1347656 1
vt 0.2060202 1
vt 0.1347656 0.9185662
vt 0.2060202 0.9185662
vt 0.1347656 1
vt 0.2060202 1
vt 0.1347656 0.9185662
vt 0.2060202 0.9185662
vt 0.1347656 1
vt 0.2060202 1
vt 0.1347656 0.9185662
vt 0.2060202 0.9185662
vt 0.1347656 1
vt 0.2060202 1
vt 0.1347656 0.9185662
vt 0.2060202 0.9185662
vt 0.1347656 1
vt 0.2060202 1
vt 0.1347656 0.9185662
vt 0.2060202 0.9185662
vt 0.1347656 1
vt 0.2060202 1
vt 0.1347656 0.9185662
vt 0.2060202 0.9185662
vt 0.1347656 1
vt 0.2060202 1
vt 0.1347656 0.9185662
vt 0.2060202 0.9185662
vt 0.1347656 1
vt 0.2060202 1
vt 0.1347656 0.9185662
vt 0.2060202 0.9185662
vt 0.1347656 1
vt 0.2060202 1
vt 0.1347656 0.9185662
vt 0.2060202 0.9185662
vt 0.1347656 1
vt 0.2060202 1
vt 0.1347656 0.9185662
vt 0.2060202 0.9185662
vt 0.1347656 1
vt 0.2060202 1
vn 0 1 0
vn 0 1 0
vn 0 1 0
vn 0 1 0
vn 0 1 0
vn 0 1 0
vn 0 1 0
vn 0 1 0
vn 0 1 0
vn 0 1 0
vn 0 1 0
vn 0 1 0
vn 0 1 0
vn 0 1 0
vn 0 1 0
vn 0 1 0
vn 0 1 0
vn 0 1 0
vn 0 1 0
vn 0 1 0
vn 0 1 0
vn 0 1 0
vn 0 1 0
vn 0 1 0
vn 0 1 0
vn 0 1 0
vn 0 1 0
vn 0 1 0
vn 0 1 0
vn 0 1 0
vn 0 1 0
vn 0 1 0
vn 0 1 0
vn 0 1 0
vn 0 1 0
vn 0 1 0
vn 0 1 0
vn 0 1 0
vn 0 1 0
vn 0 1 0
vn 0 1 0
vn 0 1 0
vn 0 1 0
vn 0 1 0
vn 0 1 0
vn 0 1 0
vn 0 1 0
vn 0 1 0
vn 0 1 0
vn 0 1 0
vn 0 1 0
vn 0 1 0
vn 0 1 0
vn 0 1 0
vn 0 1 0
vn 0 1 0
vn 0 1 0
vn 0 1 0
vn 0 1 0
vn 0 1 0
vn 0 1 0
vn 0 1 0
vn 0 1 0
vn 0 1 0
vn 0 1 0
vn 0 1 0
vn 0 1 0
vn 0 1 0
vn 0 1 0
vn 0 1 0
vn 0 1 0
vn 0 1 0
vn 0 1 0
vn 0 1 0
vn 0 1 0
vn 0 1 0
vn 0 1 0
vn 0 1 0
vn 0 1 0
vn 0 1 0
vn 0 1 0
vn 0 1 0
vn 0 1 0
vn 0 1 0
vn 0 1 0
vn 0 1 0
vn 0 1 0
vn 0 1 0
vn 0 1 0
vn 0 1 0
vn 0 1 0
vn 0 1 0
vn 0 1 0
vn 0 1 0
vn 0 1 0
vn 0 1 0
vn 0 1 0
vn 0 1 0
vn 0 1 0
vn 0 1 0
vn 0 1 0
vn 0 1 0
vn 0 1 0
vn 0 1 0
vn 0 1 0
vn 0 1 0
vn 0 1 0
vn 0 1 0
vn 0 1 0
vn 0 1 0
vn 0 1 0
vn 0 1 0
vn 0 1 0
vn 0 1 0
vn 0 1 0
vn 0 1 0
vn 0 1 0
vn 0 1 0
vn 0 1 0
vn 0 1 0
vn 0 1 0
vn 0 1 0
vn 0 1 0
vn 0 1 0
vn 0 1 0
vn 0 1 0
vn 0 1 0
vn 0 1 0
vn 0 1 0
vn 0 1 0
vn 0 1 0
vn 0 1 0
vn 0 1 0
vn 0 1 0
vn 0 1 0
vn 0 1 0
vn 0 1 0
vn 0 1 0
vn 0 1 0
vn 0 1 0
vn 0 1 0
vn 0 1 0
vn 0 1 0
vn 0 1 0
vn 0 1 0
vn 0 1 0
vn 0 1 0
vn 0 1 0
vn 0 1 0
vn 0 1 0
vn 0 1 0
vn 0 1 0
vn 0 1 0
vn 0 1 0
vn 0 1 0
vn 0 1 0
vn 0 1 0
vn 0 1 0
vn 0 1 0
vn 0 1 0
vn 0 1 0
vn 0 1 0
vn 0 1 0
vn 0 1 0
vn 0 1 0
vn 0 1 0
vn 0 1 0
vn 0 1 0
g Grass_2_Cluster97_0
f 2/2/2 3/3/3 1/1/1
f 2/2/2 4/4/4 3/3/3
f 6/6/6 7/7/7 5/5/5
f 6/6/6 8/8/8 7/7/7
f 10/10/10 11/11/11 9/9/9
f 10/10/10 12/12/12 11/11/11
f 14/14/14 15/15/15 13/13/13
f 14/14/14 16/16/16 15/15/15
f 18/18/18 19/19/19 17/17/17
f 18/18/18 20/20/20 19/19/19
f 22/22/22 23/23/23 21/21/21
f 22/22/22 24/24/24 23/23/23
f 26/26/26 27/27/27 25/25/25
f 26/26/26 28/28/28 27/27/27
f 30/30/30 31/31/31 29/29/29
f 30/30/30 32/32/32 31/31/31
f 34/34/34 35/35/35 33/33/33
f 34/34/34 36/36/36 35/35/35
f 38/38/38 39/39/39 37/37/37
f 38/38/38 40/40/40 39/39/39
f 42/42/42 43/43/43 41/41/41
f 42/42/42 44/44/44 43/43/43
f 46/46/46 47/47/47 45/45/45
f 46/46/46 48/48/48 47/47/47
f 50/50/50 51/51/51 49/49/49
f 50/50/50 52/52/52 51/51/51
f 54/54/54 55/55/55 53/53/53
f 54/54/54 56/56/56 55/55/55
f 58/58/58 59/59/59 57/57/57
f 58/58/58 60/60/60 59/59/59
f 62/62/62 63/63/63 61/61/61
f 62/62/62 64/64/64 63/63/63
f 66/66/66 67/67/67 65/65/65
f 66/66/66 68/68/68 67/67/67
f 70/70/70 71/71/71 69/69/69
f 70/70/70 72/72/72 71/71/71
f 74/74/74 75/75/75 73/73/73
f 74/74/74 76/76/76 75/75/75
f 78/78/78 79/79/79 77/77/77
f 78/78/78 80/80/80 79/79/79
f 82/82/82 83/83/83 81/81/81
f 82/82/82 84/84/84 83/83/83
f 86/86/86 87/87/87 85/85/85
f 86/86/86 88/88/88 87/87/87
f 90/90/90 91/91/91 89/89/89
f 90/90/90 92/92/92 91/91/91
f 94/94/94 95/95/95 93/93/93
f 94/94/94 96/96/96 95/95/95
f 98/98/98 99/99/99 97/97/97
f 98/98/98 100/100/100 99/99/99
f 102/102/102 103/103/103 101/101/101
f 102/102/102 104/104/104 103/103/103
f 106/106/106 107/107/107 105/105/105
f 106/106/106 108/108/108 107/107/107
f 110/110/110 111/111/111 109/109/109
f 110/110/110 112/112/112 111/111/111
f 114/114/114 115/115/115 113/113/113
f 114/114/114 116/116/116 115/115/115
f 118/118/118 119/119/119 117/117/117
f 118/118/118 120/120/120 119/119/119
f 122/122/122 123/123/123 121/121/121
f 122/122/122 124/124/124 123/123/123
f 126/126/126 127/127/127 125/125/125
f 126/126/126 128/128/128 127/127/127
f 130/130/130 131/131/131 129/129/129
f 130/130/130 132/132/132 131/131/131
f 134/134/134 135/135/135 133/133/133
f 134/134/134 136/136/136 135/135/135
f 138/138/138 139/139/139 137/137/137
f 138/138/138 140/140/140 139/139/139
f 142/142/142 143/143/143 141/141/141
f 142/142/142 144/144/144 143/143/143
f 146/146/146 147/147/147 145/145/145
f 146/146/146 148/148/148 147/147/147
f 150/150/150 151/151/151 149/149/149
f 150/150/150 152/152/152 151/151/151
f 154/154/154 155/155/155 153/153/153
f 154/154/154 156/156/156 155/155/155
f 158/158/158 159/159/159 157/157/157
f 158/158/158 160/160/160 159/159/159
f 162/162/162 163/163/163 161/161/161
f 162/162/162 164/164/164 163/163/163
f 166/166/166 167/167/167 165/165/165
f 166/166/166 168/168/168 167/167/167
