g Grass_1_Cluster123
v 206.7699 -0.08753967 170.7798
v 205.6507 -0.08753967 170.7798
v 206.7699 -0.08753967 171.526
v 205.6507 -0.08753967 171.526
v 185.8778 -0.08753967 161.8261
v 185.1317 -0.08753967 161.8261
v 185.8778 -0.08753967 162.5722
v 185.1317 -0.08753967 162.5722
v 208.2622 -0.08753967 151.38
v 207.516 -0.08753967 151.38
v 208.2622 -0.08753967 152.1262
v 207.516 -0.08753967 152.1262
v 210.1275 -0.08753967 149.8877
v 209.3814 -0.08753967 149.8877
v 210.1275 -0.08753967 150.6339
v 209.3814 -0.08753967 150.6339
v 185.8778 -0.08753967 147.6493
v 185.1317 -0.08753967 147.6493
v 185.8778 -0.08753967 148.3954
v 185.1317 -0.08753967 148.3954
v 188.1162 -0.08753967 147.6493
v 187.3701 -0.08753967 147.6493
v 188.1162 -0.08753967 148.3954
v 187.3701 -0.08753967 148.3954
v 186.997 -0.08753967 147.2762
v 185.8778 -0.08753967 147.2762
v 186.997 -0.08753967 148.0224
v 185.8778 -0.08753967 148.0224
v 186.997 -0.08753967 144.6647
v 185.8778 -0.08753967 144.6647
v 186.997 -0.08753967 145.4109
v 185.8778 -0.08753967 145.4109
vt 0.06738281 0.9369141
vt 0.1331457 0.9369141
vt 0.06738281 0.9990234
vt 0.1331457 0.9990234
vt 0.06738281 0.9369141
vt 0.1331457 0.9369141
vt 0.06738281 0.9990234
vt 0.1331457 0.9990234
vt 0.06738281 0.9369141
vt 0.1331457 0.9369141
vt 0.06738281 0.9990234
vt 0.1331457 0.9990234
vt 0.06738281 0.9369141
vt 0.1331457 0.9369141
vt 0.06738281 0.9990234
vt 0.1331457 0.9990234
vt 0.06738281 0.9369141
vt 0.1331457 0.9369141
vt 0.06738281 0.9990234
vt 0.1331457 0.9990234
vt 0.06738281 0.9369141
vt 0.1331457 0.9369141
vt 0.06738281 0.9990234
vt 0.1331457 0.9990234
vt 0.06738281 0.9369141
vt 0.1331457 0.9369141
vt 0.06738281 0.9990234
vt 0.1331457 0.9990234
vt 0.06738281 0.9369141
vt 0.1331457 0.9369141
vt 0.06738281 0.9990234
vt 0.1331457 0.9990234
vn 0 1 0
vn 0 1 0
vn 0 1 0
vn 0 1 0
vn 0 1 0
vn 0 1 0
vn 0 1 0
vn 0 1 0
vn 0 1 0
vn 0 1 0
vn 0 1 0
vn 0 1 0
vn 0 1 0
vn 0 1 0
vn 0 1 0
vn 0 1 0
vn 0 1 0
vn 0 1 0
vn 0 1 0
vn 0 1 0
vn 0 1 0
vn 0 1 0
vn 0 1 0
vn 0 1 0
vn 0 1 0
vn 0 1 0
vn 0 1 0
vn 0 1 0
vn 0 1 0
vn 0 1 0
vn 0 1 0
vn 0 1 0
g Grass_1_Cluster123_0
f 2/2/2 3/3/3 1/1/1
f 2/2/2 4/4/4 3/3/3
f 6/6/6 7/7/7 5/5/5
f 6/6/6 8/8/8 7/7/7
f 10/10/10 11/11/11 9/9/9
f 10/10/10 12/12/12 11/11/11
f 14/14/14 15/15/15 13/13/13
f 14/14/14 16/16/16 15/15/15
f 18/18/18 19/19/19 17/17/17
f 18/18/18 20/20/20 19/19/19
f 22/22/22 23/23/23 21/21/21
f 22/22/22 24/24/24 23/23/23
f 26/26/26 27/27/27 25/25/25
f 26/26/26 28/28/28 27/27/27
f 30/30/30 31/31/31 29/29/29
f 30/30/30 32/32/32 31/31/31
