g Grass_1_Cluster100
v 275.4121 -0.1381836 141.3103
v 274.5651 -0.1381836 141.3103
v 275.4121 -0.1381836 142.1573
v 274.5651 -0.1381836 142.1573
v 291.0816 -0.1381836 140.8868
v 290.2346 -0.1381836 140.8868
v 291.0816 -0.1381836 141.7338
v 290.2346 -0.1381836 141.7338
v 272.8712 -0.1381836 140.4633
v 272.0241 -0.1381836 140.4633
v 272.8712 -0.1381836 141.3103
v 272.0241 -0.1381836 141.3103
v 272.0241 -0.1381836 139.6163
v 271.1772 -0.1381836 139.6163
v 272.0241 -0.1381836 140.4633
v 271.1772 -0.1381836 140.4633
v 274.9886 -0.1381836 139.1928
v 273.7181 -0.1381836 139.1928
v 274.9886 -0.1381836 140.0398
v 273.7181 -0.1381836 140.0398
v 286.4231 -0.1381836 139.1928
v 285.1526 -0.1381836 139.1928
v 286.4231 -0.1381836 140.0398
v 285.1526 -0.1381836 140.0398
v 273.7181 -0.1381836 138.7693
v 272.8712 -0.1381836 138.7693
v 273.7181 -0.1381836 139.6163
v 272.8712 -0.1381836 139.6163
v 286.8466 -0.1381836 138.7693
v 285.9996 -0.1381836 138.7693
v 286.8466 -0.1381836 139.6163
v 285.9996 -0.1381836 139.6163
v 276.6826 -0.1381836 138.3458
v 275.8356 -0.1381836 138.3458
v 276.6826 -0.1381836 139.1928
v 275.8356 -0.1381836 139.1928
v 277.1061 -0.1381836 137.9223
v 276.2591 -0.1381836 137.9223
v 277.1061 -0.1381836 138.7693
v 276.2591 -0.1381836 138.7693
v 283.8821 -0.1381836 120.1354
v 283.0351 -0.1381836 120.1354
v 283.8821 -0.1381836 120.9824
v 283.0351 -0.1381836 120.9824
v 278.3766 -0.1381836 118.8649
v 277.5296 -0.1381836 118.8649
v 278.3766 -0.1381836 119.7119
v 277.5296 -0.1381836 119.7119
v 281.7646 -0.1381836 118.8649
v 280.4941 -0.1381836 118.8649
v 281.7646 -0.1381836 119.7119
v 280.4941 -0.1381836 119.7119
v 279.6471 -0.1381836 118.0179
v 278.8001 -0.1381836 118.0179
v 279.6471 -0.1381836 118.8649
v 278.8001 -0.1381836 118.8649
vt 0.06738281 0.9369141
vt 0.1331457 0.9369141
vt 0.06738281 0.9990234
vt 0.1331457 0.9990234
vt 0.06738281 0.9369141
vt 0.1331457 0.9369141
vt 0.06738281 0.9990234
vt 0.1331457 0.9990234
vt 0.06738281 0.9369141
vt 0.1331457 0.9369141
vt 0.06738281 0.9990234
vt 0.1331457 0.9990234
vt 0.06738281 0.9369141
vt 0.1331457 0.9369141
vt 0.06738281 0.9990234
vt 0.1331457 0.9990234
vt 0.06738281 0.9369141
vt 0.1331457 0.9369141
vt 0.06738281 0.9990234
vt 0.1331457 0.9990234
vt 0.06738281 0.9369141
vt 0.1331457 0.9369141
vt 0.06738281 0.9990234
vt 0.1331457 0.9990234
vt 0.06738281 0.9369141
vt 0.1331457 0.9369141
vt 0.06738281 0.9990234
vt 0.1331457 0.9990234
vt 0.06738281 0.9369141
vt 0.1331457 0.9369141
vt 0.06738281 0.9990234
vt 0.1331457 0.9990234
vt 0.06738281 0.9369141
vt 0.1331457 0.9369141
vt 0.06738281 0.9990234
vt 0.1331457 0.9990234
vt 0.06738281 0.9369141
vt 0.1331457 0.9369141
vt 0.06738281 0.9990234
vt 0.1331457 0.9990234
vt 0.06738281 0.9369141
vt 0.1331457 0.9369141
vt 0.06738281 0.9990234
vt 0.1331457 0.9990234
vt 0.06738281 0.9369141
vt 0.1331457 0.9369141
vt 0.06738281 0.9990234
vt 0.1331457 0.9990234
vt 0.06738281 0.9369141
vt 0.1331457 0.9369141
vt 0.06738281 0.9990234
vt 0.1331457 0.9990234
vt 0.06738281 0.9369141
vt 0.1331457 0.9369141
vt 0.06738281 0.9990234
vt 0.1331457 0.9990234
vn 0 1 0
vn 0 1 0
vn 0 1 0
vn 0 1 0
vn 0 1 0
vn 0 1 0
vn 0 1 0
vn 0 1 0
vn 0 1 0
vn 0 1 0
vn 0 1 0
vn 0 1 0
vn 0 1 0
vn 0 1 0
vn 0 1 0
vn 0 1 0
vn 0 1 0
vn 0 1 0
vn 0 1 0
vn 0 1 0
vn 0 1 0
vn 0 1 0
vn 0 1 0
vn 0 1 0
vn 0 1 0
vn 0 1 0
vn 0 1 0
vn 0 1 0
vn 0 1 0
vn 0 1 0
vn 0 1 0
vn 0 1 0
vn 0 1 0
vn 0 1 0
vn 0 1 0
vn 0 1 0
vn 0 1 0
vn 0 1 0
vn 0 1 0
vn 0 1 0
vn 0 1 0
vn 0 1 0
vn 0 1 0
vn 0 1 0
vn 0 1 0
vn 0 1 0
vn 0 1 0
vn 0 1 0
vn 0 1 0
vn 0 1 0
vn 0 1 0
vn 0 1 0
vn 0 1 0
vn 0 1 0
vn 0 1 0
vn 0 1 0
g Grass_1_Cluster100_0
f 2/2/2 3/3/3 1/1/1
f 2/2/2 4/4/4 3/3/3
f 6/6/6 7/7/7 5/5/5
f 6/6/6 8/8/8 7/7/7
f 10/10/10 11/11/11 9/9/9
f 10/10/10 12/12/12 11/11/11
f 14/14/14 15/15/15 13/13/13
f 14/14/14 16/16/16 15/15/15
f 18/18/18 19/19/19 17/17/17
f 18/18/18 20/20/20 19/19/19
f 22/22/22 23/23/23 21/21/21
f 22/22/22 24/24/24 23/23/23
f 26/26/26 27/27/27 25/25/25
f 26/26/26 28/28/28 27/27/27
f 30/30/30 31/31/31 29/29/29
f 30/30/30 32/32/32 31/31/31
f 34/34/34 35/35/35 33/33/33
f 34/34/34 36/36/36 35/35/35
f 38/38/38 39/39/39 37/37/37
f 38/38/38 40/40/40 39/39/39
f 42/42/42 43/43/43 41/41/41
f 42/42/42 44/44/44 43/43/43
f 46/46/46 47/47/47 45/45/45
f 46/46/46 48/48/48 47/47/47
f 50/50/50 51/51/51 49/49/49
f 50/50/50 52/52/52 51/51/51
f 54/54/54 55/55/55 53/53/53
f 54/54/54 56/56/56 55/55/55
