g Grass_0_Cluster109
v 20.35686 0.03936195 142.813
v 19.34548 0.03936195 142.813
v 20.35686 0.03936195 143.9929
v 19.34548 0.03936195 143.9929
v 25.91947 0.03936195 142.4758
v 24.90809 0.03936195 142.4758
v 25.91947 0.03936195 143.8243
v 24.90809 0.03936195 143.8243
v 20.52543 0.03936195 140.7902
v 19.68261 0.03936195 140.7902
v 20.52543 0.03936195 142.1387
v 19.68261 0.03936195 142.1387
v 24.4024 0.03936195 140.2845
v 23.55958 0.03936195 140.2845
v 24.4024 0.03936195 141.4644
v 23.55958 0.03936195 141.4644
v 22.21107 0.03936195 139.4417
v 21.36825 0.03936195 139.4417
v 22.21107 0.03936195 140.6216
v 21.36825 0.03936195 140.6216
v 24.23383 0.03936195 138.936
v 23.22245 0.03936195 138.936
v 24.23383 0.03936195 140.2845
v 23.22245 0.03936195 140.2845
v 19.17692 0.03936195 137.5875
v 18.16553 0.03936195 137.5875
v 19.17692 0.03936195 138.7674
v 18.16553 0.03936195 138.7674
v 19.51405 0.03936195 137.4189
v 18.67123 0.03936195 137.4189
v 19.51405 0.03936195 138.5988
v 18.67123 0.03936195 138.5988
v 12.09723 0.03936195 136.9132
v 11.25442 0.03936195 136.9132
v 12.09723 0.03936195 138.2617
v 11.25442 0.03936195 138.2617
v 21.87394 0.03936195 136.5761
v 20.86256 0.03936195 136.5761
v 21.87394 0.03936195 137.9246
v 20.86256 0.03936195 137.9246
v 22.71676 0.03936195 135.5647
v 21.87394 0.03936195 135.5647
v 22.71676 0.03936195 136.7447
v 21.87394 0.03936195 136.7447
v 18.50266 0.03936195 135.2276
v 17.49128 0.03936195 135.2276
v 18.50266 0.03936195 136.5761
v 17.49128 0.03936195 136.5761
v 19.85117 0.03936195 135.059
v 19.00835 0.03936195 135.059
v 19.85117 0.03936195 136.4075
v 19.00835 0.03936195 136.4075
v 17.82841 0.03936195 135.059
v 16.98559 0.03936195 135.059
v 17.82841 0.03936195 136.4075
v 16.98559 0.03936195 136.4075
v 23.72814 0.03936195 135.059
v 22.88532 0.03936195 135.059
v 23.72814 0.03936195 136.239
v 22.88532 0.03936195 136.239
v 21.03112 0.03936195 134.8904
v 20.1883 0.03936195 134.8904
v 21.03112 0.03936195 136.0704
v 20.1883 0.03936195 136.0704
v 28.44793 0.03936195 134.0476
v 27.60511 0.03936195 134.0476
v 28.44793 0.03936195 135.3961
v 27.60511 0.03936195 135.3961
v 20.1883 0.03936195 133.8791
v 19.34548 0.03936195 133.8791
v 20.1883 0.03936195 135.059
v 19.34548 0.03936195 135.059
v 18.67123 0.03936195 133.3734
v 17.82841 0.03936195 133.3734
v 18.67123 0.03936195 134.7219
v 17.82841 0.03936195 134.7219
v 20.1883 0.03936195 132.1934
v 19.34548 0.03936195 132.1934
v 20.1883 0.03936195 133.5419
v 19.34548 0.03936195 133.5419
v 25.24522 0.03936195 131.3506
v 24.4024 0.03936195 131.3506
v 25.24522 0.03936195 132.5305
v 24.4024 0.03936195 132.5305
v 24.57096 0.03936195 130.6764
v 23.72814 0.03936195 130.6764
v 24.57096 0.03936195 131.8563
v 23.72814 0.03936195 131.8563
v 21.19968 0.03936195 130.1707
v 20.35686 0.03936195 130.1707
v 21.19968 0.03936195 131.3506
v 20.35686 0.03936195 131.3506
v 8.220266 0.03936195 128.3165
v 7.377447 0.03936195 128.3165
v 8.220266 0.03936195 129.4964
v 7.377447 0.03936195 129.4964
v 9.063086 0.03936195 127.9793
v 8.220266 0.03936195 127.9793
v 9.063086 0.03936195 129.3279
v 8.220266 0.03936195 129.3279
v 7.377447 0.03936195 127.1365
v 6.534628 0.03936195 127.1365
v 7.377447 0.03936195 128.3165
v 6.534628 0.03936195 128.3165
v 10.74872 0.03936195 126.1251
v 9.905905 0.03936195 126.1251
v 10.74872 0.03936195 127.3051
v 9.905905 0.03936195 127.3051
v 7.208883 0.03936195 125.9566
v 6.366064 0.03936195 125.9566
v 7.208883 0.03936195 127.1365
v 6.366064 0.03936195 127.1365
v 1.140585 0.03936195 125.788
v 0.2977657 0.03936195 125.788
v 1.140585 0.03936195 126.9679
v 0.2977657 0.03936195 126.9679
v 10.24303 0.03936195 125.4509
v 9.231649 0.03936195 125.4509
v 10.24303 0.03936195 126.7994
v 9.231649 0.03936195 126.7994
v 2.994787 0.03936195 124.4395
v 2.151968 0.03936195 124.4395
v 2.994787 0.03936195 125.788
v 2.151968 0.03936195 125.788
v 6.871756 0.03936195 117.6969
v 6.028936 0.03936195 117.6969
v 6.871756 0.03936195 118.8769
v 6.028936 0.03936195 118.8769
v 1.309149 0.03936195 117.0227
v 0.2977657 0.03936195 117.0227
v 1.309149 0.03936195 118.2026
v 0.2977657 0.03936195 118.2026
v 24.23383 0.03936195 116.8541
v 23.39101 0.03936195 116.8541
v 24.23383 0.03936195 118.2026
v 23.39101 0.03936195 118.2026
v 15.63708 0.03936195 113.9885
v 14.79426 0.03936195 113.9885
v 15.63708 0.03936195 115.1685
v 14.79426 0.03936195 115.1685
v 2.151968 0.03936195 113.9885
v 1.309149 0.03936195 113.9885
v 2.151968 0.03936195 115.1685
v 1.309149 0.03936195 115.1685
v 1.477713 0.03936195 113.82
v 0.6348934 0.03936195 113.82
v 1.477713 0.03936195 114.9999
v 0.6348934 0.03936195 114.9999
vt 0 0.9058824
vt 0.06666667 0.9058824
vt 0 1
vt 0.06666667 1
vt 0 0.9058824
vt 0.06666667 0.9058824
vt 0 1
vt 0.06666667 1
vt 0 0.9058824
vt 0.06666667 0.9058824
vt 0 1
vt 0.06666667 1
vt 0 0.9058824
vt 0.06666667 0.9058824
vt 0 1
vt 0.06666667 1
vt 0 0.9058824
vt 0.06666667 0.9058824
vt 0 1
vt 0.06666667 1
vt 0 0.9058824
vt 0.06666667 0.9058824
vt 0 1
vt 0.06666667 1
vt 0 0.9058824
vt 0.06666667 0.9058824
vt 0 1
vt 0.06666667 1
vt 0 0.9058824
vt 0.06666667 0.9058824
vt 0 1
vt 0.06666667 1
vt 0 0.9058824
vt 0.06666667 0.9058824
vt 0 1
vt 0.06666667 1
vt 0 0.9058824
vt 0.06666667 0.9058824
vt 0 1
vt 0.06666667 1
vt 0 0.9058824
vt 0.06666667 0.9058824
vt 0 1
vt 0.06666667 1
vt 0 0.9058824
vt 0.06666667 0.9058824
vt 0 1
vt 0.06666667 1
vt 0 0.9058824
vt 0.06666667 0.9058824
vt 0 1
vt 0.06666667 1
vt 0 0.9058824
vt 0.06666667 0.9058824
vt 0 1
vt 0.06666667 1
vt 0 0.9058824
vt 0.06666667 0.9058824
vt 0 1
vt 0.06666667 1
vt 0 0.9058824
vt 0.06666667 0.9058824
vt 0 1
vt 0.06666667 1
vt 0 0.9058824
vt 0.06666667 0.9058824
vt 0 1
vt 0.06666667 1
vt 0 0.9058824
vt 0.06666667 0.9058824
vt 0 1
vt 0.06666667 1
vt 0 0.9058824
vt 0.06666667 0.9058824
vt 0 1
vt 0.06666667 1
vt 0 0.9058824
vt 0.06666667 0.9058824
vt 0 1
vt 0.06666667 1
vt 0 0.9058824
vt 0.06666667 0.9058824
vt 0 1
vt 0.06666667 1
vt 0 0.9058824
vt 0.06666667 0.9058824
vt 0 1
vt 0.06666667 1
vt 0 0.9058824
vt 0.06666667 0.9058824
vt 0 1
vt 0.06666667 1
vt 0 0.9058824
vt 0.06666667 0.9058824
vt 0 1
vt 0.06666667 1
vt 0 0.9058824
vt 0.06666667 0.9058824
vt 0 1
vt 0.06666667 1
vt 0 0.9058824
vt 0.06666667 0.9058824
vt 0 1
vt 0.06666667 1
vt 0 0.9058824
vt 0.06666667 0.9058824
vt 0 1
vt 0.06666667 1
vt 0 0.9058824
vt 0.06666667 0.9058824
vt 0 1
vt 0.06666667 1
vt 0 0.9058824
vt 0.06666667 0.9058824
vt 0 1
vt 0.06666667 1
vt 0 0.9058824
vt 0.06666667 0.9058824
vt 0 1
vt 0.06666667 1
vt 0 0.9058824
vt 0.06666667 0.9058824
vt 0 1
vt 0.06666667 1
vt 0 0.9058824
vt 0.06666667 0.9058824
vt 0 1
vt 0.06666667 1
vt 0 0.9058824
vt 0.06666667 0.9058824
vt 0 1
vt 0.06666667 1
vt 0 0.9058824
vt 0.06666667 0.9058824
vt 0 1
vt 0.06666667 1
vt 0 0.9058824
vt 0.06666667 0.9058824
vt 0 1
vt 0.06666667 1
vt 0 0.9058824
vt 0.06666667 0.9058824
vt 0 1
vt 0.06666667 1
vt 0 0.9058824
vt 0.06666667 0.9058824
vt 0 1
vt 0.06666667 1
vn 0 1 0
vn 0 1 0
vn 0 1 0
vn 0 1 0
vn 0 1 0
vn 0 1 0
vn 0 1 0
vn 0 1 0
vn 0 1 0
vn 0 1 0
vn 0 1 0
vn 0 1 0
vn 0 1 0
vn 0 1 0
vn 0 1 0
vn 0 1 0
vn 0 1 0
vn 0 1 0
vn 0 1 0
vn 0 1 0
vn 0 1 0
vn 0 1 0
vn 0 1 0
vn 0 1 0
vn 0 1 0
vn 0 1 0
vn 0 1 0
vn 0 1 0
vn 0 1 0
vn 0 1 0
vn 0 1 0
vn 0 1 0
vn 0 1 0
vn 0 1 0
vn 0 1 0
vn 0 1 0
vn 0 1 0
vn 0 1 0
vn 0 1 0
vn 0 1 0
vn 0 1 0
vn 0 1 0
vn 0 1 0
vn 0 1 0
vn 0 1 0
vn 0 1 0
vn 0 1 0
vn 0 1 0
vn 0 1 0
vn 0 1 0
vn 0 1 0
vn 0 1 0
vn 0 1 0
vn 0 1 0
vn 0 1 0
vn 0 1 0
vn 0 1 0
vn 0 1 0
vn 0 1 0
vn 0 1 0
vn 0 1 0
vn 0 1 0
vn 0 1 0
vn 0 1 0
vn 0 1 0
vn 0 1 0
vn 0 1 0
vn 0 1 0
vn 0 1 0
vn 0 1 0
vn 0 1 0
vn 0 1 0
vn 0 1 0
vn 0 1 0
vn 0 1 0
vn 0 1 0
vn 0 1 0
vn 0 1 0
vn 0 1 0
vn 0 1 0
vn 0 1 0
vn 0 1 0
vn 0 1 0
vn 0 1 0
vn 0 1 0
vn 0 1 0
vn 0 1 0
vn 0 1 0
vn 0 1 0
vn 0 1 0
vn 0 1 0
vn 0 1 0
vn 0 1 0
vn 0 1 0
vn 0 1 0
vn 0 1 0
vn 0 1 0
vn 0 1 0
vn 0 1 0
vn 0 1 0
vn 0 1 0
vn 0 1 0
vn 0 1 0
vn 0 1 0
vn 0 1 0
vn 0 1 0
vn 0 1 0
vn 0 1 0
vn 0 1 0
vn 0 1 0
vn 0 1 0
vn 0 1 0
vn 0 1 0
vn 0 1 0
vn 0 1 0
vn 0 1 0
vn 0 1 0
vn 0 1 0
vn 0 1 0
vn 0 1 0
vn 0 1 0
vn 0 1 0
vn 0 1 0
vn 0 1 0
vn 0 1 0
vn 0 1 0
vn 0 1 0
vn 0 1 0
vn 0 1 0
vn 0 1 0
vn 0 1 0
vn 0 1 0
vn 0 1 0
vn 0 1 0
vn 0 1 0
vn 0 1 0
vn 0 1 0
vn 0 1 0
vn 0 1 0
vn 0 1 0
vn 0 1 0
vn 0 1 0
vn 0 1 0
vn 0 1 0
vn 0 1 0
vn 0 1 0
vn 0 1 0
vn 0 1 0
g Grass_0_Cluster109_0
f 2/2/2 3/3/3 1/1/1
f 2/2/2 4/4/4 3/3/3
f 6/6/6 7/7/7 5/5/5
f 6/6/6 8/8/8 7/7/7
f 10/10/10 11/11/11 9/9/9
f 10/10/10 12/12/12 11/11/11
f 14/14/14 15/15/15 13/13/13
f 14/14/14 16/16/16 15/15/15
f 18/18/18 19/19/19 17/17/17
f 18/18/18 20/20/20 19/19/19
f 22/22/22 23/23/23 21/21/21
f 22/22/22 24/24/24 23/23/23
f 26/26/26 27/27/27 25/25/25
f 26/26/26 28/28/28 27/27/27
f 30/30/30 31/31/31 29/29/29
f 30/30/30 32/32/32 31/31/31
f 34/34/34 35/35/35 33/33/33
f 34/34/34 36/36/36 35/35/35
f 38/38/38 39/39/39 37/37/37
f 38/38/38 40/40/40 39/39/39
f 42/42/42 43/43/43 41/41/41
f 42/42/42 44/44/44 43/43/43
f 46/46/46 47/47/47 45/45/45
f 46/46/46 48/48/48 47/47/47
f 50/50/50 51/51/51 49/49/49
f 50/50/50 52/52/52 51/51/51
f 54/54/54 55/55/55 53/53/53
f 54/54/54 56/56/56 55/55/55
f 58/58/58 59/59/59 57/57/57
f 58/58/58 60/60/60 59/59/59
f 62/62/62 63/63/63 61/61/61
f 62/62/62 64/64/64 63/63/63
f 66/66/66 67/67/67 65/65/65
f 66/66/66 68/68/68 67/67/67
f 70/70/70 71/71/71 69/69/69
f 70/70/70 72/72/72 71/71/71
f 74/74/74 75/75/75 73/73/73
f 74/74/74 76/76/76 75/75/75
f 78/78/78 79/79/79 77/77/77
f 78/78/78 80/80/80 79/79/79
f 82/82/82 83/83/83 81/81/81
f 82/82/82 84/84/84 83/83/83
f 86/86/86 87/87/87 85/85/85
f 86/86/86 88/88/88 87/87/87
f 90/90/90 91/91/91 89/89/89
f 90/90/90 92/92/92 91/91/91
f 94/94/94 95/95/95 93/93/93
f 94/94/94 96/96/96 95/95/95
f 98/98/98 99/99/99 97/97/97
f 98/98/98 100/100/100 99/99/99
f 102/102/102 103/103/103 101/101/101
f 102/102/102 104/104/104 103/103/103
f 106/106/106 107/107/107 105/105/105
f 106/106/106 108/108/108 107/107/107
f 110/110/110 111/111/111 109/109/109
f 110/110/110 112/112/112 111/111/111
f 114/114/114 115/115/115 113/113/113
f 114/114/114 116/116/116 115/115/115
f 118/118/118 119/119/119 117/117/117
f 118/118/118 120/120/120 119/119/119
f 122/122/122 123/123/123 121/121/121
f 122/122/122 124/124/124 123/123/123
f 126/126/126 127/127/127 125/125/125
f 126/126/126 128/128/128 127/127/127
f 130/130/130 131/131/131 129/129/129
f 130/130/130 132/132/132 131/131/131
f 134/134/134 135/135/135 133/133/133
f 134/134/134 136/136/136 135/135/135
f 138/138/138 139/139/139 137/137/137
f 138/138/138 140/140/140 139/139/139
f 142/142/142 143/143/143 141/141/141
f 142/142/142 144/144/144 143/143/143
f 146/146/146 147/147/147 145/145/145
f 146/146/146 148/148/148 147/147/147
