g Grass_0_Cluster156
v -185.6121 0 203.0453
v -186.4325 0 203.0453
v -185.6121 0 204.2759
v -186.4325 0 204.2759
v -190.1242 0 201.8147
v -191.1497 0 201.8147
v -190.1242 0 203.0453
v -191.1497 0 203.0453
v -181.3051 0 198.9434
v -182.1255 0 198.9434
v -181.3051 0 200.174
v -182.1255 0 200.174
v -205.0963 0 196.8924
v -206.1217 0 196.8924
v -205.0963 0 198.123
v -206.1217 0 198.123
v -206.737 0 196.4822
v -207.5574 0 196.4822
v -206.737 0 197.7128
v -207.5574 0 197.7128
v -208.788 0 195.6618
v -209.8135 0 195.6618
v -208.788 0 197.0975
v -209.8135 0 197.0975
v -181.7153 0 189.3038
v -182.7408 0 189.3038
v -181.7153 0 190.5344
v -182.7408 0 190.5344
v -179.8694 0 188.6886
v -180.6898 0 188.6886
v -179.8694 0 189.9191
v -180.6898 0 189.9191
v -180.0745 0 187.6631
v -180.8949 0 187.6631
v -180.0745 0 188.8937
v -180.8949 0 188.8937
v -197.3026 0 187.458
v -198.3281 0 187.458
v -197.3026 0 188.6886
v -198.3281 0 188.6886
v -203.6606 0 187.458
v -204.481 0 187.458
v -203.6606 0 188.6886
v -204.481 0 188.6886
v -192.9956 0 187.2529
v -193.816 0 187.2529
v -192.9956 0 188.4835
v -193.816 0 188.4835
v -207.3523 0 187.0478
v -208.1727 0 187.0478
v -207.3523 0 188.2784
v -208.1727 0 188.2784
v -183.7663 0 186.8427
v -184.5866 0 186.8427
v -183.7663 0 188.2784
v -184.5866 0 188.2784
v -194.0211 0 186.6376
v -194.8415 0 186.6376
v -194.0211 0 187.8682
v -194.8415 0 187.8682
v -200.3791 0 185.6121
v -201.1994 0 185.6121
v -200.3791 0 186.8427
v -201.1994 0 186.8427
v -204.2759 0 185.407
v -205.0963 0 185.407
v -204.2759 0 186.4325
v -205.0963 0 186.4325
v -204.6861 0 184.9968
v -205.7116 0 184.9968
v -204.6861 0 186.2274
v -205.7116 0 186.2274
v -202.2249 0 184.7917
v -203.0453 0 184.7917
v -202.2249 0 186.0223
v -203.0453 0 186.0223
v -203.2504 0 184.7917
v -204.0708 0 184.7917
v -203.2504 0 186.0223
v -204.0708 0 186.0223
v -194.6364 0 184.5866
v -195.4567 0 184.5866
v -194.6364 0 185.8172
v -195.4567 0 185.8172
v -197.9179 0 184.5866
v -198.7383 0 184.5866
v -197.9179 0 185.6121
v -198.7383 0 185.6121
v -205.5065 0 184.3815
v -206.5319 0 184.3815
v -205.5065 0 185.6121
v -206.5319 0 185.6121
v -199.9689 0 183.9714
v -200.7892 0 183.9714
v -199.9689 0 185.2019
v -200.7892 0 185.2019
v -202.43 0 183.9714
v -203.4555 0 183.9714
v -202.43 0 185.2019
v -203.4555 0 185.2019
v -199.7638 0 183.9714
v -200.5842 0 183.9714
v -199.7638 0 185.2019
v -200.5842 0 185.2019
v -203.6606 0 183.5612
v -204.6861 0 183.5612
v -203.6606 0 184.7917
v -204.6861 0 184.7917
v -193.4058 0 183.151
v -194.2262 0 183.151
v -193.4058 0 184.3815
v -194.2262 0 184.3815
v -192.7905 0 182.9459
v -193.6109 0 182.9459
v -192.7905 0 184.1765
v -193.6109 0 184.1765
v -191.1497 0 182.7408
v -192.1752 0 182.7408
v -191.1497 0 183.9714
v -192.1752 0 183.9714
v -203.8657 0 182.7408
v -204.8912 0 182.7408
v -203.8657 0 183.9714
v -204.8912 0 183.9714
v -199.3536 0 182.5357
v -200.174 0 182.5357
v -199.3536 0 183.7663
v -200.174 0 183.7663
v -204.6861 0 182.5357
v -205.5065 0 182.5357
v -204.6861 0 183.7663
v -205.5065 0 183.7663
v -185.8172 0 182.5357
v -186.6376 0 182.5357
v -185.8172 0 183.7663
v -186.6376 0 183.7663
v -202.0198 0 182.3306
v -202.8402 0 182.3306
v -202.0198 0 183.5612
v -202.8402 0 183.5612
v -200.5842 0 182.3306
v -201.4045 0 182.3306
v -200.5842 0 183.5612
v -201.4045 0 183.5612
v -196.4822 0 182.1255
v -197.3026 0 182.1255
v -196.4822 0 183.151
v -197.3026 0 183.151
v -190.7395 0 181.9204
v -191.5599 0 181.9204
v -190.7395 0 183.151
v -191.5599 0 183.151
v -200.174 0 181.7153
v -200.9943 0 181.7153
v -200.174 0 182.9459
v -200.9943 0 182.9459
v -187.8682 0 181.3051
v -188.6886 0 181.3051
v -187.8682 0 182.3306
v -188.6886 0 182.3306
v -197.5077 0 178.4337
v -198.3281 0 178.4337
v -197.5077 0 179.6643
v -198.3281 0 179.6643
vt 0 0.9058824
vt 0.06666667 0.9058824
vt 0 1
vt 0.06666667 1
vt 0 0.9058824
vt 0.06666667 0.9058824
vt 0 1
vt 0.06666667 1
vt 0 0.9058824
vt 0.06666667 0.9058824
vt 0 1
vt 0.06666667 1
vt 0 0.9058824
vt 0.06666667 0.9058824
vt 0 1
vt 0.06666667 1
vt 0 0.9058824
vt 0.06666667 0.9058824
vt 0 1
vt 0.06666667 1
vt 0 0.9058824
vt 0.06666667 0.9058824
vt 0 1
vt 0.06666667 1
vt 0 0.9058824
vt 0.06666667 0.9058824
vt 0 1
vt 0.06666667 1
vt 0 0.9058824
vt 0.06666667 0.9058824
vt 0 1
vt 0.06666667 1
vt 0 0.9058824
vt 0.06666667 0.9058824
vt 0 1
vt 0.06666667 1
vt 0 0.9058824
vt 0.06666667 0.9058824
vt 0 1
vt 0.06666667 1
vt 0 0.9058824
vt 0.06666667 0.9058824
vt 0 1
vt 0.06666667 1
vt 0 0.9058824
vt 0.06666667 0.9058824
vt 0 1
vt 0.06666667 1
vt 0 0.9058824
vt 0.06666667 0.9058824
vt 0 1
vt 0.06666667 1
vt 0 0.9058824
vt 0.06666667 0.9058824
vt 0 1
vt 0.06666667 1
vt 0 0.9058824
vt 0.06666667 0.9058824
vt 0 1
vt 0.06666667 1
vt 0 0.9058824
vt 0.06666667 0.9058824
vt 0 1
vt 0.06666667 1
vt 0 0.9058824
vt 0.06666667 0.9058824
vt 0 1
vt 0.06666667 1
vt 0 0.9058824
vt 0.06666667 0.9058824
vt 0 1
vt 0.06666667 1
vt 0 0.9058824
vt 0.06666667 0.9058824
vt 0 1
vt 0.06666667 1
vt 0 0.9058824
vt 0.06666667 0.9058824
vt 0 1
vt 0.06666667 1
vt 0 0.9058824
vt 0.06666667 0.9058824
vt 0 1
vt 0.06666667 1
vt 0 0.9058824
vt 0.06666667 0.9058824
vt 0 1
vt 0.06666667 1
vt 0 0.9058824
vt 0.06666667 0.9058824
vt 0 1
vt 0.06666667 1
vt 0 0.9058824
vt 0.06666667 0.9058824
vt 0 1
vt 0.06666667 1
vt 0 0.9058824
vt 0.06666667 0.9058824
vt 0 1
vt 0.06666667 1
vt 0 0.9058824
vt 0.06666667 0.9058824
vt 0 1
vt 0.06666667 1
vt 0 0.9058824
vt 0.06666667 0.9058824
vt 0 1
vt 0.06666667 1
vt 0 0.9058824
vt 0.06666667 0.9058824
vt 0 1
vt 0.06666667 1
vt 0 0.9058824
vt 0.06666667 0.9058824
vt 0 1
vt 0.06666667 1
vt 0 0.9058824
vt 0.06666667 0.9058824
vt 0 1
vt 0.06666667 1
vt 0 0.9058824
vt 0.06666667 0.9058824
vt 0 1
vt 0.06666667 1
vt 0 0.9058824
vt 0.06666667 0.9058824
vt 0 1
vt 0.06666667 1
vt 0 0.9058824
vt 0.06666667 0.9058824
vt 0 1
vt 0.06666667 1
vt 0 0.9058824
vt 0.06666667 0.9058824
vt 0 1
vt 0.06666667 1
vt 0 0.9058824
vt 0.06666667 0.9058824
vt 0 1
vt 0.06666667 1
vt 0 0.9058824
vt 0.06666667 0.9058824
vt 0 1
vt 0.06666667 1
vt 0 0.9058824
vt 0.06666667 0.9058824
vt 0 1
vt 0.06666667 1
vt 0 0.9058824
vt 0.06666667 0.9058824
vt 0 1
vt 0.06666667 1
vt 0 0.9058824
vt 0.06666667 0.9058824
vt 0 1
vt 0.06666667 1
vt 0 0.9058824
vt 0.06666667 0.9058824
vt 0 1
vt 0.06666667 1
vt 0 0.9058824
vt 0.06666667 0.9058824
vt 0 1
vt 0.06666667 1
vn 0 1 0
vn 0 1 0
vn 0 1 0
vn 0 1 0
vn 0 1 0
vn 0 1 0
vn 0 1 0
vn 0 1 0
vn 0 1 0
vn 0 1 0
vn 0 1 0
vn 0 1 0
vn 0 1 0
vn 0 1 0
vn 0 1 0
vn 0 1 0
vn 0 1 0
vn 0 1 0
vn 0 1 0
vn 0 1 0
vn 0 1 0
vn 0 1 0
vn 0 1 0
vn 0 1 0
vn 0 1 0
vn 0 1 0
vn 0 1 0
vn 0 1 0
vn 0 1 0
vn 0 1 0
vn 0 1 0
vn 0 1 0
vn 0 1 0
vn 0 1 0
vn 0 1 0
vn 0 1 0
vn 0 1 0
vn 0 1 0
vn 0 1 0
vn 0 1 0
vn 0 1 0
vn 0 1 0
vn 0 1 0
vn 0 1 0
vn 0 1 0
vn 0 1 0
vn 0 1 0
vn 0 1 0
vn 0 1 0
vn 0 1 0
vn 0 1 0
vn 0 1 0
vn 0 1 0
vn 0 1 0
vn 0 1 0
vn 0 1 0
vn 0 1 0
vn 0 1 0
vn 0 1 0
vn 0 1 0
vn 0 1 0
vn 0 1 0
vn 0 1 0
vn 0 1 0
vn 0 1 0
vn 0 1 0
vn 0 1 0
vn 0 1 0
vn 0 1 0
vn 0 1 0
vn 0 1 0
vn 0 1 0
vn 0 1 0
vn 0 1 0
vn 0 1 0
vn 0 1 0
vn 0 1 0
vn 0 1 0
vn 0 1 0
vn 0 1 0
vn 0 1 0
vn 0 1 0
vn 0 1 0
vn 0 1 0
vn 0 1 0
vn 0 1 0
vn 0 1 0
vn 0 1 0
vn 0 1 0
vn 0 1 0
vn 0 1 0
vn 0 1 0
vn 0 1 0
vn 0 1 0
vn 0 1 0
vn 0 1 0
vn 0 1 0
vn 0 1 0
vn 0 1 0
vn 0 1 0
vn 0 1 0
vn 0 1 0
vn 0 1 0
vn 0 1 0
vn 0 1 0
vn 0 1 0
vn 0 1 0
vn 0 1 0
vn 0 1 0
vn 0 1 0
vn 0 1 0
vn 0 1 0
vn 0 1 0
vn 0 1 0
vn 0 1 0
vn 0 1 0
vn 0 1 0
vn 0 1 0
vn 0 1 0
vn 0 1 0
vn 0 1 0
vn 0 1 0
vn 0 1 0
vn 0 1 0
vn 0 1 0
vn 0 1 0
vn 0 1 0
vn 0 1 0
vn 0 1 0
vn 0 1 0
vn 0 1 0
vn 0 1 0
vn 0 1 0
vn 0 1 0
vn 0 1 0
vn 0 1 0
vn 0 1 0
vn 0 1 0
vn 0 1 0
vn 0 1 0
vn 0 1 0
vn 0 1 0
vn 0 1 0
vn 0 1 0
vn 0 1 0
vn 0 1 0
vn 0 1 0
vn 0 1 0
vn 0 1 0
vn 0 1 0
vn 0 1 0
vn 0 1 0
vn 0 1 0
vn 0 1 0
vn 0 1 0
vn 0 1 0
vn 0 1 0
vn 0 1 0
vn 0 1 0
vn 0 1 0
vn 0 1 0
vn 0 1 0
vn 0 1 0
vn 0 1 0
g Grass_0_Cluster156_0
f 2/2/2 3/3/3 1/1/1
f 2/2/2 4/4/4 3/3/3
f 6/6/6 7/7/7 5/5/5
f 6/6/6 8/8/8 7/7/7
f 10/10/10 11/11/11 9/9/9
f 10/10/10 12/12/12 11/11/11
f 14/14/14 15/15/15 13/13/13
f 14/14/14 16/16/16 15/15/15
f 18/18/18 19/19/19 17/17/17
f 18/18/18 20/20/20 19/19/19
f 22/22/22 23/23/23 21/21/21
f 22/22/22 24/24/24 23/23/23
f 26/26/26 27/27/27 25/25/25
f 26/26/26 28/28/28 27/27/27
f 30/30/30 31/31/31 29/29/29
f 30/30/30 32/32/32 31/31/31
f 34/34/34 35/35/35 33/33/33
f 34/34/34 36/36/36 35/35/35
f 38/38/38 39/39/39 37/37/37
f 38/38/38 40/40/40 39/39/39
f 42/42/42 43/43/43 41/41/41
f 42/42/42 44/44/44 43/43/43
f 46/46/46 47/47/47 45/45/45
f 46/46/46 48/48/48 47/47/47
f 50/50/50 51/51/51 49/49/49
f 50/50/50 52/52/52 51/51/51
f 54/54/54 55/55/55 53/53/53
f 54/54/54 56/56/56 55/55/55
f 58/58/58 59/59/59 57/57/57
f 58/58/58 60/60/60 59/59/59
f 62/62/62 63/63/63 61/61/61
f 62/62/62 64/64/64 63/63/63
f 66/66/66 67/67/67 65/65/65
f 66/66/66 68/68/68 67/67/67
f 70/70/70 71/71/71 69/69/69
f 70/70/70 72/72/72 71/71/71
f 74/74/74 75/75/75 73/73/73
f 74/74/74 76/76/76 75/75/75
f 78/78/78 79/79/79 77/77/77
f 78/78/78 80/80/80 79/79/79
f 82/82/82 83/83/83 81/81/81
f 82/82/82 84/84/84 83/83/83
f 86/86/86 87/87/87 85/85/85
f 86/86/86 88/88/88 87/87/87
f 90/90/90 91/91/91 89/89/89
f 90/90/90 92/92/92 91/91/91
f 94/94/94 95/95/95 93/93/93
f 94/94/94 96/96/96 95/95/95
f 98/98/98 99/99/99 97/97/97
f 98/98/98 100/100/100 99/99/99
f 102/102/102 103/103/103 101/101/101
f 102/102/102 104/104/104 103/103/103
f 106/106/106 107/107/107 105/105/105
f 106/106/106 108/108/108 107/107/107
f 110/110/110 111/111/111 109/109/109
f 110/110/110 112/112/112 111/111/111
f 114/114/114 115/115/115 113/113/113
f 114/114/114 116/116/116 115/115/115
f 118/118/118 119/119/119 117/117/117
f 118/118/118 120/120/120 119/119/119
f 122/122/122 123/123/123 121/121/121
f 122/122/122 124/124/124 123/123/123
f 126/126/126 127/127/127 125/125/125
f 126/126/126 128/128/128 127/127/127
f 130/130/130 131/131/131 129/129/129
f 130/130/130 132/132/132 131/131/131
f 134/134/134 135/135/135 133/133/133
f 134/134/134 136/136/136 135/135/135
f 138/138/138 139/139/139 137/137/137
f 138/138/138 140/140/140 139/139/139
f 142/142/142 143/143/143 141/141/141
f 142/142/142 144/144/144 143/143/143
f 146/146/146 147/147/147 145/145/145
f 146/146/146 148/148/148 147/147/147
f 150/150/150 151/151/151 149/149/149
f 150/150/150 152/152/152 151/151/151
f 154/154/154 155/155/155 153/153/153
f 154/154/154 156/156/156 155/155/155
f 158/158/158 159/159/159 157/157/157
f 158/158/158 160/160/160 159/159/159
f 162/162/162 163/163/163 161/161/161
f 162/162/162 164/164/164 163/163/163
