g Grass_0_Cluster38
v -261.1219 0 22.68331
v -261.9131 0 22.68331
v -261.1219 0 24.00211
v -261.9131 0 24.00211
v -263.2319 0 22.41955
v -264.287 0 22.41955
v -263.2319 0 23.73835
v -264.287 0 23.73835
v -261.9131 0 21.89203
v -262.9682 0 21.89203
v -261.9131 0 23.21083
v -262.9682 0 23.21083
v -260.8581 0 21.36452
v -261.6494 0 21.36452
v -260.8581 0 22.41955
v -261.6494 0 22.41955
v -261.6494 0 20.57324
v -262.4406 0 20.57324
v -261.6494 0 21.89203
v -262.4406 0 21.89203
v -264.287 0 19.5182
v -265.0782 0 19.5182
v -264.287 0 20.837
v -265.0782 0 20.837
v -257.9567 0 19.25444
v -258.748 0 19.25444
v -257.9567 0 20.30948
v -258.748 0 20.30948
v -258.748 0 18.46316
v -259.803 0 18.46316
v -258.748 0 19.78196
v -259.803 0 19.78196
v -268.7709 0 13.71549
v -269.8259 0 13.71549
v -268.7709 0 15.03429
v -269.8259 0 15.03429
v -266.1333 0 12.13293
v -266.9246 0 12.13293
v -266.1333 0 13.18797
v -266.9246 0 13.18797
v -267.9796 0 10.55038
v -268.7709 0 10.55038
v -267.9796 0 11.60542
v -268.7709 0 11.60542
v -269.0346 0 9.759099
v -269.8259 0 9.759099
v -269.0346 0 10.81414
v -269.8259 0 10.81414
vt 0 0.9058824
vt 0.06666667 0.9058824
vt 0 1
vt 0.06666667 1
vt 0 0.9058824
vt 0.06666667 0.9058824
vt 0 1
vt 0.06666667 1
vt 0 0.9058824
vt 0.06666667 0.9058824
vt 0 1
vt 0.06666667 1
vt 0 0.9058824
vt 0.06666667 0.9058824
vt 0 1
vt 0.06666667 1
vt 0 0.9058824
vt 0.06666667 0.9058824
vt 0 1
vt 0.06666667 1
vt 0 0.9058824
vt 0.06666667 0.9058824
vt 0 1
vt 0.06666667 1
vt 0 0.9058824
vt 0.06666667 0.9058824
vt 0 1
vt 0.06666667 1
vt 0 0.9058824
vt 0.06666667 0.9058824
vt 0 1
vt 0.06666667 1
vt 0 0.9058824
vt 0.06666667 0.9058824
vt 0 1
vt 0.06666667 1
vt 0 0.9058824
vt 0.06666667 0.9058824
vt 0 1
vt 0.06666667 1
vt 0 0.9058824
vt 0.06666667 0.9058824
vt 0 1
vt 0.06666667 1
vt 0 0.9058824
vt 0.06666667 0.9058824
vt 0 1
vt 0.06666667 1
vn 0 1 0
vn 0 1 0
vn 0 1 0
vn 0 1 0
vn 0 1 0
vn 0 1 0
vn 0 1 0
vn 0 1 0
vn 0 1 0
vn 0 1 0
vn 0 1 0
vn 0 1 0
vn 0 1 0
vn 0 1 0
vn 0 1 0
vn 0 1 0
vn 0 1 0
vn 0 1 0
vn 0 1 0
vn 0 1 0
vn 0 1 0
vn 0 1 0
vn 0 1 0
vn 0 1 0
vn 0 1 0
vn 0 1 0
vn 0 1 0
vn 0 1 0
vn 0 1 0
vn 0 1 0
vn 0 1 0
vn 0 1 0
vn 0 1 0
vn 0 1 0
vn 0 1 0
vn 0 1 0
vn 0 1 0
vn 0 1 0
vn 0 1 0
vn 0 1 0
vn 0 1 0
vn 0 1 0
vn 0 1 0
vn 0 1 0
vn 0 1 0
vn 0 1 0
vn 0 1 0
vn 0 1 0
g Grass_0_Cluster38_0
f 2/2/2 3/3/3 1/1/1
f 2/2/2 4/4/4 3/3/3
f 6/6/6 7/7/7 5/5/5
f 6/6/6 8/8/8 7/7/7
f 10/10/10 11/11/11 9/9/9
f 10/10/10 12/12/12 11/11/11
f 14/14/14 15/15/15 13/13/13
f 14/14/14 16/16/16 15/15/15
f 18/18/18 19/19/19 17/17/17
f 18/18/18 20/20/20 19/19/19
f 22/22/22 23/23/23 21/21/21
f 22/22/22 24/24/24 23/23/23
f 26/26/26 27/27/27 25/25/25
f 26/26/26 28/28/28 27/27/27
f 30/30/30 31/31/31 29/29/29
f 30/30/30 32/32/32 31/31/31
f 34/34/34 35/35/35 33/33/33
f 34/34/34 36/36/36 35/35/35
f 38/38/38 39/39/39 37/37/37
f 38/38/38 40/40/40 39/39/39
f 42/42/42 43/43/43 41/41/41
f 42/42/42 44/44/44 43/43/43
f 46/46/46 47/47/47 45/45/45
f 46/46/46 48/48/48 47/47/47
