g Grass_1_Cluster101
v 260.4006 -0.1119385 132.7847
v 259.6143 -0.1119385 132.7847
v 260.4006 -0.1119385 133.5711
v 259.6143 -0.1119385 133.5711
v 265.1189 -0.1119385 130.8188
v 264.3325 -0.1119385 130.8188
v 265.1189 -0.1119385 131.6052
v 264.3325 -0.1119385 131.6052
v 264.7257 -0.1119385 128.8529
v 263.9393 -0.1119385 128.8529
v 264.7257 -0.1119385 129.6392
v 263.9393 -0.1119385 129.6392
v 263.9393 -0.1119385 128.4597
v 263.1529 -0.1119385 128.4597
v 263.9393 -0.1119385 129.2461
v 263.1529 -0.1119385 129.2461
v 265.5121 -0.1119385 128.0665
v 264.7257 -0.1119385 128.0665
v 265.5121 -0.1119385 128.8529
v 264.7257 -0.1119385 128.8529
v 247.8187 -0.1119385 124.921
v 247.0323 -0.1119385 124.921
v 247.8187 -0.1119385 125.7074
v 247.0323 -0.1119385 125.7074
v 247.4255 -0.1119385 124.1346
v 246.6392 -0.1119385 124.1346
v 247.4255 -0.1119385 124.921
v 246.6392 -0.1119385 124.921
v 244.6732 -0.1119385 122.9551
v 243.8869 -0.1119385 122.9551
v 244.6732 -0.1119385 123.7415
v 243.8869 -0.1119385 123.7415
v 250.571 -0.1119385 121.3824
v 249.3914 -0.1119385 121.3824
v 250.571 -0.1119385 122.1687
v 249.3914 -0.1119385 122.1687
v 248.6051 -0.1119385 121.3824
v 247.4255 -0.1119385 121.3824
v 248.6051 -0.1119385 122.1687
v 247.4255 -0.1119385 122.1687
v 245.0664 -0.1119385 120.9892
v 243.8869 -0.1119385 120.9892
v 245.0664 -0.1119385 121.7755
v 243.8869 -0.1119385 121.7755
v 247.4255 -0.1119385 120.2028
v 246.6392 -0.1119385 120.2028
v 247.4255 -0.1119385 120.9892
v 246.6392 -0.1119385 120.9892
v 243.4937 -0.1119385 120.2028
v 242.7073 -0.1119385 120.2028
v 243.4937 -0.1119385 120.9892
v 242.7073 -0.1119385 120.9892
v 248.9983 -0.1119385 119.8096
v 248.2119 -0.1119385 119.8096
v 248.9983 -0.1119385 120.596
v 248.2119 -0.1119385 120.596
v 268.6575 -0.1119385 119.4164
v 267.8712 -0.1119385 119.4164
v 268.6575 -0.1119385 120.2028
v 267.8712 -0.1119385 120.2028
v 245.8528 -0.1119385 119.0232
v 245.0664 -0.1119385 119.0232
v 245.8528 -0.1119385 120.2028
v 245.0664 -0.1119385 120.2028
v 247.0323 -0.1119385 118.2368
v 246.246 -0.1119385 118.2368
v 247.0323 -0.1119385 119.0232
v 246.246 -0.1119385 119.0232
v 247.8187 -0.1119385 115.0914
v 247.0323 -0.1119385 115.0914
v 247.8187 -0.1119385 115.8777
v 247.0323 -0.1119385 115.8777
v 246.246 -0.1119385 113.5186
v 245.4596 -0.1119385 113.5186
v 246.246 -0.1119385 114.305
v 245.4596 -0.1119385 114.305
v 248.2119 -0.1119385 113.5186
v 247.4255 -0.1119385 113.5186
v 248.2119 -0.1119385 114.305
v 247.4255 -0.1119385 114.305
vt 0.06738281 0.9369141
vt 0.1331457 0.9369141
vt 0.06738281 0.9990234
vt 0.1331457 0.9990234
vt 0.06738281 0.9369141
vt 0.1331457 0.9369141
vt 0.06738281 0.9990234
vt 0.1331457 0.9990234
vt 0.06738281 0.9369141
vt 0.1331457 0.9369141
vt 0.06738281 0.9990234
vt 0.1331457 0.9990234
vt 0.06738281 0.9369141
vt 0.1331457 0.9369141
vt 0.06738281 0.9990234
vt 0.1331457 0.9990234
vt 0.06738281 0.9369141
vt 0.1331457 0.9369141
vt 0.06738281 0.9990234
vt 0.1331457 0.9990234
vt 0.06738281 0.9369141
vt 0.1331457 0.9369141
vt 0.06738281 0.9990234
vt 0.1331457 0.9990234
vt 0.06738281 0.9369141
vt 0.1331457 0.9369141
vt 0.06738281 0.9990234
vt 0.1331457 0.9990234
vt 0.06738281 0.9369141
vt 0.1331457 0.9369141
vt 0.06738281 0.9990234
vt 0.1331457 0.9990234
vt 0.06738281 0.9369141
vt 0.1331457 0.9369141
vt 0.06738281 0.9990234
vt 0.1331457 0.9990234
vt 0.06738281 0.9369141
vt 0.1331457 0.9369141
vt 0.06738281 0.9990234
vt 0.1331457 0.9990234
vt 0.06738281 0.9369141
vt 0.1331457 0.9369141
vt 0.06738281 0.9990234
vt 0.1331457 0.9990234
vt 0.06738281 0.9369141
vt 0.1331457 0.9369141
vt 0.06738281 0.9990234
vt 0.1331457 0.9990234
vt 0.06738281 0.9369141
vt 0.1331457 0.9369141
vt 0.06738281 0.9990234
vt 0.1331457 0.9990234
vt 0.06738281 0.9369141
vt 0.1331457 0.9369141
vt 0.06738281 0.9990234
vt 0.1331457 0.9990234
vt 0.06738281 0.9369141
vt 0.1331457 0.9369141
vt 0.06738281 0.9990234
vt 0.1331457 0.9990234
vt 0.06738281 0.9369141
vt 0.1331457 0.9369141
vt 0.06738281 0.9990234
vt 0.1331457 0.9990234
vt 0.06738281 0.9369141
vt 0.1331457 0.9369141
vt 0.06738281 0.9990234
vt 0.1331457 0.9990234
vt 0.06738281 0.9369141
vt 0.1331457 0.9369141
vt 0.06738281 0.9990234
vt 0.1331457 0.9990234
vt 0.06738281 0.9369141
vt 0.1331457 0.9369141
vt 0.06738281 0.9990234
vt 0.1331457 0.9990234
vt 0.06738281 0.9369141
vt 0.1331457 0.9369141
vt 0.06738281 0.9990234
vt 0.1331457 0.9990234
vn 0 1 0
vn 0 1 0
vn 0 1 0
vn 0 1 0
vn 0 1 0
vn 0 1 0
vn 0 1 0
vn 0 1 0
vn 0 1 0
vn 0 1 0
vn 0 1 0
vn 0 1 0
vn 0 1 0
vn 0 1 0
vn 0 1 0
vn 0 1 0
vn 0 1 0
vn 0 1 0
vn 0 1 0
vn 0 1 0
vn 0 1 0
vn 0 1 0
vn 0 1 0
vn 0 1 0
vn 0 1 0
vn 0 1 0
vn 0 1 0
vn 0 1 0
vn 0 1 0
vn 0 1 0
vn 0 1 0
vn 0 1 0
vn 0 1 0
vn 0 1 0
vn 0 1 0
vn 0 1 0
vn 0 1 0
vn 0 1 0
vn 0 1 0
vn 0 1 0
vn 0 1 0
vn 0 1 0
vn 0 1 0
vn 0 1 0
vn 0 1 0
vn 0 1 0
vn 0 1 0
vn 0 1 0
vn 0 1 0
vn 0 1 0
vn 0 1 0
vn 0 1 0
vn 0 1 0
vn 0 1 0
vn 0 1 0
vn 0 1 0
vn 0 1 0
vn 0 1 0
vn 0 1 0
vn 0 1 0
vn 0 1 0
vn 0 1 0
vn 0 1 0
vn 0 1 0
vn 0 1 0
vn 0 1 0
vn 0 1 0
vn 0 1 0
vn 0 1 0
vn 0 1 0
vn 0 1 0
vn 0 1 0
vn 0 1 0
vn 0 1 0
vn 0 1 0
vn 0 1 0
vn 0 1 0
vn 0 1 0
vn 0 1 0
vn 0 1 0
g Grass_1_Cluster101_0
f 2/2/2 3/3/3 1/1/1
f 2/2/2 4/4/4 3/3/3
f 6/6/6 7/7/7 5/5/5
f 6/6/6 8/8/8 7/7/7
f 10/10/10 11/11/11 9/9/9
f 10/10/10 12/12/12 11/11/11
f 14/14/14 15/15/15 13/13/13
f 14/14/14 16/16/16 15/15/15
f 18/18/18 19/19/19 17/17/17
f 18/18/18 20/20/20 19/19/19
f 22/22/22 23/23/23 21/21/21
f 22/22/22 24/24/24 23/23/23
f 26/26/26 27/27/27 25/25/25
f 26/26/26 28/28/28 27/27/27
f 30/30/30 31/31/31 29/29/29
f 30/30/30 32/32/32 31/31/31
f 34/34/34 35/35/35 33/33/33
f 34/34/34 36/36/36 35/35/35
f 38/38/38 39/39/39 37/37/37
f 38/38/38 40/40/40 39/39/39
f 42/42/42 43/43/43 41/41/41
f 42/42/42 44/44/44 43/43/43
f 46/46/46 47/47/47 45/45/45
f 46/46/46 48/48/48 47/47/47
f 50/50/50 51/51/51 49/49/49
f 50/50/50 52/52/52 51/51/51
f 54/54/54 55/55/55 53/53/53
f 54/54/54 56/56/56 55/55/55
f 58/58/58 59/59/59 57/57/57
f 58/58/58 60/60/60 59/59/59
f 62/62/62 63/63/63 61/61/61
f 62/62/62 64/64/64 63/63/63
f 66/66/66 67/67/67 65/65/65
f 66/66/66 68/68/68 67/67/67
f 70/70/70 71/71/71 69/69/69
f 70/70/70 72/72/72 71/71/71
f 74/74/74 75/75/75 73/73/73
f 74/74/74 76/76/76 75/75/75
f 78/78/78 79/79/79 77/77/77
f 78/78/78 80/80/80 79/79/79
