g Grass_0_Cluster78
v -239.6507 0 82.43773
v -240.7076 0 82.43773
v -239.6507 0 83.75884
v -240.7076 0 83.75884
v -255.2399 0 80.85239
v -256.0326 0 80.85239
v -255.2399 0 82.17351
v -256.0326 0 82.17351
v -266.6015 0 79.79549
v -267.3942 0 79.79549
v -266.6015 0 81.11661
v -267.3942 0 81.11661
v -268.9795 0 79.79549
v -270.0364 0 79.79549
v -268.9795 0 81.11661
v -270.0364 0 81.11661
v -267.6584 0 79.53127
v -268.7153 0 79.53127
v -267.6584 0 80.85239
v -268.7153 0 80.85239
v -268.7153 0 78.21015
v -269.7722 0 78.21015
v -268.7153 0 79.53127
v -269.7722 0 79.53127
v -266.8657 0 77.41748
v -267.6584 0 77.41748
v -266.8657 0 78.7386
v -267.6584 0 78.7386
v -269.508 0 77.15326
v -270.3006 0 77.15326
v -269.508 0 78.21015
v -270.3006 0 78.21015
v -267.9226 0 76.88904
v -268.7153 0 76.88904
v -267.9226 0 77.94593
v -268.7153 0 77.94593
v -266.3373 0 76.62481
v -267.1299 0 76.62481
v -266.3373 0 77.94593
v -267.1299 0 77.94593
v -257.6179 0 76.09637
v -258.4106 0 76.09637
v -257.6179 0 77.41748
v -258.4106 0 77.41748
v -266.3373 0 76.36059
v -267.1299 0 76.36059
v -266.3373 0 77.68171
v -267.1299 0 77.68171
v -269.2437 0 76.09637
v -270.3006 0 76.09637
v -269.2437 0 77.41748
v -270.3006 0 77.41748
v -242.0287 0 76.09637
v -242.8214 0 76.09637
v -242.0287 0 77.15326
v -242.8214 0 77.15326
v -268.451 0 75.83214
v -269.2437 0 75.83214
v -268.451 0 77.15326
v -269.2437 0 77.15326
v -257.0894 0 75.56792
v -257.8821 0 75.56792
v -257.0894 0 76.88904
v -257.8821 0 76.88904
v -241.5003 0 75.3037
v -242.5572 0 75.3037
v -241.5003 0 76.62481
v -242.5572 0 76.62481
v -240.4434 0 74.51102
v -241.236 0 74.51102
v -240.4434 0 75.56792
v -241.236 0 75.56792
v -265.8088 0 74.2468
v -266.8657 0 74.2468
v -265.8088 0 75.56792
v -266.8657 0 75.56792
v -242.2929 0 74.51102
v -243.0856 0 74.51102
v -242.2929 0 75.83214
v -243.0856 0 75.83214
v -253.9188 0 74.2468
v -254.7114 0 74.2468
v -253.9188 0 75.56792
v -254.7114 0 75.56792
v -252.3334 0 73.98257
v -253.3903 0 73.98257
v -252.3334 0 75.3037
v -253.3903 0 75.3037
v -252.5977 0 73.98257
v -253.6546 0 73.98257
v -252.5977 0 75.3037
v -253.6546 0 75.3037
v -240.1792 0 73.71835
v -240.9718 0 73.71835
v -240.1792 0 75.03947
v -240.9718 0 75.03947
v -267.9226 0 73.71835
v -268.7153 0 73.71835
v -267.9226 0 74.77525
v -268.7153 0 74.77525
v -257.8821 0 73.45413
v -258.939 0 73.45413
v -257.8821 0 74.77525
v -258.939 0 74.77525
v -242.0287 0 72.92568
v -242.8214 0 72.92568
v -242.0287 0 74.2468
v -242.8214 0 74.2468
v -263.9593 0 72.66146
v -265.0161 0 72.66146
v -263.9593 0 73.71835
v -265.0161 0 73.71835
v -240.9718 0 72.39723
v -241.7645 0 72.39723
v -240.9718 0 73.71835
v -241.7645 0 73.71835
v -239.6507 0 71.86879
v -240.4434 0 71.86879
v -239.6507 0 73.1899
v -240.4434 0 73.1899
v -241.7645 0 71.86879
v -242.8214 0 71.86879
v -241.7645 0 72.92568
v -242.8214 0 72.92568
v -240.7076 0 71.60457
v -241.7645 0 71.60457
v -240.7076 0 72.92568
v -241.7645 0 72.92568
v -254.9757 0 70.8119
v -256.0326 0 70.8119
v -254.9757 0 72.13301
v -256.0326 0 72.13301
v -239.9149 0 70.54767
v -240.7076 0 70.54767
v -239.9149 0 71.86879
v -240.7076 0 71.86879
v -257.8821 0 70.01923
v -258.939 0 70.01923
v -257.8821 0 71.34034
v -258.939 0 71.34034
v -260.5244 0 70.01923
v -261.317 0 70.01923
v -260.5244 0 71.34034
v -261.317 0 71.34034
v -254.9757 0 69.755
v -256.0326 0 69.755
v -254.9757 0 71.07612
v -256.0326 0 71.07612
v -240.1792 0 69.49078
v -240.9718 0 69.49078
v -240.1792 0 70.8119
v -240.9718 0 70.8119
v -240.4434 0 68.43388
v -241.5003 0 68.43388
v -240.4434 0 69.755
v -241.5003 0 69.755
v -259.2032 0 62.62097
v -259.9959 0 62.62097
v -259.2032 0 63.67786
v -259.9959 0 63.67786
v -246.7847 0 62.35674
v -247.5774 0 62.35674
v -246.7847 0 63.67786
v -247.5774 0 63.67786
v -259.2032 0 61.8283
v -259.9959 0 61.8283
v -259.2032 0 62.88519
v -259.9959 0 62.88519
v -250.2197 0 61.56407
v -251.0123 0 61.56407
v -250.2197 0 62.88519
v -251.0123 0 62.88519
v -249.6912 0 60.7714
v -250.4839 0 60.7714
v -249.6912 0 62.09252
v -250.4839 0 62.09252
v -248.3701 0 60.50718
v -249.1628 0 60.50718
v -248.3701 0 61.8283
v -249.1628 0 61.8283
v -250.4839 0 60.24295
v -251.5408 0 60.24295
v -250.4839 0 61.56407
v -251.5408 0 61.56407
v -253.9188 0 59.18606
v -254.7114 0 59.18606
v -253.9188 0 60.24295
v -254.7114 0 60.24295
v -247.8416 0 58.92184
v -248.6343 0 58.92184
v -247.8416 0 60.24295
v -248.6343 0 60.24295
vt 0 0.9058824
vt 0.06666667 0.9058824
vt 0 1
vt 0.06666667 1
vt 0 0.9058824
vt 0.06666667 0.9058824
vt 0 1
vt 0.06666667 1
vt 0 0.9058824
vt 0.06666667 0.9058824
vt 0 1
vt 0.06666667 1
vt 0 0.9058824
vt 0.06666667 0.9058824
vt 0 1
vt 0.06666667 1
vt 0 0.9058824
vt 0.06666667 0.9058824
vt 0 1
vt 0.06666667 1
vt 0 0.9058824
vt 0.06666667 0.9058824
vt 0 1
vt 0.06666667 1
vt 0 0.9058824
vt 0.06666667 0.9058824
vt 0 1
vt 0.06666667 1
vt 0 0.9058824
vt 0.06666667 0.9058824
vt 0 1
vt 0.06666667 1
vt 0 0.9058824
vt 0.06666667 0.9058824
vt 0 1
vt 0.06666667 1
vt 0 0.9058824
vt 0.06666667 0.9058824
vt 0 1
vt 0.06666667 1
vt 0 0.9058824
vt 0.06666667 0.9058824
vt 0 1
vt 0.06666667 1
vt 0 0.9058824
vt 0.06666667 0.9058824
vt 0 1
vt 0.06666667 1
vt 0 0.9058824
vt 0.06666667 0.9058824
vt 0 1
vt 0.06666667 1
vt 0 0.9058824
vt 0.06666667 0.9058824
vt 0 1
vt 0.06666667 1
vt 0 0.9058824
vt 0.06666667 0.9058824
vt 0 1
vt 0.06666667 1
vt 0 0.9058824
vt 0.06666667 0.9058824
vt 0 1
vt 0.06666667 1
vt 0 0.9058824
vt 0.06666667 0.9058824
vt 0 1
vt 0.06666667 1
vt 0 0.9058824
vt 0.06666667 0.9058824
vt 0 1
vt 0.06666667 1
vt 0 0.9058824
vt 0.06666667 0.9058824
vt 0 1
vt 0.06666667 1
vt 0 0.9058824
vt 0.06666667 0.9058824
vt 0 1
vt 0.06666667 1
vt 0 0.9058824
vt 0.06666667 0.9058824
vt 0 1
vt 0.06666667 1
vt 0 0.9058824
vt 0.06666667 0.9058824
vt 0 1
vt 0.06666667 1
vt 0 0.9058824
vt 0.06666667 0.9058824
vt 0 1
vt 0.06666667 1
vt 0 0.9058824
vt 0.06666667 0.9058824
vt 0 1
vt 0.06666667 1
vt 0 0.9058824
vt 0.06666667 0.9058824
vt 0 1
vt 0.06666667 1
vt 0 0.9058824
vt 0.06666667 0.9058824
vt 0 1
vt 0.06666667 1
vt 0 0.9058824
vt 0.06666667 0.9058824
vt 0 1
vt 0.06666667 1
vt 0 0.9058824
vt 0.06666667 0.9058824
vt 0 1
vt 0.06666667 1
vt 0 0.9058824
vt 0.06666667 0.9058824
vt 0 1
vt 0.06666667 1
vt 0 0.9058824
vt 0.06666667 0.9058824
vt 0 1
vt 0.06666667 1
vt 0 0.9058824
vt 0.06666667 0.9058824
vt 0 1
vt 0.06666667 1
vt 0 0.9058824
vt 0.06666667 0.9058824
vt 0 1
vt 0.06666667 1
vt 0 0.9058824
vt 0.06666667 0.9058824
vt 0 1
vt 0.06666667 1
vt 0 0.9058824
vt 0.06666667 0.9058824
vt 0 1
vt 0.06666667 1
vt 0 0.9058824
vt 0.06666667 0.9058824
vt 0 1
vt 0.06666667 1
vt 0 0.9058824
vt 0.06666667 0.9058824
vt 0 1
vt 0.06666667 1
vt 0 0.9058824
vt 0.06666667 0.9058824
vt 0 1
vt 0.06666667 1
vt 0 0.9058824
vt 0.06666667 0.9058824
vt 0 1
vt 0.06666667 1
vt 0 0.9058824
vt 0.06666667 0.9058824
vt 0 1
vt 0.06666667 1
vt 0 0.9058824
vt 0.06666667 0.9058824
vt 0 1
vt 0.06666667 1
vt 0 0.9058824
vt 0.06666667 0.9058824
vt 0 1
vt 0.06666667 1
vt 0 0.9058824
vt 0.06666667 0.9058824
vt 0 1
vt 0.06666667 1
vt 0 0.9058824
vt 0.06666667 0.9058824
vt 0 1
vt 0.06666667 1
vt 0 0.9058824
vt 0.06666667 0.9058824
vt 0 1
vt 0.06666667 1
vt 0 0.9058824
vt 0.06666667 0.9058824
vt 0 1
vt 0.06666667 1
vt 0 0.9058824
vt 0.06666667 0.9058824
vt 0 1
vt 0.06666667 1
vt 0 0.9058824
vt 0.06666667 0.9058824
vt 0 1
vt 0.06666667 1
vt 0 0.9058824
vt 0.06666667 0.9058824
vt 0 1
vt 0.06666667 1
vn 0 1 0
vn 0 1 0
vn 0 1 0
vn 0 1 0
vn 0 1 0
vn 0 1 0
vn 0 1 0
vn 0 1 0
vn 0 1 0
vn 0 1 0
vn 0 1 0
vn 0 1 0
vn 0 1 0
vn 0 1 0
vn 0 1 0
vn 0 1 0
vn 0 1 0
vn 0 1 0
vn 0 1 0
vn 0 1 0
vn 0 1 0
vn 0 1 0
vn 0 1 0
vn 0 1 0
vn 0 1 0
vn 0 1 0
vn 0 1 0
vn 0 1 0
vn 0 1 0
vn 0 1 0
vn 0 1 0
vn 0 1 0
vn 0 1 0
vn 0 1 0
vn 0 1 0
vn 0 1 0
vn 0 1 0
vn 0 1 0
vn 0 1 0
vn 0 1 0
vn 0 1 0
vn 0 1 0
vn 0 1 0
vn 0 1 0
vn 0 1 0
vn 0 1 0
vn 0 1 0
vn 0 1 0
vn 0 1 0
vn 0 1 0
vn 0 1 0
vn 0 1 0
vn 0 1 0
vn 0 1 0
vn 0 1 0
vn 0 1 0
vn 0 1 0
vn 0 1 0
vn 0 1 0
vn 0 1 0
vn 0 1 0
vn 0 1 0
vn 0 1 0
vn 0 1 0
vn 0 1 0
vn 0 1 0
vn 0 1 0
vn 0 1 0
vn 0 1 0
vn 0 1 0
vn 0 1 0
vn 0 1 0
vn 0 1 0
vn 0 1 0
vn 0 1 0
vn 0 1 0
vn 0 1 0
vn 0 1 0
vn 0 1 0
vn 0 1 0
vn 0 1 0
vn 0 1 0
vn 0 1 0
vn 0 1 0
vn 0 1 0
vn 0 1 0
vn 0 1 0
vn 0 1 0
vn 0 1 0
vn 0 1 0
vn 0 1 0
vn 0 1 0
vn 0 1 0
vn 0 1 0
vn 0 1 0
vn 0 1 0
vn 0 1 0
vn 0 1 0
vn 0 1 0
vn 0 1 0
vn 0 1 0
vn 0 1 0
vn 0 1 0
vn 0 1 0
vn 0 1 0
vn 0 1 0
vn 0 1 0
vn 0 1 0
vn 0 1 0
vn 0 1 0
vn 0 1 0
vn 0 1 0
vn 0 1 0
vn 0 1 0
vn 0 1 0
vn 0 1 0
vn 0 1 0
vn 0 1 0
vn 0 1 0
vn 0 1 0
vn 0 1 0
vn 0 1 0
vn 0 1 0
vn 0 1 0
vn 0 1 0
vn 0 1 0
vn 0 1 0
vn 0 1 0
vn 0 1 0
vn 0 1 0
vn 0 1 0
vn 0 1 0
vn 0 1 0
vn 0 1 0
vn 0 1 0
vn 0 1 0
vn 0 1 0
vn 0 1 0
vn 0 1 0
vn 0 1 0
vn 0 1 0
vn 0 1 0
vn 0 1 0
vn 0 1 0
vn 0 1 0
vn 0 1 0
vn 0 1 0
vn 0 1 0
vn 0 1 0
vn 0 1 0
vn 0 1 0
vn 0 1 0
vn 0 1 0
vn 0 1 0
vn 0 1 0
vn 0 1 0
vn 0 1 0
vn 0 1 0
vn 0 1 0
vn 0 1 0
vn 0 1 0
vn 0 1 0
vn 0 1 0
vn 0 1 0
vn 0 1 0
vn 0 1 0
vn 0 1 0
vn 0 1 0
vn 0 1 0
vn 0 1 0
vn 0 1 0
vn 0 1 0
vn 0 1 0
vn 0 1 0
vn 0 1 0
vn 0 1 0
vn 0 1 0
vn 0 1 0
vn 0 1 0
vn 0 1 0
vn 0 1 0
vn 0 1 0
vn 0 1 0
vn 0 1 0
vn 0 1 0
vn 0 1 0
vn 0 1 0
vn 0 1 0
vn 0 1 0
vn 0 1 0
vn 0 1 0
vn 0 1 0
g Grass_0_Cluster78_0
f 2/2/2 3/3/3 1/1/1
f 2/2/2 4/4/4 3/3/3
f 6/6/6 7/7/7 5/5/5
f 6/6/6 8/8/8 7/7/7
f 10/10/10 11/11/11 9/9/9
f 10/10/10 12/12/12 11/11/11
f 14/14/14 15/15/15 13/13/13
f 14/14/14 16/16/16 15/15/15
f 18/18/18 19/19/19 17/17/17
f 18/18/18 20/20/20 19/19/19
f 22/22/22 23/23/23 21/21/21
f 22/22/22 24/24/24 23/23/23
f 26/26/26 27/27/27 25/25/25
f 26/26/26 28/28/28 27/27/27
f 30/30/30 31/31/31 29/29/29
f 30/30/30 32/32/32 31/31/31
f 34/34/34 35/35/35 33/33/33
f 34/34/34 36/36/36 35/35/35
f 38/38/38 39/39/39 37/37/37
f 38/38/38 40/40/40 39/39/39
f 42/42/42 43/43/43 41/41/41
f 42/42/42 44/44/44 43/43/43
f 46/46/46 47/47/47 45/45/45
f 46/46/46 48/48/48 47/47/47
f 50/50/50 51/51/51 49/49/49
f 50/50/50 52/52/52 51/51/51
f 54/54/54 55/55/55 53/53/53
f 54/54/54 56/56/56 55/55/55
f 58/58/58 59/59/59 57/57/57
f 58/58/58 60/60/60 59/59/59
f 62/62/62 63/63/63 61/61/61
f 62/62/62 64/64/64 63/63/63
f 66/66/66 67/67/67 65/65/65
f 66/66/66 68/68/68 67/67/67
f 70/70/70 71/71/71 69/69/69
f 70/70/70 72/72/72 71/71/71
f 74/74/74 75/75/75 73/73/73
f 74/74/74 76/76/76 75/75/75
f 78/78/78 79/79/79 77/77/77
f 78/78/78 80/80/80 79/79/79
f 82/82/82 83/83/83 81/81/81
f 82/82/82 84/84/84 83/83/83
f 86/86/86 87/87/87 85/85/85
f 86/86/86 88/88/88 87/87/87
f 90/90/90 91/91/91 89/89/89
f 90/90/90 92/92/92 91/91/91
f 94/94/94 95/95/95 93/93/93
f 94/94/94 96/96/96 95/95/95
f 98/98/98 99/99/99 97/97/97
f 98/98/98 100/100/100 99/99/99
f 102/102/102 103/103/103 101/101/101
f 102/102/102 104/104/104 103/103/103
f 106/106/106 107/107/107 105/105/105
f 106/106/106 108/108/108 107/107/107
f 110/110/110 111/111/111 109/109/109
f 110/110/110 112/112/112 111/111/111
f 114/114/114 115/115/115 113/113/113
f 114/114/114 116/116/116 115/115/115
f 118/118/118 119/119/119 117/117/117
f 118/118/118 120/120/120 119/119/119
f 122/122/122 123/123/123 121/121/121
f 122/122/122 124/124/124 123/123/123
f 126/126/126 127/127/127 125/125/125
f 126/126/126 128/128/128 127/127/127
f 130/130/130 131/131/131 129/129/129
f 130/130/130 132/132/132 131/131/131
f 134/134/134 135/135/135 133/133/133
f 134/134/134 136/136/136 135/135/135
f 138/138/138 139/139/139 137/137/137
f 138/138/138 140/140/140 139/139/139
f 142/142/142 143/143/143 141/141/141
f 142/142/142 144/144/144 143/143/143
f 146/146/146 147/147/147 145/145/145
f 146/146/146 148/148/148 147/147/147
f 150/150/150 151/151/151 149/149/149
f 150/150/150 152/152/152 151/151/151
f 154/154/154 155/155/155 153/153/153
f 154/154/154 156/156/156 155/155/155
f 158/158/158 159/159/159 157/157/157
f 158/158/158 160/160/160 159/159/159
f 162/162/162 163/163/163 161/161/161
f 162/162/162 164/164/164 163/163/163
f 166/166/166 167/167/167 165/165/165
f 166/166/166 168/168/168 167/167/167
f 170/170/170 171/171/171 169/169/169
f 170/170/170 172/172/172 171/171/171
f 174/174/174 175/175/175 173/173/173
f 174/174/174 176/176/176 175/175/175
f 178/178/178 179/179/179 177/177/177
f 178/178/178 180/180/180 179/179/179
f 182/182/182 183/183/183 181/181/181
f 182/182/182 184/184/184 183/183/183
f 186/186/186 187/187/187 185/185/185
f 186/186/186 188/188/188 187/187/187
f 190/190/190 191/191/191 189/189/189
f 190/190/190 192/192/192 191/191/191
