g Grass_0_Cluster279
v -280.9594 0 382.6149
v -281.7096 0 382.6149
v -280.9594 0 383.7402
v -281.7096 0 383.7402
v -283.5851 0 382.2398
v -284.7105 0 382.2398
v -283.5851 0 383.3651
v -284.7105 0 383.3651
v -277.2083 0 379.2389
v -277.9585 0 379.2389
v -277.2083 0 380.7393
v -277.9585 0 380.7393
v -298.2145 0 377.3633
v -299.3399 0 377.3633
v -298.2145 0 378.4886
v -299.3399 0 378.4886
v -293.3381 0 376.238
v -294.0883 0 376.238
v -293.3381 0 377.3633
v -294.0883 0 377.3633
v -291.0874 0 375.8629
v -292.2127 0 375.8629
v -291.0874 0 376.9882
v -292.2127 0 376.9882
v -295.5888 0 375.4878
v -296.7141 0 375.4878
v -295.5888 0 376.6131
v -296.7141 0 376.6131
v -294.8385 0 375.4878
v -295.5888 0 375.4878
v -294.8385 0 376.6131
v -295.5888 0 376.6131
v -295.9639 0 375.1126
v -296.7141 0 375.1126
v -295.9639 0 376.238
v -296.7141 0 376.238
v -291.4625 0 375.1126
v -292.2127 0 375.1126
v -291.4625 0 376.238
v -292.2127 0 376.238
v -294.0883 0 374.7375
v -295.2137 0 374.7375
v -294.0883 0 375.8629
v -295.2137 0 375.8629
v -297.0892 0 374.3624
v -297.8394 0 374.3624
v -297.0892 0 375.4878
v -297.8394 0 375.4878
v -292.963 0 374.3624
v -293.7132 0 374.3624
v -292.963 0 375.4878
v -293.7132 0 375.4878
v -295.9639 0 373.9873
v -296.7141 0 373.9873
v -295.9639 0 375.4878
v -296.7141 0 375.4878
v -289.9621 0 373.9873
v -290.7123 0 373.9873
v -289.9621 0 375.1126
v -290.7123 0 375.1126
v -291.0874 0 373.2371
v -292.2127 0 373.2371
v -291.0874 0 374.3624
v -292.2127 0 374.3624
v -296.7141 0 373.2371
v -297.8394 0 373.2371
v -296.7141 0 374.3624
v -297.8394 0 374.3624
v -292.2127 0 372.862
v -292.963 0 372.862
v -292.2127 0 373.9873
v -292.963 0 373.9873
v -295.9639 0 372.4868
v -297.0892 0 372.4868
v -295.9639 0 373.6122
v -297.0892 0 373.6122
v -292.2127 0 372.1118
v -292.963 0 372.1118
v -292.2127 0 373.2371
v -292.963 0 373.2371
v -295.2137 0 372.1118
v -295.9639 0 372.1118
v -295.2137 0 373.2371
v -295.9639 0 373.2371
v -293.7132 0 370.6113
v -294.8385 0 370.6113
v -293.7132 0 372.1118
v -294.8385 0 372.1118
v -299.3399 0 370.2362
v -300.0901 0 370.2362
v -299.3399 0 371.3615
v -300.0901 0 371.3615
v -295.5888 0 369.8611
v -296.339 0 369.8611
v -295.5888 0 371.3615
v -296.339 0 371.3615
v -276.458 0 368.3606
v -277.5833 0 368.3606
v -276.458 0 369.8611
v -277.5833 0 369.8611
v -276.8331 0 367.9855
v -277.5833 0 367.9855
v -276.8331 0 369.486
v -277.5833 0 369.486
v -273.082 0 367.9855
v -273.8322 0 367.9855
v -273.082 0 369.1108
v -273.8322 0 369.1108
v -279.4589 0 367.6104
v -280.5843 0 367.6104
v -279.4589 0 368.7357
v -280.5843 0 368.7357
v -276.458 0 367.2353
v -277.2083 0 367.2353
v -276.458 0 368.7357
v -277.2083 0 368.7357
v -280.5843 0 366.8602
v -281.3345 0 366.8602
v -280.5843 0 367.9855
v -281.3345 0 367.9855
v -297.4643 0 364.2344
v -298.2145 0 364.2344
v -297.4643 0 365.3597
v -298.2145 0 365.3597
v -294.4634 0 362.7339
v -295.2137 0 362.7339
v -294.4634 0 363.8593
v -295.2137 0 363.8593
v -277.5833 0 362.3588
v -278.3336 0 362.3588
v -277.5833 0 363.4842
v -278.3336 0 363.4842
v -298.9648 0 361.6086
v -299.715 0 361.6086
v -298.9648 0 362.7339
v -299.715 0 362.7339
v -291.8376 0 360.8584
v -292.5879 0 360.8584
v -291.8376 0 361.9837
v -292.5879 0 361.9837
v -274.2073 0 360.8584
v -274.9576 0 360.8584
v -274.2073 0 361.9837
v -274.9576 0 361.9837
v -294.0883 0 360.4832
v -294.8385 0 360.4832
v -294.0883 0 361.9837
v -294.8385 0 361.9837
v -296.339 0 360.4832
v -297.4643 0 360.4832
v -296.339 0 361.6086
v -297.4643 0 361.6086
v -277.9585 0 360.1081
v -278.7087 0 360.1081
v -277.9585 0 361.2335
v -278.7087 0 361.2335
v -293.3381 0 360.1081
v -294.0883 0 360.1081
v -293.3381 0 361.6086
v -294.0883 0 361.6086
v -276.458 0 359.3579
v -277.5833 0 359.3579
v -276.458 0 360.8584
v -277.5833 0 360.8584
v -278.3336 0 358.6077
v -279.0838 0 358.6077
v -278.3336 0 359.733
v -279.0838 0 359.733
v -283.5851 0 358.6077
v -284.3354 0 358.6077
v -283.5851 0 359.733
v -284.3354 0 359.733
v -280.5843 0 358.2326
v -281.3345 0 358.2326
v -280.5843 0 359.733
v -281.3345 0 359.733
v -275.7078 0 358.2326
v -276.458 0 358.2326
v -275.7078 0 359.3579
v -276.458 0 359.3579
v -278.7087 0 358.2326
v -279.4589 0 358.2326
v -278.7087 0 359.3579
v -279.4589 0 359.3579
v -277.5833 0 357.8575
v -278.7087 0 357.8575
v -277.5833 0 359.3579
v -278.7087 0 359.3579
v -278.7087 0 357.4824
v -279.4589 0 357.4824
v -278.7087 0 358.6077
v -279.4589 0 358.6077
v -269.706 0 356.357
v -270.4562 0 356.357
v -269.706 0 357.8575
v -270.4562 0 357.8575
v -277.5833 0 356.357
v -278.3336 0 356.357
v -277.5833 0 357.8575
v -278.3336 0 357.8575
v -280.2091 0 356.357
v -281.3345 0 356.357
v -280.2091 0 357.4824
v -281.3345 0 357.4824
v -279.0838 0 355.9819
v -280.2091 0 355.9819
v -279.0838 0 357.4824
v -280.2091 0 357.4824
v -280.9594 0 355.6068
v -281.7096 0 355.6068
v -280.9594 0 357.1072
v -281.7096 0 357.1072
v -278.3336 0 355.6068
v -279.0838 0 355.6068
v -278.3336 0 356.7321
v -279.0838 0 356.7321
v -282.8349 0 355.6068
v -283.5851 0 355.6068
v -282.8349 0 356.7321
v -283.5851 0 356.7321
v -281.7096 0 355.2317
v -282.4598 0 355.2317
v -281.7096 0 356.357
v -282.4598 0 356.357
v -279.834 0 354.8566
v -280.9594 0 354.8566
v -279.834 0 355.9819
v -280.9594 0 355.9819
v -279.0838 0 354.4814
v -280.2091 0 354.4814
v -279.0838 0 355.9819
v -280.2091 0 355.9819
v -281.3345 0 354.4814
v -282.0847 0 354.4814
v -281.3345 0 355.6068
v -282.0847 0 355.6068
v -277.9585 0 354.4814
v -279.0838 0 354.4814
v -277.9585 0 355.6068
v -279.0838 0 355.6068
v -280.5843 0 354.1063
v -281.7096 0 354.1063
v -280.5843 0 355.6068
v -281.7096 0 355.6068
v -279.0838 0 353.7312
v -279.834 0 353.7312
v -279.0838 0 355.2317
v -279.834 0 355.2317
v -277.5833 0 353.7312
v -278.3336 0 353.7312
v -277.5833 0 354.8566
v -278.3336 0 354.8566
v -282.0847 0 353.3561
v -282.8349 0 353.3561
v -282.0847 0 354.8566
v -282.8349 0 354.8566
v -278.7087 0 352.981
v -279.834 0 352.981
v -278.7087 0 354.4814
v -279.834 0 354.4814
v -287.7114 0 353.3561
v -288.4616 0 353.3561
v -287.7114 0 354.4814
v -288.4616 0 354.4814
v -283.5851 0 352.981
v -284.7105 0 352.981
v -283.5851 0 354.4814
v -284.7105 0 354.4814
vt 0 0.9058824
vt 0.06666667 0.9058824
vt 0 1
vt 0.06666667 1
vt 0 0.9058824
vt 0.06666667 0.9058824
vt 0 1
vt 0.06666667 1
vt 0 0.9058824
vt 0.06666667 0.9058824
vt 0 1
vt 0.06666667 1
vt 0 0.9058824
vt 0.06666667 0.9058824
vt 0 1
vt 0.06666667 1
vt 0 0.9058824
vt 0.06666667 0.9058824
vt 0 1
vt 0.06666667 1
vt 0 0.9058824
vt 0.06666667 0.9058824
vt 0 1
vt 0.06666667 1
vt 0 0.9058824
vt 0.06666667 0.9058824
vt 0 1
vt 0.06666667 1
vt 0 0.9058824
vt 0.06666667 0.9058824
vt 0 1
vt 0.06666667 1
vt 0 0.9058824
vt 0.06666667 0.9058824
vt 0 1
vt 0.06666667 1
vt 0 0.9058824
vt 0.06666667 0.9058824
vt 0 1
vt 0.06666667 1
vt 0 0.9058824
vt 0.06666667 0.9058824
vt 0 1
vt 0.06666667 1
vt 0 0.9058824
vt 0.06666667 0.9058824
vt 0 1
vt 0.06666667 1
vt 0 0.9058824
vt 0.06666667 0.9058824
vt 0 1
vt 0.06666667 1
vt 0 0.9058824
vt 0.06666667 0.9058824
vt 0 1
vt 0.06666667 1
vt 0 0.9058824
vt 0.06666667 0.9058824
vt 0 1
vt 0.06666667 1
vt 0 0.9058824
vt 0.06666667 0.9058824
vt 0 1
vt 0.06666667 1
vt 0 0.9058824
vt 0.06666667 0.9058824
vt 0 1
vt 0.06666667 1
vt 0 0.9058824
vt 0.06666667 0.9058824
vt 0 1
vt 0.06666667 1
vt 0 0.9058824
vt 0.06666667 0.9058824
vt 0 1
vt 0.06666667 1
vt 0 0.9058824
vt 0.06666667 0.9058824
vt 0 1
vt 0.06666667 1
vt 0 0.9058824
vt 0.06666667 0.9058824
vt 0 1
vt 0.06666667 1
vt 0 0.9058824
vt 0.06666667 0.9058824
vt 0 1
vt 0.06666667 1
vt 0 0.9058824
vt 0.06666667 0.9058824
vt 0 1
vt 0.06666667 1
vt 0 0.9058824
vt 0.06666667 0.9058824
vt 0 1
vt 0.06666667 1
vt 0 0.9058824
vt 0.06666667 0.9058824
vt 0 1
vt 0.06666667 1
vt 0 0.9058824
vt 0.06666667 0.9058824
vt 0 1
vt 0.06666667 1
vt 0 0.9058824
vt 0.06666667 0.9058824
vt 0 1
vt 0.06666667 1
vt 0 0.9058824
vt 0.06666667 0.9058824
vt 0 1
vt 0.06666667 1
vt 0 0.9058824
vt 0.06666667 0.9058824
vt 0 1
vt 0.06666667 1
vt 0 0.9058824
vt 0.06666667 0.9058824
vt 0 1
vt 0.06666667 1
vt 0 0.9058824
vt 0.06666667 0.9058824
vt 0 1
vt 0.06666667 1
vt 0 0.9058824
vt 0.06666667 0.9058824
vt 0 1
vt 0.06666667 1
vt 0 0.9058824
vt 0.06666667 0.9058824
vt 0 1
vt 0.06666667 1
vt 0 0.9058824
vt 0.06666667 0.9058824
vt 0 1
vt 0.06666667 1
vt 0 0.9058824
vt 0.06666667 0.9058824
vt 0 1
vt 0.06666667 1
vt 0 0.9058824
vt 0.06666667 0.9058824
vt 0 1
vt 0.06666667 1
vt 0 0.9058824
vt 0.06666667 0.9058824
vt 0 1
vt 0.06666667 1
vt 0 0.9058824
vt 0.06666667 0.9058824
vt 0 1
vt 0.06666667 1
vt 0 0.9058824
vt 0.06666667 0.9058824
vt 0 1
vt 0.06666667 1
vt 0 0.9058824
vt 0.06666667 0.9058824
vt 0 1
vt 0.06666667 1
vt 0 0.9058824
vt 0.06666667 0.9058824
vt 0 1
vt 0.06666667 1
vt 0 0.9058824
vt 0.06666667 0.9058824
vt 0 1
vt 0.06666667 1
vt 0 0.9058824
vt 0.06666667 0.9058824
vt 0 1
vt 0.06666667 1
vt 0 0.9058824
vt 0.06666667 0.9058824
vt 0 1
vt 0.06666667 1
vt 0 0.9058824
vt 0.06666667 0.9058824
vt 0 1
vt 0.06666667 1
vt 0 0.9058824
vt 0.06666667 0.9058824
vt 0 1
vt 0.06666667 1
vt 0 0.9058824
vt 0.06666667 0.9058824
vt 0 1
vt 0.06666667 1
vt 0 0.9058824
vt 0.06666667 0.9058824
vt 0 1
vt 0.06666667 1
vt 0 0.9058824
vt 0.06666667 0.9058824
vt 0 1
vt 0.06666667 1
vt 0 0.9058824
vt 0.06666667 0.9058824
vt 0 1
vt 0.06666667 1
vt 0 0.9058824
vt 0.06666667 0.9058824
vt 0 1
vt 0.06666667 1
vt 0 0.9058824
vt 0.06666667 0.9058824
vt 0 1
vt 0.06666667 1
vt 0 0.9058824
vt 0.06666667 0.9058824
vt 0 1
vt 0.06666667 1
vt 0 0.9058824
vt 0.06666667 0.9058824
vt 0 1
vt 0.06666667 1
vt 0 0.9058824
vt 0.06666667 0.9058824
vt 0 1
vt 0.06666667 1
vt 0 0.9058824
vt 0.06666667 0.9058824
vt 0 1
vt 0.06666667 1
vt 0 0.9058824
vt 0.06666667 0.9058824
vt 0 1
vt 0.06666667 1
vt 0 0.9058824
vt 0.06666667 0.9058824
vt 0 1
vt 0.06666667 1
vt 0 0.9058824
vt 0.06666667 0.9058824
vt 0 1
vt 0.06666667 1
vt 0 0.9058824
vt 0.06666667 0.9058824
vt 0 1
vt 0.06666667 1
vt 0 0.9058824
vt 0.06666667 0.9058824
vt 0 1
vt 0.06666667 1
vt 0 0.9058824
vt 0.06666667 0.9058824
vt 0 1
vt 0.06666667 1
vt 0 0.9058824
vt 0.06666667 0.9058824
vt 0 1
vt 0.06666667 1
vt 0 0.9058824
vt 0.06666667 0.9058824
vt 0 1
vt 0.06666667 1
vt 0 0.9058824
vt 0.06666667 0.9058824
vt 0 1
vt 0.06666667 1
vt 0 0.9058824
vt 0.06666667 0.9058824
vt 0 1
vt 0.06666667 1
vt 0 0.9058824
vt 0.06666667 0.9058824
vt 0 1
vt 0.06666667 1
vn 0 1 0
vn 0 1 0
vn 0 1 0
vn 0 1 0
vn 0 1 0
vn 0 1 0
vn 0 1 0
vn 0 1 0
vn 0 1 0
vn 0 1 0
vn 0 1 0
vn 0 1 0
vn 0 1 0
vn 0 1 0
vn 0 1 0
vn 0 1 0
vn 0 1 0
vn 0 1 0
vn 0 1 0
vn 0 1 0
vn 0 1 0
vn 0 1 0
vn 0 1 0
vn 0 1 0
vn 0 1 0
vn 0 1 0
vn 0 1 0
vn 0 1 0
vn 0 1 0
vn 0 1 0
vn 0 1 0
vn 0 1 0
vn 0 1 0
vn 0 1 0
vn 0 1 0
vn 0 1 0
vn 0 1 0
vn 0 1 0
vn 0 1 0
vn 0 1 0
vn 0 1 0
vn 0 1 0
vn 0 1 0
vn 0 1 0
vn 0 1 0
vn 0 1 0
vn 0 1 0
vn 0 1 0
vn 0 1 0
vn 0 1 0
vn 0 1 0
vn 0 1 0
vn 0 1 0
vn 0 1 0
vn 0 1 0
vn 0 1 0
vn 0 1 0
vn 0 1 0
vn 0 1 0
vn 0 1 0
vn 0 1 0
vn 0 1 0
vn 0 1 0
vn 0 1 0
vn 0 1 0
vn 0 1 0
vn 0 1 0
vn 0 1 0
vn 0 1 0
vn 0 1 0
vn 0 1 0
vn 0 1 0
vn 0 1 0
vn 0 1 0
vn 0 1 0
vn 0 1 0
vn 0 1 0
vn 0 1 0
vn 0 1 0
vn 0 1 0
vn 0 1 0
vn 0 1 0
vn 0 1 0
vn 0 1 0
vn 0 1 0
vn 0 1 0
vn 0 1 0
vn 0 1 0
vn 0 1 0
vn 0 1 0
vn 0 1 0
vn 0 1 0
vn 0 1 0
vn 0 1 0
vn 0 1 0
vn 0 1 0
vn 0 1 0
vn 0 1 0
vn 0 1 0
vn 0 1 0
vn 0 1 0
vn 0 1 0
vn 0 1 0
vn 0 1 0
vn 0 1 0
vn 0 1 0
vn 0 1 0
vn 0 1 0
vn 0 1 0
vn 0 1 0
vn 0 1 0
vn 0 1 0
vn 0 1 0
vn 0 1 0
vn 0 1 0
vn 0 1 0
vn 0 1 0
vn 0 1 0
vn 0 1 0
vn 0 1 0
vn 0 1 0
vn 0 1 0
vn 0 1 0
vn 0 1 0
vn 0 1 0
vn 0 1 0
vn 0 1 0
vn 0 1 0
vn 0 1 0
vn 0 1 0
vn 0 1 0
vn 0 1 0
vn 0 1 0
vn 0 1 0
vn 0 1 0
vn 0 1 0
vn 0 1 0
vn 0 1 0
vn 0 1 0
vn 0 1 0
vn 0 1 0
vn 0 1 0
vn 0 1 0
vn 0 1 0
vn 0 1 0
vn 0 1 0
vn 0 1 0
vn 0 1 0
vn 0 1 0
vn 0 1 0
vn 0 1 0
vn 0 1 0
vn 0 1 0
vn 0 1 0
vn 0 1 0
vn 0 1 0
vn 0 1 0
vn 0 1 0
vn 0 1 0
vn 0 1 0
vn 0 1 0
vn 0 1 0
vn 0 1 0
vn 0 1 0
vn 0 1 0
vn 0 1 0
vn 0 1 0
vn 0 1 0
vn 0 1 0
vn 0 1 0
vn 0 1 0
vn 0 1 0
vn 0 1 0
vn 0 1 0
vn 0 1 0
vn 0 1 0
vn 0 1 0
vn 0 1 0
vn 0 1 0
vn 0 1 0
vn 0 1 0
vn 0 1 0
vn 0 1 0
vn 0 1 0
vn 0 1 0
vn 0 1 0
vn 0 1 0
vn 0 1 0
vn 0 1 0
vn 0 1 0
vn 0 1 0
vn 0 1 0
vn 0 1 0
vn 0 1 0
vn 0 1 0
vn 0 1 0
vn 0 1 0
vn 0 1 0
vn 0 1 0
vn 0 1 0
vn 0 1 0
vn 0 1 0
vn 0 1 0
vn 0 1 0
vn 0 1 0
vn 0 1 0
vn 0 1 0
vn 0 1 0
vn 0 1 0
vn 0 1 0
vn 0 1 0
vn 0 1 0
vn 0 1 0
vn 0 1 0
vn 0 1 0
vn 0 1 0
vn 0 1 0
vn 0 1 0
vn 0 1 0
vn 0 1 0
vn 0 1 0
vn 0 1 0
vn 0 1 0
vn 0 1 0
vn 0 1 0
vn 0 1 0
vn 0 1 0
vn 0 1 0
vn 0 1 0
vn 0 1 0
vn 0 1 0
vn 0 1 0
vn 0 1 0
vn 0 1 0
vn 0 1 0
vn 0 1 0
vn 0 1 0
vn 0 1 0
vn 0 1 0
vn 0 1 0
vn 0 1 0
vn 0 1 0
vn 0 1 0
vn 0 1 0
vn 0 1 0
vn 0 1 0
vn 0 1 0
vn 0 1 0
vn 0 1 0
vn 0 1 0
vn 0 1 0
vn 0 1 0
vn 0 1 0
vn 0 1 0
vn 0 1 0
vn 0 1 0
vn 0 1 0
vn 0 1 0
vn 0 1 0
vn 0 1 0
vn 0 1 0
vn 0 1 0
vn 0 1 0
vn 0 1 0
vn 0 1 0
vn 0 1 0
vn 0 1 0
vn 0 1 0
g Grass_0_Cluster279_0
f 2/2/2 3/3/3 1/1/1
f 2/2/2 4/4/4 3/3/3
f 6/6/6 7/7/7 5/5/5
f 6/6/6 8/8/8 7/7/7
f 10/10/10 11/11/11 9/9/9
f 10/10/10 12/12/12 11/11/11
f 14/14/14 15/15/15 13/13/13
f 14/14/14 16/16/16 15/15/15
f 18/18/18 19/19/19 17/17/17
f 18/18/18 20/20/20 19/19/19
f 22/22/22 23/23/23 21/21/21
f 22/22/22 24/24/24 23/23/23
f 26/26/26 27/27/27 25/25/25
f 26/26/26 28/28/28 27/27/27
f 30/30/30 31/31/31 29/29/29
f 30/30/30 32/32/32 31/31/31
f 34/34/34 35/35/35 33/33/33
f 34/34/34 36/36/36 35/35/35
f 38/38/38 39/39/39 37/37/37
f 38/38/38 40/40/40 39/39/39
f 42/42/42 43/43/43 41/41/41
f 42/42/42 44/44/44 43/43/43
f 46/46/46 47/47/47 45/45/45
f 46/46/46 48/48/48 47/47/47
f 50/50/50 51/51/51 49/49/49
f 50/50/50 52/52/52 51/51/51
f 54/54/54 55/55/55 53/53/53
f 54/54/54 56/56/56 55/55/55
f 58/58/58 59/59/59 57/57/57
f 58/58/58 60/60/60 59/59/59
f 62/62/62 63/63/63 61/61/61
f 62/62/62 64/64/64 63/63/63
f 66/66/66 67/67/67 65/65/65
f 66/66/66 68/68/68 67/67/67
f 70/70/70 71/71/71 69/69/69
f 70/70/70 72/72/72 71/71/71
f 74/74/74 75/75/75 73/73/73
f 74/74/74 76/76/76 75/75/75
f 78/78/78 79/79/79 77/77/77
f 78/78/78 80/80/80 79/79/79
f 82/82/82 83/83/83 81/81/81
f 82/82/82 84/84/84 83/83/83
f 86/86/86 87/87/87 85/85/85
f 86/86/86 88/88/88 87/87/87
f 90/90/90 91/91/91 89/89/89
f 90/90/90 92/92/92 91/91/91
f 94/94/94 95/95/95 93/93/93
f 94/94/94 96/96/96 95/95/95
f 98/98/98 99/99/99 97/97/97
f 98/98/98 100/100/100 99/99/99
f 102/102/102 103/103/103 101/101/101
f 102/102/102 104/104/104 103/103/103
f 106/106/106 107/107/107 105/105/105
f 106/106/106 108/108/108 107/107/107
f 110/110/110 111/111/111 109/109/109
f 110/110/110 112/112/112 111/111/111
f 114/114/114 115/115/115 113/113/113
f 114/114/114 116/116/116 115/115/115
f 118/118/118 119/119/119 117/117/117
f 118/118/118 120/120/120 119/119/119
f 122/122/122 123/123/123 121/121/121
f 122/122/122 124/124/124 123/123/123
f 126/126/126 127/127/127 125/125/125
f 126/126/126 128/128/128 127/127/127
f 130/130/130 131/131/131 129/129/129
f 130/130/130 132/132/132 131/131/131
f 134/134/134 135/135/135 133/133/133
f 134/134/134 136/136/136 135/135/135
f 138/138/138 139/139/139 137/137/137
f 138/138/138 140/140/140 139/139/139
f 142/142/142 143/143/143 141/141/141
f 142/142/142 144/144/144 143/143/143
f 146/146/146 147/147/147 145/145/145
f 146/146/146 148/148/148 147/147/147
f 150/150/150 151/151/151 149/149/149
f 150/150/150 152/152/152 151/151/151
f 154/154/154 155/155/155 153/153/153
f 154/154/154 156/156/156 155/155/155
f 158/158/158 159/159/159 157/157/157
f 158/158/158 160/160/160 159/159/159
f 162/162/162 163/163/163 161/161/161
f 162/162/162 164/164/164 163/163/163
f 166/166/166 167/167/167 165/165/165
f 166/166/166 168/168/168 167/167/167
f 170/170/170 171/171/171 169/169/169
f 170/170/170 172/172/172 171/171/171
f 174/174/174 175/175/175 173/173/173
f 174/174/174 176/176/176 175/175/175
f 178/178/178 179/179/179 177/177/177
f 178/178/178 180/180/180 179/179/179
f 182/182/182 183/183/183 181/181/181
f 182/182/182 184/184/184 183/183/183
f 186/186/186 187/187/187 185/185/185
f 186/186/186 188/188/188 187/187/187
f 190/190/190 191/191/191 189/189/189
f 190/190/190 192/192/192 191/191/191
f 194/194/194 195/195/195 193/193/193
f 194/194/194 196/196/196 195/195/195
f 198/198/198 199/199/199 197/197/197
f 198/198/198 200/200/200 199/199/199
f 202/202/202 203/203/203 201/201/201
f 202/202/202 204/204/204 203/203/203
f 206/206/206 207/207/207 205/205/205
f 206/206/206 208/208/208 207/207/207
f 210/210/210 211/211/211 209/209/209
f 210/210/210 212/212/212 211/211/211
f 214/214/214 215/215/215 213/213/213
f 214/214/214 216/216/216 215/215/215
f 218/218/218 219/219/219 217/217/217
f 218/218/218 220/220/220 219/219/219
f 222/222/222 223/223/223 221/221/221
f 222/222/222 224/224/224 223/223/223
f 226/226/226 227/227/227 225/225/225
f 226/226/226 228/228/228 227/227/227
f 230/230/230 231/231/231 229/229/229
f 230/230/230 232/232/232 231/231/231
f 234/234/234 235/235/235 233/233/233
f 234/234/234 236/236/236 235/235/235
f 238/238/238 239/239/239 237/237/237
f 238/238/238 240/240/240 239/239/239
f 242/242/242 243/243/243 241/241/241
f 242/242/242 244/244/244 243/243/243
f 246/246/246 247/247/247 245/245/245
f 246/246/246 248/248/248 247/247/247
f 250/250/250 251/251/251 249/249/249
f 250/250/250 252/252/252 251/251/251
f 254/254/254 255/255/255 253/253/253
f 254/254/254 256/256/256 255/255/255
f 258/258/258 259/259/259 257/257/257
f 258/258/258 260/260/260 259/259/259
f 262/262/262 263/263/263 261/261/261
f 262/262/262 264/264/264 263/263/263
f 266/266/266 267/267/267 265/265/265
f 266/266/266 268/268/268 267/267/267
