g Grass_0_Cluster298
v -240.1282 0 411.6483
v -240.9353 0 411.6483
v -240.1282 0 412.859
v -240.9353 0 412.859
v -241.7425 0 411.2447
v -242.5496 0 411.2447
v -241.7425 0 412.4555
v -242.5496 0 412.4555
v -267.5714 0 410.034
v -268.3785 0 410.034
v -267.5714 0 411.6483
v -268.3785 0 411.6483
v -265.5535 0 408.4197
v -266.3607 0 408.4197
v -265.5535 0 409.6304
v -266.3607 0 409.6304
v -255.8677 0 408.4197
v -256.6748 0 408.4197
v -255.8677 0 409.6304
v -256.6748 0 409.6304
v -269.5893 0 408.0161
v -270.3965 0 408.0161
v -269.5893 0 409.2268
v -270.3965 0 409.2268
v -269.1857 0 407.6125
v -269.9929 0 407.6125
v -269.1857 0 408.8233
v -269.9929 0 408.8233
v -253.8498 0 407.209
v -255.0605 0 407.209
v -253.8498 0 408.4197
v -255.0605 0 408.4197
v -268.3785 0 407.209
v -269.5893 0 407.209
v -268.3785 0 408.4197
v -269.5893 0 408.4197
v -265.1499 0 407.209
v -266.3607 0 407.209
v -265.1499 0 408.4197
v -266.3607 0 408.4197
v -267.1678 0 406.8054
v -267.975 0 406.8054
v -267.1678 0 408.0161
v -267.975 0 408.0161
v -257.8856 0 406.8054
v -258.6927 0 406.8054
v -257.8856 0 408.0161
v -258.6927 0 408.0161
v -269.1857 0 406.8054
v -269.9929 0 406.8054
v -269.1857 0 408.0161
v -269.9929 0 408.0161
v -255.0605 0 406.4018
v -255.8677 0 406.4018
v -255.0605 0 407.6125
v -255.8677 0 407.6125
v -267.5714 0 405.9982
v -268.3785 0 405.9982
v -267.5714 0 407.209
v -268.3785 0 407.209
v -268.3785 0 405.5947
v -269.1857 0 405.5947
v -268.3785 0 406.8054
v -269.1857 0 406.8054
v -256.2712 0 405.1911
v -257.0784 0 405.1911
v -256.2712 0 406.4018
v -257.0784 0 406.4018
v -266.7643 0 405.1911
v -267.5714 0 405.1911
v -266.7643 0 406.4018
v -267.5714 0 406.4018
v -251.0247 0 404.7875
v -252.2355 0 404.7875
v -251.0247 0 405.9982
v -252.2355 0 405.9982
v -267.5714 0 404.7875
v -268.3785 0 404.7875
v -267.5714 0 405.9982
v -268.3785 0 405.9982
v -255.4641 0 404.7875
v -256.2712 0 404.7875
v -255.4641 0 405.9982
v -256.2712 0 405.9982
v -252.6391 0 404.3839
v -253.4462 0 404.3839
v -252.6391 0 405.5947
v -253.4462 0 405.5947
v -267.1678 0 403.9803
v -267.975 0 403.9803
v -267.1678 0 405.5947
v -267.975 0 405.5947
v -254.657 0 403.5768
v -255.4641 0 403.5768
v -254.657 0 404.7875
v -255.4641 0 404.7875
v -263.132 0 403.1732
v -263.9392 0 403.1732
v -263.132 0 404.3839
v -263.9392 0 404.3839
v -256.2712 0 403.1732
v -257.0784 0 403.1732
v -256.2712 0 404.3839
v -257.0784 0 404.3839
v -254.2534 0 402.7696
v -255.4641 0 402.7696
v -254.2534 0 403.9803
v -255.4641 0 403.9803
v -255.8677 0 402.3661
v -256.6748 0 402.3661
v -255.8677 0 403.1732
v -256.6748 0 403.1732
v -255.0605 0 400.7517
v -256.2712 0 400.7517
v -255.0605 0 401.9625
v -256.2712 0 401.9625
v -250.2176 0 399.541
v -251.0247 0 399.541
v -250.2176 0 401.1553
v -251.0247 0 401.1553
v -249.4104 0 398.7339
v -250.2176 0 398.7339
v -249.4104 0 399.9446
v -250.2176 0 399.9446
v -245.3747 0 398.3303
v -246.1818 0 398.3303
v -245.3747 0 399.541
v -246.1818 0 399.541
v -252.2355 0 390.6623
v -253.0426 0 390.6623
v -252.2355 0 391.873
v -253.0426 0 391.873
v -253.0426 0 390.6623
v -253.8498 0 390.6623
v -253.0426 0 391.4695
v -253.8498 0 391.4695
v -267.5714 0 388.6444
v -268.3785 0 388.6444
v -267.5714 0 389.8552
v -268.3785 0 389.8552
v -243.3568 0 387.4337
v -244.164 0 387.4337
v -243.3568 0 388.6444
v -244.164 0 388.6444
v -240.1282 0 385.4158
v -240.9353 0 385.4158
v -240.1282 0 386.6266
v -240.9353 0 386.6266
v -239.7246 0 384.6087
v -240.9353 0 384.6087
v -239.7246 0 385.8194
v -240.9353 0 385.8194
v -253.0426 0 384.2051
v -254.2534 0 384.2051
v -253.0426 0 385.4158
v -254.2534 0 385.4158
vt 0 0.9058824
vt 0.06666667 0.9058824
vt 0 1
vt 0.06666667 1
vt 0 0.9058824
vt 0.06666667 0.9058824
vt 0 1
vt 0.06666667 1
vt 0 0.9058824
vt 0.06666667 0.9058824
vt 0 1
vt 0.06666667 1
vt 0 0.9058824
vt 0.06666667 0.9058824
vt 0 1
vt 0.06666667 1
vt 0 0.9058824
vt 0.06666667 0.9058824
vt 0 1
vt 0.06666667 1
vt 0 0.9058824
vt 0.06666667 0.9058824
vt 0 1
vt 0.06666667 1
vt 0 0.9058824
vt 0.06666667 0.9058824
vt 0 1
vt 0.06666667 1
vt 0 0.9058824
vt 0.06666667 0.9058824
vt 0 1
vt 0.06666667 1
vt 0 0.9058824
vt 0.06666667 0.9058824
vt 0 1
vt 0.06666667 1
vt 0 0.9058824
vt 0.06666667 0.9058824
vt 0 1
vt 0.06666667 1
vt 0 0.9058824
vt 0.06666667 0.9058824
vt 0 1
vt 0.06666667 1
vt 0 0.9058824
vt 0.06666667 0.9058824
vt 0 1
vt 0.06666667 1
vt 0 0.9058824
vt 0.06666667 0.9058824
vt 0 1
vt 0.06666667 1
vt 0 0.9058824
vt 0.06666667 0.9058824
vt 0 1
vt 0.06666667 1
vt 0 0.9058824
vt 0.06666667 0.9058824
vt 0 1
vt 0.06666667 1
vt 0 0.9058824
vt 0.06666667 0.9058824
vt 0 1
vt 0.06666667 1
vt 0 0.9058824
vt 0.06666667 0.9058824
vt 0 1
vt 0.06666667 1
vt 0 0.9058824
vt 0.06666667 0.9058824
vt 0 1
vt 0.06666667 1
vt 0 0.9058824
vt 0.06666667 0.9058824
vt 0 1
vt 0.06666667 1
vt 0 0.9058824
vt 0.06666667 0.9058824
vt 0 1
vt 0.06666667 1
vt 0 0.9058824
vt 0.06666667 0.9058824
vt 0 1
vt 0.06666667 1
vt 0 0.9058824
vt 0.06666667 0.9058824
vt 0 1
vt 0.06666667 1
vt 0 0.9058824
vt 0.06666667 0.9058824
vt 0 1
vt 0.06666667 1
vt 0 0.9058824
vt 0.06666667 0.9058824
vt 0 1
vt 0.06666667 1
vt 0 0.9058824
vt 0.06666667 0.9058824
vt 0 1
vt 0.06666667 1
vt 0 0.9058824
vt 0.06666667 0.9058824
vt 0 1
vt 0.06666667 1
vt 0 0.9058824
vt 0.06666667 0.9058824
vt 0 1
vt 0.06666667 1
vt 0 0.9058824
vt 0.06666667 0.9058824
vt 0 1
vt 0.06666667 1
vt 0 0.9058824
vt 0.06666667 0.9058824
vt 0 1
vt 0.06666667 1
vt 0 0.9058824
vt 0.06666667 0.9058824
vt 0 1
vt 0.06666667 1
vt 0 0.9058824
vt 0.06666667 0.9058824
vt 0 1
vt 0.06666667 1
vt 0 0.9058824
vt 0.06666667 0.9058824
vt 0 1
vt 0.06666667 1
vt 0 0.9058824
vt 0.06666667 0.9058824
vt 0 1
vt 0.06666667 1
vt 0 0.9058824
vt 0.06666667 0.9058824
vt 0 1
vt 0.06666667 1
vt 0 0.9058824
vt 0.06666667 0.9058824
vt 0 1
vt 0.06666667 1
vt 0 0.9058824
vt 0.06666667 0.9058824
vt 0 1
vt 0.06666667 1
vt 0 0.9058824
vt 0.06666667 0.9058824
vt 0 1
vt 0.06666667 1
vt 0 0.9058824
vt 0.06666667 0.9058824
vt 0 1
vt 0.06666667 1
vt 0 0.9058824
vt 0.06666667 0.9058824
vt 0 1
vt 0.06666667 1
vn 0 1 0
vn 0 1 0
vn 0 1 0
vn 0 1 0
vn 0 1 0
vn 0 1 0
vn 0 1 0
vn 0 1 0
vn 0 1 0
vn 0 1 0
vn 0 1 0
vn 0 1 0
vn 0 1 0
vn 0 1 0
vn 0 1 0
vn 0 1 0
vn 0 1 0
vn 0 1 0
vn 0 1 0
vn 0 1 0
vn 0 1 0
vn 0 1 0
vn 0 1 0
vn 0 1 0
vn 0 1 0
vn 0 1 0
vn 0 1 0
vn 0 1 0
vn 0 1 0
vn 0 1 0
vn 0 1 0
vn 0 1 0
vn 0 1 0
vn 0 1 0
vn 0 1 0
vn 0 1 0
vn 0 1 0
vn 0 1 0
vn 0 1 0
vn 0 1 0
vn 0 1 0
vn 0 1 0
vn 0 1 0
vn 0 1 0
vn 0 1 0
vn 0 1 0
vn 0 1 0
vn 0 1 0
vn 0 1 0
vn 0 1 0
vn 0 1 0
vn 0 1 0
vn 0 1 0
vn 0 1 0
vn 0 1 0
vn 0 1 0
vn 0 1 0
vn 0 1 0
vn 0 1 0
vn 0 1 0
vn 0 1 0
vn 0 1 0
vn 0 1 0
vn 0 1 0
vn 0 1 0
vn 0 1 0
vn 0 1 0
vn 0 1 0
vn 0 1 0
vn 0 1 0
vn 0 1 0
vn 0 1 0
vn 0 1 0
vn 0 1 0
vn 0 1 0
vn 0 1 0
vn 0 1 0
vn 0 1 0
vn 0 1 0
vn 0 1 0
vn 0 1 0
vn 0 1 0
vn 0 1 0
vn 0 1 0
vn 0 1 0
vn 0 1 0
vn 0 1 0
vn 0 1 0
vn 0 1 0
vn 0 1 0
vn 0 1 0
vn 0 1 0
vn 0 1 0
vn 0 1 0
vn 0 1 0
vn 0 1 0
vn 0 1 0
vn 0 1 0
vn 0 1 0
vn 0 1 0
vn 0 1 0
vn 0 1 0
vn 0 1 0
vn 0 1 0
vn 0 1 0
vn 0 1 0
vn 0 1 0
vn 0 1 0
vn 0 1 0
vn 0 1 0
vn 0 1 0
vn 0 1 0
vn 0 1 0
vn 0 1 0
vn 0 1 0
vn 0 1 0
vn 0 1 0
vn 0 1 0
vn 0 1 0
vn 0 1 0
vn 0 1 0
vn 0 1 0
vn 0 1 0
vn 0 1 0
vn 0 1 0
vn 0 1 0
vn 0 1 0
vn 0 1 0
vn 0 1 0
vn 0 1 0
vn 0 1 0
vn 0 1 0
vn 0 1 0
vn 0 1 0
vn 0 1 0
vn 0 1 0
vn 0 1 0
vn 0 1 0
vn 0 1 0
vn 0 1 0
vn 0 1 0
vn 0 1 0
vn 0 1 0
vn 0 1 0
vn 0 1 0
vn 0 1 0
vn 0 1 0
vn 0 1 0
vn 0 1 0
vn 0 1 0
vn 0 1 0
vn 0 1 0
vn 0 1 0
vn 0 1 0
vn 0 1 0
vn 0 1 0
g Grass_0_Cluster298_0
f 2/2/2 3/3/3 1/1/1
f 2/2/2 4/4/4 3/3/3
f 6/6/6 7/7/7 5/5/5
f 6/6/6 8/8/8 7/7/7
f 10/10/10 11/11/11 9/9/9
f 10/10/10 12/12/12 11/11/11
f 14/14/14 15/15/15 13/13/13
f 14/14/14 16/16/16 15/15/15
f 18/18/18 19/19/19 17/17/17
f 18/18/18 20/20/20 19/19/19
f 22/22/22 23/23/23 21/21/21
f 22/22/22 24/24/24 23/23/23
f 26/26/26 27/27/27 25/25/25
f 26/26/26 28/28/28 27/27/27
f 30/30/30 31/31/31 29/29/29
f 30/30/30 32/32/32 31/31/31
f 34/34/34 35/35/35 33/33/33
f 34/34/34 36/36/36 35/35/35
f 38/38/38 39/39/39 37/37/37
f 38/38/38 40/40/40 39/39/39
f 42/42/42 43/43/43 41/41/41
f 42/42/42 44/44/44 43/43/43
f 46/46/46 47/47/47 45/45/45
f 46/46/46 48/48/48 47/47/47
f 50/50/50 51/51/51 49/49/49
f 50/50/50 52/52/52 51/51/51
f 54/54/54 55/55/55 53/53/53
f 54/54/54 56/56/56 55/55/55
f 58/58/58 59/59/59 57/57/57
f 58/58/58 60/60/60 59/59/59
f 62/62/62 63/63/63 61/61/61
f 62/62/62 64/64/64 63/63/63
f 66/66/66 67/67/67 65/65/65
f 66/66/66 68/68/68 67/67/67
f 70/70/70 71/71/71 69/69/69
f 70/70/70 72/72/72 71/71/71
f 74/74/74 75/75/75 73/73/73
f 74/74/74 76/76/76 75/75/75
f 78/78/78 79/79/79 77/77/77
f 78/78/78 80/80/80 79/79/79
f 82/82/82 83/83/83 81/81/81
f 82/82/82 84/84/84 83/83/83
f 86/86/86 87/87/87 85/85/85
f 86/86/86 88/88/88 87/87/87
f 90/90/90 91/91/91 89/89/89
f 90/90/90 92/92/92 91/91/91
f 94/94/94 95/95/95 93/93/93
f 94/94/94 96/96/96 95/95/95
f 98/98/98 99/99/99 97/97/97
f 98/98/98 100/100/100 99/99/99
f 102/102/102 103/103/103 101/101/101
f 102/102/102 104/104/104 103/103/103
f 106/106/106 107/107/107 105/105/105
f 106/106/106 108/108/108 107/107/107
f 110/110/110 111/111/111 109/109/109
f 110/110/110 112/112/112 111/111/111
f 114/114/114 115/115/115 113/113/113
f 114/114/114 116/116/116 115/115/115
f 118/118/118 119/119/119 117/117/117
f 118/118/118 120/120/120 119/119/119
f 122/122/122 123/123/123 121/121/121
f 122/122/122 124/124/124 123/123/123
f 126/126/126 127/127/127 125/125/125
f 126/126/126 128/128/128 127/127/127
f 130/130/130 131/131/131 129/129/129
f 130/130/130 132/132/132 131/131/131
f 134/134/134 135/135/135 133/133/133
f 134/134/134 136/136/136 135/135/135
f 138/138/138 139/139/139 137/137/137
f 138/138/138 140/140/140 139/139/139
f 142/142/142 143/143/143 141/141/141
f 142/142/142 144/144/144 143/143/143
f 146/146/146 147/147/147 145/145/145
f 146/146/146 148/148/148 147/147/147
f 150/150/150 151/151/151 149/149/149
f 150/150/150 152/152/152 151/151/151
f 154/154/154 155/155/155 153/153/153
f 154/154/154 156/156/156 155/155/155
