g Grass_2_Cluster69
v 27.91256 -0.02056694 82.88974
v 26.92813 -0.02056694 82.88974
v 27.91256 -0.02056694 83.98354
v 26.92813 -0.02056694 83.98354
v 13.80249 -0.02056694 78.29577
v 12.92745 -0.02056694 78.29577
v 13.80249 -0.02056694 79.28019
v 12.92745 -0.02056694 79.28019
v 14.89629 -0.02056694 78.29577
v 13.91187 -0.02056694 78.29577
v 14.89629 -0.02056694 79.38957
v 13.91187 -0.02056694 79.38957
v 15.22444 -0.02056694 77.53011
v 14.34939 -0.02056694 77.53011
v 15.22444 -0.02056694 78.51453
v 14.34939 -0.02056694 78.51453
v 12.38055 -0.02056694 77.20197
v 11.5055 -0.02056694 77.20197
v 12.38055 -0.02056694 78.29577
v 11.5055 -0.02056694 78.29577
v 12.05241 -0.02056694 76.9832
v 11.06798 -0.02056694 76.9832
v 12.05241 -0.02056694 78.18639
v 11.06798 -0.02056694 78.18639
v 16.09948 -0.02056694 76.65506
v 15.11506 -0.02056694 76.65506
v 16.09948 -0.02056694 77.74886
v 15.11506 -0.02056694 77.74886
v 12.81807 -0.02056694 76.54568
v 11.83364 -0.02056694 76.54568
v 12.81807 -0.02056694 77.74886
v 11.83364 -0.02056694 77.74886
v 14.24001 -0.02056694 76.54568
v 13.25559 -0.02056694 76.54568
v 14.24001 -0.02056694 77.74886
v 13.25559 -0.02056694 77.74886
v 17.19328 -0.02056694 76.32692
v 16.20886 -0.02056694 76.32692
v 17.19328 -0.02056694 77.42072
v 16.20886 -0.02056694 77.42072
v 14.24001 -0.02056694 75.99878
v 13.14621 -0.02056694 75.99878
v 14.24001 -0.02056694 77.20197
v 13.14621 -0.02056694 77.20197
v 15.77134 -0.02056694 75.99878
v 14.78691 -0.02056694 75.99878
v 15.77134 -0.02056694 76.9832
v 14.78691 -0.02056694 76.9832
v 12.70869 -0.02056694 75.78002
v 11.72426 -0.02056694 75.78002
v 12.70869 -0.02056694 76.87383
v 11.72426 -0.02056694 76.87383
v 17.30266 -0.02056694 75.45188
v 16.42762 -0.02056694 75.45188
v 17.30266 -0.02056694 76.4363
v 16.42762 -0.02056694 76.4363
v 14.89629 -0.02056694 75.23312
v 13.80249 -0.02056694 75.23312
v 14.89629 -0.02056694 76.4363
v 13.80249 -0.02056694 76.4363
v 11.83364 -0.02056694 75.12373
v 10.84922 -0.02056694 75.12373
v 11.83364 -0.02056694 76.21754
v 10.84922 -0.02056694 76.21754
v 13.25559 -0.02056694 75.12373
v 12.27117 -0.02056694 75.12373
v 13.25559 -0.02056694 76.21754
v 12.27117 -0.02056694 76.21754
v 13.47435 -0.02056694 74.79559
v 12.48993 -0.02056694 74.79559
v 13.47435 -0.02056694 75.8894
v 12.48993 -0.02056694 75.8894
v 11.28674 -0.02056694 74.46745
v 10.4117 -0.02056694 74.46745
v 11.28674 -0.02056694 75.45188
v 10.4117 -0.02056694 75.45188
v 16.42762 -0.02056694 74.2487
v 15.4432 -0.02056694 74.2487
v 16.42762 -0.02056694 75.23312
v 15.4432 -0.02056694 75.23312
v 10.84922 -0.02056694 74.2487
v 9.864799 -0.02056694 74.2487
v 10.84922 -0.02056694 75.3425
v 9.864799 -0.02056694 75.3425
v 15.11506 -0.02056694 74.02993
v 14.13063 -0.02056694 74.02993
v 15.11506 -0.02056694 75.12373
v 14.13063 -0.02056694 75.12373
v 12.92745 -0.02056694 73.70179
v 11.94303 -0.02056694 73.70179
v 12.92745 -0.02056694 74.90498
v 11.94303 -0.02056694 74.90498
v 4.177019 -0.02056694 73.37365
v 3.192596 -0.02056694 73.37365
v 4.177019 -0.02056694 74.46745
v 3.192596 -0.02056694 74.46745
v 3.630117 -0.02056694 73.26427
v 2.645695 -0.02056694 73.26427
v 3.630117 -0.02056694 74.35808
v 2.645695 -0.02056694 74.35808
v 11.17736 -0.02056694 73.15489
v 10.19294 -0.02056694 73.15489
v 11.17736 -0.02056694 74.2487
v 10.19294 -0.02056694 74.2487
v 12.59931 -0.02056694 72.93613
v 11.72426 -0.02056694 72.93613
v 12.59931 -0.02056694 74.02993
v 11.72426 -0.02056694 74.02993
v 6.255247 -0.02056694 72.82675
v 5.380203 -0.02056694 72.82675
v 6.255247 -0.02056694 73.92056
v 5.380203 -0.02056694 73.92056
v 14.45877 -0.02056694 72.71737
v 13.47435 -0.02056694 72.71737
v 14.45877 -0.02056694 73.81117
v 13.47435 -0.02056694 73.81117
v 5.927105 -0.02056694 71.40481
v 4.942682 -0.02056694 71.40481
v 5.927105 -0.02056694 72.49861
v 4.942682 -0.02056694 72.49861
v 12.05241 -0.02056694 71.29543
v 11.17736 -0.02056694 71.29543
v 12.05241 -0.02056694 72.38923
v 11.17736 -0.02056694 72.38923
v 2.864456 -0.02056694 61.12305
v 1.880032 -0.02056694 61.12305
v 2.864456 -0.02056694 62.21686
v 1.880032 -0.02056694 62.21686
v 5.270824 -0.02056694 60.46677
v 4.395781 -0.02056694 60.46677
v 5.270824 -0.02056694 61.56057
v 4.395781 -0.02056694 61.56057
v 5.817726 -0.02056694 59.91987
v 4.833302 -0.02056694 59.91987
v 5.817726 -0.02056694 61.01367
v 4.833302 -0.02056694 61.01367
v 8.333473 -0.02056694 56.09155
v 7.349051 -0.02056694 56.09155
v 8.333473 -0.02056694 57.29474
v 7.349051 -0.02056694 57.29474
v 5.817726 -0.02056694 55.21651
v 4.833302 -0.02056694 55.21651
v 5.817726 -0.02056694 56.31032
v 4.833302 -0.02056694 56.31032
v 10.73984 -0.02056694 54.12271
v 9.755419 -0.02056694 54.12271
v 10.73984 -0.02056694 55.21651
v 9.755419 -0.02056694 55.21651
v 4.2864 -0.02056694 53.24767
v 3.301977 -0.02056694 53.24767
v 4.2864 -0.02056694 54.34147
v 3.301977 -0.02056694 54.34147
v 5.270824 -0.02056694 53.24767
v 4.177019 -0.02056694 53.24767
v 5.270824 -0.02056694 54.45085
v 4.177019 -0.02056694 54.45085
vt 0.1347656 0.9185662
vt 0.2060202 0.9185662
vt 0.1347656 1
vt 0.2060202 1
vt 0.1347656 0.9185662
vt 0.2060202 0.9185662
vt 0.1347656 1
vt 0.2060202 1
vt 0.1347656 0.9185662
vt 0.2060202 0.9185662
vt 0.1347656 1
vt 0.2060202 1
vt 0.1347656 0.9185662
vt 0.2060202 0.9185662
vt 0.1347656 1
vt 0.2060202 1
vt 0.1347656 0.9185662
vt 0.2060202 0.9185662
vt 0.1347656 1
vt 0.2060202 1
vt 0.1347656 0.9185662
vt 0.2060202 0.9185662
vt 0.1347656 1
vt 0.2060202 1
vt 0.1347656 0.9185662
vt 0.2060202 0.9185662
vt 0.1347656 1
vt 0.2060202 1
vt 0.1347656 0.9185662
vt 0.2060202 0.9185662
vt 0.1347656 1
vt 0.2060202 1
vt 0.1347656 0.9185662
vt 0.2060202 0.9185662
vt 0.1347656 1
vt 0.2060202 1
vt 0.1347656 0.9185662
vt 0.2060202 0.9185662
vt 0.1347656 1
vt 0.2060202 1
vt 0.1347656 0.9185662
vt 0.2060202 0.9185662
vt 0.1347656 1
vt 0.2060202 1
vt 0.1347656 0.9185662
vt 0.2060202 0.9185662
vt 0.1347656 1
vt 0.2060202 1
vt 0.1347656 0.9185662
vt 0.2060202 0.9185662
vt 0.1347656 1
vt 0.2060202 1
vt 0.1347656 0.9185662
vt 0.2060202 0.9185662
vt 0.1347656 1
vt 0.2060202 1
vt 0.1347656 0.9185662
vt 0.2060202 0.9185662
vt 0.1347656 1
vt 0.2060202 1
vt 0.1347656 0.9185662
vt 0.2060202 0.9185662
vt 0.1347656 1
vt 0.2060202 1
vt 0.1347656 0.9185662
vt 0.2060202 0.9185662
vt 0.1347656 1
vt 0.2060202 1
vt 0.1347656 0.9185662
vt 0.2060202 0.9185662
vt 0.1347656 1
vt 0.2060202 1
vt 0.1347656 0.9185662
vt 0.2060202 0.9185662
vt 0.1347656 1
vt 0.2060202 1
vt 0.1347656 0.9185662
vt 0.2060202 0.9185662
vt 0.1347656 1
vt 0.2060202 1
vt 0.1347656 0.9185662
vt 0.2060202 0.9185662
vt 0.1347656 1
vt 0.2060202 1
vt 0.1347656 0.9185662
vt 0.2060202 0.9185662
vt 0.1347656 1
vt 0.2060202 1
vt 0.1347656 0.9185662
vt 0.2060202 0.9185662
vt 0.1347656 1
vt 0.2060202 1
vt 0.1347656 0.9185662
vt 0.2060202 0.9185662
vt 0.1347656 1
vt 0.2060202 1
vt 0.1347656 0.9185662
vt 0.2060202 0.9185662
vt 0.1347656 1
vt 0.2060202 1
vt 0.1347656 0.9185662
vt 0.2060202 0.9185662
vt 0.1347656 1
vt 0.2060202 1
vt 0.1347656 0.9185662
vt 0.2060202 0.9185662
vt 0.1347656 1
vt 0.2060202 1
vt 0.1347656 0.9185662
vt 0.2060202 0.9185662
vt 0.1347656 1
vt 0.2060202 1
vt 0.1347656 0.9185662
vt 0.2060202 0.9185662
vt 0.1347656 1
vt 0.2060202 1
vt 0.1347656 0.9185662
vt 0.2060202 0.9185662
vt 0.1347656 1
vt 0.2060202 1
vt 0.1347656 0.9185662
vt 0.2060202 0.9185662
vt 0.1347656 1
vt 0.2060202 1
vt 0.1347656 0.9185662
vt 0.2060202 0.9185662
vt 0.1347656 1
vt 0.2060202 1
vt 0.1347656 0.9185662
vt 0.2060202 0.9185662
vt 0.1347656 1
vt 0.2060202 1
vt 0.1347656 0.9185662
vt 0.2060202 0.9185662
vt 0.1347656 1
vt 0.2060202 1
vt 0.1347656 0.9185662
vt 0.2060202 0.9185662
vt 0.1347656 1
vt 0.2060202 1
vt 0.1347656 0.9185662
vt 0.2060202 0.9185662
vt 0.1347656 1
vt 0.2060202 1
vt 0.1347656 0.9185662
vt 0.2060202 0.9185662
vt 0.1347656 1
vt 0.2060202 1
vt 0.1347656 0.9185662
vt 0.2060202 0.9185662
vt 0.1347656 1
vt 0.2060202 1
vt 0.1347656 0.9185662
vt 0.2060202 0.9185662
vt 0.1347656 1
vt 0.2060202 1
vn 0 1 0
vn 0 1 0
vn 0 1 0
vn 0 1 0
vn 0 1 0
vn 0 1 0
vn 0 1 0
vn 0 1 0
vn 0 1 0
vn 0 1 0
vn 0 1 0
vn 0 1 0
vn 0 1 0
vn 0 1 0
vn 0 1 0
vn 0 1 0
vn 0 1 0
vn 0 1 0
vn 0 1 0
vn 0 1 0
vn 0 1 0
vn 0 1 0
vn 0 1 0
vn 0 1 0
vn 0 1 0
vn 0 1 0
vn 0 1 0
vn 0 1 0
vn 0 1 0
vn 0 1 0
vn 0 1 0
vn 0 1 0
vn 0 1 0
vn 0 1 0
vn 0 1 0
vn 0 1 0
vn 0 1 0
vn 0 1 0
vn 0 1 0
vn 0 1 0
vn 0 1 0
vn 0 1 0
vn 0 1 0
vn 0 1 0
vn 0 1 0
vn 0 1 0
vn 0 1 0
vn 0 1 0
vn 0 1 0
vn 0 1 0
vn 0 1 0
vn 0 1 0
vn 0 1 0
vn 0 1 0
vn 0 1 0
vn 0 1 0
vn 0 1 0
vn 0 1 0
vn 0 1 0
vn 0 1 0
vn 0 1 0
vn 0 1 0
vn 0 1 0
vn 0 1 0
vn 0 1 0
vn 0 1 0
vn 0 1 0
vn 0 1 0
vn 0 1 0
vn 0 1 0
vn 0 1 0
vn 0 1 0
vn 0 1 0
vn 0 1 0
vn 0 1 0
vn 0 1 0
vn 0 1 0
vn 0 1 0
vn 0 1 0
vn 0 1 0
vn 0 1 0
vn 0 1 0
vn 0 1 0
vn 0 1 0
vn 0 1 0
vn 0 1 0
vn 0 1 0
vn 0 1 0
vn 0 1 0
vn 0 1 0
vn 0 1 0
vn 0 1 0
vn 0 1 0
vn 0 1 0
vn 0 1 0
vn 0 1 0
vn 0 1 0
vn 0 1 0
vn 0 1 0
vn 0 1 0
vn 0 1 0
vn 0 1 0
vn 0 1 0
vn 0 1 0
vn 0 1 0
vn 0 1 0
vn 0 1 0
vn 0 1 0
vn 0 1 0
vn 0 1 0
vn 0 1 0
vn 0 1 0
vn 0 1 0
vn 0 1 0
vn 0 1 0
vn 0 1 0
vn 0 1 0
vn 0 1 0
vn 0 1 0
vn 0 1 0
vn 0 1 0
vn 0 1 0
vn 0 1 0
vn 0 1 0
vn 0 1 0
vn 0 1 0
vn 0 1 0
vn 0 1 0
vn 0 1 0
vn 0 1 0
vn 0 1 0
vn 0 1 0
vn 0 1 0
vn 0 1 0
vn 0 1 0
vn 0 1 0
vn 0 1 0
vn 0 1 0
vn 0 1 0
vn 0 1 0
vn 0 1 0
vn 0 1 0
vn 0 1 0
vn 0 1 0
vn 0 1 0
vn 0 1 0
vn 0 1 0
vn 0 1 0
vn 0 1 0
vn 0 1 0
vn 0 1 0
vn 0 1 0
vn 0 1 0
vn 0 1 0
vn 0 1 0
vn 0 1 0
g Grass_2_Cluster69_0
f 2/2/2 3/3/3 1/1/1
f 2/2/2 4/4/4 3/3/3
f 6/6/6 7/7/7 5/5/5
f 6/6/6 8/8/8 7/7/7
f 10/10/10 11/11/11 9/9/9
f 10/10/10 12/12/12 11/11/11
f 14/14/14 15/15/15 13/13/13
f 14/14/14 16/16/16 15/15/15
f 18/18/18 19/19/19 17/17/17
f 18/18/18 20/20/20 19/19/19
f 22/22/22 23/23/23 21/21/21
f 22/22/22 24/24/24 23/23/23
f 26/26/26 27/27/27 25/25/25
f 26/26/26 28/28/28 27/27/27
f 30/30/30 31/31/31 29/29/29
f 30/30/30 32/32/32 31/31/31
f 34/34/34 35/35/35 33/33/33
f 34/34/34 36/36/36 35/35/35
f 38/38/38 39/39/39 37/37/37
f 38/38/38 40/40/40 39/39/39
f 42/42/42 43/43/43 41/41/41
f 42/42/42 44/44/44 43/43/43
f 46/46/46 47/47/47 45/45/45
f 46/46/46 48/48/48 47/47/47
f 50/50/50 51/51/51 49/49/49
f 50/50/50 52/52/52 51/51/51
f 54/54/54 55/55/55 53/53/53
f 54/54/54 56/56/56 55/55/55
f 58/58/58 59/59/59 57/57/57
f 58/58/58 60/60/60 59/59/59
f 62/62/62 63/63/63 61/61/61
f 62/62/62 64/64/64 63/63/63
f 66/66/66 67/67/67 65/65/65
f 66/66/66 68/68/68 67/67/67
f 70/70/70 71/71/71 69/69/69
f 70/70/70 72/72/72 71/71/71
f 74/74/74 75/75/75 73/73/73
f 74/74/74 76/76/76 75/75/75
f 78/78/78 79/79/79 77/77/77
f 78/78/78 80/80/80 79/79/79
f 82/82/82 83/83/83 81/81/81
f 82/82/82 84/84/84 83/83/83
f 86/86/86 87/87/87 85/85/85
f 86/86/86 88/88/88 87/87/87
f 90/90/90 91/91/91 89/89/89
f 90/90/90 92/92/92 91/91/91
f 94/94/94 95/95/95 93/93/93
f 94/94/94 96/96/96 95/95/95
f 98/98/98 99/99/99 97/97/97
f 98/98/98 100/100/100 99/99/99
f 102/102/102 103/103/103 101/101/101
f 102/102/102 104/104/104 103/103/103
f 106/106/106 107/107/107 105/105/105
f 106/106/106 108/108/108 107/107/107
f 110/110/110 111/111/111 109/109/109
f 110/110/110 112/112/112 111/111/111
f 114/114/114 115/115/115 113/113/113
f 114/114/114 116/116/116 115/115/115
f 118/118/118 119/119/119 117/117/117
f 118/118/118 120/120/120 119/119/119
f 122/122/122 123/123/123 121/121/121
f 122/122/122 124/124/124 123/123/123
f 126/126/126 127/127/127 125/125/125
f 126/126/126 128/128/128 127/127/127
f 130/130/130 131/131/131 129/129/129
f 130/130/130 132/132/132 131/131/131
f 134/134/134 135/135/135 133/133/133
f 134/134/134 136/136/136 135/135/135
f 138/138/138 139/139/139 137/137/137
f 138/138/138 140/140/140 139/139/139
f 142/142/142 143/143/143 141/141/141
f 142/142/142 144/144/144 143/143/143
f 146/146/146 147/147/147 145/145/145
f 146/146/146 148/148/148 147/147/147
f 150/150/150 151/151/151 149/149/149
f 150/150/150 152/152/152 151/151/151
f 154/154/154 155/155/155 153/153/153
f 154/154/154 156/156/156 155/155/155
