g Grass_0_Cluster259
v -281.9954 0 352.9268
v -283.0334 0 352.9268
v -281.9954 0 353.9648
v -283.0334 0 353.9648
v -281.9954 0 352.5808
v -282.6874 0 352.5808
v -281.9954 0 353.6188
v -282.6874 0 353.6188
v -285.8015 0 352.2348
v -286.8395 0 352.2348
v -285.8015 0 353.2728
v -286.8395 0 353.2728
v -280.9574 0 351.8888
v -281.9954 0 351.8888
v -280.9574 0 352.9268
v -281.9954 0 352.9268
v -283.7255 0 350.1587
v -284.7635 0 350.1587
v -283.7255 0 351.5428
v -284.7635 0 351.5428
v -289.2616 0 350.1587
v -290.2996 0 350.1587
v -289.2616 0 351.5428
v -290.2996 0 351.5428
v -292.0296 0 350.1587
v -293.0676 0 350.1587
v -292.0296 0 351.5428
v -293.0676 0 351.5428
v -286.4935 0 350.1587
v -287.1855 0 350.1587
v -286.4935 0 351.1967
v -287.1855 0 351.1967
v -281.3034 0 349.1207
v -281.9954 0 349.1207
v -281.3034 0 350.5047
v -281.9954 0 350.5047
v -282.3414 0 348.4287
v -283.3795 0 348.4287
v -282.3414 0 349.8127
v -283.3795 0 349.8127
v -283.3795 0 338.0485
v -284.4174 0 338.0485
v -283.3795 0 339.4325
v -284.4174 0 339.4325
v -270.2312 0 337.3565
v -271.2692 0 337.3565
v -270.2312 0 338.3945
v -271.2692 0 338.3945
v -271.6152 0 337.0105
v -272.3072 0 337.0105
v -271.6152 0 338.3945
v -272.3072 0 338.3945
v -270.2312 0 336.3185
v -270.9232 0 336.3185
v -270.2312 0 337.3565
v -270.9232 0 337.3565
v -274.0373 0 335.6264
v -274.7293 0 335.6264
v -274.0373 0 336.6645
v -274.7293 0 336.6645
v -270.9232 0 335.2805
v -271.6152 0 335.2805
v -270.9232 0 336.3185
v -271.6152 0 336.3185
v -272.9992 0 335.2805
v -274.0373 0 335.2805
v -272.9992 0 336.6645
v -274.0373 0 336.6645
v -271.9612 0 334.9344
v -272.9992 0 334.9344
v -271.9612 0 336.3185
v -272.9992 0 336.3185
v -274.7293 0 334.9344
v -275.7673 0 334.9344
v -274.7293 0 336.3185
v -275.7673 0 336.3185
v -275.4213 0 334.5884
v -276.1133 0 334.5884
v -275.4213 0 335.6264
v -276.1133 0 335.6264
v -272.3072 0 334.2424
v -272.9992 0 334.2424
v -272.3072 0 335.6264
v -272.9992 0 335.6264
v -275.4213 0 333.8964
v -276.4593 0 333.8964
v -275.4213 0 335.2805
v -276.4593 0 335.2805
v -273.6913 0 333.5504
v -274.3833 0 333.5504
v -273.6913 0 334.5884
v -274.3833 0 334.5884
v -275.7673 0 333.2044
v -276.4593 0 333.2044
v -275.7673 0 334.5884
v -276.4593 0 334.5884
v -273.6913 0 332.8584
v -274.7293 0 332.8584
v -273.6913 0 334.2424
v -274.7293 0 334.2424
v -271.2692 0 332.8584
v -271.9612 0 332.8584
v -271.2692 0 333.8964
v -271.9612 0 333.8964
v -277.4973 0 332.1664
v -278.5353 0 332.1664
v -277.4973 0 333.5504
v -278.5353 0 333.5504
v -274.3833 0 331.8204
v -275.4213 0 331.8204
v -274.3833 0 332.8584
v -275.4213 0 332.8584
v -277.1513 0 331.4744
v -277.8433 0 331.4744
v -277.1513 0 332.5124
v -277.8433 0 332.5124
v -285.1095 0 331.1284
v -286.1475 0 331.1284
v -285.1095 0 332.1664
v -286.1475 0 332.1664
v -297.9117 0 328.0143
v -298.9497 0 328.0143
v -297.9117 0 329.0523
v -298.9497 0 329.0523
v -295.8357 0 326.6303
v -296.5277 0 326.6303
v -295.8357 0 327.6683
v -296.5277 0 327.6683
v -296.5277 0 325.5923
v -297.2197 0 325.5923
v -296.5277 0 326.6303
v -297.2197 0 326.6303
vt 0 0.9058824
vt 0.06666667 0.9058824
vt 0 1
vt 0.06666667 1
vt 0 0.9058824
vt 0.06666667 0.9058824
vt 0 1
vt 0.06666667 1
vt 0 0.9058824
vt 0.06666667 0.9058824
vt 0 1
vt 0.06666667 1
vt 0 0.9058824
vt 0.06666667 0.9058824
vt 0 1
vt 0.06666667 1
vt 0 0.9058824
vt 0.06666667 0.9058824
vt 0 1
vt 0.06666667 1
vt 0 0.9058824
vt 0.06666667 0.9058824
vt 0 1
vt 0.06666667 1
vt 0 0.9058824
vt 0.06666667 0.9058824
vt 0 1
vt 0.06666667 1
vt 0 0.9058824
vt 0.06666667 0.9058824
vt 0 1
vt 0.06666667 1
vt 0 0.9058824
vt 0.06666667 0.9058824
vt 0 1
vt 0.06666667 1
vt 0 0.9058824
vt 0.06666667 0.9058824
vt 0 1
vt 0.06666667 1
vt 0 0.9058824
vt 0.06666667 0.9058824
vt 0 1
vt 0.06666667 1
vt 0 0.9058824
vt 0.06666667 0.9058824
vt 0 1
vt 0.06666667 1
vt 0 0.9058824
vt 0.06666667 0.9058824
vt 0 1
vt 0.06666667 1
vt 0 0.9058824
vt 0.06666667 0.9058824
vt 0 1
vt 0.06666667 1
vt 0 0.9058824
vt 0.06666667 0.9058824
vt 0 1
vt 0.06666667 1
vt 0 0.9058824
vt 0.06666667 0.9058824
vt 0 1
vt 0.06666667 1
vt 0 0.9058824
vt 0.06666667 0.9058824
vt 0 1
vt 0.06666667 1
vt 0 0.9058824
vt 0.06666667 0.9058824
vt 0 1
vt 0.06666667 1
vt 0 0.9058824
vt 0.06666667 0.9058824
vt 0 1
vt 0.06666667 1
vt 0 0.9058824
vt 0.06666667 0.9058824
vt 0 1
vt 0.06666667 1
vt 0 0.9058824
vt 0.06666667 0.9058824
vt 0 1
vt 0.06666667 1
vt 0 0.9058824
vt 0.06666667 0.9058824
vt 0 1
vt 0.06666667 1
vt 0 0.9058824
vt 0.06666667 0.9058824
vt 0 1
vt 0.06666667 1
vt 0 0.9058824
vt 0.06666667 0.9058824
vt 0 1
vt 0.06666667 1
vt 0 0.9058824
vt 0.06666667 0.9058824
vt 0 1
vt 0.06666667 1
vt 0 0.9058824
vt 0.06666667 0.9058824
vt 0 1
vt 0.06666667 1
vt 0 0.9058824
vt 0.06666667 0.9058824
vt 0 1
vt 0.06666667 1
vt 0 0.9058824
vt 0.06666667 0.9058824
vt 0 1
vt 0.06666667 1
vt 0 0.9058824
vt 0.06666667 0.9058824
vt 0 1
vt 0.06666667 1
vt 0 0.9058824
vt 0.06666667 0.9058824
vt 0 1
vt 0.06666667 1
vt 0 0.9058824
vt 0.06666667 0.9058824
vt 0 1
vt 0.06666667 1
vt 0 0.9058824
vt 0.06666667 0.9058824
vt 0 1
vt 0.06666667 1
vt 0 0.9058824
vt 0.06666667 0.9058824
vt 0 1
vt 0.06666667 1
vn 0 1 0
vn 0 1 0
vn 0 1 0
vn 0 1 0
vn 0 1 0
vn 0 1 0
vn 0 1 0
vn 0 1 0
vn 0 1 0
vn 0 1 0
vn 0 1 0
vn 0 1 0
vn 0 1 0
vn 0 1 0
vn 0 1 0
vn 0 1 0
vn 0 1 0
vn 0 1 0
vn 0 1 0
vn 0 1 0
vn 0 1 0
vn 0 1 0
vn 0 1 0
vn 0 1 0
vn 0 1 0
vn 0 1 0
vn 0 1 0
vn 0 1 0
vn 0 1 0
vn 0 1 0
vn 0 1 0
vn 0 1 0
vn 0 1 0
vn 0 1 0
vn 0 1 0
vn 0 1 0
vn 0 1 0
vn 0 1 0
vn 0 1 0
vn 0 1 0
vn 0 1 0
vn 0 1 0
vn 0 1 0
vn 0 1 0
vn 0 1 0
vn 0 1 0
vn 0 1 0
vn 0 1 0
vn 0 1 0
vn 0 1 0
vn 0 1 0
vn 0 1 0
vn 0 1 0
vn 0 1 0
vn 0 1 0
vn 0 1 0
vn 0 1 0
vn 0 1 0
vn 0 1 0
vn 0 1 0
vn 0 1 0
vn 0 1 0
vn 0 1 0
vn 0 1 0
vn 0 1 0
vn 0 1 0
vn 0 1 0
vn 0 1 0
vn 0 1 0
vn 0 1 0
vn 0 1 0
vn 0 1 0
vn 0 1 0
vn 0 1 0
vn 0 1 0
vn 0 1 0
vn 0 1 0
vn 0 1 0
vn 0 1 0
vn 0 1 0
vn 0 1 0
vn 0 1 0
vn 0 1 0
vn 0 1 0
vn 0 1 0
vn 0 1 0
vn 0 1 0
vn 0 1 0
vn 0 1 0
vn 0 1 0
vn 0 1 0
vn 0 1 0
vn 0 1 0
vn 0 1 0
vn 0 1 0
vn 0 1 0
vn 0 1 0
vn 0 1 0
vn 0 1 0
vn 0 1 0
vn 0 1 0
vn 0 1 0
vn 0 1 0
vn 0 1 0
vn 0 1 0
vn 0 1 0
vn 0 1 0
vn 0 1 0
vn 0 1 0
vn 0 1 0
vn 0 1 0
vn 0 1 0
vn 0 1 0
vn 0 1 0
vn 0 1 0
vn 0 1 0
vn 0 1 0
vn 0 1 0
vn 0 1 0
vn 0 1 0
vn 0 1 0
vn 0 1 0
vn 0 1 0
vn 0 1 0
vn 0 1 0
vn 0 1 0
vn 0 1 0
vn 0 1 0
vn 0 1 0
vn 0 1 0
vn 0 1 0
vn 0 1 0
g Grass_0_Cluster259_0
f 2/2/2 3/3/3 1/1/1
f 2/2/2 4/4/4 3/3/3
f 6/6/6 7/7/7 5/5/5
f 6/6/6 8/8/8 7/7/7
f 10/10/10 11/11/11 9/9/9
f 10/10/10 12/12/12 11/11/11
f 14/14/14 15/15/15 13/13/13
f 14/14/14 16/16/16 15/15/15
f 18/18/18 19/19/19 17/17/17
f 18/18/18 20/20/20 19/19/19
f 22/22/22 23/23/23 21/21/21
f 22/22/22 24/24/24 23/23/23
f 26/26/26 27/27/27 25/25/25
f 26/26/26 28/28/28 27/27/27
f 30/30/30 31/31/31 29/29/29
f 30/30/30 32/32/32 31/31/31
f 34/34/34 35/35/35 33/33/33
f 34/34/34 36/36/36 35/35/35
f 38/38/38 39/39/39 37/37/37
f 38/38/38 40/40/40 39/39/39
f 42/42/42 43/43/43 41/41/41
f 42/42/42 44/44/44 43/43/43
f 46/46/46 47/47/47 45/45/45
f 46/46/46 48/48/48 47/47/47
f 50/50/50 51/51/51 49/49/49
f 50/50/50 52/52/52 51/51/51
f 54/54/54 55/55/55 53/53/53
f 54/54/54 56/56/56 55/55/55
f 58/58/58 59/59/59 57/57/57
f 58/58/58 60/60/60 59/59/59
f 62/62/62 63/63/63 61/61/61
f 62/62/62 64/64/64 63/63/63
f 66/66/66 67/67/67 65/65/65
f 66/66/66 68/68/68 67/67/67
f 70/70/70 71/71/71 69/69/69
f 70/70/70 72/72/72 71/71/71
f 74/74/74 75/75/75 73/73/73
f 74/74/74 76/76/76 75/75/75
f 78/78/78 79/79/79 77/77/77
f 78/78/78 80/80/80 79/79/79
f 82/82/82 83/83/83 81/81/81
f 82/82/82 84/84/84 83/83/83
f 86/86/86 87/87/87 85/85/85
f 86/86/86 88/88/88 87/87/87
f 90/90/90 91/91/91 89/89/89
f 90/90/90 92/92/92 91/91/91
f 94/94/94 95/95/95 93/93/93
f 94/94/94 96/96/96 95/95/95
f 98/98/98 99/99/99 97/97/97
f 98/98/98 100/100/100 99/99/99
f 102/102/102 103/103/103 101/101/101
f 102/102/102 104/104/104 103/103/103
f 106/106/106 107/107/107 105/105/105
f 106/106/106 108/108/108 107/107/107
f 110/110/110 111/111/111 109/109/109
f 110/110/110 112/112/112 111/111/111
f 114/114/114 115/115/115 113/113/113
f 114/114/114 116/116/116 115/115/115
f 118/118/118 119/119/119 117/117/117
f 118/118/118 120/120/120 119/119/119
f 122/122/122 123/123/123 121/121/121
f 122/122/122 124/124/124 123/123/123
f 126/126/126 127/127/127 125/125/125
f 126/126/126 128/128/128 127/127/127
f 130/130/130 131/131/131 129/129/129
f 130/130/130 132/132/132 131/131/131
