g Grass_2_Cluster128
v 47.1986 0.05180359 172.6185
v 46.28555 0.05180359 172.6185
v 47.1986 0.05180359 173.7598
v 46.28555 0.05180359 173.7598
v 33.95936 0.05180359 172.3902
v 33.04631 0.05180359 172.3902
v 33.95936 0.05180359 173.5316
v 33.04631 0.05180359 173.5316
v 47.65513 0.05180359 172.3902
v 46.74208 0.05180359 172.3902
v 47.65513 0.05180359 173.3033
v 46.74208 0.05180359 173.3033
v 46.05729 0.05180359 172.162
v 45.14424 0.05180359 172.162
v 46.05729 0.05180359 173.3033
v 45.14424 0.05180359 173.3033
v 46.28555 0.05180359 171.9337
v 45.3725 0.05180359 171.9337
v 46.28555 0.05180359 173.075
v 45.3725 0.05180359 173.075
v 35.10067 0.05180359 170.1076
v 34.18762 0.05180359 170.1076
v 35.10067 0.05180359 171.0207
v 34.18762 0.05180359 171.0207
v 59.5248 0.05180359 164.8576
v 58.61174 0.05180359 164.8576
v 59.5248 0.05180359 165.7706
v 58.61174 0.05180359 165.7706
v 58.61174 0.05180359 163.488
v 57.69869 0.05180359 163.488
v 58.61174 0.05180359 164.6293
v 57.69869 0.05180359 164.6293
v 33.95936 0.05180359 162.575
v 33.04631 0.05180359 162.575
v 33.95936 0.05180359 163.488
v 33.04631 0.05180359 163.488
v 32.36152 0.05180359 155.0423
v 31.44847 0.05180359 155.0423
v 32.36152 0.05180359 155.9553
v 31.44847 0.05180359 155.9553
v 41.72029 0.05180359 153.4444
v 40.57898 0.05180359 153.4444
v 41.72029 0.05180359 154.5858
v 40.57898 0.05180359 154.5858
v 51.30733 0.05180359 146.8248
v 50.39428 0.05180359 146.8248
v 51.30733 0.05180359 147.7379
v 50.39428 0.05180359 147.7379
v 52.90517 0.05180359 146.5965
v 51.99212 0.05180359 146.5965
v 52.90517 0.05180359 147.9661
v 51.99212 0.05180359 147.9661
v 59.75306 0.05180359 146.3683
v 58.84001 0.05180359 146.3683
v 59.75306 0.05180359 147.5096
v 58.84001 0.05180359 147.5096
v 50.39428 0.05180359 146.5965
v 49.25297 0.05180359 146.5965
v 50.39428 0.05180359 147.5096
v 49.25297 0.05180359 147.5096
v 54.73128 0.05180359 146.14
v 53.81823 0.05180359 146.14
v 54.73128 0.05180359 147.2813
v 53.81823 0.05180359 147.2813
v 51.99212 0.05180359 145.9117
v 51.07907 0.05180359 145.9117
v 51.99212 0.05180359 147.0531
v 51.07907 0.05180359 147.0531
v 50.85081 0.05180359 145.6835
v 49.7095 0.05180359 145.6835
v 50.85081 0.05180359 146.8248
v 49.7095 0.05180359 146.8248
v 54.73128 0.05180359 145.4552
v 53.81823 0.05180359 145.4552
v 54.73128 0.05180359 146.5965
v 53.81823 0.05180359 146.5965
v 51.99212 0.05180359 145.4552
v 51.07907 0.05180359 145.4552
v 51.99212 0.05180359 146.5965
v 51.07907 0.05180359 146.5965
v 57.92696 0.05180359 145.227
v 57.0139 0.05180359 145.227
v 57.92696 0.05180359 146.3683
v 57.0139 0.05180359 146.3683
v 50.85081 0.05180359 144.9987
v 49.93776 0.05180359 144.9987
v 50.85081 0.05180359 146.14
v 49.93776 0.05180359 146.14
v 53.3617 0.05180359 144.9987
v 52.44865 0.05180359 144.9987
v 53.3617 0.05180359 146.14
v 52.44865 0.05180359 146.14
v 50.85081 0.05180359 144.7704
v 49.93776 0.05180359 144.7704
v 50.85081 0.05180359 145.6835
v 49.93776 0.05180359 145.6835
v 56.32912 0.05180359 144.3139
v 55.41607 0.05180359 144.3139
v 56.32912 0.05180359 145.4552
v 55.41607 0.05180359 145.4552
v 54.04649 0.05180359 144.3139
v 52.90517 0.05180359 144.3139
v 54.04649 0.05180359 145.4552
v 52.90517 0.05180359 145.4552
v 53.13344 0.05180359 144.0857
v 52.22039 0.05180359 144.0857
v 53.13344 0.05180359 145.227
v 52.22039 0.05180359 145.227
v 55.64433 0.05180359 143.8574
v 54.73128 0.05180359 143.8574
v 55.64433 0.05180359 144.9987
v 54.73128 0.05180359 144.9987
v 55.1878 0.05180359 143.6291
v 54.27475 0.05180359 143.6291
v 55.1878 0.05180359 144.7704
v 54.27475 0.05180359 144.7704
v 54.95954 0.05180359 143.4008
v 54.04649 0.05180359 143.4008
v 54.95954 0.05180359 144.5422
v 54.04649 0.05180359 144.5422
v 51.30733 0.05180359 143.4008
v 50.16602 0.05180359 143.4008
v 51.30733 0.05180359 144.5422
v 50.16602 0.05180359 144.5422
vt 0.1347656 0.9185662
vt 0.2060202 0.9185662
vt 0.1347656 1
vt 0.2060202 1
vt 0.1347656 0.9185662
vt 0.2060202 0.9185662
vt 0.1347656 1
vt 0.2060202 1
vt 0.1347656 0.9185662
vt 0.2060202 0.9185662
vt 0.1347656 1
vt 0.2060202 1
vt 0.1347656 0.9185662
vt 0.2060202 0.9185662
vt 0.1347656 1
vt 0.2060202 1
vt 0.1347656 0.9185662
vt 0.2060202 0.9185662
vt 0.1347656 1
vt 0.2060202 1
vt 0.1347656 0.9185662
vt 0.2060202 0.9185662
vt 0.1347656 1
vt 0.2060202 1
vt 0.1347656 0.9185662
vt 0.2060202 0.9185662
vt 0.1347656 1
vt 0.2060202 1
vt 0.1347656 0.9185662
vt 0.2060202 0.9185662
vt 0.1347656 1
vt 0.2060202 1
vt 0.1347656 0.9185662
vt 0.2060202 0.9185662
vt 0.1347656 1
vt 0.2060202 1
vt 0.1347656 0.9185662
vt 0.2060202 0.9185662
vt 0.1347656 1
vt 0.2060202 1
vt 0.1347656 0.9185662
vt 0.2060202 0.9185662
vt 0.1347656 1
vt 0.2060202 1
vt 0.1347656 0.9185662
vt 0.2060202 0.9185662
vt 0.1347656 1
vt 0.2060202 1
vt 0.1347656 0.9185662
vt 0.2060202 0.9185662
vt 0.1347656 1
vt 0.2060202 1
vt 0.1347656 0.9185662
vt 0.2060202 0.9185662
vt 0.1347656 1
vt 0.2060202 1
vt 0.1347656 0.9185662
vt 0.2060202 0.9185662
vt 0.1347656 1
vt 0.2060202 1
vt 0.1347656 0.9185662
vt 0.2060202 0.9185662
vt 0.1347656 1
vt 0.2060202 1
vt 0.1347656 0.9185662
vt 0.2060202 0.9185662
vt 0.1347656 1
vt 0.2060202 1
vt 0.1347656 0.9185662
vt 0.2060202 0.9185662
vt 0.1347656 1
vt 0.2060202 1
vt 0.1347656 0.9185662
vt 0.2060202 0.9185662
vt 0.1347656 1
vt 0.2060202 1
vt 0.1347656 0.9185662
vt 0.2060202 0.9185662
vt 0.1347656 1
vt 0.2060202 1
vt 0.1347656 0.9185662
vt 0.2060202 0.9185662
vt 0.1347656 1
vt 0.2060202 1
vt 0.1347656 0.9185662
vt 0.2060202 0.9185662
vt 0.1347656 1
vt 0.2060202 1
vt 0.1347656 0.9185662
vt 0.2060202 0.9185662
vt 0.1347656 1
vt 0.2060202 1
vt 0.1347656 0.9185662
vt 0.2060202 0.9185662
vt 0.1347656 1
vt 0.2060202 1
vt 0.1347656 0.9185662
vt 0.2060202 0.9185662
vt 0.1347656 1
vt 0.2060202 1
vt 0.1347656 0.9185662
vt 0.2060202 0.9185662
vt 0.1347656 1
vt 0.2060202 1
vt 0.1347656 0.9185662
vt 0.2060202 0.9185662
vt 0.1347656 1
vt 0.2060202 1
vt 0.1347656 0.9185662
vt 0.2060202 0.9185662
vt 0.1347656 1
vt 0.2060202 1
vt 0.1347656 0.9185662
vt 0.2060202 0.9185662
vt 0.1347656 1
vt 0.2060202 1
vt 0.1347656 0.9185662
vt 0.2060202 0.9185662
vt 0.1347656 1
vt 0.2060202 1
vt 0.1347656 0.9185662
vt 0.2060202 0.9185662
vt 0.1347656 1
vt 0.2060202 1
vn 0 1 0
vn 0 1 0
vn 0 1 0
vn 0 1 0
vn 0 1 0
vn 0 1 0
vn 0 1 0
vn 0 1 0
vn 0 1 0
vn 0 1 0
vn 0 1 0
vn 0 1 0
vn 0 1 0
vn 0 1 0
vn 0 1 0
vn 0 1 0
vn 0 1 0
vn 0 1 0
vn 0 1 0
vn 0 1 0
vn 0 1 0
vn 0 1 0
vn 0 1 0
vn 0 1 0
vn 0 1 0
vn 0 1 0
vn 0 1 0
vn 0 1 0
vn 0 1 0
vn 0 1 0
vn 0 1 0
vn 0 1 0
vn 0 1 0
vn 0 1 0
vn 0 1 0
vn 0 1 0
vn 0 1 0
vn 0 1 0
vn 0 1 0
vn 0 1 0
vn 0 1 0
vn 0 1 0
vn 0 1 0
vn 0 1 0
vn 0 1 0
vn 0 1 0
vn 0 1 0
vn 0 1 0
vn 0 1 0
vn 0 1 0
vn 0 1 0
vn 0 1 0
vn 0 1 0
vn 0 1 0
vn 0 1 0
vn 0 1 0
vn 0 1 0
vn 0 1 0
vn 0 1 0
vn 0 1 0
vn 0 1 0
vn 0 1 0
vn 0 1 0
vn 0 1 0
vn 0 1 0
vn 0 1 0
vn 0 1 0
vn 0 1 0
vn 0 1 0
vn 0 1 0
vn 0 1 0
vn 0 1 0
vn 0 1 0
vn 0 1 0
vn 0 1 0
vn 0 1 0
vn 0 1 0
vn 0 1 0
vn 0 1 0
vn 0 1 0
vn 0 1 0
vn 0 1 0
vn 0 1 0
vn 0 1 0
vn 0 1 0
vn 0 1 0
vn 0 1 0
vn 0 1 0
vn 0 1 0
vn 0 1 0
vn 0 1 0
vn 0 1 0
vn 0 1 0
vn 0 1 0
vn 0 1 0
vn 0 1 0
vn 0 1 0
vn 0 1 0
vn 0 1 0
vn 0 1 0
vn 0 1 0
vn 0 1 0
vn 0 1 0
vn 0 1 0
vn 0 1 0
vn 0 1 0
vn 0 1 0
vn 0 1 0
vn 0 1 0
vn 0 1 0
vn 0 1 0
vn 0 1 0
vn 0 1 0
vn 0 1 0
vn 0 1 0
vn 0 1 0
vn 0 1 0
vn 0 1 0
vn 0 1 0
vn 0 1 0
vn 0 1 0
vn 0 1 0
vn 0 1 0
vn 0 1 0
g Grass_2_Cluster128_0
f 2/2/2 3/3/3 1/1/1
f 2/2/2 4/4/4 3/3/3
f 6/6/6 7/7/7 5/5/5
f 6/6/6 8/8/8 7/7/7
f 10/10/10 11/11/11 9/9/9
f 10/10/10 12/12/12 11/11/11
f 14/14/14 15/15/15 13/13/13
f 14/14/14 16/16/16 15/15/15
f 18/18/18 19/19/19 17/17/17
f 18/18/18 20/20/20 19/19/19
f 22/22/22 23/23/23 21/21/21
f 22/22/22 24/24/24 23/23/23
f 26/26/26 27/27/27 25/25/25
f 26/26/26 28/28/28 27/27/27
f 30/30/30 31/31/31 29/29/29
f 30/30/30 32/32/32 31/31/31
f 34/34/34 35/35/35 33/33/33
f 34/34/34 36/36/36 35/35/35
f 38/38/38 39/39/39 37/37/37
f 38/38/38 40/40/40 39/39/39
f 42/42/42 43/43/43 41/41/41
f 42/42/42 44/44/44 43/43/43
f 46/46/46 47/47/47 45/45/45
f 46/46/46 48/48/48 47/47/47
f 50/50/50 51/51/51 49/49/49
f 50/50/50 52/52/52 51/51/51
f 54/54/54 55/55/55 53/53/53
f 54/54/54 56/56/56 55/55/55
f 58/58/58 59/59/59 57/57/57
f 58/58/58 60/60/60 59/59/59
f 62/62/62 63/63/63 61/61/61
f 62/62/62 64/64/64 63/63/63
f 66/66/66 67/67/67 65/65/65
f 66/66/66 68/68/68 67/67/67
f 70/70/70 71/71/71 69/69/69
f 70/70/70 72/72/72 71/71/71
f 74/74/74 75/75/75 73/73/73
f 74/74/74 76/76/76 75/75/75
f 78/78/78 79/79/79 77/77/77
f 78/78/78 80/80/80 79/79/79
f 82/82/82 83/83/83 81/81/81
f 82/82/82 84/84/84 83/83/83
f 86/86/86 87/87/87 85/85/85
f 86/86/86 88/88/88 87/87/87
f 90/90/90 91/91/91 89/89/89
f 90/90/90 92/92/92 91/91/91
f 94/94/94 95/95/95 93/93/93
f 94/94/94 96/96/96 95/95/95
f 98/98/98 99/99/99 97/97/97
f 98/98/98 100/100/100 99/99/99
f 102/102/102 103/103/103 101/101/101
f 102/102/102 104/104/104 103/103/103
f 106/106/106 107/107/107 105/105/105
f 106/106/106 108/108/108 107/107/107
f 110/110/110 111/111/111 109/109/109
f 110/110/110 112/112/112 111/111/111
f 114/114/114 115/115/115 113/113/113
f 114/114/114 116/116/116 115/115/115
f 118/118/118 119/119/119 117/117/117
f 118/118/118 120/120/120 119/119/119
f 122/122/122 123/123/123 121/121/121
f 122/122/122 124/124/124 123/123/123
