g Grass_1_Cluster40
v 292.4108 -0.1300354 42.048
v 291.4222 -0.1300354 42.048
v 292.4108 -0.1300354 43.03656
v 291.4222 -0.1300354 43.03656
v 273.9579 -0.1300354 41.05948
v 272.9694 -0.1300354 41.05948
v 273.9579 -0.1300354 41.71851
v 272.9694 -0.1300354 41.71851
v 294.0584 -0.1300354 40.72995
v 293.0698 -0.1300354 40.72995
v 294.0584 -0.1300354 41.38898
v 293.0698 -0.1300354 41.38898
v 291.7518 -0.1300354 39.74139
v 290.7632 -0.1300354 39.74139
v 291.7518 -0.1300354 40.72995
v 290.7632 -0.1300354 40.72995
v 293.7289 -0.1300354 38.75287
v 292.7403 -0.1300354 38.75287
v 293.7289 -0.1300354 39.4119
v 292.7403 -0.1300354 39.4119
vt 0.06738281 0.9369141
vt 0.1331457 0.9369141
vt 0.06738281 0.9990234
vt 0.1331457 0.9990234
vt 0.06738281 0.9369141
vt 0.1331457 0.9369141
vt 0.06738281 0.9990234
vt 0.1331457 0.9990234
vt 0.06738281 0.9369141
vt 0.1331457 0.9369141
vt 0.06738281 0.9990234
vt 0.1331457 0.9990234
vt 0.06738281 0.9369141
vt 0.1331457 0.9369141
vt 0.06738281 0.9990234
vt 0.1331457 0.9990234
vt 0.06738281 0.9369141
vt 0.1331457 0.9369141
vt 0.06738281 0.9990234
vt 0.1331457 0.9990234
vn 0 1 0
vn 0 1 0
vn 0 1 0
vn 0 1 0
vn 0 1 0
vn 0 1 0
vn 0 1 0
vn 0 1 0
vn 0 1 0
vn 0 1 0
vn 0 1 0
vn 0 1 0
vn 0 1 0
vn 0 1 0
vn 0 1 0
vn 0 1 0
vn 0 1 0
vn 0 1 0
vn 0 1 0
vn 0 1 0
g Grass_1_Cluster40_0
f 2/2/2 3/3/3 1/1/1
f 2/2/2 4/4/4 3/3/3
f 6/6/6 7/7/7 5/5/5
f 6/6/6 8/8/8 7/7/7
f 10/10/10 11/11/11 9/9/9
f 10/10/10 12/12/12 11/11/11
f 14/14/14 15/15/15 13/13/13
f 14/14/14 16/16/16 15/15/15
f 18/18/18 19/19/19 17/17/17
f 18/18/18 20/20/20 19/19/19
