g Grass_2_Cluster159
v -272.1901 0 196.2233
v -273.3633 0 196.2233
v -272.1901 0 197.3965
v -273.3633 0 197.3965
v -272.1901 0 195.3433
v -273.07 0 195.3433
v -272.1901 0 196.5166
v -273.07 0 196.5166
v -273.6567 0 195.3433
v -274.5366 0 195.3433
v -273.6567 0 196.5166
v -274.5366 0 196.5166
v -270.7236 0 195.05
v -271.6035 0 195.05
v -270.7236 0 196.2233
v -271.6035 0 196.2233
v -270.137 0 194.7567
v -271.0169 0 194.7567
v -270.137 0 195.93
v -271.0169 0 195.93
v -270.7236 0 194.4634
v -271.8968 0 194.4634
v -270.7236 0 195.6366
v -271.8968 0 195.6366
v -271.8968 0 194.1701
v -272.7767 0 194.1701
v -271.8968 0 195.3433
v -272.7767 0 195.3433
v -273.95 0 194.1701
v -275.1232 0 194.1701
v -273.95 0 195.3433
v -275.1232 0 195.3433
v -273.3633 0 193.8768
v -274.2433 0 193.8768
v -273.3633 0 195.05
v -274.2433 0 195.05
v -271.6035 0 193.2902
v -272.7767 0 193.2902
v -271.6035 0 194.4634
v -272.7767 0 194.4634
v -271.3102 0 192.9969
v -272.1901 0 192.9969
v -271.3102 0 194.1701
v -272.1901 0 194.1701
v -272.7767 0 192.9969
v -273.6567 0 192.9969
v -272.7767 0 193.8768
v -273.6567 0 193.8768
v -274.2433 0 192.4103
v -275.1232 0 192.4103
v -274.2433 0 193.5835
v -275.1232 0 193.5835
v -272.4834 0 192.1169
v -273.3633 0 192.1169
v -272.4834 0 193.2902
v -273.3633 0 193.2902
v -274.5366 0 191.8236
v -275.4165 0 191.8236
v -274.5366 0 192.9969
v -275.4165 0 192.9969
v -273.07 0 191.8236
v -273.95 0 191.8236
v -273.07 0 192.9969
v -273.95 0 192.9969
v -273.3633 0 190.9437
v -274.2433 0 190.9437
v -273.3633 0 192.1169
v -274.2433 0 192.1169
v -274.5366 0 190.6504
v -275.7098 0 190.6504
v -274.5366 0 191.8236
v -275.7098 0 191.8236
v -274.2433 0 189.7705
v -275.1232 0 189.7705
v -274.2433 0 190.9437
v -275.1232 0 190.9437
v -274.5366 0 189.4772
v -275.4165 0 189.4772
v -274.5366 0 190.6504
v -275.4165 0 190.6504
v -275.4165 0 188.8906
v -276.2964 0 188.8906
v -275.4165 0 190.0638
v -276.2964 0 190.0638
v -273.95 0 188.8906
v -274.8299 0 188.8906
v -273.95 0 190.0638
v -274.8299 0 190.0638
v -275.4165 0 188.0106
v -276.2964 0 188.0106
v -275.4165 0 189.1839
v -276.2964 0 189.1839
v -278.3496 0 187.7173
v -279.2295 0 187.7173
v -278.3496 0 188.5972
v -279.2295 0 188.5972
v -276.5898 0 186.5441
v -277.763 0 186.5441
v -276.5898 0 187.7173
v -277.763 0 187.7173
v -298.8812 0 185.3709
v -299.7611 0 185.3709
v -298.8812 0 186.5441
v -299.7611 0 186.5441
v -299.1745 0 184.4909
v -300.0544 0 184.4909
v -299.1745 0 185.6642
v -300.0544 0 185.6642
v -292.1351 0 179.2114
v -293.015 0 179.2114
v -292.1351 0 180.3846
v -293.015 0 180.3846
v -290.6685 0 178.6248
v -291.8418 0 178.6248
v -290.6685 0 179.798
v -291.8418 0 179.798
v -292.7217 0 177.4515
v -293.8949 0 177.4515
v -292.7217 0 178.6248
v -293.8949 0 178.6248
v -291.5485 0 177.1582
v -292.7217 0 177.1582
v -291.5485 0 178.3315
v -292.7217 0 178.3315
v -290.9619 0 176.2783
v -291.8418 0 176.2783
v -290.9619 0 177.4515
v -291.8418 0 177.4515
v -289.202 0 175.1051
v -290.0819 0 175.1051
v -289.202 0 176.2783
v -290.0819 0 176.2783
v -291.2552 0 175.1051
v -292.1351 0 175.1051
v -291.2552 0 175.985
v -292.1351 0 175.985
v -293.3083 0 174.5184
v -294.1882 0 174.5184
v -293.3083 0 175.3984
v -294.1882 0 175.3984
v -292.1351 0 173.9318
v -293.015 0 173.9318
v -292.1351 0 175.1051
v -293.015 0 175.1051
v -294.7749 0 173.6385
v -295.6548 0 173.6385
v -294.7749 0 174.8118
v -295.6548 0 174.8118
vt 0.1347656 0.9185662
vt 0.2060202 0.9185662
vt 0.1347656 1
vt 0.2060202 1
vt 0.1347656 0.9185662
vt 0.2060202 0.9185662
vt 0.1347656 1
vt 0.2060202 1
vt 0.1347656 0.9185662
vt 0.2060202 0.9185662
vt 0.1347656 1
vt 0.2060202 1
vt 0.1347656 0.9185662
vt 0.2060202 0.9185662
vt 0.1347656 1
vt 0.2060202 1
vt 0.1347656 0.9185662
vt 0.2060202 0.9185662
vt 0.1347656 1
vt 0.2060202 1
vt 0.1347656 0.9185662
vt 0.2060202 0.9185662
vt 0.1347656 1
vt 0.2060202 1
vt 0.1347656 0.9185662
vt 0.2060202 0.9185662
vt 0.1347656 1
vt 0.2060202 1
vt 0.1347656 0.9185662
vt 0.2060202 0.9185662
vt 0.1347656 1
vt 0.2060202 1
vt 0.1347656 0.9185662
vt 0.2060202 0.9185662
vt 0.1347656 1
vt 0.2060202 1
vt 0.1347656 0.9185662
vt 0.2060202 0.9185662
vt 0.1347656 1
vt 0.2060202 1
vt 0.1347656 0.9185662
vt 0.2060202 0.9185662
vt 0.1347656 1
vt 0.2060202 1
vt 0.1347656 0.9185662
vt 0.2060202 0.9185662
vt 0.1347656 1
vt 0.2060202 1
vt 0.1347656 0.9185662
vt 0.2060202 0.9185662
vt 0.1347656 1
vt 0.2060202 1
vt 0.1347656 0.9185662
vt 0.2060202 0.9185662
vt 0.1347656 1
vt 0.2060202 1
vt 0.1347656 0.9185662
vt 0.2060202 0.9185662
vt 0.1347656 1
vt 0.2060202 1
vt 0.1347656 0.9185662
vt 0.2060202 0.9185662
vt 0.1347656 1
vt 0.2060202 1
vt 0.1347656 0.9185662
vt 0.2060202 0.9185662
vt 0.1347656 1
vt 0.2060202 1
vt 0.1347656 0.9185662
vt 0.2060202 0.9185662
vt 0.1347656 1
vt 0.2060202 1
vt 0.1347656 0.9185662
vt 0.2060202 0.9185662
vt 0.1347656 1
vt 0.2060202 1
vt 0.1347656 0.9185662
vt 0.2060202 0.9185662
vt 0.1347656 1
vt 0.2060202 1
vt 0.1347656 0.9185662
vt 0.2060202 0.9185662
vt 0.1347656 1
vt 0.2060202 1
vt 0.1347656 0.9185662
vt 0.2060202 0.9185662
vt 0.1347656 1
vt 0.2060202 1
vt 0.1347656 0.9185662
vt 0.2060202 0.9185662
vt 0.1347656 1
vt 0.2060202 1
vt 0.1347656 0.9185662
vt 0.2060202 0.9185662
vt 0.1347656 1
vt 0.2060202 1
vt 0.1347656 0.9185662
vt 0.2060202 0.9185662
vt 0.1347656 1
vt 0.2060202 1
vt 0.1347656 0.9185662
vt 0.2060202 0.9185662
vt 0.1347656 1
vt 0.2060202 1
vt 0.1347656 0.9185662
vt 0.2060202 0.9185662
vt 0.1347656 1
vt 0.2060202 1
vt 0.1347656 0.9185662
vt 0.2060202 0.9185662
vt 0.1347656 1
vt 0.2060202 1
vt 0.1347656 0.9185662
vt 0.2060202 0.9185662
vt 0.1347656 1
vt 0.2060202 1
vt 0.1347656 0.9185662
vt 0.2060202 0.9185662
vt 0.1347656 1
vt 0.2060202 1
vt 0.1347656 0.9185662
vt 0.2060202 0.9185662
vt 0.1347656 1
vt 0.2060202 1
vt 0.1347656 0.9185662
vt 0.2060202 0.9185662
vt 0.1347656 1
vt 0.2060202 1
vt 0.1347656 0.9185662
vt 0.2060202 0.9185662
vt 0.1347656 1
vt 0.2060202 1
vt 0.1347656 0.9185662
vt 0.2060202 0.9185662
vt 0.1347656 1
vt 0.2060202 1
vt 0.1347656 0.9185662
vt 0.2060202 0.9185662
vt 0.1347656 1
vt 0.2060202 1
vt 0.1347656 0.9185662
vt 0.2060202 0.9185662
vt 0.1347656 1
vt 0.2060202 1
vt 0.1347656 0.9185662
vt 0.2060202 0.9185662
vt 0.1347656 1
vt 0.2060202 1
vn 0 1 0
vn 0 1 0
vn 0 1 0
vn 0 1 0
vn 0 1 0
vn 0 1 0
vn 0 1 0
vn 0 1 0
vn 0 1 0
vn 0 1 0
vn 0 1 0
vn 0 1 0
vn 0 1 0
vn 0 1 0
vn 0 1 0
vn 0 1 0
vn 0 1 0
vn 0 1 0
vn 0 1 0
vn 0 1 0
vn 0 1 0
vn 0 1 0
vn 0 1 0
vn 0 1 0
vn 0 1 0
vn 0 1 0
vn 0 1 0
vn 0 1 0
vn 0 1 0
vn 0 1 0
vn 0 1 0
vn 0 1 0
vn 0 1 0
vn 0 1 0
vn 0 1 0
vn 0 1 0
vn 0 1 0
vn 0 1 0
vn 0 1 0
vn 0 1 0
vn 0 1 0
vn 0 1 0
vn 0 1 0
vn 0 1 0
vn 0 1 0
vn 0 1 0
vn 0 1 0
vn 0 1 0
vn 0 1 0
vn 0 1 0
vn 0 1 0
vn 0 1 0
vn 0 1 0
vn 0 1 0
vn 0 1 0
vn 0 1 0
vn 0 1 0
vn 0 1 0
vn 0 1 0
vn 0 1 0
vn 0 1 0
vn 0 1 0
vn 0 1 0
vn 0 1 0
vn 0 1 0
vn 0 1 0
vn 0 1 0
vn 0 1 0
vn 0 1 0
vn 0 1 0
vn 0 1 0
vn 0 1 0
vn 0 1 0
vn 0 1 0
vn 0 1 0
vn 0 1 0
vn 0 1 0
vn 0 1 0
vn 0 1 0
vn 0 1 0
vn 0 1 0
vn 0 1 0
vn 0 1 0
vn 0 1 0
vn 0 1 0
vn 0 1 0
vn 0 1 0
vn 0 1 0
vn 0 1 0
vn 0 1 0
vn 0 1 0
vn 0 1 0
vn 0 1 0
vn 0 1 0
vn 0 1 0
vn 0 1 0
vn 0 1 0
vn 0 1 0
vn 0 1 0
vn 0 1 0
vn 0 1 0
vn 0 1 0
vn 0 1 0
vn 0 1 0
vn 0 1 0
vn 0 1 0
vn 0 1 0
vn 0 1 0
vn 0 1 0
vn 0 1 0
vn 0 1 0
vn 0 1 0
vn 0 1 0
vn 0 1 0
vn 0 1 0
vn 0 1 0
vn 0 1 0
vn 0 1 0
vn 0 1 0
vn 0 1 0
vn 0 1 0
vn 0 1 0
vn 0 1 0
vn 0 1 0
vn 0 1 0
vn 0 1 0
vn 0 1 0
vn 0 1 0
vn 0 1 0
vn 0 1 0
vn 0 1 0
vn 0 1 0
vn 0 1 0
vn 0 1 0
vn 0 1 0
vn 0 1 0
vn 0 1 0
vn 0 1 0
vn 0 1 0
vn 0 1 0
vn 0 1 0
vn 0 1 0
vn 0 1 0
vn 0 1 0
vn 0 1 0
vn 0 1 0
vn 0 1 0
vn 0 1 0
g Grass_2_Cluster159_0
f 2/2/2 3/3/3 1/1/1
f 2/2/2 4/4/4 3/3/3
f 6/6/6 7/7/7 5/5/5
f 6/6/6 8/8/8 7/7/7
f 10/10/10 11/11/11 9/9/9
f 10/10/10 12/12/12 11/11/11
f 14/14/14 15/15/15 13/13/13
f 14/14/14 16/16/16 15/15/15
f 18/18/18 19/19/19 17/17/17
f 18/18/18 20/20/20 19/19/19
f 22/22/22 23/23/23 21/21/21
f 22/22/22 24/24/24 23/23/23
f 26/26/26 27/27/27 25/25/25
f 26/26/26 28/28/28 27/27/27
f 30/30/30 31/31/31 29/29/29
f 30/30/30 32/32/32 31/31/31
f 34/34/34 35/35/35 33/33/33
f 34/34/34 36/36/36 35/35/35
f 38/38/38 39/39/39 37/37/37
f 38/38/38 40/40/40 39/39/39
f 42/42/42 43/43/43 41/41/41
f 42/42/42 44/44/44 43/43/43
f 46/46/46 47/47/47 45/45/45
f 46/46/46 48/48/48 47/47/47
f 50/50/50 51/51/51 49/49/49
f 50/50/50 52/52/52 51/51/51
f 54/54/54 55/55/55 53/53/53
f 54/54/54 56/56/56 55/55/55
f 58/58/58 59/59/59 57/57/57
f 58/58/58 60/60/60 59/59/59
f 62/62/62 63/63/63 61/61/61
f 62/62/62 64/64/64 63/63/63
f 66/66/66 67/67/67 65/65/65
f 66/66/66 68/68/68 67/67/67
f 70/70/70 71/71/71 69/69/69
f 70/70/70 72/72/72 71/71/71
f 74/74/74 75/75/75 73/73/73
f 74/74/74 76/76/76 75/75/75
f 78/78/78 79/79/79 77/77/77
f 78/78/78 80/80/80 79/79/79
f 82/82/82 83/83/83 81/81/81
f 82/82/82 84/84/84 83/83/83
f 86/86/86 87/87/87 85/85/85
f 86/86/86 88/88/88 87/87/87
f 90/90/90 91/91/91 89/89/89
f 90/90/90 92/92/92 91/91/91
f 94/94/94 95/95/95 93/93/93
f 94/94/94 96/96/96 95/95/95
f 98/98/98 99/99/99 97/97/97
f 98/98/98 100/100/100 99/99/99
f 102/102/102 103/103/103 101/101/101
f 102/102/102 104/104/104 103/103/103
f 106/106/106 107/107/107 105/105/105
f 106/106/106 108/108/108 107/107/107
f 110/110/110 111/111/111 109/109/109
f 110/110/110 112/112/112 111/111/111
f 114/114/114 115/115/115 113/113/113
f 114/114/114 116/116/116 115/115/115
f 118/118/118 119/119/119 117/117/117
f 118/118/118 120/120/120 119/119/119
f 122/122/122 123/123/123 121/121/121
f 122/122/122 124/124/124 123/123/123
f 126/126/126 127/127/127 125/125/125
f 126/126/126 128/128/128 127/127/127
f 130/130/130 131/131/131 129/129/129
f 130/130/130 132/132/132 131/131/131
f 134/134/134 135/135/135 133/133/133
f 134/134/134 136/136/136 135/135/135
f 138/138/138 139/139/139 137/137/137
f 138/138/138 140/140/140 139/139/139
f 142/142/142 143/143/143 141/141/141
f 142/142/142 144/144/144 143/143/143
f 146/146/146 147/147/147 145/145/145
f 146/146/146 148/148/148 147/147/147
