g Grass_1_Cluster267
v 87.02127 0.1344299 382.4205
v 86.09898 0.1344299 382.4205
v 87.02127 0.1344299 383.3428
v 86.09898 0.1344299 383.3428
v 88.40469 0.1344299 381.4983
v 87.48241 0.1344299 381.4983
v 88.40469 0.1344299 382.4205
v 87.48241 0.1344299 382.4205
v 66.73106 0.1344299 364.436
v 65.80877 0.1344299 364.436
v 66.73106 0.1344299 365.3583
v 65.80877 0.1344299 365.3583
v 84.25443 0.1344299 360.2858
v 83.33214 0.1344299 360.2858
v 84.25443 0.1344299 361.208
v 83.33214 0.1344299 361.208
v 81.94872 0.1344299 359.3635
v 81.02644 0.1344299 359.3635
v 81.94872 0.1344299 360.2858
v 81.02644 0.1344299 360.2858
v 83.79328 0.1344299 358.9023
v 82.871 0.1344299 358.9023
v 83.79328 0.1344299 359.3635
v 82.871 0.1344299 359.3635
vt 0.06738281 0.9369141
vt 0.1331457 0.9369141
vt 0.06738281 0.9990234
vt 0.1331457 0.9990234
vt 0.06738281 0.9369141
vt 0.1331457 0.9369141
vt 0.06738281 0.9990234
vt 0.1331457 0.9990234
vt 0.06738281 0.9369141
vt 0.1331457 0.9369141
vt 0.06738281 0.9990234
vt 0.1331457 0.9990234
vt 0.06738281 0.9369141
vt 0.1331457 0.9369141
vt 0.06738281 0.9990234
vt 0.1331457 0.9990234
vt 0.06738281 0.9369141
vt 0.1331457 0.9369141
vt 0.06738281 0.9990234
vt 0.1331457 0.9990234
vt 0.06738281 0.9369141
vt 0.1331457 0.9369141
vt 0.06738281 0.9990234
vt 0.1331457 0.9990234
vn 0 1 0
vn 0 1 0
vn 0 1 0
vn 0 1 0
vn 0 1 0
vn 0 1 0
vn 0 1 0
vn 0 1 0
vn 0 1 0
vn 0 1 0
vn 0 1 0
vn 0 1 0
vn 0 1 0
vn 0 1 0
vn 0 1 0
vn 0 1 0
vn 0 1 0
vn 0 1 0
vn 0 1 0
vn 0 1 0
vn 0 1 0
vn 0 1 0
vn 0 1 0
vn 0 1 0
g Grass_1_Cluster267_0
f 2/2/2 3/3/3 1/1/1
f 2/2/2 4/4/4 3/3/3
f 6/6/6 7/7/7 5/5/5
f 6/6/6 8/8/8 7/7/7
f 10/10/10 11/11/11 9/9/9
f 10/10/10 12/12/12 11/11/11
f 14/14/14 15/15/15 13/13/13
f 14/14/14 16/16/16 15/15/15
f 18/18/18 19/19/19 17/17/17
f 18/18/18 20/20/20 19/19/19
f 22/22/22 23/23/23 21/21/21
f 22/22/22 24/24/24 23/23/23
