g Grass_0_Cluster211
v -43.85246 0 290.1666
v -44.70673 0 290.1666
v -43.85246 0 291.3056
v -44.70673 0 291.3056
v -37.01831 0 289.3123
v -37.87257 0 289.3123
v -37.01831 0 290.4513
v -37.87257 0 290.4513
v -52.39514 0 286.4648
v -53.24941 0 286.4648
v -52.39514 0 287.8885
v -53.24941 0 287.8885
v -56.66648 0 286.18
v -57.52075 0 286.18
v -56.66648 0 287.319
v -57.52075 0 287.319
v -51.82563 0 285.041
v -52.6799 0 285.041
v -51.82563 0 286.18
v -52.6799 0 286.18
v -55.2427 0 284.7562
v -56.09697 0 284.7562
v -55.2427 0 286.18
v -56.09697 0 286.18
v -50.40185 0 284.4714
v -51.25612 0 284.4714
v -50.40185 0 285.6105
v -51.25612 0 285.6105
v -48.69331 0 283.9019
v -49.54758 0 283.9019
v -48.69331 0 285.041
v -49.54758 0 285.041
v -53.53417 0 283.6172
v -54.67319 0 283.6172
v -53.53417 0 285.041
v -54.67319 0 285.041
v -56.95124 0 283.6172
v -57.80551 0 283.6172
v -56.95124 0 285.041
v -57.80551 0 285.041
v -41.85916 0 283.3324
v -42.71343 0 283.3324
v -41.85916 0 284.4714
v -42.71343 0 284.4714
v -47.26953 0 282.4781
v -48.1238 0 282.4781
v -47.26953 0 283.6172
v -48.1238 0 283.6172
v -40.43538 0 282.1934
v -41.28965 0 282.1934
v -40.43538 0 283.3324
v -41.28965 0 283.3324
v -44.42197 0 281.3391
v -45.27624 0 281.3391
v -44.42197 0 282.4781
v -45.27624 0 282.4781
v -37.58782 0 280.4849
v -38.44209 0 280.4849
v -37.58782 0 281.9086
v -38.44209 0 281.9086
v -42.71343 0 280.4849
v -43.5677 0 280.4849
v -42.71343 0 281.6239
v -43.5677 0 281.6239
v -56.66648 0 280.2001
v -57.52075 0 280.2001
v -56.66648 0 281.3391
v -57.52075 0 281.3391
v -35.87928 0 276.783
v -37.01831 0 276.783
v -35.87928 0 278.2068
v -37.01831 0 278.2068
v -37.30306 0 276.783
v -38.15733 0 276.783
v -37.30306 0 277.9221
v -38.15733 0 277.9221
v -35.59452 0 276.2135
v -36.4488 0 276.2135
v -35.59452 0 277.3525
v -36.4488 0 277.3525
v -34.4555 0 274.505
v -35.30977 0 274.505
v -34.4555 0 275.644
v -35.30977 0 275.644
v -31.03843 0 272.5117
v -31.89269 0 272.5117
v -31.03843 0 273.6507
v -31.89269 0 273.6507
v -31.03843 0 269.9489
v -31.89269 0 269.9489
v -31.03843 0 271.0879
v -31.89269 0 271.0879
v -52.6799 0 267.3861
v -53.53417 0 267.3861
v -52.6799 0 268.8098
v -53.53417 0 268.8098
v -48.97807 0 266.5318
v -49.83234 0 266.5318
v -48.97807 0 267.6708
v -49.83234 0 267.6708
v -48.40855 0 265.3928
v -49.26283 0 265.3928
v -48.40855 0 266.5318
v -49.26283 0 266.5318
v -39.86587 0 263.969
v -40.72014 0 263.969
v -39.86587 0 265.108
v -40.72014 0 265.108
v -30.75367 0 263.6842
v -31.60794 0 263.6842
v -30.75367 0 264.8233
v -31.60794 0 264.8233
v -55.2427 0 263.1147
v -56.09697 0 263.1147
v -55.2427 0 264.5385
v -56.09697 0 264.5385
vt 0 0.9058824
vt 0.06666667 0.9058824
vt 0 1
vt 0.06666667 1
vt 0 0.9058824
vt 0.06666667 0.9058824
vt 0 1
vt 0.06666667 1
vt 0 0.9058824
vt 0.06666667 0.9058824
vt 0 1
vt 0.06666667 1
vt 0 0.9058824
vt 0.06666667 0.9058824
vt 0 1
vt 0.06666667 1
vt 0 0.9058824
vt 0.06666667 0.9058824
vt 0 1
vt 0.06666667 1
vt 0 0.9058824
vt 0.06666667 0.9058824
vt 0 1
vt 0.06666667 1
vt 0 0.9058824
vt 0.06666667 0.9058824
vt 0 1
vt 0.06666667 1
vt 0 0.9058824
vt 0.06666667 0.9058824
vt 0 1
vt 0.06666667 1
vt 0 0.9058824
vt 0.06666667 0.9058824
vt 0 1
vt 0.06666667 1
vt 0 0.9058824
vt 0.06666667 0.9058824
vt 0 1
vt 0.06666667 1
vt 0 0.9058824
vt 0.06666667 0.9058824
vt 0 1
vt 0.06666667 1
vt 0 0.9058824
vt 0.06666667 0.9058824
vt 0 1
vt 0.06666667 1
vt 0 0.9058824
vt 0.06666667 0.9058824
vt 0 1
vt 0.06666667 1
vt 0 0.9058824
vt 0.06666667 0.9058824
vt 0 1
vt 0.06666667 1
vt 0 0.9058824
vt 0.06666667 0.9058824
vt 0 1
vt 0.06666667 1
vt 0 0.9058824
vt 0.06666667 0.9058824
vt 0 1
vt 0.06666667 1
vt 0 0.9058824
vt 0.06666667 0.9058824
vt 0 1
vt 0.06666667 1
vt 0 0.9058824
vt 0.06666667 0.9058824
vt 0 1
vt 0.06666667 1
vt 0 0.9058824
vt 0.06666667 0.9058824
vt 0 1
vt 0.06666667 1
vt 0 0.9058824
vt 0.06666667 0.9058824
vt 0 1
vt 0.06666667 1
vt 0 0.9058824
vt 0.06666667 0.9058824
vt 0 1
vt 0.06666667 1
vt 0 0.9058824
vt 0.06666667 0.9058824
vt 0 1
vt 0.06666667 1
vt 0 0.9058824
vt 0.06666667 0.9058824
vt 0 1
vt 0.06666667 1
vt 0 0.9058824
vt 0.06666667 0.9058824
vt 0 1
vt 0.06666667 1
vt 0 0.9058824
vt 0.06666667 0.9058824
vt 0 1
vt 0.06666667 1
vt 0 0.9058824
vt 0.06666667 0.9058824
vt 0 1
vt 0.06666667 1
vt 0 0.9058824
vt 0.06666667 0.9058824
vt 0 1
vt 0.06666667 1
vt 0 0.9058824
vt 0.06666667 0.9058824
vt 0 1
vt 0.06666667 1
vt 0 0.9058824
vt 0.06666667 0.9058824
vt 0 1
vt 0.06666667 1
vn 0 1 0
vn 0 1 0
vn 0 1 0
vn 0 1 0
vn 0 1 0
vn 0 1 0
vn 0 1 0
vn 0 1 0
vn 0 1 0
vn 0 1 0
vn 0 1 0
vn 0 1 0
vn 0 1 0
vn 0 1 0
vn 0 1 0
vn 0 1 0
vn 0 1 0
vn 0 1 0
vn 0 1 0
vn 0 1 0
vn 0 1 0
vn 0 1 0
vn 0 1 0
vn 0 1 0
vn 0 1 0
vn 0 1 0
vn 0 1 0
vn 0 1 0
vn 0 1 0
vn 0 1 0
vn 0 1 0
vn 0 1 0
vn 0 1 0
vn 0 1 0
vn 0 1 0
vn 0 1 0
vn 0 1 0
vn 0 1 0
vn 0 1 0
vn 0 1 0
vn 0 1 0
vn 0 1 0
vn 0 1 0
vn 0 1 0
vn 0 1 0
vn 0 1 0
vn 0 1 0
vn 0 1 0
vn 0 1 0
vn 0 1 0
vn 0 1 0
vn 0 1 0
vn 0 1 0
vn 0 1 0
vn 0 1 0
vn 0 1 0
vn 0 1 0
vn 0 1 0
vn 0 1 0
vn 0 1 0
vn 0 1 0
vn 0 1 0
vn 0 1 0
vn 0 1 0
vn 0 1 0
vn 0 1 0
vn 0 1 0
vn 0 1 0
vn 0 1 0
vn 0 1 0
vn 0 1 0
vn 0 1 0
vn 0 1 0
vn 0 1 0
vn 0 1 0
vn 0 1 0
vn 0 1 0
vn 0 1 0
vn 0 1 0
vn 0 1 0
vn 0 1 0
vn 0 1 0
vn 0 1 0
vn 0 1 0
vn 0 1 0
vn 0 1 0
vn 0 1 0
vn 0 1 0
vn 0 1 0
vn 0 1 0
vn 0 1 0
vn 0 1 0
vn 0 1 0
vn 0 1 0
vn 0 1 0
vn 0 1 0
vn 0 1 0
vn 0 1 0
vn 0 1 0
vn 0 1 0
vn 0 1 0
vn 0 1 0
vn 0 1 0
vn 0 1 0
vn 0 1 0
vn 0 1 0
vn 0 1 0
vn 0 1 0
vn 0 1 0
vn 0 1 0
vn 0 1 0
vn 0 1 0
vn 0 1 0
vn 0 1 0
vn 0 1 0
vn 0 1 0
g Grass_0_Cluster211_0
f 2/2/2 3/3/3 1/1/1
f 2/2/2 4/4/4 3/3/3
f 6/6/6 7/7/7 5/5/5
f 6/6/6 8/8/8 7/7/7
f 10/10/10 11/11/11 9/9/9
f 10/10/10 12/12/12 11/11/11
f 14/14/14 15/15/15 13/13/13
f 14/14/14 16/16/16 15/15/15
f 18/18/18 19/19/19 17/17/17
f 18/18/18 20/20/20 19/19/19
f 22/22/22 23/23/23 21/21/21
f 22/22/22 24/24/24 23/23/23
f 26/26/26 27/27/27 25/25/25
f 26/26/26 28/28/28 27/27/27
f 30/30/30 31/31/31 29/29/29
f 30/30/30 32/32/32 31/31/31
f 34/34/34 35/35/35 33/33/33
f 34/34/34 36/36/36 35/35/35
f 38/38/38 39/39/39 37/37/37
f 38/38/38 40/40/40 39/39/39
f 42/42/42 43/43/43 41/41/41
f 42/42/42 44/44/44 43/43/43
f 46/46/46 47/47/47 45/45/45
f 46/46/46 48/48/48 47/47/47
f 50/50/50 51/51/51 49/49/49
f 50/50/50 52/52/52 51/51/51
f 54/54/54 55/55/55 53/53/53
f 54/54/54 56/56/56 55/55/55
f 58/58/58 59/59/59 57/57/57
f 58/58/58 60/60/60 59/59/59
f 62/62/62 63/63/63 61/61/61
f 62/62/62 64/64/64 63/63/63
f 66/66/66 67/67/67 65/65/65
f 66/66/66 68/68/68 67/67/67
f 70/70/70 71/71/71 69/69/69
f 70/70/70 72/72/72 71/71/71
f 74/74/74 75/75/75 73/73/73
f 74/74/74 76/76/76 75/75/75
f 78/78/78 79/79/79 77/77/77
f 78/78/78 80/80/80 79/79/79
f 82/82/82 83/83/83 81/81/81
f 82/82/82 84/84/84 83/83/83
f 86/86/86 87/87/87 85/85/85
f 86/86/86 88/88/88 87/87/87
f 90/90/90 91/91/91 89/89/89
f 90/90/90 92/92/92 91/91/91
f 94/94/94 95/95/95 93/93/93
f 94/94/94 96/96/96 95/95/95
f 98/98/98 99/99/99 97/97/97
f 98/98/98 100/100/100 99/99/99
f 102/102/102 103/103/103 101/101/101
f 102/102/102 104/104/104 103/103/103
f 106/106/106 107/107/107 105/105/105
f 106/106/106 108/108/108 107/107/107
f 110/110/110 111/111/111 109/109/109
f 110/110/110 112/112/112 111/111/111
f 114/114/114 115/115/115 113/113/113
f 114/114/114 116/116/116 115/115/115
