g Grass_2_Cluster334
v -142.9273 0 465.7693
v -143.8405 0 465.7693
v -142.9273 0 467.1393
v -143.8405 0 467.1393
v -145.6671 0 466.226
v -146.5804 0 466.226
v -145.6671 0 467.1393
v -146.5804 0 467.1393
v -142.4706 0 465.3127
v -143.3839 0 465.3127
v -142.4706 0 466.6826
v -143.3839 0 466.6826
v -145.2104 0 465.3127
v -146.1237 0 465.3127
v -145.2104 0 466.226
v -146.1237 0 466.226
v -144.2972 0 465.3127
v -145.2104 0 465.3127
v -144.2972 0 466.226
v -145.2104 0 466.226
v -142.9273 0 463.9428
v -143.8405 0 463.9428
v -142.9273 0 465.3127
v -143.8405 0 465.3127
v -143.3839 0 463.4861
v -144.2972 0 463.4861
v -143.3839 0 464.3994
v -144.2972 0 464.3994
v -144.7538 0 463.0295
v -145.6671 0 463.0295
v -144.7538 0 464.3994
v -145.6671 0 464.3994
v -125.5751 0 446.134
v -126.4883 0 446.134
v -125.5751 0 447.0472
v -126.4883 0 447.0472
vt 0.1347656 0.9185662
vt 0.2060202 0.9185662
vt 0.1347656 1
vt 0.2060202 1
vt 0.1347656 0.9185662
vt 0.2060202 0.9185662
vt 0.1347656 1
vt 0.2060202 1
vt 0.1347656 0.9185662
vt 0.2060202 0.9185662
vt 0.1347656 1
vt 0.2060202 1
vt 0.1347656 0.9185662
vt 0.2060202 0.9185662
vt 0.1347656 1
vt 0.2060202 1
vt 0.1347656 0.9185662
vt 0.2060202 0.9185662
vt 0.1347656 1
vt 0.2060202 1
vt 0.1347656 0.9185662
vt 0.2060202 0.9185662
vt 0.1347656 1
vt 0.2060202 1
vt 0.1347656 0.9185662
vt 0.2060202 0.9185662
vt 0.1347656 1
vt 0.2060202 1
vt 0.1347656 0.9185662
vt 0.2060202 0.9185662
vt 0.1347656 1
vt 0.2060202 1
vt 0.1347656 0.9185662
vt 0.2060202 0.9185662
vt 0.1347656 1
vt 0.2060202 1
vn 0 1 0
vn 0 1 0
vn 0 1 0
vn 0 1 0
vn 0 1 0
vn 0 1 0
vn 0 1 0
vn 0 1 0
vn 0 1 0
vn 0 1 0
vn 0 1 0
vn 0 1 0
vn 0 1 0
vn 0 1 0
vn 0 1 0
vn 0 1 0
vn 0 1 0
vn 0 1 0
vn 0 1 0
vn 0 1 0
vn 0 1 0
vn 0 1 0
vn 0 1 0
vn 0 1 0
vn 0 1 0
vn 0 1 0
vn 0 1 0
vn 0 1 0
vn 0 1 0
vn 0 1 0
vn 0 1 0
vn 0 1 0
vn 0 1 0
vn 0 1 0
vn 0 1 0
vn 0 1 0
g Grass_2_Cluster334_0
f 2/2/2 3/3/3 1/1/1
f 2/2/2 4/4/4 3/3/3
f 6/6/6 7/7/7 5/5/5
f 6/6/6 8/8/8 7/7/7
f 10/10/10 11/11/11 9/9/9
f 10/10/10 12/12/12 11/11/11
f 14/14/14 15/15/15 13/13/13
f 14/14/14 16/16/16 15/15/15
f 18/18/18 19/19/19 17/17/17
f 18/18/18 20/20/20 19/19/19
f 22/22/22 23/23/23 21/21/21
f 22/22/22 24/24/24 23/23/23
f 26/26/26 27/27/27 25/25/25
f 26/26/26 28/28/28 27/27/27
f 30/30/30 31/31/31 29/29/29
f 30/30/30 32/32/32 31/31/31
f 34/34/34 35/35/35 33/33/33
f 34/34/34 36/36/36 35/35/35
