g Grass_2_Cluster80
v 282.6481 0.1361389 112.7637
v 281.8378 0.1361389 112.7637
v 282.6481 0.1361389 113.9791
v 281.8378 0.1361389 113.9791
v 281.4327 0.1361389 112.3586
v 280.2173 0.1361389 112.3586
v 281.4327 0.1361389 113.5739
v 280.2173 0.1361389 113.5739
v 281.8378 0.1361389 112.3586
v 281.0276 0.1361389 112.3586
v 281.8378 0.1361389 113.5739
v 281.0276 0.1361389 113.5739
v 295.6124 0.1361389 102.2302
v 294.397 0.1361389 102.2302
v 295.6124 0.1361389 103.4456
v 294.397 0.1361389 103.4456
v 296.0175 0.1361389 101.825
v 295.2073 0.1361389 101.825
v 296.0175 0.1361389 103.0404
v 295.2073 0.1361389 103.0404
v 296.0175 0.1361389 101.0148
v 294.8021 0.1361389 101.0148
v 296.0175 0.1361389 102.2302
v 294.8021 0.1361389 102.2302
v 294.397 0.1361389 101.0148
v 293.5867 0.1361389 101.0148
v 294.397 0.1361389 101.825
v 293.5867 0.1361389 101.825
v 295.2073 0.1361389 99.79935
v 294.397 0.1361389 99.79935
v 295.2073 0.1361389 101.0148
v 294.397 0.1361389 101.0148
v 293.9919 0.1361389 98.98907
v 293.1816 0.1361389 98.98907
v 293.9919 0.1361389 99.79935
v 293.1816 0.1361389 99.79935
v 295.6124 0.1361389 98.58395
v 294.8021 0.1361389 98.58395
v 295.6124 0.1361389 99.79935
v 294.8021 0.1361389 99.79935
v 297.2329 0.1361389 98.17883
v 296.0175 0.1361389 98.17883
v 297.2329 0.1361389 98.98907
v 296.0175 0.1361389 98.98907
v 294.8021 0.1361389 98.17883
v 293.5867 0.1361389 98.17883
v 294.8021 0.1361389 98.98907
v 293.5867 0.1361389 98.98907
v 296.0175 0.1361389 97.77368
v 295.2073 0.1361389 97.77368
v 296.0175 0.1361389 98.98907
v 295.2073 0.1361389 98.98907
v 293.5867 0.1361389 96.96341
v 292.3713 0.1361389 96.96341
v 293.5867 0.1361389 98.17883
v 292.3713 0.1361389 98.17883
v 293.9919 0.1361389 96.55829
v 293.1816 0.1361389 96.55829
v 293.9919 0.1361389 97.77368
v 293.1816 0.1361389 97.77368
v 272.5197 0.1361389 96.15314
v 271.7094 0.1361389 96.15314
v 272.5197 0.1361389 97.36856
v 271.7094 0.1361389 97.36856
v 293.9919 0.1361389 94.93774
v 293.1816 0.1361389 94.93774
v 293.9919 0.1361389 96.15314
v 293.1816 0.1361389 96.15314
v 272.5197 0.1361389 94.53259
v 271.3043 0.1361389 94.53259
v 272.5197 0.1361389 95.34286
v 271.3043 0.1361389 95.34286
v 271.7094 0.1361389 91.69666
v 270.494 0.1361389 91.69666
v 271.7094 0.1361389 92.91208
v 270.494 0.1361389 92.91208
v 296.8278 0.1361389 89.26584
v 296.0175 0.1361389 89.26584
v 296.8278 0.1361389 90.07611
v 296.0175 0.1361389 90.07611
v 295.6124 0.1361389 87.64529
v 294.8021 0.1361389 87.64529
v 295.6124 0.1361389 88.86072
v 294.8021 0.1361389 88.86072
v 296.0175 0.1361389 87.24017
v 295.2073 0.1361389 87.24017
v 296.0175 0.1361389 88.45557
v 295.2073 0.1361389 88.45557
v 297.2329 0.1361389 86.83505
v 296.4227 0.1361389 86.83505
v 297.2329 0.1361389 88.05045
v 296.4227 0.1361389 88.05045
v 298.4484 0.1361389 86.4299
v 297.2329 0.1361389 86.4299
v 298.4484 0.1361389 87.64529
v 297.2329 0.1361389 87.64529
v 295.2073 0.1361389 86.4299
v 294.397 0.1361389 86.4299
v 295.2073 0.1361389 87.64529
v 294.397 0.1361389 87.64529
v 298.0432 0.1361389 86.02478
v 296.8278 0.1361389 86.02478
v 298.0432 0.1361389 87.24017
v 296.8278 0.1361389 87.24017
v 294.8021 0.1361389 85.61963
v 293.9919 0.1361389 85.61963
v 294.8021 0.1361389 86.83505
v 293.9919 0.1361389 86.83505
v 296.0175 0.1361389 85.61963
v 295.2073 0.1361389 85.61963
v 296.0175 0.1361389 86.83505
v 295.2073 0.1361389 86.83505
v 300.0689 0.1361389 85.61963
v 299.2586 0.1361389 85.61963
v 300.0689 0.1361389 86.83505
v 299.2586 0.1361389 86.83505
v 299.2586 0.1361389 85.61963
v 298.4484 0.1361389 85.61963
v 299.2586 0.1361389 86.4299
v 298.4484 0.1361389 86.4299
v 296.4227 0.1361389 84.80936
v 295.6124 0.1361389 84.80936
v 296.4227 0.1361389 86.02478
v 295.6124 0.1361389 86.02478
v 297.6381 0.1361389 84.80936
v 296.8278 0.1361389 84.80936
v 297.6381 0.1361389 85.61963
v 296.8278 0.1361389 85.61963
v 299.2586 0.1361389 84.40424
v 298.0432 0.1361389 84.40424
v 299.2586 0.1361389 85.61963
v 298.0432 0.1361389 85.61963
v 300.474 0.1361389 83.99908
v 299.6638 0.1361389 83.99908
v 300.474 0.1361389 85.21451
v 299.6638 0.1361389 85.21451
v 296.8278 0.1361389 83.59396
v 295.6124 0.1361389 83.59396
v 296.8278 0.1361389 84.80936
v 295.6124 0.1361389 84.80936
v 293.9919 0.1361389 83.18881
v 293.1816 0.1361389 83.18881
v 293.9919 0.1361389 84.40424
v 293.1816 0.1361389 84.40424
vt 0.1347656 0.9185662
vt 0.2060202 0.9185662
vt 0.1347656 1
vt 0.2060202 1
vt 0.1347656 0.9185662
vt 0.2060202 0.9185662
vt 0.1347656 1
vt 0.2060202 1
vt 0.1347656 0.9185662
vt 0.2060202 0.9185662
vt 0.1347656 1
vt 0.2060202 1
vt 0.1347656 0.9185662
vt 0.2060202 0.9185662
vt 0.1347656 1
vt 0.2060202 1
vt 0.1347656 0.9185662
vt 0.2060202 0.9185662
vt 0.1347656 1
vt 0.2060202 1
vt 0.1347656 0.9185662
vt 0.2060202 0.9185662
vt 0.1347656 1
vt 0.2060202 1
vt 0.1347656 0.9185662
vt 0.2060202 0.9185662
vt 0.1347656 1
vt 0.2060202 1
vt 0.1347656 0.9185662
vt 0.2060202 0.9185662
vt 0.1347656 1
vt 0.2060202 1
vt 0.1347656 0.9185662
vt 0.2060202 0.9185662
vt 0.1347656 1
vt 0.2060202 1
vt 0.1347656 0.9185662
vt 0.2060202 0.9185662
vt 0.1347656 1
vt 0.2060202 1
vt 0.1347656 0.9185662
vt 0.2060202 0.9185662
vt 0.1347656 1
vt 0.2060202 1
vt 0.1347656 0.9185662
vt 0.2060202 0.9185662
vt 0.1347656 1
vt 0.2060202 1
vt 0.1347656 0.9185662
vt 0.2060202 0.9185662
vt 0.1347656 1
vt 0.2060202 1
vt 0.1347656 0.9185662
vt 0.2060202 0.9185662
vt 0.1347656 1
vt 0.2060202 1
vt 0.1347656 0.9185662
vt 0.2060202 0.9185662
vt 0.1347656 1
vt 0.2060202 1
vt 0.1347656 0.9185662
vt 0.2060202 0.9185662
vt 0.1347656 1
vt 0.2060202 1
vt 0.1347656 0.9185662
vt 0.2060202 0.9185662
vt 0.1347656 1
vt 0.2060202 1
vt 0.1347656 0.9185662
vt 0.2060202 0.9185662
vt 0.1347656 1
vt 0.2060202 1
vt 0.1347656 0.9185662
vt 0.2060202 0.9185662
vt 0.1347656 1
vt 0.2060202 1
vt 0.1347656 0.9185662
vt 0.2060202 0.9185662
vt 0.1347656 1
vt 0.2060202 1
vt 0.1347656 0.9185662
vt 0.2060202 0.9185662
vt 0.1347656 1
vt 0.2060202 1
vt 0.1347656 0.9185662
vt 0.2060202 0.9185662
vt 0.1347656 1
vt 0.2060202 1
vt 0.1347656 0.9185662
vt 0.2060202 0.9185662
vt 0.1347656 1
vt 0.2060202 1
vt 0.1347656 0.9185662
vt 0.2060202 0.9185662
vt 0.1347656 1
vt 0.2060202 1
vt 0.1347656 0.9185662
vt 0.2060202 0.9185662
vt 0.1347656 1
vt 0.2060202 1
vt 0.1347656 0.9185662
vt 0.2060202 0.9185662
vt 0.1347656 1
vt 0.2060202 1
vt 0.1347656 0.9185662
vt 0.2060202 0.9185662
vt 0.1347656 1
vt 0.2060202 1
vt 0.1347656 0.9185662
vt 0.2060202 0.9185662
vt 0.1347656 1
vt 0.2060202 1
vt 0.1347656 0.9185662
vt 0.2060202 0.9185662
vt 0.1347656 1
vt 0.2060202 1
vt 0.1347656 0.9185662
vt 0.2060202 0.9185662
vt 0.1347656 1
vt 0.2060202 1
vt 0.1347656 0.9185662
vt 0.2060202 0.9185662
vt 0.1347656 1
vt 0.2060202 1
vt 0.1347656 0.9185662
vt 0.2060202 0.9185662
vt 0.1347656 1
vt 0.2060202 1
vt 0.1347656 0.9185662
vt 0.2060202 0.9185662
vt 0.1347656 1
vt 0.2060202 1
vt 0.1347656 0.9185662
vt 0.2060202 0.9185662
vt 0.1347656 1
vt 0.2060202 1
vt 0.1347656 0.9185662
vt 0.2060202 0.9185662
vt 0.1347656 1
vt 0.2060202 1
vt 0.1347656 0.9185662
vt 0.2060202 0.9185662
vt 0.1347656 1
vt 0.2060202 1
vn 0 1 0
vn 0 1 0
vn 0 1 0
vn 0 1 0
vn 0 1 0
vn 0 1 0
vn 0 1 0
vn 0 1 0
vn 0 1 0
vn 0 1 0
vn 0 1 0
vn 0 1 0
vn 0 1 0
vn 0 1 0
vn 0 1 0
vn 0 1 0
vn 0 1 0
vn 0 1 0
vn 0 1 0
vn 0 1 0
vn 0 1 0
vn 0 1 0
vn 0 1 0
vn 0 1 0
vn 0 1 0
vn 0 1 0
vn 0 1 0
vn 0 1 0
vn 0 1 0
vn 0 1 0
vn 0 1 0
vn 0 1 0
vn 0 1 0
vn 0 1 0
vn 0 1 0
vn 0 1 0
vn 0 1 0
vn 0 1 0
vn 0 1 0
vn 0 1 0
vn 0 1 0
vn 0 1 0
vn 0 1 0
vn 0 1 0
vn 0 1 0
vn 0 1 0
vn 0 1 0
vn 0 1 0
vn 0 1 0
vn 0 1 0
vn 0 1 0
vn 0 1 0
vn 0 1 0
vn 0 1 0
vn 0 1 0
vn 0 1 0
vn 0 1 0
vn 0 1 0
vn 0 1 0
vn 0 1 0
vn 0 1 0
vn 0 1 0
vn 0 1 0
vn 0 1 0
vn 0 1 0
vn 0 1 0
vn 0 1 0
vn 0 1 0
vn 0 1 0
vn 0 1 0
vn 0 1 0
vn 0 1 0
vn 0 1 0
vn 0 1 0
vn 0 1 0
vn 0 1 0
vn 0 1 0
vn 0 1 0
vn 0 1 0
vn 0 1 0
vn 0 1 0
vn 0 1 0
vn 0 1 0
vn 0 1 0
vn 0 1 0
vn 0 1 0
vn 0 1 0
vn 0 1 0
vn 0 1 0
vn 0 1 0
vn 0 1 0
vn 0 1 0
vn 0 1 0
vn 0 1 0
vn 0 1 0
vn 0 1 0
vn 0 1 0
vn 0 1 0
vn 0 1 0
vn 0 1 0
vn 0 1 0
vn 0 1 0
vn 0 1 0
vn 0 1 0
vn 0 1 0
vn 0 1 0
vn 0 1 0
vn 0 1 0
vn 0 1 0
vn 0 1 0
vn 0 1 0
vn 0 1 0
vn 0 1 0
vn 0 1 0
vn 0 1 0
vn 0 1 0
vn 0 1 0
vn 0 1 0
vn 0 1 0
vn 0 1 0
vn 0 1 0
vn 0 1 0
vn 0 1 0
vn 0 1 0
vn 0 1 0
vn 0 1 0
vn 0 1 0
vn 0 1 0
vn 0 1 0
vn 0 1 0
vn 0 1 0
vn 0 1 0
vn 0 1 0
vn 0 1 0
vn 0 1 0
vn 0 1 0
vn 0 1 0
vn 0 1 0
vn 0 1 0
vn 0 1 0
vn 0 1 0
vn 0 1 0
vn 0 1 0
vn 0 1 0
g Grass_2_Cluster80_0
f 2/2/2 3/3/3 1/1/1
f 2/2/2 4/4/4 3/3/3
f 6/6/6 7/7/7 5/5/5
f 6/6/6 8/8/8 7/7/7
f 10/10/10 11/11/11 9/9/9
f 10/10/10 12/12/12 11/11/11
f 14/14/14 15/15/15 13/13/13
f 14/14/14 16/16/16 15/15/15
f 18/18/18 19/19/19 17/17/17
f 18/18/18 20/20/20 19/19/19
f 22/22/22 23/23/23 21/21/21
f 22/22/22 24/24/24 23/23/23
f 26/26/26 27/27/27 25/25/25
f 26/26/26 28/28/28 27/27/27
f 30/30/30 31/31/31 29/29/29
f 30/30/30 32/32/32 31/31/31
f 34/34/34 35/35/35 33/33/33
f 34/34/34 36/36/36 35/35/35
f 38/38/38 39/39/39 37/37/37
f 38/38/38 40/40/40 39/39/39
f 42/42/42 43/43/43 41/41/41
f 42/42/42 44/44/44 43/43/43
f 46/46/46 47/47/47 45/45/45
f 46/46/46 48/48/48 47/47/47
f 50/50/50 51/51/51 49/49/49
f 50/50/50 52/52/52 51/51/51
f 54/54/54 55/55/55 53/53/53
f 54/54/54 56/56/56 55/55/55
f 58/58/58 59/59/59 57/57/57
f 58/58/58 60/60/60 59/59/59
f 62/62/62 63/63/63 61/61/61
f 62/62/62 64/64/64 63/63/63
f 66/66/66 67/67/67 65/65/65
f 66/66/66 68/68/68 67/67/67
f 70/70/70 71/71/71 69/69/69
f 70/70/70 72/72/72 71/71/71
f 74/74/74 75/75/75 73/73/73
f 74/74/74 76/76/76 75/75/75
f 78/78/78 79/79/79 77/77/77
f 78/78/78 80/80/80 79/79/79
f 82/82/82 83/83/83 81/81/81
f 82/82/82 84/84/84 83/83/83
f 86/86/86 87/87/87 85/85/85
f 86/86/86 88/88/88 87/87/87
f 90/90/90 91/91/91 89/89/89
f 90/90/90 92/92/92 91/91/91
f 94/94/94 95/95/95 93/93/93
f 94/94/94 96/96/96 95/95/95
f 98/98/98 99/99/99 97/97/97
f 98/98/98 100/100/100 99/99/99
f 102/102/102 103/103/103 101/101/101
f 102/102/102 104/104/104 103/103/103
f 106/106/106 107/107/107 105/105/105
f 106/106/106 108/108/108 107/107/107
f 110/110/110 111/111/111 109/109/109
f 110/110/110 112/112/112 111/111/111
f 114/114/114 115/115/115 113/113/113
f 114/114/114 116/116/116 115/115/115
f 118/118/118 119/119/119 117/117/117
f 118/118/118 120/120/120 119/119/119
f 122/122/122 123/123/123 121/121/121
f 122/122/122 124/124/124 123/123/123
f 126/126/126 127/127/127 125/125/125
f 126/126/126 128/128/128 127/127/127
f 130/130/130 131/131/131 129/129/129
f 130/130/130 132/132/132 131/131/131
f 134/134/134 135/135/135 133/133/133
f 134/134/134 136/136/136 135/135/135
f 138/138/138 139/139/139 137/137/137
f 138/138/138 140/140/140 139/139/139
f 142/142/142 143/143/143 141/141/141
f 142/142/142 144/144/144 143/143/143
