g Grass_1_Cluster200
v 288.0927 -0.09387207 293.1203
v 286.9338 -0.09387207 293.1203
v 288.0927 -0.09387207 293.6997
v 286.9338 -0.09387207 293.6997
v 292.149 -0.09387207 292.5408
v 290.9901 -0.09387207 292.5408
v 292.149 -0.09387207 293.6997
v 290.9901 -0.09387207 293.6997
v 297.3643 -0.09387207 282.1103
v 296.7849 -0.09387207 282.1103
v 297.3643 -0.09387207 282.6897
v 296.7849 -0.09387207 282.6897
v 286.9338 -0.09387207 281.5308
v 286.3543 -0.09387207 281.5308
v 286.9338 -0.09387207 282.1103
v 286.3543 -0.09387207 282.1103
v 291.5696 -0.09387207 280.9513
v 290.9901 -0.09387207 280.9513
v 291.5696 -0.09387207 282.1103
v 290.9901 -0.09387207 282.1103
v 288.0927 -0.09387207 280.9513
v 286.9338 -0.09387207 280.9513
v 288.0927 -0.09387207 281.5308
v 286.9338 -0.09387207 281.5308
v 299.1028 -0.09387207 280.3719
v 297.9438 -0.09387207 280.3719
v 299.1028 -0.09387207 281.5308
v 297.9438 -0.09387207 281.5308
v 290.4106 -0.09387207 280.3719
v 289.8311 -0.09387207 280.3719
v 290.4106 -0.09387207 280.9513
v 289.8311 -0.09387207 280.9513
v 288.6722 -0.09387207 279.7924
v 288.0927 -0.09387207 279.7924
v 288.6722 -0.09387207 280.3719
v 288.0927 -0.09387207 280.3719
v 296.7849 -0.09387207 278.6334
v 295.6259 -0.09387207 278.6334
v 296.7849 -0.09387207 279.7924
v 295.6259 -0.09387207 279.7924
v 298.5233 -0.09387207 278.6334
v 297.9438 -0.09387207 278.6334
v 298.5233 -0.09387207 279.2129
v 297.9438 -0.09387207 279.2129
v 292.7285 -0.09387207 278.0539
v 292.149 -0.09387207 278.0539
v 292.7285 -0.09387207 278.6334
v 292.149 -0.09387207 278.6334
v 285.1954 -0.09387207 275.7361
v 284.6159 -0.09387207 275.7361
v 285.1954 -0.09387207 276.895
v 284.6159 -0.09387207 276.895
v 270.7085 -0.09387207 271.6797
v 270.129 -0.09387207 271.6797
v 270.7085 -0.09387207 272.2592
v 270.129 -0.09387207 272.2592
v 271.288 -0.09387207 269.9413
v 270.7085 -0.09387207 269.9413
v 271.288 -0.09387207 271.1003
v 270.7085 -0.09387207 271.1003
v 273.6059 -0.09387207 269.3618
v 273.0264 -0.09387207 269.3618
v 273.6059 -0.09387207 270.5208
v 273.0264 -0.09387207 270.5208
v 273.0264 -0.09387207 269.3618
v 272.4469 -0.09387207 269.3618
v 273.0264 -0.09387207 269.9413
v 272.4469 -0.09387207 269.9413
v 297.3643 -0.09387207 262.9876
v 296.2054 -0.09387207 262.9876
v 297.3643 -0.09387207 264.1466
v 296.2054 -0.09387207 264.1466
vt 0.06738281 0.9369141
vt 0.1331457 0.9369141
vt 0.06738281 0.9990234
vt 0.1331457 0.9990234
vt 0.06738281 0.9369141
vt 0.1331457 0.9369141
vt 0.06738281 0.9990234
vt 0.1331457 0.9990234
vt 0.06738281 0.9369141
vt 0.1331457 0.9369141
vt 0.06738281 0.9990234
vt 0.1331457 0.9990234
vt 0.06738281 0.9369141
vt 0.1331457 0.9369141
vt 0.06738281 0.9990234
vt 0.1331457 0.9990234
vt 0.06738281 0.9369141
vt 0.1331457 0.9369141
vt 0.06738281 0.9990234
vt 0.1331457 0.9990234
vt 0.06738281 0.9369141
vt 0.1331457 0.9369141
vt 0.06738281 0.9990234
vt 0.1331457 0.9990234
vt 0.06738281 0.9369141
vt 0.1331457 0.9369141
vt 0.06738281 0.9990234
vt 0.1331457 0.9990234
vt 0.06738281 0.9369141
vt 0.1331457 0.9369141
vt 0.06738281 0.9990234
vt 0.1331457 0.9990234
vt 0.06738281 0.9369141
vt 0.1331457 0.9369141
vt 0.06738281 0.9990234
vt 0.1331457 0.9990234
vt 0.06738281 0.9369141
vt 0.1331457 0.9369141
vt 0.06738281 0.9990234
vt 0.1331457 0.9990234
vt 0.06738281 0.9369141
vt 0.1331457 0.9369141
vt 0.06738281 0.9990234
vt 0.1331457 0.9990234
vt 0.06738281 0.9369141
vt 0.1331457 0.9369141
vt 0.06738281 0.9990234
vt 0.1331457 0.9990234
vt 0.06738281 0.9369141
vt 0.1331457 0.9369141
vt 0.06738281 0.9990234
vt 0.1331457 0.9990234
vt 0.06738281 0.9369141
vt 0.1331457 0.9369141
vt 0.06738281 0.9990234
vt 0.1331457 0.9990234
vt 0.06738281 0.9369141
vt 0.1331457 0.9369141
vt 0.06738281 0.9990234
vt 0.1331457 0.9990234
vt 0.06738281 0.9369141
vt 0.1331457 0.9369141
vt 0.06738281 0.9990234
vt 0.1331457 0.9990234
vt 0.06738281 0.9369141
vt 0.1331457 0.9369141
vt 0.06738281 0.9990234
vt 0.1331457 0.9990234
vt 0.06738281 0.9369141
vt 0.1331457 0.9369141
vt 0.06738281 0.9990234
vt 0.1331457 0.9990234
vn 0 1 0
vn 0 1 0
vn 0 1 0
vn 0 1 0
vn 0 1 0
vn 0 1 0
vn 0 1 0
vn 0 1 0
vn 0 1 0
vn 0 1 0
vn 0 1 0
vn 0 1 0
vn 0 1 0
vn 0 1 0
vn 0 1 0
vn 0 1 0
vn 0 1 0
vn 0 1 0
vn 0 1 0
vn 0 1 0
vn 0 1 0
vn 0 1 0
vn 0 1 0
vn 0 1 0
vn 0 1 0
vn 0 1 0
vn 0 1 0
vn 0 1 0
vn 0 1 0
vn 0 1 0
vn 0 1 0
vn 0 1 0
vn 0 1 0
vn 0 1 0
vn 0 1 0
vn 0 1 0
vn 0 1 0
vn 0 1 0
vn 0 1 0
vn 0 1 0
vn 0 1 0
vn 0 1 0
vn 0 1 0
vn 0 1 0
vn 0 1 0
vn 0 1 0
vn 0 1 0
vn 0 1 0
vn 0 1 0
vn 0 1 0
vn 0 1 0
vn 0 1 0
vn 0 1 0
vn 0 1 0
vn 0 1 0
vn 0 1 0
vn 0 1 0
vn 0 1 0
vn 0 1 0
vn 0 1 0
vn 0 1 0
vn 0 1 0
vn 0 1 0
vn 0 1 0
vn 0 1 0
vn 0 1 0
vn 0 1 0
vn 0 1 0
vn 0 1 0
vn 0 1 0
vn 0 1 0
vn 0 1 0
g Grass_1_Cluster200_0
f 2/2/2 3/3/3 1/1/1
f 2/2/2 4/4/4 3/3/3
f 6/6/6 7/7/7 5/5/5
f 6/6/6 8/8/8 7/7/7
f 10/10/10 11/11/11 9/9/9
f 10/10/10 12/12/12 11/11/11
f 14/14/14 15/15/15 13/13/13
f 14/14/14 16/16/16 15/15/15
f 18/18/18 19/19/19 17/17/17
f 18/18/18 20/20/20 19/19/19
f 22/22/22 23/23/23 21/21/21
f 22/22/22 24/24/24 23/23/23
f 26/26/26 27/27/27 25/25/25
f 26/26/26 28/28/28 27/27/27
f 30/30/30 31/31/31 29/29/29
f 30/30/30 32/32/32 31/31/31
f 34/34/34 35/35/35 33/33/33
f 34/34/34 36/36/36 35/35/35
f 38/38/38 39/39/39 37/37/37
f 38/38/38 40/40/40 39/39/39
f 42/42/42 43/43/43 41/41/41
f 42/42/42 44/44/44 43/43/43
f 46/46/46 47/47/47 45/45/45
f 46/46/46 48/48/48 47/47/47
f 50/50/50 51/51/51 49/49/49
f 50/50/50 52/52/52 51/51/51
f 54/54/54 55/55/55 53/53/53
f 54/54/54 56/56/56 55/55/55
f 58/58/58 59/59/59 57/57/57
f 58/58/58 60/60/60 59/59/59
f 62/62/62 63/63/63 61/61/61
f 62/62/62 64/64/64 63/63/63
f 66/66/66 67/67/67 65/65/65
f 66/66/66 68/68/68 67/67/67
f 70/70/70 71/71/71 69/69/69
f 70/70/70 72/72/72 71/71/71
