g Grass_0_Cluster13
v -91.42736 0.05820847 -11.20648
v -92.42867 0.05820847 -11.20648
v -91.42736 0.05820847 -9.954849
v -92.42867 0.05820847 -9.954849
v -89.67508 0.05820847 -22.22085
v -90.67638 0.05820847 -22.22085
v -89.67508 0.05820847 -20.96921
v -90.67638 0.05820847 -20.96921
v -93.42997 0.05820847 -22.7215
v -94.30611 0.05820847 -22.7215
v -93.42997 0.05820847 -21.46987
v -94.30611 0.05820847 -21.46987
v -90.92671 0.05820847 -23.47248
v -91.92802 0.05820847 -23.47248
v -90.92671 0.05820847 -22.22085
v -91.92802 0.05820847 -22.22085
v -89.54991 0.05820847 -28.60417
v -90.55122 0.05820847 -28.60417
v -89.54991 0.05820847 -27.35254
v -90.55122 0.05820847 -27.35254
v -90.55122 0.05820847 -32.10874
v -91.42736 0.05820847 -32.10874
v -90.55122 0.05820847 -30.85711
v -91.42736 0.05820847 -30.85711
v -90.80154 0.05820847 -33.73586
v -91.55253 0.05820847 -33.73586
v -90.80154 0.05820847 -32.60939
v -91.55253 0.05820847 -32.60939
vt 0 0.9058824
vt 0.06666667 0.9058824
vt 0 1
vt 0.06666667 1
vt 0 0.9058824
vt 0.06666667 0.9058824
vt 0 1
vt 0.06666667 1
vt 0 0.9058824
vt 0.06666667 0.9058824
vt 0 1
vt 0.06666667 1
vt 0 0.9058824
vt 0.06666667 0.9058824
vt 0 1
vt 0.06666667 1
vt 0 0.9058824
vt 0.06666667 0.9058824
vt 0 1
vt 0.06666667 1
vt 0 0.9058824
vt 0.06666667 0.9058824
vt 0 1
vt 0.06666667 1
vt 0 0.9058824
vt 0.06666667 0.9058824
vt 0 1
vt 0.06666667 1
vn 0 1 0
vn 0 1 0
vn 0 1 0
vn 0 1 0
vn 0 1 0
vn 0 1 0
vn 0 1 0
vn 0 1 0
vn 0 1 0
vn 0 1 0
vn 0 1 0
vn 0 1 0
vn 0 1 0
vn 0 1 0
vn 0 1 0
vn 0 1 0
vn 0 1 0
vn 0 1 0
vn 0 1 0
vn 0 1 0
vn 0 1 0
vn 0 1 0
vn 0 1 0
vn 0 1 0
vn 0 1 0
vn 0 1 0
vn 0 1 0
vn 0 1 0
g Grass_0_Cluster13_0
f 2/2/2 3/3/3 1/1/1
f 2/2/2 4/4/4 3/3/3
f 6/6/6 7/7/7 5/5/5
f 6/6/6 8/8/8 7/7/7
f 10/10/10 11/11/11 9/9/9
f 10/10/10 12/12/12 11/11/11
f 14/14/14 15/15/15 13/13/13
f 14/14/14 16/16/16 15/15/15
f 18/18/18 19/19/19 17/17/17
f 18/18/18 20/20/20 19/19/19
f 22/22/22 23/23/23 21/21/21
f 22/22/22 24/24/24 23/23/23
f 26/26/26 27/27/27 25/25/25
f 26/26/26 28/28/28 27/27/27
