g Grass_2_Cluster139
v -294.6193 0 172.2971
v -295.4909 0 172.2971
v -294.6193 0 173.4593
v -295.4909 0 173.4593
v -293.4571 0 171.4254
v -294.3287 0 171.4254
v -293.4571 0 172.5876
v -294.3287 0 172.5876
v -292.2949 0 171.4254
v -293.1665 0 171.4254
v -292.2949 0 172.5876
v -293.1665 0 172.5876
v -294.3287 0 170.5538
v -295.2004 0 170.5538
v -294.3287 0 171.716
v -295.2004 0 171.716
v -295.7815 0 170.5538
v -296.6532 0 170.5538
v -295.7815 0 171.716
v -296.6532 0 171.716
v -294.0382 0 169.6821
v -294.9099 0 169.6821
v -294.0382 0 170.8443
v -294.9099 0 170.8443
v -294.9099 0 169.101
v -295.7815 0 169.101
v -294.9099 0 170.2632
v -295.7815 0 170.2632
v -294.0382 0 168.2294
v -294.9099 0 168.2294
v -294.0382 0 169.3916
v -294.9099 0 169.3916
v -293.1665 0 167.6483
v -294.0382 0 167.6483
v -293.1665 0 168.5199
v -294.0382 0 168.5199
v -269.6319 0 167.3577
v -270.5035 0 167.3577
v -269.6319 0 168.5199
v -270.5035 0 168.5199
v -296.0721 0 166.1955
v -297.2343 0 166.1955
v -296.0721 0 167.0672
v -297.2343 0 167.0672
v -281.835 0 165.3238
v -282.7067 0 165.3238
v -281.835 0 166.4861
v -282.7067 0 166.4861
v -293.4571 0 165.0333
v -294.6193 0 165.0333
v -293.4571 0 166.1955
v -294.6193 0 166.1955
v -296.0721 0 163.5805
v -296.9437 0 163.5805
v -296.0721 0 164.4522
v -296.9437 0 164.4522
v -294.6193 0 162.1278
v -295.4909 0 162.1278
v -294.6193 0 163.29
v -295.4909 0 163.29
v -295.4909 0 161.2561
v -296.3626 0 161.2561
v -295.4909 0 162.4183
v -296.3626 0 162.4183
v -294.9099 0 160.3845
v -296.0721 0 160.3845
v -294.9099 0 161.5467
v -296.0721 0 161.5467
v -294.3287 0 160.3845
v -295.2004 0 160.3845
v -294.3287 0 161.2561
v -295.2004 0 161.2561
v -293.1665 0 159.2223
v -294.0382 0 159.2223
v -293.1665 0 160.3845
v -294.0382 0 160.3845
v -295.4909 0 158.9317
v -296.3626 0 158.9317
v -295.4909 0 160.0939
v -296.3626 0 160.0939
v -294.6193 0 158.3506
v -295.7815 0 158.3506
v -294.6193 0 159.5128
v -295.7815 0 159.5128
v -295.7815 0 158.3506
v -296.6532 0 158.3506
v -295.7815 0 159.5128
v -296.6532 0 159.5128
v -296.3626 0 158.3506
v -297.2343 0 158.3506
v -296.3626 0 159.5128
v -297.2343 0 159.5128
v -294.9099 0 157.479
v -295.7815 0 157.479
v -294.9099 0 158.6412
v -295.7815 0 158.6412
v -293.1665 0 157.479
v -294.0382 0 157.479
v -293.1665 0 158.3506
v -294.0382 0 158.3506
v -294.0382 0 156.6073
v -294.9099 0 156.6073
v -294.0382 0 157.7695
v -294.9099 0 157.7695
v -295.2004 0 156.6073
v -296.3626 0 156.6073
v -295.2004 0 157.479
v -296.3626 0 157.479
v -272.8279 0 155.1545
v -273.6996 0 155.1545
v -272.8279 0 156.3167
v -273.6996 0 156.3167
v -292.0043 0 154.864
v -293.1665 0 154.864
v -292.0043 0 156.0262
v -293.1665 0 156.0262
v -285.0311 0 154.864
v -285.9027 0 154.864
v -285.0311 0 156.0262
v -285.9027 0 156.0262
v -282.4161 0 154.2829
v -283.5783 0 154.2829
v -282.4161 0 155.1545
v -283.5783 0 155.1545
v -271.0846 0 149.053
v -271.9563 0 149.053
v -271.0846 0 150.2152
v -271.9563 0 150.2152
v -273.1185 0 149.053
v -273.9901 0 149.053
v -273.1185 0 150.2152
v -273.9901 0 150.2152
v -273.9901 0 148.4718
v -274.8618 0 148.4718
v -273.9901 0 149.6341
v -274.8618 0 149.6341
v -272.2468 0 147.8907
v -273.1185 0 147.8907
v -272.2468 0 149.053
v -273.1185 0 149.053
v -285.0311 0 147.3096
v -285.9027 0 147.3096
v -285.0311 0 148.1813
v -285.9027 0 148.1813
v -270.7941 0 146.7285
v -271.6657 0 146.7285
v -270.7941 0 147.8907
v -271.6657 0 147.8907
v -272.2468 0 146.438
v -273.1185 0 146.438
v -272.2468 0 147.6002
v -273.1185 0 147.6002
v -269.9224 0 145.8569
v -270.7941 0 145.8569
v -269.9224 0 147.0191
v -270.7941 0 147.0191
v -271.9563 0 145.8569
v -272.8279 0 145.8569
v -271.9563 0 147.0191
v -272.8279 0 147.0191
v -271.6657 0 145.2758
v -272.8279 0 145.2758
v -271.6657 0 146.438
v -272.8279 0 146.438
v -269.9224 0 145.2758
v -270.7941 0 145.2758
v -269.9224 0 146.1474
v -270.7941 0 146.1474
v -273.409 0 144.9852
v -274.2807 0 144.9852
v -273.409 0 146.1474
v -274.2807 0 146.1474
v -273.9901 0 144.6947
v -275.1523 0 144.6947
v -273.9901 0 145.8569
v -275.1523 0 145.8569
v -271.3752 0 144.4041
v -272.5374 0 144.4041
v -271.3752 0 145.5663
v -272.5374 0 145.5663
v -272.5374 0 144.4041
v -273.6996 0 144.4041
v -272.5374 0 145.5663
v -273.6996 0 145.5663
v -272.5374 0 144.1136
v -273.409 0 144.1136
v -272.5374 0 145.2758
v -273.409 0 145.2758
v -270.5035 0 143.5325
v -271.3752 0 143.5325
v -270.5035 0 144.6947
v -271.3752 0 144.6947
vt 0.1347656 0.9185662
vt 0.2060202 0.9185662
vt 0.1347656 1
vt 0.2060202 1
vt 0.1347656 0.9185662
vt 0.2060202 0.9185662
vt 0.1347656 1
vt 0.2060202 1
vt 0.1347656 0.9185662
vt 0.2060202 0.9185662
vt 0.1347656 1
vt 0.2060202 1
vt 0.1347656 0.9185662
vt 0.2060202 0.9185662
vt 0.1347656 1
vt 0.2060202 1
vt 0.1347656 0.9185662
vt 0.2060202 0.9185662
vt 0.1347656 1
vt 0.2060202 1
vt 0.1347656 0.9185662
vt 0.2060202 0.9185662
vt 0.1347656 1
vt 0.2060202 1
vt 0.1347656 0.9185662
vt 0.2060202 0.9185662
vt 0.1347656 1
vt 0.2060202 1
vt 0.1347656 0.9185662
vt 0.2060202 0.9185662
vt 0.1347656 1
vt 0.2060202 1
vt 0.1347656 0.9185662
vt 0.2060202 0.9185662
vt 0.1347656 1
vt 0.2060202 1
vt 0.1347656 0.9185662
vt 0.2060202 0.9185662
vt 0.1347656 1
vt 0.2060202 1
vt 0.1347656 0.9185662
vt 0.2060202 0.9185662
vt 0.1347656 1
vt 0.2060202 1
vt 0.1347656 0.9185662
vt 0.2060202 0.9185662
vt 0.1347656 1
vt 0.2060202 1
vt 0.1347656 0.9185662
vt 0.2060202 0.9185662
vt 0.1347656 1
vt 0.2060202 1
vt 0.1347656 0.9185662
vt 0.2060202 0.9185662
vt 0.1347656 1
vt 0.2060202 1
vt 0.1347656 0.9185662
vt 0.2060202 0.9185662
vt 0.1347656 1
vt 0.2060202 1
vt 0.1347656 0.9185662
vt 0.2060202 0.9185662
vt 0.1347656 1
vt 0.2060202 1
vt 0.1347656 0.9185662
vt 0.2060202 0.9185662
vt 0.1347656 1
vt 0.2060202 1
vt 0.1347656 0.9185662
vt 0.2060202 0.9185662
vt 0.1347656 1
vt 0.2060202 1
vt 0.1347656 0.9185662
vt 0.2060202 0.9185662
vt 0.1347656 1
vt 0.2060202 1
vt 0.1347656 0.9185662
vt 0.2060202 0.9185662
vt 0.1347656 1
vt 0.2060202 1
vt 0.1347656 0.9185662
vt 0.2060202 0.9185662
vt 0.1347656 1
vt 0.2060202 1
vt 0.1347656 0.9185662
vt 0.2060202 0.9185662
vt 0.1347656 1
vt 0.2060202 1
vt 0.1347656 0.9185662
vt 0.2060202 0.9185662
vt 0.1347656 1
vt 0.2060202 1
vt 0.1347656 0.9185662
vt 0.2060202 0.9185662
vt 0.1347656 1
vt 0.2060202 1
vt 0.1347656 0.9185662
vt 0.2060202 0.9185662
vt 0.1347656 1
vt 0.2060202 1
vt 0.1347656 0.9185662
vt 0.2060202 0.9185662
vt 0.1347656 1
vt 0.2060202 1
vt 0.1347656 0.9185662
vt 0.2060202 0.9185662
vt 0.1347656 1
vt 0.2060202 1
vt 0.1347656 0.9185662
vt 0.2060202 0.9185662
vt 0.1347656 1
vt 0.2060202 1
vt 0.1347656 0.9185662
vt 0.2060202 0.9185662
vt 0.1347656 1
vt 0.2060202 1
vt 0.1347656 0.9185662
vt 0.2060202 0.9185662
vt 0.1347656 1
vt 0.2060202 1
vt 0.1347656 0.9185662
vt 0.2060202 0.9185662
vt 0.1347656 1
vt 0.2060202 1
vt 0.1347656 0.9185662
vt 0.2060202 0.9185662
vt 0.1347656 1
vt 0.2060202 1
vt 0.1347656 0.9185662
vt 0.2060202 0.9185662
vt 0.1347656 1
vt 0.2060202 1
vt 0.1347656 0.9185662
vt 0.2060202 0.9185662
vt 0.1347656 1
vt 0.2060202 1
vt 0.1347656 0.9185662
vt 0.2060202 0.9185662
vt 0.1347656 1
vt 0.2060202 1
vt 0.1347656 0.9185662
vt 0.2060202 0.9185662
vt 0.1347656 1
vt 0.2060202 1
vt 0.1347656 0.9185662
vt 0.2060202 0.9185662
vt 0.1347656 1
vt 0.2060202 1
vt 0.1347656 0.9185662
vt 0.2060202 0.9185662
vt 0.1347656 1
vt 0.2060202 1
vt 0.1347656 0.9185662
vt 0.2060202 0.9185662
vt 0.1347656 1
vt 0.2060202 1
vt 0.1347656 0.9185662
vt 0.2060202 0.9185662
vt 0.1347656 1
vt 0.2060202 1
vt 0.1347656 0.9185662
vt 0.2060202 0.9185662
vt 0.1347656 1
vt 0.2060202 1
vt 0.1347656 0.9185662
vt 0.2060202 0.9185662
vt 0.1347656 1
vt 0.2060202 1
vt 0.1347656 0.9185662
vt 0.2060202 0.9185662
vt 0.1347656 1
vt 0.2060202 1
vt 0.1347656 0.9185662
vt 0.2060202 0.9185662
vt 0.1347656 1
vt 0.2060202 1
vt 0.1347656 0.9185662
vt 0.2060202 0.9185662
vt 0.1347656 1
vt 0.2060202 1
vt 0.1347656 0.9185662
vt 0.2060202 0.9185662
vt 0.1347656 1
vt 0.2060202 1
vt 0.1347656 0.9185662
vt 0.2060202 0.9185662
vt 0.1347656 1
vt 0.2060202 1
vt 0.1347656 0.9185662
vt 0.2060202 0.9185662
vt 0.1347656 1
vt 0.2060202 1
vn 0 1 0
vn 0 1 0
vn 0 1 0
vn 0 1 0
vn 0 1 0
vn 0 1 0
vn 0 1 0
vn 0 1 0
vn 0 1 0
vn 0 1 0
vn 0 1 0
vn 0 1 0
vn 0 1 0
vn 0 1 0
vn 0 1 0
vn 0 1 0
vn 0 1 0
vn 0 1 0
vn 0 1 0
vn 0 1 0
vn 0 1 0
vn 0 1 0
vn 0 1 0
vn 0 1 0
vn 0 1 0
vn 0 1 0
vn 0 1 0
vn 0 1 0
vn 0 1 0
vn 0 1 0
vn 0 1 0
vn 0 1 0
vn 0 1 0
vn 0 1 0
vn 0 1 0
vn 0 1 0
vn 0 1 0
vn 0 1 0
vn 0 1 0
vn 0 1 0
vn 0 1 0
vn 0 1 0
vn 0 1 0
vn 0 1 0
vn 0 1 0
vn 0 1 0
vn 0 1 0
vn 0 1 0
vn 0 1 0
vn 0 1 0
vn 0 1 0
vn 0 1 0
vn 0 1 0
vn 0 1 0
vn 0 1 0
vn 0 1 0
vn 0 1 0
vn 0 1 0
vn 0 1 0
vn 0 1 0
vn 0 1 0
vn 0 1 0
vn 0 1 0
vn 0 1 0
vn 0 1 0
vn 0 1 0
vn 0 1 0
vn 0 1 0
vn 0 1 0
vn 0 1 0
vn 0 1 0
vn 0 1 0
vn 0 1 0
vn 0 1 0
vn 0 1 0
vn 0 1 0
vn 0 1 0
vn 0 1 0
vn 0 1 0
vn 0 1 0
vn 0 1 0
vn 0 1 0
vn 0 1 0
vn 0 1 0
vn 0 1 0
vn 0 1 0
vn 0 1 0
vn 0 1 0
vn 0 1 0
vn 0 1 0
vn 0 1 0
vn 0 1 0
vn 0 1 0
vn 0 1 0
vn 0 1 0
vn 0 1 0
vn 0 1 0
vn 0 1 0
vn 0 1 0
vn 0 1 0
vn 0 1 0
vn 0 1 0
vn 0 1 0
vn 0 1 0
vn 0 1 0
vn 0 1 0
vn 0 1 0
vn 0 1 0
vn 0 1 0
vn 0 1 0
vn 0 1 0
vn 0 1 0
vn 0 1 0
vn 0 1 0
vn 0 1 0
vn 0 1 0
vn 0 1 0
vn 0 1 0
vn 0 1 0
vn 0 1 0
vn 0 1 0
vn 0 1 0
vn 0 1 0
vn 0 1 0
vn 0 1 0
vn 0 1 0
vn 0 1 0
vn 0 1 0
vn 0 1 0
vn 0 1 0
vn 0 1 0
vn 0 1 0
vn 0 1 0
vn 0 1 0
vn 0 1 0
vn 0 1 0
vn 0 1 0
vn 0 1 0
vn 0 1 0
vn 0 1 0
vn 0 1 0
vn 0 1 0
vn 0 1 0
vn 0 1 0
vn 0 1 0
vn 0 1 0
vn 0 1 0
vn 0 1 0
vn 0 1 0
vn 0 1 0
vn 0 1 0
vn 0 1 0
vn 0 1 0
vn 0 1 0
vn 0 1 0
vn 0 1 0
vn 0 1 0
vn 0 1 0
vn 0 1 0
vn 0 1 0
vn 0 1 0
vn 0 1 0
vn 0 1 0
vn 0 1 0
vn 0 1 0
vn 0 1 0
vn 0 1 0
vn 0 1 0
vn 0 1 0
vn 0 1 0
vn 0 1 0
vn 0 1 0
vn 0 1 0
vn 0 1 0
vn 0 1 0
vn 0 1 0
vn 0 1 0
vn 0 1 0
vn 0 1 0
vn 0 1 0
vn 0 1 0
vn 0 1 0
vn 0 1 0
vn 0 1 0
vn 0 1 0
vn 0 1 0
vn 0 1 0
vn 0 1 0
vn 0 1 0
vn 0 1 0
vn 0 1 0
vn 0 1 0
g Grass_2_Cluster139_0
f 2/2/2 3/3/3 1/1/1
f 2/2/2 4/4/4 3/3/3
f 6/6/6 7/7/7 5/5/5
f 6/6/6 8/8/8 7/7/7
f 10/10/10 11/11/11 9/9/9
f 10/10/10 12/12/12 11/11/11
f 14/14/14 15/15/15 13/13/13
f 14/14/14 16/16/16 15/15/15
f 18/18/18 19/19/19 17/17/17
f 18/18/18 20/20/20 19/19/19
f 22/22/22 23/23/23 21/21/21
f 22/22/22 24/24/24 23/23/23
f 26/26/26 27/27/27 25/25/25
f 26/26/26 28/28/28 27/27/27
f 30/30/30 31/31/31 29/29/29
f 30/30/30 32/32/32 31/31/31
f 34/34/34 35/35/35 33/33/33
f 34/34/34 36/36/36 35/35/35
f 38/38/38 39/39/39 37/37/37
f 38/38/38 40/40/40 39/39/39
f 42/42/42 43/43/43 41/41/41
f 42/42/42 44/44/44 43/43/43
f 46/46/46 47/47/47 45/45/45
f 46/46/46 48/48/48 47/47/47
f 50/50/50 51/51/51 49/49/49
f 50/50/50 52/52/52 51/51/51
f 54/54/54 55/55/55 53/53/53
f 54/54/54 56/56/56 55/55/55
f 58/58/58 59/59/59 57/57/57
f 58/58/58 60/60/60 59/59/59
f 62/62/62 63/63/63 61/61/61
f 62/62/62 64/64/64 63/63/63
f 66/66/66 67/67/67 65/65/65
f 66/66/66 68/68/68 67/67/67
f 70/70/70 71/71/71 69/69/69
f 70/70/70 72/72/72 71/71/71
f 74/74/74 75/75/75 73/73/73
f 74/74/74 76/76/76 75/75/75
f 78/78/78 79/79/79 77/77/77
f 78/78/78 80/80/80 79/79/79
f 82/82/82 83/83/83 81/81/81
f 82/82/82 84/84/84 83/83/83
f 86/86/86 87/87/87 85/85/85
f 86/86/86 88/88/88 87/87/87
f 90/90/90 91/91/91 89/89/89
f 90/90/90 92/92/92 91/91/91
f 94/94/94 95/95/95 93/93/93
f 94/94/94 96/96/96 95/95/95
f 98/98/98 99/99/99 97/97/97
f 98/98/98 100/100/100 99/99/99
f 102/102/102 103/103/103 101/101/101
f 102/102/102 104/104/104 103/103/103
f 106/106/106 107/107/107 105/105/105
f 106/106/106 108/108/108 107/107/107
f 110/110/110 111/111/111 109/109/109
f 110/110/110 112/112/112 111/111/111
f 114/114/114 115/115/115 113/113/113
f 114/114/114 116/116/116 115/115/115
f 118/118/118 119/119/119 117/117/117
f 118/118/118 120/120/120 119/119/119
f 122/122/122 123/123/123 121/121/121
f 122/122/122 124/124/124 123/123/123
f 126/126/126 127/127/127 125/125/125
f 126/126/126 128/128/128 127/127/127
f 130/130/130 131/131/131 129/129/129
f 130/130/130 132/132/132 131/131/131
f 134/134/134 135/135/135 133/133/133
f 134/134/134 136/136/136 135/135/135
f 138/138/138 139/139/139 137/137/137
f 138/138/138 140/140/140 139/139/139
f 142/142/142 143/143/143 141/141/141
f 142/142/142 144/144/144 143/143/143
f 146/146/146 147/147/147 145/145/145
f 146/146/146 148/148/148 147/147/147
f 150/150/150 151/151/151 149/149/149
f 150/150/150 152/152/152 151/151/151
f 154/154/154 155/155/155 153/153/153
f 154/154/154 156/156/156 155/155/155
f 158/158/158 159/159/159 157/157/157
f 158/158/158 160/160/160 159/159/159
f 162/162/162 163/163/163 161/161/161
f 162/162/162 164/164/164 163/163/163
f 166/166/166 167/167/167 165/165/165
f 166/166/166 168/168/168 167/167/167
f 170/170/170 171/171/171 169/169/169
f 170/170/170 172/172/172 171/171/171
f 174/174/174 175/175/175 173/173/173
f 174/174/174 176/176/176 175/175/175
f 178/178/178 179/179/179 177/177/177
f 178/178/178 180/180/180 179/179/179
f 182/182/182 183/183/183 181/181/181
f 182/182/182 184/184/184 183/183/183
f 186/186/186 187/187/187 185/185/185
f 186/186/186 188/188/188 187/187/187
f 190/190/190 191/191/191 189/189/189
f 190/190/190 192/192/192 191/191/191
