g Grass_0_Cluster147
v 64.72369 -0.05264282 198.2152
v 63.58911 -0.05264282 198.2152
v 64.72369 -0.05264282 199.6334
v 63.58911 -0.05264282 199.6334
v 64.44004 -0.05264282 197.0806
v 63.58911 -0.05264282 197.0806
v 64.44004 -0.05264282 198.4988
v 63.58911 -0.05264282 198.4988
v 67.27649 -0.05264282 195.6624
v 66.42556 -0.05264282 195.6624
v 67.27649 -0.05264282 196.797
v 66.42556 -0.05264282 196.797
v 64.1564 -0.05264282 195.3787
v 63.30547 -0.05264282 195.3787
v 64.1564 -0.05264282 196.797
v 63.30547 -0.05264282 196.797
v 84.57883 -0.05264282 194.8114
v 83.44425 -0.05264282 194.8114
v 84.57883 -0.05264282 196.2297
v 83.44425 -0.05264282 196.2297
v 67.56013 -0.05264282 194.8114
v 66.42556 -0.05264282 194.8114
v 67.56013 -0.05264282 195.946
v 66.42556 -0.05264282 195.946
v 66.42556 -0.05264282 194.5278
v 65.57462 -0.05264282 194.5278
v 66.42556 -0.05264282 195.6624
v 65.57462 -0.05264282 195.6624
v 90.53538 -0.05264282 194.2441
v 89.68444 -0.05264282 194.2441
v 90.53538 -0.05264282 195.6624
v 89.68444 -0.05264282 195.6624
v 83.7279 -0.05264282 193.9605
v 82.59332 -0.05264282 193.9605
v 83.7279 -0.05264282 195.0951
v 82.59332 -0.05264282 195.0951
v 84.86248 -0.05264282 193.6768
v 84.01154 -0.05264282 193.6768
v 84.86248 -0.05264282 194.8114
v 84.01154 -0.05264282 194.8114
v 87.41528 -0.05264282 193.3932
v 86.56435 -0.05264282 193.3932
v 87.41528 -0.05264282 194.5278
v 86.56435 -0.05264282 194.5278
v 67.84378 -0.05264282 193.1096
v 66.99284 -0.05264282 193.1096
v 67.84378 -0.05264282 194.5278
v 66.99284 -0.05264282 194.5278
v 65.57462 -0.05264282 193.3932
v 64.72369 -0.05264282 193.3932
v 65.57462 -0.05264282 194.5278
v 64.72369 -0.05264282 194.5278
v 89.40079 -0.05264282 193.1096
v 88.26622 -0.05264282 193.1096
v 89.40079 -0.05264282 194.5278
v 88.26622 -0.05264282 194.5278
v 64.72369 -0.05264282 192.8259
v 63.87275 -0.05264282 192.8259
v 64.72369 -0.05264282 194.2441
v 63.87275 -0.05264282 194.2441
v 88.26622 -0.05264282 192.2586
v 87.41528 -0.05264282 192.2586
v 88.26622 -0.05264282 193.6768
v 87.41528 -0.05264282 193.6768
v 66.7092 -0.05264282 192.2586
v 65.85827 -0.05264282 192.2586
v 66.7092 -0.05264282 193.6768
v 65.85827 -0.05264282 193.6768
v 89.68444 -0.05264282 192.5423
v 88.83351 -0.05264282 192.5423
v 89.68444 -0.05264282 193.6768
v 88.83351 -0.05264282 193.6768
v 63.87275 -0.05264282 192.5423
v 63.02182 -0.05264282 192.5423
v 63.87275 -0.05264282 193.6768
v 63.02182 -0.05264282 193.6768
v 87.98257 -0.05264282 192.2586
v 87.13164 -0.05264282 192.2586
v 87.98257 -0.05264282 193.3932
v 87.13164 -0.05264282 193.3932
v 84.29519 -0.05264282 191.4077
v 83.16061 -0.05264282 191.4077
v 84.29519 -0.05264282 192.5423
v 83.16061 -0.05264282 192.5423
v 87.69893 -0.05264282 191.4077
v 86.84799 -0.05264282 191.4077
v 87.69893 -0.05264282 192.5423
v 86.84799 -0.05264282 192.5423
v 88.83351 -0.05264282 190.8404
v 87.69893 -0.05264282 190.8404
v 88.83351 -0.05264282 192.2586
v 87.69893 -0.05264282 192.2586
v 90.25173 -0.05264282 190.2731
v 89.40079 -0.05264282 190.2731
v 90.25173 -0.05264282 191.4077
v 89.40079 -0.05264282 191.4077
v 75.21855 -0.05264282 185.1675
v 74.36761 -0.05264282 185.1675
v 75.21855 -0.05264282 186.5857
v 74.36761 -0.05264282 186.5857
v 65.29098 -0.05264282 179.4946
v 64.44004 -0.05264282 179.4946
v 65.29098 -0.05264282 180.6292
v 64.44004 -0.05264282 180.6292
v 83.16061 -0.05264282 178.6437
v 82.30968 -0.05264282 178.6437
v 83.16061 -0.05264282 179.7783
v 82.30968 -0.05264282 179.7783
v 64.1564 -0.05264282 176.3745
v 63.30547 -0.05264282 176.3745
v 64.1564 -0.05264282 177.5091
v 63.30547 -0.05264282 177.5091
v 74.36761 -0.05264282 176.0909
v 73.51668 -0.05264282 176.0909
v 74.36761 -0.05264282 177.2255
v 73.51668 -0.05264282 177.2255
v 64.72369 -0.05264282 175.8072
v 63.87275 -0.05264282 175.8072
v 64.72369 -0.05264282 176.9418
v 63.87275 -0.05264282 176.9418
v 75.78584 -0.05264282 175.5236
v 74.93491 -0.05264282 175.5236
v 75.78584 -0.05264282 176.6582
v 74.93491 -0.05264282 176.6582
v 73.51668 -0.05264282 174.6726
v 72.66575 -0.05264282 174.6726
v 73.51668 -0.05264282 175.8072
v 72.66575 -0.05264282 175.8072
v 67.84378 -0.05264282 174.6726
v 66.99284 -0.05264282 174.6726
v 67.84378 -0.05264282 175.8072
v 66.99284 -0.05264282 175.8072
v 64.44004 -0.05264282 174.389
v 63.58911 -0.05264282 174.389
v 64.44004 -0.05264282 175.8072
v 63.58911 -0.05264282 175.8072
v 72.09846 -0.05264282 174.389
v 71.24752 -0.05264282 174.389
v 72.09846 -0.05264282 175.5236
v 71.24752 -0.05264282 175.5236
v 69.54565 -0.05264282 174.1053
v 68.69472 -0.05264282 174.1053
v 69.54565 -0.05264282 175.5236
v 68.69472 -0.05264282 175.5236
v 62.73817 -0.05264282 173.8217
v 61.88724 -0.05264282 173.8217
v 62.73817 -0.05264282 175.2399
v 61.88724 -0.05264282 175.2399
v 64.1564 -0.05264282 173.8217
v 63.30547 -0.05264282 173.8217
v 64.1564 -0.05264282 175.2399
v 63.30547 -0.05264282 175.2399
v 67.27649 -0.05264282 173.5381
v 66.14191 -0.05264282 173.5381
v 67.27649 -0.05264282 174.9563
v 66.14191 -0.05264282 174.9563
v 67.27649 -0.05264282 173.2544
v 66.42556 -0.05264282 173.2544
v 67.27649 -0.05264282 174.6726
v 66.42556 -0.05264282 174.6726
v 65.85827 -0.05264282 173.5381
v 65.00733 -0.05264282 173.5381
v 65.85827 -0.05264282 174.6726
v 65.00733 -0.05264282 174.6726
vt 0 0.9058824
vt 0.06666667 0.9058824
vt 0 1
vt 0.06666667 1
vt 0 0.9058824
vt 0.06666667 0.9058824
vt 0 1
vt 0.06666667 1
vt 0 0.9058824
vt 0.06666667 0.9058824
vt 0 1
vt 0.06666667 1
vt 0 0.9058824
vt 0.06666667 0.9058824
vt 0 1
vt 0.06666667 1
vt 0 0.9058824
vt 0.06666667 0.9058824
vt 0 1
vt 0.06666667 1
vt 0 0.9058824
vt 0.06666667 0.9058824
vt 0 1
vt 0.06666667 1
vt 0 0.9058824
vt 0.06666667 0.9058824
vt 0 1
vt 0.06666667 1
vt 0 0.9058824
vt 0.06666667 0.9058824
vt 0 1
vt 0.06666667 1
vt 0 0.9058824
vt 0.06666667 0.9058824
vt 0 1
vt 0.06666667 1
vt 0 0.9058824
vt 0.06666667 0.9058824
vt 0 1
vt 0.06666667 1
vt 0 0.9058824
vt 0.06666667 0.9058824
vt 0 1
vt 0.06666667 1
vt 0 0.9058824
vt 0.06666667 0.9058824
vt 0 1
vt 0.06666667 1
vt 0 0.9058824
vt 0.06666667 0.9058824
vt 0 1
vt 0.06666667 1
vt 0 0.9058824
vt 0.06666667 0.9058824
vt 0 1
vt 0.06666667 1
vt 0 0.9058824
vt 0.06666667 0.9058824
vt 0 1
vt 0.06666667 1
vt 0 0.9058824
vt 0.06666667 0.9058824
vt 0 1
vt 0.06666667 1
vt 0 0.9058824
vt 0.06666667 0.9058824
vt 0 1
vt 0.06666667 1
vt 0 0.9058824
vt 0.06666667 0.9058824
vt 0 1
vt 0.06666667 1
vt 0 0.9058824
vt 0.06666667 0.9058824
vt 0 1
vt 0.06666667 1
vt 0 0.9058824
vt 0.06666667 0.9058824
vt 0 1
vt 0.06666667 1
vt 0 0.9058824
vt 0.06666667 0.9058824
vt 0 1
vt 0.06666667 1
vt 0 0.9058824
vt 0.06666667 0.9058824
vt 0 1
vt 0.06666667 1
vt 0 0.9058824
vt 0.06666667 0.9058824
vt 0 1
vt 0.06666667 1
vt 0 0.9058824
vt 0.06666667 0.9058824
vt 0 1
vt 0.06666667 1
vt 0 0.9058824
vt 0.06666667 0.9058824
vt 0 1
vt 0.06666667 1
vt 0 0.9058824
vt 0.06666667 0.9058824
vt 0 1
vt 0.06666667 1
vt 0 0.9058824
vt 0.06666667 0.9058824
vt 0 1
vt 0.06666667 1
vt 0 0.9058824
vt 0.06666667 0.9058824
vt 0 1
vt 0.06666667 1
vt 0 0.9058824
vt 0.06666667 0.9058824
vt 0 1
vt 0.06666667 1
vt 0 0.9058824
vt 0.06666667 0.9058824
vt 0 1
vt 0.06666667 1
vt 0 0.9058824
vt 0.06666667 0.9058824
vt 0 1
vt 0.06666667 1
vt 0 0.9058824
vt 0.06666667 0.9058824
vt 0 1
vt 0.06666667 1
vt 0 0.9058824
vt 0.06666667 0.9058824
vt 0 1
vt 0.06666667 1
vt 0 0.9058824
vt 0.06666667 0.9058824
vt 0 1
vt 0.06666667 1
vt 0 0.9058824
vt 0.06666667 0.9058824
vt 0 1
vt 0.06666667 1
vt 0 0.9058824
vt 0.06666667 0.9058824
vt 0 1
vt 0.06666667 1
vt 0 0.9058824
vt 0.06666667 0.9058824
vt 0 1
vt 0.06666667 1
vt 0 0.9058824
vt 0.06666667 0.9058824
vt 0 1
vt 0.06666667 1
vt 0 0.9058824
vt 0.06666667 0.9058824
vt 0 1
vt 0.06666667 1
vt 0 0.9058824
vt 0.06666667 0.9058824
vt 0 1
vt 0.06666667 1
vt 0 0.9058824
vt 0.06666667 0.9058824
vt 0 1
vt 0.06666667 1
vn 0 1 0
vn 0 1 0
vn 0 1 0
vn 0 1 0
vn 0 1 0
vn 0 1 0
vn 0 1 0
vn 0 1 0
vn 0 1 0
vn 0 1 0
vn 0 1 0
vn 0 1 0
vn 0 1 0
vn 0 1 0
vn 0 1 0
vn 0 1 0
vn 0 1 0
vn 0 1 0
vn 0 1 0
vn 0 1 0
vn 0 1 0
vn 0 1 0
vn 0 1 0
vn 0 1 0
vn 0 1 0
vn 0 1 0
vn 0 1 0
vn 0 1 0
vn 0 1 0
vn 0 1 0
vn 0 1 0
vn 0 1 0
vn 0 1 0
vn 0 1 0
vn 0 1 0
vn 0 1 0
vn 0 1 0
vn 0 1 0
vn 0 1 0
vn 0 1 0
vn 0 1 0
vn 0 1 0
vn 0 1 0
vn 0 1 0
vn 0 1 0
vn 0 1 0
vn 0 1 0
vn 0 1 0
vn 0 1 0
vn 0 1 0
vn 0 1 0
vn 0 1 0
vn 0 1 0
vn 0 1 0
vn 0 1 0
vn 0 1 0
vn 0 1 0
vn 0 1 0
vn 0 1 0
vn 0 1 0
vn 0 1 0
vn 0 1 0
vn 0 1 0
vn 0 1 0
vn 0 1 0
vn 0 1 0
vn 0 1 0
vn 0 1 0
vn 0 1 0
vn 0 1 0
vn 0 1 0
vn 0 1 0
vn 0 1 0
vn 0 1 0
vn 0 1 0
vn 0 1 0
vn 0 1 0
vn 0 1 0
vn 0 1 0
vn 0 1 0
vn 0 1 0
vn 0 1 0
vn 0 1 0
vn 0 1 0
vn 0 1 0
vn 0 1 0
vn 0 1 0
vn 0 1 0
vn 0 1 0
vn 0 1 0
vn 0 1 0
vn 0 1 0
vn 0 1 0
vn 0 1 0
vn 0 1 0
vn 0 1 0
vn 0 1 0
vn 0 1 0
vn 0 1 0
vn 0 1 0
vn 0 1 0
vn 0 1 0
vn 0 1 0
vn 0 1 0
vn 0 1 0
vn 0 1 0
vn 0 1 0
vn 0 1 0
vn 0 1 0
vn 0 1 0
vn 0 1 0
vn 0 1 0
vn 0 1 0
vn 0 1 0
vn 0 1 0
vn 0 1 0
vn 0 1 0
vn 0 1 0
vn 0 1 0
vn 0 1 0
vn 0 1 0
vn 0 1 0
vn 0 1 0
vn 0 1 0
vn 0 1 0
vn 0 1 0
vn 0 1 0
vn 0 1 0
vn 0 1 0
vn 0 1 0
vn 0 1 0
vn 0 1 0
vn 0 1 0
vn 0 1 0
vn 0 1 0
vn 0 1 0
vn 0 1 0
vn 0 1 0
vn 0 1 0
vn 0 1 0
vn 0 1 0
vn 0 1 0
vn 0 1 0
vn 0 1 0
vn 0 1 0
vn 0 1 0
vn 0 1 0
vn 0 1 0
vn 0 1 0
vn 0 1 0
vn 0 1 0
vn 0 1 0
vn 0 1 0
vn 0 1 0
vn 0 1 0
vn 0 1 0
vn 0 1 0
vn 0 1 0
vn 0 1 0
vn 0 1 0
vn 0 1 0
vn 0 1 0
vn 0 1 0
vn 0 1 0
g Grass_0_Cluster147_0
f 2/2/2 3/3/3 1/1/1
f 2/2/2 4/4/4 3/3/3
f 6/6/6 7/7/7 5/5/5
f 6/6/6 8/8/8 7/7/7
f 10/10/10 11/11/11 9/9/9
f 10/10/10 12/12/12 11/11/11
f 14/14/14 15/15/15 13/13/13
f 14/14/14 16/16/16 15/15/15
f 18/18/18 19/19/19 17/17/17
f 18/18/18 20/20/20 19/19/19
f 22/22/22 23/23/23 21/21/21
f 22/22/22 24/24/24 23/23/23
f 26/26/26 27/27/27 25/25/25
f 26/26/26 28/28/28 27/27/27
f 30/30/30 31/31/31 29/29/29
f 30/30/30 32/32/32 31/31/31
f 34/34/34 35/35/35 33/33/33
f 34/34/34 36/36/36 35/35/35
f 38/38/38 39/39/39 37/37/37
f 38/38/38 40/40/40 39/39/39
f 42/42/42 43/43/43 41/41/41
f 42/42/42 44/44/44 43/43/43
f 46/46/46 47/47/47 45/45/45
f 46/46/46 48/48/48 47/47/47
f 50/50/50 51/51/51 49/49/49
f 50/50/50 52/52/52 51/51/51
f 54/54/54 55/55/55 53/53/53
f 54/54/54 56/56/56 55/55/55
f 58/58/58 59/59/59 57/57/57
f 58/58/58 60/60/60 59/59/59
f 62/62/62 63/63/63 61/61/61
f 62/62/62 64/64/64 63/63/63
f 66/66/66 67/67/67 65/65/65
f 66/66/66 68/68/68 67/67/67
f 70/70/70 71/71/71 69/69/69
f 70/70/70 72/72/72 71/71/71
f 74/74/74 75/75/75 73/73/73
f 74/74/74 76/76/76 75/75/75
f 78/78/78 79/79/79 77/77/77
f 78/78/78 80/80/80 79/79/79
f 82/82/82 83/83/83 81/81/81
f 82/82/82 84/84/84 83/83/83
f 86/86/86 87/87/87 85/85/85
f 86/86/86 88/88/88 87/87/87
f 90/90/90 91/91/91 89/89/89
f 90/90/90 92/92/92 91/91/91
f 94/94/94 95/95/95 93/93/93
f 94/94/94 96/96/96 95/95/95
f 98/98/98 99/99/99 97/97/97
f 98/98/98 100/100/100 99/99/99
f 102/102/102 103/103/103 101/101/101
f 102/102/102 104/104/104 103/103/103
f 106/106/106 107/107/107 105/105/105
f 106/106/106 108/108/108 107/107/107
f 110/110/110 111/111/111 109/109/109
f 110/110/110 112/112/112 111/111/111
f 114/114/114 115/115/115 113/113/113
f 114/114/114 116/116/116 115/115/115
f 118/118/118 119/119/119 117/117/117
f 118/118/118 120/120/120 119/119/119
f 122/122/122 123/123/123 121/121/121
f 122/122/122 124/124/124 123/123/123
f 126/126/126 127/127/127 125/125/125
f 126/126/126 128/128/128 127/127/127
f 130/130/130 131/131/131 129/129/129
f 130/130/130 132/132/132 131/131/131
f 134/134/134 135/135/135 133/133/133
f 134/134/134 136/136/136 135/135/135
f 138/138/138 139/139/139 137/137/137
f 138/138/138 140/140/140 139/139/139
f 142/142/142 143/143/143 141/141/141
f 142/142/142 144/144/144 143/143/143
f 146/146/146 147/147/147 145/145/145
f 146/146/146 148/148/148 147/147/147
f 150/150/150 151/151/151 149/149/149
f 150/150/150 152/152/152 151/151/151
f 154/154/154 155/155/155 153/153/153
f 154/154/154 156/156/156 155/155/155
f 158/158/158 159/159/159 157/157/157
f 158/158/158 160/160/160 159/159/159
f 162/162/162 163/163/163 161/161/161
f 162/162/162 164/164/164 163/163/163
