g Grass_2_Cluster240
v 296.5569 -0.06381226 352.0217
v 295.9179 -0.06381226 352.0217
v 296.5569 -0.06381226 353.2997
v 295.9179 -0.06381226 353.2997
v 298.4739 -0.06381226 352.0217
v 297.8349 -0.06381226 352.0217
v 298.4739 -0.06381226 353.2997
v 297.8349 -0.06381226 353.2997
v 295.2789 -0.06381226 351.3828
v 294.6399 -0.06381226 351.3828
v 295.2789 -0.06381226 352.0217
v 294.6399 -0.06381226 352.0217
v 294.6399 -0.06381226 350.1047
v 294.0009 -0.06381226 350.1047
v 294.6399 -0.06381226 351.3828
v 294.0009 -0.06381226 351.3828
v 294.0009 -0.06381226 350.1047
v 293.3619 -0.06381226 350.1047
v 294.0009 -0.06381226 350.7437
v 293.3619 -0.06381226 350.7437
v 270.3582 -0.06381226 346.2708
v 269.7192 -0.06381226 346.2708
v 270.3582 -0.06381226 347.5488
v 269.7192 -0.06381226 347.5488
v 278.0261 -0.06381226 346.2708
v 277.3871 -0.06381226 346.2708
v 278.0261 -0.06381226 346.9098
v 277.3871 -0.06381226 346.9098
v 279.9431 -0.06381226 345.6318
v 279.3041 -0.06381226 345.6318
v 279.9431 -0.06381226 346.9098
v 279.3041 -0.06381226 346.9098
v 271.6361 -0.06381226 345.6318
v 270.3582 -0.06381226 345.6318
v 271.6361 -0.06381226 346.9098
v 270.3582 -0.06381226 346.9098
v 282.4991 -0.06381226 345.6318
v 281.86 -0.06381226 345.6318
v 282.4991 -0.06381226 346.2708
v 281.86 -0.06381226 346.2708
v 270.3582 -0.06381226 344.9928
v 269.7192 -0.06381226 344.9928
v 270.3582 -0.06381226 346.2708
v 269.7192 -0.06381226 346.2708
v 279.9431 -0.06381226 344.9928
v 278.6651 -0.06381226 344.9928
v 279.9431 -0.06381226 346.2708
v 278.6651 -0.06381226 346.2708
v 278.0261 -0.06381226 344.9928
v 276.7481 -0.06381226 344.9928
v 278.0261 -0.06381226 346.2708
v 276.7481 -0.06381226 346.2708
v 281.2211 -0.06381226 344.9928
v 279.9431 -0.06381226 344.9928
v 281.2211 -0.06381226 345.6318
v 279.9431 -0.06381226 345.6318
v 270.9972 -0.06381226 344.3538
v 269.7192 -0.06381226 344.3538
v 270.9972 -0.06381226 345.6318
v 269.7192 -0.06381226 345.6318
v 283.138 -0.06381226 344.3538
v 282.4991 -0.06381226 344.3538
v 283.138 -0.06381226 344.9928
v 282.4991 -0.06381226 344.9928
v 279.3041 -0.06381226 343.7148
v 278.6651 -0.06381226 343.7148
v 279.3041 -0.06381226 344.9928
v 278.6651 -0.06381226 344.9928
v 281.2211 -0.06381226 343.7148
v 280.5821 -0.06381226 343.7148
v 281.2211 -0.06381226 344.3538
v 280.5821 -0.06381226 344.3538
v 279.9431 -0.06381226 343.0758
v 279.3041 -0.06381226 343.0758
v 279.9431 -0.06381226 344.3538
v 279.3041 -0.06381226 344.3538
v 285.694 -0.06381226 343.0758
v 285.055 -0.06381226 343.0758
v 285.694 -0.06381226 343.7148
v 285.055 -0.06381226 343.7148
v 288.889 -0.06381226 337.9639
v 287.611 -0.06381226 337.9639
v 288.889 -0.06381226 338.6028
v 287.611 -0.06381226 338.6028
v 286.972 -0.06381226 337.3249
v 285.694 -0.06381226 337.3249
v 286.972 -0.06381226 338.6028
v 285.694 -0.06381226 338.6028
v 289.528 -0.06381226 337.3249
v 288.889 -0.06381226 337.3249
v 289.528 -0.06381226 337.9639
v 288.889 -0.06381226 337.9639
v 297.8349 -0.06381226 337.3249
v 296.5569 -0.06381226 337.3249
v 297.8349 -0.06381226 337.9639
v 296.5569 -0.06381226 337.9639
v 286.972 -0.06381226 336.6859
v 286.333 -0.06381226 336.6859
v 286.972 -0.06381226 337.9639
v 286.333 -0.06381226 337.9639
v 288.25 -0.06381226 336.6859
v 286.972 -0.06381226 336.6859
v 288.25 -0.06381226 337.3249
v 286.972 -0.06381226 337.3249
v 299.1129 -0.06381226 336.6859
v 298.4739 -0.06381226 336.6859
v 299.1129 -0.06381226 337.3249
v 298.4739 -0.06381226 337.3249
v 289.528 -0.06381226 336.0469
v 288.889 -0.06381226 336.0469
v 289.528 -0.06381226 337.3249
v 288.889 -0.06381226 337.3249
v 290.806 -0.06381226 336.0469
v 290.167 -0.06381226 336.0469
v 290.806 -0.06381226 337.3249
v 290.167 -0.06381226 337.3249
v 287.611 -0.06381226 335.4079
v 286.333 -0.06381226 335.4079
v 287.611 -0.06381226 336.6859
v 286.333 -0.06381226 336.6859
v 298.4739 -0.06381226 335.4079
v 297.8349 -0.06381226 335.4079
v 298.4739 -0.06381226 336.6859
v 297.8349 -0.06381226 336.6859
v 290.167 -0.06381226 335.4079
v 288.889 -0.06381226 335.4079
v 290.167 -0.06381226 336.6859
v 288.889 -0.06381226 336.6859
v 289.528 -0.06381226 334.7689
v 288.25 -0.06381226 334.7689
v 289.528 -0.06381226 336.0469
v 288.25 -0.06381226 336.0469
v 286.333 -0.06381226 334.7689
v 285.694 -0.06381226 334.7689
v 286.333 -0.06381226 336.0469
v 285.694 -0.06381226 336.0469
v 300.3909 -0.06381226 334.7689
v 299.1129 -0.06381226 334.7689
v 300.3909 -0.06381226 336.0469
v 299.1129 -0.06381226 336.0469
v 288.889 -0.06381226 334.1299
v 288.25 -0.06381226 334.1299
v 288.889 -0.06381226 335.4079
v 288.25 -0.06381226 335.4079
v 286.333 -0.06381226 334.1299
v 285.055 -0.06381226 334.1299
v 286.333 -0.06381226 335.4079
v 285.055 -0.06381226 335.4079
v 287.611 -0.06381226 334.1299
v 286.333 -0.06381226 334.1299
v 287.611 -0.06381226 334.7689
v 286.333 -0.06381226 334.7689
v 300.3909 -0.06381226 334.1299
v 299.1129 -0.06381226 334.1299
v 300.3909 -0.06381226 334.7689
v 299.1129 -0.06381226 334.7689
v 299.1129 -0.06381226 333.4909
v 297.8349 -0.06381226 333.4909
v 299.1129 -0.06381226 334.7689
v 297.8349 -0.06381226 334.7689
v 279.3041 -0.06381226 333.4909
v 278.6651 -0.06381226 333.4909
v 279.3041 -0.06381226 334.7689
v 278.6651 -0.06381226 334.7689
v 276.7481 -0.06381226 333.4909
v 275.4701 -0.06381226 333.4909
v 276.7481 -0.06381226 334.7689
v 275.4701 -0.06381226 334.7689
v 275.4701 -0.06381226 333.4909
v 274.1921 -0.06381226 333.4909
v 275.4701 -0.06381226 334.1299
v 274.1921 -0.06381226 334.1299
v 288.25 -0.06381226 333.4909
v 287.611 -0.06381226 333.4909
v 288.25 -0.06381226 334.1299
v 287.611 -0.06381226 334.1299
v 287.611 -0.06381226 332.8519
v 286.333 -0.06381226 332.8519
v 287.611 -0.06381226 334.1299
v 286.333 -0.06381226 334.1299
v 276.1091 -0.06381226 332.8519
v 275.4701 -0.06381226 332.8519
v 276.1091 -0.06381226 334.1299
v 275.4701 -0.06381226 334.1299
v 289.528 -0.06381226 332.8519
v 288.889 -0.06381226 332.8519
v 289.528 -0.06381226 333.4909
v 288.889 -0.06381226 333.4909
v 297.1959 -0.06381226 332.2129
v 296.5569 -0.06381226 332.2129
v 297.1959 -0.06381226 333.4909
v 296.5569 -0.06381226 333.4909
v 272.9141 -0.06381226 332.2129
v 272.2751 -0.06381226 332.2129
v 272.9141 -0.06381226 333.4909
v 272.2751 -0.06381226 333.4909
v 274.1921 -0.06381226 332.2129
v 272.9141 -0.06381226 332.2129
v 274.1921 -0.06381226 333.4909
v 272.9141 -0.06381226 333.4909
v 277.3871 -0.06381226 332.2129
v 276.1091 -0.06381226 332.2129
v 277.3871 -0.06381226 332.8519
v 276.1091 -0.06381226 332.8519
v 288.889 -0.06381226 332.2129
v 287.611 -0.06381226 332.2129
v 288.889 -0.06381226 332.8519
v 287.611 -0.06381226 332.8519
v 275.4701 -0.06381226 331.5739
v 274.8311 -0.06381226 331.5739
v 275.4701 -0.06381226 332.8519
v 274.8311 -0.06381226 332.8519
v 276.1091 -0.06381226 331.5739
v 274.8311 -0.06381226 331.5739
v 276.1091 -0.06381226 332.8519
v 274.8311 -0.06381226 332.8519
v 274.1921 -0.06381226 331.5739
v 272.9141 -0.06381226 331.5739
v 274.1921 -0.06381226 332.2129
v 272.9141 -0.06381226 332.2129
v 276.7481 -0.06381226 330.9349
v 275.4701 -0.06381226 330.9349
v 276.7481 -0.06381226 332.2129
v 275.4701 -0.06381226 332.2129
v 278.0261 -0.06381226 330.9349
v 277.3871 -0.06381226 330.9349
v 278.0261 -0.06381226 331.5739
v 277.3871 -0.06381226 331.5739
v 275.4701 -0.06381226 330.296
v 274.1921 -0.06381226 330.296
v 275.4701 -0.06381226 331.5739
v 274.1921 -0.06381226 331.5739
v 273.5531 -0.06381226 329.6569
v 272.2751 -0.06381226 329.6569
v 273.5531 -0.06381226 330.9349
v 272.2751 -0.06381226 330.9349
v 274.8311 -0.06381226 329.6569
v 274.1921 -0.06381226 329.6569
v 274.8311 -0.06381226 330.9349
v 274.1921 -0.06381226 330.9349
v 274.1921 -0.06381226 329.0179
v 273.5531 -0.06381226 329.0179
v 274.1921 -0.06381226 330.296
v 273.5531 -0.06381226 330.296
v 275.4701 -0.06381226 328.379
v 274.8311 -0.06381226 328.379
v 275.4701 -0.06381226 329.6569
v 274.8311 -0.06381226 329.6569
v 273.5531 -0.06381226 327.101
v 272.9141 -0.06381226 327.101
v 273.5531 -0.06381226 328.379
v 272.9141 -0.06381226 328.379
v 276.7481 -0.06381226 324.545
v 275.4701 -0.06381226 324.545
v 276.7481 -0.06381226 325.823
v 275.4701 -0.06381226 325.823
v 275.4701 -0.06381226 324.545
v 274.8311 -0.06381226 324.545
v 275.4701 -0.06381226 325.823
v 274.8311 -0.06381226 325.823
vt 0.1347656 0.9185662
vt 0.2060202 0.9185662
vt 0.1347656 1
vt 0.2060202 1
vt 0.1347656 0.9185662
vt 0.2060202 0.9185662
vt 0.1347656 1
vt 0.2060202 1
vt 0.1347656 0.9185662
vt 0.2060202 0.9185662
vt 0.1347656 1
vt 0.2060202 1
vt 0.1347656 0.9185662
vt 0.2060202 0.9185662
vt 0.1347656 1
vt 0.2060202 1
vt 0.1347656 0.9185662
vt 0.2060202 0.9185662
vt 0.1347656 1
vt 0.2060202 1
vt 0.1347656 0.9185662
vt 0.2060202 0.9185662
vt 0.1347656 1
vt 0.2060202 1
vt 0.1347656 0.9185662
vt 0.2060202 0.9185662
vt 0.1347656 1
vt 0.2060202 1
vt 0.1347656 0.9185662
vt 0.2060202 0.9185662
vt 0.1347656 1
vt 0.2060202 1
vt 0.1347656 0.9185662
vt 0.2060202 0.9185662
vt 0.1347656 1
vt 0.2060202 1
vt 0.1347656 0.9185662
vt 0.2060202 0.9185662
vt 0.1347656 1
vt 0.2060202 1
vt 0.1347656 0.9185662
vt 0.2060202 0.9185662
vt 0.1347656 1
vt 0.2060202 1
vt 0.1347656 0.9185662
vt 0.2060202 0.9185662
vt 0.1347656 1
vt 0.2060202 1
vt 0.1347656 0.9185662
vt 0.2060202 0.9185662
vt 0.1347656 1
vt 0.2060202 1
vt 0.1347656 0.9185662
vt 0.2060202 0.9185662
vt 0.1347656 1
vt 0.2060202 1
vt 0.1347656 0.9185662
vt 0.2060202 0.9185662
vt 0.1347656 1
vt 0.2060202 1
vt 0.1347656 0.9185662
vt 0.2060202 0.9185662
vt 0.1347656 1
vt 0.2060202 1
vt 0.1347656 0.9185662
vt 0.2060202 0.9185662
vt 0.1347656 1
vt 0.2060202 1
vt 0.1347656 0.9185662
vt 0.2060202 0.9185662
vt 0.1347656 1
vt 0.2060202 1
vt 0.1347656 0.9185662
vt 0.2060202 0.9185662
vt 0.1347656 1
vt 0.2060202 1
vt 0.1347656 0.9185662
vt 0.2060202 0.9185662
vt 0.1347656 1
vt 0.2060202 1
vt 0.1347656 0.9185662
vt 0.2060202 0.9185662
vt 0.1347656 1
vt 0.2060202 1
vt 0.1347656 0.9185662
vt 0.2060202 0.9185662
vt 0.1347656 1
vt 0.2060202 1
vt 0.1347656 0.9185662
vt 0.2060202 0.9185662
vt 0.1347656 1
vt 0.2060202 1
vt 0.1347656 0.9185662
vt 0.2060202 0.9185662
vt 0.1347656 1
vt 0.2060202 1
vt 0.1347656 0.9185662
vt 0.2060202 0.9185662
vt 0.1347656 1
vt 0.2060202 1
vt 0.1347656 0.9185662
vt 0.2060202 0.9185662
vt 0.1347656 1
vt 0.2060202 1
vt 0.1347656 0.9185662
vt 0.2060202 0.9185662
vt 0.1347656 1
vt 0.2060202 1
vt 0.1347656 0.9185662
vt 0.2060202 0.9185662
vt 0.1347656 1
vt 0.2060202 1
vt 0.1347656 0.9185662
vt 0.2060202 0.9185662
vt 0.1347656 1
vt 0.2060202 1
vt 0.1347656 0.9185662
vt 0.2060202 0.9185662
vt 0.1347656 1
vt 0.2060202 1
vt 0.1347656 0.9185662
vt 0.2060202 0.9185662
vt 0.1347656 1
vt 0.2060202 1
vt 0.1347656 0.9185662
vt 0.2060202 0.9185662
vt 0.1347656 1
vt 0.2060202 1
vt 0.1347656 0.9185662
vt 0.2060202 0.9185662
vt 0.1347656 1
vt 0.2060202 1
vt 0.1347656 0.9185662
vt 0.2060202 0.9185662
vt 0.1347656 1
vt 0.2060202 1
vt 0.1347656 0.9185662
vt 0.2060202 0.9185662
vt 0.1347656 1
vt 0.2060202 1
vt 0.1347656 0.9185662
vt 0.2060202 0.9185662
vt 0.1347656 1
vt 0.2060202 1
vt 0.1347656 0.9185662
vt 0.2060202 0.9185662
vt 0.1347656 1
vt 0.2060202 1
vt 0.1347656 0.9185662
vt 0.2060202 0.9185662
vt 0.1347656 1
vt 0.2060202 1
vt 0.1347656 0.9185662
vt 0.2060202 0.9185662
vt 0.1347656 1
vt 0.2060202 1
vt 0.1347656 0.9185662
vt 0.2060202 0.9185662
vt 0.1347656 1
vt 0.2060202 1
vt 0.1347656 0.9185662
vt 0.2060202 0.9185662
vt 0.1347656 1
vt 0.2060202 1
vt 0.1347656 0.9185662
vt 0.2060202 0.9185662
vt 0.1347656 1
vt 0.2060202 1
vt 0.1347656 0.9185662
vt 0.2060202 0.9185662
vt 0.1347656 1
vt 0.2060202 1
vt 0.1347656 0.9185662
vt 0.2060202 0.9185662
vt 0.1347656 1
vt 0.2060202 1
vt 0.1347656 0.9185662
vt 0.2060202 0.9185662
vt 0.1347656 1
vt 0.2060202 1
vt 0.1347656 0.9185662
vt 0.2060202 0.9185662
vt 0.1347656 1
vt 0.2060202 1
vt 0.1347656 0.9185662
vt 0.2060202 0.9185662
vt 0.1347656 1
vt 0.2060202 1
vt 0.1347656 0.9185662
vt 0.2060202 0.9185662
vt 0.1347656 1
vt 0.2060202 1
vt 0.1347656 0.9185662
vt 0.2060202 0.9185662
vt 0.1347656 1
vt 0.2060202 1
vt 0.1347656 0.9185662
vt 0.2060202 0.9185662
vt 0.1347656 1
vt 0.2060202 1
vt 0.1347656 0.9185662
vt 0.2060202 0.9185662
vt 0.1347656 1
vt 0.2060202 1
vt 0.1347656 0.9185662
vt 0.2060202 0.9185662
vt 0.1347656 1
vt 0.2060202 1
vt 0.1347656 0.9185662
vt 0.2060202 0.9185662
vt 0.1347656 1
vt 0.2060202 1
vt 0.1347656 0.9185662
vt 0.2060202 0.9185662
vt 0.1347656 1
vt 0.2060202 1
vt 0.1347656 0.9185662
vt 0.2060202 0.9185662
vt 0.1347656 1
vt 0.2060202 1
vt 0.1347656 0.9185662
vt 0.2060202 0.9185662
vt 0.1347656 1
vt 0.2060202 1
vt 0.1347656 0.9185662
vt 0.2060202 0.9185662
vt 0.1347656 1
vt 0.2060202 1
vt 0.1347656 0.9185662
vt 0.2060202 0.9185662
vt 0.1347656 1
vt 0.2060202 1
vt 0.1347656 0.9185662
vt 0.2060202 0.9185662
vt 0.1347656 1
vt 0.2060202 1
vt 0.1347656 0.9185662
vt 0.2060202 0.9185662
vt 0.1347656 1
vt 0.2060202 1
vt 0.1347656 0.9185662
vt 0.2060202 0.9185662
vt 0.1347656 1
vt 0.2060202 1
vt 0.1347656 0.9185662
vt 0.2060202 0.9185662
vt 0.1347656 1
vt 0.2060202 1
vt 0.1347656 0.9185662
vt 0.2060202 0.9185662
vt 0.1347656 1
vt 0.2060202 1
vt 0.1347656 0.9185662
vt 0.2060202 0.9185662
vt 0.1347656 1
vt 0.2060202 1
vt 0.1347656 0.9185662
vt 0.2060202 0.9185662
vt 0.1347656 1
vt 0.2060202 1
vn 0 1 0
vn 0 1 0
vn 0 1 0
vn 0 1 0
vn 0 1 0
vn 0 1 0
vn 0 1 0
vn 0 1 0
vn 0 1 0
vn 0 1 0
vn 0 1 0
vn 0 1 0
vn 0 1 0
vn 0 1 0
vn 0 1 0
vn 0 1 0
vn 0 1 0
vn 0 1 0
vn 0 1 0
vn 0 1 0
vn 0 1 0
vn 0 1 0
vn 0 1 0
vn 0 1 0
vn 0 1 0
vn 0 1 0
vn 0 1 0
vn 0 1 0
vn 0 1 0
vn 0 1 0
vn 0 1 0
vn 0 1 0
vn 0 1 0
vn 0 1 0
vn 0 1 0
vn 0 1 0
vn 0 1 0
vn 0 1 0
vn 0 1 0
vn 0 1 0
vn 0 1 0
vn 0 1 0
vn 0 1 0
vn 0 1 0
vn 0 1 0
vn 0 1 0
vn 0 1 0
vn 0 1 0
vn 0 1 0
vn 0 1 0
vn 0 1 0
vn 0 1 0
vn 0 1 0
vn 0 1 0
vn 0 1 0
vn 0 1 0
vn 0 1 0
vn 0 1 0
vn 0 1 0
vn 0 1 0
vn 0 1 0
vn 0 1 0
vn 0 1 0
vn 0 1 0
vn 0 1 0
vn 0 1 0
vn 0 1 0
vn 0 1 0
vn 0 1 0
vn 0 1 0
vn 0 1 0
vn 0 1 0
vn 0 1 0
vn 0 1 0
vn 0 1 0
vn 0 1 0
vn 0 1 0
vn 0 1 0
vn 0 1 0
vn 0 1 0
vn 0 1 0
vn 0 1 0
vn 0 1 0
vn 0 1 0
vn 0 1 0
vn 0 1 0
vn 0 1 0
vn 0 1 0
vn 0 1 0
vn 0 1 0
vn 0 1 0
vn 0 1 0
vn 0 1 0
vn 0 1 0
vn 0 1 0
vn 0 1 0
vn 0 1 0
vn 0 1 0
vn 0 1 0
vn 0 1 0
vn 0 1 0
vn 0 1 0
vn 0 1 0
vn 0 1 0
vn 0 1 0
vn 0 1 0
vn 0 1 0
vn 0 1 0
vn 0 1 0
vn 0 1 0
vn 0 1 0
vn 0 1 0
vn 0 1 0
vn 0 1 0
vn 0 1 0
vn 0 1 0
vn 0 1 0
vn 0 1 0
vn 0 1 0
vn 0 1 0
vn 0 1 0
vn 0 1 0
vn 0 1 0
vn 0 1 0
vn 0 1 0
vn 0 1 0
vn 0 1 0
vn 0 1 0
vn 0 1 0
vn 0 1 0
vn 0 1 0
vn 0 1 0
vn 0 1 0
vn 0 1 0
vn 0 1 0
vn 0 1 0
vn 0 1 0
vn 0 1 0
vn 0 1 0
vn 0 1 0
vn 0 1 0
vn 0 1 0
vn 0 1 0
vn 0 1 0
vn 0 1 0
vn 0 1 0
vn 0 1 0
vn 0 1 0
vn 0 1 0
vn 0 1 0
vn 0 1 0
vn 0 1 0
vn 0 1 0
vn 0 1 0
vn 0 1 0
vn 0 1 0
vn 0 1 0
vn 0 1 0
vn 0 1 0
vn 0 1 0
vn 0 1 0
vn 0 1 0
vn 0 1 0
vn 0 1 0
vn 0 1 0
vn 0 1 0
vn 0 1 0
vn 0 1 0
vn 0 1 0
vn 0 1 0
vn 0 1 0
vn 0 1 0
vn 0 1 0
vn 0 1 0
vn 0 1 0
vn 0 1 0
vn 0 1 0
vn 0 1 0
vn 0 1 0
vn 0 1 0
vn 0 1 0
vn 0 1 0
vn 0 1 0
vn 0 1 0
vn 0 1 0
vn 0 1 0
vn 0 1 0
vn 0 1 0
vn 0 1 0
vn 0 1 0
vn 0 1 0
vn 0 1 0
vn 0 1 0
vn 0 1 0
vn 0 1 0
vn 0 1 0
vn 0 1 0
vn 0 1 0
vn 0 1 0
vn 0 1 0
vn 0 1 0
vn 0 1 0
vn 0 1 0
vn 0 1 0
vn 0 1 0
vn 0 1 0
vn 0 1 0
vn 0 1 0
vn 0 1 0
vn 0 1 0
vn 0 1 0
vn 0 1 0
vn 0 1 0
vn 0 1 0
vn 0 1 0
vn 0 1 0
vn 0 1 0
vn 0 1 0
vn 0 1 0
vn 0 1 0
vn 0 1 0
vn 0 1 0
vn 0 1 0
vn 0 1 0
vn 0 1 0
vn 0 1 0
vn 0 1 0
vn 0 1 0
vn 0 1 0
vn 0 1 0
vn 0 1 0
vn 0 1 0
vn 0 1 0
vn 0 1 0
vn 0 1 0
vn 0 1 0
vn 0 1 0
vn 0 1 0
vn 0 1 0
vn 0 1 0
vn 0 1 0
vn 0 1 0
vn 0 1 0
vn 0 1 0
vn 0 1 0
vn 0 1 0
vn 0 1 0
vn 0 1 0
vn 0 1 0
vn 0 1 0
vn 0 1 0
vn 0 1 0
vn 0 1 0
vn 0 1 0
vn 0 1 0
vn 0 1 0
vn 0 1 0
vn 0 1 0
vn 0 1 0
vn 0 1 0
g Grass_2_Cluster240_0
f 2/2/2 3/3/3 1/1/1
f 2/2/2 4/4/4 3/3/3
f 6/6/6 7/7/7 5/5/5
f 6/6/6 8/8/8 7/7/7
f 10/10/10 11/11/11 9/9/9
f 10/10/10 12/12/12 11/11/11
f 14/14/14 15/15/15 13/13/13
f 14/14/14 16/16/16 15/15/15
f 18/18/18 19/19/19 17/17/17
f 18/18/18 20/20/20 19/19/19
f 22/22/22 23/23/23 21/21/21
f 22/22/22 24/24/24 23/23/23
f 26/26/26 27/27/27 25/25/25
f 26/26/26 28/28/28 27/27/27
f 30/30/30 31/31/31 29/29/29
f 30/30/30 32/32/32 31/31/31
f 34/34/34 35/35/35 33/33/33
f 34/34/34 36/36/36 35/35/35
f 38/38/38 39/39/39 37/37/37
f 38/38/38 40/40/40 39/39/39
f 42/42/42 43/43/43 41/41/41
f 42/42/42 44/44/44 43/43/43
f 46/46/46 47/47/47 45/45/45
f 46/46/46 48/48/48 47/47/47
f 50/50/50 51/51/51 49/49/49
f 50/50/50 52/52/52 51/51/51
f 54/54/54 55/55/55 53/53/53
f 54/54/54 56/56/56 55/55/55
f 58/58/58 59/59/59 57/57/57
f 58/58/58 60/60/60 59/59/59
f 62/62/62 63/63/63 61/61/61
f 62/62/62 64/64/64 63/63/63
f 66/66/66 67/67/67 65/65/65
f 66/66/66 68/68/68 67/67/67
f 70/70/70 71/71/71 69/69/69
f 70/70/70 72/72/72 71/71/71
f 74/74/74 75/75/75 73/73/73
f 74/74/74 76/76/76 75/75/75
f 78/78/78 79/79/79 77/77/77
f 78/78/78 80/80/80 79/79/79
f 82/82/82 83/83/83 81/81/81
f 82/82/82 84/84/84 83/83/83
f 86/86/86 87/87/87 85/85/85
f 86/86/86 88/88/88 87/87/87
f 90/90/90 91/91/91 89/89/89
f 90/90/90 92/92/92 91/91/91
f 94/94/94 95/95/95 93/93/93
f 94/94/94 96/96/96 95/95/95
f 98/98/98 99/99/99 97/97/97
f 98/98/98 100/100/100 99/99/99
f 102/102/102 103/103/103 101/101/101
f 102/102/102 104/104/104 103/103/103
f 106/106/106 107/107/107 105/105/105
f 106/106/106 108/108/108 107/107/107
f 110/110/110 111/111/111 109/109/109
f 110/110/110 112/112/112 111/111/111
f 114/114/114 115/115/115 113/113/113
f 114/114/114 116/116/116 115/115/115
f 118/118/118 119/119/119 117/117/117
f 118/118/118 120/120/120 119/119/119
f 122/122/122 123/123/123 121/121/121
f 122/122/122 124/124/124 123/123/123
f 126/126/126 127/127/127 125/125/125
f 126/126/126 128/128/128 127/127/127
f 130/130/130 131/131/131 129/129/129
f 130/130/130 132/132/132 131/131/131
f 134/134/134 135/135/135 133/133/133
f 134/134/134 136/136/136 135/135/135
f 138/138/138 139/139/139 137/137/137
f 138/138/138 140/140/140 139/139/139
f 142/142/142 143/143/143 141/141/141
f 142/142/142 144/144/144 143/143/143
f 146/146/146 147/147/147 145/145/145
f 146/146/146 148/148/148 147/147/147
f 150/150/150 151/151/151 149/149/149
f 150/150/150 152/152/152 151/151/151
f 154/154/154 155/155/155 153/153/153
f 154/154/154 156/156/156 155/155/155
f 158/158/158 159/159/159 157/157/157
f 158/158/158 160/160/160 159/159/159
f 162/162/162 163/163/163 161/161/161
f 162/162/162 164/164/164 163/163/163
f 166/166/166 167/167/167 165/165/165
f 166/166/166 168/168/168 167/167/167
f 170/170/170 171/171/171 169/169/169
f 170/170/170 172/172/172 171/171/171
f 174/174/174 175/175/175 173/173/173
f 174/174/174 176/176/176 175/175/175
f 178/178/178 179/179/179 177/177/177
f 178/178/178 180/180/180 179/179/179
f 182/182/182 183/183/183 181/181/181
f 182/182/182 184/184/184 183/183/183
f 186/186/186 187/187/187 185/185/185
f 186/186/186 188/188/188 187/187/187
f 190/190/190 191/191/191 189/189/189
f 190/190/190 192/192/192 191/191/191
f 194/194/194 195/195/195 193/193/193
f 194/194/194 196/196/196 195/195/195
f 198/198/198 199/199/199 197/197/197
f 198/198/198 200/200/200 199/199/199
f 202/202/202 203/203/203 201/201/201
f 202/202/202 204/204/204 203/203/203
f 206/206/206 207/207/207 205/205/205
f 206/206/206 208/208/208 207/207/207
f 210/210/210 211/211/211 209/209/209
f 210/210/210 212/212/212 211/211/211
f 214/214/214 215/215/215 213/213/213
f 214/214/214 216/216/216 215/215/215
f 218/218/218 219/219/219 217/217/217
f 218/218/218 220/220/220 219/219/219
f 222/222/222 223/223/223 221/221/221
f 222/222/222 224/224/224 223/223/223
f 226/226/226 227/227/227 225/225/225
f 226/226/226 228/228/228 227/227/227
f 230/230/230 231/231/231 229/229/229
f 230/230/230 232/232/232 231/231/231
f 234/234/234 235/235/235 233/233/233
f 234/234/234 236/236/236 235/235/235
f 238/238/238 239/239/239 237/237/237
f 238/238/238 240/240/240 239/239/239
f 242/242/242 243/243/243 241/241/241
f 242/242/242 244/244/244 243/243/243
f 246/246/246 247/247/247 245/245/245
f 246/246/246 248/248/248 247/247/247
f 250/250/250 251/251/251 249/249/249
f 250/250/250 252/252/252 251/251/251
f 254/254/254 255/255/255 253/253/253
f 254/254/254 256/256/256 255/255/255
f 258/258/258 259/259/259 257/257/257
f 258/258/258 260/260/260 259/259/259
