g Grass_0_Cluster178
v -256.6015 0 231.5221
v -257.3935 0 231.5221
v -256.6015 0 232.5781
v -257.3935 0 232.5781
v -263.7293 0 229.9382
v -264.5213 0 229.9382
v -263.7293 0 231.2581
v -264.5213 0 231.2581
v -245.2498 0 227.5622
v -246.0417 0 227.5622
v -245.2498 0 228.8822
v -246.0417 0 228.8822
v -269.2732 0 227.5622
v -270.0651 0 227.5622
v -269.2732 0 228.6182
v -270.0651 0 228.6182
v -258.7134 0 227.2982
v -259.5054 0 227.2982
v -258.7134 0 228.3542
v -259.5054 0 228.3542
v -260.0334 0 227.0342
v -260.8254 0 227.0342
v -260.0334 0 228.0902
v -260.8254 0 228.0902
v -261.8813 0 225.9783
v -262.9373 0 225.9783
v -261.8813 0 227.2982
v -262.9373 0 227.2982
v -262.9373 0 225.7143
v -263.7293 0 225.7143
v -262.9373 0 227.0342
v -263.7293 0 227.0342
v -259.2414 0 225.4503
v -260.0334 0 225.4503
v -259.2414 0 226.5062
v -260.0334 0 226.5062
v -265.5772 0 224.9223
v -266.6332 0 224.9223
v -265.5772 0 226.2422
v -266.6332 0 226.2422
v -263.2013 0 224.9223
v -263.9933 0 224.9223
v -263.2013 0 225.9783
v -263.9933 0 225.9783
v -264.2573 0 224.3943
v -265.0493 0 224.3943
v -264.2573 0 225.4503
v -265.0493 0 225.4503
v -260.2974 0 224.1303
v -261.0894 0 224.1303
v -260.2974 0 225.4503
v -261.0894 0 225.4503
v -265.3133 0 224.1303
v -266.3692 0 224.1303
v -265.3133 0 225.4503
v -266.3692 0 225.4503
v -267.9532 0 223.8663
v -268.7452 0 223.8663
v -267.9532 0 224.9223
v -268.7452 0 224.9223
v -264.7853 0 223.3383
v -265.5772 0 223.3383
v -264.7853 0 224.3943
v -265.5772 0 224.3943
v -264.2573 0 223.0743
v -265.0493 0 223.0743
v -264.2573 0 224.3943
v -265.0493 0 224.3943
v -266.3692 0 222.8103
v -267.1612 0 222.8103
v -266.3692 0 224.1303
v -267.1612 0 224.1303
v -269.0092 0 223.0743
v -270.0651 0 223.0743
v -269.0092 0 224.1303
v -270.0651 0 224.1303
v -263.7293 0 222.2823
v -264.5213 0 222.2823
v -263.7293 0 223.6023
v -264.5213 0 223.6023
v -264.5213 0 222.0184
v -265.3133 0 222.0184
v -264.5213 0 223.3383
v -265.3133 0 223.3383
v -266.1052 0 221.7544
v -267.1612 0 221.7544
v -266.1052 0 223.0743
v -267.1612 0 223.0743
v -262.9373 0 221.4904
v -263.7293 0 221.4904
v -262.9373 0 222.8103
v -263.7293 0 222.8103
v -265.8412 0 220.9624
v -266.8972 0 220.9624
v -265.8412 0 222.2823
v -266.8972 0 222.2823
v -241.8179 0 220.1704
v -242.6098 0 220.1704
v -241.8179 0 221.4904
v -242.6098 0 221.4904
v -240.4979 0 219.9064
v -241.2899 0 219.9064
v -240.4979 0 221.2264
v -241.2899 0 221.2264
v -266.6332 0 218.8504
v -267.4252 0 218.8504
v -266.6332 0 220.1704
v -267.4252 0 220.1704
v -244.4578 0 217.7945
v -245.2498 0 217.7945
v -244.4578 0 218.8504
v -245.2498 0 218.8504
v -241.5539 0 215.6825
v -242.6098 0 215.6825
v -241.5539 0 217.0025
v -242.6098 0 217.0025
v -240.4979 0 214.6265
v -241.2899 0 214.6265
v -240.4979 0 215.9465
v -241.2899 0 215.9465
v -243.9298 0 214.3625
v -244.7218 0 214.3625
v -243.9298 0 215.4185
v -244.7218 0 215.4185
v -243.1378 0 214.0986
v -243.9298 0 214.0986
v -243.1378 0 215.4185
v -243.9298 0 215.4185
v -241.5539 0 214.0986
v -242.3458 0 214.0986
v -241.5539 0 215.4185
v -242.3458 0 215.4185
v -268.7452 0 214.0986
v -269.8011 0 214.0986
v -268.7452 0 215.1545
v -269.8011 0 215.1545
v -239.9699 0 213.8346
v -240.7619 0 213.8346
v -239.9699 0 214.8905
v -240.7619 0 214.8905
v -241.5539 0 213.3066
v -242.3458 0 213.3066
v -241.5539 0 214.3625
v -242.3458 0 214.3625
v -239.7059 0 212.7786
v -240.4979 0 212.7786
v -239.7059 0 214.0986
v -240.4979 0 214.0986
v -239.9699 0 212.2506
v -241.0259 0 212.2506
v -239.9699 0 213.5706
v -241.0259 0 213.5706
v -266.1052 0 212.2506
v -266.8972 0 212.2506
v -266.1052 0 213.5706
v -266.8972 0 213.5706
v -265.3133 0 211.9866
v -266.1052 0 211.9866
v -265.3133 0 213.0426
v -266.1052 0 213.0426
v -240.7619 0 211.7226
v -241.5539 0 211.7226
v -240.7619 0 212.7786
v -241.5539 0 212.7786
v -242.8738 0 210.9306
v -243.6658 0 210.9306
v -242.8738 0 212.2506
v -243.6658 0 212.2506
v -241.8179 0 210.4026
v -242.8738 0 210.4026
v -241.8179 0 211.7226
v -242.8738 0 211.7226
v -251.3216 0 209.8747
v -252.1136 0 209.8747
v -251.3216 0 210.9306
v -252.1136 0 210.9306
v -249.4737 0 204.3308
v -250.2656 0 204.3308
v -249.4737 0 205.6508
v -250.2656 0 205.6508
v -246.3057 0 203.5388
v -247.0977 0 203.5388
v -246.3057 0 204.8588
v -247.0977 0 204.8588
vt 0 0.9058824
vt 0.06666667 0.9058824
vt 0 1
vt 0.06666667 1
vt 0 0.9058824
vt 0.06666667 0.9058824
vt 0 1
vt 0.06666667 1
vt 0 0.9058824
vt 0.06666667 0.9058824
vt 0 1
vt 0.06666667 1
vt 0 0.9058824
vt 0.06666667 0.9058824
vt 0 1
vt 0.06666667 1
vt 0 0.9058824
vt 0.06666667 0.9058824
vt 0 1
vt 0.06666667 1
vt 0 0.9058824
vt 0.06666667 0.9058824
vt 0 1
vt 0.06666667 1
vt 0 0.9058824
vt 0.06666667 0.9058824
vt 0 1
vt 0.06666667 1
vt 0 0.9058824
vt 0.06666667 0.9058824
vt 0 1
vt 0.06666667 1
vt 0 0.9058824
vt 0.06666667 0.9058824
vt 0 1
vt 0.06666667 1
vt 0 0.9058824
vt 0.06666667 0.9058824
vt 0 1
vt 0.06666667 1
vt 0 0.9058824
vt 0.06666667 0.9058824
vt 0 1
vt 0.06666667 1
vt 0 0.9058824
vt 0.06666667 0.9058824
vt 0 1
vt 0.06666667 1
vt 0 0.9058824
vt 0.06666667 0.9058824
vt 0 1
vt 0.06666667 1
vt 0 0.9058824
vt 0.06666667 0.9058824
vt 0 1
vt 0.06666667 1
vt 0 0.9058824
vt 0.06666667 0.9058824
vt 0 1
vt 0.06666667 1
vt 0 0.9058824
vt 0.06666667 0.9058824
vt 0 1
vt 0.06666667 1
vt 0 0.9058824
vt 0.06666667 0.9058824
vt 0 1
vt 0.06666667 1
vt 0 0.9058824
vt 0.06666667 0.9058824
vt 0 1
vt 0.06666667 1
vt 0 0.9058824
vt 0.06666667 0.9058824
vt 0 1
vt 0.06666667 1
vt 0 0.9058824
vt 0.06666667 0.9058824
vt 0 1
vt 0.06666667 1
vt 0 0.9058824
vt 0.06666667 0.9058824
vt 0 1
vt 0.06666667 1
vt 0 0.9058824
vt 0.06666667 0.9058824
vt 0 1
vt 0.06666667 1
vt 0 0.9058824
vt 0.06666667 0.9058824
vt 0 1
vt 0.06666667 1
vt 0 0.9058824
vt 0.06666667 0.9058824
vt 0 1
vt 0.06666667 1
vt 0 0.9058824
vt 0.06666667 0.9058824
vt 0 1
vt 0.06666667 1
vt 0 0.9058824
vt 0.06666667 0.9058824
vt 0 1
vt 0.06666667 1
vt 0 0.9058824
vt 0.06666667 0.9058824
vt 0 1
vt 0.06666667 1
vt 0 0.9058824
vt 0.06666667 0.9058824
vt 0 1
vt 0.06666667 1
vt 0 0.9058824
vt 0.06666667 0.9058824
vt 0 1
vt 0.06666667 1
vt 0 0.9058824
vt 0.06666667 0.9058824
vt 0 1
vt 0.06666667 1
vt 0 0.9058824
vt 0.06666667 0.9058824
vt 0 1
vt 0.06666667 1
vt 0 0.9058824
vt 0.06666667 0.9058824
vt 0 1
vt 0.06666667 1
vt 0 0.9058824
vt 0.06666667 0.9058824
vt 0 1
vt 0.06666667 1
vt 0 0.9058824
vt 0.06666667 0.9058824
vt 0 1
vt 0.06666667 1
vt 0 0.9058824
vt 0.06666667 0.9058824
vt 0 1
vt 0.06666667 1
vt 0 0.9058824
vt 0.06666667 0.9058824
vt 0 1
vt 0.06666667 1
vt 0 0.9058824
vt 0.06666667 0.9058824
vt 0 1
vt 0.06666667 1
vt 0 0.9058824
vt 0.06666667 0.9058824
vt 0 1
vt 0.06666667 1
vt 0 0.9058824
vt 0.06666667 0.9058824
vt 0 1
vt 0.06666667 1
vt 0 0.9058824
vt 0.06666667 0.9058824
vt 0 1
vt 0.06666667 1
vt 0 0.9058824
vt 0.06666667 0.9058824
vt 0 1
vt 0.06666667 1
vt 0 0.9058824
vt 0.06666667 0.9058824
vt 0 1
vt 0.06666667 1
vt 0 0.9058824
vt 0.06666667 0.9058824
vt 0 1
vt 0.06666667 1
vt 0 0.9058824
vt 0.06666667 0.9058824
vt 0 1
vt 0.06666667 1
vt 0 0.9058824
vt 0.06666667 0.9058824
vt 0 1
vt 0.06666667 1
vt 0 0.9058824
vt 0.06666667 0.9058824
vt 0 1
vt 0.06666667 1
vn 0 1 0
vn 0 1 0
vn 0 1 0
vn 0 1 0
vn 0 1 0
vn 0 1 0
vn 0 1 0
vn 0 1 0
vn 0 1 0
vn 0 1 0
vn 0 1 0
vn 0 1 0
vn 0 1 0
vn 0 1 0
vn 0 1 0
vn 0 1 0
vn 0 1 0
vn 0 1 0
vn 0 1 0
vn 0 1 0
vn 0 1 0
vn 0 1 0
vn 0 1 0
vn 0 1 0
vn 0 1 0
vn 0 1 0
vn 0 1 0
vn 0 1 0
vn 0 1 0
vn 0 1 0
vn 0 1 0
vn 0 1 0
vn 0 1 0
vn 0 1 0
vn 0 1 0
vn 0 1 0
vn 0 1 0
vn 0 1 0
vn 0 1 0
vn 0 1 0
vn 0 1 0
vn 0 1 0
vn 0 1 0
vn 0 1 0
vn 0 1 0
vn 0 1 0
vn 0 1 0
vn 0 1 0
vn 0 1 0
vn 0 1 0
vn 0 1 0
vn 0 1 0
vn 0 1 0
vn 0 1 0
vn 0 1 0
vn 0 1 0
vn 0 1 0
vn 0 1 0
vn 0 1 0
vn 0 1 0
vn 0 1 0
vn 0 1 0
vn 0 1 0
vn 0 1 0
vn 0 1 0
vn 0 1 0
vn 0 1 0
vn 0 1 0
vn 0 1 0
vn 0 1 0
vn 0 1 0
vn 0 1 0
vn 0 1 0
vn 0 1 0
vn 0 1 0
vn 0 1 0
vn 0 1 0
vn 0 1 0
vn 0 1 0
vn 0 1 0
vn 0 1 0
vn 0 1 0
vn 0 1 0
vn 0 1 0
vn 0 1 0
vn 0 1 0
vn 0 1 0
vn 0 1 0
vn 0 1 0
vn 0 1 0
vn 0 1 0
vn 0 1 0
vn 0 1 0
vn 0 1 0
vn 0 1 0
vn 0 1 0
vn 0 1 0
vn 0 1 0
vn 0 1 0
vn 0 1 0
vn 0 1 0
vn 0 1 0
vn 0 1 0
vn 0 1 0
vn 0 1 0
vn 0 1 0
vn 0 1 0
vn 0 1 0
vn 0 1 0
vn 0 1 0
vn 0 1 0
vn 0 1 0
vn 0 1 0
vn 0 1 0
vn 0 1 0
vn 0 1 0
vn 0 1 0
vn 0 1 0
vn 0 1 0
vn 0 1 0
vn 0 1 0
vn 0 1 0
vn 0 1 0
vn 0 1 0
vn 0 1 0
vn 0 1 0
vn 0 1 0
vn 0 1 0
vn 0 1 0
vn 0 1 0
vn 0 1 0
vn 0 1 0
vn 0 1 0
vn 0 1 0
vn 0 1 0
vn 0 1 0
vn 0 1 0
vn 0 1 0
vn 0 1 0
vn 0 1 0
vn 0 1 0
vn 0 1 0
vn 0 1 0
vn 0 1 0
vn 0 1 0
vn 0 1 0
vn 0 1 0
vn 0 1 0
vn 0 1 0
vn 0 1 0
vn 0 1 0
vn 0 1 0
vn 0 1 0
vn 0 1 0
vn 0 1 0
vn 0 1 0
vn 0 1 0
vn 0 1 0
vn 0 1 0
vn 0 1 0
vn 0 1 0
vn 0 1 0
vn 0 1 0
vn 0 1 0
vn 0 1 0
vn 0 1 0
vn 0 1 0
vn 0 1 0
vn 0 1 0
vn 0 1 0
vn 0 1 0
vn 0 1 0
vn 0 1 0
vn 0 1 0
vn 0 1 0
vn 0 1 0
vn 0 1 0
vn 0 1 0
vn 0 1 0
vn 0 1 0
vn 0 1 0
vn 0 1 0
vn 0 1 0
vn 0 1 0
g Grass_0_Cluster178_0
f 2/2/2 3/3/3 1/1/1
f 2/2/2 4/4/4 3/3/3
f 6/6/6 7/7/7 5/5/5
f 6/6/6 8/8/8 7/7/7
f 10/10/10 11/11/11 9/9/9
f 10/10/10 12/12/12 11/11/11
f 14/14/14 15/15/15 13/13/13
f 14/14/14 16/16/16 15/15/15
f 18/18/18 19/19/19 17/17/17
f 18/18/18 20/20/20 19/19/19
f 22/22/22 23/23/23 21/21/21
f 22/22/22 24/24/24 23/23/23
f 26/26/26 27/27/27 25/25/25
f 26/26/26 28/28/28 27/27/27
f 30/30/30 31/31/31 29/29/29
f 30/30/30 32/32/32 31/31/31
f 34/34/34 35/35/35 33/33/33
f 34/34/34 36/36/36 35/35/35
f 38/38/38 39/39/39 37/37/37
f 38/38/38 40/40/40 39/39/39
f 42/42/42 43/43/43 41/41/41
f 42/42/42 44/44/44 43/43/43
f 46/46/46 47/47/47 45/45/45
f 46/46/46 48/48/48 47/47/47
f 50/50/50 51/51/51 49/49/49
f 50/50/50 52/52/52 51/51/51
f 54/54/54 55/55/55 53/53/53
f 54/54/54 56/56/56 55/55/55
f 58/58/58 59/59/59 57/57/57
f 58/58/58 60/60/60 59/59/59
f 62/62/62 63/63/63 61/61/61
f 62/62/62 64/64/64 63/63/63
f 66/66/66 67/67/67 65/65/65
f 66/66/66 68/68/68 67/67/67
f 70/70/70 71/71/71 69/69/69
f 70/70/70 72/72/72 71/71/71
f 74/74/74 75/75/75 73/73/73
f 74/74/74 76/76/76 75/75/75
f 78/78/78 79/79/79 77/77/77
f 78/78/78 80/80/80 79/79/79
f 82/82/82 83/83/83 81/81/81
f 82/82/82 84/84/84 83/83/83
f 86/86/86 87/87/87 85/85/85
f 86/86/86 88/88/88 87/87/87
f 90/90/90 91/91/91 89/89/89
f 90/90/90 92/92/92 91/91/91
f 94/94/94 95/95/95 93/93/93
f 94/94/94 96/96/96 95/95/95
f 98/98/98 99/99/99 97/97/97
f 98/98/98 100/100/100 99/99/99
f 102/102/102 103/103/103 101/101/101
f 102/102/102 104/104/104 103/103/103
f 106/106/106 107/107/107 105/105/105
f 106/106/106 108/108/108 107/107/107
f 110/110/110 111/111/111 109/109/109
f 110/110/110 112/112/112 111/111/111
f 114/114/114 115/115/115 113/113/113
f 114/114/114 116/116/116 115/115/115
f 118/118/118 119/119/119 117/117/117
f 118/118/118 120/120/120 119/119/119
f 122/122/122 123/123/123 121/121/121
f 122/122/122 124/124/124 123/123/123
f 126/126/126 127/127/127 125/125/125
f 126/126/126 128/128/128 127/127/127
f 130/130/130 131/131/131 129/129/129
f 130/130/130 132/132/132 131/131/131
f 134/134/134 135/135/135 133/133/133
f 134/134/134 136/136/136 135/135/135
f 138/138/138 139/139/139 137/137/137
f 138/138/138 140/140/140 139/139/139
f 142/142/142 143/143/143 141/141/141
f 142/142/142 144/144/144 143/143/143
f 146/146/146 147/147/147 145/145/145
f 146/146/146 148/148/148 147/147/147
f 150/150/150 151/151/151 149/149/149
f 150/150/150 152/152/152 151/151/151
f 154/154/154 155/155/155 153/153/153
f 154/154/154 156/156/156 155/155/155
f 158/158/158 159/159/159 157/157/157
f 158/158/158 160/160/160 159/159/159
f 162/162/162 163/163/163 161/161/161
f 162/162/162 164/164/164 163/163/163
f 166/166/166 167/167/167 165/165/165
f 166/166/166 168/168/168 167/167/167
f 170/170/170 171/171/171 169/169/169
f 170/170/170 172/172/172 171/171/171
f 174/174/174 175/175/175 173/173/173
f 174/174/174 176/176/176 175/175/175
f 178/178/178 179/179/179 177/177/177
f 178/178/178 180/180/180 179/179/179
f 182/182/182 183/183/183 181/181/181
f 182/182/182 184/184/184 183/183/183
