g Grass_1_Cluster243
v 190.9539 0.1683197 337.4429
v 189.8832 0.1683197 337.4429
v 190.9539 0.1683197 338.5136
v 189.8832 0.1683197 338.5136
v 207.55 0.1683197 335.3015
v 207.0146 0.1683197 335.3015
v 207.55 0.1683197 335.8369
v 207.0146 0.1683197 335.8369
v 208.0854 0.1683197 334.2308
v 207.0146 0.1683197 334.2308
v 208.0854 0.1683197 335.3015
v 207.0146 0.1683197 335.3015
v 187.7418 0.1683197 333.16
v 186.6711 0.1683197 333.16
v 187.7418 0.1683197 334.2308
v 186.6711 0.1683197 334.2308
v 207.0146 0.1683197 331.554
v 206.4793 0.1683197 331.554
v 207.0146 0.1683197 332.0894
v 206.4793 0.1683197 332.0894
v 209.1561 0.1683197 331.0186
v 208.0854 0.1683197 331.0186
v 209.1561 0.1683197 331.554
v 208.0854 0.1683197 331.554
v 204.3379 0.1683197 329.9479
v 203.2672 0.1683197 329.9479
v 204.3379 0.1683197 330.4833
v 203.2672 0.1683197 330.4833
v 206.4793 0.1683197 329.4126
v 205.9439 0.1683197 329.4126
v 206.4793 0.1683197 329.9479
v 205.9439 0.1683197 329.9479
v 208.6207 0.1683197 327.2711
v 208.0854 0.1683197 327.2711
v 208.6207 0.1683197 328.3419
v 208.0854 0.1683197 328.3419
vt 0.06738281 0.9369141
vt 0.1331457 0.9369141
vt 0.06738281 0.9990234
vt 0.1331457 0.9990234
vt 0.06738281 0.9369141
vt 0.1331457 0.9369141
vt 0.06738281 0.9990234
vt 0.1331457 0.9990234
vt 0.06738281 0.9369141
vt 0.1331457 0.9369141
vt 0.06738281 0.9990234
vt 0.1331457 0.9990234
vt 0.06738281 0.9369141
vt 0.1331457 0.9369141
vt 0.06738281 0.9990234
vt 0.1331457 0.9990234
vt 0.06738281 0.9369141
vt 0.1331457 0.9369141
vt 0.06738281 0.9990234
vt 0.1331457 0.9990234
vt 0.06738281 0.9369141
vt 0.1331457 0.9369141
vt 0.06738281 0.9990234
vt 0.1331457 0.9990234
vt 0.06738281 0.9369141
vt 0.1331457 0.9369141
vt 0.06738281 0.9990234
vt 0.1331457 0.9990234
vt 0.06738281 0.9369141
vt 0.1331457 0.9369141
vt 0.06738281 0.9990234
vt 0.1331457 0.9990234
vt 0.06738281 0.9369141
vt 0.1331457 0.9369141
vt 0.06738281 0.9990234
vt 0.1331457 0.9990234
vn 0 1 0
vn 0 1 0
vn 0 1 0
vn 0 1 0
vn 0 1 0
vn 0 1 0
vn 0 1 0
vn 0 1 0
vn 0 1 0
vn 0 1 0
vn 0 1 0
vn 0 1 0
vn 0 1 0
vn 0 1 0
vn 0 1 0
vn 0 1 0
vn 0 1 0
vn 0 1 0
vn 0 1 0
vn 0 1 0
vn 0 1 0
vn 0 1 0
vn 0 1 0
vn 0 1 0
vn 0 1 0
vn 0 1 0
vn 0 1 0
vn 0 1 0
vn 0 1 0
vn 0 1 0
vn 0 1 0
vn 0 1 0
vn 0 1 0
vn 0 1 0
vn 0 1 0
vn 0 1 0
g Grass_1_Cluster243_0
f 2/2/2 3/3/3 1/1/1
f 2/2/2 4/4/4 3/3/3
f 6/6/6 7/7/7 5/5/5
f 6/6/6 8/8/8 7/7/7
f 10/10/10 11/11/11 9/9/9
f 10/10/10 12/12/12 11/11/11
f 14/14/14 15/15/15 13/13/13
f 14/14/14 16/16/16 15/15/15
f 18/18/18 19/19/19 17/17/17
f 18/18/18 20/20/20 19/19/19
f 22/22/22 23/23/23 21/21/21
f 22/22/22 24/24/24 23/23/23
f 26/26/26 27/27/27 25/25/25
f 26/26/26 28/28/28 27/27/27
f 30/30/30 31/31/31 29/29/29
f 30/30/30 32/32/32 31/31/31
f 34/34/34 35/35/35 33/33/33
f 34/34/34 36/36/36 35/35/35
