g Grass_2_Cluster181
v 259.9922 0.1997681 256.778
v 259.4759 0.1997681 256.778
v 259.9922 0.1997681 257.8104
v 259.4759 0.1997681 257.8104
v 261.541 0.1997681 256.2617
v 260.5084 0.1997681 256.2617
v 261.541 0.1997681 257.2942
v 260.5084 0.1997681 257.2942
v 263.0897 0.1997681 255.7454
v 262.0572 0.1997681 255.7454
v 263.0897 0.1997681 256.778
v 262.0572 0.1997681 256.778
v 262.0572 0.1997681 255.7454
v 261.0247 0.1997681 255.7454
v 262.0572 0.1997681 256.778
v 261.0247 0.1997681 256.778
v 261.0247 0.1997681 255.2292
v 259.9922 0.1997681 255.2292
v 261.0247 0.1997681 256.2617
v 259.9922 0.1997681 256.2617
v 262.5735 0.1997681 254.7129
v 261.541 0.1997681 254.7129
v 262.5735 0.1997681 256.2617
v 261.541 0.1997681 256.2617
v 259.4759 0.1997681 254.7129
v 258.9597 0.1997681 254.7129
v 259.4759 0.1997681 255.7454
v 258.9597 0.1997681 255.7454
v 261.0247 0.1997681 254.1967
v 259.9922 0.1997681 254.1967
v 261.0247 0.1997681 255.2292
v 259.9922 0.1997681 255.2292
v 255.3459 0.1997681 254.1967
v 254.8297 0.1997681 254.1967
v 255.3459 0.1997681 255.2292
v 254.8297 0.1997681 255.2292
v 262.5735 0.1997681 254.1967
v 261.541 0.1997681 254.1967
v 262.5735 0.1997681 255.2292
v 261.541 0.1997681 255.2292
v 258.4434 0.1997681 253.6804
v 257.4109 0.1997681 253.6804
v 258.4434 0.1997681 254.7129
v 257.4109 0.1997681 254.7129
v 262.5735 0.1997681 253.1642
v 262.0572 0.1997681 253.1642
v 262.5735 0.1997681 254.1967
v 262.0572 0.1997681 254.1967
v 252.2484 0.1997681 247.4854
v 251.2159 0.1997681 247.4854
v 252.2484 0.1997681 248.5179
v 251.2159 0.1997681 248.5179
v 241.9233 0.1997681 246.4529
v 240.8908 0.1997681 246.4529
v 241.9233 0.1997681 247.4854
v 240.8908 0.1997681 247.4854
v 268.2523 0.1997681 245.9366
v 267.736 0.1997681 245.9366
v 268.2523 0.1997681 246.9691
v 267.736 0.1997681 246.9691
v 270.3173 0.1997681 245.4203
v 269.2848 0.1997681 245.4203
v 270.3173 0.1997681 246.4529
v 269.2848 0.1997681 246.4529
v 250.1834 0.1997681 245.4203
v 249.6671 0.1997681 245.4203
v 250.1834 0.1997681 246.4529
v 249.6671 0.1997681 246.4529
v 270.3173 0.1997681 244.9041
v 269.2848 0.1997681 244.9041
v 270.3173 0.1997681 245.9366
v 269.2848 0.1997681 245.9366
v 267.736 0.1997681 243.8716
v 266.7035 0.1997681 243.8716
v 267.736 0.1997681 244.9041
v 266.7035 0.1997681 244.9041
v 249.6671 0.1997681 242.8391
v 248.6346 0.1997681 242.8391
v 249.6671 0.1997681 243.8716
v 248.6346 0.1997681 243.8716
vt 0.1347656 0.9185662
vt 0.2060202 0.9185662
vt 0.1347656 1
vt 0.2060202 1
vt 0.1347656 0.9185662
vt 0.2060202 0.9185662
vt 0.1347656 1
vt 0.2060202 1
vt 0.1347656 0.9185662
vt 0.2060202 0.9185662
vt 0.1347656 1
vt 0.2060202 1
vt 0.1347656 0.9185662
vt 0.2060202 0.9185662
vt 0.1347656 1
vt 0.2060202 1
vt 0.1347656 0.9185662
vt 0.2060202 0.9185662
vt 0.1347656 1
vt 0.2060202 1
vt 0.1347656 0.9185662
vt 0.2060202 0.9185662
vt 0.1347656 1
vt 0.2060202 1
vt 0.1347656 0.9185662
vt 0.2060202 0.9185662
vt 0.1347656 1
vt 0.2060202 1
vt 0.1347656 0.9185662
vt 0.2060202 0.9185662
vt 0.1347656 1
vt 0.2060202 1
vt 0.1347656 0.9185662
vt 0.2060202 0.9185662
vt 0.1347656 1
vt 0.2060202 1
vt 0.1347656 0.9185662
vt 0.2060202 0.9185662
vt 0.1347656 1
vt 0.2060202 1
vt 0.1347656 0.9185662
vt 0.2060202 0.9185662
vt 0.1347656 1
vt 0.2060202 1
vt 0.1347656 0.9185662
vt 0.2060202 0.9185662
vt 0.1347656 1
vt 0.2060202 1
vt 0.1347656 0.9185662
vt 0.2060202 0.9185662
vt 0.1347656 1
vt 0.2060202 1
vt 0.1347656 0.9185662
vt 0.2060202 0.9185662
vt 0.1347656 1
vt 0.2060202 1
vt 0.1347656 0.9185662
vt 0.2060202 0.9185662
vt 0.1347656 1
vt 0.2060202 1
vt 0.1347656 0.9185662
vt 0.2060202 0.9185662
vt 0.1347656 1
vt 0.2060202 1
vt 0.1347656 0.9185662
vt 0.2060202 0.9185662
vt 0.1347656 1
vt 0.2060202 1
vt 0.1347656 0.9185662
vt 0.2060202 0.9185662
vt 0.1347656 1
vt 0.2060202 1
vt 0.1347656 0.9185662
vt 0.2060202 0.9185662
vt 0.1347656 1
vt 0.2060202 1
vt 0.1347656 0.9185662
vt 0.2060202 0.9185662
vt 0.1347656 1
vt 0.2060202 1
vn 0 1 0
vn 0 1 0
vn 0 1 0
vn 0 1 0
vn 0 1 0
vn 0 1 0
vn 0 1 0
vn 0 1 0
vn 0 1 0
vn 0 1 0
vn 0 1 0
vn 0 1 0
vn 0 1 0
vn 0 1 0
vn 0 1 0
vn 0 1 0
vn 0 1 0
vn 0 1 0
vn 0 1 0
vn 0 1 0
vn 0 1 0
vn 0 1 0
vn 0 1 0
vn 0 1 0
vn 0 1 0
vn 0 1 0
vn 0 1 0
vn 0 1 0
vn 0 1 0
vn 0 1 0
vn 0 1 0
vn 0 1 0
vn 0 1 0
vn 0 1 0
vn 0 1 0
vn 0 1 0
vn 0 1 0
vn 0 1 0
vn 0 1 0
vn 0 1 0
vn 0 1 0
vn 0 1 0
vn 0 1 0
vn 0 1 0
vn 0 1 0
vn 0 1 0
vn 0 1 0
vn 0 1 0
vn 0 1 0
vn 0 1 0
vn 0 1 0
vn 0 1 0
vn 0 1 0
vn 0 1 0
vn 0 1 0
vn 0 1 0
vn 0 1 0
vn 0 1 0
vn 0 1 0
vn 0 1 0
vn 0 1 0
vn 0 1 0
vn 0 1 0
vn 0 1 0
vn 0 1 0
vn 0 1 0
vn 0 1 0
vn 0 1 0
vn 0 1 0
vn 0 1 0
vn 0 1 0
vn 0 1 0
vn 0 1 0
vn 0 1 0
vn 0 1 0
vn 0 1 0
vn 0 1 0
vn 0 1 0
vn 0 1 0
vn 0 1 0
g Grass_2_Cluster181_0
f 2/2/2 3/3/3 1/1/1
f 2/2/2 4/4/4 3/3/3
f 6/6/6 7/7/7 5/5/5
f 6/6/6 8/8/8 7/7/7
f 10/10/10 11/11/11 9/9/9
f 10/10/10 12/12/12 11/11/11
f 14/14/14 15/15/15 13/13/13
f 14/14/14 16/16/16 15/15/15
f 18/18/18 19/19/19 17/17/17
f 18/18/18 20/20/20 19/19/19
f 22/22/22 23/23/23 21/21/21
f 22/22/22 24/24/24 23/23/23
f 26/26/26 27/27/27 25/25/25
f 26/26/26 28/28/28 27/27/27
f 30/30/30 31/31/31 29/29/29
f 30/30/30 32/32/32 31/31/31
f 34/34/34 35/35/35 33/33/33
f 34/34/34 36/36/36 35/35/35
f 38/38/38 39/39/39 37/37/37
f 38/38/38 40/40/40 39/39/39
f 42/42/42 43/43/43 41/41/41
f 42/42/42 44/44/44 43/43/43
f 46/46/46 47/47/47 45/45/45
f 46/46/46 48/48/48 47/47/47
f 50/50/50 51/51/51 49/49/49
f 50/50/50 52/52/52 51/51/51
f 54/54/54 55/55/55 53/53/53
f 54/54/54 56/56/56 55/55/55
f 58/58/58 59/59/59 57/57/57
f 58/58/58 60/60/60 59/59/59
f 62/62/62 63/63/63 61/61/61
f 62/62/62 64/64/64 63/63/63
f 66/66/66 67/67/67 65/65/65
f 66/66/66 68/68/68 67/67/67
f 70/70/70 71/71/71 69/69/69
f 70/70/70 72/72/72 71/71/71
f 74/74/74 75/75/75 73/73/73
f 74/74/74 76/76/76 75/75/75
f 78/78/78 79/79/79 77/77/77
f 78/78/78 80/80/80 79/79/79
