g Grass_0_Cluster63
v 187.4043 0.1080475 80.91763
v 186.5507 0.1080475 80.91763
v 187.4043 0.1080475 82.05579
v 186.5507 0.1080475 82.05579
v 203.9077 0.1080475 80.34854
v 203.054 0.1080475 80.34854
v 203.9077 0.1080475 81.48669
v 203.054 0.1080475 81.48669
v 200.7777 0.1080475 78.92584
v 199.9241 0.1080475 78.92584
v 200.7777 0.1080475 80.34854
v 199.9241 0.1080475 80.34854
v 198.2168 0.1080475 77.2186
v 197.3632 0.1080475 77.2186
v 198.2168 0.1080475 78.6413
v 197.3632 0.1080475 78.6413
v 189.1115 0.1080475 76.93405
v 188.2579 0.1080475 76.93405
v 189.1115 0.1080475 78.0722
v 188.2579 0.1080475 78.0722
v 197.0787 0.1080475 76.64951
v 196.2251 0.1080475 76.64951
v 197.0787 0.1080475 77.78766
v 196.2251 0.1080475 77.78766
v 197.6478 0.1080475 74.94226
v 196.7941 0.1080475 74.94226
v 197.6478 0.1080475 76.08041
v 196.7941 0.1080475 76.08041
v 199.6395 0.1080475 74.65771
v 198.7859 0.1080475 74.65771
v 199.6395 0.1080475 76.08041
v 198.7859 0.1080475 76.08041
v 195.9405 0.1080475 74.37317
v 195.0869 0.1080475 74.37317
v 195.9405 0.1080475 75.7959
v 195.0869 0.1080475 75.7959
v 197.0787 0.1080475 74.08865
v 196.2251 0.1080475 74.08865
v 197.0787 0.1080475 75.22681
v 196.2251 0.1080475 75.22681
v 200.2086 0.1080475 73.80411
v 199.355 0.1080475 73.80411
v 200.2086 0.1080475 75.22681
v 199.355 0.1080475 75.22681
v 197.3632 0.1080475 73.51956
v 196.5096 0.1080475 73.51956
v 197.3632 0.1080475 74.94226
v 196.5096 0.1080475 74.94226
v 199.0705 0.1080475 73.51956
v 198.2168 0.1080475 73.51956
v 199.0705 0.1080475 74.94226
v 198.2168 0.1080475 74.94226
v 189.9652 0.1080475 72.38141
v 189.1115 0.1080475 72.38141
v 189.9652 0.1080475 73.51956
v 189.1115 0.1080475 73.51956
v 201.0622 0.1080475 72.38141
v 200.2086 0.1080475 72.38141
v 201.0622 0.1080475 73.51956
v 200.2086 0.1080475 73.51956
v 209.0294 0.1080475 71.81232
v 208.1758 0.1080475 71.81232
v 209.0294 0.1080475 72.95047
v 208.1758 0.1080475 72.95047
v 200.4932 0.1080475 71.52777
v 199.6395 0.1080475 71.52777
v 200.4932 0.1080475 72.95047
v 199.6395 0.1080475 72.95047
v 201.3468 0.1080475 70.95871
v 200.4932 0.1080475 70.95871
v 201.3468 0.1080475 72.09686
v 200.4932 0.1080475 72.09686
v 200.2086 0.1080475 69.25146
v 199.355 0.1080475 69.25146
v 200.2086 0.1080475 70.38962
v 199.355 0.1080475 70.38962
v 194.2333 0.1080475 59.008
v 193.3797 0.1080475 59.008
v 194.2333 0.1080475 60.14615
v 193.3797 0.1080475 60.14615
v 188.2579 0.1080475 57.0162
v 187.1198 0.1080475 57.0162
v 188.2579 0.1080475 58.4389
v 187.1198 0.1080475 58.4389
v 186.8352 0.1080475 56.73166
v 185.9816 0.1080475 56.73166
v 186.8352 0.1080475 57.86981
v 185.9816 0.1080475 57.86981
v 190.5342 0.1080475 55.87802
v 189.6806 0.1080475 55.87802
v 190.5342 0.1080475 57.0162
v 189.6806 0.1080475 57.0162
v 193.0951 0.1080475 55.02441
v 192.2415 0.1080475 55.02441
v 193.0951 0.1080475 56.16257
v 192.2415 0.1080475 56.16257
v 187.6888 0.1080475 54.73987
v 186.8352 0.1080475 54.73987
v 187.6888 0.1080475 55.87802
v 186.8352 0.1080475 55.87802
v 193.6642 0.1080475 54.17078
v 192.8106 0.1080475 54.17078
v 193.6642 0.1080475 55.59351
v 192.8106 0.1080475 55.59351
v 193.9487 0.1080475 53.60172
v 193.0951 0.1080475 53.60172
v 193.9487 0.1080475 55.02441
v 193.0951 0.1080475 55.02441
v 198.5014 0.1080475 53.60172
v 197.3632 0.1080475 53.60172
v 198.5014 0.1080475 54.73987
v 197.3632 0.1080475 54.73987
v 195.3714 0.1080475 53.60172
v 194.5178 0.1080475 53.60172
v 195.3714 0.1080475 54.73987
v 194.5178 0.1080475 54.73987
v 181.998 0.1080475 53.31717
v 181.1444 0.1080475 53.31717
v 181.998 0.1080475 54.45532
v 181.1444 0.1080475 54.45532
vt 0 0.9058824
vt 0.06666667 0.9058824
vt 0 1
vt 0.06666667 1
vt 0 0.9058824
vt 0.06666667 0.9058824
vt 0 1
vt 0.06666667 1
vt 0 0.9058824
vt 0.06666667 0.9058824
vt 0 1
vt 0.06666667 1
vt 0 0.9058824
vt 0.06666667 0.9058824
vt 0 1
vt 0.06666667 1
vt 0 0.9058824
vt 0.06666667 0.9058824
vt 0 1
vt 0.06666667 1
vt 0 0.9058824
vt 0.06666667 0.9058824
vt 0 1
vt 0.06666667 1
vt 0 0.9058824
vt 0.06666667 0.9058824
vt 0 1
vt 0.06666667 1
vt 0 0.9058824
vt 0.06666667 0.9058824
vt 0 1
vt 0.06666667 1
vt 0 0.9058824
vt 0.06666667 0.9058824
vt 0 1
vt 0.06666667 1
vt 0 0.9058824
vt 0.06666667 0.9058824
vt 0 1
vt 0.06666667 1
vt 0 0.9058824
vt 0.06666667 0.9058824
vt 0 1
vt 0.06666667 1
vt 0 0.9058824
vt 0.06666667 0.9058824
vt 0 1
vt 0.06666667 1
vt 0 0.9058824
vt 0.06666667 0.9058824
vt 0 1
vt 0.06666667 1
vt 0 0.9058824
vt 0.06666667 0.9058824
vt 0 1
vt 0.06666667 1
vt 0 0.9058824
vt 0.06666667 0.9058824
vt 0 1
vt 0.06666667 1
vt 0 0.9058824
vt 0.06666667 0.9058824
vt 0 1
vt 0.06666667 1
vt 0 0.9058824
vt 0.06666667 0.9058824
vt 0 1
vt 0.06666667 1
vt 0 0.9058824
vt 0.06666667 0.9058824
vt 0 1
vt 0.06666667 1
vt 0 0.9058824
vt 0.06666667 0.9058824
vt 0 1
vt 0.06666667 1
vt 0 0.9058824
vt 0.06666667 0.9058824
vt 0 1
vt 0.06666667 1
vt 0 0.9058824
vt 0.06666667 0.9058824
vt 0 1
vt 0.06666667 1
vt 0 0.9058824
vt 0.06666667 0.9058824
vt 0 1
vt 0.06666667 1
vt 0 0.9058824
vt 0.06666667 0.9058824
vt 0 1
vt 0.06666667 1
vt 0 0.9058824
vt 0.06666667 0.9058824
vt 0 1
vt 0.06666667 1
vt 0 0.9058824
vt 0.06666667 0.9058824
vt 0 1
vt 0.06666667 1
vt 0 0.9058824
vt 0.06666667 0.9058824
vt 0 1
vt 0.06666667 1
vt 0 0.9058824
vt 0.06666667 0.9058824
vt 0 1
vt 0.06666667 1
vt 0 0.9058824
vt 0.06666667 0.9058824
vt 0 1
vt 0.06666667 1
vt 0 0.9058824
vt 0.06666667 0.9058824
vt 0 1
vt 0.06666667 1
vt 0 0.9058824
vt 0.06666667 0.9058824
vt 0 1
vt 0.06666667 1
vn 0 1 0
vn 0 1 0
vn 0 1 0
vn 0 1 0
vn 0 1 0
vn 0 1 0
vn 0 1 0
vn 0 1 0
vn 0 1 0
vn 0 1 0
vn 0 1 0
vn 0 1 0
vn 0 1 0
vn 0 1 0
vn 0 1 0
vn 0 1 0
vn 0 1 0
vn 0 1 0
vn 0 1 0
vn 0 1 0
vn 0 1 0
vn 0 1 0
vn 0 1 0
vn 0 1 0
vn 0 1 0
vn 0 1 0
vn 0 1 0
vn 0 1 0
vn 0 1 0
vn 0 1 0
vn 0 1 0
vn 0 1 0
vn 0 1 0
vn 0 1 0
vn 0 1 0
vn 0 1 0
vn 0 1 0
vn 0 1 0
vn 0 1 0
vn 0 1 0
vn 0 1 0
vn 0 1 0
vn 0 1 0
vn 0 1 0
vn 0 1 0
vn 0 1 0
vn 0 1 0
vn 0 1 0
vn 0 1 0
vn 0 1 0
vn 0 1 0
vn 0 1 0
vn 0 1 0
vn 0 1 0
vn 0 1 0
vn 0 1 0
vn 0 1 0
vn 0 1 0
vn 0 1 0
vn 0 1 0
vn 0 1 0
vn 0 1 0
vn 0 1 0
vn 0 1 0
vn 0 1 0
vn 0 1 0
vn 0 1 0
vn 0 1 0
vn 0 1 0
vn 0 1 0
vn 0 1 0
vn 0 1 0
vn 0 1 0
vn 0 1 0
vn 0 1 0
vn 0 1 0
vn 0 1 0
vn 0 1 0
vn 0 1 0
vn 0 1 0
vn 0 1 0
vn 0 1 0
vn 0 1 0
vn 0 1 0
vn 0 1 0
vn 0 1 0
vn 0 1 0
vn 0 1 0
vn 0 1 0
vn 0 1 0
vn 0 1 0
vn 0 1 0
vn 0 1 0
vn 0 1 0
vn 0 1 0
vn 0 1 0
vn 0 1 0
vn 0 1 0
vn 0 1 0
vn 0 1 0
vn 0 1 0
vn 0 1 0
vn 0 1 0
vn 0 1 0
vn 0 1 0
vn 0 1 0
vn 0 1 0
vn 0 1 0
vn 0 1 0
vn 0 1 0
vn 0 1 0
vn 0 1 0
vn 0 1 0
vn 0 1 0
vn 0 1 0
vn 0 1 0
vn 0 1 0
vn 0 1 0
vn 0 1 0
vn 0 1 0
g Grass_0_Cluster63_0
f 2/2/2 3/3/3 1/1/1
f 2/2/2 4/4/4 3/3/3
f 6/6/6 7/7/7 5/5/5
f 6/6/6 8/8/8 7/7/7
f 10/10/10 11/11/11 9/9/9
f 10/10/10 12/12/12 11/11/11
f 14/14/14 15/15/15 13/13/13
f 14/14/14 16/16/16 15/15/15
f 18/18/18 19/19/19 17/17/17
f 18/18/18 20/20/20 19/19/19
f 22/22/22 23/23/23 21/21/21
f 22/22/22 24/24/24 23/23/23
f 26/26/26 27/27/27 25/25/25
f 26/26/26 28/28/28 27/27/27
f 30/30/30 31/31/31 29/29/29
f 30/30/30 32/32/32 31/31/31
f 34/34/34 35/35/35 33/33/33
f 34/34/34 36/36/36 35/35/35
f 38/38/38 39/39/39 37/37/37
f 38/38/38 40/40/40 39/39/39
f 42/42/42 43/43/43 41/41/41
f 42/42/42 44/44/44 43/43/43
f 46/46/46 47/47/47 45/45/45
f 46/46/46 48/48/48 47/47/47
f 50/50/50 51/51/51 49/49/49
f 50/50/50 52/52/52 51/51/51
f 54/54/54 55/55/55 53/53/53
f 54/54/54 56/56/56 55/55/55
f 58/58/58 59/59/59 57/57/57
f 58/58/58 60/60/60 59/59/59
f 62/62/62 63/63/63 61/61/61
f 62/62/62 64/64/64 63/63/63
f 66/66/66 67/67/67 65/65/65
f 66/66/66 68/68/68 67/67/67
f 70/70/70 71/71/71 69/69/69
f 70/70/70 72/72/72 71/71/71
f 74/74/74 75/75/75 73/73/73
f 74/74/74 76/76/76 75/75/75
f 78/78/78 79/79/79 77/77/77
f 78/78/78 80/80/80 79/79/79
f 82/82/82 83/83/83 81/81/81
f 82/82/82 84/84/84 83/83/83
f 86/86/86 87/87/87 85/85/85
f 86/86/86 88/88/88 87/87/87
f 90/90/90 91/91/91 89/89/89
f 90/90/90 92/92/92 91/91/91
f 94/94/94 95/95/95 93/93/93
f 94/94/94 96/96/96 95/95/95
f 98/98/98 99/99/99 97/97/97
f 98/98/98 100/100/100 99/99/99
f 102/102/102 103/103/103 101/101/101
f 102/102/102 104/104/104 103/103/103
f 106/106/106 107/107/107 105/105/105
f 106/106/106 108/108/108 107/107/107
f 110/110/110 111/111/111 109/109/109
f 110/110/110 112/112/112 111/111/111
f 114/114/114 115/115/115 113/113/113
f 114/114/114 116/116/116 115/115/115
f 118/118/118 119/119/119 117/117/117
f 118/118/118 120/120/120 119/119/119
