g Grass_2_Cluster203
v 181.4325 0.2214508 276.5529
v 180.5265 0.2214508 276.5529
v 181.4325 0.2214508 277.459
v 180.5265 0.2214508 277.459
v 182.7915 0.2214508 276.5529
v 181.4325 0.2214508 276.5529
v 182.7915 0.2214508 277.459
v 181.4325 0.2214508 277.459
v 181.4325 0.2214508 275.6469
v 180.5265 0.2214508 275.6469
v 181.4325 0.2214508 277.006
v 180.5265 0.2214508 277.006
v 182.3385 0.2214508 275.6469
v 181.4325 0.2214508 275.6469
v 182.3385 0.2214508 276.5529
v 181.4325 0.2214508 276.5529
v 183.6975 0.2214508 275.1939
v 182.7915 0.2214508 275.1939
v 183.6975 0.2214508 276.5529
v 182.7915 0.2214508 276.5529
v 184.1505 0.2214508 274.7409
v 183.2445 0.2214508 274.7409
v 184.1505 0.2214508 275.6469
v 183.2445 0.2214508 275.6469
v 180.9795 0.2214508 274.2879
v 180.0735 0.2214508 274.2879
v 180.9795 0.2214508 275.1939
v 180.0735 0.2214508 275.1939
v 182.7915 0.2214508 274.2879
v 181.8855 0.2214508 274.2879
v 182.7915 0.2214508 275.6469
v 181.8855 0.2214508 275.6469
v 185.9626 0.2214508 274.2879
v 185.0565 0.2214508 274.2879
v 185.9626 0.2214508 275.1939
v 185.0565 0.2214508 275.1939
v 180.9795 0.2214508 273.8349
v 180.0735 0.2214508 273.8349
v 180.9795 0.2214508 274.7409
v 180.0735 0.2214508 274.7409
v 184.6035 0.2214508 273.8349
v 183.6975 0.2214508 273.8349
v 184.6035 0.2214508 274.7409
v 183.6975 0.2214508 274.7409
v 184.1505 0.2214508 273.3819
v 183.2445 0.2214508 273.3819
v 184.1505 0.2214508 274.2879
v 183.2445 0.2214508 274.2879
v 181.4325 0.2214508 272.9289
v 180.5265 0.2214508 272.9289
v 181.4325 0.2214508 274.2879
v 180.5265 0.2214508 274.2879
v 183.2445 0.2214508 272.4759
v 182.3385 0.2214508 272.4759
v 183.2445 0.2214508 273.8349
v 182.3385 0.2214508 273.8349
v 181.8855 0.2214508 272.4759
v 180.9795 0.2214508 272.4759
v 181.8855 0.2214508 273.3819
v 180.9795 0.2214508 273.3819
v 185.0565 0.2214508 271.5699
v 184.1505 0.2214508 271.5699
v 185.0565 0.2214508 272.9289
v 184.1505 0.2214508 272.9289
vt 0.1347656 0.9185662
vt 0.2060202 0.9185662
vt 0.1347656 1
vt 0.2060202 1
vt 0.1347656 0.9185662
vt 0.2060202 0.9185662
vt 0.1347656 1
vt 0.2060202 1
vt 0.1347656 0.9185662
vt 0.2060202 0.9185662
vt 0.1347656 1
vt 0.2060202 1
vt 0.1347656 0.9185662
vt 0.2060202 0.9185662
vt 0.1347656 1
vt 0.2060202 1
vt 0.1347656 0.9185662
vt 0.2060202 0.9185662
vt 0.1347656 1
vt 0.2060202 1
vt 0.1347656 0.9185662
vt 0.2060202 0.9185662
vt 0.1347656 1
vt 0.2060202 1
vt 0.1347656 0.9185662
vt 0.2060202 0.9185662
vt 0.1347656 1
vt 0.2060202 1
vt 0.1347656 0.9185662
vt 0.2060202 0.9185662
vt 0.1347656 1
vt 0.2060202 1
vt 0.1347656 0.9185662
vt 0.2060202 0.9185662
vt 0.1347656 1
vt 0.2060202 1
vt 0.1347656 0.9185662
vt 0.2060202 0.9185662
vt 0.1347656 1
vt 0.2060202 1
vt 0.1347656 0.9185662
vt 0.2060202 0.9185662
vt 0.1347656 1
vt 0.2060202 1
vt 0.1347656 0.9185662
vt 0.2060202 0.9185662
vt 0.1347656 1
vt 0.2060202 1
vt 0.1347656 0.9185662
vt 0.2060202 0.9185662
vt 0.1347656 1
vt 0.2060202 1
vt 0.1347656 0.9185662
vt 0.2060202 0.9185662
vt 0.1347656 1
vt 0.2060202 1
vt 0.1347656 0.9185662
vt 0.2060202 0.9185662
vt 0.1347656 1
vt 0.2060202 1
vt 0.1347656 0.9185662
vt 0.2060202 0.9185662
vt 0.1347656 1
vt 0.2060202 1
vn 0 1 0
vn 0 1 0
vn 0 1 0
vn 0 1 0
vn 0 1 0
vn 0 1 0
vn 0 1 0
vn 0 1 0
vn 0 1 0
vn 0 1 0
vn 0 1 0
vn 0 1 0
vn 0 1 0
vn 0 1 0
vn 0 1 0
vn 0 1 0
vn 0 1 0
vn 0 1 0
vn 0 1 0
vn 0 1 0
vn 0 1 0
vn 0 1 0
vn 0 1 0
vn 0 1 0
vn 0 1 0
vn 0 1 0
vn 0 1 0
vn 0 1 0
vn 0 1 0
vn 0 1 0
vn 0 1 0
vn 0 1 0
vn 0 1 0
vn 0 1 0
vn 0 1 0
vn 0 1 0
vn 0 1 0
vn 0 1 0
vn 0 1 0
vn 0 1 0
vn 0 1 0
vn 0 1 0
vn 0 1 0
vn 0 1 0
vn 0 1 0
vn 0 1 0
vn 0 1 0
vn 0 1 0
vn 0 1 0
vn 0 1 0
vn 0 1 0
vn 0 1 0
vn 0 1 0
vn 0 1 0
vn 0 1 0
vn 0 1 0
vn 0 1 0
vn 0 1 0
vn 0 1 0
vn 0 1 0
vn 0 1 0
vn 0 1 0
vn 0 1 0
vn 0 1 0
g Grass_2_Cluster203_0
f 2/2/2 3/3/3 1/1/1
f 2/2/2 4/4/4 3/3/3
f 6/6/6 7/7/7 5/5/5
f 6/6/6 8/8/8 7/7/7
f 10/10/10 11/11/11 9/9/9
f 10/10/10 12/12/12 11/11/11
f 14/14/14 15/15/15 13/13/13
f 14/14/14 16/16/16 15/15/15
f 18/18/18 19/19/19 17/17/17
f 18/18/18 20/20/20 19/19/19
f 22/22/22 23/23/23 21/21/21
f 22/22/22 24/24/24 23/23/23
f 26/26/26 27/27/27 25/25/25
f 26/26/26 28/28/28 27/27/27
f 30/30/30 31/31/31 29/29/29
f 30/30/30 32/32/32 31/31/31
f 34/34/34 35/35/35 33/33/33
f 34/34/34 36/36/36 35/35/35
f 38/38/38 39/39/39 37/37/37
f 38/38/38 40/40/40 39/39/39
f 42/42/42 43/43/43 41/41/41
f 42/42/42 44/44/44 43/43/43
f 46/46/46 47/47/47 45/45/45
f 46/46/46 48/48/48 47/47/47
f 50/50/50 51/51/51 49/49/49
f 50/50/50 52/52/52 51/51/51
f 54/54/54 55/55/55 53/53/53
f 54/54/54 56/56/56 55/55/55
f 58/58/58 59/59/59 57/57/57
f 58/58/58 60/60/60 59/59/59
f 62/62/62 63/63/63 61/61/61
f 62/62/62 64/64/64 63/63/63
