g Grass_0_Cluster295
v -178.2066 0 412.1786
v -179.0148 0 412.1786
v -178.2066 0 413.3908
v -179.0148 0 413.3908
v -171.337 0 410.5622
v -172.1452 0 410.5622
v -171.337 0 411.7745
v -172.1452 0 411.7745
v -171.7411 0 410.1581
v -172.9534 0 410.1581
v -171.7411 0 411.3704
v -172.9534 0 411.3704
v -166.8919 0 404.9048
v -167.7001 0 404.9048
v -166.8919 0 406.1171
v -167.7001 0 406.1171
v -172.9534 0 403.6925
v -173.7616 0 403.6925
v -172.9534 0 404.9048
v -173.7616 0 404.9048
v -167.7001 0 403.2884
v -168.5083 0 403.2884
v -167.7001 0 404.5007
v -168.5083 0 404.5007
v -168.5083 0 400.0557
v -169.3165 0 400.0557
v -168.5083 0 401.2679
v -169.3165 0 401.2679
v -166.8919 0 399.2475
v -167.7001 0 399.2475
v -166.8919 0 400.8639
v -167.7001 0 400.8639
v -168.5083 0 397.6311
v -169.7206 0 397.6311
v -168.5083 0 398.8434
v -169.7206 0 398.8434
v -167.296 0 396.8229
v -168.1042 0 396.8229
v -167.296 0 398.0352
v -168.1042 0 398.0352
v -167.7001 0 396.8229
v -168.9124 0 396.8229
v -167.7001 0 398.0352
v -168.9124 0 398.0352
v -169.7206 0 396.4188
v -170.5288 0 396.4188
v -169.7206 0 397.6311
v -170.5288 0 397.6311
v -166.0837 0 396.4188
v -167.296 0 396.4188
v -166.0837 0 397.6311
v -167.296 0 397.6311
v -167.296 0 396.0147
v -168.1042 0 396.0147
v -167.296 0 397.227
v -168.1042 0 397.227
v -169.3165 0 395.6106
v -170.1247 0 395.6106
v -169.3165 0 396.4188
v -170.1247 0 396.4188
v -165.2755 0 395.2065
v -166.0837 0 395.2065
v -165.2755 0 396.8229
v -166.0837 0 396.8229
v -170.1247 0 394.8024
v -170.9329 0 394.8024
v -170.1247 0 396.4188
v -170.9329 0 396.4188
v -166.0837 0 394.8024
v -166.8919 0 394.8024
v -166.0837 0 396.0147
v -166.8919 0 396.0147
v -172.1452 0 394.8024
v -172.9534 0 394.8024
v -172.1452 0 396.0147
v -172.9534 0 396.0147
v -167.7001 0 394.3983
v -168.5083 0 394.3983
v -167.7001 0 395.6106
v -168.5083 0 395.6106
v -170.1247 0 394.3983
v -170.9329 0 394.3983
v -170.1247 0 395.6106
v -170.9329 0 395.6106
v -164.4673 0 394.3983
v -165.2755 0 394.3983
v -164.4673 0 395.6106
v -165.2755 0 395.6106
v -163.255 0 394.3983
v -164.4673 0 394.3983
v -163.255 0 395.6106
v -164.4673 0 395.6106
v -168.9124 0 393.9942
v -169.7206 0 393.9942
v -168.9124 0 395.2065
v -169.7206 0 395.2065
v -168.1042 0 393.9942
v -168.9124 0 393.9942
v -168.1042 0 394.8024
v -168.9124 0 394.8024
v -168.5083 0 393.186
v -169.3165 0 393.186
v -168.5083 0 394.8024
v -169.3165 0 394.8024
v -165.6796 0 393.186
v -166.8919 0 393.186
v -165.6796 0 394.3983
v -166.8919 0 394.3983
v -170.5288 0 392.7819
v -171.337 0 392.7819
v -170.5288 0 393.9942
v -171.337 0 393.9942
v -168.1042 0 392.3778
v -168.9124 0 392.3778
v -168.1042 0 393.5901
v -168.9124 0 393.5901
v -173.7616 0 392.3778
v -174.5697 0 392.3778
v -173.7616 0 393.5901
v -174.5697 0 393.5901
v -168.9124 0 391.9737
v -169.7206 0 391.9737
v -168.9124 0 393.186
v -169.7206 0 393.186
vt 0 0.9058824
vt 0.06666667 0.9058824
vt 0 1
vt 0.06666667 1
vt 0 0.9058824
vt 0.06666667 0.9058824
vt 0 1
vt 0.06666667 1
vt 0 0.9058824
vt 0.06666667 0.9058824
vt 0 1
vt 0.06666667 1
vt 0 0.9058824
vt 0.06666667 0.9058824
vt 0 1
vt 0.06666667 1
vt 0 0.9058824
vt 0.06666667 0.9058824
vt 0 1
vt 0.06666667 1
vt 0 0.9058824
vt 0.06666667 0.9058824
vt 0 1
vt 0.06666667 1
vt 0 0.9058824
vt 0.06666667 0.9058824
vt 0 1
vt 0.06666667 1
vt 0 0.9058824
vt 0.06666667 0.9058824
vt 0 1
vt 0.06666667 1
vt 0 0.9058824
vt 0.06666667 0.9058824
vt 0 1
vt 0.06666667 1
vt 0 0.9058824
vt 0.06666667 0.9058824
vt 0 1
vt 0.06666667 1
vt 0 0.9058824
vt 0.06666667 0.9058824
vt 0 1
vt 0.06666667 1
vt 0 0.9058824
vt 0.06666667 0.9058824
vt 0 1
vt 0.06666667 1
vt 0 0.9058824
vt 0.06666667 0.9058824
vt 0 1
vt 0.06666667 1
vt 0 0.9058824
vt 0.06666667 0.9058824
vt 0 1
vt 0.06666667 1
vt 0 0.9058824
vt 0.06666667 0.9058824
vt 0 1
vt 0.06666667 1
vt 0 0.9058824
vt 0.06666667 0.9058824
vt 0 1
vt 0.06666667 1
vt 0 0.9058824
vt 0.06666667 0.9058824
vt 0 1
vt 0.06666667 1
vt 0 0.9058824
vt 0.06666667 0.9058824
vt 0 1
vt 0.06666667 1
vt 0 0.9058824
vt 0.06666667 0.9058824
vt 0 1
vt 0.06666667 1
vt 0 0.9058824
vt 0.06666667 0.9058824
vt 0 1
vt 0.06666667 1
vt 0 0.9058824
vt 0.06666667 0.9058824
vt 0 1
vt 0.06666667 1
vt 0 0.9058824
vt 0.06666667 0.9058824
vt 0 1
vt 0.06666667 1
vt 0 0.9058824
vt 0.06666667 0.9058824
vt 0 1
vt 0.06666667 1
vt 0 0.9058824
vt 0.06666667 0.9058824
vt 0 1
vt 0.06666667 1
vt 0 0.9058824
vt 0.06666667 0.9058824
vt 0 1
vt 0.06666667 1
vt 0 0.9058824
vt 0.06666667 0.9058824
vt 0 1
vt 0.06666667 1
vt 0 0.9058824
vt 0.06666667 0.9058824
vt 0 1
vt 0.06666667 1
vt 0 0.9058824
vt 0.06666667 0.9058824
vt 0 1
vt 0.06666667 1
vt 0 0.9058824
vt 0.06666667 0.9058824
vt 0 1
vt 0.06666667 1
vt 0 0.9058824
vt 0.06666667 0.9058824
vt 0 1
vt 0.06666667 1
vt 0 0.9058824
vt 0.06666667 0.9058824
vt 0 1
vt 0.06666667 1
vn 0 1 0
vn 0 1 0
vn 0 1 0
vn 0 1 0
vn 0 1 0
vn 0 1 0
vn 0 1 0
vn 0 1 0
vn 0 1 0
vn 0 1 0
vn 0 1 0
vn 0 1 0
vn 0 1 0
vn 0 1 0
vn 0 1 0
vn 0 1 0
vn 0 1 0
vn 0 1 0
vn 0 1 0
vn 0 1 0
vn 0 1 0
vn 0 1 0
vn 0 1 0
vn 0 1 0
vn 0 1 0
vn 0 1 0
vn 0 1 0
vn 0 1 0
vn 0 1 0
vn 0 1 0
vn 0 1 0
vn 0 1 0
vn 0 1 0
vn 0 1 0
vn 0 1 0
vn 0 1 0
vn 0 1 0
vn 0 1 0
vn 0 1 0
vn 0 1 0
vn 0 1 0
vn 0 1 0
vn 0 1 0
vn 0 1 0
vn 0 1 0
vn 0 1 0
vn 0 1 0
vn 0 1 0
vn 0 1 0
vn 0 1 0
vn 0 1 0
vn 0 1 0
vn 0 1 0
vn 0 1 0
vn 0 1 0
vn 0 1 0
vn 0 1 0
vn 0 1 0
vn 0 1 0
vn 0 1 0
vn 0 1 0
vn 0 1 0
vn 0 1 0
vn 0 1 0
vn 0 1 0
vn 0 1 0
vn 0 1 0
vn 0 1 0
vn 0 1 0
vn 0 1 0
vn 0 1 0
vn 0 1 0
vn 0 1 0
vn 0 1 0
vn 0 1 0
vn 0 1 0
vn 0 1 0
vn 0 1 0
vn 0 1 0
vn 0 1 0
vn 0 1 0
vn 0 1 0
vn 0 1 0
vn 0 1 0
vn 0 1 0
vn 0 1 0
vn 0 1 0
vn 0 1 0
vn 0 1 0
vn 0 1 0
vn 0 1 0
vn 0 1 0
vn 0 1 0
vn 0 1 0
vn 0 1 0
vn 0 1 0
vn 0 1 0
vn 0 1 0
vn 0 1 0
vn 0 1 0
vn 0 1 0
vn 0 1 0
vn 0 1 0
vn 0 1 0
vn 0 1 0
vn 0 1 0
vn 0 1 0
vn 0 1 0
vn 0 1 0
vn 0 1 0
vn 0 1 0
vn 0 1 0
vn 0 1 0
vn 0 1 0
vn 0 1 0
vn 0 1 0
vn 0 1 0
vn 0 1 0
vn 0 1 0
vn 0 1 0
vn 0 1 0
vn 0 1 0
vn 0 1 0
vn 0 1 0
g Grass_0_Cluster295_0
f 2/2/2 3/3/3 1/1/1
f 2/2/2 4/4/4 3/3/3
f 6/6/6 7/7/7 5/5/5
f 6/6/6 8/8/8 7/7/7
f 10/10/10 11/11/11 9/9/9
f 10/10/10 12/12/12 11/11/11
f 14/14/14 15/15/15 13/13/13
f 14/14/14 16/16/16 15/15/15
f 18/18/18 19/19/19 17/17/17
f 18/18/18 20/20/20 19/19/19
f 22/22/22 23/23/23 21/21/21
f 22/22/22 24/24/24 23/23/23
f 26/26/26 27/27/27 25/25/25
f 26/26/26 28/28/28 27/27/27
f 30/30/30 31/31/31 29/29/29
f 30/30/30 32/32/32 31/31/31
f 34/34/34 35/35/35 33/33/33
f 34/34/34 36/36/36 35/35/35
f 38/38/38 39/39/39 37/37/37
f 38/38/38 40/40/40 39/39/39
f 42/42/42 43/43/43 41/41/41
f 42/42/42 44/44/44 43/43/43
f 46/46/46 47/47/47 45/45/45
f 46/46/46 48/48/48 47/47/47
f 50/50/50 51/51/51 49/49/49
f 50/50/50 52/52/52 51/51/51
f 54/54/54 55/55/55 53/53/53
f 54/54/54 56/56/56 55/55/55
f 58/58/58 59/59/59 57/57/57
f 58/58/58 60/60/60 59/59/59
f 62/62/62 63/63/63 61/61/61
f 62/62/62 64/64/64 63/63/63
f 66/66/66 67/67/67 65/65/65
f 66/66/66 68/68/68 67/67/67
f 70/70/70 71/71/71 69/69/69
f 70/70/70 72/72/72 71/71/71
f 74/74/74 75/75/75 73/73/73
f 74/74/74 76/76/76 75/75/75
f 78/78/78 79/79/79 77/77/77
f 78/78/78 80/80/80 79/79/79
f 82/82/82 83/83/83 81/81/81
f 82/82/82 84/84/84 83/83/83
f 86/86/86 87/87/87 85/85/85
f 86/86/86 88/88/88 87/87/87
f 90/90/90 91/91/91 89/89/89
f 90/90/90 92/92/92 91/91/91
f 94/94/94 95/95/95 93/93/93
f 94/94/94 96/96/96 95/95/95
f 98/98/98 99/99/99 97/97/97
f 98/98/98 100/100/100 99/99/99
f 102/102/102 103/103/103 101/101/101
f 102/102/102 104/104/104 103/103/103
f 106/106/106 107/107/107 105/105/105
f 106/106/106 108/108/108 107/107/107
f 110/110/110 111/111/111 109/109/109
f 110/110/110 112/112/112 111/111/111
f 114/114/114 115/115/115 113/113/113
f 114/114/114 116/116/116 115/115/115
f 118/118/118 119/119/119 117/117/117
f 118/118/118 120/120/120 119/119/119
f 122/122/122 123/123/123 121/121/121
f 122/122/122 124/124/124 123/123/123
