g Grass_2_Cluster99
v -291.5988 0 95.92836
v -292.4788 0 95.92836
v -291.5988 0 96.80844
v -292.4788 0 96.80844
v -292.7722 0 95.34164
v -293.6523 0 95.34164
v -292.7722 0 96.51508
v -293.6523 0 96.51508
v -293.3589 0 94.46157
v -294.239 0 94.46157
v -293.3589 0 95.635
v -294.239 0 95.635
v -290.4253 0 94.16821
v -291.3054 0 94.16821
v -290.4253 0 95.34164
v -291.3054 0 95.34164
v -292.4788 0 93.28813
v -293.6523 0 93.28813
v -292.4788 0 94.46157
v -293.6523 0 94.46157
v -291.8921 0 93.28813
v -292.7722 0 93.28813
v -291.8921 0 94.16821
v -292.7722 0 94.16821
v -294.8257 0 92.99477
v -295.7058 0 92.99477
v -294.8257 0 94.16821
v -295.7058 0 94.16821
v -273.4105 0 92.99477
v -274.2906 0 92.99477
v -273.4105 0 94.16821
v -274.2906 0 94.16821
v -295.4124 0 92.99477
v -296.2925 0 92.99477
v -295.4124 0 94.16821
v -296.2925 0 94.16821
v -294.5323 0 90.06119
v -295.4124 0 90.06119
v -294.5323 0 91.23462
v -295.4124 0 91.23462
v -295.9991 0 90.06119
v -296.8792 0 90.06119
v -295.9991 0 90.94126
v -296.8792 0 90.94126
v -292.7722 0 89.47446
v -293.9456 0 89.47446
v -292.7722 0 90.6479
v -293.9456 0 90.6479
v -293.0656 0 88.59439
v -293.9456 0 88.59439
v -293.0656 0 89.76783
v -293.9456 0 89.76783
v -294.239 0 88.30103
v -295.119 0 88.30103
v -294.239 0 89.47446
v -295.119 0 89.47446
v -295.7058 0 88.30103
v -296.8792 0 88.30103
v -295.7058 0 89.18111
v -296.8792 0 89.18111
v -296.5858 0 88.00768
v -297.4659 0 88.00768
v -296.5858 0 89.18111
v -297.4659 0 89.18111
v -293.9456 0 87.71432
v -294.8257 0 87.71432
v -293.9456 0 88.88775
v -294.8257 0 88.88775
v -295.9991 0 87.42095
v -297.1726 0 87.42095
v -295.9991 0 88.30103
v -297.1726 0 88.30103
v -293.3589 0 87.12759
v -294.5323 0 87.12759
v -293.3589 0 88.30103
v -294.5323 0 88.30103
v -294.8257 0 87.12759
v -295.7058 0 87.12759
v -294.8257 0 88.30103
v -295.7058 0 88.30103
v -297.7593 0 86.83424
v -298.6394 0 86.83424
v -297.7593 0 88.00768
v -298.6394 0 88.00768
v -295.119 0 86.24752
v -295.9991 0 86.24752
v -295.119 0 87.42095
v -295.9991 0 87.42095
v -296.2925 0 85.95416
v -297.4659 0 85.95416
v -296.2925 0 87.12759
v -297.4659 0 87.12759
v -297.4659 0 85.6608
v -298.346 0 85.6608
v -297.4659 0 86.54088
v -298.346 0 86.54088
v -295.4124 0 85.07408
v -296.5858 0 85.07408
v -295.4124 0 86.24752
v -296.5858 0 86.24752
v -298.346 0 85.07408
v -299.2261 0 85.07408
v -298.346 0 86.24752
v -299.2261 0 86.24752
v -295.9991 0 84.48737
v -296.8792 0 84.48737
v -295.9991 0 85.6608
v -296.8792 0 85.6608
v -298.9327 0 84.19401
v -299.8128 0 84.19401
v -298.9327 0 85.36744
v -299.8128 0 85.36744
v -296.8792 0 83.90065
v -297.7593 0 83.90065
v -296.8792 0 84.78072
v -297.7593 0 84.78072
v -298.0526 0 83.31393
v -298.9327 0 83.31393
v -298.0526 0 84.48737
v -298.9327 0 84.48737
v -299.2261 0 83.31393
v -300.1062 0 83.31393
v -299.2261 0 84.19401
v -300.1062 0 84.19401
vt 0.1347656 0.9185662
vt 0.2060202 0.9185662
vt 0.1347656 1
vt 0.2060202 1
vt 0.1347656 0.9185662
vt 0.2060202 0.9185662
vt 0.1347656 1
vt 0.2060202 1
vt 0.1347656 0.9185662
vt 0.2060202 0.9185662
vt 0.1347656 1
vt 0.2060202 1
vt 0.1347656 0.9185662
vt 0.2060202 0.9185662
vt 0.1347656 1
vt 0.2060202 1
vt 0.1347656 0.9185662
vt 0.2060202 0.9185662
vt 0.1347656 1
vt 0.2060202 1
vt 0.1347656 0.9185662
vt 0.2060202 0.9185662
vt 0.1347656 1
vt 0.2060202 1
vt 0.1347656 0.9185662
vt 0.2060202 0.9185662
vt 0.1347656 1
vt 0.2060202 1
vt 0.1347656 0.9185662
vt 0.2060202 0.9185662
vt 0.1347656 1
vt 0.2060202 1
vt 0.1347656 0.9185662
vt 0.2060202 0.9185662
vt 0.1347656 1
vt 0.2060202 1
vt 0.1347656 0.9185662
vt 0.2060202 0.9185662
vt 0.1347656 1
vt 0.2060202 1
vt 0.1347656 0.9185662
vt 0.2060202 0.9185662
vt 0.1347656 1
vt 0.2060202 1
vt 0.1347656 0.9185662
vt 0.2060202 0.9185662
vt 0.1347656 1
vt 0.2060202 1
vt 0.1347656 0.9185662
vt 0.2060202 0.9185662
vt 0.1347656 1
vt 0.2060202 1
vt 0.1347656 0.9185662
vt 0.2060202 0.9185662
vt 0.1347656 1
vt 0.2060202 1
vt 0.1347656 0.9185662
vt 0.2060202 0.9185662
vt 0.1347656 1
vt 0.2060202 1
vt 0.1347656 0.9185662
vt 0.2060202 0.9185662
vt 0.1347656 1
vt 0.2060202 1
vt 0.1347656 0.9185662
vt 0.2060202 0.9185662
vt 0.1347656 1
vt 0.2060202 1
vt 0.1347656 0.9185662
vt 0.2060202 0.9185662
vt 0.1347656 1
vt 0.2060202 1
vt 0.1347656 0.9185662
vt 0.2060202 0.9185662
vt 0.1347656 1
vt 0.2060202 1
vt 0.1347656 0.9185662
vt 0.2060202 0.9185662
vt 0.1347656 1
vt 0.2060202 1
vt 0.1347656 0.9185662
vt 0.2060202 0.9185662
vt 0.1347656 1
vt 0.2060202 1
vt 0.1347656 0.9185662
vt 0.2060202 0.9185662
vt 0.1347656 1
vt 0.2060202 1
vt 0.1347656 0.9185662
vt 0.2060202 0.9185662
vt 0.1347656 1
vt 0.2060202 1
vt 0.1347656 0.9185662
vt 0.2060202 0.9185662
vt 0.1347656 1
vt 0.2060202 1
vt 0.1347656 0.9185662
vt 0.2060202 0.9185662
vt 0.1347656 1
vt 0.2060202 1
vt 0.1347656 0.9185662
vt 0.2060202 0.9185662
vt 0.1347656 1
vt 0.2060202 1
vt 0.1347656 0.9185662
vt 0.2060202 0.9185662
vt 0.1347656 1
vt 0.2060202 1
vt 0.1347656 0.9185662
vt 0.2060202 0.9185662
vt 0.1347656 1
vt 0.2060202 1
vt 0.1347656 0.9185662
vt 0.2060202 0.9185662
vt 0.1347656 1
vt 0.2060202 1
vt 0.1347656 0.9185662
vt 0.2060202 0.9185662
vt 0.1347656 1
vt 0.2060202 1
vt 0.1347656 0.9185662
vt 0.2060202 0.9185662
vt 0.1347656 1
vt 0.2060202 1
vn 0 1 0
vn 0 1 0
vn 0 1 0
vn 0 1 0
vn 0 1 0
vn 0 1 0
vn 0 1 0
vn 0 1 0
vn 0 1 0
vn 0 1 0
vn 0 1 0
vn 0 1 0
vn 0 1 0
vn 0 1 0
vn 0 1 0
vn 0 1 0
vn 0 1 0
vn 0 1 0
vn 0 1 0
vn 0 1 0
vn 0 1 0
vn 0 1 0
vn 0 1 0
vn 0 1 0
vn 0 1 0
vn 0 1 0
vn 0 1 0
vn 0 1 0
vn 0 1 0
vn 0 1 0
vn 0 1 0
vn 0 1 0
vn 0 1 0
vn 0 1 0
vn 0 1 0
vn 0 1 0
vn 0 1 0
vn 0 1 0
vn 0 1 0
vn 0 1 0
vn 0 1 0
vn 0 1 0
vn 0 1 0
vn 0 1 0
vn 0 1 0
vn 0 1 0
vn 0 1 0
vn 0 1 0
vn 0 1 0
vn 0 1 0
vn 0 1 0
vn 0 1 0
vn 0 1 0
vn 0 1 0
vn 0 1 0
vn 0 1 0
vn 0 1 0
vn 0 1 0
vn 0 1 0
vn 0 1 0
vn 0 1 0
vn 0 1 0
vn 0 1 0
vn 0 1 0
vn 0 1 0
vn 0 1 0
vn 0 1 0
vn 0 1 0
vn 0 1 0
vn 0 1 0
vn 0 1 0
vn 0 1 0
vn 0 1 0
vn 0 1 0
vn 0 1 0
vn 0 1 0
vn 0 1 0
vn 0 1 0
vn 0 1 0
vn 0 1 0
vn 0 1 0
vn 0 1 0
vn 0 1 0
vn 0 1 0
vn 0 1 0
vn 0 1 0
vn 0 1 0
vn 0 1 0
vn 0 1 0
vn 0 1 0
vn 0 1 0
vn 0 1 0
vn 0 1 0
vn 0 1 0
vn 0 1 0
vn 0 1 0
vn 0 1 0
vn 0 1 0
vn 0 1 0
vn 0 1 0
vn 0 1 0
vn 0 1 0
vn 0 1 0
vn 0 1 0
vn 0 1 0
vn 0 1 0
vn 0 1 0
vn 0 1 0
vn 0 1 0
vn 0 1 0
vn 0 1 0
vn 0 1 0
vn 0 1 0
vn 0 1 0
vn 0 1 0
vn 0 1 0
vn 0 1 0
vn 0 1 0
vn 0 1 0
vn 0 1 0
vn 0 1 0
vn 0 1 0
vn 0 1 0
vn 0 1 0
g Grass_2_Cluster99_0
f 2/2/2 3/3/3 1/1/1
f 2/2/2 4/4/4 3/3/3
f 6/6/6 7/7/7 5/5/5
f 6/6/6 8/8/8 7/7/7
f 10/10/10 11/11/11 9/9/9
f 10/10/10 12/12/12 11/11/11
f 14/14/14 15/15/15 13/13/13
f 14/14/14 16/16/16 15/15/15
f 18/18/18 19/19/19 17/17/17
f 18/18/18 20/20/20 19/19/19
f 22/22/22 23/23/23 21/21/21
f 22/22/22 24/24/24 23/23/23
f 26/26/26 27/27/27 25/25/25
f 26/26/26 28/28/28 27/27/27
f 30/30/30 31/31/31 29/29/29
f 30/30/30 32/32/32 31/31/31
f 34/34/34 35/35/35 33/33/33
f 34/34/34 36/36/36 35/35/35
f 38/38/38 39/39/39 37/37/37
f 38/38/38 40/40/40 39/39/39
f 42/42/42 43/43/43 41/41/41
f 42/42/42 44/44/44 43/43/43
f 46/46/46 47/47/47 45/45/45
f 46/46/46 48/48/48 47/47/47
f 50/50/50 51/51/51 49/49/49
f 50/50/50 52/52/52 51/51/51
f 54/54/54 55/55/55 53/53/53
f 54/54/54 56/56/56 55/55/55
f 58/58/58 59/59/59 57/57/57
f 58/58/58 60/60/60 59/59/59
f 62/62/62 63/63/63 61/61/61
f 62/62/62 64/64/64 63/63/63
f 66/66/66 67/67/67 65/65/65
f 66/66/66 68/68/68 67/67/67
f 70/70/70 71/71/71 69/69/69
f 70/70/70 72/72/72 71/71/71
f 74/74/74 75/75/75 73/73/73
f 74/74/74 76/76/76 75/75/75
f 78/78/78 79/79/79 77/77/77
f 78/78/78 80/80/80 79/79/79
f 82/82/82 83/83/83 81/81/81
f 82/82/82 84/84/84 83/83/83
f 86/86/86 87/87/87 85/85/85
f 86/86/86 88/88/88 87/87/87
f 90/90/90 91/91/91 89/89/89
f 90/90/90 92/92/92 91/91/91
f 94/94/94 95/95/95 93/93/93
f 94/94/94 96/96/96 95/95/95
f 98/98/98 99/99/99 97/97/97
f 98/98/98 100/100/100 99/99/99
f 102/102/102 103/103/103 101/101/101
f 102/102/102 104/104/104 103/103/103
f 106/106/106 107/107/107 105/105/105
f 106/106/106 108/108/108 107/107/107
f 110/110/110 111/111/111 109/109/109
f 110/110/110 112/112/112 111/111/111
f 114/114/114 115/115/115 113/113/113
f 114/114/114 116/116/116 115/115/115
f 118/118/118 119/119/119 117/117/117
f 118/118/118 120/120/120 119/119/119
f 122/122/122 123/123/123 121/121/121
f 122/122/122 124/124/124 123/123/123
