g Grass_2_Cluster282
v 224.7948 -0.2811737 408.3841
v 223.5335 -0.2811737 408.3841
v 224.7948 -0.2811737 409.6454
v 223.5335 -0.2811737 409.6454
v 212.1817 -0.2811737 407.7534
v 210.9204 -0.2811737 407.7534
v 212.1817 -0.2811737 408.3841
v 210.9204 -0.2811737 408.3841
v 224.7948 -0.2811737 407.1228
v 223.5335 -0.2811737 407.1228
v 224.7948 -0.2811737 408.3841
v 223.5335 -0.2811737 408.3841
v 214.7043 -0.2811737 406.4921
v 213.443 -0.2811737 406.4921
v 214.7043 -0.2811737 407.7534
v 213.443 -0.2811737 407.7534
v 227.3174 -0.2811737 406.4921
v 226.0561 -0.2811737 406.4921
v 227.3174 -0.2811737 407.7534
v 226.0561 -0.2811737 407.7534
v 212.1817 -0.2811737 406.4921
v 211.551 -0.2811737 406.4921
v 212.1817 -0.2811737 407.7534
v 211.551 -0.2811737 407.7534
v 212.8123 -0.2811737 406.4921
v 212.1817 -0.2811737 406.4921
v 212.8123 -0.2811737 407.7534
v 212.1817 -0.2811737 407.7534
v 214.0737 -0.2811737 406.4921
v 213.443 -0.2811737 406.4921
v 214.0737 -0.2811737 407.1228
v 213.443 -0.2811737 407.1228
v 212.1817 -0.2811737 405.2308
v 211.551 -0.2811737 405.2308
v 212.1817 -0.2811737 406.4921
v 211.551 -0.2811737 406.4921
v 212.8123 -0.2811737 405.2308
v 212.1817 -0.2811737 405.2308
v 212.8123 -0.2811737 405.8615
v 212.1817 -0.2811737 405.8615
v 214.0737 -0.2811737 405.2308
v 212.8123 -0.2811737 405.2308
v 214.0737 -0.2811737 405.8615
v 212.8123 -0.2811737 405.8615
v 210.9204 -0.2811737 403.9695
v 209.6591 -0.2811737 403.9695
v 210.9204 -0.2811737 405.2308
v 209.6591 -0.2811737 405.2308
v 213.443 -0.2811737 403.9695
v 212.8123 -0.2811737 403.9695
v 213.443 -0.2811737 404.6002
v 212.8123 -0.2811737 404.6002
v 210.9204 -0.2811737 403.3389
v 209.6591 -0.2811737 403.3389
v 210.9204 -0.2811737 404.6002
v 209.6591 -0.2811737 404.6002
v 215.9656 -0.2811737 403.3389
v 214.7043 -0.2811737 403.3389
v 215.9656 -0.2811737 403.9695
v 214.7043 -0.2811737 403.9695
v 219.7496 -0.2811737 393.2484
v 219.1189 -0.2811737 393.2484
v 219.7496 -0.2811737 394.5096
v 219.1189 -0.2811737 394.5096
v 226.6868 -0.2811737 387.5724
v 225.4255 -0.2811737 387.5724
v 226.6868 -0.2811737 388.8337
v 225.4255 -0.2811737 388.8337
v 235.516 -0.2811737 386.9418
v 234.2547 -0.2811737 386.9418
v 235.516 -0.2811737 388.2031
v 234.2547 -0.2811737 388.2031
v 231.732 -0.2811737 385.6805
v 230.4707 -0.2811737 385.6805
v 231.732 -0.2811737 386.3111
v 230.4707 -0.2811737 386.3111
v 232.9933 -0.2811737 383.7885
v 232.3627 -0.2811737 383.7885
v 232.9933 -0.2811737 385.0498
v 232.3627 -0.2811737 385.0498
vt 0.1347656 0.9185662
vt 0.2060202 0.9185662
vt 0.1347656 1
vt 0.2060202 1
vt 0.1347656 0.9185662
vt 0.2060202 0.9185662
vt 0.1347656 1
vt 0.2060202 1
vt 0.1347656 0.9185662
vt 0.2060202 0.9185662
vt 0.1347656 1
vt 0.2060202 1
vt 0.1347656 0.9185662
vt 0.2060202 0.9185662
vt 0.1347656 1
vt 0.2060202 1
vt 0.1347656 0.9185662
vt 0.2060202 0.9185662
vt 0.1347656 1
vt 0.2060202 1
vt 0.1347656 0.9185662
vt 0.2060202 0.9185662
vt 0.1347656 1
vt 0.2060202 1
vt 0.1347656 0.9185662
vt 0.2060202 0.9185662
vt 0.1347656 1
vt 0.2060202 1
vt 0.1347656 0.9185662
vt 0.2060202 0.9185662
vt 0.1347656 1
vt 0.2060202 1
vt 0.1347656 0.9185662
vt 0.2060202 0.9185662
vt 0.1347656 1
vt 0.2060202 1
vt 0.1347656 0.9185662
vt 0.2060202 0.9185662
vt 0.1347656 1
vt 0.2060202 1
vt 0.1347656 0.9185662
vt 0.2060202 0.9185662
vt 0.1347656 1
vt 0.2060202 1
vt 0.1347656 0.9185662
vt 0.2060202 0.9185662
vt 0.1347656 1
vt 0.2060202 1
vt 0.1347656 0.9185662
vt 0.2060202 0.9185662
vt 0.1347656 1
vt 0.2060202 1
vt 0.1347656 0.9185662
vt 0.2060202 0.9185662
vt 0.1347656 1
vt 0.2060202 1
vt 0.1347656 0.9185662
vt 0.2060202 0.9185662
vt 0.1347656 1
vt 0.2060202 1
vt 0.1347656 0.9185662
vt 0.2060202 0.9185662
vt 0.1347656 1
vt 0.2060202 1
vt 0.1347656 0.9185662
vt 0.2060202 0.9185662
vt 0.1347656 1
vt 0.2060202 1
vt 0.1347656 0.9185662
vt 0.2060202 0.9185662
vt 0.1347656 1
vt 0.2060202 1
vt 0.1347656 0.9185662
vt 0.2060202 0.9185662
vt 0.1347656 1
vt 0.2060202 1
vt 0.1347656 0.9185662
vt 0.2060202 0.9185662
vt 0.1347656 1
vt 0.2060202 1
vn 0 1 0
vn 0 1 0
vn 0 1 0
vn 0 1 0
vn 0 1 0
vn 0 1 0
vn 0 1 0
vn 0 1 0
vn 0 1 0
vn 0 1 0
vn 0 1 0
vn 0 1 0
vn 0 1 0
vn 0 1 0
vn 0 1 0
vn 0 1 0
vn 0 1 0
vn 0 1 0
vn 0 1 0
vn 0 1 0
vn 0 1 0
vn 0 1 0
vn 0 1 0
vn 0 1 0
vn 0 1 0
vn 0 1 0
vn 0 1 0
vn 0 1 0
vn 0 1 0
vn 0 1 0
vn 0 1 0
vn 0 1 0
vn 0 1 0
vn 0 1 0
vn 0 1 0
vn 0 1 0
vn 0 1 0
vn 0 1 0
vn 0 1 0
vn 0 1 0
vn 0 1 0
vn 0 1 0
vn 0 1 0
vn 0 1 0
vn 0 1 0
vn 0 1 0
vn 0 1 0
vn 0 1 0
vn 0 1 0
vn 0 1 0
vn 0 1 0
vn 0 1 0
vn 0 1 0
vn 0 1 0
vn 0 1 0
vn 0 1 0
vn 0 1 0
vn 0 1 0
vn 0 1 0
vn 0 1 0
vn 0 1 0
vn 0 1 0
vn 0 1 0
vn 0 1 0
vn 0 1 0
vn 0 1 0
vn 0 1 0
vn 0 1 0
vn 0 1 0
vn 0 1 0
vn 0 1 0
vn 0 1 0
vn 0 1 0
vn 0 1 0
vn 0 1 0
vn 0 1 0
vn 0 1 0
vn 0 1 0
vn 0 1 0
vn 0 1 0
g Grass_2_Cluster282_0
f 2/2/2 3/3/3 1/1/1
f 2/2/2 4/4/4 3/3/3
f 6/6/6 7/7/7 5/5/5
f 6/6/6 8/8/8 7/7/7
f 10/10/10 11/11/11 9/9/9
f 10/10/10 12/12/12 11/11/11
f 14/14/14 15/15/15 13/13/13
f 14/14/14 16/16/16 15/15/15
f 18/18/18 19/19/19 17/17/17
f 18/18/18 20/20/20 19/19/19
f 22/22/22 23/23/23 21/21/21
f 22/22/22 24/24/24 23/23/23
f 26/26/26 27/27/27 25/25/25
f 26/26/26 28/28/28 27/27/27
f 30/30/30 31/31/31 29/29/29
f 30/30/30 32/32/32 31/31/31
f 34/34/34 35/35/35 33/33/33
f 34/34/34 36/36/36 35/35/35
f 38/38/38 39/39/39 37/37/37
f 38/38/38 40/40/40 39/39/39
f 42/42/42 43/43/43 41/41/41
f 42/42/42 44/44/44 43/43/43
f 46/46/46 47/47/47 45/45/45
f 46/46/46 48/48/48 47/47/47
f 50/50/50 51/51/51 49/49/49
f 50/50/50 52/52/52 51/51/51
f 54/54/54 55/55/55 53/53/53
f 54/54/54 56/56/56 55/55/55
f 58/58/58 59/59/59 57/57/57
f 58/58/58 60/60/60 59/59/59
f 62/62/62 63/63/63 61/61/61
f 62/62/62 64/64/64 63/63/63
f 66/66/66 67/67/67 65/65/65
f 66/66/66 68/68/68 67/67/67
f 70/70/70 71/71/71 69/69/69
f 70/70/70 72/72/72 71/71/71
f 74/74/74 75/75/75 73/73/73
f 74/74/74 76/76/76 75/75/75
f 78/78/78 79/79/79 77/77/77
f 78/78/78 80/80/80 79/79/79
