g Grass_0_Cluster166
v 119.3853 0.1428375 232.6165
v 118.6924 0.1428375 232.6165
v 119.3853 0.1428375 234.0023
v 118.6924 0.1428375 234.0023
v 111.7633 0.1428375 232.6165
v 111.0703 0.1428375 232.6165
v 111.7633 0.1428375 234.0023
v 111.0703 0.1428375 234.0023
v 103.4482 0.1428375 230.8842
v 102.4089 0.1428375 230.8842
v 103.4482 0.1428375 232.27
v 102.4089 0.1428375 232.27
v 118.346 0.1428375 227.4196
v 117.653 0.1428375 227.4196
v 118.346 0.1428375 228.8055
v 117.653 0.1428375 228.8055
v 119.7318 0.1428375 224.9944
v 118.6924 0.1428375 224.9944
v 119.7318 0.1428375 226.3802
v 118.6924 0.1428375 226.3802
v 120.4247 0.1428375 223.955
v 119.3853 0.1428375 223.955
v 120.4247 0.1428375 224.9944
v 119.3853 0.1428375 224.9944
v 108.2987 0.1428375 223.6086
v 107.6058 0.1428375 223.6086
v 108.2987 0.1428375 224.9944
v 107.6058 0.1428375 224.9944
v 114.8814 0.1428375 223.6086
v 113.842 0.1428375 223.6086
v 114.8814 0.1428375 224.9944
v 113.842 0.1428375 224.9944
v 118.6924 0.1428375 223.6086
v 117.9995 0.1428375 223.6086
v 118.6924 0.1428375 224.6479
v 117.9995 0.1428375 224.6479
v 97.21199 0.1428375 222.9156
v 96.17262 0.1428375 222.9156
v 97.21199 0.1428375 224.3015
v 96.17262 0.1428375 224.3015
v 120.0783 0.1428375 221.1833
v 119.0389 0.1428375 221.1833
v 120.0783 0.1428375 222.5692
v 119.0389 0.1428375 222.5692
v 119.7318 0.1428375 220.4904
v 118.6924 0.1428375 220.4904
v 119.7318 0.1428375 221.8763
v 118.6924 0.1428375 221.8763
v 118.346 0.1428375 220.144
v 117.653 0.1428375 220.144
v 118.346 0.1428375 221.5298
v 117.653 0.1428375 221.5298
v 108.2987 0.1428375 219.7975
v 107.2593 0.1428375 219.7975
v 108.2987 0.1428375 221.1833
v 107.2593 0.1428375 221.1833
v 95.47971 0.1428375 219.7975
v 94.44032 0.1428375 219.7975
v 95.47971 0.1428375 221.1833
v 94.44032 0.1428375 221.1833
v 120.4247 0.1428375 217.7188
v 119.3853 0.1428375 217.7188
v 120.4247 0.1428375 218.7581
v 119.3853 0.1428375 218.7581
v 114.8814 0.1428375 215.2935
v 113.842 0.1428375 215.2935
v 114.8814 0.1428375 216.6794
v 113.842 0.1428375 216.6794
v 120.0783 0.1428375 213.9077
v 119.3853 0.1428375 213.9077
v 120.0783 0.1428375 215.2935
v 119.3853 0.1428375 215.2935
v 117.9995 0.1428375 213.5613
v 117.3066 0.1428375 213.5613
v 117.9995 0.1428375 214.6006
v 117.3066 0.1428375 214.6006
v 119.7318 0.1428375 213.2148
v 119.0389 0.1428375 213.2148
v 119.7318 0.1428375 214.6006
v 119.0389 0.1428375 214.6006
v 98.59782 0.1428375 202.821
v 97.90491 0.1428375 202.821
v 98.59782 0.1428375 204.2069
v 97.90491 0.1428375 204.2069
vt 0 0.9058824
vt 0.06666667 0.9058824
vt 0 1
vt 0.06666667 1
vt 0 0.9058824
vt 0.06666667 0.9058824
vt 0 1
vt 0.06666667 1
vt 0 0.9058824
vt 0.06666667 0.9058824
vt 0 1
vt 0.06666667 1
vt 0 0.9058824
vt 0.06666667 0.9058824
vt 0 1
vt 0.06666667 1
vt 0 0.9058824
vt 0.06666667 0.9058824
vt 0 1
vt 0.06666667 1
vt 0 0.9058824
vt 0.06666667 0.9058824
vt 0 1
vt 0.06666667 1
vt 0 0.9058824
vt 0.06666667 0.9058824
vt 0 1
vt 0.06666667 1
vt 0 0.9058824
vt 0.06666667 0.9058824
vt 0 1
vt 0.06666667 1
vt 0 0.9058824
vt 0.06666667 0.9058824
vt 0 1
vt 0.06666667 1
vt 0 0.9058824
vt 0.06666667 0.9058824
vt 0 1
vt 0.06666667 1
vt 0 0.9058824
vt 0.06666667 0.9058824
vt 0 1
vt 0.06666667 1
vt 0 0.9058824
vt 0.06666667 0.9058824
vt 0 1
vt 0.06666667 1
vt 0 0.9058824
vt 0.06666667 0.9058824
vt 0 1
vt 0.06666667 1
vt 0 0.9058824
vt 0.06666667 0.9058824
vt 0 1
vt 0.06666667 1
vt 0 0.9058824
vt 0.06666667 0.9058824
vt 0 1
vt 0.06666667 1
vt 0 0.9058824
vt 0.06666667 0.9058824
vt 0 1
vt 0.06666667 1
vt 0 0.9058824
vt 0.06666667 0.9058824
vt 0 1
vt 0.06666667 1
vt 0 0.9058824
vt 0.06666667 0.9058824
vt 0 1
vt 0.06666667 1
vt 0 0.9058824
vt 0.06666667 0.9058824
vt 0 1
vt 0.06666667 1
vt 0 0.9058824
vt 0.06666667 0.9058824
vt 0 1
vt 0.06666667 1
vt 0 0.9058824
vt 0.06666667 0.9058824
vt 0 1
vt 0.06666667 1
vn 0 1 0
vn 0 1 0
vn 0 1 0
vn 0 1 0
vn 0 1 0
vn 0 1 0
vn 0 1 0
vn 0 1 0
vn 0 1 0
vn 0 1 0
vn 0 1 0
vn 0 1 0
vn 0 1 0
vn 0 1 0
vn 0 1 0
vn 0 1 0
vn 0 1 0
vn 0 1 0
vn 0 1 0
vn 0 1 0
vn 0 1 0
vn 0 1 0
vn 0 1 0
vn 0 1 0
vn 0 1 0
vn 0 1 0
vn 0 1 0
vn 0 1 0
vn 0 1 0
vn 0 1 0
vn 0 1 0
vn 0 1 0
vn 0 1 0
vn 0 1 0
vn 0 1 0
vn 0 1 0
vn 0 1 0
vn 0 1 0
vn 0 1 0
vn 0 1 0
vn 0 1 0
vn 0 1 0
vn 0 1 0
vn 0 1 0
vn 0 1 0
vn 0 1 0
vn 0 1 0
vn 0 1 0
vn 0 1 0
vn 0 1 0
vn 0 1 0
vn 0 1 0
vn 0 1 0
vn 0 1 0
vn 0 1 0
vn 0 1 0
vn 0 1 0
vn 0 1 0
vn 0 1 0
vn 0 1 0
vn 0 1 0
vn 0 1 0
vn 0 1 0
vn 0 1 0
vn 0 1 0
vn 0 1 0
vn 0 1 0
vn 0 1 0
vn 0 1 0
vn 0 1 0
vn 0 1 0
vn 0 1 0
vn 0 1 0
vn 0 1 0
vn 0 1 0
vn 0 1 0
vn 0 1 0
vn 0 1 0
vn 0 1 0
vn 0 1 0
vn 0 1 0
vn 0 1 0
vn 0 1 0
vn 0 1 0
g Grass_0_Cluster166_0
f 2/2/2 3/3/3 1/1/1
f 2/2/2 4/4/4 3/3/3
f 6/6/6 7/7/7 5/5/5
f 6/6/6 8/8/8 7/7/7
f 10/10/10 11/11/11 9/9/9
f 10/10/10 12/12/12 11/11/11
f 14/14/14 15/15/15 13/13/13
f 14/14/14 16/16/16 15/15/15
f 18/18/18 19/19/19 17/17/17
f 18/18/18 20/20/20 19/19/19
f 22/22/22 23/23/23 21/21/21
f 22/22/22 24/24/24 23/23/23
f 26/26/26 27/27/27 25/25/25
f 26/26/26 28/28/28 27/27/27
f 30/30/30 31/31/31 29/29/29
f 30/30/30 32/32/32 31/31/31
f 34/34/34 35/35/35 33/33/33
f 34/34/34 36/36/36 35/35/35
f 38/38/38 39/39/39 37/37/37
f 38/38/38 40/40/40 39/39/39
f 42/42/42 43/43/43 41/41/41
f 42/42/42 44/44/44 43/43/43
f 46/46/46 47/47/47 45/45/45
f 46/46/46 48/48/48 47/47/47
f 50/50/50 51/51/51 49/49/49
f 50/50/50 52/52/52 51/51/51
f 54/54/54 55/55/55 53/53/53
f 54/54/54 56/56/56 55/55/55
f 58/58/58 59/59/59 57/57/57
f 58/58/58 60/60/60 59/59/59
f 62/62/62 63/63/63 61/61/61
f 62/62/62 64/64/64 63/63/63
f 66/66/66 67/67/67 65/65/65
f 66/66/66 68/68/68 67/67/67
f 70/70/70 71/71/71 69/69/69
f 70/70/70 72/72/72 71/71/71
f 74/74/74 75/75/75 73/73/73
f 74/74/74 76/76/76 75/75/75
f 78/78/78 79/79/79 77/77/77
f 78/78/78 80/80/80 79/79/79
f 82/82/82 83/83/83 81/81/81
f 82/82/82 84/84/84 83/83/83
