g Grass_2_Cluster138
v -262.9412 0 168.8638
v -263.9983 0 168.8638
v -262.9412 0 169.9208
v -263.9983 0 169.9208
v -245.7642 0 152.7437
v -246.8212 0 152.7437
v -245.7642 0 154.0651
v -246.8212 0 154.0651
v -241.0074 0 150.8939
v -242.0645 0 150.8939
v -241.0074 0 152.2152
v -242.0645 0 152.2152
v -269.2835 0 147.987
v -270.3406 0 147.987
v -269.2835 0 149.0441
v -270.3406 0 149.0441
v -269.2835 0 147.1942
v -270.0763 0 147.1942
v -269.2835 0 148.2513
v -270.0763 0 148.2513
v -257.9202 0 146.93
v -258.713 0 146.93
v -257.9202 0 147.987
v -258.713 0 147.987
v -258.713 0 146.93
v -259.7701 0 146.93
v -258.713 0 147.987
v -259.7701 0 147.987
v -257.3917 0 146.4014
v -258.1845 0 146.4014
v -257.3917 0 147.7228
v -258.1845 0 147.7228
v -258.4488 0 145.8729
v -259.5058 0 145.8729
v -258.4488 0 146.93
v -259.5058 0 146.93
v -260.2986 0 145.6087
v -261.3557 0 145.6087
v -260.2986 0 146.93
v -261.3557 0 146.93
v -255.2776 0 145.3444
v -256.0704 0 145.3444
v -255.2776 0 146.4014
v -256.0704 0 146.4014
v -260.8271 0 145.3444
v -261.8842 0 145.3444
v -260.8271 0 146.4014
v -261.8842 0 146.4014
v -258.1845 0 145.3444
v -259.2415 0 145.3444
v -258.1845 0 146.4014
v -259.2415 0 146.4014
v -269.0193 0 145.0801
v -269.812 0 145.0801
v -269.0193 0 146.1372
v -269.812 0 146.1372
v -265.5839 0 144.8159
v -266.6409 0 144.8159
v -265.5839 0 145.8729
v -266.6409 0 145.8729
v -256.3347 0 144.5516
v -257.1274 0 144.5516
v -256.3347 0 145.3444
v -257.1274 0 145.3444
v -259.5058 0 144.2874
v -260.2986 0 144.2874
v -259.5058 0 145.3444
v -260.2986 0 145.3444
v -254.7491 0 144.0231
v -255.5419 0 144.0231
v -254.7491 0 145.0801
v -255.5419 0 145.0801
v -257.1274 0 143.7588
v -257.9202 0 143.7588
v -257.1274 0 144.8159
v -257.9202 0 144.8159
v -256.0704 0 143.7588
v -256.8632 0 143.7588
v -256.0704 0 144.8159
v -256.8632 0 144.8159
v -257.3917 0 143.2303
v -258.4488 0 143.2303
v -257.3917 0 144.2874
v -258.4488 0 144.2874
v -256.5989 0 143.2303
v -257.656 0 143.2303
v -256.5989 0 144.2874
v -257.656 0 144.2874
vt 0.1347656 0.9185662
vt 0.2060202 0.9185662
vt 0.1347656 1
vt 0.2060202 1
vt 0.1347656 0.9185662
vt 0.2060202 0.9185662
vt 0.1347656 1
vt 0.2060202 1
vt 0.1347656 0.9185662
vt 0.2060202 0.9185662
vt 0.1347656 1
vt 0.2060202 1
vt 0.1347656 0.9185662
vt 0.2060202 0.9185662
vt 0.1347656 1
vt 0.2060202 1
vt 0.1347656 0.9185662
vt 0.2060202 0.9185662
vt 0.1347656 1
vt 0.2060202 1
vt 0.1347656 0.9185662
vt 0.2060202 0.9185662
vt 0.1347656 1
vt 0.2060202 1
vt 0.1347656 0.9185662
vt 0.2060202 0.9185662
vt 0.1347656 1
vt 0.2060202 1
vt 0.1347656 0.9185662
vt 0.2060202 0.9185662
vt 0.1347656 1
vt 0.2060202 1
vt 0.1347656 0.9185662
vt 0.2060202 0.9185662
vt 0.1347656 1
vt 0.2060202 1
vt 0.1347656 0.9185662
vt 0.2060202 0.9185662
vt 0.1347656 1
vt 0.2060202 1
vt 0.1347656 0.9185662
vt 0.2060202 0.9185662
vt 0.1347656 1
vt 0.2060202 1
vt 0.1347656 0.9185662
vt 0.2060202 0.9185662
vt 0.1347656 1
vt 0.2060202 1
vt 0.1347656 0.9185662
vt 0.2060202 0.9185662
vt 0.1347656 1
vt 0.2060202 1
vt 0.1347656 0.9185662
vt 0.2060202 0.9185662
vt 0.1347656 1
vt 0.2060202 1
vt 0.1347656 0.9185662
vt 0.2060202 0.9185662
vt 0.1347656 1
vt 0.2060202 1
vt 0.1347656 0.9185662
vt 0.2060202 0.9185662
vt 0.1347656 1
vt 0.2060202 1
vt 0.1347656 0.9185662
vt 0.2060202 0.9185662
vt 0.1347656 1
vt 0.2060202 1
vt 0.1347656 0.9185662
vt 0.2060202 0.9185662
vt 0.1347656 1
vt 0.2060202 1
vt 0.1347656 0.9185662
vt 0.2060202 0.9185662
vt 0.1347656 1
vt 0.2060202 1
vt 0.1347656 0.9185662
vt 0.2060202 0.9185662
vt 0.1347656 1
vt 0.2060202 1
vt 0.1347656 0.9185662
vt 0.2060202 0.9185662
vt 0.1347656 1
vt 0.2060202 1
vt 0.1347656 0.9185662
vt 0.2060202 0.9185662
vt 0.1347656 1
vt 0.2060202 1
vn 0 1 0
vn 0 1 0
vn 0 1 0
vn 0 1 0
vn 0 1 0
vn 0 1 0
vn 0 1 0
vn 0 1 0
vn 0 1 0
vn 0 1 0
vn 0 1 0
vn 0 1 0
vn 0 1 0
vn 0 1 0
vn 0 1 0
vn 0 1 0
vn 0 1 0
vn 0 1 0
vn 0 1 0
vn 0 1 0
vn 0 1 0
vn 0 1 0
vn 0 1 0
vn 0 1 0
vn 0 1 0
vn 0 1 0
vn 0 1 0
vn 0 1 0
vn 0 1 0
vn 0 1 0
vn 0 1 0
vn 0 1 0
vn 0 1 0
vn 0 1 0
vn 0 1 0
vn 0 1 0
vn 0 1 0
vn 0 1 0
vn 0 1 0
vn 0 1 0
vn 0 1 0
vn 0 1 0
vn 0 1 0
vn 0 1 0
vn 0 1 0
vn 0 1 0
vn 0 1 0
vn 0 1 0
vn 0 1 0
vn 0 1 0
vn 0 1 0
vn 0 1 0
vn 0 1 0
vn 0 1 0
vn 0 1 0
vn 0 1 0
vn 0 1 0
vn 0 1 0
vn 0 1 0
vn 0 1 0
vn 0 1 0
vn 0 1 0
vn 0 1 0
vn 0 1 0
vn 0 1 0
vn 0 1 0
vn 0 1 0
vn 0 1 0
vn 0 1 0
vn 0 1 0
vn 0 1 0
vn 0 1 0
vn 0 1 0
vn 0 1 0
vn 0 1 0
vn 0 1 0
vn 0 1 0
vn 0 1 0
vn 0 1 0
vn 0 1 0
vn 0 1 0
vn 0 1 0
vn 0 1 0
vn 0 1 0
vn 0 1 0
vn 0 1 0
vn 0 1 0
vn 0 1 0
g Grass_2_Cluster138_0
f 2/2/2 3/3/3 1/1/1
f 2/2/2 4/4/4 3/3/3
f 6/6/6 7/7/7 5/5/5
f 6/6/6 8/8/8 7/7/7
f 10/10/10 11/11/11 9/9/9
f 10/10/10 12/12/12 11/11/11
f 14/14/14 15/15/15 13/13/13
f 14/14/14 16/16/16 15/15/15
f 18/18/18 19/19/19 17/17/17
f 18/18/18 20/20/20 19/19/19
f 22/22/22 23/23/23 21/21/21
f 22/22/22 24/24/24 23/23/23
f 26/26/26 27/27/27 25/25/25
f 26/26/26 28/28/28 27/27/27
f 30/30/30 31/31/31 29/29/29
f 30/30/30 32/32/32 31/31/31
f 34/34/34 35/35/35 33/33/33
f 34/34/34 36/36/36 35/35/35
f 38/38/38 39/39/39 37/37/37
f 38/38/38 40/40/40 39/39/39
f 42/42/42 43/43/43 41/41/41
f 42/42/42 44/44/44 43/43/43
f 46/46/46 47/47/47 45/45/45
f 46/46/46 48/48/48 47/47/47
f 50/50/50 51/51/51 49/49/49
f 50/50/50 52/52/52 51/51/51
f 54/54/54 55/55/55 53/53/53
f 54/54/54 56/56/56 55/55/55
f 58/58/58 59/59/59 57/57/57
f 58/58/58 60/60/60 59/59/59
f 62/62/62 63/63/63 61/61/61
f 62/62/62 64/64/64 63/63/63
f 66/66/66 67/67/67 65/65/65
f 66/66/66 68/68/68 67/67/67
f 70/70/70 71/71/71 69/69/69
f 70/70/70 72/72/72 71/71/71
f 74/74/74 75/75/75 73/73/73
f 74/74/74 76/76/76 75/75/75
f 78/78/78 79/79/79 77/77/77
f 78/78/78 80/80/80 79/79/79
f 82/82/82 83/83/83 81/81/81
f 82/82/82 84/84/84 83/83/83
f 86/86/86 87/87/87 85/85/85
f 86/86/86 88/88/88 87/87/87
