g Grass_1_Cluster20
v 290.8003 0.07055664 22.63812
v 289.86 0.07055664 22.63812
v 290.8003 0.07055664 23.57843
v 289.86 0.07055664 23.57843
v 291.4272 0.07055664 21.69778
v 290.4869 0.07055664 21.69778
v 291.4272 0.07055664 22.32468
v 290.4869 0.07055664 22.32468
v 278.8896 0.07055664 20.75748
v 278.2628 0.07055664 20.75748
v 278.8896 0.07055664 21.38437
v 278.2628 0.07055664 21.38437
v 294.5616 0.07055664 20.44403
v 293.6213 0.07055664 20.44403
v 294.5616 0.07055664 21.07092
v 293.6213 0.07055664 21.07092
v 294.5616 0.07055664 20.44403
v 293.6213 0.07055664 20.44403
v 294.5616 0.07055664 21.07092
v 293.6213 0.07055664 21.07092
v 280.4568 0.07055664 19.19028
v 279.5165 0.07055664 19.19028
v 280.4568 0.07055664 20.13062
v 279.5165 0.07055664 20.13062
v 292.3675 0.07055664 18.24997
v 291.4272 0.07055664 18.24997
v 292.3675 0.07055664 19.19028
v 291.4272 0.07055664 19.19028
v 277.9493 0.07055664 16.05591
v 277.009 0.07055664 16.05591
v 277.9493 0.07055664 16.99622
v 277.009 0.07055664 16.99622
v 275.4418 0.07055664 13.5484
v 274.5015 0.07055664 13.5484
v 275.4418 0.07055664 14.17526
v 274.5015 0.07055664 14.17526
v 274.5015 0.07055664 12.92151
v 273.5612 0.07055664 12.92151
v 274.5015 0.07055664 13.86185
v 273.5612 0.07055664 13.86185
v 276.3821 0.07055664 12.60809
v 275.4418 0.07055664 12.60809
v 276.3821 0.07055664 13.23495
v 275.4418 0.07055664 13.23495
v 277.6359 0.07055664 11.9812
v 276.6956 0.07055664 11.9812
v 277.6359 0.07055664 12.92151
v 276.6956 0.07055664 12.92151
v 275.7553 0.07055664 9.78714
v 274.815 0.07055664 9.78714
v 275.7553 0.07055664 10.414
v 274.815 0.07055664 10.414
v 275.1284 0.07055664 7.279633
v 274.1881 0.07055664 7.279633
v 275.1284 0.07055664 8.21994
v 274.1881 0.07055664 8.21994
v 276.0687 0.07055664 2.264618
v 275.1284 0.07055664 2.264618
v 276.0687 0.07055664 3.204926
v 275.1284 0.07055664 3.204926
v 284.845 0.07055664 1.951172
v 283.9047 0.07055664 1.951172
v 284.845 0.07055664 2.578064
v 283.9047 0.07055664 2.578064
v 279.83 0.07055664 1.010864
v 278.8896 0.07055664 1.010864
v 279.83 0.07055664 1.951172
v 278.8896 0.07055664 1.951172
v 282.024 0.07055664 0.6974182
v 281.0837 0.07055664 0.6974182
v 282.024 0.07055664 1.32431
v 281.0837 0.07055664 1.32431
v 287.3525 0.07055664 0.3839722
v 286.4122 0.07055664 0.3839722
v 287.3525 0.07055664 1.32431
v 286.4122 0.07055664 1.32431
v 279.83 0.07055664 -0.5563354
v 278.8896 0.07055664 -0.5563354
v 279.83 0.07055664 0.3839722
v 278.8896 0.07055664 0.3839722
v 285.7853 0.07055664 -0.8697815
v 284.845 0.07055664 -0.8697815
v 285.7853 0.07055664 0.07055664
v 284.845 0.07055664 0.07055664
v 286.7256 0.07055664 -1.810089
v 285.7853 0.07055664 -1.810089
v 286.7256 0.07055664 -0.8697815
v 285.7853 0.07055664 -0.8697815
v 285.7853 0.07055664 -2.750397
v 285.1584 0.07055664 -2.750397
v 285.7853 0.07055664 -1.810089
v 285.1584 0.07055664 -1.810089
v 297.0691 0.07055664 -3.690704
v 296.1288 0.07055664 -3.690704
v 297.0691 0.07055664 -2.750397
v 296.1288 0.07055664 -2.750397
v 286.7256 0.07055664 -5.884796
v 285.7853 0.07055664 -5.884796
v 286.7256 0.07055664 -4.944458
v 285.7853 0.07055664 -4.944458
vt 0.06738281 0.9369141
vt 0.1331457 0.9369141
vt 0.06738281 0.9990234
vt 0.1331457 0.9990234
vt 0.06738281 0.9369141
vt 0.1331457 0.9369141
vt 0.06738281 0.9990234
vt 0.1331457 0.9990234
vt 0.06738281 0.9369141
vt 0.1331457 0.9369141
vt 0.06738281 0.9990234
vt 0.1331457 0.9990234
vt 0.06738281 0.9369141
vt 0.1331457 0.9369141
vt 0.06738281 0.9990234
vt 0.1331457 0.9990234
vt 0.06738281 0.9369141
vt 0.1331457 0.9369141
vt 0.06738281 0.9990234
vt 0.1331457 0.9990234
vt 0.06738281 0.9369141
vt 0.1331457 0.9369141
vt 0.06738281 0.9990234
vt 0.1331457 0.9990234
vt 0.06738281 0.9369141
vt 0.1331457 0.9369141
vt 0.06738281 0.9990234
vt 0.1331457 0.9990234
vt 0.06738281 0.9369141
vt 0.1331457 0.9369141
vt 0.06738281 0.9990234
vt 0.1331457 0.9990234
vt 0.06738281 0.9369141
vt 0.1331457 0.9369141
vt 0.06738281 0.9990234
vt 0.1331457 0.9990234
vt 0.06738281 0.9369141
vt 0.1331457 0.9369141
vt 0.06738281 0.9990234
vt 0.1331457 0.9990234
vt 0.06738281 0.9369141
vt 0.1331457 0.9369141
vt 0.06738281 0.9990234
vt 0.1331457 0.9990234
vt 0.06738281 0.9369141
vt 0.1331457 0.9369141
vt 0.06738281 0.9990234
vt 0.1331457 0.9990234
vt 0.06738281 0.9369141
vt 0.1331457 0.9369141
vt 0.06738281 0.9990234
vt 0.1331457 0.9990234
vt 0.06738281 0.9369141
vt 0.1331457 0.9369141
vt 0.06738281 0.9990234
vt 0.1331457 0.9990234
vt 0.06738281 0.9369141
vt 0.1331457 0.9369141
vt 0.06738281 0.9990234
vt 0.1331457 0.9990234
vt 0.06738281 0.9369141
vt 0.1331457 0.9369141
vt 0.06738281 0.9990234
vt 0.1331457 0.9990234
vt 0.06738281 0.9369141
vt 0.1331457 0.9369141
vt 0.06738281 0.9990234
vt 0.1331457 0.9990234
vt 0.06738281 0.9369141
vt 0.1331457 0.9369141
vt 0.06738281 0.9990234
vt 0.1331457 0.9990234
vt 0.06738281 0.9369141
vt 0.1331457 0.9369141
vt 0.06738281 0.9990234
vt 0.1331457 0.9990234
vt 0.06738281 0.9369141
vt 0.1331457 0.9369141
vt 0.06738281 0.9990234
vt 0.1331457 0.9990234
vt 0.06738281 0.9369141
vt 0.1331457 0.9369141
vt 0.06738281 0.9990234
vt 0.1331457 0.9990234
vt 0.06738281 0.9369141
vt 0.1331457 0.9369141
vt 0.06738281 0.9990234
vt 0.1331457 0.9990234
vt 0.06738281 0.9369141
vt 0.1331457 0.9369141
vt 0.06738281 0.9990234
vt 0.1331457 0.9990234
vt 0.06738281 0.9369141
vt 0.1331457 0.9369141
vt 0.06738281 0.9990234
vt 0.1331457 0.9990234
vt 0.06738281 0.9369141
vt 0.1331457 0.9369141
vt 0.06738281 0.9990234
vt 0.1331457 0.9990234
vn 0 1 0
vn 0 1 0
vn 0 1 0
vn 0 1 0
vn 0 1 0
vn 0 1 0
vn 0 1 0
vn 0 1 0
vn 0 1 0
vn 0 1 0
vn 0 1 0
vn 0 1 0
vn 0 1 0
vn 0 1 0
vn 0 1 0
vn 0 1 0
vn 0 1 0
vn 0 1 0
vn 0 1 0
vn 0 1 0
vn 0 1 0
vn 0 1 0
vn 0 1 0
vn 0 1 0
vn 0 1 0
vn 0 1 0
vn 0 1 0
vn 0 1 0
vn 0 1 0
vn 0 1 0
vn 0 1 0
vn 0 1 0
vn 0 1 0
vn 0 1 0
vn 0 1 0
vn 0 1 0
vn 0 1 0
vn 0 1 0
vn 0 1 0
vn 0 1 0
vn 0 1 0
vn 0 1 0
vn 0 1 0
vn 0 1 0
vn 0 1 0
vn 0 1 0
vn 0 1 0
vn 0 1 0
vn 0 1 0
vn 0 1 0
vn 0 1 0
vn 0 1 0
vn 0 1 0
vn 0 1 0
vn 0 1 0
vn 0 1 0
vn 0 1 0
vn 0 1 0
vn 0 1 0
vn 0 1 0
vn 0 1 0
vn 0 1 0
vn 0 1 0
vn 0 1 0
vn 0 1 0
vn 0 1 0
vn 0 1 0
vn 0 1 0
vn 0 1 0
vn 0 1 0
vn 0 1 0
vn 0 1 0
vn 0 1 0
vn 0 1 0
vn 0 1 0
vn 0 1 0
vn 0 1 0
vn 0 1 0
vn 0 1 0
vn 0 1 0
vn 0 1 0
vn 0 1 0
vn 0 1 0
vn 0 1 0
vn 0 1 0
vn 0 1 0
vn 0 1 0
vn 0 1 0
vn 0 1 0
vn 0 1 0
vn 0 1 0
vn 0 1 0
vn 0 1 0
vn 0 1 0
vn 0 1 0
vn 0 1 0
vn 0 1 0
vn 0 1 0
vn 0 1 0
vn 0 1 0
g Grass_1_Cluster20_0
f 2/2/2 3/3/3 1/1/1
f 2/2/2 4/4/4 3/3/3
f 6/6/6 7/7/7 5/5/5
f 6/6/6 8/8/8 7/7/7
f 10/10/10 11/11/11 9/9/9
f 10/10/10 12/12/12 11/11/11
f 14/14/14 15/15/15 13/13/13
f 14/14/14 16/16/16 15/15/15
f 18/18/18 19/19/19 17/17/17
f 18/18/18 20/20/20 19/19/19
f 22/22/22 23/23/23 21/21/21
f 22/22/22 24/24/24 23/23/23
f 26/26/26 27/27/27 25/25/25
f 26/26/26 28/28/28 27/27/27
f 30/30/30 31/31/31 29/29/29
f 30/30/30 32/32/32 31/31/31
f 34/34/34 35/35/35 33/33/33
f 34/34/34 36/36/36 35/35/35
f 38/38/38 39/39/39 37/37/37
f 38/38/38 40/40/40 39/39/39
f 42/42/42 43/43/43 41/41/41
f 42/42/42 44/44/44 43/43/43
f 46/46/46 47/47/47 45/45/45
f 46/46/46 48/48/48 47/47/47
f 50/50/50 51/51/51 49/49/49
f 50/50/50 52/52/52 51/51/51
f 54/54/54 55/55/55 53/53/53
f 54/54/54 56/56/56 55/55/55
f 58/58/58 59/59/59 57/57/57
f 58/58/58 60/60/60 59/59/59
f 62/62/62 63/63/63 61/61/61
f 62/62/62 64/64/64 63/63/63
f 66/66/66 67/67/67 65/65/65
f 66/66/66 68/68/68 67/67/67
f 70/70/70 71/71/71 69/69/69
f 70/70/70 72/72/72 71/71/71
f 74/74/74 75/75/75 73/73/73
f 74/74/74 76/76/76 75/75/75
f 78/78/78 79/79/79 77/77/77
f 78/78/78 80/80/80 79/79/79
f 82/82/82 83/83/83 81/81/81
f 82/82/82 84/84/84 83/83/83
f 86/86/86 87/87/87 85/85/85
f 86/86/86 88/88/88 87/87/87
f 90/90/90 91/91/91 89/89/89
f 90/90/90 92/92/92 91/91/91
f 94/94/94 95/95/95 93/93/93
f 94/94/94 96/96/96 95/95/95
f 98/98/98 99/99/99 97/97/97
f 98/98/98 100/100/100 99/99/99
