g Grass_2_Cluster290
v -23.57811 0 407.6216
v -24.37737 0 407.6216
v -23.57811 0 408.8205
v -24.37737 0 408.8205
v -25.57626 0 407.6216
v -26.37551 0 407.6216
v -25.57626 0 408.8205
v -26.37551 0 408.8205
v -20.78071 0 406.8223
v -21.57997 0 406.8223
v -20.78071 0 408.0212
v -21.57997 0 408.0212
v -23.97774 0 406.8223
v -24.777 0 406.8223
v -23.97774 0 408.0212
v -24.777 0 408.0212
v -12.78813 0 406.8223
v -13.58739 0 406.8223
v -12.78813 0 408.0212
v -13.58739 0 408.0212
v -22.37922 0 406.023
v -23.17848 0 406.023
v -22.37922 0 407.2219
v -23.17848 0 407.2219
v -21.18034 0 405.6234
v -21.97959 0 405.6234
v -21.18034 0 406.8223
v -21.97959 0 406.8223
v -18.38293 0 405.2238
v -19.18219 0 405.2238
v -18.38293 0 406.4227
v -19.18219 0 406.4227
v -16.78442 0 404.0249
v -17.9833 0 404.0249
v -16.78442 0 405.2238
v -17.9833 0 405.2238
v -15.98516 0 402.826
v -16.78442 0 402.826
v -15.98516 0 403.6253
v -16.78442 0 403.6253
v -15.1859 0 402.0268
v -15.98516 0 402.0268
v -15.1859 0 403.2256
v -15.98516 0 403.2256
v -13.18776 0 400.8279
v -14.38664 0 400.8279
v -13.18776 0 402.0268
v -14.38664 0 402.0268
v -14.78627 0 400.4283
v -15.58553 0 400.4283
v -14.78627 0 401.6271
v -15.58553 0 401.6271
v -14.78627 0 399.629
v -15.58553 0 399.629
v -14.78627 0 400.8279
v -15.58553 0 400.8279
v -14.78627 0 399.629
v -15.58553 0 399.629
v -14.78627 0 400.4283
v -15.58553 0 400.4283
v -12.78813 0 399.2293
v -13.98701 0 399.2293
v -12.78813 0 400.4283
v -13.98701 0 400.4283
v -15.1859 0 399.2293
v -16.38479 0 399.2293
v -15.1859 0 400.4283
v -16.38479 0 400.4283
v -12.78813 0 398.8297
v -13.58739 0 398.8297
v -12.78813 0 400.0286
v -13.58739 0 400.0286
v -15.58553 0 398.4301
v -16.38479 0 398.4301
v -15.58553 0 399.629
v -16.38479 0 399.629
v -13.58739 0 397.2312
v -14.38664 0 397.2312
v -13.58739 0 398.4301
v -14.38664 0 398.4301
v -12.3885 0 396.0323
v -13.18776 0 396.0323
v -12.3885 0 396.8316
v -13.18776 0 396.8316
v -13.18776 0 388.839
v -13.98701 0 388.839
v -13.18776 0 389.6382
v -13.98701 0 389.6382
v -14.38664 0 388.0397
v -15.1859 0 388.0397
v -14.38664 0 389.2386
v -15.1859 0 389.2386
v -13.58739 0 387.2405
v -14.78627 0 387.2405
v -13.58739 0 388.4394
v -14.78627 0 388.4394
v -12.3885 0 386.8409
v -13.18776 0 386.8409
v -12.3885 0 388.0397
v -13.18776 0 388.0397
v -2.797403 0 386.8409
v -3.596661 0 386.8409
v -2.797403 0 388.0397
v -3.596661 0 388.0397
v -4.795548 0 386.4412
v -5.594806 0 386.4412
v -4.795548 0 387.6401
v -5.594806 0 387.6401
v -23.97774 0 386.4412
v -25.17663 0 386.4412
v -23.97774 0 387.6401
v -25.17663 0 387.6401
v -12.78813 0 386.4412
v -13.58739 0 386.4412
v -12.78813 0 387.6401
v -13.58739 0 387.6401
v -24.37737 0 386.4412
v -25.57626 0 386.4412
v -24.37737 0 387.6401
v -25.57626 0 387.6401
v -11.18961 0 386.4412
v -12.3885 0 386.4412
v -11.18961 0 387.2405
v -12.3885 0 387.2405
v -13.98701 0 386.0416
v -15.1859 0 386.0416
v -13.98701 0 387.2405
v -15.1859 0 387.2405
v -9.990725 0 386.0416
v -10.78998 0 386.0416
v -9.990725 0 386.8409
v -10.78998 0 386.8409
v -11.98887 0 385.642
v -12.78813 0 385.642
v -11.98887 0 386.8409
v -12.78813 0 386.8409
v -23.17848 0 385.2423
v -23.97774 0 385.2423
v -23.17848 0 386.4412
v -23.97774 0 386.4412
v -14.38664 0 385.2423
v -15.1859 0 385.2423
v -14.38664 0 386.4412
v -15.1859 0 386.4412
v -13.58739 0 385.2423
v -14.38664 0 385.2423
v -13.58739 0 386.4412
v -14.38664 0 386.4412
v -9.191466 0 385.2423
v -10.39035 0 385.2423
v -9.191466 0 386.0416
v -10.39035 0 386.0416
v -3.596661 0 385.2423
v -4.795548 0 385.2423
v -3.596661 0 386.4412
v -4.795548 0 386.4412
v -2.397774 0 384.8427
v -3.197032 0 384.8427
v -2.397774 0 386.0416
v -3.197032 0 386.0416
v -23.17848 0 384.8427
v -23.97774 0 384.8427
v -23.17848 0 385.642
v -23.97774 0 385.642
v -5.195177 0 384.8427
v -5.994435 0 384.8427
v -5.195177 0 385.642
v -5.994435 0 385.642
v -13.18776 0 384.8427
v -14.38664 0 384.8427
v -13.18776 0 386.0416
v -14.38664 0 386.0416
v -0.799258 0 384.4431
v -1.998145 0 384.4431
v -0.799258 0 385.642
v -1.998145 0 385.642
v -9.191466 0 384.4431
v -10.39035 0 384.4431
v -9.191466 0 385.642
v -10.39035 0 385.642
v -14.78627 0 384.4431
v -15.58553 0 384.4431
v -14.78627 0 385.642
v -15.58553 0 385.642
v -7.193322 0 384.4431
v -8.392209 0 384.4431
v -7.193322 0 385.642
v -8.392209 0 385.642
v -10.78998 0 384.4431
v -11.58924 0 384.4431
v -10.78998 0 385.2423
v -11.58924 0 385.2423
v -4.795548 0 384.0435
v -5.594806 0 384.0435
v -4.795548 0 385.2423
v -5.594806 0 385.2423
v -22.37922 0 384.0435
v -23.57811 0 384.0435
v -22.37922 0 385.2423
v -23.57811 0 385.2423
v -3.197032 0 384.0435
v -3.99629 0 384.0435
v -3.197032 0 384.8427
v -3.99629 0 384.8427
v -24.777 0 384.0435
v -25.57626 0 384.0435
v -24.777 0 384.8427
v -25.57626 0 384.8427
v -11.58924 0 383.6438
v -12.3885 0 383.6438
v -11.58924 0 384.8427
v -12.3885 0 384.8427
v -8.791838 0 383.6438
v -9.591096 0 383.6438
v -8.791838 0 384.8427
v -9.591096 0 384.8427
v -9.990725 0 383.6438
v -11.18961 0 383.6438
v -9.990725 0 384.8427
v -11.18961 0 384.8427
v -2.397774 0 383.6438
v -3.197032 0 383.6438
v -2.397774 0 384.8427
v -3.197032 0 384.8427
v -24.777 0 383.2442
v -25.57626 0 383.2442
v -24.777 0 384.0435
v -25.57626 0 384.0435
v -5.594806 0 383.2442
v -6.793693 0 383.2442
v -5.594806 0 384.0435
v -6.793693 0 384.0435
vt 0.1347656 0.9185662
vt 0.2060202 0.9185662
vt 0.1347656 1
vt 0.2060202 1
vt 0.1347656 0.9185662
vt 0.2060202 0.9185662
vt 0.1347656 1
vt 0.2060202 1
vt 0.1347656 0.9185662
vt 0.2060202 0.9185662
vt 0.1347656 1
vt 0.2060202 1
vt 0.1347656 0.9185662
vt 0.2060202 0.9185662
vt 0.1347656 1
vt 0.2060202 1
vt 0.1347656 0.9185662
vt 0.2060202 0.9185662
vt 0.1347656 1
vt 0.2060202 1
vt 0.1347656 0.9185662
vt 0.2060202 0.9185662
vt 0.1347656 1
vt 0.2060202 1
vt 0.1347656 0.9185662
vt 0.2060202 0.9185662
vt 0.1347656 1
vt 0.2060202 1
vt 0.1347656 0.9185662
vt 0.2060202 0.9185662
vt 0.1347656 1
vt 0.2060202 1
vt 0.1347656 0.9185662
vt 0.2060202 0.9185662
vt 0.1347656 1
vt 0.2060202 1
vt 0.1347656 0.9185662
vt 0.2060202 0.9185662
vt 0.1347656 1
vt 0.2060202 1
vt 0.1347656 0.9185662
vt 0.2060202 0.9185662
vt 0.1347656 1
vt 0.2060202 1
vt 0.1347656 0.9185662
vt 0.2060202 0.9185662
vt 0.1347656 1
vt 0.2060202 1
vt 0.1347656 0.9185662
vt 0.2060202 0.9185662
vt 0.1347656 1
vt 0.2060202 1
vt 0.1347656 0.9185662
vt 0.2060202 0.9185662
vt 0.1347656 1
vt 0.2060202 1
vt 0.1347656 0.9185662
vt 0.2060202 0.9185662
vt 0.1347656 1
vt 0.2060202 1
vt 0.1347656 0.9185662
vt 0.2060202 0.9185662
vt 0.1347656 1
vt 0.2060202 1
vt 0.1347656 0.9185662
vt 0.2060202 0.9185662
vt 0.1347656 1
vt 0.2060202 1
vt 0.1347656 0.9185662
vt 0.2060202 0.9185662
vt 0.1347656 1
vt 0.2060202 1
vt 0.1347656 0.9185662
vt 0.2060202 0.9185662
vt 0.1347656 1
vt 0.2060202 1
vt 0.1347656 0.9185662
vt 0.2060202 0.9185662
vt 0.1347656 1
vt 0.2060202 1
vt 0.1347656 0.9185662
vt 0.2060202 0.9185662
vt 0.1347656 1
vt 0.2060202 1
vt 0.1347656 0.9185662
vt 0.2060202 0.9185662
vt 0.1347656 1
vt 0.2060202 1
vt 0.1347656 0.9185662
vt 0.2060202 0.9185662
vt 0.1347656 1
vt 0.2060202 1
vt 0.1347656 0.9185662
vt 0.2060202 0.9185662
vt 0.1347656 1
vt 0.2060202 1
vt 0.1347656 0.9185662
vt 0.2060202 0.9185662
vt 0.1347656 1
vt 0.2060202 1
vt 0.1347656 0.9185662
vt 0.2060202 0.9185662
vt 0.1347656 1
vt 0.2060202 1
vt 0.1347656 0.9185662
vt 0.2060202 0.9185662
vt 0.1347656 1
vt 0.2060202 1
vt 0.1347656 0.9185662
vt 0.2060202 0.9185662
vt 0.1347656 1
vt 0.2060202 1
vt 0.1347656 0.9185662
vt 0.2060202 0.9185662
vt 0.1347656 1
vt 0.2060202 1
vt 0.1347656 0.9185662
vt 0.2060202 0.9185662
vt 0.1347656 1
vt 0.2060202 1
vt 0.1347656 0.9185662
vt 0.2060202 0.9185662
vt 0.1347656 1
vt 0.2060202 1
vt 0.1347656 0.9185662
vt 0.2060202 0.9185662
vt 0.1347656 1
vt 0.2060202 1
vt 0.1347656 0.9185662
vt 0.2060202 0.9185662
vt 0.1347656 1
vt 0.2060202 1
vt 0.1347656 0.9185662
vt 0.2060202 0.9185662
vt 0.1347656 1
vt 0.2060202 1
vt 0.1347656 0.9185662
vt 0.2060202 0.9185662
vt 0.1347656 1
vt 0.2060202 1
vt 0.1347656 0.9185662
vt 0.2060202 0.9185662
vt 0.1347656 1
vt 0.2060202 1
vt 0.1347656 0.9185662
vt 0.2060202 0.9185662
vt 0.1347656 1
vt 0.2060202 1
vt 0.1347656 0.9185662
vt 0.2060202 0.9185662
vt 0.1347656 1
vt 0.2060202 1
vt 0.1347656 0.9185662
vt 0.2060202 0.9185662
vt 0.1347656 1
vt 0.2060202 1
vt 0.1347656 0.9185662
vt 0.2060202 0.9185662
vt 0.1347656 1
vt 0.2060202 1
vt 0.1347656 0.9185662
vt 0.2060202 0.9185662
vt 0.1347656 1
vt 0.2060202 1
vt 0.1347656 0.9185662
vt 0.2060202 0.9185662
vt 0.1347656 1
vt 0.2060202 1
vt 0.1347656 0.9185662
vt 0.2060202 0.9185662
vt 0.1347656 1
vt 0.2060202 1
vt 0.1347656 0.9185662
vt 0.2060202 0.9185662
vt 0.1347656 1
vt 0.2060202 1
vt 0.1347656 0.9185662
vt 0.2060202 0.9185662
vt 0.1347656 1
vt 0.2060202 1
vt 0.1347656 0.9185662
vt 0.2060202 0.9185662
vt 0.1347656 1
vt 0.2060202 1
vt 0.1347656 0.9185662
vt 0.2060202 0.9185662
vt 0.1347656 1
vt 0.2060202 1
vt 0.1347656 0.9185662
vt 0.2060202 0.9185662
vt 0.1347656 1
vt 0.2060202 1
vt 0.1347656 0.9185662
vt 0.2060202 0.9185662
vt 0.1347656 1
vt 0.2060202 1
vt 0.1347656 0.9185662
vt 0.2060202 0.9185662
vt 0.1347656 1
vt 0.2060202 1
vt 0.1347656 0.9185662
vt 0.2060202 0.9185662
vt 0.1347656 1
vt 0.2060202 1
vt 0.1347656 0.9185662
vt 0.2060202 0.9185662
vt 0.1347656 1
vt 0.2060202 1
vt 0.1347656 0.9185662
vt 0.2060202 0.9185662
vt 0.1347656 1
vt 0.2060202 1
vt 0.1347656 0.9185662
vt 0.2060202 0.9185662
vt 0.1347656 1
vt 0.2060202 1
vt 0.1347656 0.9185662
vt 0.2060202 0.9185662
vt 0.1347656 1
vt 0.2060202 1
vt 0.1347656 0.9185662
vt 0.2060202 0.9185662
vt 0.1347656 1
vt 0.2060202 1
vt 0.1347656 0.9185662
vt 0.2060202 0.9185662
vt 0.1347656 1
vt 0.2060202 1
vt 0.1347656 0.9185662
vt 0.2060202 0.9185662
vt 0.1347656 1
vt 0.2060202 1
vn 0 1 0
vn 0 1 0
vn 0 1 0
vn 0 1 0
vn 0 1 0
vn 0 1 0
vn 0 1 0
vn 0 1 0
vn 0 1 0
vn 0 1 0
vn 0 1 0
vn 0 1 0
vn 0 1 0
vn 0 1 0
vn 0 1 0
vn 0 1 0
vn 0 1 0
vn 0 1 0
vn 0 1 0
vn 0 1 0
vn 0 1 0
vn 0 1 0
vn 0 1 0
vn 0 1 0
vn 0 1 0
vn 0 1 0
vn 0 1 0
vn 0 1 0
vn 0 1 0
vn 0 1 0
vn 0 1 0
vn 0 1 0
vn 0 1 0
vn 0 1 0
vn 0 1 0
vn 0 1 0
vn 0 1 0
vn 0 1 0
vn 0 1 0
vn 0 1 0
vn 0 1 0
vn 0 1 0
vn 0 1 0
vn 0 1 0
vn 0 1 0
vn 0 1 0
vn 0 1 0
vn 0 1 0
vn 0 1 0
vn 0 1 0
vn 0 1 0
vn 0 1 0
vn 0 1 0
vn 0 1 0
vn 0 1 0
vn 0 1 0
vn 0 1 0
vn 0 1 0
vn 0 1 0
vn 0 1 0
vn 0 1 0
vn 0 1 0
vn 0 1 0
vn 0 1 0
vn 0 1 0
vn 0 1 0
vn 0 1 0
vn 0 1 0
vn 0 1 0
vn 0 1 0
vn 0 1 0
vn 0 1 0
vn 0 1 0
vn 0 1 0
vn 0 1 0
vn 0 1 0
vn 0 1 0
vn 0 1 0
vn 0 1 0
vn 0 1 0
vn 0 1 0
vn 0 1 0
vn 0 1 0
vn 0 1 0
vn 0 1 0
vn 0 1 0
vn 0 1 0
vn 0 1 0
vn 0 1 0
vn 0 1 0
vn 0 1 0
vn 0 1 0
vn 0 1 0
vn 0 1 0
vn 0 1 0
vn 0 1 0
vn 0 1 0
vn 0 1 0
vn 0 1 0
vn 0 1 0
vn 0 1 0
vn 0 1 0
vn 0 1 0
vn 0 1 0
vn 0 1 0
vn 0 1 0
vn 0 1 0
vn 0 1 0
vn 0 1 0
vn 0 1 0
vn 0 1 0
vn 0 1 0
vn 0 1 0
vn 0 1 0
vn 0 1 0
vn 0 1 0
vn 0 1 0
vn 0 1 0
vn 0 1 0
vn 0 1 0
vn 0 1 0
vn 0 1 0
vn 0 1 0
vn 0 1 0
vn 0 1 0
vn 0 1 0
vn 0 1 0
vn 0 1 0
vn 0 1 0
vn 0 1 0
vn 0 1 0
vn 0 1 0
vn 0 1 0
vn 0 1 0
vn 0 1 0
vn 0 1 0
vn 0 1 0
vn 0 1 0
vn 0 1 0
vn 0 1 0
vn 0 1 0
vn 0 1 0
vn 0 1 0
vn 0 1 0
vn 0 1 0
vn 0 1 0
vn 0 1 0
vn 0 1 0
vn 0 1 0
vn 0 1 0
vn 0 1 0
vn 0 1 0
vn 0 1 0
vn 0 1 0
vn 0 1 0
vn 0 1 0
vn 0 1 0
vn 0 1 0
vn 0 1 0
vn 0 1 0
vn 0 1 0
vn 0 1 0
vn 0 1 0
vn 0 1 0
vn 0 1 0
vn 0 1 0
vn 0 1 0
vn 0 1 0
vn 0 1 0
vn 0 1 0
vn 0 1 0
vn 0 1 0
vn 0 1 0
vn 0 1 0
vn 0 1 0
vn 0 1 0
vn 0 1 0
vn 0 1 0
vn 0 1 0
vn 0 1 0
vn 0 1 0
vn 0 1 0
vn 0 1 0
vn 0 1 0
vn 0 1 0
vn 0 1 0
vn 0 1 0
vn 0 1 0
vn 0 1 0
vn 0 1 0
vn 0 1 0
vn 0 1 0
vn 0 1 0
vn 0 1 0
vn 0 1 0
vn 0 1 0
vn 0 1 0
vn 0 1 0
vn 0 1 0
vn 0 1 0
vn 0 1 0
vn 0 1 0
vn 0 1 0
vn 0 1 0
vn 0 1 0
vn 0 1 0
vn 0 1 0
vn 0 1 0
vn 0 1 0
vn 0 1 0
vn 0 1 0
vn 0 1 0
vn 0 1 0
vn 0 1 0
vn 0 1 0
vn 0 1 0
vn 0 1 0
vn 0 1 0
vn 0 1 0
vn 0 1 0
vn 0 1 0
vn 0 1 0
vn 0 1 0
vn 0 1 0
vn 0 1 0
vn 0 1 0
vn 0 1 0
vn 0 1 0
vn 0 1 0
vn 0 1 0
vn 0 1 0
vn 0 1 0
g Grass_2_Cluster290_0
f 2/2/2 3/3/3 1/1/1
f 2/2/2 4/4/4 3/3/3
f 6/6/6 7/7/7 5/5/5
f 6/6/6 8/8/8 7/7/7
f 10/10/10 11/11/11 9/9/9
f 10/10/10 12/12/12 11/11/11
f 14/14/14 15/15/15 13/13/13
f 14/14/14 16/16/16 15/15/15
f 18/18/18 19/19/19 17/17/17
f 18/18/18 20/20/20 19/19/19
f 22/22/22 23/23/23 21/21/21
f 22/22/22 24/24/24 23/23/23
f 26/26/26 27/27/27 25/25/25
f 26/26/26 28/28/28 27/27/27
f 30/30/30 31/31/31 29/29/29
f 30/30/30 32/32/32 31/31/31
f 34/34/34 35/35/35 33/33/33
f 34/34/34 36/36/36 35/35/35
f 38/38/38 39/39/39 37/37/37
f 38/38/38 40/40/40 39/39/39
f 42/42/42 43/43/43 41/41/41
f 42/42/42 44/44/44 43/43/43
f 46/46/46 47/47/47 45/45/45
f 46/46/46 48/48/48 47/47/47
f 50/50/50 51/51/51 49/49/49
f 50/50/50 52/52/52 51/51/51
f 54/54/54 55/55/55 53/53/53
f 54/54/54 56/56/56 55/55/55
f 58/58/58 59/59/59 57/57/57
f 58/58/58 60/60/60 59/59/59
f 62/62/62 63/63/63 61/61/61
f 62/62/62 64/64/64 63/63/63
f 66/66/66 67/67/67 65/65/65
f 66/66/66 68/68/68 67/67/67
f 70/70/70 71/71/71 69/69/69
f 70/70/70 72/72/72 71/71/71
f 74/74/74 75/75/75 73/73/73
f 74/74/74 76/76/76 75/75/75
f 78/78/78 79/79/79 77/77/77
f 78/78/78 80/80/80 79/79/79
f 82/82/82 83/83/83 81/81/81
f 82/82/82 84/84/84 83/83/83
f 86/86/86 87/87/87 85/85/85
f 86/86/86 88/88/88 87/87/87
f 90/90/90 91/91/91 89/89/89
f 90/90/90 92/92/92 91/91/91
f 94/94/94 95/95/95 93/93/93
f 94/94/94 96/96/96 95/95/95
f 98/98/98 99/99/99 97/97/97
f 98/98/98 100/100/100 99/99/99
f 102/102/102 103/103/103 101/101/101
f 102/102/102 104/104/104 103/103/103
f 106/106/106 107/107/107 105/105/105
f 106/106/106 108/108/108 107/107/107
f 110/110/110 111/111/111 109/109/109
f 110/110/110 112/112/112 111/111/111
f 114/114/114 115/115/115 113/113/113
f 114/114/114 116/116/116 115/115/115
f 118/118/118 119/119/119 117/117/117
f 118/118/118 120/120/120 119/119/119
f 122/122/122 123/123/123 121/121/121
f 122/122/122 124/124/124 123/123/123
f 126/126/126 127/127/127 125/125/125
f 126/126/126 128/128/128 127/127/127
f 130/130/130 131/131/131 129/129/129
f 130/130/130 132/132/132 131/131/131
f 134/134/134 135/135/135 133/133/133
f 134/134/134 136/136/136 135/135/135
f 138/138/138 139/139/139 137/137/137
f 138/138/138 140/140/140 139/139/139
f 142/142/142 143/143/143 141/141/141
f 142/142/142 144/144/144 143/143/143
f 146/146/146 147/147/147 145/145/145
f 146/146/146 148/148/148 147/147/147
f 150/150/150 151/151/151 149/149/149
f 150/150/150 152/152/152 151/151/151
f 154/154/154 155/155/155 153/153/153
f 154/154/154 156/156/156 155/155/155
f 158/158/158 159/159/159 157/157/157
f 158/158/158 160/160/160 159/159/159
f 162/162/162 163/163/163 161/161/161
f 162/162/162 164/164/164 163/163/163
f 166/166/166 167/167/167 165/165/165
f 166/166/166 168/168/168 167/167/167
f 170/170/170 171/171/171 169/169/169
f 170/170/170 172/172/172 171/171/171
f 174/174/174 175/175/175 173/173/173
f 174/174/174 176/176/176 175/175/175
f 178/178/178 179/179/179 177/177/177
f 178/178/178 180/180/180 179/179/179
f 182/182/182 183/183/183 181/181/181
f 182/182/182 184/184/184 183/183/183
f 186/186/186 187/187/187 185/185/185
f 186/186/186 188/188/188 187/187/187
f 190/190/190 191/191/191 189/189/189
f 190/190/190 192/192/192 191/191/191
f 194/194/194 195/195/195 193/193/193
f 194/194/194 196/196/196 195/195/195
f 198/198/198 199/199/199 197/197/197
f 198/198/198 200/200/200 199/199/199
f 202/202/202 203/203/203 201/201/201
f 202/202/202 204/204/204 203/203/203
f 206/206/206 207/207/207 205/205/205
f 206/206/206 208/208/208 207/207/207
f 210/210/210 211/211/211 209/209/209
f 210/210/210 212/212/212 211/211/211
f 214/214/214 215/215/215 213/213/213
f 214/214/214 216/216/216 215/215/215
f 218/218/218 219/219/219 217/217/217
f 218/218/218 220/220/220 219/219/219
f 222/222/222 223/223/223 221/221/221
f 222/222/222 224/224/224 223/223/223
f 226/226/226 227/227/227 225/225/225
f 226/226/226 228/228/228 227/227/227
f 230/230/230 231/231/231 229/229/229
f 230/230/230 232/232/232 231/231/231
