g Grass_2_Cluster107
v 65.25502 -0.03736115 125.7395
v 64.1963 -0.03736115 125.7395
v 65.25502 -0.03736115 126.7983
v 64.1963 -0.03736115 126.7983
v 86.0061 -0.03736115 120.0224
v 84.94737 -0.03736115 120.0224
v 86.0061 -0.03736115 121.0811
v 84.94737 -0.03736115 121.0811
v 84.10039 -0.03736115 119.8107
v 83.04166 -0.03736115 119.8107
v 84.10039 -0.03736115 120.8694
v 83.04166 -0.03736115 120.8694
v 84.94737 -0.03736115 119.1754
v 83.88864 -0.03736115 119.1754
v 84.94737 -0.03736115 120.4459
v 83.88864 -0.03736115 120.4459
v 86.21784 -0.03736115 119.1754
v 85.15912 -0.03736115 119.1754
v 86.21784 -0.03736115 120.2342
v 85.15912 -0.03736115 120.2342
v 85.15912 -0.03736115 118.9637
v 84.31213 -0.03736115 118.9637
v 85.15912 -0.03736115 120.0224
v 84.31213 -0.03736115 120.0224
v 86.85308 -0.03736115 118.3285
v 85.79435 -0.03736115 118.3285
v 86.85308 -0.03736115 119.3872
v 85.79435 -0.03736115 119.3872
v 87.27657 -0.03736115 118.1167
v 86.42959 -0.03736115 118.1167
v 87.27657 -0.03736115 119.1754
v 86.42959 -0.03736115 119.1754
v 85.37086 -0.03736115 118.1167
v 84.31213 -0.03736115 118.1167
v 85.37086 -0.03736115 119.1754
v 84.31213 -0.03736115 119.1754
v 86.42959 -0.03736115 117.6932
v 85.37086 -0.03736115 117.6932
v 86.42959 -0.03736115 118.7519
v 85.37086 -0.03736115 118.7519
v 84.31213 -0.03736115 117.6932
v 83.46515 -0.03736115 117.6932
v 84.31213 -0.03736115 118.7519
v 83.46515 -0.03736115 118.7519
v 83.46515 -0.03736115 117.4815
v 82.61816 -0.03736115 117.4815
v 83.46515 -0.03736115 118.5402
v 82.61816 -0.03736115 118.5402
v 89.18228 -0.03736115 117.2697
v 88.3353 -0.03736115 117.2697
v 89.18228 -0.03736115 118.5402
v 88.3353 -0.03736115 118.5402
v 87.06483 -0.03736115 117.058
v 86.21784 -0.03736115 117.058
v 87.06483 -0.03736115 118.1167
v 86.21784 -0.03736115 118.1167
v 84.31213 -0.03736115 117.058
v 83.2534 -0.03736115 117.058
v 84.31213 -0.03736115 118.1167
v 83.2534 -0.03736115 118.1167
v 85.37086 -0.03736115 116.8462
v 84.52388 -0.03736115 116.8462
v 85.37086 -0.03736115 117.905
v 84.52388 -0.03736115 117.905
v 89.81752 -0.03736115 116.8462
v 88.75879 -0.03736115 116.8462
v 89.81752 -0.03736115 117.905
v 88.75879 -0.03736115 117.905
v 88.75879 -0.03736115 116.4227
v 87.70007 -0.03736115 116.4227
v 88.75879 -0.03736115 117.4815
v 87.70007 -0.03736115 117.4815
v 88.12356 -0.03736115 116.211
v 87.27657 -0.03736115 116.211
v 88.12356 -0.03736115 117.2697
v 87.27657 -0.03736115 117.2697
v 86.85308 -0.03736115 115.7875
v 85.79435 -0.03736115 115.7875
v 86.85308 -0.03736115 116.8462
v 85.79435 -0.03736115 116.8462
v 89.60577 -0.03736115 115.5758
v 88.54704 -0.03736115 115.5758
v 89.60577 -0.03736115 116.6345
v 88.54704 -0.03736115 116.6345
v 88.75879 -0.03736115 115.1523
v 87.70007 -0.03736115 115.1523
v 88.75879 -0.03736115 116.211
v 87.70007 -0.03736115 116.211
v 86.42959 -0.03736115 115.1523
v 85.58261 -0.03736115 115.1523
v 86.42959 -0.03736115 116.211
v 85.58261 -0.03736115 116.211
v 84.94737 -0.03736115 114.7288
v 84.10039 -0.03736115 114.7288
v 84.94737 -0.03736115 115.7875
v 84.10039 -0.03736115 115.7875
v 87.70007 -0.03736115 114.3053
v 86.64133 -0.03736115 114.3053
v 87.70007 -0.03736115 115.364
v 86.64133 -0.03736115 115.364
v 89.81752 -0.03736115 113.8818
v 88.75879 -0.03736115 113.8818
v 89.81752 -0.03736115 114.9405
v 88.75879 -0.03736115 114.9405
v 88.3353 -0.03736115 113.67
v 87.48832 -0.03736115 113.67
v 88.3353 -0.03736115 114.7288
v 87.48832 -0.03736115 114.7288
vt 0.1347656 0.9185662
vt 0.2060202 0.9185662
vt 0.1347656 1
vt 0.2060202 1
vt 0.1347656 0.9185662
vt 0.2060202 0.9185662
vt 0.1347656 1
vt 0.2060202 1
vt 0.1347656 0.9185662
vt 0.2060202 0.9185662
vt 0.1347656 1
vt 0.2060202 1
vt 0.1347656 0.9185662
vt 0.2060202 0.9185662
vt 0.1347656 1
vt 0.2060202 1
vt 0.1347656 0.9185662
vt 0.2060202 0.9185662
vt 0.1347656 1
vt 0.2060202 1
vt 0.1347656 0.9185662
vt 0.2060202 0.9185662
vt 0.1347656 1
vt 0.2060202 1
vt 0.1347656 0.9185662
vt 0.2060202 0.9185662
vt 0.1347656 1
vt 0.2060202 1
vt 0.1347656 0.9185662
vt 0.2060202 0.9185662
vt 0.1347656 1
vt 0.2060202 1
vt 0.1347656 0.9185662
vt 0.2060202 0.9185662
vt 0.1347656 1
vt 0.2060202 1
vt 0.1347656 0.9185662
vt 0.2060202 0.9185662
vt 0.1347656 1
vt 0.2060202 1
vt 0.1347656 0.9185662
vt 0.2060202 0.9185662
vt 0.1347656 1
vt 0.2060202 1
vt 0.1347656 0.9185662
vt 0.2060202 0.9185662
vt 0.1347656 1
vt 0.2060202 1
vt 0.1347656 0.9185662
vt 0.2060202 0.9185662
vt 0.1347656 1
vt 0.2060202 1
vt 0.1347656 0.9185662
vt 0.2060202 0.9185662
vt 0.1347656 1
vt 0.2060202 1
vt 0.1347656 0.9185662
vt 0.2060202 0.9185662
vt 0.1347656 1
vt 0.2060202 1
vt 0.1347656 0.9185662
vt 0.2060202 0.9185662
vt 0.1347656 1
vt 0.2060202 1
vt 0.1347656 0.9185662
vt 0.2060202 0.9185662
vt 0.1347656 1
vt 0.2060202 1
vt 0.1347656 0.9185662
vt 0.2060202 0.9185662
vt 0.1347656 1
vt 0.2060202 1
vt 0.1347656 0.9185662
vt 0.2060202 0.9185662
vt 0.1347656 1
vt 0.2060202 1
vt 0.1347656 0.9185662
vt 0.2060202 0.9185662
vt 0.1347656 1
vt 0.2060202 1
vt 0.1347656 0.9185662
vt 0.2060202 0.9185662
vt 0.1347656 1
vt 0.2060202 1
vt 0.1347656 0.9185662
vt 0.2060202 0.9185662
vt 0.1347656 1
vt 0.2060202 1
vt 0.1347656 0.9185662
vt 0.2060202 0.9185662
vt 0.1347656 1
vt 0.2060202 1
vt 0.1347656 0.9185662
vt 0.2060202 0.9185662
vt 0.1347656 1
vt 0.2060202 1
vt 0.1347656 0.9185662
vt 0.2060202 0.9185662
vt 0.1347656 1
vt 0.2060202 1
vt 0.1347656 0.9185662
vt 0.2060202 0.9185662
vt 0.1347656 1
vt 0.2060202 1
vt 0.1347656 0.9185662
vt 0.2060202 0.9185662
vt 0.1347656 1
vt 0.2060202 1
vn 0 1 0
vn 0 1 0
vn 0 1 0
vn 0 1 0
vn 0 1 0
vn 0 1 0
vn 0 1 0
vn 0 1 0
vn 0 1 0
vn 0 1 0
vn 0 1 0
vn 0 1 0
vn 0 1 0
vn 0 1 0
vn 0 1 0
vn 0 1 0
vn 0 1 0
vn 0 1 0
vn 0 1 0
vn 0 1 0
vn 0 1 0
vn 0 1 0
vn 0 1 0
vn 0 1 0
vn 0 1 0
vn 0 1 0
vn 0 1 0
vn 0 1 0
vn 0 1 0
vn 0 1 0
vn 0 1 0
vn 0 1 0
vn 0 1 0
vn 0 1 0
vn 0 1 0
vn 0 1 0
vn 0 1 0
vn 0 1 0
vn 0 1 0
vn 0 1 0
vn 0 1 0
vn 0 1 0
vn 0 1 0
vn 0 1 0
vn 0 1 0
vn 0 1 0
vn 0 1 0
vn 0 1 0
vn 0 1 0
vn 0 1 0
vn 0 1 0
vn 0 1 0
vn 0 1 0
vn 0 1 0
vn 0 1 0
vn 0 1 0
vn 0 1 0
vn 0 1 0
vn 0 1 0
vn 0 1 0
vn 0 1 0
vn 0 1 0
vn 0 1 0
vn 0 1 0
vn 0 1 0
vn 0 1 0
vn 0 1 0
vn 0 1 0
vn 0 1 0
vn 0 1 0
vn 0 1 0
vn 0 1 0
vn 0 1 0
vn 0 1 0
vn 0 1 0
vn 0 1 0
vn 0 1 0
vn 0 1 0
vn 0 1 0
vn 0 1 0
vn 0 1 0
vn 0 1 0
vn 0 1 0
vn 0 1 0
vn 0 1 0
vn 0 1 0
vn 0 1 0
vn 0 1 0
vn 0 1 0
vn 0 1 0
vn 0 1 0
vn 0 1 0
vn 0 1 0
vn 0 1 0
vn 0 1 0
vn 0 1 0
vn 0 1 0
vn 0 1 0
vn 0 1 0
vn 0 1 0
vn 0 1 0
vn 0 1 0
vn 0 1 0
vn 0 1 0
vn 0 1 0
vn 0 1 0
vn 0 1 0
vn 0 1 0
g Grass_2_Cluster107_0
f 2/2/2 3/3/3 1/1/1
f 2/2/2 4/4/4 3/3/3
f 6/6/6 7/7/7 5/5/5
f 6/6/6 8/8/8 7/7/7
f 10/10/10 11/11/11 9/9/9
f 10/10/10 12/12/12 11/11/11
f 14/14/14 15/15/15 13/13/13
f 14/14/14 16/16/16 15/15/15
f 18/18/18 19/19/19 17/17/17
f 18/18/18 20/20/20 19/19/19
f 22/22/22 23/23/23 21/21/21
f 22/22/22 24/24/24 23/23/23
f 26/26/26 27/27/27 25/25/25
f 26/26/26 28/28/28 27/27/27
f 30/30/30 31/31/31 29/29/29
f 30/30/30 32/32/32 31/31/31
f 34/34/34 35/35/35 33/33/33
f 34/34/34 36/36/36 35/35/35
f 38/38/38 39/39/39 37/37/37
f 38/38/38 40/40/40 39/39/39
f 42/42/42 43/43/43 41/41/41
f 42/42/42 44/44/44 43/43/43
f 46/46/46 47/47/47 45/45/45
f 46/46/46 48/48/48 47/47/47
f 50/50/50 51/51/51 49/49/49
f 50/50/50 52/52/52 51/51/51
f 54/54/54 55/55/55 53/53/53
f 54/54/54 56/56/56 55/55/55
f 58/58/58 59/59/59 57/57/57
f 58/58/58 60/60/60 59/59/59
f 62/62/62 63/63/63 61/61/61
f 62/62/62 64/64/64 63/63/63
f 66/66/66 67/67/67 65/65/65
f 66/66/66 68/68/68 67/67/67
f 70/70/70 71/71/71 69/69/69
f 70/70/70 72/72/72 71/71/71
f 74/74/74 75/75/75 73/73/73
f 74/74/74 76/76/76 75/75/75
f 78/78/78 79/79/79 77/77/77
f 78/78/78 80/80/80 79/79/79
f 82/82/82 83/83/83 81/81/81
f 82/82/82 84/84/84 83/83/83
f 86/86/86 87/87/87 85/85/85
f 86/86/86 88/88/88 87/87/87
f 90/90/90 91/91/91 89/89/89
f 90/90/90 92/92/92 91/91/91
f 94/94/94 95/95/95 93/93/93
f 94/94/94 96/96/96 95/95/95
f 98/98/98 99/99/99 97/97/97
f 98/98/98 100/100/100 99/99/99
f 102/102/102 103/103/103 101/101/101
f 102/102/102 104/104/104 103/103/103
f 106/106/106 107/107/107 105/105/105
f 106/106/106 108/108/108 107/107/107
