g Grass_1_Cluster228
v 37.74345 -0.1776199 322.5968
v 37.01402 -0.1776199 322.5968
v 37.74345 -0.1776199 323.3262
v 37.01402 -0.1776199 323.3262
v 39.20232 -0.1776199 321.8673
v 38.10817 -0.1776199 321.8673
v 39.20232 -0.1776199 322.5968
v 38.10817 -0.1776199 322.5968
v 42.48477 -0.1776199 320.4084
v 41.39062 -0.1776199 320.4084
v 42.48477 -0.1776199 321.1379
v 41.39062 -0.1776199 321.1379
v 43.2142 -0.1776199 320.0437
v 42.12005 -0.1776199 320.0437
v 43.2142 -0.1776199 320.7732
v 42.12005 -0.1776199 320.7732
v 43.94364 -0.1776199 319.3143
v 43.2142 -0.1776199 319.3143
v 43.94364 -0.1776199 320.4084
v 43.2142 -0.1776199 320.4084
v 46.86137 -0.1776199 318.9496
v 46.13194 -0.1776199 318.9496
v 46.86137 -0.1776199 319.679
v 46.13194 -0.1776199 319.679
v 38.47289 -0.1776199 318.5849
v 37.74345 -0.1776199 318.5849
v 38.47289 -0.1776199 319.3143
v 37.74345 -0.1776199 319.3143
v 48.32024 -0.1776199 315.3024
v 47.59081 -0.1776199 315.3024
v 48.32024 -0.1776199 316.0319
v 47.59081 -0.1776199 316.0319
v 49.77911 -0.1776199 304.3609
v 49.04967 -0.1776199 304.3609
v 49.77911 -0.1776199 305.4551
v 49.04967 -0.1776199 305.4551
v 49.41439 -0.1776199 303.9962
v 48.68496 -0.1776199 303.9962
v 49.41439 -0.1776199 304.7256
v 48.68496 -0.1776199 304.7256
v 47.95552 -0.1776199 301.8079
v 46.86137 -0.1776199 301.8079
v 47.95552 -0.1776199 302.5373
v 46.86137 -0.1776199 302.5373
v 46.86137 -0.1776199 301.4432
v 45.76722 -0.1776199 301.4432
v 46.86137 -0.1776199 302.1726
v 45.76722 -0.1776199 302.1726
vt 0.06738281 0.9369141
vt 0.1331457 0.9369141
vt 0.06738281 0.9990234
vt 0.1331457 0.9990234
vt 0.06738281 0.9369141
vt 0.1331457 0.9369141
vt 0.06738281 0.9990234
vt 0.1331457 0.9990234
vt 0.06738281 0.9369141
vt 0.1331457 0.9369141
vt 0.06738281 0.9990234
vt 0.1331457 0.9990234
vt 0.06738281 0.9369141
vt 0.1331457 0.9369141
vt 0.06738281 0.9990234
vt 0.1331457 0.9990234
vt 0.06738281 0.9369141
vt 0.1331457 0.9369141
vt 0.06738281 0.9990234
vt 0.1331457 0.9990234
vt 0.06738281 0.9369141
vt 0.1331457 0.9369141
vt 0.06738281 0.9990234
vt 0.1331457 0.9990234
vt 0.06738281 0.9369141
vt 0.1331457 0.9369141
vt 0.06738281 0.9990234
vt 0.1331457 0.9990234
vt 0.06738281 0.9369141
vt 0.1331457 0.9369141
vt 0.06738281 0.9990234
vt 0.1331457 0.9990234
vt 0.06738281 0.9369141
vt 0.1331457 0.9369141
vt 0.06738281 0.9990234
vt 0.1331457 0.9990234
vt 0.06738281 0.9369141
vt 0.1331457 0.9369141
vt 0.06738281 0.9990234
vt 0.1331457 0.9990234
vt 0.06738281 0.9369141
vt 0.1331457 0.9369141
vt 0.06738281 0.9990234
vt 0.1331457 0.9990234
vt 0.06738281 0.9369141
vt 0.1331457 0.9369141
vt 0.06738281 0.9990234
vt 0.1331457 0.9990234
vn 0 1 0
vn 0 1 0
vn 0 1 0
vn 0 1 0
vn 0 1 0
vn 0 1 0
vn 0 1 0
vn 0 1 0
vn 0 1 0
vn 0 1 0
vn 0 1 0
vn 0 1 0
vn 0 1 0
vn 0 1 0
vn 0 1 0
vn 0 1 0
vn 0 1 0
vn 0 1 0
vn 0 1 0
vn 0 1 0
vn 0 1 0
vn 0 1 0
vn 0 1 0
vn 0 1 0
vn 0 1 0
vn 0 1 0
vn 0 1 0
vn 0 1 0
vn 0 1 0
vn 0 1 0
vn 0 1 0
vn 0 1 0
vn 0 1 0
vn 0 1 0
vn 0 1 0
vn 0 1 0
vn 0 1 0
vn 0 1 0
vn 0 1 0
vn 0 1 0
vn 0 1 0
vn 0 1 0
vn 0 1 0
vn 0 1 0
vn 0 1 0
vn 0 1 0
vn 0 1 0
vn 0 1 0
g Grass_1_Cluster228_0
f 2/2/2 3/3/3 1/1/1
f 2/2/2 4/4/4 3/3/3
f 6/6/6 7/7/7 5/5/5
f 6/6/6 8/8/8 7/7/7
f 10/10/10 11/11/11 9/9/9
f 10/10/10 12/12/12 11/11/11
f 14/14/14 15/15/15 13/13/13
f 14/14/14 16/16/16 15/15/15
f 18/18/18 19/19/19 17/17/17
f 18/18/18 20/20/20 19/19/19
f 22/22/22 23/23/23 21/21/21
f 22/22/22 24/24/24 23/23/23
f 26/26/26 27/27/27 25/25/25
f 26/26/26 28/28/28 27/27/27
f 30/30/30 31/31/31 29/29/29
f 30/30/30 32/32/32 31/31/31
f 34/34/34 35/35/35 33/33/33
f 34/34/34 36/36/36 35/35/35
f 38/38/38 39/39/39 37/37/37
f 38/38/38 40/40/40 39/39/39
f 42/42/42 43/43/43 41/41/41
f 42/42/42 44/44/44 43/43/43
f 46/46/46 47/47/47 45/45/45
f 46/46/46 48/48/48 47/47/47
