g Grass_2_Cluster166
v 98.95093 0.1438446 232.8457
v 98.26752 0.1438446 232.8457
v 98.95093 0.1438446 233.8708
v 98.26752 0.1438446 233.8708
v 105.1016 0.1438446 232.504
v 104.0765 0.1438446 232.504
v 105.1016 0.1438446 233.5291
v 104.0765 0.1438446 233.5291
v 92.11681 0.1438446 232.1623
v 91.09169 0.1438446 232.1623
v 92.11681 0.1438446 233.1874
v 91.09169 0.1438446 233.1874
v 113.6443 0.1438446 217.8106
v 112.6192 0.1438446 217.8106
v 113.6443 0.1438446 218.8358
v 112.6192 0.1438446 218.8358
v 112.6192 0.1438446 216.7855
v 111.9358 0.1438446 216.7855
v 112.6192 0.1438446 217.8106
v 111.9358 0.1438446 217.8106
v 113.6443 0.1438446 216.4438
v 112.9609 0.1438446 216.4438
v 113.6443 0.1438446 217.8106
v 112.9609 0.1438446 217.8106
v 114.3277 0.1438446 216.1021
v 113.3026 0.1438446 216.1021
v 114.3277 0.1438446 217.1272
v 113.3026 0.1438446 217.1272
v 111.9358 0.1438446 216.1021
v 110.9106 0.1438446 216.1021
v 111.9358 0.1438446 217.1272
v 110.9106 0.1438446 217.1272
v 111.5941 0.1438446 216.1021
v 110.5689 0.1438446 216.1021
v 111.5941 0.1438446 217.1272
v 110.5689 0.1438446 217.1272
v 109.5438 0.1438446 215.4187
v 108.5187 0.1438446 215.4187
v 109.5438 0.1438446 216.7855
v 108.5187 0.1438446 216.7855
v 115.0111 0.1438446 215.4187
v 113.986 0.1438446 215.4187
v 115.0111 0.1438446 216.4438
v 113.986 0.1438446 216.4438
v 110.9106 0.1438446 215.4187
v 109.8855 0.1438446 215.4187
v 110.9106 0.1438446 216.4438
v 109.8855 0.1438446 216.4438
v 115.0111 0.1438446 214.7353
v 113.986 0.1438446 214.7353
v 115.0111 0.1438446 215.7604
v 113.986 0.1438446 215.7604
v 113.3026 0.1438446 214.3936
v 112.2775 0.1438446 214.3936
v 113.3026 0.1438446 215.4187
v 112.2775 0.1438446 215.4187
v 110.9106 0.1438446 214.3936
v 110.2272 0.1438446 214.3936
v 110.9106 0.1438446 215.4187
v 110.2272 0.1438446 215.4187
v 113.986 0.1438446 213.7102
v 112.9609 0.1438446 213.7102
v 113.986 0.1438446 214.7353
v 112.9609 0.1438446 214.7353
v 112.9609 0.1438446 213.7102
v 111.9358 0.1438446 213.7102
v 112.9609 0.1438446 214.7353
v 111.9358 0.1438446 214.7353
v 115.6945 0.1438446 213.3685
v 114.6694 0.1438446 213.3685
v 115.6945 0.1438446 214.3936
v 114.6694 0.1438446 214.3936
v 111.2523 0.1438446 213.0268
v 110.2272 0.1438446 213.0268
v 111.2523 0.1438446 214.3936
v 110.2272 0.1438446 214.3936
v 114.3277 0.1438446 212.6851
v 113.3026 0.1438446 212.6851
v 114.3277 0.1438446 214.0519
v 113.3026 0.1438446 214.0519
v 113.6443 0.1438446 212.3433
v 112.6192 0.1438446 212.3433
v 113.6443 0.1438446 213.3685
v 112.6192 0.1438446 213.3685
v 112.2775 0.1438446 212.0016
v 111.5941 0.1438446 212.0016
v 112.2775 0.1438446 213.0268
v 111.5941 0.1438446 213.0268
v 113.3026 0.1438446 211.6599
v 112.6192 0.1438446 211.6599
v 113.3026 0.1438446 212.6851
v 112.6192 0.1438446 212.6851
v 111.9358 0.1438446 209.9514
v 110.9106 0.1438446 209.9514
v 111.9358 0.1438446 210.9765
v 110.9106 0.1438446 210.9765
vt 0.1347656 0.9185662
vt 0.2060202 0.9185662
vt 0.1347656 1
vt 0.2060202 1
vt 0.1347656 0.9185662
vt 0.2060202 0.9185662
vt 0.1347656 1
vt 0.2060202 1
vt 0.1347656 0.9185662
vt 0.2060202 0.9185662
vt 0.1347656 1
vt 0.2060202 1
vt 0.1347656 0.9185662
vt 0.2060202 0.9185662
vt 0.1347656 1
vt 0.2060202 1
vt 0.1347656 0.9185662
vt 0.2060202 0.9185662
vt 0.1347656 1
vt 0.2060202 1
vt 0.1347656 0.9185662
vt 0.2060202 0.9185662
vt 0.1347656 1
vt 0.2060202 1
vt 0.1347656 0.9185662
vt 0.2060202 0.9185662
vt 0.1347656 1
vt 0.2060202 1
vt 0.1347656 0.9185662
vt 0.2060202 0.9185662
vt 0.1347656 1
vt 0.2060202 1
vt 0.1347656 0.9185662
vt 0.2060202 0.9185662
vt 0.1347656 1
vt 0.2060202 1
vt 0.1347656 0.9185662
vt 0.2060202 0.9185662
vt 0.1347656 1
vt 0.2060202 1
vt 0.1347656 0.9185662
vt 0.2060202 0.9185662
vt 0.1347656 1
vt 0.2060202 1
vt 0.1347656 0.9185662
vt 0.2060202 0.9185662
vt 0.1347656 1
vt 0.2060202 1
vt 0.1347656 0.9185662
vt 0.2060202 0.9185662
vt 0.1347656 1
vt 0.2060202 1
vt 0.1347656 0.9185662
vt 0.2060202 0.9185662
vt 0.1347656 1
vt 0.2060202 1
vt 0.1347656 0.9185662
vt 0.2060202 0.9185662
vt 0.1347656 1
vt 0.2060202 1
vt 0.1347656 0.9185662
vt 0.2060202 0.9185662
vt 0.1347656 1
vt 0.2060202 1
vt 0.1347656 0.9185662
vt 0.2060202 0.9185662
vt 0.1347656 1
vt 0.2060202 1
vt 0.1347656 0.9185662
vt 0.2060202 0.9185662
vt 0.1347656 1
vt 0.2060202 1
vt 0.1347656 0.9185662
vt 0.2060202 0.9185662
vt 0.1347656 1
vt 0.2060202 1
vt 0.1347656 0.9185662
vt 0.2060202 0.9185662
vt 0.1347656 1
vt 0.2060202 1
vt 0.1347656 0.9185662
vt 0.2060202 0.9185662
vt 0.1347656 1
vt 0.2060202 1
vt 0.1347656 0.9185662
vt 0.2060202 0.9185662
vt 0.1347656 1
vt 0.2060202 1
vt 0.1347656 0.9185662
vt 0.2060202 0.9185662
vt 0.1347656 1
vt 0.2060202 1
vt 0.1347656 0.9185662
vt 0.2060202 0.9185662
vt 0.1347656 1
vt 0.2060202 1
vn 0 1 0
vn 0 1 0
vn 0 1 0
vn 0 1 0
vn 0 1 0
vn 0 1 0
vn 0 1 0
vn 0 1 0
vn 0 1 0
vn 0 1 0
vn 0 1 0
vn 0 1 0
vn 0 1 0
vn 0 1 0
vn 0 1 0
vn 0 1 0
vn 0 1 0
vn 0 1 0
vn 0 1 0
vn 0 1 0
vn 0 1 0
vn 0 1 0
vn 0 1 0
vn 0 1 0
vn 0 1 0
vn 0 1 0
vn 0 1 0
vn 0 1 0
vn 0 1 0
vn 0 1 0
vn 0 1 0
vn 0 1 0
vn 0 1 0
vn 0 1 0
vn 0 1 0
vn 0 1 0
vn 0 1 0
vn 0 1 0
vn 0 1 0
vn 0 1 0
vn 0 1 0
vn 0 1 0
vn 0 1 0
vn 0 1 0
vn 0 1 0
vn 0 1 0
vn 0 1 0
vn 0 1 0
vn 0 1 0
vn 0 1 0
vn 0 1 0
vn 0 1 0
vn 0 1 0
vn 0 1 0
vn 0 1 0
vn 0 1 0
vn 0 1 0
vn 0 1 0
vn 0 1 0
vn 0 1 0
vn 0 1 0
vn 0 1 0
vn 0 1 0
vn 0 1 0
vn 0 1 0
vn 0 1 0
vn 0 1 0
vn 0 1 0
vn 0 1 0
vn 0 1 0
vn 0 1 0
vn 0 1 0
vn 0 1 0
vn 0 1 0
vn 0 1 0
vn 0 1 0
vn 0 1 0
vn 0 1 0
vn 0 1 0
vn 0 1 0
vn 0 1 0
vn 0 1 0
vn 0 1 0
vn 0 1 0
vn 0 1 0
vn 0 1 0
vn 0 1 0
vn 0 1 0
vn 0 1 0
vn 0 1 0
vn 0 1 0
vn 0 1 0
vn 0 1 0
vn 0 1 0
vn 0 1 0
vn 0 1 0
g Grass_2_Cluster166_0
f 2/2/2 3/3/3 1/1/1
f 2/2/2 4/4/4 3/3/3
f 6/6/6 7/7/7 5/5/5
f 6/6/6 8/8/8 7/7/7
f 10/10/10 11/11/11 9/9/9
f 10/10/10 12/12/12 11/11/11
f 14/14/14 15/15/15 13/13/13
f 14/14/14 16/16/16 15/15/15
f 18/18/18 19/19/19 17/17/17
f 18/18/18 20/20/20 19/19/19
f 22/22/22 23/23/23 21/21/21
f 22/22/22 24/24/24 23/23/23
f 26/26/26 27/27/27 25/25/25
f 26/26/26 28/28/28 27/27/27
f 30/30/30 31/31/31 29/29/29
f 30/30/30 32/32/32 31/31/31
f 34/34/34 35/35/35 33/33/33
f 34/34/34 36/36/36 35/35/35
f 38/38/38 39/39/39 37/37/37
f 38/38/38 40/40/40 39/39/39
f 42/42/42 43/43/43 41/41/41
f 42/42/42 44/44/44 43/43/43
f 46/46/46 47/47/47 45/45/45
f 46/46/46 48/48/48 47/47/47
f 50/50/50 51/51/51 49/49/49
f 50/50/50 52/52/52 51/51/51
f 54/54/54 55/55/55 53/53/53
f 54/54/54 56/56/56 55/55/55
f 58/58/58 59/59/59 57/57/57
f 58/58/58 60/60/60 59/59/59
f 62/62/62 63/63/63 61/61/61
f 62/62/62 64/64/64 63/63/63
f 66/66/66 67/67/67 65/65/65
f 66/66/66 68/68/68 67/67/67
f 70/70/70 71/71/71 69/69/69
f 70/70/70 72/72/72 71/71/71
f 74/74/74 75/75/75 73/73/73
f 74/74/74 76/76/76 75/75/75
f 78/78/78 79/79/79 77/77/77
f 78/78/78 80/80/80 79/79/79
f 82/82/82 83/83/83 81/81/81
f 82/82/82 84/84/84 83/83/83
f 86/86/86 87/87/87 85/85/85
f 86/86/86 88/88/88 87/87/87
f 90/90/90 91/91/91 89/89/89
f 90/90/90 92/92/92 91/91/91
f 94/94/94 95/95/95 93/93/93
f 94/94/94 96/96/96 95/95/95
