g Grass_1_Cluster247
v 86.8668 0.09063721 333.9083
v 86.04256 0.09063721 333.9083
v 86.8668 0.09063721 334.7325
v 86.04256 0.09063721 334.7325
v 68.7335 0.09063721 328.5507
v 67.90926 0.09063721 328.5507
v 68.7335 0.09063721 329.3749
v 67.90926 0.09063721 329.3749
v 65.84865 0.09063721 327.7265
v 65.02441 0.09063721 327.7265
v 65.84865 0.09063721 328.5507
v 65.02441 0.09063721 328.5507
v 67.08501 0.09063721 326.4901
v 66.26077 0.09063721 326.4901
v 67.08501 0.09063721 327.3144
v 66.26077 0.09063721 327.3144
v 68.32137 0.09063721 325.2538
v 67.08501 0.09063721 325.2538
v 68.32137 0.09063721 326.4901
v 67.08501 0.09063721 326.4901
v 66.26077 0.09063721 323.1931
v 65.43653 0.09063721 323.1931
v 66.26077 0.09063721 324.0174
v 65.43653 0.09063721 324.0174
vt 0.06738281 0.9369141
vt 0.1331457 0.9369141
vt 0.06738281 0.9990234
vt 0.1331457 0.9990234
vt 0.06738281 0.9369141
vt 0.1331457 0.9369141
vt 0.06738281 0.9990234
vt 0.1331457 0.9990234
vt 0.06738281 0.9369141
vt 0.1331457 0.9369141
vt 0.06738281 0.9990234
vt 0.1331457 0.9990234
vt 0.06738281 0.9369141
vt 0.1331457 0.9369141
vt 0.06738281 0.9990234
vt 0.1331457 0.9990234
vt 0.06738281 0.9369141
vt 0.1331457 0.9369141
vt 0.06738281 0.9990234
vt 0.1331457 0.9990234
vt 0.06738281 0.9369141
vt 0.1331457 0.9369141
vt 0.06738281 0.9990234
vt 0.1331457 0.9990234
vn 0 1 0
vn 0 1 0
vn 0 1 0
vn 0 1 0
vn 0 1 0
vn 0 1 0
vn 0 1 0
vn 0 1 0
vn 0 1 0
vn 0 1 0
vn 0 1 0
vn 0 1 0
vn 0 1 0
vn 0 1 0
vn 0 1 0
vn 0 1 0
vn 0 1 0
vn 0 1 0
vn 0 1 0
vn 0 1 0
vn 0 1 0
vn 0 1 0
vn 0 1 0
vn 0 1 0
g Grass_1_Cluster247_0
f 2/2/2 3/3/3 1/1/1
f 2/2/2 4/4/4 3/3/3
f 6/6/6 7/7/7 5/5/5
f 6/6/6 8/8/8 7/7/7
f 10/10/10 11/11/11 9/9/9
f 10/10/10 12/12/12 11/11/11
f 14/14/14 15/15/15 13/13/13
f 14/14/14 16/16/16 15/15/15
f 18/18/18 19/19/19 17/17/17
f 18/18/18 20/20/20 19/19/19
f 22/22/22 23/23/23 21/21/21
f 22/22/22 24/24/24 23/23/23
