g Grass_0_Cluster201
v 249.1109 0.1000671 292.7716
v 248.5607 0.1000671 292.7716
v 249.1109 0.1000671 293.8719
v 248.5607 0.1000671 293.8719
v 262.8642 0.1000671 292.2215
v 261.764 0.1000671 292.2215
v 262.8642 0.1000671 293.8719
v 261.764 0.1000671 293.8719
v 266.165 0.1000671 292.2215
v 265.6149 0.1000671 292.2215
v 266.165 0.1000671 293.3217
v 265.6149 0.1000671 293.3217
v 249.661 0.1000671 290.571
v 248.5607 0.1000671 290.571
v 249.661 0.1000671 292.2215
v 248.5607 0.1000671 292.2215
v 248.5607 0.1000671 289.4708
v 247.4605 0.1000671 289.4708
v 248.5607 0.1000671 290.571
v 247.4605 0.1000671 290.571
v 266.7152 0.1000671 289.4708
v 265.6149 0.1000671 289.4708
v 266.7152 0.1000671 290.571
v 265.6149 0.1000671 290.571
v 259.0133 0.1000671 286.17
v 257.913 0.1000671 286.17
v 259.0133 0.1000671 287.2703
v 257.913 0.1000671 287.2703
v 242.5092 0.1000671 281.2188
v 241.9591 0.1000671 281.2188
v 242.5092 0.1000671 282.8692
v 241.9591 0.1000671 282.8692
v 259.0133 0.1000671 280.1185
v 258.4632 0.1000671 280.1185
v 259.0133 0.1000671 281.2188
v 258.4632 0.1000671 281.2188
v 258.4632 0.1000671 278.4681
v 257.3629 0.1000671 278.4681
v 258.4632 0.1000671 280.1185
v 257.3629 0.1000671 280.1185
v 268.9157 0.1000671 278.4681
v 267.8154 0.1000671 278.4681
v 268.9157 0.1000671 280.1185
v 267.8154 0.1000671 280.1185
v 254.6122 0.1000671 276.2676
v 254.0621 0.1000671 276.2676
v 254.6122 0.1000671 277.918
v 254.0621 0.1000671 277.918
v 259.5634 0.1000671 271.8665
v 258.4632 0.1000671 271.8665
v 259.5634 0.1000671 272.9667
v 258.4632 0.1000671 272.9667
v 258.4632 0.1000671 270.7662
v 257.913 0.1000671 270.7662
v 258.4632 0.1000671 271.8665
v 257.913 0.1000671 271.8665
v 245.8101 0.1000671 268.0156
v 244.7098 0.1000671 268.0156
v 245.8101 0.1000671 269.1158
v 244.7098 0.1000671 269.1158
v 258.4632 0.1000671 267.4654
v 257.3629 0.1000671 267.4654
v 258.4632 0.1000671 269.1158
v 257.3629 0.1000671 269.1158
v 244.7098 0.1000671 266.9153
v 244.1597 0.1000671 266.9153
v 244.7098 0.1000671 268.0156
v 244.1597 0.1000671 268.0156
v 246.9103 0.1000671 266.3652
v 245.8101 0.1000671 266.3652
v 246.9103 0.1000671 267.4654
v 245.8101 0.1000671 267.4654
v 246.9103 0.1000671 265.2649
v 246.3602 0.1000671 265.2649
v 246.9103 0.1000671 266.3652
v 246.3602 0.1000671 266.3652
v 243.6095 0.1000671 264.7147
v 242.5092 0.1000671 264.7147
v 243.6095 0.1000671 266.3652
v 242.5092 0.1000671 266.3652
v 240.8589 0.1000671 264.7147
v 239.7586 0.1000671 264.7147
v 240.8589 0.1000671 266.3652
v 239.7586 0.1000671 266.3652
v 245.2599 0.1000671 264.7147
v 244.1597 0.1000671 264.7147
v 245.2599 0.1000671 265.815
v 244.1597 0.1000671 265.815
v 248.0106 0.1000671 264.7147
v 247.4605 0.1000671 264.7147
v 248.0106 0.1000671 265.815
v 247.4605 0.1000671 265.815
v 246.3602 0.1000671 264.7147
v 245.8101 0.1000671 264.7147
v 246.3602 0.1000671 265.815
v 245.8101 0.1000671 265.815
v 244.1597 0.1000671 264.1646
v 243.0594 0.1000671 264.1646
v 244.1597 0.1000671 265.2649
v 243.0594 0.1000671 265.2649
v 244.7098 0.1000671 264.1646
v 243.6095 0.1000671 264.1646
v 244.7098 0.1000671 265.2649
v 243.6095 0.1000671 265.2649
v 245.8101 0.1000671 264.1646
v 245.2599 0.1000671 264.1646
v 245.8101 0.1000671 265.2649
v 245.2599 0.1000671 265.2649
v 248.5607 0.1000671 263.6145
v 247.4605 0.1000671 263.6145
v 248.5607 0.1000671 264.7147
v 247.4605 0.1000671 264.7147
vt 0 0.9058824
vt 0.06666667 0.9058824
vt 0 1
vt 0.06666667 1
vt 0 0.9058824
vt 0.06666667 0.9058824
vt 0 1
vt 0.06666667 1
vt 0 0.9058824
vt 0.06666667 0.9058824
vt 0 1
vt 0.06666667 1
vt 0 0.9058824
vt 0.06666667 0.9058824
vt 0 1
vt 0.06666667 1
vt 0 0.9058824
vt 0.06666667 0.9058824
vt 0 1
vt 0.06666667 1
vt 0 0.9058824
vt 0.06666667 0.9058824
vt 0 1
vt 0.06666667 1
vt 0 0.9058824
vt 0.06666667 0.9058824
vt 0 1
vt 0.06666667 1
vt 0 0.9058824
vt 0.06666667 0.9058824
vt 0 1
vt 0.06666667 1
vt 0 0.9058824
vt 0.06666667 0.9058824
vt 0 1
vt 0.06666667 1
vt 0 0.9058824
vt 0.06666667 0.9058824
vt 0 1
vt 0.06666667 1
vt 0 0.9058824
vt 0.06666667 0.9058824
vt 0 1
vt 0.06666667 1
vt 0 0.9058824
vt 0.06666667 0.9058824
vt 0 1
vt 0.06666667 1
vt 0 0.9058824
vt 0.06666667 0.9058824
vt 0 1
vt 0.06666667 1
vt 0 0.9058824
vt 0.06666667 0.9058824
vt 0 1
vt 0.06666667 1
vt 0 0.9058824
vt 0.06666667 0.9058824
vt 0 1
vt 0.06666667 1
vt 0 0.9058824
vt 0.06666667 0.9058824
vt 0 1
vt 0.06666667 1
vt 0 0.9058824
vt 0.06666667 0.9058824
vt 0 1
vt 0.06666667 1
vt 0 0.9058824
vt 0.06666667 0.9058824
vt 0 1
vt 0.06666667 1
vt 0 0.9058824
vt 0.06666667 0.9058824
vt 0 1
vt 0.06666667 1
vt 0 0.9058824
vt 0.06666667 0.9058824
vt 0 1
vt 0.06666667 1
vt 0 0.9058824
vt 0.06666667 0.9058824
vt 0 1
vt 0.06666667 1
vt 0 0.9058824
vt 0.06666667 0.9058824
vt 0 1
vt 0.06666667 1
vt 0 0.9058824
vt 0.06666667 0.9058824
vt 0 1
vt 0.06666667 1
vt 0 0.9058824
vt 0.06666667 0.9058824
vt 0 1
vt 0.06666667 1
vt 0 0.9058824
vt 0.06666667 0.9058824
vt 0 1
vt 0.06666667 1
vt 0 0.9058824
vt 0.06666667 0.9058824
vt 0 1
vt 0.06666667 1
vt 0 0.9058824
vt 0.06666667 0.9058824
vt 0 1
vt 0.06666667 1
vt 0 0.9058824
vt 0.06666667 0.9058824
vt 0 1
vt 0.06666667 1
vn 0 1 0
vn 0 1 0
vn 0 1 0
vn 0 1 0
vn 0 1 0
vn 0 1 0
vn 0 1 0
vn 0 1 0
vn 0 1 0
vn 0 1 0
vn 0 1 0
vn 0 1 0
vn 0 1 0
vn 0 1 0
vn 0 1 0
vn 0 1 0
vn 0 1 0
vn 0 1 0
vn 0 1 0
vn 0 1 0
vn 0 1 0
vn 0 1 0
vn 0 1 0
vn 0 1 0
vn 0 1 0
vn 0 1 0
vn 0 1 0
vn 0 1 0
vn 0 1 0
vn 0 1 0
vn 0 1 0
vn 0 1 0
vn 0 1 0
vn 0 1 0
vn 0 1 0
vn 0 1 0
vn 0 1 0
vn 0 1 0
vn 0 1 0
vn 0 1 0
vn 0 1 0
vn 0 1 0
vn 0 1 0
vn 0 1 0
vn 0 1 0
vn 0 1 0
vn 0 1 0
vn 0 1 0
vn 0 1 0
vn 0 1 0
vn 0 1 0
vn 0 1 0
vn 0 1 0
vn 0 1 0
vn 0 1 0
vn 0 1 0
vn 0 1 0
vn 0 1 0
vn 0 1 0
vn 0 1 0
vn 0 1 0
vn 0 1 0
vn 0 1 0
vn 0 1 0
vn 0 1 0
vn 0 1 0
vn 0 1 0
vn 0 1 0
vn 0 1 0
vn 0 1 0
vn 0 1 0
vn 0 1 0
vn 0 1 0
vn 0 1 0
vn 0 1 0
vn 0 1 0
vn 0 1 0
vn 0 1 0
vn 0 1 0
vn 0 1 0
vn 0 1 0
vn 0 1 0
vn 0 1 0
vn 0 1 0
vn 0 1 0
vn 0 1 0
vn 0 1 0
vn 0 1 0
vn 0 1 0
vn 0 1 0
vn 0 1 0
vn 0 1 0
vn 0 1 0
vn 0 1 0
vn 0 1 0
vn 0 1 0
vn 0 1 0
vn 0 1 0
vn 0 1 0
vn 0 1 0
vn 0 1 0
vn 0 1 0
vn 0 1 0
vn 0 1 0
vn 0 1 0
vn 0 1 0
vn 0 1 0
vn 0 1 0
vn 0 1 0
vn 0 1 0
vn 0 1 0
vn 0 1 0
g Grass_0_Cluster201_0
f 2/2/2 3/3/3 1/1/1
f 2/2/2 4/4/4 3/3/3
f 6/6/6 7/7/7 5/5/5
f 6/6/6 8/8/8 7/7/7
f 10/10/10 11/11/11 9/9/9
f 10/10/10 12/12/12 11/11/11
f 14/14/14 15/15/15 13/13/13
f 14/14/14 16/16/16 15/15/15
f 18/18/18 19/19/19 17/17/17
f 18/18/18 20/20/20 19/19/19
f 22/22/22 23/23/23 21/21/21
f 22/22/22 24/24/24 23/23/23
f 26/26/26 27/27/27 25/25/25
f 26/26/26 28/28/28 27/27/27
f 30/30/30 31/31/31 29/29/29
f 30/30/30 32/32/32 31/31/31
f 34/34/34 35/35/35 33/33/33
f 34/34/34 36/36/36 35/35/35
f 38/38/38 39/39/39 37/37/37
f 38/38/38 40/40/40 39/39/39
f 42/42/42 43/43/43 41/41/41
f 42/42/42 44/44/44 43/43/43
f 46/46/46 47/47/47 45/45/45
f 46/46/46 48/48/48 47/47/47
f 50/50/50 51/51/51 49/49/49
f 50/50/50 52/52/52 51/51/51
f 54/54/54 55/55/55 53/53/53
f 54/54/54 56/56/56 55/55/55
f 58/58/58 59/59/59 57/57/57
f 58/58/58 60/60/60 59/59/59
f 62/62/62 63/63/63 61/61/61
f 62/62/62 64/64/64 63/63/63
f 66/66/66 67/67/67 65/65/65
f 66/66/66 68/68/68 67/67/67
f 70/70/70 71/71/71 69/69/69
f 70/70/70 72/72/72 71/71/71
f 74/74/74 75/75/75 73/73/73
f 74/74/74 76/76/76 75/75/75
f 78/78/78 79/79/79 77/77/77
f 78/78/78 80/80/80 79/79/79
f 82/82/82 83/83/83 81/81/81
f 82/82/82 84/84/84 83/83/83
f 86/86/86 87/87/87 85/85/85
f 86/86/86 88/88/88 87/87/87
f 90/90/90 91/91/91 89/89/89
f 90/90/90 92/92/92 91/91/91
f 94/94/94 95/95/95 93/93/93
f 94/94/94 96/96/96 95/95/95
f 98/98/98 99/99/99 97/97/97
f 98/98/98 100/100/100 99/99/99
f 102/102/102 103/103/103 101/101/101
f 102/102/102 104/104/104 103/103/103
f 106/106/106 107/107/107 105/105/105
f 106/106/106 108/108/108 107/107/107
f 110/110/110 111/111/111 109/109/109
f 110/110/110 112/112/112 111/111/111
