g Grass_1_Cluster69
v 11.59323 -0.03777695 80.9594
v 10.72112 -0.03777695 80.9594
v 11.59323 -0.03777695 81.72249
v 10.72112 -0.03777695 81.72249
v 10.17605 -0.03777695 79.97827
v 9.194927 -0.03777695 79.97827
v 10.17605 -0.03777695 80.74137
v 9.194927 -0.03777695 80.74137
v 8.9769 -0.03777695 79.54222
v 8.10479 -0.03777695 79.54222
v 8.9769 -0.03777695 80.41433
v 8.10479 -0.03777695 80.41433
v 12.90139 -0.03777695 79.65123
v 12.02928 -0.03777695 79.65123
v 12.90139 -0.03777695 80.41433
v 12.02928 -0.03777695 80.41433
v 16.60786 -0.03777695 78.6701
v 15.62674 -0.03777695 78.6701
v 16.60786 -0.03777695 79.54222
v 15.62674 -0.03777695 79.54222
v 10.50309 -0.03777695 77.798
v 9.630981 -0.03777695 77.798
v 10.50309 -0.03777695 78.6701
v 9.630981 -0.03777695 78.6701
v 29.79852 -0.03777695 71.03915
v 28.9264 -0.03777695 71.03915
v 29.79852 -0.03777695 71.91126
v 28.9264 -0.03777695 71.91126
v 20.0963 -0.03777695 70.93014
v 19.22419 -0.03777695 70.93014
v 20.0963 -0.03777695 71.69323
v 19.22419 -0.03777695 71.69323
v 2.545092 -0.03777695 61.99101
v 1.781996 -0.03777695 61.99101
v 2.545092 -0.03777695 62.75411
v 1.781996 -0.03777695 62.75411
v 4.071283 -0.03777695 60.2468
v 3.199175 -0.03777695 60.2468
v 4.071283 -0.03777695 61.1189
v 3.199175 -0.03777695 61.1189
v 1.89101 -0.03777695 59.91975
v 1.0189 -0.03777695 59.91975
v 1.89101 -0.03777695 60.68285
v 1.0189 -0.03777695 60.68285
v 1.454956 -0.03777695 59.4837
v 0.5828457 -0.03777695 59.4837
v 1.454956 -0.03777695 60.2468
v 0.5828457 -0.03777695 60.2468
vt 0.06738281 0.9369141
vt 0.1331457 0.9369141
vt 0.06738281 0.9990234
vt 0.1331457 0.9990234
vt 0.06738281 0.9369141
vt 0.1331457 0.9369141
vt 0.06738281 0.9990234
vt 0.1331457 0.9990234
vt 0.06738281 0.9369141
vt 0.1331457 0.9369141
vt 0.06738281 0.9990234
vt 0.1331457 0.9990234
vt 0.06738281 0.9369141
vt 0.1331457 0.9369141
vt 0.06738281 0.9990234
vt 0.1331457 0.9990234
vt 0.06738281 0.9369141
vt 0.1331457 0.9369141
vt 0.06738281 0.9990234
vt 0.1331457 0.9990234
vt 0.06738281 0.9369141
vt 0.1331457 0.9369141
vt 0.06738281 0.9990234
vt 0.1331457 0.9990234
vt 0.06738281 0.9369141
vt 0.1331457 0.9369141
vt 0.06738281 0.9990234
vt 0.1331457 0.9990234
vt 0.06738281 0.9369141
vt 0.1331457 0.9369141
vt 0.06738281 0.9990234
vt 0.1331457 0.9990234
vt 0.06738281 0.9369141
vt 0.1331457 0.9369141
vt 0.06738281 0.9990234
vt 0.1331457 0.9990234
vt 0.06738281 0.9369141
vt 0.1331457 0.9369141
vt 0.06738281 0.9990234
vt 0.1331457 0.9990234
vt 0.06738281 0.9369141
vt 0.1331457 0.9369141
vt 0.06738281 0.9990234
vt 0.1331457 0.9990234
vt 0.06738281 0.9369141
vt 0.1331457 0.9369141
vt 0.06738281 0.9990234
vt 0.1331457 0.9990234
vn 0 1 0
vn 0 1 0
vn 0 1 0
vn 0 1 0
vn 0 1 0
vn 0 1 0
vn 0 1 0
vn 0 1 0
vn 0 1 0
vn 0 1 0
vn 0 1 0
vn 0 1 0
vn 0 1 0
vn 0 1 0
vn 0 1 0
vn 0 1 0
vn 0 1 0
vn 0 1 0
vn 0 1 0
vn 0 1 0
vn 0 1 0
vn 0 1 0
vn 0 1 0
vn 0 1 0
vn 0 1 0
vn 0 1 0
vn 0 1 0
vn 0 1 0
vn 0 1 0
vn 0 1 0
vn 0 1 0
vn 0 1 0
vn 0 1 0
vn 0 1 0
vn 0 1 0
vn 0 1 0
vn 0 1 0
vn 0 1 0
vn 0 1 0
vn 0 1 0
vn 0 1 0
vn 0 1 0
vn 0 1 0
vn 0 1 0
vn 0 1 0
vn 0 1 0
vn 0 1 0
vn 0 1 0
g Grass_1_Cluster69_0
f 2/2/2 3/3/3 1/1/1
f 2/2/2 4/4/4 3/3/3
f 6/6/6 7/7/7 5/5/5
f 6/6/6 8/8/8 7/7/7
f 10/10/10 11/11/11 9/9/9
f 10/10/10 12/12/12 11/11/11
f 14/14/14 15/15/15 13/13/13
f 14/14/14 16/16/16 15/15/15
f 18/18/18 19/19/19 17/17/17
f 18/18/18 20/20/20 19/19/19
f 22/22/22 23/23/23 21/21/21
f 22/22/22 24/24/24 23/23/23
f 26/26/26 27/27/27 25/25/25
f 26/26/26 28/28/28 27/27/27
f 30/30/30 31/31/31 29/29/29
f 30/30/30 32/32/32 31/31/31
f 34/34/34 35/35/35 33/33/33
f 34/34/34 36/36/36 35/35/35
f 38/38/38 39/39/39 37/37/37
f 38/38/38 40/40/40 39/39/39
f 42/42/42 43/43/43 41/41/41
f 42/42/42 44/44/44 43/43/43
f 46/46/46 47/47/47 45/45/45
f 46/46/46 48/48/48 47/47/47
