g Grass_2_Cluster5
v 124.8109 0 -7.029587
v 123.8067 0 -7.029587
v 124.8109 0 -5.881897
v 123.8067 0 -5.881897
v 125.2413 0 -7.89035
v 124.3805 0 -7.89035
v 125.2413 0 -6.886124
v 124.3805 0 -6.886124
v 124.0936 0 -8.464188
v 123.0894 0 -8.464188
v 124.0936 0 -7.459961
v 123.0894 0 -7.459961
v 126.9628 0 -18.79337
v 126.1021 0 -18.79337
v 126.9628 0 -17.78914
v 126.1021 0 -17.78914
v 125.3848 0 -19.94106
v 124.3805 0 -19.94106
v 125.3848 0 -18.93683
v 124.3805 0 -18.93683
v 123.2329 0 -20.08452
v 122.3721 0 -20.08452
v 123.2329 0 -19.08029
v 122.3721 0 -19.08029
v 124.3805 0 -20.65836
v 123.3763 0 -20.65836
v 124.3805 0 -19.51067
v 123.3763 0 -19.51067
v 125.5282 0 -20.80182
v 124.524 0 -20.80182
v 125.5282 0 -19.79759
v 124.524 0 -19.79759
v 126.2455 0 -20.80182
v 125.2413 0 -20.80182
v 126.2455 0 -19.79759
v 125.2413 0 -19.79759
v 123.6632 0 -21.2322
v 122.659 0 -21.2322
v 123.6632 0 -20.08452
v 122.659 0 -20.08452
v 123.2329 0 -21.37566
v 122.3721 0 -21.37566
v 123.2329 0 -20.37144
v 122.3721 0 -20.37144
v 129.1147 0 -21.66258
v 128.254 0 -21.66258
v 129.1147 0 -20.5149
v 128.254 0 -20.5149
v 127.6801 0 -21.80605
v 126.8194 0 -21.80605
v 127.6801 0 -20.80182
v 126.8194 0 -20.80182
v 124.6675 0 -21.80605
v 123.8067 0 -21.80605
v 124.6675 0 -20.80182
v 123.8067 0 -20.80182
v 122.8025 0 -22.23643
v 121.9417 0 -22.23643
v 122.8025 0 -21.2322
v 121.9417 0 -21.2322
v 125.9586 0 -22.52335
v 124.9544 0 -22.52335
v 125.9586 0 -21.51913
v 124.9544 0 -21.51913
v 123.9502 0 -22.66681
v 122.9459 0 -22.66681
v 123.9502 0 -21.51913
v 122.9459 0 -21.51913
v 124.9544 0 -22.81027
v 123.9502 0 -22.81027
v 124.9544 0 -21.66258
v 123.9502 0 -21.66258
v 128.9713 0 -22.81027
v 128.1105 0 -22.81027
v 128.9713 0 -21.80605
v 128.1105 0 -21.80605
v 128.1105 0 -23.09719
v 127.2498 0 -23.09719
v 128.1105 0 -21.94951
v 127.2498 0 -21.94951
v 126.6759 0 -23.24065
v 125.6717 0 -23.24065
v 126.6759 0 -22.09297
v 125.6717 0 -22.09297
v 130.6928 0 -23.38412
v 129.6886 0 -23.38412
v 130.6928 0 -22.23643
v 129.6886 0 -22.23643
v 128.5409 0 -23.52758
v 127.6801 0 -23.52758
v 128.5409 0 -22.52335
v 127.6801 0 -22.52335
v 127.2498 0 -23.8145
v 126.2455 0 -23.8145
v 127.2498 0 -22.66681
v 126.2455 0 -22.66681
v 125.9586 0 -23.95796
v 124.9544 0 -23.95796
v 125.9586 0 -22.81027
v 124.9544 0 -22.81027
v 129.8321 0 -24.24488
v 128.8278 0 -24.24488
v 129.8321 0 -23.24065
v 128.8278 0 -23.24065
v 124.2371 0 -24.5318
v 123.3763 0 -24.5318
v 124.2371 0 -23.38412
v 123.3763 0 -23.38412
v 127.2498 0 -24.5318
v 126.2455 0 -24.5318
v 127.2498 0 -23.52758
v 126.2455 0 -23.52758
v 128.5409 0 -24.81873
v 127.5367 0 -24.81873
v 128.5409 0 -23.67104
v 127.5367 0 -23.67104
v 125.5282 0 -24.81873
v 124.524 0 -24.81873
v 125.5282 0 -23.67104
v 124.524 0 -23.67104
v 129.8321 0 -25.24911
v 128.9713 0 -25.24911
v 129.8321 0 -24.10142
v 128.9713 0 -24.10142
v 128.6844 0 -25.39257
v 127.8236 0 -25.39257
v 128.6844 0 -24.24488
v 127.8236 0 -24.24488
v 130.6928 0 -25.96641
v 129.8321 0 -25.96641
v 130.6928 0 -24.96219
v 129.8321 0 -24.96219
v 127.9671 0 -26.54025
v 127.1063 0 -26.54025
v 127.9671 0 -25.39257
v 127.1063 0 -25.39257
v 134.1359 0 -26.39679
v 133.1317 0 -26.39679
v 134.1359 0 -25.24911
v 133.1317 0 -25.24911
v 131.5536 0 -28.11832
v 130.6928 0 -28.11832
v 131.5536 0 -26.97063
v 130.6928 0 -26.97063
v 146.7604 0 -28.40524
v 145.8997 0 -28.40524
v 146.7604 0 -27.40102
v 145.8997 0 -27.40102
v 145.7562 0 -29.98331
v 144.752 0 -29.98331
v 145.7562 0 -28.83562
v 144.752 0 -28.83562
vt 0.1347656 0.9185662
vt 0.2060202 0.9185662
vt 0.1347656 1
vt 0.2060202 1
vt 0.1347656 0.9185662
vt 0.2060202 0.9185662
vt 0.1347656 1
vt 0.2060202 1
vt 0.1347656 0.9185662
vt 0.2060202 0.9185662
vt 0.1347656 1
vt 0.2060202 1
vt 0.1347656 0.9185662
vt 0.2060202 0.9185662
vt 0.1347656 1
vt 0.2060202 1
vt 0.1347656 0.9185662
vt 0.2060202 0.9185662
vt 0.1347656 1
vt 0.2060202 1
vt 0.1347656 0.9185662
vt 0.2060202 0.9185662
vt 0.1347656 1
vt 0.2060202 1
vt 0.1347656 0.9185662
vt 0.2060202 0.9185662
vt 0.1347656 1
vt 0.2060202 1
vt 0.1347656 0.9185662
vt 0.2060202 0.9185662
vt 0.1347656 1
vt 0.2060202 1
vt 0.1347656 0.9185662
vt 0.2060202 0.9185662
vt 0.1347656 1
vt 0.2060202 1
vt 0.1347656 0.9185662
vt 0.2060202 0.9185662
vt 0.1347656 1
vt 0.2060202 1
vt 0.1347656 0.9185662
vt 0.2060202 0.9185662
vt 0.1347656 1
vt 0.2060202 1
vt 0.1347656 0.9185662
vt 0.2060202 0.9185662
vt 0.1347656 1
vt 0.2060202 1
vt 0.1347656 0.9185662
vt 0.2060202 0.9185662
vt 0.1347656 1
vt 0.2060202 1
vt 0.1347656 0.9185662
vt 0.2060202 0.9185662
vt 0.1347656 1
vt 0.2060202 1
vt 0.1347656 0.9185662
vt 0.2060202 0.9185662
vt 0.1347656 1
vt 0.2060202 1
vt 0.1347656 0.9185662
vt 0.2060202 0.9185662
vt 0.1347656 1
vt 0.2060202 1
vt 0.1347656 0.9185662
vt 0.2060202 0.9185662
vt 0.1347656 1
vt 0.2060202 1
vt 0.1347656 0.9185662
vt 0.2060202 0.9185662
vt 0.1347656 1
vt 0.2060202 1
vt 0.1347656 0.9185662
vt 0.2060202 0.9185662
vt 0.1347656 1
vt 0.2060202 1
vt 0.1347656 0.9185662
vt 0.2060202 0.9185662
vt 0.1347656 1
vt 0.2060202 1
vt 0.1347656 0.9185662
vt 0.2060202 0.9185662
vt 0.1347656 1
vt 0.2060202 1
vt 0.1347656 0.9185662
vt 0.2060202 0.9185662
vt 0.1347656 1
vt 0.2060202 1
vt 0.1347656 0.9185662
vt 0.2060202 0.9185662
vt 0.1347656 1
vt 0.2060202 1
vt 0.1347656 0.9185662
vt 0.2060202 0.9185662
vt 0.1347656 1
vt 0.2060202 1
vt 0.1347656 0.9185662
vt 0.2060202 0.9185662
vt 0.1347656 1
vt 0.2060202 1
vt 0.1347656 0.9185662
vt 0.2060202 0.9185662
vt 0.1347656 1
vt 0.2060202 1
vt 0.1347656 0.9185662
vt 0.2060202 0.9185662
vt 0.1347656 1
vt 0.2060202 1
vt 0.1347656 0.9185662
vt 0.2060202 0.9185662
vt 0.1347656 1
vt 0.2060202 1
vt 0.1347656 0.9185662
vt 0.2060202 0.9185662
vt 0.1347656 1
vt 0.2060202 1
vt 0.1347656 0.9185662
vt 0.2060202 0.9185662
vt 0.1347656 1
vt 0.2060202 1
vt 0.1347656 0.9185662
vt 0.2060202 0.9185662
vt 0.1347656 1
vt 0.2060202 1
vt 0.1347656 0.9185662
vt 0.2060202 0.9185662
vt 0.1347656 1
vt 0.2060202 1
vt 0.1347656 0.9185662
vt 0.2060202 0.9185662
vt 0.1347656 1
vt 0.2060202 1
vt 0.1347656 0.9185662
vt 0.2060202 0.9185662
vt 0.1347656 1
vt 0.2060202 1
vt 0.1347656 0.9185662
vt 0.2060202 0.9185662
vt 0.1347656 1
vt 0.2060202 1
vt 0.1347656 0.9185662
vt 0.2060202 0.9185662
vt 0.1347656 1
vt 0.2060202 1
vt 0.1347656 0.9185662
vt 0.2060202 0.9185662
vt 0.1347656 1
vt 0.2060202 1
vt 0.1347656 0.9185662
vt 0.2060202 0.9185662
vt 0.1347656 1
vt 0.2060202 1
vn 0 1 0
vn 0 1 0
vn 0 1 0
vn 0 1 0
vn 0 1 0
vn 0 1 0
vn 0 1 0
vn 0 1 0
vn 0 1 0
vn 0 1 0
vn 0 1 0
vn 0 1 0
vn 0 1 0
vn 0 1 0
vn 0 1 0
vn 0 1 0
vn 0 1 0
vn 0 1 0
vn 0 1 0
vn 0 1 0
vn 0 1 0
vn 0 1 0
vn 0 1 0
vn 0 1 0
vn 0 1 0
vn 0 1 0
vn 0 1 0
vn 0 1 0
vn 0 1 0
vn 0 1 0
vn 0 1 0
vn 0 1 0
vn 0 1 0
vn 0 1 0
vn 0 1 0
vn 0 1 0
vn 0 1 0
vn 0 1 0
vn 0 1 0
vn 0 1 0
vn 0 1 0
vn 0 1 0
vn 0 1 0
vn 0 1 0
vn 0 1 0
vn 0 1 0
vn 0 1 0
vn 0 1 0
vn 0 1 0
vn 0 1 0
vn 0 1 0
vn 0 1 0
vn 0 1 0
vn 0 1 0
vn 0 1 0
vn 0 1 0
vn 0 1 0
vn 0 1 0
vn 0 1 0
vn 0 1 0
vn 0 1 0
vn 0 1 0
vn 0 1 0
vn 0 1 0
vn 0 1 0
vn 0 1 0
vn 0 1 0
vn 0 1 0
vn 0 1 0
vn 0 1 0
vn 0 1 0
vn 0 1 0
vn 0 1 0
vn 0 1 0
vn 0 1 0
vn 0 1 0
vn 0 1 0
vn 0 1 0
vn 0 1 0
vn 0 1 0
vn 0 1 0
vn 0 1 0
vn 0 1 0
vn 0 1 0
vn 0 1 0
vn 0 1 0
vn 0 1 0
vn 0 1 0
vn 0 1 0
vn 0 1 0
vn 0 1 0
vn 0 1 0
vn 0 1 0
vn 0 1 0
vn 0 1 0
vn 0 1 0
vn 0 1 0
vn 0 1 0
vn 0 1 0
vn 0 1 0
vn 0 1 0
vn 0 1 0
vn 0 1 0
vn 0 1 0
vn 0 1 0
vn 0 1 0
vn 0 1 0
vn 0 1 0
vn 0 1 0
vn 0 1 0
vn 0 1 0
vn 0 1 0
vn 0 1 0
vn 0 1 0
vn 0 1 0
vn 0 1 0
vn 0 1 0
vn 0 1 0
vn 0 1 0
vn 0 1 0
vn 0 1 0
vn 0 1 0
vn 0 1 0
vn 0 1 0
vn 0 1 0
vn 0 1 0
vn 0 1 0
vn 0 1 0
vn 0 1 0
vn 0 1 0
vn 0 1 0
vn 0 1 0
vn 0 1 0
vn 0 1 0
vn 0 1 0
vn 0 1 0
vn 0 1 0
vn 0 1 0
vn 0 1 0
vn 0 1 0
vn 0 1 0
vn 0 1 0
vn 0 1 0
vn 0 1 0
vn 0 1 0
vn 0 1 0
vn 0 1 0
vn 0 1 0
vn 0 1 0
vn 0 1 0
vn 0 1 0
vn 0 1 0
g Grass_2_Cluster5_0
f 2/2/2 3/3/3 1/1/1
f 2/2/2 4/4/4 3/3/3
f 6/6/6 7/7/7 5/5/5
f 6/6/6 8/8/8 7/7/7
f 10/10/10 11/11/11 9/9/9
f 10/10/10 12/12/12 11/11/11
f 14/14/14 15/15/15 13/13/13
f 14/14/14 16/16/16 15/15/15
f 18/18/18 19/19/19 17/17/17
f 18/18/18 20/20/20 19/19/19
f 22/22/22 23/23/23 21/21/21
f 22/22/22 24/24/24 23/23/23
f 26/26/26 27/27/27 25/25/25
f 26/26/26 28/28/28 27/27/27
f 30/30/30 31/31/31 29/29/29
f 30/30/30 32/32/32 31/31/31
f 34/34/34 35/35/35 33/33/33
f 34/34/34 36/36/36 35/35/35
f 38/38/38 39/39/39 37/37/37
f 38/38/38 40/40/40 39/39/39
f 42/42/42 43/43/43 41/41/41
f 42/42/42 44/44/44 43/43/43
f 46/46/46 47/47/47 45/45/45
f 46/46/46 48/48/48 47/47/47
f 50/50/50 51/51/51 49/49/49
f 50/50/50 52/52/52 51/51/51
f 54/54/54 55/55/55 53/53/53
f 54/54/54 56/56/56 55/55/55
f 58/58/58 59/59/59 57/57/57
f 58/58/58 60/60/60 59/59/59
f 62/62/62 63/63/63 61/61/61
f 62/62/62 64/64/64 63/63/63
f 66/66/66 67/67/67 65/65/65
f 66/66/66 68/68/68 67/67/67
f 70/70/70 71/71/71 69/69/69
f 70/70/70 72/72/72 71/71/71
f 74/74/74 75/75/75 73/73/73
f 74/74/74 76/76/76 75/75/75
f 78/78/78 79/79/79 77/77/77
f 78/78/78 80/80/80 79/79/79
f 82/82/82 83/83/83 81/81/81
f 82/82/82 84/84/84 83/83/83
f 86/86/86 87/87/87 85/85/85
f 86/86/86 88/88/88 87/87/87
f 90/90/90 91/91/91 89/89/89
f 90/90/90 92/92/92 91/91/91
f 94/94/94 95/95/95 93/93/93
f 94/94/94 96/96/96 95/95/95
f 98/98/98 99/99/99 97/97/97
f 98/98/98 100/100/100 99/99/99
f 102/102/102 103/103/103 101/101/101
f 102/102/102 104/104/104 103/103/103
f 106/106/106 107/107/107 105/105/105
f 106/106/106 108/108/108 107/107/107
f 110/110/110 111/111/111 109/109/109
f 110/110/110 112/112/112 111/111/111
f 114/114/114 115/115/115 113/113/113
f 114/114/114 116/116/116 115/115/115
f 118/118/118 119/119/119 117/117/117
f 118/118/118 120/120/120 119/119/119
f 122/122/122 123/123/123 121/121/121
f 122/122/122 124/124/124 123/123/123
f 126/126/126 127/127/127 125/125/125
f 126/126/126 128/128/128 127/127/127
f 130/130/130 131/131/131 129/129/129
f 130/130/130 132/132/132 131/131/131
f 134/134/134 135/135/135 133/133/133
f 134/134/134 136/136/136 135/135/135
f 138/138/138 139/139/139 137/137/137
f 138/138/138 140/140/140 139/139/139
f 142/142/142 143/143/143 141/141/141
f 142/142/142 144/144/144 143/143/143
f 146/146/146 147/147/147 145/145/145
f 146/146/146 148/148/148 147/147/147
f 150/150/150 151/151/151 149/149/149
f 150/150/150 152/152/152 151/151/151
