g Grass_0_Cluster89
v 6.134331 -0.06114578 112.9283
v 5.145672 -0.06114578 112.9283
v 6.134331 -0.06114578 114.1995
v 5.145672 -0.06114578 114.1995
v 20.82296 -0.06114578 111.9397
v 19.8343 -0.06114578 111.9397
v 20.82296 -0.06114578 113.0696
v 19.8343 -0.06114578 113.0696
v 22.94152 -0.06114578 108.6912
v 22.0941 -0.06114578 108.6912
v 22.94152 -0.06114578 109.8211
v 22.0941 -0.06114578 109.8211
v 14.60854 -0.06114578 107.9851
v 13.76112 -0.06114578 107.9851
v 14.60854 -0.06114578 109.2562
v 13.76112 -0.06114578 109.2562
v 23.78894 -0.06114578 106.5727
v 22.80028 -0.06114578 106.5727
v 23.78894 -0.06114578 107.9851
v 22.80028 -0.06114578 107.9851
v 23.50646 -0.06114578 105.3016
v 22.65904 -0.06114578 105.3016
v 23.50646 -0.06114578 106.5727
v 22.65904 -0.06114578 106.5727
v 20.82296 -0.06114578 102.9005
v 19.97554 -0.06114578 102.9005
v 20.82296 -0.06114578 104.1717
v 19.97554 -0.06114578 104.1717
v 14.18483 -0.06114578 100.4995
v 13.33741 -0.06114578 100.4995
v 14.18483 -0.06114578 101.9119
v 13.33741 -0.06114578 101.9119
v 26.89615 -0.06114578 99.36961
v 26.04873 -0.06114578 99.36961
v 26.89615 -0.06114578 100.6407
v 26.04873 -0.06114578 100.6407
v 10.93638 -0.06114578 96.82734
v 10.08896 -0.06114578 96.82734
v 10.93638 -0.06114578 98.09847
v 10.08896 -0.06114578 98.09847
v 25.62502 -0.06114578 96.54487
v 24.7776 -0.06114578 96.54487
v 25.62502 -0.06114578 97.816
v 24.7776 -0.06114578 97.816
v 3.168356 -0.06114578 96.40363
v 2.320934 -0.06114578 96.40363
v 3.168356 -0.06114578 97.53352
v 2.320934 -0.06114578 97.53352
v 1.049803 -0.06114578 95.55621
v 0.06114578 -0.06114578 95.55621
v 1.049803 -0.06114578 96.82734
v 0.06114578 -0.06114578 96.82734
v 29.43841 -0.06114578 94.56755
v 28.59099 -0.06114578 94.56755
v 29.43841 -0.06114578 95.69744
v 28.59099 -0.06114578 95.69744
v 17.71575 -0.06114578 91.46034
v 16.86833 -0.06114578 91.46034
v 17.71575 -0.06114578 92.73147
v 16.86833 -0.06114578 92.73147
v 30.28583 -0.06114578 88.21189
v 29.43841 -0.06114578 88.21189
v 30.28583 -0.06114578 89.48302
v 29.43841 -0.06114578 89.48302
v 26.47244 -0.06114578 87.36447
v 25.62502 -0.06114578 87.36447
v 26.47244 -0.06114578 88.6356
v 25.62502 -0.06114578 88.6356
v 27.17862 -0.06114578 85.24592
v 26.18996 -0.06114578 85.24592
v 27.17862 -0.06114578 86.65829
v 26.18996 -0.06114578 86.65829
v 28.44975 -0.06114578 84.96344
v 27.4611 -0.06114578 84.96344
v 28.44975 -0.06114578 86.23457
v 27.4611 -0.06114578 86.23457
vt 0 0.9058824
vt 0.06666667 0.9058824
vt 0 1
vt 0.06666667 1
vt 0 0.9058824
vt 0.06666667 0.9058824
vt 0 1
vt 0.06666667 1
vt 0 0.9058824
vt 0.06666667 0.9058824
vt 0 1
vt 0.06666667 1
vt 0 0.9058824
vt 0.06666667 0.9058824
vt 0 1
vt 0.06666667 1
vt 0 0.9058824
vt 0.06666667 0.9058824
vt 0 1
vt 0.06666667 1
vt 0 0.9058824
vt 0.06666667 0.9058824
vt 0 1
vt 0.06666667 1
vt 0 0.9058824
vt 0.06666667 0.9058824
vt 0 1
vt 0.06666667 1
vt 0 0.9058824
vt 0.06666667 0.9058824
vt 0 1
vt 0.06666667 1
vt 0 0.9058824
vt 0.06666667 0.9058824
vt 0 1
vt 0.06666667 1
vt 0 0.9058824
vt 0.06666667 0.9058824
vt 0 1
vt 0.06666667 1
vt 0 0.9058824
vt 0.06666667 0.9058824
vt 0 1
vt 0.06666667 1
vt 0 0.9058824
vt 0.06666667 0.9058824
vt 0 1
vt 0.06666667 1
vt 0 0.9058824
vt 0.06666667 0.9058824
vt 0 1
vt 0.06666667 1
vt 0 0.9058824
vt 0.06666667 0.9058824
vt 0 1
vt 0.06666667 1
vt 0 0.9058824
vt 0.06666667 0.9058824
vt 0 1
vt 0.06666667 1
vt 0 0.9058824
vt 0.06666667 0.9058824
vt 0 1
vt 0.06666667 1
vt 0 0.9058824
vt 0.06666667 0.9058824
vt 0 1
vt 0.06666667 1
vt 0 0.9058824
vt 0.06666667 0.9058824
vt 0 1
vt 0.06666667 1
vt 0 0.9058824
vt 0.06666667 0.9058824
vt 0 1
vt 0.06666667 1
vn 0 1 0
vn 0 1 0
vn 0 1 0
vn 0 1 0
vn 0 1 0
vn 0 1 0
vn 0 1 0
vn 0 1 0
vn 0 1 0
vn 0 1 0
vn 0 1 0
vn 0 1 0
vn 0 1 0
vn 0 1 0
vn 0 1 0
vn 0 1 0
vn 0 1 0
vn 0 1 0
vn 0 1 0
vn 0 1 0
vn 0 1 0
vn 0 1 0
vn 0 1 0
vn 0 1 0
vn 0 1 0
vn 0 1 0
vn 0 1 0
vn 0 1 0
vn 0 1 0
vn 0 1 0
vn 0 1 0
vn 0 1 0
vn 0 1 0
vn 0 1 0
vn 0 1 0
vn 0 1 0
vn 0 1 0
vn 0 1 0
vn 0 1 0
vn 0 1 0
vn 0 1 0
vn 0 1 0
vn 0 1 0
vn 0 1 0
vn 0 1 0
vn 0 1 0
vn 0 1 0
vn 0 1 0
vn 0 1 0
vn 0 1 0
vn 0 1 0
vn 0 1 0
vn 0 1 0
vn 0 1 0
vn 0 1 0
vn 0 1 0
vn 0 1 0
vn 0 1 0
vn 0 1 0
vn 0 1 0
vn 0 1 0
vn 0 1 0
vn 0 1 0
vn 0 1 0
vn 0 1 0
vn 0 1 0
vn 0 1 0
vn 0 1 0
vn 0 1 0
vn 0 1 0
vn 0 1 0
vn 0 1 0
vn 0 1 0
vn 0 1 0
vn 0 1 0
vn 0 1 0
g Grass_0_Cluster89_0
f 2/2/2 3/3/3 1/1/1
f 2/2/2 4/4/4 3/3/3
f 6/6/6 7/7/7 5/5/5
f 6/6/6 8/8/8 7/7/7
f 10/10/10 11/11/11 9/9/9
f 10/10/10 12/12/12 11/11/11
f 14/14/14 15/15/15 13/13/13
f 14/14/14 16/16/16 15/15/15
f 18/18/18 19/19/19 17/17/17
f 18/18/18 20/20/20 19/19/19
f 22/22/22 23/23/23 21/21/21
f 22/22/22 24/24/24 23/23/23
f 26/26/26 27/27/27 25/25/25
f 26/26/26 28/28/28 27/27/27
f 30/30/30 31/31/31 29/29/29
f 30/30/30 32/32/32 31/31/31
f 34/34/34 35/35/35 33/33/33
f 34/34/34 36/36/36 35/35/35
f 38/38/38 39/39/39 37/37/37
f 38/38/38 40/40/40 39/39/39
f 42/42/42 43/43/43 41/41/41
f 42/42/42 44/44/44 43/43/43
f 46/46/46 47/47/47 45/45/45
f 46/46/46 48/48/48 47/47/47
f 50/50/50 51/51/51 49/49/49
f 50/50/50 52/52/52 51/51/51
f 54/54/54 55/55/55 53/53/53
f 54/54/54 56/56/56 55/55/55
f 58/58/58 59/59/59 57/57/57
f 58/58/58 60/60/60 59/59/59
f 62/62/62 63/63/63 61/61/61
f 62/62/62 64/64/64 63/63/63
f 66/66/66 67/67/67 65/65/65
f 66/66/66 68/68/68 67/67/67
f 70/70/70 71/71/71 69/69/69
f 70/70/70 72/72/72 71/71/71
f 74/74/74 75/75/75 73/73/73
f 74/74/74 76/76/76 75/75/75
