g Grass_2_Cluster70
v -3.805124 -0.002376705 79.95513
v -4.756999 -0.002376705 79.95513
v -3.805124 -0.002376705 81.06565
v -4.756999 -0.002376705 81.06565
v -2.060019 -0.002376705 79.79649
v -3.011895 -0.002376705 79.79649
v -2.060019 -0.002376705 80.90701
v -3.011895 -0.002376705 80.90701
v -4.915645 -0.002376705 79.55852
v -5.788197 -0.002376705 79.55852
v -4.915645 -0.002376705 80.58971
v -5.788197 -0.002376705 80.58971
v -4.439707 -0.002376705 78.84461
v -5.391582 -0.002376705 78.84461
v -4.439707 -0.002376705 80.03445
v -5.391582 -0.002376705 80.03445
v -3.329186 -0.002376705 78.68597
v -4.281061 -0.002376705 78.68597
v -3.329186 -0.002376705 79.79649
v -4.281061 -0.002376705 79.79649
v -6.343458 -0.002376705 78.28935
v -7.21601 -0.002376705 78.28935
v -6.343458 -0.002376705 79.39987
v -7.21601 -0.002376705 79.39987
v -3.408509 -0.002376705 77.97206
v -4.439707 -0.002376705 77.97206
v -3.408509 -0.002376705 79.08258
v -4.439707 -0.002376705 79.08258
v -7.374656 -0.002376705 77.81342
v -8.326531 -0.002376705 77.81342
v -7.374656 -0.002376705 78.92393
v -8.326531 -0.002376705 78.92393
v -8.643823 -0.002376705 77.73409
v -9.595698 -0.002376705 77.73409
v -8.643823 -0.002376705 78.84461
v -9.595698 -0.002376705 78.84461
v -2.694603 -0.002376705 77.57545
v -3.646478 -0.002376705 77.57545
v -2.694603 -0.002376705 78.76529
v -3.646478 -0.002376705 78.76529
v -4.598353 -0.002376705 77.25816
v -5.470905 -0.002376705 77.25816
v -4.598353 -0.002376705 78.28935
v -5.470905 -0.002376705 78.28935
v -6.740072 -0.002376705 77.25816
v -7.77127 -0.002376705 77.25816
v -6.740072 -0.002376705 78.36868
v -7.77127 -0.002376705 78.36868
v -8.405854 -0.002376705 76.94086
v -9.278406 -0.002376705 76.94086
v -8.405854 -0.002376705 77.89274
v -9.278406 -0.002376705 77.89274
v -11.02351 -0.002376705 76.94086
v -12.05471 -0.002376705 76.94086
v -11.02351 -0.002376705 78.05138
v -12.05471 -0.002376705 78.05138
v -4.043093 -0.002376705 76.7029
v -4.994967 -0.002376705 76.7029
v -4.043093 -0.002376705 77.81342
v -4.994967 -0.002376705 77.81342
v -5.391582 -0.002376705 76.54425
v -6.422781 -0.002376705 76.54425
v -5.391582 -0.002376705 77.65477
v -6.422781 -0.002376705 77.65477
v -6.819395 -0.002376705 76.30628
v -7.691947 -0.002376705 76.30628
v -6.819395 -0.002376705 77.4168
v -7.691947 -0.002376705 77.4168
v -5.470905 -0.002376705 76.06831
v -6.343458 -0.002376705 76.06831
v -5.470905 -0.002376705 77.17883
v -6.343458 -0.002376705 77.17883
v -4.439707 -0.002376705 75.59237
v -5.391582 -0.002376705 75.59237
v -4.439707 -0.002376705 76.7029
v -5.391582 -0.002376705 76.7029
v -10.78554 -0.002376705 75.3544
v -11.81674 -0.002376705 75.3544
v -10.78554 -0.002376705 76.46493
v -11.81674 -0.002376705 76.46493
v -7.691947 -0.002376705 75.19576
v -8.723145 -0.002376705 75.19576
v -7.691947 -0.002376705 76.3856
v -8.723145 -0.002376705 76.3856
v -5.470905 -0.002376705 75.03711
v -6.343458 -0.002376705 75.03711
v -5.470905 -0.002376705 76.14764
v -6.343458 -0.002376705 76.14764
v -6.184812 -0.002376705 74.79914
v -7.057364 -0.002376705 74.79914
v -6.184812 -0.002376705 75.83034
v -7.057364 -0.002376705 75.83034
v -11.81674 -0.002376705 74.79914
v -12.84794 -0.002376705 74.79914
v -11.81674 -0.002376705 75.98898
v -12.84794 -0.002376705 75.98898
v -8.5645 -0.002376705 74.56117
v -9.595698 -0.002376705 74.56117
v -8.5645 -0.002376705 75.75101
v -9.595698 -0.002376705 75.75101
v -9.040438 -0.002376705 74.40253
v -10.07164 -0.002376705 74.40253
v -9.040438 -0.002376705 75.51305
v -10.07164 -0.002376705 75.51305
v -7.453979 -0.002376705 74.16456
v -8.326531 -0.002376705 74.16456
v -7.453979 -0.002376705 75.19576
v -8.326531 -0.002376705 75.19576
v 0.08169963 -0.002376705 74.08524
v -0.8701755 -0.002376705 74.08524
v 0.08169963 -0.002376705 75.11643
v -0.8701755 -0.002376705 75.11643
v -9.595698 -0.002376705 72.34013
v -10.54757 -0.002376705 72.34013
v -9.595698 -0.002376705 73.37133
v -10.54757 -0.002376705 73.37133
v -16.73476 -0.002376705 60.75899
v -17.60731 -0.002376705 60.75899
v -16.73476 -0.002376705 61.71087
v -17.60731 -0.002376705 61.71087
v -14.59304 -0.002376705 60.20373
v -15.4656 -0.002376705 60.20373
v -14.59304 -0.002376705 61.23492
v -15.4656 -0.002376705 61.23492
v -18.71783 -0.002376705 60.20373
v -19.66971 -0.002376705 60.20373
v -18.71783 -0.002376705 61.23492
v -19.66971 -0.002376705 61.23492
v -13.95846 -0.002376705 59.48982
v -14.91033 -0.002376705 59.48982
v -13.95846 -0.002376705 60.52102
v -14.91033 -0.002376705 60.52102
v -15.4656 -0.002376705 59.25185
v -16.41747 -0.002376705 59.25185
v -15.4656 -0.002376705 60.36237
v -16.41747 -0.002376705 60.36237
v -16.41747 -0.002376705 58.77591
v -17.44867 -0.002376705 58.77591
v -16.41747 -0.002376705 59.96576
v -17.44867 -0.002376705 59.96576
v -12.21336 -0.002376705 58.3793
v -13.24455 -0.002376705 58.3793
v -12.21336 -0.002376705 59.56915
v -13.24455 -0.002376705 59.56915
v -13.79981 -0.002376705 58.29998
v -14.67237 -0.002376705 58.29998
v -13.79981 -0.002376705 59.33118
v -14.67237 -0.002376705 59.33118
v -15.22763 -0.002376705 58.14133
v -16.25882 -0.002376705 58.14133
v -15.22763 -0.002376705 59.33118
v -16.25882 -0.002376705 59.33118
v -17.36934 -0.002376705 57.82404
v -18.2419 -0.002376705 57.82404
v -17.36934 -0.002376705 58.85524
v -18.2419 -0.002376705 58.85524
v -13.16523 -0.002376705 57.42743
v -14.19643 -0.002376705 57.42743
v -13.16523 -0.002376705 58.61727
v -14.19643 -0.002376705 58.61727
v -15.54492 -0.002376705 57.42743
v -16.49679 -0.002376705 57.42743
v -15.54492 -0.002376705 58.53794
v -16.49679 -0.002376705 58.53794
v -11.49945 -0.002376705 57.26878
v -12.372 -0.002376705 57.26878
v -11.49945 -0.002376705 58.29998
v -12.372 -0.002376705 58.29998
v -10.46825 -0.002376705 57.11013
v -11.3408 -0.002376705 57.11013
v -10.46825 -0.002376705 58.14133
v -11.3408 -0.002376705 58.14133
v -12.372 -0.002376705 56.6342
v -13.32388 -0.002376705 56.6342
v -12.372 -0.002376705 57.74472
v -13.32388 -0.002376705 57.74472
v -13.79981 -0.002376705 56.3169
v -14.75169 -0.002376705 56.3169
v -13.79981 -0.002376705 57.42743
v -14.75169 -0.002376705 57.42743
v -11.18216 -0.002376705 55.84097
v -12.05471 -0.002376705 55.84097
v -11.18216 -0.002376705 56.87217
v -12.05471 -0.002376705 56.87217
v -13.24455 -0.002376705 55.76164
v -14.27575 -0.002376705 55.76164
v -13.24455 -0.002376705 56.87217
v -14.27575 -0.002376705 56.87217
v -14.98966 -0.002376705 55.52367
v -15.94153 -0.002376705 55.52367
v -14.98966 -0.002376705 56.55487
v -15.94153 -0.002376705 56.55487
v -9.040438 -0.002376705 55.28571
v -9.992312 -0.002376705 55.28571
v -9.040438 -0.002376705 56.39622
v -9.992312 -0.002376705 56.39622
v -11.89606 -0.002376705 55.20638
v -12.92726 -0.002376705 55.20638
v -11.89606 -0.002376705 56.3169
v -12.92726 -0.002376705 56.3169
v -11.02351 -0.002376705 55.12706
v -11.97539 -0.002376705 55.12706
v -11.02351 -0.002376705 56.23758
v -11.97539 -0.002376705 56.23758
v -14.03778 -0.002376705 54.96841
v -15.06898 -0.002376705 54.96841
v -14.03778 -0.002376705 56.07893
v -15.06898 -0.002376705 56.07893
v -11.42013 -0.002376705 54.49248
v -12.29268 -0.002376705 54.49248
v -11.42013 -0.002376705 55.603
v -12.29268 -0.002376705 55.603
v -14.51372 -0.002376705 54.33383
v -15.4656 -0.002376705 54.33383
v -14.51372 -0.002376705 55.44435
v -15.4656 -0.002376705 55.44435
v -13.4032 -0.002376705 54.33383
v -14.35507 -0.002376705 54.33383
v -13.4032 -0.002376705 55.44435
v -14.35507 -0.002376705 55.44435
v -10.15096 -0.002376705 53.85789
v -11.18216 -0.002376705 53.85789
v -10.15096 -0.002376705 54.96841
v -11.18216 -0.002376705 54.96841
v -12.92726 -0.002376705 53.5406
v -13.79981 -0.002376705 53.5406
v -12.92726 -0.002376705 54.5718
v -13.79981 -0.002376705 54.5718
v -11.65809 -0.002376705 53.30263
v -12.68929 -0.002376705 53.30263
v -11.65809 -0.002376705 54.49248
v -12.68929 -0.002376705 54.49248
vt 0.1347656 0.9185662
vt 0.2060202 0.9185662
vt 0.1347656 1
vt 0.2060202 1
vt 0.1347656 0.9185662
vt 0.2060202 0.9185662
vt 0.1347656 1
vt 0.2060202 1
vt 0.1347656 0.9185662
vt 0.2060202 0.9185662
vt 0.1347656 1
vt 0.2060202 1
vt 0.1347656 0.9185662
vt 0.2060202 0.9185662
vt 0.1347656 1
vt 0.2060202 1
vt 0.1347656 0.9185662
vt 0.2060202 0.9185662
vt 0.1347656 1
vt 0.2060202 1
vt 0.1347656 0.9185662
vt 0.2060202 0.9185662
vt 0.1347656 1
vt 0.2060202 1
vt 0.1347656 0.9185662
vt 0.2060202 0.9185662
vt 0.1347656 1
vt 0.2060202 1
vt 0.1347656 0.9185662
vt 0.2060202 0.9185662
vt 0.1347656 1
vt 0.2060202 1
vt 0.1347656 0.9185662
vt 0.2060202 0.9185662
vt 0.1347656 1
vt 0.2060202 1
vt 0.1347656 0.9185662
vt 0.2060202 0.9185662
vt 0.1347656 1
vt 0.2060202 1
vt 0.1347656 0.9185662
vt 0.2060202 0.9185662
vt 0.1347656 1
vt 0.2060202 1
vt 0.1347656 0.9185662
vt 0.2060202 0.9185662
vt 0.1347656 1
vt 0.2060202 1
vt 0.1347656 0.9185662
vt 0.2060202 0.9185662
vt 0.1347656 1
vt 0.2060202 1
vt 0.1347656 0.9185662
vt 0.2060202 0.9185662
vt 0.1347656 1
vt 0.2060202 1
vt 0.1347656 0.9185662
vt 0.2060202 0.9185662
vt 0.1347656 1
vt 0.2060202 1
vt 0.1347656 0.9185662
vt 0.2060202 0.9185662
vt 0.1347656 1
vt 0.2060202 1
vt 0.1347656 0.9185662
vt 0.2060202 0.9185662
vt 0.1347656 1
vt 0.2060202 1
vt 0.1347656 0.9185662
vt 0.2060202 0.9185662
vt 0.1347656 1
vt 0.2060202 1
vt 0.1347656 0.9185662
vt 0.2060202 0.9185662
vt 0.1347656 1
vt 0.2060202 1
vt 0.1347656 0.9185662
vt 0.2060202 0.9185662
vt 0.1347656 1
vt 0.2060202 1
vt 0.1347656 0.9185662
vt 0.2060202 0.9185662
vt 0.1347656 1
vt 0.2060202 1
vt 0.1347656 0.9185662
vt 0.2060202 0.9185662
vt 0.1347656 1
vt 0.2060202 1
vt 0.1347656 0.9185662
vt 0.2060202 0.9185662
vt 0.1347656 1
vt 0.2060202 1
vt 0.1347656 0.9185662
vt 0.2060202 0.9185662
vt 0.1347656 1
vt 0.2060202 1
vt 0.1347656 0.9185662
vt 0.2060202 0.9185662
vt 0.1347656 1
vt 0.2060202 1
vt 0.1347656 0.9185662
vt 0.2060202 0.9185662
vt 0.1347656 1
vt 0.2060202 1
vt 0.1347656 0.9185662
vt 0.2060202 0.9185662
vt 0.1347656 1
vt 0.2060202 1
vt 0.1347656 0.9185662
vt 0.2060202 0.9185662
vt 0.1347656 1
vt 0.2060202 1
vt 0.1347656 0.9185662
vt 0.2060202 0.9185662
vt 0.1347656 1
vt 0.2060202 1
vt 0.1347656 0.9185662
vt 0.2060202 0.9185662
vt 0.1347656 1
vt 0.2060202 1
vt 0.1347656 0.9185662
vt 0.2060202 0.9185662
vt 0.1347656 1
vt 0.2060202 1
vt 0.1347656 0.9185662
vt 0.2060202 0.9185662
vt 0.1347656 1
vt 0.2060202 1
vt 0.1347656 0.9185662
vt 0.2060202 0.9185662
vt 0.1347656 1
vt 0.2060202 1
vt 0.1347656 0.9185662
vt 0.2060202 0.9185662
vt 0.1347656 1
vt 0.2060202 1
vt 0.1347656 0.9185662
vt 0.2060202 0.9185662
vt 0.1347656 1
vt 0.2060202 1
vt 0.1347656 0.9185662
vt 0.2060202 0.9185662
vt 0.1347656 1
vt 0.2060202 1
vt 0.1347656 0.9185662
vt 0.2060202 0.9185662
vt 0.1347656 1
vt 0.2060202 1
vt 0.1347656 0.9185662
vt 0.2060202 0.9185662
vt 0.1347656 1
vt 0.2060202 1
vt 0.1347656 0.9185662
vt 0.2060202 0.9185662
vt 0.1347656 1
vt 0.2060202 1
vt 0.1347656 0.9185662
vt 0.2060202 0.9185662
vt 0.1347656 1
vt 0.2060202 1
vt 0.1347656 0.9185662
vt 0.2060202 0.9185662
vt 0.1347656 1
vt 0.2060202 1
vt 0.1347656 0.9185662
vt 0.2060202 0.9185662
vt 0.1347656 1
vt 0.2060202 1
vt 0.1347656 0.9185662
vt 0.2060202 0.9185662
vt 0.1347656 1
vt 0.2060202 1
vt 0.1347656 0.9185662
vt 0.2060202 0.9185662
vt 0.1347656 1
vt 0.2060202 1
vt 0.1347656 0.9185662
vt 0.2060202 0.9185662
vt 0.1347656 1
vt 0.2060202 1
vt 0.1347656 0.9185662
vt 0.2060202 0.9185662
vt 0.1347656 1
vt 0.2060202 1
vt 0.1347656 0.9185662
vt 0.2060202 0.9185662
vt 0.1347656 1
vt 0.2060202 1
vt 0.1347656 0.9185662
vt 0.2060202 0.9185662
vt 0.1347656 1
vt 0.2060202 1
vt 0.1347656 0.9185662
vt 0.2060202 0.9185662
vt 0.1347656 1
vt 0.2060202 1
vt 0.1347656 0.9185662
vt 0.2060202 0.9185662
vt 0.1347656 1
vt 0.2060202 1
vt 0.1347656 0.9185662
vt 0.2060202 0.9185662
vt 0.1347656 1
vt 0.2060202 1
vt 0.1347656 0.9185662
vt 0.2060202 0.9185662
vt 0.1347656 1
vt 0.2060202 1
vt 0.1347656 0.9185662
vt 0.2060202 0.9185662
vt 0.1347656 1
vt 0.2060202 1
vt 0.1347656 0.9185662
vt 0.2060202 0.9185662
vt 0.1347656 1
vt 0.2060202 1
vt 0.1347656 0.9185662
vt 0.2060202 0.9185662
vt 0.1347656 1
vt 0.2060202 1
vt 0.1347656 0.9185662
vt 0.2060202 0.9185662
vt 0.1347656 1
vt 0.2060202 1
vt 0.1347656 0.9185662
vt 0.2060202 0.9185662
vt 0.1347656 1
vt 0.2060202 1
vt 0.1347656 0.9185662
vt 0.2060202 0.9185662
vt 0.1347656 1
vt 0.2060202 1
vn 0 1 0
vn 0 1 0
vn 0 1 0
vn 0 1 0
vn 0 1 0
vn 0 1 0
vn 0 1 0
vn 0 1 0
vn 0 1 0
vn 0 1 0
vn 0 1 0
vn 0 1 0
vn 0 1 0
vn 0 1 0
vn 0 1 0
vn 0 1 0
vn 0 1 0
vn 0 1 0
vn 0 1 0
vn 0 1 0
vn 0 1 0
vn 0 1 0
vn 0 1 0
vn 0 1 0
vn 0 1 0
vn 0 1 0
vn 0 1 0
vn 0 1 0
vn 0 1 0
vn 0 1 0
vn 0 1 0
vn 0 1 0
vn 0 1 0
vn 0 1 0
vn 0 1 0
vn 0 1 0
vn 0 1 0
vn 0 1 0
vn 0 1 0
vn 0 1 0
vn 0 1 0
vn 0 1 0
vn 0 1 0
vn 0 1 0
vn 0 1 0
vn 0 1 0
vn 0 1 0
vn 0 1 0
vn 0 1 0
vn 0 1 0
vn 0 1 0
vn 0 1 0
vn 0 1 0
vn 0 1 0
vn 0 1 0
vn 0 1 0
vn 0 1 0
vn 0 1 0
vn 0 1 0
vn 0 1 0
vn 0 1 0
vn 0 1 0
vn 0 1 0
vn 0 1 0
vn 0 1 0
vn 0 1 0
vn 0 1 0
vn 0 1 0
vn 0 1 0
vn 0 1 0
vn 0 1 0
vn 0 1 0
vn 0 1 0
vn 0 1 0
vn 0 1 0
vn 0 1 0
vn 0 1 0
vn 0 1 0
vn 0 1 0
vn 0 1 0
vn 0 1 0
vn 0 1 0
vn 0 1 0
vn 0 1 0
vn 0 1 0
vn 0 1 0
vn 0 1 0
vn 0 1 0
vn 0 1 0
vn 0 1 0
vn 0 1 0
vn 0 1 0
vn 0 1 0
vn 0 1 0
vn 0 1 0
vn 0 1 0
vn 0 1 0
vn 0 1 0
vn 0 1 0
vn 0 1 0
vn 0 1 0
vn 0 1 0
vn 0 1 0
vn 0 1 0
vn 0 1 0
vn 0 1 0
vn 0 1 0
vn 0 1 0
vn 0 1 0
vn 0 1 0
vn 0 1 0
vn 0 1 0
vn 0 1 0
vn 0 1 0
vn 0 1 0
vn 0 1 0
vn 0 1 0
vn 0 1 0
vn 0 1 0
vn 0 1 0
vn 0 1 0
vn 0 1 0
vn 0 1 0
vn 0 1 0
vn 0 1 0
vn 0 1 0
vn 0 1 0
vn 0 1 0
vn 0 1 0
vn 0 1 0
vn 0 1 0
vn 0 1 0
vn 0 1 0
vn 0 1 0
vn 0 1 0
vn 0 1 0
vn 0 1 0
vn 0 1 0
vn 0 1 0
vn 0 1 0
vn 0 1 0
vn 0 1 0
vn 0 1 0
vn 0 1 0
vn 0 1 0
vn 0 1 0
vn 0 1 0
vn 0 1 0
vn 0 1 0
vn 0 1 0
vn 0 1 0
vn 0 1 0
vn 0 1 0
vn 0 1 0
vn 0 1 0
vn 0 1 0
vn 0 1 0
vn 0 1 0
vn 0 1 0
vn 0 1 0
vn 0 1 0
vn 0 1 0
vn 0 1 0
vn 0 1 0
vn 0 1 0
vn 0 1 0
vn 0 1 0
vn 0 1 0
vn 0 1 0
vn 0 1 0
vn 0 1 0
vn 0 1 0
vn 0 1 0
vn 0 1 0
vn 0 1 0
vn 0 1 0
vn 0 1 0
vn 0 1 0
vn 0 1 0
vn 0 1 0
vn 0 1 0
vn 0 1 0
vn 0 1 0
vn 0 1 0
vn 0 1 0
vn 0 1 0
vn 0 1 0
vn 0 1 0
vn 0 1 0
vn 0 1 0
vn 0 1 0
vn 0 1 0
vn 0 1 0
vn 0 1 0
vn 0 1 0
vn 0 1 0
vn 0 1 0
vn 0 1 0
vn 0 1 0
vn 0 1 0
vn 0 1 0
vn 0 1 0
vn 0 1 0
vn 0 1 0
vn 0 1 0
vn 0 1 0
vn 0 1 0
vn 0 1 0
vn 0 1 0
vn 0 1 0
vn 0 1 0
vn 0 1 0
vn 0 1 0
vn 0 1 0
vn 0 1 0
vn 0 1 0
vn 0 1 0
vn 0 1 0
vn 0 1 0
vn 0 1 0
vn 0 1 0
vn 0 1 0
vn 0 1 0
vn 0 1 0
vn 0 1 0
vn 0 1 0
vn 0 1 0
vn 0 1 0
vn 0 1 0
vn 0 1 0
vn 0 1 0
vn 0 1 0
g Grass_2_Cluster70_0
f 2/2/2 3/3/3 1/1/1
f 2/2/2 4/4/4 3/3/3
f 6/6/6 7/7/7 5/5/5
f 6/6/6 8/8/8 7/7/7
f 10/10/10 11/11/11 9/9/9
f 10/10/10 12/12/12 11/11/11
f 14/14/14 15/15/15 13/13/13
f 14/14/14 16/16/16 15/15/15
f 18/18/18 19/19/19 17/17/17
f 18/18/18 20/20/20 19/19/19
f 22/22/22 23/23/23 21/21/21
f 22/22/22 24/24/24 23/23/23
f 26/26/26 27/27/27 25/25/25
f 26/26/26 28/28/28 27/27/27
f 30/30/30 31/31/31 29/29/29
f 30/30/30 32/32/32 31/31/31
f 34/34/34 35/35/35 33/33/33
f 34/34/34 36/36/36 35/35/35
f 38/38/38 39/39/39 37/37/37
f 38/38/38 40/40/40 39/39/39
f 42/42/42 43/43/43 41/41/41
f 42/42/42 44/44/44 43/43/43
f 46/46/46 47/47/47 45/45/45
f 46/46/46 48/48/48 47/47/47
f 50/50/50 51/51/51 49/49/49
f 50/50/50 52/52/52 51/51/51
f 54/54/54 55/55/55 53/53/53
f 54/54/54 56/56/56 55/55/55
f 58/58/58 59/59/59 57/57/57
f 58/58/58 60/60/60 59/59/59
f 62/62/62 63/63/63 61/61/61
f 62/62/62 64/64/64 63/63/63
f 66/66/66 67/67/67 65/65/65
f 66/66/66 68/68/68 67/67/67
f 70/70/70 71/71/71 69/69/69
f 70/70/70 72/72/72 71/71/71
f 74/74/74 75/75/75 73/73/73
f 74/74/74 76/76/76 75/75/75
f 78/78/78 79/79/79 77/77/77
f 78/78/78 80/80/80 79/79/79
f 82/82/82 83/83/83 81/81/81
f 82/82/82 84/84/84 83/83/83
f 86/86/86 87/87/87 85/85/85
f 86/86/86 88/88/88 87/87/87
f 90/90/90 91/91/91 89/89/89
f 90/90/90 92/92/92 91/91/91
f 94/94/94 95/95/95 93/93/93
f 94/94/94 96/96/96 95/95/95
f 98/98/98 99/99/99 97/97/97
f 98/98/98 100/100/100 99/99/99
f 102/102/102 103/103/103 101/101/101
f 102/102/102 104/104/104 103/103/103
f 106/106/106 107/107/107 105/105/105
f 106/106/106 108/108/108 107/107/107
f 110/110/110 111/111/111 109/109/109
f 110/110/110 112/112/112 111/111/111
f 114/114/114 115/115/115 113/113/113
f 114/114/114 116/116/116 115/115/115
f 118/118/118 119/119/119 117/117/117
f 118/118/118 120/120/120 119/119/119
f 122/122/122 123/123/123 121/121/121
f 122/122/122 124/124/124 123/123/123
f 126/126/126 127/127/127 125/125/125
f 126/126/126 128/128/128 127/127/127
f 130/130/130 131/131/131 129/129/129
f 130/130/130 132/132/132 131/131/131
f 134/134/134 135/135/135 133/133/133
f 134/134/134 136/136/136 135/135/135
f 138/138/138 139/139/139 137/137/137
f 138/138/138 140/140/140 139/139/139
f 142/142/142 143/143/143 141/141/141
f 142/142/142 144/144/144 143/143/143
f 146/146/146 147/147/147 145/145/145
f 146/146/146 148/148/148 147/147/147
f 150/150/150 151/151/151 149/149/149
f 150/150/150 152/152/152 151/151/151
f 154/154/154 155/155/155 153/153/153
f 154/154/154 156/156/156 155/155/155
f 158/158/158 159/159/159 157/157/157
f 158/158/158 160/160/160 159/159/159
f 162/162/162 163/163/163 161/161/161
f 162/162/162 164/164/164 163/163/163
f 166/166/166 167/167/167 165/165/165
f 166/166/166 168/168/168 167/167/167
f 170/170/170 171/171/171 169/169/169
f 170/170/170 172/172/172 171/171/171
f 174/174/174 175/175/175 173/173/173
f 174/174/174 176/176/176 175/175/175
f 178/178/178 179/179/179 177/177/177
f 178/178/178 180/180/180 179/179/179
f 182/182/182 183/183/183 181/181/181
f 182/182/182 184/184/184 183/183/183
f 186/186/186 187/187/187 185/185/185
f 186/186/186 188/188/188 187/187/187
f 190/190/190 191/191/191 189/189/189
f 190/190/190 192/192/192 191/191/191
f 194/194/194 195/195/195 193/193/193
f 194/194/194 196/196/196 195/195/195
f 198/198/198 199/199/199 197/197/197
f 198/198/198 200/200/200 199/199/199
f 202/202/202 203/203/203 201/201/201
f 202/202/202 204/204/204 203/203/203
f 206/206/206 207/207/207 205/205/205
f 206/206/206 208/208/208 207/207/207
f 210/210/210 211/211/211 209/209/209
f 210/210/210 212/212/212 211/211/211
f 214/214/214 215/215/215 213/213/213
f 214/214/214 216/216/216 215/215/215
f 218/218/218 219/219/219 217/217/217
f 218/218/218 220/220/220 219/219/219
f 222/222/222 223/223/223 221/221/221
f 222/222/222 224/224/224 223/223/223
f 226/226/226 227/227/227 225/225/225
f 226/226/226 228/228/228 227/227/227
f 230/230/230 231/231/231 229/229/229
f 230/230/230 232/232/232 231/231/231
