g Grass_0_Cluster242
v 228.5 0.230072 352.6136
v 227.3389 0.230072 352.6136
v 228.5 0.230072 353.7747
v 227.3389 0.230072 353.7747
v 229.661 0.230072 351.4526
v 228.5 0.230072 351.4526
v 229.661 0.230072 353.1942
v 228.5 0.230072 353.1942
v 214.5672 0.230072 351.4526
v 213.9866 0.230072 351.4526
v 214.5672 0.230072 352.6136
v 213.9866 0.230072 352.6136
v 213.9866 0.230072 347.9694
v 212.8256 0.230072 347.9694
v 213.9866 0.230072 349.1304
v 212.8256 0.230072 349.1304
v 240.1106 0.230072 347.9694
v 238.9495 0.230072 347.9694
v 240.1106 0.230072 349.1304
v 238.9495 0.230072 349.1304
v 218.6309 0.230072 347.3889
v 217.4698 0.230072 347.3889
v 218.6309 0.230072 348.5499
v 217.4698 0.230072 348.5499
v 238.9495 0.230072 346.8083
v 237.7885 0.230072 346.8083
v 238.9495 0.230072 347.9694
v 237.7885 0.230072 347.9694
v 235.4663 0.230072 346.2278
v 234.3053 0.230072 346.2278
v 235.4663 0.230072 347.3889
v 234.3053 0.230072 347.3889
v 213.9866 0.230072 345.6473
v 212.8256 0.230072 345.6473
v 213.9866 0.230072 346.8083
v 212.8256 0.230072 346.8083
v 215.1477 0.230072 345.0667
v 213.9866 0.230072 345.0667
v 215.1477 0.230072 346.2278
v 213.9866 0.230072 346.2278
v 214.5672 0.230072 345.0667
v 213.9866 0.230072 345.0667
v 214.5672 0.230072 346.2278
v 213.9866 0.230072 346.2278
v 219.2114 0.230072 344.4862
v 218.6309 0.230072 344.4862
v 219.2114 0.230072 345.6473
v 218.6309 0.230072 345.6473
v 214.5672 0.230072 344.4862
v 213.9866 0.230072 344.4862
v 214.5672 0.230072 345.6473
v 213.9866 0.230072 345.6473
v 212.8256 0.230072 343.9056
v 211.6645 0.230072 343.9056
v 212.8256 0.230072 345.0667
v 211.6645 0.230072 345.0667
v 232.5637 0.230072 344.4862
v 231.4026 0.230072 344.4862
v 232.5637 0.230072 345.6473
v 231.4026 0.230072 345.6473
v 235.4663 0.230072 343.9056
v 234.8858 0.230072 343.9056
v 235.4663 0.230072 345.0667
v 234.8858 0.230072 345.0667
v 216.8893 0.230072 343.9056
v 215.7282 0.230072 343.9056
v 216.8893 0.230072 345.0667
v 215.7282 0.230072 345.0667
v 213.9866 0.230072 343.9056
v 213.4061 0.230072 343.9056
v 213.9866 0.230072 345.0667
v 213.4061 0.230072 345.0667
v 219.792 0.230072 343.9056
v 219.2114 0.230072 343.9056
v 219.792 0.230072 345.0667
v 219.2114 0.230072 345.0667
v 215.7282 0.230072 343.3251
v 215.1477 0.230072 343.3251
v 215.7282 0.230072 344.4862
v 215.1477 0.230072 344.4862
v 231.9832 0.230072 343.3251
v 231.4026 0.230072 343.3251
v 231.9832 0.230072 344.4862
v 231.4026 0.230072 344.4862
v 217.4698 0.230072 342.7446
v 216.3088 0.230072 342.7446
v 217.4698 0.230072 343.9056
v 216.3088 0.230072 343.9056
v 218.6309 0.230072 342.1641
v 217.4698 0.230072 342.1641
v 218.6309 0.230072 343.3251
v 217.4698 0.230072 343.3251
v 213.9866 0.230072 342.1641
v 212.8256 0.230072 342.1641
v 213.9866 0.230072 343.3251
v 212.8256 0.230072 343.3251
v 216.3088 0.230072 342.1641
v 215.7282 0.230072 342.1641
v 216.3088 0.230072 343.3251
v 215.7282 0.230072 343.3251
v 214.5672 0.230072 341.5835
v 213.4061 0.230072 341.5835
v 214.5672 0.230072 342.7446
v 213.4061 0.230072 342.7446
v 231.4026 0.230072 341.5835
v 230.2415 0.230072 341.5835
v 231.4026 0.230072 342.7446
v 230.2415 0.230072 342.7446
v 230.2415 0.230072 340.4225
v 229.0805 0.230072 340.4225
v 230.2415 0.230072 341.5835
v 229.0805 0.230072 341.5835
v 233.1442 0.230072 339.8419
v 231.9832 0.230072 339.8419
v 233.1442 0.230072 341.5835
v 231.9832 0.230072 341.5835
v 217.4698 0.230072 340.4225
v 216.3088 0.230072 340.4225
v 217.4698 0.230072 341.5835
v 216.3088 0.230072 341.5835
v 210.5034 0.230072 339.8419
v 209.9229 0.230072 339.8419
v 210.5034 0.230072 341.003
v 209.9229 0.230072 341.003
v 230.8221 0.230072 338.6808
v 230.2415 0.230072 338.6808
v 230.8221 0.230072 339.8419
v 230.2415 0.230072 339.8419
v 231.9832 0.230072 338.1003
v 231.4026 0.230072 338.1003
v 231.9832 0.230072 339.2614
v 231.4026 0.230072 339.2614
v 233.1442 0.230072 338.1003
v 232.5637 0.230072 338.1003
v 233.1442 0.230072 339.2614
v 232.5637 0.230072 339.2614
v 234.3053 0.230072 338.1003
v 233.1442 0.230072 338.1003
v 234.3053 0.230072 339.2614
v 233.1442 0.230072 339.2614
v 231.4026 0.230072 337.5198
v 230.2415 0.230072 337.5198
v 231.4026 0.230072 338.6808
v 230.2415 0.230072 338.6808
v 229.661 0.230072 336.9393
v 229.0805 0.230072 336.9393
v 229.661 0.230072 338.1003
v 229.0805 0.230072 338.1003
v 232.5637 0.230072 336.9393
v 231.4026 0.230072 336.9393
v 232.5637 0.230072 338.1003
v 231.4026 0.230072 338.1003
v 230.2415 0.230072 336.9393
v 229.661 0.230072 336.9393
v 230.2415 0.230072 338.1003
v 229.661 0.230072 338.1003
v 231.4026 0.230072 336.3587
v 230.8221 0.230072 336.3587
v 231.4026 0.230072 337.5198
v 230.8221 0.230072 337.5198
v 232.5637 0.230072 335.7782
v 231.9832 0.230072 335.7782
v 232.5637 0.230072 336.9393
v 231.9832 0.230072 336.9393
v 229.661 0.230072 335.7782
v 229.0805 0.230072 335.7782
v 229.661 0.230072 336.9393
v 229.0805 0.230072 336.9393
v 234.3053 0.230072 335.7782
v 233.7247 0.230072 335.7782
v 234.3053 0.230072 336.9393
v 233.7247 0.230072 336.9393
v 232.5637 0.230072 335.7782
v 231.4026 0.230072 335.7782
v 232.5637 0.230072 336.9393
v 231.4026 0.230072 336.9393
v 227.9194 0.230072 335.1976
v 227.3389 0.230072 335.1976
v 227.9194 0.230072 336.3587
v 227.3389 0.230072 336.3587
v 233.7247 0.230072 334.6171
v 232.5637 0.230072 334.6171
v 233.7247 0.230072 336.3587
v 232.5637 0.230072 336.3587
v 230.8221 0.230072 334.6171
v 229.661 0.230072 334.6171
v 230.8221 0.230072 335.7782
v 229.661 0.230072 335.7782
v 231.9832 0.230072 334.6171
v 231.4026 0.230072 334.6171
v 231.9832 0.230072 335.7782
v 231.4026 0.230072 335.7782
v 234.8858 0.230072 334.0366
v 234.3053 0.230072 334.0366
v 234.8858 0.230072 335.1976
v 234.3053 0.230072 335.1976
v 233.7247 0.230072 334.0366
v 232.5637 0.230072 334.0366
v 233.7247 0.230072 335.1976
v 232.5637 0.230072 335.1976
v 230.8221 0.230072 334.0366
v 230.2415 0.230072 334.0366
v 230.8221 0.230072 335.1976
v 230.2415 0.230072 335.1976
v 231.9832 0.230072 333.4561
v 230.8221 0.230072 333.4561
v 231.9832 0.230072 334.6171
v 230.8221 0.230072 334.6171
v 229.661 0.230072 333.4561
v 228.5 0.230072 333.4561
v 229.661 0.230072 334.6171
v 228.5 0.230072 334.6171
v 233.7247 0.230072 333.4561
v 233.1442 0.230072 333.4561
v 233.7247 0.230072 334.6171
v 233.1442 0.230072 334.6171
v 234.3053 0.230072 332.295
v 233.1442 0.230072 332.295
v 234.3053 0.230072 334.0366
v 233.1442 0.230072 334.0366
v 236.0469 0.230072 332.295
v 235.4663 0.230072 332.295
v 236.0469 0.230072 333.4561
v 235.4663 0.230072 333.4561
v 231.4026 0.230072 332.295
v 230.2415 0.230072 332.295
v 231.4026 0.230072 333.4561
v 230.2415 0.230072 333.4561
v 232.5637 0.230072 332.295
v 231.9832 0.230072 332.295
v 232.5637 0.230072 333.4561
v 231.9832 0.230072 333.4561
v 229.661 0.230072 332.295
v 229.0805 0.230072 332.295
v 229.661 0.230072 333.4561
v 229.0805 0.230072 333.4561
v 226.7583 0.230072 331.7145
v 225.5973 0.230072 331.7145
v 226.7583 0.230072 332.8755
v 225.5973 0.230072 332.8755
v 231.9832 0.230072 331.7145
v 231.4026 0.230072 331.7145
v 231.9832 0.230072 332.8755
v 231.4026 0.230072 332.8755
v 234.8858 0.230072 331.7145
v 233.7247 0.230072 331.7145
v 234.8858 0.230072 332.8755
v 233.7247 0.230072 332.8755
v 229.0805 0.230072 331.1339
v 227.9194 0.230072 331.1339
v 229.0805 0.230072 332.295
v 227.9194 0.230072 332.295
v 234.3053 0.230072 329.3923
v 233.7247 0.230072 329.3923
v 234.3053 0.230072 330.5534
v 233.7247 0.230072 330.5534
v 220.953 0.230072 329.3923
v 220.3725 0.230072 329.3923
v 220.953 0.230072 330.5534
v 220.3725 0.230072 330.5534
v 217.4698 0.230072 328.2313
v 216.8893 0.230072 328.2313
v 217.4698 0.230072 329.3923
v 216.8893 0.230072 329.3923
v 219.2114 0.230072 327.0702
v 218.0504 0.230072 327.0702
v 219.2114 0.230072 328.8118
v 218.0504 0.230072 328.8118
v 215.7282 0.230072 327.0702
v 215.1477 0.230072 327.0702
v 215.7282 0.230072 328.2313
v 215.1477 0.230072 328.2313
v 219.2114 0.230072 326.4897
v 218.6309 0.230072 326.4897
v 219.2114 0.230072 327.6508
v 218.6309 0.230072 327.6508
v 216.3088 0.230072 325.3286
v 215.7282 0.230072 325.3286
v 216.3088 0.230072 327.0702
v 215.7282 0.230072 327.0702
v 220.3725 0.230072 325.3286
v 219.792 0.230072 325.3286
v 220.3725 0.230072 326.4897
v 219.792 0.230072 326.4897
v 219.2114 0.230072 325.3286
v 218.6309 0.230072 325.3286
v 219.2114 0.230072 326.4897
v 218.6309 0.230072 326.4897
v 216.8893 0.230072 325.3286
v 216.3088 0.230072 325.3286
v 216.8893 0.230072 326.4897
v 216.3088 0.230072 326.4897
v 215.1477 0.230072 324.748
v 214.5672 0.230072 324.748
v 215.1477 0.230072 325.9091
v 214.5672 0.230072 325.9091
v 220.953 0.230072 324.748
v 220.3725 0.230072 324.748
v 220.953 0.230072 325.9091
v 220.3725 0.230072 325.9091
v 218.6309 0.230072 324.748
v 218.0504 0.230072 324.748
v 218.6309 0.230072 325.9091
v 218.0504 0.230072 325.9091
v 219.792 0.230072 324.1675
v 219.2114 0.230072 324.1675
v 219.792 0.230072 325.3286
v 219.2114 0.230072 325.3286
v 217.4698 0.230072 324.1675
v 216.3088 0.230072 324.1675
v 217.4698 0.230072 325.3286
v 216.3088 0.230072 325.3286
v 219.792 0.230072 323.587
v 218.6309 0.230072 323.587
v 219.792 0.230072 324.748
v 218.6309 0.230072 324.748
v 216.8893 0.230072 323.587
v 215.7282 0.230072 323.587
v 216.8893 0.230072 324.748
v 215.7282 0.230072 324.748
v 219.792 0.230072 323.587
v 219.2114 0.230072 323.587
v 219.792 0.230072 324.748
v 219.2114 0.230072 324.748
v 220.953 0.230072 323.587
v 219.792 0.230072 323.587
v 220.953 0.230072 324.748
v 219.792 0.230072 324.748
v 218.6309 0.230072 323.0065
v 217.4698 0.230072 323.0065
v 218.6309 0.230072 324.1675
v 217.4698 0.230072 324.1675
vt 0 0.9058824
vt 0.06666667 0.9058824
vt 0 1
vt 0.06666667 1
vt 0 0.9058824
vt 0.06666667 0.9058824
vt 0 1
vt 0.06666667 1
vt 0 0.9058824
vt 0.06666667 0.9058824
vt 0 1
vt 0.06666667 1
vt 0 0.9058824
vt 0.06666667 0.9058824
vt 0 1
vt 0.06666667 1
vt 0 0.9058824
vt 0.06666667 0.9058824
vt 0 1
vt 0.06666667 1
vt 0 0.9058824
vt 0.06666667 0.9058824
vt 0 1
vt 0.06666667 1
vt 0 0.9058824
vt 0.06666667 0.9058824
vt 0 1
vt 0.06666667 1
vt 0 0.9058824
vt 0.06666667 0.9058824
vt 0 1
vt 0.06666667 1
vt 0 0.9058824
vt 0.06666667 0.9058824
vt 0 1
vt 0.06666667 1
vt 0 0.9058824
vt 0.06666667 0.9058824
vt 0 1
vt 0.06666667 1
vt 0 0.9058824
vt 0.06666667 0.9058824
vt 0 1
vt 0.06666667 1
vt 0 0.9058824
vt 0.06666667 0.9058824
vt 0 1
vt 0.06666667 1
vt 0 0.9058824
vt 0.06666667 0.9058824
vt 0 1
vt 0.06666667 1
vt 0 0.9058824
vt 0.06666667 0.9058824
vt 0 1
vt 0.06666667 1
vt 0 0.9058824
vt 0.06666667 0.9058824
vt 0 1
vt 0.06666667 1
vt 0 0.9058824
vt 0.06666667 0.9058824
vt 0 1
vt 0.06666667 1
vt 0 0.9058824
vt 0.06666667 0.9058824
vt 0 1
vt 0.06666667 1
vt 0 0.9058824
vt 0.06666667 0.9058824
vt 0 1
vt 0.06666667 1
vt 0 0.9058824
vt 0.06666667 0.9058824
vt 0 1
vt 0.06666667 1
vt 0 0.9058824
vt 0.06666667 0.9058824
vt 0 1
vt 0.06666667 1
vt 0 0.9058824
vt 0.06666667 0.9058824
vt 0 1
vt 0.06666667 1
vt 0 0.9058824
vt 0.06666667 0.9058824
vt 0 1
vt 0.06666667 1
vt 0 0.9058824
vt 0.06666667 0.9058824
vt 0 1
vt 0.06666667 1
vt 0 0.9058824
vt 0.06666667 0.9058824
vt 0 1
vt 0.06666667 1
vt 0 0.9058824
vt 0.06666667 0.9058824
vt 0 1
vt 0.06666667 1
vt 0 0.9058824
vt 0.06666667 0.9058824
vt 0 1
vt 0.06666667 1
vt 0 0.9058824
vt 0.06666667 0.9058824
vt 0 1
vt 0.06666667 1
vt 0 0.9058824
vt 0.06666667 0.9058824
vt 0 1
vt 0.06666667 1
vt 0 0.9058824
vt 0.06666667 0.9058824
vt 0 1
vt 0.06666667 1
vt 0 0.9058824
vt 0.06666667 0.9058824
vt 0 1
vt 0.06666667 1
vt 0 0.9058824
vt 0.06666667 0.9058824
vt 0 1
vt 0.06666667 1
vt 0 0.9058824
vt 0.06666667 0.9058824
vt 0 1
vt 0.06666667 1
vt 0 0.9058824
vt 0.06666667 0.9058824
vt 0 1
vt 0.06666667 1
vt 0 0.9058824
vt 0.06666667 0.9058824
vt 0 1
vt 0.06666667 1
vt 0 0.9058824
vt 0.06666667 0.9058824
vt 0 1
vt 0.06666667 1
vt 0 0.9058824
vt 0.06666667 0.9058824
vt 0 1
vt 0.06666667 1
vt 0 0.9058824
vt 0.06666667 0.9058824
vt 0 1
vt 0.06666667 1
vt 0 0.9058824
vt 0.06666667 0.9058824
vt 0 1
vt 0.06666667 1
vt 0 0.9058824
vt 0.06666667 0.9058824
vt 0 1
vt 0.06666667 1
vt 0 0.9058824
vt 0.06666667 0.9058824
vt 0 1
vt 0.06666667 1
vt 0 0.9058824
vt 0.06666667 0.9058824
vt 0 1
vt 0.06666667 1
vt 0 0.9058824
vt 0.06666667 0.9058824
vt 0 1
vt 0.06666667 1
vt 0 0.9058824
vt 0.06666667 0.9058824
vt 0 1
vt 0.06666667 1
vt 0 0.9058824
vt 0.06666667 0.9058824
vt 0 1
vt 0.06666667 1
vt 0 0.9058824
vt 0.06666667 0.9058824
vt 0 1
vt 0.06666667 1
vt 0 0.9058824
vt 0.06666667 0.9058824
vt 0 1
vt 0.06666667 1
vt 0 0.9058824
vt 0.06666667 0.9058824
vt 0 1
vt 0.06666667 1
vt 0 0.9058824
vt 0.06666667 0.9058824
vt 0 1
vt 0.06666667 1
vt 0 0.9058824
vt 0.06666667 0.9058824
vt 0 1
vt 0.06666667 1
vt 0 0.9058824
vt 0.06666667 0.9058824
vt 0 1
vt 0.06666667 1
vt 0 0.9058824
vt 0.06666667 0.9058824
vt 0 1
vt 0.06666667 1
vt 0 0.9058824
vt 0.06666667 0.9058824
vt 0 1
vt 0.06666667 1
vt 0 0.9058824
vt 0.06666667 0.9058824
vt 0 1
vt 0.06666667 1
vt 0 0.9058824
vt 0.06666667 0.9058824
vt 0 1
vt 0.06666667 1
vt 0 0.9058824
vt 0.06666667 0.9058824
vt 0 1
vt 0.06666667 1
vt 0 0.9058824
vt 0.06666667 0.9058824
vt 0 1
vt 0.06666667 1
vt 0 0.9058824
vt 0.06666667 0.9058824
vt 0 1
vt 0.06666667 1
vt 0 0.9058824
vt 0.06666667 0.9058824
vt 0 1
vt 0.06666667 1
vt 0 0.9058824
vt 0.06666667 0.9058824
vt 0 1
vt 0.06666667 1
vt 0 0.9058824
vt 0.06666667 0.9058824
vt 0 1
vt 0.06666667 1
vt 0 0.9058824
vt 0.06666667 0.9058824
vt 0 1
vt 0.06666667 1
vt 0 0.9058824
vt 0.06666667 0.9058824
vt 0 1
vt 0.06666667 1
vt 0 0.9058824
vt 0.06666667 0.9058824
vt 0 1
vt 0.06666667 1
vt 0 0.9058824
vt 0.06666667 0.9058824
vt 0 1
vt 0.06666667 1
vt 0 0.9058824
vt 0.06666667 0.9058824
vt 0 1
vt 0.06666667 1
vt 0 0.9058824
vt 0.06666667 0.9058824
vt 0 1
vt 0.06666667 1
vt 0 0.9058824
vt 0.06666667 0.9058824
vt 0 1
vt 0.06666667 1
vt 0 0.9058824
vt 0.06666667 0.9058824
vt 0 1
vt 0.06666667 1
vt 0 0.9058824
vt 0.06666667 0.9058824
vt 0 1
vt 0.06666667 1
vt 0 0.9058824
vt 0.06666667 0.9058824
vt 0 1
vt 0.06666667 1
vt 0 0.9058824
vt 0.06666667 0.9058824
vt 0 1
vt 0.06666667 1
vt 0 0.9058824
vt 0.06666667 0.9058824
vt 0 1
vt 0.06666667 1
vt 0 0.9058824
vt 0.06666667 0.9058824
vt 0 1
vt 0.06666667 1
vt 0 0.9058824
vt 0.06666667 0.9058824
vt 0 1
vt 0.06666667 1
vt 0 0.9058824
vt 0.06666667 0.9058824
vt 0 1
vt 0.06666667 1
vt 0 0.9058824
vt 0.06666667 0.9058824
vt 0 1
vt 0.06666667 1
vt 0 0.9058824
vt 0.06666667 0.9058824
vt 0 1
vt 0.06666667 1
vt 0 0.9058824
vt 0.06666667 0.9058824
vt 0 1
vt 0.06666667 1
vt 0 0.9058824
vt 0.06666667 0.9058824
vt 0 1
vt 0.06666667 1
vt 0 0.9058824
vt 0.06666667 0.9058824
vt 0 1
vt 0.06666667 1
vt 0 0.9058824
vt 0.06666667 0.9058824
vt 0 1
vt 0.06666667 1
vt 0 0.9058824
vt 0.06666667 0.9058824
vt 0 1
vt 0.06666667 1
vt 0 0.9058824
vt 0.06666667 0.9058824
vt 0 1
vt 0.06666667 1
vn 0 1 0
vn 0 1 0
vn 0 1 0
vn 0 1 0
vn 0 1 0
vn 0 1 0
vn 0 1 0
vn 0 1 0
vn 0 1 0
vn 0 1 0
vn 0 1 0
vn 0 1 0
vn 0 1 0
vn 0 1 0
vn 0 1 0
vn 0 1 0
vn 0 1 0
vn 0 1 0
vn 0 1 0
vn 0 1 0
vn 0 1 0
vn 0 1 0
vn 0 1 0
vn 0 1 0
vn 0 1 0
vn 0 1 0
vn 0 1 0
vn 0 1 0
vn 0 1 0
vn 0 1 0
vn 0 1 0
vn 0 1 0
vn 0 1 0
vn 0 1 0
vn 0 1 0
vn 0 1 0
vn 0 1 0
vn 0 1 0
vn 0 1 0
vn 0 1 0
vn 0 1 0
vn 0 1 0
vn 0 1 0
vn 0 1 0
vn 0 1 0
vn 0 1 0
vn 0 1 0
vn 0 1 0
vn 0 1 0
vn 0 1 0
vn 0 1 0
vn 0 1 0
vn 0 1 0
vn 0 1 0
vn 0 1 0
vn 0 1 0
vn 0 1 0
vn 0 1 0
vn 0 1 0
vn 0 1 0
vn 0 1 0
vn 0 1 0
vn 0 1 0
vn 0 1 0
vn 0 1 0
vn 0 1 0
vn 0 1 0
vn 0 1 0
vn 0 1 0
vn 0 1 0
vn 0 1 0
vn 0 1 0
vn 0 1 0
vn 0 1 0
vn 0 1 0
vn 0 1 0
vn 0 1 0
vn 0 1 0
vn 0 1 0
vn 0 1 0
vn 0 1 0
vn 0 1 0
vn 0 1 0
vn 0 1 0
vn 0 1 0
vn 0 1 0
vn 0 1 0
vn 0 1 0
vn 0 1 0
vn 0 1 0
vn 0 1 0
vn 0 1 0
vn 0 1 0
vn 0 1 0
vn 0 1 0
vn 0 1 0
vn 0 1 0
vn 0 1 0
vn 0 1 0
vn 0 1 0
vn 0 1 0
vn 0 1 0
vn 0 1 0
vn 0 1 0
vn 0 1 0
vn 0 1 0
vn 0 1 0
vn 0 1 0
vn 0 1 0
vn 0 1 0
vn 0 1 0
vn 0 1 0
vn 0 1 0
vn 0 1 0
vn 0 1 0
vn 0 1 0
vn 0 1 0
vn 0 1 0
vn 0 1 0
vn 0 1 0
vn 0 1 0
vn 0 1 0
vn 0 1 0
vn 0 1 0
vn 0 1 0
vn 0 1 0
vn 0 1 0
vn 0 1 0
vn 0 1 0
vn 0 1 0
vn 0 1 0
vn 0 1 0
vn 0 1 0
vn 0 1 0
vn 0 1 0
vn 0 1 0
vn 0 1 0
vn 0 1 0
vn 0 1 0
vn 0 1 0
vn 0 1 0
vn 0 1 0
vn 0 1 0
vn 0 1 0
vn 0 1 0
vn 0 1 0
vn 0 1 0
vn 0 1 0
vn 0 1 0
vn 0 1 0
vn 0 1 0
vn 0 1 0
vn 0 1 0
vn 0 1 0
vn 0 1 0
vn 0 1 0
vn 0 1 0
vn 0 1 0
vn 0 1 0
vn 0 1 0
vn 0 1 0
vn 0 1 0
vn 0 1 0
vn 0 1 0
vn 0 1 0
vn 0 1 0
vn 0 1 0
vn 0 1 0
vn 0 1 0
vn 0 1 0
vn 0 1 0
vn 0 1 0
vn 0 1 0
vn 0 1 0
vn 0 1 0
vn 0 1 0
vn 0 1 0
vn 0 1 0
vn 0 1 0
vn 0 1 0
vn 0 1 0
vn 0 1 0
vn 0 1 0
vn 0 1 0
vn 0 1 0
vn 0 1 0
vn 0 1 0
vn 0 1 0
vn 0 1 0
vn 0 1 0
vn 0 1 0
vn 0 1 0
vn 0 1 0
vn 0 1 0
vn 0 1 0
vn 0 1 0
vn 0 1 0
vn 0 1 0
vn 0 1 0
vn 0 1 0
vn 0 1 0
vn 0 1 0
vn 0 1 0
vn 0 1 0
vn 0 1 0
vn 0 1 0
vn 0 1 0
vn 0 1 0
vn 0 1 0
vn 0 1 0
vn 0 1 0
vn 0 1 0
vn 0 1 0
vn 0 1 0
vn 0 1 0
vn 0 1 0
vn 0 1 0
vn 0 1 0
vn 0 1 0
vn 0 1 0
vn 0 1 0
vn 0 1 0
vn 0 1 0
vn 0 1 0
vn 0 1 0
vn 0 1 0
vn 0 1 0
vn 0 1 0
vn 0 1 0
vn 0 1 0
vn 0 1 0
vn 0 1 0
vn 0 1 0
vn 0 1 0
vn 0 1 0
vn 0 1 0
vn 0 1 0
vn 0 1 0
vn 0 1 0
vn 0 1 0
vn 0 1 0
vn 0 1 0
vn 0 1 0
vn 0 1 0
vn 0 1 0
vn 0 1 0
vn 0 1 0
vn 0 1 0
vn 0 1 0
vn 0 1 0
vn 0 1 0
vn 0 1 0
vn 0 1 0
vn 0 1 0
vn 0 1 0
vn 0 1 0
vn 0 1 0
vn 0 1 0
vn 0 1 0
vn 0 1 0
vn 0 1 0
vn 0 1 0
vn 0 1 0
vn 0 1 0
vn 0 1 0
vn 0 1 0
vn 0 1 0
vn 0 1 0
vn 0 1 0
vn 0 1 0
vn 0 1 0
vn 0 1 0
vn 0 1 0
vn 0 1 0
vn 0 1 0
vn 0 1 0
vn 0 1 0
vn 0 1 0
vn 0 1 0
vn 0 1 0
vn 0 1 0
vn 0 1 0
vn 0 1 0
vn 0 1 0
vn 0 1 0
vn 0 1 0
vn 0 1 0
vn 0 1 0
vn 0 1 0
vn 0 1 0
vn 0 1 0
vn 0 1 0
vn 0 1 0
vn 0 1 0
vn 0 1 0
vn 0 1 0
vn 0 1 0
vn 0 1 0
vn 0 1 0
vn 0 1 0
vn 0 1 0
vn 0 1 0
vn 0 1 0
vn 0 1 0
vn 0 1 0
vn 0 1 0
vn 0 1 0
vn 0 1 0
vn 0 1 0
vn 0 1 0
vn 0 1 0
vn 0 1 0
vn 0 1 0
vn 0 1 0
vn 0 1 0
vn 0 1 0
vn 0 1 0
vn 0 1 0
vn 0 1 0
vn 0 1 0
vn 0 1 0
vn 0 1 0
vn 0 1 0
vn 0 1 0
vn 0 1 0
vn 0 1 0
vn 0 1 0
vn 0 1 0
vn 0 1 0
vn 0 1 0
vn 0 1 0
vn 0 1 0
g Grass_0_Cluster242_0
f 2/2/2 3/3/3 1/1/1
f 2/2/2 4/4/4 3/3/3
f 6/6/6 7/7/7 5/5/5
f 6/6/6 8/8/8 7/7/7
f 10/10/10 11/11/11 9/9/9
f 10/10/10 12/12/12 11/11/11
f 14/14/14 15/15/15 13/13/13
f 14/14/14 16/16/16 15/15/15
f 18/18/18 19/19/19 17/17/17
f 18/18/18 20/20/20 19/19/19
f 22/22/22 23/23/23 21/21/21
f 22/22/22 24/24/24 23/23/23
f 26/26/26 27/27/27 25/25/25
f 26/26/26 28/28/28 27/27/27
f 30/30/30 31/31/31 29/29/29
f 30/30/30 32/32/32 31/31/31
f 34/34/34 35/35/35 33/33/33
f 34/34/34 36/36/36 35/35/35
f 38/38/38 39/39/39 37/37/37
f 38/38/38 40/40/40 39/39/39
f 42/42/42 43/43/43 41/41/41
f 42/42/42 44/44/44 43/43/43
f 46/46/46 47/47/47 45/45/45
f 46/46/46 48/48/48 47/47/47
f 50/50/50 51/51/51 49/49/49
f 50/50/50 52/52/52 51/51/51
f 54/54/54 55/55/55 53/53/53
f 54/54/54 56/56/56 55/55/55
f 58/58/58 59/59/59 57/57/57
f 58/58/58 60/60/60 59/59/59
f 62/62/62 63/63/63 61/61/61
f 62/62/62 64/64/64 63/63/63
f 66/66/66 67/67/67 65/65/65
f 66/66/66 68/68/68 67/67/67
f 70/70/70 71/71/71 69/69/69
f 70/70/70 72/72/72 71/71/71
f 74/74/74 75/75/75 73/73/73
f 74/74/74 76/76/76 75/75/75
f 78/78/78 79/79/79 77/77/77
f 78/78/78 80/80/80 79/79/79
f 82/82/82 83/83/83 81/81/81
f 82/82/82 84/84/84 83/83/83
f 86/86/86 87/87/87 85/85/85
f 86/86/86 88/88/88 87/87/87
f 90/90/90 91/91/91 89/89/89
f 90/90/90 92/92/92 91/91/91
f 94/94/94 95/95/95 93/93/93
f 94/94/94 96/96/96 95/95/95
f 98/98/98 99/99/99 97/97/97
f 98/98/98 100/100/100 99/99/99
f 102/102/102 103/103/103 101/101/101
f 102/102/102 104/104/104 103/103/103
f 106/106/106 107/107/107 105/105/105
f 106/106/106 108/108/108 107/107/107
f 110/110/110 111/111/111 109/109/109
f 110/110/110 112/112/112 111/111/111
f 114/114/114 115/115/115 113/113/113
f 114/114/114 116/116/116 115/115/115
f 118/118/118 119/119/119 117/117/117
f 118/118/118 120/120/120 119/119/119
f 122/122/122 123/123/123 121/121/121
f 122/122/122 124/124/124 123/123/123
f 126/126/126 127/127/127 125/125/125
f 126/126/126 128/128/128 127/127/127
f 130/130/130 131/131/131 129/129/129
f 130/130/130 132/132/132 131/131/131
f 134/134/134 135/135/135 133/133/133
f 134/134/134 136/136/136 135/135/135
f 138/138/138 139/139/139 137/137/137
f 138/138/138 140/140/140 139/139/139
f 142/142/142 143/143/143 141/141/141
f 142/142/142 144/144/144 143/143/143
f 146/146/146 147/147/147 145/145/145
f 146/146/146 148/148/148 147/147/147
f 150/150/150 151/151/151 149/149/149
f 150/150/150 152/152/152 151/151/151
f 154/154/154 155/155/155 153/153/153
f 154/154/154 156/156/156 155/155/155
f 158/158/158 159/159/159 157/157/157
f 158/158/158 160/160/160 159/159/159
f 162/162/162 163/163/163 161/161/161
f 162/162/162 164/164/164 163/163/163
f 166/166/166 167/167/167 165/165/165
f 166/166/166 168/168/168 167/167/167
f 170/170/170 171/171/171 169/169/169
f 170/170/170 172/172/172 171/171/171
f 174/174/174 175/175/175 173/173/173
f 174/174/174 176/176/176 175/175/175
f 178/178/178 179/179/179 177/177/177
f 178/178/178 180/180/180 179/179/179
f 182/182/182 183/183/183 181/181/181
f 182/182/182 184/184/184 183/183/183
f 186/186/186 187/187/187 185/185/185
f 186/186/186 188/188/188 187/187/187
f 190/190/190 191/191/191 189/189/189
f 190/190/190 192/192/192 191/191/191
f 194/194/194 195/195/195 193/193/193
f 194/194/194 196/196/196 195/195/195
f 198/198/198 199/199/199 197/197/197
f 198/198/198 200/200/200 199/199/199
f 202/202/202 203/203/203 201/201/201
f 202/202/202 204/204/204 203/203/203
f 206/206/206 207/207/207 205/205/205
f 206/206/206 208/208/208 207/207/207
f 210/210/210 211/211/211 209/209/209
f 210/210/210 212/212/212 211/211/211
f 214/214/214 215/215/215 213/213/213
f 214/214/214 216/216/216 215/215/215
f 218/218/218 219/219/219 217/217/217
f 218/218/218 220/220/220 219/219/219
f 222/222/222 223/223/223 221/221/221
f 222/222/222 224/224/224 223/223/223
f 226/226/226 227/227/227 225/225/225
f 226/226/226 228/228/228 227/227/227
f 230/230/230 231/231/231 229/229/229
f 230/230/230 232/232/232 231/231/231
f 234/234/234 235/235/235 233/233/233
f 234/234/234 236/236/236 235/235/235
f 238/238/238 239/239/239 237/237/237
f 238/238/238 240/240/240 239/239/239
f 242/242/242 243/243/243 241/241/241
f 242/242/242 244/244/244 243/243/243
f 246/246/246 247/247/247 245/245/245
f 246/246/246 248/248/248 247/247/247
f 250/250/250 251/251/251 249/249/249
f 250/250/250 252/252/252 251/251/251
f 254/254/254 255/255/255 253/253/253
f 254/254/254 256/256/256 255/255/255
f 258/258/258 259/259/259 257/257/257
f 258/258/258 260/260/260 259/259/259
f 262/262/262 263/263/263 261/261/261
f 262/262/262 264/264/264 263/263/263
f 266/266/266 267/267/267 265/265/265
f 266/266/266 268/268/268 267/267/267
f 270/270/270 271/271/271 269/269/269
f 270/270/270 272/272/272 271/271/271
f 274/274/274 275/275/275 273/273/273
f 274/274/274 276/276/276 275/275/275
f 278/278/278 279/279/279 277/277/277
f 278/278/278 280/280/280 279/279/279
f 282/282/282 283/283/283 281/281/281
f 282/282/282 284/284/284 283/283/283
f 286/286/286 287/287/287 285/285/285
f 286/286/286 288/288/288 287/287/287
f 290/290/290 291/291/291 289/289/289
f 290/290/290 292/292/292 291/291/291
f 294/294/294 295/295/295 293/293/293
f 294/294/294 296/296/296 295/295/295
f 298/298/298 299/299/299 297/297/297
f 298/298/298 300/300/300 299/299/299
f 302/302/302 303/303/303 301/301/301
f 302/302/302 304/304/304 303/303/303
f 306/306/306 307/307/307 305/305/305
f 306/306/306 308/308/308 307/307/307
f 310/310/310 311/311/311 309/309/309
f 310/310/310 312/312/312 311/311/311
f 314/314/314 315/315/315 313/313/313
f 314/314/314 316/316/316 315/315/315
f 318/318/318 319/319/319 317/317/317
f 318/318/318 320/320/320 319/319/319
f 322/322/322 323/323/323 321/321/321
f 322/322/322 324/324/324 323/323/323
f 326/326/326 327/327/327 325/325/325
f 326/326/326 328/328/328 327/327/327
f 330/330/330 331/331/331 329/329/329
f 330/330/330 332/332/332 331/331/331
