g Grass_0_Cluster248
v 49.85448 -0.05170441 353.0216
v 49.04467 -0.05170441 353.0216
v 49.85448 -0.05170441 354.2363
v 49.04467 -0.05170441 354.2363
v 45.40057 -0.05170441 352.6167
v 44.59077 -0.05170441 352.6167
v 45.40057 -0.05170441 353.8314
v 44.59077 -0.05170441 353.8314
v 52.28388 -0.05170441 352.6167
v 51.47408 -0.05170441 352.6167
v 52.28388 -0.05170441 353.8314
v 51.47408 -0.05170441 353.8314
v 53.49858 -0.05170441 352.2118
v 52.68878 -0.05170441 352.2118
v 53.49858 -0.05170441 353.4265
v 52.68878 -0.05170441 353.4265
v 48.63977 -0.05170441 352.2118
v 47.82997 -0.05170441 352.2118
v 48.63977 -0.05170441 353.0216
v 47.82997 -0.05170441 353.0216
v 54.30838 -0.05170441 351.8069
v 53.49858 -0.05170441 351.8069
v 54.30838 -0.05170441 353.0216
v 53.49858 -0.05170441 353.0216
v 51.06918 -0.05170441 351.402
v 50.25938 -0.05170441 351.402
v 51.06918 -0.05170441 352.6167
v 50.25938 -0.05170441 352.6167
v 52.28388 -0.05170441 350.9971
v 51.47408 -0.05170441 350.9971
v 52.28388 -0.05170441 352.2118
v 51.47408 -0.05170441 352.2118
v 55.52308 -0.05170441 350.1873
v 54.71328 -0.05170441 350.1873
v 55.52308 -0.05170441 351.402
v 54.71328 -0.05170441 351.402
v 51.06918 -0.05170441 349.7824
v 49.85448 -0.05170441 349.7824
v 51.06918 -0.05170441 351.402
v 49.85448 -0.05170441 351.402
v 40.54176 -0.05170441 349.7824
v 39.32706 -0.05170441 349.7824
v 40.54176 -0.05170441 350.9971
v 39.32706 -0.05170441 350.9971
v 53.09368 -0.05170441 349.3775
v 52.28388 -0.05170441 349.3775
v 53.09368 -0.05170441 350.5922
v 52.28388 -0.05170441 350.5922
v 50.25938 -0.05170441 348.9726
v 49.44957 -0.05170441 348.9726
v 50.25938 -0.05170441 350.1873
v 49.44957 -0.05170441 350.1873
v 35.27805 -0.05170441 345.7334
v 34.46825 -0.05170441 345.7334
v 35.27805 -0.05170441 346.9481
v 34.46825 -0.05170441 346.9481
v 39.32706 -0.05170441 345.3285
v 38.51726 -0.05170441 345.3285
v 39.32706 -0.05170441 346.5432
v 38.51726 -0.05170441 346.5432
v 38.51726 -0.05170441 344.9236
v 37.70746 -0.05170441 344.9236
v 38.51726 -0.05170441 346.1383
v 37.70746 -0.05170441 346.1383
v 39.32706 -0.05170441 344.5187
v 38.11236 -0.05170441 344.5187
v 39.32706 -0.05170441 345.7334
v 38.11236 -0.05170441 345.7334
v 37.30256 -0.05170441 343.7089
v 36.08786 -0.05170441 343.7089
v 37.30256 -0.05170441 344.9236
v 36.08786 -0.05170441 344.9236
v 34.87315 -0.05170441 343.7089
v 33.65845 -0.05170441 343.7089
v 34.87315 -0.05170441 344.9236
v 33.65845 -0.05170441 344.9236
v 38.11236 -0.05170441 342.4942
v 37.30256 -0.05170441 342.4942
v 38.11236 -0.05170441 343.7089
v 37.30256 -0.05170441 343.7089
v 34.87315 -0.05170441 342.0893
v 34.06335 -0.05170441 342.0893
v 34.87315 -0.05170441 343.304
v 34.06335 -0.05170441 343.304
v 58.76229 -0.05170441 338.4452
v 57.95249 -0.05170441 338.4452
v 58.76229 -0.05170441 339.6599
v 57.95249 -0.05170441 339.6599
v 54.71328 -0.05170441 336.4207
v 53.90348 -0.05170441 336.4207
v 54.71328 -0.05170441 337.6354
v 53.90348 -0.05170441 337.6354
v 46.21037 -0.05170441 336.0158
v 45.40057 -0.05170441 336.0158
v 46.21037 -0.05170441 337.2305
v 45.40057 -0.05170441 337.2305
v 31.63395 -0.05170441 336.0158
v 30.82415 -0.05170441 336.0158
v 31.63395 -0.05170441 337.2305
v 30.82415 -0.05170441 337.2305
v 58.35739 -0.05170441 335.6109
v 57.14268 -0.05170441 335.6109
v 58.35739 -0.05170441 337.2305
v 57.14268 -0.05170441 337.2305
v 59.57209 -0.05170441 335.6109
v 58.76229 -0.05170441 335.6109
v 59.57209 -0.05170441 336.8256
v 58.76229 -0.05170441 336.8256
v 44.18587 -0.05170441 335.206
v 43.37607 -0.05170441 335.206
v 44.18587 -0.05170441 336.4207
v 43.37607 -0.05170441 336.4207
v 42.16136 -0.05170441 335.206
v 41.35156 -0.05170441 335.206
v 42.16136 -0.05170441 336.4207
v 41.35156 -0.05170441 336.4207
v 58.35739 -0.05170441 334.8011
v 57.54758 -0.05170441 334.8011
v 58.35739 -0.05170441 336.0158
v 57.54758 -0.05170441 336.0158
v 59.97699 -0.05170441 334.8011
v 59.16719 -0.05170441 334.8011
v 59.97699 -0.05170441 336.0158
v 59.16719 -0.05170441 336.0158
v 44.99567 -0.05170441 334.8011
v 44.18587 -0.05170441 334.8011
v 44.99567 -0.05170441 336.0158
v 44.18587 -0.05170441 336.0158
v 58.76229 -0.05170441 334.3962
v 57.95249 -0.05170441 334.3962
v 58.76229 -0.05170441 335.6109
v 57.95249 -0.05170441 335.6109
v 46.21037 -0.05170441 333.5864
v 44.99567 -0.05170441 333.5864
v 46.21037 -0.05170441 334.8011
v 44.99567 -0.05170441 334.8011
v 59.57209 -0.05170441 333.1815
v 58.35739 -0.05170441 333.1815
v 59.57209 -0.05170441 334.3962
v 58.35739 -0.05170441 334.3962
v 44.99567 -0.05170441 332.7766
v 44.18587 -0.05170441 332.7766
v 44.99567 -0.05170441 333.9913
v 44.18587 -0.05170441 333.9913
v 46.21037 -0.05170441 332.3717
v 45.40057 -0.05170441 332.3717
v 46.21037 -0.05170441 333.5864
v 45.40057 -0.05170441 333.5864
v 36.89766 -0.05170441 331.9668
v 36.08786 -0.05170441 331.9668
v 36.89766 -0.05170441 333.1815
v 36.08786 -0.05170441 333.1815
v 43.78097 -0.05170441 331.5619
v 42.97116 -0.05170441 331.5619
v 43.78097 -0.05170441 332.7766
v 42.97116 -0.05170441 332.7766
v 56.73779 -0.05170441 331.5619
v 55.92798 -0.05170441 331.5619
v 56.73779 -0.05170441 332.7766
v 55.92798 -0.05170441 332.7766
v 57.14268 -0.05170441 331.157
v 56.33289 -0.05170441 331.157
v 57.14268 -0.05170441 332.3717
v 56.33289 -0.05170441 332.3717
v 38.92216 -0.05170441 330.7521
v 38.11236 -0.05170441 330.7521
v 38.92216 -0.05170441 331.9668
v 38.11236 -0.05170441 331.9668
vt 0 0.9058824
vt 0.06666667 0.9058824
vt 0 1
vt 0.06666667 1
vt 0 0.9058824
vt 0.06666667 0.9058824
vt 0 1
vt 0.06666667 1
vt 0 0.9058824
vt 0.06666667 0.9058824
vt 0 1
vt 0.06666667 1
vt 0 0.9058824
vt 0.06666667 0.9058824
vt 0 1
vt 0.06666667 1
vt 0 0.9058824
vt 0.06666667 0.9058824
vt 0 1
vt 0.06666667 1
vt 0 0.9058824
vt 0.06666667 0.9058824
vt 0 1
vt 0.06666667 1
vt 0 0.9058824
vt 0.06666667 0.9058824
vt 0 1
vt 0.06666667 1
vt 0 0.9058824
vt 0.06666667 0.9058824
vt 0 1
vt 0.06666667 1
vt 0 0.9058824
vt 0.06666667 0.9058824
vt 0 1
vt 0.06666667 1
vt 0 0.9058824
vt 0.06666667 0.9058824
vt 0 1
vt 0.06666667 1
vt 0 0.9058824
vt 0.06666667 0.9058824
vt 0 1
vt 0.06666667 1
vt 0 0.9058824
vt 0.06666667 0.9058824
vt 0 1
vt 0.06666667 1
vt 0 0.9058824
vt 0.06666667 0.9058824
vt 0 1
vt 0.06666667 1
vt 0 0.9058824
vt 0.06666667 0.9058824
vt 0 1
vt 0.06666667 1
vt 0 0.9058824
vt 0.06666667 0.9058824
vt 0 1
vt 0.06666667 1
vt 0 0.9058824
vt 0.06666667 0.9058824
vt 0 1
vt 0.06666667 1
vt 0 0.9058824
vt 0.06666667 0.9058824
vt 0 1
vt 0.06666667 1
vt 0 0.9058824
vt 0.06666667 0.9058824
vt 0 1
vt 0.06666667 1
vt 0 0.9058824
vt 0.06666667 0.9058824
vt 0 1
vt 0.06666667 1
vt 0 0.9058824
vt 0.06666667 0.9058824
vt 0 1
vt 0.06666667 1
vt 0 0.9058824
vt 0.06666667 0.9058824
vt 0 1
vt 0.06666667 1
vt 0 0.9058824
vt 0.06666667 0.9058824
vt 0 1
vt 0.06666667 1
vt 0 0.9058824
vt 0.06666667 0.9058824
vt 0 1
vt 0.06666667 1
vt 0 0.9058824
vt 0.06666667 0.9058824
vt 0 1
vt 0.06666667 1
vt 0 0.9058824
vt 0.06666667 0.9058824
vt 0 1
vt 0.06666667 1
vt 0 0.9058824
vt 0.06666667 0.9058824
vt 0 1
vt 0.06666667 1
vt 0 0.9058824
vt 0.06666667 0.9058824
vt 0 1
vt 0.06666667 1
vt 0 0.9058824
vt 0.06666667 0.9058824
vt 0 1
vt 0.06666667 1
vt 0 0.9058824
vt 0.06666667 0.9058824
vt 0 1
vt 0.06666667 1
vt 0 0.9058824
vt 0.06666667 0.9058824
vt 0 1
vt 0.06666667 1
vt 0 0.9058824
vt 0.06666667 0.9058824
vt 0 1
vt 0.06666667 1
vt 0 0.9058824
vt 0.06666667 0.9058824
vt 0 1
vt 0.06666667 1
vt 0 0.9058824
vt 0.06666667 0.9058824
vt 0 1
vt 0.06666667 1
vt 0 0.9058824
vt 0.06666667 0.9058824
vt 0 1
vt 0.06666667 1
vt 0 0.9058824
vt 0.06666667 0.9058824
vt 0 1
vt 0.06666667 1
vt 0 0.9058824
vt 0.06666667 0.9058824
vt 0 1
vt 0.06666667 1
vt 0 0.9058824
vt 0.06666667 0.9058824
vt 0 1
vt 0.06666667 1
vt 0 0.9058824
vt 0.06666667 0.9058824
vt 0 1
vt 0.06666667 1
vt 0 0.9058824
vt 0.06666667 0.9058824
vt 0 1
vt 0.06666667 1
vt 0 0.9058824
vt 0.06666667 0.9058824
vt 0 1
vt 0.06666667 1
vt 0 0.9058824
vt 0.06666667 0.9058824
vt 0 1
vt 0.06666667 1
vt 0 0.9058824
vt 0.06666667 0.9058824
vt 0 1
vt 0.06666667 1
vn 0 1 0
vn 0 1 0
vn 0 1 0
vn 0 1 0
vn 0 1 0
vn 0 1 0
vn 0 1 0
vn 0 1 0
vn 0 1 0
vn 0 1 0
vn 0 1 0
vn 0 1 0
vn 0 1 0
vn 0 1 0
vn 0 1 0
vn 0 1 0
vn 0 1 0
vn 0 1 0
vn 0 1 0
vn 0 1 0
vn 0 1 0
vn 0 1 0
vn 0 1 0
vn 0 1 0
vn 0 1 0
vn 0 1 0
vn 0 1 0
vn 0 1 0
vn 0 1 0
vn 0 1 0
vn 0 1 0
vn 0 1 0
vn 0 1 0
vn 0 1 0
vn 0 1 0
vn 0 1 0
vn 0 1 0
vn 0 1 0
vn 0 1 0
vn 0 1 0
vn 0 1 0
vn 0 1 0
vn 0 1 0
vn 0 1 0
vn 0 1 0
vn 0 1 0
vn 0 1 0
vn 0 1 0
vn 0 1 0
vn 0 1 0
vn 0 1 0
vn 0 1 0
vn 0 1 0
vn 0 1 0
vn 0 1 0
vn 0 1 0
vn 0 1 0
vn 0 1 0
vn 0 1 0
vn 0 1 0
vn 0 1 0
vn 0 1 0
vn 0 1 0
vn 0 1 0
vn 0 1 0
vn 0 1 0
vn 0 1 0
vn 0 1 0
vn 0 1 0
vn 0 1 0
vn 0 1 0
vn 0 1 0
vn 0 1 0
vn 0 1 0
vn 0 1 0
vn 0 1 0
vn 0 1 0
vn 0 1 0
vn 0 1 0
vn 0 1 0
vn 0 1 0
vn 0 1 0
vn 0 1 0
vn 0 1 0
vn 0 1 0
vn 0 1 0
vn 0 1 0
vn 0 1 0
vn 0 1 0
vn 0 1 0
vn 0 1 0
vn 0 1 0
vn 0 1 0
vn 0 1 0
vn 0 1 0
vn 0 1 0
vn 0 1 0
vn 0 1 0
vn 0 1 0
vn 0 1 0
vn 0 1 0
vn 0 1 0
vn 0 1 0
vn 0 1 0
vn 0 1 0
vn 0 1 0
vn 0 1 0
vn 0 1 0
vn 0 1 0
vn 0 1 0
vn 0 1 0
vn 0 1 0
vn 0 1 0
vn 0 1 0
vn 0 1 0
vn 0 1 0
vn 0 1 0
vn 0 1 0
vn 0 1 0
vn 0 1 0
vn 0 1 0
vn 0 1 0
vn 0 1 0
vn 0 1 0
vn 0 1 0
vn 0 1 0
vn 0 1 0
vn 0 1 0
vn 0 1 0
vn 0 1 0
vn 0 1 0
vn 0 1 0
vn 0 1 0
vn 0 1 0
vn 0 1 0
vn 0 1 0
vn 0 1 0
vn 0 1 0
vn 0 1 0
vn 0 1 0
vn 0 1 0
vn 0 1 0
vn 0 1 0
vn 0 1 0
vn 0 1 0
vn 0 1 0
vn 0 1 0
vn 0 1 0
vn 0 1 0
vn 0 1 0
vn 0 1 0
vn 0 1 0
vn 0 1 0
vn 0 1 0
vn 0 1 0
vn 0 1 0
vn 0 1 0
vn 0 1 0
vn 0 1 0
vn 0 1 0
vn 0 1 0
vn 0 1 0
vn 0 1 0
vn 0 1 0
vn 0 1 0
vn 0 1 0
vn 0 1 0
vn 0 1 0
g Grass_0_Cluster248_0
f 2/2/2 3/3/3 1/1/1
f 2/2/2 4/4/4 3/3/3
f 6/6/6 7/7/7 5/5/5
f 6/6/6 8/8/8 7/7/7
f 10/10/10 11/11/11 9/9/9
f 10/10/10 12/12/12 11/11/11
f 14/14/14 15/15/15 13/13/13
f 14/14/14 16/16/16 15/15/15
f 18/18/18 19/19/19 17/17/17
f 18/18/18 20/20/20 19/19/19
f 22/22/22 23/23/23 21/21/21
f 22/22/22 24/24/24 23/23/23
f 26/26/26 27/27/27 25/25/25
f 26/26/26 28/28/28 27/27/27
f 30/30/30 31/31/31 29/29/29
f 30/30/30 32/32/32 31/31/31
f 34/34/34 35/35/35 33/33/33
f 34/34/34 36/36/36 35/35/35
f 38/38/38 39/39/39 37/37/37
f 38/38/38 40/40/40 39/39/39
f 42/42/42 43/43/43 41/41/41
f 42/42/42 44/44/44 43/43/43
f 46/46/46 47/47/47 45/45/45
f 46/46/46 48/48/48 47/47/47
f 50/50/50 51/51/51 49/49/49
f 50/50/50 52/52/52 51/51/51
f 54/54/54 55/55/55 53/53/53
f 54/54/54 56/56/56 55/55/55
f 58/58/58 59/59/59 57/57/57
f 58/58/58 60/60/60 59/59/59
f 62/62/62 63/63/63 61/61/61
f 62/62/62 64/64/64 63/63/63
f 66/66/66 67/67/67 65/65/65
f 66/66/66 68/68/68 67/67/67
f 70/70/70 71/71/71 69/69/69
f 70/70/70 72/72/72 71/71/71
f 74/74/74 75/75/75 73/73/73
f 74/74/74 76/76/76 75/75/75
f 78/78/78 79/79/79 77/77/77
f 78/78/78 80/80/80 79/79/79
f 82/82/82 83/83/83 81/81/81
f 82/82/82 84/84/84 83/83/83
f 86/86/86 87/87/87 85/85/85
f 86/86/86 88/88/88 87/87/87
f 90/90/90 91/91/91 89/89/89
f 90/90/90 92/92/92 91/91/91
f 94/94/94 95/95/95 93/93/93
f 94/94/94 96/96/96 95/95/95
f 98/98/98 99/99/99 97/97/97
f 98/98/98 100/100/100 99/99/99
f 102/102/102 103/103/103 101/101/101
f 102/102/102 104/104/104 103/103/103
f 106/106/106 107/107/107 105/105/105
f 106/106/106 108/108/108 107/107/107
f 110/110/110 111/111/111 109/109/109
f 110/110/110 112/112/112 111/111/111
f 114/114/114 115/115/115 113/113/113
f 114/114/114 116/116/116 115/115/115
f 118/118/118 119/119/119 117/117/117
f 118/118/118 120/120/120 119/119/119
f 122/122/122 123/123/123 121/121/121
f 122/122/122 124/124/124 123/123/123
f 126/126/126 127/127/127 125/125/125
f 126/126/126 128/128/128 127/127/127
f 130/130/130 131/131/131 129/129/129
f 130/130/130 132/132/132 131/131/131
f 134/134/134 135/135/135 133/133/133
f 134/134/134 136/136/136 135/135/135
f 138/138/138 139/139/139 137/137/137
f 138/138/138 140/140/140 139/139/139
f 142/142/142 143/143/143 141/141/141
f 142/142/142 144/144/144 143/143/143
f 146/146/146 147/147/147 145/145/145
f 146/146/146 148/148/148 147/147/147
f 150/150/150 151/151/151 149/149/149
f 150/150/150 152/152/152 151/151/151
f 154/154/154 155/155/155 153/153/153
f 154/154/154 156/156/156 155/155/155
f 158/158/158 159/159/159 157/157/157
f 158/158/158 160/160/160 159/159/159
f 162/162/162 163/163/163 161/161/161
f 162/162/162 164/164/164 163/163/163
f 166/166/166 167/167/167 165/165/165
f 166/166/166 168/168/168 167/167/167
