g Grass_2_Cluster12
v -84.06039 -0.04012775 -7.264621
v -84.9866 -0.04012775 -7.264621
v -84.06039 -0.04012775 -6.153161
v -84.9866 -0.04012775 -6.153161
v -83.22679 -0.04012775 -7.635108
v -84.15302 -0.04012775 -7.635108
v -83.22679 -0.04012775 -6.616269
v -84.15302 -0.04012775 -6.616269
v -83.31941 -0.04012775 -8.376081
v -84.33826 -0.04012775 -8.376081
v -83.31941 -0.04012775 -7.264621
v -84.33826 -0.04012775 -7.264621
v -83.78253 -0.04012775 -9.765408
v -84.80136 -0.04012775 -9.765408
v -83.78253 -0.04012775 -8.653947
v -84.80136 -0.04012775 -8.653947
vt 0.1347656 0.9185662
vt 0.2060202 0.9185662
vt 0.1347656 1
vt 0.2060202 1
vt 0.1347656 0.9185662
vt 0.2060202 0.9185662
vt 0.1347656 1
vt 0.2060202 1
vt 0.1347656 0.9185662
vt 0.2060202 0.9185662
vt 0.1347656 1
vt 0.2060202 1
vt 0.1347656 0.9185662
vt 0.2060202 0.9185662
vt 0.1347656 1
vt 0.2060202 1
vn 0 1 0
vn 0 1 0
vn 0 1 0
vn 0 1 0
vn 0 1 0
vn 0 1 0
vn 0 1 0
vn 0 1 0
vn 0 1 0
vn 0 1 0
vn 0 1 0
vn 0 1 0
vn 0 1 0
vn 0 1 0
vn 0 1 0
vn 0 1 0
g Grass_2_Cluster12_0
f 2/2/2 3/3/3 1/1/1
f 2/2/2 4/4/4 3/3/3
f 6/6/6 7/7/7 5/5/5
f 6/6/6 8/8/8 7/7/7
f 10/10/10 11/11/11 9/9/9
f 10/10/10 12/12/12 11/11/11
f 14/14/14 15/15/15 13/13/13
f 14/14/14 16/16/16 15/15/15
