g Grass_1_Cluster303
v 193.9571 -0.04347229 439.2821
v 193.3213 -0.04347229 439.2821
v 193.9571 -0.04347229 439.9179
v 193.3213 -0.04347229 439.9179
v 209.2159 -0.04347229 434.8316
v 207.9443 -0.04347229 434.8316
v 209.2159 -0.04347229 435.4674
v 207.9443 -0.04347229 435.4674
v 206.6727 -0.04347229 432.9243
v 205.4012 -0.04347229 432.9243
v 206.6727 -0.04347229 434.1959
v 205.4012 -0.04347229 434.1959
v 209.2159 -0.04347229 432.9243
v 208.5801 -0.04347229 432.9243
v 209.2159 -0.04347229 434.1959
v 208.5801 -0.04347229 434.1959
v 210.4874 -0.04347229 432.9243
v 209.8516 -0.04347229 432.9243
v 210.4874 -0.04347229 433.5601
v 209.8516 -0.04347229 433.5601
v 204.1296 -0.04347229 432.9243
v 203.4938 -0.04347229 432.9243
v 204.1296 -0.04347229 433.5601
v 203.4938 -0.04347229 433.5601
v 206.6727 -0.04347229 432.2885
v 206.037 -0.04347229 432.2885
v 206.6727 -0.04347229 432.9243
v 206.037 -0.04347229 432.9243
v 202.858 -0.04347229 431.017
v 202.2223 -0.04347229 431.017
v 202.858 -0.04347229 432.2885
v 202.2223 -0.04347229 432.2885
v 205.4012 -0.04347229 429.7454
v 204.7654 -0.04347229 429.7454
v 205.4012 -0.04347229 430.3812
v 204.7654 -0.04347229 430.3812
v 202.2223 -0.04347229 429.1096
v 201.5865 -0.04347229 429.1096
v 202.2223 -0.04347229 430.3812
v 201.5865 -0.04347229 430.3812
v 207.9443 -0.04347229 429.1096
v 206.6727 -0.04347229 429.1096
v 207.9443 -0.04347229 430.3812
v 206.6727 -0.04347229 430.3812
v 204.7654 -0.04347229 429.1096
v 204.1296 -0.04347229 429.1096
v 204.7654 -0.04347229 429.7454
v 204.1296 -0.04347229 429.7454
v 195.2287 -0.04347229 423.3876
v 193.9571 -0.04347229 423.3876
v 195.2287 -0.04347229 424.6591
v 193.9571 -0.04347229 424.6591
v 182.513 -0.04347229 420.2086
v 181.8772 -0.04347229 420.2086
v 182.513 -0.04347229 420.8444
v 181.8772 -0.04347229 420.8444
v 181.8772 -0.04347229 418.9371
v 181.2414 -0.04347229 418.9371
v 181.8772 -0.04347229 420.2086
v 181.2414 -0.04347229 420.2086
vt 0.06738281 0.9369141
vt 0.1331457 0.9369141
vt 0.06738281 0.9990234
vt 0.1331457 0.9990234
vt 0.06738281 0.9369141
vt 0.1331457 0.9369141
vt 0.06738281 0.9990234
vt 0.1331457 0.9990234
vt 0.06738281 0.9369141
vt 0.1331457 0.9369141
vt 0.06738281 0.9990234
vt 0.1331457 0.9990234
vt 0.06738281 0.9369141
vt 0.1331457 0.9369141
vt 0.06738281 0.9990234
vt 0.1331457 0.9990234
vt 0.06738281 0.9369141
vt 0.1331457 0.9369141
vt 0.06738281 0.9990234
vt 0.1331457 0.9990234
vt 0.06738281 0.9369141
vt 0.1331457 0.9369141
vt 0.06738281 0.9990234
vt 0.1331457 0.9990234
vt 0.06738281 0.9369141
vt 0.1331457 0.9369141
vt 0.06738281 0.9990234
vt 0.1331457 0.9990234
vt 0.06738281 0.9369141
vt 0.1331457 0.9369141
vt 0.06738281 0.9990234
vt 0.1331457 0.9990234
vt 0.06738281 0.9369141
vt 0.1331457 0.9369141
vt 0.06738281 0.9990234
vt 0.1331457 0.9990234
vt 0.06738281 0.9369141
vt 0.1331457 0.9369141
vt 0.06738281 0.9990234
vt 0.1331457 0.9990234
vt 0.06738281 0.9369141
vt 0.1331457 0.9369141
vt 0.06738281 0.9990234
vt 0.1331457 0.9990234
vt 0.06738281 0.9369141
vt 0.1331457 0.9369141
vt 0.06738281 0.9990234
vt 0.1331457 0.9990234
vt 0.06738281 0.9369141
vt 0.1331457 0.9369141
vt 0.06738281 0.9990234
vt 0.1331457 0.9990234
vt 0.06738281 0.9369141
vt 0.1331457 0.9369141
vt 0.06738281 0.9990234
vt 0.1331457 0.9990234
vt 0.06738281 0.9369141
vt 0.1331457 0.9369141
vt 0.06738281 0.9990234
vt 0.1331457 0.9990234
vn 0 1 0
vn 0 1 0
vn 0 1 0
vn 0 1 0
vn 0 1 0
vn 0 1 0
vn 0 1 0
vn 0 1 0
vn 0 1 0
vn 0 1 0
vn 0 1 0
vn 0 1 0
vn 0 1 0
vn 0 1 0
vn 0 1 0
vn 0 1 0
vn 0 1 0
vn 0 1 0
vn 0 1 0
vn 0 1 0
vn 0 1 0
vn 0 1 0
vn 0 1 0
vn 0 1 0
vn 0 1 0
vn 0 1 0
vn 0 1 0
vn 0 1 0
vn 0 1 0
vn 0 1 0
vn 0 1 0
vn 0 1 0
vn 0 1 0
vn 0 1 0
vn 0 1 0
vn 0 1 0
vn 0 1 0
vn 0 1 0
vn 0 1 0
vn 0 1 0
vn 0 1 0
vn 0 1 0
vn 0 1 0
vn 0 1 0
vn 0 1 0
vn 0 1 0
vn 0 1 0
vn 0 1 0
vn 0 1 0
vn 0 1 0
vn 0 1 0
vn 0 1 0
vn 0 1 0
vn 0 1 0
vn 0 1 0
vn 0 1 0
vn 0 1 0
vn 0 1 0
vn 0 1 0
vn 0 1 0
g Grass_1_Cluster303_0
f 2/2/2 3/3/3 1/1/1
f 2/2/2 4/4/4 3/3/3
f 6/6/6 7/7/7 5/5/5
f 6/6/6 8/8/8 7/7/7
f 10/10/10 11/11/11 9/9/9
f 10/10/10 12/12/12 11/11/11
f 14/14/14 15/15/15 13/13/13
f 14/14/14 16/16/16 15/15/15
f 18/18/18 19/19/19 17/17/17
f 18/18/18 20/20/20 19/19/19
f 22/22/22 23/23/23 21/21/21
f 22/22/22 24/24/24 23/23/23
f 26/26/26 27/27/27 25/25/25
f 26/26/26 28/28/28 27/27/27
f 30/30/30 31/31/31 29/29/29
f 30/30/30 32/32/32 31/31/31
f 34/34/34 35/35/35 33/33/33
f 34/34/34 36/36/36 35/35/35
f 38/38/38 39/39/39 37/37/37
f 38/38/38 40/40/40 39/39/39
f 42/42/42 43/43/43 41/41/41
f 42/42/42 44/44/44 43/43/43
f 46/46/46 47/47/47 45/45/45
f 46/46/46 48/48/48 47/47/47
f 50/50/50 51/51/51 49/49/49
f 50/50/50 52/52/52 51/51/51
f 54/54/54 55/55/55 53/53/53
f 54/54/54 56/56/56 55/55/55
f 58/58/58 59/59/59 57/57/57
f 58/58/58 60/60/60 59/59/59
