g Grass_0_Cluster221
v 252.9664 -0.1212463 323.0556
v 251.8039 -0.1212463 323.0556
v 252.9664 -0.1212463 324.2181
v 251.8039 -0.1212463 324.2181
v 257.0352 -0.1212463 322.4743
v 256.4539 -0.1212463 322.4743
v 257.0352 -0.1212463 323.6369
v 256.4539 -0.1212463 323.6369
v 266.3352 -0.1212463 321.8931
v 265.754 -0.1212463 321.8931
v 266.3352 -0.1212463 323.0556
v 265.754 -0.1212463 323.0556
v 255.8727 -0.1212463 321.8931
v 255.2914 -0.1212463 321.8931
v 255.8727 -0.1212463 323.0556
v 255.2914 -0.1212463 323.0556
v 257.6165 -0.1212463 321.8931
v 256.4539 -0.1212463 321.8931
v 257.6165 -0.1212463 323.0556
v 256.4539 -0.1212463 323.0556
v 246.5726 -0.1212463 321.3119
v 245.9914 -0.1212463 321.3119
v 246.5726 -0.1212463 322.4743
v 245.9914 -0.1212463 322.4743
v 250.6414 -0.1212463 321.8931
v 250.0602 -0.1212463 321.8931
v 250.6414 -0.1212463 323.0556
v 250.0602 -0.1212463 323.0556
v 241.9226 -0.1212463 321.3119
v 241.3414 -0.1212463 321.3119
v 241.9226 -0.1212463 323.0556
v 241.3414 -0.1212463 323.0556
v 252.3852 -0.1212463 321.3119
v 251.2227 -0.1212463 321.3119
v 252.3852 -0.1212463 322.4743
v 251.2227 -0.1212463 322.4743
v 261.104 -0.1212463 318.4055
v 260.5227 -0.1212463 318.4055
v 261.104 -0.1212463 319.5681
v 260.5227 -0.1212463 319.5681
v 243.0851 -0.1212463 310.8493
v 241.9226 -0.1212463 310.8493
v 243.0851 -0.1212463 312.593
v 241.9226 -0.1212463 312.593
v 245.4101 -0.1212463 309.1055
v 244.8289 -0.1212463 309.1055
v 245.4101 -0.1212463 310.268
v 244.8289 -0.1212463 310.268
v 254.7102 -0.1212463 308.5243
v 254.1289 -0.1212463 308.5243
v 254.7102 -0.1212463 309.6867
v 254.1289 -0.1212463 309.6867
v 263.429 -0.1212463 307.943
v 262.8477 -0.1212463 307.943
v 263.429 -0.1212463 309.1055
v 262.8477 -0.1212463 309.1055
v 261.6852 -0.1212463 306.1992
v 260.5227 -0.1212463 306.1992
v 261.6852 -0.1212463 307.3617
v 260.5227 -0.1212463 307.3617
v 252.9664 -0.1212463 306.1992
v 251.8039 -0.1212463 306.1992
v 252.9664 -0.1212463 307.3617
v 251.8039 -0.1212463 307.3617
v 259.9415 -0.1212463 305.0367
v 258.779 -0.1212463 305.0367
v 259.9415 -0.1212463 306.1992
v 258.779 -0.1212463 306.1992
v 251.2227 -0.1212463 299.8055
v 250.0602 -0.1212463 299.8055
v 251.2227 -0.1212463 300.968
v 250.0602 -0.1212463 300.968
v 241.3414 -0.1212463 299.2242
v 240.7601 -0.1212463 299.2242
v 241.3414 -0.1212463 300.3867
v 240.7601 -0.1212463 300.3867
v 262.8477 -0.1212463 298.643
v 261.6852 -0.1212463 298.643
v 262.8477 -0.1212463 299.8055
v 261.6852 -0.1212463 299.8055
v 253.5477 -0.1212463 298.0617
v 252.9664 -0.1212463 298.0617
v 253.5477 -0.1212463 299.2242
v 252.9664 -0.1212463 299.2242
v 252.9664 -0.1212463 296.8992
v 251.8039 -0.1212463 296.8992
v 252.9664 -0.1212463 298.643
v 251.8039 -0.1212463 298.643
v 269.2415 -0.1212463 296.8992
v 268.6602 -0.1212463 296.8992
v 269.2415 -0.1212463 298.0617
v 268.6602 -0.1212463 298.0617
v 243.6664 -0.1212463 296.8992
v 242.5039 -0.1212463 296.8992
v 243.6664 -0.1212463 298.0617
v 242.5039 -0.1212463 298.0617
v 247.7351 -0.1212463 296.318
v 246.5726 -0.1212463 296.318
v 247.7351 -0.1212463 297.4804
v 246.5726 -0.1212463 297.4804
v 251.8039 -0.1212463 296.318
v 250.6414 -0.1212463 296.318
v 251.8039 -0.1212463 297.4804
v 250.6414 -0.1212463 297.4804
v 245.9914 -0.1212463 296.318
v 245.4101 -0.1212463 296.318
v 245.9914 -0.1212463 297.4804
v 245.4101 -0.1212463 297.4804
v 247.7351 -0.1212463 295.7367
v 247.1539 -0.1212463 295.7367
v 247.7351 -0.1212463 296.8992
v 247.1539 -0.1212463 296.8992
v 265.1727 -0.1212463 295.1554
v 264.0102 -0.1212463 295.1554
v 265.1727 -0.1212463 296.318
v 264.0102 -0.1212463 296.318
v 250.0602 -0.1212463 295.1554
v 248.8976 -0.1212463 295.1554
v 250.0602 -0.1212463 296.318
v 248.8976 -0.1212463 296.318
v 270.404 -0.1212463 294.5742
v 269.2415 -0.1212463 294.5742
v 270.404 -0.1212463 295.7367
v 269.2415 -0.1212463 295.7367
v 243.6664 -0.1212463 294.5742
v 243.0851 -0.1212463 294.5742
v 243.6664 -0.1212463 295.7367
v 243.0851 -0.1212463 295.7367
v 247.1539 -0.1212463 294.5742
v 245.9914 -0.1212463 294.5742
v 247.1539 -0.1212463 295.7367
v 245.9914 -0.1212463 295.7367
v 268.079 -0.1212463 294.5742
v 267.4977 -0.1212463 294.5742
v 268.079 -0.1212463 295.7367
v 267.4977 -0.1212463 295.7367
v 251.2227 -0.1212463 294.5742
v 250.0602 -0.1212463 294.5742
v 251.2227 -0.1212463 295.7367
v 250.0602 -0.1212463 295.7367
v 251.8039 -0.1212463 294.5742
v 250.6414 -0.1212463 294.5742
v 251.8039 -0.1212463 295.7367
v 250.6414 -0.1212463 295.7367
v 265.754 -0.1212463 293.993
v 264.5915 -0.1212463 293.993
v 265.754 -0.1212463 295.1554
v 264.5915 -0.1212463 295.1554
v 254.1289 -0.1212463 293.993
v 252.9664 -0.1212463 293.993
v 254.1289 -0.1212463 295.1554
v 252.9664 -0.1212463 295.1554
v 250.0602 -0.1212463 293.993
v 248.8976 -0.1212463 293.993
v 250.0602 -0.1212463 295.1554
v 248.8976 -0.1212463 295.1554
v 250.0602 -0.1212463 293.993
v 249.4789 -0.1212463 293.993
v 250.0602 -0.1212463 295.1554
v 249.4789 -0.1212463 295.1554
v 265.1727 -0.1212463 293.993
v 264.5915 -0.1212463 293.993
v 265.1727 -0.1212463 295.1554
v 264.5915 -0.1212463 295.1554
v 270.404 -0.1212463 293.4117
v 269.2415 -0.1212463 293.4117
v 270.404 -0.1212463 294.5742
v 269.2415 -0.1212463 294.5742
vt 0 0.9058824
vt 0.06666667 0.9058824
vt 0 1
vt 0.06666667 1
vt 0 0.9058824
vt 0.06666667 0.9058824
vt 0 1
vt 0.06666667 1
vt 0 0.9058824
vt 0.06666667 0.9058824
vt 0 1
vt 0.06666667 1
vt 0 0.9058824
vt 0.06666667 0.9058824
vt 0 1
vt 0.06666667 1
vt 0 0.9058824
vt 0.06666667 0.9058824
vt 0 1
vt 0.06666667 1
vt 0 0.9058824
vt 0.06666667 0.9058824
vt 0 1
vt 0.06666667 1
vt 0 0.9058824
vt 0.06666667 0.9058824
vt 0 1
vt 0.06666667 1
vt 0 0.9058824
vt 0.06666667 0.9058824
vt 0 1
vt 0.06666667 1
vt 0 0.9058824
vt 0.06666667 0.9058824
vt 0 1
vt 0.06666667 1
vt 0 0.9058824
vt 0.06666667 0.9058824
vt 0 1
vt 0.06666667 1
vt 0 0.9058824
vt 0.06666667 0.9058824
vt 0 1
vt 0.06666667 1
vt 0 0.9058824
vt 0.06666667 0.9058824
vt 0 1
vt 0.06666667 1
vt 0 0.9058824
vt 0.06666667 0.9058824
vt 0 1
vt 0.06666667 1
vt 0 0.9058824
vt 0.06666667 0.9058824
vt 0 1
vt 0.06666667 1
vt 0 0.9058824
vt 0.06666667 0.9058824
vt 0 1
vt 0.06666667 1
vt 0 0.9058824
vt 0.06666667 0.9058824
vt 0 1
vt 0.06666667 1
vt 0 0.9058824
vt 0.06666667 0.9058824
vt 0 1
vt 0.06666667 1
vt 0 0.9058824
vt 0.06666667 0.9058824
vt 0 1
vt 0.06666667 1
vt 0 0.9058824
vt 0.06666667 0.9058824
vt 0 1
vt 0.06666667 1
vt 0 0.9058824
vt 0.06666667 0.9058824
vt 0 1
vt 0.06666667 1
vt 0 0.9058824
vt 0.06666667 0.9058824
vt 0 1
vt 0.06666667 1
vt 0 0.9058824
vt 0.06666667 0.9058824
vt 0 1
vt 0.06666667 1
vt 0 0.9058824
vt 0.06666667 0.9058824
vt 0 1
vt 0.06666667 1
vt 0 0.9058824
vt 0.06666667 0.9058824
vt 0 1
vt 0.06666667 1
vt 0 0.9058824
vt 0.06666667 0.9058824
vt 0 1
vt 0.06666667 1
vt 0 0.9058824
vt 0.06666667 0.9058824
vt 0 1
vt 0.06666667 1
vt 0 0.9058824
vt 0.06666667 0.9058824
vt 0 1
vt 0.06666667 1
vt 0 0.9058824
vt 0.06666667 0.9058824
vt 0 1
vt 0.06666667 1
vt 0 0.9058824
vt 0.06666667 0.9058824
vt 0 1
vt 0.06666667 1
vt 0 0.9058824
vt 0.06666667 0.9058824
vt 0 1
vt 0.06666667 1
vt 0 0.9058824
vt 0.06666667 0.9058824
vt 0 1
vt 0.06666667 1
vt 0 0.9058824
vt 0.06666667 0.9058824
vt 0 1
vt 0.06666667 1
vt 0 0.9058824
vt 0.06666667 0.9058824
vt 0 1
vt 0.06666667 1
vt 0 0.9058824
vt 0.06666667 0.9058824
vt 0 1
vt 0.06666667 1
vt 0 0.9058824
vt 0.06666667 0.9058824
vt 0 1
vt 0.06666667 1
vt 0 0.9058824
vt 0.06666667 0.9058824
vt 0 1
vt 0.06666667 1
vt 0 0.9058824
vt 0.06666667 0.9058824
vt 0 1
vt 0.06666667 1
vt 0 0.9058824
vt 0.06666667 0.9058824
vt 0 1
vt 0.06666667 1
vt 0 0.9058824
vt 0.06666667 0.9058824
vt 0 1
vt 0.06666667 1
vt 0 0.9058824
vt 0.06666667 0.9058824
vt 0 1
vt 0.06666667 1
vt 0 0.9058824
vt 0.06666667 0.9058824
vt 0 1
vt 0.06666667 1
vt 0 0.9058824
vt 0.06666667 0.9058824
vt 0 1
vt 0.06666667 1
vn 0 1 0
vn 0 1 0
vn 0 1 0
vn 0 1 0
vn 0 1 0
vn 0 1 0
vn 0 1 0
vn 0 1 0
vn 0 1 0
vn 0 1 0
vn 0 1 0
vn 0 1 0
vn 0 1 0
vn 0 1 0
vn 0 1 0
vn 0 1 0
vn 0 1 0
vn 0 1 0
vn 0 1 0
vn 0 1 0
vn 0 1 0
vn 0 1 0
vn 0 1 0
vn 0 1 0
vn 0 1 0
vn 0 1 0
vn 0 1 0
vn 0 1 0
vn 0 1 0
vn 0 1 0
vn 0 1 0
vn 0 1 0
vn 0 1 0
vn 0 1 0
vn 0 1 0
vn 0 1 0
vn 0 1 0
vn 0 1 0
vn 0 1 0
vn 0 1 0
vn 0 1 0
vn 0 1 0
vn 0 1 0
vn 0 1 0
vn 0 1 0
vn 0 1 0
vn 0 1 0
vn 0 1 0
vn 0 1 0
vn 0 1 0
vn 0 1 0
vn 0 1 0
vn 0 1 0
vn 0 1 0
vn 0 1 0
vn 0 1 0
vn 0 1 0
vn 0 1 0
vn 0 1 0
vn 0 1 0
vn 0 1 0
vn 0 1 0
vn 0 1 0
vn 0 1 0
vn 0 1 0
vn 0 1 0
vn 0 1 0
vn 0 1 0
vn 0 1 0
vn 0 1 0
vn 0 1 0
vn 0 1 0
vn 0 1 0
vn 0 1 0
vn 0 1 0
vn 0 1 0
vn 0 1 0
vn 0 1 0
vn 0 1 0
vn 0 1 0
vn 0 1 0
vn 0 1 0
vn 0 1 0
vn 0 1 0
vn 0 1 0
vn 0 1 0
vn 0 1 0
vn 0 1 0
vn 0 1 0
vn 0 1 0
vn 0 1 0
vn 0 1 0
vn 0 1 0
vn 0 1 0
vn 0 1 0
vn 0 1 0
vn 0 1 0
vn 0 1 0
vn 0 1 0
vn 0 1 0
vn 0 1 0
vn 0 1 0
vn 0 1 0
vn 0 1 0
vn 0 1 0
vn 0 1 0
vn 0 1 0
vn 0 1 0
vn 0 1 0
vn 0 1 0
vn 0 1 0
vn 0 1 0
vn 0 1 0
vn 0 1 0
vn 0 1 0
vn 0 1 0
vn 0 1 0
vn 0 1 0
vn 0 1 0
vn 0 1 0
vn 0 1 0
vn 0 1 0
vn 0 1 0
vn 0 1 0
vn 0 1 0
vn 0 1 0
vn 0 1 0
vn 0 1 0
vn 0 1 0
vn 0 1 0
vn 0 1 0
vn 0 1 0
vn 0 1 0
vn 0 1 0
vn 0 1 0
vn 0 1 0
vn 0 1 0
vn 0 1 0
vn 0 1 0
vn 0 1 0
vn 0 1 0
vn 0 1 0
vn 0 1 0
vn 0 1 0
vn 0 1 0
vn 0 1 0
vn 0 1 0
vn 0 1 0
vn 0 1 0
vn 0 1 0
vn 0 1 0
vn 0 1 0
vn 0 1 0
vn 0 1 0
vn 0 1 0
vn 0 1 0
vn 0 1 0
vn 0 1 0
vn 0 1 0
vn 0 1 0
vn 0 1 0
vn 0 1 0
vn 0 1 0
vn 0 1 0
vn 0 1 0
vn 0 1 0
vn 0 1 0
vn 0 1 0
g Grass_0_Cluster221_0
f 2/2/2 3/3/3 1/1/1
f 2/2/2 4/4/4 3/3/3
f 6/6/6 7/7/7 5/5/5
f 6/6/6 8/8/8 7/7/7
f 10/10/10 11/11/11 9/9/9
f 10/10/10 12/12/12 11/11/11
f 14/14/14 15/15/15 13/13/13
f 14/14/14 16/16/16 15/15/15
f 18/18/18 19/19/19 17/17/17
f 18/18/18 20/20/20 19/19/19
f 22/22/22 23/23/23 21/21/21
f 22/22/22 24/24/24 23/23/23
f 26/26/26 27/27/27 25/25/25
f 26/26/26 28/28/28 27/27/27
f 30/30/30 31/31/31 29/29/29
f 30/30/30 32/32/32 31/31/31
f 34/34/34 35/35/35 33/33/33
f 34/34/34 36/36/36 35/35/35
f 38/38/38 39/39/39 37/37/37
f 38/38/38 40/40/40 39/39/39
f 42/42/42 43/43/43 41/41/41
f 42/42/42 44/44/44 43/43/43
f 46/46/46 47/47/47 45/45/45
f 46/46/46 48/48/48 47/47/47
f 50/50/50 51/51/51 49/49/49
f 50/50/50 52/52/52 51/51/51
f 54/54/54 55/55/55 53/53/53
f 54/54/54 56/56/56 55/55/55
f 58/58/58 59/59/59 57/57/57
f 58/58/58 60/60/60 59/59/59
f 62/62/62 63/63/63 61/61/61
f 62/62/62 64/64/64 63/63/63
f 66/66/66 67/67/67 65/65/65
f 66/66/66 68/68/68 67/67/67
f 70/70/70 71/71/71 69/69/69
f 70/70/70 72/72/72 71/71/71
f 74/74/74 75/75/75 73/73/73
f 74/74/74 76/76/76 75/75/75
f 78/78/78 79/79/79 77/77/77
f 78/78/78 80/80/80 79/79/79
f 82/82/82 83/83/83 81/81/81
f 82/82/82 84/84/84 83/83/83
f 86/86/86 87/87/87 85/85/85
f 86/86/86 88/88/88 87/87/87
f 90/90/90 91/91/91 89/89/89
f 90/90/90 92/92/92 91/91/91
f 94/94/94 95/95/95 93/93/93
f 94/94/94 96/96/96 95/95/95
f 98/98/98 99/99/99 97/97/97
f 98/98/98 100/100/100 99/99/99
f 102/102/102 103/103/103 101/101/101
f 102/102/102 104/104/104 103/103/103
f 106/106/106 107/107/107 105/105/105
f 106/106/106 108/108/108 107/107/107
f 110/110/110 111/111/111 109/109/109
f 110/110/110 112/112/112 111/111/111
f 114/114/114 115/115/115 113/113/113
f 114/114/114 116/116/116 115/115/115
f 118/118/118 119/119/119 117/117/117
f 118/118/118 120/120/120 119/119/119
f 122/122/122 123/123/123 121/121/121
f 122/122/122 124/124/124 123/123/123
f 126/126/126 127/127/127 125/125/125
f 126/126/126 128/128/128 127/127/127
f 130/130/130 131/131/131 129/129/129
f 130/130/130 132/132/132 131/131/131
f 134/134/134 135/135/135 133/133/133
f 134/134/134 136/136/136 135/135/135
f 138/138/138 139/139/139 137/137/137
f 138/138/138 140/140/140 139/139/139
f 142/142/142 143/143/143 141/141/141
f 142/142/142 144/144/144 143/143/143
f 146/146/146 147/147/147 145/145/145
f 146/146/146 148/148/148 147/147/147
f 150/150/150 151/151/151 149/149/149
f 150/150/150 152/152/152 151/151/151
f 154/154/154 155/155/155 153/153/153
f 154/154/154 156/156/156 155/155/155
f 158/158/158 159/159/159 157/157/157
f 158/158/158 160/160/160 159/159/159
f 162/162/162 163/163/163 161/161/161
f 162/162/162 164/164/164 163/163/163
f 166/166/166 167/167/167 165/165/165
f 166/166/166 168/168/168 167/167/167
