g Grass_0_Cluster275
v -176.1579 0 372.7822
v -176.8888 0 372.7822
v -176.1579 0 373.8786
v -176.8888 0 373.8786
v -178.7162 0 370.9548
v -179.8126 0 370.9548
v -178.7162 0 372.0512
v -179.8126 0 372.0512
v -178.3507 0 367.3001
v -179.0816 0 367.3001
v -178.3507 0 368.3965
v -179.0816 0 368.3965
v -178.3507 0 366.5692
v -179.0816 0 366.5692
v -178.3507 0 368.031
v -179.0816 0 368.031
v -178.7162 0 365.4727
v -179.8126 0 365.4727
v -178.7162 0 366.9346
v -179.8126 0 366.9346
v -176.8888 0 364.7418
v -177.6198 0 364.7418
v -176.8888 0 366.2037
v -177.6198 0 366.2037
v -177.2543 0 364.3763
v -178.3507 0 364.3763
v -177.2543 0 365.4727
v -178.3507 0 365.4727
v -177.9852 0 364.0108
v -179.0816 0 364.0108
v -177.9852 0 365.1073
v -179.0816 0 365.1073
v -179.0816 0 362.9144
v -179.8126 0 362.9144
v -179.0816 0 364.0108
v -179.8126 0 364.0108
v -177.6198 0 362.9144
v -178.3507 0 362.9144
v -177.6198 0 364.0108
v -178.3507 0 364.0108
v -173.2341 0 362.549
v -174.3305 0 362.549
v -173.2341 0 364.0108
v -174.3305 0 364.0108
v -177.2543 0 361.4525
v -177.9852 0 361.4525
v -177.2543 0 362.549
v -177.9852 0 362.549
v -177.6198 0 356.7014
v -178.3507 0 356.7014
v -177.6198 0 357.7978
v -178.3507 0 357.7978
v -178.3507 0 355.2395
v -179.4471 0 355.2395
v -178.3507 0 356.7014
v -179.4471 0 356.7014
v -167.752 0 353.0467
v -168.4829 0 353.0467
v -167.752 0 354.5085
v -168.4829 0 354.5085
vt 0 0.9058824
vt 0.06666667 0.9058824
vt 0 1
vt 0.06666667 1
vt 0 0.9058824
vt 0.06666667 0.9058824
vt 0 1
vt 0.06666667 1
vt 0 0.9058824
vt 0.06666667 0.9058824
vt 0 1
vt 0.06666667 1
vt 0 0.9058824
vt 0.06666667 0.9058824
vt 0 1
vt 0.06666667 1
vt 0 0.9058824
vt 0.06666667 0.9058824
vt 0 1
vt 0.06666667 1
vt 0 0.9058824
vt 0.06666667 0.9058824
vt 0 1
vt 0.06666667 1
vt 0 0.9058824
vt 0.06666667 0.9058824
vt 0 1
vt 0.06666667 1
vt 0 0.9058824
vt 0.06666667 0.9058824
vt 0 1
vt 0.06666667 1
vt 0 0.9058824
vt 0.06666667 0.9058824
vt 0 1
vt 0.06666667 1
vt 0 0.9058824
vt 0.06666667 0.9058824
vt 0 1
vt 0.06666667 1
vt 0 0.9058824
vt 0.06666667 0.9058824
vt 0 1
vt 0.06666667 1
vt 0 0.9058824
vt 0.06666667 0.9058824
vt 0 1
vt 0.06666667 1
vt 0 0.9058824
vt 0.06666667 0.9058824
vt 0 1
vt 0.06666667 1
vt 0 0.9058824
vt 0.06666667 0.9058824
vt 0 1
vt 0.06666667 1
vt 0 0.9058824
vt 0.06666667 0.9058824
vt 0 1
vt 0.06666667 1
vn 0 1 0
vn 0 1 0
vn 0 1 0
vn 0 1 0
vn 0 1 0
vn 0 1 0
vn 0 1 0
vn 0 1 0
vn 0 1 0
vn 0 1 0
vn 0 1 0
vn 0 1 0
vn 0 1 0
vn 0 1 0
vn 0 1 0
vn 0 1 0
vn 0 1 0
vn 0 1 0
vn 0 1 0
vn 0 1 0
vn 0 1 0
vn 0 1 0
vn 0 1 0
vn 0 1 0
vn 0 1 0
vn 0 1 0
vn 0 1 0
vn 0 1 0
vn 0 1 0
vn 0 1 0
vn 0 1 0
vn 0 1 0
vn 0 1 0
vn 0 1 0
vn 0 1 0
vn 0 1 0
vn 0 1 0
vn 0 1 0
vn 0 1 0
vn 0 1 0
vn 0 1 0
vn 0 1 0
vn 0 1 0
vn 0 1 0
vn 0 1 0
vn 0 1 0
vn 0 1 0
vn 0 1 0
vn 0 1 0
vn 0 1 0
vn 0 1 0
vn 0 1 0
vn 0 1 0
vn 0 1 0
vn 0 1 0
vn 0 1 0
vn 0 1 0
vn 0 1 0
vn 0 1 0
vn 0 1 0
g Grass_0_Cluster275_0
f 2/2/2 3/3/3 1/1/1
f 2/2/2 4/4/4 3/3/3
f 6/6/6 7/7/7 5/5/5
f 6/6/6 8/8/8 7/7/7
f 10/10/10 11/11/11 9/9/9
f 10/10/10 12/12/12 11/11/11
f 14/14/14 15/15/15 13/13/13
f 14/14/14 16/16/16 15/15/15
f 18/18/18 19/19/19 17/17/17
f 18/18/18 20/20/20 19/19/19
f 22/22/22 23/23/23 21/21/21
f 22/22/22 24/24/24 23/23/23
f 26/26/26 27/27/27 25/25/25
f 26/26/26 28/28/28 27/27/27
f 30/30/30 31/31/31 29/29/29
f 30/30/30 32/32/32 31/31/31
f 34/34/34 35/35/35 33/33/33
f 34/34/34 36/36/36 35/35/35
f 38/38/38 39/39/39 37/37/37
f 38/38/38 40/40/40 39/39/39
f 42/42/42 43/43/43 41/41/41
f 42/42/42 44/44/44 43/43/43
f 46/46/46 47/47/47 45/45/45
f 46/46/46 48/48/48 47/47/47
f 50/50/50 51/51/51 49/49/49
f 50/50/50 52/52/52 51/51/51
f 54/54/54 55/55/55 53/53/53
f 54/54/54 56/56/56 55/55/55
f 58/58/58 59/59/59 57/57/57
f 58/58/58 60/60/60 59/59/59
