g Grass_0_Cluster24
v 160.2924 0.09077454 22.86
v 159.4935 0.09077454 22.86
v 160.2924 0.09077454 24.05838
v 159.4935 0.09077454 24.05838
v 178.8673 0.09077454 16.46864
v 177.8687 0.09077454 16.46864
v 178.8673 0.09077454 17.66702
v 177.8687 0.09077454 17.66702
v 168.8808 0.09077454 15.46999
v 168.0819 0.09077454 15.46999
v 168.8808 0.09077454 16.66837
v 168.0819 0.09077454 16.66837
v 169.48 0.09077454 15.07053
v 168.6811 0.09077454 15.07053
v 169.48 0.09077454 16.26891
v 168.6811 0.09077454 16.26891
v 179.4665 0.09077454 14.47134
v 178.4678 0.09077454 14.47134
v 179.4665 0.09077454 15.66972
v 178.4678 0.09077454 15.66972
v 176.6703 0.09077454 14.27161
v 175.6716 0.09077454 14.27161
v 176.6703 0.09077454 15.66972
v 175.6716 0.09077454 15.66972
v 165.0859 0.09077454 14.07188
v 164.287 0.09077454 14.07188
v 165.0859 0.09077454 15.27026
v 164.287 0.09077454 15.27026
v 171.0778 0.09077454 14.07188
v 170.0792 0.09077454 14.07188
v 171.0778 0.09077454 15.46999
v 170.0792 0.09077454 15.46999
v 150.9051 0.09077454 13.87215
v 149.9064 0.09077454 13.87215
v 150.9051 0.09077454 15.07053
v 149.9064 0.09077454 15.07053
v 170.2789 0.09077454 13.87215
v 169.2803 0.09077454 13.87215
v 170.2789 0.09077454 15.07053
v 169.2803 0.09077454 15.07053
v 172.6757 0.09077454 13.67242
v 171.8768 0.09077454 13.67242
v 172.6757 0.09077454 15.07053
v 171.8768 0.09077454 15.07053
v 178.4678 0.09077454 13.67242
v 177.6689 0.09077454 13.67242
v 178.4678 0.09077454 15.07053
v 177.6689 0.09077454 15.07053
v 174.2735 0.09077454 13.67242
v 173.4746 0.09077454 13.67242
v 174.2735 0.09077454 15.07053
v 173.4746 0.09077454 15.07053
v 170.2789 0.09077454 13.27296
v 169.2803 0.09077454 13.27296
v 170.2789 0.09077454 14.67107
v 169.2803 0.09077454 14.67107
v 174.2735 0.09077454 13.07323
v 173.4746 0.09077454 13.07323
v 174.2735 0.09077454 14.47134
v 173.4746 0.09077454 14.47134
v 152.1035 0.09077454 12.87349
v 151.1048 0.09077454 12.87349
v 152.1035 0.09077454 14.27161
v 151.1048 0.09077454 14.27161
v 173.0751 0.09077454 12.87349
v 172.0765 0.09077454 12.87349
v 173.0751 0.09077454 14.27161
v 172.0765 0.09077454 14.27161
v 152.9024 0.09077454 12.87349
v 152.1035 0.09077454 12.87349
v 152.9024 0.09077454 14.07188
v 152.1035 0.09077454 14.07188
v 172.2762 0.09077454 12.87349
v 171.2776 0.09077454 12.87349
v 172.2762 0.09077454 14.07188
v 171.2776 0.09077454 14.07188
v 176.87 0.09077454 12.47403
v 176.0711 0.09077454 12.47403
v 176.87 0.09077454 13.67242
v 176.0711 0.09077454 13.67242
v 152.9024 0.09077454 12.47403
v 151.9037 0.09077454 12.47403
v 152.9024 0.09077454 13.67242
v 151.9037 0.09077454 13.67242
v 170.6784 0.09077454 12.27431
v 169.6797 0.09077454 12.27431
v 170.6784 0.09077454 13.67242
v 169.6797 0.09077454 13.67242
v 172.0765 0.09077454 12.07457
v 171.2776 0.09077454 12.07457
v 172.0765 0.09077454 13.47269
v 171.2776 0.09077454 13.47269
v 179.4665 0.09077454 11.87485
v 178.6676 0.09077454 11.87485
v 179.4665 0.09077454 13.07323
v 178.6676 0.09077454 13.07323
v 167.6824 0.09077454 11.87485
v 166.8835 0.09077454 11.87485
v 167.6824 0.09077454 13.07323
v 166.8835 0.09077454 13.07323
v 171.0778 0.09077454 11.67511
v 170.2789 0.09077454 11.67511
v 171.0778 0.09077454 12.87349
v 170.2789 0.09077454 12.87349
v 151.1048 0.09077454 11.27565
v 150.3059 0.09077454 11.27565
v 151.1048 0.09077454 12.47403
v 150.3059 0.09077454 12.47403
v 171.677 0.09077454 10.67647
v 170.8781 0.09077454 10.67647
v 171.677 0.09077454 11.87485
v 170.8781 0.09077454 11.87485
v 154.1008 0.09077454 10.47673
v 153.3019 0.09077454 10.47673
v 154.1008 0.09077454 11.67511
v 153.3019 0.09077454 11.67511
v 171.2776 0.09077454 10.27701
v 170.4786 0.09077454 10.27701
v 171.2776 0.09077454 11.27565
v 170.4786 0.09077454 11.27565
v 151.5043 0.09077454 10.07727
v 150.5056 0.09077454 10.07727
v 151.5043 0.09077454 11.27565
v 150.5056 0.09077454 11.27565
v 167.283 0.09077454 9.677811
v 166.2843 0.09077454 9.677811
v 167.283 0.09077454 11.07593
v 166.2843 0.09077454 11.07593
v 150.5056 0.09077454 3.885651
v 149.7067 0.09077454 3.885651
v 150.5056 0.09077454 5.08403
v 149.7067 0.09077454 5.08403
v 154.7 0.09077454 3.685913
v 153.901 0.09077454 3.685913
v 154.7 0.09077454 4.884293
v 153.901 0.09077454 4.884293
v 153.7013 0.09077454 3.486191
v 152.7027 0.09077454 3.486191
v 153.7013 0.09077454 4.68457
v 152.7027 0.09077454 4.68457
v 152.5029 0.09077454 2.687271
v 151.5043 0.09077454 2.687271
v 152.5029 0.09077454 3.885651
v 151.5043 0.09077454 3.885651
v 151.5043 0.09077454 2.088074
v 150.7054 0.09077454 2.088074
v 151.5043 0.09077454 3.286453
v 150.7054 0.09077454 3.286453
v 153.3019 0.09077454 1.488892
v 152.3032 0.09077454 1.488892
v 153.3019 0.09077454 2.687271
v 152.3032 0.09077454 2.687271
v 150.7054 0.09077454 1.089432
v 149.9064 0.09077454 1.089432
v 150.7054 0.09077454 2.487534
v 149.9064 0.09077454 2.487534
v 154.8997 0.09077454 0.4902344
v 154.1008 0.09077454 0.4902344
v 154.8997 0.09077454 1.688614
v 154.1008 0.09077454 1.688614
v 152.3032 0.09077454 0.09077454
v 151.5043 0.09077454 0.09077454
v 152.3032 0.09077454 1.488892
v 151.5043 0.09077454 1.488892
v 151.5043 0.09077454 0.09077454
v 150.5056 0.09077454 0.09077454
v 151.5043 0.09077454 1.289154
v 150.5056 0.09077454 1.289154
v 154.1008 0.09077454 -0.1089478
v 153.3019 0.09077454 -0.1089478
v 154.1008 0.09077454 1.089432
v 153.3019 0.09077454 1.089432
v 151.704 0.09077454 -1.107605
v 150.9051 0.09077454 -1.107605
v 151.704 0.09077454 0.2905121
v 150.9051 0.09077454 0.2905121
v 153.3019 0.09077454 -1.107605
v 152.3032 0.09077454 -1.107605
v 153.3019 0.09077454 0.09077454
v 152.3032 0.09077454 0.09077454
v 179.6662 0.09077454 -1.507065
v 178.6676 0.09077454 -1.507065
v 179.6662 0.09077454 -0.3086853
v 178.6676 0.09077454 -0.3086853
v 151.5043 0.09077454 -1.906525
v 150.7054 0.09077454 -1.906525
v 151.5043 0.09077454 -0.7081451
v 150.7054 0.09077454 -0.7081451
v 164.287 0.09077454 -2.505707
v 163.4881 0.09077454 -2.505707
v 164.287 0.09077454 -1.307327
v 163.4881 0.09077454 -1.307327
v 178.2681 0.09077454 -2.705444
v 177.4692 0.09077454 -2.705444
v 178.2681 0.09077454 -1.507065
v 177.4692 0.09077454 -1.507065
v 180.2654 0.09077454 -3.304626
v 179.2668 0.09077454 -3.304626
v 180.2654 0.09077454 -2.106247
v 179.2668 0.09077454 -2.106247
v 176.2708 0.09077454 -3.504364
v 175.2722 0.09077454 -3.504364
v 176.2708 0.09077454 -2.305984
v 175.2722 0.09077454 -2.305984
v 178.8673 0.09077454 -3.903824
v 178.0684 0.09077454 -3.903824
v 178.8673 0.09077454 -2.705444
v 178.0684 0.09077454 -2.705444
v 179.6662 0.09077454 -4.702744
v 178.8673 0.09077454 -4.702744
v 179.6662 0.09077454 -3.504364
v 178.8673 0.09077454 -3.504364
v 177.8687 0.09077454 -4.702744
v 176.87 0.09077454 -4.702744
v 177.8687 0.09077454 -3.504364
v 176.87 0.09077454 -3.504364
v 174.2735 0.09077454 -5.901123
v 173.4746 0.09077454 -5.901123
v 174.2735 0.09077454 -4.702744
v 173.4746 0.09077454 -4.702744
v 175.8714 0.09077454 -6.89978
v 175.0724 0.09077454 -6.89978
v 175.8714 0.09077454 -5.701385
v 175.0724 0.09077454 -5.701385
v 173.6743 0.09077454 -7.099503
v 172.6757 0.09077454 -7.099503
v 173.6743 0.09077454 -5.901123
v 172.6757 0.09077454 -5.901123
vt 0 0.9058824
vt 0.06666667 0.9058824
vt 0 1
vt 0.06666667 1
vt 0 0.9058824
vt 0.06666667 0.9058824
vt 0 1
vt 0.06666667 1
vt 0 0.9058824
vt 0.06666667 0.9058824
vt 0 1
vt 0.06666667 1
vt 0 0.9058824
vt 0.06666667 0.9058824
vt 0 1
vt 0.06666667 1
vt 0 0.9058824
vt 0.06666667 0.9058824
vt 0 1
vt 0.06666667 1
vt 0 0.9058824
vt 0.06666667 0.9058824
vt 0 1
vt 0.06666667 1
vt 0 0.9058824
vt 0.06666667 0.9058824
vt 0 1
vt 0.06666667 1
vt 0 0.9058824
vt 0.06666667 0.9058824
vt 0 1
vt 0.06666667 1
vt 0 0.9058824
vt 0.06666667 0.9058824
vt 0 1
vt 0.06666667 1
vt 0 0.9058824
vt 0.06666667 0.9058824
vt 0 1
vt 0.06666667 1
vt 0 0.9058824
vt 0.06666667 0.9058824
vt 0 1
vt 0.06666667 1
vt 0 0.9058824
vt 0.06666667 0.9058824
vt 0 1
vt 0.06666667 1
vt 0 0.9058824
vt 0.06666667 0.9058824
vt 0 1
vt 0.06666667 1
vt 0 0.9058824
vt 0.06666667 0.9058824
vt 0 1
vt 0.06666667 1
vt 0 0.9058824
vt 0.06666667 0.9058824
vt 0 1
vt 0.06666667 1
vt 0 0.9058824
vt 0.06666667 0.9058824
vt 0 1
vt 0.06666667 1
vt 0 0.9058824
vt 0.06666667 0.9058824
vt 0 1
vt 0.06666667 1
vt 0 0.9058824
vt 0.06666667 0.9058824
vt 0 1
vt 0.06666667 1
vt 0 0.9058824
vt 0.06666667 0.9058824
vt 0 1
vt 0.06666667 1
vt 0 0.9058824
vt 0.06666667 0.9058824
vt 0 1
vt 0.06666667 1
vt 0 0.9058824
vt 0.06666667 0.9058824
vt 0 1
vt 0.06666667 1
vt 0 0.9058824
vt 0.06666667 0.9058824
vt 0 1
vt 0.06666667 1
vt 0 0.9058824
vt 0.06666667 0.9058824
vt 0 1
vt 0.06666667 1
vt 0 0.9058824
vt 0.06666667 0.9058824
vt 0 1
vt 0.06666667 1
vt 0 0.9058824
vt 0.06666667 0.9058824
vt 0 1
vt 0.06666667 1
vt 0 0.9058824
vt 0.06666667 0.9058824
vt 0 1
vt 0.06666667 1
vt 0 0.9058824
vt 0.06666667 0.9058824
vt 0 1
vt 0.06666667 1
vt 0 0.9058824
vt 0.06666667 0.9058824
vt 0 1
vt 0.06666667 1
vt 0 0.9058824
vt 0.06666667 0.9058824
vt 0 1
vt 0.06666667 1
vt 0 0.9058824
vt 0.06666667 0.9058824
vt 0 1
vt 0.06666667 1
vt 0 0.9058824
vt 0.06666667 0.9058824
vt 0 1
vt 0.06666667 1
vt 0 0.9058824
vt 0.06666667 0.9058824
vt 0 1
vt 0.06666667 1
vt 0 0.9058824
vt 0.06666667 0.9058824
vt 0 1
vt 0.06666667 1
vt 0 0.9058824
vt 0.06666667 0.9058824
vt 0 1
vt 0.06666667 1
vt 0 0.9058824
vt 0.06666667 0.9058824
vt 0 1
vt 0.06666667 1
vt 0 0.9058824
vt 0.06666667 0.9058824
vt 0 1
vt 0.06666667 1
vt 0 0.9058824
vt 0.06666667 0.9058824
vt 0 1
vt 0.06666667 1
vt 0 0.9058824
vt 0.06666667 0.9058824
vt 0 1
vt 0.06666667 1
vt 0 0.9058824
vt 0.06666667 0.9058824
vt 0 1
vt 0.06666667 1
vt 0 0.9058824
vt 0.06666667 0.9058824
vt 0 1
vt 0.06666667 1
vt 0 0.9058824
vt 0.06666667 0.9058824
vt 0 1
vt 0.06666667 1
vt 0 0.9058824
vt 0.06666667 0.9058824
vt 0 1
vt 0.06666667 1
vt 0 0.9058824
vt 0.06666667 0.9058824
vt 0 1
vt 0.06666667 1
vt 0 0.9058824
vt 0.06666667 0.9058824
vt 0 1
vt 0.06666667 1
vt 0 0.9058824
vt 0.06666667 0.9058824
vt 0 1
vt 0.06666667 1
vt 0 0.9058824
vt 0.06666667 0.9058824
vt 0 1
vt 0.06666667 1
vt 0 0.9058824
vt 0.06666667 0.9058824
vt 0 1
vt 0.06666667 1
vt 0 0.9058824
vt 0.06666667 0.9058824
vt 0 1
vt 0.06666667 1
vt 0 0.9058824
vt 0.06666667 0.9058824
vt 0 1
vt 0.06666667 1
vt 0 0.9058824
vt 0.06666667 0.9058824
vt 0 1
vt 0.06666667 1
vt 0 0.9058824
vt 0.06666667 0.9058824
vt 0 1
vt 0.06666667 1
vt 0 0.9058824
vt 0.06666667 0.9058824
vt 0 1
vt 0.06666667 1
vt 0 0.9058824
vt 0.06666667 0.9058824
vt 0 1
vt 0.06666667 1
vt 0 0.9058824
vt 0.06666667 0.9058824
vt 0 1
vt 0.06666667 1
vt 0 0.9058824
vt 0.06666667 0.9058824
vt 0 1
vt 0.06666667 1
vt 0 0.9058824
vt 0.06666667 0.9058824
vt 0 1
vt 0.06666667 1
vt 0 0.9058824
vt 0.06666667 0.9058824
vt 0 1
vt 0.06666667 1
vn 0 1 0
vn 0 1 0
vn 0 1 0
vn 0 1 0
vn 0 1 0
vn 0 1 0
vn 0 1 0
vn 0 1 0
vn 0 1 0
vn 0 1 0
vn 0 1 0
vn 0 1 0
vn 0 1 0
vn 0 1 0
vn 0 1 0
vn 0 1 0
vn 0 1 0
vn 0 1 0
vn 0 1 0
vn 0 1 0
vn 0 1 0
vn 0 1 0
vn 0 1 0
vn 0 1 0
vn 0 1 0
vn 0 1 0
vn 0 1 0
vn 0 1 0
vn 0 1 0
vn 0 1 0
vn 0 1 0
vn 0 1 0
vn 0 1 0
vn 0 1 0
vn 0 1 0
vn 0 1 0
vn 0 1 0
vn 0 1 0
vn 0 1 0
vn 0 1 0
vn 0 1 0
vn 0 1 0
vn 0 1 0
vn 0 1 0
vn 0 1 0
vn 0 1 0
vn 0 1 0
vn 0 1 0
vn 0 1 0
vn 0 1 0
vn 0 1 0
vn 0 1 0
vn 0 1 0
vn 0 1 0
vn 0 1 0
vn 0 1 0
vn 0 1 0
vn 0 1 0
vn 0 1 0
vn 0 1 0
vn 0 1 0
vn 0 1 0
vn 0 1 0
vn 0 1 0
vn 0 1 0
vn 0 1 0
vn 0 1 0
vn 0 1 0
vn 0 1 0
vn 0 1 0
vn 0 1 0
vn 0 1 0
vn 0 1 0
vn 0 1 0
vn 0 1 0
vn 0 1 0
vn 0 1 0
vn 0 1 0
vn 0 1 0
vn 0 1 0
vn 0 1 0
vn 0 1 0
vn 0 1 0
vn 0 1 0
vn 0 1 0
vn 0 1 0
vn 0 1 0
vn 0 1 0
vn 0 1 0
vn 0 1 0
vn 0 1 0
vn 0 1 0
vn 0 1 0
vn 0 1 0
vn 0 1 0
vn 0 1 0
vn 0 1 0
vn 0 1 0
vn 0 1 0
vn 0 1 0
vn 0 1 0
vn 0 1 0
vn 0 1 0
vn 0 1 0
vn 0 1 0
vn 0 1 0
vn 0 1 0
vn 0 1 0
vn 0 1 0
vn 0 1 0
vn 0 1 0
vn 0 1 0
vn 0 1 0
vn 0 1 0
vn 0 1 0
vn 0 1 0
vn 0 1 0
vn 0 1 0
vn 0 1 0
vn 0 1 0
vn 0 1 0
vn 0 1 0
vn 0 1 0
vn 0 1 0
vn 0 1 0
vn 0 1 0
vn 0 1 0
vn 0 1 0
vn 0 1 0
vn 0 1 0
vn 0 1 0
vn 0 1 0
vn 0 1 0
vn 0 1 0
vn 0 1 0
vn 0 1 0
vn 0 1 0
vn 0 1 0
vn 0 1 0
vn 0 1 0
vn 0 1 0
vn 0 1 0
vn 0 1 0
vn 0 1 0
vn 0 1 0
vn 0 1 0
vn 0 1 0
vn 0 1 0
vn 0 1 0
vn 0 1 0
vn 0 1 0
vn 0 1 0
vn 0 1 0
vn 0 1 0
vn 0 1 0
vn 0 1 0
vn 0 1 0
vn 0 1 0
vn 0 1 0
vn 0 1 0
vn 0 1 0
vn 0 1 0
vn 0 1 0
vn 0 1 0
vn 0 1 0
vn 0 1 0
vn 0 1 0
vn 0 1 0
vn 0 1 0
vn 0 1 0
vn 0 1 0
vn 0 1 0
vn 0 1 0
vn 0 1 0
vn 0 1 0
vn 0 1 0
vn 0 1 0
vn 0 1 0
vn 0 1 0
vn 0 1 0
vn 0 1 0
vn 0 1 0
vn 0 1 0
vn 0 1 0
vn 0 1 0
vn 0 1 0
vn 0 1 0
vn 0 1 0
vn 0 1 0
vn 0 1 0
vn 0 1 0
vn 0 1 0
vn 0 1 0
vn 0 1 0
vn 0 1 0
vn 0 1 0
vn 0 1 0
vn 0 1 0
vn 0 1 0
vn 0 1 0
vn 0 1 0
vn 0 1 0
vn 0 1 0
vn 0 1 0
vn 0 1 0
vn 0 1 0
vn 0 1 0
vn 0 1 0
vn 0 1 0
vn 0 1 0
vn 0 1 0
vn 0 1 0
vn 0 1 0
vn 0 1 0
vn 0 1 0
vn 0 1 0
vn 0 1 0
vn 0 1 0
vn 0 1 0
vn 0 1 0
vn 0 1 0
vn 0 1 0
vn 0 1 0
vn 0 1 0
vn 0 1 0
vn 0 1 0
vn 0 1 0
vn 0 1 0
g Grass_0_Cluster24_0
f 2/2/2 3/3/3 1/1/1
f 2/2/2 4/4/4 3/3/3
f 6/6/6 7/7/7 5/5/5
f 6/6/6 8/8/8 7/7/7
f 10/10/10 11/11/11 9/9/9
f 10/10/10 12/12/12 11/11/11
f 14/14/14 15/15/15 13/13/13
f 14/14/14 16/16/16 15/15/15
f 18/18/18 19/19/19 17/17/17
f 18/18/18 20/20/20 19/19/19
f 22/22/22 23/23/23 21/21/21
f 22/22/22 24/24/24 23/23/23
f 26/26/26 27/27/27 25/25/25
f 26/26/26 28/28/28 27/27/27
f 30/30/30 31/31/31 29/29/29
f 30/30/30 32/32/32 31/31/31
f 34/34/34 35/35/35 33/33/33
f 34/34/34 36/36/36 35/35/35
f 38/38/38 39/39/39 37/37/37
f 38/38/38 40/40/40 39/39/39
f 42/42/42 43/43/43 41/41/41
f 42/42/42 44/44/44 43/43/43
f 46/46/46 47/47/47 45/45/45
f 46/46/46 48/48/48 47/47/47
f 50/50/50 51/51/51 49/49/49
f 50/50/50 52/52/52 51/51/51
f 54/54/54 55/55/55 53/53/53
f 54/54/54 56/56/56 55/55/55
f 58/58/58 59/59/59 57/57/57
f 58/58/58 60/60/60 59/59/59
f 62/62/62 63/63/63 61/61/61
f 62/62/62 64/64/64 63/63/63
f 66/66/66 67/67/67 65/65/65
f 66/66/66 68/68/68 67/67/67
f 70/70/70 71/71/71 69/69/69
f 70/70/70 72/72/72 71/71/71
f 74/74/74 75/75/75 73/73/73
f 74/74/74 76/76/76 75/75/75
f 78/78/78 79/79/79 77/77/77
f 78/78/78 80/80/80 79/79/79
f 82/82/82 83/83/83 81/81/81
f 82/82/82 84/84/84 83/83/83
f 86/86/86 87/87/87 85/85/85
f 86/86/86 88/88/88 87/87/87
f 90/90/90 91/91/91 89/89/89
f 90/90/90 92/92/92 91/91/91
f 94/94/94 95/95/95 93/93/93
f 94/94/94 96/96/96 95/95/95
f 98/98/98 99/99/99 97/97/97
f 98/98/98 100/100/100 99/99/99
f 102/102/102 103/103/103 101/101/101
f 102/102/102 104/104/104 103/103/103
f 106/106/106 107/107/107 105/105/105
f 106/106/106 108/108/108 107/107/107
f 110/110/110 111/111/111 109/109/109
f 110/110/110 112/112/112 111/111/111
f 114/114/114 115/115/115 113/113/113
f 114/114/114 116/116/116 115/115/115
f 118/118/118 119/119/119 117/117/117
f 118/118/118 120/120/120 119/119/119
f 122/122/122 123/123/123 121/121/121
f 122/122/122 124/124/124 123/123/123
f 126/126/126 127/127/127 125/125/125
f 126/126/126 128/128/128 127/127/127
f 130/130/130 131/131/131 129/129/129
f 130/130/130 132/132/132 131/131/131
f 134/134/134 135/135/135 133/133/133
f 134/134/134 136/136/136 135/135/135
f 138/138/138 139/139/139 137/137/137
f 138/138/138 140/140/140 139/139/139
f 142/142/142 143/143/143 141/141/141
f 142/142/142 144/144/144 143/143/143
f 146/146/146 147/147/147 145/145/145
f 146/146/146 148/148/148 147/147/147
f 150/150/150 151/151/151 149/149/149
f 150/150/150 152/152/152 151/151/151
f 154/154/154 155/155/155 153/153/153
f 154/154/154 156/156/156 155/155/155
f 158/158/158 159/159/159 157/157/157
f 158/158/158 160/160/160 159/159/159
f 162/162/162 163/163/163 161/161/161
f 162/162/162 164/164/164 163/163/163
f 166/166/166 167/167/167 165/165/165
f 166/166/166 168/168/168 167/167/167
f 170/170/170 171/171/171 169/169/169
f 170/170/170 172/172/172 171/171/171
f 174/174/174 175/175/175 173/173/173
f 174/174/174 176/176/176 175/175/175
f 178/178/178 179/179/179 177/177/177
f 178/178/178 180/180/180 179/179/179
f 182/182/182 183/183/183 181/181/181
f 182/182/182 184/184/184 183/183/183
f 186/186/186 187/187/187 185/185/185
f 186/186/186 188/188/188 187/187/187
f 190/190/190 191/191/191 189/189/189
f 190/190/190 192/192/192 191/191/191
f 194/194/194 195/195/195 193/193/193
f 194/194/194 196/196/196 195/195/195
f 198/198/198 199/199/199 197/197/197
f 198/198/198 200/200/200 199/199/199
f 202/202/202 203/203/203 201/201/201
f 202/202/202 204/204/204 203/203/203
f 206/206/206 207/207/207 205/205/205
f 206/206/206 208/208/208 207/207/207
f 210/210/210 211/211/211 209/209/209
f 210/210/210 212/212/212 211/211/211
f 214/214/214 215/215/215 213/213/213
f 214/214/214 216/216/216 215/215/215
f 218/218/218 219/219/219 217/217/217
f 218/218/218 220/220/220 219/219/219
f 222/222/222 223/223/223 221/221/221
f 222/222/222 224/224/224 223/223/223
f 226/226/226 227/227/227 225/225/225
f 226/226/226 228/228/228 227/227/227
