g Grass_2_Cluster313
v -104.5445 0 440.6422
v -105.4085 0 440.6422
v -104.5445 0 441.9382
v -105.4085 0 441.9382
v -104.9765 0 440.2102
v -105.8405 0 440.2102
v -104.9765 0 441.5062
v -105.8405 0 441.5062
v -103.2485 0 439.7782
v -104.5445 0 439.7782
v -103.2485 0 440.6422
v -104.5445 0 440.6422
v -105.8405 0 439.7782
v -107.1365 0 439.7782
v -105.8405 0 440.6422
v -107.1365 0 440.6422
v -104.1125 0 439.3462
v -104.9765 0 439.3462
v -104.1125 0 440.6422
v -104.9765 0 440.6422
v -92.01646 0 439.3462
v -92.88047 0 439.3462
v -92.01646 0 440.2102
v -92.88047 0 440.2102
v -100.2245 0 438.9142
v -101.5205 0 438.9142
v -100.2245 0 440.2102
v -101.5205 0 440.2102
v -104.9765 0 438.4822
v -105.8405 0 438.4822
v -104.9765 0 439.7782
v -105.8405 0 439.7782
v -105.8405 0 438.0502
v -106.7045 0 438.0502
v -105.8405 0 439.3462
v -106.7045 0 439.3462
v -107.5685 0 438.0502
v -108.4325 0 438.0502
v -107.5685 0 438.9142
v -108.4325 0 438.9142
v -105.4085 0 437.6182
v -106.2725 0 437.6182
v -105.4085 0 438.4822
v -106.2725 0 438.4822
v -104.5445 0 437.1862
v -105.4085 0 437.1862
v -104.5445 0 438.0502
v -105.4085 0 438.0502
v -106.2725 0 435.8902
v -107.1365 0 435.8902
v -106.2725 0 436.7542
v -107.1365 0 436.7542
v -106.7045 0 428.1142
v -107.5685 0 428.1142
v -106.7045 0 429.4102
v -107.5685 0 429.4102
v -105.8405 0 428.1142
v -106.7045 0 428.1142
v -105.8405 0 428.9782
v -106.7045 0 428.9782
v -108.0005 0 428.1142
v -108.8645 0 428.1142
v -108.0005 0 428.9782
v -108.8645 0 428.9782
v -98.9285 0 427.2502
v -99.7925 0 427.2502
v -98.9285 0 428.1142
v -99.7925 0 428.1142
v -107.1365 0 427.2502
v -108.4325 0 427.2502
v -107.1365 0 428.1142
v -108.4325 0 428.1142
v -108.4325 0 426.8181
v -109.2966 0 426.8181
v -108.4325 0 427.6822
v -109.2966 0 427.6822
v -106.2725 0 426.8181
v -107.1365 0 426.8181
v -106.2725 0 427.6822
v -107.1365 0 427.6822
v -101.5205 0 426.3861
v -102.3845 0 426.3861
v -101.5205 0 427.6822
v -102.3845 0 427.6822
v -104.5445 0 426.3861
v -105.4085 0 426.3861
v -104.5445 0 427.6822
v -105.4085 0 427.6822
v -107.5685 0 426.3861
v -108.4325 0 426.3861
v -107.5685 0 427.6822
v -108.4325 0 427.6822
v -110.1606 0 426.3861
v -111.0246 0 426.3861
v -110.1606 0 427.2502
v -111.0246 0 427.2502
v -105.4085 0 425.9542
v -106.2725 0 425.9542
v -105.4085 0 427.2502
v -106.2725 0 427.2502
v -108.4325 0 425.9542
v -109.2966 0 425.9542
v -108.4325 0 426.8181
v -109.2966 0 426.8181
v -91.15246 0 425.5222
v -92.01646 0 425.5222
v -91.15246 0 426.3861
v -92.01646 0 426.3861
v -106.2725 0 425.0901
v -107.1365 0 425.0901
v -106.2725 0 426.3861
v -107.1365 0 426.3861
v -95.04048 0 425.0901
v -96.33649 0 425.0901
v -95.04048 0 426.3861
v -96.33649 0 426.3861
v -109.2966 0 425.0901
v -110.1606 0 425.0901
v -109.2966 0 425.9542
v -110.1606 0 425.9542
v -89.85645 0 424.6581
v -90.72046 0 424.6581
v -89.85645 0 425.9542
v -90.72046 0 425.9542
v -104.9765 0 424.6581
v -105.8405 0 424.6581
v -104.9765 0 425.5222
v -105.8405 0 425.5222
v -108.4325 0 424.2261
v -109.2966 0 424.2261
v -108.4325 0 425.5222
v -109.2966 0 425.5222
v -107.1365 0 423.7941
v -108.4325 0 423.7941
v -107.1365 0 425.0901
v -108.4325 0 425.0901
v -106.7045 0 423.3622
v -107.5685 0 423.3622
v -106.7045 0 424.6581
v -107.5685 0 424.6581
v -106.7045 0 422.9301
v -108.0005 0 422.9301
v -106.7045 0 423.7941
v -108.0005 0 423.7941
v -93.74448 0 422.4981
v -94.60847 0 422.4981
v -93.74448 0 423.7941
v -94.60847 0 423.7941
v -95.04048 0 419.9061
v -95.90449 0 419.9061
v -95.04048 0 420.7701
v -95.90449 0 420.7701
v -94.60847 0 419.0421
v -95.47248 0 419.0421
v -94.60847 0 419.9061
v -95.47248 0 419.9061
vt 0.1347656 0.9185662
vt 0.2060202 0.9185662
vt 0.1347656 1
vt 0.2060202 1
vt 0.1347656 0.9185662
vt 0.2060202 0.9185662
vt 0.1347656 1
vt 0.2060202 1
vt 0.1347656 0.9185662
vt 0.2060202 0.9185662
vt 0.1347656 1
vt 0.2060202 1
vt 0.1347656 0.9185662
vt 0.2060202 0.9185662
vt 0.1347656 1
vt 0.2060202 1
vt 0.1347656 0.9185662
vt 0.2060202 0.9185662
vt 0.1347656 1
vt 0.2060202 1
vt 0.1347656 0.9185662
vt 0.2060202 0.9185662
vt 0.1347656 1
vt 0.2060202 1
vt 0.1347656 0.9185662
vt 0.2060202 0.9185662
vt 0.1347656 1
vt 0.2060202 1
vt 0.1347656 0.9185662
vt 0.2060202 0.9185662
vt 0.1347656 1
vt 0.2060202 1
vt 0.1347656 0.9185662
vt 0.2060202 0.9185662
vt 0.1347656 1
vt 0.2060202 1
vt 0.1347656 0.9185662
vt 0.2060202 0.9185662
vt 0.1347656 1
vt 0.2060202 1
vt 0.1347656 0.9185662
vt 0.2060202 0.9185662
vt 0.1347656 1
vt 0.2060202 1
vt 0.1347656 0.9185662
vt 0.2060202 0.9185662
vt 0.1347656 1
vt 0.2060202 1
vt 0.1347656 0.9185662
vt 0.2060202 0.9185662
vt 0.1347656 1
vt 0.2060202 1
vt 0.1347656 0.9185662
vt 0.2060202 0.9185662
vt 0.1347656 1
vt 0.2060202 1
vt 0.1347656 0.9185662
vt 0.2060202 0.9185662
vt 0.1347656 1
vt 0.2060202 1
vt 0.1347656 0.9185662
vt 0.2060202 0.9185662
vt 0.1347656 1
vt 0.2060202 1
vt 0.1347656 0.9185662
vt 0.2060202 0.9185662
vt 0.1347656 1
vt 0.2060202 1
vt 0.1347656 0.9185662
vt 0.2060202 0.9185662
vt 0.1347656 1
vt 0.2060202 1
vt 0.1347656 0.9185662
vt 0.2060202 0.9185662
vt 0.1347656 1
vt 0.2060202 1
vt 0.1347656 0.9185662
vt 0.2060202 0.9185662
vt 0.1347656 1
vt 0.2060202 1
vt 0.1347656 0.9185662
vt 0.2060202 0.9185662
vt 0.1347656 1
vt 0.2060202 1
vt 0.1347656 0.9185662
vt 0.2060202 0.9185662
vt 0.1347656 1
vt 0.2060202 1
vt 0.1347656 0.9185662
vt 0.2060202 0.9185662
vt 0.1347656 1
vt 0.2060202 1
vt 0.1347656 0.9185662
vt 0.2060202 0.9185662
vt 0.1347656 1
vt 0.2060202 1
vt 0.1347656 0.9185662
vt 0.2060202 0.9185662
vt 0.1347656 1
vt 0.2060202 1
vt 0.1347656 0.9185662
vt 0.2060202 0.9185662
vt 0.1347656 1
vt 0.2060202 1
vt 0.1347656 0.9185662
vt 0.2060202 0.9185662
vt 0.1347656 1
vt 0.2060202 1
vt 0.1347656 0.9185662
vt 0.2060202 0.9185662
vt 0.1347656 1
vt 0.2060202 1
vt 0.1347656 0.9185662
vt 0.2060202 0.9185662
vt 0.1347656 1
vt 0.2060202 1
vt 0.1347656 0.9185662
vt 0.2060202 0.9185662
vt 0.1347656 1
vt 0.2060202 1
vt 0.1347656 0.9185662
vt 0.2060202 0.9185662
vt 0.1347656 1
vt 0.2060202 1
vt 0.1347656 0.9185662
vt 0.2060202 0.9185662
vt 0.1347656 1
vt 0.2060202 1
vt 0.1347656 0.9185662
vt 0.2060202 0.9185662
vt 0.1347656 1
vt 0.2060202 1
vt 0.1347656 0.9185662
vt 0.2060202 0.9185662
vt 0.1347656 1
vt 0.2060202 1
vt 0.1347656 0.9185662
vt 0.2060202 0.9185662
vt 0.1347656 1
vt 0.2060202 1
vt 0.1347656 0.9185662
vt 0.2060202 0.9185662
vt 0.1347656 1
vt 0.2060202 1
vt 0.1347656 0.9185662
vt 0.2060202 0.9185662
vt 0.1347656 1
vt 0.2060202 1
vt 0.1347656 0.9185662
vt 0.2060202 0.9185662
vt 0.1347656 1
vt 0.2060202 1
vt 0.1347656 0.9185662
vt 0.2060202 0.9185662
vt 0.1347656 1
vt 0.2060202 1
vn 0 1 0
vn 0 1 0
vn 0 1 0
vn 0 1 0
vn 0 1 0
vn 0 1 0
vn 0 1 0
vn 0 1 0
vn 0 1 0
vn 0 1 0
vn 0 1 0
vn 0 1 0
vn 0 1 0
vn 0 1 0
vn 0 1 0
vn 0 1 0
vn 0 1 0
vn 0 1 0
vn 0 1 0
vn 0 1 0
vn 0 1 0
vn 0 1 0
vn 0 1 0
vn 0 1 0
vn 0 1 0
vn 0 1 0
vn 0 1 0
vn 0 1 0
vn 0 1 0
vn 0 1 0
vn 0 1 0
vn 0 1 0
vn 0 1 0
vn 0 1 0
vn 0 1 0
vn 0 1 0
vn 0 1 0
vn 0 1 0
vn 0 1 0
vn 0 1 0
vn 0 1 0
vn 0 1 0
vn 0 1 0
vn 0 1 0
vn 0 1 0
vn 0 1 0
vn 0 1 0
vn 0 1 0
vn 0 1 0
vn 0 1 0
vn 0 1 0
vn 0 1 0
vn 0 1 0
vn 0 1 0
vn 0 1 0
vn 0 1 0
vn 0 1 0
vn 0 1 0
vn 0 1 0
vn 0 1 0
vn 0 1 0
vn 0 1 0
vn 0 1 0
vn 0 1 0
vn 0 1 0
vn 0 1 0
vn 0 1 0
vn 0 1 0
vn 0 1 0
vn 0 1 0
vn 0 1 0
vn 0 1 0
vn 0 1 0
vn 0 1 0
vn 0 1 0
vn 0 1 0
vn 0 1 0
vn 0 1 0
vn 0 1 0
vn 0 1 0
vn 0 1 0
vn 0 1 0
vn 0 1 0
vn 0 1 0
vn 0 1 0
vn 0 1 0
vn 0 1 0
vn 0 1 0
vn 0 1 0
vn 0 1 0
vn 0 1 0
vn 0 1 0
vn 0 1 0
vn 0 1 0
vn 0 1 0
vn 0 1 0
vn 0 1 0
vn 0 1 0
vn 0 1 0
vn 0 1 0
vn 0 1 0
vn 0 1 0
vn 0 1 0
vn 0 1 0
vn 0 1 0
vn 0 1 0
vn 0 1 0
vn 0 1 0
vn 0 1 0
vn 0 1 0
vn 0 1 0
vn 0 1 0
vn 0 1 0
vn 0 1 0
vn 0 1 0
vn 0 1 0
vn 0 1 0
vn 0 1 0
vn 0 1 0
vn 0 1 0
vn 0 1 0
vn 0 1 0
vn 0 1 0
vn 0 1 0
vn 0 1 0
vn 0 1 0
vn 0 1 0
vn 0 1 0
vn 0 1 0
vn 0 1 0
vn 0 1 0
vn 0 1 0
vn 0 1 0
vn 0 1 0
vn 0 1 0
vn 0 1 0
vn 0 1 0
vn 0 1 0
vn 0 1 0
vn 0 1 0
vn 0 1 0
vn 0 1 0
vn 0 1 0
vn 0 1 0
vn 0 1 0
vn 0 1 0
vn 0 1 0
vn 0 1 0
vn 0 1 0
vn 0 1 0
vn 0 1 0
vn 0 1 0
vn 0 1 0
vn 0 1 0
vn 0 1 0
vn 0 1 0
g Grass_2_Cluster313_0
f 2/2/2 3/3/3 1/1/1
f 2/2/2 4/4/4 3/3/3
f 6/6/6 7/7/7 5/5/5
f 6/6/6 8/8/8 7/7/7
f 10/10/10 11/11/11 9/9/9
f 10/10/10 12/12/12 11/11/11
f 14/14/14 15/15/15 13/13/13
f 14/14/14 16/16/16 15/15/15
f 18/18/18 19/19/19 17/17/17
f 18/18/18 20/20/20 19/19/19
f 22/22/22 23/23/23 21/21/21
f 22/22/22 24/24/24 23/23/23
f 26/26/26 27/27/27 25/25/25
f 26/26/26 28/28/28 27/27/27
f 30/30/30 31/31/31 29/29/29
f 30/30/30 32/32/32 31/31/31
f 34/34/34 35/35/35 33/33/33
f 34/34/34 36/36/36 35/35/35
f 38/38/38 39/39/39 37/37/37
f 38/38/38 40/40/40 39/39/39
f 42/42/42 43/43/43 41/41/41
f 42/42/42 44/44/44 43/43/43
f 46/46/46 47/47/47 45/45/45
f 46/46/46 48/48/48 47/47/47
f 50/50/50 51/51/51 49/49/49
f 50/50/50 52/52/52 51/51/51
f 54/54/54 55/55/55 53/53/53
f 54/54/54 56/56/56 55/55/55
f 58/58/58 59/59/59 57/57/57
f 58/58/58 60/60/60 59/59/59
f 62/62/62 63/63/63 61/61/61
f 62/62/62 64/64/64 63/63/63
f 66/66/66 67/67/67 65/65/65
f 66/66/66 68/68/68 67/67/67
f 70/70/70 71/71/71 69/69/69
f 70/70/70 72/72/72 71/71/71
f 74/74/74 75/75/75 73/73/73
f 74/74/74 76/76/76 75/75/75
f 78/78/78 79/79/79 77/77/77
f 78/78/78 80/80/80 79/79/79
f 82/82/82 83/83/83 81/81/81
f 82/82/82 84/84/84 83/83/83
f 86/86/86 87/87/87 85/85/85
f 86/86/86 88/88/88 87/87/87
f 90/90/90 91/91/91 89/89/89
f 90/90/90 92/92/92 91/91/91
f 94/94/94 95/95/95 93/93/93
f 94/94/94 96/96/96 95/95/95
f 98/98/98 99/99/99 97/97/97
f 98/98/98 100/100/100 99/99/99
f 102/102/102 103/103/103 101/101/101
f 102/102/102 104/104/104 103/103/103
f 106/106/106 107/107/107 105/105/105
f 106/106/106 108/108/108 107/107/107
f 110/110/110 111/111/111 109/109/109
f 110/110/110 112/112/112 111/111/111
f 114/114/114 115/115/115 113/113/113
f 114/114/114 116/116/116 115/115/115
f 118/118/118 119/119/119 117/117/117
f 118/118/118 120/120/120 119/119/119
f 122/122/122 123/123/123 121/121/121
f 122/122/122 124/124/124 123/123/123
f 126/126/126 127/127/127 125/125/125
f 126/126/126 128/128/128 127/127/127
f 130/130/130 131/131/131 129/129/129
f 130/130/130 132/132/132 131/131/131
f 134/134/134 135/135/135 133/133/133
f 134/134/134 136/136/136 135/135/135
f 138/138/138 139/139/139 137/137/137
f 138/138/138 140/140/140 139/139/139
f 142/142/142 143/143/143 141/141/141
f 142/142/142 144/144/144 143/143/143
f 146/146/146 147/147/147 145/145/145
f 146/146/146 148/148/148 147/147/147
f 150/150/150 151/151/151 149/149/149
f 150/150/150 152/152/152 151/151/151
f 154/154/154 155/155/155 153/153/153
f 154/154/154 156/156/156 155/155/155
