g Grass_0_Cluster261
v 263.7416 0.2689819 382.6071
v 263.1054 0.2689819 382.6071
v 263.7416 0.2689819 383.8795
v 263.1054 0.2689819 383.8795
v 243.3841 0.2689819 382.6071
v 242.1118 0.2689819 382.6071
v 243.3841 0.2689819 383.8795
v 242.1118 0.2689819 383.8795
v 266.9224 0.2689819 382.6071
v 266.2863 0.2689819 382.6071
v 266.9224 0.2689819 383.8795
v 266.2863 0.2689819 383.8795
v 260.5607 0.2689819 381.9709
v 259.9246 0.2689819 381.9709
v 260.5607 0.2689819 383.2433
v 259.9246 0.2689819 383.2433
v 264.3777 0.2689819 381.9709
v 263.1054 0.2689819 381.9709
v 264.3777 0.2689819 383.2433
v 263.1054 0.2689819 383.2433
v 258.0161 0.2689819 381.9709
v 257.3799 0.2689819 381.9709
v 258.0161 0.2689819 383.2433
v 257.3799 0.2689819 383.2433
v 261.8331 0.2689819 381.3348
v 261.1969 0.2689819 381.3348
v 261.8331 0.2689819 382.6071
v 261.1969 0.2689819 382.6071
v 259.9246 0.2689819 381.3348
v 258.6522 0.2689819 381.3348
v 259.9246 0.2689819 382.6071
v 258.6522 0.2689819 382.6071
v 241.4756 0.2689819 380.6986
v 240.8394 0.2689819 380.6986
v 241.4756 0.2689819 381.9709
v 240.8394 0.2689819 381.9709
v 260.5607 0.2689819 380.6986
v 259.9246 0.2689819 380.6986
v 260.5607 0.2689819 381.9709
v 259.9246 0.2689819 381.9709
v 240.8394 0.2689819 378.7901
v 240.2033 0.2689819 378.7901
v 240.8394 0.2689819 380.0624
v 240.2033 0.2689819 380.0624
v 240.8394 0.2689819 376.8816
v 239.5671 0.2689819 376.8816
v 240.8394 0.2689819 378.1539
v 239.5671 0.2689819 378.1539
v 266.2863 0.2689819 376.2454
v 265.6501 0.2689819 376.2454
v 266.2863 0.2689819 377.5178
v 265.6501 0.2689819 377.5178
v 248.4735 0.2689819 367.9752
v 247.8373 0.2689819 367.9752
v 248.4735 0.2689819 369.2476
v 247.8373 0.2689819 369.2476
v 244.0203 0.2689819 365.4305
v 242.748 0.2689819 365.4305
v 244.0203 0.2689819 366.7029
v 242.748 0.2689819 366.7029
v 242.748 0.2689819 364.7944
v 242.1118 0.2689819 364.7944
v 242.748 0.2689819 366.0667
v 242.1118 0.2689819 366.0667
v 248.4735 0.2689819 364.7944
v 247.8373 0.2689819 364.7944
v 248.4735 0.2689819 366.0667
v 247.8373 0.2689819 366.0667
v 247.2012 0.2689819 364.1582
v 246.565 0.2689819 364.1582
v 247.2012 0.2689819 365.4305
v 246.565 0.2689819 365.4305
v 246.565 0.2689819 362.2497
v 245.9288 0.2689819 362.2497
v 246.565 0.2689819 363.522
v 245.9288 0.2689819 363.522
v 249.7458 0.2689819 361.6135
v 248.4735 0.2689819 361.6135
v 249.7458 0.2689819 362.8859
v 248.4735 0.2689819 362.8859
v 263.1054 0.2689819 361.6135
v 261.8331 0.2689819 361.6135
v 263.1054 0.2689819 362.8859
v 261.8331 0.2689819 362.8859
v 260.5607 0.2689819 360.3412
v 259.2884 0.2689819 360.3412
v 260.5607 0.2689819 361.6135
v 259.2884 0.2689819 361.6135
v 260.5607 0.2689819 359.705
v 259.9246 0.2689819 359.705
v 260.5607 0.2689819 360.3412
v 259.9246 0.2689819 360.3412
v 260.5607 0.2689819 358.4327
v 259.2884 0.2689819 358.4327
v 260.5607 0.2689819 359.705
v 259.2884 0.2689819 359.705
v 263.1054 0.2689819 357.7965
v 262.4692 0.2689819 357.7965
v 263.1054 0.2689819 359.0688
v 262.4692 0.2689819 359.0688
v 261.8331 0.2689819 357.1603
v 260.5607 0.2689819 357.1603
v 261.8331 0.2689819 358.4327
v 260.5607 0.2689819 358.4327
v 251.0182 0.2689819 357.1603
v 250.382 0.2689819 357.1603
v 251.0182 0.2689819 358.4327
v 250.382 0.2689819 358.4327
v 249.7458 0.2689819 357.1603
v 249.1097 0.2689819 357.1603
v 249.7458 0.2689819 357.7965
v 249.1097 0.2689819 357.7965
v 263.1054 0.2689819 356.5242
v 262.4692 0.2689819 356.5242
v 263.1054 0.2689819 357.7965
v 262.4692 0.2689819 357.7965
v 260.5607 0.2689819 356.5242
v 259.9246 0.2689819 356.5242
v 260.5607 0.2689819 357.7965
v 259.9246 0.2689819 357.7965
v 261.8331 0.2689819 356.5242
v 261.1969 0.2689819 356.5242
v 261.8331 0.2689819 357.7965
v 261.1969 0.2689819 357.7965
v 259.9246 0.2689819 356.5242
v 259.2884 0.2689819 356.5242
v 259.9246 0.2689819 357.1603
v 259.2884 0.2689819 357.1603
v 263.7416 0.2689819 355.888
v 262.4692 0.2689819 355.888
v 263.7416 0.2689819 357.1603
v 262.4692 0.2689819 357.1603
v 262.4692 0.2689819 355.888
v 261.8331 0.2689819 355.888
v 262.4692 0.2689819 357.1603
v 261.8331 0.2689819 357.1603
v 266.2863 0.2689819 355.888
v 265.6501 0.2689819 355.888
v 266.2863 0.2689819 357.1603
v 265.6501 0.2689819 357.1603
v 261.1969 0.2689819 355.2518
v 259.9246 0.2689819 355.2518
v 261.1969 0.2689819 356.5242
v 259.9246 0.2689819 356.5242
v 258.0161 0.2689819 355.2518
v 257.3799 0.2689819 355.2518
v 258.0161 0.2689819 356.5242
v 257.3799 0.2689819 356.5242
v 259.9246 0.2689819 355.2518
v 258.6522 0.2689819 355.2518
v 259.9246 0.2689819 356.5242
v 258.6522 0.2689819 356.5242
v 263.7416 0.2689819 354.6157
v 263.1054 0.2689819 354.6157
v 263.7416 0.2689819 355.888
v 263.1054 0.2689819 355.888
v 263.1054 0.2689819 354.6157
v 261.8331 0.2689819 354.6157
v 263.1054 0.2689819 355.888
v 261.8331 0.2689819 355.888
v 259.9246 0.2689819 354.6157
v 259.2884 0.2689819 354.6157
v 259.9246 0.2689819 355.888
v 259.2884 0.2689819 355.888
v 263.1054 0.2689819 353.9795
v 262.4692 0.2689819 353.9795
v 263.1054 0.2689819 355.2518
v 262.4692 0.2689819 355.2518
v 259.2884 0.2689819 353.9795
v 258.6522 0.2689819 353.9795
v 259.2884 0.2689819 355.2518
v 258.6522 0.2689819 355.2518
v 261.8331 0.2689819 353.9795
v 261.1969 0.2689819 353.9795
v 261.8331 0.2689819 355.2518
v 261.1969 0.2689819 355.2518
v 264.3777 0.2689819 353.9795
v 263.1054 0.2689819 353.9795
v 264.3777 0.2689819 355.2518
v 263.1054 0.2689819 355.2518
v 265.6501 0.2689819 353.3433
v 265.0139 0.2689819 353.3433
v 265.6501 0.2689819 354.6157
v 265.0139 0.2689819 354.6157
v 259.2884 0.2689819 353.3433
v 258.6522 0.2689819 353.3433
v 259.2884 0.2689819 354.6157
v 258.6522 0.2689819 354.6157
v 245.2926 0.2689819 353.3433
v 244.6565 0.2689819 353.3433
v 245.2926 0.2689819 353.9795
v 244.6565 0.2689819 353.9795
v 264.3777 0.2689819 353.3433
v 263.7416 0.2689819 353.3433
v 264.3777 0.2689819 354.6157
v 263.7416 0.2689819 354.6157
v 256.1075 0.2689819 352.7072
v 255.4714 0.2689819 352.7072
v 256.1075 0.2689819 353.9795
v 255.4714 0.2689819 353.9795
vt 0 0.9058824
vt 0.06666667 0.9058824
vt 0 1
vt 0.06666667 1
vt 0 0.9058824
vt 0.06666667 0.9058824
vt 0 1
vt 0.06666667 1
vt 0 0.9058824
vt 0.06666667 0.9058824
vt 0 1
vt 0.06666667 1
vt 0 0.9058824
vt 0.06666667 0.9058824
vt 0 1
vt 0.06666667 1
vt 0 0.9058824
vt 0.06666667 0.9058824
vt 0 1
vt 0.06666667 1
vt 0 0.9058824
vt 0.06666667 0.9058824
vt 0 1
vt 0.06666667 1
vt 0 0.9058824
vt 0.06666667 0.9058824
vt 0 1
vt 0.06666667 1
vt 0 0.9058824
vt 0.06666667 0.9058824
vt 0 1
vt 0.06666667 1
vt 0 0.9058824
vt 0.06666667 0.9058824
vt 0 1
vt 0.06666667 1
vt 0 0.9058824
vt 0.06666667 0.9058824
vt 0 1
vt 0.06666667 1
vt 0 0.9058824
vt 0.06666667 0.9058824
vt 0 1
vt 0.06666667 1
vt 0 0.9058824
vt 0.06666667 0.9058824
vt 0 1
vt 0.06666667 1
vt 0 0.9058824
vt 0.06666667 0.9058824
vt 0 1
vt 0.06666667 1
vt 0 0.9058824
vt 0.06666667 0.9058824
vt 0 1
vt 0.06666667 1
vt 0 0.9058824
vt 0.06666667 0.9058824
vt 0 1
vt 0.06666667 1
vt 0 0.9058824
vt 0.06666667 0.9058824
vt 0 1
vt 0.06666667 1
vt 0 0.9058824
vt 0.06666667 0.9058824
vt 0 1
vt 0.06666667 1
vt 0 0.9058824
vt 0.06666667 0.9058824
vt 0 1
vt 0.06666667 1
vt 0 0.9058824
vt 0.06666667 0.9058824
vt 0 1
vt 0.06666667 1
vt 0 0.9058824
vt 0.06666667 0.9058824
vt 0 1
vt 0.06666667 1
vt 0 0.9058824
vt 0.06666667 0.9058824
vt 0 1
vt 0.06666667 1
vt 0 0.9058824
vt 0.06666667 0.9058824
vt 0 1
vt 0.06666667 1
vt 0 0.9058824
vt 0.06666667 0.9058824
vt 0 1
vt 0.06666667 1
vt 0 0.9058824
vt 0.06666667 0.9058824
vt 0 1
vt 0.06666667 1
vt 0 0.9058824
vt 0.06666667 0.9058824
vt 0 1
vt 0.06666667 1
vt 0 0.9058824
vt 0.06666667 0.9058824
vt 0 1
vt 0.06666667 1
vt 0 0.9058824
vt 0.06666667 0.9058824
vt 0 1
vt 0.06666667 1
vt 0 0.9058824
vt 0.06666667 0.9058824
vt 0 1
vt 0.06666667 1
vt 0 0.9058824
vt 0.06666667 0.9058824
vt 0 1
vt 0.06666667 1
vt 0 0.9058824
vt 0.06666667 0.9058824
vt 0 1
vt 0.06666667 1
vt 0 0.9058824
vt 0.06666667 0.9058824
vt 0 1
vt 0.06666667 1
vt 0 0.9058824
vt 0.06666667 0.9058824
vt 0 1
vt 0.06666667 1
vt 0 0.9058824
vt 0.06666667 0.9058824
vt 0 1
vt 0.06666667 1
vt 0 0.9058824
vt 0.06666667 0.9058824
vt 0 1
vt 0.06666667 1
vt 0 0.9058824
vt 0.06666667 0.9058824
vt 0 1
vt 0.06666667 1
vt 0 0.9058824
vt 0.06666667 0.9058824
vt 0 1
vt 0.06666667 1
vt 0 0.9058824
vt 0.06666667 0.9058824
vt 0 1
vt 0.06666667 1
vt 0 0.9058824
vt 0.06666667 0.9058824
vt 0 1
vt 0.06666667 1
vt 0 0.9058824
vt 0.06666667 0.9058824
vt 0 1
vt 0.06666667 1
vt 0 0.9058824
vt 0.06666667 0.9058824
vt 0 1
vt 0.06666667 1
vt 0 0.9058824
vt 0.06666667 0.9058824
vt 0 1
vt 0.06666667 1
vt 0 0.9058824
vt 0.06666667 0.9058824
vt 0 1
vt 0.06666667 1
vt 0 0.9058824
vt 0.06666667 0.9058824
vt 0 1
vt 0.06666667 1
vt 0 0.9058824
vt 0.06666667 0.9058824
vt 0 1
vt 0.06666667 1
vt 0 0.9058824
vt 0.06666667 0.9058824
vt 0 1
vt 0.06666667 1
vt 0 0.9058824
vt 0.06666667 0.9058824
vt 0 1
vt 0.06666667 1
vt 0 0.9058824
vt 0.06666667 0.9058824
vt 0 1
vt 0.06666667 1
vt 0 0.9058824
vt 0.06666667 0.9058824
vt 0 1
vt 0.06666667 1
vt 0 0.9058824
vt 0.06666667 0.9058824
vt 0 1
vt 0.06666667 1
vt 0 0.9058824
vt 0.06666667 0.9058824
vt 0 1
vt 0.06666667 1
vn 0 1 0
vn 0 1 0
vn 0 1 0
vn 0 1 0
vn 0 1 0
vn 0 1 0
vn 0 1 0
vn 0 1 0
vn 0 1 0
vn 0 1 0
vn 0 1 0
vn 0 1 0
vn 0 1 0
vn 0 1 0
vn 0 1 0
vn 0 1 0
vn 0 1 0
vn 0 1 0
vn 0 1 0
vn 0 1 0
vn 0 1 0
vn 0 1 0
vn 0 1 0
vn 0 1 0
vn 0 1 0
vn 0 1 0
vn 0 1 0
vn 0 1 0
vn 0 1 0
vn 0 1 0
vn 0 1 0
vn 0 1 0
vn 0 1 0
vn 0 1 0
vn 0 1 0
vn 0 1 0
vn 0 1 0
vn 0 1 0
vn 0 1 0
vn 0 1 0
vn 0 1 0
vn 0 1 0
vn 0 1 0
vn 0 1 0
vn 0 1 0
vn 0 1 0
vn 0 1 0
vn 0 1 0
vn 0 1 0
vn 0 1 0
vn 0 1 0
vn 0 1 0
vn 0 1 0
vn 0 1 0
vn 0 1 0
vn 0 1 0
vn 0 1 0
vn 0 1 0
vn 0 1 0
vn 0 1 0
vn 0 1 0
vn 0 1 0
vn 0 1 0
vn 0 1 0
vn 0 1 0
vn 0 1 0
vn 0 1 0
vn 0 1 0
vn 0 1 0
vn 0 1 0
vn 0 1 0
vn 0 1 0
vn 0 1 0
vn 0 1 0
vn 0 1 0
vn 0 1 0
vn 0 1 0
vn 0 1 0
vn 0 1 0
vn 0 1 0
vn 0 1 0
vn 0 1 0
vn 0 1 0
vn 0 1 0
vn 0 1 0
vn 0 1 0
vn 0 1 0
vn 0 1 0
vn 0 1 0
vn 0 1 0
vn 0 1 0
vn 0 1 0
vn 0 1 0
vn 0 1 0
vn 0 1 0
vn 0 1 0
vn 0 1 0
vn 0 1 0
vn 0 1 0
vn 0 1 0
vn 0 1 0
vn 0 1 0
vn 0 1 0
vn 0 1 0
vn 0 1 0
vn 0 1 0
vn 0 1 0
vn 0 1 0
vn 0 1 0
vn 0 1 0
vn 0 1 0
vn 0 1 0
vn 0 1 0
vn 0 1 0
vn 0 1 0
vn 0 1 0
vn 0 1 0
vn 0 1 0
vn 0 1 0
vn 0 1 0
vn 0 1 0
vn 0 1 0
vn 0 1 0
vn 0 1 0
vn 0 1 0
vn 0 1 0
vn 0 1 0
vn 0 1 0
vn 0 1 0
vn 0 1 0
vn 0 1 0
vn 0 1 0
vn 0 1 0
vn 0 1 0
vn 0 1 0
vn 0 1 0
vn 0 1 0
vn 0 1 0
vn 0 1 0
vn 0 1 0
vn 0 1 0
vn 0 1 0
vn 0 1 0
vn 0 1 0
vn 0 1 0
vn 0 1 0
vn 0 1 0
vn 0 1 0
vn 0 1 0
vn 0 1 0
vn 0 1 0
vn 0 1 0
vn 0 1 0
vn 0 1 0
vn 0 1 0
vn 0 1 0
vn 0 1 0
vn 0 1 0
vn 0 1 0
vn 0 1 0
vn 0 1 0
vn 0 1 0
vn 0 1 0
vn 0 1 0
vn 0 1 0
vn 0 1 0
vn 0 1 0
vn 0 1 0
vn 0 1 0
vn 0 1 0
vn 0 1 0
vn 0 1 0
vn 0 1 0
vn 0 1 0
vn 0 1 0
vn 0 1 0
vn 0 1 0
vn 0 1 0
vn 0 1 0
vn 0 1 0
vn 0 1 0
vn 0 1 0
vn 0 1 0
vn 0 1 0
vn 0 1 0
vn 0 1 0
vn 0 1 0
vn 0 1 0
vn 0 1 0
vn 0 1 0
vn 0 1 0
vn 0 1 0
vn 0 1 0
vn 0 1 0
vn 0 1 0
vn 0 1 0
vn 0 1 0
vn 0 1 0
vn 0 1 0
vn 0 1 0
g Grass_0_Cluster261_0
f 2/2/2 3/3/3 1/1/1
f 2/2/2 4/4/4 3/3/3
f 6/6/6 7/7/7 5/5/5
f 6/6/6 8/8/8 7/7/7
f 10/10/10 11/11/11 9/9/9
f 10/10/10 12/12/12 11/11/11
f 14/14/14 15/15/15 13/13/13
f 14/14/14 16/16/16 15/15/15
f 18/18/18 19/19/19 17/17/17
f 18/18/18 20/20/20 19/19/19
f 22/22/22 23/23/23 21/21/21
f 22/22/22 24/24/24 23/23/23
f 26/26/26 27/27/27 25/25/25
f 26/26/26 28/28/28 27/27/27
f 30/30/30 31/31/31 29/29/29
f 30/30/30 32/32/32 31/31/31
f 34/34/34 35/35/35 33/33/33
f 34/34/34 36/36/36 35/35/35
f 38/38/38 39/39/39 37/37/37
f 38/38/38 40/40/40 39/39/39
f 42/42/42 43/43/43 41/41/41
f 42/42/42 44/44/44 43/43/43
f 46/46/46 47/47/47 45/45/45
f 46/46/46 48/48/48 47/47/47
f 50/50/50 51/51/51 49/49/49
f 50/50/50 52/52/52 51/51/51
f 54/54/54 55/55/55 53/53/53
f 54/54/54 56/56/56 55/55/55
f 58/58/58 59/59/59 57/57/57
f 58/58/58 60/60/60 59/59/59
f 62/62/62 63/63/63 61/61/61
f 62/62/62 64/64/64 63/63/63
f 66/66/66 67/67/67 65/65/65
f 66/66/66 68/68/68 67/67/67
f 70/70/70 71/71/71 69/69/69
f 70/70/70 72/72/72 71/71/71
f 74/74/74 75/75/75 73/73/73
f 74/74/74 76/76/76 75/75/75
f 78/78/78 79/79/79 77/77/77
f 78/78/78 80/80/80 79/79/79
f 82/82/82 83/83/83 81/81/81
f 82/82/82 84/84/84 83/83/83
f 86/86/86 87/87/87 85/85/85
f 86/86/86 88/88/88 87/87/87
f 90/90/90 91/91/91 89/89/89
f 90/90/90 92/92/92 91/91/91
f 94/94/94 95/95/95 93/93/93
f 94/94/94 96/96/96 95/95/95
f 98/98/98 99/99/99 97/97/97
f 98/98/98 100/100/100 99/99/99
f 102/102/102 103/103/103 101/101/101
f 102/102/102 104/104/104 103/103/103
f 106/106/106 107/107/107 105/105/105
f 106/106/106 108/108/108 107/107/107
f 110/110/110 111/111/111 109/109/109
f 110/110/110 112/112/112 111/111/111
f 114/114/114 115/115/115 113/113/113
f 114/114/114 116/116/116 115/115/115
f 118/118/118 119/119/119 117/117/117
f 118/118/118 120/120/120 119/119/119
f 122/122/122 123/123/123 121/121/121
f 122/122/122 124/124/124 123/123/123
f 126/126/126 127/127/127 125/125/125
f 126/126/126 128/128/128 127/127/127
f 130/130/130 131/131/131 129/129/129
f 130/130/130 132/132/132 131/131/131
f 134/134/134 135/135/135 133/133/133
f 134/134/134 136/136/136 135/135/135
f 138/138/138 139/139/139 137/137/137
f 138/138/138 140/140/140 139/139/139
f 142/142/142 143/143/143 141/141/141
f 142/142/142 144/144/144 143/143/143
f 146/146/146 147/147/147 145/145/145
f 146/146/146 148/148/148 147/147/147
f 150/150/150 151/151/151 149/149/149
f 150/150/150 152/152/152 151/151/151
f 154/154/154 155/155/155 153/153/153
f 154/154/154 156/156/156 155/155/155
f 158/158/158 159/159/159 157/157/157
f 158/158/158 160/160/160 159/159/159
f 162/162/162 163/163/163 161/161/161
f 162/162/162 164/164/164 163/163/163
f 166/166/166 167/167/167 165/165/165
f 166/166/166 168/168/168 167/167/167
f 170/170/170 171/171/171 169/169/169
f 170/170/170 172/172/172 171/171/171
f 174/174/174 175/175/175 173/173/173
f 174/174/174 176/176/176 175/175/175
f 178/178/178 179/179/179 177/177/177
f 178/178/178 180/180/180 179/179/179
f 182/182/182 183/183/183 181/181/181
f 182/182/182 184/184/184 183/183/183
f 186/186/186 187/187/187 185/185/185
f 186/186/186 188/188/188 187/187/187
f 190/190/190 191/191/191 189/189/189
f 190/190/190 192/192/192 191/191/191
f 194/194/194 195/195/195 193/193/193
f 194/194/194 196/196/196 195/195/195
f 198/198/198 199/199/199 197/197/197
f 198/198/198 200/200/200 199/199/199
