g Grass_0_Cluster95
v -167.3215 0 112.9504
v -168.1631 0 112.9504
v -167.3215 0 114.1287
v -168.1631 0 114.1287
v -171.3614 0 112.7821
v -172.2031 0 112.7821
v -171.3614 0 113.9604
v -172.2031 0 113.9604
v -166.9848 0 112.4454
v -167.6581 0 112.4454
v -166.9848 0 113.6237
v -167.6581 0 113.6237
v -170.6881 0 109.4155
v -171.5298 0 109.4155
v -170.6881 0 110.5938
v -171.5298 0 110.5938
v -168.1631 0 109.4155
v -169.0048 0 109.4155
v -168.1631 0 110.5938
v -169.0048 0 110.5938
v -169.1731 0 108.9105
v -170.0148 0 108.9105
v -169.1731 0 110.0888
v -170.0148 0 110.0888
v -167.3215 0 107.5638
v -168.1631 0 107.5638
v -167.3215 0 108.7421
v -168.1631 0 108.7421
v -168.6681 0 107.0588
v -169.5098 0 107.0588
v -168.6681 0 108.2371
v -169.5098 0 108.2371
v -151.33 0 101.8405
v -152.34 0 101.8405
v -151.33 0 103.0189
v -152.34 0 103.0189
v -152.1716 0 96.62226
v -153.0133 0 96.62226
v -152.1716 0 97.80058
v -153.0133 0 97.80058
v -150.1517 0 96.11726
v -150.9933 0 96.11726
v -150.1517 0 97.46392
v -150.9933 0 97.46392
v -150.9933 0 95.7806
v -151.835 0 95.7806
v -150.9933 0 96.95892
v -151.835 0 96.95892
v -150.32 0 95.44394
v -151.1617 0 95.44394
v -150.32 0 96.62226
v -151.1617 0 96.62226
v -151.6667 0 95.27561
v -152.5083 0 95.27561
v -151.6667 0 96.45393
v -152.5083 0 96.45393
v -157.0533 0 90.73066
v -157.8949 0 90.73066
v -157.0533 0 91.90898
v -157.8949 0 91.90898
v -158.9049 0 89.38401
v -159.7466 0 89.38401
v -158.9049 0 90.73066
v -159.7466 0 90.73066
v -161.4299 0 88.20569
v -162.4399 0 88.20569
v -161.4299 0 89.55234
v -162.4399 0 89.55234
v -162.4399 0 87.36403
v -163.2815 0 87.36403
v -162.4399 0 88.54235
v -163.2815 0 88.54235
v -160.9249 0 85.84904
v -161.7665 0 85.84904
v -160.9249 0 87.02737
v -161.7665 0 87.02737
v -161.2616 0 85.17572
v -162.1032 0 85.17572
v -161.2616 0 86.52237
v -162.1032 0 86.52237
v -163.2815 0 85.17572
v -164.2915 0 85.17572
v -163.2815 0 86.52237
v -164.2915 0 86.52237
v -164.9648 0 84.67073
v -165.9748 0 84.67073
v -164.9648 0 86.01738
v -165.9748 0 86.01738
v -160.5882 0 84.5024
v -161.5982 0 84.5024
v -160.5882 0 85.84904
v -161.5982 0 85.84904
v -166.4798 0 84.33406
v -167.3215 0 84.33406
v -166.4798 0 85.51238
v -167.3215 0 85.51238
v -163.4499 0 84.16573
v -164.4598 0 84.16573
v -163.4499 0 85.34406
v -164.4598 0 85.34406
v -161.7665 0 83.82907
v -162.6082 0 83.82907
v -161.7665 0 85.00739
v -162.6082 0 85.00739
v -160.2516 0 83.82907
v -161.2616 0 83.82907
v -160.2516 0 85.17572
v -161.2616 0 85.17572
v -166.6481 0 83.66074
v -167.4898 0 83.66074
v -166.6481 0 84.83906
v -167.4898 0 84.83906
v -159.0732 0 83.49241
v -159.9149 0 83.49241
v -159.0732 0 84.67073
v -159.9149 0 84.67073
vt 0 0.9058824
vt 0.06666667 0.9058824
vt 0 1
vt 0.06666667 1
vt 0 0.9058824
vt 0.06666667 0.9058824
vt 0 1
vt 0.06666667 1
vt 0 0.9058824
vt 0.06666667 0.9058824
vt 0 1
vt 0.06666667 1
vt 0 0.9058824
vt 0.06666667 0.9058824
vt 0 1
vt 0.06666667 1
vt 0 0.9058824
vt 0.06666667 0.9058824
vt 0 1
vt 0.06666667 1
vt 0 0.9058824
vt 0.06666667 0.9058824
vt 0 1
vt 0.06666667 1
vt 0 0.9058824
vt 0.06666667 0.9058824
vt 0 1
vt 0.06666667 1
vt 0 0.9058824
vt 0.06666667 0.9058824
vt 0 1
vt 0.06666667 1
vt 0 0.9058824
vt 0.06666667 0.9058824
vt 0 1
vt 0.06666667 1
vt 0 0.9058824
vt 0.06666667 0.9058824
vt 0 1
vt 0.06666667 1
vt 0 0.9058824
vt 0.06666667 0.9058824
vt 0 1
vt 0.06666667 1
vt 0 0.9058824
vt 0.06666667 0.9058824
vt 0 1
vt 0.06666667 1
vt 0 0.9058824
vt 0.06666667 0.9058824
vt 0 1
vt 0.06666667 1
vt 0 0.9058824
vt 0.06666667 0.9058824
vt 0 1
vt 0.06666667 1
vt 0 0.9058824
vt 0.06666667 0.9058824
vt 0 1
vt 0.06666667 1
vt 0 0.9058824
vt 0.06666667 0.9058824
vt 0 1
vt 0.06666667 1
vt 0 0.9058824
vt 0.06666667 0.9058824
vt 0 1
vt 0.06666667 1
vt 0 0.9058824
vt 0.06666667 0.9058824
vt 0 1
vt 0.06666667 1
vt 0 0.9058824
vt 0.06666667 0.9058824
vt 0 1
vt 0.06666667 1
vt 0 0.9058824
vt 0.06666667 0.9058824
vt 0 1
vt 0.06666667 1
vt 0 0.9058824
vt 0.06666667 0.9058824
vt 0 1
vt 0.06666667 1
vt 0 0.9058824
vt 0.06666667 0.9058824
vt 0 1
vt 0.06666667 1
vt 0 0.9058824
vt 0.06666667 0.9058824
vt 0 1
vt 0.06666667 1
vt 0 0.9058824
vt 0.06666667 0.9058824
vt 0 1
vt 0.06666667 1
vt 0 0.9058824
vt 0.06666667 0.9058824
vt 0 1
vt 0.06666667 1
vt 0 0.9058824
vt 0.06666667 0.9058824
vt 0 1
vt 0.06666667 1
vt 0 0.9058824
vt 0.06666667 0.9058824
vt 0 1
vt 0.06666667 1
vt 0 0.9058824
vt 0.06666667 0.9058824
vt 0 1
vt 0.06666667 1
vt 0 0.9058824
vt 0.06666667 0.9058824
vt 0 1
vt 0.06666667 1
vn 0 1 0
vn 0 1 0
vn 0 1 0
vn 0 1 0
vn 0 1 0
vn 0 1 0
vn 0 1 0
vn 0 1 0
vn 0 1 0
vn 0 1 0
vn 0 1 0
vn 0 1 0
vn 0 1 0
vn 0 1 0
vn 0 1 0
vn 0 1 0
vn 0 1 0
vn 0 1 0
vn 0 1 0
vn 0 1 0
vn 0 1 0
vn 0 1 0
vn 0 1 0
vn 0 1 0
vn 0 1 0
vn 0 1 0
vn 0 1 0
vn 0 1 0
vn 0 1 0
vn 0 1 0
vn 0 1 0
vn 0 1 0
vn 0 1 0
vn 0 1 0
vn 0 1 0
vn 0 1 0
vn 0 1 0
vn 0 1 0
vn 0 1 0
vn 0 1 0
vn 0 1 0
vn 0 1 0
vn 0 1 0
vn 0 1 0
vn 0 1 0
vn 0 1 0
vn 0 1 0
vn 0 1 0
vn 0 1 0
vn 0 1 0
vn 0 1 0
vn 0 1 0
vn 0 1 0
vn 0 1 0
vn 0 1 0
vn 0 1 0
vn 0 1 0
vn 0 1 0
vn 0 1 0
vn 0 1 0
vn 0 1 0
vn 0 1 0
vn 0 1 0
vn 0 1 0
vn 0 1 0
vn 0 1 0
vn 0 1 0
vn 0 1 0
vn 0 1 0
vn 0 1 0
vn 0 1 0
vn 0 1 0
vn 0 1 0
vn 0 1 0
vn 0 1 0
vn 0 1 0
vn 0 1 0
vn 0 1 0
vn 0 1 0
vn 0 1 0
vn 0 1 0
vn 0 1 0
vn 0 1 0
vn 0 1 0
vn 0 1 0
vn 0 1 0
vn 0 1 0
vn 0 1 0
vn 0 1 0
vn 0 1 0
vn 0 1 0
vn 0 1 0
vn 0 1 0
vn 0 1 0
vn 0 1 0
vn 0 1 0
vn 0 1 0
vn 0 1 0
vn 0 1 0
vn 0 1 0
vn 0 1 0
vn 0 1 0
vn 0 1 0
vn 0 1 0
vn 0 1 0
vn 0 1 0
vn 0 1 0
vn 0 1 0
vn 0 1 0
vn 0 1 0
vn 0 1 0
vn 0 1 0
vn 0 1 0
vn 0 1 0
vn 0 1 0
vn 0 1 0
g Grass_0_Cluster95_0
f 2/2/2 3/3/3 1/1/1
f 2/2/2 4/4/4 3/3/3
f 6/6/6 7/7/7 5/5/5
f 6/6/6 8/8/8 7/7/7
f 10/10/10 11/11/11 9/9/9
f 10/10/10 12/12/12 11/11/11
f 14/14/14 15/15/15 13/13/13
f 14/14/14 16/16/16 15/15/15
f 18/18/18 19/19/19 17/17/17
f 18/18/18 20/20/20 19/19/19
f 22/22/22 23/23/23 21/21/21
f 22/22/22 24/24/24 23/23/23
f 26/26/26 27/27/27 25/25/25
f 26/26/26 28/28/28 27/27/27
f 30/30/30 31/31/31 29/29/29
f 30/30/30 32/32/32 31/31/31
f 34/34/34 35/35/35 33/33/33
f 34/34/34 36/36/36 35/35/35
f 38/38/38 39/39/39 37/37/37
f 38/38/38 40/40/40 39/39/39
f 42/42/42 43/43/43 41/41/41
f 42/42/42 44/44/44 43/43/43
f 46/46/46 47/47/47 45/45/45
f 46/46/46 48/48/48 47/47/47
f 50/50/50 51/51/51 49/49/49
f 50/50/50 52/52/52 51/51/51
f 54/54/54 55/55/55 53/53/53
f 54/54/54 56/56/56 55/55/55
f 58/58/58 59/59/59 57/57/57
f 58/58/58 60/60/60 59/59/59
f 62/62/62 63/63/63 61/61/61
f 62/62/62 64/64/64 63/63/63
f 66/66/66 67/67/67 65/65/65
f 66/66/66 68/68/68 67/67/67
f 70/70/70 71/71/71 69/69/69
f 70/70/70 72/72/72 71/71/71
f 74/74/74 75/75/75 73/73/73
f 74/74/74 76/76/76 75/75/75
f 78/78/78 79/79/79 77/77/77
f 78/78/78 80/80/80 79/79/79
f 82/82/82 83/83/83 81/81/81
f 82/82/82 84/84/84 83/83/83
f 86/86/86 87/87/87 85/85/85
f 86/86/86 88/88/88 87/87/87
f 90/90/90 91/91/91 89/89/89
f 90/90/90 92/92/92 91/91/91
f 94/94/94 95/95/95 93/93/93
f 94/94/94 96/96/96 95/95/95
f 98/98/98 99/99/99 97/97/97
f 98/98/98 100/100/100 99/99/99
f 102/102/102 103/103/103 101/101/101
f 102/102/102 104/104/104 103/103/103
f 106/106/106 107/107/107 105/105/105
f 106/106/106 108/108/108 107/107/107
f 110/110/110 111/111/111 109/109/109
f 110/110/110 112/112/112 111/111/111
f 114/114/114 115/115/115 113/113/113
f 114/114/114 116/116/116 115/115/115
