g Grass_0_Cluster184
v 163.5195 -0.1773529 260.8289
v 162.6665 -0.1773529 260.8289
v 163.5195 -0.1773529 262.1083
v 162.6665 -0.1773529 262.1083
v 154.1369 -0.1773529 260.4024
v 153.2839 -0.1773529 260.4024
v 154.1369 -0.1773529 261.2553
v 153.2839 -0.1773529 261.2553
v 171.1961 -0.1773529 257.417
v 170.3432 -0.1773529 257.417
v 171.1961 -0.1773529 258.6964
v 170.3432 -0.1773529 258.6964
v 174.1815 -0.1773529 255.7111
v 173.3285 -0.1773529 255.7111
v 174.1815 -0.1773529 256.9905
v 173.3285 -0.1773529 256.9905
v 169.9167 -0.1773529 255.2846
v 168.6372 -0.1773529 255.2846
v 169.9167 -0.1773529 256.5641
v 168.6372 -0.1773529 256.5641
v 155.8428 -0.1773529 251.0198
v 154.9899 -0.1773529 251.0198
v 155.8428 -0.1773529 252.2992
v 154.9899 -0.1773529 252.2992
v 174.1815 -0.1773529 251.0198
v 173.3285 -0.1773529 251.0198
v 174.1815 -0.1773529 252.2992
v 173.3285 -0.1773529 252.2992
v 170.7696 -0.1773529 249.3139
v 169.9167 -0.1773529 249.3139
v 170.7696 -0.1773529 250.5933
v 169.9167 -0.1773529 250.5933
v 171.6226 -0.1773529 248.4609
v 170.7696 -0.1773529 248.4609
v 171.6226 -0.1773529 249.7404
v 170.7696 -0.1773529 249.7404
v 169.4902 -0.1773529 248.0344
v 168.6372 -0.1773529 248.0344
v 169.4902 -0.1773529 249.3139
v 168.6372 -0.1773529 249.3139
v 168.6372 -0.1773529 247.6079
v 167.7843 -0.1773529 247.6079
v 168.6372 -0.1773529 248.8874
v 167.7843 -0.1773529 248.8874
v 172.4756 -0.1773529 247.6079
v 171.6226 -0.1773529 247.6079
v 172.4756 -0.1773529 248.8874
v 171.6226 -0.1773529 248.8874
v 173.755 -0.1773529 247.1815
v 172.902 -0.1773529 247.1815
v 173.755 -0.1773529 248.4609
v 172.902 -0.1773529 248.4609
v 171.1961 -0.1773529 247.1815
v 170.3432 -0.1773529 247.1815
v 171.1961 -0.1773529 248.4609
v 170.3432 -0.1773529 248.4609
v 170.7696 -0.1773529 246.3285
v 169.9167 -0.1773529 246.3285
v 170.7696 -0.1773529 247.6079
v 169.9167 -0.1773529 247.6079
v 172.0491 -0.1773529 245.902
v 171.1961 -0.1773529 245.902
v 172.0491 -0.1773529 247.1815
v 171.1961 -0.1773529 247.1815
v 169.9167 -0.1773529 245.4756
v 169.0637 -0.1773529 245.4756
v 169.9167 -0.1773529 246.755
v 169.0637 -0.1773529 246.755
v 170.3432 -0.1773529 245.4756
v 169.4902 -0.1773529 245.4756
v 170.3432 -0.1773529 246.755
v 169.4902 -0.1773529 246.755
v 171.1961 -0.1773529 244.6226
v 170.3432 -0.1773529 244.6226
v 171.1961 -0.1773529 245.902
v 170.3432 -0.1773529 245.902
v 169.9167 -0.1773529 244.6226
v 169.0637 -0.1773529 244.6226
v 169.9167 -0.1773529 245.902
v 169.0637 -0.1773529 245.902
v 170.7696 -0.1773529 244.1961
v 169.9167 -0.1773529 244.1961
v 170.7696 -0.1773529 245.4756
v 169.9167 -0.1773529 245.4756
v 169.4902 -0.1773529 243.3431
v 169.0637 -0.1773529 243.3431
v 169.4902 -0.1773529 244.6226
v 169.0637 -0.1773529 244.6226
v 171.1961 -0.1773529 243.3431
v 170.3432 -0.1773529 243.3431
v 171.1961 -0.1773529 244.6226
v 170.3432 -0.1773529 244.6226
v 168.6372 -0.1773529 242.4902
v 167.7843 -0.1773529 242.4902
v 168.6372 -0.1773529 243.7696
v 167.7843 -0.1773529 243.7696
v 169.9167 -0.1773529 242.4902
v 169.0637 -0.1773529 242.4902
v 169.9167 -0.1773529 243.7696
v 169.0637 -0.1773529 243.7696
v 172.0491 -0.1773529 239.9313
v 171.1961 -0.1773529 239.9313
v 172.0491 -0.1773529 241.2107
v 171.1961 -0.1773529 241.2107
v 172.4756 -0.1773529 239.0783
v 171.6226 -0.1773529 239.0783
v 172.4756 -0.1773529 240.3578
v 171.6226 -0.1773529 240.3578
v 171.1961 -0.1773529 238.6519
v 169.9167 -0.1773529 238.6519
v 171.1961 -0.1773529 239.9313
v 169.9167 -0.1773529 239.9313
v 169.9167 -0.1773529 238.6519
v 169.0637 -0.1773529 238.6519
v 169.9167 -0.1773529 239.9313
v 169.0637 -0.1773529 239.9313
v 172.902 -0.1773529 238.2254
v 172.0491 -0.1773529 238.2254
v 172.902 -0.1773529 239.5048
v 172.0491 -0.1773529 239.5048
v 172.4756 -0.1773529 237.7989
v 171.6226 -0.1773529 237.7989
v 172.4756 -0.1773529 239.0783
v 171.6226 -0.1773529 239.0783
v 171.1961 -0.1773529 237.3724
v 170.3432 -0.1773529 237.3724
v 171.1961 -0.1773529 238.6519
v 170.3432 -0.1773529 238.6519
vt 0 0.9058824
vt 0.06666667 0.9058824
vt 0 1
vt 0.06666667 1
vt 0 0.9058824
vt 0.06666667 0.9058824
vt 0 1
vt 0.06666667 1
vt 0 0.9058824
vt 0.06666667 0.9058824
vt 0 1
vt 0.06666667 1
vt 0 0.9058824
vt 0.06666667 0.9058824
vt 0 1
vt 0.06666667 1
vt 0 0.9058824
vt 0.06666667 0.9058824
vt 0 1
vt 0.06666667 1
vt 0 0.9058824
vt 0.06666667 0.9058824
vt 0 1
vt 0.06666667 1
vt 0 0.9058824
vt 0.06666667 0.9058824
vt 0 1
vt 0.06666667 1
vt 0 0.9058824
vt 0.06666667 0.9058824
vt 0 1
vt 0.06666667 1
vt 0 0.9058824
vt 0.06666667 0.9058824
vt 0 1
vt 0.06666667 1
vt 0 0.9058824
vt 0.06666667 0.9058824
vt 0 1
vt 0.06666667 1
vt 0 0.9058824
vt 0.06666667 0.9058824
vt 0 1
vt 0.06666667 1
vt 0 0.9058824
vt 0.06666667 0.9058824
vt 0 1
vt 0.06666667 1
vt 0 0.9058824
vt 0.06666667 0.9058824
vt 0 1
vt 0.06666667 1
vt 0 0.9058824
vt 0.06666667 0.9058824
vt 0 1
vt 0.06666667 1
vt 0 0.9058824
vt 0.06666667 0.9058824
vt 0 1
vt 0.06666667 1
vt 0 0.9058824
vt 0.06666667 0.9058824
vt 0 1
vt 0.06666667 1
vt 0 0.9058824
vt 0.06666667 0.9058824
vt 0 1
vt 0.06666667 1
vt 0 0.9058824
vt 0.06666667 0.9058824
vt 0 1
vt 0.06666667 1
vt 0 0.9058824
vt 0.06666667 0.9058824
vt 0 1
vt 0.06666667 1
vt 0 0.9058824
vt 0.06666667 0.9058824
vt 0 1
vt 0.06666667 1
vt 0 0.9058824
vt 0.06666667 0.9058824
vt 0 1
vt 0.06666667 1
vt 0 0.9058824
vt 0.06666667 0.9058824
vt 0 1
vt 0.06666667 1
vt 0 0.9058824
vt 0.06666667 0.9058824
vt 0 1
vt 0.06666667 1
vt 0 0.9058824
vt 0.06666667 0.9058824
vt 0 1
vt 0.06666667 1
vt 0 0.9058824
vt 0.06666667 0.9058824
vt 0 1
vt 0.06666667 1
vt 0 0.9058824
vt 0.06666667 0.9058824
vt 0 1
vt 0.06666667 1
vt 0 0.9058824
vt 0.06666667 0.9058824
vt 0 1
vt 0.06666667 1
vt 0 0.9058824
vt 0.06666667 0.9058824
vt 0 1
vt 0.06666667 1
vt 0 0.9058824
vt 0.06666667 0.9058824
vt 0 1
vt 0.06666667 1
vt 0 0.9058824
vt 0.06666667 0.9058824
vt 0 1
vt 0.06666667 1
vt 0 0.9058824
vt 0.06666667 0.9058824
vt 0 1
vt 0.06666667 1
vt 0 0.9058824
vt 0.06666667 0.9058824
vt 0 1
vt 0.06666667 1
vn 0 1 0
vn 0 1 0
vn 0 1 0
vn 0 1 0
vn 0 1 0
vn 0 1 0
vn 0 1 0
vn 0 1 0
vn 0 1 0
vn 0 1 0
vn 0 1 0
vn 0 1 0
vn 0 1 0
vn 0 1 0
vn 0 1 0
vn 0 1 0
vn 0 1 0
vn 0 1 0
vn 0 1 0
vn 0 1 0
vn 0 1 0
vn 0 1 0
vn 0 1 0
vn 0 1 0
vn 0 1 0
vn 0 1 0
vn 0 1 0
vn 0 1 0
vn 0 1 0
vn 0 1 0
vn 0 1 0
vn 0 1 0
vn 0 1 0
vn 0 1 0
vn 0 1 0
vn 0 1 0
vn 0 1 0
vn 0 1 0
vn 0 1 0
vn 0 1 0
vn 0 1 0
vn 0 1 0
vn 0 1 0
vn 0 1 0
vn 0 1 0
vn 0 1 0
vn 0 1 0
vn 0 1 0
vn 0 1 0
vn 0 1 0
vn 0 1 0
vn 0 1 0
vn 0 1 0
vn 0 1 0
vn 0 1 0
vn 0 1 0
vn 0 1 0
vn 0 1 0
vn 0 1 0
vn 0 1 0
vn 0 1 0
vn 0 1 0
vn 0 1 0
vn 0 1 0
vn 0 1 0
vn 0 1 0
vn 0 1 0
vn 0 1 0
vn 0 1 0
vn 0 1 0
vn 0 1 0
vn 0 1 0
vn 0 1 0
vn 0 1 0
vn 0 1 0
vn 0 1 0
vn 0 1 0
vn 0 1 0
vn 0 1 0
vn 0 1 0
vn 0 1 0
vn 0 1 0
vn 0 1 0
vn 0 1 0
vn 0 1 0
vn 0 1 0
vn 0 1 0
vn 0 1 0
vn 0 1 0
vn 0 1 0
vn 0 1 0
vn 0 1 0
vn 0 1 0
vn 0 1 0
vn 0 1 0
vn 0 1 0
vn 0 1 0
vn 0 1 0
vn 0 1 0
vn 0 1 0
vn 0 1 0
vn 0 1 0
vn 0 1 0
vn 0 1 0
vn 0 1 0
vn 0 1 0
vn 0 1 0
vn 0 1 0
vn 0 1 0
vn 0 1 0
vn 0 1 0
vn 0 1 0
vn 0 1 0
vn 0 1 0
vn 0 1 0
vn 0 1 0
vn 0 1 0
vn 0 1 0
vn 0 1 0
vn 0 1 0
vn 0 1 0
vn 0 1 0
vn 0 1 0
vn 0 1 0
vn 0 1 0
vn 0 1 0
vn 0 1 0
vn 0 1 0
g Grass_0_Cluster184_0
f 2/2/2 3/3/3 1/1/1
f 2/2/2 4/4/4 3/3/3
f 6/6/6 7/7/7 5/5/5
f 6/6/6 8/8/8 7/7/7
f 10/10/10 11/11/11 9/9/9
f 10/10/10 12/12/12 11/11/11
f 14/14/14 15/15/15 13/13/13
f 14/14/14 16/16/16 15/15/15
f 18/18/18 19/19/19 17/17/17
f 18/18/18 20/20/20 19/19/19
f 22/22/22 23/23/23 21/21/21
f 22/22/22 24/24/24 23/23/23
f 26/26/26 27/27/27 25/25/25
f 26/26/26 28/28/28 27/27/27
f 30/30/30 31/31/31 29/29/29
f 30/30/30 32/32/32 31/31/31
f 34/34/34 35/35/35 33/33/33
f 34/34/34 36/36/36 35/35/35
f 38/38/38 39/39/39 37/37/37
f 38/38/38 40/40/40 39/39/39
f 42/42/42 43/43/43 41/41/41
f 42/42/42 44/44/44 43/43/43
f 46/46/46 47/47/47 45/45/45
f 46/46/46 48/48/48 47/47/47
f 50/50/50 51/51/51 49/49/49
f 50/50/50 52/52/52 51/51/51
f 54/54/54 55/55/55 53/53/53
f 54/54/54 56/56/56 55/55/55
f 58/58/58 59/59/59 57/57/57
f 58/58/58 60/60/60 59/59/59
f 62/62/62 63/63/63 61/61/61
f 62/62/62 64/64/64 63/63/63
f 66/66/66 67/67/67 65/65/65
f 66/66/66 68/68/68 67/67/67
f 70/70/70 71/71/71 69/69/69
f 70/70/70 72/72/72 71/71/71
f 74/74/74 75/75/75 73/73/73
f 74/74/74 76/76/76 75/75/75
f 78/78/78 79/79/79 77/77/77
f 78/78/78 80/80/80 79/79/79
f 82/82/82 83/83/83 81/81/81
f 82/82/82 84/84/84 83/83/83
f 86/86/86 87/87/87 85/85/85
f 86/86/86 88/88/88 87/87/87
f 90/90/90 91/91/91 89/89/89
f 90/90/90 92/92/92 91/91/91
f 94/94/94 95/95/95 93/93/93
f 94/94/94 96/96/96 95/95/95
f 98/98/98 99/99/99 97/97/97
f 98/98/98 100/100/100 99/99/99
f 102/102/102 103/103/103 101/101/101
f 102/102/102 104/104/104 103/103/103
f 106/106/106 107/107/107 105/105/105
f 106/106/106 108/108/108 107/107/107
f 110/110/110 111/111/111 109/109/109
f 110/110/110 112/112/112 111/111/111
f 114/114/114 115/115/115 113/113/113
f 114/114/114 116/116/116 115/115/115
f 118/118/118 119/119/119 117/117/117
f 118/118/118 120/120/120 119/119/119
f 122/122/122 123/123/123 121/121/121
f 122/122/122 124/124/124 123/123/123
f 126/126/126 127/127/127 125/125/125
f 126/126/126 128/128/128 127/127/127
