g Grass_0_Cluster206
v 90.85385 -0.1492691 289.2224
v 90.05116 -0.1492691 289.2224
v 90.85385 -0.1492691 290.4265
v 90.05116 -0.1492691 290.4265
v 115.7374 -0.1492691 288.4197
v 114.9347 -0.1492691 288.4197
v 115.7374 -0.1492691 289.6237
v 114.9347 -0.1492691 289.6237
v 92.05789 -0.1492691 288.0184
v 91.2552 -0.1492691 288.0184
v 92.05789 -0.1492691 289.2224
v 91.2552 -0.1492691 289.2224
v 91.65654 -0.1492691 286.8143
v 90.85385 -0.1492691 286.8143
v 91.65654 -0.1492691 288.4197
v 90.85385 -0.1492691 288.4197
v 119.3495 -0.1492691 286.0116
v 118.1455 -0.1492691 286.0116
v 119.3495 -0.1492691 287.2157
v 118.1455 -0.1492691 287.2157
v 92.86059 -0.1492691 286.0116
v 92.05789 -0.1492691 286.0116
v 92.86059 -0.1492691 287.2157
v 92.05789 -0.1492691 287.2157
v 116.1388 -0.1492691 286.0116
v 115.3361 -0.1492691 286.0116
v 116.1388 -0.1492691 287.2157
v 115.3361 -0.1492691 287.2157
v 117.3428 -0.1492691 286.0116
v 116.1388 -0.1492691 286.0116
v 117.3428 -0.1492691 287.2157
v 116.1388 -0.1492691 287.2157
v 108.9145 -0.1492691 286.0116
v 107.7104 -0.1492691 286.0116
v 108.9145 -0.1492691 287.2157
v 107.7104 -0.1492691 287.2157
v 119.7509 -0.1492691 285.2089
v 118.9482 -0.1492691 285.2089
v 119.7509 -0.1492691 286.8143
v 118.9482 -0.1492691 286.8143
v 111.3226 -0.1492691 285.2089
v 110.5199 -0.1492691 285.2089
v 111.3226 -0.1492691 286.413
v 110.5199 -0.1492691 286.413
v 107.3091 -0.1492691 285.2089
v 106.5064 -0.1492691 285.2089
v 107.3091 -0.1492691 286.413
v 106.5064 -0.1492691 286.413
v 116.9414 -0.1492691 285.2089
v 116.1388 -0.1492691 285.2089
v 116.9414 -0.1492691 286.413
v 116.1388 -0.1492691 286.413
v 118.5468 -0.1492691 284.4063
v 117.7441 -0.1492691 284.4063
v 118.5468 -0.1492691 285.6103
v 117.7441 -0.1492691 285.6103
v 114.9347 -0.1492691 284.4063
v 113.7307 -0.1492691 284.4063
v 114.9347 -0.1492691 285.6103
v 113.7307 -0.1492691 285.6103
v 120.1522 -0.1492691 284.0049
v 119.3495 -0.1492691 284.0049
v 120.1522 -0.1492691 285.2089
v 119.3495 -0.1492691 285.2089
v 119.3495 -0.1492691 283.6035
v 118.1455 -0.1492691 283.6035
v 119.3495 -0.1492691 284.8076
v 118.1455 -0.1492691 284.8076
v 110.5199 -0.1492691 283.6035
v 109.7172 -0.1492691 283.6035
v 110.5199 -0.1492691 284.8076
v 109.7172 -0.1492691 284.8076
v 118.1455 -0.1492691 283.2022
v 116.9414 -0.1492691 283.2022
v 118.1455 -0.1492691 284.4063
v 116.9414 -0.1492691 284.4063
v 104.4997 -0.1492691 283.2022
v 103.697 -0.1492691 283.2022
v 104.4997 -0.1492691 284.4063
v 103.697 -0.1492691 284.4063
v 106.1051 -0.1492691 282.3995
v 105.3024 -0.1492691 282.3995
v 106.1051 -0.1492691 283.6035
v 105.3024 -0.1492691 283.6035
v 115.3361 -0.1492691 282.3995
v 114.5334 -0.1492691 282.3995
v 115.3361 -0.1492691 283.6035
v 114.5334 -0.1492691 283.6035
v 109.3158 -0.1492691 282.3995
v 108.1118 -0.1492691 282.3995
v 109.3158 -0.1492691 283.6035
v 108.1118 -0.1492691 283.6035
v 114.5334 -0.1492691 281.5968
v 113.7307 -0.1492691 281.5968
v 114.5334 -0.1492691 282.8008
v 113.7307 -0.1492691 282.8008
v 119.3495 -0.1492691 281.1955
v 118.5468 -0.1492691 281.1955
v 119.3495 -0.1492691 282.3995
v 118.5468 -0.1492691 282.3995
v 118.5468 -0.1492691 281.1955
v 117.7441 -0.1492691 281.1955
v 118.5468 -0.1492691 282.3995
v 117.7441 -0.1492691 282.3995
v 117.7441 -0.1492691 280.3928
v 116.9414 -0.1492691 280.3928
v 117.7441 -0.1492691 281.5968
v 116.9414 -0.1492691 281.5968
v 92.45924 -0.1492691 265.1415
v 91.65654 -0.1492691 265.1415
v 92.45924 -0.1492691 266.3456
v 91.65654 -0.1492691 266.3456
v 107.7104 -0.1492691 264.7402
v 106.9078 -0.1492691 264.7402
v 107.7104 -0.1492691 265.9442
v 106.9078 -0.1492691 265.9442
v 110.1185 -0.1492691 263.9375
v 109.3158 -0.1492691 263.9375
v 110.1185 -0.1492691 264.7402
v 109.3158 -0.1492691 264.7402
v 106.1051 -0.1492691 263.5362
v 105.3024 -0.1492691 263.5362
v 106.1051 -0.1492691 264.7402
v 105.3024 -0.1492691 264.7402
v 108.9145 -0.1492691 263.1348
v 108.1118 -0.1492691 263.1348
v 108.9145 -0.1492691 264.3389
v 108.1118 -0.1492691 264.3389
vt 0 0.9058824
vt 0.06666667 0.9058824
vt 0 1
vt 0.06666667 1
vt 0 0.9058824
vt 0.06666667 0.9058824
vt 0 1
vt 0.06666667 1
vt 0 0.9058824
vt 0.06666667 0.9058824
vt 0 1
vt 0.06666667 1
vt 0 0.9058824
vt 0.06666667 0.9058824
vt 0 1
vt 0.06666667 1
vt 0 0.9058824
vt 0.06666667 0.9058824
vt 0 1
vt 0.06666667 1
vt 0 0.9058824
vt 0.06666667 0.9058824
vt 0 1
vt 0.06666667 1
vt 0 0.9058824
vt 0.06666667 0.9058824
vt 0 1
vt 0.06666667 1
vt 0 0.9058824
vt 0.06666667 0.9058824
vt 0 1
vt 0.06666667 1
vt 0 0.9058824
vt 0.06666667 0.9058824
vt 0 1
vt 0.06666667 1
vt 0 0.9058824
vt 0.06666667 0.9058824
vt 0 1
vt 0.06666667 1
vt 0 0.9058824
vt 0.06666667 0.9058824
vt 0 1
vt 0.06666667 1
vt 0 0.9058824
vt 0.06666667 0.9058824
vt 0 1
vt 0.06666667 1
vt 0 0.9058824
vt 0.06666667 0.9058824
vt 0 1
vt 0.06666667 1
vt 0 0.9058824
vt 0.06666667 0.9058824
vt 0 1
vt 0.06666667 1
vt 0 0.9058824
vt 0.06666667 0.9058824
vt 0 1
vt 0.06666667 1
vt 0 0.9058824
vt 0.06666667 0.9058824
vt 0 1
vt 0.06666667 1
vt 0 0.9058824
vt 0.06666667 0.9058824
vt 0 1
vt 0.06666667 1
vt 0 0.9058824
vt 0.06666667 0.9058824
vt 0 1
vt 0.06666667 1
vt 0 0.9058824
vt 0.06666667 0.9058824
vt 0 1
vt 0.06666667 1
vt 0 0.9058824
vt 0.06666667 0.9058824
vt 0 1
vt 0.06666667 1
vt 0 0.9058824
vt 0.06666667 0.9058824
vt 0 1
vt 0.06666667 1
vt 0 0.9058824
vt 0.06666667 0.9058824
vt 0 1
vt 0.06666667 1
vt 0 0.9058824
vt 0.06666667 0.9058824
vt 0 1
vt 0.06666667 1
vt 0 0.9058824
vt 0.06666667 0.9058824
vt 0 1
vt 0.06666667 1
vt 0 0.9058824
vt 0.06666667 0.9058824
vt 0 1
vt 0.06666667 1
vt 0 0.9058824
vt 0.06666667 0.9058824
vt 0 1
vt 0.06666667 1
vt 0 0.9058824
vt 0.06666667 0.9058824
vt 0 1
vt 0.06666667 1
vt 0 0.9058824
vt 0.06666667 0.9058824
vt 0 1
vt 0.06666667 1
vt 0 0.9058824
vt 0.06666667 0.9058824
vt 0 1
vt 0.06666667 1
vt 0 0.9058824
vt 0.06666667 0.9058824
vt 0 1
vt 0.06666667 1
vt 0 0.9058824
vt 0.06666667 0.9058824
vt 0 1
vt 0.06666667 1
vt 0 0.9058824
vt 0.06666667 0.9058824
vt 0 1
vt 0.06666667 1
vn 0 1 0
vn 0 1 0
vn 0 1 0
vn 0 1 0
vn 0 1 0
vn 0 1 0
vn 0 1 0
vn 0 1 0
vn 0 1 0
vn 0 1 0
vn 0 1 0
vn 0 1 0
vn 0 1 0
vn 0 1 0
vn 0 1 0
vn 0 1 0
vn 0 1 0
vn 0 1 0
vn 0 1 0
vn 0 1 0
vn 0 1 0
vn 0 1 0
vn 0 1 0
vn 0 1 0
vn 0 1 0
vn 0 1 0
vn 0 1 0
vn 0 1 0
vn 0 1 0
vn 0 1 0
vn 0 1 0
vn 0 1 0
vn 0 1 0
vn 0 1 0
vn 0 1 0
vn 0 1 0
vn 0 1 0
vn 0 1 0
vn 0 1 0
vn 0 1 0
vn 0 1 0
vn 0 1 0
vn 0 1 0
vn 0 1 0
vn 0 1 0
vn 0 1 0
vn 0 1 0
vn 0 1 0
vn 0 1 0
vn 0 1 0
vn 0 1 0
vn 0 1 0
vn 0 1 0
vn 0 1 0
vn 0 1 0
vn 0 1 0
vn 0 1 0
vn 0 1 0
vn 0 1 0
vn 0 1 0
vn 0 1 0
vn 0 1 0
vn 0 1 0
vn 0 1 0
vn 0 1 0
vn 0 1 0
vn 0 1 0
vn 0 1 0
vn 0 1 0
vn 0 1 0
vn 0 1 0
vn 0 1 0
vn 0 1 0
vn 0 1 0
vn 0 1 0
vn 0 1 0
vn 0 1 0
vn 0 1 0
vn 0 1 0
vn 0 1 0
vn 0 1 0
vn 0 1 0
vn 0 1 0
vn 0 1 0
vn 0 1 0
vn 0 1 0
vn 0 1 0
vn 0 1 0
vn 0 1 0
vn 0 1 0
vn 0 1 0
vn 0 1 0
vn 0 1 0
vn 0 1 0
vn 0 1 0
vn 0 1 0
vn 0 1 0
vn 0 1 0
vn 0 1 0
vn 0 1 0
vn 0 1 0
vn 0 1 0
vn 0 1 0
vn 0 1 0
vn 0 1 0
vn 0 1 0
vn 0 1 0
vn 0 1 0
vn 0 1 0
vn 0 1 0
vn 0 1 0
vn 0 1 0
vn 0 1 0
vn 0 1 0
vn 0 1 0
vn 0 1 0
vn 0 1 0
vn 0 1 0
vn 0 1 0
vn 0 1 0
vn 0 1 0
vn 0 1 0
vn 0 1 0
vn 0 1 0
vn 0 1 0
vn 0 1 0
vn 0 1 0
vn 0 1 0
g Grass_0_Cluster206_0
f 2/2/2 3/3/3 1/1/1
f 2/2/2 4/4/4 3/3/3
f 6/6/6 7/7/7 5/5/5
f 6/6/6 8/8/8 7/7/7
f 10/10/10 11/11/11 9/9/9
f 10/10/10 12/12/12 11/11/11
f 14/14/14 15/15/15 13/13/13
f 14/14/14 16/16/16 15/15/15
f 18/18/18 19/19/19 17/17/17
f 18/18/18 20/20/20 19/19/19
f 22/22/22 23/23/23 21/21/21
f 22/22/22 24/24/24 23/23/23
f 26/26/26 27/27/27 25/25/25
f 26/26/26 28/28/28 27/27/27
f 30/30/30 31/31/31 29/29/29
f 30/30/30 32/32/32 31/31/31
f 34/34/34 35/35/35 33/33/33
f 34/34/34 36/36/36 35/35/35
f 38/38/38 39/39/39 37/37/37
f 38/38/38 40/40/40 39/39/39
f 42/42/42 43/43/43 41/41/41
f 42/42/42 44/44/44 43/43/43
f 46/46/46 47/47/47 45/45/45
f 46/46/46 48/48/48 47/47/47
f 50/50/50 51/51/51 49/49/49
f 50/50/50 52/52/52 51/51/51
f 54/54/54 55/55/55 53/53/53
f 54/54/54 56/56/56 55/55/55
f 58/58/58 59/59/59 57/57/57
f 58/58/58 60/60/60 59/59/59
f 62/62/62 63/63/63 61/61/61
f 62/62/62 64/64/64 63/63/63
f 66/66/66 67/67/67 65/65/65
f 66/66/66 68/68/68 67/67/67
f 70/70/70 71/71/71 69/69/69
f 70/70/70 72/72/72 71/71/71
f 74/74/74 75/75/75 73/73/73
f 74/74/74 76/76/76 75/75/75
f 78/78/78 79/79/79 77/77/77
f 78/78/78 80/80/80 79/79/79
f 82/82/82 83/83/83 81/81/81
f 82/82/82 84/84/84 83/83/83
f 86/86/86 87/87/87 85/85/85
f 86/86/86 88/88/88 87/87/87
f 90/90/90 91/91/91 89/89/89
f 90/90/90 92/92/92 91/91/91
f 94/94/94 95/95/95 93/93/93
f 94/94/94 96/96/96 95/95/95
f 98/98/98 99/99/99 97/97/97
f 98/98/98 100/100/100 99/99/99
f 102/102/102 103/103/103 101/101/101
f 102/102/102 104/104/104 103/103/103
f 106/106/106 107/107/107 105/105/105
f 106/106/106 108/108/108 107/107/107
f 110/110/110 111/111/111 109/109/109
f 110/110/110 112/112/112 111/111/111
f 114/114/114 115/115/115 113/113/113
f 114/114/114 116/116/116 115/115/115
f 118/118/118 119/119/119 117/117/117
f 118/118/118 120/120/120 119/119/119
f 122/122/122 123/123/123 121/121/121
f 122/122/122 124/124/124 123/123/123
f 126/126/126 127/127/127 125/125/125
f 126/126/126 128/128/128 127/127/127
