g Grass_0_Cluster181
v 247.823 0.1824646 261.6215
v 246.7896 0.1824646 261.6215
v 247.823 0.1824646 262.6548
v 246.7896 0.1824646 262.6548
v 252.9897 0.1824646 258.5214
v 251.9564 0.1824646 258.5214
v 252.9897 0.1824646 259.5548
v 251.9564 0.1824646 259.5548
v 263.3233 0.1824646 255.4214
v 262.2899 0.1824646 255.4214
v 263.3233 0.1824646 256.9714
v 262.2899 0.1824646 256.9714
v 262.2899 0.1824646 255.4214
v 261.2566 0.1824646 255.4214
v 262.2899 0.1824646 256.9714
v 261.2566 0.1824646 256.9714
v 264.8733 0.1824646 254.9047
v 263.84 0.1824646 254.9047
v 264.8733 0.1824646 255.938
v 263.84 0.1824646 255.938
v 253.5064 0.1824646 253.3547
v 252.9897 0.1824646 253.3547
v 253.5064 0.1824646 254.388
v 252.9897 0.1824646 254.388
v 251.4397 0.1824646 250.7712
v 250.923 0.1824646 250.7712
v 251.4397 0.1824646 251.8046
v 250.923 0.1824646 251.8046
v 251.4397 0.1824646 249.2213
v 250.4063 0.1824646 249.2213
v 251.4397 0.1824646 250.2546
v 250.4063 0.1824646 250.2546
v 261.7733 0.1824646 248.1879
v 260.7399 0.1824646 248.1879
v 261.7733 0.1824646 249.7379
v 260.7399 0.1824646 249.7379
v 243.6895 0.1824646 248.1879
v 242.6562 0.1824646 248.1879
v 243.6895 0.1824646 249.2213
v 242.6562 0.1824646 249.2213
v 247.823 0.1824646 247.1545
v 247.3063 0.1824646 247.1545
v 247.823 0.1824646 248.1879
v 247.3063 0.1824646 248.1879
v 242.6562 0.1824646 246.6378
v 241.6228 0.1824646 246.6378
v 242.6562 0.1824646 247.6712
v 241.6228 0.1824646 247.6712
v 248.3396 0.1824646 246.6378
v 247.3063 0.1824646 246.6378
v 248.3396 0.1824646 247.6712
v 247.3063 0.1824646 247.6712
v 245.7562 0.1824646 246.1212
v 244.7229 0.1824646 246.1212
v 245.7562 0.1824646 247.1545
v 244.7229 0.1824646 247.1545
v 243.6895 0.1824646 245.6045
v 242.6562 0.1824646 245.6045
v 243.6895 0.1824646 246.6378
v 242.6562 0.1824646 246.6378
v 247.3063 0.1824646 245.6045
v 246.2729 0.1824646 245.6045
v 247.3063 0.1824646 247.1545
v 246.2729 0.1824646 247.1545
v 245.7562 0.1824646 245.0878
v 244.7229 0.1824646 245.0878
v 245.7562 0.1824646 246.6378
v 244.7229 0.1824646 246.6378
v 250.4063 0.1824646 245.0878
v 249.373 0.1824646 245.0878
v 250.4063 0.1824646 246.6378
v 249.373 0.1824646 246.6378
v 247.823 0.1824646 244.5711
v 246.7896 0.1824646 244.5711
v 247.823 0.1824646 246.1212
v 246.7896 0.1824646 246.1212
v 247.3063 0.1824646 244.5711
v 246.2729 0.1824646 244.5711
v 247.3063 0.1824646 245.6045
v 246.2729 0.1824646 245.6045
v 245.2396 0.1824646 244.0544
v 244.2062 0.1824646 244.0544
v 245.2396 0.1824646 245.6045
v 244.2062 0.1824646 245.6045
v 249.373 0.1824646 244.0544
v 248.3396 0.1824646 244.0544
v 249.373 0.1824646 245.0878
v 248.3396 0.1824646 245.0878
v 243.1729 0.1824646 244.0544
v 242.1395 0.1824646 244.0544
v 243.1729 0.1824646 245.0878
v 242.1395 0.1824646 245.0878
v 248.3396 0.1824646 243.5378
v 247.3063 0.1824646 243.5378
v 248.3396 0.1824646 244.5711
v 247.3063 0.1824646 244.5711
v 242.1395 0.1824646 243.0211
v 241.1061 0.1824646 243.0211
v 242.1395 0.1824646 244.5711
v 241.1061 0.1824646 244.5711
v 245.2396 0.1824646 243.0211
v 244.7229 0.1824646 243.0211
v 245.2396 0.1824646 244.5711
v 244.7229 0.1824646 244.5711
v 245.2396 0.1824646 243.0211
v 244.2062 0.1824646 243.0211
v 245.2396 0.1824646 244.5711
v 244.2062 0.1824646 244.5711
v 244.2062 0.1824646 242.5044
v 243.1729 0.1824646 242.5044
v 244.2062 0.1824646 243.5378
v 243.1729 0.1824646 243.5378
v 244.7229 0.1824646 242.5044
v 243.6895 0.1824646 242.5044
v 244.7229 0.1824646 243.5378
v 243.6895 0.1824646 243.5378
v 242.6562 0.1824646 241.4711
v 241.6228 0.1824646 241.4711
v 242.6562 0.1824646 242.5044
v 241.6228 0.1824646 242.5044
v 244.7229 0.1824646 239.921
v 244.2062 0.1824646 239.921
v 244.7229 0.1824646 241.4711
v 244.2062 0.1824646 241.4711
v 265.9067 0.1824646 238.8877
v 264.8733 0.1824646 238.8877
v 265.9067 0.1824646 239.921
v 264.8733 0.1824646 239.921
v 261.2566 0.1824646 238.8877
v 260.7399 0.1824646 238.8877
v 261.2566 0.1824646 239.921
v 260.7399 0.1824646 239.921
v 258.1565 0.1824646 237.8543
v 257.6398 0.1824646 237.8543
v 258.1565 0.1824646 239.4044
v 257.6398 0.1824646 239.4044
v 259.1898 0.1824646 237.8543
v 258.1565 0.1824646 237.8543
v 259.1898 0.1824646 238.8877
v 258.1565 0.1824646 238.8877
v 262.2899 0.1824646 237.8543
v 261.2566 0.1824646 237.8543
v 262.2899 0.1824646 238.8877
v 261.2566 0.1824646 238.8877
v 259.7065 0.1824646 237.3376
v 258.6732 0.1824646 237.3376
v 259.7065 0.1824646 238.371
v 258.6732 0.1824646 238.371
v 258.6732 0.1824646 237.3376
v 257.6398 0.1824646 237.3376
v 258.6732 0.1824646 238.371
v 257.6398 0.1824646 238.371
v 260.7399 0.1824646 236.821
v 259.7065 0.1824646 236.821
v 260.7399 0.1824646 237.8543
v 259.7065 0.1824646 237.8543
v 255.0564 0.1824646 236.3043
v 254.0231 0.1824646 236.3043
v 255.0564 0.1824646 237.3376
v 254.0231 0.1824646 237.3376
v 260.7399 0.1824646 236.3043
v 259.7065 0.1824646 236.3043
v 260.7399 0.1824646 237.3376
v 259.7065 0.1824646 237.3376
v 261.2566 0.1824646 235.7876
v 260.2232 0.1824646 235.7876
v 261.2566 0.1824646 237.3376
v 260.2232 0.1824646 237.3376
v 258.1565 0.1824646 235.7876
v 257.1231 0.1824646 235.7876
v 258.1565 0.1824646 236.821
v 257.1231 0.1824646 236.821
v 257.1231 0.1824646 235.2709
v 256.0898 0.1824646 235.2709
v 257.1231 0.1824646 236.821
v 256.0898 0.1824646 236.821
v 262.2899 0.1824646 235.2709
v 261.2566 0.1824646 235.2709
v 262.2899 0.1824646 236.821
v 261.2566 0.1824646 236.821
v 259.1898 0.1824646 235.2709
v 258.1565 0.1824646 235.2709
v 259.1898 0.1824646 236.3043
v 258.1565 0.1824646 236.3043
v 260.2232 0.1824646 234.7542
v 259.1898 0.1824646 234.7542
v 260.2232 0.1824646 235.7876
v 259.1898 0.1824646 235.7876
v 259.7065 0.1824646 234.2376
v 259.1898 0.1824646 234.2376
v 259.7065 0.1824646 235.2709
v 259.1898 0.1824646 235.2709
v 242.1395 0.1824646 233.2042
v 241.1061 0.1824646 233.2042
v 242.1395 0.1824646 234.7542
v 241.1061 0.1824646 234.7542
vt 0 0.9058824
vt 0.06666667 0.9058824
vt 0 1
vt 0.06666667 1
vt 0 0.9058824
vt 0.06666667 0.9058824
vt 0 1
vt 0.06666667 1
vt 0 0.9058824
vt 0.06666667 0.9058824
vt 0 1
vt 0.06666667 1
vt 0 0.9058824
vt 0.06666667 0.9058824
vt 0 1
vt 0.06666667 1
vt 0 0.9058824
vt 0.06666667 0.9058824
vt 0 1
vt 0.06666667 1
vt 0 0.9058824
vt 0.06666667 0.9058824
vt 0 1
vt 0.06666667 1
vt 0 0.9058824
vt 0.06666667 0.9058824
vt 0 1
vt 0.06666667 1
vt 0 0.9058824
vt 0.06666667 0.9058824
vt 0 1
vt 0.06666667 1
vt 0 0.9058824
vt 0.06666667 0.9058824
vt 0 1
vt 0.06666667 1
vt 0 0.9058824
vt 0.06666667 0.9058824
vt 0 1
vt 0.06666667 1
vt 0 0.9058824
vt 0.06666667 0.9058824
vt 0 1
vt 0.06666667 1
vt 0 0.9058824
vt 0.06666667 0.9058824
vt 0 1
vt 0.06666667 1
vt 0 0.9058824
vt 0.06666667 0.9058824
vt 0 1
vt 0.06666667 1
vt 0 0.9058824
vt 0.06666667 0.9058824
vt 0 1
vt 0.06666667 1
vt 0 0.9058824
vt 0.06666667 0.9058824
vt 0 1
vt 0.06666667 1
vt 0 0.9058824
vt 0.06666667 0.9058824
vt 0 1
vt 0.06666667 1
vt 0 0.9058824
vt 0.06666667 0.9058824
vt 0 1
vt 0.06666667 1
vt 0 0.9058824
vt 0.06666667 0.9058824
vt 0 1
vt 0.06666667 1
vt 0 0.9058824
vt 0.06666667 0.9058824
vt 0 1
vt 0.06666667 1
vt 0 0.9058824
vt 0.06666667 0.9058824
vt 0 1
vt 0.06666667 1
vt 0 0.9058824
vt 0.06666667 0.9058824
vt 0 1
vt 0.06666667 1
vt 0 0.9058824
vt 0.06666667 0.9058824
vt 0 1
vt 0.06666667 1
vt 0 0.9058824
vt 0.06666667 0.9058824
vt 0 1
vt 0.06666667 1
vt 0 0.9058824
vt 0.06666667 0.9058824
vt 0 1
vt 0.06666667 1
vt 0 0.9058824
vt 0.06666667 0.9058824
vt 0 1
vt 0.06666667 1
vt 0 0.9058824
vt 0.06666667 0.9058824
vt 0 1
vt 0.06666667 1
vt 0 0.9058824
vt 0.06666667 0.9058824
vt 0 1
vt 0.06666667 1
vt 0 0.9058824
vt 0.06666667 0.9058824
vt 0 1
vt 0.06666667 1
vt 0 0.9058824
vt 0.06666667 0.9058824
vt 0 1
vt 0.06666667 1
vt 0 0.9058824
vt 0.06666667 0.9058824
vt 0 1
vt 0.06666667 1
vt 0 0.9058824
vt 0.06666667 0.9058824
vt 0 1
vt 0.06666667 1
vt 0 0.9058824
vt 0.06666667 0.9058824
vt 0 1
vt 0.06666667 1
vt 0 0.9058824
vt 0.06666667 0.9058824
vt 0 1
vt 0.06666667 1
vt 0 0.9058824
vt 0.06666667 0.9058824
vt 0 1
vt 0.06666667 1
vt 0 0.9058824
vt 0.06666667 0.9058824
vt 0 1
vt 0.06666667 1
vt 0 0.9058824
vt 0.06666667 0.9058824
vt 0 1
vt 0.06666667 1
vt 0 0.9058824
vt 0.06666667 0.9058824
vt 0 1
vt 0.06666667 1
vt 0 0.9058824
vt 0.06666667 0.9058824
vt 0 1
vt 0.06666667 1
vt 0 0.9058824
vt 0.06666667 0.9058824
vt 0 1
vt 0.06666667 1
vt 0 0.9058824
vt 0.06666667 0.9058824
vt 0 1
vt 0.06666667 1
vt 0 0.9058824
vt 0.06666667 0.9058824
vt 0 1
vt 0.06666667 1
vt 0 0.9058824
vt 0.06666667 0.9058824
vt 0 1
vt 0.06666667 1
vt 0 0.9058824
vt 0.06666667 0.9058824
vt 0 1
vt 0.06666667 1
vt 0 0.9058824
vt 0.06666667 0.9058824
vt 0 1
vt 0.06666667 1
vt 0 0.9058824
vt 0.06666667 0.9058824
vt 0 1
vt 0.06666667 1
vt 0 0.9058824
vt 0.06666667 0.9058824
vt 0 1
vt 0.06666667 1
vt 0 0.9058824
vt 0.06666667 0.9058824
vt 0 1
vt 0.06666667 1
vt 0 0.9058824
vt 0.06666667 0.9058824
vt 0 1
vt 0.06666667 1
vt 0 0.9058824
vt 0.06666667 0.9058824
vt 0 1
vt 0.06666667 1
vn 0 1 0
vn 0 1 0
vn 0 1 0
vn 0 1 0
vn 0 1 0
vn 0 1 0
vn 0 1 0
vn 0 1 0
vn 0 1 0
vn 0 1 0
vn 0 1 0
vn 0 1 0
vn 0 1 0
vn 0 1 0
vn 0 1 0
vn 0 1 0
vn 0 1 0
vn 0 1 0
vn 0 1 0
vn 0 1 0
vn 0 1 0
vn 0 1 0
vn 0 1 0
vn 0 1 0
vn 0 1 0
vn 0 1 0
vn 0 1 0
vn 0 1 0
vn 0 1 0
vn 0 1 0
vn 0 1 0
vn 0 1 0
vn 0 1 0
vn 0 1 0
vn 0 1 0
vn 0 1 0
vn 0 1 0
vn 0 1 0
vn 0 1 0
vn 0 1 0
vn 0 1 0
vn 0 1 0
vn 0 1 0
vn 0 1 0
vn 0 1 0
vn 0 1 0
vn 0 1 0
vn 0 1 0
vn 0 1 0
vn 0 1 0
vn 0 1 0
vn 0 1 0
vn 0 1 0
vn 0 1 0
vn 0 1 0
vn 0 1 0
vn 0 1 0
vn 0 1 0
vn 0 1 0
vn 0 1 0
vn 0 1 0
vn 0 1 0
vn 0 1 0
vn 0 1 0
vn 0 1 0
vn 0 1 0
vn 0 1 0
vn 0 1 0
vn 0 1 0
vn 0 1 0
vn 0 1 0
vn 0 1 0
vn 0 1 0
vn 0 1 0
vn 0 1 0
vn 0 1 0
vn 0 1 0
vn 0 1 0
vn 0 1 0
vn 0 1 0
vn 0 1 0
vn 0 1 0
vn 0 1 0
vn 0 1 0
vn 0 1 0
vn 0 1 0
vn 0 1 0
vn 0 1 0
vn 0 1 0
vn 0 1 0
vn 0 1 0
vn 0 1 0
vn 0 1 0
vn 0 1 0
vn 0 1 0
vn 0 1 0
vn 0 1 0
vn 0 1 0
vn 0 1 0
vn 0 1 0
vn 0 1 0
vn 0 1 0
vn 0 1 0
vn 0 1 0
vn 0 1 0
vn 0 1 0
vn 0 1 0
vn 0 1 0
vn 0 1 0
vn 0 1 0
vn 0 1 0
vn 0 1 0
vn 0 1 0
vn 0 1 0
vn 0 1 0
vn 0 1 0
vn 0 1 0
vn 0 1 0
vn 0 1 0
vn 0 1 0
vn 0 1 0
vn 0 1 0
vn 0 1 0
vn 0 1 0
vn 0 1 0
vn 0 1 0
vn 0 1 0
vn 0 1 0
vn 0 1 0
vn 0 1 0
vn 0 1 0
vn 0 1 0
vn 0 1 0
vn 0 1 0
vn 0 1 0
vn 0 1 0
vn 0 1 0
vn 0 1 0
vn 0 1 0
vn 0 1 0
vn 0 1 0
vn 0 1 0
vn 0 1 0
vn 0 1 0
vn 0 1 0
vn 0 1 0
vn 0 1 0
vn 0 1 0
vn 0 1 0
vn 0 1 0
vn 0 1 0
vn 0 1 0
vn 0 1 0
vn 0 1 0
vn 0 1 0
vn 0 1 0
vn 0 1 0
vn 0 1 0
vn 0 1 0
vn 0 1 0
vn 0 1 0
vn 0 1 0
vn 0 1 0
vn 0 1 0
vn 0 1 0
vn 0 1 0
vn 0 1 0
vn 0 1 0
vn 0 1 0
vn 0 1 0
vn 0 1 0
vn 0 1 0
vn 0 1 0
vn 0 1 0
vn 0 1 0
vn 0 1 0
vn 0 1 0
vn 0 1 0
vn 0 1 0
vn 0 1 0
vn 0 1 0
vn 0 1 0
vn 0 1 0
vn 0 1 0
vn 0 1 0
vn 0 1 0
vn 0 1 0
vn 0 1 0
vn 0 1 0
vn 0 1 0
vn 0 1 0
vn 0 1 0
vn 0 1 0
vn 0 1 0
vn 0 1 0
vn 0 1 0
g Grass_0_Cluster181_0
f 2/2/2 3/3/3 1/1/1
f 2/2/2 4/4/4 3/3/3
f 6/6/6 7/7/7 5/5/5
f 6/6/6 8/8/8 7/7/7
f 10/10/10 11/11/11 9/9/9
f 10/10/10 12/12/12 11/11/11
f 14/14/14 15/15/15 13/13/13
f 14/14/14 16/16/16 15/15/15
f 18/18/18 19/19/19 17/17/17
f 18/18/18 20/20/20 19/19/19
f 22/22/22 23/23/23 21/21/21
f 22/22/22 24/24/24 23/23/23
f 26/26/26 27/27/27 25/25/25
f 26/26/26 28/28/28 27/27/27
f 30/30/30 31/31/31 29/29/29
f 30/30/30 32/32/32 31/31/31
f 34/34/34 35/35/35 33/33/33
f 34/34/34 36/36/36 35/35/35
f 38/38/38 39/39/39 37/37/37
f 38/38/38 40/40/40 39/39/39
f 42/42/42 43/43/43 41/41/41
f 42/42/42 44/44/44 43/43/43
f 46/46/46 47/47/47 45/45/45
f 46/46/46 48/48/48 47/47/47
f 50/50/50 51/51/51 49/49/49
f 50/50/50 52/52/52 51/51/51
f 54/54/54 55/55/55 53/53/53
f 54/54/54 56/56/56 55/55/55
f 58/58/58 59/59/59 57/57/57
f 58/58/58 60/60/60 59/59/59
f 62/62/62 63/63/63 61/61/61
f 62/62/62 64/64/64 63/63/63
f 66/66/66 67/67/67 65/65/65
f 66/66/66 68/68/68 67/67/67
f 70/70/70 71/71/71 69/69/69
f 70/70/70 72/72/72 71/71/71
f 74/74/74 75/75/75 73/73/73
f 74/74/74 76/76/76 75/75/75
f 78/78/78 79/79/79 77/77/77
f 78/78/78 80/80/80 79/79/79
f 82/82/82 83/83/83 81/81/81
f 82/82/82 84/84/84 83/83/83
f 86/86/86 87/87/87 85/85/85
f 86/86/86 88/88/88 87/87/87
f 90/90/90 91/91/91 89/89/89
f 90/90/90 92/92/92 91/91/91
f 94/94/94 95/95/95 93/93/93
f 94/94/94 96/96/96 95/95/95
f 98/98/98 99/99/99 97/97/97
f 98/98/98 100/100/100 99/99/99
f 102/102/102 103/103/103 101/101/101
f 102/102/102 104/104/104 103/103/103
f 106/106/106 107/107/107 105/105/105
f 106/106/106 108/108/108 107/107/107
f 110/110/110 111/111/111 109/109/109
f 110/110/110 112/112/112 111/111/111
f 114/114/114 115/115/115 113/113/113
f 114/114/114 116/116/116 115/115/115
f 118/118/118 119/119/119 117/117/117
f 118/118/118 120/120/120 119/119/119
f 122/122/122 123/123/123 121/121/121
f 122/122/122 124/124/124 123/123/123
f 126/126/126 127/127/127 125/125/125
f 126/126/126 128/128/128 127/127/127
f 130/130/130 131/131/131 129/129/129
f 130/130/130 132/132/132 131/131/131
f 134/134/134 135/135/135 133/133/133
f 134/134/134 136/136/136 135/135/135
f 138/138/138 139/139/139 137/137/137
f 138/138/138 140/140/140 139/139/139
f 142/142/142 143/143/143 141/141/141
f 142/142/142 144/144/144 143/143/143
f 146/146/146 147/147/147 145/145/145
f 146/146/146 148/148/148 147/147/147
f 150/150/150 151/151/151 149/149/149
f 150/150/150 152/152/152 151/151/151
f 154/154/154 155/155/155 153/153/153
f 154/154/154 156/156/156 155/155/155
f 158/158/158 159/159/159 157/157/157
f 158/158/158 160/160/160 159/159/159
f 162/162/162 163/163/163 161/161/161
f 162/162/162 164/164/164 163/163/163
f 166/166/166 167/167/167 165/165/165
f 166/166/166 168/168/168 167/167/167
f 170/170/170 171/171/171 169/169/169
f 170/170/170 172/172/172 171/171/171
f 174/174/174 175/175/175 173/173/173
f 174/174/174 176/176/176 175/175/175
f 178/178/178 179/179/179 177/177/177
f 178/178/178 180/180/180 179/179/179
f 182/182/182 183/183/183 181/181/181
f 182/182/182 184/184/184 183/183/183
f 186/186/186 187/187/187 185/185/185
f 186/186/186 188/188/188 187/187/187
f 190/190/190 191/191/191 189/189/189
f 190/190/190 192/192/192 191/191/191
f 194/194/194 195/195/195 193/193/193
f 194/194/194 196/196/196 195/195/195
