g Grass_2_Cluster224
v 160.2208 -0.07272339 317.3722
v 159.2704 -0.07272339 317.3722
v 160.2208 -0.07272339 318.3226
v 159.2704 -0.07272339 318.3226
v 158.7952 -0.07272339 316.4218
v 157.8447 -0.07272339 316.4218
v 158.7952 -0.07272339 317.8474
v 157.8447 -0.07272339 317.8474
v 157.8447 -0.07272339 315.9465
v 156.8943 -0.07272339 315.9465
v 157.8447 -0.07272339 316.897
v 156.8943 -0.07272339 316.897
v 157.8447 -0.07272339 315.4713
v 156.8943 -0.07272339 315.4713
v 157.8447 -0.07272339 316.4218
v 156.8943 -0.07272339 316.4218
v 165.4482 -0.07272339 314.5209
v 164.4978 -0.07272339 314.5209
v 165.4482 -0.07272339 315.4713
v 164.4978 -0.07272339 315.4713
v 161.1713 -0.07272339 314.5209
v 160.2208 -0.07272339 314.5209
v 161.1713 -0.07272339 315.4713
v 160.2208 -0.07272339 315.4713
v 159.7456 -0.07272339 314.5209
v 158.32 -0.07272339 314.5209
v 159.7456 -0.07272339 315.9465
v 158.32 -0.07272339 315.9465
v 162.5969 -0.07272339 314.5209
v 161.6465 -0.07272339 314.5209
v 162.5969 -0.07272339 315.4713
v 161.6465 -0.07272339 315.4713
v 164.4978 -0.07272339 314.0457
v 163.5473 -0.07272339 314.0457
v 164.4978 -0.07272339 314.9961
v 163.5473 -0.07272339 314.9961
v 161.6465 -0.07272339 314.0457
v 160.696 -0.07272339 314.0457
v 161.6465 -0.07272339 314.9961
v 160.696 -0.07272339 314.9961
v 167.8243 -0.07272339 313.5704
v 166.8739 -0.07272339 313.5704
v 167.8243 -0.07272339 314.5209
v 166.8739 -0.07272339 314.5209
v 160.2208 -0.07272339 313.0952
v 159.2704 -0.07272339 313.0952
v 160.2208 -0.07272339 314.5209
v 159.2704 -0.07272339 314.5209
v 165.4482 -0.07272339 313.0952
v 164.4978 -0.07272339 313.0952
v 165.4482 -0.07272339 314.0457
v 164.4978 -0.07272339 314.0457
v 164.0226 -0.07272339 312.1448
v 163.0721 -0.07272339 312.1448
v 164.0226 -0.07272339 313.0952
v 163.0721 -0.07272339 313.0952
v 166.3987 -0.07272339 311.6696
v 165.4482 -0.07272339 311.6696
v 166.3987 -0.07272339 312.62
v 165.4482 -0.07272339 312.62
v 154.5182 -0.07272339 298.3635
v 153.5678 -0.07272339 298.3635
v 154.5182 -0.07272339 299.314
v 153.5678 -0.07272339 299.314
v 154.9934 -0.07272339 297.8883
v 154.5182 -0.07272339 297.8883
v 154.9934 -0.07272339 298.8387
v 154.5182 -0.07272339 298.8387
v 155.4687 -0.07272339 296.4626
v 154.5182 -0.07272339 296.4626
v 155.4687 -0.07272339 297.4131
v 154.5182 -0.07272339 297.4131
v 151.6669 -0.07272339 295.5122
v 150.7165 -0.07272339 295.5122
v 151.6669 -0.07272339 296.9379
v 150.7165 -0.07272339 296.9379
v 152.6174 -0.07272339 295.037
v 151.6669 -0.07272339 295.037
v 152.6174 -0.07272339 295.9874
v 151.6669 -0.07272339 295.9874
v 154.9934 -0.07272339 293.6113
v 154.043 -0.07272339 293.6113
v 154.9934 -0.07272339 294.5618
v 154.043 -0.07272339 294.5618
vt 0.1347656 0.9185662
vt 0.2060202 0.9185662
vt 0.1347656 1
vt 0.2060202 1
vt 0.1347656 0.9185662
vt 0.2060202 0.9185662
vt 0.1347656 1
vt 0.2060202 1
vt 0.1347656 0.9185662
vt 0.2060202 0.9185662
vt 0.1347656 1
vt 0.2060202 1
vt 0.1347656 0.9185662
vt 0.2060202 0.9185662
vt 0.1347656 1
vt 0.2060202 1
vt 0.1347656 0.9185662
vt 0.2060202 0.9185662
vt 0.1347656 1
vt 0.2060202 1
vt 0.1347656 0.9185662
vt 0.2060202 0.9185662
vt 0.1347656 1
vt 0.2060202 1
vt 0.1347656 0.9185662
vt 0.2060202 0.9185662
vt 0.1347656 1
vt 0.2060202 1
vt 0.1347656 0.9185662
vt 0.2060202 0.9185662
vt 0.1347656 1
vt 0.2060202 1
vt 0.1347656 0.9185662
vt 0.2060202 0.9185662
vt 0.1347656 1
vt 0.2060202 1
vt 0.1347656 0.9185662
vt 0.2060202 0.9185662
vt 0.1347656 1
vt 0.2060202 1
vt 0.1347656 0.9185662
vt 0.2060202 0.9185662
vt 0.1347656 1
vt 0.2060202 1
vt 0.1347656 0.9185662
vt 0.2060202 0.9185662
vt 0.1347656 1
vt 0.2060202 1
vt 0.1347656 0.9185662
vt 0.2060202 0.9185662
vt 0.1347656 1
vt 0.2060202 1
vt 0.1347656 0.9185662
vt 0.2060202 0.9185662
vt 0.1347656 1
vt 0.2060202 1
vt 0.1347656 0.9185662
vt 0.2060202 0.9185662
vt 0.1347656 1
vt 0.2060202 1
vt 0.1347656 0.9185662
vt 0.2060202 0.9185662
vt 0.1347656 1
vt 0.2060202 1
vt 0.1347656 0.9185662
vt 0.2060202 0.9185662
vt 0.1347656 1
vt 0.2060202 1
vt 0.1347656 0.9185662
vt 0.2060202 0.9185662
vt 0.1347656 1
vt 0.2060202 1
vt 0.1347656 0.9185662
vt 0.2060202 0.9185662
vt 0.1347656 1
vt 0.2060202 1
vt 0.1347656 0.9185662
vt 0.2060202 0.9185662
vt 0.1347656 1
vt 0.2060202 1
vt 0.1347656 0.9185662
vt 0.2060202 0.9185662
vt 0.1347656 1
vt 0.2060202 1
vn 0 1 0
vn 0 1 0
vn 0 1 0
vn 0 1 0
vn 0 1 0
vn 0 1 0
vn 0 1 0
vn 0 1 0
vn 0 1 0
vn 0 1 0
vn 0 1 0
vn 0 1 0
vn 0 1 0
vn 0 1 0
vn 0 1 0
vn 0 1 0
vn 0 1 0
vn 0 1 0
vn 0 1 0
vn 0 1 0
vn 0 1 0
vn 0 1 0
vn 0 1 0
vn 0 1 0
vn 0 1 0
vn 0 1 0
vn 0 1 0
vn 0 1 0
vn 0 1 0
vn 0 1 0
vn 0 1 0
vn 0 1 0
vn 0 1 0
vn 0 1 0
vn 0 1 0
vn 0 1 0
vn 0 1 0
vn 0 1 0
vn 0 1 0
vn 0 1 0
vn 0 1 0
vn 0 1 0
vn 0 1 0
vn 0 1 0
vn 0 1 0
vn 0 1 0
vn 0 1 0
vn 0 1 0
vn 0 1 0
vn 0 1 0
vn 0 1 0
vn 0 1 0
vn 0 1 0
vn 0 1 0
vn 0 1 0
vn 0 1 0
vn 0 1 0
vn 0 1 0
vn 0 1 0
vn 0 1 0
vn 0 1 0
vn 0 1 0
vn 0 1 0
vn 0 1 0
vn 0 1 0
vn 0 1 0
vn 0 1 0
vn 0 1 0
vn 0 1 0
vn 0 1 0
vn 0 1 0
vn 0 1 0
vn 0 1 0
vn 0 1 0
vn 0 1 0
vn 0 1 0
vn 0 1 0
vn 0 1 0
vn 0 1 0
vn 0 1 0
vn 0 1 0
vn 0 1 0
vn 0 1 0
vn 0 1 0
g Grass_2_Cluster224_0
f 2/2/2 3/3/3 1/1/1
f 2/2/2 4/4/4 3/3/3
f 6/6/6 7/7/7 5/5/5
f 6/6/6 8/8/8 7/7/7
f 10/10/10 11/11/11 9/9/9
f 10/10/10 12/12/12 11/11/11
f 14/14/14 15/15/15 13/13/13
f 14/14/14 16/16/16 15/15/15
f 18/18/18 19/19/19 17/17/17
f 18/18/18 20/20/20 19/19/19
f 22/22/22 23/23/23 21/21/21
f 22/22/22 24/24/24 23/23/23
f 26/26/26 27/27/27 25/25/25
f 26/26/26 28/28/28 27/27/27
f 30/30/30 31/31/31 29/29/29
f 30/30/30 32/32/32 31/31/31
f 34/34/34 35/35/35 33/33/33
f 34/34/34 36/36/36 35/35/35
f 38/38/38 39/39/39 37/37/37
f 38/38/38 40/40/40 39/39/39
f 42/42/42 43/43/43 41/41/41
f 42/42/42 44/44/44 43/43/43
f 46/46/46 47/47/47 45/45/45
f 46/46/46 48/48/48 47/47/47
f 50/50/50 51/51/51 49/49/49
f 50/50/50 52/52/52 51/51/51
f 54/54/54 55/55/55 53/53/53
f 54/54/54 56/56/56 55/55/55
f 58/58/58 59/59/59 57/57/57
f 58/58/58 60/60/60 59/59/59
f 62/62/62 63/63/63 61/61/61
f 62/62/62 64/64/64 63/63/63
f 66/66/66 67/67/67 65/65/65
f 66/66/66 68/68/68 67/67/67
f 70/70/70 71/71/71 69/69/69
f 70/70/70 72/72/72 71/71/71
f 74/74/74 75/75/75 73/73/73
f 74/74/74 76/76/76 75/75/75
f 78/78/78 79/79/79 77/77/77
f 78/78/78 80/80/80 79/79/79
f 82/82/82 83/83/83 81/81/81
f 82/82/82 84/84/84 83/83/83
