g Grass_2_Cluster242
v 234.4968 0.2447052 347.2291
v 233.3572 0.2447052 347.2291
v 234.4968 0.2447052 348.3686
v 233.3572 0.2447052 348.3686
v 228.7992 0.2447052 346.6593
v 227.6596 0.2447052 346.6593
v 228.7992 0.2447052 347.7988
v 227.6596 0.2447052 347.7988
v 232.7875 0.2447052 346.0895
v 232.2177 0.2447052 346.0895
v 232.7875 0.2447052 347.2291
v 232.2177 0.2447052 347.2291
v 232.2177 0.2447052 346.0895
v 231.648 0.2447052 346.0895
v 232.2177 0.2447052 346.6593
v 231.648 0.2447052 346.6593
v 229.9387 0.2447052 345.5198
v 229.3689 0.2447052 345.5198
v 229.9387 0.2447052 346.6593
v 229.3689 0.2447052 346.6593
v 233.927 0.2447052 345.5198
v 232.7875 0.2447052 345.5198
v 233.927 0.2447052 346.0895
v 232.7875 0.2447052 346.0895
v 231.648 0.2447052 344.95
v 230.5084 0.2447052 344.95
v 231.648 0.2447052 346.0895
v 230.5084 0.2447052 346.0895
v 233.3572 0.2447052 344.95
v 232.2177 0.2447052 344.95
v 233.3572 0.2447052 346.0895
v 232.2177 0.2447052 346.0895
v 231.0782 0.2447052 344.3802
v 229.9387 0.2447052 344.3802
v 231.0782 0.2447052 345.5198
v 229.9387 0.2447052 345.5198
v 232.7875 0.2447052 344.3802
v 231.648 0.2447052 344.3802
v 232.7875 0.2447052 345.5198
v 231.648 0.2447052 345.5198
v 231.648 0.2447052 343.8105
v 231.0782 0.2447052 343.8105
v 231.648 0.2447052 344.95
v 231.0782 0.2447052 344.95
v 222.5318 0.2447052 336.9734
v 221.3923 0.2447052 336.9734
v 222.5318 0.2447052 338.1129
v 221.3923 0.2447052 338.1129
v 223.1015 0.2447052 336.4036
v 221.962 0.2447052 336.4036
v 223.1015 0.2447052 337.5432
v 221.962 0.2447052 337.5432
v 221.3923 0.2447052 335.8339
v 220.2527 0.2447052 335.8339
v 221.3923 0.2447052 336.9734
v 220.2527 0.2447052 336.9734
v 224.2411 0.2447052 335.8339
v 223.1015 0.2447052 335.8339
v 224.2411 0.2447052 336.9734
v 223.1015 0.2447052 336.9734
v 221.962 0.2447052 335.2641
v 220.8225 0.2447052 335.2641
v 221.962 0.2447052 336.4036
v 220.8225 0.2447052 336.4036
v 223.6713 0.2447052 335.2641
v 222.5318 0.2447052 335.2641
v 223.6713 0.2447052 336.4036
v 222.5318 0.2447052 336.4036
v 220.8225 0.2447052 334.6943
v 219.683 0.2447052 334.6943
v 220.8225 0.2447052 336.4036
v 219.683 0.2447052 336.4036
v 221.962 0.2447052 334.6943
v 220.8225 0.2447052 334.6943
v 221.962 0.2447052 335.8339
v 220.8225 0.2447052 335.8339
v 220.8225 0.2447052 334.6943
v 219.683 0.2447052 334.6943
v 220.8225 0.2447052 335.8339
v 219.683 0.2447052 335.8339
v 224.8108 0.2447052 334.1246
v 223.6713 0.2447052 334.1246
v 224.8108 0.2447052 335.2641
v 223.6713 0.2447052 335.2641
v 221.962 0.2447052 334.1246
v 221.3923 0.2447052 334.1246
v 221.962 0.2447052 335.2641
v 221.3923 0.2447052 335.2641
v 223.1015 0.2447052 331.8455
v 221.962 0.2447052 331.8455
v 223.1015 0.2447052 332.985
v 221.962 0.2447052 332.985
v 227.6596 0.2447052 327.8572
v 226.5201 0.2447052 327.8572
v 227.6596 0.2447052 328.4269
v 226.5201 0.2447052 328.4269
v 229.3689 0.2447052 326.1479
v 228.2294 0.2447052 326.1479
v 229.3689 0.2447052 326.7177
v 228.2294 0.2447052 326.7177
v 227.0899 0.2447052 325.5782
v 225.9503 0.2447052 325.5782
v 227.0899 0.2447052 326.7177
v 225.9503 0.2447052 326.7177
v 229.9387 0.2447052 325.0084
v 228.7992 0.2447052 325.0084
v 229.9387 0.2447052 326.1479
v 228.7992 0.2447052 326.1479
vt 0.1347656 0.9185662
vt 0.2060202 0.9185662
vt 0.1347656 1
vt 0.2060202 1
vt 0.1347656 0.9185662
vt 0.2060202 0.9185662
vt 0.1347656 1
vt 0.2060202 1
vt 0.1347656 0.9185662
vt 0.2060202 0.9185662
vt 0.1347656 1
vt 0.2060202 1
vt 0.1347656 0.9185662
vt 0.2060202 0.9185662
vt 0.1347656 1
vt 0.2060202 1
vt 0.1347656 0.9185662
vt 0.2060202 0.9185662
vt 0.1347656 1
vt 0.2060202 1
vt 0.1347656 0.9185662
vt 0.2060202 0.9185662
vt 0.1347656 1
vt 0.2060202 1
vt 0.1347656 0.9185662
vt 0.2060202 0.9185662
vt 0.1347656 1
vt 0.2060202 1
vt 0.1347656 0.9185662
vt 0.2060202 0.9185662
vt 0.1347656 1
vt 0.2060202 1
vt 0.1347656 0.9185662
vt 0.2060202 0.9185662
vt 0.1347656 1
vt 0.2060202 1
vt 0.1347656 0.9185662
vt 0.2060202 0.9185662
vt 0.1347656 1
vt 0.2060202 1
vt 0.1347656 0.9185662
vt 0.2060202 0.9185662
vt 0.1347656 1
vt 0.2060202 1
vt 0.1347656 0.9185662
vt 0.2060202 0.9185662
vt 0.1347656 1
vt 0.2060202 1
vt 0.1347656 0.9185662
vt 0.2060202 0.9185662
vt 0.1347656 1
vt 0.2060202 1
vt 0.1347656 0.9185662
vt 0.2060202 0.9185662
vt 0.1347656 1
vt 0.2060202 1
vt 0.1347656 0.9185662
vt 0.2060202 0.9185662
vt 0.1347656 1
vt 0.2060202 1
vt 0.1347656 0.9185662
vt 0.2060202 0.9185662
vt 0.1347656 1
vt 0.2060202 1
vt 0.1347656 0.9185662
vt 0.2060202 0.9185662
vt 0.1347656 1
vt 0.2060202 1
vt 0.1347656 0.9185662
vt 0.2060202 0.9185662
vt 0.1347656 1
vt 0.2060202 1
vt 0.1347656 0.9185662
vt 0.2060202 0.9185662
vt 0.1347656 1
vt 0.2060202 1
vt 0.1347656 0.9185662
vt 0.2060202 0.9185662
vt 0.1347656 1
vt 0.2060202 1
vt 0.1347656 0.9185662
vt 0.2060202 0.9185662
vt 0.1347656 1
vt 0.2060202 1
vt 0.1347656 0.9185662
vt 0.2060202 0.9185662
vt 0.1347656 1
vt 0.2060202 1
vt 0.1347656 0.9185662
vt 0.2060202 0.9185662
vt 0.1347656 1
vt 0.2060202 1
vt 0.1347656 0.9185662
vt 0.2060202 0.9185662
vt 0.1347656 1
vt 0.2060202 1
vt 0.1347656 0.9185662
vt 0.2060202 0.9185662
vt 0.1347656 1
vt 0.2060202 1
vt 0.1347656 0.9185662
vt 0.2060202 0.9185662
vt 0.1347656 1
vt 0.2060202 1
vt 0.1347656 0.9185662
vt 0.2060202 0.9185662
vt 0.1347656 1
vt 0.2060202 1
vn 0 1 0
vn 0 1 0
vn 0 1 0
vn 0 1 0
vn 0 1 0
vn 0 1 0
vn 0 1 0
vn 0 1 0
vn 0 1 0
vn 0 1 0
vn 0 1 0
vn 0 1 0
vn 0 1 0
vn 0 1 0
vn 0 1 0
vn 0 1 0
vn 0 1 0
vn 0 1 0
vn 0 1 0
vn 0 1 0
vn 0 1 0
vn 0 1 0
vn 0 1 0
vn 0 1 0
vn 0 1 0
vn 0 1 0
vn 0 1 0
vn 0 1 0
vn 0 1 0
vn 0 1 0
vn 0 1 0
vn 0 1 0
vn 0 1 0
vn 0 1 0
vn 0 1 0
vn 0 1 0
vn 0 1 0
vn 0 1 0
vn 0 1 0
vn 0 1 0
vn 0 1 0
vn 0 1 0
vn 0 1 0
vn 0 1 0
vn 0 1 0
vn 0 1 0
vn 0 1 0
vn 0 1 0
vn 0 1 0
vn 0 1 0
vn 0 1 0
vn 0 1 0
vn 0 1 0
vn 0 1 0
vn 0 1 0
vn 0 1 0
vn 0 1 0
vn 0 1 0
vn 0 1 0
vn 0 1 0
vn 0 1 0
vn 0 1 0
vn 0 1 0
vn 0 1 0
vn 0 1 0
vn 0 1 0
vn 0 1 0
vn 0 1 0
vn 0 1 0
vn 0 1 0
vn 0 1 0
vn 0 1 0
vn 0 1 0
vn 0 1 0
vn 0 1 0
vn 0 1 0
vn 0 1 0
vn 0 1 0
vn 0 1 0
vn 0 1 0
vn 0 1 0
vn 0 1 0
vn 0 1 0
vn 0 1 0
vn 0 1 0
vn 0 1 0
vn 0 1 0
vn 0 1 0
vn 0 1 0
vn 0 1 0
vn 0 1 0
vn 0 1 0
vn 0 1 0
vn 0 1 0
vn 0 1 0
vn 0 1 0
vn 0 1 0
vn 0 1 0
vn 0 1 0
vn 0 1 0
vn 0 1 0
vn 0 1 0
vn 0 1 0
vn 0 1 0
vn 0 1 0
vn 0 1 0
vn 0 1 0
vn 0 1 0
g Grass_2_Cluster242_0
f 2/2/2 3/3/3 1/1/1
f 2/2/2 4/4/4 3/3/3
f 6/6/6 7/7/7 5/5/5
f 6/6/6 8/8/8 7/7/7
f 10/10/10 11/11/11 9/9/9
f 10/10/10 12/12/12 11/11/11
f 14/14/14 15/15/15 13/13/13
f 14/14/14 16/16/16 15/15/15
f 18/18/18 19/19/19 17/17/17
f 18/18/18 20/20/20 19/19/19
f 22/22/22 23/23/23 21/21/21
f 22/22/22 24/24/24 23/23/23
f 26/26/26 27/27/27 25/25/25
f 26/26/26 28/28/28 27/27/27
f 30/30/30 31/31/31 29/29/29
f 30/30/30 32/32/32 31/31/31
f 34/34/34 35/35/35 33/33/33
f 34/34/34 36/36/36 35/35/35
f 38/38/38 39/39/39 37/37/37
f 38/38/38 40/40/40 39/39/39
f 42/42/42 43/43/43 41/41/41
f 42/42/42 44/44/44 43/43/43
f 46/46/46 47/47/47 45/45/45
f 46/46/46 48/48/48 47/47/47
f 50/50/50 51/51/51 49/49/49
f 50/50/50 52/52/52 51/51/51
f 54/54/54 55/55/55 53/53/53
f 54/54/54 56/56/56 55/55/55
f 58/58/58 59/59/59 57/57/57
f 58/58/58 60/60/60 59/59/59
f 62/62/62 63/63/63 61/61/61
f 62/62/62 64/64/64 63/63/63
f 66/66/66 67/67/67 65/65/65
f 66/66/66 68/68/68 67/67/67
f 70/70/70 71/71/71 69/69/69
f 70/70/70 72/72/72 71/71/71
f 74/74/74 75/75/75 73/73/73
f 74/74/74 76/76/76 75/75/75
f 78/78/78 79/79/79 77/77/77
f 78/78/78 80/80/80 79/79/79
f 82/82/82 83/83/83 81/81/81
f 82/82/82 84/84/84 83/83/83
f 86/86/86 87/87/87 85/85/85
f 86/86/86 88/88/88 87/87/87
f 90/90/90 91/91/91 89/89/89
f 90/90/90 92/92/92 91/91/91
f 94/94/94 95/95/95 93/93/93
f 94/94/94 96/96/96 95/95/95
f 98/98/98 99/99/99 97/97/97
f 98/98/98 100/100/100 99/99/99
f 102/102/102 103/103/103 101/101/101
f 102/102/102 104/104/104 103/103/103
f 106/106/106 107/107/107 105/105/105
f 106/106/106 108/108/108 107/107/107
