g Grass_2_Cluster305
v 134.6308 -0.1364746 438.2577
v 133.4861 -0.1364746 438.2577
v 134.6308 -0.1364746 439.4023
v 133.4861 -0.1364746 439.4023
v 131.7692 -0.1364746 436.5407
v 131.1969 -0.1364746 436.5407
v 131.7692 -0.1364746 437.6854
v 131.1969 -0.1364746 437.6854
v 130.6246 -0.1364746 435.9684
v 129.4799 -0.1364746 435.9684
v 130.6246 -0.1364746 437.113
v 129.4799 -0.1364746 437.113
v 132.9138 -0.1364746 435.9684
v 131.7692 -0.1364746 435.9684
v 132.9138 -0.1364746 437.113
v 131.7692 -0.1364746 437.113
v 132.9138 -0.1364746 435.9684
v 131.7692 -0.1364746 435.9684
v 132.9138 -0.1364746 437.113
v 131.7692 -0.1364746 437.113
v 129.4799 -0.1364746 435.3961
v 128.9076 -0.1364746 435.3961
v 129.4799 -0.1364746 436.5407
v 128.9076 -0.1364746 436.5407
v 131.7692 -0.1364746 435.3961
v 130.6246 -0.1364746 435.3961
v 131.7692 -0.1364746 436.5407
v 130.6246 -0.1364746 436.5407
v 132.3415 -0.1364746 434.8238
v 131.1969 -0.1364746 434.8238
v 132.3415 -0.1364746 435.9684
v 131.1969 -0.1364746 435.9684
v 128.9076 -0.1364746 434.8238
v 127.763 -0.1364746 434.8238
v 128.9076 -0.1364746 435.9684
v 127.763 -0.1364746 435.9684
v 125.4737 -0.1364746 434.2515
v 124.3291 -0.1364746 434.2515
v 125.4737 -0.1364746 435.3961
v 124.3291 -0.1364746 435.3961
v 127.763 -0.1364746 433.6791
v 127.1907 -0.1364746 433.6791
v 127.763 -0.1364746 434.8238
v 127.1907 -0.1364746 434.8238
v 126.6183 -0.1364746 433.6791
v 125.4737 -0.1364746 433.6791
v 126.6183 -0.1364746 434.8238
v 125.4737 -0.1364746 434.8238
v 125.4737 -0.1364746 433.6791
v 124.9014 -0.1364746 433.6791
v 125.4737 -0.1364746 434.8238
v 124.9014 -0.1364746 434.8238
v 128.3353 -0.1364746 433.6791
v 127.763 -0.1364746 433.6791
v 128.3353 -0.1364746 434.8238
v 127.763 -0.1364746 434.8238
v 129.4799 -0.1364746 433.6791
v 128.9076 -0.1364746 433.6791
v 129.4799 -0.1364746 434.8238
v 128.9076 -0.1364746 434.8238
v 127.1907 -0.1364746 433.1068
v 126.046 -0.1364746 433.1068
v 127.1907 -0.1364746 434.2515
v 126.046 -0.1364746 434.2515
v 124.3291 -0.1364746 433.1068
v 123.7568 -0.1364746 433.1068
v 124.3291 -0.1364746 434.2515
v 123.7568 -0.1364746 434.2515
v 128.3353 -0.1364746 432.5345
v 127.1907 -0.1364746 432.5345
v 128.3353 -0.1364746 433.6791
v 127.1907 -0.1364746 433.6791
v 126.6183 -0.1364746 432.5345
v 126.046 -0.1364746 432.5345
v 126.6183 -0.1364746 433.6791
v 126.046 -0.1364746 433.6791
v 125.4737 -0.1364746 432.5345
v 124.3291 -0.1364746 432.5345
v 125.4737 -0.1364746 433.6791
v 124.3291 -0.1364746 433.6791
v 129.4799 -0.1364746 431.9622
v 128.9076 -0.1364746 431.9622
v 129.4799 -0.1364746 433.1068
v 128.9076 -0.1364746 433.1068
v 127.1907 -0.1364746 431.9622
v 126.6183 -0.1364746 431.9622
v 127.1907 -0.1364746 432.5345
v 126.6183 -0.1364746 432.5345
v 124.9014 -0.1364746 431.3899
v 124.3291 -0.1364746 431.3899
v 124.9014 -0.1364746 432.5345
v 124.3291 -0.1364746 432.5345
v 123.1844 -0.1364746 430.8176
v 122.0398 -0.1364746 430.8176
v 123.1844 -0.1364746 431.9622
v 122.0398 -0.1364746 431.9622
v 126.046 -0.1364746 430.2452
v 125.4737 -0.1364746 430.2452
v 126.046 -0.1364746 431.3899
v 125.4737 -0.1364746 431.3899
v 127.1907 -0.1364746 430.2452
v 126.6183 -0.1364746 430.2452
v 127.1907 -0.1364746 431.3899
v 126.6183 -0.1364746 431.3899
v 124.9014 -0.1364746 430.2452
v 123.7568 -0.1364746 430.2452
v 124.9014 -0.1364746 431.3899
v 123.7568 -0.1364746 431.3899
v 123.7568 -0.1364746 429.6729
v 123.1844 -0.1364746 429.6729
v 123.7568 -0.1364746 430.8176
v 123.1844 -0.1364746 430.8176
v 124.3291 -0.1364746 429.1006
v 123.7568 -0.1364746 429.1006
v 124.3291 -0.1364746 430.2452
v 123.7568 -0.1364746 430.2452
v 124.3291 -0.1364746 428.5283
v 123.7568 -0.1364746 428.5283
v 124.3291 -0.1364746 429.1006
v 123.7568 -0.1364746 429.1006
v 123.1844 -0.1364746 427.956
v 122.0398 -0.1364746 427.956
v 123.1844 -0.1364746 429.1006
v 122.0398 -0.1364746 429.1006
v 124.9014 -0.1364746 423.3774
v 123.7568 -0.1364746 423.3774
v 124.9014 -0.1364746 424.5221
v 123.7568 -0.1364746 424.5221
v 125.4737 -0.1364746 423.3774
v 124.3291 -0.1364746 423.3774
v 125.4737 -0.1364746 424.5221
v 124.3291 -0.1364746 424.5221
v 146.0771 -0.1364746 413.0757
v 144.9324 -0.1364746 413.0757
v 146.0771 -0.1364746 414.2204
v 144.9324 -0.1364746 414.2204
vt 0.1347656 0.9185662
vt 0.2060202 0.9185662
vt 0.1347656 1
vt 0.2060202 1
vt 0.1347656 0.9185662
vt 0.2060202 0.9185662
vt 0.1347656 1
vt 0.2060202 1
vt 0.1347656 0.9185662
vt 0.2060202 0.9185662
vt 0.1347656 1
vt 0.2060202 1
vt 0.1347656 0.9185662
vt 0.2060202 0.9185662
vt 0.1347656 1
vt 0.2060202 1
vt 0.1347656 0.9185662
vt 0.2060202 0.9185662
vt 0.1347656 1
vt 0.2060202 1
vt 0.1347656 0.9185662
vt 0.2060202 0.9185662
vt 0.1347656 1
vt 0.2060202 1
vt 0.1347656 0.9185662
vt 0.2060202 0.9185662
vt 0.1347656 1
vt 0.2060202 1
vt 0.1347656 0.9185662
vt 0.2060202 0.9185662
vt 0.1347656 1
vt 0.2060202 1
vt 0.1347656 0.9185662
vt 0.2060202 0.9185662
vt 0.1347656 1
vt 0.2060202 1
vt 0.1347656 0.9185662
vt 0.2060202 0.9185662
vt 0.1347656 1
vt 0.2060202 1
vt 0.1347656 0.9185662
vt 0.2060202 0.9185662
vt 0.1347656 1
vt 0.2060202 1
vt 0.1347656 0.9185662
vt 0.2060202 0.9185662
vt 0.1347656 1
vt 0.2060202 1
vt 0.1347656 0.9185662
vt 0.2060202 0.9185662
vt 0.1347656 1
vt 0.2060202 1
vt 0.1347656 0.9185662
vt 0.2060202 0.9185662
vt 0.1347656 1
vt 0.2060202 1
vt 0.1347656 0.9185662
vt 0.2060202 0.9185662
vt 0.1347656 1
vt 0.2060202 1
vt 0.1347656 0.9185662
vt 0.2060202 0.9185662
vt 0.1347656 1
vt 0.2060202 1
vt 0.1347656 0.9185662
vt 0.2060202 0.9185662
vt 0.1347656 1
vt 0.2060202 1
vt 0.1347656 0.9185662
vt 0.2060202 0.9185662
vt 0.1347656 1
vt 0.2060202 1
vt 0.1347656 0.9185662
vt 0.2060202 0.9185662
vt 0.1347656 1
vt 0.2060202 1
vt 0.1347656 0.9185662
vt 0.2060202 0.9185662
vt 0.1347656 1
vt 0.2060202 1
vt 0.1347656 0.9185662
vt 0.2060202 0.9185662
vt 0.1347656 1
vt 0.2060202 1
vt 0.1347656 0.9185662
vt 0.2060202 0.9185662
vt 0.1347656 1
vt 0.2060202 1
vt 0.1347656 0.9185662
vt 0.2060202 0.9185662
vt 0.1347656 1
vt 0.2060202 1
vt 0.1347656 0.9185662
vt 0.2060202 0.9185662
vt 0.1347656 1
vt 0.2060202 1
vt 0.1347656 0.9185662
vt 0.2060202 0.9185662
vt 0.1347656 1
vt 0.2060202 1
vt 0.1347656 0.9185662
vt 0.2060202 0.9185662
vt 0.1347656 1
vt 0.2060202 1
vt 0.1347656 0.9185662
vt 0.2060202 0.9185662
vt 0.1347656 1
vt 0.2060202 1
vt 0.1347656 0.9185662
vt 0.2060202 0.9185662
vt 0.1347656 1
vt 0.2060202 1
vt 0.1347656 0.9185662
vt 0.2060202 0.9185662
vt 0.1347656 1
vt 0.2060202 1
vt 0.1347656 0.9185662
vt 0.2060202 0.9185662
vt 0.1347656 1
vt 0.2060202 1
vt 0.1347656 0.9185662
vt 0.2060202 0.9185662
vt 0.1347656 1
vt 0.2060202 1
vt 0.1347656 0.9185662
vt 0.2060202 0.9185662
vt 0.1347656 1
vt 0.2060202 1
vt 0.1347656 0.9185662
vt 0.2060202 0.9185662
vt 0.1347656 1
vt 0.2060202 1
vt 0.1347656 0.9185662
vt 0.2060202 0.9185662
vt 0.1347656 1
vt 0.2060202 1
vn 0 1 0
vn 0 1 0
vn 0 1 0
vn 0 1 0
vn 0 1 0
vn 0 1 0
vn 0 1 0
vn 0 1 0
vn 0 1 0
vn 0 1 0
vn 0 1 0
vn 0 1 0
vn 0 1 0
vn 0 1 0
vn 0 1 0
vn 0 1 0
vn 0 1 0
vn 0 1 0
vn 0 1 0
vn 0 1 0
vn 0 1 0
vn 0 1 0
vn 0 1 0
vn 0 1 0
vn 0 1 0
vn 0 1 0
vn 0 1 0
vn 0 1 0
vn 0 1 0
vn 0 1 0
vn 0 1 0
vn 0 1 0
vn 0 1 0
vn 0 1 0
vn 0 1 0
vn 0 1 0
vn 0 1 0
vn 0 1 0
vn 0 1 0
vn 0 1 0
vn 0 1 0
vn 0 1 0
vn 0 1 0
vn 0 1 0
vn 0 1 0
vn 0 1 0
vn 0 1 0
vn 0 1 0
vn 0 1 0
vn 0 1 0
vn 0 1 0
vn 0 1 0
vn 0 1 0
vn 0 1 0
vn 0 1 0
vn 0 1 0
vn 0 1 0
vn 0 1 0
vn 0 1 0
vn 0 1 0
vn 0 1 0
vn 0 1 0
vn 0 1 0
vn 0 1 0
vn 0 1 0
vn 0 1 0
vn 0 1 0
vn 0 1 0
vn 0 1 0
vn 0 1 0
vn 0 1 0
vn 0 1 0
vn 0 1 0
vn 0 1 0
vn 0 1 0
vn 0 1 0
vn 0 1 0
vn 0 1 0
vn 0 1 0
vn 0 1 0
vn 0 1 0
vn 0 1 0
vn 0 1 0
vn 0 1 0
vn 0 1 0
vn 0 1 0
vn 0 1 0
vn 0 1 0
vn 0 1 0
vn 0 1 0
vn 0 1 0
vn 0 1 0
vn 0 1 0
vn 0 1 0
vn 0 1 0
vn 0 1 0
vn 0 1 0
vn 0 1 0
vn 0 1 0
vn 0 1 0
vn 0 1 0
vn 0 1 0
vn 0 1 0
vn 0 1 0
vn 0 1 0
vn 0 1 0
vn 0 1 0
vn 0 1 0
vn 0 1 0
vn 0 1 0
vn 0 1 0
vn 0 1 0
vn 0 1 0
vn 0 1 0
vn 0 1 0
vn 0 1 0
vn 0 1 0
vn 0 1 0
vn 0 1 0
vn 0 1 0
vn 0 1 0
vn 0 1 0
vn 0 1 0
vn 0 1 0
vn 0 1 0
vn 0 1 0
vn 0 1 0
vn 0 1 0
vn 0 1 0
vn 0 1 0
vn 0 1 0
vn 0 1 0
vn 0 1 0
vn 0 1 0
vn 0 1 0
vn 0 1 0
g Grass_2_Cluster305_0
f 2/2/2 3/3/3 1/1/1
f 2/2/2 4/4/4 3/3/3
f 6/6/6 7/7/7 5/5/5
f 6/6/6 8/8/8 7/7/7
f 10/10/10 11/11/11 9/9/9
f 10/10/10 12/12/12 11/11/11
f 14/14/14 15/15/15 13/13/13
f 14/14/14 16/16/16 15/15/15
f 18/18/18 19/19/19 17/17/17
f 18/18/18 20/20/20 19/19/19
f 22/22/22 23/23/23 21/21/21
f 22/22/22 24/24/24 23/23/23
f 26/26/26 27/27/27 25/25/25
f 26/26/26 28/28/28 27/27/27
f 30/30/30 31/31/31 29/29/29
f 30/30/30 32/32/32 31/31/31
f 34/34/34 35/35/35 33/33/33
f 34/34/34 36/36/36 35/35/35
f 38/38/38 39/39/39 37/37/37
f 38/38/38 40/40/40 39/39/39
f 42/42/42 43/43/43 41/41/41
f 42/42/42 44/44/44 43/43/43
f 46/46/46 47/47/47 45/45/45
f 46/46/46 48/48/48 47/47/47
f 50/50/50 51/51/51 49/49/49
f 50/50/50 52/52/52 51/51/51
f 54/54/54 55/55/55 53/53/53
f 54/54/54 56/56/56 55/55/55
f 58/58/58 59/59/59 57/57/57
f 58/58/58 60/60/60 59/59/59
f 62/62/62 63/63/63 61/61/61
f 62/62/62 64/64/64 63/63/63
f 66/66/66 67/67/67 65/65/65
f 66/66/66 68/68/68 67/67/67
f 70/70/70 71/71/71 69/69/69
f 70/70/70 72/72/72 71/71/71
f 74/74/74 75/75/75 73/73/73
f 74/74/74 76/76/76 75/75/75
f 78/78/78 79/79/79 77/77/77
f 78/78/78 80/80/80 79/79/79
f 82/82/82 83/83/83 81/81/81
f 82/82/82 84/84/84 83/83/83
f 86/86/86 87/87/87 85/85/85
f 86/86/86 88/88/88 87/87/87
f 90/90/90 91/91/91 89/89/89
f 90/90/90 92/92/92 91/91/91
f 94/94/94 95/95/95 93/93/93
f 94/94/94 96/96/96 95/95/95
f 98/98/98 99/99/99 97/97/97
f 98/98/98 100/100/100 99/99/99
f 102/102/102 103/103/103 101/101/101
f 102/102/102 104/104/104 103/103/103
f 106/106/106 107/107/107 105/105/105
f 106/106/106 108/108/108 107/107/107
f 110/110/110 111/111/111 109/109/109
f 110/110/110 112/112/112 111/111/111
f 114/114/114 115/115/115 113/113/113
f 114/114/114 116/116/116 115/115/115
f 118/118/118 119/119/119 117/117/117
f 118/118/118 120/120/120 119/119/119
f 122/122/122 123/123/123 121/121/121
f 122/122/122 124/124/124 123/123/123
f 126/126/126 127/127/127 125/125/125
f 126/126/126 128/128/128 127/127/127
f 130/130/130 131/131/131 129/129/129
f 130/130/130 132/132/132 131/131/131
f 134/134/134 135/135/135 133/133/133
f 134/134/134 136/136/136 135/135/135
