g Grass_2_Cluster227
v 74.58577 -0.1359711 320.8787
v 73.38496 -0.1359711 320.8787
v 74.58577 -0.1359711 322.0795
v 73.38496 -0.1359711 322.0795
v 72.9847 -0.1359711 318.4771
v 71.78389 -0.1359711 318.4771
v 72.9847 -0.1359711 319.6779
v 71.78389 -0.1359711 319.6779
v 60.97666 -0.1359711 316.4758
v 59.77586 -0.1359711 316.4758
v 60.97666 -0.1359711 317.6766
v 59.77586 -0.1359711 317.6766
v 62.17747 -0.1359711 315.6752
v 61.37693 -0.1359711 315.6752
v 62.17747 -0.1359711 316.876
v 61.37693 -0.1359711 316.876
v 62.17747 -0.1359711 314.8747
v 60.97666 -0.1359711 314.8747
v 62.17747 -0.1359711 316.0755
v 60.97666 -0.1359711 316.0755
v 62.978 -0.1359711 314.8747
v 62.17747 -0.1359711 314.8747
v 62.978 -0.1359711 316.0755
v 62.17747 -0.1359711 316.0755
v 63.77854 -0.1359711 314.4744
v 62.978 -0.1359711 314.4744
v 63.77854 -0.1359711 315.6752
v 62.978 -0.1359711 315.6752
v 68.58175 -0.1359711 314.0742
v 67.78122 -0.1359711 314.0742
v 68.58175 -0.1359711 315.275
v 67.78122 -0.1359711 315.275
v 86.19353 -0.1359711 313.6739
v 85.393 -0.1359711 313.6739
v 86.19353 -0.1359711 314.8747
v 85.393 -0.1359711 314.8747
v 65.77988 -0.1359711 313.6739
v 64.57907 -0.1359711 313.6739
v 65.77988 -0.1359711 314.8747
v 64.57907 -0.1359711 314.8747
v 65.37961 -0.1359711 313.2736
v 64.57907 -0.1359711 313.2736
v 65.37961 -0.1359711 314.4744
v 64.57907 -0.1359711 314.4744
v 64.1788 -0.1359711 313.2736
v 63.37827 -0.1359711 313.2736
v 64.1788 -0.1359711 314.4744
v 63.37827 -0.1359711 314.4744
v 86.19353 -0.1359711 312.8734
v 84.99273 -0.1359711 312.8734
v 86.19353 -0.1359711 314.0742
v 84.99273 -0.1359711 314.0742
v 85.393 -0.1359711 312.8734
v 84.19219 -0.1359711 312.8734
v 85.393 -0.1359711 314.0742
v 84.19219 -0.1359711 314.0742
v 62.978 -0.1359711 312.8734
v 62.17747 -0.1359711 312.8734
v 62.978 -0.1359711 314.0742
v 62.17747 -0.1359711 314.0742
v 87.39433 -0.1359711 312.0728
v 86.19353 -0.1359711 312.0728
v 87.39433 -0.1359711 313.2736
v 86.19353 -0.1359711 313.2736
v 86.99406 -0.1359711 311.6725
v 86.19353 -0.1359711 311.6725
v 86.99406 -0.1359711 312.8734
v 86.19353 -0.1359711 312.8734
v 83.39165 -0.1359711 311.2723
v 82.19085 -0.1359711 311.2723
v 83.39165 -0.1359711 312.4731
v 82.19085 -0.1359711 312.4731
v 85.393 -0.1359711 310.4717
v 84.59246 -0.1359711 310.4717
v 85.393 -0.1359711 311.6725
v 84.59246 -0.1359711 311.6725
v 83.79192 -0.1359711 310.4717
v 82.99139 -0.1359711 310.4717
v 83.79192 -0.1359711 311.2723
v 82.99139 -0.1359711 311.2723
v 86.5938 -0.1359711 309.6712
v 85.393 -0.1359711 309.6712
v 86.5938 -0.1359711 310.872
v 85.393 -0.1359711 310.872
v 84.19219 -0.1359711 309.6712
v 83.39165 -0.1359711 309.6712
v 84.19219 -0.1359711 310.872
v 83.39165 -0.1359711 310.872
v 87.39433 -0.1359711 309.2709
v 86.5938 -0.1359711 309.2709
v 87.39433 -0.1359711 310.4717
v 86.5938 -0.1359711 310.4717
v 82.99139 -0.1359711 308.8707
v 82.19085 -0.1359711 308.8707
v 82.99139 -0.1359711 310.0715
v 82.19085 -0.1359711 310.0715
v 84.99273 -0.1359711 308.0701
v 83.79192 -0.1359711 308.0701
v 84.99273 -0.1359711 309.2709
v 83.79192 -0.1359711 309.2709
v 83.79192 -0.1359711 308.0701
v 82.59112 -0.1359711 308.0701
v 83.79192 -0.1359711 308.8707
v 82.59112 -0.1359711 308.8707
v 69.38229 -0.1359711 307.2697
v 68.18148 -0.1359711 307.2697
v 69.38229 -0.1359711 308.4704
v 68.18148 -0.1359711 308.4704
v 66.98068 -0.1359711 306.4691
v 65.77988 -0.1359711 306.4691
v 66.98068 -0.1359711 307.6699
v 65.77988 -0.1359711 307.6699
v 82.99139 -0.1359711 306.0688
v 82.19085 -0.1359711 306.0688
v 82.99139 -0.1359711 307.2697
v 82.19085 -0.1359711 307.2697
v 84.99273 -0.1359711 305.6686
v 83.79192 -0.1359711 305.6686
v 84.99273 -0.1359711 306.8694
v 83.79192 -0.1359711 306.8694
v 77.38764 -0.1359711 305.2683
v 76.5871 -0.1359711 305.2683
v 77.38764 -0.1359711 306.0688
v 76.5871 -0.1359711 306.0688
v 85.393 -0.1359711 304.4678
v 84.59246 -0.1359711 304.4678
v 85.393 -0.1359711 305.6686
v 84.59246 -0.1359711 305.6686
v 76.18684 -0.1359711 304.0675
v 75.3863 -0.1359711 304.0675
v 76.18684 -0.1359711 304.868
v 75.3863 -0.1359711 304.868
v 60.5764 -0.1359711 296.8627
v 59.77586 -0.1359711 296.8627
v 60.5764 -0.1359711 298.0635
v 59.77586 -0.1359711 298.0635
v 62.978 -0.1359711 296.4624
v 62.17747 -0.1359711 296.4624
v 62.978 -0.1359711 297.2629
v 62.17747 -0.1359711 297.2629
v 80.58978 -0.1359711 295.6619
v 79.38898 -0.1359711 295.6619
v 80.58978 -0.1359711 296.8627
v 79.38898 -0.1359711 296.8627
v 61.37693 -0.1359711 295.2616
v 60.5764 -0.1359711 295.2616
v 61.37693 -0.1359711 296.4624
v 60.5764 -0.1359711 296.4624
v 61.7772 -0.1359711 294.0608
v 60.97666 -0.1359711 294.0608
v 61.7772 -0.1359711 295.2616
v 60.97666 -0.1359711 295.2616
vt 0.1347656 0.9185662
vt 0.2060202 0.9185662
vt 0.1347656 1
vt 0.2060202 1
vt 0.1347656 0.9185662
vt 0.2060202 0.9185662
vt 0.1347656 1
vt 0.2060202 1
vt 0.1347656 0.9185662
vt 0.2060202 0.9185662
vt 0.1347656 1
vt 0.2060202 1
vt 0.1347656 0.9185662
vt 0.2060202 0.9185662
vt 0.1347656 1
vt 0.2060202 1
vt 0.1347656 0.9185662
vt 0.2060202 0.9185662
vt 0.1347656 1
vt 0.2060202 1
vt 0.1347656 0.9185662
vt 0.2060202 0.9185662
vt 0.1347656 1
vt 0.2060202 1
vt 0.1347656 0.9185662
vt 0.2060202 0.9185662
vt 0.1347656 1
vt 0.2060202 1
vt 0.1347656 0.9185662
vt 0.2060202 0.9185662
vt 0.1347656 1
vt 0.2060202 1
vt 0.1347656 0.9185662
vt 0.2060202 0.9185662
vt 0.1347656 1
vt 0.2060202 1
vt 0.1347656 0.9185662
vt 0.2060202 0.9185662
vt 0.1347656 1
vt 0.2060202 1
vt 0.1347656 0.9185662
vt 0.2060202 0.9185662
vt 0.1347656 1
vt 0.2060202 1
vt 0.1347656 0.9185662
vt 0.2060202 0.9185662
vt 0.1347656 1
vt 0.2060202 1
vt 0.1347656 0.9185662
vt 0.2060202 0.9185662
vt 0.1347656 1
vt 0.2060202 1
vt 0.1347656 0.9185662
vt 0.2060202 0.9185662
vt 0.1347656 1
vt 0.2060202 1
vt 0.1347656 0.9185662
vt 0.2060202 0.9185662
vt 0.1347656 1
vt 0.2060202 1
vt 0.1347656 0.9185662
vt 0.2060202 0.9185662
vt 0.1347656 1
vt 0.2060202 1
vt 0.1347656 0.9185662
vt 0.2060202 0.9185662
vt 0.1347656 1
vt 0.2060202 1
vt 0.1347656 0.9185662
vt 0.2060202 0.9185662
vt 0.1347656 1
vt 0.2060202 1
vt 0.1347656 0.9185662
vt 0.2060202 0.9185662
vt 0.1347656 1
vt 0.2060202 1
vt 0.1347656 0.9185662
vt 0.2060202 0.9185662
vt 0.1347656 1
vt 0.2060202 1
vt 0.1347656 0.9185662
vt 0.2060202 0.9185662
vt 0.1347656 1
vt 0.2060202 1
vt 0.1347656 0.9185662
vt 0.2060202 0.9185662
vt 0.1347656 1
vt 0.2060202 1
vt 0.1347656 0.9185662
vt 0.2060202 0.9185662
vt 0.1347656 1
vt 0.2060202 1
vt 0.1347656 0.9185662
vt 0.2060202 0.9185662
vt 0.1347656 1
vt 0.2060202 1
vt 0.1347656 0.9185662
vt 0.2060202 0.9185662
vt 0.1347656 1
vt 0.2060202 1
vt 0.1347656 0.9185662
vt 0.2060202 0.9185662
vt 0.1347656 1
vt 0.2060202 1
vt 0.1347656 0.9185662
vt 0.2060202 0.9185662
vt 0.1347656 1
vt 0.2060202 1
vt 0.1347656 0.9185662
vt 0.2060202 0.9185662
vt 0.1347656 1
vt 0.2060202 1
vt 0.1347656 0.9185662
vt 0.2060202 0.9185662
vt 0.1347656 1
vt 0.2060202 1
vt 0.1347656 0.9185662
vt 0.2060202 0.9185662
vt 0.1347656 1
vt 0.2060202 1
vt 0.1347656 0.9185662
vt 0.2060202 0.9185662
vt 0.1347656 1
vt 0.2060202 1
vt 0.1347656 0.9185662
vt 0.2060202 0.9185662
vt 0.1347656 1
vt 0.2060202 1
vt 0.1347656 0.9185662
vt 0.2060202 0.9185662
vt 0.1347656 1
vt 0.2060202 1
vt 0.1347656 0.9185662
vt 0.2060202 0.9185662
vt 0.1347656 1
vt 0.2060202 1
vt 0.1347656 0.9185662
vt 0.2060202 0.9185662
vt 0.1347656 1
vt 0.2060202 1
vt 0.1347656 0.9185662
vt 0.2060202 0.9185662
vt 0.1347656 1
vt 0.2060202 1
vt 0.1347656 0.9185662
vt 0.2060202 0.9185662
vt 0.1347656 1
vt 0.2060202 1
vt 0.1347656 0.9185662
vt 0.2060202 0.9185662
vt 0.1347656 1
vt 0.2060202 1
vn 0 1 0
vn 0 1 0
vn 0 1 0
vn 0 1 0
vn 0 1 0
vn 0 1 0
vn 0 1 0
vn 0 1 0
vn 0 1 0
vn 0 1 0
vn 0 1 0
vn 0 1 0
vn 0 1 0
vn 0 1 0
vn 0 1 0
vn 0 1 0
vn 0 1 0
vn 0 1 0
vn 0 1 0
vn 0 1 0
vn 0 1 0
vn 0 1 0
vn 0 1 0
vn 0 1 0
vn 0 1 0
vn 0 1 0
vn 0 1 0
vn 0 1 0
vn 0 1 0
vn 0 1 0
vn 0 1 0
vn 0 1 0
vn 0 1 0
vn 0 1 0
vn 0 1 0
vn 0 1 0
vn 0 1 0
vn 0 1 0
vn 0 1 0
vn 0 1 0
vn 0 1 0
vn 0 1 0
vn 0 1 0
vn 0 1 0
vn 0 1 0
vn 0 1 0
vn 0 1 0
vn 0 1 0
vn 0 1 0
vn 0 1 0
vn 0 1 0
vn 0 1 0
vn 0 1 0
vn 0 1 0
vn 0 1 0
vn 0 1 0
vn 0 1 0
vn 0 1 0
vn 0 1 0
vn 0 1 0
vn 0 1 0
vn 0 1 0
vn 0 1 0
vn 0 1 0
vn 0 1 0
vn 0 1 0
vn 0 1 0
vn 0 1 0
vn 0 1 0
vn 0 1 0
vn 0 1 0
vn 0 1 0
vn 0 1 0
vn 0 1 0
vn 0 1 0
vn 0 1 0
vn 0 1 0
vn 0 1 0
vn 0 1 0
vn 0 1 0
vn 0 1 0
vn 0 1 0
vn 0 1 0
vn 0 1 0
vn 0 1 0
vn 0 1 0
vn 0 1 0
vn 0 1 0
vn 0 1 0
vn 0 1 0
vn 0 1 0
vn 0 1 0
vn 0 1 0
vn 0 1 0
vn 0 1 0
vn 0 1 0
vn 0 1 0
vn 0 1 0
vn 0 1 0
vn 0 1 0
vn 0 1 0
vn 0 1 0
vn 0 1 0
vn 0 1 0
vn 0 1 0
vn 0 1 0
vn 0 1 0
vn 0 1 0
vn 0 1 0
vn 0 1 0
vn 0 1 0
vn 0 1 0
vn 0 1 0
vn 0 1 0
vn 0 1 0
vn 0 1 0
vn 0 1 0
vn 0 1 0
vn 0 1 0
vn 0 1 0
vn 0 1 0
vn 0 1 0
vn 0 1 0
vn 0 1 0
vn 0 1 0
vn 0 1 0
vn 0 1 0
vn 0 1 0
vn 0 1 0
vn 0 1 0
vn 0 1 0
vn 0 1 0
vn 0 1 0
vn 0 1 0
vn 0 1 0
vn 0 1 0
vn 0 1 0
vn 0 1 0
vn 0 1 0
vn 0 1 0
vn 0 1 0
vn 0 1 0
vn 0 1 0
vn 0 1 0
vn 0 1 0
vn 0 1 0
vn 0 1 0
vn 0 1 0
vn 0 1 0
vn 0 1 0
vn 0 1 0
vn 0 1 0
g Grass_2_Cluster227_0
f 2/2/2 3/3/3 1/1/1
f 2/2/2 4/4/4 3/3/3
f 6/6/6 7/7/7 5/5/5
f 6/6/6 8/8/8 7/7/7
f 10/10/10 11/11/11 9/9/9
f 10/10/10 12/12/12 11/11/11
f 14/14/14 15/15/15 13/13/13
f 14/14/14 16/16/16 15/15/15
f 18/18/18 19/19/19 17/17/17
f 18/18/18 20/20/20 19/19/19
f 22/22/22 23/23/23 21/21/21
f 22/22/22 24/24/24 23/23/23
f 26/26/26 27/27/27 25/25/25
f 26/26/26 28/28/28 27/27/27
f 30/30/30 31/31/31 29/29/29
f 30/30/30 32/32/32 31/31/31
f 34/34/34 35/35/35 33/33/33
f 34/34/34 36/36/36 35/35/35
f 38/38/38 39/39/39 37/37/37
f 38/38/38 40/40/40 39/39/39
f 42/42/42 43/43/43 41/41/41
f 42/42/42 44/44/44 43/43/43
f 46/46/46 47/47/47 45/45/45
f 46/46/46 48/48/48 47/47/47
f 50/50/50 51/51/51 49/49/49
f 50/50/50 52/52/52 51/51/51
f 54/54/54 55/55/55 53/53/53
f 54/54/54 56/56/56 55/55/55
f 58/58/58 59/59/59 57/57/57
f 58/58/58 60/60/60 59/59/59
f 62/62/62 63/63/63 61/61/61
f 62/62/62 64/64/64 63/63/63
f 66/66/66 67/67/67 65/65/65
f 66/66/66 68/68/68 67/67/67
f 70/70/70 71/71/71 69/69/69
f 70/70/70 72/72/72 71/71/71
f 74/74/74 75/75/75 73/73/73
f 74/74/74 76/76/76 75/75/75
f 78/78/78 79/79/79 77/77/77
f 78/78/78 80/80/80 79/79/79
f 82/82/82 83/83/83 81/81/81
f 82/82/82 84/84/84 83/83/83
f 86/86/86 87/87/87 85/85/85
f 86/86/86 88/88/88 87/87/87
f 90/90/90 91/91/91 89/89/89
f 90/90/90 92/92/92 91/91/91
f 94/94/94 95/95/95 93/93/93
f 94/94/94 96/96/96 95/95/95
f 98/98/98 99/99/99 97/97/97
f 98/98/98 100/100/100 99/99/99
f 102/102/102 103/103/103 101/101/101
f 102/102/102 104/104/104 103/103/103
f 106/106/106 107/107/107 105/105/105
f 106/106/106 108/108/108 107/107/107
f 110/110/110 111/111/111 109/109/109
f 110/110/110 112/112/112 111/111/111
f 114/114/114 115/115/115 113/113/113
f 114/114/114 116/116/116 115/115/115
f 118/118/118 119/119/119 117/117/117
f 118/118/118 120/120/120 119/119/119
f 122/122/122 123/123/123 121/121/121
f 122/122/122 124/124/124 123/123/123
f 126/126/126 127/127/127 125/125/125
f 126/126/126 128/128/128 127/127/127
f 130/130/130 131/131/131 129/129/129
f 130/130/130 132/132/132 131/131/131
f 134/134/134 135/135/135 133/133/133
f 134/134/134 136/136/136 135/135/135
f 138/138/138 139/139/139 137/137/137
f 138/138/138 140/140/140 139/139/139
f 142/142/142 143/143/143 141/141/141
f 142/142/142 144/144/144 143/143/143
f 146/146/146 147/147/147 145/145/145
f 146/146/146 148/148/148 147/147/147
f 150/150/150 151/151/151 149/149/149
f 150/150/150 152/152/152 151/151/151
