g Grass_2_Cluster28
v 55.69633 0.02217102 18.72221
v 54.70408 0.02217102 18.72221
v 55.69633 0.02217102 19.79079
v 54.70408 0.02217102 19.79079
v 53.78816 0.02217102 18.26425
v 52.87224 0.02217102 18.26425
v 53.78816 0.02217102 19.33282
v 52.87224 0.02217102 19.33282
v 54.78041 0.02217102 17.57731
v 53.78816 0.02217102 17.57731
v 54.78041 0.02217102 18.64589
v 53.78816 0.02217102 18.64589
v 36.7673 0.02217102 17.34834
v 35.85138 0.02217102 17.34834
v 36.7673 0.02217102 18.41691
v 35.85138 0.02217102 18.41691
v 53.17755 0.02217102 17.04302
v 52.1853 0.02217102 17.04302
v 53.17755 0.02217102 18.1116
v 52.1853 0.02217102 18.1116
v 54.01714 0.02217102 16.27975
v 53.10122 0.02217102 16.27975
v 54.01714 0.02217102 17.34834
v 53.10122 0.02217102 17.34834
v 53.17755 0.02217102 16.12711
v 52.1853 0.02217102 16.12711
v 53.17755 0.02217102 17.19568
v 52.1853 0.02217102 17.19568
v 55.16204 0.02217102 15.66914
v 54.16979 0.02217102 15.66914
v 55.16204 0.02217102 16.73772
v 54.16979 0.02217102 16.73772
v 39.97303 0.02217102 15.36384
v 39.13343 0.02217102 15.36384
v 39.97303 0.02217102 16.35609
v 39.13343 0.02217102 16.35609
v 51.26938 0.02217102 15.44016
v 50.35346 0.02217102 15.44016
v 51.26938 0.02217102 16.50874
v 50.35346 0.02217102 16.50874
v 56.30694 0.02217102 15.13486
v 55.31469 0.02217102 15.13486
v 56.30694 0.02217102 16.20343
v 55.31469 0.02217102 16.20343
v 54.39877 0.02217102 14.9822
v 53.3302 0.02217102 14.9822
v 54.39877 0.02217102 16.20343
v 53.3302 0.02217102 16.20343
v 56.84123 0.02217102 14.82955
v 56.00163 0.02217102 14.82955
v 56.84123 0.02217102 15.89812
v 56.00163 0.02217102 15.89812
v 57.45184 0.02217102 14.29527
v 56.45959 0.02217102 14.29527
v 57.45184 0.02217102 15.36384
v 56.45959 0.02217102 15.36384
v 38.37016 0.02217102 13.60832
v 37.45425 0.02217102 13.60832
v 38.37016 0.02217102 14.6769
v 37.45425 0.02217102 14.6769
v 54.55143 0.02217102 13.37934
v 53.63551 0.02217102 13.37934
v 54.55143 0.02217102 14.44791
v 53.63551 0.02217102 14.44791
v 53.55918 0.02217102 13.07404
v 52.64326 0.02217102 13.07404
v 53.55918 0.02217102 14.14261
v 52.64326 0.02217102 14.14261
v 54.4751 0.02217102 12.69241
v 53.48285 0.02217102 12.69241
v 54.4751 0.02217102 13.8373
v 53.48285 0.02217102 13.8373
v 54.01714 0.02217102 12.23444
v 53.10122 0.02217102 12.23444
v 54.01714 0.02217102 13.30302
v 53.10122 0.02217102 13.30302
v 55.39102 0.02217102 10.78423
v 54.39877 0.02217102 10.78423
v 55.39102 0.02217102 11.92914
v 54.39877 0.02217102 11.92914
v 55.77266 0.02217102 10.24995
v 54.78041 0.02217102 10.24995
v 55.77266 0.02217102 11.47118
v 54.78041 0.02217102 11.47118
v 54.70408 0.02217102 9.563011
v 53.78816 0.02217102 9.563011
v 54.70408 0.02217102 10.55525
v 53.78816 0.02217102 10.55525
v 55.92531 0.02217102 9.105049
v 54.93306 0.02217102 9.105049
v 55.92531 0.02217102 10.17362
v 54.93306 0.02217102 10.17362
v 57.52817 0.02217102 8.799744
v 56.53592 0.02217102 8.799744
v 57.52817 0.02217102 9.944641
v 56.53592 0.02217102 9.944641
v 56.61225 0.02217102 8.418106
v 55.62 0.02217102 8.418106
v 56.61225 0.02217102 9.563011
v 55.62 0.02217102 9.563011
v 58.29144 0.02217102 7.731163
v 57.37551 0.02217102 7.731163
v 58.29144 0.02217102 8.799744
v 57.37551 0.02217102 8.799744
v 54.32244 0.02217102 7.654839
v 53.40652 0.02217102 7.654839
v 54.32244 0.02217102 8.647087
v 53.40652 0.02217102 8.647087
v 55.00939 0.02217102 7.425858
v 54.09347 0.02217102 7.425858
v 55.00939 0.02217102 8.494431
v 54.09347 0.02217102 8.494431
v 56.84123 0.02217102 7.120552
v 55.84898 0.02217102 7.120552
v 56.84123 0.02217102 8.265457
v 55.84898 0.02217102 8.265457
v 54.32244 0.02217102 6.815247
v 53.3302 0.02217102 6.815247
v 54.32244 0.02217102 7.88382
v 53.3302 0.02217102 7.88382
v 55.16204 0.02217102 6.738922
v 54.16979 0.02217102 6.738922
v 55.16204 0.02217102 7.88382
v 54.16979 0.02217102 7.88382
v 57.52817 0.02217102 6.357285
v 56.53592 0.02217102 6.357285
v 57.52817 0.02217102 7.425858
v 56.53592 0.02217102 7.425858
v 51.72734 0.02217102 5.975655
v 50.81142 0.02217102 5.975655
v 51.72734 0.02217102 6.967903
v 50.81142 0.02217102 6.967903
v 56.07796 0.02217102 5.746674
v 55.08571 0.02217102 5.746674
v 56.07796 0.02217102 6.891571
v 55.08571 0.02217102 6.891571
v 54.55143 0.02217102 5.670345
v 53.55918 0.02217102 5.670345
v 54.55143 0.02217102 6.815247
v 53.55918 0.02217102 6.815247
v 52.41428 0.02217102 5.36504
v 51.42203 0.02217102 5.36504
v 52.41428 0.02217102 6.433609
v 51.42203 0.02217102 6.433609
v 58.29144 0.02217102 5.288712
v 57.37551 0.02217102 5.288712
v 58.29144 0.02217102 6.357285
v 57.37551 0.02217102 6.357285
v 53.55918 0.02217102 4.830753
v 52.56693 0.02217102 4.830753
v 53.55918 0.02217102 5.975655
v 52.56693 0.02217102 5.975655
v 57.98613 0.02217102 4.907078
v 56.91755 0.02217102 4.907078
v 57.98613 0.02217102 6.051979
v 56.91755 0.02217102 6.051979
v 54.55143 0.02217102 4.754425
v 53.55918 0.02217102 4.754425
v 54.55143 0.02217102 5.899323
v 53.55918 0.02217102 5.899323
v 55.54367 0.02217102 4.44912
v 54.62775 0.02217102 4.44912
v 55.54367 0.02217102 5.517693
v 54.62775 0.02217102 5.517693
v 57.14653 0.02217102 3.991158
v 56.15429 0.02217102 3.991158
v 57.14653 0.02217102 5.059731
v 56.15429 0.02217102 5.059731
v 58.06245 0.02217102 4.067486
v 57.14653 0.02217102 4.067486
v 58.06245 0.02217102 5.136059
v 57.14653 0.02217102 5.136059
v 56.38327 0.02217102 3.609524
v 55.46735 0.02217102 3.609524
v 56.38327 0.02217102 4.678097
v 55.46735 0.02217102 4.678097
v 55.54367 0.02217102 3.609524
v 54.62775 0.02217102 3.609524
v 55.54367 0.02217102 4.601772
v 54.62775 0.02217102 4.601772
v 57.29919 0.02217102 2.769932
v 56.30694 0.02217102 2.769932
v 57.29919 0.02217102 3.914833
v 56.30694 0.02217102 3.914833
v 56.61225 0.02217102 2.464622
v 55.62 0.02217102 2.464622
v 56.61225 0.02217102 3.609524
v 55.62 0.02217102 3.609524
v 53.48285 0.02217102 0.7091103
v 52.56693 0.02217102 0.7091103
v 53.48285 0.02217102 1.777683
v 52.56693 0.02217102 1.777683
vt 0.1347656 0.9185662
vt 0.2060202 0.9185662
vt 0.1347656 1
vt 0.2060202 1
vt 0.1347656 0.9185662
vt 0.2060202 0.9185662
vt 0.1347656 1
vt 0.2060202 1
vt 0.1347656 0.9185662
vt 0.2060202 0.9185662
vt 0.1347656 1
vt 0.2060202 1
vt 0.1347656 0.9185662
vt 0.2060202 0.9185662
vt 0.1347656 1
vt 0.2060202 1
vt 0.1347656 0.9185662
vt 0.2060202 0.9185662
vt 0.1347656 1
vt 0.2060202 1
vt 0.1347656 0.9185662
vt 0.2060202 0.9185662
vt 0.1347656 1
vt 0.2060202 1
vt 0.1347656 0.9185662
vt 0.2060202 0.9185662
vt 0.1347656 1
vt 0.2060202 1
vt 0.1347656 0.9185662
vt 0.2060202 0.9185662
vt 0.1347656 1
vt 0.2060202 1
vt 0.1347656 0.9185662
vt 0.2060202 0.9185662
vt 0.1347656 1
vt 0.2060202 1
vt 0.1347656 0.9185662
vt 0.2060202 0.9185662
vt 0.1347656 1
vt 0.2060202 1
vt 0.1347656 0.9185662
vt 0.2060202 0.9185662
vt 0.1347656 1
vt 0.2060202 1
vt 0.1347656 0.9185662
vt 0.2060202 0.9185662
vt 0.1347656 1
vt 0.2060202 1
vt 0.1347656 0.9185662
vt 0.2060202 0.9185662
vt 0.1347656 1
vt 0.2060202 1
vt 0.1347656 0.9185662
vt 0.2060202 0.9185662
vt 0.1347656 1
vt 0.2060202 1
vt 0.1347656 0.9185662
vt 0.2060202 0.9185662
vt 0.1347656 1
vt 0.2060202 1
vt 0.1347656 0.9185662
vt 0.2060202 0.9185662
vt 0.1347656 1
vt 0.2060202 1
vt 0.1347656 0.9185662
vt 0.2060202 0.9185662
vt 0.1347656 1
vt 0.2060202 1
vt 0.1347656 0.9185662
vt 0.2060202 0.9185662
vt 0.1347656 1
vt 0.2060202 1
vt 0.1347656 0.9185662
vt 0.2060202 0.9185662
vt 0.1347656 1
vt 0.2060202 1
vt 0.1347656 0.9185662
vt 0.2060202 0.9185662
vt 0.1347656 1
vt 0.2060202 1
vt 0.1347656 0.9185662
vt 0.2060202 0.9185662
vt 0.1347656 1
vt 0.2060202 1
vt 0.1347656 0.9185662
vt 0.2060202 0.9185662
vt 0.1347656 1
vt 0.2060202 1
vt 0.1347656 0.9185662
vt 0.2060202 0.9185662
vt 0.1347656 1
vt 0.2060202 1
vt 0.1347656 0.9185662
vt 0.2060202 0.9185662
vt 0.1347656 1
vt 0.2060202 1
vt 0.1347656 0.9185662
vt 0.2060202 0.9185662
vt 0.1347656 1
vt 0.2060202 1
vt 0.1347656 0.9185662
vt 0.2060202 0.9185662
vt 0.1347656 1
vt 0.2060202 1
vt 0.1347656 0.9185662
vt 0.2060202 0.9185662
vt 0.1347656 1
vt 0.2060202 1
vt 0.1347656 0.9185662
vt 0.2060202 0.9185662
vt 0.1347656 1
vt 0.2060202 1
vt 0.1347656 0.9185662
vt 0.2060202 0.9185662
vt 0.1347656 1
vt 0.2060202 1
vt 0.1347656 0.9185662
vt 0.2060202 0.9185662
vt 0.1347656 1
vt 0.2060202 1
vt 0.1347656 0.9185662
vt 0.2060202 0.9185662
vt 0.1347656 1
vt 0.2060202 1
vt 0.1347656 0.9185662
vt 0.2060202 0.9185662
vt 0.1347656 1
vt 0.2060202 1
vt 0.1347656 0.9185662
vt 0.2060202 0.9185662
vt 0.1347656 1
vt 0.2060202 1
vt 0.1347656 0.9185662
vt 0.2060202 0.9185662
vt 0.1347656 1
vt 0.2060202 1
vt 0.1347656 0.9185662
vt 0.2060202 0.9185662
vt 0.1347656 1
vt 0.2060202 1
vt 0.1347656 0.9185662
vt 0.2060202 0.9185662
vt 0.1347656 1
vt 0.2060202 1
vt 0.1347656 0.9185662
vt 0.2060202 0.9185662
vt 0.1347656 1
vt 0.2060202 1
vt 0.1347656 0.9185662
vt 0.2060202 0.9185662
vt 0.1347656 1
vt 0.2060202 1
vt 0.1347656 0.9185662
vt 0.2060202 0.9185662
vt 0.1347656 1
vt 0.2060202 1
vt 0.1347656 0.9185662
vt 0.2060202 0.9185662
vt 0.1347656 1
vt 0.2060202 1
vt 0.1347656 0.9185662
vt 0.2060202 0.9185662
vt 0.1347656 1
vt 0.2060202 1
vt 0.1347656 0.9185662
vt 0.2060202 0.9185662
vt 0.1347656 1
vt 0.2060202 1
vt 0.1347656 0.9185662
vt 0.2060202 0.9185662
vt 0.1347656 1
vt 0.2060202 1
vt 0.1347656 0.9185662
vt 0.2060202 0.9185662
vt 0.1347656 1
vt 0.2060202 1
vt 0.1347656 0.9185662
vt 0.2060202 0.9185662
vt 0.1347656 1
vt 0.2060202 1
vt 0.1347656 0.9185662
vt 0.2060202 0.9185662
vt 0.1347656 1
vt 0.2060202 1
vt 0.1347656 0.9185662
vt 0.2060202 0.9185662
vt 0.1347656 1
vt 0.2060202 1
vt 0.1347656 0.9185662
vt 0.2060202 0.9185662
vt 0.1347656 1
vt 0.2060202 1
vn 0 1 0
vn 0 1 0
vn 0 1 0
vn 0 1 0
vn 0 1 0
vn 0 1 0
vn 0 1 0
vn 0 1 0
vn 0 1 0
vn 0 1 0
vn 0 1 0
vn 0 1 0
vn 0 1 0
vn 0 1 0
vn 0 1 0
vn 0 1 0
vn 0 1 0
vn 0 1 0
vn 0 1 0
vn 0 1 0
vn 0 1 0
vn 0 1 0
vn 0 1 0
vn 0 1 0
vn 0 1 0
vn 0 1 0
vn 0 1 0
vn 0 1 0
vn 0 1 0
vn 0 1 0
vn 0 1 0
vn 0 1 0
vn 0 1 0
vn 0 1 0
vn 0 1 0
vn 0 1 0
vn 0 1 0
vn 0 1 0
vn 0 1 0
vn 0 1 0
vn 0 1 0
vn 0 1 0
vn 0 1 0
vn 0 1 0
vn 0 1 0
vn 0 1 0
vn 0 1 0
vn 0 1 0
vn 0 1 0
vn 0 1 0
vn 0 1 0
vn 0 1 0
vn 0 1 0
vn 0 1 0
vn 0 1 0
vn 0 1 0
vn 0 1 0
vn 0 1 0
vn 0 1 0
vn 0 1 0
vn 0 1 0
vn 0 1 0
vn 0 1 0
vn 0 1 0
vn 0 1 0
vn 0 1 0
vn 0 1 0
vn 0 1 0
vn 0 1 0
vn 0 1 0
vn 0 1 0
vn 0 1 0
vn 0 1 0
vn 0 1 0
vn 0 1 0
vn 0 1 0
vn 0 1 0
vn 0 1 0
vn 0 1 0
vn 0 1 0
vn 0 1 0
vn 0 1 0
vn 0 1 0
vn 0 1 0
vn 0 1 0
vn 0 1 0
vn 0 1 0
vn 0 1 0
vn 0 1 0
vn 0 1 0
vn 0 1 0
vn 0 1 0
vn 0 1 0
vn 0 1 0
vn 0 1 0
vn 0 1 0
vn 0 1 0
vn 0 1 0
vn 0 1 0
vn 0 1 0
vn 0 1 0
vn 0 1 0
vn 0 1 0
vn 0 1 0
vn 0 1 0
vn 0 1 0
vn 0 1 0
vn 0 1 0
vn 0 1 0
vn 0 1 0
vn 0 1 0
vn 0 1 0
vn 0 1 0
vn 0 1 0
vn 0 1 0
vn 0 1 0
vn 0 1 0
vn 0 1 0
vn 0 1 0
vn 0 1 0
vn 0 1 0
vn 0 1 0
vn 0 1 0
vn 0 1 0
vn 0 1 0
vn 0 1 0
vn 0 1 0
vn 0 1 0
vn 0 1 0
vn 0 1 0
vn 0 1 0
vn 0 1 0
vn 0 1 0
vn 0 1 0
vn 0 1 0
vn 0 1 0
vn 0 1 0
vn 0 1 0
vn 0 1 0
vn 0 1 0
vn 0 1 0
vn 0 1 0
vn 0 1 0
vn 0 1 0
vn 0 1 0
vn 0 1 0
vn 0 1 0
vn 0 1 0
vn 0 1 0
vn 0 1 0
vn 0 1 0
vn 0 1 0
vn 0 1 0
vn 0 1 0
vn 0 1 0
vn 0 1 0
vn 0 1 0
vn 0 1 0
vn 0 1 0
vn 0 1 0
vn 0 1 0
vn 0 1 0
vn 0 1 0
vn 0 1 0
vn 0 1 0
vn 0 1 0
vn 0 1 0
vn 0 1 0
vn 0 1 0
vn 0 1 0
vn 0 1 0
vn 0 1 0
vn 0 1 0
vn 0 1 0
vn 0 1 0
vn 0 1 0
vn 0 1 0
vn 0 1 0
vn 0 1 0
vn 0 1 0
vn 0 1 0
vn 0 1 0
vn 0 1 0
vn 0 1 0
vn 0 1 0
vn 0 1 0
vn 0 1 0
vn 0 1 0
vn 0 1 0
vn 0 1 0
vn 0 1 0
vn 0 1 0
g Grass_2_Cluster28_0
f 2/2/2 3/3/3 1/1/1
f 2/2/2 4/4/4 3/3/3
f 6/6/6 7/7/7 5/5/5
f 6/6/6 8/8/8 7/7/7
f 10/10/10 11/11/11 9/9/9
f 10/10/10 12/12/12 11/11/11
f 14/14/14 15/15/15 13/13/13
f 14/14/14 16/16/16 15/15/15
f 18/18/18 19/19/19 17/17/17
f 18/18/18 20/20/20 19/19/19
f 22/22/22 23/23/23 21/21/21
f 22/22/22 24/24/24 23/23/23
f 26/26/26 27/27/27 25/25/25
f 26/26/26 28/28/28 27/27/27
f 30/30/30 31/31/31 29/29/29
f 30/30/30 32/32/32 31/31/31
f 34/34/34 35/35/35 33/33/33
f 34/34/34 36/36/36 35/35/35
f 38/38/38 39/39/39 37/37/37
f 38/38/38 40/40/40 39/39/39
f 42/42/42 43/43/43 41/41/41
f 42/42/42 44/44/44 43/43/43
f 46/46/46 47/47/47 45/45/45
f 46/46/46 48/48/48 47/47/47
f 50/50/50 51/51/51 49/49/49
f 50/50/50 52/52/52 51/51/51
f 54/54/54 55/55/55 53/53/53
f 54/54/54 56/56/56 55/55/55
f 58/58/58 59/59/59 57/57/57
f 58/58/58 60/60/60 59/59/59
f 62/62/62 63/63/63 61/61/61
f 62/62/62 64/64/64 63/63/63
f 66/66/66 67/67/67 65/65/65
f 66/66/66 68/68/68 67/67/67
f 70/70/70 71/71/71 69/69/69
f 70/70/70 72/72/72 71/71/71
f 74/74/74 75/75/75 73/73/73
f 74/74/74 76/76/76 75/75/75
f 78/78/78 79/79/79 77/77/77
f 78/78/78 80/80/80 79/79/79
f 82/82/82 83/83/83 81/81/81
f 82/82/82 84/84/84 83/83/83
f 86/86/86 87/87/87 85/85/85
f 86/86/86 88/88/88 87/87/87
f 90/90/90 91/91/91 89/89/89
f 90/90/90 92/92/92 91/91/91
f 94/94/94 95/95/95 93/93/93
f 94/94/94 96/96/96 95/95/95
f 98/98/98 99/99/99 97/97/97
f 98/98/98 100/100/100 99/99/99
f 102/102/102 103/103/103 101/101/101
f 102/102/102 104/104/104 103/103/103
f 106/106/106 107/107/107 105/105/105
f 106/106/106 108/108/108 107/107/107
f 110/110/110 111/111/111 109/109/109
f 110/110/110 112/112/112 111/111/111
f 114/114/114 115/115/115 113/113/113
f 114/114/114 116/116/116 115/115/115
f 118/118/118 119/119/119 117/117/117
f 118/118/118 120/120/120 119/119/119
f 122/122/122 123/123/123 121/121/121
f 122/122/122 124/124/124 123/123/123
f 126/126/126 127/127/127 125/125/125
f 126/126/126 128/128/128 127/127/127
f 130/130/130 131/131/131 129/129/129
f 130/130/130 132/132/132 131/131/131
f 134/134/134 135/135/135 133/133/133
f 134/134/134 136/136/136 135/135/135
f 138/138/138 139/139/139 137/137/137
f 138/138/138 140/140/140 139/139/139
f 142/142/142 143/143/143 141/141/141
f 142/142/142 144/144/144 143/143/143
f 146/146/146 147/147/147 145/145/145
f 146/146/146 148/148/148 147/147/147
f 150/150/150 151/151/151 149/149/149
f 150/150/150 152/152/152 151/151/151
f 154/154/154 155/155/155 153/153/153
f 154/154/154 156/156/156 155/155/155
f 158/158/158 159/159/159 157/157/157
f 158/158/158 160/160/160 159/159/159
f 162/162/162 163/163/163 161/161/161
f 162/162/162 164/164/164 163/163/163
f 166/166/166 167/167/167 165/165/165
f 166/166/166 168/168/168 167/167/167
f 170/170/170 171/171/171 169/169/169
f 170/170/170 172/172/172 171/171/171
f 174/174/174 175/175/175 173/173/173
f 174/174/174 176/176/176 175/175/175
f 178/178/178 179/179/179 177/177/177
f 178/178/178 180/180/180 179/179/179
f 182/182/182 183/183/183 181/181/181
f 182/182/182 184/184/184 183/183/183
f 186/186/186 187/187/187 185/185/185
f 186/186/186 188/188/188 187/187/187
f 190/190/190 191/191/191 189/189/189
f 190/190/190 192/192/192 191/191/191
