g Grass_2_Cluster195
v -155.1161 0 253.3065
v -156.1104 0 253.3065
v -155.1161 0 254.3009
v -156.1104 0 254.3009
v -155.3647 0 252.5608
v -156.359 0 252.5608
v -155.3647 0 253.8037
v -156.359 0 253.8037
v -153.8732 0 252.3122
v -154.6189 0 252.3122
v -153.8732 0 253.5551
v -154.6189 0 253.5551
v -149.6472 0 252.3122
v -150.6416 0 252.3122
v -149.6472 0 253.5551
v -150.6416 0 253.5551
v -152.1331 0 252.0636
v -153.1274 0 252.0636
v -152.1331 0 253.3065
v -153.1274 0 253.3065
v -153.1274 0 251.815
v -154.1217 0 251.815
v -153.1274 0 252.8094
v -154.1217 0 252.8094
v -156.1104 0 251.5665
v -157.1048 0 251.5665
v -156.1104 0 252.5608
v -157.1048 0 252.5608
v -152.8788 0 251.0693
v -153.8732 0 251.0693
v -152.8788 0 252.0636
v -153.8732 0 252.0636
v -154.6189 0 250.5721
v -155.6133 0 250.5721
v -154.6189 0 251.815
v -155.6133 0 251.815
v -154.1217 0 250.3235
v -155.1161 0 250.3235
v -154.1217 0 251.5665
v -155.1161 0 251.5665
v -156.359 0 250.3235
v -157.3533 0 250.3235
v -156.359 0 251.3179
v -157.3533 0 251.3179
v -156.6076 0 249.5778
v -157.6019 0 249.5778
v -156.6076 0 250.8207
v -157.6019 0 250.8207
v -154.1217 0 248.3349
v -155.1161 0 248.3349
v -154.1217 0 249.5778
v -155.1161 0 249.5778
v -155.3647 0 238.8887
v -156.1104 0 238.8887
v -155.3647 0 239.883
v -156.1104 0 239.883
v -154.6189 0 238.143
v -155.6133 0 238.143
v -154.6189 0 239.1373
v -155.6133 0 239.1373
v -153.376 0 238.143
v -154.1217 0 238.143
v -153.376 0 239.1373
v -154.1217 0 239.1373
v -157.6019 0 237.6458
v -158.5963 0 237.6458
v -157.6019 0 238.8887
v -158.5963 0 238.8887
v -156.359 0 237.6458
v -157.3533 0 237.6458
v -156.359 0 238.8887
v -157.3533 0 238.8887
v -156.8562 0 236.9
v -157.8505 0 236.9
v -156.8562 0 238.143
v -157.8505 0 238.143
v -154.3703 0 236.6515
v -155.3647 0 236.6515
v -154.3703 0 237.6458
v -155.3647 0 237.6458
v -155.8618 0 236.4029
v -156.8562 0 236.4029
v -155.8618 0 237.6458
v -156.8562 0 237.6458
v -157.8505 0 236.1543
v -158.8448 0 236.1543
v -157.8505 0 237.1486
v -158.8448 0 237.1486
v -153.8732 0 236.1543
v -154.8675 0 236.1543
v -153.8732 0 237.1486
v -154.8675 0 237.1486
v -159.8392 0 235.9057
v -160.5849 0 235.9057
v -159.8392 0 236.9
v -160.5849 0 236.9
v -156.6076 0 235.6571
v -157.6019 0 235.6571
v -156.6076 0 236.6515
v -157.6019 0 236.6515
v -159.5906 0 235.6571
v -160.5849 0 235.6571
v -159.5906 0 236.9
v -160.5849 0 236.9
v -155.8618 0 235.6571
v -156.8562 0 235.6571
v -155.8618 0 236.6515
v -156.8562 0 236.6515
v -152.8788 0 235.4085
v -153.8732 0 235.4085
v -152.8788 0 236.6515
v -153.8732 0 236.6515
v -151.6359 0 235.4085
v -152.3817 0 235.4085
v -151.6359 0 236.4029
v -152.3817 0 236.4029
v -154.6189 0 235.4085
v -155.6133 0 235.4085
v -154.6189 0 236.4029
v -155.6133 0 236.4029
v -161.8278 0 235.16
v -162.8222 0 235.16
v -161.8278 0 236.1543
v -162.8222 0 236.1543
v -149.8958 0 234.9114
v -150.8902 0 234.9114
v -149.8958 0 236.1543
v -150.8902 0 236.1543
v -151.8845 0 234.9114
v -152.6302 0 234.9114
v -151.8845 0 235.9057
v -152.6302 0 235.9057
v -158.3477 0 234.6628
v -159.342 0 234.6628
v -158.3477 0 235.6571
v -159.342 0 235.6571
v -154.8675 0 234.6628
v -155.8618 0 234.6628
v -154.8675 0 235.6571
v -155.8618 0 235.6571
v -156.359 0 234.4142
v -157.1048 0 234.4142
v -156.359 0 235.4085
v -157.1048 0 235.4085
v -161.3307 0 234.1656
v -162.325 0 234.1656
v -161.3307 0 235.4085
v -162.325 0 235.4085
v -150.393 0 234.1656
v -151.3873 0 234.1656
v -150.393 0 235.4085
v -151.3873 0 235.4085
v -150.8902 0 234.1656
v -151.8845 0 234.1656
v -150.8902 0 235.16
v -151.8845 0 235.16
v -158.3477 0 233.917
v -159.342 0 233.917
v -158.3477 0 235.16
v -159.342 0 235.16
v -161.3307 0 233.6685
v -162.325 0 233.6685
v -161.3307 0 234.9114
v -162.325 0 234.9114
vt 0.1347656 0.9185662
vt 0.2060202 0.9185662
vt 0.1347656 1
vt 0.2060202 1
vt 0.1347656 0.9185662
vt 0.2060202 0.9185662
vt 0.1347656 1
vt 0.2060202 1
vt 0.1347656 0.9185662
vt 0.2060202 0.9185662
vt 0.1347656 1
vt 0.2060202 1
vt 0.1347656 0.9185662
vt 0.2060202 0.9185662
vt 0.1347656 1
vt 0.2060202 1
vt 0.1347656 0.9185662
vt 0.2060202 0.9185662
vt 0.1347656 1
vt 0.2060202 1
vt 0.1347656 0.9185662
vt 0.2060202 0.9185662
vt 0.1347656 1
vt 0.2060202 1
vt 0.1347656 0.9185662
vt 0.2060202 0.9185662
vt 0.1347656 1
vt 0.2060202 1
vt 0.1347656 0.9185662
vt 0.2060202 0.9185662
vt 0.1347656 1
vt 0.2060202 1
vt 0.1347656 0.9185662
vt 0.2060202 0.9185662
vt 0.1347656 1
vt 0.2060202 1
vt 0.1347656 0.9185662
vt 0.2060202 0.9185662
vt 0.1347656 1
vt 0.2060202 1
vt 0.1347656 0.9185662
vt 0.2060202 0.9185662
vt 0.1347656 1
vt 0.2060202 1
vt 0.1347656 0.9185662
vt 0.2060202 0.9185662
vt 0.1347656 1
vt 0.2060202 1
vt 0.1347656 0.9185662
vt 0.2060202 0.9185662
vt 0.1347656 1
vt 0.2060202 1
vt 0.1347656 0.9185662
vt 0.2060202 0.9185662
vt 0.1347656 1
vt 0.2060202 1
vt 0.1347656 0.9185662
vt 0.2060202 0.9185662
vt 0.1347656 1
vt 0.2060202 1
vt 0.1347656 0.9185662
vt 0.2060202 0.9185662
vt 0.1347656 1
vt 0.2060202 1
vt 0.1347656 0.9185662
vt 0.2060202 0.9185662
vt 0.1347656 1
vt 0.2060202 1
vt 0.1347656 0.9185662
vt 0.2060202 0.9185662
vt 0.1347656 1
vt 0.2060202 1
vt 0.1347656 0.9185662
vt 0.2060202 0.9185662
vt 0.1347656 1
vt 0.2060202 1
vt 0.1347656 0.9185662
vt 0.2060202 0.9185662
vt 0.1347656 1
vt 0.2060202 1
vt 0.1347656 0.9185662
vt 0.2060202 0.9185662
vt 0.1347656 1
vt 0.2060202 1
vt 0.1347656 0.9185662
vt 0.2060202 0.9185662
vt 0.1347656 1
vt 0.2060202 1
vt 0.1347656 0.9185662
vt 0.2060202 0.9185662
vt 0.1347656 1
vt 0.2060202 1
vt 0.1347656 0.9185662
vt 0.2060202 0.9185662
vt 0.1347656 1
vt 0.2060202 1
vt 0.1347656 0.9185662
vt 0.2060202 0.9185662
vt 0.1347656 1
vt 0.2060202 1
vt 0.1347656 0.9185662
vt 0.2060202 0.9185662
vt 0.1347656 1
vt 0.2060202 1
vt 0.1347656 0.9185662
vt 0.2060202 0.9185662
vt 0.1347656 1
vt 0.2060202 1
vt 0.1347656 0.9185662
vt 0.2060202 0.9185662
vt 0.1347656 1
vt 0.2060202 1
vt 0.1347656 0.9185662
vt 0.2060202 0.9185662
vt 0.1347656 1
vt 0.2060202 1
vt 0.1347656 0.9185662
vt 0.2060202 0.9185662
vt 0.1347656 1
vt 0.2060202 1
vt 0.1347656 0.9185662
vt 0.2060202 0.9185662
vt 0.1347656 1
vt 0.2060202 1
vt 0.1347656 0.9185662
vt 0.2060202 0.9185662
vt 0.1347656 1
vt 0.2060202 1
vt 0.1347656 0.9185662
vt 0.2060202 0.9185662
vt 0.1347656 1
vt 0.2060202 1
vt 0.1347656 0.9185662
vt 0.2060202 0.9185662
vt 0.1347656 1
vt 0.2060202 1
vt 0.1347656 0.9185662
vt 0.2060202 0.9185662
vt 0.1347656 1
vt 0.2060202 1
vt 0.1347656 0.9185662
vt 0.2060202 0.9185662
vt 0.1347656 1
vt 0.2060202 1
vt 0.1347656 0.9185662
vt 0.2060202 0.9185662
vt 0.1347656 1
vt 0.2060202 1
vt 0.1347656 0.9185662
vt 0.2060202 0.9185662
vt 0.1347656 1
vt 0.2060202 1
vt 0.1347656 0.9185662
vt 0.2060202 0.9185662
vt 0.1347656 1
vt 0.2060202 1
vt 0.1347656 0.9185662
vt 0.2060202 0.9185662
vt 0.1347656 1
vt 0.2060202 1
vt 0.1347656 0.9185662
vt 0.2060202 0.9185662
vt 0.1347656 1
vt 0.2060202 1
vn 0 1 0
vn 0 1 0
vn 0 1 0
vn 0 1 0
vn 0 1 0
vn 0 1 0
vn 0 1 0
vn 0 1 0
vn 0 1 0
vn 0 1 0
vn 0 1 0
vn 0 1 0
vn 0 1 0
vn 0 1 0
vn 0 1 0
vn 0 1 0
vn 0 1 0
vn 0 1 0
vn 0 1 0
vn 0 1 0
vn 0 1 0
vn 0 1 0
vn 0 1 0
vn 0 1 0
vn 0 1 0
vn 0 1 0
vn 0 1 0
vn 0 1 0
vn 0 1 0
vn 0 1 0
vn 0 1 0
vn 0 1 0
vn 0 1 0
vn 0 1 0
vn 0 1 0
vn 0 1 0
vn 0 1 0
vn 0 1 0
vn 0 1 0
vn 0 1 0
vn 0 1 0
vn 0 1 0
vn 0 1 0
vn 0 1 0
vn 0 1 0
vn 0 1 0
vn 0 1 0
vn 0 1 0
vn 0 1 0
vn 0 1 0
vn 0 1 0
vn 0 1 0
vn 0 1 0
vn 0 1 0
vn 0 1 0
vn 0 1 0
vn 0 1 0
vn 0 1 0
vn 0 1 0
vn 0 1 0
vn 0 1 0
vn 0 1 0
vn 0 1 0
vn 0 1 0
vn 0 1 0
vn 0 1 0
vn 0 1 0
vn 0 1 0
vn 0 1 0
vn 0 1 0
vn 0 1 0
vn 0 1 0
vn 0 1 0
vn 0 1 0
vn 0 1 0
vn 0 1 0
vn 0 1 0
vn 0 1 0
vn 0 1 0
vn 0 1 0
vn 0 1 0
vn 0 1 0
vn 0 1 0
vn 0 1 0
vn 0 1 0
vn 0 1 0
vn 0 1 0
vn 0 1 0
vn 0 1 0
vn 0 1 0
vn 0 1 0
vn 0 1 0
vn 0 1 0
vn 0 1 0
vn 0 1 0
vn 0 1 0
vn 0 1 0
vn 0 1 0
vn 0 1 0
vn 0 1 0
vn 0 1 0
vn 0 1 0
vn 0 1 0
vn 0 1 0
vn 0 1 0
vn 0 1 0
vn 0 1 0
vn 0 1 0
vn 0 1 0
vn 0 1 0
vn 0 1 0
vn 0 1 0
vn 0 1 0
vn 0 1 0
vn 0 1 0
vn 0 1 0
vn 0 1 0
vn 0 1 0
vn 0 1 0
vn 0 1 0
vn 0 1 0
vn 0 1 0
vn 0 1 0
vn 0 1 0
vn 0 1 0
vn 0 1 0
vn 0 1 0
vn 0 1 0
vn 0 1 0
vn 0 1 0
vn 0 1 0
vn 0 1 0
vn 0 1 0
vn 0 1 0
vn 0 1 0
vn 0 1 0
vn 0 1 0
vn 0 1 0
vn 0 1 0
vn 0 1 0
vn 0 1 0
vn 0 1 0
vn 0 1 0
vn 0 1 0
vn 0 1 0
vn 0 1 0
vn 0 1 0
vn 0 1 0
vn 0 1 0
vn 0 1 0
vn 0 1 0
vn 0 1 0
vn 0 1 0
vn 0 1 0
vn 0 1 0
vn 0 1 0
vn 0 1 0
vn 0 1 0
vn 0 1 0
vn 0 1 0
vn 0 1 0
vn 0 1 0
vn 0 1 0
vn 0 1 0
g Grass_2_Cluster195_0
f 2/2/2 3/3/3 1/1/1
f 2/2/2 4/4/4 3/3/3
f 6/6/6 7/7/7 5/5/5
f 6/6/6 8/8/8 7/7/7
f 10/10/10 11/11/11 9/9/9
f 10/10/10 12/12/12 11/11/11
f 14/14/14 15/15/15 13/13/13
f 14/14/14 16/16/16 15/15/15
f 18/18/18 19/19/19 17/17/17
f 18/18/18 20/20/20 19/19/19
f 22/22/22 23/23/23 21/21/21
f 22/22/22 24/24/24 23/23/23
f 26/26/26 27/27/27 25/25/25
f 26/26/26 28/28/28 27/27/27
f 30/30/30 31/31/31 29/29/29
f 30/30/30 32/32/32 31/31/31
f 34/34/34 35/35/35 33/33/33
f 34/34/34 36/36/36 35/35/35
f 38/38/38 39/39/39 37/37/37
f 38/38/38 40/40/40 39/39/39
f 42/42/42 43/43/43 41/41/41
f 42/42/42 44/44/44 43/43/43
f 46/46/46 47/47/47 45/45/45
f 46/46/46 48/48/48 47/47/47
f 50/50/50 51/51/51 49/49/49
f 50/50/50 52/52/52 51/51/51
f 54/54/54 55/55/55 53/53/53
f 54/54/54 56/56/56 55/55/55
f 58/58/58 59/59/59 57/57/57
f 58/58/58 60/60/60 59/59/59
f 62/62/62 63/63/63 61/61/61
f 62/62/62 64/64/64 63/63/63
f 66/66/66 67/67/67 65/65/65
f 66/66/66 68/68/68 67/67/67
f 70/70/70 71/71/71 69/69/69
f 70/70/70 72/72/72 71/71/71
f 74/74/74 75/75/75 73/73/73
f 74/74/74 76/76/76 75/75/75
f 78/78/78 79/79/79 77/77/77
f 78/78/78 80/80/80 79/79/79
f 82/82/82 83/83/83 81/81/81
f 82/82/82 84/84/84 83/83/83
f 86/86/86 87/87/87 85/85/85
f 86/86/86 88/88/88 87/87/87
f 90/90/90 91/91/91 89/89/89
f 90/90/90 92/92/92 91/91/91
f 94/94/94 95/95/95 93/93/93
f 94/94/94 96/96/96 95/95/95
f 98/98/98 99/99/99 97/97/97
f 98/98/98 100/100/100 99/99/99
f 102/102/102 103/103/103 101/101/101
f 102/102/102 104/104/104 103/103/103
f 106/106/106 107/107/107 105/105/105
f 106/106/106 108/108/108 107/107/107
f 110/110/110 111/111/111 109/109/109
f 110/110/110 112/112/112 111/111/111
f 114/114/114 115/115/115 113/113/113
f 114/114/114 116/116/116 115/115/115
f 118/118/118 119/119/119 117/117/117
f 118/118/118 120/120/120 119/119/119
f 122/122/122 123/123/123 121/121/121
f 122/122/122 124/124/124 123/123/123
f 126/126/126 127/127/127 125/125/125
f 126/126/126 128/128/128 127/127/127
f 130/130/130 131/131/131 129/129/129
f 130/130/130 132/132/132 131/131/131
f 134/134/134 135/135/135 133/133/133
f 134/134/134 136/136/136 135/135/135
f 138/138/138 139/139/139 137/137/137
f 138/138/138 140/140/140 139/139/139
f 142/142/142 143/143/143 141/141/141
f 142/142/142 144/144/144 143/143/143
f 146/146/146 147/147/147 145/145/145
f 146/146/146 148/148/148 147/147/147
f 150/150/150 151/151/151 149/149/149
f 150/150/150 152/152/152 151/151/151
f 154/154/154 155/155/155 153/153/153
f 154/154/154 156/156/156 155/155/155
f 158/158/158 159/159/159 157/157/157
f 158/158/158 160/160/160 159/159/159
f 162/162/162 163/163/163 161/161/161
f 162/162/162 164/164/164 163/163/163
