g Grass_2_Cluster213
v -95.45734 0 292.985
v -96.3199 0 292.985
v -95.45734 0 294.1351
v -96.3199 0 294.1351
v -94.30725 0 292.985
v -95.45734 0 292.985
v -94.30725 0 294.1351
v -95.45734 0 294.1351
v -92.00707 0 292.6975
v -93.15716 0 292.6975
v -92.00707 0 293.8476
v -93.15716 0 293.8476
v -91.14451 0 292.1225
v -92.00707 0 292.1225
v -91.14451 0 293.2726
v -92.00707 0 293.2726
v -94.30725 0 291.8349
v -95.16982 0 291.8349
v -94.30725 0 292.985
v -95.16982 0 292.985
v -114.1463 0 290.1098
v -115.0088 0 290.1098
v -114.1463 0 290.9724
v -115.0088 0 290.9724
v -114.7213 0 289.5348
v -115.8714 0 289.5348
v -114.7213 0 290.3973
v -115.8714 0 290.3973
v -114.4338 0 288.0971
v -115.2964 0 288.0971
v -114.4338 0 289.2472
v -115.2964 0 289.2472
v -110.696 0 288.0971
v -111.8461 0 288.0971
v -110.696 0 289.2472
v -111.8461 0 289.2472
v -112.7087 0 286.9471
v -113.8587 0 286.9471
v -112.7087 0 288.0971
v -113.8587 0 288.0971
v -110.9835 0 286.6595
v -111.8461 0 286.6595
v -110.9835 0 287.8096
v -111.8461 0 287.8096
v -112.1336 0 286.372
v -113.2837 0 286.372
v -112.1336 0 287.2346
v -113.2837 0 287.2346
v -109.8334 0 286.372
v -110.696 0 286.372
v -109.8334 0 287.2346
v -110.696 0 287.2346
v -109.5459 0 286.0845
v -110.696 0 286.0845
v -109.5459 0 287.2346
v -110.696 0 287.2346
v -114.7213 0 285.5095
v -115.5839 0 285.5095
v -114.7213 0 286.6595
v -115.5839 0 286.6595
v -108.6834 0 285.2219
v -109.5459 0 285.2219
v -108.6834 0 286.372
v -109.5459 0 286.372
v -111.2711 0 284.9344
v -112.4211 0 284.9344
v -111.2711 0 286.0845
v -112.4211 0 286.0845
v -112.4211 0 284.9344
v -113.2837 0 284.9344
v -112.4211 0 286.0845
v -113.2837 0 286.0845
v -106.9582 0 284.9344
v -108.1083 0 284.9344
v -106.9582 0 286.0845
v -108.1083 0 286.0845
v -109.5459 0 284.6469
v -110.4085 0 284.6469
v -109.5459 0 285.797
v -110.4085 0 285.797
v -110.4085 0 284.3593
v -111.5586 0 284.3593
v -110.4085 0 285.5095
v -111.5586 0 285.5095
v -112.7087 0 284.3593
v -113.5712 0 284.3593
v -112.7087 0 285.5095
v -113.5712 0 285.5095
v -111.2711 0 283.2093
v -112.1336 0 283.2093
v -111.2711 0 284.3593
v -112.1336 0 284.3593
v -112.4211 0 283.2093
v -113.2837 0 283.2093
v -112.4211 0 284.3593
v -113.2837 0 284.3593
v -98.9076 0 282.9218
v -100.0577 0 282.9218
v -98.9076 0 284.0718
v -100.0577 0 284.0718
v -94.88229 0 281.7717
v -96.03238 0 281.7717
v -94.88229 0 282.9218
v -96.03238 0 282.9218
v -95.16982 0 271.1333
v -96.3199 0 271.1333
v -95.16982 0 272.2834
v -96.3199 0 272.2834
v -95.74486 0 270.2708
v -96.60743 0 270.2708
v -95.74486 0 271.4209
v -96.60743 0 271.4209
v -94.88229 0 270.2708
v -96.03238 0 270.2708
v -94.88229 0 271.7084
v -96.03238 0 271.7084
v -94.01973 0 269.9832
v -95.16982 0 269.9832
v -94.01973 0 271.1333
v -95.16982 0 271.1333
v -96.60743 0 269.6957
v -97.46999 0 269.6957
v -96.60743 0 270.8458
v -97.46999 0 270.8458
v -92.58212 0 269.6957
v -93.44469 0 269.6957
v -92.58212 0 270.8458
v -93.44469 0 270.8458
v -94.59477 0 268.8332
v -95.45734 0 268.8332
v -94.59477 0 269.9832
v -95.45734 0 269.9832
v -94.30725 0 268.5457
v -95.16982 0 268.5457
v -94.30725 0 269.6957
v -95.16982 0 269.6957
v -96.3199 0 268.2581
v -97.18247 0 268.2581
v -96.3199 0 269.4082
v -97.18247 0 269.4082
v -92.29459 0 268.2581
v -93.44469 0 268.2581
v -92.29459 0 269.4082
v -93.44469 0 269.4082
v -94.01973 0 267.9706
v -94.88229 0 267.9706
v -94.01973 0 269.1207
v -94.88229 0 269.1207
v -93.15716 0 267.6831
v -94.30725 0 267.6831
v -93.15716 0 268.8332
v -94.30725 0 268.8332
v -98.62008 0 267.3956
v -99.48265 0 267.3956
v -98.62008 0 268.5457
v -99.48265 0 268.5457
v -97.75751 0 267.3956
v -98.9076 0 267.3956
v -97.75751 0 268.5457
v -98.9076 0 268.5457
v -92.00707 0 267.3956
v -92.86964 0 267.3956
v -92.00707 0 268.5457
v -92.86964 0 268.5457
v -92.00707 0 267.108
v -92.86964 0 267.108
v -92.00707 0 268.2581
v -92.86964 0 268.2581
v -92.58212 0 267.108
v -93.44469 0 267.108
v -92.58212 0 267.9706
v -93.44469 0 267.9706
v -96.60743 0 266.8205
v -97.75751 0 266.8205
v -96.60743 0 267.9706
v -97.75751 0 267.9706
v -106.3832 0 266.8205
v -107.5333 0 266.8205
v -106.3832 0 267.9706
v -107.5333 0 267.9706
v -95.16982 0 266.8205
v -96.03238 0 266.8205
v -95.16982 0 267.9706
v -96.03238 0 267.9706
v -107.8208 0 266.533
v -108.6834 0 266.533
v -107.8208 0 267.6831
v -108.6834 0 267.6831
v -93.44469 0 266.533
v -94.59477 0 266.533
v -93.44469 0 267.6831
v -94.59477 0 267.6831
v -108.6834 0 266.533
v -109.5459 0 266.533
v -108.6834 0 267.3956
v -109.5459 0 267.3956
v -92.86964 0 266.2455
v -94.01973 0 266.2455
v -92.86964 0 267.3956
v -94.01973 0 267.3956
v -96.03238 0 266.2455
v -96.89495 0 266.2455
v -96.03238 0 267.3956
v -96.89495 0 267.3956
v -107.2457 0 266.2455
v -108.1083 0 266.2455
v -107.2457 0 267.108
v -108.1083 0 267.108
v -94.30725 0 265.9579
v -95.45734 0 265.9579
v -94.30725 0 267.108
v -95.45734 0 267.108
v -94.88229 0 265.6704
v -95.74486 0 265.6704
v -94.88229 0 266.8205
v -95.74486 0 266.8205
v -108.3958 0 265.3829
v -109.2584 0 265.3829
v -108.3958 0 266.533
v -109.2584 0 266.533
v -96.89495 0 265.3829
v -97.75751 0 265.3829
v -96.89495 0 266.533
v -97.75751 0 266.533
v -110.4085 0 265.3829
v -111.2711 0 265.3829
v -110.4085 0 266.533
v -111.2711 0 266.533
v -96.60743 0 265.3829
v -97.46999 0 265.3829
v -96.60743 0 266.2455
v -97.46999 0 266.2455
v -111.8461 0 265.0954
v -112.9962 0 265.0954
v -111.8461 0 266.2455
v -112.9962 0 266.2455
v -98.04504 0 264.8079
v -99.19512 0 264.8079
v -98.04504 0 265.9579
v -99.19512 0 265.9579
v -95.16982 0 264.8079
v -96.03238 0 264.8079
v -95.16982 0 265.6704
v -96.03238 0 265.6704
v -96.03238 0 264.2328
v -96.89495 0 264.2328
v -96.03238 0 265.3829
v -96.89495 0 265.3829
v -92.86964 0 264.2328
v -93.73221 0 264.2328
v -92.86964 0 265.3829
v -93.73221 0 265.3829
v -110.121 0 263.9453
v -110.9835 0 263.9453
v -110.121 0 265.0954
v -110.9835 0 265.0954
v -93.44469 0 263.9453
v -94.30725 0 263.9453
v -93.44469 0 265.0954
v -94.30725 0 265.0954
v -94.88229 0 263.6578
v -95.74486 0 263.6578
v -94.88229 0 264.5203
v -95.74486 0 264.5203
v -110.4085 0 263.3702
v -111.2711 0 263.3702
v -110.4085 0 264.5203
v -111.2711 0 264.5203
v -94.01973 0 263.3702
v -95.16982 0 263.3702
v -94.01973 0 264.5203
v -95.16982 0 264.5203
v -110.9835 0 263.3702
v -111.8461 0 263.3702
v -110.9835 0 264.5203
v -111.8461 0 264.5203
vt 0.1347656 0.9185662
vt 0.2060202 0.9185662
vt 0.1347656 1
vt 0.2060202 1
vt 0.1347656 0.9185662
vt 0.2060202 0.9185662
vt 0.1347656 1
vt 0.2060202 1
vt 0.1347656 0.9185662
vt 0.2060202 0.9185662
vt 0.1347656 1
vt 0.2060202 1
vt 0.1347656 0.9185662
vt 0.2060202 0.9185662
vt 0.1347656 1
vt 0.2060202 1
vt 0.1347656 0.9185662
vt 0.2060202 0.9185662
vt 0.1347656 1
vt 0.2060202 1
vt 0.1347656 0.9185662
vt 0.2060202 0.9185662
vt 0.1347656 1
vt 0.2060202 1
vt 0.1347656 0.9185662
vt 0.2060202 0.9185662
vt 0.1347656 1
vt 0.2060202 1
vt 0.1347656 0.9185662
vt 0.2060202 0.9185662
vt 0.1347656 1
vt 0.2060202 1
vt 0.1347656 0.9185662
vt 0.2060202 0.9185662
vt 0.1347656 1
vt 0.2060202 1
vt 0.1347656 0.9185662
vt 0.2060202 0.9185662
vt 0.1347656 1
vt 0.2060202 1
vt 0.1347656 0.9185662
vt 0.2060202 0.9185662
vt 0.1347656 1
vt 0.2060202 1
vt 0.1347656 0.9185662
vt 0.2060202 0.9185662
vt 0.1347656 1
vt 0.2060202 1
vt 0.1347656 0.9185662
vt 0.2060202 0.9185662
vt 0.1347656 1
vt 0.2060202 1
vt 0.1347656 0.9185662
vt 0.2060202 0.9185662
vt 0.1347656 1
vt 0.2060202 1
vt 0.1347656 0.9185662
vt 0.2060202 0.9185662
vt 0.1347656 1
vt 0.2060202 1
vt 0.1347656 0.9185662
vt 0.2060202 0.9185662
vt 0.1347656 1
vt 0.2060202 1
vt 0.1347656 0.9185662
vt 0.2060202 0.9185662
vt 0.1347656 1
vt 0.2060202 1
vt 0.1347656 0.9185662
vt 0.2060202 0.9185662
vt 0.1347656 1
vt 0.2060202 1
vt 0.1347656 0.9185662
vt 0.2060202 0.9185662
vt 0.1347656 1
vt 0.2060202 1
vt 0.1347656 0.9185662
vt 0.2060202 0.9185662
vt 0.1347656 1
vt 0.2060202 1
vt 0.1347656 0.9185662
vt 0.2060202 0.9185662
vt 0.1347656 1
vt 0.2060202 1
vt 0.1347656 0.9185662
vt 0.2060202 0.9185662
vt 0.1347656 1
vt 0.2060202 1
vt 0.1347656 0.9185662
vt 0.2060202 0.9185662
vt 0.1347656 1
vt 0.2060202 1
vt 0.1347656 0.9185662
vt 0.2060202 0.9185662
vt 0.1347656 1
vt 0.2060202 1
vt 0.1347656 0.9185662
vt 0.2060202 0.9185662
vt 0.1347656 1
vt 0.2060202 1
vt 0.1347656 0.9185662
vt 0.2060202 0.9185662
vt 0.1347656 1
vt 0.2060202 1
vt 0.1347656 0.9185662
vt 0.2060202 0.9185662
vt 0.1347656 1
vt 0.2060202 1
vt 0.1347656 0.9185662
vt 0.2060202 0.9185662
vt 0.1347656 1
vt 0.2060202 1
vt 0.1347656 0.9185662
vt 0.2060202 0.9185662
vt 0.1347656 1
vt 0.2060202 1
vt 0.1347656 0.9185662
vt 0.2060202 0.9185662
vt 0.1347656 1
vt 0.2060202 1
vt 0.1347656 0.9185662
vt 0.2060202 0.9185662
vt 0.1347656 1
vt 0.2060202 1
vt 0.1347656 0.9185662
vt 0.2060202 0.9185662
vt 0.1347656 1
vt 0.2060202 1
vt 0.1347656 0.9185662
vt 0.2060202 0.9185662
vt 0.1347656 1
vt 0.2060202 1
vt 0.1347656 0.9185662
vt 0.2060202 0.9185662
vt 0.1347656 1
vt 0.2060202 1
vt 0.1347656 0.9185662
vt 0.2060202 0.9185662
vt 0.1347656 1
vt 0.2060202 1
vt 0.1347656 0.9185662
vt 0.2060202 0.9185662
vt 0.1347656 1
vt 0.2060202 1
vt 0.1347656 0.9185662
vt 0.2060202 0.9185662
vt 0.1347656 1
vt 0.2060202 1
vt 0.1347656 0.9185662
vt 0.2060202 0.9185662
vt 0.1347656 1
vt 0.2060202 1
vt 0.1347656 0.9185662
vt 0.2060202 0.9185662
vt 0.1347656 1
vt 0.2060202 1
vt 0.1347656 0.9185662
vt 0.2060202 0.9185662
vt 0.1347656 1
vt 0.2060202 1
vt 0.1347656 0.9185662
vt 0.2060202 0.9185662
vt 0.1347656 1
vt 0.2060202 1
vt 0.1347656 0.9185662
vt 0.2060202 0.9185662
vt 0.1347656 1
vt 0.2060202 1
vt 0.1347656 0.9185662
vt 0.2060202 0.9185662
vt 0.1347656 1
vt 0.2060202 1
vt 0.1347656 0.9185662
vt 0.2060202 0.9185662
vt 0.1347656 1
vt 0.2060202 1
vt 0.1347656 0.9185662
vt 0.2060202 0.9185662
vt 0.1347656 1
vt 0.2060202 1
vt 0.1347656 0.9185662
vt 0.2060202 0.9185662
vt 0.1347656 1
vt 0.2060202 1
vt 0.1347656 0.9185662
vt 0.2060202 0.9185662
vt 0.1347656 1
vt 0.2060202 1
vt 0.1347656 0.9185662
vt 0.2060202 0.9185662
vt 0.1347656 1
vt 0.2060202 1
vt 0.1347656 0.9185662
vt 0.2060202 0.9185662
vt 0.1347656 1
vt 0.2060202 1
vt 0.1347656 0.9185662
vt 0.2060202 0.9185662
vt 0.1347656 1
vt 0.2060202 1
vt 0.1347656 0.9185662
vt 0.2060202 0.9185662
vt 0.1347656 1
vt 0.2060202 1
vt 0.1347656 0.9185662
vt 0.2060202 0.9185662
vt 0.1347656 1
vt 0.2060202 1
vt 0.1347656 0.9185662
vt 0.2060202 0.9185662
vt 0.1347656 1
vt 0.2060202 1
vt 0.1347656 0.9185662
vt 0.2060202 0.9185662
vt 0.1347656 1
vt 0.2060202 1
vt 0.1347656 0.9185662
vt 0.2060202 0.9185662
vt 0.1347656 1
vt 0.2060202 1
vt 0.1347656 0.9185662
vt 0.2060202 0.9185662
vt 0.1347656 1
vt 0.2060202 1
vt 0.1347656 0.9185662
vt 0.2060202 0.9185662
vt 0.1347656 1
vt 0.2060202 1
vt 0.1347656 0.9185662
vt 0.2060202 0.9185662
vt 0.1347656 1
vt 0.2060202 1
vt 0.1347656 0.9185662
vt 0.2060202 0.9185662
vt 0.1347656 1
vt 0.2060202 1
vt 0.1347656 0.9185662
vt 0.2060202 0.9185662
vt 0.1347656 1
vt 0.2060202 1
vt 0.1347656 0.9185662
vt 0.2060202 0.9185662
vt 0.1347656 1
vt 0.2060202 1
vt 0.1347656 0.9185662
vt 0.2060202 0.9185662
vt 0.1347656 1
vt 0.2060202 1
vt 0.1347656 0.9185662
vt 0.2060202 0.9185662
vt 0.1347656 1
vt 0.2060202 1
vt 0.1347656 0.9185662
vt 0.2060202 0.9185662
vt 0.1347656 1
vt 0.2060202 1
vt 0.1347656 0.9185662
vt 0.2060202 0.9185662
vt 0.1347656 1
vt 0.2060202 1
vt 0.1347656 0.9185662
vt 0.2060202 0.9185662
vt 0.1347656 1
vt 0.2060202 1
vt 0.1347656 0.9185662
vt 0.2060202 0.9185662
vt 0.1347656 1
vt 0.2060202 1
vt 0.1347656 0.9185662
vt 0.2060202 0.9185662
vt 0.1347656 1
vt 0.2060202 1
vt 0.1347656 0.9185662
vt 0.2060202 0.9185662
vt 0.1347656 1
vt 0.2060202 1
vn 0 1 0
vn 0 1 0
vn 0 1 0
vn 0 1 0
vn 0 1 0
vn 0 1 0
vn 0 1 0
vn 0 1 0
vn 0 1 0
vn 0 1 0
vn 0 1 0
vn 0 1 0
vn 0 1 0
vn 0 1 0
vn 0 1 0
vn 0 1 0
vn 0 1 0
vn 0 1 0
vn 0 1 0
vn 0 1 0
vn 0 1 0
vn 0 1 0
vn 0 1 0
vn 0 1 0
vn 0 1 0
vn 0 1 0
vn 0 1 0
vn 0 1 0
vn 0 1 0
vn 0 1 0
vn 0 1 0
vn 0 1 0
vn 0 1 0
vn 0 1 0
vn 0 1 0
vn 0 1 0
vn 0 1 0
vn 0 1 0
vn 0 1 0
vn 0 1 0
vn 0 1 0
vn 0 1 0
vn 0 1 0
vn 0 1 0
vn 0 1 0
vn 0 1 0
vn 0 1 0
vn 0 1 0
vn 0 1 0
vn 0 1 0
vn 0 1 0
vn 0 1 0
vn 0 1 0
vn 0 1 0
vn 0 1 0
vn 0 1 0
vn 0 1 0
vn 0 1 0
vn 0 1 0
vn 0 1 0
vn 0 1 0
vn 0 1 0
vn 0 1 0
vn 0 1 0
vn 0 1 0
vn 0 1 0
vn 0 1 0
vn 0 1 0
vn 0 1 0
vn 0 1 0
vn 0 1 0
vn 0 1 0
vn 0 1 0
vn 0 1 0
vn 0 1 0
vn 0 1 0
vn 0 1 0
vn 0 1 0
vn 0 1 0
vn 0 1 0
vn 0 1 0
vn 0 1 0
vn 0 1 0
vn 0 1 0
vn 0 1 0
vn 0 1 0
vn 0 1 0
vn 0 1 0
vn 0 1 0
vn 0 1 0
vn 0 1 0
vn 0 1 0
vn 0 1 0
vn 0 1 0
vn 0 1 0
vn 0 1 0
vn 0 1 0
vn 0 1 0
vn 0 1 0
vn 0 1 0
vn 0 1 0
vn 0 1 0
vn 0 1 0
vn 0 1 0
vn 0 1 0
vn 0 1 0
vn 0 1 0
vn 0 1 0
vn 0 1 0
vn 0 1 0
vn 0 1 0
vn 0 1 0
vn 0 1 0
vn 0 1 0
vn 0 1 0
vn 0 1 0
vn 0 1 0
vn 0 1 0
vn 0 1 0
vn 0 1 0
vn 0 1 0
vn 0 1 0
vn 0 1 0
vn 0 1 0
vn 0 1 0
vn 0 1 0
vn 0 1 0
vn 0 1 0
vn 0 1 0
vn 0 1 0
vn 0 1 0
vn 0 1 0
vn 0 1 0
vn 0 1 0
vn 0 1 0
vn 0 1 0
vn 0 1 0
vn 0 1 0
vn 0 1 0
vn 0 1 0
vn 0 1 0
vn 0 1 0
vn 0 1 0
vn 0 1 0
vn 0 1 0
vn 0 1 0
vn 0 1 0
vn 0 1 0
vn 0 1 0
vn 0 1 0
vn 0 1 0
vn 0 1 0
vn 0 1 0
vn 0 1 0
vn 0 1 0
vn 0 1 0
vn 0 1 0
vn 0 1 0
vn 0 1 0
vn 0 1 0
vn 0 1 0
vn 0 1 0
vn 0 1 0
vn 0 1 0
vn 0 1 0
vn 0 1 0
vn 0 1 0
vn 0 1 0
vn 0 1 0
vn 0 1 0
vn 0 1 0
vn 0 1 0
vn 0 1 0
vn 0 1 0
vn 0 1 0
vn 0 1 0
vn 0 1 0
vn 0 1 0
vn 0 1 0
vn 0 1 0
vn 0 1 0
vn 0 1 0
vn 0 1 0
vn 0 1 0
vn 0 1 0
vn 0 1 0
vn 0 1 0
vn 0 1 0
vn 0 1 0
vn 0 1 0
vn 0 1 0
vn 0 1 0
vn 0 1 0
vn 0 1 0
vn 0 1 0
vn 0 1 0
vn 0 1 0
vn 0 1 0
vn 0 1 0
vn 0 1 0
vn 0 1 0
vn 0 1 0
vn 0 1 0
vn 0 1 0
vn 0 1 0
vn 0 1 0
vn 0 1 0
vn 0 1 0
vn 0 1 0
vn 0 1 0
vn 0 1 0
vn 0 1 0
vn 0 1 0
vn 0 1 0
vn 0 1 0
vn 0 1 0
vn 0 1 0
vn 0 1 0
vn 0 1 0
vn 0 1 0
vn 0 1 0
vn 0 1 0
vn 0 1 0
vn 0 1 0
vn 0 1 0
vn 0 1 0
vn 0 1 0
vn 0 1 0
vn 0 1 0
vn 0 1 0
vn 0 1 0
vn 0 1 0
vn 0 1 0
vn 0 1 0
vn 0 1 0
vn 0 1 0
vn 0 1 0
vn 0 1 0
vn 0 1 0
vn 0 1 0
vn 0 1 0
vn 0 1 0
vn 0 1 0
vn 0 1 0
vn 0 1 0
vn 0 1 0
vn 0 1 0
vn 0 1 0
vn 0 1 0
vn 0 1 0
vn 0 1 0
vn 0 1 0
vn 0 1 0
vn 0 1 0
vn 0 1 0
vn 0 1 0
vn 0 1 0
vn 0 1 0
vn 0 1 0
vn 0 1 0
vn 0 1 0
vn 0 1 0
vn 0 1 0
vn 0 1 0
vn 0 1 0
vn 0 1 0
vn 0 1 0
vn 0 1 0
vn 0 1 0
vn 0 1 0
vn 0 1 0
vn 0 1 0
vn 0 1 0
vn 0 1 0
vn 0 1 0
vn 0 1 0
g Grass_2_Cluster213_0
f 2/2/2 3/3/3 1/1/1
f 2/2/2 4/4/4 3/3/3
f 6/6/6 7/7/7 5/5/5
f 6/6/6 8/8/8 7/7/7
f 10/10/10 11/11/11 9/9/9
f 10/10/10 12/12/12 11/11/11
f 14/14/14 15/15/15 13/13/13
f 14/14/14 16/16/16 15/15/15
f 18/18/18 19/19/19 17/17/17
f 18/18/18 20/20/20 19/19/19
f 22/22/22 23/23/23 21/21/21
f 22/22/22 24/24/24 23/23/23
f 26/26/26 27/27/27 25/25/25
f 26/26/26 28/28/28 27/27/27
f 30/30/30 31/31/31 29/29/29
f 30/30/30 32/32/32 31/31/31
f 34/34/34 35/35/35 33/33/33
f 34/34/34 36/36/36 35/35/35
f 38/38/38 39/39/39 37/37/37
f 38/38/38 40/40/40 39/39/39
f 42/42/42 43/43/43 41/41/41
f 42/42/42 44/44/44 43/43/43
f 46/46/46 47/47/47 45/45/45
f 46/46/46 48/48/48 47/47/47
f 50/50/50 51/51/51 49/49/49
f 50/50/50 52/52/52 51/51/51
f 54/54/54 55/55/55 53/53/53
f 54/54/54 56/56/56 55/55/55
f 58/58/58 59/59/59 57/57/57
f 58/58/58 60/60/60 59/59/59
f 62/62/62 63/63/63 61/61/61
f 62/62/62 64/64/64 63/63/63
f 66/66/66 67/67/67 65/65/65
f 66/66/66 68/68/68 67/67/67
f 70/70/70 71/71/71 69/69/69
f 70/70/70 72/72/72 71/71/71
f 74/74/74 75/75/75 73/73/73
f 74/74/74 76/76/76 75/75/75
f 78/78/78 79/79/79 77/77/77
f 78/78/78 80/80/80 79/79/79
f 82/82/82 83/83/83 81/81/81
f 82/82/82 84/84/84 83/83/83
f 86/86/86 87/87/87 85/85/85
f 86/86/86 88/88/88 87/87/87
f 90/90/90 91/91/91 89/89/89
f 90/90/90 92/92/92 91/91/91
f 94/94/94 95/95/95 93/93/93
f 94/94/94 96/96/96 95/95/95
f 98/98/98 99/99/99 97/97/97
f 98/98/98 100/100/100 99/99/99
f 102/102/102 103/103/103 101/101/101
f 102/102/102 104/104/104 103/103/103
f 106/106/106 107/107/107 105/105/105
f 106/106/106 108/108/108 107/107/107
f 110/110/110 111/111/111 109/109/109
f 110/110/110 112/112/112 111/111/111
f 114/114/114 115/115/115 113/113/113
f 114/114/114 116/116/116 115/115/115
f 118/118/118 119/119/119 117/117/117
f 118/118/118 120/120/120 119/119/119
f 122/122/122 123/123/123 121/121/121
f 122/122/122 124/124/124 123/123/123
f 126/126/126 127/127/127 125/125/125
f 126/126/126 128/128/128 127/127/127
f 130/130/130 131/131/131 129/129/129
f 130/130/130 132/132/132 131/131/131
f 134/134/134 135/135/135 133/133/133
f 134/134/134 136/136/136 135/135/135
f 138/138/138 139/139/139 137/137/137
f 138/138/138 140/140/140 139/139/139
f 142/142/142 143/143/143 141/141/141
f 142/142/142 144/144/144 143/143/143
f 146/146/146 147/147/147 145/145/145
f 146/146/146 148/148/148 147/147/147
f 150/150/150 151/151/151 149/149/149
f 150/150/150 152/152/152 151/151/151
f 154/154/154 155/155/155 153/153/153
f 154/154/154 156/156/156 155/155/155
f 158/158/158 159/159/159 157/157/157
f 158/158/158 160/160/160 159/159/159
f 162/162/162 163/163/163 161/161/161
f 162/162/162 164/164/164 163/163/163
f 166/166/166 167/167/167 165/165/165
f 166/166/166 168/168/168 167/167/167
f 170/170/170 171/171/171 169/169/169
f 170/170/170 172/172/172 171/171/171
f 174/174/174 175/175/175 173/173/173
f 174/174/174 176/176/176 175/175/175
f 178/178/178 179/179/179 177/177/177
f 178/178/178 180/180/180 179/179/179
f 182/182/182 183/183/183 181/181/181
f 182/182/182 184/184/184 183/183/183
f 186/186/186 187/187/187 185/185/185
f 186/186/186 188/188/188 187/187/187
f 190/190/190 191/191/191 189/189/189
f 190/190/190 192/192/192 191/191/191
f 194/194/194 195/195/195 193/193/193
f 194/194/194 196/196/196 195/195/195
f 198/198/198 199/199/199 197/197/197
f 198/198/198 200/200/200 199/199/199
f 202/202/202 203/203/203 201/201/201
f 202/202/202 204/204/204 203/203/203
f 206/206/206 207/207/207 205/205/205
f 206/206/206 208/208/208 207/207/207
f 210/210/210 211/211/211 209/209/209
f 210/210/210 212/212/212 211/211/211
f 214/214/214 215/215/215 213/213/213
f 214/214/214 216/216/216 215/215/215
f 218/218/218 219/219/219 217/217/217
f 218/218/218 220/220/220 219/219/219
f 222/222/222 223/223/223 221/221/221
f 222/222/222 224/224/224 223/223/223
f 226/226/226 227/227/227 225/225/225
f 226/226/226 228/228/228 227/227/227
f 230/230/230 231/231/231 229/229/229
f 230/230/230 232/232/232 231/231/231
f 234/234/234 235/235/235 233/233/233
f 234/234/234 236/236/236 235/235/235
f 238/238/238 239/239/239 237/237/237
f 238/238/238 240/240/240 239/239/239
f 242/242/242 243/243/243 241/241/241
f 242/242/242 244/244/244 243/243/243
f 246/246/246 247/247/247 245/245/245
f 246/246/246 248/248/248 247/247/247
f 250/250/250 251/251/251 249/249/249
f 250/250/250 252/252/252 251/251/251
f 254/254/254 255/255/255 253/253/253
f 254/254/254 256/256/256 255/255/255
f 258/258/258 259/259/259 257/257/257
f 258/258/258 260/260/260 259/259/259
f 262/262/262 263/263/263 261/261/261
f 262/262/262 264/264/264 263/263/263
f 266/266/266 267/267/267 265/265/265
f 266/266/266 268/268/268 267/267/267
f 270/270/270 271/271/271 269/269/269
f 270/270/270 272/272/272 271/271/271
f 274/274/274 275/275/275 273/273/273
f 274/274/274 276/276/276 275/275/275
