g Grass_0_Cluster1
v 255.0121 0 -7.399323
v 254.2193 0 -7.399323
v 255.0121 0 -6.078003
v 254.2193 0 -6.078003
v 242.3275 0 -7.927826
v 241.5347 0 -7.927826
v 242.3275 0 -6.606537
v 241.5347 0 -6.606537
v 244.9701 0 -8.45636
v 244.1773 0 -8.45636
v 244.9701 0 -7.13504
v 244.1773 0 -7.13504
v 261.6186 0 -8.45636
v 260.8258 0 -8.45636
v 261.6186 0 -7.399323
v 260.8258 0 -7.399323
v 243.3846 0 -8.984894
v 242.5918 0 -8.984894
v 243.3846 0 -7.663574
v 242.5918 0 -7.663574
v 260.033 0 -8.984894
v 259.2402 0 -8.984894
v 260.033 0 -7.663574
v 259.2402 0 -7.663574
v 262.1471 0 -9.777679
v 261.0901 0 -9.777679
v 262.1471 0 -8.45636
v 261.0901 0 -8.45636
v 243.9131 0 -11.09897
v 242.856 0 -11.09897
v 243.9131 0 -9.777679
v 242.856 0 -9.777679
v 242.856 0 -11.89175
v 242.0633 0 -11.89175
v 242.856 0 -10.83472
v 242.0633 0 -10.83472
v 261.3543 0 -14.00583
v 260.5615 0 -14.00583
v 261.3543 0 -12.94879
v 260.5615 0 -12.94879
v 264.7897 0 -16.3842
v 263.9969 0 -16.3842
v 264.7897 0 -15.32715
v 263.9969 0 -15.32715
v 269.5464 0 -16.64845
v 268.4894 0 -16.64845
v 269.5464 0 -15.59142
v 268.4894 0 -15.59142
v 268.7536 0 -17.70551
v 267.6966 0 -17.70551
v 268.7536 0 -16.3842
v 267.6966 0 -16.3842
v 270.3392 0 -18.23402
v 269.5464 0 -18.23402
v 270.3392 0 -16.91272
v 269.5464 0 -16.91272
v 268.7536 0 -18.49829
v 267.9608 0 -18.49829
v 268.7536 0 -17.17697
v 267.9608 0 -17.17697
v 263.9969 0 -19.55533
v 263.2042 0 -19.55533
v 263.9969 0 -18.23402
v 263.2042 0 -18.23402
v 268.7536 0 -19.55533
v 267.6966 0 -19.55533
v 268.7536 0 -18.23402
v 267.6966 0 -18.23402
v 269.8107 0 -20.61238
v 269.0179 0 -20.61238
v 269.8107 0 -19.29106
v 269.0179 0 -19.29106
v 258.7117 0 -22.19794
v 257.6547 0 -22.19794
v 258.7117 0 -20.87663
v 257.6547 0 -20.87663
v 249.1983 0 -23.51924
v 248.4055 0 -23.51924
v 249.1983 0 -22.4622
v 248.4055 0 -22.4622
v 248.1413 0 -24.04778
v 247.0842 0 -24.04778
v 248.1413 0 -22.72647
v 247.0842 0 -22.72647
v 251.3124 0 -24.31203
v 250.2554 0 -24.31203
v 251.3124 0 -23.25499
v 250.2554 0 -23.25499
v 248.1413 0 -24.57629
v 247.0842 0 -24.57629
v 248.1413 0 -23.51924
v 247.0842 0 -23.51924
v 249.1983 0 -24.84055
v 248.1413 0 -24.84055
v 249.1983 0 -23.51924
v 248.1413 0 -23.51924
v 241.2705 0 -25.10481
v 240.4777 0 -25.10481
v 241.2705 0 -23.78351
v 240.4777 0 -23.78351
v 249.7268 0 -25.36908
v 248.9341 0 -25.36908
v 249.7268 0 -24.31203
v 248.9341 0 -24.31203
v 246.82 0 -25.63333
v 245.7629 0 -25.63333
v 246.82 0 -24.57629
v 245.7629 0 -24.57629
v 246.0272 0 -27.48317
v 245.2344 0 -27.48317
v 246.0272 0 -26.16187
v 245.2344 0 -26.16187
v 244.7059 0 -30.39005
v 243.6488 0 -30.39005
v 244.7059 0 -29.06873
v 243.6488 0 -29.06873
v 269.2822 0 -30.91856
v 268.2251 0 -30.91856
v 269.2822 0 -29.59726
v 268.2251 0 -29.59726
v 269.8107 0 -31.44708
v 269.0179 0 -31.44708
v 269.8107 0 -30.12578
v 269.0179 0 -30.12578
v 266.3753 0 -34.61821
v 265.5825 0 -34.61821
v 266.3753 0 -33.29691
v 265.5825 0 -33.29691
v 267.9608 0 -35.93953
v 266.9038 0 -35.93953
v 267.9608 0 -34.61821
v 266.9038 0 -34.61821
v 264.2612 0 -36.7323
v 263.2042 0 -36.7323
v 264.2612 0 -35.411
v 263.2042 0 -35.411
vt 0 0.9058824
vt 0.06666667 0.9058824
vt 0 1
vt 0.06666667 1
vt 0 0.9058824
vt 0.06666667 0.9058824
vt 0 1
vt 0.06666667 1
vt 0 0.9058824
vt 0.06666667 0.9058824
vt 0 1
vt 0.06666667 1
vt 0 0.9058824
vt 0.06666667 0.9058824
vt 0 1
vt 0.06666667 1
vt 0 0.9058824
vt 0.06666667 0.9058824
vt 0 1
vt 0.06666667 1
vt 0 0.9058824
vt 0.06666667 0.9058824
vt 0 1
vt 0.06666667 1
vt 0 0.9058824
vt 0.06666667 0.9058824
vt 0 1
vt 0.06666667 1
vt 0 0.9058824
vt 0.06666667 0.9058824
vt 0 1
vt 0.06666667 1
vt 0 0.9058824
vt 0.06666667 0.9058824
vt 0 1
vt 0.06666667 1
vt 0 0.9058824
vt 0.06666667 0.9058824
vt 0 1
vt 0.06666667 1
vt 0 0.9058824
vt 0.06666667 0.9058824
vt 0 1
vt 0.06666667 1
vt 0 0.9058824
vt 0.06666667 0.9058824
vt 0 1
vt 0.06666667 1
vt 0 0.9058824
vt 0.06666667 0.9058824
vt 0 1
vt 0.06666667 1
vt 0 0.9058824
vt 0.06666667 0.9058824
vt 0 1
vt 0.06666667 1
vt 0 0.9058824
vt 0.06666667 0.9058824
vt 0 1
vt 0.06666667 1
vt 0 0.9058824
vt 0.06666667 0.9058824
vt 0 1
vt 0.06666667 1
vt 0 0.9058824
vt 0.06666667 0.9058824
vt 0 1
vt 0.06666667 1
vt 0 0.9058824
vt 0.06666667 0.9058824
vt 0 1
vt 0.06666667 1
vt 0 0.9058824
vt 0.06666667 0.9058824
vt 0 1
vt 0.06666667 1
vt 0 0.9058824
vt 0.06666667 0.9058824
vt 0 1
vt 0.06666667 1
vt 0 0.9058824
vt 0.06666667 0.9058824
vt 0 1
vt 0.06666667 1
vt 0 0.9058824
vt 0.06666667 0.9058824
vt 0 1
vt 0.06666667 1
vt 0 0.9058824
vt 0.06666667 0.9058824
vt 0 1
vt 0.06666667 1
vt 0 0.9058824
vt 0.06666667 0.9058824
vt 0 1
vt 0.06666667 1
vt 0 0.9058824
vt 0.06666667 0.9058824
vt 0 1
vt 0.06666667 1
vt 0 0.9058824
vt 0.06666667 0.9058824
vt 0 1
vt 0.06666667 1
vt 0 0.9058824
vt 0.06666667 0.9058824
vt 0 1
vt 0.06666667 1
vt 0 0.9058824
vt 0.06666667 0.9058824
vt 0 1
vt 0.06666667 1
vt 0 0.9058824
vt 0.06666667 0.9058824
vt 0 1
vt 0.06666667 1
vt 0 0.9058824
vt 0.06666667 0.9058824
vt 0 1
vt 0.06666667 1
vt 0 0.9058824
vt 0.06666667 0.9058824
vt 0 1
vt 0.06666667 1
vt 0 0.9058824
vt 0.06666667 0.9058824
vt 0 1
vt 0.06666667 1
vt 0 0.9058824
vt 0.06666667 0.9058824
vt 0 1
vt 0.06666667 1
vt 0 0.9058824
vt 0.06666667 0.9058824
vt 0 1
vt 0.06666667 1
vn 0 1 0
vn 0 1 0
vn 0 1 0
vn 0 1 0
vn 0 1 0
vn 0 1 0
vn 0 1 0
vn 0 1 0
vn 0 1 0
vn 0 1 0
vn 0 1 0
vn 0 1 0
vn 0 1 0
vn 0 1 0
vn 0 1 0
vn 0 1 0
vn 0 1 0
vn 0 1 0
vn 0 1 0
vn 0 1 0
vn 0 1 0
vn 0 1 0
vn 0 1 0
vn 0 1 0
vn 0 1 0
vn 0 1 0
vn 0 1 0
vn 0 1 0
vn 0 1 0
vn 0 1 0
vn 0 1 0
vn 0 1 0
vn 0 1 0
vn 0 1 0
vn 0 1 0
vn 0 1 0
vn 0 1 0
vn 0 1 0
vn 0 1 0
vn 0 1 0
vn 0 1 0
vn 0 1 0
vn 0 1 0
vn 0 1 0
vn 0 1 0
vn 0 1 0
vn 0 1 0
vn 0 1 0
vn 0 1 0
vn 0 1 0
vn 0 1 0
vn 0 1 0
vn 0 1 0
vn 0 1 0
vn 0 1 0
vn 0 1 0
vn 0 1 0
vn 0 1 0
vn 0 1 0
vn 0 1 0
vn 0 1 0
vn 0 1 0
vn 0 1 0
vn 0 1 0
vn 0 1 0
vn 0 1 0
vn 0 1 0
vn 0 1 0
vn 0 1 0
vn 0 1 0
vn 0 1 0
vn 0 1 0
vn 0 1 0
vn 0 1 0
vn 0 1 0
vn 0 1 0
vn 0 1 0
vn 0 1 0
vn 0 1 0
vn 0 1 0
vn 0 1 0
vn 0 1 0
vn 0 1 0
vn 0 1 0
vn 0 1 0
vn 0 1 0
vn 0 1 0
vn 0 1 0
vn 0 1 0
vn 0 1 0
vn 0 1 0
vn 0 1 0
vn 0 1 0
vn 0 1 0
vn 0 1 0
vn 0 1 0
vn 0 1 0
vn 0 1 0
vn 0 1 0
vn 0 1 0
vn 0 1 0
vn 0 1 0
vn 0 1 0
vn 0 1 0
vn 0 1 0
vn 0 1 0
vn 0 1 0
vn 0 1 0
vn 0 1 0
vn 0 1 0
vn 0 1 0
vn 0 1 0
vn 0 1 0
vn 0 1 0
vn 0 1 0
vn 0 1 0
vn 0 1 0
vn 0 1 0
vn 0 1 0
vn 0 1 0
vn 0 1 0
vn 0 1 0
vn 0 1 0
vn 0 1 0
vn 0 1 0
vn 0 1 0
vn 0 1 0
vn 0 1 0
vn 0 1 0
vn 0 1 0
vn 0 1 0
vn 0 1 0
vn 0 1 0
vn 0 1 0
vn 0 1 0
vn 0 1 0
g Grass_0_Cluster1_0
f 2/2/2 3/3/3 1/1/1
f 2/2/2 4/4/4 3/3/3
f 6/6/6 7/7/7 5/5/5
f 6/6/6 8/8/8 7/7/7
f 10/10/10 11/11/11 9/9/9
f 10/10/10 12/12/12 11/11/11
f 14/14/14 15/15/15 13/13/13
f 14/14/14 16/16/16 15/15/15
f 18/18/18 19/19/19 17/17/17
f 18/18/18 20/20/20 19/19/19
f 22/22/22 23/23/23 21/21/21
f 22/22/22 24/24/24 23/23/23
f 26/26/26 27/27/27 25/25/25
f 26/26/26 28/28/28 27/27/27
f 30/30/30 31/31/31 29/29/29
f 30/30/30 32/32/32 31/31/31
f 34/34/34 35/35/35 33/33/33
f 34/34/34 36/36/36 35/35/35
f 38/38/38 39/39/39 37/37/37
f 38/38/38 40/40/40 39/39/39
f 42/42/42 43/43/43 41/41/41
f 42/42/42 44/44/44 43/43/43
f 46/46/46 47/47/47 45/45/45
f 46/46/46 48/48/48 47/47/47
f 50/50/50 51/51/51 49/49/49
f 50/50/50 52/52/52 51/51/51
f 54/54/54 55/55/55 53/53/53
f 54/54/54 56/56/56 55/55/55
f 58/58/58 59/59/59 57/57/57
f 58/58/58 60/60/60 59/59/59
f 62/62/62 63/63/63 61/61/61
f 62/62/62 64/64/64 63/63/63
f 66/66/66 67/67/67 65/65/65
f 66/66/66 68/68/68 67/67/67
f 70/70/70 71/71/71 69/69/69
f 70/70/70 72/72/72 71/71/71
f 74/74/74 75/75/75 73/73/73
f 74/74/74 76/76/76 75/75/75
f 78/78/78 79/79/79 77/77/77
f 78/78/78 80/80/80 79/79/79
f 82/82/82 83/83/83 81/81/81
f 82/82/82 84/84/84 83/83/83
f 86/86/86 87/87/87 85/85/85
f 86/86/86 88/88/88 87/87/87
f 90/90/90 91/91/91 89/89/89
f 90/90/90 92/92/92 91/91/91
f 94/94/94 95/95/95 93/93/93
f 94/94/94 96/96/96 95/95/95
f 98/98/98 99/99/99 97/97/97
f 98/98/98 100/100/100 99/99/99
f 102/102/102 103/103/103 101/101/101
f 102/102/102 104/104/104 103/103/103
f 106/106/106 107/107/107 105/105/105
f 106/106/106 108/108/108 107/107/107
f 110/110/110 111/111/111 109/109/109
f 110/110/110 112/112/112 111/111/111
f 114/114/114 115/115/115 113/113/113
f 114/114/114 116/116/116 115/115/115
f 118/118/118 119/119/119 117/117/117
f 118/118/118 120/120/120 119/119/119
f 122/122/122 123/123/123 121/121/121
f 122/122/122 124/124/124 123/123/123
f 126/126/126 127/127/127 125/125/125
f 126/126/126 128/128/128 127/127/127
f 130/130/130 131/131/131 129/129/129
f 130/130/130 132/132/132 131/131/131
f 134/134/134 135/135/135 133/133/133
f 134/134/134 136/136/136 135/135/135
