g Grass_0_Cluster239
v -285.1945 0 321.1196
v -286.1399 0 321.1196
v -285.1945 0 322.3801
v -286.1399 0 322.3801
v -297.1695 0 318.2834
v -298.1149 0 318.2834
v -297.1695 0 319.2288
v -298.1149 0 319.2288
v -270.0682 0 318.2834
v -271.0136 0 318.2834
v -270.0682 0 319.5439
v -271.0136 0 319.5439
v -270.6984 0 317.0229
v -271.6438 0 317.0229
v -270.6984 0 318.2834
v -271.6438 0 318.2834
v -296.8544 0 317.0229
v -297.7998 0 317.0229
v -296.8544 0 317.9682
v -297.7998 0 317.9682
v -269.7531 0 316.7077
v -270.6984 0 316.7077
v -269.7531 0 317.9682
v -270.6984 0 317.9682
v -271.3287 0 315.132
v -272.2741 0 315.132
v -271.3287 0 316.3926
v -272.2741 0 316.3926
v -274.48 0 314.8169
v -275.4254 0 314.8169
v -274.48 0 316.0775
v -275.4254 0 316.0775
v -270.6984 0 314.5018
v -271.6438 0 314.5018
v -270.6984 0 315.7623
v -271.6438 0 315.7623
v -272.2741 0 314.5018
v -273.2195 0 314.5018
v -272.2741 0 315.4472
v -273.2195 0 315.4472
v -296.5393 0 314.5018
v -297.4846 0 314.5018
v -296.5393 0 315.4472
v -297.4846 0 315.4472
v -274.7952 0 313.2413
v -275.7405 0 313.2413
v -274.7952 0 314.1867
v -275.7405 0 314.1867
v -276.3708 0 312.9261
v -277.3162 0 312.9261
v -276.3708 0 314.1867
v -277.3162 0 314.1867
v -274.1649 0 312.611
v -275.1103 0 312.611
v -274.1649 0 313.8715
v -275.1103 0 313.8715
v -271.3287 0 312.2959
v -272.2741 0 312.2959
v -271.3287 0 313.5564
v -272.2741 0 313.5564
v -277.0011 0 312.2959
v -277.9465 0 312.2959
v -277.0011 0 313.5564
v -277.9465 0 313.5564
v -273.2195 0 311.9807
v -273.8498 0 311.9807
v -273.2195 0 313.2413
v -273.8498 0 313.2413
v -273.8498 0 311.3505
v -274.7952 0 311.3505
v -273.8498 0 312.611
v -274.7952 0 312.611
v -288.3458 0 310.7202
v -289.2912 0 310.7202
v -288.3458 0 311.9807
v -289.2912 0 311.9807
v -291.4972 0 310.0899
v -292.4425 0 310.0899
v -291.4972 0 311.3505
v -292.4425 0 311.3505
v -290.2366 0 309.7748
v -290.8669 0 309.7748
v -290.2366 0 311.0353
v -290.8669 0 311.0353
v -287.4004 0 308.8294
v -288.3458 0 308.8294
v -287.4004 0 309.7748
v -288.3458 0 309.7748
v -285.8248 0 308.5143
v -286.7702 0 308.5143
v -285.8248 0 309.7748
v -286.7702 0 309.7748
v -291.182 0 308.1992
v -292.1274 0 308.1992
v -291.182 0 309.4597
v -292.1274 0 309.4597
v -288.9761 0 307.5689
v -289.9215 0 307.5689
v -288.9761 0 308.8294
v -289.9215 0 308.8294
v -277.3162 0 306.9386
v -278.2616 0 306.9386
v -277.3162 0 308.1992
v -278.2616 0 308.1992
v -287.0853 0 306.6235
v -288.0307 0 306.6235
v -287.0853 0 307.884
v -288.0307 0 307.884
v -293.7031 0 306.6235
v -294.6485 0 306.6235
v -293.7031 0 307.884
v -294.6485 0 307.884
v -288.6609 0 306.3083
v -289.6064 0 306.3083
v -288.6609 0 307.5689
v -289.6064 0 307.5689
v -290.2366 0 305.9932
v -291.182 0 305.9932
v -290.2366 0 307.2538
v -291.182 0 307.2538
v -281.0978 0 305.9932
v -282.0432 0 305.9932
v -281.0978 0 307.2538
v -282.0432 0 307.2538
v -295.5939 0 305.0478
v -296.5393 0 305.0478
v -295.5939 0 306.6235
v -296.5393 0 306.6235
v -289.9215 0 305.0478
v -290.5518 0 305.0478
v -289.9215 0 306.3083
v -290.5518 0 306.3083
v -288.6609 0 304.7327
v -289.2912 0 304.7327
v -288.6609 0 305.9932
v -289.2912 0 305.9932
v -290.5518 0 304.7327
v -291.4972 0 304.7327
v -290.5518 0 305.9932
v -291.4972 0 305.9932
v -287.7156 0 304.4176
v -288.6609 0 304.4176
v -287.7156 0 305.6781
v -288.6609 0 305.6781
v -288.0307 0 304.1024
v -288.9761 0 304.1024
v -288.0307 0 305.363
v -288.9761 0 305.363
v -299.0603 0 303.7873
v -299.6906 0 303.7873
v -299.0603 0 305.0478
v -299.6906 0 305.0478
v -291.4972 0 303.7873
v -292.1274 0 303.7873
v -291.4972 0 305.0478
v -292.1274 0 305.0478
v -285.5096 0 303.4722
v -286.455 0 303.4722
v -285.5096 0 304.7327
v -286.455 0 304.7327
v -289.6064 0 303.157
v -290.2366 0 303.157
v -289.6064 0 304.4176
v -290.2366 0 304.4176
v -297.1695 0 302.8419
v -298.1149 0 302.8419
v -297.1695 0 304.1024
v -298.1149 0 304.1024
v -293.0728 0 302.8419
v -294.0182 0 302.8419
v -293.0728 0 304.1024
v -294.0182 0 304.1024
v -289.9215 0 302.5268
v -290.8669 0 302.5268
v -289.9215 0 303.7873
v -290.8669 0 303.7873
v -286.7702 0 301.8965
v -287.7156 0 301.8965
v -286.7702 0 303.157
v -287.7156 0 303.157
v -299.3755 0 301.8965
v -300.3209 0 301.8965
v -299.3755 0 303.157
v -300.3209 0 303.157
v -294.9636 0 301.5814
v -295.909 0 301.5814
v -294.9636 0 302.8419
v -295.909 0 302.8419
v -288.3458 0 301.5814
v -289.2912 0 301.5814
v -288.3458 0 302.8419
v -289.2912 0 302.8419
v -287.4004 0 300.0057
v -288.3458 0 300.0057
v -287.4004 0 300.9511
v -288.3458 0 300.9511
v -290.5518 0 298.7452
v -291.4972 0 298.7452
v -290.5518 0 300.0057
v -291.4972 0 300.0057
v -290.8669 0 298.1149
v -291.8123 0 298.1149
v -290.8669 0 299.3755
v -291.8123 0 299.3755
v -294.0182 0 297.4846
v -294.9636 0 297.4846
v -294.0182 0 298.7452
v -294.9636 0 298.7452
vt 0 0.9058824
vt 0.06666667 0.9058824
vt 0 1
vt 0.06666667 1
vt 0 0.9058824
vt 0.06666667 0.9058824
vt 0 1
vt 0.06666667 1
vt 0 0.9058824
vt 0.06666667 0.9058824
vt 0 1
vt 0.06666667 1
vt 0 0.9058824
vt 0.06666667 0.9058824
vt 0 1
vt 0.06666667 1
vt 0 0.9058824
vt 0.06666667 0.9058824
vt 0 1
vt 0.06666667 1
vt 0 0.9058824
vt 0.06666667 0.9058824
vt 0 1
vt 0.06666667 1
vt 0 0.9058824
vt 0.06666667 0.9058824
vt 0 1
vt 0.06666667 1
vt 0 0.9058824
vt 0.06666667 0.9058824
vt 0 1
vt 0.06666667 1
vt 0 0.9058824
vt 0.06666667 0.9058824
vt 0 1
vt 0.06666667 1
vt 0 0.9058824
vt 0.06666667 0.9058824
vt 0 1
vt 0.06666667 1
vt 0 0.9058824
vt 0.06666667 0.9058824
vt 0 1
vt 0.06666667 1
vt 0 0.9058824
vt 0.06666667 0.9058824
vt 0 1
vt 0.06666667 1
vt 0 0.9058824
vt 0.06666667 0.9058824
vt 0 1
vt 0.06666667 1
vt 0 0.9058824
vt 0.06666667 0.9058824
vt 0 1
vt 0.06666667 1
vt 0 0.9058824
vt 0.06666667 0.9058824
vt 0 1
vt 0.06666667 1
vt 0 0.9058824
vt 0.06666667 0.9058824
vt 0 1
vt 0.06666667 1
vt 0 0.9058824
vt 0.06666667 0.9058824
vt 0 1
vt 0.06666667 1
vt 0 0.9058824
vt 0.06666667 0.9058824
vt 0 1
vt 0.06666667 1
vt 0 0.9058824
vt 0.06666667 0.9058824
vt 0 1
vt 0.06666667 1
vt 0 0.9058824
vt 0.06666667 0.9058824
vt 0 1
vt 0.06666667 1
vt 0 0.9058824
vt 0.06666667 0.9058824
vt 0 1
vt 0.06666667 1
vt 0 0.9058824
vt 0.06666667 0.9058824
vt 0 1
vt 0.06666667 1
vt 0 0.9058824
vt 0.06666667 0.9058824
vt 0 1
vt 0.06666667 1
vt 0 0.9058824
vt 0.06666667 0.9058824
vt 0 1
vt 0.06666667 1
vt 0 0.9058824
vt 0.06666667 0.9058824
vt 0 1
vt 0.06666667 1
vt 0 0.9058824
vt 0.06666667 0.9058824
vt 0 1
vt 0.06666667 1
vt 0 0.9058824
vt 0.06666667 0.9058824
vt 0 1
vt 0.06666667 1
vt 0 0.9058824
vt 0.06666667 0.9058824
vt 0 1
vt 0.06666667 1
vt 0 0.9058824
vt 0.06666667 0.9058824
vt 0 1
vt 0.06666667 1
vt 0 0.9058824
vt 0.06666667 0.9058824
vt 0 1
vt 0.06666667 1
vt 0 0.9058824
vt 0.06666667 0.9058824
vt 0 1
vt 0.06666667 1
vt 0 0.9058824
vt 0.06666667 0.9058824
vt 0 1
vt 0.06666667 1
vt 0 0.9058824
vt 0.06666667 0.9058824
vt 0 1
vt 0.06666667 1
vt 0 0.9058824
vt 0.06666667 0.9058824
vt 0 1
vt 0.06666667 1
vt 0 0.9058824
vt 0.06666667 0.9058824
vt 0 1
vt 0.06666667 1
vt 0 0.9058824
vt 0.06666667 0.9058824
vt 0 1
vt 0.06666667 1
vt 0 0.9058824
vt 0.06666667 0.9058824
vt 0 1
vt 0.06666667 1
vt 0 0.9058824
vt 0.06666667 0.9058824
vt 0 1
vt 0.06666667 1
vt 0 0.9058824
vt 0.06666667 0.9058824
vt 0 1
vt 0.06666667 1
vt 0 0.9058824
vt 0.06666667 0.9058824
vt 0 1
vt 0.06666667 1
vt 0 0.9058824
vt 0.06666667 0.9058824
vt 0 1
vt 0.06666667 1
vt 0 0.9058824
vt 0.06666667 0.9058824
vt 0 1
vt 0.06666667 1
vt 0 0.9058824
vt 0.06666667 0.9058824
vt 0 1
vt 0.06666667 1
vt 0 0.9058824
vt 0.06666667 0.9058824
vt 0 1
vt 0.06666667 1
vt 0 0.9058824
vt 0.06666667 0.9058824
vt 0 1
vt 0.06666667 1
vt 0 0.9058824
vt 0.06666667 0.9058824
vt 0 1
vt 0.06666667 1
vt 0 0.9058824
vt 0.06666667 0.9058824
vt 0 1
vt 0.06666667 1
vt 0 0.9058824
vt 0.06666667 0.9058824
vt 0 1
vt 0.06666667 1
vt 0 0.9058824
vt 0.06666667 0.9058824
vt 0 1
vt 0.06666667 1
vt 0 0.9058824
vt 0.06666667 0.9058824
vt 0 1
vt 0.06666667 1
vt 0 0.9058824
vt 0.06666667 0.9058824
vt 0 1
vt 0.06666667 1
vt 0 0.9058824
vt 0.06666667 0.9058824
vt 0 1
vt 0.06666667 1
vn 0 1 0
vn 0 1 0
vn 0 1 0
vn 0 1 0
vn 0 1 0
vn 0 1 0
vn 0 1 0
vn 0 1 0
vn 0 1 0
vn 0 1 0
vn 0 1 0
vn 0 1 0
vn 0 1 0
vn 0 1 0
vn 0 1 0
vn 0 1 0
vn 0 1 0
vn 0 1 0
vn 0 1 0
vn 0 1 0
vn 0 1 0
vn 0 1 0
vn 0 1 0
vn 0 1 0
vn 0 1 0
vn 0 1 0
vn 0 1 0
vn 0 1 0
vn 0 1 0
vn 0 1 0
vn 0 1 0
vn 0 1 0
vn 0 1 0
vn 0 1 0
vn 0 1 0
vn 0 1 0
vn 0 1 0
vn 0 1 0
vn 0 1 0
vn 0 1 0
vn 0 1 0
vn 0 1 0
vn 0 1 0
vn 0 1 0
vn 0 1 0
vn 0 1 0
vn 0 1 0
vn 0 1 0
vn 0 1 0
vn 0 1 0
vn 0 1 0
vn 0 1 0
vn 0 1 0
vn 0 1 0
vn 0 1 0
vn 0 1 0
vn 0 1 0
vn 0 1 0
vn 0 1 0
vn 0 1 0
vn 0 1 0
vn 0 1 0
vn 0 1 0
vn 0 1 0
vn 0 1 0
vn 0 1 0
vn 0 1 0
vn 0 1 0
vn 0 1 0
vn 0 1 0
vn 0 1 0
vn 0 1 0
vn 0 1 0
vn 0 1 0
vn 0 1 0
vn 0 1 0
vn 0 1 0
vn 0 1 0
vn 0 1 0
vn 0 1 0
vn 0 1 0
vn 0 1 0
vn 0 1 0
vn 0 1 0
vn 0 1 0
vn 0 1 0
vn 0 1 0
vn 0 1 0
vn 0 1 0
vn 0 1 0
vn 0 1 0
vn 0 1 0
vn 0 1 0
vn 0 1 0
vn 0 1 0
vn 0 1 0
vn 0 1 0
vn 0 1 0
vn 0 1 0
vn 0 1 0
vn 0 1 0
vn 0 1 0
vn 0 1 0
vn 0 1 0
vn 0 1 0
vn 0 1 0
vn 0 1 0
vn 0 1 0
vn 0 1 0
vn 0 1 0
vn 0 1 0
vn 0 1 0
vn 0 1 0
vn 0 1 0
vn 0 1 0
vn 0 1 0
vn 0 1 0
vn 0 1 0
vn 0 1 0
vn 0 1 0
vn 0 1 0
vn 0 1 0
vn 0 1 0
vn 0 1 0
vn 0 1 0
vn 0 1 0
vn 0 1 0
vn 0 1 0
vn 0 1 0
vn 0 1 0
vn 0 1 0
vn 0 1 0
vn 0 1 0
vn 0 1 0
vn 0 1 0
vn 0 1 0
vn 0 1 0
vn 0 1 0
vn 0 1 0
vn 0 1 0
vn 0 1 0
vn 0 1 0
vn 0 1 0
vn 0 1 0
vn 0 1 0
vn 0 1 0
vn 0 1 0
vn 0 1 0
vn 0 1 0
vn 0 1 0
vn 0 1 0
vn 0 1 0
vn 0 1 0
vn 0 1 0
vn 0 1 0
vn 0 1 0
vn 0 1 0
vn 0 1 0
vn 0 1 0
vn 0 1 0
vn 0 1 0
vn 0 1 0
vn 0 1 0
vn 0 1 0
vn 0 1 0
vn 0 1 0
vn 0 1 0
vn 0 1 0
vn 0 1 0
vn 0 1 0
vn 0 1 0
vn 0 1 0
vn 0 1 0
vn 0 1 0
vn 0 1 0
vn 0 1 0
vn 0 1 0
vn 0 1 0
vn 0 1 0
vn 0 1 0
vn 0 1 0
vn 0 1 0
vn 0 1 0
vn 0 1 0
vn 0 1 0
vn 0 1 0
vn 0 1 0
vn 0 1 0
vn 0 1 0
vn 0 1 0
vn 0 1 0
vn 0 1 0
vn 0 1 0
vn 0 1 0
vn 0 1 0
vn 0 1 0
vn 0 1 0
vn 0 1 0
vn 0 1 0
vn 0 1 0
vn 0 1 0
vn 0 1 0
vn 0 1 0
vn 0 1 0
vn 0 1 0
vn 0 1 0
vn 0 1 0
vn 0 1 0
g Grass_0_Cluster239_0
f 2/2/2 3/3/3 1/1/1
f 2/2/2 4/4/4 3/3/3
f 6/6/6 7/7/7 5/5/5
f 6/6/6 8/8/8 7/7/7
f 10/10/10 11/11/11 9/9/9
f 10/10/10 12/12/12 11/11/11
f 14/14/14 15/15/15 13/13/13
f 14/14/14 16/16/16 15/15/15
f 18/18/18 19/19/19 17/17/17
f 18/18/18 20/20/20 19/19/19
f 22/22/22 23/23/23 21/21/21
f 22/22/22 24/24/24 23/23/23
f 26/26/26 27/27/27 25/25/25
f 26/26/26 28/28/28 27/27/27
f 30/30/30 31/31/31 29/29/29
f 30/30/30 32/32/32 31/31/31
f 34/34/34 35/35/35 33/33/33
f 34/34/34 36/36/36 35/35/35
f 38/38/38 39/39/39 37/37/37
f 38/38/38 40/40/40 39/39/39
f 42/42/42 43/43/43 41/41/41
f 42/42/42 44/44/44 43/43/43
f 46/46/46 47/47/47 45/45/45
f 46/46/46 48/48/48 47/47/47
f 50/50/50 51/51/51 49/49/49
f 50/50/50 52/52/52 51/51/51
f 54/54/54 55/55/55 53/53/53
f 54/54/54 56/56/56 55/55/55
f 58/58/58 59/59/59 57/57/57
f 58/58/58 60/60/60 59/59/59
f 62/62/62 63/63/63 61/61/61
f 62/62/62 64/64/64 63/63/63
f 66/66/66 67/67/67 65/65/65
f 66/66/66 68/68/68 67/67/67
f 70/70/70 71/71/71 69/69/69
f 70/70/70 72/72/72 71/71/71
f 74/74/74 75/75/75 73/73/73
f 74/74/74 76/76/76 75/75/75
f 78/78/78 79/79/79 77/77/77
f 78/78/78 80/80/80 79/79/79
f 82/82/82 83/83/83 81/81/81
f 82/82/82 84/84/84 83/83/83
f 86/86/86 87/87/87 85/85/85
f 86/86/86 88/88/88 87/87/87
f 90/90/90 91/91/91 89/89/89
f 90/90/90 92/92/92 91/91/91
f 94/94/94 95/95/95 93/93/93
f 94/94/94 96/96/96 95/95/95
f 98/98/98 99/99/99 97/97/97
f 98/98/98 100/100/100 99/99/99
f 102/102/102 103/103/103 101/101/101
f 102/102/102 104/104/104 103/103/103
f 106/106/106 107/107/107 105/105/105
f 106/106/106 108/108/108 107/107/107
f 110/110/110 111/111/111 109/109/109
f 110/110/110 112/112/112 111/111/111
f 114/114/114 115/115/115 113/113/113
f 114/114/114 116/116/116 115/115/115
f 118/118/118 119/119/119 117/117/117
f 118/118/118 120/120/120 119/119/119
f 122/122/122 123/123/123 121/121/121
f 122/122/122 124/124/124 123/123/123
f 126/126/126 127/127/127 125/125/125
f 126/126/126 128/128/128 127/127/127
f 130/130/130 131/131/131 129/129/129
f 130/130/130 132/132/132 131/131/131
f 134/134/134 135/135/135 133/133/133
f 134/134/134 136/136/136 135/135/135
f 138/138/138 139/139/139 137/137/137
f 138/138/138 140/140/140 139/139/139
f 142/142/142 143/143/143 141/141/141
f 142/142/142 144/144/144 143/143/143
f 146/146/146 147/147/147 145/145/145
f 146/146/146 148/148/148 147/147/147
f 150/150/150 151/151/151 149/149/149
f 150/150/150 152/152/152 151/151/151
f 154/154/154 155/155/155 153/153/153
f 154/154/154 156/156/156 155/155/155
f 158/158/158 159/159/159 157/157/157
f 158/158/158 160/160/160 159/159/159
f 162/162/162 163/163/163 161/161/161
f 162/162/162 164/164/164 163/163/163
f 166/166/166 167/167/167 165/165/165
f 166/166/166 168/168/168 167/167/167
f 170/170/170 171/171/171 169/169/169
f 170/170/170 172/172/172 171/171/171
f 174/174/174 175/175/175 173/173/173
f 174/174/174 176/176/176 175/175/175
f 178/178/178 179/179/179 177/177/177
f 178/178/178 180/180/180 179/179/179
f 182/182/182 183/183/183 181/181/181
f 182/182/182 184/184/184 183/183/183
f 186/186/186 187/187/187 185/185/185
f 186/186/186 188/188/188 187/187/187
f 190/190/190 191/191/191 189/189/189
f 190/190/190 192/192/192 191/191/191
f 194/194/194 195/195/195 193/193/193
f 194/194/194 196/196/196 195/195/195
f 198/198/198 199/199/199 197/197/197
f 198/198/198 200/200/200 199/199/199
f 202/202/202 203/203/203 201/201/201
f 202/202/202 204/204/204 203/203/203
f 206/206/206 207/207/207 205/205/205
f 206/206/206 208/208/208 207/207/207
