g Grass_2_Cluster193
v -95.75742 0 263.0103
v -96.53174 0 263.0103
v -95.75742 0 264.0427
v -96.53174 0 264.0427
v -94.9831 0 262.7522
v -95.75742 0 262.7522
v -94.9831 0 263.7846
v -95.75742 0 263.7846
v -108.9208 0 262.494
v -109.9533 0 262.494
v -108.9208 0 263.7846
v -109.9533 0 263.7846
v -93.95068 0 262.494
v -94.72499 0 262.494
v -93.95068 0 263.5265
v -94.72499 0 263.5265
v -98.33848 0 261.9778
v -99.3709 0 261.9778
v -98.33848 0 263.0103
v -99.3709 0 263.0103
v -112.7924 0 261.7197
v -113.5667 0 261.7197
v -112.7924 0 262.7522
v -113.5667 0 262.7522
v -95.49931 0 261.4616
v -96.53174 0 261.4616
v -95.49931 0 262.494
v -96.53174 0 262.494
v -94.46689 0 260.4292
v -95.49931 0 260.4292
v -94.46689 0 261.4616
v -95.49931 0 261.4616
v -93.43446 0 259.913
v -94.46689 0 259.913
v -93.43446 0 260.9454
v -94.46689 0 260.9454
v -94.46689 0 259.6549
v -95.49931 0 259.6549
v -94.46689 0 260.6873
v -95.49931 0 260.6873
v -96.01553 0 259.1387
v -97.04795 0 259.1387
v -96.01553 0 260.1711
v -97.04795 0 260.1711
v -94.46689 0 258.8806
v -95.49931 0 258.8806
v -94.46689 0 259.913
v -95.49931 0 259.913
v -92.91825 0 258.3643
v -93.69257 0 258.3643
v -92.91825 0 259.3968
v -93.69257 0 259.3968
v -96.01553 0 258.3643
v -97.04795 0 258.3643
v -96.01553 0 259.3968
v -97.04795 0 259.3968
v -94.20878 0 257.8481
v -95.2412 0 257.8481
v -94.20878 0 259.1387
v -95.2412 0 259.1387
v -92.40204 0 257.59
v -93.43446 0 257.59
v -92.40204 0 258.8806
v -93.43446 0 258.8806
v -96.27363 0 257.59
v -97.04795 0 257.59
v -96.27363 0 258.6225
v -97.04795 0 258.6225
v -91.88583 0 257.3319
v -92.66014 0 257.3319
v -91.88583 0 258.3643
v -92.66014 0 258.3643
v -95.2412 0 256.8157
v -96.01553 0 256.8157
v -95.2412 0 258.1063
v -96.01553 0 258.1063
v -95.2412 0 256.8157
v -96.27363 0 256.8157
v -95.2412 0 257.8481
v -96.27363 0 257.8481
v -93.95068 0 256.5576
v -94.9831 0 256.5576
v -93.95068 0 257.59
v -94.9831 0 257.59
v -96.78984 0 256.2995
v -97.56416 0 256.2995
v -96.78984 0 257.3319
v -97.56416 0 257.3319
v -92.40204 0 256.0414
v -93.43446 0 256.0414
v -92.40204 0 257.0738
v -93.43446 0 257.0738
v -97.56416 0 256.2995
v -98.59659 0 256.2995
v -97.56416 0 257.3319
v -98.59659 0 257.3319
v -93.69257 0 255.7833
v -94.46689 0 255.7833
v -93.69257 0 256.8157
v -94.46689 0 256.8157
v -92.91825 0 255.2671
v -93.69257 0 255.2671
v -92.91825 0 256.2995
v -93.69257 0 256.2995
v -96.78984 0 255.5252
v -97.82227 0 255.5252
v -96.78984 0 256.5576
v -97.82227 0 256.5576
v -94.72499 0 255.009
v -95.49931 0 255.009
v -94.72499 0 256.0414
v -95.49931 0 256.0414
v -93.69257 0 254.4928
v -94.72499 0 254.4928
v -93.69257 0 255.5252
v -94.72499 0 255.5252
v -95.75742 0 254.2346
v -96.53174 0 254.2346
v -95.75742 0 255.2671
v -96.53174 0 255.2671
v -97.30605 0 253.7184
v -98.33848 0 253.7184
v -97.30605 0 255.009
v -98.33848 0 255.009
v -94.20878 0 253.7184
v -94.9831 0 253.7184
v -94.20878 0 254.7509
v -94.9831 0 254.7509
v -94.46689 0 253.4603
v -95.49931 0 253.4603
v -94.46689 0 254.4928
v -95.49931 0 254.4928
v -96.53174 0 252.9441
v -97.30605 0 252.9441
v -96.53174 0 253.9765
v -97.30605 0 253.9765
v -95.2412 0 252.686
v -96.27363 0 252.686
v -95.2412 0 253.7184
v -96.27363 0 253.7184
v -96.27363 0 252.1698
v -97.04795 0 252.1698
v -96.27363 0 253.2022
v -97.04795 0 253.2022
v -95.75742 0 251.9117
v -96.53174 0 251.9117
v -95.75742 0 252.9441
v -96.53174 0 252.9441
v -93.69257 0 251.9117
v -94.72499 0 251.9117
v -93.69257 0 252.9441
v -94.72499 0 252.9441
v -96.01553 0 251.6536
v -96.78984 0 251.6536
v -96.01553 0 252.686
v -96.78984 0 252.686
v -97.82227 0 251.3955
v -98.85469 0 251.3955
v -97.82227 0 252.4279
v -98.85469 0 252.4279
v -94.72499 0 250.8793
v -95.75742 0 250.8793
v -94.72499 0 251.9117
v -95.75742 0 251.9117
v -94.46689 0 249.5887
v -95.2412 0 249.5887
v -94.46689 0 250.8793
v -95.2412 0 250.8793
v -95.2412 0 249.0725
v -96.27363 0 249.0725
v -95.2412 0 250.1049
v -96.27363 0 250.1049
v -93.95068 0 248.2982
v -94.9831 0 248.2982
v -93.95068 0 249.5887
v -94.9831 0 249.5887
v -115.6316 0 248.2982
v -116.664 0 248.2982
v -115.6316 0 249.3306
v -116.664 0 249.3306
v -92.66014 0 248.0401
v -93.43446 0 248.0401
v -92.66014 0 249.0725
v -93.43446 0 249.0725
v -93.43446 0 247.5239
v -94.46689 0 247.5239
v -93.43446 0 248.5563
v -94.46689 0 248.5563
v -90.59529 0 247.5239
v -91.62772 0 247.5239
v -90.59529 0 248.8144
v -91.62772 0 248.8144
v -91.88583 0 247.2658
v -92.66014 0 247.2658
v -91.88583 0 248.2982
v -92.66014 0 248.2982
v -93.17635 0 247.0077
v -93.95068 0 247.0077
v -93.17635 0 248.0401
v -93.95068 0 248.0401
v -90.8534 0 246.4915
v -91.88583 0 246.4915
v -90.8534 0 247.5239
v -91.88583 0 247.5239
v -118.4708 0 246.4915
v -119.2451 0 246.4915
v -118.4708 0 247.5239
v -119.2451 0 247.5239
v -93.43446 0 245.9753
v -94.46689 0 245.9753
v -93.43446 0 247.2658
v -94.46689 0 247.2658
v -90.59529 0 245.9753
v -91.36961 0 245.9753
v -90.59529 0 247.0077
v -91.36961 0 247.0077
v -119.2451 0 245.9753
v -120.0194 0 245.9753
v -119.2451 0 247.0077
v -120.0194 0 247.0077
v -92.91825 0 245.7171
v -93.95068 0 245.7171
v -92.91825 0 246.7496
v -93.95068 0 246.7496
v -91.36961 0 245.459
v -92.40204 0 245.459
v -91.36961 0 246.4915
v -92.40204 0 246.4915
v -117.4383 0 245.459
v -118.4708 0 245.459
v -117.4383 0 246.4915
v -118.4708 0 246.4915
v -89.82098 0 245.2009
v -90.8534 0 245.2009
v -89.82098 0 246.2334
v -90.8534 0 246.2334
v -92.14393 0 244.6847
v -93.17635 0 244.6847
v -92.14393 0 245.9753
v -93.17635 0 245.9753
v -116.664 0 244.4266
v -117.6964 0 244.4266
v -116.664 0 245.459
v -117.6964 0 245.459
v -89.82098 0 244.4266
v -90.59529 0 244.4266
v -89.82098 0 245.459
v -90.59529 0 245.459
v -91.1115 0 244.1685
v -91.88583 0 244.1685
v -91.1115 0 245.2009
v -91.88583 0 245.2009
v -118.987 0 243.9104
v -119.7613 0 243.9104
v -118.987 0 244.9428
v -119.7613 0 244.9428
v -90.33719 0 243.9104
v -91.36961 0 243.9104
v -90.33719 0 245.2009
v -91.36961 0 245.2009
v -92.14393 0 243.3942
v -92.91825 0 243.3942
v -92.14393 0 244.4266
v -92.91825 0 244.4266
v -117.4383 0 243.1361
v -118.2127 0 243.1361
v -117.4383 0 244.1685
v -118.2127 0 244.1685
v -117.9546 0 242.3618
v -118.987 0 242.3618
v -117.9546 0 243.3942
v -118.987 0 243.3942
v -105.5655 0 237.7159
v -106.5979 0 237.7159
v -105.5655 0 239.0064
v -106.5979 0 239.0064
v -104.7911 0 237.7159
v -105.8236 0 237.7159
v -104.7911 0 238.7483
v -105.8236 0 238.7483
v -108.1465 0 236.9415
v -108.9208 0 236.9415
v -108.1465 0 237.974
v -108.9208 0 237.974
v -107.1141 0 236.6834
v -108.1465 0 236.6834
v -107.1141 0 237.7159
v -108.1465 0 237.7159
v -108.4046 0 236.4253
v -109.437 0 236.4253
v -108.4046 0 237.4577
v -109.437 0 237.4577
v -104.0168 0 236.6834
v -104.7911 0 236.6834
v -104.0168 0 237.7159
v -104.7911 0 237.7159
v -106.5979 0 236.1672
v -107.6303 0 236.1672
v -106.5979 0 237.1996
v -107.6303 0 237.1996
v -109.437 0 235.9091
v -110.4695 0 235.9091
v -109.437 0 236.9415
v -110.4695 0 236.9415
v -105.5655 0 235.9091
v -106.5979 0 235.9091
v -105.5655 0 236.9415
v -106.5979 0 236.9415
v -108.1465 0 235.651
v -109.1789 0 235.651
v -108.1465 0 236.6834
v -109.1789 0 236.6834
v -110.2114 0 235.1348
v -111.2438 0 235.1348
v -110.2114 0 236.1672
v -111.2438 0 236.1672
v -106.3398 0 234.8767
v -107.3722 0 234.8767
v -106.3398 0 235.9091
v -107.3722 0 235.9091
v -109.1789 0 234.6186
v -110.2114 0 234.6186
v -109.1789 0 235.651
v -110.2114 0 235.651
v -104.533 0 234.1024
v -105.5655 0 234.1024
v -104.533 0 235.3929
v -105.5655 0 235.3929
v -107.3722 0 234.1024
v -108.1465 0 234.1024
v -107.3722 0 235.1348
v -108.1465 0 235.1348
v -108.6627 0 233.8443
v -109.6952 0 233.8443
v -108.6627 0 234.8767
v -109.6952 0 234.8767
v -106.0817 0 233.5862
v -106.856 0 233.5862
v -106.0817 0 234.6186
v -106.856 0 234.6186
v -92.91825 0 233.8443
v -93.69257 0 233.8443
v -92.91825 0 234.8767
v -93.69257 0 234.8767
v -107.3722 0 233.5862
v -108.4046 0 233.5862
v -107.3722 0 234.6186
v -108.4046 0 234.6186
v -106.856 0 233.0699
v -107.8884 0 233.0699
v -106.856 0 234.1024
v -107.8884 0 234.1024
vt 0.1347656 0.9185662
vt 0.2060202 0.9185662
vt 0.1347656 1
vt 0.2060202 1
vt 0.1347656 0.9185662
vt 0.2060202 0.9185662
vt 0.1347656 1
vt 0.2060202 1
vt 0.1347656 0.9185662
vt 0.2060202 0.9185662
vt 0.1347656 1
vt 0.2060202 1
vt 0.1347656 0.9185662
vt 0.2060202 0.9185662
vt 0.1347656 1
vt 0.2060202 1
vt 0.1347656 0.9185662
vt 0.2060202 0.9185662
vt 0.1347656 1
vt 0.2060202 1
vt 0.1347656 0.9185662
vt 0.2060202 0.9185662
vt 0.1347656 1
vt 0.2060202 1
vt 0.1347656 0.9185662
vt 0.2060202 0.9185662
vt 0.1347656 1
vt 0.2060202 1
vt 0.1347656 0.9185662
vt 0.2060202 0.9185662
vt 0.1347656 1
vt 0.2060202 1
vt 0.1347656 0.9185662
vt 0.2060202 0.9185662
vt 0.1347656 1
vt 0.2060202 1
vt 0.1347656 0.9185662
vt 0.2060202 0.9185662
vt 0.1347656 1
vt 0.2060202 1
vt 0.1347656 0.9185662
vt 0.2060202 0.9185662
vt 0.1347656 1
vt 0.2060202 1
vt 0.1347656 0.9185662
vt 0.2060202 0.9185662
vt 0.1347656 1
vt 0.2060202 1
vt 0.1347656 0.9185662
vt 0.2060202 0.9185662
vt 0.1347656 1
vt 0.2060202 1
vt 0.1347656 0.9185662
vt 0.2060202 0.9185662
vt 0.1347656 1
vt 0.2060202 1
vt 0.1347656 0.9185662
vt 0.2060202 0.9185662
vt 0.1347656 1
vt 0.2060202 1
vt 0.1347656 0.9185662
vt 0.2060202 0.9185662
vt 0.1347656 1
vt 0.2060202 1
vt 0.1347656 0.9185662
vt 0.2060202 0.9185662
vt 0.1347656 1
vt 0.2060202 1
vt 0.1347656 0.9185662
vt 0.2060202 0.9185662
vt 0.1347656 1
vt 0.2060202 1
vt 0.1347656 0.9185662
vt 0.2060202 0.9185662
vt 0.1347656 1
vt 0.2060202 1
vt 0.1347656 0.9185662
vt 0.2060202 0.9185662
vt 0.1347656 1
vt 0.2060202 1
vt 0.1347656 0.9185662
vt 0.2060202 0.9185662
vt 0.1347656 1
vt 0.2060202 1
vt 0.1347656 0.9185662
vt 0.2060202 0.9185662
vt 0.1347656 1
vt 0.2060202 1
vt 0.1347656 0.9185662
vt 0.2060202 0.9185662
vt 0.1347656 1
vt 0.2060202 1
vt 0.1347656 0.9185662
vt 0.2060202 0.9185662
vt 0.1347656 1
vt 0.2060202 1
vt 0.1347656 0.9185662
vt 0.2060202 0.9185662
vt 0.1347656 1
vt 0.2060202 1
vt 0.1347656 0.9185662
vt 0.2060202 0.9185662
vt 0.1347656 1
vt 0.2060202 1
vt 0.1347656 0.9185662
vt 0.2060202 0.9185662
vt 0.1347656 1
vt 0.2060202 1
vt 0.1347656 0.9185662
vt 0.2060202 0.9185662
vt 0.1347656 1
vt 0.2060202 1
vt 0.1347656 0.9185662
vt 0.2060202 0.9185662
vt 0.1347656 1
vt 0.2060202 1
vt 0.1347656 0.9185662
vt 0.2060202 0.9185662
vt 0.1347656 1
vt 0.2060202 1
vt 0.1347656 0.9185662
vt 0.2060202 0.9185662
vt 0.1347656 1
vt 0.2060202 1
vt 0.1347656 0.9185662
vt 0.2060202 0.9185662
vt 0.1347656 1
vt 0.2060202 1
vt 0.1347656 0.9185662
vt 0.2060202 0.9185662
vt 0.1347656 1
vt 0.2060202 1
vt 0.1347656 0.9185662
vt 0.2060202 0.9185662
vt 0.1347656 1
vt 0.2060202 1
vt 0.1347656 0.9185662
vt 0.2060202 0.9185662
vt 0.1347656 1
vt 0.2060202 1
vt 0.1347656 0.9185662
vt 0.2060202 0.9185662
vt 0.1347656 1
vt 0.2060202 1
vt 0.1347656 0.9185662
vt 0.2060202 0.9185662
vt 0.1347656 1
vt 0.2060202 1
vt 0.1347656 0.9185662
vt 0.2060202 0.9185662
vt 0.1347656 1
vt 0.2060202 1
vt 0.1347656 0.9185662
vt 0.2060202 0.9185662
vt 0.1347656 1
vt 0.2060202 1
vt 0.1347656 0.9185662
vt 0.2060202 0.9185662
vt 0.1347656 1
vt 0.2060202 1
vt 0.1347656 0.9185662
vt 0.2060202 0.9185662
vt 0.1347656 1
vt 0.2060202 1
vt 0.1347656 0.9185662
vt 0.2060202 0.9185662
vt 0.1347656 1
vt 0.2060202 1
vt 0.1347656 0.9185662
vt 0.2060202 0.9185662
vt 0.1347656 1
vt 0.2060202 1
vt 0.1347656 0.9185662
vt 0.2060202 0.9185662
vt 0.1347656 1
vt 0.2060202 1
vt 0.1347656 0.9185662
vt 0.2060202 0.9185662
vt 0.1347656 1
vt 0.2060202 1
vt 0.1347656 0.9185662
vt 0.2060202 0.9185662
vt 0.1347656 1
vt 0.2060202 1
vt 0.1347656 0.9185662
vt 0.2060202 0.9185662
vt 0.1347656 1
vt 0.2060202 1
vt 0.1347656 0.9185662
vt 0.2060202 0.9185662
vt 0.1347656 1
vt 0.2060202 1
vt 0.1347656 0.9185662
vt 0.2060202 0.9185662
vt 0.1347656 1
vt 0.2060202 1
vt 0.1347656 0.9185662
vt 0.2060202 0.9185662
vt 0.1347656 1
vt 0.2060202 1
vt 0.1347656 0.9185662
vt 0.2060202 0.9185662
vt 0.1347656 1
vt 0.2060202 1
vt 0.1347656 0.9185662
vt 0.2060202 0.9185662
vt 0.1347656 1
vt 0.2060202 1
vt 0.1347656 0.9185662
vt 0.2060202 0.9185662
vt 0.1347656 1
vt 0.2060202 1
vt 0.1347656 0.9185662
vt 0.2060202 0.9185662
vt 0.1347656 1
vt 0.2060202 1
vt 0.1347656 0.9185662
vt 0.2060202 0.9185662
vt 0.1347656 1
vt 0.2060202 1
vt 0.1347656 0.9185662
vt 0.2060202 0.9185662
vt 0.1347656 1
vt 0.2060202 1
vt 0.1347656 0.9185662
vt 0.2060202 0.9185662
vt 0.1347656 1
vt 0.2060202 1
vt 0.1347656 0.9185662
vt 0.2060202 0.9185662
vt 0.1347656 1
vt 0.2060202 1
vt 0.1347656 0.9185662
vt 0.2060202 0.9185662
vt 0.1347656 1
vt 0.2060202 1
vt 0.1347656 0.9185662
vt 0.2060202 0.9185662
vt 0.1347656 1
vt 0.2060202 1
vt 0.1347656 0.9185662
vt 0.2060202 0.9185662
vt 0.1347656 1
vt 0.2060202 1
vt 0.1347656 0.9185662
vt 0.2060202 0.9185662
vt 0.1347656 1
vt 0.2060202 1
vt 0.1347656 0.9185662
vt 0.2060202 0.9185662
vt 0.1347656 1
vt 0.2060202 1
vt 0.1347656 0.9185662
vt 0.2060202 0.9185662
vt 0.1347656 1
vt 0.2060202 1
vt 0.1347656 0.9185662
vt 0.2060202 0.9185662
vt 0.1347656 1
vt 0.2060202 1
vt 0.1347656 0.9185662
vt 0.2060202 0.9185662
vt 0.1347656 1
vt 0.2060202 1
vt 0.1347656 0.9185662
vt 0.2060202 0.9185662
vt 0.1347656 1
vt 0.2060202 1
vt 0.1347656 0.9185662
vt 0.2060202 0.9185662
vt 0.1347656 1
vt 0.2060202 1
vt 0.1347656 0.9185662
vt 0.2060202 0.9185662
vt 0.1347656 1
vt 0.2060202 1
vt 0.1347656 0.9185662
vt 0.2060202 0.9185662
vt 0.1347656 1
vt 0.2060202 1
vt 0.1347656 0.9185662
vt 0.2060202 0.9185662
vt 0.1347656 1
vt 0.2060202 1
vt 0.1347656 0.9185662
vt 0.2060202 0.9185662
vt 0.1347656 1
vt 0.2060202 1
vt 0.1347656 0.9185662
vt 0.2060202 0.9185662
vt 0.1347656 1
vt 0.2060202 1
vt 0.1347656 0.9185662
vt 0.2060202 0.9185662
vt 0.1347656 1
vt 0.2060202 1
vt 0.1347656 0.9185662
vt 0.2060202 0.9185662
vt 0.1347656 1
vt 0.2060202 1
vt 0.1347656 0.9185662
vt 0.2060202 0.9185662
vt 0.1347656 1
vt 0.2060202 1
vt 0.1347656 0.9185662
vt 0.2060202 0.9185662
vt 0.1347656 1
vt 0.2060202 1
vt 0.1347656 0.9185662
vt 0.2060202 0.9185662
vt 0.1347656 1
vt 0.2060202 1
vt 0.1347656 0.9185662
vt 0.2060202 0.9185662
vt 0.1347656 1
vt 0.2060202 1
vt 0.1347656 0.9185662
vt 0.2060202 0.9185662
vt 0.1347656 1
vt 0.2060202 1
vt 0.1347656 0.9185662
vt 0.2060202 0.9185662
vt 0.1347656 1
vt 0.2060202 1
vt 0.1347656 0.9185662
vt 0.2060202 0.9185662
vt 0.1347656 1
vt 0.2060202 1
vt 0.1347656 0.9185662
vt 0.2060202 0.9185662
vt 0.1347656 1
vt 0.2060202 1
vt 0.1347656 0.9185662
vt 0.2060202 0.9185662
vt 0.1347656 1
vt 0.2060202 1
vt 0.1347656 0.9185662
vt 0.2060202 0.9185662
vt 0.1347656 1
vt 0.2060202 1
vt 0.1347656 0.9185662
vt 0.2060202 0.9185662
vt 0.1347656 1
vt 0.2060202 1
vt 0.1347656 0.9185662
vt 0.2060202 0.9185662
vt 0.1347656 1
vt 0.2060202 1
vt 0.1347656 0.9185662
vt 0.2060202 0.9185662
vt 0.1347656 1
vt 0.2060202 1
vn 0 1 0
vn 0 1 0
vn 0 1 0
vn 0 1 0
vn 0 1 0
vn 0 1 0
vn 0 1 0
vn 0 1 0
vn 0 1 0
vn 0 1 0
vn 0 1 0
vn 0 1 0
vn 0 1 0
vn 0 1 0
vn 0 1 0
vn 0 1 0
vn 0 1 0
vn 0 1 0
vn 0 1 0
vn 0 1 0
vn 0 1 0
vn 0 1 0
vn 0 1 0
vn 0 1 0
vn 0 1 0
vn 0 1 0
vn 0 1 0
vn 0 1 0
vn 0 1 0
vn 0 1 0
vn 0 1 0
vn 0 1 0
vn 0 1 0
vn 0 1 0
vn 0 1 0
vn 0 1 0
vn 0 1 0
vn 0 1 0
vn 0 1 0
vn 0 1 0
vn 0 1 0
vn 0 1 0
vn 0 1 0
vn 0 1 0
vn 0 1 0
vn 0 1 0
vn 0 1 0
vn 0 1 0
vn 0 1 0
vn 0 1 0
vn 0 1 0
vn 0 1 0
vn 0 1 0
vn 0 1 0
vn 0 1 0
vn 0 1 0
vn 0 1 0
vn 0 1 0
vn 0 1 0
vn 0 1 0
vn 0 1 0
vn 0 1 0
vn 0 1 0
vn 0 1 0
vn 0 1 0
vn 0 1 0
vn 0 1 0
vn 0 1 0
vn 0 1 0
vn 0 1 0
vn 0 1 0
vn 0 1 0
vn 0 1 0
vn 0 1 0
vn 0 1 0
vn 0 1 0
vn 0 1 0
vn 0 1 0
vn 0 1 0
vn 0 1 0
vn 0 1 0
vn 0 1 0
vn 0 1 0
vn 0 1 0
vn 0 1 0
vn 0 1 0
vn 0 1 0
vn 0 1 0
vn 0 1 0
vn 0 1 0
vn 0 1 0
vn 0 1 0
vn 0 1 0
vn 0 1 0
vn 0 1 0
vn 0 1 0
vn 0 1 0
vn 0 1 0
vn 0 1 0
vn 0 1 0
vn 0 1 0
vn 0 1 0
vn 0 1 0
vn 0 1 0
vn 0 1 0
vn 0 1 0
vn 0 1 0
vn 0 1 0
vn 0 1 0
vn 0 1 0
vn 0 1 0
vn 0 1 0
vn 0 1 0
vn 0 1 0
vn 0 1 0
vn 0 1 0
vn 0 1 0
vn 0 1 0
vn 0 1 0
vn 0 1 0
vn 0 1 0
vn 0 1 0
vn 0 1 0
vn 0 1 0
vn 0 1 0
vn 0 1 0
vn 0 1 0
vn 0 1 0
vn 0 1 0
vn 0 1 0
vn 0 1 0
vn 0 1 0
vn 0 1 0
vn 0 1 0
vn 0 1 0
vn 0 1 0
vn 0 1 0
vn 0 1 0
vn 0 1 0
vn 0 1 0
vn 0 1 0
vn 0 1 0
vn 0 1 0
vn 0 1 0
vn 0 1 0
vn 0 1 0
vn 0 1 0
vn 0 1 0
vn 0 1 0
vn 0 1 0
vn 0 1 0
vn 0 1 0
vn 0 1 0
vn 0 1 0
vn 0 1 0
vn 0 1 0
vn 0 1 0
vn 0 1 0
vn 0 1 0
vn 0 1 0
vn 0 1 0
vn 0 1 0
vn 0 1 0
vn 0 1 0
vn 0 1 0
vn 0 1 0
vn 0 1 0
vn 0 1 0
vn 0 1 0
vn 0 1 0
vn 0 1 0
vn 0 1 0
vn 0 1 0
vn 0 1 0
vn 0 1 0
vn 0 1 0
vn 0 1 0
vn 0 1 0
vn 0 1 0
vn 0 1 0
vn 0 1 0
vn 0 1 0
vn 0 1 0
vn 0 1 0
vn 0 1 0
vn 0 1 0
vn 0 1 0
vn 0 1 0
vn 0 1 0
vn 0 1 0
vn 0 1 0
vn 0 1 0
vn 0 1 0
vn 0 1 0
vn 0 1 0
vn 0 1 0
vn 0 1 0
vn 0 1 0
vn 0 1 0
vn 0 1 0
vn 0 1 0
vn 0 1 0
vn 0 1 0
vn 0 1 0
vn 0 1 0
vn 0 1 0
vn 0 1 0
vn 0 1 0
vn 0 1 0
vn 0 1 0
vn 0 1 0
vn 0 1 0
vn 0 1 0
vn 0 1 0
vn 0 1 0
vn 0 1 0
vn 0 1 0
vn 0 1 0
vn 0 1 0
vn 0 1 0
vn 0 1 0
vn 0 1 0
vn 0 1 0
vn 0 1 0
vn 0 1 0
vn 0 1 0
vn 0 1 0
vn 0 1 0
vn 0 1 0
vn 0 1 0
vn 0 1 0
vn 0 1 0
vn 0 1 0
vn 0 1 0
vn 0 1 0
vn 0 1 0
vn 0 1 0
vn 0 1 0
vn 0 1 0
vn 0 1 0
vn 0 1 0
vn 0 1 0
vn 0 1 0
vn 0 1 0
vn 0 1 0
vn 0 1 0
vn 0 1 0
vn 0 1 0
vn 0 1 0
vn 0 1 0
vn 0 1 0
vn 0 1 0
vn 0 1 0
vn 0 1 0
vn 0 1 0
vn 0 1 0
vn 0 1 0
vn 0 1 0
vn 0 1 0
vn 0 1 0
vn 0 1 0
vn 0 1 0
vn 0 1 0
vn 0 1 0
vn 0 1 0
vn 0 1 0
vn 0 1 0
vn 0 1 0
vn 0 1 0
vn 0 1 0
vn 0 1 0
vn 0 1 0
vn 0 1 0
vn 0 1 0
vn 0 1 0
vn 0 1 0
vn 0 1 0
vn 0 1 0
vn 0 1 0
vn 0 1 0
vn 0 1 0
vn 0 1 0
vn 0 1 0
vn 0 1 0
vn 0 1 0
vn 0 1 0
vn 0 1 0
vn 0 1 0
vn 0 1 0
vn 0 1 0
vn 0 1 0
vn 0 1 0
vn 0 1 0
vn 0 1 0
vn 0 1 0
vn 0 1 0
vn 0 1 0
vn 0 1 0
vn 0 1 0
vn 0 1 0
vn 0 1 0
vn 0 1 0
vn 0 1 0
vn 0 1 0
vn 0 1 0
vn 0 1 0
vn 0 1 0
vn 0 1 0
vn 0 1 0
vn 0 1 0
vn 0 1 0
vn 0 1 0
vn 0 1 0
vn 0 1 0
vn 0 1 0
vn 0 1 0
vn 0 1 0
vn 0 1 0
vn 0 1 0
vn 0 1 0
vn 0 1 0
vn 0 1 0
vn 0 1 0
vn 0 1 0
vn 0 1 0
vn 0 1 0
vn 0 1 0
vn 0 1 0
vn 0 1 0
vn 0 1 0
vn 0 1 0
vn 0 1 0
vn 0 1 0
vn 0 1 0
vn 0 1 0
vn 0 1 0
vn 0 1 0
vn 0 1 0
vn 0 1 0
vn 0 1 0
vn 0 1 0
vn 0 1 0
vn 0 1 0
vn 0 1 0
vn 0 1 0
vn 0 1 0
vn 0 1 0
vn 0 1 0
vn 0 1 0
vn 0 1 0
vn 0 1 0
vn 0 1 0
g Grass_2_Cluster193_0
f 2/2/2 3/3/3 1/1/1
f 2/2/2 4/4/4 3/3/3
f 6/6/6 7/7/7 5/5/5
f 6/6/6 8/8/8 7/7/7
f 10/10/10 11/11/11 9/9/9
f 10/10/10 12/12/12 11/11/11
f 14/14/14 15/15/15 13/13/13
f 14/14/14 16/16/16 15/15/15
f 18/18/18 19/19/19 17/17/17
f 18/18/18 20/20/20 19/19/19
f 22/22/22 23/23/23 21/21/21
f 22/22/22 24/24/24 23/23/23
f 26/26/26 27/27/27 25/25/25
f 26/26/26 28/28/28 27/27/27
f 30/30/30 31/31/31 29/29/29
f 30/30/30 32/32/32 31/31/31
f 34/34/34 35/35/35 33/33/33
f 34/34/34 36/36/36 35/35/35
f 38/38/38 39/39/39 37/37/37
f 38/38/38 40/40/40 39/39/39
f 42/42/42 43/43/43 41/41/41
f 42/42/42 44/44/44 43/43/43
f 46/46/46 47/47/47 45/45/45
f 46/46/46 48/48/48 47/47/47
f 50/50/50 51/51/51 49/49/49
f 50/50/50 52/52/52 51/51/51
f 54/54/54 55/55/55 53/53/53
f 54/54/54 56/56/56 55/55/55
f 58/58/58 59/59/59 57/57/57
f 58/58/58 60/60/60 59/59/59
f 62/62/62 63/63/63 61/61/61
f 62/62/62 64/64/64 63/63/63
f 66/66/66 67/67/67 65/65/65
f 66/66/66 68/68/68 67/67/67
f 70/70/70 71/71/71 69/69/69
f 70/70/70 72/72/72 71/71/71
f 74/74/74 75/75/75 73/73/73
f 74/74/74 76/76/76 75/75/75
f 78/78/78 79/79/79 77/77/77
f 78/78/78 80/80/80 79/79/79
f 82/82/82 83/83/83 81/81/81
f 82/82/82 84/84/84 83/83/83
f 86/86/86 87/87/87 85/85/85
f 86/86/86 88/88/88 87/87/87
f 90/90/90 91/91/91 89/89/89
f 90/90/90 92/92/92 91/91/91
f 94/94/94 95/95/95 93/93/93
f 94/94/94 96/96/96 95/95/95
f 98/98/98 99/99/99 97/97/97
f 98/98/98 100/100/100 99/99/99
f 102/102/102 103/103/103 101/101/101
f 102/102/102 104/104/104 103/103/103
f 106/106/106 107/107/107 105/105/105
f 106/106/106 108/108/108 107/107/107
f 110/110/110 111/111/111 109/109/109
f 110/110/110 112/112/112 111/111/111
f 114/114/114 115/115/115 113/113/113
f 114/114/114 116/116/116 115/115/115
f 118/118/118 119/119/119 117/117/117
f 118/118/118 120/120/120 119/119/119
f 122/122/122 123/123/123 121/121/121
f 122/122/122 124/124/124 123/123/123
f 126/126/126 127/127/127 125/125/125
f 126/126/126 128/128/128 127/127/127
f 130/130/130 131/131/131 129/129/129
f 130/130/130 132/132/132 131/131/131
f 134/134/134 135/135/135 133/133/133
f 134/134/134 136/136/136 135/135/135
f 138/138/138 139/139/139 137/137/137
f 138/138/138 140/140/140 139/139/139
f 142/142/142 143/143/143 141/141/141
f 142/142/142 144/144/144 143/143/143
f 146/146/146 147/147/147 145/145/145
f 146/146/146 148/148/148 147/147/147
f 150/150/150 151/151/151 149/149/149
f 150/150/150 152/152/152 151/151/151
f 154/154/154 155/155/155 153/153/153
f 154/154/154 156/156/156 155/155/155
f 158/158/158 159/159/159 157/157/157
f 158/158/158 160/160/160 159/159/159
f 162/162/162 163/163/163 161/161/161
f 162/162/162 164/164/164 163/163/163
f 166/166/166 167/167/167 165/165/165
f 166/166/166 168/168/168 167/167/167
f 170/170/170 171/171/171 169/169/169
f 170/170/170 172/172/172 171/171/171
f 174/174/174 175/175/175 173/173/173
f 174/174/174 176/176/176 175/175/175
f 178/178/178 179/179/179 177/177/177
f 178/178/178 180/180/180 179/179/179
f 182/182/182 183/183/183 181/181/181
f 182/182/182 184/184/184 183/183/183
f 186/186/186 187/187/187 185/185/185
f 186/186/186 188/188/188 187/187/187
f 190/190/190 191/191/191 189/189/189
f 190/190/190 192/192/192 191/191/191
f 194/194/194 195/195/195 193/193/193
f 194/194/194 196/196/196 195/195/195
f 198/198/198 199/199/199 197/197/197
f 198/198/198 200/200/200 199/199/199
f 202/202/202 203/203/203 201/201/201
f 202/202/202 204/204/204 203/203/203
f 206/206/206 207/207/207 205/205/205
f 206/206/206 208/208/208 207/207/207
f 210/210/210 211/211/211 209/209/209
f 210/210/210 212/212/212 211/211/211
f 214/214/214 215/215/215 213/213/213
f 214/214/214 216/216/216 215/215/215
f 218/218/218 219/219/219 217/217/217
f 218/218/218 220/220/220 219/219/219
f 222/222/222 223/223/223 221/221/221
f 222/222/222 224/224/224 223/223/223
f 226/226/226 227/227/227 225/225/225
f 226/226/226 228/228/228 227/227/227
f 230/230/230 231/231/231 229/229/229
f 230/230/230 232/232/232 231/231/231
f 234/234/234 235/235/235 233/233/233
f 234/234/234 236/236/236 235/235/235
f 238/238/238 239/239/239 237/237/237
f 238/238/238 240/240/240 239/239/239
f 242/242/242 243/243/243 241/241/241
f 242/242/242 244/244/244 243/243/243
f 246/246/246 247/247/247 245/245/245
f 246/246/246 248/248/248 247/247/247
f 250/250/250 251/251/251 249/249/249
f 250/250/250 252/252/252 251/251/251
f 254/254/254 255/255/255 253/253/253
f 254/254/254 256/256/256 255/255/255
f 258/258/258 259/259/259 257/257/257
f 258/258/258 260/260/260 259/259/259
f 262/262/262 263/263/263 261/261/261
f 262/262/262 264/264/264 263/263/263
f 266/266/266 267/267/267 265/265/265
f 266/266/266 268/268/268 267/267/267
f 270/270/270 271/271/271 269/269/269
f 270/270/270 272/272/272 271/271/271
f 274/274/274 275/275/275 273/273/273
f 274/274/274 276/276/276 275/275/275
f 278/278/278 279/279/279 277/277/277
f 278/278/278 280/280/280 279/279/279
f 282/282/282 283/283/283 281/281/281
f 282/282/282 284/284/284 283/283/283
f 286/286/286 287/287/287 285/285/285
f 286/286/286 288/288/288 287/287/287
f 290/290/290 291/291/291 289/289/289
f 290/290/290 292/292/292 291/291/291
f 294/294/294 295/295/295 293/293/293
f 294/294/294 296/296/296 295/295/295
f 298/298/298 299/299/299 297/297/297
f 298/298/298 300/300/300 299/299/299
f 302/302/302 303/303/303 301/301/301
f 302/302/302 304/304/304 303/303/303
f 306/306/306 307/307/307 305/305/305
f 306/306/306 308/308/308 307/307/307
f 310/310/310 311/311/311 309/309/309
f 310/310/310 312/312/312 311/311/311
f 314/314/314 315/315/315 313/313/313
f 314/314/314 316/316/316 315/315/315
f 318/318/318 319/319/319 317/317/317
f 318/318/318 320/320/320 319/319/319
f 322/322/322 323/323/323 321/321/321
f 322/322/322 324/324/324 323/323/323
f 326/326/326 327/327/327 325/325/325
f 326/326/326 328/328/328 327/327/327
f 330/330/330 331/331/331 329/329/329
f 330/330/330 332/332/332 331/331/331
f 334/334/334 335/335/335 333/333/333
f 334/334/334 336/336/336 335/335/335
f 338/338/338 339/339/339 337/337/337
f 338/338/338 340/340/340 339/339/339
f 342/342/342 343/343/343 341/341/341
f 342/342/342 344/344/344 343/343/343
f 346/346/346 347/347/347 345/345/345
f 346/346/346 348/348/348 347/347/347
f 350/350/350 351/351/351 349/349/349
f 350/350/350 352/352/352 351/351/351
