g Grass_1_Cluster280
v 285.5732 0.06689453 400.7753
v 284.8963 0.06689453 400.7753
v 285.5732 0.06689453 401.4521
v 284.8963 0.06689453 401.4521
v 276.097 0.06689453 400.0984
v 275.4201 0.06689453 400.0984
v 276.097 0.06689453 400.7753
v 275.4201 0.06689453 400.7753
v 275.4201 0.06689453 399.4215
v 274.7433 0.06689453 399.4215
v 275.4201 0.06689453 400.0984
v 274.7433 0.06689453 400.0984
v 282.8657 0.06689453 398.7447
v 282.1888 0.06689453 398.7447
v 282.8657 0.06689453 399.4215
v 282.1888 0.06689453 399.4215
v 286.2501 0.06689453 398.7447
v 285.5732 0.06689453 398.7447
v 286.2501 0.06689453 399.4215
v 285.5732 0.06689453 399.4215
v 286.9269 0.06689453 398.0678
v 286.2501 0.06689453 398.0678
v 286.9269 0.06689453 398.7447
v 286.2501 0.06689453 398.7447
v 286.9269 0.06689453 396.0371
v 286.2501 0.06689453 396.0371
v 286.9269 0.06689453 396.714
v 286.2501 0.06689453 396.714
v 288.2807 0.06689453 394.6834
v 287.6038 0.06689453 394.6834
v 288.2807 0.06689453 395.3603
v 287.6038 0.06689453 395.3603
v 290.9882 0.06689453 390.6222
v 290.3113 0.06689453 390.6222
v 290.9882 0.06689453 391.299
v 290.3113 0.06689453 391.299
vt 0.06738281 0.9369141
vt 0.1331457 0.9369141
vt 0.06738281 0.9990234
vt 0.1331457 0.9990234
vt 0.06738281 0.9369141
vt 0.1331457 0.9369141
vt 0.06738281 0.9990234
vt 0.1331457 0.9990234
vt 0.06738281 0.9369141
vt 0.1331457 0.9369141
vt 0.06738281 0.9990234
vt 0.1331457 0.9990234
vt 0.06738281 0.9369141
vt 0.1331457 0.9369141
vt 0.06738281 0.9990234
vt 0.1331457 0.9990234
vt 0.06738281 0.9369141
vt 0.1331457 0.9369141
vt 0.06738281 0.9990234
vt 0.1331457 0.9990234
vt 0.06738281 0.9369141
vt 0.1331457 0.9369141
vt 0.06738281 0.9990234
vt 0.1331457 0.9990234
vt 0.06738281 0.9369141
vt 0.1331457 0.9369141
vt 0.06738281 0.9990234
vt 0.1331457 0.9990234
vt 0.06738281 0.9369141
vt 0.1331457 0.9369141
vt 0.06738281 0.9990234
vt 0.1331457 0.9990234
vt 0.06738281 0.9369141
vt 0.1331457 0.9369141
vt 0.06738281 0.9990234
vt 0.1331457 0.9990234
vn 0 1 0
vn 0 1 0
vn 0 1 0
vn 0 1 0
vn 0 1 0
vn 0 1 0
vn 0 1 0
vn 0 1 0
vn 0 1 0
vn 0 1 0
vn 0 1 0
vn 0 1 0
vn 0 1 0
vn 0 1 0
vn 0 1 0
vn 0 1 0
vn 0 1 0
vn 0 1 0
vn 0 1 0
vn 0 1 0
vn 0 1 0
vn 0 1 0
vn 0 1 0
vn 0 1 0
vn 0 1 0
vn 0 1 0
vn 0 1 0
vn 0 1 0
vn 0 1 0
vn 0 1 0
vn 0 1 0
vn 0 1 0
vn 0 1 0
vn 0 1 0
vn 0 1 0
vn 0 1 0
g Grass_1_Cluster280_0
f 2/2/2 3/3/3 1/1/1
f 2/2/2 4/4/4 3/3/3
f 6/6/6 7/7/7 5/5/5
f 6/6/6 8/8/8 7/7/7
f 10/10/10 11/11/11 9/9/9
f 10/10/10 12/12/12 11/11/11
f 14/14/14 15/15/15 13/13/13
f 14/14/14 16/16/16 15/15/15
f 18/18/18 19/19/19 17/17/17
f 18/18/18 20/20/20 19/19/19
f 22/22/22 23/23/23 21/21/21
f 22/22/22 24/24/24 23/23/23
f 26/26/26 27/27/27 25/25/25
f 26/26/26 28/28/28 27/27/27
f 30/30/30 31/31/31 29/29/29
f 30/30/30 32/32/32 31/31/31
f 34/34/34 35/35/35 33/33/33
f 34/34/34 36/36/36 35/35/35
