g Grass_2_Cluster132
v -84.95079 0 168.4112
v -85.94437 0 168.4112
v -84.95079 0 169.4048
v -85.94437 0 169.4048
v -85.94437 0 167.252
v -86.93794 0 167.252
v -85.94437 0 168.2456
v -86.93794 0 168.2456
v -86.44115 0 167.0864
v -87.43473 0 167.0864
v -86.44115 0 168.08
v -87.43473 0 168.08
v -83.95721 0 166.5897
v -84.78519 0 166.5897
v -83.95721 0 167.7488
v -84.78519 0 167.7488
v -85.11639 0 166.5897
v -86.10996 0 166.5897
v -85.11639 0 167.5832
v -86.10996 0 167.5832
v -83.95721 0 166.2585
v -84.95079 0 166.2585
v -83.95721 0 167.4176
v -84.95079 0 167.4176
v -86.77235 0 165.9273
v -87.76592 0 165.9273
v -86.77235 0 167.0864
v -87.76592 0 167.0864
v -87.60033 0 165.5961
v -88.5939 0 165.5961
v -87.60033 0 166.9209
v -88.5939 0 166.9209
v -85.61317 0 165.2649
v -86.44115 0 165.2649
v -85.61317 0 166.4241
v -86.44115 0 166.4241
v -87.26913 0 164.7681
v -88.26271 0 164.7681
v -87.26913 0 165.9273
v -88.26271 0 165.9273
v -82.79804 0 164.7681
v -83.79162 0 164.7681
v -82.79804 0 165.7617
v -83.79162 0 165.7617
v -85.61317 0 164.6025
v -86.60675 0 164.6025
v -85.61317 0 165.5961
v -86.60675 0 165.5961
v -84.454 0 164.2713
v -85.44758 0 164.2713
v -84.454 0 165.2649
v -85.44758 0 165.2649
v -82.96364 0 163.7745
v -83.79162 0 163.7745
v -82.96364 0 164.7681
v -83.79162 0 164.7681
v -82.46685 0 163.6089
v -83.46043 0 163.6089
v -82.46685 0 164.7681
v -83.46043 0 164.7681
v -83.95721 0 163.4433
v -84.95079 0 163.4433
v -83.95721 0 164.6025
v -84.95079 0 164.6025
v -80.97649 0 163.6089
v -81.97006 0 163.6089
v -80.97649 0 164.6025
v -81.97006 0 164.6025
v -86.44115 0 162.9465
v -87.43473 0 162.9465
v -86.44115 0 164.1057
v -87.43473 0 164.1057
v -85.44758 0 162.7809
v -86.44115 0 162.7809
v -85.44758 0 163.9401
v -86.44115 0 163.9401
v -83.29483 0 162.7809
v -84.28841 0 162.7809
v -83.29483 0 163.7745
v -84.28841 0 163.7745
v -84.12281 0 162.1186
v -85.11639 0 162.1186
v -84.12281 0 163.2777
v -85.11639 0 163.2777
v -86.44115 0 162.1186
v -87.26913 0 162.1186
v -86.44115 0 163.1121
v -87.26913 0 163.1121
v -83.46043 0 161.7874
v -84.454 0 161.7874
v -83.46043 0 162.9465
v -84.454 0 162.9465
v -84.78519 0 161.4562
v -85.61317 0 161.4562
v -84.78519 0 162.6154
v -85.61317 0 162.6154
v -85.11639 0 161.2906
v -86.10996 0 161.2906
v -85.11639 0 162.4498
v -86.10996 0 162.4498
v -86.10996 0 160.4626
v -87.10354 0 160.4626
v -86.10996 0 161.6218
v -87.10354 0 161.6218
v -84.78519 0 160.297
v -85.77877 0 160.297
v -84.78519 0 161.2906
v -85.77877 0 161.2906
v -71.53751 0 158.9722
v -72.53108 0 158.9722
v -71.53751 0 160.1314
v -72.53108 0 160.1314
v -83.62602 0 158.8066
v -84.6196 0 158.8066
v -83.62602 0 159.8002
v -84.6196 0 159.8002
v -85.28198 0 158.4754
v -86.27556 0 158.4754
v -85.28198 0 159.6346
v -86.27556 0 159.6346
v -83.95721 0 158.1443
v -84.95079 0 158.1443
v -83.95721 0 159.3034
v -84.95079 0 159.3034
v -83.79162 0 157.8131
v -84.78519 0 157.8131
v -83.79162 0 158.9722
v -84.78519 0 158.9722
v -72.36549 0 156.6539
v -73.35906 0 156.6539
v -72.36549 0 157.8131
v -73.35906 0 157.8131
v -71.37191 0 156.3227
v -72.36549 0 156.3227
v -71.37191 0 157.4819
v -72.36549 0 157.4819
v -68.22559 0 156.4883
v -69.21916 0 156.4883
v -68.22559 0 157.6475
v -69.21916 0 157.6475
v -70.37833 0 156.1571
v -71.37191 0 156.1571
v -70.37833 0 157.1507
v -71.37191 0 157.1507
v -70.04714 0 155.9915
v -71.04072 0 155.9915
v -70.04714 0 157.1507
v -71.04072 0 157.1507
v -72.53108 0 155.3291
v -73.52466 0 155.3291
v -72.53108 0 156.3227
v -73.52466 0 156.3227
v -69.55035 0 155.1635
v -70.54393 0 155.1635
v -69.55035 0 156.1571
v -70.54393 0 156.1571
v -71.04072 0 154.8323
v -72.03429 0 154.8323
v -71.04072 0 155.9915
v -72.03429 0 155.9915
v -73.85585 0 154.8323
v -74.84943 0 154.8323
v -73.85585 0 155.9915
v -74.84943 0 155.9915
v -73.02787 0 154.6667
v -73.85585 0 154.6667
v -73.02787 0 155.8259
v -73.85585 0 155.8259
v -71.04072 0 154.3355
v -71.8687 0 154.3355
v -71.04072 0 155.3291
v -71.8687 0 155.3291
v -75.18062 0 154.17
v -76.0086 0 154.17
v -75.18062 0 155.1635
v -76.0086 0 155.1635
v -69.21916 0 153.8388
v -70.21274 0 153.8388
v -69.21916 0 154.8323
v -70.21274 0 154.8323
v -71.37191 0 153.6732
v -72.36549 0 153.6732
v -71.37191 0 154.8323
v -72.36549 0 154.8323
v -73.69025 0 153.5076
v -74.68383 0 153.5076
v -73.69025 0 154.5011
v -74.68383 0 154.5011
v -68.88797 0 153.1764
v -69.71595 0 153.1764
v -68.88797 0 154.17
v -69.71595 0 154.17
v -71.7031 0 152.8452
v -72.53108 0 152.8452
v -71.7031 0 153.8388
v -72.53108 0 153.8388
v -89.25629 0 146.3869
v -90.24986 0 146.3869
v -89.25629 0 147.5461
v -90.24986 0 147.5461
vt 0.1347656 0.9185662
vt 0.2060202 0.9185662
vt 0.1347656 1
vt 0.2060202 1
vt 0.1347656 0.9185662
vt 0.2060202 0.9185662
vt 0.1347656 1
vt 0.2060202 1
vt 0.1347656 0.9185662
vt 0.2060202 0.9185662
vt 0.1347656 1
vt 0.2060202 1
vt 0.1347656 0.9185662
vt 0.2060202 0.9185662
vt 0.1347656 1
vt 0.2060202 1
vt 0.1347656 0.9185662
vt 0.2060202 0.9185662
vt 0.1347656 1
vt 0.2060202 1
vt 0.1347656 0.9185662
vt 0.2060202 0.9185662
vt 0.1347656 1
vt 0.2060202 1
vt 0.1347656 0.9185662
vt 0.2060202 0.9185662
vt 0.1347656 1
vt 0.2060202 1
vt 0.1347656 0.9185662
vt 0.2060202 0.9185662
vt 0.1347656 1
vt 0.2060202 1
vt 0.1347656 0.9185662
vt 0.2060202 0.9185662
vt 0.1347656 1
vt 0.2060202 1
vt 0.1347656 0.9185662
vt 0.2060202 0.9185662
vt 0.1347656 1
vt 0.2060202 1
vt 0.1347656 0.9185662
vt 0.2060202 0.9185662
vt 0.1347656 1
vt 0.2060202 1
vt 0.1347656 0.9185662
vt 0.2060202 0.9185662
vt 0.1347656 1
vt 0.2060202 1
vt 0.1347656 0.9185662
vt 0.2060202 0.9185662
vt 0.1347656 1
vt 0.2060202 1
vt 0.1347656 0.9185662
vt 0.2060202 0.9185662
vt 0.1347656 1
vt 0.2060202 1
vt 0.1347656 0.9185662
vt 0.2060202 0.9185662
vt 0.1347656 1
vt 0.2060202 1
vt 0.1347656 0.9185662
vt 0.2060202 0.9185662
vt 0.1347656 1
vt 0.2060202 1
vt 0.1347656 0.9185662
vt 0.2060202 0.9185662
vt 0.1347656 1
vt 0.2060202 1
vt 0.1347656 0.9185662
vt 0.2060202 0.9185662
vt 0.1347656 1
vt 0.2060202 1
vt 0.1347656 0.9185662
vt 0.2060202 0.9185662
vt 0.1347656 1
vt 0.2060202 1
vt 0.1347656 0.9185662
vt 0.2060202 0.9185662
vt 0.1347656 1
vt 0.2060202 1
vt 0.1347656 0.9185662
vt 0.2060202 0.9185662
vt 0.1347656 1
vt 0.2060202 1
vt 0.1347656 0.9185662
vt 0.2060202 0.9185662
vt 0.1347656 1
vt 0.2060202 1
vt 0.1347656 0.9185662
vt 0.2060202 0.9185662
vt 0.1347656 1
vt 0.2060202 1
vt 0.1347656 0.9185662
vt 0.2060202 0.9185662
vt 0.1347656 1
vt 0.2060202 1
vt 0.1347656 0.9185662
vt 0.2060202 0.9185662
vt 0.1347656 1
vt 0.2060202 1
vt 0.1347656 0.9185662
vt 0.2060202 0.9185662
vt 0.1347656 1
vt 0.2060202 1
vt 0.1347656 0.9185662
vt 0.2060202 0.9185662
vt 0.1347656 1
vt 0.2060202 1
vt 0.1347656 0.9185662
vt 0.2060202 0.9185662
vt 0.1347656 1
vt 0.2060202 1
vt 0.1347656 0.9185662
vt 0.2060202 0.9185662
vt 0.1347656 1
vt 0.2060202 1
vt 0.1347656 0.9185662
vt 0.2060202 0.9185662
vt 0.1347656 1
vt 0.2060202 1
vt 0.1347656 0.9185662
vt 0.2060202 0.9185662
vt 0.1347656 1
vt 0.2060202 1
vt 0.1347656 0.9185662
vt 0.2060202 0.9185662
vt 0.1347656 1
vt 0.2060202 1
vt 0.1347656 0.9185662
vt 0.2060202 0.9185662
vt 0.1347656 1
vt 0.2060202 1
vt 0.1347656 0.9185662
vt 0.2060202 0.9185662
vt 0.1347656 1
vt 0.2060202 1
vt 0.1347656 0.9185662
vt 0.2060202 0.9185662
vt 0.1347656 1
vt 0.2060202 1
vt 0.1347656 0.9185662
vt 0.2060202 0.9185662
vt 0.1347656 1
vt 0.2060202 1
vt 0.1347656 0.9185662
vt 0.2060202 0.9185662
vt 0.1347656 1
vt 0.2060202 1
vt 0.1347656 0.9185662
vt 0.2060202 0.9185662
vt 0.1347656 1
vt 0.2060202 1
vt 0.1347656 0.9185662
vt 0.2060202 0.9185662
vt 0.1347656 1
vt 0.2060202 1
vt 0.1347656 0.9185662
vt 0.2060202 0.9185662
vt 0.1347656 1
vt 0.2060202 1
vt 0.1347656 0.9185662
vt 0.2060202 0.9185662
vt 0.1347656 1
vt 0.2060202 1
vt 0.1347656 0.9185662
vt 0.2060202 0.9185662
vt 0.1347656 1
vt 0.2060202 1
vt 0.1347656 0.9185662
vt 0.2060202 0.9185662
vt 0.1347656 1
vt 0.2060202 1
vt 0.1347656 0.9185662
vt 0.2060202 0.9185662
vt 0.1347656 1
vt 0.2060202 1
vt 0.1347656 0.9185662
vt 0.2060202 0.9185662
vt 0.1347656 1
vt 0.2060202 1
vt 0.1347656 0.9185662
vt 0.2060202 0.9185662
vt 0.1347656 1
vt 0.2060202 1
vt 0.1347656 0.9185662
vt 0.2060202 0.9185662
vt 0.1347656 1
vt 0.2060202 1
vt 0.1347656 0.9185662
vt 0.2060202 0.9185662
vt 0.1347656 1
vt 0.2060202 1
vt 0.1347656 0.9185662
vt 0.2060202 0.9185662
vt 0.1347656 1
vt 0.2060202 1
vt 0.1347656 0.9185662
vt 0.2060202 0.9185662
vt 0.1347656 1
vt 0.2060202 1
vn 0 1 0
vn 0 1 0
vn 0 1 0
vn 0 1 0
vn 0 1 0
vn 0 1 0
vn 0 1 0
vn 0 1 0
vn 0 1 0
vn 0 1 0
vn 0 1 0
vn 0 1 0
vn 0 1 0
vn 0 1 0
vn 0 1 0
vn 0 1 0
vn 0 1 0
vn 0 1 0
vn 0 1 0
vn 0 1 0
vn 0 1 0
vn 0 1 0
vn 0 1 0
vn 0 1 0
vn 0 1 0
vn 0 1 0
vn 0 1 0
vn 0 1 0
vn 0 1 0
vn 0 1 0
vn 0 1 0
vn 0 1 0
vn 0 1 0
vn 0 1 0
vn 0 1 0
vn 0 1 0
vn 0 1 0
vn 0 1 0
vn 0 1 0
vn 0 1 0
vn 0 1 0
vn 0 1 0
vn 0 1 0
vn 0 1 0
vn 0 1 0
vn 0 1 0
vn 0 1 0
vn 0 1 0
vn 0 1 0
vn 0 1 0
vn 0 1 0
vn 0 1 0
vn 0 1 0
vn 0 1 0
vn 0 1 0
vn 0 1 0
vn 0 1 0
vn 0 1 0
vn 0 1 0
vn 0 1 0
vn 0 1 0
vn 0 1 0
vn 0 1 0
vn 0 1 0
vn 0 1 0
vn 0 1 0
vn 0 1 0
vn 0 1 0
vn 0 1 0
vn 0 1 0
vn 0 1 0
vn 0 1 0
vn 0 1 0
vn 0 1 0
vn 0 1 0
vn 0 1 0
vn 0 1 0
vn 0 1 0
vn 0 1 0
vn 0 1 0
vn 0 1 0
vn 0 1 0
vn 0 1 0
vn 0 1 0
vn 0 1 0
vn 0 1 0
vn 0 1 0
vn 0 1 0
vn 0 1 0
vn 0 1 0
vn 0 1 0
vn 0 1 0
vn 0 1 0
vn 0 1 0
vn 0 1 0
vn 0 1 0
vn 0 1 0
vn 0 1 0
vn 0 1 0
vn 0 1 0
vn 0 1 0
vn 0 1 0
vn 0 1 0
vn 0 1 0
vn 0 1 0
vn 0 1 0
vn 0 1 0
vn 0 1 0
vn 0 1 0
vn 0 1 0
vn 0 1 0
vn 0 1 0
vn 0 1 0
vn 0 1 0
vn 0 1 0
vn 0 1 0
vn 0 1 0
vn 0 1 0
vn 0 1 0
vn 0 1 0
vn 0 1 0
vn 0 1 0
vn 0 1 0
vn 0 1 0
vn 0 1 0
vn 0 1 0
vn 0 1 0
vn 0 1 0
vn 0 1 0
vn 0 1 0
vn 0 1 0
vn 0 1 0
vn 0 1 0
vn 0 1 0
vn 0 1 0
vn 0 1 0
vn 0 1 0
vn 0 1 0
vn 0 1 0
vn 0 1 0
vn 0 1 0
vn 0 1 0
vn 0 1 0
vn 0 1 0
vn 0 1 0
vn 0 1 0
vn 0 1 0
vn 0 1 0
vn 0 1 0
vn 0 1 0
vn 0 1 0
vn 0 1 0
vn 0 1 0
vn 0 1 0
vn 0 1 0
vn 0 1 0
vn 0 1 0
vn 0 1 0
vn 0 1 0
vn 0 1 0
vn 0 1 0
vn 0 1 0
vn 0 1 0
vn 0 1 0
vn 0 1 0
vn 0 1 0
vn 0 1 0
vn 0 1 0
vn 0 1 0
vn 0 1 0
vn 0 1 0
vn 0 1 0
vn 0 1 0
vn 0 1 0
vn 0 1 0
vn 0 1 0
vn 0 1 0
vn 0 1 0
vn 0 1 0
vn 0 1 0
vn 0 1 0
vn 0 1 0
vn 0 1 0
vn 0 1 0
vn 0 1 0
vn 0 1 0
vn 0 1 0
vn 0 1 0
vn 0 1 0
vn 0 1 0
vn 0 1 0
vn 0 1 0
vn 0 1 0
vn 0 1 0
vn 0 1 0
vn 0 1 0
vn 0 1 0
vn 0 1 0
vn 0 1 0
vn 0 1 0
g Grass_2_Cluster132_0
f 2/2/2 3/3/3 1/1/1
f 2/2/2 4/4/4 3/3/3
f 6/6/6 7/7/7 5/5/5
f 6/6/6 8/8/8 7/7/7
f 10/10/10 11/11/11 9/9/9
f 10/10/10 12/12/12 11/11/11
f 14/14/14 15/15/15 13/13/13
f 14/14/14 16/16/16 15/15/15
f 18/18/18 19/19/19 17/17/17
f 18/18/18 20/20/20 19/19/19
f 22/22/22 23/23/23 21/21/21
f 22/22/22 24/24/24 23/23/23
f 26/26/26 27/27/27 25/25/25
f 26/26/26 28/28/28 27/27/27
f 30/30/30 31/31/31 29/29/29
f 30/30/30 32/32/32 31/31/31
f 34/34/34 35/35/35 33/33/33
f 34/34/34 36/36/36 35/35/35
f 38/38/38 39/39/39 37/37/37
f 38/38/38 40/40/40 39/39/39
f 42/42/42 43/43/43 41/41/41
f 42/42/42 44/44/44 43/43/43
f 46/46/46 47/47/47 45/45/45
f 46/46/46 48/48/48 47/47/47
f 50/50/50 51/51/51 49/49/49
f 50/50/50 52/52/52 51/51/51
f 54/54/54 55/55/55 53/53/53
f 54/54/54 56/56/56 55/55/55
f 58/58/58 59/59/59 57/57/57
f 58/58/58 60/60/60 59/59/59
f 62/62/62 63/63/63 61/61/61
f 62/62/62 64/64/64 63/63/63
f 66/66/66 67/67/67 65/65/65
f 66/66/66 68/68/68 67/67/67
f 70/70/70 71/71/71 69/69/69
f 70/70/70 72/72/72 71/71/71
f 74/74/74 75/75/75 73/73/73
f 74/74/74 76/76/76 75/75/75
f 78/78/78 79/79/79 77/77/77
f 78/78/78 80/80/80 79/79/79
f 82/82/82 83/83/83 81/81/81
f 82/82/82 84/84/84 83/83/83
f 86/86/86 87/87/87 85/85/85
f 86/86/86 88/88/88 87/87/87
f 90/90/90 91/91/91 89/89/89
f 90/90/90 92/92/92 91/91/91
f 94/94/94 95/95/95 93/93/93
f 94/94/94 96/96/96 95/95/95
f 98/98/98 99/99/99 97/97/97
f 98/98/98 100/100/100 99/99/99
f 102/102/102 103/103/103 101/101/101
f 102/102/102 104/104/104 103/103/103
f 106/106/106 107/107/107 105/105/105
f 106/106/106 108/108/108 107/107/107
f 110/110/110 111/111/111 109/109/109
f 110/110/110 112/112/112 111/111/111
f 114/114/114 115/115/115 113/113/113
f 114/114/114 116/116/116 115/115/115
f 118/118/118 119/119/119 117/117/117
f 118/118/118 120/120/120 119/119/119
f 122/122/122 123/123/123 121/121/121
f 122/122/122 124/124/124 123/123/123
f 126/126/126 127/127/127 125/125/125
f 126/126/126 128/128/128 127/127/127
f 130/130/130 131/131/131 129/129/129
f 130/130/130 132/132/132 131/131/131
f 134/134/134 135/135/135 133/133/133
f 134/134/134 136/136/136 135/135/135
f 138/138/138 139/139/139 137/137/137
f 138/138/138 140/140/140 139/139/139
f 142/142/142 143/143/143 141/141/141
f 142/142/142 144/144/144 143/143/143
f 146/146/146 147/147/147 145/145/145
f 146/146/146 148/148/148 147/147/147
f 150/150/150 151/151/151 149/149/149
f 150/150/150 152/152/152 151/151/151
f 154/154/154 155/155/155 153/153/153
f 154/154/154 156/156/156 155/155/155
f 158/158/158 159/159/159 157/157/157
f 158/158/158 160/160/160 159/159/159
f 162/162/162 163/163/163 161/161/161
f 162/162/162 164/164/164 163/163/163
f 166/166/166 167/167/167 165/165/165
f 166/166/166 168/168/168 167/167/167
f 170/170/170 171/171/171 169/169/169
f 170/170/170 172/172/172 171/171/171
f 174/174/174 175/175/175 173/173/173
f 174/174/174 176/176/176 175/175/175
f 178/178/178 179/179/179 177/177/177
f 178/178/178 180/180/180 179/179/179
f 182/182/182 183/183/183 181/181/181
f 182/182/182 184/184/184 183/183/183
f 186/186/186 187/187/187 185/185/185
f 186/186/186 188/188/188 187/187/187
f 190/190/190 191/191/191 189/189/189
f 190/190/190 192/192/192 191/191/191
f 194/194/194 195/195/195 193/193/193
f 194/194/194 196/196/196 195/195/195
f 198/198/198 199/199/199 197/197/197
f 198/198/198 200/200/200 199/199/199
