g Grass_2_Cluster121
v 269.0925 -0.04147339 168.1691
v 268.2343 -0.04147339 168.1691
v 269.0925 -0.04147339 169.4564
v 268.2343 -0.04147339 169.4564
v 245.4916 -0.04147339 165.5945
v 244.6333 -0.04147339 165.5945
v 245.4916 -0.04147339 166.8818
v 244.6333 -0.04147339 166.8818
v 242.9169 -0.04147339 165.1653
v 242.0587 -0.04147339 165.1653
v 242.9169 -0.04147339 166.0236
v 242.0587 -0.04147339 166.0236
v 248.9244 -0.04147339 164.7362
v 248.0662 -0.04147339 164.7362
v 248.9244 -0.04147339 165.5945
v 248.0662 -0.04147339 165.5945
v 240.3423 -0.04147339 163.4489
v 239.484 -0.04147339 163.4489
v 240.3423 -0.04147339 164.7362
v 239.484 -0.04147339 164.7362
v 243.346 -0.04147339 163.4489
v 242.0587 -0.04147339 163.4489
v 243.346 -0.04147339 164.7362
v 242.0587 -0.04147339 164.7362
v 245.0625 -0.04147339 163.0198
v 244.2042 -0.04147339 163.0198
v 245.0625 -0.04147339 164.3071
v 244.2042 -0.04147339 164.3071
v 242.4878 -0.04147339 162.5907
v 241.6296 -0.04147339 162.5907
v 242.4878 -0.04147339 163.4489
v 241.6296 -0.04147339 163.4489
v 243.346 -0.04147339 162.1616
v 242.4878 -0.04147339 162.1616
v 243.346 -0.04147339 163.0198
v 242.4878 -0.04147339 163.0198
v 245.9207 -0.04147339 161.7325
v 245.0625 -0.04147339 161.7325
v 245.9207 -0.04147339 162.5907
v 245.0625 -0.04147339 162.5907
v 266.947 -0.04147339 156.1541
v 266.0888 -0.04147339 156.1541
v 266.947 -0.04147339 157.0123
v 266.0888 -0.04147339 157.0123
v 269.5216 -0.04147339 155.2958
v 268.6634 -0.04147339 155.2958
v 269.5216 -0.04147339 156.5832
v 268.6634 -0.04147339 156.5832
v 268.6634 -0.04147339 153.1503
v 267.8052 -0.04147339 153.1503
v 268.6634 -0.04147339 154.4376
v 267.8052 -0.04147339 154.4376
v 251.9282 -0.04147339 149.7174
v 251.07 -0.04147339 149.7174
v 251.9282 -0.04147339 150.5757
v 251.07 -0.04147339 150.5757
v 254.5028 -0.04147339 148.8592
v 253.6446 -0.04147339 148.8592
v 254.5028 -0.04147339 150.1465
v 253.6446 -0.04147339 150.1465
v 253.6446 -0.04147339 148.4301
v 252.3573 -0.04147339 148.4301
v 253.6446 -0.04147339 149.2883
v 252.3573 -0.04147339 149.2883
v 251.07 -0.04147339 148.001
v 249.7826 -0.04147339 148.001
v 251.07 -0.04147339 148.8592
v 249.7826 -0.04147339 148.8592
v 254.9319 -0.04147339 147.1428
v 253.6446 -0.04147339 147.1428
v 254.9319 -0.04147339 148.4301
v 253.6446 -0.04147339 148.4301
v 254.0737 -0.04147339 147.1428
v 253.2155 -0.04147339 147.1428
v 254.0737 -0.04147339 148.001
v 253.2155 -0.04147339 148.001
v 253.2155 -0.04147339 146.7137
v 252.3573 -0.04147339 146.7137
v 253.2155 -0.04147339 147.5719
v 252.3573 -0.04147339 147.5719
v 251.07 -0.04147339 146.2845
v 250.2117 -0.04147339 146.2845
v 251.07 -0.04147339 147.5719
v 250.2117 -0.04147339 147.5719
v 249.3535 -0.04147339 146.2845
v 248.4953 -0.04147339 146.2845
v 249.3535 -0.04147339 147.1428
v 248.4953 -0.04147339 147.1428
v 252.7864 -0.04147339 145.8554
v 251.9282 -0.04147339 145.8554
v 252.7864 -0.04147339 147.1428
v 251.9282 -0.04147339 147.1428
v 253.2155 -0.04147339 144.9972
v 251.9282 -0.04147339 144.9972
v 253.2155 -0.04147339 146.2845
v 251.9282 -0.04147339 146.2845
v 252.3573 -0.04147339 144.9972
v 251.07 -0.04147339 144.9972
v 252.3573 -0.04147339 146.2845
v 251.07 -0.04147339 146.2845
v 250.6409 -0.04147339 144.5681
v 249.7826 -0.04147339 144.5681
v 250.6409 -0.04147339 145.8554
v 249.7826 -0.04147339 145.8554
v 266.0888 -0.04147339 144.5681
v 265.2306 -0.04147339 144.5681
v 266.0888 -0.04147339 145.4263
v 265.2306 -0.04147339 145.4263
v 251.4991 -0.04147339 144.139
v 250.6409 -0.04147339 144.139
v 251.4991 -0.04147339 145.4263
v 250.6409 -0.04147339 145.4263
v 252.7864 -0.04147339 144.139
v 251.9282 -0.04147339 144.139
v 252.7864 -0.04147339 144.9972
v 251.9282 -0.04147339 144.9972
v 251.07 -0.04147339 143.7099
v 250.2117 -0.04147339 143.7099
v 251.07 -0.04147339 144.9972
v 250.2117 -0.04147339 144.9972
vt 0.1347656 0.9185662
vt 0.2060202 0.9185662
vt 0.1347656 1
vt 0.2060202 1
vt 0.1347656 0.9185662
vt 0.2060202 0.9185662
vt 0.1347656 1
vt 0.2060202 1
vt 0.1347656 0.9185662
vt 0.2060202 0.9185662
vt 0.1347656 1
vt 0.2060202 1
vt 0.1347656 0.9185662
vt 0.2060202 0.9185662
vt 0.1347656 1
vt 0.2060202 1
vt 0.1347656 0.9185662
vt 0.2060202 0.9185662
vt 0.1347656 1
vt 0.2060202 1
vt 0.1347656 0.9185662
vt 0.2060202 0.9185662
vt 0.1347656 1
vt 0.2060202 1
vt 0.1347656 0.9185662
vt 0.2060202 0.9185662
vt 0.1347656 1
vt 0.2060202 1
vt 0.1347656 0.9185662
vt 0.2060202 0.9185662
vt 0.1347656 1
vt 0.2060202 1
vt 0.1347656 0.9185662
vt 0.2060202 0.9185662
vt 0.1347656 1
vt 0.2060202 1
vt 0.1347656 0.9185662
vt 0.2060202 0.9185662
vt 0.1347656 1
vt 0.2060202 1
vt 0.1347656 0.9185662
vt 0.2060202 0.9185662
vt 0.1347656 1
vt 0.2060202 1
vt 0.1347656 0.9185662
vt 0.2060202 0.9185662
vt 0.1347656 1
vt 0.2060202 1
vt 0.1347656 0.9185662
vt 0.2060202 0.9185662
vt 0.1347656 1
vt 0.2060202 1
vt 0.1347656 0.9185662
vt 0.2060202 0.9185662
vt 0.1347656 1
vt 0.2060202 1
vt 0.1347656 0.9185662
vt 0.2060202 0.9185662
vt 0.1347656 1
vt 0.2060202 1
vt 0.1347656 0.9185662
vt 0.2060202 0.9185662
vt 0.1347656 1
vt 0.2060202 1
vt 0.1347656 0.9185662
vt 0.2060202 0.9185662
vt 0.1347656 1
vt 0.2060202 1
vt 0.1347656 0.9185662
vt 0.2060202 0.9185662
vt 0.1347656 1
vt 0.2060202 1
vt 0.1347656 0.9185662
vt 0.2060202 0.9185662
vt 0.1347656 1
vt 0.2060202 1
vt 0.1347656 0.9185662
vt 0.2060202 0.9185662
vt 0.1347656 1
vt 0.2060202 1
vt 0.1347656 0.9185662
vt 0.2060202 0.9185662
vt 0.1347656 1
vt 0.2060202 1
vt 0.1347656 0.9185662
vt 0.2060202 0.9185662
vt 0.1347656 1
vt 0.2060202 1
vt 0.1347656 0.9185662
vt 0.2060202 0.9185662
vt 0.1347656 1
vt 0.2060202 1
vt 0.1347656 0.9185662
vt 0.2060202 0.9185662
vt 0.1347656 1
vt 0.2060202 1
vt 0.1347656 0.9185662
vt 0.2060202 0.9185662
vt 0.1347656 1
vt 0.2060202 1
vt 0.1347656 0.9185662
vt 0.2060202 0.9185662
vt 0.1347656 1
vt 0.2060202 1
vt 0.1347656 0.9185662
vt 0.2060202 0.9185662
vt 0.1347656 1
vt 0.2060202 1
vt 0.1347656 0.9185662
vt 0.2060202 0.9185662
vt 0.1347656 1
vt 0.2060202 1
vt 0.1347656 0.9185662
vt 0.2060202 0.9185662
vt 0.1347656 1
vt 0.2060202 1
vt 0.1347656 0.9185662
vt 0.2060202 0.9185662
vt 0.1347656 1
vt 0.2060202 1
vn 0 1 0
vn 0 1 0
vn 0 1 0
vn 0 1 0
vn 0 1 0
vn 0 1 0
vn 0 1 0
vn 0 1 0
vn 0 1 0
vn 0 1 0
vn 0 1 0
vn 0 1 0
vn 0 1 0
vn 0 1 0
vn 0 1 0
vn 0 1 0
vn 0 1 0
vn 0 1 0
vn 0 1 0
vn 0 1 0
vn 0 1 0
vn 0 1 0
vn 0 1 0
vn 0 1 0
vn 0 1 0
vn 0 1 0
vn 0 1 0
vn 0 1 0
vn 0 1 0
vn 0 1 0
vn 0 1 0
vn 0 1 0
vn 0 1 0
vn 0 1 0
vn 0 1 0
vn 0 1 0
vn 0 1 0
vn 0 1 0
vn 0 1 0
vn 0 1 0
vn 0 1 0
vn 0 1 0
vn 0 1 0
vn 0 1 0
vn 0 1 0
vn 0 1 0
vn 0 1 0
vn 0 1 0
vn 0 1 0
vn 0 1 0
vn 0 1 0
vn 0 1 0
vn 0 1 0
vn 0 1 0
vn 0 1 0
vn 0 1 0
vn 0 1 0
vn 0 1 0
vn 0 1 0
vn 0 1 0
vn 0 1 0
vn 0 1 0
vn 0 1 0
vn 0 1 0
vn 0 1 0
vn 0 1 0
vn 0 1 0
vn 0 1 0
vn 0 1 0
vn 0 1 0
vn 0 1 0
vn 0 1 0
vn 0 1 0
vn 0 1 0
vn 0 1 0
vn 0 1 0
vn 0 1 0
vn 0 1 0
vn 0 1 0
vn 0 1 0
vn 0 1 0
vn 0 1 0
vn 0 1 0
vn 0 1 0
vn 0 1 0
vn 0 1 0
vn 0 1 0
vn 0 1 0
vn 0 1 0
vn 0 1 0
vn 0 1 0
vn 0 1 0
vn 0 1 0
vn 0 1 0
vn 0 1 0
vn 0 1 0
vn 0 1 0
vn 0 1 0
vn 0 1 0
vn 0 1 0
vn 0 1 0
vn 0 1 0
vn 0 1 0
vn 0 1 0
vn 0 1 0
vn 0 1 0
vn 0 1 0
vn 0 1 0
vn 0 1 0
vn 0 1 0
vn 0 1 0
vn 0 1 0
vn 0 1 0
vn 0 1 0
vn 0 1 0
vn 0 1 0
vn 0 1 0
vn 0 1 0
vn 0 1 0
vn 0 1 0
g Grass_2_Cluster121_0
f 2/2/2 3/3/3 1/1/1
f 2/2/2 4/4/4 3/3/3
f 6/6/6 7/7/7 5/5/5
f 6/6/6 8/8/8 7/7/7
f 10/10/10 11/11/11 9/9/9
f 10/10/10 12/12/12 11/11/11
f 14/14/14 15/15/15 13/13/13
f 14/14/14 16/16/16 15/15/15
f 18/18/18 19/19/19 17/17/17
f 18/18/18 20/20/20 19/19/19
f 22/22/22 23/23/23 21/21/21
f 22/22/22 24/24/24 23/23/23
f 26/26/26 27/27/27 25/25/25
f 26/26/26 28/28/28 27/27/27
f 30/30/30 31/31/31 29/29/29
f 30/30/30 32/32/32 31/31/31
f 34/34/34 35/35/35 33/33/33
f 34/34/34 36/36/36 35/35/35
f 38/38/38 39/39/39 37/37/37
f 38/38/38 40/40/40 39/39/39
f 42/42/42 43/43/43 41/41/41
f 42/42/42 44/44/44 43/43/43
f 46/46/46 47/47/47 45/45/45
f 46/46/46 48/48/48 47/47/47
f 50/50/50 51/51/51 49/49/49
f 50/50/50 52/52/52 51/51/51
f 54/54/54 55/55/55 53/53/53
f 54/54/54 56/56/56 55/55/55
f 58/58/58 59/59/59 57/57/57
f 58/58/58 60/60/60 59/59/59
f 62/62/62 63/63/63 61/61/61
f 62/62/62 64/64/64 63/63/63
f 66/66/66 67/67/67 65/65/65
f 66/66/66 68/68/68 67/67/67
f 70/70/70 71/71/71 69/69/69
f 70/70/70 72/72/72 71/71/71
f 74/74/74 75/75/75 73/73/73
f 74/74/74 76/76/76 75/75/75
f 78/78/78 79/79/79 77/77/77
f 78/78/78 80/80/80 79/79/79
f 82/82/82 83/83/83 81/81/81
f 82/82/82 84/84/84 83/83/83
f 86/86/86 87/87/87 85/85/85
f 86/86/86 88/88/88 87/87/87
f 90/90/90 91/91/91 89/89/89
f 90/90/90 92/92/92 91/91/91
f 94/94/94 95/95/95 93/93/93
f 94/94/94 96/96/96 95/95/95
f 98/98/98 99/99/99 97/97/97
f 98/98/98 100/100/100 99/99/99
f 102/102/102 103/103/103 101/101/101
f 102/102/102 104/104/104 103/103/103
f 106/106/106 107/107/107 105/105/105
f 106/106/106 108/108/108 107/107/107
f 110/110/110 111/111/111 109/109/109
f 110/110/110 112/112/112 111/111/111
f 114/114/114 115/115/115 113/113/113
f 114/114/114 116/116/116 115/115/115
f 118/118/118 119/119/119 117/117/117
f 118/118/118 120/120/120 119/119/119
