g Grass_0_Cluster265
v 148.2964 0.03846741 382.8887
v 147.2518 0.03846741 382.8887
v 148.2964 0.03846741 383.9333
v 147.2518 0.03846741 383.9333
v 129.4934 0.03846741 382.3665
v 128.4488 0.03846741 382.3665
v 129.4934 0.03846741 383.9333
v 128.4488 0.03846741 383.9333
v 130.538 0.03846741 382.3665
v 129.4934 0.03846741 382.3665
v 130.538 0.03846741 383.4111
v 129.4934 0.03846741 383.4111
v 132.1049 0.03846741 381.8441
v 131.0603 0.03846741 381.8441
v 132.1049 0.03846741 382.8887
v 131.0603 0.03846741 382.8887
v 133.1496 0.03846741 381.8441
v 132.1049 0.03846741 381.8441
v 133.1496 0.03846741 382.8887
v 132.1049 0.03846741 382.8887
v 149.8634 0.03846741 381.3218
v 148.8187 0.03846741 381.3218
v 149.8634 0.03846741 382.8887
v 148.8187 0.03846741 382.8887
v 150.3857 0.03846741 380.7996
v 149.341 0.03846741 380.7996
v 150.3857 0.03846741 381.8441
v 149.341 0.03846741 381.8441
v 128.9711 0.03846741 380.7996
v 127.9265 0.03846741 380.7996
v 128.9711 0.03846741 381.8441
v 127.9265 0.03846741 381.8441
v 132.1049 0.03846741 380.7996
v 131.5826 0.03846741 380.7996
v 132.1049 0.03846741 381.8441
v 131.5826 0.03846741 381.8441
v 131.5826 0.03846741 380.2772
v 130.538 0.03846741 380.2772
v 131.5826 0.03846741 381.3218
v 130.538 0.03846741 381.3218
v 134.7165 0.03846741 379.2326
v 133.6719 0.03846741 379.2326
v 134.7165 0.03846741 380.7996
v 133.6719 0.03846741 380.7996
v 149.8634 0.03846741 378.7103
v 148.8187 0.03846741 378.7103
v 149.8634 0.03846741 379.7549
v 148.8187 0.03846741 379.7549
v 131.5826 0.03846741 378.188
v 130.538 0.03846741 378.188
v 131.5826 0.03846741 379.2326
v 130.538 0.03846741 379.2326
v 132.1049 0.03846741 378.188
v 131.0603 0.03846741 378.188
v 132.1049 0.03846741 379.2326
v 131.0603 0.03846741 379.2326
v 130.538 0.03846741 377.1434
v 129.4934 0.03846741 377.1434
v 130.538 0.03846741 378.7103
v 129.4934 0.03846741 378.7103
v 132.6273 0.03846741 377.1434
v 132.1049 0.03846741 377.1434
v 132.6273 0.03846741 378.188
v 132.1049 0.03846741 378.188
v 132.6273 0.03846741 376.6211
v 131.5826 0.03846741 376.6211
v 132.6273 0.03846741 378.188
v 131.5826 0.03846741 378.188
v 133.1496 0.03846741 375.5765
v 132.1049 0.03846741 375.5765
v 133.1496 0.03846741 376.6211
v 132.1049 0.03846741 376.6211
v 149.8634 0.03846741 371.398
v 148.8187 0.03846741 371.398
v 149.8634 0.03846741 372.4426
v 148.8187 0.03846741 372.4426
v 145.1626 0.03846741 368.7865
v 144.118 0.03846741 368.7865
v 145.1626 0.03846741 370.3534
v 144.118 0.03846741 370.3534
v 123.2258 0.03846741 366.175
v 122.1811 0.03846741 366.175
v 123.2258 0.03846741 367.7419
v 122.1811 0.03846741 367.7419
v 122.7034 0.03846741 366.175
v 122.1811 0.03846741 366.175
v 122.7034 0.03846741 367.2196
v 122.1811 0.03846741 367.2196
v 126.3596 0.03846741 365.6526
v 125.315 0.03846741 365.6526
v 126.3596 0.03846741 366.6973
v 125.315 0.03846741 366.6973
v 147.7741 0.03846741 363.5634
v 147.2518 0.03846741 363.5634
v 147.7741 0.03846741 365.1304
v 147.2518 0.03846741 365.1304
v 149.8634 0.03846741 357.8181
v 148.8187 0.03846741 357.8181
v 149.8634 0.03846741 358.8627
v 148.8187 0.03846741 358.8627
v 138.3726 0.03846741 357.2958
v 137.8503 0.03846741 357.2958
v 138.3726 0.03846741 358.8627
v 137.8503 0.03846741 358.8627
v 140.4619 0.03846741 356.7735
v 139.4172 0.03846741 356.7735
v 140.4619 0.03846741 358.3404
v 139.4172 0.03846741 358.3404
v 144.118 0.03846741 356.7735
v 143.0734 0.03846741 356.7735
v 144.118 0.03846741 357.8181
v 143.0734 0.03846741 357.8181
v 140.4619 0.03846741 356.2512
v 139.4172 0.03846741 356.2512
v 140.4619 0.03846741 357.2958
v 139.4172 0.03846741 357.2958
v 138.8949 0.03846741 356.2512
v 137.8503 0.03846741 356.2512
v 138.8949 0.03846741 357.2958
v 137.8503 0.03846741 357.2958
v 142.0288 0.03846741 355.2065
v 140.9842 0.03846741 355.2065
v 142.0288 0.03846741 356.2512
v 140.9842 0.03846741 356.2512
v 139.9395 0.03846741 354.6843
v 138.8949 0.03846741 354.6843
v 139.9395 0.03846741 356.2512
v 138.8949 0.03846741 356.2512
v 143.5957 0.03846741 354.6843
v 142.5511 0.03846741 354.6843
v 143.5957 0.03846741 356.2512
v 142.5511 0.03846741 356.2512
v 138.3726 0.03846741 353.6396
v 137.8503 0.03846741 353.6396
v 138.3726 0.03846741 354.6843
v 137.8503 0.03846741 354.6843
vt 0 0.9058824
vt 0.06666667 0.9058824
vt 0 1
vt 0.06666667 1
vt 0 0.9058824
vt 0.06666667 0.9058824
vt 0 1
vt 0.06666667 1
vt 0 0.9058824
vt 0.06666667 0.9058824
vt 0 1
vt 0.06666667 1
vt 0 0.9058824
vt 0.06666667 0.9058824
vt 0 1
vt 0.06666667 1
vt 0 0.9058824
vt 0.06666667 0.9058824
vt 0 1
vt 0.06666667 1
vt 0 0.9058824
vt 0.06666667 0.9058824
vt 0 1
vt 0.06666667 1
vt 0 0.9058824
vt 0.06666667 0.9058824
vt 0 1
vt 0.06666667 1
vt 0 0.9058824
vt 0.06666667 0.9058824
vt 0 1
vt 0.06666667 1
vt 0 0.9058824
vt 0.06666667 0.9058824
vt 0 1
vt 0.06666667 1
vt 0 0.9058824
vt 0.06666667 0.9058824
vt 0 1
vt 0.06666667 1
vt 0 0.9058824
vt 0.06666667 0.9058824
vt 0 1
vt 0.06666667 1
vt 0 0.9058824
vt 0.06666667 0.9058824
vt 0 1
vt 0.06666667 1
vt 0 0.9058824
vt 0.06666667 0.9058824
vt 0 1
vt 0.06666667 1
vt 0 0.9058824
vt 0.06666667 0.9058824
vt 0 1
vt 0.06666667 1
vt 0 0.9058824
vt 0.06666667 0.9058824
vt 0 1
vt 0.06666667 1
vt 0 0.9058824
vt 0.06666667 0.9058824
vt 0 1
vt 0.06666667 1
vt 0 0.9058824
vt 0.06666667 0.9058824
vt 0 1
vt 0.06666667 1
vt 0 0.9058824
vt 0.06666667 0.9058824
vt 0 1
vt 0.06666667 1
vt 0 0.9058824
vt 0.06666667 0.9058824
vt 0 1
vt 0.06666667 1
vt 0 0.9058824
vt 0.06666667 0.9058824
vt 0 1
vt 0.06666667 1
vt 0 0.9058824
vt 0.06666667 0.9058824
vt 0 1
vt 0.06666667 1
vt 0 0.9058824
vt 0.06666667 0.9058824
vt 0 1
vt 0.06666667 1
vt 0 0.9058824
vt 0.06666667 0.9058824
vt 0 1
vt 0.06666667 1
vt 0 0.9058824
vt 0.06666667 0.9058824
vt 0 1
vt 0.06666667 1
vt 0 0.9058824
vt 0.06666667 0.9058824
vt 0 1
vt 0.06666667 1
vt 0 0.9058824
vt 0.06666667 0.9058824
vt 0 1
vt 0.06666667 1
vt 0 0.9058824
vt 0.06666667 0.9058824
vt 0 1
vt 0.06666667 1
vt 0 0.9058824
vt 0.06666667 0.9058824
vt 0 1
vt 0.06666667 1
vt 0 0.9058824
vt 0.06666667 0.9058824
vt 0 1
vt 0.06666667 1
vt 0 0.9058824
vt 0.06666667 0.9058824
vt 0 1
vt 0.06666667 1
vt 0 0.9058824
vt 0.06666667 0.9058824
vt 0 1
vt 0.06666667 1
vt 0 0.9058824
vt 0.06666667 0.9058824
vt 0 1
vt 0.06666667 1
vt 0 0.9058824
vt 0.06666667 0.9058824
vt 0 1
vt 0.06666667 1
vt 0 0.9058824
vt 0.06666667 0.9058824
vt 0 1
vt 0.06666667 1
vn 0 1 0
vn 0 1 0
vn 0 1 0
vn 0 1 0
vn 0 1 0
vn 0 1 0
vn 0 1 0
vn 0 1 0
vn 0 1 0
vn 0 1 0
vn 0 1 0
vn 0 1 0
vn 0 1 0
vn 0 1 0
vn 0 1 0
vn 0 1 0
vn 0 1 0
vn 0 1 0
vn 0 1 0
vn 0 1 0
vn 0 1 0
vn 0 1 0
vn 0 1 0
vn 0 1 0
vn 0 1 0
vn 0 1 0
vn 0 1 0
vn 0 1 0
vn 0 1 0
vn 0 1 0
vn 0 1 0
vn 0 1 0
vn 0 1 0
vn 0 1 0
vn 0 1 0
vn 0 1 0
vn 0 1 0
vn 0 1 0
vn 0 1 0
vn 0 1 0
vn 0 1 0
vn 0 1 0
vn 0 1 0
vn 0 1 0
vn 0 1 0
vn 0 1 0
vn 0 1 0
vn 0 1 0
vn 0 1 0
vn 0 1 0
vn 0 1 0
vn 0 1 0
vn 0 1 0
vn 0 1 0
vn 0 1 0
vn 0 1 0
vn 0 1 0
vn 0 1 0
vn 0 1 0
vn 0 1 0
vn 0 1 0
vn 0 1 0
vn 0 1 0
vn 0 1 0
vn 0 1 0
vn 0 1 0
vn 0 1 0
vn 0 1 0
vn 0 1 0
vn 0 1 0
vn 0 1 0
vn 0 1 0
vn 0 1 0
vn 0 1 0
vn 0 1 0
vn 0 1 0
vn 0 1 0
vn 0 1 0
vn 0 1 0
vn 0 1 0
vn 0 1 0
vn 0 1 0
vn 0 1 0
vn 0 1 0
vn 0 1 0
vn 0 1 0
vn 0 1 0
vn 0 1 0
vn 0 1 0
vn 0 1 0
vn 0 1 0
vn 0 1 0
vn 0 1 0
vn 0 1 0
vn 0 1 0
vn 0 1 0
vn 0 1 0
vn 0 1 0
vn 0 1 0
vn 0 1 0
vn 0 1 0
vn 0 1 0
vn 0 1 0
vn 0 1 0
vn 0 1 0
vn 0 1 0
vn 0 1 0
vn 0 1 0
vn 0 1 0
vn 0 1 0
vn 0 1 0
vn 0 1 0
vn 0 1 0
vn 0 1 0
vn 0 1 0
vn 0 1 0
vn 0 1 0
vn 0 1 0
vn 0 1 0
vn 0 1 0
vn 0 1 0
vn 0 1 0
vn 0 1 0
vn 0 1 0
vn 0 1 0
vn 0 1 0
vn 0 1 0
vn 0 1 0
vn 0 1 0
vn 0 1 0
vn 0 1 0
vn 0 1 0
vn 0 1 0
vn 0 1 0
vn 0 1 0
vn 0 1 0
g Grass_0_Cluster265_0
f 2/2/2 3/3/3 1/1/1
f 2/2/2 4/4/4 3/3/3
f 6/6/6 7/7/7 5/5/5
f 6/6/6 8/8/8 7/7/7
f 10/10/10 11/11/11 9/9/9
f 10/10/10 12/12/12 11/11/11
f 14/14/14 15/15/15 13/13/13
f 14/14/14 16/16/16 15/15/15
f 18/18/18 19/19/19 17/17/17
f 18/18/18 20/20/20 19/19/19
f 22/22/22 23/23/23 21/21/21
f 22/22/22 24/24/24 23/23/23
f 26/26/26 27/27/27 25/25/25
f 26/26/26 28/28/28 27/27/27
f 30/30/30 31/31/31 29/29/29
f 30/30/30 32/32/32 31/31/31
f 34/34/34 35/35/35 33/33/33
f 34/34/34 36/36/36 35/35/35
f 38/38/38 39/39/39 37/37/37
f 38/38/38 40/40/40 39/39/39
f 42/42/42 43/43/43 41/41/41
f 42/42/42 44/44/44 43/43/43
f 46/46/46 47/47/47 45/45/45
f 46/46/46 48/48/48 47/47/47
f 50/50/50 51/51/51 49/49/49
f 50/50/50 52/52/52 51/51/51
f 54/54/54 55/55/55 53/53/53
f 54/54/54 56/56/56 55/55/55
f 58/58/58 59/59/59 57/57/57
f 58/58/58 60/60/60 59/59/59
f 62/62/62 63/63/63 61/61/61
f 62/62/62 64/64/64 63/63/63
f 66/66/66 67/67/67 65/65/65
f 66/66/66 68/68/68 67/67/67
f 70/70/70 71/71/71 69/69/69
f 70/70/70 72/72/72 71/71/71
f 74/74/74 75/75/75 73/73/73
f 74/74/74 76/76/76 75/75/75
f 78/78/78 79/79/79 77/77/77
f 78/78/78 80/80/80 79/79/79
f 82/82/82 83/83/83 81/81/81
f 82/82/82 84/84/84 83/83/83
f 86/86/86 87/87/87 85/85/85
f 86/86/86 88/88/88 87/87/87
f 90/90/90 91/91/91 89/89/89
f 90/90/90 92/92/92 91/91/91
f 94/94/94 95/95/95 93/93/93
f 94/94/94 96/96/96 95/95/95
f 98/98/98 99/99/99 97/97/97
f 98/98/98 100/100/100 99/99/99
f 102/102/102 103/103/103 101/101/101
f 102/102/102 104/104/104 103/103/103
f 106/106/106 107/107/107 105/105/105
f 106/106/106 108/108/108 107/107/107
f 110/110/110 111/111/111 109/109/109
f 110/110/110 112/112/112 111/111/111
f 114/114/114 115/115/115 113/113/113
f 114/114/114 116/116/116 115/115/115
f 118/118/118 119/119/119 117/117/117
f 118/118/118 120/120/120 119/119/119
f 122/122/122 123/123/123 121/121/121
f 122/122/122 124/124/124 123/123/123
f 126/126/126 127/127/127 125/125/125
f 126/126/126 128/128/128 127/127/127
f 130/130/130 131/131/131 129/129/129
f 130/130/130 132/132/132 131/131/131
f 134/134/134 135/135/135 133/133/133
f 134/134/134 136/136/136 135/135/135
