g Grass_0_Cluster69
v 0.7500553 0.009843826 80.99347
v -0.1184006 0.009843826 80.99347
v 0.7500553 0.009843826 82.18759
v -0.1184006 0.009843826 82.18759
v 28.86635 0.009843826 80.66779
v 27.99789 0.009843826 80.66779
v 28.86635 0.009843826 81.86192
v 27.99789 0.009843826 81.86192
v 2.161299 0.009843826 79.69078
v 1.292841 0.009843826 79.69078
v 2.161299 0.009843826 80.99347
v 1.292841 0.009843826 80.99347
v 1.401398 0.009843826 78.82233
v 0.4243851 0.009843826 78.82233
v 1.401398 0.009843826 80.125
v 0.4243851 0.009843826 80.125
v 2.921198 0.009843826 76.86829
v 2.052742 0.009843826 76.86829
v 2.921198 0.009843826 78.06242
v 2.052742 0.009843826 78.06242
v 2.052742 0.009843826 75.89128
v 1.184284 0.009843826 75.89128
v 2.052742 0.009843826 77.19397
v 1.184284 0.009843826 77.19397
v 14.64537 0.009843826 75.23993
v 13.77691 0.009843826 75.23993
v 14.64537 0.009843826 76.43407
v 13.77691 0.009843826 76.43407
v 3.789656 0.009843826 74.58859
v 2.812641 0.009843826 74.58859
v 3.789656 0.009843826 75.78271
v 2.812641 0.009843826 75.78271
v 1.72707 0.009843826 72.85168
v 0.7500553 0.009843826 72.85168
v 1.72707 0.009843826 74.04581
v 0.7500553 0.009843826 74.04581
v 24.84974 0.009843826 70.68054
v 23.98128 0.009843826 70.68054
v 24.84974 0.009843826 71.87466
v 23.98128 0.009843826 71.87466
v 17.57641 0.009843826 67.53238
v 16.70795 0.009843826 67.53238
v 17.57641 0.009843826 68.7265
v 16.70795 0.009843826 68.7265
v 19.09621 0.009843826 66.44681
v 18.22775 0.009843826 66.44681
v 19.09621 0.009843826 67.64093
v 18.22775 0.009843826 67.64093
v 22.46148 0.009843826 64.16711
v 21.48447 0.009843826 64.16711
v 22.46148 0.009843826 65.46979
v 21.48447 0.009843826 65.46979
v 20.61601 0.009843826 61.23606
v 19.639 0.009843826 61.23606
v 20.61601 0.009843826 62.43019
v 19.639 0.009843826 62.43019
v 18.1192 0.009843826 59.60771
v 17.25074 0.009843826 59.60771
v 18.1192 0.009843826 60.9104
v 17.25074 0.009843826 60.9104
v 21.37591 0.009843826 58.84781
v 20.3989 0.009843826 58.84781
v 21.37591 0.009843826 60.04193
v 20.3989 0.009843826 60.04193
v 20.83312 0.009843826 57.65368
v 19.96467 0.009843826 57.65368
v 20.83312 0.009843826 58.95636
v 19.96467 0.009843826 58.95636
v 25.39252 0.009843826 57.00234
v 24.41551 0.009843826 57.00234
v 25.39252 0.009843826 58.19647
v 24.41551 0.009843826 58.19647
v 7.154926 0.009843826 57.00234
v 6.286469 0.009843826 57.00234
v 7.154926 0.009843826 58.19647
v 6.286469 0.009843826 58.19647
v 17.25074 0.009843826 56.67666
v 16.49084 0.009843826 56.67666
v 17.25074 0.009843826 57.87079
v 16.49084 0.009843826 57.87079
v 6.503584 0.009843826 55.80821
v 5.635126 0.009843826 55.80821
v 6.503584 0.009843826 57.00234
v 5.635126 0.009843826 57.00234
v 19.09621 0.009843826 55.69965
v 18.22775 0.009843826 55.69965
v 19.09621 0.009843826 56.89378
v 18.22775 0.009843826 56.89378
v 10.84587 0.009843826 55.48254
v 9.977411 0.009843826 55.48254
v 10.84587 0.009843826 56.78522
v 9.977411 0.009843826 56.78522
v 9.108955 0.009843826 55.15686
v 8.240498 0.009843826 55.15686
v 9.108955 0.009843826 56.35099
v 8.240498 0.009843826 56.35099
v 5.852242 0.009843826 54.50552
v 4.875227 0.009843826 54.50552
v 5.852242 0.009843826 55.69965
v 4.875227 0.009843826 55.69965
v 10.95443 0.009843826 54.17985
v 10.08597 0.009843826 54.17985
v 10.95443 0.009843826 55.37398
v 10.08597 0.009843826 55.37398
v 10.73731 0.009843826 54.17985
v 9.868855 0.009843826 54.17985
v 10.73731 0.009843826 55.37398
v 9.868855 0.009843826 55.37398
v 9.434626 0.009843826 53.96273
v 8.56617 0.009843826 53.96273
v 9.434626 0.009843826 55.15686
v 8.56617 0.009843826 55.15686
v 12.14855 0.009843826 53.63707
v 11.17154 0.009843826 53.63707
v 12.14855 0.009843826 54.93975
v 11.17154 0.009843826 54.93975
v 7.914825 0.009843826 53.41995
v 7.154926 0.009843826 53.41995
v 7.914825 0.009843826 54.50552
v 7.154926 0.009843826 54.50552
v 5.09234 0.009843826 53.3114
v 4.223885 0.009843826 53.3114
v 5.09234 0.009843826 54.61408
v 4.223885 0.009843826 54.61408
vt 0 0.9058824
vt 0.06666667 0.9058824
vt 0 1
vt 0.06666667 1
vt 0 0.9058824
vt 0.06666667 0.9058824
vt 0 1
vt 0.06666667 1
vt 0 0.9058824
vt 0.06666667 0.9058824
vt 0 1
vt 0.06666667 1
vt 0 0.9058824
vt 0.06666667 0.9058824
vt 0 1
vt 0.06666667 1
vt 0 0.9058824
vt 0.06666667 0.9058824
vt 0 1
vt 0.06666667 1
vt 0 0.9058824
vt 0.06666667 0.9058824
vt 0 1
vt 0.06666667 1
vt 0 0.9058824
vt 0.06666667 0.9058824
vt 0 1
vt 0.06666667 1
vt 0 0.9058824
vt 0.06666667 0.9058824
vt 0 1
vt 0.06666667 1
vt 0 0.9058824
vt 0.06666667 0.9058824
vt 0 1
vt 0.06666667 1
vt 0 0.9058824
vt 0.06666667 0.9058824
vt 0 1
vt 0.06666667 1
vt 0 0.9058824
vt 0.06666667 0.9058824
vt 0 1
vt 0.06666667 1
vt 0 0.9058824
vt 0.06666667 0.9058824
vt 0 1
vt 0.06666667 1
vt 0 0.9058824
vt 0.06666667 0.9058824
vt 0 1
vt 0.06666667 1
vt 0 0.9058824
vt 0.06666667 0.9058824
vt 0 1
vt 0.06666667 1
vt 0 0.9058824
vt 0.06666667 0.9058824
vt 0 1
vt 0.06666667 1
vt 0 0.9058824
vt 0.06666667 0.9058824
vt 0 1
vt 0.06666667 1
vt 0 0.9058824
vt 0.06666667 0.9058824
vt 0 1
vt 0.06666667 1
vt 0 0.9058824
vt 0.06666667 0.9058824
vt 0 1
vt 0.06666667 1
vt 0 0.9058824
vt 0.06666667 0.9058824
vt 0 1
vt 0.06666667 1
vt 0 0.9058824
vt 0.06666667 0.9058824
vt 0 1
vt 0.06666667 1
vt 0 0.9058824
vt 0.06666667 0.9058824
vt 0 1
vt 0.06666667 1
vt 0 0.9058824
vt 0.06666667 0.9058824
vt 0 1
vt 0.06666667 1
vt 0 0.9058824
vt 0.06666667 0.9058824
vt 0 1
vt 0.06666667 1
vt 0 0.9058824
vt 0.06666667 0.9058824
vt 0 1
vt 0.06666667 1
vt 0 0.9058824
vt 0.06666667 0.9058824
vt 0 1
vt 0.06666667 1
vt 0 0.9058824
vt 0.06666667 0.9058824
vt 0 1
vt 0.06666667 1
vt 0 0.9058824
vt 0.06666667 0.9058824
vt 0 1
vt 0.06666667 1
vt 0 0.9058824
vt 0.06666667 0.9058824
vt 0 1
vt 0.06666667 1
vt 0 0.9058824
vt 0.06666667 0.9058824
vt 0 1
vt 0.06666667 1
vt 0 0.9058824
vt 0.06666667 0.9058824
vt 0 1
vt 0.06666667 1
vt 0 0.9058824
vt 0.06666667 0.9058824
vt 0 1
vt 0.06666667 1
vn 0 1 0
vn 0 1 0
vn 0 1 0
vn 0 1 0
vn 0 1 0
vn 0 1 0
vn 0 1 0
vn 0 1 0
vn 0 1 0
vn 0 1 0
vn 0 1 0
vn 0 1 0
vn 0 1 0
vn 0 1 0
vn 0 1 0
vn 0 1 0
vn 0 1 0
vn 0 1 0
vn 0 1 0
vn 0 1 0
vn 0 1 0
vn 0 1 0
vn 0 1 0
vn 0 1 0
vn 0 1 0
vn 0 1 0
vn 0 1 0
vn 0 1 0
vn 0 1 0
vn 0 1 0
vn 0 1 0
vn 0 1 0
vn 0 1 0
vn 0 1 0
vn 0 1 0
vn 0 1 0
vn 0 1 0
vn 0 1 0
vn 0 1 0
vn 0 1 0
vn 0 1 0
vn 0 1 0
vn 0 1 0
vn 0 1 0
vn 0 1 0
vn 0 1 0
vn 0 1 0
vn 0 1 0
vn 0 1 0
vn 0 1 0
vn 0 1 0
vn 0 1 0
vn 0 1 0
vn 0 1 0
vn 0 1 0
vn 0 1 0
vn 0 1 0
vn 0 1 0
vn 0 1 0
vn 0 1 0
vn 0 1 0
vn 0 1 0
vn 0 1 0
vn 0 1 0
vn 0 1 0
vn 0 1 0
vn 0 1 0
vn 0 1 0
vn 0 1 0
vn 0 1 0
vn 0 1 0
vn 0 1 0
vn 0 1 0
vn 0 1 0
vn 0 1 0
vn 0 1 0
vn 0 1 0
vn 0 1 0
vn 0 1 0
vn 0 1 0
vn 0 1 0
vn 0 1 0
vn 0 1 0
vn 0 1 0
vn 0 1 0
vn 0 1 0
vn 0 1 0
vn 0 1 0
vn 0 1 0
vn 0 1 0
vn 0 1 0
vn 0 1 0
vn 0 1 0
vn 0 1 0
vn 0 1 0
vn 0 1 0
vn 0 1 0
vn 0 1 0
vn 0 1 0
vn 0 1 0
vn 0 1 0
vn 0 1 0
vn 0 1 0
vn 0 1 0
vn 0 1 0
vn 0 1 0
vn 0 1 0
vn 0 1 0
vn 0 1 0
vn 0 1 0
vn 0 1 0
vn 0 1 0
vn 0 1 0
vn 0 1 0
vn 0 1 0
vn 0 1 0
vn 0 1 0
vn 0 1 0
vn 0 1 0
vn 0 1 0
vn 0 1 0
vn 0 1 0
vn 0 1 0
vn 0 1 0
g Grass_0_Cluster69_0
f 2/2/2 3/3/3 1/1/1
f 2/2/2 4/4/4 3/3/3
f 6/6/6 7/7/7 5/5/5
f 6/6/6 8/8/8 7/7/7
f 10/10/10 11/11/11 9/9/9
f 10/10/10 12/12/12 11/11/11
f 14/14/14 15/15/15 13/13/13
f 14/14/14 16/16/16 15/15/15
f 18/18/18 19/19/19 17/17/17
f 18/18/18 20/20/20 19/19/19
f 22/22/22 23/23/23 21/21/21
f 22/22/22 24/24/24 23/23/23
f 26/26/26 27/27/27 25/25/25
f 26/26/26 28/28/28 27/27/27
f 30/30/30 31/31/31 29/29/29
f 30/30/30 32/32/32 31/31/31
f 34/34/34 35/35/35 33/33/33
f 34/34/34 36/36/36 35/35/35
f 38/38/38 39/39/39 37/37/37
f 38/38/38 40/40/40 39/39/39
f 42/42/42 43/43/43 41/41/41
f 42/42/42 44/44/44 43/43/43
f 46/46/46 47/47/47 45/45/45
f 46/46/46 48/48/48 47/47/47
f 50/50/50 51/51/51 49/49/49
f 50/50/50 52/52/52 51/51/51
f 54/54/54 55/55/55 53/53/53
f 54/54/54 56/56/56 55/55/55
f 58/58/58 59/59/59 57/57/57
f 58/58/58 60/60/60 59/59/59
f 62/62/62 63/63/63 61/61/61
f 62/62/62 64/64/64 63/63/63
f 66/66/66 67/67/67 65/65/65
f 66/66/66 68/68/68 67/67/67
f 70/70/70 71/71/71 69/69/69
f 70/70/70 72/72/72 71/71/71
f 74/74/74 75/75/75 73/73/73
f 74/74/74 76/76/76 75/75/75
f 78/78/78 79/79/79 77/77/77
f 78/78/78 80/80/80 79/79/79
f 82/82/82 83/83/83 81/81/81
f 82/82/82 84/84/84 83/83/83
f 86/86/86 87/87/87 85/85/85
f 86/86/86 88/88/88 87/87/87
f 90/90/90 91/91/91 89/89/89
f 90/90/90 92/92/92 91/91/91
f 94/94/94 95/95/95 93/93/93
f 94/94/94 96/96/96 95/95/95
f 98/98/98 99/99/99 97/97/97
f 98/98/98 100/100/100 99/99/99
f 102/102/102 103/103/103 101/101/101
f 102/102/102 104/104/104 103/103/103
f 106/106/106 107/107/107 105/105/105
f 106/106/106 108/108/108 107/107/107
f 110/110/110 111/111/111 109/109/109
f 110/110/110 112/112/112 111/111/111
f 114/114/114 115/115/115 113/113/113
f 114/114/114 116/116/116 115/115/115
f 118/118/118 119/119/119 117/117/117
f 118/118/118 120/120/120 119/119/119
f 122/122/122 123/123/123 121/121/121
f 122/122/122 124/124/124 123/123/123
