g Grass_2_Cluster108
v 54.41585 -0.0878067 143.0154
v 53.23481 -0.0878067 143.0154
v 54.41585 -0.0878067 144.1965
v 53.23481 -0.0878067 144.1965
v 56.97478 -0.0878067 143.0154
v 55.99057 -0.0878067 143.0154
v 56.97478 -0.0878067 143.9996
v 55.99057 -0.0878067 143.9996
v 51.85692 -0.0878067 142.8186
v 51.06956 -0.0878067 142.8186
v 51.85692 -0.0878067 143.8028
v 51.06956 -0.0878067 143.8028
v 52.84112 -0.0878067 142.6217
v 51.85692 -0.0878067 142.6217
v 52.84112 -0.0878067 143.8028
v 51.85692 -0.0878067 143.8028
v 55.79374 -0.0878067 142.4249
v 55.00637 -0.0878067 142.4249
v 55.79374 -0.0878067 143.4091
v 55.00637 -0.0878067 143.4091
v 53.62849 -0.0878067 142.4249
v 52.64428 -0.0878067 142.4249
v 53.62849 -0.0878067 143.4091
v 52.64428 -0.0878067 143.4091
v 52.64428 -0.0878067 142.0312
v 51.66008 -0.0878067 142.0312
v 52.64428 -0.0878067 143.0154
v 51.66008 -0.0878067 143.0154
v 54.61269 -0.0878067 141.4407
v 53.62849 -0.0878067 141.4407
v 54.61269 -0.0878067 142.6217
v 53.62849 -0.0878067 142.6217
v 55.79374 -0.0878067 141.2439
v 54.61269 -0.0878067 141.2439
v 55.79374 -0.0878067 142.4249
v 54.61269 -0.0878067 142.4249
v 53.62849 -0.0878067 140.6533
v 52.84112 -0.0878067 140.6533
v 53.62849 -0.0878067 141.6375
v 52.84112 -0.0878067 141.6375
v 56.18742 -0.0878067 140.4565
v 55.20321 -0.0878067 140.4565
v 56.18742 -0.0878067 141.4407
v 55.20321 -0.0878067 141.4407
v 55.40005 -0.0878067 139.4723
v 54.41585 -0.0878067 139.4723
v 55.40005 -0.0878067 140.6533
v 54.41585 -0.0878067 140.6533
v 57.17162 -0.0878067 138.8818
v 56.18742 -0.0878067 138.8818
v 57.17162 -0.0878067 139.866
v 56.18742 -0.0878067 139.866
v 47.9201 -0.0878067 127.8587
v 46.9359 -0.0878067 127.8587
v 47.9201 -0.0878067 128.8429
v 46.9359 -0.0878067 128.8429
v 35.91282 -0.0878067 126.0871
v 34.92862 -0.0878067 126.0871
v 35.91282 -0.0878067 127.2682
v 34.92862 -0.0878067 127.2682
v 41.03068 -0.0878067 125.4966
v 40.04648 -0.0878067 125.4966
v 41.03068 -0.0878067 126.6776
v 40.04648 -0.0878067 126.6776
v 37.68439 -0.0878067 124.5124
v 36.70018 -0.0878067 124.5124
v 37.68439 -0.0878067 125.4966
v 36.70018 -0.0878067 125.4966
v 37.2907 -0.0878067 123.9219
v 36.3065 -0.0878067 123.9219
v 37.2907 -0.0878067 124.9061
v 36.3065 -0.0878067 124.9061
v 34.92862 -0.0878067 123.1345
v 33.74757 -0.0878067 123.1345
v 34.92862 -0.0878067 124.3155
v 33.74757 -0.0878067 124.3155
v 34.92862 -0.0878067 122.1503
v 33.94441 -0.0878067 122.1503
v 34.92862 -0.0878067 123.1345
v 33.94441 -0.0878067 123.1345
v 36.10966 -0.0878067 121.3629
v 35.3223 -0.0878067 121.3629
v 36.10966 -0.0878067 122.544
v 35.3223 -0.0878067 122.544
v 33.35389 -0.0878067 121.3629
v 32.36969 -0.0878067 121.3629
v 33.35389 -0.0878067 122.544
v 32.36969 -0.0878067 122.544
v 35.3223 -0.0878067 120.3787
v 34.3381 -0.0878067 120.3787
v 35.3223 -0.0878067 121.3629
v 34.3381 -0.0878067 121.3629
v 36.70018 -0.0878067 119.985
v 35.71598 -0.0878067 119.985
v 36.70018 -0.0878067 121.1661
v 35.71598 -0.0878067 121.1661
v 38.07807 -0.0878067 119.5914
v 37.09386 -0.0878067 119.5914
v 38.07807 -0.0878067 120.5756
v 37.09386 -0.0878067 120.5756
v 34.3381 -0.0878067 119.1977
v 33.55073 -0.0878067 119.1977
v 34.3381 -0.0878067 120.1819
v 33.55073 -0.0878067 120.1819
v 36.89703 -0.0878067 119.1977
v 35.91282 -0.0878067 119.1977
v 36.89703 -0.0878067 120.1819
v 35.91282 -0.0878067 120.1819
v 36.10966 -0.0878067 118.804
v 35.12546 -0.0878067 118.804
v 36.10966 -0.0878067 119.985
v 35.12546 -0.0878067 119.985
v 34.73177 -0.0878067 118.4103
v 33.74757 -0.0878067 118.4103
v 34.73177 -0.0878067 119.3945
v 33.74757 -0.0878067 119.3945
v 35.51914 -0.0878067 116.0482
v 34.53493 -0.0878067 116.0482
v 35.51914 -0.0878067 117.2293
v 34.53493 -0.0878067 117.2293
v 32.56653 -0.0878067 114.0798
v 31.58232 -0.0878067 114.0798
v 32.56653 -0.0878067 115.2609
v 31.58232 -0.0878067 115.2609
vt 0.1347656 0.9185662
vt 0.2060202 0.9185662
vt 0.1347656 1
vt 0.2060202 1
vt 0.1347656 0.9185662
vt 0.2060202 0.9185662
vt 0.1347656 1
vt 0.2060202 1
vt 0.1347656 0.9185662
vt 0.2060202 0.9185662
vt 0.1347656 1
vt 0.2060202 1
vt 0.1347656 0.9185662
vt 0.2060202 0.9185662
vt 0.1347656 1
vt 0.2060202 1
vt 0.1347656 0.9185662
vt 0.2060202 0.9185662
vt 0.1347656 1
vt 0.2060202 1
vt 0.1347656 0.9185662
vt 0.2060202 0.9185662
vt 0.1347656 1
vt 0.2060202 1
vt 0.1347656 0.9185662
vt 0.2060202 0.9185662
vt 0.1347656 1
vt 0.2060202 1
vt 0.1347656 0.9185662
vt 0.2060202 0.9185662
vt 0.1347656 1
vt 0.2060202 1
vt 0.1347656 0.9185662
vt 0.2060202 0.9185662
vt 0.1347656 1
vt 0.2060202 1
vt 0.1347656 0.9185662
vt 0.2060202 0.9185662
vt 0.1347656 1
vt 0.2060202 1
vt 0.1347656 0.9185662
vt 0.2060202 0.9185662
vt 0.1347656 1
vt 0.2060202 1
vt 0.1347656 0.9185662
vt 0.2060202 0.9185662
vt 0.1347656 1
vt 0.2060202 1
vt 0.1347656 0.9185662
vt 0.2060202 0.9185662
vt 0.1347656 1
vt 0.2060202 1
vt 0.1347656 0.9185662
vt 0.2060202 0.9185662
vt 0.1347656 1
vt 0.2060202 1
vt 0.1347656 0.9185662
vt 0.2060202 0.9185662
vt 0.1347656 1
vt 0.2060202 1
vt 0.1347656 0.9185662
vt 0.2060202 0.9185662
vt 0.1347656 1
vt 0.2060202 1
vt 0.1347656 0.9185662
vt 0.2060202 0.9185662
vt 0.1347656 1
vt 0.2060202 1
vt 0.1347656 0.9185662
vt 0.2060202 0.9185662
vt 0.1347656 1
vt 0.2060202 1
vt 0.1347656 0.9185662
vt 0.2060202 0.9185662
vt 0.1347656 1
vt 0.2060202 1
vt 0.1347656 0.9185662
vt 0.2060202 0.9185662
vt 0.1347656 1
vt 0.2060202 1
vt 0.1347656 0.9185662
vt 0.2060202 0.9185662
vt 0.1347656 1
vt 0.2060202 1
vt 0.1347656 0.9185662
vt 0.2060202 0.9185662
vt 0.1347656 1
vt 0.2060202 1
vt 0.1347656 0.9185662
vt 0.2060202 0.9185662
vt 0.1347656 1
vt 0.2060202 1
vt 0.1347656 0.9185662
vt 0.2060202 0.9185662
vt 0.1347656 1
vt 0.2060202 1
vt 0.1347656 0.9185662
vt 0.2060202 0.9185662
vt 0.1347656 1
vt 0.2060202 1
vt 0.1347656 0.9185662
vt 0.2060202 0.9185662
vt 0.1347656 1
vt 0.2060202 1
vt 0.1347656 0.9185662
vt 0.2060202 0.9185662
vt 0.1347656 1
vt 0.2060202 1
vt 0.1347656 0.9185662
vt 0.2060202 0.9185662
vt 0.1347656 1
vt 0.2060202 1
vt 0.1347656 0.9185662
vt 0.2060202 0.9185662
vt 0.1347656 1
vt 0.2060202 1
vt 0.1347656 0.9185662
vt 0.2060202 0.9185662
vt 0.1347656 1
vt 0.2060202 1
vt 0.1347656 0.9185662
vt 0.2060202 0.9185662
vt 0.1347656 1
vt 0.2060202 1
vn 0 1 0
vn 0 1 0
vn 0 1 0
vn 0 1 0
vn 0 1 0
vn 0 1 0
vn 0 1 0
vn 0 1 0
vn 0 1 0
vn 0 1 0
vn 0 1 0
vn 0 1 0
vn 0 1 0
vn 0 1 0
vn 0 1 0
vn 0 1 0
vn 0 1 0
vn 0 1 0
vn 0 1 0
vn 0 1 0
vn 0 1 0
vn 0 1 0
vn 0 1 0
vn 0 1 0
vn 0 1 0
vn 0 1 0
vn 0 1 0
vn 0 1 0
vn 0 1 0
vn 0 1 0
vn 0 1 0
vn 0 1 0
vn 0 1 0
vn 0 1 0
vn 0 1 0
vn 0 1 0
vn 0 1 0
vn 0 1 0
vn 0 1 0
vn 0 1 0
vn 0 1 0
vn 0 1 0
vn 0 1 0
vn 0 1 0
vn 0 1 0
vn 0 1 0
vn 0 1 0
vn 0 1 0
vn 0 1 0
vn 0 1 0
vn 0 1 0
vn 0 1 0
vn 0 1 0
vn 0 1 0
vn 0 1 0
vn 0 1 0
vn 0 1 0
vn 0 1 0
vn 0 1 0
vn 0 1 0
vn 0 1 0
vn 0 1 0
vn 0 1 0
vn 0 1 0
vn 0 1 0
vn 0 1 0
vn 0 1 0
vn 0 1 0
vn 0 1 0
vn 0 1 0
vn 0 1 0
vn 0 1 0
vn 0 1 0
vn 0 1 0
vn 0 1 0
vn 0 1 0
vn 0 1 0
vn 0 1 0
vn 0 1 0
vn 0 1 0
vn 0 1 0
vn 0 1 0
vn 0 1 0
vn 0 1 0
vn 0 1 0
vn 0 1 0
vn 0 1 0
vn 0 1 0
vn 0 1 0
vn 0 1 0
vn 0 1 0
vn 0 1 0
vn 0 1 0
vn 0 1 0
vn 0 1 0
vn 0 1 0
vn 0 1 0
vn 0 1 0
vn 0 1 0
vn 0 1 0
vn 0 1 0
vn 0 1 0
vn 0 1 0
vn 0 1 0
vn 0 1 0
vn 0 1 0
vn 0 1 0
vn 0 1 0
vn 0 1 0
vn 0 1 0
vn 0 1 0
vn 0 1 0
vn 0 1 0
vn 0 1 0
vn 0 1 0
vn 0 1 0
vn 0 1 0
vn 0 1 0
vn 0 1 0
vn 0 1 0
vn 0 1 0
vn 0 1 0
vn 0 1 0
vn 0 1 0
g Grass_2_Cluster108_0
f 2/2/2 3/3/3 1/1/1
f 2/2/2 4/4/4 3/3/3
f 6/6/6 7/7/7 5/5/5
f 6/6/6 8/8/8 7/7/7
f 10/10/10 11/11/11 9/9/9
f 10/10/10 12/12/12 11/11/11
f 14/14/14 15/15/15 13/13/13
f 14/14/14 16/16/16 15/15/15
f 18/18/18 19/19/19 17/17/17
f 18/18/18 20/20/20 19/19/19
f 22/22/22 23/23/23 21/21/21
f 22/22/22 24/24/24 23/23/23
f 26/26/26 27/27/27 25/25/25
f 26/26/26 28/28/28 27/27/27
f 30/30/30 31/31/31 29/29/29
f 30/30/30 32/32/32 31/31/31
f 34/34/34 35/35/35 33/33/33
f 34/34/34 36/36/36 35/35/35
f 38/38/38 39/39/39 37/37/37
f 38/38/38 40/40/40 39/39/39
f 42/42/42 43/43/43 41/41/41
f 42/42/42 44/44/44 43/43/43
f 46/46/46 47/47/47 45/45/45
f 46/46/46 48/48/48 47/47/47
f 50/50/50 51/51/51 49/49/49
f 50/50/50 52/52/52 51/51/51
f 54/54/54 55/55/55 53/53/53
f 54/54/54 56/56/56 55/55/55
f 58/58/58 59/59/59 57/57/57
f 58/58/58 60/60/60 59/59/59
f 62/62/62 63/63/63 61/61/61
f 62/62/62 64/64/64 63/63/63
f 66/66/66 67/67/67 65/65/65
f 66/66/66 68/68/68 67/67/67
f 70/70/70 71/71/71 69/69/69
f 70/70/70 72/72/72 71/71/71
f 74/74/74 75/75/75 73/73/73
f 74/74/74 76/76/76 75/75/75
f 78/78/78 79/79/79 77/77/77
f 78/78/78 80/80/80 79/79/79
f 82/82/82 83/83/83 81/81/81
f 82/82/82 84/84/84 83/83/83
f 86/86/86 87/87/87 85/85/85
f 86/86/86 88/88/88 87/87/87
f 90/90/90 91/91/91 89/89/89
f 90/90/90 92/92/92 91/91/91
f 94/94/94 95/95/95 93/93/93
f 94/94/94 96/96/96 95/95/95
f 98/98/98 99/99/99 97/97/97
f 98/98/98 100/100/100 99/99/99
f 102/102/102 103/103/103 101/101/101
f 102/102/102 104/104/104 103/103/103
f 106/106/106 107/107/107 105/105/105
f 106/106/106 108/108/108 107/107/107
f 110/110/110 111/111/111 109/109/109
f 110/110/110 112/112/112 111/111/111
f 114/114/114 115/115/115 113/113/113
f 114/114/114 116/116/116 115/115/115
f 118/118/118 119/119/119 117/117/117
f 118/118/118 120/120/120 119/119/119
f 122/122/122 123/123/123 121/121/121
f 122/122/122 124/124/124 123/123/123
