g Grass_1_Cluster325
v 127.3915 -0.1031952 467.0208
v 126.791 -0.1031952 467.0208
v 127.3915 -0.1031952 467.6212
v 126.791 -0.1031952 467.6212
v 126.791 -0.1031952 463.4182
v 125.5902 -0.1031952 463.4182
v 126.791 -0.1031952 464.0187
v 125.5902 -0.1031952 464.0187
v 124.3894 -0.1031952 462.2174
v 123.1885 -0.1031952 462.2174
v 124.3894 -0.1031952 462.8178
v 123.1885 -0.1031952 462.8178
v 126.1906 -0.1031952 461.617
v 124.9898 -0.1031952 461.617
v 126.1906 -0.1031952 462.2174
v 124.9898 -0.1031952 462.2174
v 121.9877 -0.1031952 460.4161
v 121.3873 -0.1031952 460.4161
v 121.9877 -0.1031952 461.0165
v 121.3873 -0.1031952 461.0165
v 124.9898 -0.1031952 459.8157
v 124.3894 -0.1031952 459.8157
v 124.9898 -0.1031952 460.4161
v 124.3894 -0.1031952 460.4161
v 124.3894 -0.1031952 459.2153
v 123.789 -0.1031952 459.2153
v 124.3894 -0.1031952 460.4161
v 123.789 -0.1031952 460.4161
v 136.9981 -0.1031952 458.6149
v 136.3977 -0.1031952 458.6149
v 136.9981 -0.1031952 459.8157
v 136.3977 -0.1031952 459.8157
v 123.1885 -0.1031952 458.6149
v 122.5881 -0.1031952 458.6149
v 123.1885 -0.1031952 459.2153
v 122.5881 -0.1031952 459.2153
v 129.7931 -0.1031952 458.0145
v 128.5923 -0.1031952 458.0145
v 129.7931 -0.1031952 459.2153
v 128.5923 -0.1031952 459.2153
v 121.9877 -0.1031952 458.0145
v 120.7869 -0.1031952 458.0145
v 121.9877 -0.1031952 458.6149
v 120.7869 -0.1031952 458.6149
v 126.1906 -0.1031952 457.4141
v 124.9898 -0.1031952 457.4141
v 126.1906 -0.1031952 458.6149
v 124.9898 -0.1031952 458.6149
v 146.6048 -0.1031952 443.6045
v 145.4039 -0.1031952 443.6045
v 146.6048 -0.1031952 444.8053
v 145.4039 -0.1031952 444.8053
vt 0.06738281 0.9369141
vt 0.1331457 0.9369141
vt 0.06738281 0.9990234
vt 0.1331457 0.9990234
vt 0.06738281 0.9369141
vt 0.1331457 0.9369141
vt 0.06738281 0.9990234
vt 0.1331457 0.9990234
vt 0.06738281 0.9369141
vt 0.1331457 0.9369141
vt 0.06738281 0.9990234
vt 0.1331457 0.9990234
vt 0.06738281 0.9369141
vt 0.1331457 0.9369141
vt 0.06738281 0.9990234
vt 0.1331457 0.9990234
vt 0.06738281 0.9369141
vt 0.1331457 0.9369141
vt 0.06738281 0.9990234
vt 0.1331457 0.9990234
vt 0.06738281 0.9369141
vt 0.1331457 0.9369141
vt 0.06738281 0.9990234
vt 0.1331457 0.9990234
vt 0.06738281 0.9369141
vt 0.1331457 0.9369141
vt 0.06738281 0.9990234
vt 0.1331457 0.9990234
vt 0.06738281 0.9369141
vt 0.1331457 0.9369141
vt 0.06738281 0.9990234
vt 0.1331457 0.9990234
vt 0.06738281 0.9369141
vt 0.1331457 0.9369141
vt 0.06738281 0.9990234
vt 0.1331457 0.9990234
vt 0.06738281 0.9369141
vt 0.1331457 0.9369141
vt 0.06738281 0.9990234
vt 0.1331457 0.9990234
vt 0.06738281 0.9369141
vt 0.1331457 0.9369141
vt 0.06738281 0.9990234
vt 0.1331457 0.9990234
vt 0.06738281 0.9369141
vt 0.1331457 0.9369141
vt 0.06738281 0.9990234
vt 0.1331457 0.9990234
vt 0.06738281 0.9369141
vt 0.1331457 0.9369141
vt 0.06738281 0.9990234
vt 0.1331457 0.9990234
vn 0 1 0
vn 0 1 0
vn 0 1 0
vn 0 1 0
vn 0 1 0
vn 0 1 0
vn 0 1 0
vn 0 1 0
vn 0 1 0
vn 0 1 0
vn 0 1 0
vn 0 1 0
vn 0 1 0
vn 0 1 0
vn 0 1 0
vn 0 1 0
vn 0 1 0
vn 0 1 0
vn 0 1 0
vn 0 1 0
vn 0 1 0
vn 0 1 0
vn 0 1 0
vn 0 1 0
vn 0 1 0
vn 0 1 0
vn 0 1 0
vn 0 1 0
vn 0 1 0
vn 0 1 0
vn 0 1 0
vn 0 1 0
vn 0 1 0
vn 0 1 0
vn 0 1 0
vn 0 1 0
vn 0 1 0
vn 0 1 0
vn 0 1 0
vn 0 1 0
vn 0 1 0
vn 0 1 0
vn 0 1 0
vn 0 1 0
vn 0 1 0
vn 0 1 0
vn 0 1 0
vn 0 1 0
vn 0 1 0
vn 0 1 0
vn 0 1 0
vn 0 1 0
g Grass_1_Cluster325_0
f 2/2/2 3/3/3 1/1/1
f 2/2/2 4/4/4 3/3/3
f 6/6/6 7/7/7 5/5/5
f 6/6/6 8/8/8 7/7/7
f 10/10/10 11/11/11 9/9/9
f 10/10/10 12/12/12 11/11/11
f 14/14/14 15/15/15 13/13/13
f 14/14/14 16/16/16 15/15/15
f 18/18/18 19/19/19 17/17/17
f 18/18/18 20/20/20 19/19/19
f 22/22/22 23/23/23 21/21/21
f 22/22/22 24/24/24 23/23/23
f 26/26/26 27/27/27 25/25/25
f 26/26/26 28/28/28 27/27/27
f 30/30/30 31/31/31 29/29/29
f 30/30/30 32/32/32 31/31/31
f 34/34/34 35/35/35 33/33/33
f 34/34/34 36/36/36 35/35/35
f 38/38/38 39/39/39 37/37/37
f 38/38/38 40/40/40 39/39/39
f 42/42/42 43/43/43 41/41/41
f 42/42/42 44/44/44 43/43/43
f 46/46/46 47/47/47 45/45/45
f 46/46/46 48/48/48 47/47/47
f 50/50/50 51/51/51 49/49/49
f 50/50/50 52/52/52 51/51/51
