g Grass_1_Cluster327
v 63.95321 0.2148819 470.7809
v 62.85632 0.2148819 470.7809
v 63.95321 0.2148819 471.3293
v 62.85632 0.2148819 471.3293
v 62.30787 0.2148819 469.1355
v 61.21098 0.2148819 469.1355
v 62.30787 0.2148819 470.2324
v 61.21098 0.2148819 470.2324
v 66.14699 0.2148819 468.5871
v 65.05009 0.2148819 468.5871
v 66.14699 0.2148819 469.1355
v 65.05009 0.2148819 469.1355
v 88.63324 0.2148819 452.6822
v 87.53635 0.2148819 452.6822
v 88.63324 0.2148819 453.2306
v 87.53635 0.2148819 453.2306
v 60.66254 0.2148819 451.5853
v 60.11409 0.2148819 451.5853
v 60.66254 0.2148819 452.6822
v 60.11409 0.2148819 452.6822
v 87.53635 0.2148819 451.5853
v 86.98791 0.2148819 451.5853
v 87.53635 0.2148819 452.1337
v 86.98791 0.2148819 452.1337
v 61.75943 0.2148819 451.0368
v 60.66254 0.2148819 451.0368
v 61.75943 0.2148819 451.5853
v 60.66254 0.2148819 451.5853
v 89.18169 0.2148819 448.843
v 88.0848 0.2148819 448.843
v 89.18169 0.2148819 449.9399
v 88.0848 0.2148819 449.9399
v 62.30787 0.2148819 448.843
v 61.21098 0.2148819 448.843
v 62.30787 0.2148819 449.3915
v 61.21098 0.2148819 449.3915
v 89.73013 0.2148819 448.2946
v 88.63324 0.2148819 448.2946
v 89.73013 0.2148819 448.843
v 88.63324 0.2148819 448.843
v 89.73013 0.2148819 447.7462
v 88.63324 0.2148819 447.7462
v 89.73013 0.2148819 448.2946
v 88.63324 0.2148819 448.2946
v 61.21098 0.2148819 447.7462
v 60.11409 0.2148819 447.7462
v 61.21098 0.2148819 448.2946
v 60.11409 0.2148819 448.2946
v 88.63324 0.2148819 447.7462
v 87.53635 0.2148819 447.7462
v 88.63324 0.2148819 448.2946
v 87.53635 0.2148819 448.2946
v 86.43946 0.2148819 447.1977
v 85.34258 0.2148819 447.1977
v 86.43946 0.2148819 447.7462
v 85.34258 0.2148819 447.7462
v 87.53635 0.2148819 445.5524
v 86.98791 0.2148819 445.5524
v 87.53635 0.2148819 446.1008
v 86.98791 0.2148819 446.1008
v 85.89101 0.2148819 443.907
v 84.79413 0.2148819 443.907
v 85.89101 0.2148819 445.0039
v 84.79413 0.2148819 445.0039
v 86.98791 0.2148819 443.3586
v 85.89101 0.2148819 443.3586
v 86.98791 0.2148819 444.4555
v 85.89101 0.2148819 444.4555
vt 0.06738281 0.9369141
vt 0.1331457 0.9369141
vt 0.06738281 0.9990234
vt 0.1331457 0.9990234
vt 0.06738281 0.9369141
vt 0.1331457 0.9369141
vt 0.06738281 0.9990234
vt 0.1331457 0.9990234
vt 0.06738281 0.9369141
vt 0.1331457 0.9369141
vt 0.06738281 0.9990234
vt 0.1331457 0.9990234
vt 0.06738281 0.9369141
vt 0.1331457 0.9369141
vt 0.06738281 0.9990234
vt 0.1331457 0.9990234
vt 0.06738281 0.9369141
vt 0.1331457 0.9369141
vt 0.06738281 0.9990234
vt 0.1331457 0.9990234
vt 0.06738281 0.9369141
vt 0.1331457 0.9369141
vt 0.06738281 0.9990234
vt 0.1331457 0.9990234
vt 0.06738281 0.9369141
vt 0.1331457 0.9369141
vt 0.06738281 0.9990234
vt 0.1331457 0.9990234
vt 0.06738281 0.9369141
vt 0.1331457 0.9369141
vt 0.06738281 0.9990234
vt 0.1331457 0.9990234
vt 0.06738281 0.9369141
vt 0.1331457 0.9369141
vt 0.06738281 0.9990234
vt 0.1331457 0.9990234
vt 0.06738281 0.9369141
vt 0.1331457 0.9369141
vt 0.06738281 0.9990234
vt 0.1331457 0.9990234
vt 0.06738281 0.9369141
vt 0.1331457 0.9369141
vt 0.06738281 0.9990234
vt 0.1331457 0.9990234
vt 0.06738281 0.9369141
vt 0.1331457 0.9369141
vt 0.06738281 0.9990234
vt 0.1331457 0.9990234
vt 0.06738281 0.9369141
vt 0.1331457 0.9369141
vt 0.06738281 0.9990234
vt 0.1331457 0.9990234
vt 0.06738281 0.9369141
vt 0.1331457 0.9369141
vt 0.06738281 0.9990234
vt 0.1331457 0.9990234
vt 0.06738281 0.9369141
vt 0.1331457 0.9369141
vt 0.06738281 0.9990234
vt 0.1331457 0.9990234
vt 0.06738281 0.9369141
vt 0.1331457 0.9369141
vt 0.06738281 0.9990234
vt 0.1331457 0.9990234
vt 0.06738281 0.9369141
vt 0.1331457 0.9369141
vt 0.06738281 0.9990234
vt 0.1331457 0.9990234
vn 0 1 0
vn 0 1 0
vn 0 1 0
vn 0 1 0
vn 0 1 0
vn 0 1 0
vn 0 1 0
vn 0 1 0
vn 0 1 0
vn 0 1 0
vn 0 1 0
vn 0 1 0
vn 0 1 0
vn 0 1 0
vn 0 1 0
vn 0 1 0
vn 0 1 0
vn 0 1 0
vn 0 1 0
vn 0 1 0
vn 0 1 0
vn 0 1 0
vn 0 1 0
vn 0 1 0
vn 0 1 0
vn 0 1 0
vn 0 1 0
vn 0 1 0
vn 0 1 0
vn 0 1 0
vn 0 1 0
vn 0 1 0
vn 0 1 0
vn 0 1 0
vn 0 1 0
vn 0 1 0
vn 0 1 0
vn 0 1 0
vn 0 1 0
vn 0 1 0
vn 0 1 0
vn 0 1 0
vn 0 1 0
vn 0 1 0
vn 0 1 0
vn 0 1 0
vn 0 1 0
vn 0 1 0
vn 0 1 0
vn 0 1 0
vn 0 1 0
vn 0 1 0
vn 0 1 0
vn 0 1 0
vn 0 1 0
vn 0 1 0
vn 0 1 0
vn 0 1 0
vn 0 1 0
vn 0 1 0
vn 0 1 0
vn 0 1 0
vn 0 1 0
vn 0 1 0
vn 0 1 0
vn 0 1 0
vn 0 1 0
vn 0 1 0
g Grass_1_Cluster327_0
f 2/2/2 3/3/3 1/1/1
f 2/2/2 4/4/4 3/3/3
f 6/6/6 7/7/7 5/5/5
f 6/6/6 8/8/8 7/7/7
f 10/10/10 11/11/11 9/9/9
f 10/10/10 12/12/12 11/11/11
f 14/14/14 15/15/15 13/13/13
f 14/14/14 16/16/16 15/15/15
f 18/18/18 19/19/19 17/17/17
f 18/18/18 20/20/20 19/19/19
f 22/22/22 23/23/23 21/21/21
f 22/22/22 24/24/24 23/23/23
f 26/26/26 27/27/27 25/25/25
f 26/26/26 28/28/28 27/27/27
f 30/30/30 31/31/31 29/29/29
f 30/30/30 32/32/32 31/31/31
f 34/34/34 35/35/35 33/33/33
f 34/34/34 36/36/36 35/35/35
f 38/38/38 39/39/39 37/37/37
f 38/38/38 40/40/40 39/39/39
f 42/42/42 43/43/43 41/41/41
f 42/42/42 44/44/44 43/43/43
f 46/46/46 47/47/47 45/45/45
f 46/46/46 48/48/48 47/47/47
f 50/50/50 51/51/51 49/49/49
f 50/50/50 52/52/52 51/51/51
f 54/54/54 55/55/55 53/53/53
f 54/54/54 56/56/56 55/55/55
f 58/58/58 59/59/59 57/57/57
f 58/58/58 60/60/60 59/59/59
f 62/62/62 63/63/63 61/61/61
f 62/62/62 64/64/64 63/63/63
f 66/66/66 67/67/67 65/65/65
f 66/66/66 68/68/68 67/67/67
