g Grass_2_Cluster73
v -114.4552 0 82.25021
v -115.382 0 82.25021
v -114.4552 0 83.40867
v -115.382 0 83.40867
v -114.5711 0 73.21427
v -115.4978 0 73.21427
v -114.5711 0 74.25688
v -115.4978 0 74.25688
v -113.4126 0 72.98258
v -114.3394 0 72.98258
v -113.4126 0 74.02519
v -114.3394 0 74.02519
v -113.1809 0 72.75089
v -113.9918 0 72.75089
v -113.1809 0 73.7935
v -113.9918 0 73.7935
v -115.2661 0 72.40336
v -116.0771 0 72.40336
v -115.2661 0 73.44597
v -116.0771 0 73.44597
v -115.8454 0 72.05582
v -116.6563 0 72.05582
v -115.8454 0 73.09843
v -116.6563 0 73.09843
v -113.7602 0 71.70828
v -114.6869 0 71.70828
v -113.7602 0 72.86674
v -114.6869 0 72.86674
v -115.382 0 71.01321
v -116.3088 0 71.01321
v -115.382 0 72.17167
v -116.3088 0 72.17167
v -113.876 0 70.89737
v -114.8028 0 70.89737
v -113.876 0 71.93997
v -114.8028 0 71.93997
v -116.888 0 70.89737
v -117.8147 0 70.89737
v -116.888 0 71.93997
v -117.8147 0 71.93997
v -114.8028 0 70.43398
v -115.7295 0 70.43398
v -114.8028 0 71.47659
v -115.7295 0 71.47659
v -115.7295 0 68.81215
v -116.6563 0 68.81215
v -115.7295 0 69.85476
v -116.6563 0 69.85476
v -115.9612 0 67.422
v -117.0038 0 67.422
v -115.9612 0 68.58046
v -117.0038 0 68.58046
v -114.5711 0 60.23959
v -115.4978 0 60.23959
v -114.5711 0 61.39805
v -115.4978 0 61.39805
v -115.382 0 59.54452
v -116.3088 0 59.54452
v -115.382 0 60.58713
v -116.3088 0 60.58713
v -113.5285 0 59.54452
v -114.4552 0 59.54452
v -113.5285 0 60.70298
v -114.4552 0 60.70298
v -115.7295 0 59.08114
v -116.7721 0 59.08114
v -115.7295 0 60.23959
v -116.7721 0 60.23959
v -114.4552 0 58.7336
v -115.382 0 58.7336
v -114.4552 0 59.77621
v -115.382 0 59.77621
v -112.9492 0 58.50191
v -113.7602 0 58.50191
v -112.9492 0 59.54452
v -113.7602 0 59.54452
v -115.0345 0 58.27022
v -115.9612 0 58.27022
v -115.0345 0 59.42868
v -115.9612 0 59.42868
v -117.3514 0 58.03853
v -118.394 0 58.03853
v -117.3514 0 59.08114
v -118.394 0 59.08114
v -116.6563 0 57.92269
v -117.5831 0 57.92269
v -116.6563 0 58.84945
v -117.5831 0 58.84945
v -115.9612 0 57.34346
v -116.888 0 57.34346
v -115.9612 0 58.50191
v -116.888 0 58.50191
v -113.2968 0 56.88008
v -114.2235 0 56.88008
v -113.2968 0 58.03853
v -114.2235 0 58.03853
v -113.0651 0 56.53254
v -113.9918 0 56.53254
v -113.0651 0 57.57515
v -113.9918 0 57.57515
v -115.2661 0 56.41669
v -116.1929 0 56.41669
v -115.2661 0 57.57515
v -116.1929 0 57.57515
v -114.1077 0 56.18501
v -115.1503 0 56.18501
v -114.1077 0 57.34346
v -115.1503 0 57.34346
v -117.1197 0 56.18501
v -118.0464 0 56.18501
v -117.1197 0 57.34346
v -118.0464 0 57.34346
v -117.5831 0 55.48993
v -118.5098 0 55.48993
v -117.5831 0 56.53254
v -118.5098 0 56.53254
v -116.6563 0 55.37409
v -117.4672 0 55.37409
v -116.6563 0 56.41669
v -117.4672 0 56.41669
v -115.2661 0 55.1424
v -116.3088 0 55.1424
v -115.2661 0 56.30085
v -116.3088 0 56.30085
v -113.876 0 54.67902
v -114.8028 0 54.67902
v -113.876 0 55.72162
v -114.8028 0 55.72162
v -114.9186 0 54.44732
v -115.8454 0 54.44732
v -114.9186 0 55.48993
v -115.8454 0 55.48993
v -113.0651 0 53.8681
v -113.9918 0 53.8681
v -113.0651 0 54.91071
v -113.9918 0 54.91071
v -113.7602 0 53.52056
v -114.6869 0 53.52056
v -113.7602 0 54.67902
v -114.6869 0 54.67902
v -115.6137 0 53.40472
v -116.6563 0 53.40472
v -115.6137 0 54.44732
v -116.6563 0 54.44732
vt 0.1347656 0.9185662
vt 0.2060202 0.9185662
vt 0.1347656 1
vt 0.2060202 1
vt 0.1347656 0.9185662
vt 0.2060202 0.9185662
vt 0.1347656 1
vt 0.2060202 1
vt 0.1347656 0.9185662
vt 0.2060202 0.9185662
vt 0.1347656 1
vt 0.2060202 1
vt 0.1347656 0.9185662
vt 0.2060202 0.9185662
vt 0.1347656 1
vt 0.2060202 1
vt 0.1347656 0.9185662
vt 0.2060202 0.9185662
vt 0.1347656 1
vt 0.2060202 1
vt 0.1347656 0.9185662
vt 0.2060202 0.9185662
vt 0.1347656 1
vt 0.2060202 1
vt 0.1347656 0.9185662
vt 0.2060202 0.9185662
vt 0.1347656 1
vt 0.2060202 1
vt 0.1347656 0.9185662
vt 0.2060202 0.9185662
vt 0.1347656 1
vt 0.2060202 1
vt 0.1347656 0.9185662
vt 0.2060202 0.9185662
vt 0.1347656 1
vt 0.2060202 1
vt 0.1347656 0.9185662
vt 0.2060202 0.9185662
vt 0.1347656 1
vt 0.2060202 1
vt 0.1347656 0.9185662
vt 0.2060202 0.9185662
vt 0.1347656 1
vt 0.2060202 1
vt 0.1347656 0.9185662
vt 0.2060202 0.9185662
vt 0.1347656 1
vt 0.2060202 1
vt 0.1347656 0.9185662
vt 0.2060202 0.9185662
vt 0.1347656 1
vt 0.2060202 1
vt 0.1347656 0.9185662
vt 0.2060202 0.9185662
vt 0.1347656 1
vt 0.2060202 1
vt 0.1347656 0.9185662
vt 0.2060202 0.9185662
vt 0.1347656 1
vt 0.2060202 1
vt 0.1347656 0.9185662
vt 0.2060202 0.9185662
vt 0.1347656 1
vt 0.2060202 1
vt 0.1347656 0.9185662
vt 0.2060202 0.9185662
vt 0.1347656 1
vt 0.2060202 1
vt 0.1347656 0.9185662
vt 0.2060202 0.9185662
vt 0.1347656 1
vt 0.2060202 1
vt 0.1347656 0.9185662
vt 0.2060202 0.9185662
vt 0.1347656 1
vt 0.2060202 1
vt 0.1347656 0.9185662
vt 0.2060202 0.9185662
vt 0.1347656 1
vt 0.2060202 1
vt 0.1347656 0.9185662
vt 0.2060202 0.9185662
vt 0.1347656 1
vt 0.2060202 1
vt 0.1347656 0.9185662
vt 0.2060202 0.9185662
vt 0.1347656 1
vt 0.2060202 1
vt 0.1347656 0.9185662
vt 0.2060202 0.9185662
vt 0.1347656 1
vt 0.2060202 1
vt 0.1347656 0.9185662
vt 0.2060202 0.9185662
vt 0.1347656 1
vt 0.2060202 1
vt 0.1347656 0.9185662
vt 0.2060202 0.9185662
vt 0.1347656 1
vt 0.2060202 1
vt 0.1347656 0.9185662
vt 0.2060202 0.9185662
vt 0.1347656 1
vt 0.2060202 1
vt 0.1347656 0.9185662
vt 0.2060202 0.9185662
vt 0.1347656 1
vt 0.2060202 1
vt 0.1347656 0.9185662
vt 0.2060202 0.9185662
vt 0.1347656 1
vt 0.2060202 1
vt 0.1347656 0.9185662
vt 0.2060202 0.9185662
vt 0.1347656 1
vt 0.2060202 1
vt 0.1347656 0.9185662
vt 0.2060202 0.9185662
vt 0.1347656 1
vt 0.2060202 1
vt 0.1347656 0.9185662
vt 0.2060202 0.9185662
vt 0.1347656 1
vt 0.2060202 1
vt 0.1347656 0.9185662
vt 0.2060202 0.9185662
vt 0.1347656 1
vt 0.2060202 1
vt 0.1347656 0.9185662
vt 0.2060202 0.9185662
vt 0.1347656 1
vt 0.2060202 1
vt 0.1347656 0.9185662
vt 0.2060202 0.9185662
vt 0.1347656 1
vt 0.2060202 1
vt 0.1347656 0.9185662
vt 0.2060202 0.9185662
vt 0.1347656 1
vt 0.2060202 1
vt 0.1347656 0.9185662
vt 0.2060202 0.9185662
vt 0.1347656 1
vt 0.2060202 1
vn 0 1 0
vn 0 1 0
vn 0 1 0
vn 0 1 0
vn 0 1 0
vn 0 1 0
vn 0 1 0
vn 0 1 0
vn 0 1 0
vn 0 1 0
vn 0 1 0
vn 0 1 0
vn 0 1 0
vn 0 1 0
vn 0 1 0
vn 0 1 0
vn 0 1 0
vn 0 1 0
vn 0 1 0
vn 0 1 0
vn 0 1 0
vn 0 1 0
vn 0 1 0
vn 0 1 0
vn 0 1 0
vn 0 1 0
vn 0 1 0
vn 0 1 0
vn 0 1 0
vn 0 1 0
vn 0 1 0
vn 0 1 0
vn 0 1 0
vn 0 1 0
vn 0 1 0
vn 0 1 0
vn 0 1 0
vn 0 1 0
vn 0 1 0
vn 0 1 0
vn 0 1 0
vn 0 1 0
vn 0 1 0
vn 0 1 0
vn 0 1 0
vn 0 1 0
vn 0 1 0
vn 0 1 0
vn 0 1 0
vn 0 1 0
vn 0 1 0
vn 0 1 0
vn 0 1 0
vn 0 1 0
vn 0 1 0
vn 0 1 0
vn 0 1 0
vn 0 1 0
vn 0 1 0
vn 0 1 0
vn 0 1 0
vn 0 1 0
vn 0 1 0
vn 0 1 0
vn 0 1 0
vn 0 1 0
vn 0 1 0
vn 0 1 0
vn 0 1 0
vn 0 1 0
vn 0 1 0
vn 0 1 0
vn 0 1 0
vn 0 1 0
vn 0 1 0
vn 0 1 0
vn 0 1 0
vn 0 1 0
vn 0 1 0
vn 0 1 0
vn 0 1 0
vn 0 1 0
vn 0 1 0
vn 0 1 0
vn 0 1 0
vn 0 1 0
vn 0 1 0
vn 0 1 0
vn 0 1 0
vn 0 1 0
vn 0 1 0
vn 0 1 0
vn 0 1 0
vn 0 1 0
vn 0 1 0
vn 0 1 0
vn 0 1 0
vn 0 1 0
vn 0 1 0
vn 0 1 0
vn 0 1 0
vn 0 1 0
vn 0 1 0
vn 0 1 0
vn 0 1 0
vn 0 1 0
vn 0 1 0
vn 0 1 0
vn 0 1 0
vn 0 1 0
vn 0 1 0
vn 0 1 0
vn 0 1 0
vn 0 1 0
vn 0 1 0
vn 0 1 0
vn 0 1 0
vn 0 1 0
vn 0 1 0
vn 0 1 0
vn 0 1 0
vn 0 1 0
vn 0 1 0
vn 0 1 0
vn 0 1 0
vn 0 1 0
vn 0 1 0
vn 0 1 0
vn 0 1 0
vn 0 1 0
vn 0 1 0
vn 0 1 0
vn 0 1 0
vn 0 1 0
vn 0 1 0
vn 0 1 0
vn 0 1 0
vn 0 1 0
vn 0 1 0
vn 0 1 0
vn 0 1 0
vn 0 1 0
vn 0 1 0
vn 0 1 0
g Grass_2_Cluster73_0
f 2/2/2 3/3/3 1/1/1
f 2/2/2 4/4/4 3/3/3
f 6/6/6 7/7/7 5/5/5
f 6/6/6 8/8/8 7/7/7
f 10/10/10 11/11/11 9/9/9
f 10/10/10 12/12/12 11/11/11
f 14/14/14 15/15/15 13/13/13
f 14/14/14 16/16/16 15/15/15
f 18/18/18 19/19/19 17/17/17
f 18/18/18 20/20/20 19/19/19
f 22/22/22 23/23/23 21/21/21
f 22/22/22 24/24/24 23/23/23
f 26/26/26 27/27/27 25/25/25
f 26/26/26 28/28/28 27/27/27
f 30/30/30 31/31/31 29/29/29
f 30/30/30 32/32/32 31/31/31
f 34/34/34 35/35/35 33/33/33
f 34/34/34 36/36/36 35/35/35
f 38/38/38 39/39/39 37/37/37
f 38/38/38 40/40/40 39/39/39
f 42/42/42 43/43/43 41/41/41
f 42/42/42 44/44/44 43/43/43
f 46/46/46 47/47/47 45/45/45
f 46/46/46 48/48/48 47/47/47
f 50/50/50 51/51/51 49/49/49
f 50/50/50 52/52/52 51/51/51
f 54/54/54 55/55/55 53/53/53
f 54/54/54 56/56/56 55/55/55
f 58/58/58 59/59/59 57/57/57
f 58/58/58 60/60/60 59/59/59
f 62/62/62 63/63/63 61/61/61
f 62/62/62 64/64/64 63/63/63
f 66/66/66 67/67/67 65/65/65
f 66/66/66 68/68/68 67/67/67
f 70/70/70 71/71/71 69/69/69
f 70/70/70 72/72/72 71/71/71
f 74/74/74 75/75/75 73/73/73
f 74/74/74 76/76/76 75/75/75
f 78/78/78 79/79/79 77/77/77
f 78/78/78 80/80/80 79/79/79
f 82/82/82 83/83/83 81/81/81
f 82/82/82 84/84/84 83/83/83
f 86/86/86 87/87/87 85/85/85
f 86/86/86 88/88/88 87/87/87
f 90/90/90 91/91/91 89/89/89
f 90/90/90 92/92/92 91/91/91
f 94/94/94 95/95/95 93/93/93
f 94/94/94 96/96/96 95/95/95
f 98/98/98 99/99/99 97/97/97
f 98/98/98 100/100/100 99/99/99
f 102/102/102 103/103/103 101/101/101
f 102/102/102 104/104/104 103/103/103
f 106/106/106 107/107/107 105/105/105
f 106/106/106 108/108/108 107/107/107
f 110/110/110 111/111/111 109/109/109
f 110/110/110 112/112/112 111/111/111
f 114/114/114 115/115/115 113/113/113
f 114/114/114 116/116/116 115/115/115
f 118/118/118 119/119/119 117/117/117
f 118/118/118 120/120/120 119/119/119
f 122/122/122 123/123/123 121/121/121
f 122/122/122 124/124/124 123/123/123
f 126/126/126 127/127/127 125/125/125
f 126/126/126 128/128/128 127/127/127
f 130/130/130 131/131/131 129/129/129
f 130/130/130 132/132/132 131/131/131
f 134/134/134 135/135/135 133/133/133
f 134/134/134 136/136/136 135/135/135
f 138/138/138 139/139/139 137/137/137
f 138/138/138 140/140/140 139/139/139
f 142/142/142 143/143/143 141/141/141
f 142/142/142 144/144/144 143/143/143
