g Grass_1_Cluster128
v 46.21832 -0.09531021 164.1527
v 45.38351 -0.09531021 164.1527
v 46.21832 -0.09531021 164.9875
v 45.38351 -0.09531021 164.9875
v 47.26183 -0.09531021 162.4831
v 46.42702 -0.09531021 162.4831
v 47.26183 -0.09531021 163.3179
v 46.42702 -0.09531021 163.3179
v 48.51403 -0.09531021 161.857
v 47.67923 -0.09531021 161.857
v 48.51403 -0.09531021 162.6918
v 47.67923 -0.09531021 162.6918
vt 0.06738281 0.9369141
vt 0.1331457 0.9369141
vt 0.06738281 0.9990234
vt 0.1331457 0.9990234
vt 0.06738281 0.9369141
vt 0.1331457 0.9369141
vt 0.06738281 0.9990234
vt 0.1331457 0.9990234
vt 0.06738281 0.9369141
vt 0.1331457 0.9369141
vt 0.06738281 0.9990234
vt 0.1331457 0.9990234
vn 0 1 0
vn 0 1 0
vn 0 1 0
vn 0 1 0
vn 0 1 0
vn 0 1 0
vn 0 1 0
vn 0 1 0
vn 0 1 0
vn 0 1 0
vn 0 1 0
vn 0 1 0
g Grass_1_Cluster128_0
f 2/2/2 3/3/3 1/1/1
f 2/2/2 4/4/4 3/3/3
f 6/6/6 7/7/7 5/5/5
f 6/6/6 8/8/8 7/7/7
f 10/10/10 11/11/11 9/9/9
f 10/10/10 12/12/12 11/11/11
