g Grass_1_Cluster46
v 98.89171 0.07718658 42.94777
v 97.93549 0.07718658 42.94777
v 98.89171 0.07718658 43.74463
v 97.93549 0.07718658 43.74463
v 99.68855 0.07718658 41.99155
v 98.89171 0.07718658 41.99155
v 99.68855 0.07718658 42.78841
v 98.89171 0.07718658 42.78841
v 96.18241 0.07718658 41.67281
v 95.38556 0.07718658 41.67281
v 96.18241 0.07718658 42.46967
v 95.38556 0.07718658 42.46967
v 114.6694 0.07718658 41.03532
v 113.7131 0.07718658 41.03532
v 114.6694 0.07718658 41.83218
v 113.7131 0.07718658 41.83218
v 98.25423 0.07718658 41.03532
v 97.298 0.07718658 41.03532
v 98.25423 0.07718658 41.83218
v 97.298 0.07718658 41.83218
v 97.61674 0.07718658 40.39784
v 96.81989 0.07718658 40.39784
v 97.61674 0.07718658 41.03532
v 96.81989 0.07718658 41.03532
v 109.8883 0.07718658 40.23848
v 109.0914 0.07718658 40.23848
v 109.8883 0.07718658 41.03532
v 109.0914 0.07718658 41.03532
v 114.0319 0.07718658 39.91974
v 113.235 0.07718658 39.91974
v 114.0319 0.07718658 40.71658
v 113.235 0.07718658 40.71658
v 100.9635 0.07718658 39.91974
v 100.1667 0.07718658 39.91974
v 100.9635 0.07718658 40.71658
v 100.1667 0.07718658 40.71658
v 115.6256 0.07718658 39.601
v 114.8287 0.07718658 39.601
v 115.6256 0.07718658 40.39784
v 114.8287 0.07718658 40.39784
v 103.6728 0.07718658 39.601
v 102.7166 0.07718658 39.601
v 103.6728 0.07718658 40.39784
v 102.7166 0.07718658 40.39784
v 92.03879 0.07718658 39.44164
v 91.24194 0.07718658 39.44164
v 92.03879 0.07718658 40.23848
v 91.24194 0.07718658 40.23848
v 91.56068 0.07718658 39.12289
v 90.76382 0.07718658 39.12289
v 91.56068 0.07718658 39.91974
v 90.76382 0.07718658 39.91974
v 94.42934 0.07718658 39.12289
v 93.63249 0.07718658 39.12289
v 94.42934 0.07718658 39.91974
v 93.63249 0.07718658 39.91974
v 114.9881 0.07718658 39.12289
v 114.0319 0.07718658 39.12289
v 114.9881 0.07718658 39.91974
v 114.0319 0.07718658 39.91974
v 102.3979 0.07718658 38.80415
v 101.4416 0.07718658 38.80415
v 102.3979 0.07718658 39.601
v 101.4416 0.07718658 39.601
v 101.7604 0.07718658 38.64478
v 100.8041 0.07718658 38.64478
v 101.7604 0.07718658 39.44164
v 100.8041 0.07718658 39.44164
v 91.72005 0.07718658 37.68855
v 90.92319 0.07718658 37.68855
v 91.72005 0.07718658 38.64478
v 90.92319 0.07718658 38.64478
v 119.2911 0.07718658 30.35753
v 118.4942 0.07718658 30.35753
v 119.2911 0.07718658 30.99501
v 118.4942 0.07718658 30.99501
v 105.904 0.07718658 23.98271
v 105.1071 0.07718658 23.98271
v 105.904 0.07718658 24.77957
v 105.1071 0.07718658 24.77957
v 106.8602 0.07718658 23.18587
v 105.904 0.07718658 23.18587
v 106.8602 0.07718658 23.98271
v 105.904 0.07718658 23.98271
vt 0.06738281 0.9369141
vt 0.1331457 0.9369141
vt 0.06738281 0.9990234
vt 0.1331457 0.9990234
vt 0.06738281 0.9369141
vt 0.1331457 0.9369141
vt 0.06738281 0.9990234
vt 0.1331457 0.9990234
vt 0.06738281 0.9369141
vt 0.1331457 0.9369141
vt 0.06738281 0.9990234
vt 0.1331457 0.9990234
vt 0.06738281 0.9369141
vt 0.1331457 0.9369141
vt 0.06738281 0.9990234
vt 0.1331457 0.9990234
vt 0.06738281 0.9369141
vt 0.1331457 0.9369141
vt 0.06738281 0.9990234
vt 0.1331457 0.9990234
vt 0.06738281 0.9369141
vt 0.1331457 0.9369141
vt 0.06738281 0.9990234
vt 0.1331457 0.9990234
vt 0.06738281 0.9369141
vt 0.1331457 0.9369141
vt 0.06738281 0.9990234
vt 0.1331457 0.9990234
vt 0.06738281 0.9369141
vt 0.1331457 0.9369141
vt 0.06738281 0.9990234
vt 0.1331457 0.9990234
vt 0.06738281 0.9369141
vt 0.1331457 0.9369141
vt 0.06738281 0.9990234
vt 0.1331457 0.9990234
vt 0.06738281 0.9369141
vt 0.1331457 0.9369141
vt 0.06738281 0.9990234
vt 0.1331457 0.9990234
vt 0.06738281 0.9369141
vt 0.1331457 0.9369141
vt 0.06738281 0.9990234
vt 0.1331457 0.9990234
vt 0.06738281 0.9369141
vt 0.1331457 0.9369141
vt 0.06738281 0.9990234
vt 0.1331457 0.9990234
vt 0.06738281 0.9369141
vt 0.1331457 0.9369141
vt 0.06738281 0.9990234
vt 0.1331457 0.9990234
vt 0.06738281 0.9369141
vt 0.1331457 0.9369141
vt 0.06738281 0.9990234
vt 0.1331457 0.9990234
vt 0.06738281 0.9369141
vt 0.1331457 0.9369141
vt 0.06738281 0.9990234
vt 0.1331457 0.9990234
vt 0.06738281 0.9369141
vt 0.1331457 0.9369141
vt 0.06738281 0.9990234
vt 0.1331457 0.9990234
vt 0.06738281 0.9369141
vt 0.1331457 0.9369141
vt 0.06738281 0.9990234
vt 0.1331457 0.9990234
vt 0.06738281 0.9369141
vt 0.1331457 0.9369141
vt 0.06738281 0.9990234
vt 0.1331457 0.9990234
vt 0.06738281 0.9369141
vt 0.1331457 0.9369141
vt 0.06738281 0.9990234
vt 0.1331457 0.9990234
vt 0.06738281 0.9369141
vt 0.1331457 0.9369141
vt 0.06738281 0.9990234
vt 0.1331457 0.9990234
vt 0.06738281 0.9369141
vt 0.1331457 0.9369141
vt 0.06738281 0.9990234
vt 0.1331457 0.9990234
vn 0 1 0
vn 0 1 0
vn 0 1 0
vn 0 1 0
vn 0 1 0
vn 0 1 0
vn 0 1 0
vn 0 1 0
vn 0 1 0
vn 0 1 0
vn 0 1 0
vn 0 1 0
vn 0 1 0
vn 0 1 0
vn 0 1 0
vn 0 1 0
vn 0 1 0
vn 0 1 0
vn 0 1 0
vn 0 1 0
vn 0 1 0
vn 0 1 0
vn 0 1 0
vn 0 1 0
vn 0 1 0
vn 0 1 0
vn 0 1 0
vn 0 1 0
vn 0 1 0
vn 0 1 0
vn 0 1 0
vn 0 1 0
vn 0 1 0
vn 0 1 0
vn 0 1 0
vn 0 1 0
vn 0 1 0
vn 0 1 0
vn 0 1 0
vn 0 1 0
vn 0 1 0
vn 0 1 0
vn 0 1 0
vn 0 1 0
vn 0 1 0
vn 0 1 0
vn 0 1 0
vn 0 1 0
vn 0 1 0
vn 0 1 0
vn 0 1 0
vn 0 1 0
vn 0 1 0
vn 0 1 0
vn 0 1 0
vn 0 1 0
vn 0 1 0
vn 0 1 0
vn 0 1 0
vn 0 1 0
vn 0 1 0
vn 0 1 0
vn 0 1 0
vn 0 1 0
vn 0 1 0
vn 0 1 0
vn 0 1 0
vn 0 1 0
vn 0 1 0
vn 0 1 0
vn 0 1 0
vn 0 1 0
vn 0 1 0
vn 0 1 0
vn 0 1 0
vn 0 1 0
vn 0 1 0
vn 0 1 0
vn 0 1 0
vn 0 1 0
vn 0 1 0
vn 0 1 0
vn 0 1 0
vn 0 1 0
g Grass_1_Cluster46_0
f 2/2/2 3/3/3 1/1/1
f 2/2/2 4/4/4 3/3/3
f 6/6/6 7/7/7 5/5/5
f 6/6/6 8/8/8 7/7/7
f 10/10/10 11/11/11 9/9/9
f 10/10/10 12/12/12 11/11/11
f 14/14/14 15/15/15 13/13/13
f 14/14/14 16/16/16 15/15/15
f 18/18/18 19/19/19 17/17/17
f 18/18/18 20/20/20 19/19/19
f 22/22/22 23/23/23 21/21/21
f 22/22/22 24/24/24 23/23/23
f 26/26/26 27/27/27 25/25/25
f 26/26/26 28/28/28 27/27/27
f 30/30/30 31/31/31 29/29/29
f 30/30/30 32/32/32 31/31/31
f 34/34/34 35/35/35 33/33/33
f 34/34/34 36/36/36 35/35/35
f 38/38/38 39/39/39 37/37/37
f 38/38/38 40/40/40 39/39/39
f 42/42/42 43/43/43 41/41/41
f 42/42/42 44/44/44 43/43/43
f 46/46/46 47/47/47 45/45/45
f 46/46/46 48/48/48 47/47/47
f 50/50/50 51/51/51 49/49/49
f 50/50/50 52/52/52 51/51/51
f 54/54/54 55/55/55 53/53/53
f 54/54/54 56/56/56 55/55/55
f 58/58/58 59/59/59 57/57/57
f 58/58/58 60/60/60 59/59/59
f 62/62/62 63/63/63 61/61/61
f 62/62/62 64/64/64 63/63/63
f 66/66/66 67/67/67 65/65/65
f 66/66/66 68/68/68 67/67/67
f 70/70/70 71/71/71 69/69/69
f 70/70/70 72/72/72 71/71/71
f 74/74/74 75/75/75 73/73/73
f 74/74/74 76/76/76 75/75/75
f 78/78/78 79/79/79 77/77/77
f 78/78/78 80/80/80 79/79/79
f 82/82/82 83/83/83 81/81/81
f 82/82/82 84/84/84 83/83/83
