g Grass_0_Cluster124
v 155.5996 -0.1080017 170.4866
v 154.5699 -0.1080017 170.4866
v 155.5996 -0.1080017 171.8595
v 154.5699 -0.1080017 171.8595
v 159.0321 -0.1080017 168.4271
v 158.0023 -0.1080017 168.4271
v 159.0321 -0.1080017 169.4568
v 158.0023 -0.1080017 169.4568
v 153.1969 -0.1080017 168.4271
v 152.1671 -0.1080017 168.4271
v 153.1969 -0.1080017 169.8001
v 152.1671 -0.1080017 169.8001
v 173.4485 -0.1080017 167.7406
v 172.4188 -0.1080017 167.7406
v 173.4485 -0.1080017 169.1136
v 172.4188 -0.1080017 169.1136
v 173.7918 -0.1080017 166.3676
v 173.1053 -0.1080017 166.3676
v 173.7918 -0.1080017 167.3973
v 173.1053 -0.1080017 167.3973
v 158.0023 -0.1080017 166.0243
v 157.3159 -0.1080017 166.0243
v 158.0023 -0.1080017 167.0541
v 157.3159 -0.1080017 167.0541
v 151.1374 -0.1080017 166.0243
v 150.4509 -0.1080017 166.0243
v 151.1374 -0.1080017 167.3973
v 150.4509 -0.1080017 167.3973
v 152.8536 -0.1080017 165.6811
v 152.1671 -0.1080017 165.6811
v 152.8536 -0.1080017 167.0541
v 152.1671 -0.1080017 167.0541
v 152.5104 -0.1080017 164.9946
v 151.4806 -0.1080017 164.9946
v 152.5104 -0.1080017 166.3676
v 151.4806 -0.1080017 166.3676
v 156.6294 -0.1080017 164.3081
v 155.9429 -0.1080017 164.3081
v 156.6294 -0.1080017 165.3378
v 155.9429 -0.1080017 165.3378
v 154.5699 -0.1080017 163.9648
v 153.8834 -0.1080017 163.9648
v 154.5699 -0.1080017 165.3378
v 153.8834 -0.1080017 165.3378
v 156.2861 -0.1080017 163.9648
v 155.2564 -0.1080017 163.9648
v 156.2861 -0.1080017 165.3378
v 155.2564 -0.1080017 165.3378
v 177.9108 -0.1080017 163.6216
v 176.881 -0.1080017 163.6216
v 177.9108 -0.1080017 164.9946
v 176.881 -0.1080017 164.9946
v 177.5675 -0.1080017 162.2486
v 176.881 -0.1080017 162.2486
v 177.5675 -0.1080017 163.6216
v 176.881 -0.1080017 163.6216
v 179.2838 -0.1080017 161.9053
v 178.254 -0.1080017 161.9053
v 179.2838 -0.1080017 163.2783
v 178.254 -0.1080017 163.2783
v 176.881 -0.1080017 157.7864
v 175.8513 -0.1080017 157.7864
v 176.881 -0.1080017 159.1593
v 175.8513 -0.1080017 159.1593
v 178.5973 -0.1080017 157.0999
v 177.5675 -0.1080017 157.0999
v 178.5973 -0.1080017 158.4729
v 177.5675 -0.1080017 158.4729
v 168.2998 -0.1080017 157.0999
v 167.2701 -0.1080017 157.0999
v 168.2998 -0.1080017 158.1296
v 167.2701 -0.1080017 158.1296
v 170.3593 -0.1080017 156.4134
v 169.6728 -0.1080017 156.4134
v 170.3593 -0.1080017 157.4431
v 169.6728 -0.1080017 157.4431
v 168.6431 -0.1080017 156.4134
v 167.6133 -0.1080017 156.4134
v 168.6431 -0.1080017 157.7864
v 167.6133 -0.1080017 157.7864
v 170.3593 -0.1080017 155.7269
v 169.6728 -0.1080017 155.7269
v 170.3593 -0.1080017 156.7566
v 169.6728 -0.1080017 156.7566
v 169.6728 -0.1080017 155.3836
v 168.6431 -0.1080017 155.3836
v 169.6728 -0.1080017 156.7566
v 168.6431 -0.1080017 156.7566
v 168.9863 -0.1080017 154.6971
v 167.9566 -0.1080017 154.6971
v 168.9863 -0.1080017 156.0701
v 167.9566 -0.1080017 156.0701
v 167.6133 -0.1080017 154.6971
v 166.5836 -0.1080017 154.6971
v 167.6133 -0.1080017 155.7269
v 166.5836 -0.1080017 155.7269
v 171.3891 -0.1080017 154.3539
v 170.3593 -0.1080017 154.3539
v 171.3891 -0.1080017 155.3836
v 170.3593 -0.1080017 155.3836
v 167.9566 -0.1080017 154.0106
v 167.2701 -0.1080017 154.0106
v 167.9566 -0.1080017 155.0404
v 167.2701 -0.1080017 155.0404
v 169.3296 -0.1080017 153.6674
v 168.6431 -0.1080017 153.6674
v 169.3296 -0.1080017 155.0404
v 168.6431 -0.1080017 155.0404
v 167.2701 -0.1080017 153.6674
v 166.5836 -0.1080017 153.6674
v 167.2701 -0.1080017 155.0404
v 166.5836 -0.1080017 155.0404
v 177.5675 -0.1080017 153.6674
v 176.5378 -0.1080017 153.6674
v 177.5675 -0.1080017 154.6971
v 176.5378 -0.1080017 154.6971
v 168.9863 -0.1080017 153.3241
v 167.9566 -0.1080017 153.3241
v 168.9863 -0.1080017 154.6971
v 167.9566 -0.1080017 154.6971
v 170.0161 -0.1080017 152.9809
v 168.9863 -0.1080017 152.9809
v 170.0161 -0.1080017 154.3539
v 168.9863 -0.1080017 154.3539
v 171.0458 -0.1080017 152.9809
v 170.3593 -0.1080017 152.9809
v 171.0458 -0.1080017 154.0106
v 170.3593 -0.1080017 154.0106
v 168.6431 -0.1080017 152.6376
v 167.6133 -0.1080017 152.6376
v 168.6431 -0.1080017 154.0106
v 167.6133 -0.1080017 154.0106
v 166.9268 -0.1080017 152.6376
v 166.2403 -0.1080017 152.6376
v 166.9268 -0.1080017 153.6674
v 166.2403 -0.1080017 153.6674
v 170.7025 -0.1080017 152.2944
v 169.6728 -0.1080017 152.2944
v 170.7025 -0.1080017 153.6674
v 169.6728 -0.1080017 153.6674
v 173.1053 -0.1080017 151.6079
v 172.4188 -0.1080017 151.6079
v 173.1053 -0.1080017 152.9809
v 172.4188 -0.1080017 152.9809
v 168.6431 -0.1080017 151.6079
v 167.9566 -0.1080017 151.6079
v 168.6431 -0.1080017 152.6376
v 167.9566 -0.1080017 152.6376
v 171.0458 -0.1080017 150.9214
v 170.0161 -0.1080017 150.9214
v 171.0458 -0.1080017 152.2944
v 170.0161 -0.1080017 152.2944
v 168.2998 -0.1080017 150.9214
v 167.6133 -0.1080017 150.9214
v 168.2998 -0.1080017 151.9511
v 167.6133 -0.1080017 151.9511
v 170.0161 -0.1080017 150.5781
v 168.9863 -0.1080017 150.5781
v 170.0161 -0.1080017 151.9511
v 168.9863 -0.1080017 151.9511
v 173.1053 -0.1080017 149.8916
v 172.0755 -0.1080017 149.8916
v 173.1053 -0.1080017 151.2646
v 172.0755 -0.1080017 151.2646
v 156.2861 -0.1080017 145.7727
v 155.2564 -0.1080017 145.7727
v 156.2861 -0.1080017 147.1456
v 155.2564 -0.1080017 147.1456
v 155.2564 -0.1080017 144.3997
v 154.2266 -0.1080017 144.3997
v 155.2564 -0.1080017 145.7727
v 154.2266 -0.1080017 145.7727
v 151.4806 -0.1080017 144.0564
v 150.4509 -0.1080017 144.0564
v 151.4806 -0.1080017 145.0862
v 150.4509 -0.1080017 145.0862
vt 0 0.9058824
vt 0.06666667 0.9058824
vt 0 1
vt 0.06666667 1
vt 0 0.9058824
vt 0.06666667 0.9058824
vt 0 1
vt 0.06666667 1
vt 0 0.9058824
vt 0.06666667 0.9058824
vt 0 1
vt 0.06666667 1
vt 0 0.9058824
vt 0.06666667 0.9058824
vt 0 1
vt 0.06666667 1
vt 0 0.9058824
vt 0.06666667 0.9058824
vt 0 1
vt 0.06666667 1
vt 0 0.9058824
vt 0.06666667 0.9058824
vt 0 1
vt 0.06666667 1
vt 0 0.9058824
vt 0.06666667 0.9058824
vt 0 1
vt 0.06666667 1
vt 0 0.9058824
vt 0.06666667 0.9058824
vt 0 1
vt 0.06666667 1
vt 0 0.9058824
vt 0.06666667 0.9058824
vt 0 1
vt 0.06666667 1
vt 0 0.9058824
vt 0.06666667 0.9058824
vt 0 1
vt 0.06666667 1
vt 0 0.9058824
vt 0.06666667 0.9058824
vt 0 1
vt 0.06666667 1
vt 0 0.9058824
vt 0.06666667 0.9058824
vt 0 1
vt 0.06666667 1
vt 0 0.9058824
vt 0.06666667 0.9058824
vt 0 1
vt 0.06666667 1
vt 0 0.9058824
vt 0.06666667 0.9058824
vt 0 1
vt 0.06666667 1
vt 0 0.9058824
vt 0.06666667 0.9058824
vt 0 1
vt 0.06666667 1
vt 0 0.9058824
vt 0.06666667 0.9058824
vt 0 1
vt 0.06666667 1
vt 0 0.9058824
vt 0.06666667 0.9058824
vt 0 1
vt 0.06666667 1
vt 0 0.9058824
vt 0.06666667 0.9058824
vt 0 1
vt 0.06666667 1
vt 0 0.9058824
vt 0.06666667 0.9058824
vt 0 1
vt 0.06666667 1
vt 0 0.9058824
vt 0.06666667 0.9058824
vt 0 1
vt 0.06666667 1
vt 0 0.9058824
vt 0.06666667 0.9058824
vt 0 1
vt 0.06666667 1
vt 0 0.9058824
vt 0.06666667 0.9058824
vt 0 1
vt 0.06666667 1
vt 0 0.9058824
vt 0.06666667 0.9058824
vt 0 1
vt 0.06666667 1
vt 0 0.9058824
vt 0.06666667 0.9058824
vt 0 1
vt 0.06666667 1
vt 0 0.9058824
vt 0.06666667 0.9058824
vt 0 1
vt 0.06666667 1
vt 0 0.9058824
vt 0.06666667 0.9058824
vt 0 1
vt 0.06666667 1
vt 0 0.9058824
vt 0.06666667 0.9058824
vt 0 1
vt 0.06666667 1
vt 0 0.9058824
vt 0.06666667 0.9058824
vt 0 1
vt 0.06666667 1
vt 0 0.9058824
vt 0.06666667 0.9058824
vt 0 1
vt 0.06666667 1
vt 0 0.9058824
vt 0.06666667 0.9058824
vt 0 1
vt 0.06666667 1
vt 0 0.9058824
vt 0.06666667 0.9058824
vt 0 1
vt 0.06666667 1
vt 0 0.9058824
vt 0.06666667 0.9058824
vt 0 1
vt 0.06666667 1
vt 0 0.9058824
vt 0.06666667 0.9058824
vt 0 1
vt 0.06666667 1
vt 0 0.9058824
vt 0.06666667 0.9058824
vt 0 1
vt 0.06666667 1
vt 0 0.9058824
vt 0.06666667 0.9058824
vt 0 1
vt 0.06666667 1
vt 0 0.9058824
vt 0.06666667 0.9058824
vt 0 1
vt 0.06666667 1
vt 0 0.9058824
vt 0.06666667 0.9058824
vt 0 1
vt 0.06666667 1
vt 0 0.9058824
vt 0.06666667 0.9058824
vt 0 1
vt 0.06666667 1
vt 0 0.9058824
vt 0.06666667 0.9058824
vt 0 1
vt 0.06666667 1
vt 0 0.9058824
vt 0.06666667 0.9058824
vt 0 1
vt 0.06666667 1
vt 0 0.9058824
vt 0.06666667 0.9058824
vt 0 1
vt 0.06666667 1
vt 0 0.9058824
vt 0.06666667 0.9058824
vt 0 1
vt 0.06666667 1
vt 0 0.9058824
vt 0.06666667 0.9058824
vt 0 1
vt 0.06666667 1
vt 0 0.9058824
vt 0.06666667 0.9058824
vt 0 1
vt 0.06666667 1
vn 0 1 0
vn 0 1 0
vn 0 1 0
vn 0 1 0
vn 0 1 0
vn 0 1 0
vn 0 1 0
vn 0 1 0
vn 0 1 0
vn 0 1 0
vn 0 1 0
vn 0 1 0
vn 0 1 0
vn 0 1 0
vn 0 1 0
vn 0 1 0
vn 0 1 0
vn 0 1 0
vn 0 1 0
vn 0 1 0
vn 0 1 0
vn 0 1 0
vn 0 1 0
vn 0 1 0
vn 0 1 0
vn 0 1 0
vn 0 1 0
vn 0 1 0
vn 0 1 0
vn 0 1 0
vn 0 1 0
vn 0 1 0
vn 0 1 0
vn 0 1 0
vn 0 1 0
vn 0 1 0
vn 0 1 0
vn 0 1 0
vn 0 1 0
vn 0 1 0
vn 0 1 0
vn 0 1 0
vn 0 1 0
vn 0 1 0
vn 0 1 0
vn 0 1 0
vn 0 1 0
vn 0 1 0
vn 0 1 0
vn 0 1 0
vn 0 1 0
vn 0 1 0
vn 0 1 0
vn 0 1 0
vn 0 1 0
vn 0 1 0
vn 0 1 0
vn 0 1 0
vn 0 1 0
vn 0 1 0
vn 0 1 0
vn 0 1 0
vn 0 1 0
vn 0 1 0
vn 0 1 0
vn 0 1 0
vn 0 1 0
vn 0 1 0
vn 0 1 0
vn 0 1 0
vn 0 1 0
vn 0 1 0
vn 0 1 0
vn 0 1 0
vn 0 1 0
vn 0 1 0
vn 0 1 0
vn 0 1 0
vn 0 1 0
vn 0 1 0
vn 0 1 0
vn 0 1 0
vn 0 1 0
vn 0 1 0
vn 0 1 0
vn 0 1 0
vn 0 1 0
vn 0 1 0
vn 0 1 0
vn 0 1 0
vn 0 1 0
vn 0 1 0
vn 0 1 0
vn 0 1 0
vn 0 1 0
vn 0 1 0
vn 0 1 0
vn 0 1 0
vn 0 1 0
vn 0 1 0
vn 0 1 0
vn 0 1 0
vn 0 1 0
vn 0 1 0
vn 0 1 0
vn 0 1 0
vn 0 1 0
vn 0 1 0
vn 0 1 0
vn 0 1 0
vn 0 1 0
vn 0 1 0
vn 0 1 0
vn 0 1 0
vn 0 1 0
vn 0 1 0
vn 0 1 0
vn 0 1 0
vn 0 1 0
vn 0 1 0
vn 0 1 0
vn 0 1 0
vn 0 1 0
vn 0 1 0
vn 0 1 0
vn 0 1 0
vn 0 1 0
vn 0 1 0
vn 0 1 0
vn 0 1 0
vn 0 1 0
vn 0 1 0
vn 0 1 0
vn 0 1 0
vn 0 1 0
vn 0 1 0
vn 0 1 0
vn 0 1 0
vn 0 1 0
vn 0 1 0
vn 0 1 0
vn 0 1 0
vn 0 1 0
vn 0 1 0
vn 0 1 0
vn 0 1 0
vn 0 1 0
vn 0 1 0
vn 0 1 0
vn 0 1 0
vn 0 1 0
vn 0 1 0
vn 0 1 0
vn 0 1 0
vn 0 1 0
vn 0 1 0
vn 0 1 0
vn 0 1 0
vn 0 1 0
vn 0 1 0
vn 0 1 0
vn 0 1 0
vn 0 1 0
vn 0 1 0
vn 0 1 0
vn 0 1 0
vn 0 1 0
vn 0 1 0
vn 0 1 0
vn 0 1 0
vn 0 1 0
vn 0 1 0
vn 0 1 0
vn 0 1 0
vn 0 1 0
vn 0 1 0
g Grass_0_Cluster124_0
f 2/2/2 3/3/3 1/1/1
f 2/2/2 4/4/4 3/3/3
f 6/6/6 7/7/7 5/5/5
f 6/6/6 8/8/8 7/7/7
f 10/10/10 11/11/11 9/9/9
f 10/10/10 12/12/12 11/11/11
f 14/14/14 15/15/15 13/13/13
f 14/14/14 16/16/16 15/15/15
f 18/18/18 19/19/19 17/17/17
f 18/18/18 20/20/20 19/19/19
f 22/22/22 23/23/23 21/21/21
f 22/22/22 24/24/24 23/23/23
f 26/26/26 27/27/27 25/25/25
f 26/26/26 28/28/28 27/27/27
f 30/30/30 31/31/31 29/29/29
f 30/30/30 32/32/32 31/31/31
f 34/34/34 35/35/35 33/33/33
f 34/34/34 36/36/36 35/35/35
f 38/38/38 39/39/39 37/37/37
f 38/38/38 40/40/40 39/39/39
f 42/42/42 43/43/43 41/41/41
f 42/42/42 44/44/44 43/43/43
f 46/46/46 47/47/47 45/45/45
f 46/46/46 48/48/48 47/47/47
f 50/50/50 51/51/51 49/49/49
f 50/50/50 52/52/52 51/51/51
f 54/54/54 55/55/55 53/53/53
f 54/54/54 56/56/56 55/55/55
f 58/58/58 59/59/59 57/57/57
f 58/58/58 60/60/60 59/59/59
f 62/62/62 63/63/63 61/61/61
f 62/62/62 64/64/64 63/63/63
f 66/66/66 67/67/67 65/65/65
f 66/66/66 68/68/68 67/67/67
f 70/70/70 71/71/71 69/69/69
f 70/70/70 72/72/72 71/71/71
f 74/74/74 75/75/75 73/73/73
f 74/74/74 76/76/76 75/75/75
f 78/78/78 79/79/79 77/77/77
f 78/78/78 80/80/80 79/79/79
f 82/82/82 83/83/83 81/81/81
f 82/82/82 84/84/84 83/83/83
f 86/86/86 87/87/87 85/85/85
f 86/86/86 88/88/88 87/87/87
f 90/90/90 91/91/91 89/89/89
f 90/90/90 92/92/92 91/91/91
f 94/94/94 95/95/95 93/93/93
f 94/94/94 96/96/96 95/95/95
f 98/98/98 99/99/99 97/97/97
f 98/98/98 100/100/100 99/99/99
f 102/102/102 103/103/103 101/101/101
f 102/102/102 104/104/104 103/103/103
f 106/106/106 107/107/107 105/105/105
f 106/106/106 108/108/108 107/107/107
f 110/110/110 111/111/111 109/109/109
f 110/110/110 112/112/112 111/111/111
f 114/114/114 115/115/115 113/113/113
f 114/114/114 116/116/116 115/115/115
f 118/118/118 119/119/119 117/117/117
f 118/118/118 120/120/120 119/119/119
f 122/122/122 123/123/123 121/121/121
f 122/122/122 124/124/124 123/123/123
f 126/126/126 127/127/127 125/125/125
f 126/126/126 128/128/128 127/127/127
f 130/130/130 131/131/131 129/129/129
f 130/130/130 132/132/132 131/131/131
f 134/134/134 135/135/135 133/133/133
f 134/134/134 136/136/136 135/135/135
f 138/138/138 139/139/139 137/137/137
f 138/138/138 140/140/140 139/139/139
f 142/142/142 143/143/143 141/141/141
f 142/142/142 144/144/144 143/143/143
f 146/146/146 147/147/147 145/145/145
f 146/146/146 148/148/148 147/147/147
f 150/150/150 151/151/151 149/149/149
f 150/150/150 152/152/152 151/151/151
f 154/154/154 155/155/155 153/153/153
f 154/154/154 156/156/156 155/155/155
f 158/158/158 159/159/159 157/157/157
f 158/158/158 160/160/160 159/159/159
f 162/162/162 163/163/163 161/161/161
f 162/162/162 164/164/164 163/163/163
f 166/166/166 167/167/167 165/165/165
f 166/166/166 168/168/168 167/167/167
f 170/170/170 171/171/171 169/169/169
f 170/170/170 172/172/172 171/171/171
f 174/174/174 175/175/175 173/173/173
f 174/174/174 176/176/176 175/175/175
