g Grass_2_Cluster300
v 296.0442 -0.2293396 442.7679
v 295.3192 -0.2293396 442.7679
v 296.0442 -0.2293396 443.4929
v 295.3192 -0.2293396 443.4929
v 295.3192 -0.2293396 442.0428
v 294.5941 -0.2293396 442.0428
v 295.3192 -0.2293396 442.7679
v 294.5941 -0.2293396 442.7679
v 278.6433 -0.2293396 438.4177
v 277.9183 -0.2293396 438.4177
v 278.6433 -0.2293396 439.1427
v 277.9183 -0.2293396 439.1427
v 282.9935 -0.2293396 436.9676
v 282.2685 -0.2293396 436.9676
v 282.9935 -0.2293396 437.6926
v 282.2685 -0.2293396 437.6926
v 280.8184 -0.2293396 436.2426
v 279.3683 -0.2293396 436.2426
v 280.8184 -0.2293396 437.6926
v 279.3683 -0.2293396 437.6926
v 282.2685 -0.2293396 436.2426
v 280.8184 -0.2293396 436.2426
v 282.2685 -0.2293396 436.9676
v 280.8184 -0.2293396 436.9676
v 277.9183 -0.2293396 435.5175
v 277.1932 -0.2293396 435.5175
v 277.9183 -0.2293396 436.9676
v 277.1932 -0.2293396 436.9676
v 282.9935 -0.2293396 435.5175
v 281.5435 -0.2293396 435.5175
v 282.9935 -0.2293396 436.2426
v 281.5435 -0.2293396 436.2426
v 278.6433 -0.2293396 435.5175
v 277.1932 -0.2293396 435.5175
v 278.6433 -0.2293396 436.2426
v 277.1932 -0.2293396 436.2426
v 281.5435 -0.2293396 434.0674
v 280.8184 -0.2293396 434.0674
v 281.5435 -0.2293396 435.5175
v 280.8184 -0.2293396 435.5175
v 280.0934 -0.2293396 434.0674
v 279.3683 -0.2293396 434.0674
v 280.0934 -0.2293396 434.7925
v 279.3683 -0.2293396 434.7925
v 282.9935 -0.2293396 433.3424
v 281.5435 -0.2293396 433.3424
v 282.9935 -0.2293396 434.7925
v 281.5435 -0.2293396 434.7925
v 283.7186 -0.2293396 433.3424
v 282.9935 -0.2293396 433.3424
v 283.7186 -0.2293396 434.0674
v 282.9935 -0.2293396 434.0674
v 296.0442 -0.2293396 421.7418
v 295.3192 -0.2293396 421.7418
v 296.0442 -0.2293396 422.4669
v 295.3192 -0.2293396 422.4669
v 294.5941 -0.2293396 421.7418
v 293.8691 -0.2293396 421.7418
v 294.5941 -0.2293396 422.4669
v 293.8691 -0.2293396 422.4669
v 294.5941 -0.2293396 421.0168
v 293.8691 -0.2293396 421.0168
v 294.5941 -0.2293396 422.4669
v 293.8691 -0.2293396 422.4669
v 292.419 -0.2293396 421.0168
v 291.694 -0.2293396 421.0168
v 292.419 -0.2293396 421.7418
v 291.694 -0.2293396 421.7418
v 295.3192 -0.2293396 419.5667
v 293.8691 -0.2293396 419.5667
v 295.3192 -0.2293396 421.0168
v 293.8691 -0.2293396 421.0168
v 293.8691 -0.2293396 419.5667
v 293.144 -0.2293396 419.5667
v 293.8691 -0.2293396 420.2917
v 293.144 -0.2293396 420.2917
v 296.0442 -0.2293396 418.8417
v 294.5941 -0.2293396 418.8417
v 296.0442 -0.2293396 419.5667
v 294.5941 -0.2293396 419.5667
v 297.4943 -0.2293396 418.8417
v 296.0442 -0.2293396 418.8417
v 297.4943 -0.2293396 419.5667
v 296.0442 -0.2293396 419.5667
v 293.144 -0.2293396 418.1166
v 291.694 -0.2293396 418.1166
v 293.144 -0.2293396 418.8417
v 291.694 -0.2293396 418.8417
v 296.7692 -0.2293396 418.1166
v 295.3192 -0.2293396 418.1166
v 296.7692 -0.2293396 418.8417
v 295.3192 -0.2293396 418.8417
v 293.8691 -0.2293396 417.3916
v 292.419 -0.2293396 417.3916
v 293.8691 -0.2293396 418.8417
v 292.419 -0.2293396 418.8417
v 298.2193 -0.2293396 417.3916
v 297.4943 -0.2293396 417.3916
v 298.2193 -0.2293396 418.8417
v 297.4943 -0.2293396 418.8417
v 295.3192 -0.2293396 417.3916
v 294.5941 -0.2293396 417.3916
v 295.3192 -0.2293396 418.8417
v 294.5941 -0.2293396 418.8417
v 293.144 -0.2293396 417.3916
v 292.419 -0.2293396 417.3916
v 293.144 -0.2293396 418.1166
v 292.419 -0.2293396 418.1166
v 297.4943 -0.2293396 417.3916
v 296.7692 -0.2293396 417.3916
v 297.4943 -0.2293396 418.1166
v 296.7692 -0.2293396 418.1166
v 295.3192 -0.2293396 416.6666
v 293.8691 -0.2293396 416.6666
v 295.3192 -0.2293396 418.1166
v 293.8691 -0.2293396 418.1166
v 296.0442 -0.2293396 416.6666
v 295.3192 -0.2293396 416.6666
v 296.0442 -0.2293396 418.1166
v 295.3192 -0.2293396 418.1166
v 297.4943 -0.2293396 415.9415
v 296.0442 -0.2293396 415.9415
v 297.4943 -0.2293396 417.3916
v 296.0442 -0.2293396 417.3916
v 294.5941 -0.2293396 415.9415
v 293.8691 -0.2293396 415.9415
v 294.5941 -0.2293396 417.3916
v 293.8691 -0.2293396 417.3916
v 296.0442 -0.2293396 415.9415
v 294.5941 -0.2293396 415.9415
v 296.0442 -0.2293396 416.6666
v 294.5941 -0.2293396 416.6666
v 293.144 -0.2293396 415.9415
v 291.694 -0.2293396 415.9415
v 293.144 -0.2293396 416.6666
v 291.694 -0.2293396 416.6666
v 291.694 -0.2293396 415.2165
v 290.9689 -0.2293396 415.2165
v 291.694 -0.2293396 416.6666
v 290.9689 -0.2293396 416.6666
v 294.5941 -0.2293396 415.2165
v 293.8691 -0.2293396 415.2165
v 294.5941 -0.2293396 416.6666
v 293.8691 -0.2293396 416.6666
v 293.144 -0.2293396 415.2165
v 291.694 -0.2293396 415.2165
v 293.144 -0.2293396 415.9415
v 291.694 -0.2293396 415.9415
v 296.7692 -0.2293396 414.4915
v 296.0442 -0.2293396 414.4915
v 296.7692 -0.2293396 415.9415
v 296.0442 -0.2293396 415.9415
v 293.8691 -0.2293396 414.4915
v 293.144 -0.2293396 414.4915
v 293.8691 -0.2293396 415.2165
v 293.144 -0.2293396 415.2165
v 293.8691 -0.2293396 414.4915
v 293.144 -0.2293396 414.4915
v 293.8691 -0.2293396 415.2165
v 293.144 -0.2293396 415.2165
v 295.3192 -0.2293396 413.7664
v 293.8691 -0.2293396 413.7664
v 295.3192 -0.2293396 414.4915
v 293.8691 -0.2293396 414.4915
v 296.7692 -0.2293396 413.0414
v 295.3192 -0.2293396 413.0414
v 296.7692 -0.2293396 414.4915
v 295.3192 -0.2293396 414.4915
v 295.3192 -0.2293396 413.0414
v 294.5941 -0.2293396 413.0414
v 295.3192 -0.2293396 413.7664
v 294.5941 -0.2293396 413.7664
vt 0.1347656 0.9185662
vt 0.2060202 0.9185662
vt 0.1347656 1
vt 0.2060202 1
vt 0.1347656 0.9185662
vt 0.2060202 0.9185662
vt 0.1347656 1
vt 0.2060202 1
vt 0.1347656 0.9185662
vt 0.2060202 0.9185662
vt 0.1347656 1
vt 0.2060202 1
vt 0.1347656 0.9185662
vt 0.2060202 0.9185662
vt 0.1347656 1
vt 0.2060202 1
vt 0.1347656 0.9185662
vt 0.2060202 0.9185662
vt 0.1347656 1
vt 0.2060202 1
vt 0.1347656 0.9185662
vt 0.2060202 0.9185662
vt 0.1347656 1
vt 0.2060202 1
vt 0.1347656 0.9185662
vt 0.2060202 0.9185662
vt 0.1347656 1
vt 0.2060202 1
vt 0.1347656 0.9185662
vt 0.2060202 0.9185662
vt 0.1347656 1
vt 0.2060202 1
vt 0.1347656 0.9185662
vt 0.2060202 0.9185662
vt 0.1347656 1
vt 0.2060202 1
vt 0.1347656 0.9185662
vt 0.2060202 0.9185662
vt 0.1347656 1
vt 0.2060202 1
vt 0.1347656 0.9185662
vt 0.2060202 0.9185662
vt 0.1347656 1
vt 0.2060202 1
vt 0.1347656 0.9185662
vt 0.2060202 0.9185662
vt 0.1347656 1
vt 0.2060202 1
vt 0.1347656 0.9185662
vt 0.2060202 0.9185662
vt 0.1347656 1
vt 0.2060202 1
vt 0.1347656 0.9185662
vt 0.2060202 0.9185662
vt 0.1347656 1
vt 0.2060202 1
vt 0.1347656 0.9185662
vt 0.2060202 0.9185662
vt 0.1347656 1
vt 0.2060202 1
vt 0.1347656 0.9185662
vt 0.2060202 0.9185662
vt 0.1347656 1
vt 0.2060202 1
vt 0.1347656 0.9185662
vt 0.2060202 0.9185662
vt 0.1347656 1
vt 0.2060202 1
vt 0.1347656 0.9185662
vt 0.2060202 0.9185662
vt 0.1347656 1
vt 0.2060202 1
vt 0.1347656 0.9185662
vt 0.2060202 0.9185662
vt 0.1347656 1
vt 0.2060202 1
vt 0.1347656 0.9185662
vt 0.2060202 0.9185662
vt 0.1347656 1
vt 0.2060202 1
vt 0.1347656 0.9185662
vt 0.2060202 0.9185662
vt 0.1347656 1
vt 0.2060202 1
vt 0.1347656 0.9185662
vt 0.2060202 0.9185662
vt 0.1347656 1
vt 0.2060202 1
vt 0.1347656 0.9185662
vt 0.2060202 0.9185662
vt 0.1347656 1
vt 0.2060202 1
vt 0.1347656 0.9185662
vt 0.2060202 0.9185662
vt 0.1347656 1
vt 0.2060202 1
vt 0.1347656 0.9185662
vt 0.2060202 0.9185662
vt 0.1347656 1
vt 0.2060202 1
vt 0.1347656 0.9185662
vt 0.2060202 0.9185662
vt 0.1347656 1
vt 0.2060202 1
vt 0.1347656 0.9185662
vt 0.2060202 0.9185662
vt 0.1347656 1
vt 0.2060202 1
vt 0.1347656 0.9185662
vt 0.2060202 0.9185662
vt 0.1347656 1
vt 0.2060202 1
vt 0.1347656 0.9185662
vt 0.2060202 0.9185662
vt 0.1347656 1
vt 0.2060202 1
vt 0.1347656 0.9185662
vt 0.2060202 0.9185662
vt 0.1347656 1
vt 0.2060202 1
vt 0.1347656 0.9185662
vt 0.2060202 0.9185662
vt 0.1347656 1
vt 0.2060202 1
vt 0.1347656 0.9185662
vt 0.2060202 0.9185662
vt 0.1347656 1
vt 0.2060202 1
vt 0.1347656 0.9185662
vt 0.2060202 0.9185662
vt 0.1347656 1
vt 0.2060202 1
vt 0.1347656 0.9185662
vt 0.2060202 0.9185662
vt 0.1347656 1
vt 0.2060202 1
vt 0.1347656 0.9185662
vt 0.2060202 0.9185662
vt 0.1347656 1
vt 0.2060202 1
vt 0.1347656 0.9185662
vt 0.2060202 0.9185662
vt 0.1347656 1
vt 0.2060202 1
vt 0.1347656 0.9185662
vt 0.2060202 0.9185662
vt 0.1347656 1
vt 0.2060202 1
vt 0.1347656 0.9185662
vt 0.2060202 0.9185662
vt 0.1347656 1
vt 0.2060202 1
vt 0.1347656 0.9185662
vt 0.2060202 0.9185662
vt 0.1347656 1
vt 0.2060202 1
vt 0.1347656 0.9185662
vt 0.2060202 0.9185662
vt 0.1347656 1
vt 0.2060202 1
vt 0.1347656 0.9185662
vt 0.2060202 0.9185662
vt 0.1347656 1
vt 0.2060202 1
vt 0.1347656 0.9185662
vt 0.2060202 0.9185662
vt 0.1347656 1
vt 0.2060202 1
vt 0.1347656 0.9185662
vt 0.2060202 0.9185662
vt 0.1347656 1
vt 0.2060202 1
vn 0 1 0
vn 0 1 0
vn 0 1 0
vn 0 1 0
vn 0 1 0
vn 0 1 0
vn 0 1 0
vn 0 1 0
vn 0 1 0
vn 0 1 0
vn 0 1 0
vn 0 1 0
vn 0 1 0
vn 0 1 0
vn 0 1 0
vn 0 1 0
vn 0 1 0
vn 0 1 0
vn 0 1 0
vn 0 1 0
vn 0 1 0
vn 0 1 0
vn 0 1 0
vn 0 1 0
vn 0 1 0
vn 0 1 0
vn 0 1 0
vn 0 1 0
vn 0 1 0
vn 0 1 0
vn 0 1 0
vn 0 1 0
vn 0 1 0
vn 0 1 0
vn 0 1 0
vn 0 1 0
vn 0 1 0
vn 0 1 0
vn 0 1 0
vn 0 1 0
vn 0 1 0
vn 0 1 0
vn 0 1 0
vn 0 1 0
vn 0 1 0
vn 0 1 0
vn 0 1 0
vn 0 1 0
vn 0 1 0
vn 0 1 0
vn 0 1 0
vn 0 1 0
vn 0 1 0
vn 0 1 0
vn 0 1 0
vn 0 1 0
vn 0 1 0
vn 0 1 0
vn 0 1 0
vn 0 1 0
vn 0 1 0
vn 0 1 0
vn 0 1 0
vn 0 1 0
vn 0 1 0
vn 0 1 0
vn 0 1 0
vn 0 1 0
vn 0 1 0
vn 0 1 0
vn 0 1 0
vn 0 1 0
vn 0 1 0
vn 0 1 0
vn 0 1 0
vn 0 1 0
vn 0 1 0
vn 0 1 0
vn 0 1 0
vn 0 1 0
vn 0 1 0
vn 0 1 0
vn 0 1 0
vn 0 1 0
vn 0 1 0
vn 0 1 0
vn 0 1 0
vn 0 1 0
vn 0 1 0
vn 0 1 0
vn 0 1 0
vn 0 1 0
vn 0 1 0
vn 0 1 0
vn 0 1 0
vn 0 1 0
vn 0 1 0
vn 0 1 0
vn 0 1 0
vn 0 1 0
vn 0 1 0
vn 0 1 0
vn 0 1 0
vn 0 1 0
vn 0 1 0
vn 0 1 0
vn 0 1 0
vn 0 1 0
vn 0 1 0
vn 0 1 0
vn 0 1 0
vn 0 1 0
vn 0 1 0
vn 0 1 0
vn 0 1 0
vn 0 1 0
vn 0 1 0
vn 0 1 0
vn 0 1 0
vn 0 1 0
vn 0 1 0
vn 0 1 0
vn 0 1 0
vn 0 1 0
vn 0 1 0
vn 0 1 0
vn 0 1 0
vn 0 1 0
vn 0 1 0
vn 0 1 0
vn 0 1 0
vn 0 1 0
vn 0 1 0
vn 0 1 0
vn 0 1 0
vn 0 1 0
vn 0 1 0
vn 0 1 0
vn 0 1 0
vn 0 1 0
vn 0 1 0
vn 0 1 0
vn 0 1 0
vn 0 1 0
vn 0 1 0
vn 0 1 0
vn 0 1 0
vn 0 1 0
vn 0 1 0
vn 0 1 0
vn 0 1 0
vn 0 1 0
vn 0 1 0
vn 0 1 0
vn 0 1 0
vn 0 1 0
vn 0 1 0
vn 0 1 0
vn 0 1 0
vn 0 1 0
vn 0 1 0
vn 0 1 0
vn 0 1 0
vn 0 1 0
vn 0 1 0
vn 0 1 0
vn 0 1 0
vn 0 1 0
vn 0 1 0
vn 0 1 0
vn 0 1 0
vn 0 1 0
g Grass_2_Cluster300_0
f 2/2/2 3/3/3 1/1/1
f 2/2/2 4/4/4 3/3/3
f 6/6/6 7/7/7 5/5/5
f 6/6/6 8/8/8 7/7/7
f 10/10/10 11/11/11 9/9/9
f 10/10/10 12/12/12 11/11/11
f 14/14/14 15/15/15 13/13/13
f 14/14/14 16/16/16 15/15/15
f 18/18/18 19/19/19 17/17/17
f 18/18/18 20/20/20 19/19/19
f 22/22/22 23/23/23 21/21/21
f 22/22/22 24/24/24 23/23/23
f 26/26/26 27/27/27 25/25/25
f 26/26/26 28/28/28 27/27/27
f 30/30/30 31/31/31 29/29/29
f 30/30/30 32/32/32 31/31/31
f 34/34/34 35/35/35 33/33/33
f 34/34/34 36/36/36 35/35/35
f 38/38/38 39/39/39 37/37/37
f 38/38/38 40/40/40 39/39/39
f 42/42/42 43/43/43 41/41/41
f 42/42/42 44/44/44 43/43/43
f 46/46/46 47/47/47 45/45/45
f 46/46/46 48/48/48 47/47/47
f 50/50/50 51/51/51 49/49/49
f 50/50/50 52/52/52 51/51/51
f 54/54/54 55/55/55 53/53/53
f 54/54/54 56/56/56 55/55/55
f 58/58/58 59/59/59 57/57/57
f 58/58/58 60/60/60 59/59/59
f 62/62/62 63/63/63 61/61/61
f 62/62/62 64/64/64 63/63/63
f 66/66/66 67/67/67 65/65/65
f 66/66/66 68/68/68 67/67/67
f 70/70/70 71/71/71 69/69/69
f 70/70/70 72/72/72 71/71/71
f 74/74/74 75/75/75 73/73/73
f 74/74/74 76/76/76 75/75/75
f 78/78/78 79/79/79 77/77/77
f 78/78/78 80/80/80 79/79/79
f 82/82/82 83/83/83 81/81/81
f 82/82/82 84/84/84 83/83/83
f 86/86/86 87/87/87 85/85/85
f 86/86/86 88/88/88 87/87/87
f 90/90/90 91/91/91 89/89/89
f 90/90/90 92/92/92 91/91/91
f 94/94/94 95/95/95 93/93/93
f 94/94/94 96/96/96 95/95/95
f 98/98/98 99/99/99 97/97/97
f 98/98/98 100/100/100 99/99/99
f 102/102/102 103/103/103 101/101/101
f 102/102/102 104/104/104 103/103/103
f 106/106/106 107/107/107 105/105/105
f 106/106/106 108/108/108 107/107/107
f 110/110/110 111/111/111 109/109/109
f 110/110/110 112/112/112 111/111/111
f 114/114/114 115/115/115 113/113/113
f 114/114/114 116/116/116 115/115/115
f 118/118/118 119/119/119 117/117/117
f 118/118/118 120/120/120 119/119/119
f 122/122/122 123/123/123 121/121/121
f 122/122/122 124/124/124 123/123/123
f 126/126/126 127/127/127 125/125/125
f 126/126/126 128/128/128 127/127/127
f 130/130/130 131/131/131 129/129/129
f 130/130/130 132/132/132 131/131/131
f 134/134/134 135/135/135 133/133/133
f 134/134/134 136/136/136 135/135/135
f 138/138/138 139/139/139 137/137/137
f 138/138/138 140/140/140 139/139/139
f 142/142/142 143/143/143 141/141/141
f 142/142/142 144/144/144 143/143/143
f 146/146/146 147/147/147 145/145/145
f 146/146/146 148/148/148 147/147/147
f 150/150/150 151/151/151 149/149/149
f 150/150/150 152/152/152 151/151/151
f 154/154/154 155/155/155 153/153/153
f 154/154/154 156/156/156 155/155/155
f 158/158/158 159/159/159 157/157/157
f 158/158/158 160/160/160 159/159/159
f 162/162/162 163/163/163 161/161/161
f 162/162/162 164/164/164 163/163/163
f 166/166/166 167/167/167 165/165/165
f 166/166/166 168/168/168 167/167/167
f 170/170/170 171/171/171 169/169/169
f 170/170/170 172/172/172 171/171/171
