g Grass_2_Cluster182
v 235.4913 -0.01803589 262.9844
v 234.5081 -0.01803589 262.9844
v 235.4913 -0.01803589 263.9676
v 234.5081 -0.01803589 263.9676
v 238.9324 -0.01803589 262.4929
v 237.9492 -0.01803589 262.4929
v 238.9324 -0.01803589 263.9676
v 237.9492 -0.01803589 263.9676
v 237.4577 -0.01803589 262.4929
v 236.4745 -0.01803589 262.4929
v 237.4577 -0.01803589 263.476
v 236.4745 -0.01803589 263.476
v 235.4913 -0.01803589 262.0013
v 234.5081 -0.01803589 262.0013
v 235.4913 -0.01803589 262.9844
v 234.5081 -0.01803589 262.9844
v 219.7603 -0.01803589 258.5601
v 218.7771 -0.01803589 258.5601
v 219.7603 -0.01803589 259.5433
v 218.7771 -0.01803589 259.5433
v 220.2519 -0.01803589 256.1021
v 219.2687 -0.01803589 256.1021
v 220.2519 -0.01803589 257.0853
v 219.2687 -0.01803589 257.0853
v 219.2687 -0.01803589 256.1021
v 218.7771 -0.01803589 256.1021
v 219.2687 -0.01803589 257.0853
v 218.7771 -0.01803589 257.0853
v 220.7435 -0.01803589 255.6105
v 219.7603 -0.01803589 255.6105
v 220.7435 -0.01803589 256.5937
v 219.7603 -0.01803589 256.5937
v 220.2519 -0.01803589 255.6105
v 219.2687 -0.01803589 255.6105
v 220.2519 -0.01803589 256.5937
v 219.2687 -0.01803589 256.5937
v 218.2855 -0.01803589 255.119
v 217.7939 -0.01803589 255.119
v 218.2855 -0.01803589 256.1021
v 217.7939 -0.01803589 256.1021
v 221.7267 -0.01803589 255.119
v 220.7435 -0.01803589 255.119
v 221.7267 -0.01803589 256.1021
v 220.7435 -0.01803589 256.1021
v 217.7939 -0.01803589 254.6273
v 216.8107 -0.01803589 254.6273
v 217.7939 -0.01803589 255.6105
v 216.8107 -0.01803589 255.6105
v 219.7603 -0.01803589 254.1358
v 218.7771 -0.01803589 254.1358
v 219.7603 -0.01803589 255.6105
v 218.7771 -0.01803589 255.6105
v 221.7267 -0.01803589 253.6442
v 220.7435 -0.01803589 253.6442
v 221.7267 -0.01803589 254.6273
v 220.7435 -0.01803589 254.6273
v 219.2687 -0.01803589 253.1526
v 218.2855 -0.01803589 253.1526
v 219.2687 -0.01803589 254.6273
v 218.2855 -0.01803589 254.6273
v 235.4913 -0.01803589 249.7114
v 234.9997 -0.01803589 249.7114
v 235.4913 -0.01803589 251.1862
v 234.9997 -0.01803589 251.1862
v 234.9997 -0.01803589 249.2198
v 234.0165 -0.01803589 249.2198
v 234.9997 -0.01803589 250.6946
v 234.0165 -0.01803589 250.6946
v 234.9997 -0.01803589 247.7451
v 234.0165 -0.01803589 247.7451
v 234.9997 -0.01803589 248.7282
v 234.0165 -0.01803589 248.7282
v 236.9661 -0.01803589 247.7451
v 235.9829 -0.01803589 247.7451
v 236.9661 -0.01803589 248.7282
v 235.9829 -0.01803589 248.7282
v 234.0165 -0.01803589 247.7451
v 233.0333 -0.01803589 247.7451
v 234.0165 -0.01803589 248.7282
v 233.0333 -0.01803589 248.7282
v 235.9829 -0.01803589 247.2534
v 234.9997 -0.01803589 247.2534
v 235.9829 -0.01803589 248.2366
v 234.9997 -0.01803589 248.2366
v 211.4032 -0.01803589 246.7619
v 210.42 -0.01803589 246.7619
v 211.4032 -0.01803589 248.2366
v 210.42 -0.01803589 248.2366
v 238.9324 -0.01803589 246.2703
v 237.9492 -0.01803589 246.2703
v 238.9324 -0.01803589 247.7451
v 237.9492 -0.01803589 247.7451
v 235.4913 -0.01803589 246.2703
v 234.5081 -0.01803589 246.2703
v 235.4913 -0.01803589 247.2534
v 234.5081 -0.01803589 247.2534
v 234.0165 -0.01803589 246.2703
v 233.0333 -0.01803589 246.2703
v 234.0165 -0.01803589 247.2534
v 233.0333 -0.01803589 247.2534
v 238.4408 -0.01803589 245.7787
v 237.4577 -0.01803589 245.7787
v 238.4408 -0.01803589 246.7619
v 237.4577 -0.01803589 246.7619
v 236.4745 -0.01803589 245.2871
v 235.4913 -0.01803589 245.2871
v 236.4745 -0.01803589 246.2703
v 235.4913 -0.01803589 246.2703
v 237.4577 -0.01803589 244.7955
v 236.4745 -0.01803589 244.7955
v 237.4577 -0.01803589 246.2703
v 236.4745 -0.01803589 246.2703
v 236.9661 -0.01803589 244.7955
v 235.9829 -0.01803589 244.7955
v 236.9661 -0.01803589 245.7787
v 235.9829 -0.01803589 245.7787
v 225.1678 -0.01803589 237.4216
v 224.1846 -0.01803589 237.4216
v 225.1678 -0.01803589 238.4048
v 224.1846 -0.01803589 238.4048
v 212.3864 -0.01803589 236.4384
v 211.4032 -0.01803589 236.4384
v 212.3864 -0.01803589 237.4216
v 211.4032 -0.01803589 237.4216
v 227.6258 -0.01803589 233.9804
v 226.6426 -0.01803589 233.9804
v 227.6258 -0.01803589 234.9636
v 226.6426 -0.01803589 234.9636
v 225.1678 -0.01803589 233.4888
v 224.1846 -0.01803589 233.4888
v 225.1678 -0.01803589 234.472
v 224.1846 -0.01803589 234.472
vt 0.1347656 0.9185662
vt 0.2060202 0.9185662
vt 0.1347656 1
vt 0.2060202 1
vt 0.1347656 0.9185662
vt 0.2060202 0.9185662
vt 0.1347656 1
vt 0.2060202 1
vt 0.1347656 0.9185662
vt 0.2060202 0.9185662
vt 0.1347656 1
vt 0.2060202 1
vt 0.1347656 0.9185662
vt 0.2060202 0.9185662
vt 0.1347656 1
vt 0.2060202 1
vt 0.1347656 0.9185662
vt 0.2060202 0.9185662
vt 0.1347656 1
vt 0.2060202 1
vt 0.1347656 0.9185662
vt 0.2060202 0.9185662
vt 0.1347656 1
vt 0.2060202 1
vt 0.1347656 0.9185662
vt 0.2060202 0.9185662
vt 0.1347656 1
vt 0.2060202 1
vt 0.1347656 0.9185662
vt 0.2060202 0.9185662
vt 0.1347656 1
vt 0.2060202 1
vt 0.1347656 0.9185662
vt 0.2060202 0.9185662
vt 0.1347656 1
vt 0.2060202 1
vt 0.1347656 0.9185662
vt 0.2060202 0.9185662
vt 0.1347656 1
vt 0.2060202 1
vt 0.1347656 0.9185662
vt 0.2060202 0.9185662
vt 0.1347656 1
vt 0.2060202 1
vt 0.1347656 0.9185662
vt 0.2060202 0.9185662
vt 0.1347656 1
vt 0.2060202 1
vt 0.1347656 0.9185662
vt 0.2060202 0.9185662
vt 0.1347656 1
vt 0.2060202 1
vt 0.1347656 0.9185662
vt 0.2060202 0.9185662
vt 0.1347656 1
vt 0.2060202 1
vt 0.1347656 0.9185662
vt 0.2060202 0.9185662
vt 0.1347656 1
vt 0.2060202 1
vt 0.1347656 0.9185662
vt 0.2060202 0.9185662
vt 0.1347656 1
vt 0.2060202 1
vt 0.1347656 0.9185662
vt 0.2060202 0.9185662
vt 0.1347656 1
vt 0.2060202 1
vt 0.1347656 0.9185662
vt 0.2060202 0.9185662
vt 0.1347656 1
vt 0.2060202 1
vt 0.1347656 0.9185662
vt 0.2060202 0.9185662
vt 0.1347656 1
vt 0.2060202 1
vt 0.1347656 0.9185662
vt 0.2060202 0.9185662
vt 0.1347656 1
vt 0.2060202 1
vt 0.1347656 0.9185662
vt 0.2060202 0.9185662
vt 0.1347656 1
vt 0.2060202 1
vt 0.1347656 0.9185662
vt 0.2060202 0.9185662
vt 0.1347656 1
vt 0.2060202 1
vt 0.1347656 0.9185662
vt 0.2060202 0.9185662
vt 0.1347656 1
vt 0.2060202 1
vt 0.1347656 0.9185662
vt 0.2060202 0.9185662
vt 0.1347656 1
vt 0.2060202 1
vt 0.1347656 0.9185662
vt 0.2060202 0.9185662
vt 0.1347656 1
vt 0.2060202 1
vt 0.1347656 0.9185662
vt 0.2060202 0.9185662
vt 0.1347656 1
vt 0.2060202 1
vt 0.1347656 0.9185662
vt 0.2060202 0.9185662
vt 0.1347656 1
vt 0.2060202 1
vt 0.1347656 0.9185662
vt 0.2060202 0.9185662
vt 0.1347656 1
vt 0.2060202 1
vt 0.1347656 0.9185662
vt 0.2060202 0.9185662
vt 0.1347656 1
vt 0.2060202 1
vt 0.1347656 0.9185662
vt 0.2060202 0.9185662
vt 0.1347656 1
vt 0.2060202 1
vt 0.1347656 0.9185662
vt 0.2060202 0.9185662
vt 0.1347656 1
vt 0.2060202 1
vt 0.1347656 0.9185662
vt 0.2060202 0.9185662
vt 0.1347656 1
vt 0.2060202 1
vt 0.1347656 0.9185662
vt 0.2060202 0.9185662
vt 0.1347656 1
vt 0.2060202 1
vn 0 1 0
vn 0 1 0
vn 0 1 0
vn 0 1 0
vn 0 1 0
vn 0 1 0
vn 0 1 0
vn 0 1 0
vn 0 1 0
vn 0 1 0
vn 0 1 0
vn 0 1 0
vn 0 1 0
vn 0 1 0
vn 0 1 0
vn 0 1 0
vn 0 1 0
vn 0 1 0
vn 0 1 0
vn 0 1 0
vn 0 1 0
vn 0 1 0
vn 0 1 0
vn 0 1 0
vn 0 1 0
vn 0 1 0
vn 0 1 0
vn 0 1 0
vn 0 1 0
vn 0 1 0
vn 0 1 0
vn 0 1 0
vn 0 1 0
vn 0 1 0
vn 0 1 0
vn 0 1 0
vn 0 1 0
vn 0 1 0
vn 0 1 0
vn 0 1 0
vn 0 1 0
vn 0 1 0
vn 0 1 0
vn 0 1 0
vn 0 1 0
vn 0 1 0
vn 0 1 0
vn 0 1 0
vn 0 1 0
vn 0 1 0
vn 0 1 0
vn 0 1 0
vn 0 1 0
vn 0 1 0
vn 0 1 0
vn 0 1 0
vn 0 1 0
vn 0 1 0
vn 0 1 0
vn 0 1 0
vn 0 1 0
vn 0 1 0
vn 0 1 0
vn 0 1 0
vn 0 1 0
vn 0 1 0
vn 0 1 0
vn 0 1 0
vn 0 1 0
vn 0 1 0
vn 0 1 0
vn 0 1 0
vn 0 1 0
vn 0 1 0
vn 0 1 0
vn 0 1 0
vn 0 1 0
vn 0 1 0
vn 0 1 0
vn 0 1 0
vn 0 1 0
vn 0 1 0
vn 0 1 0
vn 0 1 0
vn 0 1 0
vn 0 1 0
vn 0 1 0
vn 0 1 0
vn 0 1 0
vn 0 1 0
vn 0 1 0
vn 0 1 0
vn 0 1 0
vn 0 1 0
vn 0 1 0
vn 0 1 0
vn 0 1 0
vn 0 1 0
vn 0 1 0
vn 0 1 0
vn 0 1 0
vn 0 1 0
vn 0 1 0
vn 0 1 0
vn 0 1 0
vn 0 1 0
vn 0 1 0
vn 0 1 0
vn 0 1 0
vn 0 1 0
vn 0 1 0
vn 0 1 0
vn 0 1 0
vn 0 1 0
vn 0 1 0
vn 0 1 0
vn 0 1 0
vn 0 1 0
vn 0 1 0
vn 0 1 0
vn 0 1 0
vn 0 1 0
vn 0 1 0
vn 0 1 0
vn 0 1 0
vn 0 1 0
vn 0 1 0
vn 0 1 0
vn 0 1 0
vn 0 1 0
vn 0 1 0
vn 0 1 0
g Grass_2_Cluster182_0
f 2/2/2 3/3/3 1/1/1
f 2/2/2 4/4/4 3/3/3
f 6/6/6 7/7/7 5/5/5
f 6/6/6 8/8/8 7/7/7
f 10/10/10 11/11/11 9/9/9
f 10/10/10 12/12/12 11/11/11
f 14/14/14 15/15/15 13/13/13
f 14/14/14 16/16/16 15/15/15
f 18/18/18 19/19/19 17/17/17
f 18/18/18 20/20/20 19/19/19
f 22/22/22 23/23/23 21/21/21
f 22/22/22 24/24/24 23/23/23
f 26/26/26 27/27/27 25/25/25
f 26/26/26 28/28/28 27/27/27
f 30/30/30 31/31/31 29/29/29
f 30/30/30 32/32/32 31/31/31
f 34/34/34 35/35/35 33/33/33
f 34/34/34 36/36/36 35/35/35
f 38/38/38 39/39/39 37/37/37
f 38/38/38 40/40/40 39/39/39
f 42/42/42 43/43/43 41/41/41
f 42/42/42 44/44/44 43/43/43
f 46/46/46 47/47/47 45/45/45
f 46/46/46 48/48/48 47/47/47
f 50/50/50 51/51/51 49/49/49
f 50/50/50 52/52/52 51/51/51
f 54/54/54 55/55/55 53/53/53
f 54/54/54 56/56/56 55/55/55
f 58/58/58 59/59/59 57/57/57
f 58/58/58 60/60/60 59/59/59
f 62/62/62 63/63/63 61/61/61
f 62/62/62 64/64/64 63/63/63
f 66/66/66 67/67/67 65/65/65
f 66/66/66 68/68/68 67/67/67
f 70/70/70 71/71/71 69/69/69
f 70/70/70 72/72/72 71/71/71
f 74/74/74 75/75/75 73/73/73
f 74/74/74 76/76/76 75/75/75
f 78/78/78 79/79/79 77/77/77
f 78/78/78 80/80/80 79/79/79
f 82/82/82 83/83/83 81/81/81
f 82/82/82 84/84/84 83/83/83
f 86/86/86 87/87/87 85/85/85
f 86/86/86 88/88/88 87/87/87
f 90/90/90 91/91/91 89/89/89
f 90/90/90 92/92/92 91/91/91
f 94/94/94 95/95/95 93/93/93
f 94/94/94 96/96/96 95/95/95
f 98/98/98 99/99/99 97/97/97
f 98/98/98 100/100/100 99/99/99
f 102/102/102 103/103/103 101/101/101
f 102/102/102 104/104/104 103/103/103
f 106/106/106 107/107/107 105/105/105
f 106/106/106 108/108/108 107/107/107
f 110/110/110 111/111/111 109/109/109
f 110/110/110 112/112/112 111/111/111
f 114/114/114 115/115/115 113/113/113
f 114/114/114 116/116/116 115/115/115
f 118/118/118 119/119/119 117/117/117
f 118/118/118 120/120/120 119/119/119
f 122/122/122 123/123/123 121/121/121
f 122/122/122 124/124/124 123/123/123
f 126/126/126 127/127/127 125/125/125
f 126/126/126 128/128/128 127/127/127
f 130/130/130 131/131/131 129/129/129
f 130/130/130 132/132/132 131/131/131
