g Grass_0_Cluster111
v -39.78979 0 142.709
v -40.6334 0 142.709
v -39.78979 0 143.8338
v -40.6334 0 143.8338
v -53.99039 0 142.5684
v -54.834 0 142.5684
v -53.99039 0 143.8338
v -54.834 0 143.8338
v -40.4928 0 141.7248
v -41.477 0 141.7248
v -40.4928 0 143.1308
v -41.477 0 143.1308
v -38.24319 0 141.4436
v -39.0868 0 141.4436
v -38.24319 0 142.5684
v -39.0868 0 142.5684
v -39.50859 0 141.303
v -40.3522 0 141.303
v -39.50859 0 142.5684
v -40.3522 0 142.5684
v -38.8056 0 141.1624
v -39.6492 0 141.1624
v -38.8056 0 142.4278
v -39.6492 0 142.4278
v -56.80239 0 140.7406
v -57.78659 0 140.7406
v -56.80239 0 142.006
v -57.78659 0 142.006
v -40.3522 0 140.7406
v -41.3364 0 140.7406
v -40.3522 0 142.006
v -41.3364 0 142.006
v -41.05519 0 140.1782
v -41.8988 0 140.1782
v -41.05519 0 141.4436
v -41.8988 0 141.4436
v -56.23999 0 140.0376
v -57.0836 0 140.0376
v -56.23999 0 141.303
v -57.0836 0 141.303
v -39.368 0 139.194
v -40.2116 0 139.194
v -39.368 0 140.4594
v -40.2116 0 140.4594
v -36.2748 0 138.3504
v -37.1184 0 138.3504
v -36.2748 0 139.6158
v -37.1184 0 139.6158
v -37.6808 0 138.3504
v -38.52439 0 138.3504
v -37.6808 0 139.7564
v -38.52439 0 139.7564
v -38.3838 0 137.085
v -39.368 0 137.085
v -38.3838 0 138.491
v -39.368 0 138.491
v -36.8372 0 136.382
v -37.6808 0 136.382
v -36.8372 0 137.6474
v -37.6808 0 137.6474
v -37.3996 0 135.2572
v -38.24319 0 135.2572
v -37.3996 0 136.5226
v -38.24319 0 136.5226
v -31.9162 0 134.1324
v -32.9004 0 134.1324
v -31.9162 0 135.3978
v -32.9004 0 135.3978
v -57.92719 0 133.1482
v -58.77079 0 133.1482
v -57.92719 0 134.4136
v -58.77079 0 134.4136
v -30.7914 0 129.6332
v -31.7756 0 129.6332
v -30.7914 0 131.0392
v -31.7756 0 131.0392
v -57.50539 0 129.0708
v -58.48959 0 129.0708
v -57.50539 0 130.3362
v -58.48959 0 130.3362
v -31.4944 0 127.243
v -32.338 0 127.243
v -31.4944 0 128.5084
v -32.338 0 128.5084
v -58.06779 0 127.1024
v -59.05199 0 127.1024
v -58.06779 0 128.3678
v -59.05199 0 128.3678
v -58.9114 0 126.54
v -59.75499 0 126.54
v -58.9114 0 127.6648
v -59.75499 0 127.6648
v -57.92719 0 126.3994
v -58.77079 0 126.3994
v -57.92719 0 127.6648
v -58.77079 0 127.6648
v -34.447 0 126.3994
v -35.2906 0 126.3994
v -34.447 0 127.5242
v -35.2906 0 127.5242
v -58.20839 0 125.837
v -59.05199 0 125.837
v -58.20839 0 126.9618
v -59.05199 0 126.9618
v -31.2132 0 125.6964
v -32.0568 0 125.6964
v -31.2132 0 126.8212
v -32.0568 0 126.8212
v -56.0994 0 125.4152
v -56.94299 0 125.4152
v -56.0994 0 126.6806
v -56.94299 0 126.6806
v -45.55439 0 125.134
v -46.39799 0 125.134
v -45.55439 0 126.3994
v -46.39799 0 126.3994
v -35.9936 0 125.134
v -36.8372 0 125.134
v -35.9936 0 126.3994
v -36.8372 0 126.3994
v -42.6018 0 124.9934
v -43.58599 0 124.9934
v -42.6018 0 126.1182
v -43.58599 0 126.1182
v -56.52119 0 124.7122
v -57.50539 0 124.7122
v -56.52119 0 125.9776
v -57.50539 0 125.9776
v -58.6302 0 124.5716
v -59.47379 0 124.5716
v -58.6302 0 125.9776
v -59.47379 0 125.9776
v -34.1658 0 124.2904
v -35.15 0 124.2904
v -34.1658 0 125.5558
v -35.15 0 125.5558
v -57.3648 0 124.1498
v -58.20839 0 124.1498
v -57.3648 0 125.2746
v -58.20839 0 125.2746
v -58.9114 0 123.8686
v -59.75499 0 123.8686
v -58.9114 0 125.134
v -59.75499 0 125.134
v -30.0884 0 123.5874
v -30.932 0 123.5874
v -30.0884 0 124.8528
v -30.932 0 124.8528
v -46.5386 0 123.3062
v -47.38219 0 123.3062
v -46.5386 0 124.5716
v -47.38219 0 124.5716
v -57.646 0 122.8844
v -58.48959 0 122.8844
v -57.646 0 124.0092
v -58.48959 0 124.0092
v -36.4154 0 122.7438
v -37.259 0 122.7438
v -36.4154 0 124.0092
v -37.259 0 124.0092
v -56.23999 0 122.6032
v -57.0836 0 122.6032
v -56.23999 0 123.728
v -57.0836 0 123.728
v -43.8672 0 122.4626
v -44.7108 0 122.4626
v -43.8672 0 123.728
v -44.7108 0 123.728
v -46.9604 0 121.9002
v -47.804 0 121.9002
v -46.9604 0 123.1656
v -47.804 0 123.1656
v -56.3806 0 121.9002
v -57.22419 0 121.9002
v -56.3806 0 123.1656
v -57.22419 0 123.1656
v -37.1184 0 121.3378
v -37.962 0 121.3378
v -37.1184 0 122.6032
v -37.962 0 122.6032
v -39.0868 0 121.3378
v -39.9304 0 121.3378
v -39.0868 0 122.6032
v -39.9304 0 122.6032
v -53.70919 0 120.213
v -54.5528 0 120.213
v -53.70919 0 121.3378
v -54.5528 0 121.3378
v -46.9604 0 119.2288
v -47.804 0 119.2288
v -46.9604 0 120.4942
v -47.804 0 120.4942
v -47.5228 0 117.401
v -48.36639 0 117.401
v -47.5228 0 118.5258
v -48.36639 0 118.5258
vt 0 0.9058824
vt 0.06666667 0.9058824
vt 0 1
vt 0.06666667 1
vt 0 0.9058824
vt 0.06666667 0.9058824
vt 0 1
vt 0.06666667 1
vt 0 0.9058824
vt 0.06666667 0.9058824
vt 0 1
vt 0.06666667 1
vt 0 0.9058824
vt 0.06666667 0.9058824
vt 0 1
vt 0.06666667 1
vt 0 0.9058824
vt 0.06666667 0.9058824
vt 0 1
vt 0.06666667 1
vt 0 0.9058824
vt 0.06666667 0.9058824
vt 0 1
vt 0.06666667 1
vt 0 0.9058824
vt 0.06666667 0.9058824
vt 0 1
vt 0.06666667 1
vt 0 0.9058824
vt 0.06666667 0.9058824
vt 0 1
vt 0.06666667 1
vt 0 0.9058824
vt 0.06666667 0.9058824
vt 0 1
vt 0.06666667 1
vt 0 0.9058824
vt 0.06666667 0.9058824
vt 0 1
vt 0.06666667 1
vt 0 0.9058824
vt 0.06666667 0.9058824
vt 0 1
vt 0.06666667 1
vt 0 0.9058824
vt 0.06666667 0.9058824
vt 0 1
vt 0.06666667 1
vt 0 0.9058824
vt 0.06666667 0.9058824
vt 0 1
vt 0.06666667 1
vt 0 0.9058824
vt 0.06666667 0.9058824
vt 0 1
vt 0.06666667 1
vt 0 0.9058824
vt 0.06666667 0.9058824
vt 0 1
vt 0.06666667 1
vt 0 0.9058824
vt 0.06666667 0.9058824
vt 0 1
vt 0.06666667 1
vt 0 0.9058824
vt 0.06666667 0.9058824
vt 0 1
vt 0.06666667 1
vt 0 0.9058824
vt 0.06666667 0.9058824
vt 0 1
vt 0.06666667 1
vt 0 0.9058824
vt 0.06666667 0.9058824
vt 0 1
vt 0.06666667 1
vt 0 0.9058824
vt 0.06666667 0.9058824
vt 0 1
vt 0.06666667 1
vt 0 0.9058824
vt 0.06666667 0.9058824
vt 0 1
vt 0.06666667 1
vt 0 0.9058824
vt 0.06666667 0.9058824
vt 0 1
vt 0.06666667 1
vt 0 0.9058824
vt 0.06666667 0.9058824
vt 0 1
vt 0.06666667 1
vt 0 0.9058824
vt 0.06666667 0.9058824
vt 0 1
vt 0.06666667 1
vt 0 0.9058824
vt 0.06666667 0.9058824
vt 0 1
vt 0.06666667 1
vt 0 0.9058824
vt 0.06666667 0.9058824
vt 0 1
vt 0.06666667 1
vt 0 0.9058824
vt 0.06666667 0.9058824
vt 0 1
vt 0.06666667 1
vt 0 0.9058824
vt 0.06666667 0.9058824
vt 0 1
vt 0.06666667 1
vt 0 0.9058824
vt 0.06666667 0.9058824
vt 0 1
vt 0.06666667 1
vt 0 0.9058824
vt 0.06666667 0.9058824
vt 0 1
vt 0.06666667 1
vt 0 0.9058824
vt 0.06666667 0.9058824
vt 0 1
vt 0.06666667 1
vt 0 0.9058824
vt 0.06666667 0.9058824
vt 0 1
vt 0.06666667 1
vt 0 0.9058824
vt 0.06666667 0.9058824
vt 0 1
vt 0.06666667 1
vt 0 0.9058824
vt 0.06666667 0.9058824
vt 0 1
vt 0.06666667 1
vt 0 0.9058824
vt 0.06666667 0.9058824
vt 0 1
vt 0.06666667 1
vt 0 0.9058824
vt 0.06666667 0.9058824
vt 0 1
vt 0.06666667 1
vt 0 0.9058824
vt 0.06666667 0.9058824
vt 0 1
vt 0.06666667 1
vt 0 0.9058824
vt 0.06666667 0.9058824
vt 0 1
vt 0.06666667 1
vt 0 0.9058824
vt 0.06666667 0.9058824
vt 0 1
vt 0.06666667 1
vt 0 0.9058824
vt 0.06666667 0.9058824
vt 0 1
vt 0.06666667 1
vt 0 0.9058824
vt 0.06666667 0.9058824
vt 0 1
vt 0.06666667 1
vt 0 0.9058824
vt 0.06666667 0.9058824
vt 0 1
vt 0.06666667 1
vt 0 0.9058824
vt 0.06666667 0.9058824
vt 0 1
vt 0.06666667 1
vt 0 0.9058824
vt 0.06666667 0.9058824
vt 0 1
vt 0.06666667 1
vt 0 0.9058824
vt 0.06666667 0.9058824
vt 0 1
vt 0.06666667 1
vt 0 0.9058824
vt 0.06666667 0.9058824
vt 0 1
vt 0.06666667 1
vt 0 0.9058824
vt 0.06666667 0.9058824
vt 0 1
vt 0.06666667 1
vt 0 0.9058824
vt 0.06666667 0.9058824
vt 0 1
vt 0.06666667 1
vt 0 0.9058824
vt 0.06666667 0.9058824
vt 0 1
vt 0.06666667 1
vn 0 1 0
vn 0 1 0
vn 0 1 0
vn 0 1 0
vn 0 1 0
vn 0 1 0
vn 0 1 0
vn 0 1 0
vn 0 1 0
vn 0 1 0
vn 0 1 0
vn 0 1 0
vn 0 1 0
vn 0 1 0
vn 0 1 0
vn 0 1 0
vn 0 1 0
vn 0 1 0
vn 0 1 0
vn 0 1 0
vn 0 1 0
vn 0 1 0
vn 0 1 0
vn 0 1 0
vn 0 1 0
vn 0 1 0
vn 0 1 0
vn 0 1 0
vn 0 1 0
vn 0 1 0
vn 0 1 0
vn 0 1 0
vn 0 1 0
vn 0 1 0
vn 0 1 0
vn 0 1 0
vn 0 1 0
vn 0 1 0
vn 0 1 0
vn 0 1 0
vn 0 1 0
vn 0 1 0
vn 0 1 0
vn 0 1 0
vn 0 1 0
vn 0 1 0
vn 0 1 0
vn 0 1 0
vn 0 1 0
vn 0 1 0
vn 0 1 0
vn 0 1 0
vn 0 1 0
vn 0 1 0
vn 0 1 0
vn 0 1 0
vn 0 1 0
vn 0 1 0
vn 0 1 0
vn 0 1 0
vn 0 1 0
vn 0 1 0
vn 0 1 0
vn 0 1 0
vn 0 1 0
vn 0 1 0
vn 0 1 0
vn 0 1 0
vn 0 1 0
vn 0 1 0
vn 0 1 0
vn 0 1 0
vn 0 1 0
vn 0 1 0
vn 0 1 0
vn 0 1 0
vn 0 1 0
vn 0 1 0
vn 0 1 0
vn 0 1 0
vn 0 1 0
vn 0 1 0
vn 0 1 0
vn 0 1 0
vn 0 1 0
vn 0 1 0
vn 0 1 0
vn 0 1 0
vn 0 1 0
vn 0 1 0
vn 0 1 0
vn 0 1 0
vn 0 1 0
vn 0 1 0
vn 0 1 0
vn 0 1 0
vn 0 1 0
vn 0 1 0
vn 0 1 0
vn 0 1 0
vn 0 1 0
vn 0 1 0
vn 0 1 0
vn 0 1 0
vn 0 1 0
vn 0 1 0
vn 0 1 0
vn 0 1 0
vn 0 1 0
vn 0 1 0
vn 0 1 0
vn 0 1 0
vn 0 1 0
vn 0 1 0
vn 0 1 0
vn 0 1 0
vn 0 1 0
vn 0 1 0
vn 0 1 0
vn 0 1 0
vn 0 1 0
vn 0 1 0
vn 0 1 0
vn 0 1 0
vn 0 1 0
vn 0 1 0
vn 0 1 0
vn 0 1 0
vn 0 1 0
vn 0 1 0
vn 0 1 0
vn 0 1 0
vn 0 1 0
vn 0 1 0
vn 0 1 0
vn 0 1 0
vn 0 1 0
vn 0 1 0
vn 0 1 0
vn 0 1 0
vn 0 1 0
vn 0 1 0
vn 0 1 0
vn 0 1 0
vn 0 1 0
vn 0 1 0
vn 0 1 0
vn 0 1 0
vn 0 1 0
vn 0 1 0
vn 0 1 0
vn 0 1 0
vn 0 1 0
vn 0 1 0
vn 0 1 0
vn 0 1 0
vn 0 1 0
vn 0 1 0
vn 0 1 0
vn 0 1 0
vn 0 1 0
vn 0 1 0
vn 0 1 0
vn 0 1 0
vn 0 1 0
vn 0 1 0
vn 0 1 0
vn 0 1 0
vn 0 1 0
vn 0 1 0
vn 0 1 0
vn 0 1 0
vn 0 1 0
vn 0 1 0
vn 0 1 0
vn 0 1 0
vn 0 1 0
vn 0 1 0
vn 0 1 0
vn 0 1 0
vn 0 1 0
vn 0 1 0
vn 0 1 0
vn 0 1 0
vn 0 1 0
vn 0 1 0
vn 0 1 0
vn 0 1 0
vn 0 1 0
vn 0 1 0
vn 0 1 0
vn 0 1 0
vn 0 1 0
vn 0 1 0
vn 0 1 0
vn 0 1 0
g Grass_0_Cluster111_0
f 2/2/2 3/3/3 1/1/1
f 2/2/2 4/4/4 3/3/3
f 6/6/6 7/7/7 5/5/5
f 6/6/6 8/8/8 7/7/7
f 10/10/10 11/11/11 9/9/9
f 10/10/10 12/12/12 11/11/11
f 14/14/14 15/15/15 13/13/13
f 14/14/14 16/16/16 15/15/15
f 18/18/18 19/19/19 17/17/17
f 18/18/18 20/20/20 19/19/19
f 22/22/22 23/23/23 21/21/21
f 22/22/22 24/24/24 23/23/23
f 26/26/26 27/27/27 25/25/25
f 26/26/26 28/28/28 27/27/27
f 30/30/30 31/31/31 29/29/29
f 30/30/30 32/32/32 31/31/31
f 34/34/34 35/35/35 33/33/33
f 34/34/34 36/36/36 35/35/35
f 38/38/38 39/39/39 37/37/37
f 38/38/38 40/40/40 39/39/39
f 42/42/42 43/43/43 41/41/41
f 42/42/42 44/44/44 43/43/43
f 46/46/46 47/47/47 45/45/45
f 46/46/46 48/48/48 47/47/47
f 50/50/50 51/51/51 49/49/49
f 50/50/50 52/52/52 51/51/51
f 54/54/54 55/55/55 53/53/53
f 54/54/54 56/56/56 55/55/55
f 58/58/58 59/59/59 57/57/57
f 58/58/58 60/60/60 59/59/59
f 62/62/62 63/63/63 61/61/61
f 62/62/62 64/64/64 63/63/63
f 66/66/66 67/67/67 65/65/65
f 66/66/66 68/68/68 67/67/67
f 70/70/70 71/71/71 69/69/69
f 70/70/70 72/72/72 71/71/71
f 74/74/74 75/75/75 73/73/73
f 74/74/74 76/76/76 75/75/75
f 78/78/78 79/79/79 77/77/77
f 78/78/78 80/80/80 79/79/79
f 82/82/82 83/83/83 81/81/81
f 82/82/82 84/84/84 83/83/83
f 86/86/86 87/87/87 85/85/85
f 86/86/86 88/88/88 87/87/87
f 90/90/90 91/91/91 89/89/89
f 90/90/90 92/92/92 91/91/91
f 94/94/94 95/95/95 93/93/93
f 94/94/94 96/96/96 95/95/95
f 98/98/98 99/99/99 97/97/97
f 98/98/98 100/100/100 99/99/99
f 102/102/102 103/103/103 101/101/101
f 102/102/102 104/104/104 103/103/103
f 106/106/106 107/107/107 105/105/105
f 106/106/106 108/108/108 107/107/107
f 110/110/110 111/111/111 109/109/109
f 110/110/110 112/112/112 111/111/111
f 114/114/114 115/115/115 113/113/113
f 114/114/114 116/116/116 115/115/115
f 118/118/118 119/119/119 117/117/117
f 118/118/118 120/120/120 119/119/119
f 122/122/122 123/123/123 121/121/121
f 122/122/122 124/124/124 123/123/123
f 126/126/126 127/127/127 125/125/125
f 126/126/126 128/128/128 127/127/127
f 130/130/130 131/131/131 129/129/129
f 130/130/130 132/132/132 131/131/131
f 134/134/134 135/135/135 133/133/133
f 134/134/134 136/136/136 135/135/135
f 138/138/138 139/139/139 137/137/137
f 138/138/138 140/140/140 139/139/139
f 142/142/142 143/143/143 141/141/141
f 142/142/142 144/144/144 143/143/143
f 146/146/146 147/147/147 145/145/145
f 146/146/146 148/148/148 147/147/147
f 150/150/150 151/151/151 149/149/149
f 150/150/150 152/152/152 151/151/151
f 154/154/154 155/155/155 153/153/153
f 154/154/154 156/156/156 155/155/155
f 158/158/158 159/159/159 157/157/157
f 158/158/158 160/160/160 159/159/159
f 162/162/162 163/163/163 161/161/161
f 162/162/162 164/164/164 163/163/163
f 166/166/166 167/167/167 165/165/165
f 166/166/166 168/168/168 167/167/167
f 170/170/170 171/171/171 169/169/169
f 170/170/170 172/172/172 171/171/171
f 174/174/174 175/175/175 173/173/173
f 174/174/174 176/176/176 175/175/175
f 178/178/178 179/179/179 177/177/177
f 178/178/178 180/180/180 179/179/179
f 182/182/182 183/183/183 181/181/181
f 182/182/182 184/184/184 183/183/183
f 186/186/186 187/187/187 185/185/185
f 186/186/186 188/188/188 187/187/187
f 190/190/190 191/191/191 189/189/189
f 190/190/190 192/192/192 191/191/191
f 194/194/194 195/195/195 193/193/193
f 194/194/194 196/196/196 195/195/195
