g Grass_0_Cluster101
v 243.9357 0.06533813 141.9638
v 243.1318 0.06533813 141.9638
v 243.9357 0.06533813 143.1698
v 243.1318 0.06533813 143.1698
v 259.6129 0.06533813 141.5619
v 258.809 0.06533813 141.5619
v 259.6129 0.06533813 142.7678
v 258.809 0.06533813 142.7678
v 265.6426 0.06533813 140.7579
v 264.8387 0.06533813 140.7579
v 265.6426 0.06533813 141.9638
v 264.8387 0.06533813 141.9638
v 268.0545 0.06533813 140.3559
v 267.2505 0.06533813 140.3559
v 268.0545 0.06533813 141.5619
v 267.2505 0.06533813 141.5619
v 255.1912 0.06533813 135.1302
v 254.3872 0.06533813 135.1302
v 255.1912 0.06533813 136.7381
v 254.3872 0.06533813 136.7381
v 253.5832 0.06533813 133.9243
v 252.7793 0.06533813 133.9243
v 253.5832 0.06533813 135.1302
v 252.7793 0.06533813 135.1302
v 254.7892 0.06533813 131.5124
v 253.5832 0.06533813 131.5124
v 254.7892 0.06533813 132.7183
v 253.5832 0.06533813 132.7183
v 251.1714 0.06533813 130.3065
v 250.3674 0.06533813 130.3065
v 251.1714 0.06533813 131.5124
v 250.3674 0.06533813 131.5124
v 255.1912 0.06533813 127.8946
v 254.3872 0.06533813 127.8946
v 255.1912 0.06533813 129.5025
v 254.3872 0.06533813 129.5025
v 253.5832 0.06533813 127.8946
v 252.7793 0.06533813 127.8946
v 253.5832 0.06533813 129.1005
v 252.7793 0.06533813 129.1005
v 256.7991 0.06533813 126.6886
v 255.9951 0.06533813 126.6886
v 256.7991 0.06533813 127.8946
v 255.9951 0.06533813 127.8946
v 257.201 0.06533813 126.2867
v 255.9951 0.06533813 126.2867
v 257.201 0.06533813 127.4926
v 255.9951 0.06533813 127.4926
v 253.1813 0.06533813 124.2768
v 252.3773 0.06533813 124.2768
v 253.1813 0.06533813 125.4827
v 252.3773 0.06533813 125.4827
v 246.7496 0.06533813 123.4728
v 245.9456 0.06533813 123.4728
v 246.7496 0.06533813 124.6787
v 245.9456 0.06533813 124.6787
v 250.3674 0.06533813 121.4629
v 249.5634 0.06533813 121.4629
v 250.3674 0.06533813 122.6689
v 249.5634 0.06533813 122.6689
v 251.5733 0.06533813 121.4629
v 250.7694 0.06533813 121.4629
v 251.5733 0.06533813 122.6689
v 250.7694 0.06533813 122.6689
v 249.9654 0.06533813 117.8451
v 249.1615 0.06533813 117.8451
v 249.9654 0.06533813 119.0511
v 249.1615 0.06533813 119.0511
v 251.1714 0.06533813 115.4332
v 250.3674 0.06533813 115.4332
v 251.1714 0.06533813 116.6392
v 250.3674 0.06533813 116.6392
v 258.005 0.06533813 115.0313
v 257.201 0.06533813 115.0313
v 258.005 0.06533813 116.2372
v 257.201 0.06533813 116.2372
v 250.3674 0.06533813 114.6293
v 249.5634 0.06533813 114.6293
v 250.3674 0.06533813 115.8352
v 249.5634 0.06533813 115.8352
vt 0 0.9058824
vt 0.06666667 0.9058824
vt 0 1
vt 0.06666667 1
vt 0 0.9058824
vt 0.06666667 0.9058824
vt 0 1
vt 0.06666667 1
vt 0 0.9058824
vt 0.06666667 0.9058824
vt 0 1
vt 0.06666667 1
vt 0 0.9058824
vt 0.06666667 0.9058824
vt 0 1
vt 0.06666667 1
vt 0 0.9058824
vt 0.06666667 0.9058824
vt 0 1
vt 0.06666667 1
vt 0 0.9058824
vt 0.06666667 0.9058824
vt 0 1
vt 0.06666667 1
vt 0 0.9058824
vt 0.06666667 0.9058824
vt 0 1
vt 0.06666667 1
vt 0 0.9058824
vt 0.06666667 0.9058824
vt 0 1
vt 0.06666667 1
vt 0 0.9058824
vt 0.06666667 0.9058824
vt 0 1
vt 0.06666667 1
vt 0 0.9058824
vt 0.06666667 0.9058824
vt 0 1
vt 0.06666667 1
vt 0 0.9058824
vt 0.06666667 0.9058824
vt 0 1
vt 0.06666667 1
vt 0 0.9058824
vt 0.06666667 0.9058824
vt 0 1
vt 0.06666667 1
vt 0 0.9058824
vt 0.06666667 0.9058824
vt 0 1
vt 0.06666667 1
vt 0 0.9058824
vt 0.06666667 0.9058824
vt 0 1
vt 0.06666667 1
vt 0 0.9058824
vt 0.06666667 0.9058824
vt 0 1
vt 0.06666667 1
vt 0 0.9058824
vt 0.06666667 0.9058824
vt 0 1
vt 0.06666667 1
vt 0 0.9058824
vt 0.06666667 0.9058824
vt 0 1
vt 0.06666667 1
vt 0 0.9058824
vt 0.06666667 0.9058824
vt 0 1
vt 0.06666667 1
vt 0 0.9058824
vt 0.06666667 0.9058824
vt 0 1
vt 0.06666667 1
vt 0 0.9058824
vt 0.06666667 0.9058824
vt 0 1
vt 0.06666667 1
vn 0 1 0
vn 0 1 0
vn 0 1 0
vn 0 1 0
vn 0 1 0
vn 0 1 0
vn 0 1 0
vn 0 1 0
vn 0 1 0
vn 0 1 0
vn 0 1 0
vn 0 1 0
vn 0 1 0
vn 0 1 0
vn 0 1 0
vn 0 1 0
vn 0 1 0
vn 0 1 0
vn 0 1 0
vn 0 1 0
vn 0 1 0
vn 0 1 0
vn 0 1 0
vn 0 1 0
vn 0 1 0
vn 0 1 0
vn 0 1 0
vn 0 1 0
vn 0 1 0
vn 0 1 0
vn 0 1 0
vn 0 1 0
vn 0 1 0
vn 0 1 0
vn 0 1 0
vn 0 1 0
vn 0 1 0
vn 0 1 0
vn 0 1 0
vn 0 1 0
vn 0 1 0
vn 0 1 0
vn 0 1 0
vn 0 1 0
vn 0 1 0
vn 0 1 0
vn 0 1 0
vn 0 1 0
vn 0 1 0
vn 0 1 0
vn 0 1 0
vn 0 1 0
vn 0 1 0
vn 0 1 0
vn 0 1 0
vn 0 1 0
vn 0 1 0
vn 0 1 0
vn 0 1 0
vn 0 1 0
vn 0 1 0
vn 0 1 0
vn 0 1 0
vn 0 1 0
vn 0 1 0
vn 0 1 0
vn 0 1 0
vn 0 1 0
vn 0 1 0
vn 0 1 0
vn 0 1 0
vn 0 1 0
vn 0 1 0
vn 0 1 0
vn 0 1 0
vn 0 1 0
vn 0 1 0
vn 0 1 0
vn 0 1 0
vn 0 1 0
g Grass_0_Cluster101_0
f 2/2/2 3/3/3 1/1/1
f 2/2/2 4/4/4 3/3/3
f 6/6/6 7/7/7 5/5/5
f 6/6/6 8/8/8 7/7/7
f 10/10/10 11/11/11 9/9/9
f 10/10/10 12/12/12 11/11/11
f 14/14/14 15/15/15 13/13/13
f 14/14/14 16/16/16 15/15/15
f 18/18/18 19/19/19 17/17/17
f 18/18/18 20/20/20 19/19/19
f 22/22/22 23/23/23 21/21/21
f 22/22/22 24/24/24 23/23/23
f 26/26/26 27/27/27 25/25/25
f 26/26/26 28/28/28 27/27/27
f 30/30/30 31/31/31 29/29/29
f 30/30/30 32/32/32 31/31/31
f 34/34/34 35/35/35 33/33/33
f 34/34/34 36/36/36 35/35/35
f 38/38/38 39/39/39 37/37/37
f 38/38/38 40/40/40 39/39/39
f 42/42/42 43/43/43 41/41/41
f 42/42/42 44/44/44 43/43/43
f 46/46/46 47/47/47 45/45/45
f 46/46/46 48/48/48 47/47/47
f 50/50/50 51/51/51 49/49/49
f 50/50/50 52/52/52 51/51/51
f 54/54/54 55/55/55 53/53/53
f 54/54/54 56/56/56 55/55/55
f 58/58/58 59/59/59 57/57/57
f 58/58/58 60/60/60 59/59/59
f 62/62/62 63/63/63 61/61/61
f 62/62/62 64/64/64 63/63/63
f 66/66/66 67/67/67 65/65/65
f 66/66/66 68/68/68 67/67/67
f 70/70/70 71/71/71 69/69/69
f 70/70/70 72/72/72 71/71/71
f 74/74/74 75/75/75 73/73/73
f 74/74/74 76/76/76 75/75/75
f 78/78/78 79/79/79 77/77/77
f 78/78/78 80/80/80 79/79/79
