g Grass_2_Cluster72
v -77.23096 0 76.97467
v -78.17072 0 76.97467
v -77.23096 0 77.99986
v -78.17072 0 77.99986
v -77.65813 0 76.46207
v -78.59789 0 76.46207
v -77.65813 0 77.57269
v -78.59789 0 77.57269
v -77.0601 0 76.20577
v -77.99986 0 76.20577
v -77.0601 0 77.3164
v -77.99986 0 77.3164
v -76.12035 0 76.03491
v -77.0601 0 76.03491
v -76.12035 0 77.0601
v -77.0601 0 77.0601
v -73.81367 0 75.77861
v -74.75343 0 75.77861
v -73.81367 0 76.8038
v -74.75343 0 76.8038
v -78.17072 0 75.77861
v -79.19592 0 75.77861
v -78.17072 0 76.88924
v -79.19592 0 76.88924
v -77.99986 0 75.43688
v -78.93961 0 75.43688
v -77.99986 0 76.37664
v -78.93961 0 76.37664
v -71.93415 0 75.26601
v -72.78848 0 75.26601
v -71.93415 0 76.29121
v -72.78848 0 76.29121
v -81.84432 0 75.00972
v -82.69865 0 75.00972
v -81.84432 0 76.12035
v -82.69865 0 76.12035
v -75.09515 0 75.09515
v -76.03491 0 75.09515
v -75.09515 0 76.20577
v -76.03491 0 76.20577
v -80.30653 0 74.41169
v -81.16086 0 74.41169
v -80.30653 0 75.43688
v -81.16086 0 75.43688
v -80.7337 0 74.49712
v -81.58802 0 74.49712
v -80.7337 0 75.52232
v -81.58802 0 75.52232
v -74.75343 0 74.24083
v -75.77861 0 74.24083
v -74.75343 0 75.35145
v -75.77861 0 75.35145
v -77.57269 0 73.98453
v -78.59789 0 73.98453
v -77.57269 0 75.18059
v -78.59789 0 75.18059
v -71.76328 0 73.98453
v -72.70304 0 73.98453
v -71.76328 0 75.09515
v -72.70304 0 75.09515
v -81.67345 0 73.72823
v -82.61321 0 73.72823
v -81.67345 0 74.83885
v -82.61321 0 74.83885
v -82.44234 0 73.1302
v -83.3821 0 73.1302
v -82.44234 0 74.1554
v -83.3821 0 74.1554
v -74.92429 0 72.95934
v -75.77861 0 72.95934
v -74.92429 0 73.98453
v -75.77861 0 73.98453
v -83.8947 0 59.9736
v -84.83446 0 59.9736
v -83.8947 0 61.08422
v -84.83446 0 61.08422
v -84.15099 0 59.63187
v -85.17619 0 59.63187
v -84.15099 0 60.7425
v -85.17619 0 60.7425
v -85.51791 0 58.43582
v -86.54311 0 58.43582
v -85.51791 0 59.54644
v -86.54311 0 59.54644
v -71.67786 0 57.66693
v -72.61761 0 57.66693
v -71.67786 0 58.77755
v -72.61761 0 58.77755
v -84.66359 0 57.41063
v -85.60335 0 57.41063
v -84.66359 0 58.52125
v -85.60335 0 58.52125
v -83.3821 0 56.72717
v -84.32186 0 56.72717
v -83.3821 0 57.83779
v -84.32186 0 57.83779
v -85.43248 0 56.64174
v -86.37224 0 56.64174
v -85.43248 0 57.66693
v -86.37224 0 57.66693
v -86.45767 0 56.04371
v -87.39743 0 56.04371
v -86.45767 0 57.15433
v -87.39743 0 57.15433
v -84.57816 0 55.70198
v -85.51791 0 55.70198
v -84.57816 0 56.72717
v -85.51791 0 56.72717
v -83.98013 0 55.27482
v -84.91989 0 55.27482
v -83.98013 0 56.38544
v -84.91989 0 56.38544
v -60.40076 0 55.27482
v -61.34052 0 55.27482
v -60.40076 0 56.38544
v -61.34052 0 56.38544
v -85.17619 0 55.10395
v -86.11594 0 55.10395
v -85.17619 0 56.21457
v -86.11594 0 56.21457
v -59.80274 0 55.27482
v -60.7425 0 55.27482
v -59.80274 0 56.30001
v -60.7425 0 56.30001
v -65.78301 0 54.67679
v -66.72277 0 54.67679
v -65.78301 0 55.78741
v -66.72277 0 55.78741
v -59.88817 0 54.50592
v -60.91336 0 54.50592
v -59.88817 0 55.70198
v -60.91336 0 55.70198
v -62.70744 0 54.50592
v -63.73263 0 54.50592
v -62.70744 0 55.70198
v -63.73263 0 55.70198
v -62.10942 0 54.33506
v -63.13461 0 54.33506
v -62.10942 0 55.53111
v -63.13461 0 55.53111
v -84.91989 0 54.24963
v -85.94508 0 54.24963
v -84.91989 0 55.36025
v -85.94508 0 55.36025
v -64.33066 0 54.1642
v -65.27042 0 54.1642
v -64.33066 0 55.18938
v -65.27042 0 55.18938
v -61.42596 0 53.22444
v -62.28028 0 53.22444
v -61.42596 0 54.24963
v -62.28028 0 54.24963
vt 0.1347656 0.9185662
vt 0.2060202 0.9185662
vt 0.1347656 1
vt 0.2060202 1
vt 0.1347656 0.9185662
vt 0.2060202 0.9185662
vt 0.1347656 1
vt 0.2060202 1
vt 0.1347656 0.9185662
vt 0.2060202 0.9185662
vt 0.1347656 1
vt 0.2060202 1
vt 0.1347656 0.9185662
vt 0.2060202 0.9185662
vt 0.1347656 1
vt 0.2060202 1
vt 0.1347656 0.9185662
vt 0.2060202 0.9185662
vt 0.1347656 1
vt 0.2060202 1
vt 0.1347656 0.9185662
vt 0.2060202 0.9185662
vt 0.1347656 1
vt 0.2060202 1
vt 0.1347656 0.9185662
vt 0.2060202 0.9185662
vt 0.1347656 1
vt 0.2060202 1
vt 0.1347656 0.9185662
vt 0.2060202 0.9185662
vt 0.1347656 1
vt 0.2060202 1
vt 0.1347656 0.9185662
vt 0.2060202 0.9185662
vt 0.1347656 1
vt 0.2060202 1
vt 0.1347656 0.9185662
vt 0.2060202 0.9185662
vt 0.1347656 1
vt 0.2060202 1
vt 0.1347656 0.9185662
vt 0.2060202 0.9185662
vt 0.1347656 1
vt 0.2060202 1
vt 0.1347656 0.9185662
vt 0.2060202 0.9185662
vt 0.1347656 1
vt 0.2060202 1
vt 0.1347656 0.9185662
vt 0.2060202 0.9185662
vt 0.1347656 1
vt 0.2060202 1
vt 0.1347656 0.9185662
vt 0.2060202 0.9185662
vt 0.1347656 1
vt 0.2060202 1
vt 0.1347656 0.9185662
vt 0.2060202 0.9185662
vt 0.1347656 1
vt 0.2060202 1
vt 0.1347656 0.9185662
vt 0.2060202 0.9185662
vt 0.1347656 1
vt 0.2060202 1
vt 0.1347656 0.9185662
vt 0.2060202 0.9185662
vt 0.1347656 1
vt 0.2060202 1
vt 0.1347656 0.9185662
vt 0.2060202 0.9185662
vt 0.1347656 1
vt 0.2060202 1
vt 0.1347656 0.9185662
vt 0.2060202 0.9185662
vt 0.1347656 1
vt 0.2060202 1
vt 0.1347656 0.9185662
vt 0.2060202 0.9185662
vt 0.1347656 1
vt 0.2060202 1
vt 0.1347656 0.9185662
vt 0.2060202 0.9185662
vt 0.1347656 1
vt 0.2060202 1
vt 0.1347656 0.9185662
vt 0.2060202 0.9185662
vt 0.1347656 1
vt 0.2060202 1
vt 0.1347656 0.9185662
vt 0.2060202 0.9185662
vt 0.1347656 1
vt 0.2060202 1
vt 0.1347656 0.9185662
vt 0.2060202 0.9185662
vt 0.1347656 1
vt 0.2060202 1
vt 0.1347656 0.9185662
vt 0.2060202 0.9185662
vt 0.1347656 1
vt 0.2060202 1
vt 0.1347656 0.9185662
vt 0.2060202 0.9185662
vt 0.1347656 1
vt 0.2060202 1
vt 0.1347656 0.9185662
vt 0.2060202 0.9185662
vt 0.1347656 1
vt 0.2060202 1
vt 0.1347656 0.9185662
vt 0.2060202 0.9185662
vt 0.1347656 1
vt 0.2060202 1
vt 0.1347656 0.9185662
vt 0.2060202 0.9185662
vt 0.1347656 1
vt 0.2060202 1
vt 0.1347656 0.9185662
vt 0.2060202 0.9185662
vt 0.1347656 1
vt 0.2060202 1
vt 0.1347656 0.9185662
vt 0.2060202 0.9185662
vt 0.1347656 1
vt 0.2060202 1
vt 0.1347656 0.9185662
vt 0.2060202 0.9185662
vt 0.1347656 1
vt 0.2060202 1
vt 0.1347656 0.9185662
vt 0.2060202 0.9185662
vt 0.1347656 1
vt 0.2060202 1
vt 0.1347656 0.9185662
vt 0.2060202 0.9185662
vt 0.1347656 1
vt 0.2060202 1
vt 0.1347656 0.9185662
vt 0.2060202 0.9185662
vt 0.1347656 1
vt 0.2060202 1
vt 0.1347656 0.9185662
vt 0.2060202 0.9185662
vt 0.1347656 1
vt 0.2060202 1
vt 0.1347656 0.9185662
vt 0.2060202 0.9185662
vt 0.1347656 1
vt 0.2060202 1
vt 0.1347656 0.9185662
vt 0.2060202 0.9185662
vt 0.1347656 1
vt 0.2060202 1
vn 0 1 0
vn 0 1 0
vn 0 1 0
vn 0 1 0
vn 0 1 0
vn 0 1 0
vn 0 1 0
vn 0 1 0
vn 0 1 0
vn 0 1 0
vn 0 1 0
vn 0 1 0
vn 0 1 0
vn 0 1 0
vn 0 1 0
vn 0 1 0
vn 0 1 0
vn 0 1 0
vn 0 1 0
vn 0 1 0
vn 0 1 0
vn 0 1 0
vn 0 1 0
vn 0 1 0
vn 0 1 0
vn 0 1 0
vn 0 1 0
vn 0 1 0
vn 0 1 0
vn 0 1 0
vn 0 1 0
vn 0 1 0
vn 0 1 0
vn 0 1 0
vn 0 1 0
vn 0 1 0
vn 0 1 0
vn 0 1 0
vn 0 1 0
vn 0 1 0
vn 0 1 0
vn 0 1 0
vn 0 1 0
vn 0 1 0
vn 0 1 0
vn 0 1 0
vn 0 1 0
vn 0 1 0
vn 0 1 0
vn 0 1 0
vn 0 1 0
vn 0 1 0
vn 0 1 0
vn 0 1 0
vn 0 1 0
vn 0 1 0
vn 0 1 0
vn 0 1 0
vn 0 1 0
vn 0 1 0
vn 0 1 0
vn 0 1 0
vn 0 1 0
vn 0 1 0
vn 0 1 0
vn 0 1 0
vn 0 1 0
vn 0 1 0
vn 0 1 0
vn 0 1 0
vn 0 1 0
vn 0 1 0
vn 0 1 0
vn 0 1 0
vn 0 1 0
vn 0 1 0
vn 0 1 0
vn 0 1 0
vn 0 1 0
vn 0 1 0
vn 0 1 0
vn 0 1 0
vn 0 1 0
vn 0 1 0
vn 0 1 0
vn 0 1 0
vn 0 1 0
vn 0 1 0
vn 0 1 0
vn 0 1 0
vn 0 1 0
vn 0 1 0
vn 0 1 0
vn 0 1 0
vn 0 1 0
vn 0 1 0
vn 0 1 0
vn 0 1 0
vn 0 1 0
vn 0 1 0
vn 0 1 0
vn 0 1 0
vn 0 1 0
vn 0 1 0
vn 0 1 0
vn 0 1 0
vn 0 1 0
vn 0 1 0
vn 0 1 0
vn 0 1 0
vn 0 1 0
vn 0 1 0
vn 0 1 0
vn 0 1 0
vn 0 1 0
vn 0 1 0
vn 0 1 0
vn 0 1 0
vn 0 1 0
vn 0 1 0
vn 0 1 0
vn 0 1 0
vn 0 1 0
vn 0 1 0
vn 0 1 0
vn 0 1 0
vn 0 1 0
vn 0 1 0
vn 0 1 0
vn 0 1 0
vn 0 1 0
vn 0 1 0
vn 0 1 0
vn 0 1 0
vn 0 1 0
vn 0 1 0
vn 0 1 0
vn 0 1 0
vn 0 1 0
vn 0 1 0
vn 0 1 0
vn 0 1 0
vn 0 1 0
vn 0 1 0
vn 0 1 0
vn 0 1 0
vn 0 1 0
vn 0 1 0
vn 0 1 0
vn 0 1 0
vn 0 1 0
vn 0 1 0
g Grass_2_Cluster72_0
f 2/2/2 3/3/3 1/1/1
f 2/2/2 4/4/4 3/3/3
f 6/6/6 7/7/7 5/5/5
f 6/6/6 8/8/8 7/7/7
f 10/10/10 11/11/11 9/9/9
f 10/10/10 12/12/12 11/11/11
f 14/14/14 15/15/15 13/13/13
f 14/14/14 16/16/16 15/15/15
f 18/18/18 19/19/19 17/17/17
f 18/18/18 20/20/20 19/19/19
f 22/22/22 23/23/23 21/21/21
f 22/22/22 24/24/24 23/23/23
f 26/26/26 27/27/27 25/25/25
f 26/26/26 28/28/28 27/27/27
f 30/30/30 31/31/31 29/29/29
f 30/30/30 32/32/32 31/31/31
f 34/34/34 35/35/35 33/33/33
f 34/34/34 36/36/36 35/35/35
f 38/38/38 39/39/39 37/37/37
f 38/38/38 40/40/40 39/39/39
f 42/42/42 43/43/43 41/41/41
f 42/42/42 44/44/44 43/43/43
f 46/46/46 47/47/47 45/45/45
f 46/46/46 48/48/48 47/47/47
f 50/50/50 51/51/51 49/49/49
f 50/50/50 52/52/52 51/51/51
f 54/54/54 55/55/55 53/53/53
f 54/54/54 56/56/56 55/55/55
f 58/58/58 59/59/59 57/57/57
f 58/58/58 60/60/60 59/59/59
f 62/62/62 63/63/63 61/61/61
f 62/62/62 64/64/64 63/63/63
f 66/66/66 67/67/67 65/65/65
f 66/66/66 68/68/68 67/67/67
f 70/70/70 71/71/71 69/69/69
f 70/70/70 72/72/72 71/71/71
f 74/74/74 75/75/75 73/73/73
f 74/74/74 76/76/76 75/75/75
f 78/78/78 79/79/79 77/77/77
f 78/78/78 80/80/80 79/79/79
f 82/82/82 83/83/83 81/81/81
f 82/82/82 84/84/84 83/83/83
f 86/86/86 87/87/87 85/85/85
f 86/86/86 88/88/88 87/87/87
f 90/90/90 91/91/91 89/89/89
f 90/90/90 92/92/92 91/91/91
f 94/94/94 95/95/95 93/93/93
f 94/94/94 96/96/96 95/95/95
f 98/98/98 99/99/99 97/97/97
f 98/98/98 100/100/100 99/99/99
f 102/102/102 103/103/103 101/101/101
f 102/102/102 104/104/104 103/103/103
f 106/106/106 107/107/107 105/105/105
f 106/106/106 108/108/108 107/107/107
f 110/110/110 111/111/111 109/109/109
f 110/110/110 112/112/112 111/111/111
f 114/114/114 115/115/115 113/113/113
f 114/114/114 116/116/116 115/115/115
f 118/118/118 119/119/119 117/117/117
f 118/118/118 120/120/120 119/119/119
f 122/122/122 123/123/123 121/121/121
f 122/122/122 124/124/124 123/123/123
f 126/126/126 127/127/127 125/125/125
f 126/126/126 128/128/128 127/127/127
f 130/130/130 131/131/131 129/129/129
f 130/130/130 132/132/132 131/131/131
f 134/134/134 135/135/135 133/133/133
f 134/134/134 136/136/136 135/135/135
f 138/138/138 139/139/139 137/137/137
f 138/138/138 140/140/140 139/139/139
f 142/142/142 143/143/143 141/141/141
f 142/142/142 144/144/144 143/143/143
f 146/146/146 147/147/147 145/145/145
f 146/146/146 148/148/148 147/147/147
f 150/150/150 151/151/151 149/149/149
f 150/150/150 152/152/152 151/151/151
