g Grass_2_Cluster245
v 124.234 0.003601074 352.9961
v 123.248 0.003601074 352.9961
v 124.234 0.003601074 353.9821
v 123.248 0.003601074 353.9821
v 125.22 0.003601074 352.9961
v 124.727 0.003601074 352.9961
v 125.22 0.003601074 353.9821
v 124.727 0.003601074 353.9821
v 126.206 0.003601074 352.5031
v 125.22 0.003601074 352.5031
v 126.206 0.003601074 353.9821
v 125.22 0.003601074 353.9821
v 122.262 0.003601074 352.5031
v 121.276 0.003601074 352.5031
v 122.262 0.003601074 353.4891
v 121.276 0.003601074 353.4891
v 145.9263 0.003601074 352.5031
v 144.9403 0.003601074 352.5031
v 145.9263 0.003601074 353.4891
v 144.9403 0.003601074 353.4891
v 123.741 0.003601074 352.5031
v 122.755 0.003601074 352.5031
v 123.741 0.003601074 353.4891
v 122.755 0.003601074 353.4891
v 126.699 0.003601074 352.0101
v 125.713 0.003601074 352.0101
v 126.699 0.003601074 352.9961
v 125.713 0.003601074 352.9961
v 150.3633 0.003601074 351.5171
v 149.3773 0.003601074 351.5171
v 150.3633 0.003601074 352.5031
v 149.3773 0.003601074 352.5031
v 122.755 0.003601074 351.5171
v 121.769 0.003601074 351.5171
v 122.755 0.003601074 352.5031
v 121.769 0.003601074 352.5031
v 123.741 0.003601074 351.0241
v 122.755 0.003601074 351.0241
v 123.741 0.003601074 352.0101
v 122.755 0.003601074 352.0101
v 124.727 0.003601074 351.0241
v 124.234 0.003601074 351.0241
v 124.727 0.003601074 352.0101
v 124.234 0.003601074 352.0101
v 126.699 0.003601074 350.5311
v 125.713 0.003601074 350.5311
v 126.699 0.003601074 351.5171
v 125.713 0.003601074 351.5171
v 124.727 0.003601074 350.0381
v 123.741 0.003601074 350.0381
v 124.727 0.003601074 351.0241
v 123.741 0.003601074 351.0241
v 128.6711 0.003601074 350.0381
v 127.685 0.003601074 350.0381
v 128.6711 0.003601074 351.0241
v 127.685 0.003601074 351.0241
v 126.206 0.003601074 349.5451
v 125.22 0.003601074 349.5451
v 126.206 0.003601074 350.5311
v 125.22 0.003601074 350.5311
v 125.713 0.003601074 349.5451
v 124.727 0.003601074 349.5451
v 125.713 0.003601074 350.5311
v 124.727 0.003601074 350.5311
v 127.192 0.003601074 349.0521
v 126.206 0.003601074 349.0521
v 127.192 0.003601074 350.0381
v 126.206 0.003601074 350.0381
v 144.4473 0.003601074 347.5731
v 143.4612 0.003601074 347.5731
v 144.4473 0.003601074 349.0521
v 143.4612 0.003601074 349.0521
v 140.9962 0.003601074 344.122
v 140.0102 0.003601074 344.122
v 140.9962 0.003601074 345.601
v 140.0102 0.003601074 345.601
v 129.1641 0.003601074 336.2339
v 128.178 0.003601074 336.2339
v 129.1641 0.003601074 337.2199
v 128.178 0.003601074 337.2199
v 131.1361 0.003601074 335.7409
v 130.1501 0.003601074 335.7409
v 131.1361 0.003601074 337.2199
v 130.1501 0.003601074 337.2199
v 130.6431 0.003601074 335.7409
v 129.6571 0.003601074 335.7409
v 130.6431 0.003601074 336.7269
v 129.6571 0.003601074 336.7269
v 133.6011 0.003601074 335.7409
v 132.6151 0.003601074 335.7409
v 133.6011 0.003601074 336.7269
v 132.6151 0.003601074 336.7269
v 131.1361 0.003601074 335.2479
v 130.1501 0.003601074 335.2479
v 131.1361 0.003601074 336.2339
v 130.1501 0.003601074 336.2339
v 133.6011 0.003601074 334.7549
v 132.6151 0.003601074 334.7549
v 133.6011 0.003601074 336.2339
v 132.6151 0.003601074 336.2339
v 132.6151 0.003601074 334.2619
v 131.6291 0.003601074 334.2619
v 132.6151 0.003601074 335.7409
v 131.6291 0.003601074 335.7409
v 130.6431 0.003601074 334.2619
v 129.6571 0.003601074 334.2619
v 130.6431 0.003601074 335.2479
v 129.6571 0.003601074 335.2479
v 133.1081 0.003601074 333.7689
v 131.6291 0.003601074 333.7689
v 133.1081 0.003601074 335.2479
v 131.6291 0.003601074 335.2479
v 131.1361 0.003601074 333.2759
v 130.1501 0.003601074 333.2759
v 131.1361 0.003601074 334.2619
v 130.1501 0.003601074 334.2619
v 134.5871 0.003601074 333.2759
v 133.6011 0.003601074 333.2759
v 134.5871 0.003601074 334.2619
v 133.6011 0.003601074 334.2619
v 131.6291 0.003601074 333.2759
v 131.1361 0.003601074 333.2759
v 131.6291 0.003601074 334.2619
v 131.1361 0.003601074 334.2619
v 133.6011 0.003601074 332.7828
v 132.6151 0.003601074 332.7828
v 133.6011 0.003601074 334.2619
v 132.6151 0.003601074 334.2619
v 134.0941 0.003601074 332.2899
v 133.6011 0.003601074 332.2899
v 134.0941 0.003601074 333.2759
v 133.6011 0.003601074 333.2759
v 134.0941 0.003601074 331.3038
v 133.1081 0.003601074 331.3038
v 134.0941 0.003601074 332.7828
v 133.1081 0.003601074 332.7828
v 134.5871 0.003601074 331.3038
v 133.6011 0.003601074 331.3038
v 134.5871 0.003601074 332.7828
v 133.6011 0.003601074 332.7828
v 135.5731 0.003601074 330.3178
v 134.5871 0.003601074 330.3178
v 135.5731 0.003601074 331.3038
v 134.5871 0.003601074 331.3038
v 135.0801 0.003601074 329.8248
v 134.0941 0.003601074 329.8248
v 135.0801 0.003601074 331.3038
v 134.0941 0.003601074 331.3038
v 138.5312 0.003601074 329.3318
v 137.5452 0.003601074 329.3318
v 138.5312 0.003601074 330.3178
v 137.5452 0.003601074 330.3178
v 138.0382 0.003601074 328.8388
v 137.0522 0.003601074 328.8388
v 138.0382 0.003601074 329.8248
v 137.0522 0.003601074 329.8248
v 135.0801 0.003601074 327.3598
v 134.0941 0.003601074 327.3598
v 135.0801 0.003601074 328.3458
v 134.0941 0.003601074 328.3458
vt 0.1347656 0.9185662
vt 0.2060202 0.9185662
vt 0.1347656 1
vt 0.2060202 1
vt 0.1347656 0.9185662
vt 0.2060202 0.9185662
vt 0.1347656 1
vt 0.2060202 1
vt 0.1347656 0.9185662
vt 0.2060202 0.9185662
vt 0.1347656 1
vt 0.2060202 1
vt 0.1347656 0.9185662
vt 0.2060202 0.9185662
vt 0.1347656 1
vt 0.2060202 1
vt 0.1347656 0.9185662
vt 0.2060202 0.9185662
vt 0.1347656 1
vt 0.2060202 1
vt 0.1347656 0.9185662
vt 0.2060202 0.9185662
vt 0.1347656 1
vt 0.2060202 1
vt 0.1347656 0.9185662
vt 0.2060202 0.9185662
vt 0.1347656 1
vt 0.2060202 1
vt 0.1347656 0.9185662
vt 0.2060202 0.9185662
vt 0.1347656 1
vt 0.2060202 1
vt 0.1347656 0.9185662
vt 0.2060202 0.9185662
vt 0.1347656 1
vt 0.2060202 1
vt 0.1347656 0.9185662
vt 0.2060202 0.9185662
vt 0.1347656 1
vt 0.2060202 1
vt 0.1347656 0.9185662
vt 0.2060202 0.9185662
vt 0.1347656 1
vt 0.2060202 1
vt 0.1347656 0.9185662
vt 0.2060202 0.9185662
vt 0.1347656 1
vt 0.2060202 1
vt 0.1347656 0.9185662
vt 0.2060202 0.9185662
vt 0.1347656 1
vt 0.2060202 1
vt 0.1347656 0.9185662
vt 0.2060202 0.9185662
vt 0.1347656 1
vt 0.2060202 1
vt 0.1347656 0.9185662
vt 0.2060202 0.9185662
vt 0.1347656 1
vt 0.2060202 1
vt 0.1347656 0.9185662
vt 0.2060202 0.9185662
vt 0.1347656 1
vt 0.2060202 1
vt 0.1347656 0.9185662
vt 0.2060202 0.9185662
vt 0.1347656 1
vt 0.2060202 1
vt 0.1347656 0.9185662
vt 0.2060202 0.9185662
vt 0.1347656 1
vt 0.2060202 1
vt 0.1347656 0.9185662
vt 0.2060202 0.9185662
vt 0.1347656 1
vt 0.2060202 1
vt 0.1347656 0.9185662
vt 0.2060202 0.9185662
vt 0.1347656 1
vt 0.2060202 1
vt 0.1347656 0.9185662
vt 0.2060202 0.9185662
vt 0.1347656 1
vt 0.2060202 1
vt 0.1347656 0.9185662
vt 0.2060202 0.9185662
vt 0.1347656 1
vt 0.2060202 1
vt 0.1347656 0.9185662
vt 0.2060202 0.9185662
vt 0.1347656 1
vt 0.2060202 1
vt 0.1347656 0.9185662
vt 0.2060202 0.9185662
vt 0.1347656 1
vt 0.2060202 1
vt 0.1347656 0.9185662
vt 0.2060202 0.9185662
vt 0.1347656 1
vt 0.2060202 1
vt 0.1347656 0.9185662
vt 0.2060202 0.9185662
vt 0.1347656 1
vt 0.2060202 1
vt 0.1347656 0.9185662
vt 0.2060202 0.9185662
vt 0.1347656 1
vt 0.2060202 1
vt 0.1347656 0.9185662
vt 0.2060202 0.9185662
vt 0.1347656 1
vt 0.2060202 1
vt 0.1347656 0.9185662
vt 0.2060202 0.9185662
vt 0.1347656 1
vt 0.2060202 1
vt 0.1347656 0.9185662
vt 0.2060202 0.9185662
vt 0.1347656 1
vt 0.2060202 1
vt 0.1347656 0.9185662
vt 0.2060202 0.9185662
vt 0.1347656 1
vt 0.2060202 1
vt 0.1347656 0.9185662
vt 0.2060202 0.9185662
vt 0.1347656 1
vt 0.2060202 1
vt 0.1347656 0.9185662
vt 0.2060202 0.9185662
vt 0.1347656 1
vt 0.2060202 1
vt 0.1347656 0.9185662
vt 0.2060202 0.9185662
vt 0.1347656 1
vt 0.2060202 1
vt 0.1347656 0.9185662
vt 0.2060202 0.9185662
vt 0.1347656 1
vt 0.2060202 1
vt 0.1347656 0.9185662
vt 0.2060202 0.9185662
vt 0.1347656 1
vt 0.2060202 1
vt 0.1347656 0.9185662
vt 0.2060202 0.9185662
vt 0.1347656 1
vt 0.2060202 1
vt 0.1347656 0.9185662
vt 0.2060202 0.9185662
vt 0.1347656 1
vt 0.2060202 1
vt 0.1347656 0.9185662
vt 0.2060202 0.9185662
vt 0.1347656 1
vt 0.2060202 1
vt 0.1347656 0.9185662
vt 0.2060202 0.9185662
vt 0.1347656 1
vt 0.2060202 1
vn 0 1 0
vn 0 1 0
vn 0 1 0
vn 0 1 0
vn 0 1 0
vn 0 1 0
vn 0 1 0
vn 0 1 0
vn 0 1 0
vn 0 1 0
vn 0 1 0
vn 0 1 0
vn 0 1 0
vn 0 1 0
vn 0 1 0
vn 0 1 0
vn 0 1 0
vn 0 1 0
vn 0 1 0
vn 0 1 0
vn 0 1 0
vn 0 1 0
vn 0 1 0
vn 0 1 0
vn 0 1 0
vn 0 1 0
vn 0 1 0
vn 0 1 0
vn 0 1 0
vn 0 1 0
vn 0 1 0
vn 0 1 0
vn 0 1 0
vn 0 1 0
vn 0 1 0
vn 0 1 0
vn 0 1 0
vn 0 1 0
vn 0 1 0
vn 0 1 0
vn 0 1 0
vn 0 1 0
vn 0 1 0
vn 0 1 0
vn 0 1 0
vn 0 1 0
vn 0 1 0
vn 0 1 0
vn 0 1 0
vn 0 1 0
vn 0 1 0
vn 0 1 0
vn 0 1 0
vn 0 1 0
vn 0 1 0
vn 0 1 0
vn 0 1 0
vn 0 1 0
vn 0 1 0
vn 0 1 0
vn 0 1 0
vn 0 1 0
vn 0 1 0
vn 0 1 0
vn 0 1 0
vn 0 1 0
vn 0 1 0
vn 0 1 0
vn 0 1 0
vn 0 1 0
vn 0 1 0
vn 0 1 0
vn 0 1 0
vn 0 1 0
vn 0 1 0
vn 0 1 0
vn 0 1 0
vn 0 1 0
vn 0 1 0
vn 0 1 0
vn 0 1 0
vn 0 1 0
vn 0 1 0
vn 0 1 0
vn 0 1 0
vn 0 1 0
vn 0 1 0
vn 0 1 0
vn 0 1 0
vn 0 1 0
vn 0 1 0
vn 0 1 0
vn 0 1 0
vn 0 1 0
vn 0 1 0
vn 0 1 0
vn 0 1 0
vn 0 1 0
vn 0 1 0
vn 0 1 0
vn 0 1 0
vn 0 1 0
vn 0 1 0
vn 0 1 0
vn 0 1 0
vn 0 1 0
vn 0 1 0
vn 0 1 0
vn 0 1 0
vn 0 1 0
vn 0 1 0
vn 0 1 0
vn 0 1 0
vn 0 1 0
vn 0 1 0
vn 0 1 0
vn 0 1 0
vn 0 1 0
vn 0 1 0
vn 0 1 0
vn 0 1 0
vn 0 1 0
vn 0 1 0
vn 0 1 0
vn 0 1 0
vn 0 1 0
vn 0 1 0
vn 0 1 0
vn 0 1 0
vn 0 1 0
vn 0 1 0
vn 0 1 0
vn 0 1 0
vn 0 1 0
vn 0 1 0
vn 0 1 0
vn 0 1 0
vn 0 1 0
vn 0 1 0
vn 0 1 0
vn 0 1 0
vn 0 1 0
vn 0 1 0
vn 0 1 0
vn 0 1 0
vn 0 1 0
vn 0 1 0
vn 0 1 0
vn 0 1 0
vn 0 1 0
vn 0 1 0
vn 0 1 0
vn 0 1 0
vn 0 1 0
vn 0 1 0
vn 0 1 0
vn 0 1 0
vn 0 1 0
vn 0 1 0
vn 0 1 0
g Grass_2_Cluster245_0
f 2/2/2 3/3/3 1/1/1
f 2/2/2 4/4/4 3/3/3
f 6/6/6 7/7/7 5/5/5
f 6/6/6 8/8/8 7/7/7
f 10/10/10 11/11/11 9/9/9
f 10/10/10 12/12/12 11/11/11
f 14/14/14 15/15/15 13/13/13
f 14/14/14 16/16/16 15/15/15
f 18/18/18 19/19/19 17/17/17
f 18/18/18 20/20/20 19/19/19
f 22/22/22 23/23/23 21/21/21
f 22/22/22 24/24/24 23/23/23
f 26/26/26 27/27/27 25/25/25
f 26/26/26 28/28/28 27/27/27
f 30/30/30 31/31/31 29/29/29
f 30/30/30 32/32/32 31/31/31
f 34/34/34 35/35/35 33/33/33
f 34/34/34 36/36/36 35/35/35
f 38/38/38 39/39/39 37/37/37
f 38/38/38 40/40/40 39/39/39
f 42/42/42 43/43/43 41/41/41
f 42/42/42 44/44/44 43/43/43
f 46/46/46 47/47/47 45/45/45
f 46/46/46 48/48/48 47/47/47
f 50/50/50 51/51/51 49/49/49
f 50/50/50 52/52/52 51/51/51
f 54/54/54 55/55/55 53/53/53
f 54/54/54 56/56/56 55/55/55
f 58/58/58 59/59/59 57/57/57
f 58/58/58 60/60/60 59/59/59
f 62/62/62 63/63/63 61/61/61
f 62/62/62 64/64/64 63/63/63
f 66/66/66 67/67/67 65/65/65
f 66/66/66 68/68/68 67/67/67
f 70/70/70 71/71/71 69/69/69
f 70/70/70 72/72/72 71/71/71
f 74/74/74 75/75/75 73/73/73
f 74/74/74 76/76/76 75/75/75
f 78/78/78 79/79/79 77/77/77
f 78/78/78 80/80/80 79/79/79
f 82/82/82 83/83/83 81/81/81
f 82/82/82 84/84/84 83/83/83
f 86/86/86 87/87/87 85/85/85
f 86/86/86 88/88/88 87/87/87
f 90/90/90 91/91/91 89/89/89
f 90/90/90 92/92/92 91/91/91
f 94/94/94 95/95/95 93/93/93
f 94/94/94 96/96/96 95/95/95
f 98/98/98 99/99/99 97/97/97
f 98/98/98 100/100/100 99/99/99
f 102/102/102 103/103/103 101/101/101
f 102/102/102 104/104/104 103/103/103
f 106/106/106 107/107/107 105/105/105
f 106/106/106 108/108/108 107/107/107
f 110/110/110 111/111/111 109/109/109
f 110/110/110 112/112/112 111/111/111
f 114/114/114 115/115/115 113/113/113
f 114/114/114 116/116/116 115/115/115
f 118/118/118 119/119/119 117/117/117
f 118/118/118 120/120/120 119/119/119
f 122/122/122 123/123/123 121/121/121
f 122/122/122 124/124/124 123/123/123
f 126/126/126 127/127/127 125/125/125
f 126/126/126 128/128/128 127/127/127
f 130/130/130 131/131/131 129/129/129
f 130/130/130 132/132/132 131/131/131
f 134/134/134 135/135/135 133/133/133
f 134/134/134 136/136/136 135/135/135
f 138/138/138 139/139/139 137/137/137
f 138/138/138 140/140/140 139/139/139
f 142/142/142 143/143/143 141/141/141
f 142/142/142 144/144/144 143/143/143
f 146/146/146 147/147/147 145/145/145
f 146/146/146 148/148/148 147/147/147
f 150/150/150 151/151/151 149/149/149
f 150/150/150 152/152/152 151/151/151
f 154/154/154 155/155/155 153/153/153
f 154/154/154 156/156/156 155/155/155
f 158/158/158 159/159/159 157/157/157
f 158/158/158 160/160/160 159/159/159
