g Grass_0_Cluster22
v 224.8573 0.0252533 22.84309
v 224.0967 0.0252533 22.84309
v 224.8573 0.0252533 24.11076
v 224.0967 0.0252533 24.11076
v 232.7168 0.0252533 22.84309
v 231.9562 0.0252533 22.84309
v 232.7168 0.0252533 23.85722
v 231.9562 0.0252533 23.85722
v 214.209 0.0252533 21.32191
v 213.4484 0.0252533 21.32191
v 214.209 0.0252533 22.33604
v 213.4484 0.0252533 22.33604
v 234.9986 0.0252533 20.81487
v 234.238 0.0252533 20.81487
v 234.9986 0.0252533 22.0825
v 234.238 0.0252533 22.0825
v 230.9421 0.0252533 20.05426
v 229.928 0.0252533 20.05426
v 230.9421 0.0252533 21.32191
v 229.928 0.0252533 21.32191
v 214.4625 0.0252533 19.5472
v 213.7019 0.0252533 19.5472
v 214.4625 0.0252533 20.56133
v 213.7019 0.0252533 20.56133
v 234.238 0.0252533 15.23715
v 233.4774 0.0252533 15.23715
v 234.238 0.0252533 16.50481
v 233.4774 0.0252533 16.50481
v 233.2239 0.0252533 14.73009
v 232.4633 0.0252533 14.73009
v 233.2239 0.0252533 15.99776
v 232.4633 0.0252533 15.99776
v 232.7168 0.0252533 13.20891
v 231.9562 0.0252533 13.20891
v 232.7168 0.0252533 14.47656
v 231.9562 0.0252533 14.47656
v 216.9978 0.0252533 12.95537
v 216.2372 0.0252533 12.95537
v 216.9978 0.0252533 13.9695
v 216.2372 0.0252533 13.9695
v 235.2521 0.0252533 12.19478
v 234.238 0.0252533 12.19478
v 235.2521 0.0252533 13.46243
v 234.238 0.0252533 13.46243
v 223.8432 0.0252533 11.94124
v 223.0826 0.0252533 11.94124
v 223.8432 0.0252533 13.20891
v 223.0826 0.0252533 13.20891
v 218.012 0.0252533 11.94124
v 217.2514 0.0252533 11.94124
v 218.012 0.0252533 13.20891
v 217.2514 0.0252533 13.20891
v 233.4774 0.0252533 11.94124
v 232.7168 0.0252533 11.94124
v 233.4774 0.0252533 12.95537
v 232.7168 0.0252533 12.95537
v 215.4767 0.0252533 10.42006
v 214.4625 0.0252533 10.42006
v 215.4767 0.0252533 11.68771
v 214.4625 0.0252533 11.68771
v 220.0402 0.0252533 9.15239
v 219.0261 0.0252533 9.15239
v 220.0402 0.0252533 10.42006
v 219.0261 0.0252533 10.42006
v 210.6595 0.0252533 6.110016
v 209.899 0.0252533 6.110016
v 210.6595 0.0252533 7.37767
v 209.899 0.0252533 7.37767
v 211.1666 0.0252533 4.588821
v 210.406 0.0252533 4.588821
v 211.1666 0.0252533 5.602951
v 210.406 0.0252533 5.602951
v 215.9837 0.0252533 3.574692
v 214.9696 0.0252533 3.574692
v 215.9837 0.0252533 4.842361
v 214.9696 0.0252533 4.842361
v 210.6595 0.0252533 2.560577
v 209.6454 0.0252533 2.560577
v 210.6595 0.0252533 3.828232
v 209.6454 0.0252533 3.828232
v 228.1532 0.0252533 2.053513
v 227.3926 0.0252533 2.053513
v 228.1532 0.0252533 3.067642
v 227.3926 0.0252533 3.067642
v 211.4202 0.0252533 1.799973
v 210.406 0.0252533 1.799973
v 211.4202 0.0252533 3.067642
v 210.406 0.0252533 3.067642
v 210.6595 0.0252533 0.5323181
v 209.899 0.0252533 0.5323181
v 210.6595 0.0252533 1.799973
v 209.899 0.0252533 1.799973
v 213.4484 0.0252533 0.2787933
v 212.6878 0.0252533 0.2787933
v 213.4484 0.0252533 1.546448
v 212.6878 0.0252533 1.546448
v 211.1666 0.0252533 -0.2282715
v 210.406 0.0252533 -0.2282715
v 211.1666 0.0252533 1.039383
v 210.406 0.0252533 1.039383
vt 0 0.9058824
vt 0.06666667 0.9058824
vt 0 1
vt 0.06666667 1
vt 0 0.9058824
vt 0.06666667 0.9058824
vt 0 1
vt 0.06666667 1
vt 0 0.9058824
vt 0.06666667 0.9058824
vt 0 1
vt 0.06666667 1
vt 0 0.9058824
vt 0.06666667 0.9058824
vt 0 1
vt 0.06666667 1
vt 0 0.9058824
vt 0.06666667 0.9058824
vt 0 1
vt 0.06666667 1
vt 0 0.9058824
vt 0.06666667 0.9058824
vt 0 1
vt 0.06666667 1
vt 0 0.9058824
vt 0.06666667 0.9058824
vt 0 1
vt 0.06666667 1
vt 0 0.9058824
vt 0.06666667 0.9058824
vt 0 1
vt 0.06666667 1
vt 0 0.9058824
vt 0.06666667 0.9058824
vt 0 1
vt 0.06666667 1
vt 0 0.9058824
vt 0.06666667 0.9058824
vt 0 1
vt 0.06666667 1
vt 0 0.9058824
vt 0.06666667 0.9058824
vt 0 1
vt 0.06666667 1
vt 0 0.9058824
vt 0.06666667 0.9058824
vt 0 1
vt 0.06666667 1
vt 0 0.9058824
vt 0.06666667 0.9058824
vt 0 1
vt 0.06666667 1
vt 0 0.9058824
vt 0.06666667 0.9058824
vt 0 1
vt 0.06666667 1
vt 0 0.9058824
vt 0.06666667 0.9058824
vt 0 1
vt 0.06666667 1
vt 0 0.9058824
vt 0.06666667 0.9058824
vt 0 1
vt 0.06666667 1
vt 0 0.9058824
vt 0.06666667 0.9058824
vt 0 1
vt 0.06666667 1
vt 0 0.9058824
vt 0.06666667 0.9058824
vt 0 1
vt 0.06666667 1
vt 0 0.9058824
vt 0.06666667 0.9058824
vt 0 1
vt 0.06666667 1
vt 0 0.9058824
vt 0.06666667 0.9058824
vt 0 1
vt 0.06666667 1
vt 0 0.9058824
vt 0.06666667 0.9058824
vt 0 1
vt 0.06666667 1
vt 0 0.9058824
vt 0.06666667 0.9058824
vt 0 1
vt 0.06666667 1
vt 0 0.9058824
vt 0.06666667 0.9058824
vt 0 1
vt 0.06666667 1
vt 0 0.9058824
vt 0.06666667 0.9058824
vt 0 1
vt 0.06666667 1
vt 0 0.9058824
vt 0.06666667 0.9058824
vt 0 1
vt 0.06666667 1
vn 0 1 0
vn 0 1 0
vn 0 1 0
vn 0 1 0
vn 0 1 0
vn 0 1 0
vn 0 1 0
vn 0 1 0
vn 0 1 0
vn 0 1 0
vn 0 1 0
vn 0 1 0
vn 0 1 0
vn 0 1 0
vn 0 1 0
vn 0 1 0
vn 0 1 0
vn 0 1 0
vn 0 1 0
vn 0 1 0
vn 0 1 0
vn 0 1 0
vn 0 1 0
vn 0 1 0
vn 0 1 0
vn 0 1 0
vn 0 1 0
vn 0 1 0
vn 0 1 0
vn 0 1 0
vn 0 1 0
vn 0 1 0
vn 0 1 0
vn 0 1 0
vn 0 1 0
vn 0 1 0
vn 0 1 0
vn 0 1 0
vn 0 1 0
vn 0 1 0
vn 0 1 0
vn 0 1 0
vn 0 1 0
vn 0 1 0
vn 0 1 0
vn 0 1 0
vn 0 1 0
vn 0 1 0
vn 0 1 0
vn 0 1 0
vn 0 1 0
vn 0 1 0
vn 0 1 0
vn 0 1 0
vn 0 1 0
vn 0 1 0
vn 0 1 0
vn 0 1 0
vn 0 1 0
vn 0 1 0
vn 0 1 0
vn 0 1 0
vn 0 1 0
vn 0 1 0
vn 0 1 0
vn 0 1 0
vn 0 1 0
vn 0 1 0
vn 0 1 0
vn 0 1 0
vn 0 1 0
vn 0 1 0
vn 0 1 0
vn 0 1 0
vn 0 1 0
vn 0 1 0
vn 0 1 0
vn 0 1 0
vn 0 1 0
vn 0 1 0
vn 0 1 0
vn 0 1 0
vn 0 1 0
vn 0 1 0
vn 0 1 0
vn 0 1 0
vn 0 1 0
vn 0 1 0
vn 0 1 0
vn 0 1 0
vn 0 1 0
vn 0 1 0
vn 0 1 0
vn 0 1 0
vn 0 1 0
vn 0 1 0
vn 0 1 0
vn 0 1 0
vn 0 1 0
vn 0 1 0
g Grass_0_Cluster22_0
f 2/2/2 3/3/3 1/1/1
f 2/2/2 4/4/4 3/3/3
f 6/6/6 7/7/7 5/5/5
f 6/6/6 8/8/8 7/7/7
f 10/10/10 11/11/11 9/9/9
f 10/10/10 12/12/12 11/11/11
f 14/14/14 15/15/15 13/13/13
f 14/14/14 16/16/16 15/15/15
f 18/18/18 19/19/19 17/17/17
f 18/18/18 20/20/20 19/19/19
f 22/22/22 23/23/23 21/21/21
f 22/22/22 24/24/24 23/23/23
f 26/26/26 27/27/27 25/25/25
f 26/26/26 28/28/28 27/27/27
f 30/30/30 31/31/31 29/29/29
f 30/30/30 32/32/32 31/31/31
f 34/34/34 35/35/35 33/33/33
f 34/34/34 36/36/36 35/35/35
f 38/38/38 39/39/39 37/37/37
f 38/38/38 40/40/40 39/39/39
f 42/42/42 43/43/43 41/41/41
f 42/42/42 44/44/44 43/43/43
f 46/46/46 47/47/47 45/45/45
f 46/46/46 48/48/48 47/47/47
f 50/50/50 51/51/51 49/49/49
f 50/50/50 52/52/52 51/51/51
f 54/54/54 55/55/55 53/53/53
f 54/54/54 56/56/56 55/55/55
f 58/58/58 59/59/59 57/57/57
f 58/58/58 60/60/60 59/59/59
f 62/62/62 63/63/63 61/61/61
f 62/62/62 64/64/64 63/63/63
f 66/66/66 67/67/67 65/65/65
f 66/66/66 68/68/68 67/67/67
f 70/70/70 71/71/71 69/69/69
f 70/70/70 72/72/72 71/71/71
f 74/74/74 75/75/75 73/73/73
f 74/74/74 76/76/76 75/75/75
f 78/78/78 79/79/79 77/77/77
f 78/78/78 80/80/80 79/79/79
f 82/82/82 83/83/83 81/81/81
f 82/82/82 84/84/84 83/83/83
f 86/86/86 87/87/87 85/85/85
f 86/86/86 88/88/88 87/87/87
f 90/90/90 91/91/91 89/89/89
f 90/90/90 92/92/92 91/91/91
f 94/94/94 95/95/95 93/93/93
f 94/94/94 96/96/96 95/95/95
f 98/98/98 99/99/99 97/97/97
f 98/98/98 100/100/100 99/99/99
