g Grass_1_Cluster288
v 56.65368 -0.1919136 412.6269
v 55.72808 -0.1919136 412.6269
v 56.65368 -0.1919136 413.5525
v 55.72808 -0.1919136 413.5525
v 56.65368 -0.1919136 411.2385
v 55.72808 -0.1919136 411.2385
v 56.65368 -0.1919136 411.7013
v 55.72808 -0.1919136 411.7013
v 59.89329 -0.1919136 410.3129
v 58.96769 -0.1919136 410.3129
v 59.89329 -0.1919136 411.2385
v 58.96769 -0.1919136 411.2385
v 58.50489 -0.1919136 409.3873
v 57.57928 -0.1919136 409.3873
v 58.50489 -0.1919136 410.3129
v 57.57928 -0.1919136 410.3129
v 35.82762 -0.1919136 403.8337
v 34.90202 -0.1919136 403.8337
v 35.82762 -0.1919136 404.7593
v 34.90202 -0.1919136 404.7593
v 46.93485 -0.1919136 401.5197
v 46.00925 -0.1919136 401.5197
v 46.93485 -0.1919136 402.4453
v 46.00925 -0.1919136 402.4453
v 43.23244 -0.1919136 400.5941
v 42.30684 -0.1919136 400.5941
v 43.23244 -0.1919136 401.5197
v 42.30684 -0.1919136 401.5197
v 40.45564 -0.1919136 400.5941
v 39.53003 -0.1919136 400.5941
v 40.45564 -0.1919136 401.5197
v 39.53003 -0.1919136 401.5197
v 39.99283 -0.1919136 400.1313
v 39.06723 -0.1919136 400.1313
v 39.99283 -0.1919136 401.0569
v 39.06723 -0.1919136 401.0569
v 38.14162 -0.1919136 399.2057
v 37.21603 -0.1919136 399.2057
v 38.14162 -0.1919136 400.1313
v 37.21603 -0.1919136 400.1313
v 41.38124 -0.1919136 398.7429
v 40.45564 -0.1919136 398.7429
v 41.38124 -0.1919136 399.2057
v 40.45564 -0.1919136 399.2057
vt 0.06738281 0.9369141
vt 0.1331457 0.9369141
vt 0.06738281 0.9990234
vt 0.1331457 0.9990234
vt 0.06738281 0.9369141
vt 0.1331457 0.9369141
vt 0.06738281 0.9990234
vt 0.1331457 0.9990234
vt 0.06738281 0.9369141
vt 0.1331457 0.9369141
vt 0.06738281 0.9990234
vt 0.1331457 0.9990234
vt 0.06738281 0.9369141
vt 0.1331457 0.9369141
vt 0.06738281 0.9990234
vt 0.1331457 0.9990234
vt 0.06738281 0.9369141
vt 0.1331457 0.9369141
vt 0.06738281 0.9990234
vt 0.1331457 0.9990234
vt 0.06738281 0.9369141
vt 0.1331457 0.9369141
vt 0.06738281 0.9990234
vt 0.1331457 0.9990234
vt 0.06738281 0.9369141
vt 0.1331457 0.9369141
vt 0.06738281 0.9990234
vt 0.1331457 0.9990234
vt 0.06738281 0.9369141
vt 0.1331457 0.9369141
vt 0.06738281 0.9990234
vt 0.1331457 0.9990234
vt 0.06738281 0.9369141
vt 0.1331457 0.9369141
vt 0.06738281 0.9990234
vt 0.1331457 0.9990234
vt 0.06738281 0.9369141
vt 0.1331457 0.9369141
vt 0.06738281 0.9990234
vt 0.1331457 0.9990234
vt 0.06738281 0.9369141
vt 0.1331457 0.9369141
vt 0.06738281 0.9990234
vt 0.1331457 0.9990234
vn 0 1 0
vn 0 1 0
vn 0 1 0
vn 0 1 0
vn 0 1 0
vn 0 1 0
vn 0 1 0
vn 0 1 0
vn 0 1 0
vn 0 1 0
vn 0 1 0
vn 0 1 0
vn 0 1 0
vn 0 1 0
vn 0 1 0
vn 0 1 0
vn 0 1 0
vn 0 1 0
vn 0 1 0
vn 0 1 0
vn 0 1 0
vn 0 1 0
vn 0 1 0
vn 0 1 0
vn 0 1 0
vn 0 1 0
vn 0 1 0
vn 0 1 0
vn 0 1 0
vn 0 1 0
vn 0 1 0
vn 0 1 0
vn 0 1 0
vn 0 1 0
vn 0 1 0
vn 0 1 0
vn 0 1 0
vn 0 1 0
vn 0 1 0
vn 0 1 0
vn 0 1 0
vn 0 1 0
vn 0 1 0
vn 0 1 0
g Grass_1_Cluster288_0
f 2/2/2 3/3/3 1/1/1
f 2/2/2 4/4/4 3/3/3
f 6/6/6 7/7/7 5/5/5
f 6/6/6 8/8/8 7/7/7
f 10/10/10 11/11/11 9/9/9
f 10/10/10 12/12/12 11/11/11
f 14/14/14 15/15/15 13/13/13
f 14/14/14 16/16/16 15/15/15
f 18/18/18 19/19/19 17/17/17
f 18/18/18 20/20/20 19/19/19
f 22/22/22 23/23/23 21/21/21
f 22/22/22 24/24/24 23/23/23
f 26/26/26 27/27/27 25/25/25
f 26/26/26 28/28/28 27/27/27
f 30/30/30 31/31/31 29/29/29
f 30/30/30 32/32/32 31/31/31
f 34/34/34 35/35/35 33/33/33
f 34/34/34 36/36/36 35/35/35
f 38/38/38 39/39/39 37/37/37
f 38/38/38 40/40/40 39/39/39
f 42/42/42 43/43/43 41/41/41
f 42/42/42 44/44/44 43/43/43
