g Grass_2_Cluster44
v 155.8238 0.06504822 51.88225
v 154.9493 0.06504822 51.88225
v 155.8238 0.06504822 52.97545
v 154.9493 0.06504822 52.97545
v 167.6303 0.06504822 47.72813
v 166.7557 0.06504822 47.72813
v 167.6303 0.06504822 48.82132
v 166.7557 0.06504822 48.82132
v 159.5407 0.06504822 47.07222
v 158.4475 0.06504822 47.07222
v 159.5407 0.06504822 47.94676
v 158.4475 0.06504822 47.94676
v 165.2253 0.06504822 46.85358
v 164.1321 0.06504822 46.85358
v 165.2253 0.06504822 47.94676
v 164.1321 0.06504822 47.94676
v 157.3543 0.06504822 46.63493
v 156.2611 0.06504822 46.63493
v 157.3543 0.06504822 47.72813
v 156.2611 0.06504822 47.72813
v 160.1966 0.06504822 46.41631
v 159.3221 0.06504822 46.41631
v 160.1966 0.06504822 47.50949
v 159.3221 0.06504822 47.50949
v 167.8489 0.06504822 46.41631
v 166.9744 0.06504822 46.41631
v 167.8489 0.06504822 47.29085
v 166.9744 0.06504822 47.29085
v 159.1034 0.06504822 46.19766
v 158.2289 0.06504822 46.19766
v 159.1034 0.06504822 47.29085
v 158.2289 0.06504822 47.29085
v 170.4726 0.06504822 45.97902
v 169.3794 0.06504822 45.97902
v 170.4726 0.06504822 47.07222
v 169.3794 0.06504822 47.07222
v 166.0998 0.06504822 45.76039
v 165.0066 0.06504822 45.76039
v 166.0998 0.06504822 46.85358
v 165.0066 0.06504822 46.85358
v 166.9744 0.06504822 45.76039
v 166.0998 0.06504822 45.76039
v 166.9744 0.06504822 46.63493
v 166.0998 0.06504822 46.63493
v 164.1321 0.06504822 45.54175
v 163.2575 0.06504822 45.54175
v 164.1321 0.06504822 46.63493
v 163.2575 0.06504822 46.63493
v 168.9421 0.06504822 45.3231
v 168.0676 0.06504822 45.3231
v 168.9421 0.06504822 46.63493
v 168.0676 0.06504822 46.63493
v 169.3794 0.06504822 45.10448
v 168.5048 0.06504822 45.10448
v 169.3794 0.06504822 46.19766
v 168.5048 0.06504822 46.19766
v 160.4152 0.06504822 45.3231
v 159.5407 0.06504822 45.3231
v 160.4152 0.06504822 46.19766
v 159.5407 0.06504822 46.19766
v 157.3543 0.06504822 45.3231
v 156.4798 0.06504822 45.3231
v 157.3543 0.06504822 46.41631
v 156.4798 0.06504822 46.41631
v 166.9744 0.06504822 45.10448
v 165.8812 0.06504822 45.10448
v 166.9744 0.06504822 46.19766
v 165.8812 0.06504822 46.19766
v 163.0389 0.06504822 44.66721
v 162.1643 0.06504822 44.66721
v 163.0389 0.06504822 45.76039
v 162.1643 0.06504822 45.76039
v 168.7235 0.06504822 44.66721
v 167.8489 0.06504822 44.66721
v 168.7235 0.06504822 45.76039
v 167.8489 0.06504822 45.76039
v 169.1608 0.06504822 44.44856
v 168.2862 0.06504822 44.44856
v 169.1608 0.06504822 45.54175
v 168.2862 0.06504822 45.54175
v 160.6339 0.06504822 44.44856
v 159.7593 0.06504822 44.44856
v 160.6339 0.06504822 45.54175
v 159.7593 0.06504822 45.54175
v 170.6912 0.06504822 44.44856
v 169.598 0.06504822 44.44856
v 170.6912 0.06504822 45.54175
v 169.598 0.06504822 45.54175
v 163.6948 0.06504822 44.44856
v 162.8203 0.06504822 44.44856
v 163.6948 0.06504822 45.54175
v 162.8203 0.06504822 45.54175
v 162.1643 0.06504822 44.22992
v 161.2898 0.06504822 44.22992
v 162.1643 0.06504822 45.3231
v 161.2898 0.06504822 45.3231
v 167.8489 0.06504822 43.79265
v 166.9744 0.06504822 43.79265
v 167.8489 0.06504822 44.88583
v 166.9744 0.06504822 44.88583
v 165.6626 0.06504822 31.33028
v 164.788 0.06504822 31.33028
v 165.6626 0.06504822 32.20483
v 164.788 0.06504822 32.20483
v 167.4117 0.06504822 30.89301
v 166.3185 0.06504822 30.89301
v 167.4117 0.06504822 32.20483
v 166.3185 0.06504822 32.20483
v 164.3507 0.06504822 30.89301
v 163.2575 0.06504822 30.89301
v 164.3507 0.06504822 31.98619
v 163.2575 0.06504822 31.98619
v 165.0066 0.06504822 30.45573
v 164.1321 0.06504822 30.45573
v 165.0066 0.06504822 31.33028
v 164.1321 0.06504822 31.33028
v 165.2253 0.06504822 30.23709
v 164.1321 0.06504822 30.23709
v 165.2253 0.06504822 31.33028
v 164.1321 0.06504822 31.33028
v 166.9744 0.06504822 29.58118
v 166.0998 0.06504822 29.58118
v 166.9744 0.06504822 30.67436
v 166.0998 0.06504822 30.67436
v 163.6948 0.06504822 27.61343
v 162.8203 0.06504822 27.61343
v 163.6948 0.06504822 28.70662
v 162.8203 0.06504822 28.70662
v 166.0998 0.06504822 27.17616
v 165.2253 0.06504822 27.17616
v 166.0998 0.06504822 28.26935
v 165.2253 0.06504822 28.26935
v 164.1321 0.06504822 26.73888
v 163.0389 0.06504822 26.73888
v 164.1321 0.06504822 28.0507
v 163.0389 0.06504822 28.0507
v 165.6626 0.06504822 26.73888
v 164.788 0.06504822 26.73888
v 165.6626 0.06504822 27.83208
v 164.788 0.06504822 27.83208
v 164.5694 0.06504822 26.08296
v 163.6948 0.06504822 26.08296
v 164.5694 0.06504822 27.17616
v 163.6948 0.06504822 27.17616
v 163.2575 0.06504822 25.86433
v 162.383 0.06504822 25.86433
v 163.2575 0.06504822 26.95752
v 162.383 0.06504822 26.95752
v 164.3507 0.06504822 24.11523
v 163.4762 0.06504822 24.11523
v 164.3507 0.06504822 25.20842
v 163.4762 0.06504822 25.20842
v 165.8812 0.06504822 23.02203
v 164.788 0.06504822 23.02203
v 165.8812 0.06504822 24.11523
v 164.788 0.06504822 24.11523
vt 0.1347656 0.9185662
vt 0.2060202 0.9185662
vt 0.1347656 1
vt 0.2060202 1
vt 0.1347656 0.9185662
vt 0.2060202 0.9185662
vt 0.1347656 1
vt 0.2060202 1
vt 0.1347656 0.9185662
vt 0.2060202 0.9185662
vt 0.1347656 1
vt 0.2060202 1
vt 0.1347656 0.9185662
vt 0.2060202 0.9185662
vt 0.1347656 1
vt 0.2060202 1
vt 0.1347656 0.9185662
vt 0.2060202 0.9185662
vt 0.1347656 1
vt 0.2060202 1
vt 0.1347656 0.9185662
vt 0.2060202 0.9185662
vt 0.1347656 1
vt 0.2060202 1
vt 0.1347656 0.9185662
vt 0.2060202 0.9185662
vt 0.1347656 1
vt 0.2060202 1
vt 0.1347656 0.9185662
vt 0.2060202 0.9185662
vt 0.1347656 1
vt 0.2060202 1
vt 0.1347656 0.9185662
vt 0.2060202 0.9185662
vt 0.1347656 1
vt 0.2060202 1
vt 0.1347656 0.9185662
vt 0.2060202 0.9185662
vt 0.1347656 1
vt 0.2060202 1
vt 0.1347656 0.9185662
vt 0.2060202 0.9185662
vt 0.1347656 1
vt 0.2060202 1
vt 0.1347656 0.9185662
vt 0.2060202 0.9185662
vt 0.1347656 1
vt 0.2060202 1
vt 0.1347656 0.9185662
vt 0.2060202 0.9185662
vt 0.1347656 1
vt 0.2060202 1
vt 0.1347656 0.9185662
vt 0.2060202 0.9185662
vt 0.1347656 1
vt 0.2060202 1
vt 0.1347656 0.9185662
vt 0.2060202 0.9185662
vt 0.1347656 1
vt 0.2060202 1
vt 0.1347656 0.9185662
vt 0.2060202 0.9185662
vt 0.1347656 1
vt 0.2060202 1
vt 0.1347656 0.9185662
vt 0.2060202 0.9185662
vt 0.1347656 1
vt 0.2060202 1
vt 0.1347656 0.9185662
vt 0.2060202 0.9185662
vt 0.1347656 1
vt 0.2060202 1
vt 0.1347656 0.9185662
vt 0.2060202 0.9185662
vt 0.1347656 1
vt 0.2060202 1
vt 0.1347656 0.9185662
vt 0.2060202 0.9185662
vt 0.1347656 1
vt 0.2060202 1
vt 0.1347656 0.9185662
vt 0.2060202 0.9185662
vt 0.1347656 1
vt 0.2060202 1
vt 0.1347656 0.9185662
vt 0.2060202 0.9185662
vt 0.1347656 1
vt 0.2060202 1
vt 0.1347656 0.9185662
vt 0.2060202 0.9185662
vt 0.1347656 1
vt 0.2060202 1
vt 0.1347656 0.9185662
vt 0.2060202 0.9185662
vt 0.1347656 1
vt 0.2060202 1
vt 0.1347656 0.9185662
vt 0.2060202 0.9185662
vt 0.1347656 1
vt 0.2060202 1
vt 0.1347656 0.9185662
vt 0.2060202 0.9185662
vt 0.1347656 1
vt 0.2060202 1
vt 0.1347656 0.9185662
vt 0.2060202 0.9185662
vt 0.1347656 1
vt 0.2060202 1
vt 0.1347656 0.9185662
vt 0.2060202 0.9185662
vt 0.1347656 1
vt 0.2060202 1
vt 0.1347656 0.9185662
vt 0.2060202 0.9185662
vt 0.1347656 1
vt 0.2060202 1
vt 0.1347656 0.9185662
vt 0.2060202 0.9185662
vt 0.1347656 1
vt 0.2060202 1
vt 0.1347656 0.9185662
vt 0.2060202 0.9185662
vt 0.1347656 1
vt 0.2060202 1
vt 0.1347656 0.9185662
vt 0.2060202 0.9185662
vt 0.1347656 1
vt 0.2060202 1
vt 0.1347656 0.9185662
vt 0.2060202 0.9185662
vt 0.1347656 1
vt 0.2060202 1
vt 0.1347656 0.9185662
vt 0.2060202 0.9185662
vt 0.1347656 1
vt 0.2060202 1
vt 0.1347656 0.9185662
vt 0.2060202 0.9185662
vt 0.1347656 1
vt 0.2060202 1
vt 0.1347656 0.9185662
vt 0.2060202 0.9185662
vt 0.1347656 1
vt 0.2060202 1
vt 0.1347656 0.9185662
vt 0.2060202 0.9185662
vt 0.1347656 1
vt 0.2060202 1
vt 0.1347656 0.9185662
vt 0.2060202 0.9185662
vt 0.1347656 1
vt 0.2060202 1
vt 0.1347656 0.9185662
vt 0.2060202 0.9185662
vt 0.1347656 1
vt 0.2060202 1
vn 0 1 0
vn 0 1 0
vn 0 1 0
vn 0 1 0
vn 0 1 0
vn 0 1 0
vn 0 1 0
vn 0 1 0
vn 0 1 0
vn 0 1 0
vn 0 1 0
vn 0 1 0
vn 0 1 0
vn 0 1 0
vn 0 1 0
vn 0 1 0
vn 0 1 0
vn 0 1 0
vn 0 1 0
vn 0 1 0
vn 0 1 0
vn 0 1 0
vn 0 1 0
vn 0 1 0
vn 0 1 0
vn 0 1 0
vn 0 1 0
vn 0 1 0
vn 0 1 0
vn 0 1 0
vn 0 1 0
vn 0 1 0
vn 0 1 0
vn 0 1 0
vn 0 1 0
vn 0 1 0
vn 0 1 0
vn 0 1 0
vn 0 1 0
vn 0 1 0
vn 0 1 0
vn 0 1 0
vn 0 1 0
vn 0 1 0
vn 0 1 0
vn 0 1 0
vn 0 1 0
vn 0 1 0
vn 0 1 0
vn 0 1 0
vn 0 1 0
vn 0 1 0
vn 0 1 0
vn 0 1 0
vn 0 1 0
vn 0 1 0
vn 0 1 0
vn 0 1 0
vn 0 1 0
vn 0 1 0
vn 0 1 0
vn 0 1 0
vn 0 1 0
vn 0 1 0
vn 0 1 0
vn 0 1 0
vn 0 1 0
vn 0 1 0
vn 0 1 0
vn 0 1 0
vn 0 1 0
vn 0 1 0
vn 0 1 0
vn 0 1 0
vn 0 1 0
vn 0 1 0
vn 0 1 0
vn 0 1 0
vn 0 1 0
vn 0 1 0
vn 0 1 0
vn 0 1 0
vn 0 1 0
vn 0 1 0
vn 0 1 0
vn 0 1 0
vn 0 1 0
vn 0 1 0
vn 0 1 0
vn 0 1 0
vn 0 1 0
vn 0 1 0
vn 0 1 0
vn 0 1 0
vn 0 1 0
vn 0 1 0
vn 0 1 0
vn 0 1 0
vn 0 1 0
vn 0 1 0
vn 0 1 0
vn 0 1 0
vn 0 1 0
vn 0 1 0
vn 0 1 0
vn 0 1 0
vn 0 1 0
vn 0 1 0
vn 0 1 0
vn 0 1 0
vn 0 1 0
vn 0 1 0
vn 0 1 0
vn 0 1 0
vn 0 1 0
vn 0 1 0
vn 0 1 0
vn 0 1 0
vn 0 1 0
vn 0 1 0
vn 0 1 0
vn 0 1 0
vn 0 1 0
vn 0 1 0
vn 0 1 0
vn 0 1 0
vn 0 1 0
vn 0 1 0
vn 0 1 0
vn 0 1 0
vn 0 1 0
vn 0 1 0
vn 0 1 0
vn 0 1 0
vn 0 1 0
vn 0 1 0
vn 0 1 0
vn 0 1 0
vn 0 1 0
vn 0 1 0
vn 0 1 0
vn 0 1 0
vn 0 1 0
vn 0 1 0
vn 0 1 0
vn 0 1 0
vn 0 1 0
vn 0 1 0
vn 0 1 0
vn 0 1 0
vn 0 1 0
vn 0 1 0
vn 0 1 0
vn 0 1 0
vn 0 1 0
vn 0 1 0
g Grass_2_Cluster44_0
f 2/2/2 3/3/3 1/1/1
f 2/2/2 4/4/4 3/3/3
f 6/6/6 7/7/7 5/5/5
f 6/6/6 8/8/8 7/7/7
f 10/10/10 11/11/11 9/9/9
f 10/10/10 12/12/12 11/11/11
f 14/14/14 15/15/15 13/13/13
f 14/14/14 16/16/16 15/15/15
f 18/18/18 19/19/19 17/17/17
f 18/18/18 20/20/20 19/19/19
f 22/22/22 23/23/23 21/21/21
f 22/22/22 24/24/24 23/23/23
f 26/26/26 27/27/27 25/25/25
f 26/26/26 28/28/28 27/27/27
f 30/30/30 31/31/31 29/29/29
f 30/30/30 32/32/32 31/31/31
f 34/34/34 35/35/35 33/33/33
f 34/34/34 36/36/36 35/35/35
f 38/38/38 39/39/39 37/37/37
f 38/38/38 40/40/40 39/39/39
f 42/42/42 43/43/43 41/41/41
f 42/42/42 44/44/44 43/43/43
f 46/46/46 47/47/47 45/45/45
f 46/46/46 48/48/48 47/47/47
f 50/50/50 51/51/51 49/49/49
f 50/50/50 52/52/52 51/51/51
f 54/54/54 55/55/55 53/53/53
f 54/54/54 56/56/56 55/55/55
f 58/58/58 59/59/59 57/57/57
f 58/58/58 60/60/60 59/59/59
f 62/62/62 63/63/63 61/61/61
f 62/62/62 64/64/64 63/63/63
f 66/66/66 67/67/67 65/65/65
f 66/66/66 68/68/68 67/67/67
f 70/70/70 71/71/71 69/69/69
f 70/70/70 72/72/72 71/71/71
f 74/74/74 75/75/75 73/73/73
f 74/74/74 76/76/76 75/75/75
f 78/78/78 79/79/79 77/77/77
f 78/78/78 80/80/80 79/79/79
f 82/82/82 83/83/83 81/81/81
f 82/82/82 84/84/84 83/83/83
f 86/86/86 87/87/87 85/85/85
f 86/86/86 88/88/88 87/87/87
f 90/90/90 91/91/91 89/89/89
f 90/90/90 92/92/92 91/91/91
f 94/94/94 95/95/95 93/93/93
f 94/94/94 96/96/96 95/95/95
f 98/98/98 99/99/99 97/97/97
f 98/98/98 100/100/100 99/99/99
f 102/102/102 103/103/103 101/101/101
f 102/102/102 104/104/104 103/103/103
f 106/106/106 107/107/107 105/105/105
f 106/106/106 108/108/108 107/107/107
f 110/110/110 111/111/111 109/109/109
f 110/110/110 112/112/112 111/111/111
f 114/114/114 115/115/115 113/113/113
f 114/114/114 116/116/116 115/115/115
f 118/118/118 119/119/119 117/117/117
f 118/118/118 120/120/120 119/119/119
f 122/122/122 123/123/123 121/121/121
f 122/122/122 124/124/124 123/123/123
f 126/126/126 127/127/127 125/125/125
f 126/126/126 128/128/128 127/127/127
f 130/130/130 131/131/131 129/129/129
f 130/130/130 132/132/132 131/131/131
f 134/134/134 135/135/135 133/133/133
f 134/134/134 136/136/136 135/135/135
f 138/138/138 139/139/139 137/137/137
f 138/138/138 140/140/140 139/139/139
f 142/142/142 143/143/143 141/141/141
f 142/142/142 144/144/144 143/143/143
f 146/146/146 147/147/147 145/145/145
f 146/146/146 148/148/148 147/147/147
f 150/150/150 151/151/151 149/149/149
f 150/150/150 152/152/152 151/151/151
f 154/154/154 155/155/155 153/153/153
f 154/154/154 156/156/156 155/155/155
