g Grass_0_Cluster162
v 218.1833 0.09223938 229.4197
v 217.2623 0.09223938 229.4197
v 218.1833 0.09223938 230.8012
v 217.2623 0.09223938 230.8012
v 238.4452 0.09223938 228.4987
v 237.5242 0.09223938 228.4987
v 238.4452 0.09223938 229.8802
v 237.5242 0.09223938 229.8802
v 238.9057 0.09223938 227.5778
v 238.4452 0.09223938 227.5778
v 238.9057 0.09223938 228.9592
v 238.4452 0.09223938 228.9592
v 220.4858 0.09223938 227.5778
v 219.5648 0.09223938 227.5778
v 220.4858 0.09223938 228.9592
v 219.5648 0.09223938 228.9592
v 237.5242 0.09223938 227.5778
v 236.6032 0.09223938 227.5778
v 237.5242 0.09223938 228.4987
v 236.6032 0.09223938 228.4987
v 223.2488 0.09223938 227.1172
v 222.3278 0.09223938 227.1172
v 223.2488 0.09223938 228.4987
v 222.3278 0.09223938 228.4987
v 223.2488 0.09223938 226.6568
v 222.3278 0.09223938 226.6568
v 223.2488 0.09223938 227.5778
v 222.3278 0.09223938 227.5778
v 237.5242 0.09223938 225.7357
v 236.6032 0.09223938 225.7357
v 237.5242 0.09223938 227.1172
v 236.6032 0.09223938 227.1172
v 221.4068 0.09223938 225.7357
v 220.4858 0.09223938 225.7357
v 221.4068 0.09223938 226.6568
v 220.4858 0.09223938 226.6568
v 220.0253 0.09223938 224.3543
v 219.1043 0.09223938 224.3543
v 220.0253 0.09223938 225.7357
v 219.1043 0.09223938 225.7357
v 227.3932 0.09223938 223.8938
v 226.4723 0.09223938 223.8938
v 227.3932 0.09223938 224.8148
v 226.4723 0.09223938 224.8148
v 219.5648 0.09223938 223.4333
v 218.6438 0.09223938 223.4333
v 219.5648 0.09223938 224.8148
v 218.6438 0.09223938 224.8148
v 227.8538 0.09223938 222.5123
v 226.9328 0.09223938 222.5123
v 227.8538 0.09223938 223.4333
v 226.9328 0.09223938 223.4333
v 222.7883 0.09223938 222.5123
v 221.8673 0.09223938 222.5123
v 222.7883 0.09223938 223.4333
v 221.8673 0.09223938 223.4333
v 215.8808 0.09223938 221.5913
v 214.9598 0.09223938 221.5913
v 215.8808 0.09223938 222.9728
v 214.9598 0.09223938 222.9728
v 221.8673 0.09223938 220.6703
v 220.9463 0.09223938 220.6703
v 221.8673 0.09223938 222.0518
v 220.9463 0.09223938 222.0518
v 217.7228 0.09223938 220.2098
v 216.8018 0.09223938 220.2098
v 217.7228 0.09223938 221.5913
v 216.8018 0.09223938 221.5913
v 239.8267 0.09223938 217.9073
v 238.9057 0.09223938 217.9073
v 239.8267 0.09223938 219.2888
v 238.9057 0.09223938 219.2888
v 231.9982 0.09223938 208.6974
v 231.0772 0.09223938 208.6974
v 231.9982 0.09223938 210.0789
v 231.0772 0.09223938 210.0789
v 236.1427 0.09223938 206.8554
v 235.6822 0.09223938 206.8554
v 236.1427 0.09223938 208.2369
v 235.6822 0.09223938 208.2369
v 230.6167 0.09223938 206.3949
v 229.6957 0.09223938 206.3949
v 230.6167 0.09223938 207.7764
v 229.6957 0.09223938 207.7764
v 230.6167 0.09223938 206.3949
v 229.6957 0.09223938 206.3949
v 230.6167 0.09223938 207.7764
v 229.6957 0.09223938 207.7764
v 240.2872 0.09223938 205.4739
v 239.3662 0.09223938 205.4739
v 240.2872 0.09223938 206.8554
v 239.3662 0.09223938 206.8554
v 237.0637 0.09223938 205.0134
v 236.1427 0.09223938 205.0134
v 237.0637 0.09223938 206.3949
v 236.1427 0.09223938 206.3949
v 235.2217 0.09223938 203.6319
v 234.3007 0.09223938 203.6319
v 235.2217 0.09223938 205.0134
v 234.3007 0.09223938 205.0134
v 233.3797 0.09223938 203.6319
v 232.4587 0.09223938 203.6319
v 233.3797 0.09223938 205.0134
v 232.4587 0.09223938 205.0134
v 236.6032 0.09223938 203.6319
v 236.1427 0.09223938 203.6319
v 236.6032 0.09223938 204.5529
v 236.1427 0.09223938 204.5529
v 239.8267 0.09223938 203.1714
v 238.9057 0.09223938 203.1714
v 239.8267 0.09223938 204.5529
v 238.9057 0.09223938 204.5529
v 231.9982 0.09223938 203.1714
v 231.0772 0.09223938 203.1714
v 231.9982 0.09223938 204.5529
v 231.0772 0.09223938 204.5529
v 212.6573 0.09223938 203.1714
v 211.7364 0.09223938 203.1714
v 212.6573 0.09223938 204.0924
v 211.7364 0.09223938 204.0924
vt 0 0.9058824
vt 0.06666667 0.9058824
vt 0 1
vt 0.06666667 1
vt 0 0.9058824
vt 0.06666667 0.9058824
vt 0 1
vt 0.06666667 1
vt 0 0.9058824
vt 0.06666667 0.9058824
vt 0 1
vt 0.06666667 1
vt 0 0.9058824
vt 0.06666667 0.9058824
vt 0 1
vt 0.06666667 1
vt 0 0.9058824
vt 0.06666667 0.9058824
vt 0 1
vt 0.06666667 1
vt 0 0.9058824
vt 0.06666667 0.9058824
vt 0 1
vt 0.06666667 1
vt 0 0.9058824
vt 0.06666667 0.9058824
vt 0 1
vt 0.06666667 1
vt 0 0.9058824
vt 0.06666667 0.9058824
vt 0 1
vt 0.06666667 1
vt 0 0.9058824
vt 0.06666667 0.9058824
vt 0 1
vt 0.06666667 1
vt 0 0.9058824
vt 0.06666667 0.9058824
vt 0 1
vt 0.06666667 1
vt 0 0.9058824
vt 0.06666667 0.9058824
vt 0 1
vt 0.06666667 1
vt 0 0.9058824
vt 0.06666667 0.9058824
vt 0 1
vt 0.06666667 1
vt 0 0.9058824
vt 0.06666667 0.9058824
vt 0 1
vt 0.06666667 1
vt 0 0.9058824
vt 0.06666667 0.9058824
vt 0 1
vt 0.06666667 1
vt 0 0.9058824
vt 0.06666667 0.9058824
vt 0 1
vt 0.06666667 1
vt 0 0.9058824
vt 0.06666667 0.9058824
vt 0 1
vt 0.06666667 1
vt 0 0.9058824
vt 0.06666667 0.9058824
vt 0 1
vt 0.06666667 1
vt 0 0.9058824
vt 0.06666667 0.9058824
vt 0 1
vt 0.06666667 1
vt 0 0.9058824
vt 0.06666667 0.9058824
vt 0 1
vt 0.06666667 1
vt 0 0.9058824
vt 0.06666667 0.9058824
vt 0 1
vt 0.06666667 1
vt 0 0.9058824
vt 0.06666667 0.9058824
vt 0 1
vt 0.06666667 1
vt 0 0.9058824
vt 0.06666667 0.9058824
vt 0 1
vt 0.06666667 1
vt 0 0.9058824
vt 0.06666667 0.9058824
vt 0 1
vt 0.06666667 1
vt 0 0.9058824
vt 0.06666667 0.9058824
vt 0 1
vt 0.06666667 1
vt 0 0.9058824
vt 0.06666667 0.9058824
vt 0 1
vt 0.06666667 1
vt 0 0.9058824
vt 0.06666667 0.9058824
vt 0 1
vt 0.06666667 1
vt 0 0.9058824
vt 0.06666667 0.9058824
vt 0 1
vt 0.06666667 1
vt 0 0.9058824
vt 0.06666667 0.9058824
vt 0 1
vt 0.06666667 1
vt 0 0.9058824
vt 0.06666667 0.9058824
vt 0 1
vt 0.06666667 1
vt 0 0.9058824
vt 0.06666667 0.9058824
vt 0 1
vt 0.06666667 1
vn 0 1 0
vn 0 1 0
vn 0 1 0
vn 0 1 0
vn 0 1 0
vn 0 1 0
vn 0 1 0
vn 0 1 0
vn 0 1 0
vn 0 1 0
vn 0 1 0
vn 0 1 0
vn 0 1 0
vn 0 1 0
vn 0 1 0
vn 0 1 0
vn 0 1 0
vn 0 1 0
vn 0 1 0
vn 0 1 0
vn 0 1 0
vn 0 1 0
vn 0 1 0
vn 0 1 0
vn 0 1 0
vn 0 1 0
vn 0 1 0
vn 0 1 0
vn 0 1 0
vn 0 1 0
vn 0 1 0
vn 0 1 0
vn 0 1 0
vn 0 1 0
vn 0 1 0
vn 0 1 0
vn 0 1 0
vn 0 1 0
vn 0 1 0
vn 0 1 0
vn 0 1 0
vn 0 1 0
vn 0 1 0
vn 0 1 0
vn 0 1 0
vn 0 1 0
vn 0 1 0
vn 0 1 0
vn 0 1 0
vn 0 1 0
vn 0 1 0
vn 0 1 0
vn 0 1 0
vn 0 1 0
vn 0 1 0
vn 0 1 0
vn 0 1 0
vn 0 1 0
vn 0 1 0
vn 0 1 0
vn 0 1 0
vn 0 1 0
vn 0 1 0
vn 0 1 0
vn 0 1 0
vn 0 1 0
vn 0 1 0
vn 0 1 0
vn 0 1 0
vn 0 1 0
vn 0 1 0
vn 0 1 0
vn 0 1 0
vn 0 1 0
vn 0 1 0
vn 0 1 0
vn 0 1 0
vn 0 1 0
vn 0 1 0
vn 0 1 0
vn 0 1 0
vn 0 1 0
vn 0 1 0
vn 0 1 0
vn 0 1 0
vn 0 1 0
vn 0 1 0
vn 0 1 0
vn 0 1 0
vn 0 1 0
vn 0 1 0
vn 0 1 0
vn 0 1 0
vn 0 1 0
vn 0 1 0
vn 0 1 0
vn 0 1 0
vn 0 1 0
vn 0 1 0
vn 0 1 0
vn 0 1 0
vn 0 1 0
vn 0 1 0
vn 0 1 0
vn 0 1 0
vn 0 1 0
vn 0 1 0
vn 0 1 0
vn 0 1 0
vn 0 1 0
vn 0 1 0
vn 0 1 0
vn 0 1 0
vn 0 1 0
vn 0 1 0
vn 0 1 0
vn 0 1 0
vn 0 1 0
vn 0 1 0
vn 0 1 0
g Grass_0_Cluster162_0
f 2/2/2 3/3/3 1/1/1
f 2/2/2 4/4/4 3/3/3
f 6/6/6 7/7/7 5/5/5
f 6/6/6 8/8/8 7/7/7
f 10/10/10 11/11/11 9/9/9
f 10/10/10 12/12/12 11/11/11
f 14/14/14 15/15/15 13/13/13
f 14/14/14 16/16/16 15/15/15
f 18/18/18 19/19/19 17/17/17
f 18/18/18 20/20/20 19/19/19
f 22/22/22 23/23/23 21/21/21
f 22/22/22 24/24/24 23/23/23
f 26/26/26 27/27/27 25/25/25
f 26/26/26 28/28/28 27/27/27
f 30/30/30 31/31/31 29/29/29
f 30/30/30 32/32/32 31/31/31
f 34/34/34 35/35/35 33/33/33
f 34/34/34 36/36/36 35/35/35
f 38/38/38 39/39/39 37/37/37
f 38/38/38 40/40/40 39/39/39
f 42/42/42 43/43/43 41/41/41
f 42/42/42 44/44/44 43/43/43
f 46/46/46 47/47/47 45/45/45
f 46/46/46 48/48/48 47/47/47
f 50/50/50 51/51/51 49/49/49
f 50/50/50 52/52/52 51/51/51
f 54/54/54 55/55/55 53/53/53
f 54/54/54 56/56/56 55/55/55
f 58/58/58 59/59/59 57/57/57
f 58/58/58 60/60/60 59/59/59
f 62/62/62 63/63/63 61/61/61
f 62/62/62 64/64/64 63/63/63
f 66/66/66 67/67/67 65/65/65
f 66/66/66 68/68/68 67/67/67
f 70/70/70 71/71/71 69/69/69
f 70/70/70 72/72/72 71/71/71
f 74/74/74 75/75/75 73/73/73
f 74/74/74 76/76/76 75/75/75
f 78/78/78 79/79/79 77/77/77
f 78/78/78 80/80/80 79/79/79
f 82/82/82 83/83/83 81/81/81
f 82/82/82 84/84/84 83/83/83
f 86/86/86 87/87/87 85/85/85
f 86/86/86 88/88/88 87/87/87
f 90/90/90 91/91/91 89/89/89
f 90/90/90 92/92/92 91/91/91
f 94/94/94 95/95/95 93/93/93
f 94/94/94 96/96/96 95/95/95
f 98/98/98 99/99/99 97/97/97
f 98/98/98 100/100/100 99/99/99
f 102/102/102 103/103/103 101/101/101
f 102/102/102 104/104/104 103/103/103
f 106/106/106 107/107/107 105/105/105
f 106/106/106 108/108/108 107/107/107
f 110/110/110 111/111/111 109/109/109
f 110/110/110 112/112/112 111/111/111
f 114/114/114 115/115/115 113/113/113
f 114/114/114 116/116/116 115/115/115
f 118/118/118 119/119/119 117/117/117
f 118/118/118 120/120/120 119/119/119
