g Grass_0_Cluster58
v -259.2137 0 46.76944
v -260.0064 0 46.76944
v -259.2137 0 48.09061
v -260.0064 0 48.09061
v -261.0633 0 46.76944
v -261.856 0 46.76944
v -261.0633 0 48.09061
v -261.856 0 48.09061
v -254.7217 0 46.50521
v -255.5144 0 46.50521
v -254.7217 0 47.56215
v -255.5144 0 47.56215
v -266.348 0 46.50521
v -267.1407 0 46.50521
v -266.348 0 47.82638
v -267.1407 0 47.82638
v -263.7057 0 46.24097
v -264.4984 0 46.24097
v -263.7057 0 47.56215
v -264.4984 0 47.56215
v -259.2137 0 46.24097
v -260.0064 0 46.24097
v -259.2137 0 47.29791
v -260.0064 0 47.29791
v -255.2502 0 46.24097
v -256.0429 0 46.24097
v -255.2502 0 47.29791
v -256.0429 0 47.29791
v -254.1932 0 45.97674
v -254.9859 0 45.97674
v -254.1932 0 47.29791
v -254.9859 0 47.29791
v -265.5553 0 45.71251
v -266.6122 0 45.71251
v -265.5553 0 47.03368
v -266.6122 0 47.03368
v -268.7261 0 45.71251
v -269.7831 0 45.71251
v -268.7261 0 47.03368
v -269.7831 0 47.03368
v -265.5553 0 44.9198
v -266.348 0 44.9198
v -265.5553 0 46.24097
v -266.348 0 46.24097
v -253.4005 0 44.9198
v -254.4575 0 44.9198
v -253.4005 0 46.24097
v -254.4575 0 46.24097
v -262.913 0 44.65557
v -263.7057 0 44.65557
v -262.913 0 45.97674
v -263.7057 0 45.97674
v -257.6283 0 44.65557
v -258.421 0 44.65557
v -257.6283 0 45.71251
v -258.421 0 45.71251
v -259.4779 0 44.1271
v -260.2706 0 44.1271
v -259.4779 0 45.18404
v -260.2706 0 45.18404
v -266.0838 0 44.1271
v -266.8765 0 44.1271
v -266.0838 0 45.18404
v -266.8765 0 45.18404
v -259.7422 0 43.86287
v -260.7991 0 43.86287
v -259.7422 0 45.18404
v -260.7991 0 45.18404
v -262.3845 0 43.86287
v -263.1772 0 43.86287
v -262.3845 0 44.9198
v -263.1772 0 44.9198
v -268.4619 0 43.86287
v -269.2546 0 43.86287
v -268.4619 0 44.9198
v -269.2546 0 44.9198
v -264.2341 0 43.59863
v -265.0269 0 43.59863
v -264.2341 0 44.65557
v -265.0269 0 44.65557
v -258.9495 0 43.59863
v -260.0064 0 43.59863
v -258.9495 0 44.9198
v -260.0064 0 44.9198
v -260.7991 0 43.07016
v -261.5918 0 43.07016
v -260.7991 0 44.39133
v -261.5918 0 44.39133
v -264.7626 0 42.01323
v -265.5553 0 42.01323
v -264.7626 0 43.3344
v -265.5553 0 43.3344
v -258.6852 0 42.01323
v -259.4779 0 42.01323
v -258.6852 0 43.3344
v -259.4779 0 43.3344
v -260.5349 0 41.48476
v -261.3276 0 41.48476
v -260.5349 0 42.80593
v -261.3276 0 42.80593
v -261.856 0 40.95629
v -262.913 0 40.95629
v -261.856 0 42.27746
v -262.913 0 42.27746
v -265.2911 0 39.63512
v -266.348 0 39.63512
v -265.2911 0 40.95629
v -266.348 0 40.95629
v -258.1568 0 39.10665
v -258.9495 0 39.10665
v -258.1568 0 40.16359
v -258.9495 0 40.16359
v -256.8356 0 36.46431
v -257.8925 0 36.46431
v -256.8356 0 37.78548
v -257.8925 0 37.78548
v -255.7787 0 28.00882
v -256.5714 0 28.00882
v -255.7787 0 29.06576
v -256.5714 0 29.06576
v -261.5918 0 26.68765
v -262.6487 0 26.68765
v -261.5918 0 28.00882
v -262.6487 0 28.00882
v -260.5349 0 25.63071
v -261.5918 0 25.63071
v -260.5349 0 26.95188
v -261.5918 0 26.95188
v -263.4414 0 25.36648
v -264.4984 0 25.36648
v -263.4414 0 26.42341
v -264.4984 0 26.42341
v -258.1568 0 24.57377
v -259.2137 0 24.57377
v -258.1568 0 25.89495
v -259.2137 0 25.89495
v -264.4984 0 24.30954
v -265.5553 0 24.30954
v -264.4984 0 25.63071
v -265.5553 0 25.63071
v -261.3276 0 23.78107
v -262.1203 0 23.78107
v -261.3276 0 25.10224
v -262.1203 0 25.10224
v -266.6122 0 23.78107
v -267.4049 0 23.78107
v -266.6122 0 24.83801
v -267.4049 0 24.83801
v -269.2546 0 23.78107
v -270.3115 0 23.78107
v -269.2546 0 25.10224
v -270.3115 0 25.10224
v -260.2706 0 23.51684
v -261.0633 0 23.51684
v -260.2706 0 24.83801
v -261.0633 0 24.83801
v -258.6852 0 23.2526
v -259.7422 0 23.2526
v -258.6852 0 24.30954
v -259.7422 0 24.30954
v -262.3845 0 22.98837
v -263.1772 0 22.98837
v -262.3845 0 24.30954
v -263.1772 0 24.30954
vt 0 0.9058824
vt 0.06666667 0.9058824
vt 0 1
vt 0.06666667 1
vt 0 0.9058824
vt 0.06666667 0.9058824
vt 0 1
vt 0.06666667 1
vt 0 0.9058824
vt 0.06666667 0.9058824
vt 0 1
vt 0.06666667 1
vt 0 0.9058824
vt 0.06666667 0.9058824
vt 0 1
vt 0.06666667 1
vt 0 0.9058824
vt 0.06666667 0.9058824
vt 0 1
vt 0.06666667 1
vt 0 0.9058824
vt 0.06666667 0.9058824
vt 0 1
vt 0.06666667 1
vt 0 0.9058824
vt 0.06666667 0.9058824
vt 0 1
vt 0.06666667 1
vt 0 0.9058824
vt 0.06666667 0.9058824
vt 0 1
vt 0.06666667 1
vt 0 0.9058824
vt 0.06666667 0.9058824
vt 0 1
vt 0.06666667 1
vt 0 0.9058824
vt 0.06666667 0.9058824
vt 0 1
vt 0.06666667 1
vt 0 0.9058824
vt 0.06666667 0.9058824
vt 0 1
vt 0.06666667 1
vt 0 0.9058824
vt 0.06666667 0.9058824
vt 0 1
vt 0.06666667 1
vt 0 0.9058824
vt 0.06666667 0.9058824
vt 0 1
vt 0.06666667 1
vt 0 0.9058824
vt 0.06666667 0.9058824
vt 0 1
vt 0.06666667 1
vt 0 0.9058824
vt 0.06666667 0.9058824
vt 0 1
vt 0.06666667 1
vt 0 0.9058824
vt 0.06666667 0.9058824
vt 0 1
vt 0.06666667 1
vt 0 0.9058824
vt 0.06666667 0.9058824
vt 0 1
vt 0.06666667 1
vt 0 0.9058824
vt 0.06666667 0.9058824
vt 0 1
vt 0.06666667 1
vt 0 0.9058824
vt 0.06666667 0.9058824
vt 0 1
vt 0.06666667 1
vt 0 0.9058824
vt 0.06666667 0.9058824
vt 0 1
vt 0.06666667 1
vt 0 0.9058824
vt 0.06666667 0.9058824
vt 0 1
vt 0.06666667 1
vt 0 0.9058824
vt 0.06666667 0.9058824
vt 0 1
vt 0.06666667 1
vt 0 0.9058824
vt 0.06666667 0.9058824
vt 0 1
vt 0.06666667 1
vt 0 0.9058824
vt 0.06666667 0.9058824
vt 0 1
vt 0.06666667 1
vt 0 0.9058824
vt 0.06666667 0.9058824
vt 0 1
vt 0.06666667 1
vt 0 0.9058824
vt 0.06666667 0.9058824
vt 0 1
vt 0.06666667 1
vt 0 0.9058824
vt 0.06666667 0.9058824
vt 0 1
vt 0.06666667 1
vt 0 0.9058824
vt 0.06666667 0.9058824
vt 0 1
vt 0.06666667 1
vt 0 0.9058824
vt 0.06666667 0.9058824
vt 0 1
vt 0.06666667 1
vt 0 0.9058824
vt 0.06666667 0.9058824
vt 0 1
vt 0.06666667 1
vt 0 0.9058824
vt 0.06666667 0.9058824
vt 0 1
vt 0.06666667 1
vt 0 0.9058824
vt 0.06666667 0.9058824
vt 0 1
vt 0.06666667 1
vt 0 0.9058824
vt 0.06666667 0.9058824
vt 0 1
vt 0.06666667 1
vt 0 0.9058824
vt 0.06666667 0.9058824
vt 0 1
vt 0.06666667 1
vt 0 0.9058824
vt 0.06666667 0.9058824
vt 0 1
vt 0.06666667 1
vt 0 0.9058824
vt 0.06666667 0.9058824
vt 0 1
vt 0.06666667 1
vt 0 0.9058824
vt 0.06666667 0.9058824
vt 0 1
vt 0.06666667 1
vt 0 0.9058824
vt 0.06666667 0.9058824
vt 0 1
vt 0.06666667 1
vt 0 0.9058824
vt 0.06666667 0.9058824
vt 0 1
vt 0.06666667 1
vt 0 0.9058824
vt 0.06666667 0.9058824
vt 0 1
vt 0.06666667 1
vt 0 0.9058824
vt 0.06666667 0.9058824
vt 0 1
vt 0.06666667 1
vn 0 1 0
vn 0 1 0
vn 0 1 0
vn 0 1 0
vn 0 1 0
vn 0 1 0
vn 0 1 0
vn 0 1 0
vn 0 1 0
vn 0 1 0
vn 0 1 0
vn 0 1 0
vn 0 1 0
vn 0 1 0
vn 0 1 0
vn 0 1 0
vn 0 1 0
vn 0 1 0
vn 0 1 0
vn 0 1 0
vn 0 1 0
vn 0 1 0
vn 0 1 0
vn 0 1 0
vn 0 1 0
vn 0 1 0
vn 0 1 0
vn 0 1 0
vn 0 1 0
vn 0 1 0
vn 0 1 0
vn 0 1 0
vn 0 1 0
vn 0 1 0
vn 0 1 0
vn 0 1 0
vn 0 1 0
vn 0 1 0
vn 0 1 0
vn 0 1 0
vn 0 1 0
vn 0 1 0
vn 0 1 0
vn 0 1 0
vn 0 1 0
vn 0 1 0
vn 0 1 0
vn 0 1 0
vn 0 1 0
vn 0 1 0
vn 0 1 0
vn 0 1 0
vn 0 1 0
vn 0 1 0
vn 0 1 0
vn 0 1 0
vn 0 1 0
vn 0 1 0
vn 0 1 0
vn 0 1 0
vn 0 1 0
vn 0 1 0
vn 0 1 0
vn 0 1 0
vn 0 1 0
vn 0 1 0
vn 0 1 0
vn 0 1 0
vn 0 1 0
vn 0 1 0
vn 0 1 0
vn 0 1 0
vn 0 1 0
vn 0 1 0
vn 0 1 0
vn 0 1 0
vn 0 1 0
vn 0 1 0
vn 0 1 0
vn 0 1 0
vn 0 1 0
vn 0 1 0
vn 0 1 0
vn 0 1 0
vn 0 1 0
vn 0 1 0
vn 0 1 0
vn 0 1 0
vn 0 1 0
vn 0 1 0
vn 0 1 0
vn 0 1 0
vn 0 1 0
vn 0 1 0
vn 0 1 0
vn 0 1 0
vn 0 1 0
vn 0 1 0
vn 0 1 0
vn 0 1 0
vn 0 1 0
vn 0 1 0
vn 0 1 0
vn 0 1 0
vn 0 1 0
vn 0 1 0
vn 0 1 0
vn 0 1 0
vn 0 1 0
vn 0 1 0
vn 0 1 0
vn 0 1 0
vn 0 1 0
vn 0 1 0
vn 0 1 0
vn 0 1 0
vn 0 1 0
vn 0 1 0
vn 0 1 0
vn 0 1 0
vn 0 1 0
vn 0 1 0
vn 0 1 0
vn 0 1 0
vn 0 1 0
vn 0 1 0
vn 0 1 0
vn 0 1 0
vn 0 1 0
vn 0 1 0
vn 0 1 0
vn 0 1 0
vn 0 1 0
vn 0 1 0
vn 0 1 0
vn 0 1 0
vn 0 1 0
vn 0 1 0
vn 0 1 0
vn 0 1 0
vn 0 1 0
vn 0 1 0
vn 0 1 0
vn 0 1 0
vn 0 1 0
vn 0 1 0
vn 0 1 0
vn 0 1 0
vn 0 1 0
vn 0 1 0
vn 0 1 0
vn 0 1 0
vn 0 1 0
vn 0 1 0
vn 0 1 0
vn 0 1 0
vn 0 1 0
vn 0 1 0
vn 0 1 0
vn 0 1 0
vn 0 1 0
vn 0 1 0
vn 0 1 0
vn 0 1 0
g Grass_0_Cluster58_0
f 2/2/2 3/3/3 1/1/1
f 2/2/2 4/4/4 3/3/3
f 6/6/6 7/7/7 5/5/5
f 6/6/6 8/8/8 7/7/7
f 10/10/10 11/11/11 9/9/9
f 10/10/10 12/12/12 11/11/11
f 14/14/14 15/15/15 13/13/13
f 14/14/14 16/16/16 15/15/15
f 18/18/18 19/19/19 17/17/17
f 18/18/18 20/20/20 19/19/19
f 22/22/22 23/23/23 21/21/21
f 22/22/22 24/24/24 23/23/23
f 26/26/26 27/27/27 25/25/25
f 26/26/26 28/28/28 27/27/27
f 30/30/30 31/31/31 29/29/29
f 30/30/30 32/32/32 31/31/31
f 34/34/34 35/35/35 33/33/33
f 34/34/34 36/36/36 35/35/35
f 38/38/38 39/39/39 37/37/37
f 38/38/38 40/40/40 39/39/39
f 42/42/42 43/43/43 41/41/41
f 42/42/42 44/44/44 43/43/43
f 46/46/46 47/47/47 45/45/45
f 46/46/46 48/48/48 47/47/47
f 50/50/50 51/51/51 49/49/49
f 50/50/50 52/52/52 51/51/51
f 54/54/54 55/55/55 53/53/53
f 54/54/54 56/56/56 55/55/55
f 58/58/58 59/59/59 57/57/57
f 58/58/58 60/60/60 59/59/59
f 62/62/62 63/63/63 61/61/61
f 62/62/62 64/64/64 63/63/63
f 66/66/66 67/67/67 65/65/65
f 66/66/66 68/68/68 67/67/67
f 70/70/70 71/71/71 69/69/69
f 70/70/70 72/72/72 71/71/71
f 74/74/74 75/75/75 73/73/73
f 74/74/74 76/76/76 75/75/75
f 78/78/78 79/79/79 77/77/77
f 78/78/78 80/80/80 79/79/79
f 82/82/82 83/83/83 81/81/81
f 82/82/82 84/84/84 83/83/83
f 86/86/86 87/87/87 85/85/85
f 86/86/86 88/88/88 87/87/87
f 90/90/90 91/91/91 89/89/89
f 90/90/90 92/92/92 91/91/91
f 94/94/94 95/95/95 93/93/93
f 94/94/94 96/96/96 95/95/95
f 98/98/98 99/99/99 97/97/97
f 98/98/98 100/100/100 99/99/99
f 102/102/102 103/103/103 101/101/101
f 102/102/102 104/104/104 103/103/103
f 106/106/106 107/107/107 105/105/105
f 106/106/106 108/108/108 107/107/107
f 110/110/110 111/111/111 109/109/109
f 110/110/110 112/112/112 111/111/111
f 114/114/114 115/115/115 113/113/113
f 114/114/114 116/116/116 115/115/115
f 118/118/118 119/119/119 117/117/117
f 118/118/118 120/120/120 119/119/119
f 122/122/122 123/123/123 121/121/121
f 122/122/122 124/124/124 123/123/123
f 126/126/126 127/127/127 125/125/125
f 126/126/126 128/128/128 127/127/127
f 130/130/130 131/131/131 129/129/129
f 130/130/130 132/132/132 131/131/131
f 134/134/134 135/135/135 133/133/133
f 134/134/134 136/136/136 135/135/135
f 138/138/138 139/139/139 137/137/137
f 138/138/138 140/140/140 139/139/139
f 142/142/142 143/143/143 141/141/141
f 142/142/142 144/144/144 143/143/143
f 146/146/146 147/147/147 145/145/145
f 146/146/146 148/148/148 147/147/147
f 150/150/150 151/151/151 149/149/149
f 150/150/150 152/152/152 151/151/151
f 154/154/154 155/155/155 153/153/153
f 154/154/154 156/156/156 155/155/155
f 158/158/158 159/159/159 157/157/157
f 158/158/158 160/160/160 159/159/159
f 162/162/162 163/163/163 161/161/161
f 162/162/162 164/164/164 163/163/163
