g Grass_2_Cluster170
v -13.46198 0 228.4049
v -14.35944 0 228.4049
v -13.46198 0 229.5267
v -14.35944 0 229.5267
v -12.34015 0 227.9562
v -13.46198 0 227.9562
v -12.34015 0 228.8537
v -13.46198 0 228.8537
v -15.48128 0 227.5074
v -16.60311 0 227.5074
v -15.48128 0 228.6293
v -16.60311 0 228.6293
v -11.44268 0 227.5074
v -12.34015 0 227.5074
v -11.44268 0 228.6293
v -12.34015 0 228.6293
v -13.68635 0 227.2831
v -14.58381 0 227.2831
v -13.68635 0 228.6293
v -14.58381 0 228.6293
v -19.51987 0 227.2831
v -20.6417 0 227.2831
v -19.51987 0 228.4049
v -20.6417 0 228.4049
v -16.60311 0 227.0587
v -17.50057 0 227.0587
v -16.60311 0 227.9562
v -17.50057 0 227.9562
v -12.34015 0 226.8344
v -13.23761 0 226.8344
v -12.34015 0 227.9562
v -13.23761 0 227.9562
v -13.01325 0 226.61
v -13.91071 0 226.61
v -13.01325 0 227.7318
v -13.91071 0 227.7318
v -15.03254 0 226.3856
v -16.15438 0 226.3856
v -15.03254 0 227.5074
v -16.15438 0 227.5074
v -17.27621 0 226.1613
v -18.17367 0 226.1613
v -17.27621 0 227.2831
v -18.17367 0 227.2831
v -12.56451 0 225.9369
v -13.46198 0 225.9369
v -12.56451 0 227.0587
v -13.46198 0 227.0587
v -16.82747 0 225.7125
v -17.72494 0 225.7125
v -16.82747 0 226.8344
v -17.72494 0 226.8344
v -18.84677 0 225.7125
v -19.74424 0 225.7125
v -18.84677 0 226.8344
v -19.74424 0 226.8344
v -15.48128 0 225.7125
v -16.37874 0 225.7125
v -15.48128 0 226.8344
v -16.37874 0 226.8344
v -11.44268 0 225.4882
v -12.34015 0 225.4882
v -11.44268 0 226.61
v -12.34015 0 226.61
v -10.76958 0 225.4882
v -11.66705 0 225.4882
v -10.76958 0 226.3856
v -11.66705 0 226.3856
v -20.19297 0 225.2638
v -21.09044 0 225.2638
v -20.19297 0 226.3856
v -21.09044 0 226.3856
v -8.52592 0 225.2638
v -9.423386 0 225.2638
v -8.52592 0 226.1613
v -9.423386 0 226.1613
v -20.19297 0 225.2638
v -21.09044 0 225.2638
v -20.19297 0 226.3856
v -21.09044 0 226.3856
v -14.13508 0 225.0394
v -15.03254 0 225.0394
v -14.13508 0 226.1613
v -15.03254 0 226.1613
v -9.423386 0 225.0394
v -10.54522 0 225.0394
v -9.423386 0 226.1613
v -10.54522 0 226.1613
v -11.44268 0 224.815
v -12.56451 0 224.815
v -11.44268 0 225.9369
v -12.56451 0 225.9369
v -17.50057 0 224.815
v -18.39804 0 224.815
v -17.50057 0 225.7125
v -18.39804 0 225.7125
v -12.78888 0 224.5907
v -13.68635 0 224.5907
v -12.78888 0 225.9369
v -13.68635 0 225.9369
v -15.70564 0 224.3663
v -16.60311 0 224.3663
v -15.70564 0 225.4882
v -16.60311 0 225.4882
v -18.39804 0 224.3663
v -19.51987 0 224.3663
v -18.39804 0 225.4882
v -19.51987 0 225.4882
v -10.32085 0 224.142
v -11.21832 0 224.142
v -10.32085 0 225.2638
v -11.21832 0 225.2638
v -17.94931 0 224.142
v -18.84677 0 224.142
v -17.94931 0 225.2638
v -18.84677 0 225.2638
v -16.15438 0 223.6932
v -17.05184 0 223.6932
v -16.15438 0 224.815
v -17.05184 0 224.815
v -15.03254 0 223.6932
v -15.93001 0 223.6932
v -15.03254 0 224.815
v -15.93001 0 224.815
v -11.89141 0 223.4689
v -12.78888 0 223.4689
v -11.89141 0 224.5907
v -12.78888 0 224.5907
v -11.21832 0 223.4689
v -12.11578 0 223.4689
v -11.21832 0 224.5907
v -12.11578 0 224.5907
v -14.13508 0 223.4689
v -15.03254 0 223.4689
v -14.13508 0 224.5907
v -15.03254 0 224.5907
v -13.91071 0 223.0201
v -14.80818 0 223.0201
v -13.91071 0 224.142
v -14.80818 0 224.142
v -12.34015 0 223.0201
v -13.46198 0 223.0201
v -12.34015 0 224.142
v -13.46198 0 224.142
v -16.15438 0 222.5714
v -17.05184 0 222.5714
v -16.15438 0 223.6932
v -17.05184 0 223.6932
v -13.23761 0 222.347
v -14.13508 0 222.347
v -13.23761 0 223.4689
v -14.13508 0 223.4689
v -14.80818 0 222.1227
v -15.93001 0 222.1227
v -14.80818 0 223.2445
v -15.93001 0 223.2445
v -1.346198 0 215.1673
v -2.243663 0 215.1673
v -1.346198 0 216.0648
v -2.243663 0 216.0648
v -0.8974653 0 213.8211
v -1.794931 0 213.8211
v -0.8974653 0 214.7186
v -1.794931 0 214.7186
vt 0.1347656 0.9185662
vt 0.2060202 0.9185662
vt 0.1347656 1
vt 0.2060202 1
vt 0.1347656 0.9185662
vt 0.2060202 0.9185662
vt 0.1347656 1
vt 0.2060202 1
vt 0.1347656 0.9185662
vt 0.2060202 0.9185662
vt 0.1347656 1
vt 0.2060202 1
vt 0.1347656 0.9185662
vt 0.2060202 0.9185662
vt 0.1347656 1
vt 0.2060202 1
vt 0.1347656 0.9185662
vt 0.2060202 0.9185662
vt 0.1347656 1
vt 0.2060202 1
vt 0.1347656 0.9185662
vt 0.2060202 0.9185662
vt 0.1347656 1
vt 0.2060202 1
vt 0.1347656 0.9185662
vt 0.2060202 0.9185662
vt 0.1347656 1
vt 0.2060202 1
vt 0.1347656 0.9185662
vt 0.2060202 0.9185662
vt 0.1347656 1
vt 0.2060202 1
vt 0.1347656 0.9185662
vt 0.2060202 0.9185662
vt 0.1347656 1
vt 0.2060202 1
vt 0.1347656 0.9185662
vt 0.2060202 0.9185662
vt 0.1347656 1
vt 0.2060202 1
vt 0.1347656 0.9185662
vt 0.2060202 0.9185662
vt 0.1347656 1
vt 0.2060202 1
vt 0.1347656 0.9185662
vt 0.2060202 0.9185662
vt 0.1347656 1
vt 0.2060202 1
vt 0.1347656 0.9185662
vt 0.2060202 0.9185662
vt 0.1347656 1
vt 0.2060202 1
vt 0.1347656 0.9185662
vt 0.2060202 0.9185662
vt 0.1347656 1
vt 0.2060202 1
vt 0.1347656 0.9185662
vt 0.2060202 0.9185662
vt 0.1347656 1
vt 0.2060202 1
vt 0.1347656 0.9185662
vt 0.2060202 0.9185662
vt 0.1347656 1
vt 0.2060202 1
vt 0.1347656 0.9185662
vt 0.2060202 0.9185662
vt 0.1347656 1
vt 0.2060202 1
vt 0.1347656 0.9185662
vt 0.2060202 0.9185662
vt 0.1347656 1
vt 0.2060202 1
vt 0.1347656 0.9185662
vt 0.2060202 0.9185662
vt 0.1347656 1
vt 0.2060202 1
vt 0.1347656 0.9185662
vt 0.2060202 0.9185662
vt 0.1347656 1
vt 0.2060202 1
vt 0.1347656 0.9185662
vt 0.2060202 0.9185662
vt 0.1347656 1
vt 0.2060202 1
vt 0.1347656 0.9185662
vt 0.2060202 0.9185662
vt 0.1347656 1
vt 0.2060202 1
vt 0.1347656 0.9185662
vt 0.2060202 0.9185662
vt 0.1347656 1
vt 0.2060202 1
vt 0.1347656 0.9185662
vt 0.2060202 0.9185662
vt 0.1347656 1
vt 0.2060202 1
vt 0.1347656 0.9185662
vt 0.2060202 0.9185662
vt 0.1347656 1
vt 0.2060202 1
vt 0.1347656 0.9185662
vt 0.2060202 0.9185662
vt 0.1347656 1
vt 0.2060202 1
vt 0.1347656 0.9185662
vt 0.2060202 0.9185662
vt 0.1347656 1
vt 0.2060202 1
vt 0.1347656 0.9185662
vt 0.2060202 0.9185662
vt 0.1347656 1
vt 0.2060202 1
vt 0.1347656 0.9185662
vt 0.2060202 0.9185662
vt 0.1347656 1
vt 0.2060202 1
vt 0.1347656 0.9185662
vt 0.2060202 0.9185662
vt 0.1347656 1
vt 0.2060202 1
vt 0.1347656 0.9185662
vt 0.2060202 0.9185662
vt 0.1347656 1
vt 0.2060202 1
vt 0.1347656 0.9185662
vt 0.2060202 0.9185662
vt 0.1347656 1
vt 0.2060202 1
vt 0.1347656 0.9185662
vt 0.2060202 0.9185662
vt 0.1347656 1
vt 0.2060202 1
vt 0.1347656 0.9185662
vt 0.2060202 0.9185662
vt 0.1347656 1
vt 0.2060202 1
vt 0.1347656 0.9185662
vt 0.2060202 0.9185662
vt 0.1347656 1
vt 0.2060202 1
vt 0.1347656 0.9185662
vt 0.2060202 0.9185662
vt 0.1347656 1
vt 0.2060202 1
vt 0.1347656 0.9185662
vt 0.2060202 0.9185662
vt 0.1347656 1
vt 0.2060202 1
vt 0.1347656 0.9185662
vt 0.2060202 0.9185662
vt 0.1347656 1
vt 0.2060202 1
vt 0.1347656 0.9185662
vt 0.2060202 0.9185662
vt 0.1347656 1
vt 0.2060202 1
vt 0.1347656 0.9185662
vt 0.2060202 0.9185662
vt 0.1347656 1
vt 0.2060202 1
vt 0.1347656 0.9185662
vt 0.2060202 0.9185662
vt 0.1347656 1
vt 0.2060202 1
vn 0 1 0
vn 0 1 0
vn 0 1 0
vn 0 1 0
vn 0 1 0
vn 0 1 0
vn 0 1 0
vn 0 1 0
vn 0 1 0
vn 0 1 0
vn 0 1 0
vn 0 1 0
vn 0 1 0
vn 0 1 0
vn 0 1 0
vn 0 1 0
vn 0 1 0
vn 0 1 0
vn 0 1 0
vn 0 1 0
vn 0 1 0
vn 0 1 0
vn 0 1 0
vn 0 1 0
vn 0 1 0
vn 0 1 0
vn 0 1 0
vn 0 1 0
vn 0 1 0
vn 0 1 0
vn 0 1 0
vn 0 1 0
vn 0 1 0
vn 0 1 0
vn 0 1 0
vn 0 1 0
vn 0 1 0
vn 0 1 0
vn 0 1 0
vn 0 1 0
vn 0 1 0
vn 0 1 0
vn 0 1 0
vn 0 1 0
vn 0 1 0
vn 0 1 0
vn 0 1 0
vn 0 1 0
vn 0 1 0
vn 0 1 0
vn 0 1 0
vn 0 1 0
vn 0 1 0
vn 0 1 0
vn 0 1 0
vn 0 1 0
vn 0 1 0
vn 0 1 0
vn 0 1 0
vn 0 1 0
vn 0 1 0
vn 0 1 0
vn 0 1 0
vn 0 1 0
vn 0 1 0
vn 0 1 0
vn 0 1 0
vn 0 1 0
vn 0 1 0
vn 0 1 0
vn 0 1 0
vn 0 1 0
vn 0 1 0
vn 0 1 0
vn 0 1 0
vn 0 1 0
vn 0 1 0
vn 0 1 0
vn 0 1 0
vn 0 1 0
vn 0 1 0
vn 0 1 0
vn 0 1 0
vn 0 1 0
vn 0 1 0
vn 0 1 0
vn 0 1 0
vn 0 1 0
vn 0 1 0
vn 0 1 0
vn 0 1 0
vn 0 1 0
vn 0 1 0
vn 0 1 0
vn 0 1 0
vn 0 1 0
vn 0 1 0
vn 0 1 0
vn 0 1 0
vn 0 1 0
vn 0 1 0
vn 0 1 0
vn 0 1 0
vn 0 1 0
vn 0 1 0
vn 0 1 0
vn 0 1 0
vn 0 1 0
vn 0 1 0
vn 0 1 0
vn 0 1 0
vn 0 1 0
vn 0 1 0
vn 0 1 0
vn 0 1 0
vn 0 1 0
vn 0 1 0
vn 0 1 0
vn 0 1 0
vn 0 1 0
vn 0 1 0
vn 0 1 0
vn 0 1 0
vn 0 1 0
vn 0 1 0
vn 0 1 0
vn 0 1 0
vn 0 1 0
vn 0 1 0
vn 0 1 0
vn 0 1 0
vn 0 1 0
vn 0 1 0
vn 0 1 0
vn 0 1 0
vn 0 1 0
vn 0 1 0
vn 0 1 0
vn 0 1 0
vn 0 1 0
vn 0 1 0
vn 0 1 0
vn 0 1 0
vn 0 1 0
vn 0 1 0
vn 0 1 0
vn 0 1 0
vn 0 1 0
vn 0 1 0
vn 0 1 0
vn 0 1 0
vn 0 1 0
vn 0 1 0
vn 0 1 0
vn 0 1 0
vn 0 1 0
vn 0 1 0
vn 0 1 0
vn 0 1 0
vn 0 1 0
vn 0 1 0
vn 0 1 0
vn 0 1 0
vn 0 1 0
g Grass_2_Cluster170_0
f 2/2/2 3/3/3 1/1/1
f 2/2/2 4/4/4 3/3/3
f 6/6/6 7/7/7 5/5/5
f 6/6/6 8/8/8 7/7/7
f 10/10/10 11/11/11 9/9/9
f 10/10/10 12/12/12 11/11/11
f 14/14/14 15/15/15 13/13/13
f 14/14/14 16/16/16 15/15/15
f 18/18/18 19/19/19 17/17/17
f 18/18/18 20/20/20 19/19/19
f 22/22/22 23/23/23 21/21/21
f 22/22/22 24/24/24 23/23/23
f 26/26/26 27/27/27 25/25/25
f 26/26/26 28/28/28 27/27/27
f 30/30/30 31/31/31 29/29/29
f 30/30/30 32/32/32 31/31/31
f 34/34/34 35/35/35 33/33/33
f 34/34/34 36/36/36 35/35/35
f 38/38/38 39/39/39 37/37/37
f 38/38/38 40/40/40 39/39/39
f 42/42/42 43/43/43 41/41/41
f 42/42/42 44/44/44 43/43/43
f 46/46/46 47/47/47 45/45/45
f 46/46/46 48/48/48 47/47/47
f 50/50/50 51/51/51 49/49/49
f 50/50/50 52/52/52 51/51/51
f 54/54/54 55/55/55 53/53/53
f 54/54/54 56/56/56 55/55/55
f 58/58/58 59/59/59 57/57/57
f 58/58/58 60/60/60 59/59/59
f 62/62/62 63/63/63 61/61/61
f 62/62/62 64/64/64 63/63/63
f 66/66/66 67/67/67 65/65/65
f 66/66/66 68/68/68 67/67/67
f 70/70/70 71/71/71 69/69/69
f 70/70/70 72/72/72 71/71/71
f 74/74/74 75/75/75 73/73/73
f 74/74/74 76/76/76 75/75/75
f 78/78/78 79/79/79 77/77/77
f 78/78/78 80/80/80 79/79/79
f 82/82/82 83/83/83 81/81/81
f 82/82/82 84/84/84 83/83/83
f 86/86/86 87/87/87 85/85/85
f 86/86/86 88/88/88 87/87/87
f 90/90/90 91/91/91 89/89/89
f 90/90/90 92/92/92 91/91/91
f 94/94/94 95/95/95 93/93/93
f 94/94/94 96/96/96 95/95/95
f 98/98/98 99/99/99 97/97/97
f 98/98/98 100/100/100 99/99/99
f 102/102/102 103/103/103 101/101/101
f 102/102/102 104/104/104 103/103/103
f 106/106/106 107/107/107 105/105/105
f 106/106/106 108/108/108 107/107/107
f 110/110/110 111/111/111 109/109/109
f 110/110/110 112/112/112 111/111/111
f 114/114/114 115/115/115 113/113/113
f 114/114/114 116/116/116 115/115/115
f 118/118/118 119/119/119 117/117/117
f 118/118/118 120/120/120 119/119/119
f 122/122/122 123/123/123 121/121/121
f 122/122/122 124/124/124 123/123/123
f 126/126/126 127/127/127 125/125/125
f 126/126/126 128/128/128 127/127/127
f 130/130/130 131/131/131 129/129/129
f 130/130/130 132/132/132 131/131/131
f 134/134/134 135/135/135 133/133/133
f 134/134/134 136/136/136 135/135/135
f 138/138/138 139/139/139 137/137/137
f 138/138/138 140/140/140 139/139/139
f 142/142/142 143/143/143 141/141/141
f 142/142/142 144/144/144 143/143/143
f 146/146/146 147/147/147 145/145/145
f 146/146/146 148/148/148 147/147/147
f 150/150/150 151/151/151 149/149/149
f 150/150/150 152/152/152 151/151/151
f 154/154/154 155/155/155 153/153/153
f 154/154/154 156/156/156 155/155/155
f 158/158/158 159/159/159 157/157/157
f 158/158/158 160/160/160 159/159/159
f 162/162/162 163/163/163 161/161/161
f 162/162/162 164/164/164 163/163/163
