g Grass_0_Cluster83
v 181.103 -0.1415253 112.1685
v 180.1539 -0.1415253 112.1685
v 181.103 -0.1415253 113.4339
v 180.1539 -0.1415253 113.4339
v 204.8304 -0.1415253 111.2194
v 203.8813 -0.1415253 111.2194
v 204.8304 -0.1415253 112.4848
v 203.8813 -0.1415253 112.4848
v 209.8923 -0.1415253 107.7393
v 209.2596 -0.1415253 107.7393
v 209.8923 -0.1415253 109.0048
v 209.2596 -0.1415253 109.0048
v 187.1139 -0.1415253 105.8411
v 186.1648 -0.1415253 105.8411
v 187.1139 -0.1415253 106.7902
v 186.1648 -0.1415253 106.7902
v 198.1867 -0.1415253 105.5248
v 197.2376 -0.1415253 105.5248
v 198.1867 -0.1415253 106.7902
v 197.2376 -0.1415253 106.7902
v 186.4812 -0.1415253 103.9429
v 185.8484 -0.1415253 103.9429
v 186.4812 -0.1415253 105.2084
v 185.8484 -0.1415253 105.2084
v 197.2376 -0.1415253 103.6266
v 196.6049 -0.1415253 103.6266
v 197.2376 -0.1415253 104.892
v 196.6049 -0.1415253 104.892
v 210.2086 -0.1415253 100.7793
v 209.2596 -0.1415253 100.7793
v 210.2086 -0.1415253 102.0447
v 209.2596 -0.1415253 102.0447
v 210.2086 -0.1415253 100.1465
v 209.2596 -0.1415253 100.1465
v 210.2086 -0.1415253 101.412
v 209.2596 -0.1415253 101.412
v 180.7866 -0.1415253 97.93198
v 179.8375 -0.1415253 97.93198
v 180.7866 -0.1415253 99.19745
v 179.8375 -0.1415253 99.19745
v 180.4702 -0.1415253 97.61563
v 179.8375 -0.1415253 97.61563
v 180.4702 -0.1415253 98.88107
v 179.8375 -0.1415253 98.88107
v 182.0521 -0.1415253 96.03378
v 181.4193 -0.1415253 96.03378
v 182.0521 -0.1415253 96.98288
v 181.4193 -0.1415253 96.98288
v 182.0521 -0.1415253 95.71741
v 181.4193 -0.1415253 95.71741
v 182.0521 -0.1415253 96.98288
v 181.4193 -0.1415253 96.98288
v 184.8994 -0.1415253 94.76831
v 183.9503 -0.1415253 94.76831
v 184.8994 -0.1415253 96.03378
v 183.9503 -0.1415253 96.03378
v 180.7866 -0.1415253 91.60468
v 179.8375 -0.1415253 91.60468
v 180.7866 -0.1415253 93.18649
v 179.8375 -0.1415253 93.18649
v 199.7686 -0.1415253 90.65555
v 198.8195 -0.1415253 90.65555
v 199.7686 -0.1415253 91.60468
v 198.8195 -0.1415253 91.60468
v 181.7357 -0.1415253 90.02283
v 180.7866 -0.1415253 90.02283
v 181.7357 -0.1415253 91.2883
v 180.7866 -0.1415253 91.2883
v 182.3684 -0.1415253 89.07373
v 181.4193 -0.1415253 89.07373
v 182.3684 -0.1415253 90.02283
v 181.4193 -0.1415253 90.02283
v 183.3175 -0.1415253 88.12463
v 182.3684 -0.1415253 88.12463
v 183.3175 -0.1415253 89.39011
v 182.3684 -0.1415253 89.39011
v 200.7177 -0.1415253 87.17554
v 199.7686 -0.1415253 87.17554
v 200.7177 -0.1415253 88.44101
v 199.7686 -0.1415253 88.44101
v 181.103 -0.1415253 86.85916
v 180.1539 -0.1415253 86.85916
v 181.103 -0.1415253 87.80826
v 180.1539 -0.1415253 87.80826
v 195.6558 -0.1415253 85.59372
v 194.7067 -0.1415253 85.59372
v 195.6558 -0.1415253 86.85916
v 194.7067 -0.1415253 86.85916
v 209.2596 -0.1415253 84.32825
v 208.6268 -0.1415253 84.32825
v 209.2596 -0.1415253 85.59372
v 208.6268 -0.1415253 85.59372
vt 0 0.9058824
vt 0.06666667 0.9058824
vt 0 1
vt 0.06666667 1
vt 0 0.9058824
vt 0.06666667 0.9058824
vt 0 1
vt 0.06666667 1
vt 0 0.9058824
vt 0.06666667 0.9058824
vt 0 1
vt 0.06666667 1
vt 0 0.9058824
vt 0.06666667 0.9058824
vt 0 1
vt 0.06666667 1
vt 0 0.9058824
vt 0.06666667 0.9058824
vt 0 1
vt 0.06666667 1
vt 0 0.9058824
vt 0.06666667 0.9058824
vt 0 1
vt 0.06666667 1
vt 0 0.9058824
vt 0.06666667 0.9058824
vt 0 1
vt 0.06666667 1
vt 0 0.9058824
vt 0.06666667 0.9058824
vt 0 1
vt 0.06666667 1
vt 0 0.9058824
vt 0.06666667 0.9058824
vt 0 1
vt 0.06666667 1
vt 0 0.9058824
vt 0.06666667 0.9058824
vt 0 1
vt 0.06666667 1
vt 0 0.9058824
vt 0.06666667 0.9058824
vt 0 1
vt 0.06666667 1
vt 0 0.9058824
vt 0.06666667 0.9058824
vt 0 1
vt 0.06666667 1
vt 0 0.9058824
vt 0.06666667 0.9058824
vt 0 1
vt 0.06666667 1
vt 0 0.9058824
vt 0.06666667 0.9058824
vt 0 1
vt 0.06666667 1
vt 0 0.9058824
vt 0.06666667 0.9058824
vt 0 1
vt 0.06666667 1
vt 0 0.9058824
vt 0.06666667 0.9058824
vt 0 1
vt 0.06666667 1
vt 0 0.9058824
vt 0.06666667 0.9058824
vt 0 1
vt 0.06666667 1
vt 0 0.9058824
vt 0.06666667 0.9058824
vt 0 1
vt 0.06666667 1
vt 0 0.9058824
vt 0.06666667 0.9058824
vt 0 1
vt 0.06666667 1
vt 0 0.9058824
vt 0.06666667 0.9058824
vt 0 1
vt 0.06666667 1
vt 0 0.9058824
vt 0.06666667 0.9058824
vt 0 1
vt 0.06666667 1
vt 0 0.9058824
vt 0.06666667 0.9058824
vt 0 1
vt 0.06666667 1
vt 0 0.9058824
vt 0.06666667 0.9058824
vt 0 1
vt 0.06666667 1
vn 0 1 0
vn 0 1 0
vn 0 1 0
vn 0 1 0
vn 0 1 0
vn 0 1 0
vn 0 1 0
vn 0 1 0
vn 0 1 0
vn 0 1 0
vn 0 1 0
vn 0 1 0
vn 0 1 0
vn 0 1 0
vn 0 1 0
vn 0 1 0
vn 0 1 0
vn 0 1 0
vn 0 1 0
vn 0 1 0
vn 0 1 0
vn 0 1 0
vn 0 1 0
vn 0 1 0
vn 0 1 0
vn 0 1 0
vn 0 1 0
vn 0 1 0
vn 0 1 0
vn 0 1 0
vn 0 1 0
vn 0 1 0
vn 0 1 0
vn 0 1 0
vn 0 1 0
vn 0 1 0
vn 0 1 0
vn 0 1 0
vn 0 1 0
vn 0 1 0
vn 0 1 0
vn 0 1 0
vn 0 1 0
vn 0 1 0
vn 0 1 0
vn 0 1 0
vn 0 1 0
vn 0 1 0
vn 0 1 0
vn 0 1 0
vn 0 1 0
vn 0 1 0
vn 0 1 0
vn 0 1 0
vn 0 1 0
vn 0 1 0
vn 0 1 0
vn 0 1 0
vn 0 1 0
vn 0 1 0
vn 0 1 0
vn 0 1 0
vn 0 1 0
vn 0 1 0
vn 0 1 0
vn 0 1 0
vn 0 1 0
vn 0 1 0
vn 0 1 0
vn 0 1 0
vn 0 1 0
vn 0 1 0
vn 0 1 0
vn 0 1 0
vn 0 1 0
vn 0 1 0
vn 0 1 0
vn 0 1 0
vn 0 1 0
vn 0 1 0
vn 0 1 0
vn 0 1 0
vn 0 1 0
vn 0 1 0
vn 0 1 0
vn 0 1 0
vn 0 1 0
vn 0 1 0
vn 0 1 0
vn 0 1 0
vn 0 1 0
vn 0 1 0
g Grass_0_Cluster83_0
f 2/2/2 3/3/3 1/1/1
f 2/2/2 4/4/4 3/3/3
f 6/6/6 7/7/7 5/5/5
f 6/6/6 8/8/8 7/7/7
f 10/10/10 11/11/11 9/9/9
f 10/10/10 12/12/12 11/11/11
f 14/14/14 15/15/15 13/13/13
f 14/14/14 16/16/16 15/15/15
f 18/18/18 19/19/19 17/17/17
f 18/18/18 20/20/20 19/19/19
f 22/22/22 23/23/23 21/21/21
f 22/22/22 24/24/24 23/23/23
f 26/26/26 27/27/27 25/25/25
f 26/26/26 28/28/28 27/27/27
f 30/30/30 31/31/31 29/29/29
f 30/30/30 32/32/32 31/31/31
f 34/34/34 35/35/35 33/33/33
f 34/34/34 36/36/36 35/35/35
f 38/38/38 39/39/39 37/37/37
f 38/38/38 40/40/40 39/39/39
f 42/42/42 43/43/43 41/41/41
f 42/42/42 44/44/44 43/43/43
f 46/46/46 47/47/47 45/45/45
f 46/46/46 48/48/48 47/47/47
f 50/50/50 51/51/51 49/49/49
f 50/50/50 52/52/52 51/51/51
f 54/54/54 55/55/55 53/53/53
f 54/54/54 56/56/56 55/55/55
f 58/58/58 59/59/59 57/57/57
f 58/58/58 60/60/60 59/59/59
f 62/62/62 63/63/63 61/61/61
f 62/62/62 64/64/64 63/63/63
f 66/66/66 67/67/67 65/65/65
f 66/66/66 68/68/68 67/67/67
f 70/70/70 71/71/71 69/69/69
f 70/70/70 72/72/72 71/71/71
f 74/74/74 75/75/75 73/73/73
f 74/74/74 76/76/76 75/75/75
f 78/78/78 79/79/79 77/77/77
f 78/78/78 80/80/80 79/79/79
f 82/82/82 83/83/83 81/81/81
f 82/82/82 84/84/84 83/83/83
f 86/86/86 87/87/87 85/85/85
f 86/86/86 88/88/88 87/87/87
f 90/90/90 91/91/91 89/89/89
f 90/90/90 92/92/92 91/91/91
