g Grass_2_Cluster204
v 154.3715 0.0435791 291.7678
v 153.4468 0.0435791 291.7678
v 154.3715 0.0435791 292.6924
v 153.4468 0.0435791 292.6924
v 155.7584 0.0435791 291.7678
v 154.8338 0.0435791 291.7678
v 155.7584 0.0435791 292.6924
v 154.8338 0.0435791 292.6924
v 156.2207 0.0435791 290.3809
v 155.2961 0.0435791 290.3809
v 156.2207 0.0435791 291.3055
v 155.2961 0.0435791 291.3055
v 156.2207 0.0435791 289.4562
v 155.2961 0.0435791 289.4562
v 156.2207 0.0435791 290.3809
v 155.2961 0.0435791 290.3809
v 154.8338 0.0435791 288.9939
v 153.9091 0.0435791 288.9939
v 154.8338 0.0435791 290.3809
v 153.9091 0.0435791 290.3809
v 155.7584 0.0435791 288.5316
v 154.8338 0.0435791 288.5316
v 155.7584 0.0435791 289.4562
v 154.8338 0.0435791 289.4562
v 156.6831 0.0435791 288.0692
v 155.7584 0.0435791 288.0692
v 156.6831 0.0435791 288.9939
v 155.7584 0.0435791 288.9939
v 168.7034 0.0435791 287.6069
v 167.7787 0.0435791 287.6069
v 168.7034 0.0435791 288.9939
v 167.7787 0.0435791 288.9939
v 157.6077 0.0435791 288.0692
v 156.6831 0.0435791 288.0692
v 157.6077 0.0435791 288.9939
v 156.6831 0.0435791 288.9939
v 168.2411 0.0435791 286.6823
v 167.3164 0.0435791 286.6823
v 168.2411 0.0435791 287.6069
v 167.3164 0.0435791 287.6069
v 166.8541 0.0435791 286.22
v 165.9295 0.0435791 286.22
v 166.8541 0.0435791 287.6069
v 165.9295 0.0435791 287.6069
v 165.9295 0.0435791 286.22
v 165.0048 0.0435791 286.22
v 165.9295 0.0435791 287.1446
v 165.0048 0.0435791 287.1446
v 174.2512 0.0435791 286.22
v 173.3266 0.0435791 286.22
v 174.2512 0.0435791 287.1446
v 173.3266 0.0435791 287.1446
v 168.2411 0.0435791 285.7576
v 167.3164 0.0435791 285.7576
v 168.2411 0.0435791 286.6823
v 167.3164 0.0435791 286.6823
v 172.4019 0.0435791 285.7576
v 171.4773 0.0435791 285.7576
v 172.4019 0.0435791 286.6823
v 171.4773 0.0435791 286.6823
v 170.5527 0.0435791 285.2953
v 169.1657 0.0435791 285.2953
v 170.5527 0.0435791 286.6823
v 169.1657 0.0435791 286.6823
v 164.5425 0.0435791 285.2953
v 163.6179 0.0435791 285.2953
v 164.5425 0.0435791 286.22
v 163.6179 0.0435791 286.22
v 165.9295 0.0435791 285.2953
v 165.0048 0.0435791 285.2953
v 165.9295 0.0435791 286.22
v 165.0048 0.0435791 286.22
v 167.3164 0.0435791 284.833
v 166.3918 0.0435791 284.833
v 167.3164 0.0435791 285.7576
v 166.3918 0.0435791 285.7576
v 169.1657 0.0435791 284.833
v 168.2411 0.0435791 284.833
v 169.1657 0.0435791 285.7576
v 168.2411 0.0435791 285.7576
v 171.4773 0.0435791 284.833
v 170.5527 0.0435791 284.833
v 171.4773 0.0435791 285.7576
v 170.5527 0.0435791 285.7576
v 166.3918 0.0435791 284.3707
v 165.4671 0.0435791 284.3707
v 166.3918 0.0435791 285.7576
v 165.4671 0.0435791 285.7576
v 169.628 0.0435791 284.3707
v 168.7034 0.0435791 284.3707
v 169.628 0.0435791 285.2953
v 168.7034 0.0435791 285.2953
v 173.7889 0.0435791 284.3707
v 172.8643 0.0435791 284.3707
v 173.7889 0.0435791 285.2953
v 172.8643 0.0435791 285.2953
v 168.2411 0.0435791 283.9083
v 167.3164 0.0435791 283.9083
v 168.2411 0.0435791 284.833
v 167.3164 0.0435791 284.833
v 163.1555 0.0435791 283.446
v 162.2309 0.0435791 283.446
v 163.1555 0.0435791 284.3707
v 162.2309 0.0435791 284.3707
v 166.3918 0.0435791 282.5214
v 165.4671 0.0435791 282.5214
v 166.3918 0.0435791 283.446
v 165.4671 0.0435791 283.446
v 165.4671 0.0435791 280.2098
v 164.5425 0.0435791 280.2098
v 165.4671 0.0435791 281.5967
v 164.5425 0.0435791 281.5967
v 180.2614 0.0435791 274.6619
v 179.3368 0.0435791 274.6619
v 180.2614 0.0435791 275.5866
v 179.3368 0.0435791 275.5866
v 167.3164 0.0435791 266.8025
v 166.3918 0.0435791 266.8025
v 167.3164 0.0435791 268.1895
v 166.3918 0.0435791 268.1895
v 169.628 0.0435791 266.3401
v 168.7034 0.0435791 266.3401
v 169.628 0.0435791 267.2648
v 168.7034 0.0435791 267.2648
v 171.9396 0.0435791 265.8779
v 171.015 0.0435791 265.8779
v 171.9396 0.0435791 266.8025
v 171.015 0.0435791 266.8025
v 169.1657 0.0435791 265.8779
v 168.2411 0.0435791 265.8779
v 169.1657 0.0435791 266.8025
v 168.2411 0.0435791 266.8025
v 170.5527 0.0435791 265.4155
v 169.628 0.0435791 265.4155
v 170.5527 0.0435791 266.3401
v 169.628 0.0435791 266.3401
v 173.3266 0.0435791 264.9532
v 172.4019 0.0435791 264.9532
v 173.3266 0.0435791 265.8779
v 172.4019 0.0435791 265.8779
v 170.0903 0.0435791 264.4909
v 169.1657 0.0435791 264.4909
v 170.0903 0.0435791 265.4155
v 169.1657 0.0435791 265.4155
v 172.4019 0.0435791 264.0286
v 171.4773 0.0435791 264.0286
v 172.4019 0.0435791 264.9532
v 171.4773 0.0435791 264.9532
v 168.7034 0.0435791 263.5663
v 167.7787 0.0435791 263.5663
v 168.7034 0.0435791 264.9532
v 167.7787 0.0435791 264.9532
v 166.8541 0.0435791 263.5663
v 165.9295 0.0435791 263.5663
v 166.8541 0.0435791 264.9532
v 165.9295 0.0435791 264.9532
v 174.7135 0.0435791 263.5663
v 173.7889 0.0435791 263.5663
v 174.7135 0.0435791 264.9532
v 173.7889 0.0435791 264.9532
v 171.4773 0.0435791 263.1039
v 170.5527 0.0435791 263.1039
v 171.4773 0.0435791 264.4909
v 170.5527 0.0435791 264.4909
v 169.1657 0.0435791 263.1039
v 168.2411 0.0435791 263.1039
v 169.1657 0.0435791 264.0286
v 168.2411 0.0435791 264.0286
vt 0.1347656 0.9185662
vt 0.2060202 0.9185662
vt 0.1347656 1
vt 0.2060202 1
vt 0.1347656 0.9185662
vt 0.2060202 0.9185662
vt 0.1347656 1
vt 0.2060202 1
vt 0.1347656 0.9185662
vt 0.2060202 0.9185662
vt 0.1347656 1
vt 0.2060202 1
vt 0.1347656 0.9185662
vt 0.2060202 0.9185662
vt 0.1347656 1
vt 0.2060202 1
vt 0.1347656 0.9185662
vt 0.2060202 0.9185662
vt 0.1347656 1
vt 0.2060202 1
vt 0.1347656 0.9185662
vt 0.2060202 0.9185662
vt 0.1347656 1
vt 0.2060202 1
vt 0.1347656 0.9185662
vt 0.2060202 0.9185662
vt 0.1347656 1
vt 0.2060202 1
vt 0.1347656 0.9185662
vt 0.2060202 0.9185662
vt 0.1347656 1
vt 0.2060202 1
vt 0.1347656 0.9185662
vt 0.2060202 0.9185662
vt 0.1347656 1
vt 0.2060202 1
vt 0.1347656 0.9185662
vt 0.2060202 0.9185662
vt 0.1347656 1
vt 0.2060202 1
vt 0.1347656 0.9185662
vt 0.2060202 0.9185662
vt 0.1347656 1
vt 0.2060202 1
vt 0.1347656 0.9185662
vt 0.2060202 0.9185662
vt 0.1347656 1
vt 0.2060202 1
vt 0.1347656 0.9185662
vt 0.2060202 0.9185662
vt 0.1347656 1
vt 0.2060202 1
vt 0.1347656 0.9185662
vt 0.2060202 0.9185662
vt 0.1347656 1
vt 0.2060202 1
vt 0.1347656 0.9185662
vt 0.2060202 0.9185662
vt 0.1347656 1
vt 0.2060202 1
vt 0.1347656 0.9185662
vt 0.2060202 0.9185662
vt 0.1347656 1
vt 0.2060202 1
vt 0.1347656 0.9185662
vt 0.2060202 0.9185662
vt 0.1347656 1
vt 0.2060202 1
vt 0.1347656 0.9185662
vt 0.2060202 0.9185662
vt 0.1347656 1
vt 0.2060202 1
vt 0.1347656 0.9185662
vt 0.2060202 0.9185662
vt 0.1347656 1
vt 0.2060202 1
vt 0.1347656 0.9185662
vt 0.2060202 0.9185662
vt 0.1347656 1
vt 0.2060202 1
vt 0.1347656 0.9185662
vt 0.2060202 0.9185662
vt 0.1347656 1
vt 0.2060202 1
vt 0.1347656 0.9185662
vt 0.2060202 0.9185662
vt 0.1347656 1
vt 0.2060202 1
vt 0.1347656 0.9185662
vt 0.2060202 0.9185662
vt 0.1347656 1
vt 0.2060202 1
vt 0.1347656 0.9185662
vt 0.2060202 0.9185662
vt 0.1347656 1
vt 0.2060202 1
vt 0.1347656 0.9185662
vt 0.2060202 0.9185662
vt 0.1347656 1
vt 0.2060202 1
vt 0.1347656 0.9185662
vt 0.2060202 0.9185662
vt 0.1347656 1
vt 0.2060202 1
vt 0.1347656 0.9185662
vt 0.2060202 0.9185662
vt 0.1347656 1
vt 0.2060202 1
vt 0.1347656 0.9185662
vt 0.2060202 0.9185662
vt 0.1347656 1
vt 0.2060202 1
vt 0.1347656 0.9185662
vt 0.2060202 0.9185662
vt 0.1347656 1
vt 0.2060202 1
vt 0.1347656 0.9185662
vt 0.2060202 0.9185662
vt 0.1347656 1
vt 0.2060202 1
vt 0.1347656 0.9185662
vt 0.2060202 0.9185662
vt 0.1347656 1
vt 0.2060202 1
vt 0.1347656 0.9185662
vt 0.2060202 0.9185662
vt 0.1347656 1
vt 0.2060202 1
vt 0.1347656 0.9185662
vt 0.2060202 0.9185662
vt 0.1347656 1
vt 0.2060202 1
vt 0.1347656 0.9185662
vt 0.2060202 0.9185662
vt 0.1347656 1
vt 0.2060202 1
vt 0.1347656 0.9185662
vt 0.2060202 0.9185662
vt 0.1347656 1
vt 0.2060202 1
vt 0.1347656 0.9185662
vt 0.2060202 0.9185662
vt 0.1347656 1
vt 0.2060202 1
vt 0.1347656 0.9185662
vt 0.2060202 0.9185662
vt 0.1347656 1
vt 0.2060202 1
vt 0.1347656 0.9185662
vt 0.2060202 0.9185662
vt 0.1347656 1
vt 0.2060202 1
vt 0.1347656 0.9185662
vt 0.2060202 0.9185662
vt 0.1347656 1
vt 0.2060202 1
vt 0.1347656 0.9185662
vt 0.2060202 0.9185662
vt 0.1347656 1
vt 0.2060202 1
vt 0.1347656 0.9185662
vt 0.2060202 0.9185662
vt 0.1347656 1
vt 0.2060202 1
vt 0.1347656 0.9185662
vt 0.2060202 0.9185662
vt 0.1347656 1
vt 0.2060202 1
vn 0 1 0
vn 0 1 0
vn 0 1 0
vn 0 1 0
vn 0 1 0
vn 0 1 0
vn 0 1 0
vn 0 1 0
vn 0 1 0
vn 0 1 0
vn 0 1 0
vn 0 1 0
vn 0 1 0
vn 0 1 0
vn 0 1 0
vn 0 1 0
vn 0 1 0
vn 0 1 0
vn 0 1 0
vn 0 1 0
vn 0 1 0
vn 0 1 0
vn 0 1 0
vn 0 1 0
vn 0 1 0
vn 0 1 0
vn 0 1 0
vn 0 1 0
vn 0 1 0
vn 0 1 0
vn 0 1 0
vn 0 1 0
vn 0 1 0
vn 0 1 0
vn 0 1 0
vn 0 1 0
vn 0 1 0
vn 0 1 0
vn 0 1 0
vn 0 1 0
vn 0 1 0
vn 0 1 0
vn 0 1 0
vn 0 1 0
vn 0 1 0
vn 0 1 0
vn 0 1 0
vn 0 1 0
vn 0 1 0
vn 0 1 0
vn 0 1 0
vn 0 1 0
vn 0 1 0
vn 0 1 0
vn 0 1 0
vn 0 1 0
vn 0 1 0
vn 0 1 0
vn 0 1 0
vn 0 1 0
vn 0 1 0
vn 0 1 0
vn 0 1 0
vn 0 1 0
vn 0 1 0
vn 0 1 0
vn 0 1 0
vn 0 1 0
vn 0 1 0
vn 0 1 0
vn 0 1 0
vn 0 1 0
vn 0 1 0
vn 0 1 0
vn 0 1 0
vn 0 1 0
vn 0 1 0
vn 0 1 0
vn 0 1 0
vn 0 1 0
vn 0 1 0
vn 0 1 0
vn 0 1 0
vn 0 1 0
vn 0 1 0
vn 0 1 0
vn 0 1 0
vn 0 1 0
vn 0 1 0
vn 0 1 0
vn 0 1 0
vn 0 1 0
vn 0 1 0
vn 0 1 0
vn 0 1 0
vn 0 1 0
vn 0 1 0
vn 0 1 0
vn 0 1 0
vn 0 1 0
vn 0 1 0
vn 0 1 0
vn 0 1 0
vn 0 1 0
vn 0 1 0
vn 0 1 0
vn 0 1 0
vn 0 1 0
vn 0 1 0
vn 0 1 0
vn 0 1 0
vn 0 1 0
vn 0 1 0
vn 0 1 0
vn 0 1 0
vn 0 1 0
vn 0 1 0
vn 0 1 0
vn 0 1 0
vn 0 1 0
vn 0 1 0
vn 0 1 0
vn 0 1 0
vn 0 1 0
vn 0 1 0
vn 0 1 0
vn 0 1 0
vn 0 1 0
vn 0 1 0
vn 0 1 0
vn 0 1 0
vn 0 1 0
vn 0 1 0
vn 0 1 0
vn 0 1 0
vn 0 1 0
vn 0 1 0
vn 0 1 0
vn 0 1 0
vn 0 1 0
vn 0 1 0
vn 0 1 0
vn 0 1 0
vn 0 1 0
vn 0 1 0
vn 0 1 0
vn 0 1 0
vn 0 1 0
vn 0 1 0
vn 0 1 0
vn 0 1 0
vn 0 1 0
vn 0 1 0
vn 0 1 0
vn 0 1 0
vn 0 1 0
vn 0 1 0
vn 0 1 0
vn 0 1 0
vn 0 1 0
vn 0 1 0
vn 0 1 0
vn 0 1 0
vn 0 1 0
vn 0 1 0
vn 0 1 0
vn 0 1 0
vn 0 1 0
g Grass_2_Cluster204_0
f 2/2/2 3/3/3 1/1/1
f 2/2/2 4/4/4 3/3/3
f 6/6/6 7/7/7 5/5/5
f 6/6/6 8/8/8 7/7/7
f 10/10/10 11/11/11 9/9/9
f 10/10/10 12/12/12 11/11/11
f 14/14/14 15/15/15 13/13/13
f 14/14/14 16/16/16 15/15/15
f 18/18/18 19/19/19 17/17/17
f 18/18/18 20/20/20 19/19/19
f 22/22/22 23/23/23 21/21/21
f 22/22/22 24/24/24 23/23/23
f 26/26/26 27/27/27 25/25/25
f 26/26/26 28/28/28 27/27/27
f 30/30/30 31/31/31 29/29/29
f 30/30/30 32/32/32 31/31/31
f 34/34/34 35/35/35 33/33/33
f 34/34/34 36/36/36 35/35/35
f 38/38/38 39/39/39 37/37/37
f 38/38/38 40/40/40 39/39/39
f 42/42/42 43/43/43 41/41/41
f 42/42/42 44/44/44 43/43/43
f 46/46/46 47/47/47 45/45/45
f 46/46/46 48/48/48 47/47/47
f 50/50/50 51/51/51 49/49/49
f 50/50/50 52/52/52 51/51/51
f 54/54/54 55/55/55 53/53/53
f 54/54/54 56/56/56 55/55/55
f 58/58/58 59/59/59 57/57/57
f 58/58/58 60/60/60 59/59/59
f 62/62/62 63/63/63 61/61/61
f 62/62/62 64/64/64 63/63/63
f 66/66/66 67/67/67 65/65/65
f 66/66/66 68/68/68 67/67/67
f 70/70/70 71/71/71 69/69/69
f 70/70/70 72/72/72 71/71/71
f 74/74/74 75/75/75 73/73/73
f 74/74/74 76/76/76 75/75/75
f 78/78/78 79/79/79 77/77/77
f 78/78/78 80/80/80 79/79/79
f 82/82/82 83/83/83 81/81/81
f 82/82/82 84/84/84 83/83/83
f 86/86/86 87/87/87 85/85/85
f 86/86/86 88/88/88 87/87/87
f 90/90/90 91/91/91 89/89/89
f 90/90/90 92/92/92 91/91/91
f 94/94/94 95/95/95 93/93/93
f 94/94/94 96/96/96 95/95/95
f 98/98/98 99/99/99 97/97/97
f 98/98/98 100/100/100 99/99/99
f 102/102/102 103/103/103 101/101/101
f 102/102/102 104/104/104 103/103/103
f 106/106/106 107/107/107 105/105/105
f 106/106/106 108/108/108 107/107/107
f 110/110/110 111/111/111 109/109/109
f 110/110/110 112/112/112 111/111/111
f 114/114/114 115/115/115 113/113/113
f 114/114/114 116/116/116 115/115/115
f 118/118/118 119/119/119 117/117/117
f 118/118/118 120/120/120 119/119/119
f 122/122/122 123/123/123 121/121/121
f 122/122/122 124/124/124 123/123/123
f 126/126/126 127/127/127 125/125/125
f 126/126/126 128/128/128 127/127/127
f 130/130/130 131/131/131 129/129/129
f 130/130/130 132/132/132 131/131/131
f 134/134/134 135/135/135 133/133/133
f 134/134/134 136/136/136 135/135/135
f 138/138/138 139/139/139 137/137/137
f 138/138/138 140/140/140 139/139/139
f 142/142/142 143/143/143 141/141/141
f 142/142/142 144/144/144 143/143/143
f 146/146/146 147/147/147 145/145/145
f 146/146/146 148/148/148 147/147/147
f 150/150/150 151/151/151 149/149/149
f 150/150/150 152/152/152 151/151/151
f 154/154/154 155/155/155 153/153/153
f 154/154/154 156/156/156 155/155/155
f 158/158/158 159/159/159 157/157/157
f 158/158/158 160/160/160 159/159/159
f 162/162/162 163/163/163 161/161/161
f 162/162/162 164/164/164 163/163/163
f 166/166/166 167/167/167 165/165/165
f 166/166/166 168/168/168 167/167/167
