g Grass_2_Cluster29
v 13.90473 -0.008966446 22.40355
v 12.90861 -0.008966446 22.40355
v 13.90473 -0.008966446 23.54908
v 12.90861 -0.008966446 23.54908
v 27.40204 -0.008966446 9.005844
v 26.45573 -0.008966446 9.005844
v 27.40204 -0.008966446 10.10157
v 26.45573 -0.008966446 10.10157
v 24.21448 -0.008966446 7.810509
v 23.26818 -0.008966446 7.810509
v 24.21448 -0.008966446 8.956039
v 23.26818 -0.008966446 8.956039
v 26.65495 -0.008966446 7.312454
v 25.70865 -0.008966446 7.312454
v 26.65495 -0.008966446 8.408176
v 25.70865 -0.008966446 8.408176
vt 0.1347656 0.9185662
vt 0.2060202 0.9185662
vt 0.1347656 1
vt 0.2060202 1
vt 0.1347656 0.9185662
vt 0.2060202 0.9185662
vt 0.1347656 1
vt 0.2060202 1
vt 0.1347656 0.9185662
vt 0.2060202 0.9185662
vt 0.1347656 1
vt 0.2060202 1
vt 0.1347656 0.9185662
vt 0.2060202 0.9185662
vt 0.1347656 1
vt 0.2060202 1
vn 0 1 0
vn 0 1 0
vn 0 1 0
vn 0 1 0
vn 0 1 0
vn 0 1 0
vn 0 1 0
vn 0 1 0
vn 0 1 0
vn 0 1 0
vn 0 1 0
vn 0 1 0
vn 0 1 0
vn 0 1 0
vn 0 1 0
vn 0 1 0
g Grass_2_Cluster29_0
f 2/2/2 3/3/3 1/1/1
f 2/2/2 4/4/4 3/3/3
f 6/6/6 7/7/7 5/5/5
f 6/6/6 8/8/8 7/7/7
f 10/10/10 11/11/11 9/9/9
f 10/10/10 12/12/12 11/11/11
f 14/14/14 15/15/15 13/13/13
f 14/14/14 16/16/16 15/15/15
