g Grass_2_Cluster336
v -206.6851 0 464.8138
v -207.5956 0 464.8138
v -206.6851 0 465.7242
v -207.5956 0 465.7242
v -208.9613 0 463.9032
v -209.8718 0 463.9032
v -208.9613 0 464.8138
v -209.8718 0 464.8138
v -204.864 0 463.9032
v -205.7746 0 463.9032
v -204.864 0 464.8138
v -205.7746 0 464.8138
v -206.6851 0 463.448
v -207.5956 0 463.448
v -206.6851 0 464.3585
v -207.5956 0 464.3585
v -204.4088 0 462.5375
v -205.3193 0 462.5375
v -204.4088 0 463.9032
v -205.3193 0 463.9032
v -203.043 0 462.5375
v -203.9535 0 462.5375
v -203.043 0 463.9032
v -203.9535 0 463.9032
v -204.864 0 462.5375
v -205.7746 0 462.5375
v -204.864 0 463.9032
v -205.7746 0 463.9032
v -206.2298 0 461.627
v -207.1403 0 461.627
v -206.2298 0 462.9927
v -207.1403 0 462.9927
v -205.3193 0 461.627
v -206.2298 0 461.627
v -205.3193 0 462.9927
v -206.2298 0 462.9927
v -189.3854 0 453.4324
v -190.2959 0 453.4324
v -189.3854 0 454.7982
v -190.2959 0 454.7982
vt 0.1347656 0.9185662
vt 0.2060202 0.9185662
vt 0.1347656 1
vt 0.2060202 1
vt 0.1347656 0.9185662
vt 0.2060202 0.9185662
vt 0.1347656 1
vt 0.2060202 1
vt 0.1347656 0.9185662
vt 0.2060202 0.9185662
vt 0.1347656 1
vt 0.2060202 1
vt 0.1347656 0.9185662
vt 0.2060202 0.9185662
vt 0.1347656 1
vt 0.2060202 1
vt 0.1347656 0.9185662
vt 0.2060202 0.9185662
vt 0.1347656 1
vt 0.2060202 1
vt 0.1347656 0.9185662
vt 0.2060202 0.9185662
vt 0.1347656 1
vt 0.2060202 1
vt 0.1347656 0.9185662
vt 0.2060202 0.9185662
vt 0.1347656 1
vt 0.2060202 1
vt 0.1347656 0.9185662
vt 0.2060202 0.9185662
vt 0.1347656 1
vt 0.2060202 1
vt 0.1347656 0.9185662
vt 0.2060202 0.9185662
vt 0.1347656 1
vt 0.2060202 1
vt 0.1347656 0.9185662
vt 0.2060202 0.9185662
vt 0.1347656 1
vt 0.2060202 1
vn 0 1 0
vn 0 1 0
vn 0 1 0
vn 0 1 0
vn 0 1 0
vn 0 1 0
vn 0 1 0
vn 0 1 0
vn 0 1 0
vn 0 1 0
vn 0 1 0
vn 0 1 0
vn 0 1 0
vn 0 1 0
vn 0 1 0
vn 0 1 0
vn 0 1 0
vn 0 1 0
vn 0 1 0
vn 0 1 0
vn 0 1 0
vn 0 1 0
vn 0 1 0
vn 0 1 0
vn 0 1 0
vn 0 1 0
vn 0 1 0
vn 0 1 0
vn 0 1 0
vn 0 1 0
vn 0 1 0
vn 0 1 0
vn 0 1 0
vn 0 1 0
vn 0 1 0
vn 0 1 0
vn 0 1 0
vn 0 1 0
vn 0 1 0
vn 0 1 0
g Grass_2_Cluster336_0
f 2/2/2 3/3/3 1/1/1
f 2/2/2 4/4/4 3/3/3
f 6/6/6 7/7/7 5/5/5
f 6/6/6 8/8/8 7/7/7
f 10/10/10 11/11/11 9/9/9
f 10/10/10 12/12/12 11/11/11
f 14/14/14 15/15/15 13/13/13
f 14/14/14 16/16/16 15/15/15
f 18/18/18 19/19/19 17/17/17
f 18/18/18 20/20/20 19/19/19
f 22/22/22 23/23/23 21/21/21
f 22/22/22 24/24/24 23/23/23
f 26/26/26 27/27/27 25/25/25
f 26/26/26 28/28/28 27/27/27
f 30/30/30 31/31/31 29/29/29
f 30/30/30 32/32/32 31/31/31
f 34/34/34 35/35/35 33/33/33
f 34/34/34 36/36/36 35/35/35
f 38/38/38 39/39/39 37/37/37
f 38/38/38 40/40/40 39/39/39
