g Grass_2_Cluster234
v -131.3531 0 322.8438
v -132.3027 0 322.8438
v -131.3531 0 323.7933
v -132.3027 0 323.7933
v -132.9357 0 322.5273
v -133.8852 0 322.5273
v -132.9357 0 323.4768
v -133.8852 0 323.4768
v -131.6696 0 320.6282
v -132.3027 0 320.6282
v -131.6696 0 321.8943
v -132.3027 0 321.8943
v -137.0504 0 320.3117
v -137.9999 0 320.3117
v -137.0504 0 321.5777
v -137.9999 0 321.5777
v -135.1513 0 319.0456
v -136.1008 0 319.0456
v -135.1513 0 319.9952
v -136.1008 0 319.9952
v -145.2797 0 318.7291
v -146.2292 0 318.7291
v -145.2797 0 319.6786
v -146.2292 0 319.6786
v -145.2797 0 317.7796
v -146.5458 0 317.7796
v -145.2797 0 319.0456
v -146.5458 0 319.0456
v -147.4953 0 317.4631
v -148.4448 0 317.4631
v -147.4953 0 318.7291
v -148.4448 0 318.7291
v -140.2155 0 316.83
v -141.165 0 316.83
v -140.2155 0 318.0961
v -141.165 0 318.0961
v -140.2155 0 316.5135
v -141.165 0 316.5135
v -140.2155 0 317.4631
v -141.165 0 317.4631
v -120.5917 0 316.5135
v -121.5412 0 316.5135
v -120.5917 0 317.4631
v -121.5412 0 317.4631
v -145.9127 0 316.197
v -146.8623 0 316.197
v -145.9127 0 317.4631
v -146.8623 0 317.4631
v -141.4816 0 316.197
v -142.4311 0 316.197
v -141.4816 0 317.1465
v -142.4311 0 317.1465
v -141.7981 0 315.8805
v -142.7476 0 315.8805
v -141.7981 0 317.1465
v -142.7476 0 317.1465
v -135.4678 0 315.564
v -136.4173 0 315.564
v -135.4678 0 316.83
v -136.4173 0 316.83
v -146.8623 0 315.564
v -147.8118 0 315.564
v -146.8623 0 316.83
v -147.8118 0 316.83
v -137.9999 0 315.2475
v -138.9494 0 315.2475
v -137.9999 0 316.5135
v -138.9494 0 316.5135
v -141.7981 0 315.2475
v -142.7476 0 315.2475
v -141.7981 0 316.197
v -142.7476 0 316.197
v -135.7843 0 315.2475
v -136.7338 0 315.2475
v -135.7843 0 316.197
v -136.7338 0 316.197
v -137.0504 0 314.6144
v -137.9999 0 314.6144
v -137.0504 0 315.8805
v -137.9999 0 315.8805
v -143.3806 0 314.6144
v -144.3302 0 314.6144
v -143.3806 0 315.8805
v -144.3302 0 315.8805
v -141.7981 0 314.6144
v -142.7476 0 314.6144
v -141.7981 0 315.8805
v -142.7476 0 315.8805
v -138.9494 0 314.2979
v -139.899 0 314.2979
v -138.9494 0 315.564
v -139.899 0 315.564
v -136.7338 0 314.2979
v -137.6834 0 314.2979
v -136.7338 0 315.564
v -137.6834 0 315.564
v -140.2155 0 313.6649
v -141.165 0 313.6649
v -140.2155 0 314.6144
v -141.165 0 314.6144
v -119.6421 0 313.3484
v -120.5917 0 313.3484
v -119.6421 0 314.6144
v -120.5917 0 314.6144
v -125.3394 0 302.2704
v -126.6054 0 302.2704
v -125.3394 0 303.22
v -126.6054 0 303.22
v -125.0228 0 301.6374
v -125.9724 0 301.6374
v -125.0228 0 302.5869
v -125.9724 0 302.5869
v -124.0733 0 300.3713
v -124.7063 0 300.3713
v -124.0733 0 301.3209
v -124.7063 0 301.3209
v -125.3394 0 300.0548
v -126.2889 0 300.0548
v -125.3394 0 301.3209
v -126.2889 0 301.3209
v -124.3898 0 299.1053
v -125.6559 0 299.1053
v -124.3898 0 300.3713
v -125.6559 0 300.3713
v -123.7568 0 299.1053
v -124.7063 0 299.1053
v -123.7568 0 300.0548
v -124.7063 0 300.0548
v -125.0228 0 298.7888
v -125.9724 0 298.7888
v -125.0228 0 299.7383
v -125.9724 0 299.7383
v -122.4907 0 298.4723
v -123.4403 0 298.4723
v -122.4907 0 299.4218
v -123.4403 0 299.4218
v -124.0733 0 297.2062
v -125.0228 0 297.2062
v -124.0733 0 298.1557
v -125.0228 0 298.1557
v -146.8623 0 296.5732
v -148.1283 0 296.5732
v -146.8623 0 297.5227
v -148.1283 0 297.5227
vt 0.1347656 0.9185662
vt 0.2060202 0.9185662
vt 0.1347656 1
vt 0.2060202 1
vt 0.1347656 0.9185662
vt 0.2060202 0.9185662
vt 0.1347656 1
vt 0.2060202 1
vt 0.1347656 0.9185662
vt 0.2060202 0.9185662
vt 0.1347656 1
vt 0.2060202 1
vt 0.1347656 0.9185662
vt 0.2060202 0.9185662
vt 0.1347656 1
vt 0.2060202 1
vt 0.1347656 0.9185662
vt 0.2060202 0.9185662
vt 0.1347656 1
vt 0.2060202 1
vt 0.1347656 0.9185662
vt 0.2060202 0.9185662
vt 0.1347656 1
vt 0.2060202 1
vt 0.1347656 0.9185662
vt 0.2060202 0.9185662
vt 0.1347656 1
vt 0.2060202 1
vt 0.1347656 0.9185662
vt 0.2060202 0.9185662
vt 0.1347656 1
vt 0.2060202 1
vt 0.1347656 0.9185662
vt 0.2060202 0.9185662
vt 0.1347656 1
vt 0.2060202 1
vt 0.1347656 0.9185662
vt 0.2060202 0.9185662
vt 0.1347656 1
vt 0.2060202 1
vt 0.1347656 0.9185662
vt 0.2060202 0.9185662
vt 0.1347656 1
vt 0.2060202 1
vt 0.1347656 0.9185662
vt 0.2060202 0.9185662
vt 0.1347656 1
vt 0.2060202 1
vt 0.1347656 0.9185662
vt 0.2060202 0.9185662
vt 0.1347656 1
vt 0.2060202 1
vt 0.1347656 0.9185662
vt 0.2060202 0.9185662
vt 0.1347656 1
vt 0.2060202 1
vt 0.1347656 0.9185662
vt 0.2060202 0.9185662
vt 0.1347656 1
vt 0.2060202 1
vt 0.1347656 0.9185662
vt 0.2060202 0.9185662
vt 0.1347656 1
vt 0.2060202 1
vt 0.1347656 0.9185662
vt 0.2060202 0.9185662
vt 0.1347656 1
vt 0.2060202 1
vt 0.1347656 0.9185662
vt 0.2060202 0.9185662
vt 0.1347656 1
vt 0.2060202 1
vt 0.1347656 0.9185662
vt 0.2060202 0.9185662
vt 0.1347656 1
vt 0.2060202 1
vt 0.1347656 0.9185662
vt 0.2060202 0.9185662
vt 0.1347656 1
vt 0.2060202 1
vt 0.1347656 0.9185662
vt 0.2060202 0.9185662
vt 0.1347656 1
vt 0.2060202 1
vt 0.1347656 0.9185662
vt 0.2060202 0.9185662
vt 0.1347656 1
vt 0.2060202 1
vt 0.1347656 0.9185662
vt 0.2060202 0.9185662
vt 0.1347656 1
vt 0.2060202 1
vt 0.1347656 0.9185662
vt 0.2060202 0.9185662
vt 0.1347656 1
vt 0.2060202 1
vt 0.1347656 0.9185662
vt 0.2060202 0.9185662
vt 0.1347656 1
vt 0.2060202 1
vt 0.1347656 0.9185662
vt 0.2060202 0.9185662
vt 0.1347656 1
vt 0.2060202 1
vt 0.1347656 0.9185662
vt 0.2060202 0.9185662
vt 0.1347656 1
vt 0.2060202 1
vt 0.1347656 0.9185662
vt 0.2060202 0.9185662
vt 0.1347656 1
vt 0.2060202 1
vt 0.1347656 0.9185662
vt 0.2060202 0.9185662
vt 0.1347656 1
vt 0.2060202 1
vt 0.1347656 0.9185662
vt 0.2060202 0.9185662
vt 0.1347656 1
vt 0.2060202 1
vt 0.1347656 0.9185662
vt 0.2060202 0.9185662
vt 0.1347656 1
vt 0.2060202 1
vt 0.1347656 0.9185662
vt 0.2060202 0.9185662
vt 0.1347656 1
vt 0.2060202 1
vt 0.1347656 0.9185662
vt 0.2060202 0.9185662
vt 0.1347656 1
vt 0.2060202 1
vt 0.1347656 0.9185662
vt 0.2060202 0.9185662
vt 0.1347656 1
vt 0.2060202 1
vt 0.1347656 0.9185662
vt 0.2060202 0.9185662
vt 0.1347656 1
vt 0.2060202 1
vt 0.1347656 0.9185662
vt 0.2060202 0.9185662
vt 0.1347656 1
vt 0.2060202 1
vn 0 1 0
vn 0 1 0
vn 0 1 0
vn 0 1 0
vn 0 1 0
vn 0 1 0
vn 0 1 0
vn 0 1 0
vn 0 1 0
vn 0 1 0
vn 0 1 0
vn 0 1 0
vn 0 1 0
vn 0 1 0
vn 0 1 0
vn 0 1 0
vn 0 1 0
vn 0 1 0
vn 0 1 0
vn 0 1 0
vn 0 1 0
vn 0 1 0
vn 0 1 0
vn 0 1 0
vn 0 1 0
vn 0 1 0
vn 0 1 0
vn 0 1 0
vn 0 1 0
vn 0 1 0
vn 0 1 0
vn 0 1 0
vn 0 1 0
vn 0 1 0
vn 0 1 0
vn 0 1 0
vn 0 1 0
vn 0 1 0
vn 0 1 0
vn 0 1 0
vn 0 1 0
vn 0 1 0
vn 0 1 0
vn 0 1 0
vn 0 1 0
vn 0 1 0
vn 0 1 0
vn 0 1 0
vn 0 1 0
vn 0 1 0
vn 0 1 0
vn 0 1 0
vn 0 1 0
vn 0 1 0
vn 0 1 0
vn 0 1 0
vn 0 1 0
vn 0 1 0
vn 0 1 0
vn 0 1 0
vn 0 1 0
vn 0 1 0
vn 0 1 0
vn 0 1 0
vn 0 1 0
vn 0 1 0
vn 0 1 0
vn 0 1 0
vn 0 1 0
vn 0 1 0
vn 0 1 0
vn 0 1 0
vn 0 1 0
vn 0 1 0
vn 0 1 0
vn 0 1 0
vn 0 1 0
vn 0 1 0
vn 0 1 0
vn 0 1 0
vn 0 1 0
vn 0 1 0
vn 0 1 0
vn 0 1 0
vn 0 1 0
vn 0 1 0
vn 0 1 0
vn 0 1 0
vn 0 1 0
vn 0 1 0
vn 0 1 0
vn 0 1 0
vn 0 1 0
vn 0 1 0
vn 0 1 0
vn 0 1 0
vn 0 1 0
vn 0 1 0
vn 0 1 0
vn 0 1 0
vn 0 1 0
vn 0 1 0
vn 0 1 0
vn 0 1 0
vn 0 1 0
vn 0 1 0
vn 0 1 0
vn 0 1 0
vn 0 1 0
vn 0 1 0
vn 0 1 0
vn 0 1 0
vn 0 1 0
vn 0 1 0
vn 0 1 0
vn 0 1 0
vn 0 1 0
vn 0 1 0
vn 0 1 0
vn 0 1 0
vn 0 1 0
vn 0 1 0
vn 0 1 0
vn 0 1 0
vn 0 1 0
vn 0 1 0
vn 0 1 0
vn 0 1 0
vn 0 1 0
vn 0 1 0
vn 0 1 0
vn 0 1 0
vn 0 1 0
vn 0 1 0
vn 0 1 0
vn 0 1 0
vn 0 1 0
vn 0 1 0
vn 0 1 0
vn 0 1 0
vn 0 1 0
vn 0 1 0
vn 0 1 0
vn 0 1 0
g Grass_2_Cluster234_0
f 2/2/2 3/3/3 1/1/1
f 2/2/2 4/4/4 3/3/3
f 6/6/6 7/7/7 5/5/5
f 6/6/6 8/8/8 7/7/7
f 10/10/10 11/11/11 9/9/9
f 10/10/10 12/12/12 11/11/11
f 14/14/14 15/15/15 13/13/13
f 14/14/14 16/16/16 15/15/15
f 18/18/18 19/19/19 17/17/17
f 18/18/18 20/20/20 19/19/19
f 22/22/22 23/23/23 21/21/21
f 22/22/22 24/24/24 23/23/23
f 26/26/26 27/27/27 25/25/25
f 26/26/26 28/28/28 27/27/27
f 30/30/30 31/31/31 29/29/29
f 30/30/30 32/32/32 31/31/31
f 34/34/34 35/35/35 33/33/33
f 34/34/34 36/36/36 35/35/35
f 38/38/38 39/39/39 37/37/37
f 38/38/38 40/40/40 39/39/39
f 42/42/42 43/43/43 41/41/41
f 42/42/42 44/44/44 43/43/43
f 46/46/46 47/47/47 45/45/45
f 46/46/46 48/48/48 47/47/47
f 50/50/50 51/51/51 49/49/49
f 50/50/50 52/52/52 51/51/51
f 54/54/54 55/55/55 53/53/53
f 54/54/54 56/56/56 55/55/55
f 58/58/58 59/59/59 57/57/57
f 58/58/58 60/60/60 59/59/59
f 62/62/62 63/63/63 61/61/61
f 62/62/62 64/64/64 63/63/63
f 66/66/66 67/67/67 65/65/65
f 66/66/66 68/68/68 67/67/67
f 70/70/70 71/71/71 69/69/69
f 70/70/70 72/72/72 71/71/71
f 74/74/74 75/75/75 73/73/73
f 74/74/74 76/76/76 75/75/75
f 78/78/78 79/79/79 77/77/77
f 78/78/78 80/80/80 79/79/79
f 82/82/82 83/83/83 81/81/81
f 82/82/82 84/84/84 83/83/83
f 86/86/86 87/87/87 85/85/85
f 86/86/86 88/88/88 87/87/87
f 90/90/90 91/91/91 89/89/89
f 90/90/90 92/92/92 91/91/91
f 94/94/94 95/95/95 93/93/93
f 94/94/94 96/96/96 95/95/95
f 98/98/98 99/99/99 97/97/97
f 98/98/98 100/100/100 99/99/99
f 102/102/102 103/103/103 101/101/101
f 102/102/102 104/104/104 103/103/103
f 106/106/106 107/107/107 105/105/105
f 106/106/106 108/108/108 107/107/107
f 110/110/110 111/111/111 109/109/109
f 110/110/110 112/112/112 111/111/111
f 114/114/114 115/115/115 113/113/113
f 114/114/114 116/116/116 115/115/115
f 118/118/118 119/119/119 117/117/117
f 118/118/118 120/120/120 119/119/119
f 122/122/122 123/123/123 121/121/121
f 122/122/122 124/124/124 123/123/123
f 126/126/126 127/127/127 125/125/125
f 126/126/126 128/128/128 127/127/127
f 130/130/130 131/131/131 129/129/129
f 130/130/130 132/132/132 131/131/131
f 134/134/134 135/135/135 133/133/133
f 134/134/134 136/136/136 135/135/135
f 138/138/138 139/139/139 137/137/137
f 138/138/138 140/140/140 139/139/139
f 142/142/142 143/143/143 141/141/141
f 142/142/142 144/144/144 143/143/143
