g Grass_0_Cluster129
v 13.16895 -0.008609772 172.8704
v 12.37135 -0.008609772 172.8704
v 13.16895 -0.008609772 174.0667
v 12.37135 -0.008609772 174.0667
v 7.984571 -0.008609772 172.671
v 7.186975 -0.008609772 172.671
v 7.984571 -0.008609772 173.8673
v 7.186975 -0.008609772 173.8673
v 12.96955 -0.008609772 171.674
v 11.97255 -0.008609772 171.674
v 12.96955 -0.008609772 173.0698
v 11.97255 -0.008609772 173.0698
v 29.71906 -0.008609772 167.0878
v 28.92147 -0.008609772 167.0878
v 29.71906 -0.008609772 168.2842
v 28.92147 -0.008609772 168.2842
v 29.91846 -0.008609772 166.4896
v 28.92147 -0.008609772 166.4896
v 29.91846 -0.008609772 167.686
v 28.92147 -0.008609772 167.686
v 29.12087 -0.008609772 165.2932
v 28.32327 -0.008609772 165.2932
v 29.12087 -0.008609772 166.4896
v 28.32327 -0.008609772 166.4896
v 27.72507 -0.008609772 164.4956
v 26.92748 -0.008609772 164.4956
v 27.72507 -0.008609772 165.692
v 26.92748 -0.008609772 165.692
v 24.53469 -0.008609772 164.0968
v 23.73709 -0.008609772 164.0968
v 24.53469 -0.008609772 165.2932
v 23.73709 -0.008609772 165.2932
v 28.92147 -0.008609772 162.9004
v 27.92447 -0.008609772 162.9004
v 28.92147 -0.008609772 164.0968
v 27.92447 -0.008609772 164.0968
v 19.54972 -0.008609772 159.9094
v 18.55272 -0.008609772 159.9094
v 19.54972 -0.008609772 161.1058
v 18.55272 -0.008609772 161.1058
v 26.52868 -0.008609772 159.3112
v 25.73108 -0.008609772 159.3112
v 26.52868 -0.008609772 160.5076
v 25.73108 -0.008609772 160.5076
v 8.782167 -0.008609772 156.9184
v 7.785172 -0.008609772 156.9184
v 8.782167 -0.008609772 158.3142
v 7.785172 -0.008609772 158.3142
v 7.984571 -0.008609772 155.9214
v 6.987576 -0.008609772 155.9214
v 7.984571 -0.008609772 157.3172
v 6.987576 -0.008609772 157.3172
v 10.97556 -0.008609772 155.9214
v 10.17796 -0.008609772 155.9214
v 10.97556 -0.008609772 156.9184
v 10.17796 -0.008609772 156.9184
v 17.75512 -0.008609772 155.5226
v 16.95753 -0.008609772 155.5226
v 17.75512 -0.008609772 156.719
v 16.95753 -0.008609772 156.719
v 10.17796 -0.008609772 155.1238
v 9.380363 -0.008609772 155.1238
v 10.17796 -0.008609772 156.5196
v 9.380363 -0.008609772 156.5196
v 10.97556 -0.008609772 155.1238
v 10.17796 -0.008609772 155.1238
v 10.97556 -0.008609772 156.3202
v 10.17796 -0.008609772 156.3202
v 9.779163 -0.008609772 154.9244
v 8.782167 -0.008609772 154.9244
v 9.779163 -0.008609772 156.3202
v 8.782167 -0.008609772 156.3202
v 15.56173 -0.008609772 154.9244
v 14.56474 -0.008609772 154.9244
v 15.56173 -0.008609772 156.1208
v 14.56474 -0.008609772 156.1208
v 6.987576 -0.008609772 154.9244
v 6.18998 -0.008609772 154.9244
v 6.987576 -0.008609772 156.1208
v 6.18998 -0.008609772 156.1208
v 12.57075 -0.008609772 154.725
v 11.57375 -0.008609772 154.725
v 12.57075 -0.008609772 156.1208
v 11.57375 -0.008609772 156.1208
v 11.77315 -0.008609772 154.5256
v 10.97556 -0.008609772 154.5256
v 11.77315 -0.008609772 155.722
v 10.97556 -0.008609772 155.722
v 8.782167 -0.008609772 154.3262
v 7.984571 -0.008609772 154.3262
v 8.782167 -0.008609772 155.5226
v 7.984571 -0.008609772 155.5226
v 19.94851 -0.008609772 154.1268
v 18.95152 -0.008609772 154.1268
v 19.94851 -0.008609772 155.5226
v 18.95152 -0.008609772 155.5226
v 0.6068077 -0.008609772 154.1268
v -0.3901882 -0.008609772 154.1268
v 0.6068077 -0.008609772 155.5226
v -0.3901882 -0.008609772 155.5226
v 8.183969 -0.008609772 154.1268
v 7.386374 -0.008609772 154.1268
v 8.183969 -0.008609772 155.3232
v 7.386374 -0.008609772 155.3232
v 10.37736 -0.008609772 153.9274
v 9.579763 -0.008609772 153.9274
v 10.37736 -0.008609772 155.1238
v 9.579763 -0.008609772 155.1238
v 8.383369 -0.008609772 153.9274
v 7.386374 -0.008609772 153.9274
v 8.383369 -0.008609772 155.1238
v 7.386374 -0.008609772 155.1238
v 15.16294 -0.008609772 153.7281
v 14.36534 -0.008609772 153.7281
v 15.16294 -0.008609772 154.9244
v 14.36534 -0.008609772 154.9244
v 12.37135 -0.008609772 153.3293
v 11.57375 -0.008609772 153.3293
v 12.37135 -0.008609772 154.725
v 11.57375 -0.008609772 154.725
v 5.990582 -0.008609772 153.1299
v 4.993586 -0.008609772 153.1299
v 5.990582 -0.008609772 154.5256
v 4.993586 -0.008609772 154.5256
v 6.38938 -0.008609772 152.5316
v 5.591784 -0.008609772 152.5316
v 6.38938 -0.008609772 153.7281
v 5.591784 -0.008609772 153.7281
v 2.600798 -0.008609772 152.5316
v 1.603802 -0.008609772 152.5316
v 2.600798 -0.008609772 153.7281
v 1.603802 -0.008609772 153.7281
v 11.17496 -0.008609772 152.1328
v 10.37736 -0.008609772 152.1328
v 11.17496 -0.008609772 153.3293
v 10.37736 -0.008609772 153.3293
v 1.803202 -0.008609772 151.9334
v 1.005606 -0.008609772 151.9334
v 1.803202 -0.008609772 153.1299
v 1.005606 -0.008609772 153.1299
v 9.579763 -0.008609772 151.734
v 8.582767 -0.008609772 151.734
v 9.579763 -0.008609772 152.9305
v 8.582767 -0.008609772 152.9305
v 11.97255 -0.008609772 151.1359
v 10.97556 -0.008609772 151.1359
v 11.97255 -0.008609772 152.3322
v 10.97556 -0.008609772 152.3322
v 13.16895 -0.008609772 150.7371
v 12.17195 -0.008609772 150.7371
v 13.16895 -0.008609772 151.9334
v 12.17195 -0.008609772 151.9334
v 14.76414 -0.008609772 149.7401
v 13.76714 -0.008609772 149.7401
v 14.76414 -0.008609772 150.9365
v 13.76714 -0.008609772 150.9365
v 29.51967 -0.008609772 148.5437
v 28.52267 -0.008609772 148.5437
v 29.51967 -0.008609772 149.7401
v 28.52267 -0.008609772 149.7401
v 27.12688 -0.008609772 145.1539
v 26.12988 -0.008609772 145.1539
v 27.12688 -0.008609772 146.3503
v 26.12988 -0.008609772 146.3503
v 25.53168 -0.008609772 144.7551
v 24.53469 -0.008609772 144.7551
v 25.53168 -0.008609772 145.9515
v 24.53469 -0.008609772 145.9515
vt 0 0.9058824
vt 0.06666667 0.9058824
vt 0 1
vt 0.06666667 1
vt 0 0.9058824
vt 0.06666667 0.9058824
vt 0 1
vt 0.06666667 1
vt 0 0.9058824
vt 0.06666667 0.9058824
vt 0 1
vt 0.06666667 1
vt 0 0.9058824
vt 0.06666667 0.9058824
vt 0 1
vt 0.06666667 1
vt 0 0.9058824
vt 0.06666667 0.9058824
vt 0 1
vt 0.06666667 1
vt 0 0.9058824
vt 0.06666667 0.9058824
vt 0 1
vt 0.06666667 1
vt 0 0.9058824
vt 0.06666667 0.9058824
vt 0 1
vt 0.06666667 1
vt 0 0.9058824
vt 0.06666667 0.9058824
vt 0 1
vt 0.06666667 1
vt 0 0.9058824
vt 0.06666667 0.9058824
vt 0 1
vt 0.06666667 1
vt 0 0.9058824
vt 0.06666667 0.9058824
vt 0 1
vt 0.06666667 1
vt 0 0.9058824
vt 0.06666667 0.9058824
vt 0 1
vt 0.06666667 1
vt 0 0.9058824
vt 0.06666667 0.9058824
vt 0 1
vt 0.06666667 1
vt 0 0.9058824
vt 0.06666667 0.9058824
vt 0 1
vt 0.06666667 1
vt 0 0.9058824
vt 0.06666667 0.9058824
vt 0 1
vt 0.06666667 1
vt 0 0.9058824
vt 0.06666667 0.9058824
vt 0 1
vt 0.06666667 1
vt 0 0.9058824
vt 0.06666667 0.9058824
vt 0 1
vt 0.06666667 1
vt 0 0.9058824
vt 0.06666667 0.9058824
vt 0 1
vt 0.06666667 1
vt 0 0.9058824
vt 0.06666667 0.9058824
vt 0 1
vt 0.06666667 1
vt 0 0.9058824
vt 0.06666667 0.9058824
vt 0 1
vt 0.06666667 1
vt 0 0.9058824
vt 0.06666667 0.9058824
vt 0 1
vt 0.06666667 1
vt 0 0.9058824
vt 0.06666667 0.9058824
vt 0 1
vt 0.06666667 1
vt 0 0.9058824
vt 0.06666667 0.9058824
vt 0 1
vt 0.06666667 1
vt 0 0.9058824
vt 0.06666667 0.9058824
vt 0 1
vt 0.06666667 1
vt 0 0.9058824
vt 0.06666667 0.9058824
vt 0 1
vt 0.06666667 1
vt 0 0.9058824
vt 0.06666667 0.9058824
vt 0 1
vt 0.06666667 1
vt 0 0.9058824
vt 0.06666667 0.9058824
vt 0 1
vt 0.06666667 1
vt 0 0.9058824
vt 0.06666667 0.9058824
vt 0 1
vt 0.06666667 1
vt 0 0.9058824
vt 0.06666667 0.9058824
vt 0 1
vt 0.06666667 1
vt 0 0.9058824
vt 0.06666667 0.9058824
vt 0 1
vt 0.06666667 1
vt 0 0.9058824
vt 0.06666667 0.9058824
vt 0 1
vt 0.06666667 1
vt 0 0.9058824
vt 0.06666667 0.9058824
vt 0 1
vt 0.06666667 1
vt 0 0.9058824
vt 0.06666667 0.9058824
vt 0 1
vt 0.06666667 1
vt 0 0.9058824
vt 0.06666667 0.9058824
vt 0 1
vt 0.06666667 1
vt 0 0.9058824
vt 0.06666667 0.9058824
vt 0 1
vt 0.06666667 1
vt 0 0.9058824
vt 0.06666667 0.9058824
vt 0 1
vt 0.06666667 1
vt 0 0.9058824
vt 0.06666667 0.9058824
vt 0 1
vt 0.06666667 1
vt 0 0.9058824
vt 0.06666667 0.9058824
vt 0 1
vt 0.06666667 1
vt 0 0.9058824
vt 0.06666667 0.9058824
vt 0 1
vt 0.06666667 1
vt 0 0.9058824
vt 0.06666667 0.9058824
vt 0 1
vt 0.06666667 1
vt 0 0.9058824
vt 0.06666667 0.9058824
vt 0 1
vt 0.06666667 1
vt 0 0.9058824
vt 0.06666667 0.9058824
vt 0 1
vt 0.06666667 1
vt 0 0.9058824
vt 0.06666667 0.9058824
vt 0 1
vt 0.06666667 1
vn 0 1 0
vn 0 1 0
vn 0 1 0
vn 0 1 0
vn 0 1 0
vn 0 1 0
vn 0 1 0
vn 0 1 0
vn 0 1 0
vn 0 1 0
vn 0 1 0
vn 0 1 0
vn 0 1 0
vn 0 1 0
vn 0 1 0
vn 0 1 0
vn 0 1 0
vn 0 1 0
vn 0 1 0
vn 0 1 0
vn 0 1 0
vn 0 1 0
vn 0 1 0
vn 0 1 0
vn 0 1 0
vn 0 1 0
vn 0 1 0
vn 0 1 0
vn 0 1 0
vn 0 1 0
vn 0 1 0
vn 0 1 0
vn 0 1 0
vn 0 1 0
vn 0 1 0
vn 0 1 0
vn 0 1 0
vn 0 1 0
vn 0 1 0
vn 0 1 0
vn 0 1 0
vn 0 1 0
vn 0 1 0
vn 0 1 0
vn 0 1 0
vn 0 1 0
vn 0 1 0
vn 0 1 0
vn 0 1 0
vn 0 1 0
vn 0 1 0
vn 0 1 0
vn 0 1 0
vn 0 1 0
vn 0 1 0
vn 0 1 0
vn 0 1 0
vn 0 1 0
vn 0 1 0
vn 0 1 0
vn 0 1 0
vn 0 1 0
vn 0 1 0
vn 0 1 0
vn 0 1 0
vn 0 1 0
vn 0 1 0
vn 0 1 0
vn 0 1 0
vn 0 1 0
vn 0 1 0
vn 0 1 0
vn 0 1 0
vn 0 1 0
vn 0 1 0
vn 0 1 0
vn 0 1 0
vn 0 1 0
vn 0 1 0
vn 0 1 0
vn 0 1 0
vn 0 1 0
vn 0 1 0
vn 0 1 0
vn 0 1 0
vn 0 1 0
vn 0 1 0
vn 0 1 0
vn 0 1 0
vn 0 1 0
vn 0 1 0
vn 0 1 0
vn 0 1 0
vn 0 1 0
vn 0 1 0
vn 0 1 0
vn 0 1 0
vn 0 1 0
vn 0 1 0
vn 0 1 0
vn 0 1 0
vn 0 1 0
vn 0 1 0
vn 0 1 0
vn 0 1 0
vn 0 1 0
vn 0 1 0
vn 0 1 0
vn 0 1 0
vn 0 1 0
vn 0 1 0
vn 0 1 0
vn 0 1 0
vn 0 1 0
vn 0 1 0
vn 0 1 0
vn 0 1 0
vn 0 1 0
vn 0 1 0
vn 0 1 0
vn 0 1 0
vn 0 1 0
vn 0 1 0
vn 0 1 0
vn 0 1 0
vn 0 1 0
vn 0 1 0
vn 0 1 0
vn 0 1 0
vn 0 1 0
vn 0 1 0
vn 0 1 0
vn 0 1 0
vn 0 1 0
vn 0 1 0
vn 0 1 0
vn 0 1 0
vn 0 1 0
vn 0 1 0
vn 0 1 0
vn 0 1 0
vn 0 1 0
vn 0 1 0
vn 0 1 0
vn 0 1 0
vn 0 1 0
vn 0 1 0
vn 0 1 0
vn 0 1 0
vn 0 1 0
vn 0 1 0
vn 0 1 0
vn 0 1 0
vn 0 1 0
vn 0 1 0
vn 0 1 0
vn 0 1 0
vn 0 1 0
vn 0 1 0
vn 0 1 0
vn 0 1 0
vn 0 1 0
vn 0 1 0
vn 0 1 0
vn 0 1 0
vn 0 1 0
vn 0 1 0
vn 0 1 0
g Grass_0_Cluster129_0
f 2/2/2 3/3/3 1/1/1
f 2/2/2 4/4/4 3/3/3
f 6/6/6 7/7/7 5/5/5
f 6/6/6 8/8/8 7/7/7
f 10/10/10 11/11/11 9/9/9
f 10/10/10 12/12/12 11/11/11
f 14/14/14 15/15/15 13/13/13
f 14/14/14 16/16/16 15/15/15
f 18/18/18 19/19/19 17/17/17
f 18/18/18 20/20/20 19/19/19
f 22/22/22 23/23/23 21/21/21
f 22/22/22 24/24/24 23/23/23
f 26/26/26 27/27/27 25/25/25
f 26/26/26 28/28/28 27/27/27
f 30/30/30 31/31/31 29/29/29
f 30/30/30 32/32/32 31/31/31
f 34/34/34 35/35/35 33/33/33
f 34/34/34 36/36/36 35/35/35
f 38/38/38 39/39/39 37/37/37
f 38/38/38 40/40/40 39/39/39
f 42/42/42 43/43/43 41/41/41
f 42/42/42 44/44/44 43/43/43
f 46/46/46 47/47/47 45/45/45
f 46/46/46 48/48/48 47/47/47
f 50/50/50 51/51/51 49/49/49
f 50/50/50 52/52/52 51/51/51
f 54/54/54 55/55/55 53/53/53
f 54/54/54 56/56/56 55/55/55
f 58/58/58 59/59/59 57/57/57
f 58/58/58 60/60/60 59/59/59
f 62/62/62 63/63/63 61/61/61
f 62/62/62 64/64/64 63/63/63
f 66/66/66 67/67/67 65/65/65
f 66/66/66 68/68/68 67/67/67
f 70/70/70 71/71/71 69/69/69
f 70/70/70 72/72/72 71/71/71
f 74/74/74 75/75/75 73/73/73
f 74/74/74 76/76/76 75/75/75
f 78/78/78 79/79/79 77/77/77
f 78/78/78 80/80/80 79/79/79
f 82/82/82 83/83/83 81/81/81
f 82/82/82 84/84/84 83/83/83
f 86/86/86 87/87/87 85/85/85
f 86/86/86 88/88/88 87/87/87
f 90/90/90 91/91/91 89/89/89
f 90/90/90 92/92/92 91/91/91
f 94/94/94 95/95/95 93/93/93
f 94/94/94 96/96/96 95/95/95
f 98/98/98 99/99/99 97/97/97
f 98/98/98 100/100/100 99/99/99
f 102/102/102 103/103/103 101/101/101
f 102/102/102 104/104/104 103/103/103
f 106/106/106 107/107/107 105/105/105
f 106/106/106 108/108/108 107/107/107
f 110/110/110 111/111/111 109/109/109
f 110/110/110 112/112/112 111/111/111
f 114/114/114 115/115/115 113/113/113
f 114/114/114 116/116/116 115/115/115
f 118/118/118 119/119/119 117/117/117
f 118/118/118 120/120/120 119/119/119
f 122/122/122 123/123/123 121/121/121
f 122/122/122 124/124/124 123/123/123
f 126/126/126 127/127/127 125/125/125
f 126/126/126 128/128/128 127/127/127
f 130/130/130 131/131/131 129/129/129
f 130/130/130 132/132/132 131/131/131
f 134/134/134 135/135/135 133/133/133
f 134/134/134 136/136/136 135/135/135
f 138/138/138 139/139/139 137/137/137
f 138/138/138 140/140/140 139/139/139
f 142/142/142 143/143/143 141/141/141
f 142/142/142 144/144/144 143/143/143
f 146/146/146 147/147/147 145/145/145
f 146/146/146 148/148/148 147/147/147
f 150/150/150 151/151/151 149/149/149
f 150/150/150 152/152/152 151/151/151
f 154/154/154 155/155/155 153/153/153
f 154/154/154 156/156/156 155/155/155
f 158/158/158 159/159/159 157/157/157
f 158/158/158 160/160/160 159/159/159
f 162/162/162 163/163/163 161/161/161
f 162/162/162 164/164/164 163/163/163
f 166/166/166 167/167/167 165/165/165
f 166/166/166 168/168/168 167/167/167
