g Grass_1_Cluster302
v 234.8677 0.03042603 436.1755
v 233.548 0.03042603 436.1755
v 234.8677 0.03042603 436.8353
v 233.548 0.03042603 436.8353
v 221.6711 0.03042603 432.2165
v 221.0113 0.03042603 432.2165
v 221.6711 0.03042603 433.5361
v 221.0113 0.03042603 433.5361
v 237.507 0.03042603 432.2165
v 236.1873 0.03042603 432.2165
v 237.507 0.03042603 432.8763
v 236.1873 0.03042603 432.8763
v 236.8471 0.03042603 432.2165
v 236.1873 0.03042603 432.2165
v 236.8471 0.03042603 432.8763
v 236.1873 0.03042603 432.8763
v 218.372 0.03042603 431.5567
v 217.0524 0.03042603 431.5567
v 218.372 0.03042603 432.2165
v 217.0524 0.03042603 432.2165
v 219.6917 0.03042603 431.5567
v 219.0318 0.03042603 431.5567
v 219.6917 0.03042603 432.2165
v 219.0318 0.03042603 432.2165
v 219.0318 0.03042603 430.8969
v 218.372 0.03042603 430.8969
v 219.0318 0.03042603 431.5567
v 218.372 0.03042603 431.5567
v 211.1139 0.03042603 430.237
v 210.4541 0.03042603 430.237
v 211.1139 0.03042603 431.5567
v 210.4541 0.03042603 431.5567
v 238.1668 0.03042603 430.237
v 237.507 0.03042603 430.237
v 238.1668 0.03042603 430.8969
v 237.507 0.03042603 430.8969
v 222.9908 0.03042603 430.237
v 222.331 0.03042603 430.237
v 222.9908 0.03042603 430.8969
v 222.331 0.03042603 430.8969
v 211.7737 0.03042603 430.237
v 210.4541 0.03042603 430.237
v 211.7737 0.03042603 430.8969
v 210.4541 0.03042603 430.8969
v 217.7122 0.03042603 429.5772
v 216.3925 0.03042603 429.5772
v 217.7122 0.03042603 430.8969
v 216.3925 0.03042603 430.8969
v 214.4131 0.03042603 429.5772
v 213.7532 0.03042603 429.5772
v 214.4131 0.03042603 430.237
v 213.7532 0.03042603 430.237
v 216.3925 0.03042603 428.9174
v 215.0729 0.03042603 428.9174
v 216.3925 0.03042603 429.5772
v 215.0729 0.03042603 429.5772
v 221.6711 0.03042603 428.2576
v 221.0113 0.03042603 428.2576
v 221.6711 0.03042603 429.5772
v 221.0113 0.03042603 429.5772
v 213.7532 0.03042603 428.2576
v 212.4336 0.03042603 428.2576
v 213.7532 0.03042603 428.9174
v 212.4336 0.03042603 428.9174
v 215.0729 0.03042603 428.2576
v 214.4131 0.03042603 428.2576
v 215.0729 0.03042603 428.9174
v 214.4131 0.03042603 428.9174
v 220.3515 0.03042603 427.5977
v 219.0318 0.03042603 427.5977
v 220.3515 0.03042603 428.2576
v 219.0318 0.03042603 428.2576
v 218.372 0.03042603 413.7414
v 217.0524 0.03042603 413.7414
v 218.372 0.03042603 414.4012
v 217.0524 0.03042603 414.4012
vt 0.06738281 0.9369141
vt 0.1331457 0.9369141
vt 0.06738281 0.9990234
vt 0.1331457 0.9990234
vt 0.06738281 0.9369141
vt 0.1331457 0.9369141
vt 0.06738281 0.9990234
vt 0.1331457 0.9990234
vt 0.06738281 0.9369141
vt 0.1331457 0.9369141
vt 0.06738281 0.9990234
vt 0.1331457 0.9990234
vt 0.06738281 0.9369141
vt 0.1331457 0.9369141
vt 0.06738281 0.9990234
vt 0.1331457 0.9990234
vt 0.06738281 0.9369141
vt 0.1331457 0.9369141
vt 0.06738281 0.9990234
vt 0.1331457 0.9990234
vt 0.06738281 0.9369141
vt 0.1331457 0.9369141
vt 0.06738281 0.9990234
vt 0.1331457 0.9990234
vt 0.06738281 0.9369141
vt 0.1331457 0.9369141
vt 0.06738281 0.9990234
vt 0.1331457 0.9990234
vt 0.06738281 0.9369141
vt 0.1331457 0.9369141
vt 0.06738281 0.9990234
vt 0.1331457 0.9990234
vt 0.06738281 0.9369141
vt 0.1331457 0.9369141
vt 0.06738281 0.9990234
vt 0.1331457 0.9990234
vt 0.06738281 0.9369141
vt 0.1331457 0.9369141
vt 0.06738281 0.9990234
vt 0.1331457 0.9990234
vt 0.06738281 0.9369141
vt 0.1331457 0.9369141
vt 0.06738281 0.9990234
vt 0.1331457 0.9990234
vt 0.06738281 0.9369141
vt 0.1331457 0.9369141
vt 0.06738281 0.9990234
vt 0.1331457 0.9990234
vt 0.06738281 0.9369141
vt 0.1331457 0.9369141
vt 0.06738281 0.9990234
vt 0.1331457 0.9990234
vt 0.06738281 0.9369141
vt 0.1331457 0.9369141
vt 0.06738281 0.9990234
vt 0.1331457 0.9990234
vt 0.06738281 0.9369141
vt 0.1331457 0.9369141
vt 0.06738281 0.9990234
vt 0.1331457 0.9990234
vt 0.06738281 0.9369141
vt 0.1331457 0.9369141
vt 0.06738281 0.9990234
vt 0.1331457 0.9990234
vt 0.06738281 0.9369141
vt 0.1331457 0.9369141
vt 0.06738281 0.9990234
vt 0.1331457 0.9990234
vt 0.06738281 0.9369141
vt 0.1331457 0.9369141
vt 0.06738281 0.9990234
vt 0.1331457 0.9990234
vt 0.06738281 0.9369141
vt 0.1331457 0.9369141
vt 0.06738281 0.9990234
vt 0.1331457 0.9990234
vn 0 1 0
vn 0 1 0
vn 0 1 0
vn 0 1 0
vn 0 1 0
vn 0 1 0
vn 0 1 0
vn 0 1 0
vn 0 1 0
vn 0 1 0
vn 0 1 0
vn 0 1 0
vn 0 1 0
vn 0 1 0
vn 0 1 0
vn 0 1 0
vn 0 1 0
vn 0 1 0
vn 0 1 0
vn 0 1 0
vn 0 1 0
vn 0 1 0
vn 0 1 0
vn 0 1 0
vn 0 1 0
vn 0 1 0
vn 0 1 0
vn 0 1 0
vn 0 1 0
vn 0 1 0
vn 0 1 0
vn 0 1 0
vn 0 1 0
vn 0 1 0
vn 0 1 0
vn 0 1 0
vn 0 1 0
vn 0 1 0
vn 0 1 0
vn 0 1 0
vn 0 1 0
vn 0 1 0
vn 0 1 0
vn 0 1 0
vn 0 1 0
vn 0 1 0
vn 0 1 0
vn 0 1 0
vn 0 1 0
vn 0 1 0
vn 0 1 0
vn 0 1 0
vn 0 1 0
vn 0 1 0
vn 0 1 0
vn 0 1 0
vn 0 1 0
vn 0 1 0
vn 0 1 0
vn 0 1 0
vn 0 1 0
vn 0 1 0
vn 0 1 0
vn 0 1 0
vn 0 1 0
vn 0 1 0
vn 0 1 0
vn 0 1 0
vn 0 1 0
vn 0 1 0
vn 0 1 0
vn 0 1 0
vn 0 1 0
vn 0 1 0
vn 0 1 0
vn 0 1 0
g Grass_1_Cluster302_0
f 2/2/2 3/3/3 1/1/1
f 2/2/2 4/4/4 3/3/3
f 6/6/6 7/7/7 5/5/5
f 6/6/6 8/8/8 7/7/7
f 10/10/10 11/11/11 9/9/9
f 10/10/10 12/12/12 11/11/11
f 14/14/14 15/15/15 13/13/13
f 14/14/14 16/16/16 15/15/15
f 18/18/18 19/19/19 17/17/17
f 18/18/18 20/20/20 19/19/19
f 22/22/22 23/23/23 21/21/21
f 22/22/22 24/24/24 23/23/23
f 26/26/26 27/27/27 25/25/25
f 26/26/26 28/28/28 27/27/27
f 30/30/30 31/31/31 29/29/29
f 30/30/30 32/32/32 31/31/31
f 34/34/34 35/35/35 33/33/33
f 34/34/34 36/36/36 35/35/35
f 38/38/38 39/39/39 37/37/37
f 38/38/38 40/40/40 39/39/39
f 42/42/42 43/43/43 41/41/41
f 42/42/42 44/44/44 43/43/43
f 46/46/46 47/47/47 45/45/45
f 46/46/46 48/48/48 47/47/47
f 50/50/50 51/51/51 49/49/49
f 50/50/50 52/52/52 51/51/51
f 54/54/54 55/55/55 53/53/53
f 54/54/54 56/56/56 55/55/55
f 58/58/58 59/59/59 57/57/57
f 58/58/58 60/60/60 59/59/59
f 62/62/62 63/63/63 61/61/61
f 62/62/62 64/64/64 63/63/63
f 66/66/66 67/67/67 65/65/65
f 66/66/66 68/68/68 67/67/67
f 70/70/70 71/71/71 69/69/69
f 70/70/70 72/72/72 71/71/71
f 74/74/74 75/75/75 73/73/73
f 74/74/74 76/76/76 75/75/75
