g Grass_0_Cluster179
v -277.0727 0 232.4593
v -277.9532 0 232.4593
v -277.0727 0 233.6333
v -277.9532 0 233.6333
v -270.322 0 230.6982
v -271.2025 0 230.6982
v -270.322 0 231.8723
v -271.2025 0 231.8723
v -298.4988 0 229.5242
v -299.3794 0 229.5242
v -298.4988 0 230.6982
v -299.3794 0 230.6982
v -270.6155 0 229.2307
v -271.496 0 229.2307
v -270.6155 0 230.4047
v -271.496 0 230.4047
v -299.3794 0 228.6436
v -300.2599 0 228.6436
v -299.3794 0 230.1112
v -300.2599 0 230.1112
v -280.3013 0 228.0566
v -281.1818 0 228.0566
v -280.3013 0 229.2307
v -281.1818 0 229.2307
v -298.4988 0 226.8826
v -299.3794 0 226.8826
v -298.4988 0 228.0566
v -299.3794 0 228.0566
v -282.6494 0 226.5891
v -283.5299 0 226.5891
v -282.6494 0 228.0566
v -283.5299 0 228.0566
v -296.7378 0 226.2956
v -297.6183 0 226.2956
v -296.7378 0 227.4696
v -297.6183 0 227.4696
v -299.3794 0 226.0021
v -300.2599 0 226.0021
v -299.3794 0 227.4696
v -300.2599 0 227.4696
v -297.6183 0 226.0021
v -298.4988 0 226.0021
v -297.6183 0 227.1761
v -298.4988 0 227.1761
v -284.9974 0 225.7086
v -285.8779 0 225.7086
v -284.9974 0 226.8826
v -285.8779 0 226.8826
v -280.8883 0 225.7086
v -281.4753 0 225.7086
v -280.8883 0 226.8826
v -281.4753 0 226.8826
v -296.1508 0 225.4151
v -297.0313 0 225.4151
v -296.1508 0 226.8826
v -297.0313 0 226.8826
v -294.9767 0 225.4151
v -295.8572 0 225.4151
v -294.9767 0 226.5891
v -295.8572 0 226.5891
v -297.0313 0 225.1215
v -297.9118 0 225.1215
v -297.0313 0 226.2956
v -297.9118 0 226.2956
v -299.0858 0 224.828
v -299.9664 0 224.828
v -299.0858 0 226.0021
v -299.9664 0 226.0021
v -297.3248 0 224.241
v -298.2053 0 224.241
v -297.3248 0 225.7086
v -298.2053 0 225.7086
v -281.1818 0 224.241
v -282.3558 0 224.241
v -281.1818 0 225.7086
v -282.3558 0 225.7086
v -296.4443 0 224.241
v -297.3248 0 224.241
v -296.4443 0 225.4151
v -297.3248 0 225.4151
v -280.5948 0 223.9475
v -281.4753 0 223.9475
v -280.5948 0 225.4151
v -281.4753 0 225.4151
v -283.2364 0 223.9475
v -284.1169 0 223.9475
v -283.2364 0 225.1215
v -284.1169 0 225.1215
v -284.7039 0 223.654
v -285.5844 0 223.654
v -284.7039 0 225.1215
v -285.5844 0 225.1215
v -298.2053 0 223.654
v -299.0858 0 223.654
v -298.2053 0 224.828
v -299.0858 0 224.828
v -281.4753 0 223.654
v -282.3558 0 223.654
v -281.4753 0 224.828
v -282.3558 0 224.828
v -287.9325 0 223.654
v -288.813 0 223.654
v -287.9325 0 224.828
v -288.813 0 224.828
v -270.322 0 223.3605
v -271.2025 0 223.3605
v -270.322 0 224.5345
v -271.2025 0 224.5345
v -282.0623 0 223.3605
v -282.9428 0 223.3605
v -282.0623 0 224.5345
v -282.9428 0 224.5345
v -298.7924 0 222.48
v -299.6729 0 222.48
v -298.7924 0 223.654
v -299.6729 0 223.654
v -297.9118 0 222.48
v -298.7924 0 222.48
v -297.9118 0 223.654
v -298.7924 0 223.654
v -283.8234 0 221.8929
v -284.7039 0 221.8929
v -283.8234 0 223.067
v -284.7039 0 223.067
v -297.3248 0 221.5994
v -298.2053 0 221.5994
v -297.3248 0 222.7735
v -298.2053 0 222.7735
v -279.4207 0 221.3059
v -280.3013 0 221.3059
v -279.4207 0 222.1864
v -280.3013 0 222.1864
v -297.6183 0 217.1968
v -298.4988 0 217.1968
v -297.6183 0 218.3708
v -298.4988 0 218.3708
v -277.0727 0 213.6747
v -277.9532 0 213.6747
v -277.0727 0 215.1422
v -277.9532 0 215.1422
v -296.4443 0 209.8591
v -297.3248 0 209.8591
v -296.4443 0 211.0331
v -297.3248 0 211.0331
v -298.4988 0 203.4019
v -299.3794 0 203.4019
v -298.4988 0 204.5759
v -299.3794 0 204.5759
vt 0 0.9058824
vt 0.06666667 0.9058824
vt 0 1
vt 0.06666667 1
vt 0 0.9058824
vt 0.06666667 0.9058824
vt 0 1
vt 0.06666667 1
vt 0 0.9058824
vt 0.06666667 0.9058824
vt 0 1
vt 0.06666667 1
vt 0 0.9058824
vt 0.06666667 0.9058824
vt 0 1
vt 0.06666667 1
vt 0 0.9058824
vt 0.06666667 0.9058824
vt 0 1
vt 0.06666667 1
vt 0 0.9058824
vt 0.06666667 0.9058824
vt 0 1
vt 0.06666667 1
vt 0 0.9058824
vt 0.06666667 0.9058824
vt 0 1
vt 0.06666667 1
vt 0 0.9058824
vt 0.06666667 0.9058824
vt 0 1
vt 0.06666667 1
vt 0 0.9058824
vt 0.06666667 0.9058824
vt 0 1
vt 0.06666667 1
vt 0 0.9058824
vt 0.06666667 0.9058824
vt 0 1
vt 0.06666667 1
vt 0 0.9058824
vt 0.06666667 0.9058824
vt 0 1
vt 0.06666667 1
vt 0 0.9058824
vt 0.06666667 0.9058824
vt 0 1
vt 0.06666667 1
vt 0 0.9058824
vt 0.06666667 0.9058824
vt 0 1
vt 0.06666667 1
vt 0 0.9058824
vt 0.06666667 0.9058824
vt 0 1
vt 0.06666667 1
vt 0 0.9058824
vt 0.06666667 0.9058824
vt 0 1
vt 0.06666667 1
vt 0 0.9058824
vt 0.06666667 0.9058824
vt 0 1
vt 0.06666667 1
vt 0 0.9058824
vt 0.06666667 0.9058824
vt 0 1
vt 0.06666667 1
vt 0 0.9058824
vt 0.06666667 0.9058824
vt 0 1
vt 0.06666667 1
vt 0 0.9058824
vt 0.06666667 0.9058824
vt 0 1
vt 0.06666667 1
vt 0 0.9058824
vt 0.06666667 0.9058824
vt 0 1
vt 0.06666667 1
vt 0 0.9058824
vt 0.06666667 0.9058824
vt 0 1
vt 0.06666667 1
vt 0 0.9058824
vt 0.06666667 0.9058824
vt 0 1
vt 0.06666667 1
vt 0 0.9058824
vt 0.06666667 0.9058824
vt 0 1
vt 0.06666667 1
vt 0 0.9058824
vt 0.06666667 0.9058824
vt 0 1
vt 0.06666667 1
vt 0 0.9058824
vt 0.06666667 0.9058824
vt 0 1
vt 0.06666667 1
vt 0 0.9058824
vt 0.06666667 0.9058824
vt 0 1
vt 0.06666667 1
vt 0 0.9058824
vt 0.06666667 0.9058824
vt 0 1
vt 0.06666667 1
vt 0 0.9058824
vt 0.06666667 0.9058824
vt 0 1
vt 0.06666667 1
vt 0 0.9058824
vt 0.06666667 0.9058824
vt 0 1
vt 0.06666667 1
vt 0 0.9058824
vt 0.06666667 0.9058824
vt 0 1
vt 0.06666667 1
vt 0 0.9058824
vt 0.06666667 0.9058824
vt 0 1
vt 0.06666667 1
vt 0 0.9058824
vt 0.06666667 0.9058824
vt 0 1
vt 0.06666667 1
vt 0 0.9058824
vt 0.06666667 0.9058824
vt 0 1
vt 0.06666667 1
vt 0 0.9058824
vt 0.06666667 0.9058824
vt 0 1
vt 0.06666667 1
vt 0 0.9058824
vt 0.06666667 0.9058824
vt 0 1
vt 0.06666667 1
vt 0 0.9058824
vt 0.06666667 0.9058824
vt 0 1
vt 0.06666667 1
vt 0 0.9058824
vt 0.06666667 0.9058824
vt 0 1
vt 0.06666667 1
vn 0 1 0
vn 0 1 0
vn 0 1 0
vn 0 1 0
vn 0 1 0
vn 0 1 0
vn 0 1 0
vn 0 1 0
vn 0 1 0
vn 0 1 0
vn 0 1 0
vn 0 1 0
vn 0 1 0
vn 0 1 0
vn 0 1 0
vn 0 1 0
vn 0 1 0
vn 0 1 0
vn 0 1 0
vn 0 1 0
vn 0 1 0
vn 0 1 0
vn 0 1 0
vn 0 1 0
vn 0 1 0
vn 0 1 0
vn 0 1 0
vn 0 1 0
vn 0 1 0
vn 0 1 0
vn 0 1 0
vn 0 1 0
vn 0 1 0
vn 0 1 0
vn 0 1 0
vn 0 1 0
vn 0 1 0
vn 0 1 0
vn 0 1 0
vn 0 1 0
vn 0 1 0
vn 0 1 0
vn 0 1 0
vn 0 1 0
vn 0 1 0
vn 0 1 0
vn 0 1 0
vn 0 1 0
vn 0 1 0
vn 0 1 0
vn 0 1 0
vn 0 1 0
vn 0 1 0
vn 0 1 0
vn 0 1 0
vn 0 1 0
vn 0 1 0
vn 0 1 0
vn 0 1 0
vn 0 1 0
vn 0 1 0
vn 0 1 0
vn 0 1 0
vn 0 1 0
vn 0 1 0
vn 0 1 0
vn 0 1 0
vn 0 1 0
vn 0 1 0
vn 0 1 0
vn 0 1 0
vn 0 1 0
vn 0 1 0
vn 0 1 0
vn 0 1 0
vn 0 1 0
vn 0 1 0
vn 0 1 0
vn 0 1 0
vn 0 1 0
vn 0 1 0
vn 0 1 0
vn 0 1 0
vn 0 1 0
vn 0 1 0
vn 0 1 0
vn 0 1 0
vn 0 1 0
vn 0 1 0
vn 0 1 0
vn 0 1 0
vn 0 1 0
vn 0 1 0
vn 0 1 0
vn 0 1 0
vn 0 1 0
vn 0 1 0
vn 0 1 0
vn 0 1 0
vn 0 1 0
vn 0 1 0
vn 0 1 0
vn 0 1 0
vn 0 1 0
vn 0 1 0
vn 0 1 0
vn 0 1 0
vn 0 1 0
vn 0 1 0
vn 0 1 0
vn 0 1 0
vn 0 1 0
vn 0 1 0
vn 0 1 0
vn 0 1 0
vn 0 1 0
vn 0 1 0
vn 0 1 0
vn 0 1 0
vn 0 1 0
vn 0 1 0
vn 0 1 0
vn 0 1 0
vn 0 1 0
vn 0 1 0
vn 0 1 0
vn 0 1 0
vn 0 1 0
vn 0 1 0
vn 0 1 0
vn 0 1 0
vn 0 1 0
vn 0 1 0
vn 0 1 0
vn 0 1 0
vn 0 1 0
vn 0 1 0
vn 0 1 0
vn 0 1 0
vn 0 1 0
vn 0 1 0
vn 0 1 0
vn 0 1 0
vn 0 1 0
vn 0 1 0
vn 0 1 0
vn 0 1 0
vn 0 1 0
g Grass_0_Cluster179_0
f 2/2/2 3/3/3 1/1/1
f 2/2/2 4/4/4 3/3/3
f 6/6/6 7/7/7 5/5/5
f 6/6/6 8/8/8 7/7/7
f 10/10/10 11/11/11 9/9/9
f 10/10/10 12/12/12 11/11/11
f 14/14/14 15/15/15 13/13/13
f 14/14/14 16/16/16 15/15/15
f 18/18/18 19/19/19 17/17/17
f 18/18/18 20/20/20 19/19/19
f 22/22/22 23/23/23 21/21/21
f 22/22/22 24/24/24 23/23/23
f 26/26/26 27/27/27 25/25/25
f 26/26/26 28/28/28 27/27/27
f 30/30/30 31/31/31 29/29/29
f 30/30/30 32/32/32 31/31/31
f 34/34/34 35/35/35 33/33/33
f 34/34/34 36/36/36 35/35/35
f 38/38/38 39/39/39 37/37/37
f 38/38/38 40/40/40 39/39/39
f 42/42/42 43/43/43 41/41/41
f 42/42/42 44/44/44 43/43/43
f 46/46/46 47/47/47 45/45/45
f 46/46/46 48/48/48 47/47/47
f 50/50/50 51/51/51 49/49/49
f 50/50/50 52/52/52 51/51/51
f 54/54/54 55/55/55 53/53/53
f 54/54/54 56/56/56 55/55/55
f 58/58/58 59/59/59 57/57/57
f 58/58/58 60/60/60 59/59/59
f 62/62/62 63/63/63 61/61/61
f 62/62/62 64/64/64 63/63/63
f 66/66/66 67/67/67 65/65/65
f 66/66/66 68/68/68 67/67/67
f 70/70/70 71/71/71 69/69/69
f 70/70/70 72/72/72 71/71/71
f 74/74/74 75/75/75 73/73/73
f 74/74/74 76/76/76 75/75/75
f 78/78/78 79/79/79 77/77/77
f 78/78/78 80/80/80 79/79/79
f 82/82/82 83/83/83 81/81/81
f 82/82/82 84/84/84 83/83/83
f 86/86/86 87/87/87 85/85/85
f 86/86/86 88/88/88 87/87/87
f 90/90/90 91/91/91 89/89/89
f 90/90/90 92/92/92 91/91/91
f 94/94/94 95/95/95 93/93/93
f 94/94/94 96/96/96 95/95/95
f 98/98/98 99/99/99 97/97/97
f 98/98/98 100/100/100 99/99/99
f 102/102/102 103/103/103 101/101/101
f 102/102/102 104/104/104 103/103/103
f 106/106/106 107/107/107 105/105/105
f 106/106/106 108/108/108 107/107/107
f 110/110/110 111/111/111 109/109/109
f 110/110/110 112/112/112 111/111/111
f 114/114/114 115/115/115 113/113/113
f 114/114/114 116/116/116 115/115/115
f 118/118/118 119/119/119 117/117/117
f 118/118/118 120/120/120 119/119/119
f 122/122/122 123/123/123 121/121/121
f 122/122/122 124/124/124 123/123/123
f 126/126/126 127/127/127 125/125/125
f 126/126/126 128/128/128 127/127/127
f 130/130/130 131/131/131 129/129/129
f 130/130/130 132/132/132 131/131/131
f 134/134/134 135/135/135 133/133/133
f 134/134/134 136/136/136 135/135/135
f 138/138/138 139/139/139 137/137/137
f 138/138/138 140/140/140 139/139/139
f 142/142/142 143/143/143 141/141/141
f 142/142/142 144/144/144 143/143/143
f 146/146/146 147/147/147 145/145/145
f 146/146/146 148/148/148 147/147/147
