g Grass_0_Cluster108
v 56.96572 0.04680634 142.9768
v 55.969 0.04680634 142.9768
v 56.96572 0.04680634 144.1729
v 55.969 0.04680634 144.1729
v 43.21095 0.04680634 137.9932
v 42.41357 0.04680634 137.9932
v 43.21095 0.04680634 139.1893
v 42.41357 0.04680634 139.1893
v 42.41357 0.04680634 136.1991
v 41.6162 0.04680634 136.1991
v 42.41357 0.04680634 137.3952
v 41.6162 0.04680634 137.3952
v 30.4529 0.04680634 136.1991
v 29.45618 0.04680634 136.1991
v 30.4529 0.04680634 137.5945
v 29.45618 0.04680634 137.5945
v 47.19784 0.04680634 135.4017
v 46.40046 0.04680634 135.4017
v 47.19784 0.04680634 136.5978
v 46.40046 0.04680634 136.5978
v 35.03783 0.04680634 135.2024
v 34.04111 0.04680634 135.2024
v 35.03783 0.04680634 136.3984
v 34.04111 0.04680634 136.3984
v 33.44307 0.04680634 134.8037
v 32.64569 0.04680634 134.8037
v 33.44307 0.04680634 135.8004
v 32.64569 0.04680634 135.8004
v 34.04111 0.04680634 132.2122
v 33.24373 0.04680634 132.2122
v 34.04111 0.04680634 133.4083
v 33.24373 0.04680634 133.4083
v 51.98211 0.04680634 131.2155
v 51.18473 0.04680634 131.2155
v 51.98211 0.04680634 132.6109
v 51.18473 0.04680634 132.6109
v 50.78604 0.04680634 130.8168
v 49.98867 0.04680634 130.8168
v 50.78604 0.04680634 132.0129
v 49.98867 0.04680634 132.0129
v 30.85159 0.04680634 130.6174
v 30.05421 0.04680634 130.6174
v 30.85159 0.04680634 131.8135
v 30.05421 0.04680634 131.8135
v 50.98539 0.04680634 129.8201
v 49.98867 0.04680634 129.8201
v 50.98539 0.04680634 131.0161
v 49.98867 0.04680634 131.0161
v 52.97883 0.04680634 129.222
v 52.18145 0.04680634 129.222
v 52.97883 0.04680634 130.6174
v 52.18145 0.04680634 130.6174
v 51.58342 0.04680634 129.0227
v 50.78604 0.04680634 129.0227
v 51.58342 0.04680634 130.2188
v 50.78604 0.04680634 130.2188
v 54.1749 0.04680634 128.8233
v 53.37752 0.04680634 128.8233
v 54.1749 0.04680634 130.0194
v 53.37752 0.04680634 130.0194
v 56.56704 0.04680634 126.8299
v 55.57031 0.04680634 126.8299
v 56.56704 0.04680634 128.026
v 55.57031 0.04680634 128.026
v 33.24373 0.04680634 126.8299
v 32.24701 0.04680634 126.8299
v 33.24373 0.04680634 128.026
v 32.24701 0.04680634 128.026
v 48.39391 0.04680634 126.6306
v 47.39719 0.04680634 126.6306
v 48.39391 0.04680634 127.8266
v 47.39719 0.04680634 127.8266
v 44.40702 0.04680634 120.0522
v 43.60964 0.04680634 120.0522
v 44.40702 0.04680634 121.2483
v 43.60964 0.04680634 121.2483
v 43.01161 0.04680634 119.8528
v 42.21423 0.04680634 119.8528
v 43.01161 0.04680634 121.0489
v 42.21423 0.04680634 121.0489
v 40.81882 0.04680634 119.6535
v 39.8221 0.04680634 119.6535
v 40.81882 0.04680634 120.8496
v 39.8221 0.04680634 120.8496
v 41.21751 0.04680634 118.8561
v 40.22079 0.04680634 118.8561
v 41.21751 0.04680634 120.0522
v 40.22079 0.04680634 120.0522
v 59.15851 0.04680634 118.8561
v 58.16179 0.04680634 118.8561
v 59.15851 0.04680634 120.2515
v 58.16179 0.04680634 120.2515
v 42.41357 0.04680634 118.4574
v 41.6162 0.04680634 118.4574
v 42.41357 0.04680634 119.8528
v 41.6162 0.04680634 119.8528
v 41.01817 0.04680634 117.6601
v 40.22079 0.04680634 117.6601
v 41.01817 0.04680634 118.8561
v 40.22079 0.04680634 118.8561
v 39.02472 0.04680634 117.062
v 38.028 0.04680634 117.062
v 39.02472 0.04680634 118.2581
v 38.028 0.04680634 118.2581
v 40.02144 0.04680634 117.2614
v 39.22406 0.04680634 117.2614
v 40.02144 0.04680634 118.4574
v 39.22406 0.04680634 118.4574
v 42.81226 0.04680634 117.062
v 42.01488 0.04680634 117.062
v 42.81226 0.04680634 118.2581
v 42.01488 0.04680634 118.2581
v 42.01488 0.04680634 116.464
v 41.01817 0.04680634 116.464
v 42.01488 0.04680634 117.8594
v 41.01817 0.04680634 117.8594
v 39.22406 0.04680634 116.464
v 38.22734 0.04680634 116.464
v 39.22406 0.04680634 117.8594
v 38.22734 0.04680634 117.8594
v 41.41685 0.04680634 115.866
v 40.61948 0.04680634 115.866
v 41.41685 0.04680634 117.062
v 40.61948 0.04680634 117.062
v 42.81226 0.04680634 115.6666
v 42.01488 0.04680634 115.6666
v 42.81226 0.04680634 116.8627
v 42.01488 0.04680634 116.8627
v 40.42013 0.04680634 115.2679
v 39.62275 0.04680634 115.2679
v 40.42013 0.04680634 116.464
v 39.62275 0.04680634 116.464
v 59.75655 0.04680634 115.2679
v 58.95917 0.04680634 115.2679
v 59.75655 0.04680634 116.464
v 58.95917 0.04680634 116.464
v 43.21095 0.04680634 115.0686
v 42.41357 0.04680634 115.0686
v 43.21095 0.04680634 116.2646
v 42.41357 0.04680634 116.2646
v 39.62275 0.04680634 114.8692
v 38.62603 0.04680634 114.8692
v 39.62275 0.04680634 116.0653
v 38.62603 0.04680634 116.0653
v 44.20768 0.04680634 114.8692
v 43.21095 0.04680634 114.8692
v 44.20768 0.04680634 116.0653
v 43.21095 0.04680634 116.0653
v 59.5572 0.04680634 114.6699
v 58.56048 0.04680634 114.6699
v 59.5572 0.04680634 115.866
v 58.56048 0.04680634 115.866
v 42.21423 0.04680634 114.6699
v 41.41685 0.04680634 114.6699
v 42.21423 0.04680634 115.6666
v 41.41685 0.04680634 115.6666
v 40.42013 0.04680634 114.2712
v 39.42341 0.04680634 114.2712
v 40.42013 0.04680634 115.4673
v 39.42341 0.04680634 115.4673
v 46.79915 0.04680634 113.4738
v 46.00178 0.04680634 113.4738
v 46.79915 0.04680634 114.8692
v 46.00178 0.04680634 114.8692
v 39.8221 0.04680634 113.0751
v 38.82537 0.04680634 113.0751
v 39.8221 0.04680634 114.4706
v 38.82537 0.04680634 114.4706
vt 0 0.9058824
vt 0.06666667 0.9058824
vt 0 1
vt 0.06666667 1
vt 0 0.9058824
vt 0.06666667 0.9058824
vt 0 1
vt 0.06666667 1
vt 0 0.9058824
vt 0.06666667 0.9058824
vt 0 1
vt 0.06666667 1
vt 0 0.9058824
vt 0.06666667 0.9058824
vt 0 1
vt 0.06666667 1
vt 0 0.9058824
vt 0.06666667 0.9058824
vt 0 1
vt 0.06666667 1
vt 0 0.9058824
vt 0.06666667 0.9058824
vt 0 1
vt 0.06666667 1
vt 0 0.9058824
vt 0.06666667 0.9058824
vt 0 1
vt 0.06666667 1
vt 0 0.9058824
vt 0.06666667 0.9058824
vt 0 1
vt 0.06666667 1
vt 0 0.9058824
vt 0.06666667 0.9058824
vt 0 1
vt 0.06666667 1
vt 0 0.9058824
vt 0.06666667 0.9058824
vt 0 1
vt 0.06666667 1
vt 0 0.9058824
vt 0.06666667 0.9058824
vt 0 1
vt 0.06666667 1
vt 0 0.9058824
vt 0.06666667 0.9058824
vt 0 1
vt 0.06666667 1
vt 0 0.9058824
vt 0.06666667 0.9058824
vt 0 1
vt 0.06666667 1
vt 0 0.9058824
vt 0.06666667 0.9058824
vt 0 1
vt 0.06666667 1
vt 0 0.9058824
vt 0.06666667 0.9058824
vt 0 1
vt 0.06666667 1
vt 0 0.9058824
vt 0.06666667 0.9058824
vt 0 1
vt 0.06666667 1
vt 0 0.9058824
vt 0.06666667 0.9058824
vt 0 1
vt 0.06666667 1
vt 0 0.9058824
vt 0.06666667 0.9058824
vt 0 1
vt 0.06666667 1
vt 0 0.9058824
vt 0.06666667 0.9058824
vt 0 1
vt 0.06666667 1
vt 0 0.9058824
vt 0.06666667 0.9058824
vt 0 1
vt 0.06666667 1
vt 0 0.9058824
vt 0.06666667 0.9058824
vt 0 1
vt 0.06666667 1
vt 0 0.9058824
vt 0.06666667 0.9058824
vt 0 1
vt 0.06666667 1
vt 0 0.9058824
vt 0.06666667 0.9058824
vt 0 1
vt 0.06666667 1
vt 0 0.9058824
vt 0.06666667 0.9058824
vt 0 1
vt 0.06666667 1
vt 0 0.9058824
vt 0.06666667 0.9058824
vt 0 1
vt 0.06666667 1
vt 0 0.9058824
vt 0.06666667 0.9058824
vt 0 1
vt 0.06666667 1
vt 0 0.9058824
vt 0.06666667 0.9058824
vt 0 1
vt 0.06666667 1
vt 0 0.9058824
vt 0.06666667 0.9058824
vt 0 1
vt 0.06666667 1
vt 0 0.9058824
vt 0.06666667 0.9058824
vt 0 1
vt 0.06666667 1
vt 0 0.9058824
vt 0.06666667 0.9058824
vt 0 1
vt 0.06666667 1
vt 0 0.9058824
vt 0.06666667 0.9058824
vt 0 1
vt 0.06666667 1
vt 0 0.9058824
vt 0.06666667 0.9058824
vt 0 1
vt 0.06666667 1
vt 0 0.9058824
vt 0.06666667 0.9058824
vt 0 1
vt 0.06666667 1
vt 0 0.9058824
vt 0.06666667 0.9058824
vt 0 1
vt 0.06666667 1
vt 0 0.9058824
vt 0.06666667 0.9058824
vt 0 1
vt 0.06666667 1
vt 0 0.9058824
vt 0.06666667 0.9058824
vt 0 1
vt 0.06666667 1
vt 0 0.9058824
vt 0.06666667 0.9058824
vt 0 1
vt 0.06666667 1
vt 0 0.9058824
vt 0.06666667 0.9058824
vt 0 1
vt 0.06666667 1
vt 0 0.9058824
vt 0.06666667 0.9058824
vt 0 1
vt 0.06666667 1
vt 0 0.9058824
vt 0.06666667 0.9058824
vt 0 1
vt 0.06666667 1
vt 0 0.9058824
vt 0.06666667 0.9058824
vt 0 1
vt 0.06666667 1
vt 0 0.9058824
vt 0.06666667 0.9058824
vt 0 1
vt 0.06666667 1
vn 0 1 0
vn 0 1 0
vn 0 1 0
vn 0 1 0
vn 0 1 0
vn 0 1 0
vn 0 1 0
vn 0 1 0
vn 0 1 0
vn 0 1 0
vn 0 1 0
vn 0 1 0
vn 0 1 0
vn 0 1 0
vn 0 1 0
vn 0 1 0
vn 0 1 0
vn 0 1 0
vn 0 1 0
vn 0 1 0
vn 0 1 0
vn 0 1 0
vn 0 1 0
vn 0 1 0
vn 0 1 0
vn 0 1 0
vn 0 1 0
vn 0 1 0
vn 0 1 0
vn 0 1 0
vn 0 1 0
vn 0 1 0
vn 0 1 0
vn 0 1 0
vn 0 1 0
vn 0 1 0
vn 0 1 0
vn 0 1 0
vn 0 1 0
vn 0 1 0
vn 0 1 0
vn 0 1 0
vn 0 1 0
vn 0 1 0
vn 0 1 0
vn 0 1 0
vn 0 1 0
vn 0 1 0
vn 0 1 0
vn 0 1 0
vn 0 1 0
vn 0 1 0
vn 0 1 0
vn 0 1 0
vn 0 1 0
vn 0 1 0
vn 0 1 0
vn 0 1 0
vn 0 1 0
vn 0 1 0
vn 0 1 0
vn 0 1 0
vn 0 1 0
vn 0 1 0
vn 0 1 0
vn 0 1 0
vn 0 1 0
vn 0 1 0
vn 0 1 0
vn 0 1 0
vn 0 1 0
vn 0 1 0
vn 0 1 0
vn 0 1 0
vn 0 1 0
vn 0 1 0
vn 0 1 0
vn 0 1 0
vn 0 1 0
vn 0 1 0
vn 0 1 0
vn 0 1 0
vn 0 1 0
vn 0 1 0
vn 0 1 0
vn 0 1 0
vn 0 1 0
vn 0 1 0
vn 0 1 0
vn 0 1 0
vn 0 1 0
vn 0 1 0
vn 0 1 0
vn 0 1 0
vn 0 1 0
vn 0 1 0
vn 0 1 0
vn 0 1 0
vn 0 1 0
vn 0 1 0
vn 0 1 0
vn 0 1 0
vn 0 1 0
vn 0 1 0
vn 0 1 0
vn 0 1 0
vn 0 1 0
vn 0 1 0
vn 0 1 0
vn 0 1 0
vn 0 1 0
vn 0 1 0
vn 0 1 0
vn 0 1 0
vn 0 1 0
vn 0 1 0
vn 0 1 0
vn 0 1 0
vn 0 1 0
vn 0 1 0
vn 0 1 0
vn 0 1 0
vn 0 1 0
vn 0 1 0
vn 0 1 0
vn 0 1 0
vn 0 1 0
vn 0 1 0
vn 0 1 0
vn 0 1 0
vn 0 1 0
vn 0 1 0
vn 0 1 0
vn 0 1 0
vn 0 1 0
vn 0 1 0
vn 0 1 0
vn 0 1 0
vn 0 1 0
vn 0 1 0
vn 0 1 0
vn 0 1 0
vn 0 1 0
vn 0 1 0
vn 0 1 0
vn 0 1 0
vn 0 1 0
vn 0 1 0
vn 0 1 0
vn 0 1 0
vn 0 1 0
vn 0 1 0
vn 0 1 0
vn 0 1 0
vn 0 1 0
vn 0 1 0
vn 0 1 0
vn 0 1 0
vn 0 1 0
vn 0 1 0
vn 0 1 0
vn 0 1 0
vn 0 1 0
vn 0 1 0
vn 0 1 0
vn 0 1 0
vn 0 1 0
vn 0 1 0
g Grass_0_Cluster108_0
f 2/2/2 3/3/3 1/1/1
f 2/2/2 4/4/4 3/3/3
f 6/6/6 7/7/7 5/5/5
f 6/6/6 8/8/8 7/7/7
f 10/10/10 11/11/11 9/9/9
f 10/10/10 12/12/12 11/11/11
f 14/14/14 15/15/15 13/13/13
f 14/14/14 16/16/16 15/15/15
f 18/18/18 19/19/19 17/17/17
f 18/18/18 20/20/20 19/19/19
f 22/22/22 23/23/23 21/21/21
f 22/22/22 24/24/24 23/23/23
f 26/26/26 27/27/27 25/25/25
f 26/26/26 28/28/28 27/27/27
f 30/30/30 31/31/31 29/29/29
f 30/30/30 32/32/32 31/31/31
f 34/34/34 35/35/35 33/33/33
f 34/34/34 36/36/36 35/35/35
f 38/38/38 39/39/39 37/37/37
f 38/38/38 40/40/40 39/39/39
f 42/42/42 43/43/43 41/41/41
f 42/42/42 44/44/44 43/43/43
f 46/46/46 47/47/47 45/45/45
f 46/46/46 48/48/48 47/47/47
f 50/50/50 51/51/51 49/49/49
f 50/50/50 52/52/52 51/51/51
f 54/54/54 55/55/55 53/53/53
f 54/54/54 56/56/56 55/55/55
f 58/58/58 59/59/59 57/57/57
f 58/58/58 60/60/60 59/59/59
f 62/62/62 63/63/63 61/61/61
f 62/62/62 64/64/64 63/63/63
f 66/66/66 67/67/67 65/65/65
f 66/66/66 68/68/68 67/67/67
f 70/70/70 71/71/71 69/69/69
f 70/70/70 72/72/72 71/71/71
f 74/74/74 75/75/75 73/73/73
f 74/74/74 76/76/76 75/75/75
f 78/78/78 79/79/79 77/77/77
f 78/78/78 80/80/80 79/79/79
f 82/82/82 83/83/83 81/81/81
f 82/82/82 84/84/84 83/83/83
f 86/86/86 87/87/87 85/85/85
f 86/86/86 88/88/88 87/87/87
f 90/90/90 91/91/91 89/89/89
f 90/90/90 92/92/92 91/91/91
f 94/94/94 95/95/95 93/93/93
f 94/94/94 96/96/96 95/95/95
f 98/98/98 99/99/99 97/97/97
f 98/98/98 100/100/100 99/99/99
f 102/102/102 103/103/103 101/101/101
f 102/102/102 104/104/104 103/103/103
f 106/106/106 107/107/107 105/105/105
f 106/106/106 108/108/108 107/107/107
f 110/110/110 111/111/111 109/109/109
f 110/110/110 112/112/112 111/111/111
f 114/114/114 115/115/115 113/113/113
f 114/114/114 116/116/116 115/115/115
f 118/118/118 119/119/119 117/117/117
f 118/118/118 120/120/120 119/119/119
f 122/122/122 123/123/123 121/121/121
f 122/122/122 124/124/124 123/123/123
f 126/126/126 127/127/127 125/125/125
f 126/126/126 128/128/128 127/127/127
f 130/130/130 131/131/131 129/129/129
f 130/130/130 132/132/132 131/131/131
f 134/134/134 135/135/135 133/133/133
f 134/134/134 136/136/136 135/135/135
f 138/138/138 139/139/139 137/137/137
f 138/138/138 140/140/140 139/139/139
f 142/142/142 143/143/143 141/141/141
f 142/142/142 144/144/144 143/143/143
f 146/146/146 147/147/147 145/145/145
f 146/146/146 148/148/148 147/147/147
f 150/150/150 151/151/151 149/149/149
f 150/150/150 152/152/152 151/151/151
f 154/154/154 155/155/155 153/153/153
f 154/154/154 156/156/156 155/155/155
f 158/158/158 159/159/159 157/157/157
f 158/158/158 160/160/160 159/159/159
f 162/162/162 163/163/163 161/161/161
f 162/162/162 164/164/164 163/163/163
f 166/166/166 167/167/167 165/165/165
f 166/166/166 168/168/168 167/167/167
