g Grass_0_Cluster94
v -147.6827 0 113.003
v -148.4175 0 113.003
v -147.6827 0 114.1786
v -148.4175 0 114.1786
v -141.9518 0 111.3866
v -142.8335 0 111.3866
v -141.9518 0 112.5622
v -142.8335 0 112.5622
v -139.1598 0 110.5049
v -140.0414 0 110.5049
v -139.1598 0 111.8274
v -140.0414 0 111.8274
v -140.9231 0 110.0641
v -141.8048 0 110.0641
v -140.9231 0 111.3866
v -141.8048 0 111.3866
v -137.6903 0 102.4228
v -138.572 0 102.4228
v -137.6903 0 103.5983
v -138.572 0 103.5983
v -137.2494 0 101.688
v -138.1311 0 101.688
v -137.2494 0 102.8636
v -138.1311 0 102.8636
v -136.6617 0 98.74906
v -137.5433 0 98.74906
v -136.6617 0 100.0716
v -137.5433 0 100.0716
v -149.4461 0 97.86737
v -150.3278 0 97.86737
v -149.4461 0 99.04295
v -150.3278 0 99.04295
v -145.3316 0 97.72042
v -146.2133 0 97.72042
v -145.3316 0 98.89601
v -146.2133 0 98.89601
v -138.1311 0 97.42653
v -139.0128 0 97.42653
v -138.1311 0 98.74906
v -139.0128 0 98.74906
v -138.2781 0 97.42653
v -139.1598 0 97.42653
v -138.2781 0 98.74906
v -139.1598 0 98.74906
v -146.8011 0 96.98569
v -147.8297 0 96.98569
v -146.8011 0 98.30821
v -147.8297 0 98.30821
v -148.1236 0 96.69179
v -149.1522 0 96.69179
v -148.1236 0 98.01432
v -149.1522 0 98.01432
v -127.11 0 90.22607
v -127.8448 0 90.22607
v -127.11 0 91.40166
v -127.8448 0 91.40166
v -139.0128 0 88.31575
v -139.8945 0 88.31575
v -139.0128 0 89.49133
v -139.8945 0 89.49133
v -127.5509 0 87.72796
v -128.4326 0 87.72796
v -127.5509 0 88.90354
v -128.4326 0 88.90354
v -126.6692 0 87.58101
v -127.5509 0 87.58101
v -126.6692 0 88.75659
v -127.5509 0 88.75659
v -141.9518 0 87.14017
v -142.8335 0 87.14017
v -141.9518 0 88.31575
v -142.8335 0 88.31575
v -127.257 0 85.52374
v -127.9917 0 85.52374
v -127.257 0 86.55238
v -127.9917 0 86.55238
v -125.0527 0 84.93594
v -125.9344 0 84.93594
v -125.0527 0 86.11153
v -125.9344 0 86.11153
v -125.0527 0 84.64205
v -126.0814 0 84.64205
v -125.0527 0 85.96458
v -126.0814 0 85.96458
v -126.2283 0 83.46647
v -127.11 0 83.46647
v -126.2283 0 84.789
v -127.11 0 84.789
vt 0 0.9058824
vt 0.06666667 0.9058824
vt 0 1
vt 0.06666667 1
vt 0 0.9058824
vt 0.06666667 0.9058824
vt 0 1
vt 0.06666667 1
vt 0 0.9058824
vt 0.06666667 0.9058824
vt 0 1
vt 0.06666667 1
vt 0 0.9058824
vt 0.06666667 0.9058824
vt 0 1
vt 0.06666667 1
vt 0 0.9058824
vt 0.06666667 0.9058824
vt 0 1
vt 0.06666667 1
vt 0 0.9058824
vt 0.06666667 0.9058824
vt 0 1
vt 0.06666667 1
vt 0 0.9058824
vt 0.06666667 0.9058824
vt 0 1
vt 0.06666667 1
vt 0 0.9058824
vt 0.06666667 0.9058824
vt 0 1
vt 0.06666667 1
vt 0 0.9058824
vt 0.06666667 0.9058824
vt 0 1
vt 0.06666667 1
vt 0 0.9058824
vt 0.06666667 0.9058824
vt 0 1
vt 0.06666667 1
vt 0 0.9058824
vt 0.06666667 0.9058824
vt 0 1
vt 0.06666667 1
vt 0 0.9058824
vt 0.06666667 0.9058824
vt 0 1
vt 0.06666667 1
vt 0 0.9058824
vt 0.06666667 0.9058824
vt 0 1
vt 0.06666667 1
vt 0 0.9058824
vt 0.06666667 0.9058824
vt 0 1
vt 0.06666667 1
vt 0 0.9058824
vt 0.06666667 0.9058824
vt 0 1
vt 0.06666667 1
vt 0 0.9058824
vt 0.06666667 0.9058824
vt 0 1
vt 0.06666667 1
vt 0 0.9058824
vt 0.06666667 0.9058824
vt 0 1
vt 0.06666667 1
vt 0 0.9058824
vt 0.06666667 0.9058824
vt 0 1
vt 0.06666667 1
vt 0 0.9058824
vt 0.06666667 0.9058824
vt 0 1
vt 0.06666667 1
vt 0 0.9058824
vt 0.06666667 0.9058824
vt 0 1
vt 0.06666667 1
vt 0 0.9058824
vt 0.06666667 0.9058824
vt 0 1
vt 0.06666667 1
vt 0 0.9058824
vt 0.06666667 0.9058824
vt 0 1
vt 0.06666667 1
vn 0 1 0
vn 0 1 0
vn 0 1 0
vn 0 1 0
vn 0 1 0
vn 0 1 0
vn 0 1 0
vn 0 1 0
vn 0 1 0
vn 0 1 0
vn 0 1 0
vn 0 1 0
vn 0 1 0
vn 0 1 0
vn 0 1 0
vn 0 1 0
vn 0 1 0
vn 0 1 0
vn 0 1 0
vn 0 1 0
vn 0 1 0
vn 0 1 0
vn 0 1 0
vn 0 1 0
vn 0 1 0
vn 0 1 0
vn 0 1 0
vn 0 1 0
vn 0 1 0
vn 0 1 0
vn 0 1 0
vn 0 1 0
vn 0 1 0
vn 0 1 0
vn 0 1 0
vn 0 1 0
vn 0 1 0
vn 0 1 0
vn 0 1 0
vn 0 1 0
vn 0 1 0
vn 0 1 0
vn 0 1 0
vn 0 1 0
vn 0 1 0
vn 0 1 0
vn 0 1 0
vn 0 1 0
vn 0 1 0
vn 0 1 0
vn 0 1 0
vn 0 1 0
vn 0 1 0
vn 0 1 0
vn 0 1 0
vn 0 1 0
vn 0 1 0
vn 0 1 0
vn 0 1 0
vn 0 1 0
vn 0 1 0
vn 0 1 0
vn 0 1 0
vn 0 1 0
vn 0 1 0
vn 0 1 0
vn 0 1 0
vn 0 1 0
vn 0 1 0
vn 0 1 0
vn 0 1 0
vn 0 1 0
vn 0 1 0
vn 0 1 0
vn 0 1 0
vn 0 1 0
vn 0 1 0
vn 0 1 0
vn 0 1 0
vn 0 1 0
vn 0 1 0
vn 0 1 0
vn 0 1 0
vn 0 1 0
vn 0 1 0
vn 0 1 0
vn 0 1 0
vn 0 1 0
g Grass_0_Cluster94_0
f 2/2/2 3/3/3 1/1/1
f 2/2/2 4/4/4 3/3/3
f 6/6/6 7/7/7 5/5/5
f 6/6/6 8/8/8 7/7/7
f 10/10/10 11/11/11 9/9/9
f 10/10/10 12/12/12 11/11/11
f 14/14/14 15/15/15 13/13/13
f 14/14/14 16/16/16 15/15/15
f 18/18/18 19/19/19 17/17/17
f 18/18/18 20/20/20 19/19/19
f 22/22/22 23/23/23 21/21/21
f 22/22/22 24/24/24 23/23/23
f 26/26/26 27/27/27 25/25/25
f 26/26/26 28/28/28 27/27/27
f 30/30/30 31/31/31 29/29/29
f 30/30/30 32/32/32 31/31/31
f 34/34/34 35/35/35 33/33/33
f 34/34/34 36/36/36 35/35/35
f 38/38/38 39/39/39 37/37/37
f 38/38/38 40/40/40 39/39/39
f 42/42/42 43/43/43 41/41/41
f 42/42/42 44/44/44 43/43/43
f 46/46/46 47/47/47 45/45/45
f 46/46/46 48/48/48 47/47/47
f 50/50/50 51/51/51 49/49/49
f 50/50/50 52/52/52 51/51/51
f 54/54/54 55/55/55 53/53/53
f 54/54/54 56/56/56 55/55/55
f 58/58/58 59/59/59 57/57/57
f 58/58/58 60/60/60 59/59/59
f 62/62/62 63/63/63 61/61/61
f 62/62/62 64/64/64 63/63/63
f 66/66/66 67/67/67 65/65/65
f 66/66/66 68/68/68 67/67/67
f 70/70/70 71/71/71 69/69/69
f 70/70/70 72/72/72 71/71/71
f 74/74/74 75/75/75 73/73/73
f 74/74/74 76/76/76 75/75/75
f 78/78/78 79/79/79 77/77/77
f 78/78/78 80/80/80 79/79/79
f 82/82/82 83/83/83 81/81/81
f 82/82/82 84/84/84 83/83/83
f 86/86/86 87/87/87 85/85/85
f 86/86/86 88/88/88 87/87/87
