g Grass_0_Cluster20
v 283.1345 0.1049194 22.73892
v 282.1914 0.1049194 22.73892
v 283.1345 0.1049194 23.99637
v 282.1914 0.1049194 23.99637
v 271.1888 0.1049194 22.73892
v 270.2457 0.1049194 22.73892
v 271.1888 0.1049194 23.99637
v 270.2457 0.1049194 23.99637
v 293.5084 0.1049194 22.73892
v 292.5653 0.1049194 22.73892
v 293.5084 0.1049194 23.99637
v 292.5653 0.1049194 23.99637
v 274.018 0.1049194 22.1102
v 273.075 0.1049194 22.1102
v 274.018 0.1049194 23.36765
v 273.075 0.1049194 23.36765
v 283.1345 0.1049194 21.48148
v 282.5058 0.1049194 21.48148
v 283.1345 0.1049194 22.73892
v 282.5058 0.1049194 22.73892
v 272.1319 0.1049194 19.28094
v 271.1888 0.1049194 19.28094
v 272.1319 0.1049194 20.53839
v 271.1888 0.1049194 20.53839
v 271.5031 0.1049194 18.33786
v 270.5601 0.1049194 18.33786
v 271.5031 0.1049194 19.90967
v 270.5601 0.1049194 19.90967
v 282.1914 0.1049194 15.19424
v 281.2484 0.1049194 15.19424
v 282.1914 0.1049194 16.45169
v 281.2484 0.1049194 16.45169
v 281.5627 0.1049194 13.62244
v 280.6196 0.1049194 13.62244
v 281.5627 0.1049194 14.56552
v 280.6196 0.1049194 14.56552
v 275.2755 0.1049194 13.30807
v 274.6468 0.1049194 13.30807
v 275.2755 0.1049194 14.56552
v 274.6468 0.1049194 14.56552
v 280.6196 0.1049194 10.16446
v 279.6765 0.1049194 10.16446
v 280.6196 0.1049194 11.42191
v 279.6765 0.1049194 11.42191
v 282.8202 0.1049194 9.850098
v 282.1914 0.1049194 9.850098
v 282.8202 0.1049194 11.10754
v 282.1914 0.1049194 11.10754
v 283.1345 0.1049194 8.907013
v 282.1914 0.1049194 8.907013
v 283.1345 0.1049194 10.16446
v 282.1914 0.1049194 10.16446
v 296.0233 0.1049194 7.020874
v 295.0802 0.1049194 7.020874
v 296.0233 0.1049194 8.27829
v 295.0802 0.1049194 8.27829
v 272.1319 0.1049194 1.676727
v 271.5031 0.1049194 1.676727
v 272.1319 0.1049194 2.934174
v 271.5031 0.1049194 2.934174
v 284.392 0.1049194 -3.981781
v 283.7632 0.1049194 -3.981781
v 284.392 0.1049194 -2.724335
v 283.7632 0.1049194 -2.724335
v 297.5951 0.1049194 -4.296143
v 296.652 0.1049194 -4.296143
v 297.5951 0.1049194 -3.038696
v 296.652 0.1049194 -3.038696
v 283.4489 0.1049194 -4.296143
v 282.5058 0.1049194 -4.296143
v 283.4489 0.1049194 -3.038696
v 282.5058 0.1049194 -3.038696
v 281.2484 0.1049194 -4.924866
v 280.3053 0.1049194 -4.924866
v 281.2484 0.1049194 -3.667419
v 280.3053 0.1049194 -3.667419
v 274.3324 0.1049194 -5.239227
v 273.7037 0.1049194 -5.239227
v 274.3324 0.1049194 -3.981781
v 273.7037 0.1049194 -3.981781
v 274.018 0.1049194 -7.125397
v 273.075 0.1049194 -7.125397
v 274.018 0.1049194 -5.86795
v 273.075 0.1049194 -5.86795
vt 0 0.9058824
vt 0.06666667 0.9058824
vt 0 1
vt 0.06666667 1
vt 0 0.9058824
vt 0.06666667 0.9058824
vt 0 1
vt 0.06666667 1
vt 0 0.9058824
vt 0.06666667 0.9058824
vt 0 1
vt 0.06666667 1
vt 0 0.9058824
vt 0.06666667 0.9058824
vt 0 1
vt 0.06666667 1
vt 0 0.9058824
vt 0.06666667 0.9058824
vt 0 1
vt 0.06666667 1
vt 0 0.9058824
vt 0.06666667 0.9058824
vt 0 1
vt 0.06666667 1
vt 0 0.9058824
vt 0.06666667 0.9058824
vt 0 1
vt 0.06666667 1
vt 0 0.9058824
vt 0.06666667 0.9058824
vt 0 1
vt 0.06666667 1
vt 0 0.9058824
vt 0.06666667 0.9058824
vt 0 1
vt 0.06666667 1
vt 0 0.9058824
vt 0.06666667 0.9058824
vt 0 1
vt 0.06666667 1
vt 0 0.9058824
vt 0.06666667 0.9058824
vt 0 1
vt 0.06666667 1
vt 0 0.9058824
vt 0.06666667 0.9058824
vt 0 1
vt 0.06666667 1
vt 0 0.9058824
vt 0.06666667 0.9058824
vt 0 1
vt 0.06666667 1
vt 0 0.9058824
vt 0.06666667 0.9058824
vt 0 1
vt 0.06666667 1
vt 0 0.9058824
vt 0.06666667 0.9058824
vt 0 1
vt 0.06666667 1
vt 0 0.9058824
vt 0.06666667 0.9058824
vt 0 1
vt 0.06666667 1
vt 0 0.9058824
vt 0.06666667 0.9058824
vt 0 1
vt 0.06666667 1
vt 0 0.9058824
vt 0.06666667 0.9058824
vt 0 1
vt 0.06666667 1
vt 0 0.9058824
vt 0.06666667 0.9058824
vt 0 1
vt 0.06666667 1
vt 0 0.9058824
vt 0.06666667 0.9058824
vt 0 1
vt 0.06666667 1
vt 0 0.9058824
vt 0.06666667 0.9058824
vt 0 1
vt 0.06666667 1
vn 0 1 0
vn 0 1 0
vn 0 1 0
vn 0 1 0
vn 0 1 0
vn 0 1 0
vn 0 1 0
vn 0 1 0
vn 0 1 0
vn 0 1 0
vn 0 1 0
vn 0 1 0
vn 0 1 0
vn 0 1 0
vn 0 1 0
vn 0 1 0
vn 0 1 0
vn 0 1 0
vn 0 1 0
vn 0 1 0
vn 0 1 0
vn 0 1 0
vn 0 1 0
vn 0 1 0
vn 0 1 0
vn 0 1 0
vn 0 1 0
vn 0 1 0
vn 0 1 0
vn 0 1 0
vn 0 1 0
vn 0 1 0
vn 0 1 0
vn 0 1 0
vn 0 1 0
vn 0 1 0
vn 0 1 0
vn 0 1 0
vn 0 1 0
vn 0 1 0
vn 0 1 0
vn 0 1 0
vn 0 1 0
vn 0 1 0
vn 0 1 0
vn 0 1 0
vn 0 1 0
vn 0 1 0
vn 0 1 0
vn 0 1 0
vn 0 1 0
vn 0 1 0
vn 0 1 0
vn 0 1 0
vn 0 1 0
vn 0 1 0
vn 0 1 0
vn 0 1 0
vn 0 1 0
vn 0 1 0
vn 0 1 0
vn 0 1 0
vn 0 1 0
vn 0 1 0
vn 0 1 0
vn 0 1 0
vn 0 1 0
vn 0 1 0
vn 0 1 0
vn 0 1 0
vn 0 1 0
vn 0 1 0
vn 0 1 0
vn 0 1 0
vn 0 1 0
vn 0 1 0
vn 0 1 0
vn 0 1 0
vn 0 1 0
vn 0 1 0
vn 0 1 0
vn 0 1 0
vn 0 1 0
vn 0 1 0
g Grass_0_Cluster20_0
f 2/2/2 3/3/3 1/1/1
f 2/2/2 4/4/4 3/3/3
f 6/6/6 7/7/7 5/5/5
f 6/6/6 8/8/8 7/7/7
f 10/10/10 11/11/11 9/9/9
f 10/10/10 12/12/12 11/11/11
f 14/14/14 15/15/15 13/13/13
f 14/14/14 16/16/16 15/15/15
f 18/18/18 19/19/19 17/17/17
f 18/18/18 20/20/20 19/19/19
f 22/22/22 23/23/23 21/21/21
f 22/22/22 24/24/24 23/23/23
f 26/26/26 27/27/27 25/25/25
f 26/26/26 28/28/28 27/27/27
f 30/30/30 31/31/31 29/29/29
f 30/30/30 32/32/32 31/31/31
f 34/34/34 35/35/35 33/33/33
f 34/34/34 36/36/36 35/35/35
f 38/38/38 39/39/39 37/37/37
f 38/38/38 40/40/40 39/39/39
f 42/42/42 43/43/43 41/41/41
f 42/42/42 44/44/44 43/43/43
f 46/46/46 47/47/47 45/45/45
f 46/46/46 48/48/48 47/47/47
f 50/50/50 51/51/51 49/49/49
f 50/50/50 52/52/52 51/51/51
f 54/54/54 55/55/55 53/53/53
f 54/54/54 56/56/56 55/55/55
f 58/58/58 59/59/59 57/57/57
f 58/58/58 60/60/60 59/59/59
f 62/62/62 63/63/63 61/61/61
f 62/62/62 64/64/64 63/63/63
f 66/66/66 67/67/67 65/65/65
f 66/66/66 68/68/68 67/67/67
f 70/70/70 71/71/71 69/69/69
f 70/70/70 72/72/72 71/71/71
f 74/74/74 75/75/75 73/73/73
f 74/74/74 76/76/76 75/75/75
f 78/78/78 79/79/79 77/77/77
f 78/78/78 80/80/80 79/79/79
f 82/82/82 83/83/83 81/81/81
f 82/82/82 84/84/84 83/83/83
