g Grass_0_Cluster106
v 91.80253 0.07548523 142.538
v 91.02827 0.07548523 142.538
v 91.80253 0.07548523 143.8285
v 91.02827 0.07548523 143.8285
v 113.4816 0.07548523 139.441
v 112.4493 0.07548523 139.441
v 113.4816 0.07548523 140.7314
v 112.4493 0.07548523 140.7314
v 115.2882 0.07548523 138.9249
v 114.5139 0.07548523 138.9249
v 115.2882 0.07548523 139.9572
v 114.5139 0.07548523 139.9572
v 110.6427 0.07548523 137.6344
v 109.6103 0.07548523 137.6344
v 110.6427 0.07548523 138.9249
v 109.6103 0.07548523 138.9249
v 116.5786 0.07548523 136.8602
v 115.5463 0.07548523 136.8602
v 116.5786 0.07548523 138.1506
v 115.5463 0.07548523 138.1506
v 114.2559 0.07548523 134.7955
v 113.4816 0.07548523 134.7955
v 114.2559 0.07548523 136.0859
v 113.4816 0.07548523 136.0859
v 115.8044 0.07548523 134.7955
v 115.0301 0.07548523 134.7955
v 115.8044 0.07548523 136.0859
v 115.0301 0.07548523 136.0859
v 113.4816 0.07548523 134.0213
v 112.7074 0.07548523 134.0213
v 113.4816 0.07548523 135.3117
v 112.7074 0.07548523 135.3117
v 112.4493 0.07548523 133.7632
v 111.4169 0.07548523 133.7632
v 112.4493 0.07548523 135.0536
v 111.4169 0.07548523 135.0536
v 115.8044 0.07548523 133.7632
v 115.0301 0.07548523 133.7632
v 115.8044 0.07548523 135.0536
v 115.0301 0.07548523 135.0536
v 120.1918 0.07548523 133.5051
v 119.4175 0.07548523 133.5051
v 120.1918 0.07548523 134.5374
v 119.4175 0.07548523 134.5374
v 113.4816 0.07548523 132.7308
v 112.4493 0.07548523 132.7308
v 113.4816 0.07548523 134.0213
v 112.4493 0.07548523 134.0213
v 115.8044 0.07548523 132.2147
v 115.0301 0.07548523 132.2147
v 115.8044 0.07548523 133.5051
v 115.0301 0.07548523 133.5051
v 113.9978 0.07548523 131.9566
v 112.9654 0.07548523 131.9566
v 113.9978 0.07548523 133.247
v 112.9654 0.07548523 133.247
v 91.28636 0.07548523 131.6985
v 90.51211 0.07548523 131.6985
v 91.28636 0.07548523 132.9889
v 90.51211 0.07548523 132.9889
v 114.2559 0.07548523 131.1823
v 113.4816 0.07548523 131.1823
v 114.2559 0.07548523 132.4727
v 113.4816 0.07548523 132.4727
v 101.6097 0.07548523 126.7949
v 100.8355 0.07548523 126.7949
v 101.6097 0.07548523 128.0853
v 100.8355 0.07548523 128.0853
v 97.48038 0.07548523 118.5362
v 96.44804 0.07548523 118.5362
v 97.48038 0.07548523 119.8266
v 96.44804 0.07548523 119.8266
v 105.2229 0.07548523 118.5362
v 104.1906 0.07548523 118.5362
v 105.2229 0.07548523 119.5685
v 104.1906 0.07548523 119.5685
v 100.3193 0.07548523 118.02
v 99.28697 0.07548523 118.02
v 100.3193 0.07548523 119.3104
v 99.28697 0.07548523 119.3104
v 103.6744 0.07548523 117.5039
v 102.9002 0.07548523 117.5039
v 103.6744 0.07548523 118.5362
v 102.9002 0.07548523 118.5362
v 116.8367 0.07548523 116.9877
v 116.0625 0.07548523 116.9877
v 116.8367 0.07548523 118.2781
v 116.0625 0.07548523 118.2781
v 103.4163 0.07548523 116.9877
v 102.6421 0.07548523 116.9877
v 103.4163 0.07548523 118.2781
v 102.6421 0.07548523 118.2781
v 102.1259 0.07548523 116.7296
v 101.0936 0.07548523 116.7296
v 102.1259 0.07548523 118.02
v 101.0936 0.07548523 118.02
v 100.0612 0.07548523 116.4715
v 99.02888 0.07548523 116.4715
v 100.0612 0.07548523 117.7619
v 99.02888 0.07548523 117.7619
v 96.96422 0.07548523 116.4715
v 95.93188 0.07548523 116.4715
v 96.96422 0.07548523 117.7619
v 95.93188 0.07548523 117.7619
v 105.481 0.07548523 116.2134
v 104.4487 0.07548523 116.2134
v 105.481 0.07548523 117.5039
v 104.4487 0.07548523 117.5039
v 102.384 0.07548523 116.2134
v 101.6097 0.07548523 116.2134
v 102.384 0.07548523 117.5039
v 101.6097 0.07548523 117.5039
v 118.3852 0.07548523 116.2134
v 117.3529 0.07548523 116.2134
v 118.3852 0.07548523 117.5039
v 117.3529 0.07548523 117.5039
v 101.0936 0.07548523 116.2134
v 100.3193 0.07548523 116.2134
v 101.0936 0.07548523 117.2458
v 100.3193 0.07548523 117.2458
v 101.6097 0.07548523 115.9554
v 100.8355 0.07548523 115.9554
v 101.6097 0.07548523 117.2458
v 100.8355 0.07548523 117.2458
v 103.1582 0.07548523 115.6973
v 102.384 0.07548523 115.6973
v 103.1582 0.07548523 116.7296
v 102.384 0.07548523 116.7296
v 98.77081 0.07548523 115.1811
v 97.99655 0.07548523 115.1811
v 98.77081 0.07548523 116.2134
v 97.99655 0.07548523 116.2134
v 119.1595 0.07548523 115.1811
v 118.3852 0.07548523 115.1811
v 119.1595 0.07548523 116.2134
v 118.3852 0.07548523 116.2134
v 99.54506 0.07548523 114.923
v 98.51272 0.07548523 114.923
v 99.54506 0.07548523 116.2134
v 98.51272 0.07548523 116.2134
v 93.8672 0.07548523 114.923
v 93.09295 0.07548523 114.923
v 93.8672 0.07548523 116.2134
v 93.09295 0.07548523 116.2134
v 120.1918 0.07548523 114.923
v 119.4175 0.07548523 114.923
v 120.1918 0.07548523 116.2134
v 119.4175 0.07548523 116.2134
v 117.0948 0.07548523 114.923
v 116.3205 0.07548523 114.923
v 117.0948 0.07548523 116.2134
v 116.3205 0.07548523 116.2134
v 101.6097 0.07548523 114.6649
v 100.5774 0.07548523 114.6649
v 101.6097 0.07548523 115.9554
v 100.5774 0.07548523 115.9554
v 99.28697 0.07548523 114.4068
v 98.51272 0.07548523 114.4068
v 99.28697 0.07548523 115.6973
v 98.51272 0.07548523 115.6973
v 119.9337 0.07548523 114.4068
v 118.9014 0.07548523 114.4068
v 119.9337 0.07548523 115.4392
v 118.9014 0.07548523 115.4392
v 117.869 0.07548523 114.4068
v 116.8367 0.07548523 114.4068
v 117.869 0.07548523 115.6973
v 116.8367 0.07548523 115.6973
v 116.8367 0.07548523 114.1488
v 115.8044 0.07548523 114.1488
v 116.8367 0.07548523 115.6973
v 115.8044 0.07548523 115.6973
v 97.2223 0.07548523 114.1488
v 96.44804 0.07548523 114.1488
v 97.2223 0.07548523 115.1811
v 96.44804 0.07548523 115.1811
v 102.1259 0.07548523 113.8907
v 101.0936 0.07548523 113.8907
v 102.1259 0.07548523 115.4392
v 101.0936 0.07548523 115.4392
v 98.25464 0.07548523 113.8907
v 97.2223 0.07548523 113.8907
v 98.25464 0.07548523 115.1811
v 97.2223 0.07548523 115.1811
v 95.41571 0.07548523 113.6326
v 94.64146 0.07548523 113.6326
v 95.41571 0.07548523 114.923
v 94.64146 0.07548523 114.923
v 118.3852 0.07548523 113.6326
v 117.611 0.07548523 113.6326
v 118.3852 0.07548523 114.923
v 117.611 0.07548523 114.923
v 90.77019 0.07548523 113.3745
v 89.73785 0.07548523 113.3745
v 90.77019 0.07548523 114.6649
v 89.73785 0.07548523 114.6649
v 101.0936 0.07548523 113.3745
v 100.0612 0.07548523 113.3745
v 101.0936 0.07548523 114.6649
v 100.0612 0.07548523 114.6649
v 99.54506 0.07548523 113.3745
v 98.77081 0.07548523 113.3745
v 99.54506 0.07548523 114.6649
v 98.77081 0.07548523 114.6649
v 119.1595 0.07548523 113.3745
v 118.3852 0.07548523 113.3745
v 119.1595 0.07548523 114.6649
v 118.3852 0.07548523 114.6649
v 98.77081 0.07548523 113.1164
v 97.99655 0.07548523 113.1164
v 98.77081 0.07548523 114.4068
v 97.99655 0.07548523 114.4068
v 96.70613 0.07548523 113.1164
v 95.93188 0.07548523 113.1164
v 96.70613 0.07548523 114.4068
v 95.93188 0.07548523 114.4068
v 117.0948 0.07548523 113.1164
v 116.3205 0.07548523 113.1164
v 117.0948 0.07548523 114.4068
v 116.3205 0.07548523 114.4068
vt 0 0.9058824
vt 0.06666667 0.9058824
vt 0 1
vt 0.06666667 1
vt 0 0.9058824
vt 0.06666667 0.9058824
vt 0 1
vt 0.06666667 1
vt 0 0.9058824
vt 0.06666667 0.9058824
vt 0 1
vt 0.06666667 1
vt 0 0.9058824
vt 0.06666667 0.9058824
vt 0 1
vt 0.06666667 1
vt 0 0.9058824
vt 0.06666667 0.9058824
vt 0 1
vt 0.06666667 1
vt 0 0.9058824
vt 0.06666667 0.9058824
vt 0 1
vt 0.06666667 1
vt 0 0.9058824
vt 0.06666667 0.9058824
vt 0 1
vt 0.06666667 1
vt 0 0.9058824
vt 0.06666667 0.9058824
vt 0 1
vt 0.06666667 1
vt 0 0.9058824
vt 0.06666667 0.9058824
vt 0 1
vt 0.06666667 1
vt 0 0.9058824
vt 0.06666667 0.9058824
vt 0 1
vt 0.06666667 1
vt 0 0.9058824
vt 0.06666667 0.9058824
vt 0 1
vt 0.06666667 1
vt 0 0.9058824
vt 0.06666667 0.9058824
vt 0 1
vt 0.06666667 1
vt 0 0.9058824
vt 0.06666667 0.9058824
vt 0 1
vt 0.06666667 1
vt 0 0.9058824
vt 0.06666667 0.9058824
vt 0 1
vt 0.06666667 1
vt 0 0.9058824
vt 0.06666667 0.9058824
vt 0 1
vt 0.06666667 1
vt 0 0.9058824
vt 0.06666667 0.9058824
vt 0 1
vt 0.06666667 1
vt 0 0.9058824
vt 0.06666667 0.9058824
vt 0 1
vt 0.06666667 1
vt 0 0.9058824
vt 0.06666667 0.9058824
vt 0 1
vt 0.06666667 1
vt 0 0.9058824
vt 0.06666667 0.9058824
vt 0 1
vt 0.06666667 1
vt 0 0.9058824
vt 0.06666667 0.9058824
vt 0 1
vt 0.06666667 1
vt 0 0.9058824
vt 0.06666667 0.9058824
vt 0 1
vt 0.06666667 1
vt 0 0.9058824
vt 0.06666667 0.9058824
vt 0 1
vt 0.06666667 1
vt 0 0.9058824
vt 0.06666667 0.9058824
vt 0 1
vt 0.06666667 1
vt 0 0.9058824
vt 0.06666667 0.9058824
vt 0 1
vt 0.06666667 1
vt 0 0.9058824
vt 0.06666667 0.9058824
vt 0 1
vt 0.06666667 1
vt 0 0.9058824
vt 0.06666667 0.9058824
vt 0 1
vt 0.06666667 1
vt 0 0.9058824
vt 0.06666667 0.9058824
vt 0 1
vt 0.06666667 1
vt 0 0.9058824
vt 0.06666667 0.9058824
vt 0 1
vt 0.06666667 1
vt 0 0.9058824
vt 0.06666667 0.9058824
vt 0 1
vt 0.06666667 1
vt 0 0.9058824
vt 0.06666667 0.9058824
vt 0 1
vt 0.06666667 1
vt 0 0.9058824
vt 0.06666667 0.9058824
vt 0 1
vt 0.06666667 1
vt 0 0.9058824
vt 0.06666667 0.9058824
vt 0 1
vt 0.06666667 1
vt 0 0.9058824
vt 0.06666667 0.9058824
vt 0 1
vt 0.06666667 1
vt 0 0.9058824
vt 0.06666667 0.9058824
vt 0 1
vt 0.06666667 1
vt 0 0.9058824
vt 0.06666667 0.9058824
vt 0 1
vt 0.06666667 1
vt 0 0.9058824
vt 0.06666667 0.9058824
vt 0 1
vt 0.06666667 1
vt 0 0.9058824
vt 0.06666667 0.9058824
vt 0 1
vt 0.06666667 1
vt 0 0.9058824
vt 0.06666667 0.9058824
vt 0 1
vt 0.06666667 1
vt 0 0.9058824
vt 0.06666667 0.9058824
vt 0 1
vt 0.06666667 1
vt 0 0.9058824
vt 0.06666667 0.9058824
vt 0 1
vt 0.06666667 1
vt 0 0.9058824
vt 0.06666667 0.9058824
vt 0 1
vt 0.06666667 1
vt 0 0.9058824
vt 0.06666667 0.9058824
vt 0 1
vt 0.06666667 1
vt 0 0.9058824
vt 0.06666667 0.9058824
vt 0 1
vt 0.06666667 1
vt 0 0.9058824
vt 0.06666667 0.9058824
vt 0 1
vt 0.06666667 1
vt 0 0.9058824
vt 0.06666667 0.9058824
vt 0 1
vt 0.06666667 1
vt 0 0.9058824
vt 0.06666667 0.9058824
vt 0 1
vt 0.06666667 1
vt 0 0.9058824
vt 0.06666667 0.9058824
vt 0 1
vt 0.06666667 1
vt 0 0.9058824
vt 0.06666667 0.9058824
vt 0 1
vt 0.06666667 1
vt 0 0.9058824
vt 0.06666667 0.9058824
vt 0 1
vt 0.06666667 1
vt 0 0.9058824
vt 0.06666667 0.9058824
vt 0 1
vt 0.06666667 1
vt 0 0.9058824
vt 0.06666667 0.9058824
vt 0 1
vt 0.06666667 1
vt 0 0.9058824
vt 0.06666667 0.9058824
vt 0 1
vt 0.06666667 1
vt 0 0.9058824
vt 0.06666667 0.9058824
vt 0 1
vt 0.06666667 1
vt 0 0.9058824
vt 0.06666667 0.9058824
vt 0 1
vt 0.06666667 1
vt 0 0.9058824
vt 0.06666667 0.9058824
vt 0 1
vt 0.06666667 1
vn 0 1 0
vn 0 1 0
vn 0 1 0
vn 0 1 0
vn 0 1 0
vn 0 1 0
vn 0 1 0
vn 0 1 0
vn 0 1 0
vn 0 1 0
vn 0 1 0
vn 0 1 0
vn 0 1 0
vn 0 1 0
vn 0 1 0
vn 0 1 0
vn 0 1 0
vn 0 1 0
vn 0 1 0
vn 0 1 0
vn 0 1 0
vn 0 1 0
vn 0 1 0
vn 0 1 0
vn 0 1 0
vn 0 1 0
vn 0 1 0
vn 0 1 0
vn 0 1 0
vn 0 1 0
vn 0 1 0
vn 0 1 0
vn 0 1 0
vn 0 1 0
vn 0 1 0
vn 0 1 0
vn 0 1 0
vn 0 1 0
vn 0 1 0
vn 0 1 0
vn 0 1 0
vn 0 1 0
vn 0 1 0
vn 0 1 0
vn 0 1 0
vn 0 1 0
vn 0 1 0
vn 0 1 0
vn 0 1 0
vn 0 1 0
vn 0 1 0
vn 0 1 0
vn 0 1 0
vn 0 1 0
vn 0 1 0
vn 0 1 0
vn 0 1 0
vn 0 1 0
vn 0 1 0
vn 0 1 0
vn 0 1 0
vn 0 1 0
vn 0 1 0
vn 0 1 0
vn 0 1 0
vn 0 1 0
vn 0 1 0
vn 0 1 0
vn 0 1 0
vn 0 1 0
vn 0 1 0
vn 0 1 0
vn 0 1 0
vn 0 1 0
vn 0 1 0
vn 0 1 0
vn 0 1 0
vn 0 1 0
vn 0 1 0
vn 0 1 0
vn 0 1 0
vn 0 1 0
vn 0 1 0
vn 0 1 0
vn 0 1 0
vn 0 1 0
vn 0 1 0
vn 0 1 0
vn 0 1 0
vn 0 1 0
vn 0 1 0
vn 0 1 0
vn 0 1 0
vn 0 1 0
vn 0 1 0
vn 0 1 0
vn 0 1 0
vn 0 1 0
vn 0 1 0
vn 0 1 0
vn 0 1 0
vn 0 1 0
vn 0 1 0
vn 0 1 0
vn 0 1 0
vn 0 1 0
vn 0 1 0
vn 0 1 0
vn 0 1 0
vn 0 1 0
vn 0 1 0
vn 0 1 0
vn 0 1 0
vn 0 1 0
vn 0 1 0
vn 0 1 0
vn 0 1 0
vn 0 1 0
vn 0 1 0
vn 0 1 0
vn 0 1 0
vn 0 1 0
vn 0 1 0
vn 0 1 0
vn 0 1 0
vn 0 1 0
vn 0 1 0
vn 0 1 0
vn 0 1 0
vn 0 1 0
vn 0 1 0
vn 0 1 0
vn 0 1 0
vn 0 1 0
vn 0 1 0
vn 0 1 0
vn 0 1 0
vn 0 1 0
vn 0 1 0
vn 0 1 0
vn 0 1 0
vn 0 1 0
vn 0 1 0
vn 0 1 0
vn 0 1 0
vn 0 1 0
vn 0 1 0
vn 0 1 0
vn 0 1 0
vn 0 1 0
vn 0 1 0
vn 0 1 0
vn 0 1 0
vn 0 1 0
vn 0 1 0
vn 0 1 0
vn 0 1 0
vn 0 1 0
vn 0 1 0
vn 0 1 0
vn 0 1 0
vn 0 1 0
vn 0 1 0
vn 0 1 0
vn 0 1 0
vn 0 1 0
vn 0 1 0
vn 0 1 0
vn 0 1 0
vn 0 1 0
vn 0 1 0
vn 0 1 0
vn 0 1 0
vn 0 1 0
vn 0 1 0
vn 0 1 0
vn 0 1 0
vn 0 1 0
vn 0 1 0
vn 0 1 0
vn 0 1 0
vn 0 1 0
vn 0 1 0
vn 0 1 0
vn 0 1 0
vn 0 1 0
vn 0 1 0
vn 0 1 0
vn 0 1 0
vn 0 1 0
vn 0 1 0
vn 0 1 0
vn 0 1 0
vn 0 1 0
vn 0 1 0
vn 0 1 0
vn 0 1 0
vn 0 1 0
vn 0 1 0
vn 0 1 0
vn 0 1 0
vn 0 1 0
vn 0 1 0
vn 0 1 0
vn 0 1 0
vn 0 1 0
vn 0 1 0
vn 0 1 0
vn 0 1 0
vn 0 1 0
vn 0 1 0
vn 0 1 0
vn 0 1 0
vn 0 1 0
vn 0 1 0
vn 0 1 0
vn 0 1 0
vn 0 1 0
vn 0 1 0
vn 0 1 0
g Grass_0_Cluster106_0
f 2/2/2 3/3/3 1/1/1
f 2/2/2 4/4/4 3/3/3
f 6/6/6 7/7/7 5/5/5
f 6/6/6 8/8/8 7/7/7
f 10/10/10 11/11/11 9/9/9
f 10/10/10 12/12/12 11/11/11
f 14/14/14 15/15/15 13/13/13
f 14/14/14 16/16/16 15/15/15
f 18/18/18 19/19/19 17/17/17
f 18/18/18 20/20/20 19/19/19
f 22/22/22 23/23/23 21/21/21
f 22/22/22 24/24/24 23/23/23
f 26/26/26 27/27/27 25/25/25
f 26/26/26 28/28/28 27/27/27
f 30/30/30 31/31/31 29/29/29
f 30/30/30 32/32/32 31/31/31
f 34/34/34 35/35/35 33/33/33
f 34/34/34 36/36/36 35/35/35
f 38/38/38 39/39/39 37/37/37
f 38/38/38 40/40/40 39/39/39
f 42/42/42 43/43/43 41/41/41
f 42/42/42 44/44/44 43/43/43
f 46/46/46 47/47/47 45/45/45
f 46/46/46 48/48/48 47/47/47
f 50/50/50 51/51/51 49/49/49
f 50/50/50 52/52/52 51/51/51
f 54/54/54 55/55/55 53/53/53
f 54/54/54 56/56/56 55/55/55
f 58/58/58 59/59/59 57/57/57
f 58/58/58 60/60/60 59/59/59
f 62/62/62 63/63/63 61/61/61
f 62/62/62 64/64/64 63/63/63
f 66/66/66 67/67/67 65/65/65
f 66/66/66 68/68/68 67/67/67
f 70/70/70 71/71/71 69/69/69
f 70/70/70 72/72/72 71/71/71
f 74/74/74 75/75/75 73/73/73
f 74/74/74 76/76/76 75/75/75
f 78/78/78 79/79/79 77/77/77
f 78/78/78 80/80/80 79/79/79
f 82/82/82 83/83/83 81/81/81
f 82/82/82 84/84/84 83/83/83
f 86/86/86 87/87/87 85/85/85
f 86/86/86 88/88/88 87/87/87
f 90/90/90 91/91/91 89/89/89
f 90/90/90 92/92/92 91/91/91
f 94/94/94 95/95/95 93/93/93
f 94/94/94 96/96/96 95/95/95
f 98/98/98 99/99/99 97/97/97
f 98/98/98 100/100/100 99/99/99
f 102/102/102 103/103/103 101/101/101
f 102/102/102 104/104/104 103/103/103
f 106/106/106 107/107/107 105/105/105
f 106/106/106 108/108/108 107/107/107
f 110/110/110 111/111/111 109/109/109
f 110/110/110 112/112/112 111/111/111
f 114/114/114 115/115/115 113/113/113
f 114/114/114 116/116/116 115/115/115
f 118/118/118 119/119/119 117/117/117
f 118/118/118 120/120/120 119/119/119
f 122/122/122 123/123/123 121/121/121
f 122/122/122 124/124/124 123/123/123
f 126/126/126 127/127/127 125/125/125
f 126/126/126 128/128/128 127/127/127
f 130/130/130 131/131/131 129/129/129
f 130/130/130 132/132/132 131/131/131
f 134/134/134 135/135/135 133/133/133
f 134/134/134 136/136/136 135/135/135
f 138/138/138 139/139/139 137/137/137
f 138/138/138 140/140/140 139/139/139
f 142/142/142 143/143/143 141/141/141
f 142/142/142 144/144/144 143/143/143
f 146/146/146 147/147/147 145/145/145
f 146/146/146 148/148/148 147/147/147
f 150/150/150 151/151/151 149/149/149
f 150/150/150 152/152/152 151/151/151
f 154/154/154 155/155/155 153/153/153
f 154/154/154 156/156/156 155/155/155
f 158/158/158 159/159/159 157/157/157
f 158/158/158 160/160/160 159/159/159
f 162/162/162 163/163/163 161/161/161
f 162/162/162 164/164/164 163/163/163
f 166/166/166 167/167/167 165/165/165
f 166/166/166 168/168/168 167/167/167
f 170/170/170 171/171/171 169/169/169
f 170/170/170 172/172/172 171/171/171
f 174/174/174 175/175/175 173/173/173
f 174/174/174 176/176/176 175/175/175
f 178/178/178 179/179/179 177/177/177
f 178/178/178 180/180/180 179/179/179
f 182/182/182 183/183/183 181/181/181
f 182/182/182 184/184/184 183/183/183
f 186/186/186 187/187/187 185/185/185
f 186/186/186 188/188/188 187/187/187
f 190/190/190 191/191/191 189/189/189
f 190/190/190 192/192/192 191/191/191
f 194/194/194 195/195/195 193/193/193
f 194/194/194 196/196/196 195/195/195
f 198/198/198 199/199/199 197/197/197
f 198/198/198 200/200/200 199/199/199
f 202/202/202 203/203/203 201/201/201
f 202/202/202 204/204/204 203/203/203
f 206/206/206 207/207/207 205/205/205
f 206/206/206 208/208/208 207/207/207
f 210/210/210 211/211/211 209/209/209
f 210/210/210 212/212/212 211/211/211
f 214/214/214 215/215/215 213/213/213
f 214/214/214 216/216/216 215/215/215
f 218/218/218 219/219/219 217/217/217
f 218/218/218 220/220/220 219/219/219
