g Grass_1_Cluster160
v 297.1692 0.1171875 220.799
v 296.1546 0.1171875 220.799
v 297.1692 0.1171875 221.8137
v 296.1546 0.1171875 221.8137
v 295.6472 0.1171875 220.799
v 294.6326 0.1171875 220.799
v 295.6472 0.1171875 221.8137
v 294.6326 0.1171875 221.8137
vt 0.06738281 0.9369141
vt 0.1331457 0.9369141
vt 0.06738281 0.9990234
vt 0.1331457 0.9990234
vt 0.06738281 0.9369141
vt 0.1331457 0.9369141
vt 0.06738281 0.9990234
vt 0.1331457 0.9990234
vn 0 1 0
vn 0 1 0
vn 0 1 0
vn 0 1 0
vn 0 1 0
vn 0 1 0
vn 0 1 0
vn 0 1 0
g Grass_1_Cluster160_0
f 2/2/2 3/3/3 1/1/1
f 2/2/2 4/4/4 3/3/3
f 6/6/6 7/7/7 5/5/5
f 6/6/6 8/8/8 7/7/7
