g Grass_2_Cluster83
v 196.7846 0.138031 108.0987
v 195.8799 0.138031 108.0987
v 196.7846 0.138031 109.3049
v 195.8799 0.138031 109.3049
v 191.9595 0.138031 92.41722
v 191.0548 0.138031 92.41722
v 191.9595 0.138031 93.32195
v 191.0548 0.138031 93.32195
v 183.5157 0.138031 88.1953
v 182.611 0.138031 88.1953
v 183.5157 0.138031 89.40157
v 182.611 0.138031 89.40157
v 182.9125 0.138031 87.2906
v 181.7063 0.138031 87.2906
v 182.9125 0.138031 88.1953
v 181.7063 0.138031 88.1953
v 199.1971 0.138031 86.38591
v 198.2924 0.138031 86.38591
v 199.1971 0.138031 87.59218
v 198.2924 0.138031 87.59218
v 198.594 0.138031 85.48122
v 197.3877 0.138031 85.48122
v 198.594 0.138031 86.68748
v 197.3877 0.138031 86.68748
v 194.9752 0.138031 83.97337
v 193.7689 0.138031 83.97337
v 194.9752 0.138031 84.8781
v 193.7689 0.138031 84.8781
v 196.7846 0.138031 83.06868
v 195.8799 0.138031 83.06868
v 196.7846 0.138031 84.27495
v 195.8799 0.138031 84.27495
vt 0.1347656 0.9185662
vt 0.2060202 0.9185662
vt 0.1347656 1
vt 0.2060202 1
vt 0.1347656 0.9185662
vt 0.2060202 0.9185662
vt 0.1347656 1
vt 0.2060202 1
vt 0.1347656 0.9185662
vt 0.2060202 0.9185662
vt 0.1347656 1
vt 0.2060202 1
vt 0.1347656 0.9185662
vt 0.2060202 0.9185662
vt 0.1347656 1
vt 0.2060202 1
vt 0.1347656 0.9185662
vt 0.2060202 0.9185662
vt 0.1347656 1
vt 0.2060202 1
vt 0.1347656 0.9185662
vt 0.2060202 0.9185662
vt 0.1347656 1
vt 0.2060202 1
vt 0.1347656 0.9185662
vt 0.2060202 0.9185662
vt 0.1347656 1
vt 0.2060202 1
vt 0.1347656 0.9185662
vt 0.2060202 0.9185662
vt 0.1347656 1
vt 0.2060202 1
vn 0 1 0
vn 0 1 0
vn 0 1 0
vn 0 1 0
vn 0 1 0
vn 0 1 0
vn 0 1 0
vn 0 1 0
vn 0 1 0
vn 0 1 0
vn 0 1 0
vn 0 1 0
vn 0 1 0
vn 0 1 0
vn 0 1 0
vn 0 1 0
vn 0 1 0
vn 0 1 0
vn 0 1 0
vn 0 1 0
vn 0 1 0
vn 0 1 0
vn 0 1 0
vn 0 1 0
vn 0 1 0
vn 0 1 0
vn 0 1 0
vn 0 1 0
vn 0 1 0
vn 0 1 0
vn 0 1 0
vn 0 1 0
g Grass_2_Cluster83_0
f 2/2/2 3/3/3 1/1/1
f 2/2/2 4/4/4 3/3/3
f 6/6/6 7/7/7 5/5/5
f 6/6/6 8/8/8 7/7/7
f 10/10/10 11/11/11 9/9/9
f 10/10/10 12/12/12 11/11/11
f 14/14/14 15/15/15 13/13/13
f 14/14/14 16/16/16 15/15/15
f 18/18/18 19/19/19 17/17/17
f 18/18/18 20/20/20 19/19/19
f 22/22/22 23/23/23 21/21/21
f 22/22/22 24/24/24 23/23/23
f 26/26/26 27/27/27 25/25/25
f 26/26/26 28/28/28 27/27/27
f 30/30/30 31/31/31 29/29/29
f 30/30/30 32/32/32 31/31/31
