g Grass_0_Cluster70
v -10.40704 0.005645573 82.88657
v -11.31509 0.005645573 82.88657
v -10.40704 0.005645573 84.12482
v -11.31509 0.005645573 84.12482
v -9.003674 0.005645573 82.63892
v -9.911731 0.005645573 82.63892
v -9.003674 0.005645573 83.87717
v -9.911731 0.005645573 83.87717
v -11.4802 0.005645573 82.55636
v -12.38825 0.005645573 82.55636
v -11.4802 0.005645573 83.87717
v -12.38825 0.005645573 83.87717
v -9.251326 0.005645573 82.14361
v -10.07683 0.005645573 82.14361
v -9.251326 0.005645573 83.38187
v -10.07683 0.005645573 83.38187
v -12.55335 0.005645573 81.40065
v -13.46141 0.005645573 81.40065
v -12.55335 0.005645573 82.72147
v -13.46141 0.005645573 82.72147
v -8.013064 0.005645573 81.07045
v -9.003674 0.005645573 81.07045
v -8.013064 0.005645573 82.39126
v -9.003674 0.005645573 82.39126
v -11.06744 0.005645573 79.66708
v -11.89295 0.005645573 79.66708
v -11.06744 0.005645573 80.90535
v -11.89295 0.005645573 80.90535
v -1.078805 0.005645573 79.41943
v -2.069413 0.005645573 79.41943
v -1.078805 0.005645573 80.74025
v -2.069413 0.005645573 80.74025
v -20.14802 0.005645573 79.00668
v -21.05608 0.005645573 79.00668
v -20.14802 0.005645573 80.24494
v -21.05608 0.005645573 80.24494
v -23.8628 0.005645573 75.7872
v -24.68831 0.005645573 75.7872
v -23.8628 0.005645573 77.02547
v -24.68831 0.005645573 77.02547
v 0.3245573 0.005645573 75.37445
v -0.5009499 0.005645573 75.37445
v 0.3245573 0.005645573 76.53016
v -0.5009499 0.005645573 76.53016
v -20.56077 0.005645573 74.63149
v -21.38628 0.005645573 74.63149
v -20.56077 0.005645573 75.7872
v -21.38628 0.005645573 75.7872
v -19.48762 0.005645573 74.13619
v -20.39567 0.005645573 74.13619
v -19.48762 0.005645573 75.37445
v -20.39567 0.005645573 75.37445
v -21.38628 0.005645573 73.97108
v -22.29434 0.005645573 73.97108
v -21.38628 0.005645573 75.1268
v -22.29434 0.005645573 75.1268
v -23.3675 0.005645573 73.72343
v -24.27556 0.005645573 73.72343
v -23.3675 0.005645573 74.96169
v -24.27556 0.005645573 74.96169
v -21.96414 0.005645573 73.55833
v -22.78964 0.005645573 73.55833
v -21.96414 0.005645573 74.79659
v -22.78964 0.005645573 74.79659
v -20.23057 0.005645573 72.98048
v -21.13863 0.005645573 72.98048
v -20.23057 0.005645573 74.21874
v -21.13863 0.005645573 74.21874
v -20.97353 0.005645573 72.73283
v -21.79903 0.005645573 72.73283
v -20.97353 0.005645573 73.88853
v -21.79903 0.005645573 73.88853
v -18.24935 0.005645573 71.98987
v -19.07486 0.005645573 71.98987
v -18.24935 0.005645573 73.14558
v -19.07486 0.005645573 73.14558
v -20.64332 0.005645573 71.16436
v -21.55138 0.005645573 71.16436
v -20.64332 0.005645573 72.40263
v -21.55138 0.005645573 72.40263
v -7.43521 0.005645573 69.5959
v -8.260716 0.005645573 69.5959
v -7.43521 0.005645573 70.75161
v -8.260716 0.005645573 70.75161
v -8.756021 0.005645573 69.01804
v -9.664079 0.005645573 69.01804
v -8.756021 0.005645573 70.33886
v -9.664079 0.005645573 70.33886
v -22.70709 0.005645573 68.93549
v -23.5326 0.005645573 68.93549
v -22.70709 0.005645573 70.0912
v -23.5326 0.005645573 70.0912
v -18.57956 0.005645573 68.77039
v -19.40506 0.005645573 68.77039
v -18.57956 0.005645573 69.9261
v -19.40506 0.005645573 69.9261
v -23.61515 0.005645573 68.60529
v -24.52321 0.005645573 68.60529
v -23.61515 0.005645573 69.761
v -24.52321 0.005645573 69.761
v -18.1668 0.005645573 67.77979
v -19.07486 0.005645573 67.77979
v -18.1668 0.005645573 69.01804
v -19.07486 0.005645573 69.01804
v -8.013064 0.005645573 67.03683
v -8.838572 0.005645573 67.03683
v -8.013064 0.005645573 68.27509
v -8.838572 0.005645573 68.27509
v -6.031847 0.005645573 65.96367
v -6.939906 0.005645573 65.96367
v -6.031847 0.005645573 67.11938
v -6.939906 0.005645573 67.11938
v -11.23254 0.005645573 65.79857
v -12.05805 0.005645573 65.79857
v -11.23254 0.005645573 66.95428
v -12.05805 0.005645573 66.95428
v -7.682862 0.005645573 65.22071
v -8.590919 0.005645573 65.22071
v -7.682862 0.005645573 66.54153
v -8.590919 0.005645573 66.54153
v -8.425818 0.005645573 65.05561
v -9.333877 0.005645573 65.05561
v -8.425818 0.005645573 66.37642
v -9.333877 0.005645573 66.37642
v -10.65469 0.005645573 64.89051
v -11.56275 0.005645573 64.89051
v -10.65469 0.005645573 66.12877
v -11.56275 0.005645573 66.12877
v -14.45202 0.005645573 64.89051
v -15.36008 0.005645573 64.89051
v -14.45202 0.005645573 66.21132
v -15.36008 0.005645573 66.21132
v -6.774804 0.005645573 64.065
v -7.682862 0.005645573 64.065
v -6.774804 0.005645573 65.30326
v -7.682862 0.005645573 65.30326
v -9.829181 0.005645573 64.065
v -10.65469 0.005645573 64.065
v -9.829181 0.005645573 65.22071
v -10.65469 0.005645573 65.22071
v -5.784195 0.005645573 63.81735
v -6.692253 0.005645573 63.81735
v -5.784195 0.005645573 65.13816
v -6.692253 0.005645573 65.13816
v -6.609703 0.005645573 63.56969
v -7.43521 0.005645573 63.56969
v -6.609703 0.005645573 64.72541
v -7.43521 0.005645573 64.72541
v -9.581529 0.005645573 63.32204
v -10.40704 0.005645573 63.32204
v -9.581529 0.005645573 64.5603
v -10.40704 0.005645573 64.5603
v -7.43521 0.005645573 62.33143
v -8.260716 0.005645573 62.33143
v -7.43521 0.005645573 63.48714
v -8.260716 0.005645573 63.48714
v -9.333877 0.005645573 62.16633
v -10.32448 0.005645573 62.16633
v -9.333877 0.005645573 63.48714
v -10.32448 0.005645573 63.48714
v -8.508369 0.005645573 61.67103
v -9.333877 0.005645573 61.67103
v -8.508369 0.005645573 62.82674
v -9.333877 0.005645573 62.82674
v -13.37886 0.005645573 61.58848
v -14.28692 0.005645573 61.58848
v -13.37886 0.005645573 62.82674
v -14.28692 0.005645573 62.82674
v -10.81979 0.005645573 61.01062
v -11.72785 0.005645573 61.01062
v -10.81979 0.005645573 62.24888
v -11.72785 0.005645573 62.24888
v -11.4802 0.005645573 60.51532
v -12.38825 0.005645573 60.51532
v -11.4802 0.005645573 61.83613
v -12.38825 0.005645573 61.83613
v -5.701645 0.005645573 59.93746
v -6.527152 0.005645573 59.93746
v -5.701645 0.005645573 61.17572
v -6.527152 0.005645573 61.17572
v -6.609703 0.005645573 54.65422
v -7.51776 0.005645573 54.65422
v -6.609703 0.005645573 55.97503
v -7.51776 0.005645573 55.97503
v -0.8311527 0.005645573 54.40656
v -1.821761 0.005645573 54.40656
v -0.8311527 0.005645573 55.72738
v -1.821761 0.005645573 55.72738
vt 0 0.9058824
vt 0.06666667 0.9058824
vt 0 1
vt 0.06666667 1
vt 0 0.9058824
vt 0.06666667 0.9058824
vt 0 1
vt 0.06666667 1
vt 0 0.9058824
vt 0.06666667 0.9058824
vt 0 1
vt 0.06666667 1
vt 0 0.9058824
vt 0.06666667 0.9058824
vt 0 1
vt 0.06666667 1
vt 0 0.9058824
vt 0.06666667 0.9058824
vt 0 1
vt 0.06666667 1
vt 0 0.9058824
vt 0.06666667 0.9058824
vt 0 1
vt 0.06666667 1
vt 0 0.9058824
vt 0.06666667 0.9058824
vt 0 1
vt 0.06666667 1
vt 0 0.9058824
vt 0.06666667 0.9058824
vt 0 1
vt 0.06666667 1
vt 0 0.9058824
vt 0.06666667 0.9058824
vt 0 1
vt 0.06666667 1
vt 0 0.9058824
vt 0.06666667 0.9058824
vt 0 1
vt 0.06666667 1
vt 0 0.9058824
vt 0.06666667 0.9058824
vt 0 1
vt 0.06666667 1
vt 0 0.9058824
vt 0.06666667 0.9058824
vt 0 1
vt 0.06666667 1
vt 0 0.9058824
vt 0.06666667 0.9058824
vt 0 1
vt 0.06666667 1
vt 0 0.9058824
vt 0.06666667 0.9058824
vt 0 1
vt 0.06666667 1
vt 0 0.9058824
vt 0.06666667 0.9058824
vt 0 1
vt 0.06666667 1
vt 0 0.9058824
vt 0.06666667 0.9058824
vt 0 1
vt 0.06666667 1
vt 0 0.9058824
vt 0.06666667 0.9058824
vt 0 1
vt 0.06666667 1
vt 0 0.9058824
vt 0.06666667 0.9058824
vt 0 1
vt 0.06666667 1
vt 0 0.9058824
vt 0.06666667 0.9058824
vt 0 1
vt 0.06666667 1
vt 0 0.9058824
vt 0.06666667 0.9058824
vt 0 1
vt 0.06666667 1
vt 0 0.9058824
vt 0.06666667 0.9058824
vt 0 1
vt 0.06666667 1
vt 0 0.9058824
vt 0.06666667 0.9058824
vt 0 1
vt 0.06666667 1
vt 0 0.9058824
vt 0.06666667 0.9058824
vt 0 1
vt 0.06666667 1
vt 0 0.9058824
vt 0.06666667 0.9058824
vt 0 1
vt 0.06666667 1
vt 0 0.9058824
vt 0.06666667 0.9058824
vt 0 1
vt 0.06666667 1
vt 0 0.9058824
vt 0.06666667 0.9058824
vt 0 1
vt 0.06666667 1
vt 0 0.9058824
vt 0.06666667 0.9058824
vt 0 1
vt 0.06666667 1
vt 0 0.9058824
vt 0.06666667 0.9058824
vt 0 1
vt 0.06666667 1
vt 0 0.9058824
vt 0.06666667 0.9058824
vt 0 1
vt 0.06666667 1
vt 0 0.9058824
vt 0.06666667 0.9058824
vt 0 1
vt 0.06666667 1
vt 0 0.9058824
vt 0.06666667 0.9058824
vt 0 1
vt 0.06666667 1
vt 0 0.9058824
vt 0.06666667 0.9058824
vt 0 1
vt 0.06666667 1
vt 0 0.9058824
vt 0.06666667 0.9058824
vt 0 1
vt 0.06666667 1
vt 0 0.9058824
vt 0.06666667 0.9058824
vt 0 1
vt 0.06666667 1
vt 0 0.9058824
vt 0.06666667 0.9058824
vt 0 1
vt 0.06666667 1
vt 0 0.9058824
vt 0.06666667 0.9058824
vt 0 1
vt 0.06666667 1
vt 0 0.9058824
vt 0.06666667 0.9058824
vt 0 1
vt 0.06666667 1
vt 0 0.9058824
vt 0.06666667 0.9058824
vt 0 1
vt 0.06666667 1
vt 0 0.9058824
vt 0.06666667 0.9058824
vt 0 1
vt 0.06666667 1
vt 0 0.9058824
vt 0.06666667 0.9058824
vt 0 1
vt 0.06666667 1
vt 0 0.9058824
vt 0.06666667 0.9058824
vt 0 1
vt 0.06666667 1
vt 0 0.9058824
vt 0.06666667 0.9058824
vt 0 1
vt 0.06666667 1
vt 0 0.9058824
vt 0.06666667 0.9058824
vt 0 1
vt 0.06666667 1
vt 0 0.9058824
vt 0.06666667 0.9058824
vt 0 1
vt 0.06666667 1
vt 0 0.9058824
vt 0.06666667 0.9058824
vt 0 1
vt 0.06666667 1
vt 0 0.9058824
vt 0.06666667 0.9058824
vt 0 1
vt 0.06666667 1
vt 0 0.9058824
vt 0.06666667 0.9058824
vt 0 1
vt 0.06666667 1
vn 0 1 0
vn 0 1 0
vn 0 1 0
vn 0 1 0
vn 0 1 0
vn 0 1 0
vn 0 1 0
vn 0 1 0
vn 0 1 0
vn 0 1 0
vn 0 1 0
vn 0 1 0
vn 0 1 0
vn 0 1 0
vn 0 1 0
vn 0 1 0
vn 0 1 0
vn 0 1 0
vn 0 1 0
vn 0 1 0
vn 0 1 0
vn 0 1 0
vn 0 1 0
vn 0 1 0
vn 0 1 0
vn 0 1 0
vn 0 1 0
vn 0 1 0
vn 0 1 0
vn 0 1 0
vn 0 1 0
vn 0 1 0
vn 0 1 0
vn 0 1 0
vn 0 1 0
vn 0 1 0
vn 0 1 0
vn 0 1 0
vn 0 1 0
vn 0 1 0
vn 0 1 0
vn 0 1 0
vn 0 1 0
vn 0 1 0
vn 0 1 0
vn 0 1 0
vn 0 1 0
vn 0 1 0
vn 0 1 0
vn 0 1 0
vn 0 1 0
vn 0 1 0
vn 0 1 0
vn 0 1 0
vn 0 1 0
vn 0 1 0
vn 0 1 0
vn 0 1 0
vn 0 1 0
vn 0 1 0
vn 0 1 0
vn 0 1 0
vn 0 1 0
vn 0 1 0
vn 0 1 0
vn 0 1 0
vn 0 1 0
vn 0 1 0
vn 0 1 0
vn 0 1 0
vn 0 1 0
vn 0 1 0
vn 0 1 0
vn 0 1 0
vn 0 1 0
vn 0 1 0
vn 0 1 0
vn 0 1 0
vn 0 1 0
vn 0 1 0
vn 0 1 0
vn 0 1 0
vn 0 1 0
vn 0 1 0
vn 0 1 0
vn 0 1 0
vn 0 1 0
vn 0 1 0
vn 0 1 0
vn 0 1 0
vn 0 1 0
vn 0 1 0
vn 0 1 0
vn 0 1 0
vn 0 1 0
vn 0 1 0
vn 0 1 0
vn 0 1 0
vn 0 1 0
vn 0 1 0
vn 0 1 0
vn 0 1 0
vn 0 1 0
vn 0 1 0
vn 0 1 0
vn 0 1 0
vn 0 1 0
vn 0 1 0
vn 0 1 0
vn 0 1 0
vn 0 1 0
vn 0 1 0
vn 0 1 0
vn 0 1 0
vn 0 1 0
vn 0 1 0
vn 0 1 0
vn 0 1 0
vn 0 1 0
vn 0 1 0
vn 0 1 0
vn 0 1 0
vn 0 1 0
vn 0 1 0
vn 0 1 0
vn 0 1 0
vn 0 1 0
vn 0 1 0
vn 0 1 0
vn 0 1 0
vn 0 1 0
vn 0 1 0
vn 0 1 0
vn 0 1 0
vn 0 1 0
vn 0 1 0
vn 0 1 0
vn 0 1 0
vn 0 1 0
vn 0 1 0
vn 0 1 0
vn 0 1 0
vn 0 1 0
vn 0 1 0
vn 0 1 0
vn 0 1 0
vn 0 1 0
vn 0 1 0
vn 0 1 0
vn 0 1 0
vn 0 1 0
vn 0 1 0
vn 0 1 0
vn 0 1 0
vn 0 1 0
vn 0 1 0
vn 0 1 0
vn 0 1 0
vn 0 1 0
vn 0 1 0
vn 0 1 0
vn 0 1 0
vn 0 1 0
vn 0 1 0
vn 0 1 0
vn 0 1 0
vn 0 1 0
vn 0 1 0
vn 0 1 0
vn 0 1 0
vn 0 1 0
vn 0 1 0
vn 0 1 0
vn 0 1 0
vn 0 1 0
vn 0 1 0
vn 0 1 0
vn 0 1 0
vn 0 1 0
vn 0 1 0
vn 0 1 0
vn 0 1 0
vn 0 1 0
vn 0 1 0
vn 0 1 0
vn 0 1 0
vn 0 1 0
vn 0 1 0
g Grass_0_Cluster70_0
f 2/2/2 3/3/3 1/1/1
f 2/2/2 4/4/4 3/3/3
f 6/6/6 7/7/7 5/5/5
f 6/6/6 8/8/8 7/7/7
f 10/10/10 11/11/11 9/9/9
f 10/10/10 12/12/12 11/11/11
f 14/14/14 15/15/15 13/13/13
f 14/14/14 16/16/16 15/15/15
f 18/18/18 19/19/19 17/17/17
f 18/18/18 20/20/20 19/19/19
f 22/22/22 23/23/23 21/21/21
f 22/22/22 24/24/24 23/23/23
f 26/26/26 27/27/27 25/25/25
f 26/26/26 28/28/28 27/27/27
f 30/30/30 31/31/31 29/29/29
f 30/30/30 32/32/32 31/31/31
f 34/34/34 35/35/35 33/33/33
f 34/34/34 36/36/36 35/35/35
f 38/38/38 39/39/39 37/37/37
f 38/38/38 40/40/40 39/39/39
f 42/42/42 43/43/43 41/41/41
f 42/42/42 44/44/44 43/43/43
f 46/46/46 47/47/47 45/45/45
f 46/46/46 48/48/48 47/47/47
f 50/50/50 51/51/51 49/49/49
f 50/50/50 52/52/52 51/51/51
f 54/54/54 55/55/55 53/53/53
f 54/54/54 56/56/56 55/55/55
f 58/58/58 59/59/59 57/57/57
f 58/58/58 60/60/60 59/59/59
f 62/62/62 63/63/63 61/61/61
f 62/62/62 64/64/64 63/63/63
f 66/66/66 67/67/67 65/65/65
f 66/66/66 68/68/68 67/67/67
f 70/70/70 71/71/71 69/69/69
f 70/70/70 72/72/72 71/71/71
f 74/74/74 75/75/75 73/73/73
f 74/74/74 76/76/76 75/75/75
f 78/78/78 79/79/79 77/77/77
f 78/78/78 80/80/80 79/79/79
f 82/82/82 83/83/83 81/81/81
f 82/82/82 84/84/84 83/83/83
f 86/86/86 87/87/87 85/85/85
f 86/86/86 88/88/88 87/87/87
f 90/90/90 91/91/91 89/89/89
f 90/90/90 92/92/92 91/91/91
f 94/94/94 95/95/95 93/93/93
f 94/94/94 96/96/96 95/95/95
f 98/98/98 99/99/99 97/97/97
f 98/98/98 100/100/100 99/99/99
f 102/102/102 103/103/103 101/101/101
f 102/102/102 104/104/104 103/103/103
f 106/106/106 107/107/107 105/105/105
f 106/106/106 108/108/108 107/107/107
f 110/110/110 111/111/111 109/109/109
f 110/110/110 112/112/112 111/111/111
f 114/114/114 115/115/115 113/113/113
f 114/114/114 116/116/116 115/115/115
f 118/118/118 119/119/119 117/117/117
f 118/118/118 120/120/120 119/119/119
f 122/122/122 123/123/123 121/121/121
f 122/122/122 124/124/124 123/123/123
f 126/126/126 127/127/127 125/125/125
f 126/126/126 128/128/128 127/127/127
f 130/130/130 131/131/131 129/129/129
f 130/130/130 132/132/132 131/131/131
f 134/134/134 135/135/135 133/133/133
f 134/134/134 136/136/136 135/135/135
f 138/138/138 139/139/139 137/137/137
f 138/138/138 140/140/140 139/139/139
f 142/142/142 143/143/143 141/141/141
f 142/142/142 144/144/144 143/143/143
f 146/146/146 147/147/147 145/145/145
f 146/146/146 148/148/148 147/147/147
f 150/150/150 151/151/151 149/149/149
f 150/150/150 152/152/152 151/151/151
f 154/154/154 155/155/155 153/153/153
f 154/154/154 156/156/156 155/155/155
f 158/158/158 159/159/159 157/157/157
f 158/158/158 160/160/160 159/159/159
f 162/162/162 163/163/163 161/161/161
f 162/162/162 164/164/164 163/163/163
f 166/166/166 167/167/167 165/165/165
f 166/166/166 168/168/168 167/167/167
f 170/170/170 171/171/171 169/169/169
f 170/170/170 172/172/172 171/171/171
f 174/174/174 175/175/175 173/173/173
f 174/174/174 176/176/176 175/175/175
f 178/178/178 179/179/179 177/177/177
f 178/178/178 180/180/180 179/179/179
f 182/182/182 183/183/183 181/181/181
f 182/182/182 184/184/184 183/183/183
f 186/186/186 187/187/187 185/185/185
f 186/186/186 188/188/188 187/187/187
