g Grass_0_Cluster313
v -112.8572 0 442.7473
v -113.7253 0 442.7473
v -112.8572 0 444.0495
v -113.7253 0 444.0495
v -95.06045 0 441.8792
v -95.92858 0 441.8792
v -95.06045 0 443.1814
v -95.92858 0 443.1814
v -114.5934 0 441.011
v -115.4615 0 441.011
v -114.5934 0 442.3132
v -115.4615 0 442.3132
v -98.09891 0 440.577
v -99.40111 0 440.577
v -98.09891 0 441.8792
v -99.40111 0 441.8792
v -105.9121 0 439.7088
v -106.7802 0 439.7088
v -105.9121 0 440.577
v -106.7802 0 440.577
v -108.0824 0 437.9726
v -108.9506 0 437.9726
v -108.0824 0 439.2748
v -108.9506 0 439.2748
v -96.36265 0 437.1044
v -97.23078 0 437.1044
v -96.36265 0 438.4066
v -97.23078 0 438.4066
v -105.478 0 436.2363
v -106.3462 0 436.2363
v -105.478 0 437.1044
v -106.3462 0 437.1044
v -107.6484 0 435.8022
v -108.5165 0 435.8022
v -107.6484 0 437.1044
v -108.5165 0 437.1044
v -106.3462 0 435.8022
v -107.2143 0 435.8022
v -106.3462 0 437.1044
v -107.2143 0 437.1044
v -110.2528 0 435.3682
v -111.1209 0 435.3682
v -110.2528 0 436.6704
v -111.1209 0 436.6704
v -98.96704 0 434.9341
v -99.83517 0 434.9341
v -98.96704 0 436.2363
v -99.83517 0 436.2363
v -107.2143 0 434.9341
v -108.0824 0 434.9341
v -107.2143 0 436.2363
v -108.0824 0 436.2363
v -105.9121 0 434.9341
v -106.7802 0 434.9341
v -105.9121 0 436.2363
v -106.7802 0 436.2363
v -108.5165 0 434.9341
v -109.8187 0 434.9341
v -108.5165 0 436.2363
v -109.8187 0 436.2363
v -104.6099 0 434.5
v -105.478 0 434.5
v -104.6099 0 435.8022
v -105.478 0 435.8022
v -105.478 0 434.066
v -106.3462 0 434.066
v -105.478 0 435.3682
v -106.3462 0 435.3682
v -108.5165 0 434.066
v -109.3846 0 434.066
v -108.5165 0 435.3682
v -109.3846 0 435.3682
v -102.4396 0 434.066
v -103.3077 0 434.066
v -102.4396 0 435.3682
v -103.3077 0 435.3682
v -103.7418 0 433.6319
v -104.6099 0 433.6319
v -103.7418 0 434.9341
v -104.6099 0 434.9341
v -109.3846 0 433.6319
v -110.2528 0 433.6319
v -109.3846 0 434.9341
v -110.2528 0 434.9341
v -99.40111 0 433.1978
v -100.2692 0 433.1978
v -99.40111 0 434.5
v -100.2692 0 434.5
v -107.6484 0 433.1978
v -108.5165 0 433.1978
v -107.6484 0 434.5
v -108.5165 0 434.5
v -106.3462 0 433.1978
v -107.2143 0 433.1978
v -106.3462 0 434.5
v -107.2143 0 434.5
v -109.3846 0 432.7638
v -110.2528 0 432.7638
v -109.3846 0 434.066
v -110.2528 0 434.066
v -105.478 0 432.7638
v -106.3462 0 432.7638
v -105.478 0 433.6319
v -106.3462 0 433.6319
v -104.1758 0 432.3297
v -105.044 0 432.3297
v -104.1758 0 433.6319
v -105.044 0 433.6319
v -108.0824 0 432.3297
v -108.9506 0 432.3297
v -108.0824 0 433.6319
v -108.9506 0 433.6319
v -103.3077 0 432.3297
v -104.1758 0 432.3297
v -103.3077 0 433.6319
v -104.1758 0 433.6319
v -110.2528 0 432.3297
v -111.1209 0 432.3297
v -110.2528 0 433.1978
v -111.1209 0 433.1978
v -111.555 0 431.8957
v -112.4231 0 431.8957
v -111.555 0 433.1978
v -112.4231 0 433.1978
v -105.9121 0 431.8957
v -107.2143 0 431.8957
v -105.9121 0 433.1978
v -107.2143 0 433.1978
v -107.6484 0 431.8957
v -108.5165 0 431.8957
v -107.6484 0 433.1978
v -108.5165 0 433.1978
v -108.9506 0 431.4616
v -109.8187 0 431.4616
v -108.9506 0 432.7638
v -109.8187 0 432.7638
v -110.6868 0 431.4616
v -111.555 0 431.4616
v -110.6868 0 432.7638
v -111.555 0 432.7638
v -106.7802 0 431.4616
v -107.6484 0 431.4616
v -106.7802 0 432.7638
v -107.6484 0 432.7638
v -109.8187 0 431.0275
v -110.6868 0 431.0275
v -109.8187 0 431.8957
v -110.6868 0 431.8957
v -105.9121 0 430.5934
v -106.7802 0 430.5934
v -105.9121 0 431.8957
v -106.7802 0 431.8957
v -107.6484 0 430.5934
v -108.5165 0 430.5934
v -107.6484 0 431.4616
v -108.5165 0 431.4616
v -108.0824 0 429.7253
v -108.9506 0 429.7253
v -108.0824 0 431.0275
v -108.9506 0 431.0275
v -109.3846 0 429.2913
v -110.2528 0 429.2913
v -109.3846 0 430.5934
v -110.2528 0 430.5934
v -110.2528 0 427.989
v -111.1209 0 427.989
v -110.2528 0 429.2913
v -111.1209 0 429.2913
v -95.92858 0 427.555
v -96.79671 0 427.555
v -95.92858 0 428.8572
v -96.79671 0 428.8572
v -107.2143 0 427.1209
v -108.0824 0 427.1209
v -107.2143 0 428.4231
v -108.0824 0 428.4231
v -93.32419 0 418.4396
v -94.19231 0 418.4396
v -93.32419 0 420.1759
v -94.19231 0 420.1759
v -100.2692 0 416.2693
v -101.1374 0 416.2693
v -100.2692 0 417.5715
v -101.1374 0 417.5715
v -118.0659 0 412.7968
v -118.9341 0 412.7968
v -118.0659 0 414.0989
v -118.9341 0 414.0989
vt 0 0.9058824
vt 0.06666667 0.9058824
vt 0 1
vt 0.06666667 1
vt 0 0.9058824
vt 0.06666667 0.9058824
vt 0 1
vt 0.06666667 1
vt 0 0.9058824
vt 0.06666667 0.9058824
vt 0 1
vt 0.06666667 1
vt 0 0.9058824
vt 0.06666667 0.9058824
vt 0 1
vt 0.06666667 1
vt 0 0.9058824
vt 0.06666667 0.9058824
vt 0 1
vt 0.06666667 1
vt 0 0.9058824
vt 0.06666667 0.9058824
vt 0 1
vt 0.06666667 1
vt 0 0.9058824
vt 0.06666667 0.9058824
vt 0 1
vt 0.06666667 1
vt 0 0.9058824
vt 0.06666667 0.9058824
vt 0 1
vt 0.06666667 1
vt 0 0.9058824
vt 0.06666667 0.9058824
vt 0 1
vt 0.06666667 1
vt 0 0.9058824
vt 0.06666667 0.9058824
vt 0 1
vt 0.06666667 1
vt 0 0.9058824
vt 0.06666667 0.9058824
vt 0 1
vt 0.06666667 1
vt 0 0.9058824
vt 0.06666667 0.9058824
vt 0 1
vt 0.06666667 1
vt 0 0.9058824
vt 0.06666667 0.9058824
vt 0 1
vt 0.06666667 1
vt 0 0.9058824
vt 0.06666667 0.9058824
vt 0 1
vt 0.06666667 1
vt 0 0.9058824
vt 0.06666667 0.9058824
vt 0 1
vt 0.06666667 1
vt 0 0.9058824
vt 0.06666667 0.9058824
vt 0 1
vt 0.06666667 1
vt 0 0.9058824
vt 0.06666667 0.9058824
vt 0 1
vt 0.06666667 1
vt 0 0.9058824
vt 0.06666667 0.9058824
vt 0 1
vt 0.06666667 1
vt 0 0.9058824
vt 0.06666667 0.9058824
vt 0 1
vt 0.06666667 1
vt 0 0.9058824
vt 0.06666667 0.9058824
vt 0 1
vt 0.06666667 1
vt 0 0.9058824
vt 0.06666667 0.9058824
vt 0 1
vt 0.06666667 1
vt 0 0.9058824
vt 0.06666667 0.9058824
vt 0 1
vt 0.06666667 1
vt 0 0.9058824
vt 0.06666667 0.9058824
vt 0 1
vt 0.06666667 1
vt 0 0.9058824
vt 0.06666667 0.9058824
vt 0 1
vt 0.06666667 1
vt 0 0.9058824
vt 0.06666667 0.9058824
vt 0 1
vt 0.06666667 1
vt 0 0.9058824
vt 0.06666667 0.9058824
vt 0 1
vt 0.06666667 1
vt 0 0.9058824
vt 0.06666667 0.9058824
vt 0 1
vt 0.06666667 1
vt 0 0.9058824
vt 0.06666667 0.9058824
vt 0 1
vt 0.06666667 1
vt 0 0.9058824
vt 0.06666667 0.9058824
vt 0 1
vt 0.06666667 1
vt 0 0.9058824
vt 0.06666667 0.9058824
vt 0 1
vt 0.06666667 1
vt 0 0.9058824
vt 0.06666667 0.9058824
vt 0 1
vt 0.06666667 1
vt 0 0.9058824
vt 0.06666667 0.9058824
vt 0 1
vt 0.06666667 1
vt 0 0.9058824
vt 0.06666667 0.9058824
vt 0 1
vt 0.06666667 1
vt 0 0.9058824
vt 0.06666667 0.9058824
vt 0 1
vt 0.06666667 1
vt 0 0.9058824
vt 0.06666667 0.9058824
vt 0 1
vt 0.06666667 1
vt 0 0.9058824
vt 0.06666667 0.9058824
vt 0 1
vt 0.06666667 1
vt 0 0.9058824
vt 0.06666667 0.9058824
vt 0 1
vt 0.06666667 1
vt 0 0.9058824
vt 0.06666667 0.9058824
vt 0 1
vt 0.06666667 1
vt 0 0.9058824
vt 0.06666667 0.9058824
vt 0 1
vt 0.06666667 1
vt 0 0.9058824
vt 0.06666667 0.9058824
vt 0 1
vt 0.06666667 1
vt 0 0.9058824
vt 0.06666667 0.9058824
vt 0 1
vt 0.06666667 1
vt 0 0.9058824
vt 0.06666667 0.9058824
vt 0 1
vt 0.06666667 1
vt 0 0.9058824
vt 0.06666667 0.9058824
vt 0 1
vt 0.06666667 1
vt 0 0.9058824
vt 0.06666667 0.9058824
vt 0 1
vt 0.06666667 1
vt 0 0.9058824
vt 0.06666667 0.9058824
vt 0 1
vt 0.06666667 1
vt 0 0.9058824
vt 0.06666667 0.9058824
vt 0 1
vt 0.06666667 1
vt 0 0.9058824
vt 0.06666667 0.9058824
vt 0 1
vt 0.06666667 1
vn 0 1 0
vn 0 1 0
vn 0 1 0
vn 0 1 0
vn 0 1 0
vn 0 1 0
vn 0 1 0
vn 0 1 0
vn 0 1 0
vn 0 1 0
vn 0 1 0
vn 0 1 0
vn 0 1 0
vn 0 1 0
vn 0 1 0
vn 0 1 0
vn 0 1 0
vn 0 1 0
vn 0 1 0
vn 0 1 0
vn 0 1 0
vn 0 1 0
vn 0 1 0
vn 0 1 0
vn 0 1 0
vn 0 1 0
vn 0 1 0
vn 0 1 0
vn 0 1 0
vn 0 1 0
vn 0 1 0
vn 0 1 0
vn 0 1 0
vn 0 1 0
vn 0 1 0
vn 0 1 0
vn 0 1 0
vn 0 1 0
vn 0 1 0
vn 0 1 0
vn 0 1 0
vn 0 1 0
vn 0 1 0
vn 0 1 0
vn 0 1 0
vn 0 1 0
vn 0 1 0
vn 0 1 0
vn 0 1 0
vn 0 1 0
vn 0 1 0
vn 0 1 0
vn 0 1 0
vn 0 1 0
vn 0 1 0
vn 0 1 0
vn 0 1 0
vn 0 1 0
vn 0 1 0
vn 0 1 0
vn 0 1 0
vn 0 1 0
vn 0 1 0
vn 0 1 0
vn 0 1 0
vn 0 1 0
vn 0 1 0
vn 0 1 0
vn 0 1 0
vn 0 1 0
vn 0 1 0
vn 0 1 0
vn 0 1 0
vn 0 1 0
vn 0 1 0
vn 0 1 0
vn 0 1 0
vn 0 1 0
vn 0 1 0
vn 0 1 0
vn 0 1 0
vn 0 1 0
vn 0 1 0
vn 0 1 0
vn 0 1 0
vn 0 1 0
vn 0 1 0
vn 0 1 0
vn 0 1 0
vn 0 1 0
vn 0 1 0
vn 0 1 0
vn 0 1 0
vn 0 1 0
vn 0 1 0
vn 0 1 0
vn 0 1 0
vn 0 1 0
vn 0 1 0
vn 0 1 0
vn 0 1 0
vn 0 1 0
vn 0 1 0
vn 0 1 0
vn 0 1 0
vn 0 1 0
vn 0 1 0
vn 0 1 0
vn 0 1 0
vn 0 1 0
vn 0 1 0
vn 0 1 0
vn 0 1 0
vn 0 1 0
vn 0 1 0
vn 0 1 0
vn 0 1 0
vn 0 1 0
vn 0 1 0
vn 0 1 0
vn 0 1 0
vn 0 1 0
vn 0 1 0
vn 0 1 0
vn 0 1 0
vn 0 1 0
vn 0 1 0
vn 0 1 0
vn 0 1 0
vn 0 1 0
vn 0 1 0
vn 0 1 0
vn 0 1 0
vn 0 1 0
vn 0 1 0
vn 0 1 0
vn 0 1 0
vn 0 1 0
vn 0 1 0
vn 0 1 0
vn 0 1 0
vn 0 1 0
vn 0 1 0
vn 0 1 0
vn 0 1 0
vn 0 1 0
vn 0 1 0
vn 0 1 0
vn 0 1 0
vn 0 1 0
vn 0 1 0
vn 0 1 0
vn 0 1 0
vn 0 1 0
vn 0 1 0
vn 0 1 0
vn 0 1 0
vn 0 1 0
vn 0 1 0
vn 0 1 0
vn 0 1 0
vn 0 1 0
vn 0 1 0
vn 0 1 0
vn 0 1 0
vn 0 1 0
vn 0 1 0
vn 0 1 0
vn 0 1 0
vn 0 1 0
vn 0 1 0
vn 0 1 0
vn 0 1 0
vn 0 1 0
vn 0 1 0
vn 0 1 0
vn 0 1 0
vn 0 1 0
vn 0 1 0
vn 0 1 0
vn 0 1 0
vn 0 1 0
vn 0 1 0
vn 0 1 0
vn 0 1 0
vn 0 1 0
vn 0 1 0
vn 0 1 0
g Grass_0_Cluster313_0
f 2/2/2 3/3/3 1/1/1
f 2/2/2 4/4/4 3/3/3
f 6/6/6 7/7/7 5/5/5
f 6/6/6 8/8/8 7/7/7
f 10/10/10 11/11/11 9/9/9
f 10/10/10 12/12/12 11/11/11
f 14/14/14 15/15/15 13/13/13
f 14/14/14 16/16/16 15/15/15
f 18/18/18 19/19/19 17/17/17
f 18/18/18 20/20/20 19/19/19
f 22/22/22 23/23/23 21/21/21
f 22/22/22 24/24/24 23/23/23
f 26/26/26 27/27/27 25/25/25
f 26/26/26 28/28/28 27/27/27
f 30/30/30 31/31/31 29/29/29
f 30/30/30 32/32/32 31/31/31
f 34/34/34 35/35/35 33/33/33
f 34/34/34 36/36/36 35/35/35
f 38/38/38 39/39/39 37/37/37
f 38/38/38 40/40/40 39/39/39
f 42/42/42 43/43/43 41/41/41
f 42/42/42 44/44/44 43/43/43
f 46/46/46 47/47/47 45/45/45
f 46/46/46 48/48/48 47/47/47
f 50/50/50 51/51/51 49/49/49
f 50/50/50 52/52/52 51/51/51
f 54/54/54 55/55/55 53/53/53
f 54/54/54 56/56/56 55/55/55
f 58/58/58 59/59/59 57/57/57
f 58/58/58 60/60/60 59/59/59
f 62/62/62 63/63/63 61/61/61
f 62/62/62 64/64/64 63/63/63
f 66/66/66 67/67/67 65/65/65
f 66/66/66 68/68/68 67/67/67
f 70/70/70 71/71/71 69/69/69
f 70/70/70 72/72/72 71/71/71
f 74/74/74 75/75/75 73/73/73
f 74/74/74 76/76/76 75/75/75
f 78/78/78 79/79/79 77/77/77
f 78/78/78 80/80/80 79/79/79
f 82/82/82 83/83/83 81/81/81
f 82/82/82 84/84/84 83/83/83
f 86/86/86 87/87/87 85/85/85
f 86/86/86 88/88/88 87/87/87
f 90/90/90 91/91/91 89/89/89
f 90/90/90 92/92/92 91/91/91
f 94/94/94 95/95/95 93/93/93
f 94/94/94 96/96/96 95/95/95
f 98/98/98 99/99/99 97/97/97
f 98/98/98 100/100/100 99/99/99
f 102/102/102 103/103/103 101/101/101
f 102/102/102 104/104/104 103/103/103
f 106/106/106 107/107/107 105/105/105
f 106/106/106 108/108/108 107/107/107
f 110/110/110 111/111/111 109/109/109
f 110/110/110 112/112/112 111/111/111
f 114/114/114 115/115/115 113/113/113
f 114/114/114 116/116/116 115/115/115
f 118/118/118 119/119/119 117/117/117
f 118/118/118 120/120/120 119/119/119
f 122/122/122 123/123/123 121/121/121
f 122/122/122 124/124/124 123/123/123
f 126/126/126 127/127/127 125/125/125
f 126/126/126 128/128/128 127/127/127
f 130/130/130 131/131/131 129/129/129
f 130/130/130 132/132/132 131/131/131
f 134/134/134 135/135/135 133/133/133
f 134/134/134 136/136/136 135/135/135
f 138/138/138 139/139/139 137/137/137
f 138/138/138 140/140/140 139/139/139
f 142/142/142 143/143/143 141/141/141
f 142/142/142 144/144/144 143/143/143
f 146/146/146 147/147/147 145/145/145
f 146/146/146 148/148/148 147/147/147
f 150/150/150 151/151/151 149/149/149
f 150/150/150 152/152/152 151/151/151
f 154/154/154 155/155/155 153/153/153
f 154/154/154 156/156/156 155/155/155
f 158/158/158 159/159/159 157/157/157
f 158/158/158 160/160/160 159/159/159
f 162/162/162 163/163/163 161/161/161
f 162/162/162 164/164/164 163/163/163
f 166/166/166 167/167/167 165/165/165
f 166/166/166 168/168/168 167/167/167
f 170/170/170 171/171/171 169/169/169
f 170/170/170 172/172/172 171/171/171
f 174/174/174 175/175/175 173/173/173
f 174/174/174 176/176/176 175/175/175
f 178/178/178 179/179/179 177/177/177
f 178/178/178 180/180/180 179/179/179
f 182/182/182 183/183/183 181/181/181
f 182/182/182 184/184/184 183/183/183
f 186/186/186 187/187/187 185/185/185
f 186/186/186 188/188/188 187/187/187
