g Grass_0_Cluster262
v 230.1425 -0.04408264 382.8445
v 228.925 -0.04408264 382.8445
v 230.1425 -0.04408264 384.062
v 228.925 -0.04408264 384.062
v 219.7941 -0.04408264 380.4096
v 219.1854 -0.04408264 380.4096
v 219.7941 -0.04408264 381.6271
v 219.1854 -0.04408264 381.6271
v 212.4894 -0.04408264 376.7573
v 211.272 -0.04408264 376.7573
v 212.4894 -0.04408264 377.9747
v 211.272 -0.04408264 377.9747
v 217.9679 -0.04408264 375.5398
v 217.3592 -0.04408264 375.5398
v 217.9679 -0.04408264 376.7573
v 217.3592 -0.04408264 376.7573
v 227.7076 -0.04408264 374.9311
v 226.4901 -0.04408264 374.9311
v 227.7076 -0.04408264 376.1486
v 226.4901 -0.04408264 376.1486
v 221.0116 -0.04408264 374.3224
v 220.4028 -0.04408264 374.3224
v 221.0116 -0.04408264 375.5398
v 220.4028 -0.04408264 375.5398
v 224.0552 -0.04408264 373.1049
v 222.8378 -0.04408264 373.1049
v 224.0552 -0.04408264 374.3224
v 222.8378 -0.04408264 374.3224
v 213.7069 -0.04408264 370.0613
v 213.0981 -0.04408264 370.0613
v 213.7069 -0.04408264 371.2787
v 213.0981 -0.04408264 371.2787
v 238.6646 -0.04408264 369.4526
v 238.0559 -0.04408264 369.4526
v 238.6646 -0.04408264 370.67
v 238.0559 -0.04408264 370.67
v 210.6632 -0.04408264 368.8438
v 209.4458 -0.04408264 368.8438
v 210.6632 -0.04408264 370.0613
v 209.4458 -0.04408264 370.0613
v 213.0981 -0.04408264 368.2351
v 212.4894 -0.04408264 368.2351
v 213.0981 -0.04408264 369.4526
v 212.4894 -0.04408264 369.4526
v 216.1418 -0.04408264 367.6264
v 214.9243 -0.04408264 367.6264
v 216.1418 -0.04408264 368.8438
v 214.9243 -0.04408264 368.8438
v 214.3156 -0.04408264 366.4089
v 213.0981 -0.04408264 366.4089
v 214.3156 -0.04408264 367.6264
v 213.0981 -0.04408264 367.6264
v 213.0981 -0.04408264 365.8002
v 211.8807 -0.04408264 365.8002
v 213.0981 -0.04408264 367.0176
v 211.8807 -0.04408264 367.0176
v 214.3156 -0.04408264 365.8002
v 213.0981 -0.04408264 365.8002
v 214.3156 -0.04408264 367.0176
v 213.0981 -0.04408264 367.0176
v 211.272 -0.04408264 365.8002
v 210.0545 -0.04408264 365.8002
v 211.272 -0.04408264 367.0176
v 210.0545 -0.04408264 367.0176
v 212.4894 -0.04408264 365.1915
v 211.8807 -0.04408264 365.1915
v 212.4894 -0.04408264 366.4089
v 211.8807 -0.04408264 366.4089
v 215.5331 -0.04408264 364.5828
v 214.9243 -0.04408264 364.5828
v 215.5331 -0.04408264 365.8002
v 214.9243 -0.04408264 365.8002
v 213.0981 -0.04408264 364.5828
v 212.4894 -0.04408264 364.5828
v 213.0981 -0.04408264 365.8002
v 212.4894 -0.04408264 365.8002
v 217.9679 -0.04408264 364.5828
v 217.3592 -0.04408264 364.5828
v 217.9679 -0.04408264 365.8002
v 217.3592 -0.04408264 365.8002
v 214.3156 -0.04408264 363.974
v 213.7069 -0.04408264 363.974
v 214.3156 -0.04408264 365.1915
v 213.7069 -0.04408264 365.1915
v 214.3156 -0.04408264 363.974
v 213.7069 -0.04408264 363.974
v 214.3156 -0.04408264 365.1915
v 213.7069 -0.04408264 365.1915
v 216.1418 -0.04408264 363.974
v 215.5331 -0.04408264 363.974
v 216.1418 -0.04408264 364.5828
v 215.5331 -0.04408264 364.5828
v 215.5331 -0.04408264 363.3653
v 214.9243 -0.04408264 363.3653
v 215.5331 -0.04408264 365.1915
v 214.9243 -0.04408264 365.1915
v 222.8378 -0.04408264 363.3653
v 222.229 -0.04408264 363.3653
v 222.8378 -0.04408264 364.5828
v 222.229 -0.04408264 364.5828
v 236.8385 -0.04408264 363.3653
v 235.621 -0.04408264 363.3653
v 236.8385 -0.04408264 364.5828
v 235.621 -0.04408264 364.5828
v 238.0559 -0.04408264 362.7566
v 237.4472 -0.04408264 362.7566
v 238.0559 -0.04408264 363.974
v 237.4472 -0.04408264 363.974
v 219.1854 -0.04408264 362.7566
v 218.5767 -0.04408264 362.7566
v 219.1854 -0.04408264 363.3653
v 218.5767 -0.04408264 363.3653
v 216.7505 -0.04408264 362.1478
v 216.1418 -0.04408264 362.1478
v 216.7505 -0.04408264 363.3653
v 216.1418 -0.04408264 363.3653
v 214.3156 -0.04408264 361.5391
v 213.0981 -0.04408264 361.5391
v 214.3156 -0.04408264 362.7566
v 213.0981 -0.04408264 362.7566
v 214.9243 -0.04408264 361.5391
v 214.3156 -0.04408264 361.5391
v 214.9243 -0.04408264 362.7566
v 214.3156 -0.04408264 362.7566
v 221.0116 -0.04408264 361.5391
v 219.7941 -0.04408264 361.5391
v 221.0116 -0.04408264 362.7566
v 219.7941 -0.04408264 362.7566
v 217.9679 -0.04408264 361.5391
v 217.3592 -0.04408264 361.5391
v 217.9679 -0.04408264 362.7566
v 217.3592 -0.04408264 362.7566
v 219.7941 -0.04408264 360.9304
v 218.5767 -0.04408264 360.9304
v 219.7941 -0.04408264 362.1478
v 218.5767 -0.04408264 362.1478
v 213.0981 -0.04408264 360.9304
v 212.4894 -0.04408264 360.9304
v 213.0981 -0.04408264 362.1478
v 212.4894 -0.04408264 362.1478
v 220.4028 -0.04408264 360.3217
v 219.7941 -0.04408264 360.3217
v 220.4028 -0.04408264 361.5391
v 219.7941 -0.04408264 361.5391
vt 0 0.9058824
vt 0.06666667 0.9058824
vt 0 1
vt 0.06666667 1
vt 0 0.9058824
vt 0.06666667 0.9058824
vt 0 1
vt 0.06666667 1
vt 0 0.9058824
vt 0.06666667 0.9058824
vt 0 1
vt 0.06666667 1
vt 0 0.9058824
vt 0.06666667 0.9058824
vt 0 1
vt 0.06666667 1
vt 0 0.9058824
vt 0.06666667 0.9058824
vt 0 1
vt 0.06666667 1
vt 0 0.9058824
vt 0.06666667 0.9058824
vt 0 1
vt 0.06666667 1
vt 0 0.9058824
vt 0.06666667 0.9058824
vt 0 1
vt 0.06666667 1
vt 0 0.9058824
vt 0.06666667 0.9058824
vt 0 1
vt 0.06666667 1
vt 0 0.9058824
vt 0.06666667 0.9058824
vt 0 1
vt 0.06666667 1
vt 0 0.9058824
vt 0.06666667 0.9058824
vt 0 1
vt 0.06666667 1
vt 0 0.9058824
vt 0.06666667 0.9058824
vt 0 1
vt 0.06666667 1
vt 0 0.9058824
vt 0.06666667 0.9058824
vt 0 1
vt 0.06666667 1
vt 0 0.9058824
vt 0.06666667 0.9058824
vt 0 1
vt 0.06666667 1
vt 0 0.9058824
vt 0.06666667 0.9058824
vt 0 1
vt 0.06666667 1
vt 0 0.9058824
vt 0.06666667 0.9058824
vt 0 1
vt 0.06666667 1
vt 0 0.9058824
vt 0.06666667 0.9058824
vt 0 1
vt 0.06666667 1
vt 0 0.9058824
vt 0.06666667 0.9058824
vt 0 1
vt 0.06666667 1
vt 0 0.9058824
vt 0.06666667 0.9058824
vt 0 1
vt 0.06666667 1
vt 0 0.9058824
vt 0.06666667 0.9058824
vt 0 1
vt 0.06666667 1
vt 0 0.9058824
vt 0.06666667 0.9058824
vt 0 1
vt 0.06666667 1
vt 0 0.9058824
vt 0.06666667 0.9058824
vt 0 1
vt 0.06666667 1
vt 0 0.9058824
vt 0.06666667 0.9058824
vt 0 1
vt 0.06666667 1
vt 0 0.9058824
vt 0.06666667 0.9058824
vt 0 1
vt 0.06666667 1
vt 0 0.9058824
vt 0.06666667 0.9058824
vt 0 1
vt 0.06666667 1
vt 0 0.9058824
vt 0.06666667 0.9058824
vt 0 1
vt 0.06666667 1
vt 0 0.9058824
vt 0.06666667 0.9058824
vt 0 1
vt 0.06666667 1
vt 0 0.9058824
vt 0.06666667 0.9058824
vt 0 1
vt 0.06666667 1
vt 0 0.9058824
vt 0.06666667 0.9058824
vt 0 1
vt 0.06666667 1
vt 0 0.9058824
vt 0.06666667 0.9058824
vt 0 1
vt 0.06666667 1
vt 0 0.9058824
vt 0.06666667 0.9058824
vt 0 1
vt 0.06666667 1
vt 0 0.9058824
vt 0.06666667 0.9058824
vt 0 1
vt 0.06666667 1
vt 0 0.9058824
vt 0.06666667 0.9058824
vt 0 1
vt 0.06666667 1
vt 0 0.9058824
vt 0.06666667 0.9058824
vt 0 1
vt 0.06666667 1
vt 0 0.9058824
vt 0.06666667 0.9058824
vt 0 1
vt 0.06666667 1
vt 0 0.9058824
vt 0.06666667 0.9058824
vt 0 1
vt 0.06666667 1
vt 0 0.9058824
vt 0.06666667 0.9058824
vt 0 1
vt 0.06666667 1
vn 0 1 0
vn 0 1 0
vn 0 1 0
vn 0 1 0
vn 0 1 0
vn 0 1 0
vn 0 1 0
vn 0 1 0
vn 0 1 0
vn 0 1 0
vn 0 1 0
vn 0 1 0
vn 0 1 0
vn 0 1 0
vn 0 1 0
vn 0 1 0
vn 0 1 0
vn 0 1 0
vn 0 1 0
vn 0 1 0
vn 0 1 0
vn 0 1 0
vn 0 1 0
vn 0 1 0
vn 0 1 0
vn 0 1 0
vn 0 1 0
vn 0 1 0
vn 0 1 0
vn 0 1 0
vn 0 1 0
vn 0 1 0
vn 0 1 0
vn 0 1 0
vn 0 1 0
vn 0 1 0
vn 0 1 0
vn 0 1 0
vn 0 1 0
vn 0 1 0
vn 0 1 0
vn 0 1 0
vn 0 1 0
vn 0 1 0
vn 0 1 0
vn 0 1 0
vn 0 1 0
vn 0 1 0
vn 0 1 0
vn 0 1 0
vn 0 1 0
vn 0 1 0
vn 0 1 0
vn 0 1 0
vn 0 1 0
vn 0 1 0
vn 0 1 0
vn 0 1 0
vn 0 1 0
vn 0 1 0
vn 0 1 0
vn 0 1 0
vn 0 1 0
vn 0 1 0
vn 0 1 0
vn 0 1 0
vn 0 1 0
vn 0 1 0
vn 0 1 0
vn 0 1 0
vn 0 1 0
vn 0 1 0
vn 0 1 0
vn 0 1 0
vn 0 1 0
vn 0 1 0
vn 0 1 0
vn 0 1 0
vn 0 1 0
vn 0 1 0
vn 0 1 0
vn 0 1 0
vn 0 1 0
vn 0 1 0
vn 0 1 0
vn 0 1 0
vn 0 1 0
vn 0 1 0
vn 0 1 0
vn 0 1 0
vn 0 1 0
vn 0 1 0
vn 0 1 0
vn 0 1 0
vn 0 1 0
vn 0 1 0
vn 0 1 0
vn 0 1 0
vn 0 1 0
vn 0 1 0
vn 0 1 0
vn 0 1 0
vn 0 1 0
vn 0 1 0
vn 0 1 0
vn 0 1 0
vn 0 1 0
vn 0 1 0
vn 0 1 0
vn 0 1 0
vn 0 1 0
vn 0 1 0
vn 0 1 0
vn 0 1 0
vn 0 1 0
vn 0 1 0
vn 0 1 0
vn 0 1 0
vn 0 1 0
vn 0 1 0
vn 0 1 0
vn 0 1 0
vn 0 1 0
vn 0 1 0
vn 0 1 0
vn 0 1 0
vn 0 1 0
vn 0 1 0
vn 0 1 0
vn 0 1 0
vn 0 1 0
vn 0 1 0
vn 0 1 0
vn 0 1 0
vn 0 1 0
vn 0 1 0
vn 0 1 0
vn 0 1 0
vn 0 1 0
vn 0 1 0
vn 0 1 0
vn 0 1 0
vn 0 1 0
vn 0 1 0
g Grass_0_Cluster262_0
f 2/2/2 3/3/3 1/1/1
f 2/2/2 4/4/4 3/3/3
f 6/6/6 7/7/7 5/5/5
f 6/6/6 8/8/8 7/7/7
f 10/10/10 11/11/11 9/9/9
f 10/10/10 12/12/12 11/11/11
f 14/14/14 15/15/15 13/13/13
f 14/14/14 16/16/16 15/15/15
f 18/18/18 19/19/19 17/17/17
f 18/18/18 20/20/20 19/19/19
f 22/22/22 23/23/23 21/21/21
f 22/22/22 24/24/24 23/23/23
f 26/26/26 27/27/27 25/25/25
f 26/26/26 28/28/28 27/27/27
f 30/30/30 31/31/31 29/29/29
f 30/30/30 32/32/32 31/31/31
f 34/34/34 35/35/35 33/33/33
f 34/34/34 36/36/36 35/35/35
f 38/38/38 39/39/39 37/37/37
f 38/38/38 40/40/40 39/39/39
f 42/42/42 43/43/43 41/41/41
f 42/42/42 44/44/44 43/43/43
f 46/46/46 47/47/47 45/45/45
f 46/46/46 48/48/48 47/47/47
f 50/50/50 51/51/51 49/49/49
f 50/50/50 52/52/52 51/51/51
f 54/54/54 55/55/55 53/53/53
f 54/54/54 56/56/56 55/55/55
f 58/58/58 59/59/59 57/57/57
f 58/58/58 60/60/60 59/59/59
f 62/62/62 63/63/63 61/61/61
f 62/62/62 64/64/64 63/63/63
f 66/66/66 67/67/67 65/65/65
f 66/66/66 68/68/68 67/67/67
f 70/70/70 71/71/71 69/69/69
f 70/70/70 72/72/72 71/71/71
f 74/74/74 75/75/75 73/73/73
f 74/74/74 76/76/76 75/75/75
f 78/78/78 79/79/79 77/77/77
f 78/78/78 80/80/80 79/79/79
f 82/82/82 83/83/83 81/81/81
f 82/82/82 84/84/84 83/83/83
f 86/86/86 87/87/87 85/85/85
f 86/86/86 88/88/88 87/87/87
f 90/90/90 91/91/91 89/89/89
f 90/90/90 92/92/92 91/91/91
f 94/94/94 95/95/95 93/93/93
f 94/94/94 96/96/96 95/95/95
f 98/98/98 99/99/99 97/97/97
f 98/98/98 100/100/100 99/99/99
f 102/102/102 103/103/103 101/101/101
f 102/102/102 104/104/104 103/103/103
f 106/106/106 107/107/107 105/105/105
f 106/106/106 108/108/108 107/107/107
f 110/110/110 111/111/111 109/109/109
f 110/110/110 112/112/112 111/111/111
f 114/114/114 115/115/115 113/113/113
f 114/114/114 116/116/116 115/115/115
f 118/118/118 119/119/119 117/117/117
f 118/118/118 120/120/120 119/119/119
f 122/122/122 123/123/123 121/121/121
f 122/122/122 124/124/124 123/123/123
f 126/126/126 127/127/127 125/125/125
f 126/126/126 128/128/128 127/127/127
f 130/130/130 131/131/131 129/129/129
f 130/130/130 132/132/132 131/131/131
f 134/134/134 135/135/135 133/133/133
f 134/134/134 136/136/136 135/135/135
f 138/138/138 139/139/139 137/137/137
f 138/138/138 140/140/140 139/139/139
f 142/142/142 143/143/143 141/141/141
f 142/142/142 144/144/144 143/143/143
