g Grass_0_Cluster237
v -211.6548 0 318.1065
v -212.5913 0 318.1065
v -211.6548 0 319.3552
v -212.5913 0 319.3552
v -218.2104 0 318.1065
v -219.147 0 318.1065
v -218.2104 0 319.3552
v -219.147 0 319.3552
v -216.3374 0 317.4821
v -217.2739 0 317.4821
v -216.3374 0 318.7308
v -217.2739 0 318.7308
v -231.9462 0 317.17
v -232.5705 0 317.17
v -231.9462 0 318.1065
v -232.5705 0 318.1065
v -218.5226 0 316.8578
v -219.4591 0 316.8578
v -218.5226 0 318.1065
v -219.4591 0 318.1065
v -215.4009 0 316.2334
v -216.3374 0 316.2334
v -215.4009 0 317.4821
v -216.3374 0 317.4821
v -217.8983 0 316.2334
v -218.8348 0 316.2334
v -217.8983 0 317.4821
v -218.8348 0 317.4821
v -221.02 0 315.9213
v -221.9565 0 315.9213
v -221.02 0 316.8578
v -221.9565 0 316.8578
v -215.0887 0 315.6091
v -216.0252 0 315.6091
v -215.0887 0 316.8578
v -216.0252 0 316.8578
v -225.7026 0 315.2969
v -226.6392 0 315.2969
v -225.7026 0 316.5456
v -226.6392 0 316.5456
v -213.2156 0 314.6726
v -214.1522 0 314.6726
v -213.2156 0 315.9213
v -214.1522 0 315.9213
v -216.6496 0 314.6726
v -217.5861 0 314.6726
v -216.6496 0 315.9213
v -217.5861 0 315.9213
v -218.8348 0 314.3604
v -219.7713 0 314.3604
v -218.8348 0 315.6091
v -219.7713 0 315.6091
v -214.1522 0 314.0482
v -215.0887 0 314.0482
v -214.1522 0 315.2969
v -215.0887 0 315.2969
v -216.9617 0 313.736
v -217.8983 0 313.736
v -216.9617 0 314.9847
v -217.8983 0 314.9847
v -214.4643 0 312.1752
v -215.4009 0 312.1752
v -214.4643 0 313.4239
v -215.4009 0 313.4239
v -236.0044 0 312.1752
v -236.9409 0 312.1752
v -236.0044 0 313.4239
v -236.9409 0 313.4239
v -228.2 0 311.863
v -229.1366 0 311.863
v -228.2 0 313.1117
v -229.1366 0 313.1117
v -238.1897 0 311.2386
v -238.814 0 311.2386
v -238.1897 0 312.4873
v -238.814 0 312.4873
v -215.4009 0 311.2386
v -216.3374 0 311.2386
v -215.4009 0 312.4873
v -216.3374 0 312.4873
v -231.0096 0 310.9265
v -231.9462 0 310.9265
v -231.0096 0 312.1752
v -231.9462 0 312.1752
v -237.2531 0 309.6778
v -238.1897 0 309.6778
v -237.2531 0 310.9265
v -238.1897 0 310.9265
v -216.3374 0 309.3656
v -217.2739 0 309.3656
v -216.3374 0 310.6143
v -217.2739 0 310.6143
v -238.814 0 309.3656
v -239.4384 0 309.3656
v -238.814 0 310.3021
v -239.4384 0 310.3021
v -235.3801 0 307.4925
v -236.3166 0 307.4925
v -235.3801 0 308.7412
v -236.3166 0 308.7412
v -232.2583 0 307.1804
v -233.1948 0 307.1804
v -232.2583 0 308.429
v -233.1948 0 308.429
v -238.1897 0 306.556
v -239.1262 0 306.556
v -238.1897 0 307.8047
v -239.1262 0 307.8047
v -237.8775 0 305.9317
v -238.814 0 305.9317
v -237.8775 0 307.1804
v -238.814 0 307.1804
v -236.9409 0 305.6195
v -237.8775 0 305.6195
v -236.9409 0 307.1804
v -237.8775 0 307.1804
v -239.1262 0 305.3073
v -240.0627 0 305.3073
v -239.1262 0 306.8682
v -240.0627 0 306.8682
v -229.7609 0 305.3073
v -230.6974 0 305.3073
v -229.7609 0 306.556
v -230.6974 0 306.556
v -234.7557 0 304.9951
v -235.6922 0 304.9951
v -234.7557 0 306.2438
v -235.6922 0 306.2438
v -237.5653 0 304.683
v -238.5018 0 304.683
v -237.5653 0 305.6195
v -238.5018 0 305.6195
v -239.1262 0 304.3708
v -240.0627 0 304.3708
v -239.1262 0 305.6195
v -240.0627 0 305.6195
v -227.2635 0 304.0586
v -228.2 0 304.0586
v -227.2635 0 305.3073
v -228.2 0 305.3073
v -238.5018 0 303.7464
v -239.4384 0 303.7464
v -238.5018 0 304.9951
v -239.4384 0 304.9951
v -235.3801 0 303.4343
v -236.3166 0 303.4343
v -235.3801 0 304.683
v -236.3166 0 304.683
v -228.2 0 303.1221
v -229.1366 0 303.1221
v -228.2 0 304.3708
v -229.1366 0 304.3708
v -237.2531 0 302.8099
v -237.8775 0 302.8099
v -237.2531 0 304.0586
v -237.8775 0 304.0586
v -238.814 0 302.8099
v -239.7505 0 302.8099
v -238.814 0 304.0586
v -239.7505 0 304.0586
v -233.507 0 301.8734
v -234.4435 0 301.8734
v -233.507 0 303.1221
v -234.4435 0 303.1221
v -228.2 0 301.5612
v -228.8244 0 301.5612
v -228.2 0 302.8099
v -228.8244 0 302.8099
v -237.5653 0 301.249
v -238.5018 0 301.249
v -237.5653 0 302.4977
v -238.5018 0 302.4977
v -228.5122 0 300.3125
v -229.4487 0 300.3125
v -228.5122 0 301.5612
v -229.4487 0 301.5612
v -231.0096 0 300.0003
v -231.9462 0 300.0003
v -231.0096 0 301.249
v -231.9462 0 301.249
v -227.5757 0 300.0003
v -228.5122 0 300.0003
v -227.5757 0 301.249
v -228.5122 0 301.249
v -228.8244 0 299.6881
v -229.7609 0 299.6881
v -228.8244 0 300.9369
v -229.7609 0 300.9369
v -230.0731 0 299.0638
v -231.0096 0 299.0638
v -230.0731 0 300.3125
v -231.0096 0 300.3125
v -238.5018 0 297.5029
v -239.1262 0 297.5029
v -238.5018 0 299.0638
v -239.1262 0 299.0638
v -226.6392 0 295.942
v -227.5757 0 295.942
v -226.6392 0 296.8786
v -227.5757 0 296.8786
vt 0 0.9058824
vt 0.06666667 0.9058824
vt 0 1
vt 0.06666667 1
vt 0 0.9058824
vt 0.06666667 0.9058824
vt 0 1
vt 0.06666667 1
vt 0 0.9058824
vt 0.06666667 0.9058824
vt 0 1
vt 0.06666667 1
vt 0 0.9058824
vt 0.06666667 0.9058824
vt 0 1
vt 0.06666667 1
vt 0 0.9058824
vt 0.06666667 0.9058824
vt 0 1
vt 0.06666667 1
vt 0 0.9058824
vt 0.06666667 0.9058824
vt 0 1
vt 0.06666667 1
vt 0 0.9058824
vt 0.06666667 0.9058824
vt 0 1
vt 0.06666667 1
vt 0 0.9058824
vt 0.06666667 0.9058824
vt 0 1
vt 0.06666667 1
vt 0 0.9058824
vt 0.06666667 0.9058824
vt 0 1
vt 0.06666667 1
vt 0 0.9058824
vt 0.06666667 0.9058824
vt 0 1
vt 0.06666667 1
vt 0 0.9058824
vt 0.06666667 0.9058824
vt 0 1
vt 0.06666667 1
vt 0 0.9058824
vt 0.06666667 0.9058824
vt 0 1
vt 0.06666667 1
vt 0 0.9058824
vt 0.06666667 0.9058824
vt 0 1
vt 0.06666667 1
vt 0 0.9058824
vt 0.06666667 0.9058824
vt 0 1
vt 0.06666667 1
vt 0 0.9058824
vt 0.06666667 0.9058824
vt 0 1
vt 0.06666667 1
vt 0 0.9058824
vt 0.06666667 0.9058824
vt 0 1
vt 0.06666667 1
vt 0 0.9058824
vt 0.06666667 0.9058824
vt 0 1
vt 0.06666667 1
vt 0 0.9058824
vt 0.06666667 0.9058824
vt 0 1
vt 0.06666667 1
vt 0 0.9058824
vt 0.06666667 0.9058824
vt 0 1
vt 0.06666667 1
vt 0 0.9058824
vt 0.06666667 0.9058824
vt 0 1
vt 0.06666667 1
vt 0 0.9058824
vt 0.06666667 0.9058824
vt 0 1
vt 0.06666667 1
vt 0 0.9058824
vt 0.06666667 0.9058824
vt 0 1
vt 0.06666667 1
vt 0 0.9058824
vt 0.06666667 0.9058824
vt 0 1
vt 0.06666667 1
vt 0 0.9058824
vt 0.06666667 0.9058824
vt 0 1
vt 0.06666667 1
vt 0 0.9058824
vt 0.06666667 0.9058824
vt 0 1
vt 0.06666667 1
vt 0 0.9058824
vt 0.06666667 0.9058824
vt 0 1
vt 0.06666667 1
vt 0 0.9058824
vt 0.06666667 0.9058824
vt 0 1
vt 0.06666667 1
vt 0 0.9058824
vt 0.06666667 0.9058824
vt 0 1
vt 0.06666667 1
vt 0 0.9058824
vt 0.06666667 0.9058824
vt 0 1
vt 0.06666667 1
vt 0 0.9058824
vt 0.06666667 0.9058824
vt 0 1
vt 0.06666667 1
vt 0 0.9058824
vt 0.06666667 0.9058824
vt 0 1
vt 0.06666667 1
vt 0 0.9058824
vt 0.06666667 0.9058824
vt 0 1
vt 0.06666667 1
vt 0 0.9058824
vt 0.06666667 0.9058824
vt 0 1
vt 0.06666667 1
vt 0 0.9058824
vt 0.06666667 0.9058824
vt 0 1
vt 0.06666667 1
vt 0 0.9058824
vt 0.06666667 0.9058824
vt 0 1
vt 0.06666667 1
vt 0 0.9058824
vt 0.06666667 0.9058824
vt 0 1
vt 0.06666667 1
vt 0 0.9058824
vt 0.06666667 0.9058824
vt 0 1
vt 0.06666667 1
vt 0 0.9058824
vt 0.06666667 0.9058824
vt 0 1
vt 0.06666667 1
vt 0 0.9058824
vt 0.06666667 0.9058824
vt 0 1
vt 0.06666667 1
vt 0 0.9058824
vt 0.06666667 0.9058824
vt 0 1
vt 0.06666667 1
vt 0 0.9058824
vt 0.06666667 0.9058824
vt 0 1
vt 0.06666667 1
vt 0 0.9058824
vt 0.06666667 0.9058824
vt 0 1
vt 0.06666667 1
vt 0 0.9058824
vt 0.06666667 0.9058824
vt 0 1
vt 0.06666667 1
vt 0 0.9058824
vt 0.06666667 0.9058824
vt 0 1
vt 0.06666667 1
vt 0 0.9058824
vt 0.06666667 0.9058824
vt 0 1
vt 0.06666667 1
vt 0 0.9058824
vt 0.06666667 0.9058824
vt 0 1
vt 0.06666667 1
vt 0 0.9058824
vt 0.06666667 0.9058824
vt 0 1
vt 0.06666667 1
vt 0 0.9058824
vt 0.06666667 0.9058824
vt 0 1
vt 0.06666667 1
vt 0 0.9058824
vt 0.06666667 0.9058824
vt 0 1
vt 0.06666667 1
vt 0 0.9058824
vt 0.06666667 0.9058824
vt 0 1
vt 0.06666667 1
vn 0 1 0
vn 0 1 0
vn 0 1 0
vn 0 1 0
vn 0 1 0
vn 0 1 0
vn 0 1 0
vn 0 1 0
vn 0 1 0
vn 0 1 0
vn 0 1 0
vn 0 1 0
vn 0 1 0
vn 0 1 0
vn 0 1 0
vn 0 1 0
vn 0 1 0
vn 0 1 0
vn 0 1 0
vn 0 1 0
vn 0 1 0
vn 0 1 0
vn 0 1 0
vn 0 1 0
vn 0 1 0
vn 0 1 0
vn 0 1 0
vn 0 1 0
vn 0 1 0
vn 0 1 0
vn 0 1 0
vn 0 1 0
vn 0 1 0
vn 0 1 0
vn 0 1 0
vn 0 1 0
vn 0 1 0
vn 0 1 0
vn 0 1 0
vn 0 1 0
vn 0 1 0
vn 0 1 0
vn 0 1 0
vn 0 1 0
vn 0 1 0
vn 0 1 0
vn 0 1 0
vn 0 1 0
vn 0 1 0
vn 0 1 0
vn 0 1 0
vn 0 1 0
vn 0 1 0
vn 0 1 0
vn 0 1 0
vn 0 1 0
vn 0 1 0
vn 0 1 0
vn 0 1 0
vn 0 1 0
vn 0 1 0
vn 0 1 0
vn 0 1 0
vn 0 1 0
vn 0 1 0
vn 0 1 0
vn 0 1 0
vn 0 1 0
vn 0 1 0
vn 0 1 0
vn 0 1 0
vn 0 1 0
vn 0 1 0
vn 0 1 0
vn 0 1 0
vn 0 1 0
vn 0 1 0
vn 0 1 0
vn 0 1 0
vn 0 1 0
vn 0 1 0
vn 0 1 0
vn 0 1 0
vn 0 1 0
vn 0 1 0
vn 0 1 0
vn 0 1 0
vn 0 1 0
vn 0 1 0
vn 0 1 0
vn 0 1 0
vn 0 1 0
vn 0 1 0
vn 0 1 0
vn 0 1 0
vn 0 1 0
vn 0 1 0
vn 0 1 0
vn 0 1 0
vn 0 1 0
vn 0 1 0
vn 0 1 0
vn 0 1 0
vn 0 1 0
vn 0 1 0
vn 0 1 0
vn 0 1 0
vn 0 1 0
vn 0 1 0
vn 0 1 0
vn 0 1 0
vn 0 1 0
vn 0 1 0
vn 0 1 0
vn 0 1 0
vn 0 1 0
vn 0 1 0
vn 0 1 0
vn 0 1 0
vn 0 1 0
vn 0 1 0
vn 0 1 0
vn 0 1 0
vn 0 1 0
vn 0 1 0
vn 0 1 0
vn 0 1 0
vn 0 1 0
vn 0 1 0
vn 0 1 0
vn 0 1 0
vn 0 1 0
vn 0 1 0
vn 0 1 0
vn 0 1 0
vn 0 1 0
vn 0 1 0
vn 0 1 0
vn 0 1 0
vn 0 1 0
vn 0 1 0
vn 0 1 0
vn 0 1 0
vn 0 1 0
vn 0 1 0
vn 0 1 0
vn 0 1 0
vn 0 1 0
vn 0 1 0
vn 0 1 0
vn 0 1 0
vn 0 1 0
vn 0 1 0
vn 0 1 0
vn 0 1 0
vn 0 1 0
vn 0 1 0
vn 0 1 0
vn 0 1 0
vn 0 1 0
vn 0 1 0
vn 0 1 0
vn 0 1 0
vn 0 1 0
vn 0 1 0
vn 0 1 0
vn 0 1 0
vn 0 1 0
vn 0 1 0
vn 0 1 0
vn 0 1 0
vn 0 1 0
vn 0 1 0
vn 0 1 0
vn 0 1 0
vn 0 1 0
vn 0 1 0
vn 0 1 0
vn 0 1 0
vn 0 1 0
vn 0 1 0
vn 0 1 0
vn 0 1 0
vn 0 1 0
vn 0 1 0
vn 0 1 0
vn 0 1 0
vn 0 1 0
vn 0 1 0
vn 0 1 0
vn 0 1 0
vn 0 1 0
vn 0 1 0
vn 0 1 0
vn 0 1 0
vn 0 1 0
vn 0 1 0
vn 0 1 0
vn 0 1 0
vn 0 1 0
g Grass_0_Cluster237_0
f 2/2/2 3/3/3 1/1/1
f 2/2/2 4/4/4 3/3/3
f 6/6/6 7/7/7 5/5/5
f 6/6/6 8/8/8 7/7/7
f 10/10/10 11/11/11 9/9/9
f 10/10/10 12/12/12 11/11/11
f 14/14/14 15/15/15 13/13/13
f 14/14/14 16/16/16 15/15/15
f 18/18/18 19/19/19 17/17/17
f 18/18/18 20/20/20 19/19/19
f 22/22/22 23/23/23 21/21/21
f 22/22/22 24/24/24 23/23/23
f 26/26/26 27/27/27 25/25/25
f 26/26/26 28/28/28 27/27/27
f 30/30/30 31/31/31 29/29/29
f 30/30/30 32/32/32 31/31/31
f 34/34/34 35/35/35 33/33/33
f 34/34/34 36/36/36 35/35/35
f 38/38/38 39/39/39 37/37/37
f 38/38/38 40/40/40 39/39/39
f 42/42/42 43/43/43 41/41/41
f 42/42/42 44/44/44 43/43/43
f 46/46/46 47/47/47 45/45/45
f 46/46/46 48/48/48 47/47/47
f 50/50/50 51/51/51 49/49/49
f 50/50/50 52/52/52 51/51/51
f 54/54/54 55/55/55 53/53/53
f 54/54/54 56/56/56 55/55/55
f 58/58/58 59/59/59 57/57/57
f 58/58/58 60/60/60 59/59/59
f 62/62/62 63/63/63 61/61/61
f 62/62/62 64/64/64 63/63/63
f 66/66/66 67/67/67 65/65/65
f 66/66/66 68/68/68 67/67/67
f 70/70/70 71/71/71 69/69/69
f 70/70/70 72/72/72 71/71/71
f 74/74/74 75/75/75 73/73/73
f 74/74/74 76/76/76 75/75/75
f 78/78/78 79/79/79 77/77/77
f 78/78/78 80/80/80 79/79/79
f 82/82/82 83/83/83 81/81/81
f 82/82/82 84/84/84 83/83/83
f 86/86/86 87/87/87 85/85/85
f 86/86/86 88/88/88 87/87/87
f 90/90/90 91/91/91 89/89/89
f 90/90/90 92/92/92 91/91/91
f 94/94/94 95/95/95 93/93/93
f 94/94/94 96/96/96 95/95/95
f 98/98/98 99/99/99 97/97/97
f 98/98/98 100/100/100 99/99/99
f 102/102/102 103/103/103 101/101/101
f 102/102/102 104/104/104 103/103/103
f 106/106/106 107/107/107 105/105/105
f 106/106/106 108/108/108 107/107/107
f 110/110/110 111/111/111 109/109/109
f 110/110/110 112/112/112 111/111/111
f 114/114/114 115/115/115 113/113/113
f 114/114/114 116/116/116 115/115/115
f 118/118/118 119/119/119 117/117/117
f 118/118/118 120/120/120 119/119/119
f 122/122/122 123/123/123 121/121/121
f 122/122/122 124/124/124 123/123/123
f 126/126/126 127/127/127 125/125/125
f 126/126/126 128/128/128 127/127/127
f 130/130/130 131/131/131 129/129/129
f 130/130/130 132/132/132 131/131/131
f 134/134/134 135/135/135 133/133/133
f 134/134/134 136/136/136 135/135/135
f 138/138/138 139/139/139 137/137/137
f 138/138/138 140/140/140 139/139/139
f 142/142/142 143/143/143 141/141/141
f 142/142/142 144/144/144 143/143/143
f 146/146/146 147/147/147 145/145/145
f 146/146/146 148/148/148 147/147/147
f 150/150/150 151/151/151 149/149/149
f 150/150/150 152/152/152 151/151/151
f 154/154/154 155/155/155 153/153/153
f 154/154/154 156/156/156 155/155/155
f 158/158/158 159/159/159 157/157/157
f 158/158/158 160/160/160 159/159/159
f 162/162/162 163/163/163 161/161/161
f 162/162/162 164/164/164 163/163/163
f 166/166/166 167/167/167 165/165/165
f 166/166/166 168/168/168 167/167/167
f 170/170/170 171/171/171 169/169/169
f 170/170/170 172/172/172 171/171/171
f 174/174/174 175/175/175 173/173/173
f 174/174/174 176/176/176 175/175/175
f 178/178/178 179/179/179 177/177/177
f 178/178/178 180/180/180 179/179/179
f 182/182/182 183/183/183 181/181/181
f 182/182/182 184/184/184 183/183/183
f 186/186/186 187/187/187 185/185/185
f 186/186/186 188/188/188 187/187/187
f 190/190/190 191/191/191 189/189/189
f 190/190/190 192/192/192 191/191/191
f 194/194/194 195/195/195 193/193/193
f 194/194/194 196/196/196 195/195/195
f 198/198/198 199/199/199 197/197/197
f 198/198/198 200/200/200 199/199/199
