g Grass_1_Cluster60
v 295.0944 0.04446411 72.83817
v 294.3737 0.04446411 72.83817
v 295.0944 0.04446411 73.5589
v 294.3737 0.04446411 73.5589
v 272.3914 0.04446411 72.11743
v 271.6707 0.04446411 72.11743
v 272.3914 0.04446411 73.19855
v 271.6707 0.04446411 73.19855
v 288.9682 0.04446411 72.11743
v 287.8871 0.04446411 72.11743
v 288.9682 0.04446411 72.83817
v 287.8871 0.04446411 72.83817
v 286.0853 0.04446411 72.11743
v 285.0042 0.04446411 72.11743
v 286.0853 0.04446411 72.83817
v 285.0042 0.04446411 72.83817
v 273.4725 0.04446411 71.75708
v 272.7518 0.04446411 71.75708
v 273.4725 0.04446411 72.47781
v 272.7518 0.04446411 72.47781
v 286.4456 0.04446411 71.3967
v 285.7249 0.04446411 71.3967
v 286.4456 0.04446411 72.11743
v 285.7249 0.04446411 72.11743
v 270.5896 0.04446411 70.67599
v 269.8688 0.04446411 70.67599
v 270.5896 0.04446411 71.75708
v 269.8688 0.04446411 71.75708
v 283.2024 0.04446411 70.67599
v 282.4816 0.04446411 70.67599
v 283.2024 0.04446411 71.3967
v 282.4816 0.04446411 71.3967
v 275.6347 0.04446411 70.31561
v 274.5536 0.04446411 70.31561
v 275.6347 0.04446411 71.03635
v 274.5536 0.04446411 71.03635
v 271.6707 0.04446411 69.59488
v 270.5896 0.04446411 69.59488
v 271.6707 0.04446411 70.67599
v 270.5896 0.04446411 70.67599
v 275.2743 0.04446411 69.59488
v 274.5536 0.04446411 69.59488
v 275.2743 0.04446411 70.67599
v 274.5536 0.04446411 70.67599
v 288.2475 0.04446411 69.59488
v 287.5267 0.04446411 69.59488
v 288.2475 0.04446411 70.31561
v 287.5267 0.04446411 70.31561
v 290.0493 0.04446411 69.23453
v 288.9682 0.04446411 69.23453
v 290.0493 0.04446411 69.95526
v 288.9682 0.04446411 69.95526
v 276.3554 0.04446411 68.51379
v 275.2743 0.04446411 68.51379
v 276.3554 0.04446411 69.59488
v 275.2743 0.04446411 69.59488
v 285.0042 0.04446411 68.51379
v 284.2834 0.04446411 68.51379
v 285.0042 0.04446411 69.23453
v 284.2834 0.04446411 69.23453
v 272.7518 0.04446411 68.15344
v 272.031 0.04446411 68.15344
v 272.7518 0.04446411 68.87415
v 272.031 0.04446411 68.87415
v 273.8329 0.04446411 67.79306
v 273.1121 0.04446411 67.79306
v 273.8329 0.04446411 68.87415
v 273.1121 0.04446411 68.87415
v 286.4456 0.04446411 67.43271
v 285.3645 0.04446411 67.43271
v 286.4456 0.04446411 68.15344
v 285.3645 0.04446411 68.15344
v 286.806 0.04446411 66.71198
v 286.0853 0.04446411 66.71198
v 286.806 0.04446411 67.43271
v 286.0853 0.04446411 67.43271
v 289.3286 0.04446411 65.99124
v 288.2475 0.04446411 65.99124
v 289.3286 0.04446411 66.71198
v 288.2475 0.04446411 66.71198
v 285.7249 0.04446411 65.27051
v 285.0042 0.04446411 65.27051
v 285.7249 0.04446411 65.99124
v 285.0042 0.04446411 65.99124
vt 0.06738281 0.9369141
vt 0.1331457 0.9369141
vt 0.06738281 0.9990234
vt 0.1331457 0.9990234
vt 0.06738281 0.9369141
vt 0.1331457 0.9369141
vt 0.06738281 0.9990234
vt 0.1331457 0.9990234
vt 0.06738281 0.9369141
vt 0.1331457 0.9369141
vt 0.06738281 0.9990234
vt 0.1331457 0.9990234
vt 0.06738281 0.9369141
vt 0.1331457 0.9369141
vt 0.06738281 0.9990234
vt 0.1331457 0.9990234
vt 0.06738281 0.9369141
vt 0.1331457 0.9369141
vt 0.06738281 0.9990234
vt 0.1331457 0.9990234
vt 0.06738281 0.9369141
vt 0.1331457 0.9369141
vt 0.06738281 0.9990234
vt 0.1331457 0.9990234
vt 0.06738281 0.9369141
vt 0.1331457 0.9369141
vt 0.06738281 0.9990234
vt 0.1331457 0.9990234
vt 0.06738281 0.9369141
vt 0.1331457 0.9369141
vt 0.06738281 0.9990234
vt 0.1331457 0.9990234
vt 0.06738281 0.9369141
vt 0.1331457 0.9369141
vt 0.06738281 0.9990234
vt 0.1331457 0.9990234
vt 0.06738281 0.9369141
vt 0.1331457 0.9369141
vt 0.06738281 0.9990234
vt 0.1331457 0.9990234
vt 0.06738281 0.9369141
vt 0.1331457 0.9369141
vt 0.06738281 0.9990234
vt 0.1331457 0.9990234
vt 0.06738281 0.9369141
vt 0.1331457 0.9369141
vt 0.06738281 0.9990234
vt 0.1331457 0.9990234
vt 0.06738281 0.9369141
vt 0.1331457 0.9369141
vt 0.06738281 0.9990234
vt 0.1331457 0.9990234
vt 0.06738281 0.9369141
vt 0.1331457 0.9369141
vt 0.06738281 0.9990234
vt 0.1331457 0.9990234
vt 0.06738281 0.9369141
vt 0.1331457 0.9369141
vt 0.06738281 0.9990234
vt 0.1331457 0.9990234
vt 0.06738281 0.9369141
vt 0.1331457 0.9369141
vt 0.06738281 0.9990234
vt 0.1331457 0.9990234
vt 0.06738281 0.9369141
vt 0.1331457 0.9369141
vt 0.06738281 0.9990234
vt 0.1331457 0.9990234
vt 0.06738281 0.9369141
vt 0.1331457 0.9369141
vt 0.06738281 0.9990234
vt 0.1331457 0.9990234
vt 0.06738281 0.9369141
vt 0.1331457 0.9369141
vt 0.06738281 0.9990234
vt 0.1331457 0.9990234
vt 0.06738281 0.9369141
vt 0.1331457 0.9369141
vt 0.06738281 0.9990234
vt 0.1331457 0.9990234
vt 0.06738281 0.9369141
vt 0.1331457 0.9369141
vt 0.06738281 0.9990234
vt 0.1331457 0.9990234
vn 0 1 0
vn 0 1 0
vn 0 1 0
vn 0 1 0
vn 0 1 0
vn 0 1 0
vn 0 1 0
vn 0 1 0
vn 0 1 0
vn 0 1 0
vn 0 1 0
vn 0 1 0
vn 0 1 0
vn 0 1 0
vn 0 1 0
vn 0 1 0
vn 0 1 0
vn 0 1 0
vn 0 1 0
vn 0 1 0
vn 0 1 0
vn 0 1 0
vn 0 1 0
vn 0 1 0
vn 0 1 0
vn 0 1 0
vn 0 1 0
vn 0 1 0
vn 0 1 0
vn 0 1 0
vn 0 1 0
vn 0 1 0
vn 0 1 0
vn 0 1 0
vn 0 1 0
vn 0 1 0
vn 0 1 0
vn 0 1 0
vn 0 1 0
vn 0 1 0
vn 0 1 0
vn 0 1 0
vn 0 1 0
vn 0 1 0
vn 0 1 0
vn 0 1 0
vn 0 1 0
vn 0 1 0
vn 0 1 0
vn 0 1 0
vn 0 1 0
vn 0 1 0
vn 0 1 0
vn 0 1 0
vn 0 1 0
vn 0 1 0
vn 0 1 0
vn 0 1 0
vn 0 1 0
vn 0 1 0
vn 0 1 0
vn 0 1 0
vn 0 1 0
vn 0 1 0
vn 0 1 0
vn 0 1 0
vn 0 1 0
vn 0 1 0
vn 0 1 0
vn 0 1 0
vn 0 1 0
vn 0 1 0
vn 0 1 0
vn 0 1 0
vn 0 1 0
vn 0 1 0
vn 0 1 0
vn 0 1 0
vn 0 1 0
vn 0 1 0
vn 0 1 0
vn 0 1 0
vn 0 1 0
vn 0 1 0
g Grass_1_Cluster60_0
f 2/2/2 3/3/3 1/1/1
f 2/2/2 4/4/4 3/3/3
f 6/6/6 7/7/7 5/5/5
f 6/6/6 8/8/8 7/7/7
f 10/10/10 11/11/11 9/9/9
f 10/10/10 12/12/12 11/11/11
f 14/14/14 15/15/15 13/13/13
f 14/14/14 16/16/16 15/15/15
f 18/18/18 19/19/19 17/17/17
f 18/18/18 20/20/20 19/19/19
f 22/22/22 23/23/23 21/21/21
f 22/22/22 24/24/24 23/23/23
f 26/26/26 27/27/27 25/25/25
f 26/26/26 28/28/28 27/27/27
f 30/30/30 31/31/31 29/29/29
f 30/30/30 32/32/32 31/31/31
f 34/34/34 35/35/35 33/33/33
f 34/34/34 36/36/36 35/35/35
f 38/38/38 39/39/39 37/37/37
f 38/38/38 40/40/40 39/39/39
f 42/42/42 43/43/43 41/41/41
f 42/42/42 44/44/44 43/43/43
f 46/46/46 47/47/47 45/45/45
f 46/46/46 48/48/48 47/47/47
f 50/50/50 51/51/51 49/49/49
f 50/50/50 52/52/52 51/51/51
f 54/54/54 55/55/55 53/53/53
f 54/54/54 56/56/56 55/55/55
f 58/58/58 59/59/59 57/57/57
f 58/58/58 60/60/60 59/59/59
f 62/62/62 63/63/63 61/61/61
f 62/62/62 64/64/64 63/63/63
f 66/66/66 67/67/67 65/65/65
f 66/66/66 68/68/68 67/67/67
f 70/70/70 71/71/71 69/69/69
f 70/70/70 72/72/72 71/71/71
f 74/74/74 75/75/75 73/73/73
f 74/74/74 76/76/76 75/75/75
f 78/78/78 79/79/79 77/77/77
f 78/78/78 80/80/80 79/79/79
f 82/82/82 83/83/83 81/81/81
f 82/82/82 84/84/84 83/83/83
