g Grass_2_Cluster78
v -242.3184 0 82.60856
v -243.3674 0 82.60856
v -242.3184 0 83.65755
v -243.3674 0 83.65755
v -239.6959 0 82.60856
v -240.7449 0 82.60856
v -239.6959 0 83.65755
v -240.7449 0 83.65755
v -244.4164 0 82.34631
v -245.4654 0 82.34631
v -244.4164 0 83.39531
v -245.4654 0 83.39531
v -242.0562 0 82.08406
v -243.1052 0 82.08406
v -242.0562 0 83.13306
v -243.1052 0 83.13306
v -243.6297 0 81.55956
v -244.6787 0 81.55956
v -243.6297 0 82.60856
v -244.6787 0 82.60856
v -244.4164 0 80.51057
v -245.4654 0 80.51057
v -244.4164 0 81.82181
v -245.4654 0 81.82181
v -242.5807 0 79.98606
v -243.6297 0 79.98606
v -242.5807 0 81.29731
v -243.6297 0 81.29731
v -246.2522 0 79.98606
v -247.0389 0 79.98606
v -246.2522 0 81.03506
v -247.0389 0 81.03506
v -244.1542 0 79.46156
v -245.2032 0 79.46156
v -244.1542 0 80.51057
v -245.2032 0 80.51057
v -244.9409 0 79.19932
v -245.9899 0 79.19932
v -244.9409 0 80.24831
v -245.9899 0 80.24831
v -244.9409 0 78.41257
v -245.9899 0 78.41257
v -244.9409 0 79.46156
v -245.9899 0 79.46156
v -247.0389 0 78.41257
v -248.0879 0 78.41257
v -247.0389 0 79.46156
v -248.0879 0 79.46156
v -248.0879 0 78.15032
v -249.1369 0 78.15032
v -248.0879 0 79.46156
v -249.1369 0 79.46156
v -243.8919 0 78.15032
v -244.9409 0 78.15032
v -243.8919 0 79.19932
v -244.9409 0 79.19932
v -246.7767 0 77.88807
v -247.5634 0 77.88807
v -246.7767 0 78.93707
v -247.5634 0 78.93707
v -247.5634 0 77.62582
v -248.6124 0 77.62582
v -247.5634 0 78.67482
v -248.6124 0 78.67482
v -249.3992 0 77.36357
v -250.4482 0 77.36357
v -249.3992 0 78.41257
v -250.4482 0 78.41257
v -245.4654 0 77.36357
v -246.5144 0 77.36357
v -245.4654 0 78.41257
v -246.5144 0 78.41257
v -245.7277 0 76.57682
v -246.7767 0 76.57682
v -245.7277 0 77.62582
v -246.7767 0 77.62582
v -248.6124 0 76.31458
v -249.3992 0 76.31458
v -248.6124 0 77.36357
v -249.3992 0 77.36357
v -248.6124 0 76.05232
v -249.3992 0 76.05232
v -248.6124 0 77.10132
v -249.3992 0 77.10132
v -247.8257 0 76.05232
v -248.8747 0 76.05232
v -247.8257 0 77.10132
v -248.8747 0 77.10132
v -249.3992 0 75.79008
v -250.4482 0 75.79008
v -249.3992 0 76.83907
v -250.4482 0 76.83907
v -250.9727 0 75.52782
v -252.0217 0 75.52782
v -250.9727 0 76.57682
v -252.0217 0 76.57682
v -247.0389 0 75.00333
v -248.0879 0 75.00333
v -247.0389 0 76.31458
v -248.0879 0 76.31458
v -250.1859 0 75.00333
v -250.9727 0 75.00333
v -250.1859 0 76.05232
v -250.9727 0 76.05232
v -248.6124 0 74.74107
v -249.6614 0 74.74107
v -248.6124 0 75.79008
v -249.6614 0 75.79008
v -246.2522 0 74.47883
v -247.3012 0 74.47883
v -246.2522 0 75.52782
v -247.3012 0 75.52782
v -252.8084 0 73.95433
v -253.8574 0 73.95433
v -252.8084 0 75.00333
v -253.8574 0 75.00333
v -246.7767 0 73.95433
v -247.8257 0 73.95433
v -246.7767 0 75.00333
v -247.8257 0 75.00333
v -262.7739 0 72.11858
v -263.5606 0 72.11858
v -262.7739 0 73.16758
v -263.5606 0 73.16758
v -266.4454 0 66.8736
v -267.4944 0 66.8736
v -266.4454 0 67.92259
v -267.4944 0 67.92259
v -265.9209 0 66.08685
v -266.9699 0 66.08685
v -265.9209 0 67.39809
v -266.9699 0 67.39809
v -264.8719 0 65.8246
v -265.9209 0 65.8246
v -264.8719 0 66.8736
v -265.9209 0 66.8736
v -267.4944 0 65.03785
v -268.2811 0 65.03785
v -267.4944 0 66.08685
v -268.2811 0 66.08685
v -265.6586 0 64.7756
v -266.7076 0 64.7756
v -265.6586 0 65.8246
v -266.7076 0 65.8246
v -263.8229 0 64.2511
v -264.8719 0 64.2511
v -263.8229 0 65.3001
v -264.8719 0 65.3001
v -266.7076 0 63.98885
v -267.7566 0 63.98885
v -266.7076 0 65.3001
v -267.7566 0 65.3001
v -264.6096 0 62.41536
v -265.6586 0 62.41536
v -264.6096 0 63.46435
v -265.6586 0 63.46435
v -263.5606 0 61.89086
v -264.6096 0 61.89086
v -263.5606 0 62.93985
v -264.6096 0 62.93985
v -242.8429 0 56.12137
v -243.8919 0 56.12137
v -242.8429 0 57.17037
v -243.8919 0 57.17037
v -241.0072 0 55.07237
v -242.0562 0 55.07237
v -241.0072 0 56.12137
v -242.0562 0 56.12137
v -248.0879 0 54.54787
v -248.8747 0 54.54787
v -248.0879 0 55.59687
v -248.8747 0 55.59687
v -242.5807 0 54.28563
v -243.6297 0 54.28563
v -242.5807 0 55.07237
v -243.6297 0 55.07237
v -245.4654 0 53.23663
v -246.2522 0 53.23663
v -245.4654 0 54.28563
v -246.2522 0 54.28563
vt 0.1347656 0.9185662
vt 0.2060202 0.9185662
vt 0.1347656 1
vt 0.2060202 1
vt 0.1347656 0.9185662
vt 0.2060202 0.9185662
vt 0.1347656 1
vt 0.2060202 1
vt 0.1347656 0.9185662
vt 0.2060202 0.9185662
vt 0.1347656 1
vt 0.2060202 1
vt 0.1347656 0.9185662
vt 0.2060202 0.9185662
vt 0.1347656 1
vt 0.2060202 1
vt 0.1347656 0.9185662
vt 0.2060202 0.9185662
vt 0.1347656 1
vt 0.2060202 1
vt 0.1347656 0.9185662
vt 0.2060202 0.9185662
vt 0.1347656 1
vt 0.2060202 1
vt 0.1347656 0.9185662
vt 0.2060202 0.9185662
vt 0.1347656 1
vt 0.2060202 1
vt 0.1347656 0.9185662
vt 0.2060202 0.9185662
vt 0.1347656 1
vt 0.2060202 1
vt 0.1347656 0.9185662
vt 0.2060202 0.9185662
vt 0.1347656 1
vt 0.2060202 1
vt 0.1347656 0.9185662
vt 0.2060202 0.9185662
vt 0.1347656 1
vt 0.2060202 1
vt 0.1347656 0.9185662
vt 0.2060202 0.9185662
vt 0.1347656 1
vt 0.2060202 1
vt 0.1347656 0.9185662
vt 0.2060202 0.9185662
vt 0.1347656 1
vt 0.2060202 1
vt 0.1347656 0.9185662
vt 0.2060202 0.9185662
vt 0.1347656 1
vt 0.2060202 1
vt 0.1347656 0.9185662
vt 0.2060202 0.9185662
vt 0.1347656 1
vt 0.2060202 1
vt 0.1347656 0.9185662
vt 0.2060202 0.9185662
vt 0.1347656 1
vt 0.2060202 1
vt 0.1347656 0.9185662
vt 0.2060202 0.9185662
vt 0.1347656 1
vt 0.2060202 1
vt 0.1347656 0.9185662
vt 0.2060202 0.9185662
vt 0.1347656 1
vt 0.2060202 1
vt 0.1347656 0.9185662
vt 0.2060202 0.9185662
vt 0.1347656 1
vt 0.2060202 1
vt 0.1347656 0.9185662
vt 0.2060202 0.9185662
vt 0.1347656 1
vt 0.2060202 1
vt 0.1347656 0.9185662
vt 0.2060202 0.9185662
vt 0.1347656 1
vt 0.2060202 1
vt 0.1347656 0.9185662
vt 0.2060202 0.9185662
vt 0.1347656 1
vt 0.2060202 1
vt 0.1347656 0.9185662
vt 0.2060202 0.9185662
vt 0.1347656 1
vt 0.2060202 1
vt 0.1347656 0.9185662
vt 0.2060202 0.9185662
vt 0.1347656 1
vt 0.2060202 1
vt 0.1347656 0.9185662
vt 0.2060202 0.9185662
vt 0.1347656 1
vt 0.2060202 1
vt 0.1347656 0.9185662
vt 0.2060202 0.9185662
vt 0.1347656 1
vt 0.2060202 1
vt 0.1347656 0.9185662
vt 0.2060202 0.9185662
vt 0.1347656 1
vt 0.2060202 1
vt 0.1347656 0.9185662
vt 0.2060202 0.9185662
vt 0.1347656 1
vt 0.2060202 1
vt 0.1347656 0.9185662
vt 0.2060202 0.9185662
vt 0.1347656 1
vt 0.2060202 1
vt 0.1347656 0.9185662
vt 0.2060202 0.9185662
vt 0.1347656 1
vt 0.2060202 1
vt 0.1347656 0.9185662
vt 0.2060202 0.9185662
vt 0.1347656 1
vt 0.2060202 1
vt 0.1347656 0.9185662
vt 0.2060202 0.9185662
vt 0.1347656 1
vt 0.2060202 1
vt 0.1347656 0.9185662
vt 0.2060202 0.9185662
vt 0.1347656 1
vt 0.2060202 1
vt 0.1347656 0.9185662
vt 0.2060202 0.9185662
vt 0.1347656 1
vt 0.2060202 1
vt 0.1347656 0.9185662
vt 0.2060202 0.9185662
vt 0.1347656 1
vt 0.2060202 1
vt 0.1347656 0.9185662
vt 0.2060202 0.9185662
vt 0.1347656 1
vt 0.2060202 1
vt 0.1347656 0.9185662
vt 0.2060202 0.9185662
vt 0.1347656 1
vt 0.2060202 1
vt 0.1347656 0.9185662
vt 0.2060202 0.9185662
vt 0.1347656 1
vt 0.2060202 1
vt 0.1347656 0.9185662
vt 0.2060202 0.9185662
vt 0.1347656 1
vt 0.2060202 1
vt 0.1347656 0.9185662
vt 0.2060202 0.9185662
vt 0.1347656 1
vt 0.2060202 1
vt 0.1347656 0.9185662
vt 0.2060202 0.9185662
vt 0.1347656 1
vt 0.2060202 1
vt 0.1347656 0.9185662
vt 0.2060202 0.9185662
vt 0.1347656 1
vt 0.2060202 1
vt 0.1347656 0.9185662
vt 0.2060202 0.9185662
vt 0.1347656 1
vt 0.2060202 1
vt 0.1347656 0.9185662
vt 0.2060202 0.9185662
vt 0.1347656 1
vt 0.2060202 1
vt 0.1347656 0.9185662
vt 0.2060202 0.9185662
vt 0.1347656 1
vt 0.2060202 1
vt 0.1347656 0.9185662
vt 0.2060202 0.9185662
vt 0.1347656 1
vt 0.2060202 1
vn 0 1 0
vn 0 1 0
vn 0 1 0
vn 0 1 0
vn 0 1 0
vn 0 1 0
vn 0 1 0
vn 0 1 0
vn 0 1 0
vn 0 1 0
vn 0 1 0
vn 0 1 0
vn 0 1 0
vn 0 1 0
vn 0 1 0
vn 0 1 0
vn 0 1 0
vn 0 1 0
vn 0 1 0
vn 0 1 0
vn 0 1 0
vn 0 1 0
vn 0 1 0
vn 0 1 0
vn 0 1 0
vn 0 1 0
vn 0 1 0
vn 0 1 0
vn 0 1 0
vn 0 1 0
vn 0 1 0
vn 0 1 0
vn 0 1 0
vn 0 1 0
vn 0 1 0
vn 0 1 0
vn 0 1 0
vn 0 1 0
vn 0 1 0
vn 0 1 0
vn 0 1 0
vn 0 1 0
vn 0 1 0
vn 0 1 0
vn 0 1 0
vn 0 1 0
vn 0 1 0
vn 0 1 0
vn 0 1 0
vn 0 1 0
vn 0 1 0
vn 0 1 0
vn 0 1 0
vn 0 1 0
vn 0 1 0
vn 0 1 0
vn 0 1 0
vn 0 1 0
vn 0 1 0
vn 0 1 0
vn 0 1 0
vn 0 1 0
vn 0 1 0
vn 0 1 0
vn 0 1 0
vn 0 1 0
vn 0 1 0
vn 0 1 0
vn 0 1 0
vn 0 1 0
vn 0 1 0
vn 0 1 0
vn 0 1 0
vn 0 1 0
vn 0 1 0
vn 0 1 0
vn 0 1 0
vn 0 1 0
vn 0 1 0
vn 0 1 0
vn 0 1 0
vn 0 1 0
vn 0 1 0
vn 0 1 0
vn 0 1 0
vn 0 1 0
vn 0 1 0
vn 0 1 0
vn 0 1 0
vn 0 1 0
vn 0 1 0
vn 0 1 0
vn 0 1 0
vn 0 1 0
vn 0 1 0
vn 0 1 0
vn 0 1 0
vn 0 1 0
vn 0 1 0
vn 0 1 0
vn 0 1 0
vn 0 1 0
vn 0 1 0
vn 0 1 0
vn 0 1 0
vn 0 1 0
vn 0 1 0
vn 0 1 0
vn 0 1 0
vn 0 1 0
vn 0 1 0
vn 0 1 0
vn 0 1 0
vn 0 1 0
vn 0 1 0
vn 0 1 0
vn 0 1 0
vn 0 1 0
vn 0 1 0
vn 0 1 0
vn 0 1 0
vn 0 1 0
vn 0 1 0
vn 0 1 0
vn 0 1 0
vn 0 1 0
vn 0 1 0
vn 0 1 0
vn 0 1 0
vn 0 1 0
vn 0 1 0
vn 0 1 0
vn 0 1 0
vn 0 1 0
vn 0 1 0
vn 0 1 0
vn 0 1 0
vn 0 1 0
vn 0 1 0
vn 0 1 0
vn 0 1 0
vn 0 1 0
vn 0 1 0
vn 0 1 0
vn 0 1 0
vn 0 1 0
vn 0 1 0
vn 0 1 0
vn 0 1 0
vn 0 1 0
vn 0 1 0
vn 0 1 0
vn 0 1 0
vn 0 1 0
vn 0 1 0
vn 0 1 0
vn 0 1 0
vn 0 1 0
vn 0 1 0
vn 0 1 0
vn 0 1 0
vn 0 1 0
vn 0 1 0
vn 0 1 0
vn 0 1 0
vn 0 1 0
vn 0 1 0
vn 0 1 0
vn 0 1 0
vn 0 1 0
vn 0 1 0
vn 0 1 0
vn 0 1 0
vn 0 1 0
vn 0 1 0
vn 0 1 0
vn 0 1 0
vn 0 1 0
vn 0 1 0
vn 0 1 0
g Grass_2_Cluster78_0
f 2/2/2 3/3/3 1/1/1
f 2/2/2 4/4/4 3/3/3
f 6/6/6 7/7/7 5/5/5
f 6/6/6 8/8/8 7/7/7
f 10/10/10 11/11/11 9/9/9
f 10/10/10 12/12/12 11/11/11
f 14/14/14 15/15/15 13/13/13
f 14/14/14 16/16/16 15/15/15
f 18/18/18 19/19/19 17/17/17
f 18/18/18 20/20/20 19/19/19
f 22/22/22 23/23/23 21/21/21
f 22/22/22 24/24/24 23/23/23
f 26/26/26 27/27/27 25/25/25
f 26/26/26 28/28/28 27/27/27
f 30/30/30 31/31/31 29/29/29
f 30/30/30 32/32/32 31/31/31
f 34/34/34 35/35/35 33/33/33
f 34/34/34 36/36/36 35/35/35
f 38/38/38 39/39/39 37/37/37
f 38/38/38 40/40/40 39/39/39
f 42/42/42 43/43/43 41/41/41
f 42/42/42 44/44/44 43/43/43
f 46/46/46 47/47/47 45/45/45
f 46/46/46 48/48/48 47/47/47
f 50/50/50 51/51/51 49/49/49
f 50/50/50 52/52/52 51/51/51
f 54/54/54 55/55/55 53/53/53
f 54/54/54 56/56/56 55/55/55
f 58/58/58 59/59/59 57/57/57
f 58/58/58 60/60/60 59/59/59
f 62/62/62 63/63/63 61/61/61
f 62/62/62 64/64/64 63/63/63
f 66/66/66 67/67/67 65/65/65
f 66/66/66 68/68/68 67/67/67
f 70/70/70 71/71/71 69/69/69
f 70/70/70 72/72/72 71/71/71
f 74/74/74 75/75/75 73/73/73
f 74/74/74 76/76/76 75/75/75
f 78/78/78 79/79/79 77/77/77
f 78/78/78 80/80/80 79/79/79
f 82/82/82 83/83/83 81/81/81
f 82/82/82 84/84/84 83/83/83
f 86/86/86 87/87/87 85/85/85
f 86/86/86 88/88/88 87/87/87
f 90/90/90 91/91/91 89/89/89
f 90/90/90 92/92/92 91/91/91
f 94/94/94 95/95/95 93/93/93
f 94/94/94 96/96/96 95/95/95
f 98/98/98 99/99/99 97/97/97
f 98/98/98 100/100/100 99/99/99
f 102/102/102 103/103/103 101/101/101
f 102/102/102 104/104/104 103/103/103
f 106/106/106 107/107/107 105/105/105
f 106/106/106 108/108/108 107/107/107
f 110/110/110 111/111/111 109/109/109
f 110/110/110 112/112/112 111/111/111
f 114/114/114 115/115/115 113/113/113
f 114/114/114 116/116/116 115/115/115
f 118/118/118 119/119/119 117/117/117
f 118/118/118 120/120/120 119/119/119
f 122/122/122 123/123/123 121/121/121
f 122/122/122 124/124/124 123/123/123
f 126/126/126 127/127/127 125/125/125
f 126/126/126 128/128/128 127/127/127
f 130/130/130 131/131/131 129/129/129
f 130/130/130 132/132/132 131/131/131
f 134/134/134 135/135/135 133/133/133
f 134/134/134 136/136/136 135/135/135
f 138/138/138 139/139/139 137/137/137
f 138/138/138 140/140/140 139/139/139
f 142/142/142 143/143/143 141/141/141
f 142/142/142 144/144/144 143/143/143
f 146/146/146 147/147/147 145/145/145
f 146/146/146 148/148/148 147/147/147
f 150/150/150 151/151/151 149/149/149
f 150/150/150 152/152/152 151/151/151
f 154/154/154 155/155/155 153/153/153
f 154/154/154 156/156/156 155/155/155
f 158/158/158 159/159/159 157/157/157
f 158/158/158 160/160/160 159/159/159
f 162/162/162 163/163/163 161/161/161
f 162/162/162 164/164/164 163/163/163
f 166/166/166 167/167/167 165/165/165
f 166/166/166 168/168/168 167/167/167
f 170/170/170 171/171/171 169/169/169
f 170/170/170 172/172/172 171/171/171
f 174/174/174 175/175/175 173/173/173
f 174/174/174 176/176/176 175/175/175
f 178/178/178 179/179/179 177/177/177
f 178/178/178 180/180/180 179/179/179
