g Grass_0_Cluster163
v 199.2388 -0.03735352 232.9417
v 198.3727 -0.03735352 232.9417
v 199.2388 -0.03735352 234.2409
v 198.3727 -0.03735352 234.2409
v 187.9796 -0.03735352 232.9417
v 187.1135 -0.03735352 232.9417
v 187.9796 -0.03735352 234.2409
v 187.1135 -0.03735352 234.2409
v 200.971 -0.03735352 231.6426
v 200.1049 -0.03735352 231.6426
v 200.971 -0.03735352 232.9417
v 200.1049 -0.03735352 232.9417
v 181.4839 -0.03735352 229.4774
v 180.6178 -0.03735352 229.4774
v 181.4839 -0.03735352 230.7765
v 180.6178 -0.03735352 230.7765
v 182.783 -0.03735352 225.1469
v 181.9169 -0.03735352 225.1469
v 182.783 -0.03735352 226.446
v 181.9169 -0.03735352 226.446
v 182.35 -0.03735352 223.4147
v 181.4839 -0.03735352 223.4147
v 182.35 -0.03735352 224.7138
v 181.4839 -0.03735352 224.7138
v 181.9169 -0.03735352 222.9817
v 181.0508 -0.03735352 222.9817
v 181.9169 -0.03735352 224.2808
v 181.0508 -0.03735352 224.2808
v 194.4753 -0.03735352 220.3834
v 193.1761 -0.03735352 220.3834
v 194.4753 -0.03735352 221.6825
v 193.1761 -0.03735352 221.6825
v 200.5379 -0.03735352 217.3521
v 199.6718 -0.03735352 217.3521
v 200.5379 -0.03735352 218.6512
v 199.6718 -0.03735352 218.6512
v 193.6092 -0.03735352 216.919
v 192.7431 -0.03735352 216.919
v 193.6092 -0.03735352 218.2181
v 192.7431 -0.03735352 218.2181
v 203.1362 -0.03735352 216.0529
v 202.2701 -0.03735352 216.0529
v 203.1362 -0.03735352 217.3521
v 202.2701 -0.03735352 217.3521
v 194.0422 -0.03735352 215.6198
v 193.1761 -0.03735352 215.6198
v 194.0422 -0.03735352 216.919
v 193.1761 -0.03735352 216.919
v 190.5779 -0.03735352 212.5885
v 189.7118 -0.03735352 212.5885
v 190.5779 -0.03735352 213.8877
v 189.7118 -0.03735352 213.8877
v 196.2075 -0.03735352 212.5885
v 195.3414 -0.03735352 212.5885
v 196.2075 -0.03735352 213.8877
v 195.3414 -0.03735352 213.8877
v 181.4839 -0.03735352 211.2894
v 180.6178 -0.03735352 211.2894
v 181.4839 -0.03735352 212.5885
v 180.6178 -0.03735352 212.5885
v 181.9169 -0.03735352 209.9903
v 181.0508 -0.03735352 209.9903
v 181.9169 -0.03735352 211.2894
v 181.0508 -0.03735352 211.2894
v 202.2701 -0.03735352 209.9903
v 201.404 -0.03735352 209.9903
v 202.2701 -0.03735352 211.2894
v 201.404 -0.03735352 211.2894
v 186.2474 -0.03735352 207.825
v 185.3813 -0.03735352 207.825
v 186.2474 -0.03735352 209.1241
v 185.3813 -0.03735352 209.1241
v 203.5692 -0.03735352 206.5259
v 202.7032 -0.03735352 206.5259
v 203.5692 -0.03735352 207.825
v 202.7032 -0.03735352 207.825
v 208.3328 -0.03735352 206.0928
v 207.4667 -0.03735352 206.0928
v 208.3328 -0.03735352 207.392
v 207.4667 -0.03735352 207.392
v 208.7658 -0.03735352 203.0615
v 207.8997 -0.03735352 203.0615
v 208.7658 -0.03735352 204.3607
v 207.8997 -0.03735352 204.3607
vt 0 0.9058824
vt 0.06666667 0.9058824
vt 0 1
vt 0.06666667 1
vt 0 0.9058824
vt 0.06666667 0.9058824
vt 0 1
vt 0.06666667 1
vt 0 0.9058824
vt 0.06666667 0.9058824
vt 0 1
vt 0.06666667 1
vt 0 0.9058824
vt 0.06666667 0.9058824
vt 0 1
vt 0.06666667 1
vt 0 0.9058824
vt 0.06666667 0.9058824
vt 0 1
vt 0.06666667 1
vt 0 0.9058824
vt 0.06666667 0.9058824
vt 0 1
vt 0.06666667 1
vt 0 0.9058824
vt 0.06666667 0.9058824
vt 0 1
vt 0.06666667 1
vt 0 0.9058824
vt 0.06666667 0.9058824
vt 0 1
vt 0.06666667 1
vt 0 0.9058824
vt 0.06666667 0.9058824
vt 0 1
vt 0.06666667 1
vt 0 0.9058824
vt 0.06666667 0.9058824
vt 0 1
vt 0.06666667 1
vt 0 0.9058824
vt 0.06666667 0.9058824
vt 0 1
vt 0.06666667 1
vt 0 0.9058824
vt 0.06666667 0.9058824
vt 0 1
vt 0.06666667 1
vt 0 0.9058824
vt 0.06666667 0.9058824
vt 0 1
vt 0.06666667 1
vt 0 0.9058824
vt 0.06666667 0.9058824
vt 0 1
vt 0.06666667 1
vt 0 0.9058824
vt 0.06666667 0.9058824
vt 0 1
vt 0.06666667 1
vt 0 0.9058824
vt 0.06666667 0.9058824
vt 0 1
vt 0.06666667 1
vt 0 0.9058824
vt 0.06666667 0.9058824
vt 0 1
vt 0.06666667 1
vt 0 0.9058824
vt 0.06666667 0.9058824
vt 0 1
vt 0.06666667 1
vt 0 0.9058824
vt 0.06666667 0.9058824
vt 0 1
vt 0.06666667 1
vt 0 0.9058824
vt 0.06666667 0.9058824
vt 0 1
vt 0.06666667 1
vt 0 0.9058824
vt 0.06666667 0.9058824
vt 0 1
vt 0.06666667 1
vn 0 1 0
vn 0 1 0
vn 0 1 0
vn 0 1 0
vn 0 1 0
vn 0 1 0
vn 0 1 0
vn 0 1 0
vn 0 1 0
vn 0 1 0
vn 0 1 0
vn 0 1 0
vn 0 1 0
vn 0 1 0
vn 0 1 0
vn 0 1 0
vn 0 1 0
vn 0 1 0
vn 0 1 0
vn 0 1 0
vn 0 1 0
vn 0 1 0
vn 0 1 0
vn 0 1 0
vn 0 1 0
vn 0 1 0
vn 0 1 0
vn 0 1 0
vn 0 1 0
vn 0 1 0
vn 0 1 0
vn 0 1 0
vn 0 1 0
vn 0 1 0
vn 0 1 0
vn 0 1 0
vn 0 1 0
vn 0 1 0
vn 0 1 0
vn 0 1 0
vn 0 1 0
vn 0 1 0
vn 0 1 0
vn 0 1 0
vn 0 1 0
vn 0 1 0
vn 0 1 0
vn 0 1 0
vn 0 1 0
vn 0 1 0
vn 0 1 0
vn 0 1 0
vn 0 1 0
vn 0 1 0
vn 0 1 0
vn 0 1 0
vn 0 1 0
vn 0 1 0
vn 0 1 0
vn 0 1 0
vn 0 1 0
vn 0 1 0
vn 0 1 0
vn 0 1 0
vn 0 1 0
vn 0 1 0
vn 0 1 0
vn 0 1 0
vn 0 1 0
vn 0 1 0
vn 0 1 0
vn 0 1 0
vn 0 1 0
vn 0 1 0
vn 0 1 0
vn 0 1 0
vn 0 1 0
vn 0 1 0
vn 0 1 0
vn 0 1 0
vn 0 1 0
vn 0 1 0
vn 0 1 0
vn 0 1 0
g Grass_0_Cluster163_0
f 2/2/2 3/3/3 1/1/1
f 2/2/2 4/4/4 3/3/3
f 6/6/6 7/7/7 5/5/5
f 6/6/6 8/8/8 7/7/7
f 10/10/10 11/11/11 9/9/9
f 10/10/10 12/12/12 11/11/11
f 14/14/14 15/15/15 13/13/13
f 14/14/14 16/16/16 15/15/15
f 18/18/18 19/19/19 17/17/17
f 18/18/18 20/20/20 19/19/19
f 22/22/22 23/23/23 21/21/21
f 22/22/22 24/24/24 23/23/23
f 26/26/26 27/27/27 25/25/25
f 26/26/26 28/28/28 27/27/27
f 30/30/30 31/31/31 29/29/29
f 30/30/30 32/32/32 31/31/31
f 34/34/34 35/35/35 33/33/33
f 34/34/34 36/36/36 35/35/35
f 38/38/38 39/39/39 37/37/37
f 38/38/38 40/40/40 39/39/39
f 42/42/42 43/43/43 41/41/41
f 42/42/42 44/44/44 43/43/43
f 46/46/46 47/47/47 45/45/45
f 46/46/46 48/48/48 47/47/47
f 50/50/50 51/51/51 49/49/49
f 50/50/50 52/52/52 51/51/51
f 54/54/54 55/55/55 53/53/53
f 54/54/54 56/56/56 55/55/55
f 58/58/58 59/59/59 57/57/57
f 58/58/58 60/60/60 59/59/59
f 62/62/62 63/63/63 61/61/61
f 62/62/62 64/64/64 63/63/63
f 66/66/66 67/67/67 65/65/65
f 66/66/66 68/68/68 67/67/67
f 70/70/70 71/71/71 69/69/69
f 70/70/70 72/72/72 71/71/71
f 74/74/74 75/75/75 73/73/73
f 74/74/74 76/76/76 75/75/75
f 78/78/78 79/79/79 77/77/77
f 78/78/78 80/80/80 79/79/79
f 82/82/82 83/83/83 81/81/81
f 82/82/82 84/84/84 83/83/83
