g Grass_2_Cluster289
v 7.096418 -0.1748619 412.0904
v 6.231224 -0.1748619 412.0904
v 7.096418 -0.1748619 413.3882
v 6.231224 -0.1748619 413.3882
v 10.5572 -0.1748619 412.0904
v 9.692003 -0.1748619 412.0904
v 10.5572 -0.1748619 412.9555
v 9.692003 -0.1748619 412.9555
v 3.635641 -0.1748619 409.0622
v 2.770447 -0.1748619 409.0622
v 3.635641 -0.1748619 409.9274
v 2.770447 -0.1748619 409.9274
v 2.337849 -0.1748619 407.7644
v 1.472654 -0.1748619 407.7644
v 2.337849 -0.1748619 408.6296
v 1.472654 -0.1748619 408.6296
v 0.60746 -0.1748619 406.4666
v -0.2577343 -0.1748619 406.4666
v 0.60746 -0.1748619 407.3318
v -0.2577343 -0.1748619 407.3318
v 28.72628 -0.1748619 406.034
v 27.86109 -0.1748619 406.034
v 28.72628 -0.1748619 406.8992
v 27.86109 -0.1748619 406.8992
v 26.5633 -0.1748619 405.1688
v 25.6981 -0.1748619 405.1688
v 26.5633 -0.1748619 406.4666
v 25.6981 -0.1748619 406.4666
v 26.99589 -0.1748619 404.7362
v 26.1307 -0.1748619 404.7362
v 26.99589 -0.1748619 405.6014
v 26.1307 -0.1748619 405.6014
v 22.66992 -0.1748619 402.1406
v 21.80473 -0.1748619 402.1406
v 22.66992 -0.1748619 403.0058
v 21.80473 -0.1748619 403.0058
v 28.72628 -0.1748619 402.1406
v 27.86109 -0.1748619 402.1406
v 28.72628 -0.1748619 403.0058
v 27.86109 -0.1748619 403.0058
v 27.42849 -0.1748619 401.708
v 26.5633 -0.1748619 401.708
v 27.42849 -0.1748619 403.0058
v 26.5633 -0.1748619 403.0058
v 26.1307 -0.1748619 400.8428
v 25.2655 -0.1748619 400.8428
v 26.1307 -0.1748619 401.708
v 25.2655 -0.1748619 401.708
v 24.83291 -0.1748619 400.4102
v 23.96771 -0.1748619 400.4102
v 24.83291 -0.1748619 401.708
v 23.96771 -0.1748619 401.708
v 25.2655 -0.1748619 399.9776
v 24.40031 -0.1748619 399.9776
v 25.2655 -0.1748619 401.2754
v 24.40031 -0.1748619 401.2754
v 23.96771 -0.1748619 399.545
v 22.66992 -0.1748619 399.545
v 23.96771 -0.1748619 400.8428
v 22.66992 -0.1748619 400.8428
v 24.40031 -0.1748619 398.6798
v 23.53512 -0.1748619 398.6798
v 24.40031 -0.1748619 399.9776
v 23.53512 -0.1748619 399.9776
v 25.6981 -0.1748619 398.6798
v 24.40031 -0.1748619 398.6798
v 25.6981 -0.1748619 399.545
v 24.40031 -0.1748619 399.545
v 26.1307 -0.1748619 398.6798
v 25.2655 -0.1748619 398.6798
v 26.1307 -0.1748619 399.545
v 25.2655 -0.1748619 399.545
v 26.1307 -0.1748619 397.8146
v 25.2655 -0.1748619 397.8146
v 26.1307 -0.1748619 399.1124
v 25.2655 -0.1748619 399.1124
v 24.40031 -0.1748619 397.382
v 23.53512 -0.1748619 397.382
v 24.40031 -0.1748619 398.2472
v 23.53512 -0.1748619 398.2472
v 27.42849 -0.1748619 394.7865
v 26.1307 -0.1748619 394.7865
v 27.42849 -0.1748619 395.6516
v 26.1307 -0.1748619 395.6516
v 28.72628 -0.1748619 394.3539
v 27.86109 -0.1748619 394.3539
v 28.72628 -0.1748619 395.6516
v 27.86109 -0.1748619 395.6516
v 29.15888 -0.1748619 393.0561
v 28.29369 -0.1748619 393.0561
v 29.15888 -0.1748619 394.3539
v 28.29369 -0.1748619 394.3539
v 20.93953 -0.1748619 386.5671
v 20.07434 -0.1748619 386.5671
v 20.93953 -0.1748619 387.8649
v 20.07434 -0.1748619 387.8649
v 20.50694 -0.1748619 386.1345
v 19.64174 -0.1748619 386.1345
v 20.50694 -0.1748619 386.9997
v 19.64174 -0.1748619 386.9997
v 20.07434 -0.1748619 385.7019
v 19.20914 -0.1748619 385.7019
v 20.07434 -0.1748619 386.9997
v 19.20914 -0.1748619 386.9997
v 16.18096 -0.1748619 385.7019
v 15.31577 -0.1748619 385.7019
v 16.18096 -0.1748619 386.9997
v 15.31577 -0.1748619 386.9997
v 17.04616 -0.1748619 385.7019
v 16.18096 -0.1748619 385.7019
v 17.04616 -0.1748619 386.5671
v 16.18096 -0.1748619 386.5671
v 18.77655 -0.1748619 385.7019
v 17.91135 -0.1748619 385.7019
v 18.77655 -0.1748619 386.5671
v 17.91135 -0.1748619 386.5671
v 21.80473 -0.1748619 385.2693
v 20.93953 -0.1748619 385.2693
v 21.80473 -0.1748619 386.5671
v 20.93953 -0.1748619 386.5671
v 19.64174 -0.1748619 385.2693
v 18.77655 -0.1748619 385.2693
v 19.64174 -0.1748619 386.5671
v 18.77655 -0.1748619 386.5671
v 22.23732 -0.1748619 384.8367
v 20.93953 -0.1748619 384.8367
v 22.23732 -0.1748619 386.1345
v 20.93953 -0.1748619 386.1345
v 19.20914 -0.1748619 384.4041
v 18.34395 -0.1748619 384.4041
v 19.20914 -0.1748619 385.7019
v 18.34395 -0.1748619 385.7019
v 20.50694 -0.1748619 384.4041
v 19.64174 -0.1748619 384.4041
v 20.50694 -0.1748619 385.2693
v 19.64174 -0.1748619 385.2693
v 25.2655 -0.1748619 383.9715
v 24.40031 -0.1748619 383.9715
v 25.2655 -0.1748619 385.2693
v 24.40031 -0.1748619 385.2693
v 17.91135 -0.1748619 383.9715
v 17.04616 -0.1748619 383.9715
v 17.91135 -0.1748619 384.8367
v 17.04616 -0.1748619 384.8367
v 23.96771 -0.1748619 383.5389
v 23.10252 -0.1748619 383.5389
v 23.96771 -0.1748619 384.8367
v 23.10252 -0.1748619 384.8367
v 20.93953 -0.1748619 383.5389
v 20.07434 -0.1748619 383.5389
v 20.93953 -0.1748619 384.8367
v 20.07434 -0.1748619 384.8367
v 23.10252 -0.1748619 383.1063
v 22.23732 -0.1748619 383.1063
v 23.10252 -0.1748619 383.9715
v 22.23732 -0.1748619 383.9715
v 24.40031 -0.1748619 383.1063
v 23.53512 -0.1748619 383.1063
v 24.40031 -0.1748619 383.9715
v 23.53512 -0.1748619 383.9715
vt 0.1347656 0.9185662
vt 0.2060202 0.9185662
vt 0.1347656 1
vt 0.2060202 1
vt 0.1347656 0.9185662
vt 0.2060202 0.9185662
vt 0.1347656 1
vt 0.2060202 1
vt 0.1347656 0.9185662
vt 0.2060202 0.9185662
vt 0.1347656 1
vt 0.2060202 1
vt 0.1347656 0.9185662
vt 0.2060202 0.9185662
vt 0.1347656 1
vt 0.2060202 1
vt 0.1347656 0.9185662
vt 0.2060202 0.9185662
vt 0.1347656 1
vt 0.2060202 1
vt 0.1347656 0.9185662
vt 0.2060202 0.9185662
vt 0.1347656 1
vt 0.2060202 1
vt 0.1347656 0.9185662
vt 0.2060202 0.9185662
vt 0.1347656 1
vt 0.2060202 1
vt 0.1347656 0.9185662
vt 0.2060202 0.9185662
vt 0.1347656 1
vt 0.2060202 1
vt 0.1347656 0.9185662
vt 0.2060202 0.9185662
vt 0.1347656 1
vt 0.2060202 1
vt 0.1347656 0.9185662
vt 0.2060202 0.9185662
vt 0.1347656 1
vt 0.2060202 1
vt 0.1347656 0.9185662
vt 0.2060202 0.9185662
vt 0.1347656 1
vt 0.2060202 1
vt 0.1347656 0.9185662
vt 0.2060202 0.9185662
vt 0.1347656 1
vt 0.2060202 1
vt 0.1347656 0.9185662
vt 0.2060202 0.9185662
vt 0.1347656 1
vt 0.2060202 1
vt 0.1347656 0.9185662
vt 0.2060202 0.9185662
vt 0.1347656 1
vt 0.2060202 1
vt 0.1347656 0.9185662
vt 0.2060202 0.9185662
vt 0.1347656 1
vt 0.2060202 1
vt 0.1347656 0.9185662
vt 0.2060202 0.9185662
vt 0.1347656 1
vt 0.2060202 1
vt 0.1347656 0.9185662
vt 0.2060202 0.9185662
vt 0.1347656 1
vt 0.2060202 1
vt 0.1347656 0.9185662
vt 0.2060202 0.9185662
vt 0.1347656 1
vt 0.2060202 1
vt 0.1347656 0.9185662
vt 0.2060202 0.9185662
vt 0.1347656 1
vt 0.2060202 1
vt 0.1347656 0.9185662
vt 0.2060202 0.9185662
vt 0.1347656 1
vt 0.2060202 1
vt 0.1347656 0.9185662
vt 0.2060202 0.9185662
vt 0.1347656 1
vt 0.2060202 1
vt 0.1347656 0.9185662
vt 0.2060202 0.9185662
vt 0.1347656 1
vt 0.2060202 1
vt 0.1347656 0.9185662
vt 0.2060202 0.9185662
vt 0.1347656 1
vt 0.2060202 1
vt 0.1347656 0.9185662
vt 0.2060202 0.9185662
vt 0.1347656 1
vt 0.2060202 1
vt 0.1347656 0.9185662
vt 0.2060202 0.9185662
vt 0.1347656 1
vt 0.2060202 1
vt 0.1347656 0.9185662
vt 0.2060202 0.9185662
vt 0.1347656 1
vt 0.2060202 1
vt 0.1347656 0.9185662
vt 0.2060202 0.9185662
vt 0.1347656 1
vt 0.2060202 1
vt 0.1347656 0.9185662
vt 0.2060202 0.9185662
vt 0.1347656 1
vt 0.2060202 1
vt 0.1347656 0.9185662
vt 0.2060202 0.9185662
vt 0.1347656 1
vt 0.2060202 1
vt 0.1347656 0.9185662
vt 0.2060202 0.9185662
vt 0.1347656 1
vt 0.2060202 1
vt 0.1347656 0.9185662
vt 0.2060202 0.9185662
vt 0.1347656 1
vt 0.2060202 1
vt 0.1347656 0.9185662
vt 0.2060202 0.9185662
vt 0.1347656 1
vt 0.2060202 1
vt 0.1347656 0.9185662
vt 0.2060202 0.9185662
vt 0.1347656 1
vt 0.2060202 1
vt 0.1347656 0.9185662
vt 0.2060202 0.9185662
vt 0.1347656 1
vt 0.2060202 1
vt 0.1347656 0.9185662
vt 0.2060202 0.9185662
vt 0.1347656 1
vt 0.2060202 1
vt 0.1347656 0.9185662
vt 0.2060202 0.9185662
vt 0.1347656 1
vt 0.2060202 1
vt 0.1347656 0.9185662
vt 0.2060202 0.9185662
vt 0.1347656 1
vt 0.2060202 1
vt 0.1347656 0.9185662
vt 0.2060202 0.9185662
vt 0.1347656 1
vt 0.2060202 1
vt 0.1347656 0.9185662
vt 0.2060202 0.9185662
vt 0.1347656 1
vt 0.2060202 1
vt 0.1347656 0.9185662
vt 0.2060202 0.9185662
vt 0.1347656 1
vt 0.2060202 1
vn 0 1 0
vn 0 1 0
vn 0 1 0
vn 0 1 0
vn 0 1 0
vn 0 1 0
vn 0 1 0
vn 0 1 0
vn 0 1 0
vn 0 1 0
vn 0 1 0
vn 0 1 0
vn 0 1 0
vn 0 1 0
vn 0 1 0
vn 0 1 0
vn 0 1 0
vn 0 1 0
vn 0 1 0
vn 0 1 0
vn 0 1 0
vn 0 1 0
vn 0 1 0
vn 0 1 0
vn 0 1 0
vn 0 1 0
vn 0 1 0
vn 0 1 0
vn 0 1 0
vn 0 1 0
vn 0 1 0
vn 0 1 0
vn 0 1 0
vn 0 1 0
vn 0 1 0
vn 0 1 0
vn 0 1 0
vn 0 1 0
vn 0 1 0
vn 0 1 0
vn 0 1 0
vn 0 1 0
vn 0 1 0
vn 0 1 0
vn 0 1 0
vn 0 1 0
vn 0 1 0
vn 0 1 0
vn 0 1 0
vn 0 1 0
vn 0 1 0
vn 0 1 0
vn 0 1 0
vn 0 1 0
vn 0 1 0
vn 0 1 0
vn 0 1 0
vn 0 1 0
vn 0 1 0
vn 0 1 0
vn 0 1 0
vn 0 1 0
vn 0 1 0
vn 0 1 0
vn 0 1 0
vn 0 1 0
vn 0 1 0
vn 0 1 0
vn 0 1 0
vn 0 1 0
vn 0 1 0
vn 0 1 0
vn 0 1 0
vn 0 1 0
vn 0 1 0
vn 0 1 0
vn 0 1 0
vn 0 1 0
vn 0 1 0
vn 0 1 0
vn 0 1 0
vn 0 1 0
vn 0 1 0
vn 0 1 0
vn 0 1 0
vn 0 1 0
vn 0 1 0
vn 0 1 0
vn 0 1 0
vn 0 1 0
vn 0 1 0
vn 0 1 0
vn 0 1 0
vn 0 1 0
vn 0 1 0
vn 0 1 0
vn 0 1 0
vn 0 1 0
vn 0 1 0
vn 0 1 0
vn 0 1 0
vn 0 1 0
vn 0 1 0
vn 0 1 0
vn 0 1 0
vn 0 1 0
vn 0 1 0
vn 0 1 0
vn 0 1 0
vn 0 1 0
vn 0 1 0
vn 0 1 0
vn 0 1 0
vn 0 1 0
vn 0 1 0
vn 0 1 0
vn 0 1 0
vn 0 1 0
vn 0 1 0
vn 0 1 0
vn 0 1 0
vn 0 1 0
vn 0 1 0
vn 0 1 0
vn 0 1 0
vn 0 1 0
vn 0 1 0
vn 0 1 0
vn 0 1 0
vn 0 1 0
vn 0 1 0
vn 0 1 0
vn 0 1 0
vn 0 1 0
vn 0 1 0
vn 0 1 0
vn 0 1 0
vn 0 1 0
vn 0 1 0
vn 0 1 0
vn 0 1 0
vn 0 1 0
vn 0 1 0
vn 0 1 0
vn 0 1 0
vn 0 1 0
vn 0 1 0
vn 0 1 0
vn 0 1 0
vn 0 1 0
vn 0 1 0
vn 0 1 0
vn 0 1 0
vn 0 1 0
vn 0 1 0
vn 0 1 0
vn 0 1 0
vn 0 1 0
vn 0 1 0
vn 0 1 0
g Grass_2_Cluster289_0
f 2/2/2 3/3/3 1/1/1
f 2/2/2 4/4/4 3/3/3
f 6/6/6 7/7/7 5/5/5
f 6/6/6 8/8/8 7/7/7
f 10/10/10 11/11/11 9/9/9
f 10/10/10 12/12/12 11/11/11
f 14/14/14 15/15/15 13/13/13
f 14/14/14 16/16/16 15/15/15
f 18/18/18 19/19/19 17/17/17
f 18/18/18 20/20/20 19/19/19
f 22/22/22 23/23/23 21/21/21
f 22/22/22 24/24/24 23/23/23
f 26/26/26 27/27/27 25/25/25
f 26/26/26 28/28/28 27/27/27
f 30/30/30 31/31/31 29/29/29
f 30/30/30 32/32/32 31/31/31
f 34/34/34 35/35/35 33/33/33
f 34/34/34 36/36/36 35/35/35
f 38/38/38 39/39/39 37/37/37
f 38/38/38 40/40/40 39/39/39
f 42/42/42 43/43/43 41/41/41
f 42/42/42 44/44/44 43/43/43
f 46/46/46 47/47/47 45/45/45
f 46/46/46 48/48/48 47/47/47
f 50/50/50 51/51/51 49/49/49
f 50/50/50 52/52/52 51/51/51
f 54/54/54 55/55/55 53/53/53
f 54/54/54 56/56/56 55/55/55
f 58/58/58 59/59/59 57/57/57
f 58/58/58 60/60/60 59/59/59
f 62/62/62 63/63/63 61/61/61
f 62/62/62 64/64/64 63/63/63
f 66/66/66 67/67/67 65/65/65
f 66/66/66 68/68/68 67/67/67
f 70/70/70 71/71/71 69/69/69
f 70/70/70 72/72/72 71/71/71
f 74/74/74 75/75/75 73/73/73
f 74/74/74 76/76/76 75/75/75
f 78/78/78 79/79/79 77/77/77
f 78/78/78 80/80/80 79/79/79
f 82/82/82 83/83/83 81/81/81
f 82/82/82 84/84/84 83/83/83
f 86/86/86 87/87/87 85/85/85
f 86/86/86 88/88/88 87/87/87
f 90/90/90 91/91/91 89/89/89
f 90/90/90 92/92/92 91/91/91
f 94/94/94 95/95/95 93/93/93
f 94/94/94 96/96/96 95/95/95
f 98/98/98 99/99/99 97/97/97
f 98/98/98 100/100/100 99/99/99
f 102/102/102 103/103/103 101/101/101
f 102/102/102 104/104/104 103/103/103
f 106/106/106 107/107/107 105/105/105
f 106/106/106 108/108/108 107/107/107
f 110/110/110 111/111/111 109/109/109
f 110/110/110 112/112/112 111/111/111
f 114/114/114 115/115/115 113/113/113
f 114/114/114 116/116/116 115/115/115
f 118/118/118 119/119/119 117/117/117
f 118/118/118 120/120/120 119/119/119
f 122/122/122 123/123/123 121/121/121
f 122/122/122 124/124/124 123/123/123
f 126/126/126 127/127/127 125/125/125
f 126/126/126 128/128/128 127/127/127
f 130/130/130 131/131/131 129/129/129
f 130/130/130 132/132/132 131/131/131
f 134/134/134 135/135/135 133/133/133
f 134/134/134 136/136/136 135/135/135
f 138/138/138 139/139/139 137/137/137
f 138/138/138 140/140/140 139/139/139
f 142/142/142 143/143/143 141/141/141
f 142/142/142 144/144/144 143/143/143
f 146/146/146 147/147/147 145/145/145
f 146/146/146 148/148/148 147/147/147
f 150/150/150 151/151/151 149/149/149
f 150/150/150 152/152/152 151/151/151
f 154/154/154 155/155/155 153/153/153
f 154/154/154 156/156/156 155/155/155
f 158/158/158 159/159/159 157/157/157
f 158/158/158 160/160/160 159/159/159
