g Grass_2_Cluster168
v 43.83529 -0.1142044 232.8769
v 42.98907 -0.1142044 232.8769
v 43.83529 -0.1142044 234.0052
v 42.98907 -0.1142044 234.0052
v 45.52772 -0.1142044 232.5948
v 44.6815 -0.1142044 232.5948
v 45.52772 -0.1142044 233.7231
v 44.6815 -0.1142044 233.7231
v 33.68072 -0.1142044 232.8769
v 32.55243 -0.1142044 232.8769
v 33.68072 -0.1142044 234.0052
v 32.55243 -0.1142044 234.0052
v 48.34843 -0.1142044 232.5948
v 47.50222 -0.1142044 232.5948
v 48.34843 -0.1142044 233.7231
v 47.50222 -0.1142044 233.7231
v 31.98829 -0.1142044 232.5948
v 31.14207 -0.1142044 232.5948
v 31.98829 -0.1142044 233.7231
v 31.14207 -0.1142044 233.7231
v 34.52693 -0.1142044 232.3127
v 33.68072 -0.1142044 232.3127
v 34.52693 -0.1142044 233.441
v 33.68072 -0.1142044 233.441
v 47.22015 -0.1142044 231.7486
v 46.37394 -0.1142044 231.7486
v 47.22015 -0.1142044 232.8769
v 46.37394 -0.1142044 232.8769
v 44.39943 -0.1142044 231.7486
v 43.27115 -0.1142044 231.7486
v 44.39943 -0.1142044 232.8769
v 43.27115 -0.1142044 232.8769
v 33.96279 -0.1142044 231.4665
v 32.8345 -0.1142044 231.4665
v 33.96279 -0.1142044 232.5948
v 32.8345 -0.1142044 232.5948
v 34.24486 -0.1142044 223.2864
v 33.39864 -0.1142044 223.2864
v 34.24486 -0.1142044 224.4147
v 33.39864 -0.1142044 224.4147
v 35.09107 -0.1142044 219.0554
v 34.24486 -0.1142044 219.0554
v 35.09107 -0.1142044 219.9016
v 34.24486 -0.1142044 219.9016
v 44.6815 -0.1142044 215.6705
v 43.83529 -0.1142044 215.6705
v 44.6815 -0.1142044 216.5167
v 43.83529 -0.1142044 216.5167
v 52.86158 -0.1142044 214.8243
v 52.01537 -0.1142044 214.8243
v 52.86158 -0.1142044 215.9526
v 52.01537 -0.1142044 215.9526
v 54.55401 -0.1142044 213.696
v 53.70779 -0.1142044 213.696
v 54.55401 -0.1142044 214.8243
v 53.70779 -0.1142044 214.8243
v 42.42493 -0.1142044 213.696
v 41.29665 -0.1142044 213.696
v 42.42493 -0.1142044 214.8243
v 41.29665 -0.1142044 214.8243
v 42.98907 -0.1142044 213.1319
v 42.14286 -0.1142044 213.1319
v 42.98907 -0.1142044 214.2601
v 42.14286 -0.1142044 214.2601
v 48.34843 -0.1142044 212.2856
v 47.22015 -0.1142044 212.2856
v 48.34843 -0.1142044 213.4139
v 47.22015 -0.1142044 213.4139
vt 0.1347656 0.9185662
vt 0.2060202 0.9185662
vt 0.1347656 1
vt 0.2060202 1
vt 0.1347656 0.9185662
vt 0.2060202 0.9185662
vt 0.1347656 1
vt 0.2060202 1
vt 0.1347656 0.9185662
vt 0.2060202 0.9185662
vt 0.1347656 1
vt 0.2060202 1
vt 0.1347656 0.9185662
vt 0.2060202 0.9185662
vt 0.1347656 1
vt 0.2060202 1
vt 0.1347656 0.9185662
vt 0.2060202 0.9185662
vt 0.1347656 1
vt 0.2060202 1
vt 0.1347656 0.9185662
vt 0.2060202 0.9185662
vt 0.1347656 1
vt 0.2060202 1
vt 0.1347656 0.9185662
vt 0.2060202 0.9185662
vt 0.1347656 1
vt 0.2060202 1
vt 0.1347656 0.9185662
vt 0.2060202 0.9185662
vt 0.1347656 1
vt 0.2060202 1
vt 0.1347656 0.9185662
vt 0.2060202 0.9185662
vt 0.1347656 1
vt 0.2060202 1
vt 0.1347656 0.9185662
vt 0.2060202 0.9185662
vt 0.1347656 1
vt 0.2060202 1
vt 0.1347656 0.9185662
vt 0.2060202 0.9185662
vt 0.1347656 1
vt 0.2060202 1
vt 0.1347656 0.9185662
vt 0.2060202 0.9185662
vt 0.1347656 1
vt 0.2060202 1
vt 0.1347656 0.9185662
vt 0.2060202 0.9185662
vt 0.1347656 1
vt 0.2060202 1
vt 0.1347656 0.9185662
vt 0.2060202 0.9185662
vt 0.1347656 1
vt 0.2060202 1
vt 0.1347656 0.9185662
vt 0.2060202 0.9185662
vt 0.1347656 1
vt 0.2060202 1
vt 0.1347656 0.9185662
vt 0.2060202 0.9185662
vt 0.1347656 1
vt 0.2060202 1
vt 0.1347656 0.9185662
vt 0.2060202 0.9185662
vt 0.1347656 1
vt 0.2060202 1
vn 0 1 0
vn 0 1 0
vn 0 1 0
vn 0 1 0
vn 0 1 0
vn 0 1 0
vn 0 1 0
vn 0 1 0
vn 0 1 0
vn 0 1 0
vn 0 1 0
vn 0 1 0
vn 0 1 0
vn 0 1 0
vn 0 1 0
vn 0 1 0
vn 0 1 0
vn 0 1 0
vn 0 1 0
vn 0 1 0
vn 0 1 0
vn 0 1 0
vn 0 1 0
vn 0 1 0
vn 0 1 0
vn 0 1 0
vn 0 1 0
vn 0 1 0
vn 0 1 0
vn 0 1 0
vn 0 1 0
vn 0 1 0
vn 0 1 0
vn 0 1 0
vn 0 1 0
vn 0 1 0
vn 0 1 0
vn 0 1 0
vn 0 1 0
vn 0 1 0
vn 0 1 0
vn 0 1 0
vn 0 1 0
vn 0 1 0
vn 0 1 0
vn 0 1 0
vn 0 1 0
vn 0 1 0
vn 0 1 0
vn 0 1 0
vn 0 1 0
vn 0 1 0
vn 0 1 0
vn 0 1 0
vn 0 1 0
vn 0 1 0
vn 0 1 0
vn 0 1 0
vn 0 1 0
vn 0 1 0
vn 0 1 0
vn 0 1 0
vn 0 1 0
vn 0 1 0
vn 0 1 0
vn 0 1 0
vn 0 1 0
vn 0 1 0
g Grass_2_Cluster168_0
f 2/2/2 3/3/3 1/1/1
f 2/2/2 4/4/4 3/3/3
f 6/6/6 7/7/7 5/5/5
f 6/6/6 8/8/8 7/7/7
f 10/10/10 11/11/11 9/9/9
f 10/10/10 12/12/12 11/11/11
f 14/14/14 15/15/15 13/13/13
f 14/14/14 16/16/16 15/15/15
f 18/18/18 19/19/19 17/17/17
f 18/18/18 20/20/20 19/19/19
f 22/22/22 23/23/23 21/21/21
f 22/22/22 24/24/24 23/23/23
f 26/26/26 27/27/27 25/25/25
f 26/26/26 28/28/28 27/27/27
f 30/30/30 31/31/31 29/29/29
f 30/30/30 32/32/32 31/31/31
f 34/34/34 35/35/35 33/33/33
f 34/34/34 36/36/36 35/35/35
f 38/38/38 39/39/39 37/37/37
f 38/38/38 40/40/40 39/39/39
f 42/42/42 43/43/43 41/41/41
f 42/42/42 44/44/44 43/43/43
f 46/46/46 47/47/47 45/45/45
f 46/46/46 48/48/48 47/47/47
f 50/50/50 51/51/51 49/49/49
f 50/50/50 52/52/52 51/51/51
f 54/54/54 55/55/55 53/53/53
f 54/54/54 56/56/56 55/55/55
f 58/58/58 59/59/59 57/57/57
f 58/58/58 60/60/60 59/59/59
f 62/62/62 63/63/63 61/61/61
f 62/62/62 64/64/64 63/63/63
f 66/66/66 67/67/67 65/65/65
f 66/66/66 68/68/68 67/67/67
