g Grass_2_Cluster101
v 253.598 0.1794128 142.651
v 252.3838 0.1794128 142.651
v 253.598 0.1794128 143.8652
v 252.3838 0.1794128 143.8652
v 245.5031 0.1794128 142.651
v 244.6935 0.1794128 142.651
v 245.5031 0.1794128 143.4604
v 244.6935 0.1794128 143.4604
v 243.884 0.1794128 141.8415
v 243.0746 0.1794128 141.8415
v 243.884 0.1794128 143.0557
v 243.0746 0.1794128 143.0557
v 267.3595 0.1794128 141.8415
v 266.55 0.1794128 141.8415
v 267.3595 0.1794128 143.0557
v 266.55 0.1794128 143.0557
v 258.0503 0.1794128 133.3417
v 256.836 0.1794128 133.3417
v 258.0503 0.1794128 134.556
v 256.836 0.1794128 134.556
v 269.788 0.1794128 132.937
v 268.9785 0.1794128 132.937
v 269.788 0.1794128 133.7465
v 268.9785 0.1794128 133.7465
v 266.55 0.1794128 121.1993
v 265.7405 0.1794128 121.1993
v 266.55 0.1794128 122.0088
v 265.7405 0.1794128 122.0088
v 264.5262 0.1794128 120.7945
v 263.312 0.1794128 120.7945
v 264.5262 0.1794128 122.0088
v 263.312 0.1794128 122.0088
v 265.3357 0.1794128 120.3898
v 264.5262 0.1794128 120.3898
v 265.3357 0.1794128 121.604
v 264.5262 0.1794128 121.604
v 266.9547 0.1794128 120.3898
v 265.7405 0.1794128 120.3898
v 266.9547 0.1794128 121.604
v 265.7405 0.1794128 121.604
v 264.5262 0.1794128 119.985
v 263.7167 0.1794128 119.985
v 264.5262 0.1794128 121.1993
v 263.7167 0.1794128 121.1993
v 266.9547 0.1794128 119.5803
v 266.1452 0.1794128 119.5803
v 266.9547 0.1794128 120.7945
v 266.1452 0.1794128 120.7945
v 267.7642 0.1794128 118.7708
v 266.9547 0.1794128 118.7708
v 267.7642 0.1794128 119.985
v 266.9547 0.1794128 119.985
v 264.931 0.1794128 118.7708
v 264.1215 0.1794128 118.7708
v 264.931 0.1794128 119.985
v 264.1215 0.1794128 119.985
v 266.1452 0.1794128 118.7708
v 265.3357 0.1794128 118.7708
v 266.1452 0.1794128 119.5803
v 265.3357 0.1794128 119.5803
v 267.3595 0.1794128 117.9613
v 266.55 0.1794128 117.9613
v 267.3595 0.1794128 119.1755
v 266.55 0.1794128 119.1755
v 264.931 0.1794128 117.9613
v 263.7167 0.1794128 117.9613
v 264.931 0.1794128 119.1755
v 263.7167 0.1794128 119.1755
v 268.169 0.1794128 117.5565
v 267.3595 0.1794128 117.5565
v 268.169 0.1794128 118.7708
v 267.3595 0.1794128 118.7708
v 266.1452 0.1794128 117.1518
v 264.931 0.1794128 117.1518
v 266.1452 0.1794128 118.366
v 264.931 0.1794128 118.366
v 264.1215 0.1794128 117.1518
v 263.312 0.1794128 117.1518
v 264.1215 0.1794128 117.9613
v 263.312 0.1794128 117.9613
v 241.0508 0.1794128 116.747
v 240.2413 0.1794128 116.747
v 241.0508 0.1794128 117.9613
v 240.2413 0.1794128 117.9613
v 268.5737 0.1794128 116.747
v 267.7642 0.1794128 116.747
v 268.5737 0.1794128 117.9613
v 267.7642 0.1794128 117.9613
v 247.9315 0.1794128 116.747
v 246.7173 0.1794128 116.747
v 247.9315 0.1794128 117.5565
v 246.7173 0.1794128 117.5565
v 265.7405 0.1794128 116.747
v 264.5262 0.1794128 116.747
v 265.7405 0.1794128 117.5565
v 264.5262 0.1794128 117.5565
v 269.788 0.1794128 116.3423
v 268.9785 0.1794128 116.3423
v 269.788 0.1794128 117.5565
v 268.9785 0.1794128 117.5565
v 245.9078 0.1794128 116.3423
v 244.6935 0.1794128 116.3423
v 245.9078 0.1794128 117.5565
v 244.6935 0.1794128 117.5565
v 243.4793 0.1794128 115.9376
v 242.2651 0.1794128 115.9376
v 243.4793 0.1794128 117.1518
v 242.2651 0.1794128 117.1518
v 247.122 0.1794128 116.3423
v 246.3125 0.1794128 116.3423
v 247.122 0.1794128 117.1518
v 246.3125 0.1794128 117.1518
v 266.9547 0.1794128 115.9376
v 265.7405 0.1794128 115.9376
v 266.9547 0.1794128 117.1518
v 265.7405 0.1794128 117.1518
v 268.169 0.1794128 115.9376
v 266.9547 0.1794128 115.9376
v 268.169 0.1794128 117.1518
v 266.9547 0.1794128 117.1518
v 245.0983 0.1794128 115.9376
v 244.2888 0.1794128 115.9376
v 245.0983 0.1794128 117.1518
v 244.2888 0.1794128 117.1518
v 251.5743 0.1794128 115.9376
v 250.36 0.1794128 115.9376
v 251.5743 0.1794128 117.1518
v 250.36 0.1794128 117.1518
v 249.5505 0.1794128 115.9376
v 248.3363 0.1794128 115.9376
v 249.5505 0.1794128 116.747
v 248.3363 0.1794128 116.747
v 269.788 0.1794128 115.5328
v 268.9785 0.1794128 115.5328
v 269.788 0.1794128 116.747
v 268.9785 0.1794128 116.747
v 247.122 0.1794128 115.5328
v 246.3125 0.1794128 115.5328
v 247.122 0.1794128 116.3423
v 246.3125 0.1794128 116.3423
v 251.1695 0.1794128 115.5328
v 250.36 0.1794128 115.5328
v 251.1695 0.1794128 116.3423
v 250.36 0.1794128 116.3423
v 268.169 0.1794128 115.1281
v 267.3595 0.1794128 115.1281
v 268.169 0.1794128 116.3423
v 267.3595 0.1794128 116.3423
v 251.979 0.1794128 115.1281
v 251.1695 0.1794128 115.1281
v 251.979 0.1794128 116.3423
v 251.1695 0.1794128 116.3423
v 242.2651 0.1794128 115.1281
v 241.4556 0.1794128 115.1281
v 242.2651 0.1794128 116.3423
v 241.4556 0.1794128 116.3423
v 247.9315 0.1794128 115.1281
v 247.122 0.1794128 115.1281
v 247.9315 0.1794128 115.9376
v 247.122 0.1794128 115.9376
v 245.5031 0.1794128 115.1281
v 244.6935 0.1794128 115.1281
v 245.5031 0.1794128 115.9376
v 244.6935 0.1794128 115.9376
v 244.6935 0.1794128 114.7233
v 243.884 0.1794128 114.7233
v 244.6935 0.1794128 115.9376
v 243.884 0.1794128 115.9376
v 241.4556 0.1794128 114.7233
v 240.2413 0.1794128 114.7233
v 241.4556 0.1794128 115.5328
v 240.2413 0.1794128 115.5328
v 250.36 0.1794128 114.7233
v 249.5505 0.1794128 114.7233
v 250.36 0.1794128 115.5328
v 249.5505 0.1794128 115.5328
v 249.5505 0.1794128 114.7233
v 248.741 0.1794128 114.7233
v 249.5505 0.1794128 115.5328
v 248.741 0.1794128 115.5328
v 268.9785 0.1794128 114.7233
v 268.169 0.1794128 114.7233
v 268.9785 0.1794128 115.5328
v 268.169 0.1794128 115.5328
v 242.6698 0.1794128 114.7233
v 241.8603 0.1794128 114.7233
v 242.6698 0.1794128 115.5328
v 241.8603 0.1794128 115.5328
v 248.741 0.1794128 114.3185
v 247.9315 0.1794128 114.3185
v 248.741 0.1794128 115.5328
v 247.9315 0.1794128 115.5328
v 267.3595 0.1794128 114.3185
v 266.55 0.1794128 114.3185
v 267.3595 0.1794128 115.5328
v 266.55 0.1794128 115.5328
v 252.7885 0.1794128 113.9138
v 251.5743 0.1794128 113.9138
v 252.7885 0.1794128 115.1281
v 251.5743 0.1794128 115.1281
v 270.1927 0.1794128 114.3185
v 269.3832 0.1794128 114.3185
v 270.1927 0.1794128 115.1281
v 269.3832 0.1794128 115.1281
v 244.2888 0.1794128 114.3185
v 243.0746 0.1794128 114.3185
v 244.2888 0.1794128 115.1281
v 243.0746 0.1794128 115.1281
v 245.5031 0.1794128 113.9138
v 244.2888 0.1794128 113.9138
v 245.5031 0.1794128 115.1281
v 244.2888 0.1794128 115.1281
v 251.1695 0.1794128 113.9138
v 250.36 0.1794128 113.9138
v 251.1695 0.1794128 115.1281
v 250.36 0.1794128 115.1281
v 269.788 0.1794128 113.9138
v 268.9785 0.1794128 113.9138
v 269.788 0.1794128 114.7233
v 268.9785 0.1794128 114.7233
v 246.3125 0.1794128 113.5091
v 245.0983 0.1794128 113.5091
v 246.3125 0.1794128 114.7233
v 245.0983 0.1794128 114.7233
v 243.0746 0.1794128 113.5091
v 242.2651 0.1794128 113.5091
v 243.0746 0.1794128 114.7233
v 242.2651 0.1794128 114.7233
v 247.5268 0.1794128 113.5091
v 246.3125 0.1794128 113.5091
v 247.5268 0.1794128 114.7233
v 246.3125 0.1794128 114.7233
v 248.3363 0.1794128 113.5091
v 247.122 0.1794128 113.5091
v 248.3363 0.1794128 114.7233
v 247.122 0.1794128 114.7233
v 254.4075 0.1794128 113.1043
v 253.1933 0.1794128 113.1043
v 254.4075 0.1794128 114.3185
v 253.1933 0.1794128 114.3185
v 242.2651 0.1794128 113.1043
v 241.4556 0.1794128 113.1043
v 242.2651 0.1794128 114.3185
v 241.4556 0.1794128 114.3185
vt 0.1347656 0.9185662
vt 0.2060202 0.9185662
vt 0.1347656 1
vt 0.2060202 1
vt 0.1347656 0.9185662
vt 0.2060202 0.9185662
vt 0.1347656 1
vt 0.2060202 1
vt 0.1347656 0.9185662
vt 0.2060202 0.9185662
vt 0.1347656 1
vt 0.2060202 1
vt 0.1347656 0.9185662
vt 0.2060202 0.9185662
vt 0.1347656 1
vt 0.2060202 1
vt 0.1347656 0.9185662
vt 0.2060202 0.9185662
vt 0.1347656 1
vt 0.2060202 1
vt 0.1347656 0.9185662
vt 0.2060202 0.9185662
vt 0.1347656 1
vt 0.2060202 1
vt 0.1347656 0.9185662
vt 0.2060202 0.9185662
vt 0.1347656 1
vt 0.2060202 1
vt 0.1347656 0.9185662
vt 0.2060202 0.9185662
vt 0.1347656 1
vt 0.2060202 1
vt 0.1347656 0.9185662
vt 0.2060202 0.9185662
vt 0.1347656 1
vt 0.2060202 1
vt 0.1347656 0.9185662
vt 0.2060202 0.9185662
vt 0.1347656 1
vt 0.2060202 1
vt 0.1347656 0.9185662
vt 0.2060202 0.9185662
vt 0.1347656 1
vt 0.2060202 1
vt 0.1347656 0.9185662
vt 0.2060202 0.9185662
vt 0.1347656 1
vt 0.2060202 1
vt 0.1347656 0.9185662
vt 0.2060202 0.9185662
vt 0.1347656 1
vt 0.2060202 1
vt 0.1347656 0.9185662
vt 0.2060202 0.9185662
vt 0.1347656 1
vt 0.2060202 1
vt 0.1347656 0.9185662
vt 0.2060202 0.9185662
vt 0.1347656 1
vt 0.2060202 1
vt 0.1347656 0.9185662
vt 0.2060202 0.9185662
vt 0.1347656 1
vt 0.2060202 1
vt 0.1347656 0.9185662
vt 0.2060202 0.9185662
vt 0.1347656 1
vt 0.2060202 1
vt 0.1347656 0.9185662
vt 0.2060202 0.9185662
vt 0.1347656 1
vt 0.2060202 1
vt 0.1347656 0.9185662
vt 0.2060202 0.9185662
vt 0.1347656 1
vt 0.2060202 1
vt 0.1347656 0.9185662
vt 0.2060202 0.9185662
vt 0.1347656 1
vt 0.2060202 1
vt 0.1347656 0.9185662
vt 0.2060202 0.9185662
vt 0.1347656 1
vt 0.2060202 1
vt 0.1347656 0.9185662
vt 0.2060202 0.9185662
vt 0.1347656 1
vt 0.2060202 1
vt 0.1347656 0.9185662
vt 0.2060202 0.9185662
vt 0.1347656 1
vt 0.2060202 1
vt 0.1347656 0.9185662
vt 0.2060202 0.9185662
vt 0.1347656 1
vt 0.2060202 1
vt 0.1347656 0.9185662
vt 0.2060202 0.9185662
vt 0.1347656 1
vt 0.2060202 1
vt 0.1347656 0.9185662
vt 0.2060202 0.9185662
vt 0.1347656 1
vt 0.2060202 1
vt 0.1347656 0.9185662
vt 0.2060202 0.9185662
vt 0.1347656 1
vt 0.2060202 1
vt 0.1347656 0.9185662
vt 0.2060202 0.9185662
vt 0.1347656 1
vt 0.2060202 1
vt 0.1347656 0.9185662
vt 0.2060202 0.9185662
vt 0.1347656 1
vt 0.2060202 1
vt 0.1347656 0.9185662
vt 0.2060202 0.9185662
vt 0.1347656 1
vt 0.2060202 1
vt 0.1347656 0.9185662
vt 0.2060202 0.9185662
vt 0.1347656 1
vt 0.2060202 1
vt 0.1347656 0.9185662
vt 0.2060202 0.9185662
vt 0.1347656 1
vt 0.2060202 1
vt 0.1347656 0.9185662
vt 0.2060202 0.9185662
vt 0.1347656 1
vt 0.2060202 1
vt 0.1347656 0.9185662
vt 0.2060202 0.9185662
vt 0.1347656 1
vt 0.2060202 1
vt 0.1347656 0.9185662
vt 0.2060202 0.9185662
vt 0.1347656 1
vt 0.2060202 1
vt 0.1347656 0.9185662
vt 0.2060202 0.9185662
vt 0.1347656 1
vt 0.2060202 1
vt 0.1347656 0.9185662
vt 0.2060202 0.9185662
vt 0.1347656 1
vt 0.2060202 1
vt 0.1347656 0.9185662
vt 0.2060202 0.9185662
vt 0.1347656 1
vt 0.2060202 1
vt 0.1347656 0.9185662
vt 0.2060202 0.9185662
vt 0.1347656 1
vt 0.2060202 1
vt 0.1347656 0.9185662
vt 0.2060202 0.9185662
vt 0.1347656 1
vt 0.2060202 1
vt 0.1347656 0.9185662
vt 0.2060202 0.9185662
vt 0.1347656 1
vt 0.2060202 1
vt 0.1347656 0.9185662
vt 0.2060202 0.9185662
vt 0.1347656 1
vt 0.2060202 1
vt 0.1347656 0.9185662
vt 0.2060202 0.9185662
vt 0.1347656 1
vt 0.2060202 1
vt 0.1347656 0.9185662
vt 0.2060202 0.9185662
vt 0.1347656 1
vt 0.2060202 1
vt 0.1347656 0.9185662
vt 0.2060202 0.9185662
vt 0.1347656 1
vt 0.2060202 1
vt 0.1347656 0.9185662
vt 0.2060202 0.9185662
vt 0.1347656 1
vt 0.2060202 1
vt 0.1347656 0.9185662
vt 0.2060202 0.9185662
vt 0.1347656 1
vt 0.2060202 1
vt 0.1347656 0.9185662
vt 0.2060202 0.9185662
vt 0.1347656 1
vt 0.2060202 1
vt 0.1347656 0.9185662
vt 0.2060202 0.9185662
vt 0.1347656 1
vt 0.2060202 1
vt 0.1347656 0.9185662
vt 0.2060202 0.9185662
vt 0.1347656 1
vt 0.2060202 1
vt 0.1347656 0.9185662
vt 0.2060202 0.9185662
vt 0.1347656 1
vt 0.2060202 1
vt 0.1347656 0.9185662
vt 0.2060202 0.9185662
vt 0.1347656 1
vt 0.2060202 1
vt 0.1347656 0.9185662
vt 0.2060202 0.9185662
vt 0.1347656 1
vt 0.2060202 1
vt 0.1347656 0.9185662
vt 0.2060202 0.9185662
vt 0.1347656 1
vt 0.2060202 1
vt 0.1347656 0.9185662
vt 0.2060202 0.9185662
vt 0.1347656 1
vt 0.2060202 1
vt 0.1347656 0.9185662
vt 0.2060202 0.9185662
vt 0.1347656 1
vt 0.2060202 1
vt 0.1347656 0.9185662
vt 0.2060202 0.9185662
vt 0.1347656 1
vt 0.2060202 1
vt 0.1347656 0.9185662
vt 0.2060202 0.9185662
vt 0.1347656 1
vt 0.2060202 1
vt 0.1347656 0.9185662
vt 0.2060202 0.9185662
vt 0.1347656 1
vt 0.2060202 1
vt 0.1347656 0.9185662
vt 0.2060202 0.9185662
vt 0.1347656 1
vt 0.2060202 1
vt 0.1347656 0.9185662
vt 0.2060202 0.9185662
vt 0.1347656 1
vt 0.2060202 1
vn 0 1 0
vn 0 1 0
vn 0 1 0
vn 0 1 0
vn 0 1 0
vn 0 1 0
vn 0 1 0
vn 0 1 0
vn 0 1 0
vn 0 1 0
vn 0 1 0
vn 0 1 0
vn 0 1 0
vn 0 1 0
vn 0 1 0
vn 0 1 0
vn 0 1 0
vn 0 1 0
vn 0 1 0
vn 0 1 0
vn 0 1 0
vn 0 1 0
vn 0 1 0
vn 0 1 0
vn 0 1 0
vn 0 1 0
vn 0 1 0
vn 0 1 0
vn 0 1 0
vn 0 1 0
vn 0 1 0
vn 0 1 0
vn 0 1 0
vn 0 1 0
vn 0 1 0
vn 0 1 0
vn 0 1 0
vn 0 1 0
vn 0 1 0
vn 0 1 0
vn 0 1 0
vn 0 1 0
vn 0 1 0
vn 0 1 0
vn 0 1 0
vn 0 1 0
vn 0 1 0
vn 0 1 0
vn 0 1 0
vn 0 1 0
vn 0 1 0
vn 0 1 0
vn 0 1 0
vn 0 1 0
vn 0 1 0
vn 0 1 0
vn 0 1 0
vn 0 1 0
vn 0 1 0
vn 0 1 0
vn 0 1 0
vn 0 1 0
vn 0 1 0
vn 0 1 0
vn 0 1 0
vn 0 1 0
vn 0 1 0
vn 0 1 0
vn 0 1 0
vn 0 1 0
vn 0 1 0
vn 0 1 0
vn 0 1 0
vn 0 1 0
vn 0 1 0
vn 0 1 0
vn 0 1 0
vn 0 1 0
vn 0 1 0
vn 0 1 0
vn 0 1 0
vn 0 1 0
vn 0 1 0
vn 0 1 0
vn 0 1 0
vn 0 1 0
vn 0 1 0
vn 0 1 0
vn 0 1 0
vn 0 1 0
vn 0 1 0
vn 0 1 0
vn 0 1 0
vn 0 1 0
vn 0 1 0
vn 0 1 0
vn 0 1 0
vn 0 1 0
vn 0 1 0
vn 0 1 0
vn 0 1 0
vn 0 1 0
vn 0 1 0
vn 0 1 0
vn 0 1 0
vn 0 1 0
vn 0 1 0
vn 0 1 0
vn 0 1 0
vn 0 1 0
vn 0 1 0
vn 0 1 0
vn 0 1 0
vn 0 1 0
vn 0 1 0
vn 0 1 0
vn 0 1 0
vn 0 1 0
vn 0 1 0
vn 0 1 0
vn 0 1 0
vn 0 1 0
vn 0 1 0
vn 0 1 0
vn 0 1 0
vn 0 1 0
vn 0 1 0
vn 0 1 0
vn 0 1 0
vn 0 1 0
vn 0 1 0
vn 0 1 0
vn 0 1 0
vn 0 1 0
vn 0 1 0
vn 0 1 0
vn 0 1 0
vn 0 1 0
vn 0 1 0
vn 0 1 0
vn 0 1 0
vn 0 1 0
vn 0 1 0
vn 0 1 0
vn 0 1 0
vn 0 1 0
vn 0 1 0
vn 0 1 0
vn 0 1 0
vn 0 1 0
vn 0 1 0
vn 0 1 0
vn 0 1 0
vn 0 1 0
vn 0 1 0
vn 0 1 0
vn 0 1 0
vn 0 1 0
vn 0 1 0
vn 0 1 0
vn 0 1 0
vn 0 1 0
vn 0 1 0
vn 0 1 0
vn 0 1 0
vn 0 1 0
vn 0 1 0
vn 0 1 0
vn 0 1 0
vn 0 1 0
vn 0 1 0
vn 0 1 0
vn 0 1 0
vn 0 1 0
vn 0 1 0
vn 0 1 0
vn 0 1 0
vn 0 1 0
vn 0 1 0
vn 0 1 0
vn 0 1 0
vn 0 1 0
vn 0 1 0
vn 0 1 0
vn 0 1 0
vn 0 1 0
vn 0 1 0
vn 0 1 0
vn 0 1 0
vn 0 1 0
vn 0 1 0
vn 0 1 0
vn 0 1 0
vn 0 1 0
vn 0 1 0
vn 0 1 0
vn 0 1 0
vn 0 1 0
vn 0 1 0
vn 0 1 0
vn 0 1 0
vn 0 1 0
vn 0 1 0
vn 0 1 0
vn 0 1 0
vn 0 1 0
vn 0 1 0
vn 0 1 0
vn 0 1 0
vn 0 1 0
vn 0 1 0
vn 0 1 0
vn 0 1 0
vn 0 1 0
vn 0 1 0
vn 0 1 0
vn 0 1 0
vn 0 1 0
vn 0 1 0
vn 0 1 0
vn 0 1 0
vn 0 1 0
vn 0 1 0
vn 0 1 0
vn 0 1 0
vn 0 1 0
vn 0 1 0
vn 0 1 0
vn 0 1 0
vn 0 1 0
vn 0 1 0
vn 0 1 0
vn 0 1 0
vn 0 1 0
vn 0 1 0
vn 0 1 0
vn 0 1 0
vn 0 1 0
vn 0 1 0
vn 0 1 0
vn 0 1 0
vn 0 1 0
vn 0 1 0
vn 0 1 0
g Grass_2_Cluster101_0
f 2/2/2 3/3/3 1/1/1
f 2/2/2 4/4/4 3/3/3
f 6/6/6 7/7/7 5/5/5
f 6/6/6 8/8/8 7/7/7
f 10/10/10 11/11/11 9/9/9
f 10/10/10 12/12/12 11/11/11
f 14/14/14 15/15/15 13/13/13
f 14/14/14 16/16/16 15/15/15
f 18/18/18 19/19/19 17/17/17
f 18/18/18 20/20/20 19/19/19
f 22/22/22 23/23/23 21/21/21
f 22/22/22 24/24/24 23/23/23
f 26/26/26 27/27/27 25/25/25
f 26/26/26 28/28/28 27/27/27
f 30/30/30 31/31/31 29/29/29
f 30/30/30 32/32/32 31/31/31
f 34/34/34 35/35/35 33/33/33
f 34/34/34 36/36/36 35/35/35
f 38/38/38 39/39/39 37/37/37
f 38/38/38 40/40/40 39/39/39
f 42/42/42 43/43/43 41/41/41
f 42/42/42 44/44/44 43/43/43
f 46/46/46 47/47/47 45/45/45
f 46/46/46 48/48/48 47/47/47
f 50/50/50 51/51/51 49/49/49
f 50/50/50 52/52/52 51/51/51
f 54/54/54 55/55/55 53/53/53
f 54/54/54 56/56/56 55/55/55
f 58/58/58 59/59/59 57/57/57
f 58/58/58 60/60/60 59/59/59
f 62/62/62 63/63/63 61/61/61
f 62/62/62 64/64/64 63/63/63
f 66/66/66 67/67/67 65/65/65
f 66/66/66 68/68/68 67/67/67
f 70/70/70 71/71/71 69/69/69
f 70/70/70 72/72/72 71/71/71
f 74/74/74 75/75/75 73/73/73
f 74/74/74 76/76/76 75/75/75
f 78/78/78 79/79/79 77/77/77
f 78/78/78 80/80/80 79/79/79
f 82/82/82 83/83/83 81/81/81
f 82/82/82 84/84/84 83/83/83
f 86/86/86 87/87/87 85/85/85
f 86/86/86 88/88/88 87/87/87
f 90/90/90 91/91/91 89/89/89
f 90/90/90 92/92/92 91/91/91
f 94/94/94 95/95/95 93/93/93
f 94/94/94 96/96/96 95/95/95
f 98/98/98 99/99/99 97/97/97
f 98/98/98 100/100/100 99/99/99
f 102/102/102 103/103/103 101/101/101
f 102/102/102 104/104/104 103/103/103
f 106/106/106 107/107/107 105/105/105
f 106/106/106 108/108/108 107/107/107
f 110/110/110 111/111/111 109/109/109
f 110/110/110 112/112/112 111/111/111
f 114/114/114 115/115/115 113/113/113
f 114/114/114 116/116/116 115/115/115
f 118/118/118 119/119/119 117/117/117
f 118/118/118 120/120/120 119/119/119
f 122/122/122 123/123/123 121/121/121
f 122/122/122 124/124/124 123/123/123
f 126/126/126 127/127/127 125/125/125
f 126/126/126 128/128/128 127/127/127
f 130/130/130 131/131/131 129/129/129
f 130/130/130 132/132/132 131/131/131
f 134/134/134 135/135/135 133/133/133
f 134/134/134 136/136/136 135/135/135
f 138/138/138 139/139/139 137/137/137
f 138/138/138 140/140/140 139/139/139
f 142/142/142 143/143/143 141/141/141
f 142/142/142 144/144/144 143/143/143
f 146/146/146 147/147/147 145/145/145
f 146/146/146 148/148/148 147/147/147
f 150/150/150 151/151/151 149/149/149
f 150/150/150 152/152/152 151/151/151
f 154/154/154 155/155/155 153/153/153
f 154/154/154 156/156/156 155/155/155
f 158/158/158 159/159/159 157/157/157
f 158/158/158 160/160/160 159/159/159
f 162/162/162 163/163/163 161/161/161
f 162/162/162 164/164/164 163/163/163
f 166/166/166 167/167/167 165/165/165
f 166/166/166 168/168/168 167/167/167
f 170/170/170 171/171/171 169/169/169
f 170/170/170 172/172/172 171/171/171
f 174/174/174 175/175/175 173/173/173
f 174/174/174 176/176/176 175/175/175
f 178/178/178 179/179/179 177/177/177
f 178/178/178 180/180/180 179/179/179
f 182/182/182 183/183/183 181/181/181
f 182/182/182 184/184/184 183/183/183
f 186/186/186 187/187/187 185/185/185
f 186/186/186 188/188/188 187/187/187
f 190/190/190 191/191/191 189/189/189
f 190/190/190 192/192/192 191/191/191
f 194/194/194 195/195/195 193/193/193
f 194/194/194 196/196/196 195/195/195
f 198/198/198 199/199/199 197/197/197
f 198/198/198 200/200/200 199/199/199
f 202/202/202 203/203/203 201/201/201
f 202/202/202 204/204/204 203/203/203
f 206/206/206 207/207/207 205/205/205
f 206/206/206 208/208/208 207/207/207
f 210/210/210 211/211/211 209/209/209
f 210/210/210 212/212/212 211/211/211
f 214/214/214 215/215/215 213/213/213
f 214/214/214 216/216/216 215/215/215
f 218/218/218 219/219/219 217/217/217
f 218/218/218 220/220/220 219/219/219
f 222/222/222 223/223/223 221/221/221
f 222/222/222 224/224/224 223/223/223
f 226/226/226 227/227/227 225/225/225
f 226/226/226 228/228/228 227/227/227
f 230/230/230 231/231/231 229/229/229
f 230/230/230 232/232/232 231/231/231
f 234/234/234 235/235/235 233/233/233
f 234/234/234 236/236/236 235/235/235
f 238/238/238 239/239/239 237/237/237
f 238/238/238 240/240/240 239/239/239
f 242/242/242 243/243/243 241/241/241
f 242/242/242 244/244/244 243/243/243
