g Grass_0_Cluster28
v 45.28064 0.01891327 17.58405
v 44.35616 0.01891327 17.58405
v 45.28064 0.01891327 18.81668
v 44.35616 0.01891327 18.81668
v 42.19904 0.01891327 17.50701
v 41.35159 0.01891327 17.50701
v 42.19904 0.01891327 18.73964
v 41.35159 0.01891327 18.73964
v 56.83665 0.01891327 14.96469
v 55.9892 0.01891327 14.96469
v 56.83665 0.01891327 16.12028
v 55.9892 0.01891327 16.12028
v 59.99529 0.01891327 5.796917
v 59.14785 0.01891327 5.796917
v 59.99529 0.01891327 6.952518
v 59.14785 0.01891327 6.952518
v 53.98616 0.01891327 2.946434
v 53.06168 0.01891327 2.946434
v 53.98616 0.01891327 4.179073
v 53.06168 0.01891327 4.179073
v 50.67344 0.01891327 0.9433937
v 49.826 0.01891327 0.9433937
v 50.67344 0.01891327 2.098995
v 49.826 0.01891327 2.098995
v 52.67648 0.01891327 -1.521889
v 51.67496 0.01891327 -1.521889
v 52.67648 0.01891327 -0.2122078
v 51.67496 0.01891327 -0.2122078
v 52.5224 0.01891327 -2.061169
v 51.59792 0.01891327 -2.061169
v 52.5224 0.01891327 -0.7514877
v 51.59792 0.01891327 -0.7514877
v 49.59488 0.01891327 -2.29229
v 48.74744 0.01891327 -2.29229
v 49.59488 0.01891327 -1.059647
v 48.74744 0.01891327 -1.059647
v 50.28824 0.01891327 -2.446369
v 49.36376 0.01891327 -2.446369
v 50.28824 0.01891327 -1.213726
v 49.36376 0.01891327 -1.213726
v 54.52544 0.01891327 -2.523407
v 53.67801 0.01891327 -2.523407
v 54.52544 0.01891327 -1.290768
v 53.67801 0.01891327 -1.290768
v 54.29433 0.01891327 -3.062687
v 53.36984 0.01891327 -3.062687
v 54.29433 0.01891327 -1.753006
v 53.36984 0.01891327 -1.753006
v 51.28976 0.01891327 -3.447887
v 50.36528 0.01891327 -3.447887
v 51.28976 0.01891327 -2.215248
v 50.36528 0.01891327 -2.215248
v 52.06017 0.01891327 -3.37085
v 51.13568 0.01891327 -3.37085
v 52.06017 0.01891327 -2.061169
v 51.13568 0.01891327 -2.061169
v 51.28976 0.01891327 -3.679008
v 50.36528 0.01891327 -3.679008
v 51.28976 0.01891327 -2.369328
v 50.36528 0.01891327 -2.369328
vt 0 0.9058824
vt 0.06666667 0.9058824
vt 0 1
vt 0.06666667 1
vt 0 0.9058824
vt 0.06666667 0.9058824
vt 0 1
vt 0.06666667 1
vt 0 0.9058824
vt 0.06666667 0.9058824
vt 0 1
vt 0.06666667 1
vt 0 0.9058824
vt 0.06666667 0.9058824
vt 0 1
vt 0.06666667 1
vt 0 0.9058824
vt 0.06666667 0.9058824
vt 0 1
vt 0.06666667 1
vt 0 0.9058824
vt 0.06666667 0.9058824
vt 0 1
vt 0.06666667 1
vt 0 0.9058824
vt 0.06666667 0.9058824
vt 0 1
vt 0.06666667 1
vt 0 0.9058824
vt 0.06666667 0.9058824
vt 0 1
vt 0.06666667 1
vt 0 0.9058824
vt 0.06666667 0.9058824
vt 0 1
vt 0.06666667 1
vt 0 0.9058824
vt 0.06666667 0.9058824
vt 0 1
vt 0.06666667 1
vt 0 0.9058824
vt 0.06666667 0.9058824
vt 0 1
vt 0.06666667 1
vt 0 0.9058824
vt 0.06666667 0.9058824
vt 0 1
vt 0.06666667 1
vt 0 0.9058824
vt 0.06666667 0.9058824
vt 0 1
vt 0.06666667 1
vt 0 0.9058824
vt 0.06666667 0.9058824
vt 0 1
vt 0.06666667 1
vt 0 0.9058824
vt 0.06666667 0.9058824
vt 0 1
vt 0.06666667 1
vn 0 1 0
vn 0 1 0
vn 0 1 0
vn 0 1 0
vn 0 1 0
vn 0 1 0
vn 0 1 0
vn 0 1 0
vn 0 1 0
vn 0 1 0
vn 0 1 0
vn 0 1 0
vn 0 1 0
vn 0 1 0
vn 0 1 0
vn 0 1 0
vn 0 1 0
vn 0 1 0
vn 0 1 0
vn 0 1 0
vn 0 1 0
vn 0 1 0
vn 0 1 0
vn 0 1 0
vn 0 1 0
vn 0 1 0
vn 0 1 0
vn 0 1 0
vn 0 1 0
vn 0 1 0
vn 0 1 0
vn 0 1 0
vn 0 1 0
vn 0 1 0
vn 0 1 0
vn 0 1 0
vn 0 1 0
vn 0 1 0
vn 0 1 0
vn 0 1 0
vn 0 1 0
vn 0 1 0
vn 0 1 0
vn 0 1 0
vn 0 1 0
vn 0 1 0
vn 0 1 0
vn 0 1 0
vn 0 1 0
vn 0 1 0
vn 0 1 0
vn 0 1 0
vn 0 1 0
vn 0 1 0
vn 0 1 0
vn 0 1 0
vn 0 1 0
vn 0 1 0
vn 0 1 0
vn 0 1 0
g Grass_0_Cluster28_0
f 2/2/2 3/3/3 1/1/1
f 2/2/2 4/4/4 3/3/3
f 6/6/6 7/7/7 5/5/5
f 6/6/6 8/8/8 7/7/7
f 10/10/10 11/11/11 9/9/9
f 10/10/10 12/12/12 11/11/11
f 14/14/14 15/15/15 13/13/13
f 14/14/14 16/16/16 15/15/15
f 18/18/18 19/19/19 17/17/17
f 18/18/18 20/20/20 19/19/19
f 22/22/22 23/23/23 21/21/21
f 22/22/22 24/24/24 23/23/23
f 26/26/26 27/27/27 25/25/25
f 26/26/26 28/28/28 27/27/27
f 30/30/30 31/31/31 29/29/29
f 30/30/30 32/32/32 31/31/31
f 34/34/34 35/35/35 33/33/33
f 34/34/34 36/36/36 35/35/35
f 38/38/38 39/39/39 37/37/37
f 38/38/38 40/40/40 39/39/39
f 42/42/42 43/43/43 41/41/41
f 42/42/42 44/44/44 43/43/43
f 46/46/46 47/47/47 45/45/45
f 46/46/46 48/48/48 47/47/47
f 50/50/50 51/51/51 49/49/49
f 50/50/50 52/52/52 51/51/51
f 54/54/54 55/55/55 53/53/53
f 54/54/54 56/56/56 55/55/55
f 58/58/58 59/59/59 57/57/57
f 58/58/58 60/60/60 59/59/59
