g Grass_2_Cluster225
v 137.5209 -0.2017212 317.1783
v 136.6115 -0.2017212 317.1783
v 137.5209 -0.2017212 318.5424
v 136.6115 -0.2017212 318.5424
v 138.885 -0.2017212 317.1783
v 137.5209 -0.2017212 317.1783
v 138.885 -0.2017212 318.0877
v 137.5209 -0.2017212 318.0877
v 137.5209 -0.2017212 316.2689
v 136.6115 -0.2017212 316.2689
v 137.5209 -0.2017212 317.633
v 136.6115 -0.2017212 317.633
v 141.1585 -0.2017212 315.8142
v 139.7944 -0.2017212 315.8142
v 141.1585 -0.2017212 317.1783
v 139.7944 -0.2017212 317.1783
v 138.885 -0.2017212 314.9048
v 137.9756 -0.2017212 314.9048
v 138.885 -0.2017212 316.2689
v 137.9756 -0.2017212 316.2689
v 146.6149 -0.2017212 314.9048
v 145.7055 -0.2017212 314.9048
v 146.6149 -0.2017212 315.8142
v 145.7055 -0.2017212 315.8142
v 138.4303 -0.2017212 314.4501
v 137.5209 -0.2017212 314.4501
v 138.4303 -0.2017212 315.8142
v 137.5209 -0.2017212 315.8142
v 139.3397 -0.2017212 314.4501
v 138.4303 -0.2017212 314.4501
v 139.3397 -0.2017212 315.3595
v 138.4303 -0.2017212 315.3595
v 140.2491 -0.2017212 313.9954
v 139.3397 -0.2017212 313.9954
v 140.2491 -0.2017212 315.3595
v 139.3397 -0.2017212 315.3595
v 137.0662 -0.2017212 313.5407
v 136.1568 -0.2017212 313.5407
v 137.0662 -0.2017212 314.4501
v 136.1568 -0.2017212 314.4501
v 132.0645 -0.2017212 305.8109
v 131.1551 -0.2017212 305.8109
v 132.0645 -0.2017212 306.7202
v 131.1551 -0.2017212 306.7202
v 145.7055 -0.2017212 294.4434
v 144.7961 -0.2017212 294.4434
v 145.7055 -0.2017212 295.3528
v 144.7961 -0.2017212 295.3528
v 142.5226 -0.2017212 293.0793
v 141.6132 -0.2017212 293.0793
v 142.5226 -0.2017212 294.4434
v 141.6132 -0.2017212 294.4434
vt 0.1347656 0.9185662
vt 0.2060202 0.9185662
vt 0.1347656 1
vt 0.2060202 1
vt 0.1347656 0.9185662
vt 0.2060202 0.9185662
vt 0.1347656 1
vt 0.2060202 1
vt 0.1347656 0.9185662
vt 0.2060202 0.9185662
vt 0.1347656 1
vt 0.2060202 1
vt 0.1347656 0.9185662
vt 0.2060202 0.9185662
vt 0.1347656 1
vt 0.2060202 1
vt 0.1347656 0.9185662
vt 0.2060202 0.9185662
vt 0.1347656 1
vt 0.2060202 1
vt 0.1347656 0.9185662
vt 0.2060202 0.9185662
vt 0.1347656 1
vt 0.2060202 1
vt 0.1347656 0.9185662
vt 0.2060202 0.9185662
vt 0.1347656 1
vt 0.2060202 1
vt 0.1347656 0.9185662
vt 0.2060202 0.9185662
vt 0.1347656 1
vt 0.2060202 1
vt 0.1347656 0.9185662
vt 0.2060202 0.9185662
vt 0.1347656 1
vt 0.2060202 1
vt 0.1347656 0.9185662
vt 0.2060202 0.9185662
vt 0.1347656 1
vt 0.2060202 1
vt 0.1347656 0.9185662
vt 0.2060202 0.9185662
vt 0.1347656 1
vt 0.2060202 1
vt 0.1347656 0.9185662
vt 0.2060202 0.9185662
vt 0.1347656 1
vt 0.2060202 1
vt 0.1347656 0.9185662
vt 0.2060202 0.9185662
vt 0.1347656 1
vt 0.2060202 1
vn 0 1 0
vn 0 1 0
vn 0 1 0
vn 0 1 0
vn 0 1 0
vn 0 1 0
vn 0 1 0
vn 0 1 0
vn 0 1 0
vn 0 1 0
vn 0 1 0
vn 0 1 0
vn 0 1 0
vn 0 1 0
vn 0 1 0
vn 0 1 0
vn 0 1 0
vn 0 1 0
vn 0 1 0
vn 0 1 0
vn 0 1 0
vn 0 1 0
vn 0 1 0
vn 0 1 0
vn 0 1 0
vn 0 1 0
vn 0 1 0
vn 0 1 0
vn 0 1 0
vn 0 1 0
vn 0 1 0
vn 0 1 0
vn 0 1 0
vn 0 1 0
vn 0 1 0
vn 0 1 0
vn 0 1 0
vn 0 1 0
vn 0 1 0
vn 0 1 0
vn 0 1 0
vn 0 1 0
vn 0 1 0
vn 0 1 0
vn 0 1 0
vn 0 1 0
vn 0 1 0
vn 0 1 0
vn 0 1 0
vn 0 1 0
vn 0 1 0
vn 0 1 0
g Grass_2_Cluster225_0
f 2/2/2 3/3/3 1/1/1
f 2/2/2 4/4/4 3/3/3
f 6/6/6 7/7/7 5/5/5
f 6/6/6 8/8/8 7/7/7
f 10/10/10 11/11/11 9/9/9
f 10/10/10 12/12/12 11/11/11
f 14/14/14 15/15/15 13/13/13
f 14/14/14 16/16/16 15/15/15
f 18/18/18 19/19/19 17/17/17
f 18/18/18 20/20/20 19/19/19
f 22/22/22 23/23/23 21/21/21
f 22/22/22 24/24/24 23/23/23
f 26/26/26 27/27/27 25/25/25
f 26/26/26 28/28/28 27/27/27
f 30/30/30 31/31/31 29/29/29
f 30/30/30 32/32/32 31/31/31
f 34/34/34 35/35/35 33/33/33
f 34/34/34 36/36/36 35/35/35
f 38/38/38 39/39/39 37/37/37
f 38/38/38 40/40/40 39/39/39
f 42/42/42 43/43/43 41/41/41
f 42/42/42 44/44/44 43/43/43
f 46/46/46 47/47/47 45/45/45
f 46/46/46 48/48/48 47/47/47
f 50/50/50 51/51/51 49/49/49
f 50/50/50 52/52/52 51/51/51
