g Grass_1_Cluster164
v 150.9805 0.1220551 232.4321
v 150.1724 0.1220551 232.4321
v 150.9805 0.1220551 233.2401
v 150.1724 0.1220551 233.2401
v 154.6166 0.1220551 231.6241
v 153.8086 0.1220551 231.6241
v 154.6166 0.1220551 232.4321
v 153.8086 0.1220551 232.4321
v 159.0608 0.1220551 231.22
v 157.8488 0.1220551 231.22
v 159.0608 0.1220551 232.4321
v 157.8488 0.1220551 232.4321
v 155.4247 0.1220551 230.816
v 154.2126 0.1220551 230.816
v 155.4247 0.1220551 231.6241
v 154.2126 0.1220551 231.6241
v 161.4849 0.1220551 230.412
v 160.6769 0.1220551 230.412
v 161.4849 0.1220551 231.22
v 160.6769 0.1220551 231.22
v 152.1925 0.1220551 230.008
v 151.3845 0.1220551 230.008
v 152.1925 0.1220551 230.816
v 151.3845 0.1220551 230.816
v 151.7885 0.1220551 228.7959
v 150.5765 0.1220551 228.7959
v 151.7885 0.1220551 229.604
v 150.5765 0.1220551 229.604
v 180.0697 0.1220551 226.3718
v 179.2617 0.1220551 226.3718
v 180.0697 0.1220551 227.1799
v 179.2617 0.1220551 227.1799
v 177.2416 0.1220551 225.5638
v 176.0296 0.1220551 225.5638
v 177.2416 0.1220551 226.3718
v 176.0296 0.1220551 226.3718
v 176.4336 0.1220551 223.5437
v 175.6255 0.1220551 223.5437
v 176.4336 0.1220551 224.3517
v 175.6255 0.1220551 224.3517
v 177.6456 0.1220551 223.1397
v 176.8376 0.1220551 223.1397
v 177.6456 0.1220551 223.9477
v 176.8376 0.1220551 223.9477
v 156.6367 0.1220551 215.4633
v 155.8287 0.1220551 215.4633
v 156.6367 0.1220551 216.2714
v 155.8287 0.1220551 216.2714
v 178.0497 0.1220551 212.2312
v 177.2416 0.1220551 212.2312
v 178.0497 0.1220551 213.0392
v 177.2416 0.1220551 213.0392
v 179.2617 0.1220551 210.6151
v 178.4537 0.1220551 210.6151
v 179.2617 0.1220551 211.4232
v 178.4537 0.1220551 211.4232
v 176.8376 0.1220551 209.4031
v 175.6255 0.1220551 209.4031
v 176.8376 0.1220551 210.2111
v 175.6255 0.1220551 210.2111
v 178.8577 0.1220551 208.5951
v 178.0497 0.1220551 208.5951
v 178.8577 0.1220551 209.4031
v 178.0497 0.1220551 209.4031
vt 0.06738281 0.9369141
vt 0.1331457 0.9369141
vt 0.06738281 0.9990234
vt 0.1331457 0.9990234
vt 0.06738281 0.9369141
vt 0.1331457 0.9369141
vt 0.06738281 0.9990234
vt 0.1331457 0.9990234
vt 0.06738281 0.9369141
vt 0.1331457 0.9369141
vt 0.06738281 0.9990234
vt 0.1331457 0.9990234
vt 0.06738281 0.9369141
vt 0.1331457 0.9369141
vt 0.06738281 0.9990234
vt 0.1331457 0.9990234
vt 0.06738281 0.9369141
vt 0.1331457 0.9369141
vt 0.06738281 0.9990234
vt 0.1331457 0.9990234
vt 0.06738281 0.9369141
vt 0.1331457 0.9369141
vt 0.06738281 0.9990234
vt 0.1331457 0.9990234
vt 0.06738281 0.9369141
vt 0.1331457 0.9369141
vt 0.06738281 0.9990234
vt 0.1331457 0.9990234
vt 0.06738281 0.9369141
vt 0.1331457 0.9369141
vt 0.06738281 0.9990234
vt 0.1331457 0.9990234
vt 0.06738281 0.9369141
vt 0.1331457 0.9369141
vt 0.06738281 0.9990234
vt 0.1331457 0.9990234
vt 0.06738281 0.9369141
vt 0.1331457 0.9369141
vt 0.06738281 0.9990234
vt 0.1331457 0.9990234
vt 0.06738281 0.9369141
vt 0.1331457 0.9369141
vt 0.06738281 0.9990234
vt 0.1331457 0.9990234
vt 0.06738281 0.9369141
vt 0.1331457 0.9369141
vt 0.06738281 0.9990234
vt 0.1331457 0.9990234
vt 0.06738281 0.9369141
vt 0.1331457 0.9369141
vt 0.06738281 0.9990234
vt 0.1331457 0.9990234
vt 0.06738281 0.9369141
vt 0.1331457 0.9369141
vt 0.06738281 0.9990234
vt 0.1331457 0.9990234
vt 0.06738281 0.9369141
vt 0.1331457 0.9369141
vt 0.06738281 0.9990234
vt 0.1331457 0.9990234
vt 0.06738281 0.9369141
vt 0.1331457 0.9369141
vt 0.06738281 0.9990234
vt 0.1331457 0.9990234
vn 0 1 0
vn 0 1 0
vn 0 1 0
vn 0 1 0
vn 0 1 0
vn 0 1 0
vn 0 1 0
vn 0 1 0
vn 0 1 0
vn 0 1 0
vn 0 1 0
vn 0 1 0
vn 0 1 0
vn 0 1 0
vn 0 1 0
vn 0 1 0
vn 0 1 0
vn 0 1 0
vn 0 1 0
vn 0 1 0
vn 0 1 0
vn 0 1 0
vn 0 1 0
vn 0 1 0
vn 0 1 0
vn 0 1 0
vn 0 1 0
vn 0 1 0
vn 0 1 0
vn 0 1 0
vn 0 1 0
vn 0 1 0
vn 0 1 0
vn 0 1 0
vn 0 1 0
vn 0 1 0
vn 0 1 0
vn 0 1 0
vn 0 1 0
vn 0 1 0
vn 0 1 0
vn 0 1 0
vn 0 1 0
vn 0 1 0
vn 0 1 0
vn 0 1 0
vn 0 1 0
vn 0 1 0
vn 0 1 0
vn 0 1 0
vn 0 1 0
vn 0 1 0
vn 0 1 0
vn 0 1 0
vn 0 1 0
vn 0 1 0
vn 0 1 0
vn 0 1 0
vn 0 1 0
vn 0 1 0
vn 0 1 0
vn 0 1 0
vn 0 1 0
vn 0 1 0
g Grass_1_Cluster164_0
f 2/2/2 3/3/3 1/1/1
f 2/2/2 4/4/4 3/3/3
f 6/6/6 7/7/7 5/5/5
f 6/6/6 8/8/8 7/7/7
f 10/10/10 11/11/11 9/9/9
f 10/10/10 12/12/12 11/11/11
f 14/14/14 15/15/15 13/13/13
f 14/14/14 16/16/16 15/15/15
f 18/18/18 19/19/19 17/17/17
f 18/18/18 20/20/20 19/19/19
f 22/22/22 23/23/23 21/21/21
f 22/22/22 24/24/24 23/23/23
f 26/26/26 27/27/27 25/25/25
f 26/26/26 28/28/28 27/27/27
f 30/30/30 31/31/31 29/29/29
f 30/30/30 32/32/32 31/31/31
f 34/34/34 35/35/35 33/33/33
f 34/34/34 36/36/36 35/35/35
f 38/38/38 39/39/39 37/37/37
f 38/38/38 40/40/40 39/39/39
f 42/42/42 43/43/43 41/41/41
f 42/42/42 44/44/44 43/43/43
f 46/46/46 47/47/47 45/45/45
f 46/46/46 48/48/48 47/47/47
f 50/50/50 51/51/51 49/49/49
f 50/50/50 52/52/52 51/51/51
f 54/54/54 55/55/55 53/53/53
f 54/54/54 56/56/56 55/55/55
f 58/58/58 59/59/59 57/57/57
f 58/58/58 60/60/60 59/59/59
f 62/62/62 63/63/63 61/61/61
f 62/62/62 64/64/64 63/63/63
