g Grass_1_Cluster301
v 254.1141 -0.0224762 431.0616
v 253.4436 -0.0224762 431.0616
v 254.1141 -0.0224762 431.7321
v 253.4436 -0.0224762 431.7321
v 252.7732 -0.0224762 430.3912
v 252.1028 -0.0224762 430.3912
v 252.7732 -0.0224762 431.0616
v 252.1028 -0.0224762 431.0616
v 241.376 -0.0224762 429.7208
v 240.7056 -0.0224762 429.7208
v 241.376 -0.0224762 430.3912
v 240.7056 -0.0224762 430.3912
vt 0.06738281 0.9369141
vt 0.1331457 0.9369141
vt 0.06738281 0.9990234
vt 0.1331457 0.9990234
vt 0.06738281 0.9369141
vt 0.1331457 0.9369141
vt 0.06738281 0.9990234
vt 0.1331457 0.9990234
vt 0.06738281 0.9369141
vt 0.1331457 0.9369141
vt 0.06738281 0.9990234
vt 0.1331457 0.9990234
vn 0 1 0
vn 0 1 0
vn 0 1 0
vn 0 1 0
vn 0 1 0
vn 0 1 0
vn 0 1 0
vn 0 1 0
vn 0 1 0
vn 0 1 0
vn 0 1 0
vn 0 1 0
g Grass_1_Cluster301_0
f 2/2/2 3/3/3 1/1/1
f 2/2/2 4/4/4 3/3/3
f 6/6/6 7/7/7 5/5/5
f 6/6/6 8/8/8 7/7/7
f 10/10/10 11/11/11 9/9/9
f 10/10/10 12/12/12 11/11/11
