g Grass_1_Cluster188
v 48.73717 0.007862091 256.2931
v 47.84003 0.007862091 256.2931
v 48.73717 0.007862091 257.1902
v 47.84003 0.007862091 257.1902
v 45.74668 0.007862091 255.994
v 44.84953 0.007862091 255.994
v 45.74668 0.007862091 256.8912
v 44.84953 0.007862091 256.8912
v 47.84003 0.007862091 253.9007
v 47.24193 0.007862091 253.9007
v 47.84003 0.007862091 254.7979
v 47.24193 0.007862091 254.7979
v 44.25143 0.007862091 253.3026
v 43.35429 0.007862091 253.3026
v 44.25143 0.007862091 254.1998
v 43.35429 0.007862091 254.1998
v 46.94288 0.007862091 253.0036
v 46.04573 0.007862091 253.0036
v 46.94288 0.007862091 253.9007
v 46.04573 0.007862091 253.9007
v 46.04573 0.007862091 251.5083
v 45.14858 0.007862091 251.5083
v 46.04573 0.007862091 252.4055
v 45.14858 0.007862091 252.4055
v 44.25143 0.007862091 250.9102
v 43.35429 0.007862091 250.9102
v 44.25143 0.007862091 251.5083
v 43.35429 0.007862091 251.5083
v 35.87806 0.007862091 235.6587
v 35.27996 0.007862091 235.6587
v 35.87806 0.007862091 236.2568
v 35.27996 0.007862091 236.2568
v 39.46665 0.007862091 233.2663
v 38.5695 0.007862091 233.2663
v 39.46665 0.007862091 234.1635
v 38.5695 0.007862091 234.1635
vt 0.06738281 0.9369141
vt 0.1331457 0.9369141
vt 0.06738281 0.9990234
vt 0.1331457 0.9990234
vt 0.06738281 0.9369141
vt 0.1331457 0.9369141
vt 0.06738281 0.9990234
vt 0.1331457 0.9990234
vt 0.06738281 0.9369141
vt 0.1331457 0.9369141
vt 0.06738281 0.9990234
vt 0.1331457 0.9990234
vt 0.06738281 0.9369141
vt 0.1331457 0.9369141
vt 0.06738281 0.9990234
vt 0.1331457 0.9990234
vt 0.06738281 0.9369141
vt 0.1331457 0.9369141
vt 0.06738281 0.9990234
vt 0.1331457 0.9990234
vt 0.06738281 0.9369141
vt 0.1331457 0.9369141
vt 0.06738281 0.9990234
vt 0.1331457 0.9990234
vt 0.06738281 0.9369141
vt 0.1331457 0.9369141
vt 0.06738281 0.9990234
vt 0.1331457 0.9990234
vt 0.06738281 0.9369141
vt 0.1331457 0.9369141
vt 0.06738281 0.9990234
vt 0.1331457 0.9990234
vt 0.06738281 0.9369141
vt 0.1331457 0.9369141
vt 0.06738281 0.9990234
vt 0.1331457 0.9990234
vn 0 1 0
vn 0 1 0
vn 0 1 0
vn 0 1 0
vn 0 1 0
vn 0 1 0
vn 0 1 0
vn 0 1 0
vn 0 1 0
vn 0 1 0
vn 0 1 0
vn 0 1 0
vn 0 1 0
vn 0 1 0
vn 0 1 0
vn 0 1 0
vn 0 1 0
vn 0 1 0
vn 0 1 0
vn 0 1 0
vn 0 1 0
vn 0 1 0
vn 0 1 0
vn 0 1 0
vn 0 1 0
vn 0 1 0
vn 0 1 0
vn 0 1 0
vn 0 1 0
vn 0 1 0
vn 0 1 0
vn 0 1 0
vn 0 1 0
vn 0 1 0
vn 0 1 0
vn 0 1 0
g Grass_1_Cluster188_0
f 2/2/2 3/3/3 1/1/1
f 2/2/2 4/4/4 3/3/3
f 6/6/6 7/7/7 5/5/5
f 6/6/6 8/8/8 7/7/7
f 10/10/10 11/11/11 9/9/9
f 10/10/10 12/12/12 11/11/11
f 14/14/14 15/15/15 13/13/13
f 14/14/14 16/16/16 15/15/15
f 18/18/18 19/19/19 17/17/17
f 18/18/18 20/20/20 19/19/19
f 22/22/22 23/23/23 21/21/21
f 22/22/22 24/24/24 23/23/23
f 26/26/26 27/27/27 25/25/25
f 26/26/26 28/28/28 27/27/27
f 30/30/30 31/31/31 29/29/29
f 30/30/30 32/32/32 31/31/31
f 34/34/34 35/35/35 33/33/33
f 34/34/34 36/36/36 35/35/35
