g Grass_0_Cluster117
v -239.174 0 142.4717
v -240.1129 0 142.4717
v -239.174 0 143.88
v -240.1129 0 143.88
v -216.172 0 141.0634
v -217.1109 0 141.0634
v -216.172 0 142.4717
v -217.1109 0 142.4717
v -235.888 0 141.0634
v -236.8269 0 141.0634
v -235.888 0 142.237
v -236.8269 0 142.237
v -212.6513 0 140.1245
v -213.3555 0 140.1245
v -212.6513 0 141.2981
v -213.3555 0 141.2981
v -218.2845 0 138.2468
v -219.2233 0 138.2468
v -218.2845 0 139.4204
v -219.2233 0 139.4204
v -212.6513 0 134.7261
v -213.3555 0 134.7261
v -212.6513 0 136.1344
v -213.3555 0 136.1344
v -215.9373 0 134.2567
v -216.8762 0 134.2567
v -215.9373 0 135.665
v -216.8762 0 135.665
v -214.529 0 133.5525
v -215.4679 0 133.5525
v -214.529 0 134.7261
v -215.4679 0 134.7261
v -212.886 0 133.0831
v -213.8249 0 133.0831
v -212.886 0 134.2567
v -213.8249 0 134.2567
v -214.9985 0 132.6137
v -215.7026 0 132.6137
v -214.9985 0 134.022
v -215.7026 0 134.022
v -210.7736 0 132.379
v -211.7125 0 132.379
v -210.7736 0 133.5525
v -211.7125 0 133.5525
v -210.3042 0 131.6748
v -211.0083 0 131.6748
v -210.3042 0 132.8484
v -211.0083 0 132.8484
v -209.8347 0 130.5013
v -210.7736 0 130.5013
v -209.8347 0 131.6748
v -210.7736 0 131.6748
v -229.5508 0 128.6235
v -230.4896 0 128.6235
v -229.5508 0 130.0318
v -230.4896 0 130.0318
v -227.673 0 128.3888
v -228.6119 0 128.3888
v -227.673 0 129.5624
v -228.6119 0 129.5624
v -229.0813 0 127.9194
v -229.7855 0 127.9194
v -229.0813 0 129.093
v -229.7855 0 129.093
v -226.03 0 126.2764
v -226.7342 0 126.2764
v -226.03 0 127.45
v -226.7342 0 127.45
v -227.9078 0 124.8681
v -228.6119 0 124.8681
v -227.9078 0 126.0417
v -228.6119 0 126.0417
v -229.0813 0 124.8681
v -230.0202 0 124.8681
v -229.0813 0 126.0417
v -230.0202 0 126.0417
v -231.8979 0 124.6334
v -232.8368 0 124.6334
v -231.8979 0 125.807
v -232.8368 0 125.807
v -225.0912 0 124.3987
v -226.03 0 124.3987
v -225.0912 0 125.5722
v -226.03 0 125.5722
v -222.0399 0 124.164
v -222.9787 0 124.164
v -222.0399 0 125.3375
v -222.9787 0 125.3375
v -223.9176 0 122.7557
v -224.8565 0 122.7557
v -223.9176 0 123.9292
v -224.8565 0 123.9292
v -229.7855 0 119.235
v -230.7243 0 119.235
v -229.7855 0 120.6432
v -230.7243 0 120.6432
v -216.6415 0 115.4795
v -217.5803 0 115.4795
v -216.6415 0 116.6531
v -217.5803 0 116.6531
v -213.5902 0 114.7754
v -214.529 0 114.7754
v -213.5902 0 115.949
v -214.529 0 115.949
v -216.8762 0 114.3059
v -217.815 0 114.3059
v -216.8762 0 115.4795
v -217.815 0 115.4795
v -212.4166 0 114.0712
v -213.1207 0 114.0712
v -212.4166 0 115.2448
v -213.1207 0 115.2448
v -217.815 0 114.0712
v -218.7539 0 114.0712
v -217.815 0 115.2448
v -218.7539 0 115.2448
v -236.3575 0 113.8365
v -237.2963 0 113.8365
v -236.3575 0 115.0101
v -237.2963 0 115.0101
v -216.4067 0 113.8365
v -217.3456 0 113.8365
v -216.4067 0 115.2448
v -217.3456 0 115.2448
v -220.8663 0 113.8365
v -221.8052 0 113.8365
v -220.8663 0 115.0101
v -221.8052 0 115.0101
v -215.2332 0 113.6018
v -216.172 0 113.6018
v -215.2332 0 114.7754
v -216.172 0 114.7754
v -215.4679 0 113.6018
v -216.4067 0 113.6018
v -215.4679 0 114.7754
v -216.4067 0 114.7754
v -237.0616 0 113.1324
v -238.0005 0 113.1324
v -237.0616 0 114.5407
v -238.0005 0 114.5407
vt 0 0.9058824
vt 0.06666667 0.9058824
vt 0 1
vt 0.06666667 1
vt 0 0.9058824
vt 0.06666667 0.9058824
vt 0 1
vt 0.06666667 1
vt 0 0.9058824
vt 0.06666667 0.9058824
vt 0 1
vt 0.06666667 1
vt 0 0.9058824
vt 0.06666667 0.9058824
vt 0 1
vt 0.06666667 1
vt 0 0.9058824
vt 0.06666667 0.9058824
vt 0 1
vt 0.06666667 1
vt 0 0.9058824
vt 0.06666667 0.9058824
vt 0 1
vt 0.06666667 1
vt 0 0.9058824
vt 0.06666667 0.9058824
vt 0 1
vt 0.06666667 1
vt 0 0.9058824
vt 0.06666667 0.9058824
vt 0 1
vt 0.06666667 1
vt 0 0.9058824
vt 0.06666667 0.9058824
vt 0 1
vt 0.06666667 1
vt 0 0.9058824
vt 0.06666667 0.9058824
vt 0 1
vt 0.06666667 1
vt 0 0.9058824
vt 0.06666667 0.9058824
vt 0 1
vt 0.06666667 1
vt 0 0.9058824
vt 0.06666667 0.9058824
vt 0 1
vt 0.06666667 1
vt 0 0.9058824
vt 0.06666667 0.9058824
vt 0 1
vt 0.06666667 1
vt 0 0.9058824
vt 0.06666667 0.9058824
vt 0 1
vt 0.06666667 1
vt 0 0.9058824
vt 0.06666667 0.9058824
vt 0 1
vt 0.06666667 1
vt 0 0.9058824
vt 0.06666667 0.9058824
vt 0 1
vt 0.06666667 1
vt 0 0.9058824
vt 0.06666667 0.9058824
vt 0 1
vt 0.06666667 1
vt 0 0.9058824
vt 0.06666667 0.9058824
vt 0 1
vt 0.06666667 1
vt 0 0.9058824
vt 0.06666667 0.9058824
vt 0 1
vt 0.06666667 1
vt 0 0.9058824
vt 0.06666667 0.9058824
vt 0 1
vt 0.06666667 1
vt 0 0.9058824
vt 0.06666667 0.9058824
vt 0 1
vt 0.06666667 1
vt 0 0.9058824
vt 0.06666667 0.9058824
vt 0 1
vt 0.06666667 1
vt 0 0.9058824
vt 0.06666667 0.9058824
vt 0 1
vt 0.06666667 1
vt 0 0.9058824
vt 0.06666667 0.9058824
vt 0 1
vt 0.06666667 1
vt 0 0.9058824
vt 0.06666667 0.9058824
vt 0 1
vt 0.06666667 1
vt 0 0.9058824
vt 0.06666667 0.9058824
vt 0 1
vt 0.06666667 1
vt 0 0.9058824
vt 0.06666667 0.9058824
vt 0 1
vt 0.06666667 1
vt 0 0.9058824
vt 0.06666667 0.9058824
vt 0 1
vt 0.06666667 1
vt 0 0.9058824
vt 0.06666667 0.9058824
vt 0 1
vt 0.06666667 1
vt 0 0.9058824
vt 0.06666667 0.9058824
vt 0 1
vt 0.06666667 1
vt 0 0.9058824
vt 0.06666667 0.9058824
vt 0 1
vt 0.06666667 1
vt 0 0.9058824
vt 0.06666667 0.9058824
vt 0 1
vt 0.06666667 1
vt 0 0.9058824
vt 0.06666667 0.9058824
vt 0 1
vt 0.06666667 1
vt 0 0.9058824
vt 0.06666667 0.9058824
vt 0 1
vt 0.06666667 1
vt 0 0.9058824
vt 0.06666667 0.9058824
vt 0 1
vt 0.06666667 1
vn 0 1 0
vn 0 1 0
vn 0 1 0
vn 0 1 0
vn 0 1 0
vn 0 1 0
vn 0 1 0
vn 0 1 0
vn 0 1 0
vn 0 1 0
vn 0 1 0
vn 0 1 0
vn 0 1 0
vn 0 1 0
vn 0 1 0
vn 0 1 0
vn 0 1 0
vn 0 1 0
vn 0 1 0
vn 0 1 0
vn 0 1 0
vn 0 1 0
vn 0 1 0
vn 0 1 0
vn 0 1 0
vn 0 1 0
vn 0 1 0
vn 0 1 0
vn 0 1 0
vn 0 1 0
vn 0 1 0
vn 0 1 0
vn 0 1 0
vn 0 1 0
vn 0 1 0
vn 0 1 0
vn 0 1 0
vn 0 1 0
vn 0 1 0
vn 0 1 0
vn 0 1 0
vn 0 1 0
vn 0 1 0
vn 0 1 0
vn 0 1 0
vn 0 1 0
vn 0 1 0
vn 0 1 0
vn 0 1 0
vn 0 1 0
vn 0 1 0
vn 0 1 0
vn 0 1 0
vn 0 1 0
vn 0 1 0
vn 0 1 0
vn 0 1 0
vn 0 1 0
vn 0 1 0
vn 0 1 0
vn 0 1 0
vn 0 1 0
vn 0 1 0
vn 0 1 0
vn 0 1 0
vn 0 1 0
vn 0 1 0
vn 0 1 0
vn 0 1 0
vn 0 1 0
vn 0 1 0
vn 0 1 0
vn 0 1 0
vn 0 1 0
vn 0 1 0
vn 0 1 0
vn 0 1 0
vn 0 1 0
vn 0 1 0
vn 0 1 0
vn 0 1 0
vn 0 1 0
vn 0 1 0
vn 0 1 0
vn 0 1 0
vn 0 1 0
vn 0 1 0
vn 0 1 0
vn 0 1 0
vn 0 1 0
vn 0 1 0
vn 0 1 0
vn 0 1 0
vn 0 1 0
vn 0 1 0
vn 0 1 0
vn 0 1 0
vn 0 1 0
vn 0 1 0
vn 0 1 0
vn 0 1 0
vn 0 1 0
vn 0 1 0
vn 0 1 0
vn 0 1 0
vn 0 1 0
vn 0 1 0
vn 0 1 0
vn 0 1 0
vn 0 1 0
vn 0 1 0
vn 0 1 0
vn 0 1 0
vn 0 1 0
vn 0 1 0
vn 0 1 0
vn 0 1 0
vn 0 1 0
vn 0 1 0
vn 0 1 0
vn 0 1 0
vn 0 1 0
vn 0 1 0
vn 0 1 0
vn 0 1 0
vn 0 1 0
vn 0 1 0
vn 0 1 0
vn 0 1 0
vn 0 1 0
vn 0 1 0
vn 0 1 0
vn 0 1 0
vn 0 1 0
vn 0 1 0
vn 0 1 0
vn 0 1 0
vn 0 1 0
vn 0 1 0
vn 0 1 0
g Grass_0_Cluster117_0
f 2/2/2 3/3/3 1/1/1
f 2/2/2 4/4/4 3/3/3
f 6/6/6 7/7/7 5/5/5
f 6/6/6 8/8/8 7/7/7
f 10/10/10 11/11/11 9/9/9
f 10/10/10 12/12/12 11/11/11
f 14/14/14 15/15/15 13/13/13
f 14/14/14 16/16/16 15/15/15
f 18/18/18 19/19/19 17/17/17
f 18/18/18 20/20/20 19/19/19
f 22/22/22 23/23/23 21/21/21
f 22/22/22 24/24/24 23/23/23
f 26/26/26 27/27/27 25/25/25
f 26/26/26 28/28/28 27/27/27
f 30/30/30 31/31/31 29/29/29
f 30/30/30 32/32/32 31/31/31
f 34/34/34 35/35/35 33/33/33
f 34/34/34 36/36/36 35/35/35
f 38/38/38 39/39/39 37/37/37
f 38/38/38 40/40/40 39/39/39
f 42/42/42 43/43/43 41/41/41
f 42/42/42 44/44/44 43/43/43
f 46/46/46 47/47/47 45/45/45
f 46/46/46 48/48/48 47/47/47
f 50/50/50 51/51/51 49/49/49
f 50/50/50 52/52/52 51/51/51
f 54/54/54 55/55/55 53/53/53
f 54/54/54 56/56/56 55/55/55
f 58/58/58 59/59/59 57/57/57
f 58/58/58 60/60/60 59/59/59
f 62/62/62 63/63/63 61/61/61
f 62/62/62 64/64/64 63/63/63
f 66/66/66 67/67/67 65/65/65
f 66/66/66 68/68/68 67/67/67
f 70/70/70 71/71/71 69/69/69
f 70/70/70 72/72/72 71/71/71
f 74/74/74 75/75/75 73/73/73
f 74/74/74 76/76/76 75/75/75
f 78/78/78 79/79/79 77/77/77
f 78/78/78 80/80/80 79/79/79
f 82/82/82 83/83/83 81/81/81
f 82/82/82 84/84/84 83/83/83
f 86/86/86 87/87/87 85/85/85
f 86/86/86 88/88/88 87/87/87
f 90/90/90 91/91/91 89/89/89
f 90/90/90 92/92/92 91/91/91
f 94/94/94 95/95/95 93/93/93
f 94/94/94 96/96/96 95/95/95
f 98/98/98 99/99/99 97/97/97
f 98/98/98 100/100/100 99/99/99
f 102/102/102 103/103/103 101/101/101
f 102/102/102 104/104/104 103/103/103
f 106/106/106 107/107/107 105/105/105
f 106/106/106 108/108/108 107/107/107
f 110/110/110 111/111/111 109/109/109
f 110/110/110 112/112/112 111/111/111
f 114/114/114 115/115/115 113/113/113
f 114/114/114 116/116/116 115/115/115
f 118/118/118 119/119/119 117/117/117
f 118/118/118 120/120/120 119/119/119
f 122/122/122 123/123/123 121/121/121
f 122/122/122 124/124/124 123/123/123
f 126/126/126 127/127/127 125/125/125
f 126/126/126 128/128/128 127/127/127
f 130/130/130 131/131/131 129/129/129
f 130/130/130 132/132/132 131/131/131
f 134/134/134 135/135/135 133/133/133
f 134/134/134 136/136/136 135/135/135
f 138/138/138 139/139/139 137/137/137
f 138/138/138 140/140/140 139/139/139
