g Grass_1_Cluster47
v 83.02848 0.009292603 50.49406
v 82.06293 0.009292603 50.49406
v 83.02848 0.009292603 51.32167
v 82.06293 0.009292603 51.32167
v 82.06293 0.009292603 49.94231
v 81.23531 0.009292603 49.94231
v 82.06293 0.009292603 50.76993
v 81.23531 0.009292603 50.76993
v 83.71816 0.009292603 49.66644
v 82.75261 0.009292603 49.66644
v 83.71816 0.009292603 50.49406
v 82.75261 0.009292603 50.49406
v 69.23483 0.009292603 49.11469
v 68.40721 0.009292603 49.11469
v 69.23483 0.009292603 49.94231
v 68.40721 0.009292603 49.94231
v 83.16642 0.009292603 48.56294
v 82.20086 0.009292603 48.56294
v 83.16642 0.009292603 49.39056
v 82.20086 0.009292603 49.39056
v 66.75197 0.009292603 48.14914
v 65.78642 0.009292603 48.14914
v 66.75197 0.009292603 48.97676
v 65.78642 0.009292603 48.97676
v 68.95895 0.009292603 45.66628
v 68.13134 0.009292603 45.66628
v 68.95895 0.009292603 46.4939
v 68.13134 0.009292603 46.4939
v 67.85547 0.009292603 45.11453
v 67.02785 0.009292603 45.11453
v 67.85547 0.009292603 45.94215
v 67.02785 0.009292603 45.94215
v 89.5115 0.009292603 43.59723
v 88.68388 0.009292603 43.59723
v 89.5115 0.009292603 44.28691
v 88.68388 0.009292603 44.28691
v 67.30372 0.009292603 43.45929
v 66.4761 0.009292603 43.45929
v 67.30372 0.009292603 44.28691
v 66.4761 0.009292603 44.28691
v 66.06229 0.009292603 43.18343
v 65.09673 0.009292603 43.18343
v 66.06229 0.009292603 44.01105
v 65.09673 0.009292603 44.01105
v 68.26927 0.009292603 41.39024
v 67.44165 0.009292603 41.39024
v 68.26927 0.009292603 42.21786
v 67.44165 0.009292603 42.21786
v 60.8207 0.009292603 39.3212
v 59.99308 0.009292603 39.3212
v 60.8207 0.009292603 40.14882
v 59.99308 0.009292603 40.14882
v 89.78737 0.009292603 36.14866
v 88.95975 0.009292603 36.14866
v 89.78737 0.009292603 36.97628
v 88.95975 0.009292603 36.97628
v 76.26959 0.009292603 31.18295
v 75.30404 0.009292603 31.18295
v 76.26959 0.009292603 32.01057
v 75.30404 0.009292603 32.01057
v 78.2007 0.009292603 30.76913
v 77.37309 0.009292603 30.76913
v 78.2007 0.009292603 31.59676
v 77.37309 0.009292603 31.59676
v 79.44213 0.009292603 29.52771
v 78.61451 0.009292603 29.52771
v 79.44213 0.009292603 30.21739
v 78.61451 0.009292603 30.21739
v 75.85578 0.009292603 29.1139
v 75.02816 0.009292603 29.1139
v 75.85578 0.009292603 29.80358
v 75.02816 0.009292603 29.80358
v 77.64896 0.009292603 28.14835
v 76.6834 0.009292603 28.14835
v 77.64896 0.009292603 28.97596
v 76.6834 0.009292603 28.97596
v 75.57991 0.009292603 25.11374
v 74.61435 0.009292603 25.11374
v 75.57991 0.009292603 25.94136
v 74.61435 0.009292603 25.94136
vt 0.06738281 0.9369141
vt 0.1331457 0.9369141
vt 0.06738281 0.9990234
vt 0.1331457 0.9990234
vt 0.06738281 0.9369141
vt 0.1331457 0.9369141
vt 0.06738281 0.9990234
vt 0.1331457 0.9990234
vt 0.06738281 0.9369141
vt 0.1331457 0.9369141
vt 0.06738281 0.9990234
vt 0.1331457 0.9990234
vt 0.06738281 0.9369141
vt 0.1331457 0.9369141
vt 0.06738281 0.9990234
vt 0.1331457 0.9990234
vt 0.06738281 0.9369141
vt 0.1331457 0.9369141
vt 0.06738281 0.9990234
vt 0.1331457 0.9990234
vt 0.06738281 0.9369141
vt 0.1331457 0.9369141
vt 0.06738281 0.9990234
vt 0.1331457 0.9990234
vt 0.06738281 0.9369141
vt 0.1331457 0.9369141
vt 0.06738281 0.9990234
vt 0.1331457 0.9990234
vt 0.06738281 0.9369141
vt 0.1331457 0.9369141
vt 0.06738281 0.9990234
vt 0.1331457 0.9990234
vt 0.06738281 0.9369141
vt 0.1331457 0.9369141
vt 0.06738281 0.9990234
vt 0.1331457 0.9990234
vt 0.06738281 0.9369141
vt 0.1331457 0.9369141
vt 0.06738281 0.9990234
vt 0.1331457 0.9990234
vt 0.06738281 0.9369141
vt 0.1331457 0.9369141
vt 0.06738281 0.9990234
vt 0.1331457 0.9990234
vt 0.06738281 0.9369141
vt 0.1331457 0.9369141
vt 0.06738281 0.9990234
vt 0.1331457 0.9990234
vt 0.06738281 0.9369141
vt 0.1331457 0.9369141
vt 0.06738281 0.9990234
vt 0.1331457 0.9990234
vt 0.06738281 0.9369141
vt 0.1331457 0.9369141
vt 0.06738281 0.9990234
vt 0.1331457 0.9990234
vt 0.06738281 0.9369141
vt 0.1331457 0.9369141
vt 0.06738281 0.9990234
vt 0.1331457 0.9990234
vt 0.06738281 0.9369141
vt 0.1331457 0.9369141
vt 0.06738281 0.9990234
vt 0.1331457 0.9990234
vt 0.06738281 0.9369141
vt 0.1331457 0.9369141
vt 0.06738281 0.9990234
vt 0.1331457 0.9990234
vt 0.06738281 0.9369141
vt 0.1331457 0.9369141
vt 0.06738281 0.9990234
vt 0.1331457 0.9990234
vt 0.06738281 0.9369141
vt 0.1331457 0.9369141
vt 0.06738281 0.9990234
vt 0.1331457 0.9990234
vt 0.06738281 0.9369141
vt 0.1331457 0.9369141
vt 0.06738281 0.9990234
vt 0.1331457 0.9990234
vn 0 1 0
vn 0 1 0
vn 0 1 0
vn 0 1 0
vn 0 1 0
vn 0 1 0
vn 0 1 0
vn 0 1 0
vn 0 1 0
vn 0 1 0
vn 0 1 0
vn 0 1 0
vn 0 1 0
vn 0 1 0
vn 0 1 0
vn 0 1 0
vn 0 1 0
vn 0 1 0
vn 0 1 0
vn 0 1 0
vn 0 1 0
vn 0 1 0
vn 0 1 0
vn 0 1 0
vn 0 1 0
vn 0 1 0
vn 0 1 0
vn 0 1 0
vn 0 1 0
vn 0 1 0
vn 0 1 0
vn 0 1 0
vn 0 1 0
vn 0 1 0
vn 0 1 0
vn 0 1 0
vn 0 1 0
vn 0 1 0
vn 0 1 0
vn 0 1 0
vn 0 1 0
vn 0 1 0
vn 0 1 0
vn 0 1 0
vn 0 1 0
vn 0 1 0
vn 0 1 0
vn 0 1 0
vn 0 1 0
vn 0 1 0
vn 0 1 0
vn 0 1 0
vn 0 1 0
vn 0 1 0
vn 0 1 0
vn 0 1 0
vn 0 1 0
vn 0 1 0
vn 0 1 0
vn 0 1 0
vn 0 1 0
vn 0 1 0
vn 0 1 0
vn 0 1 0
vn 0 1 0
vn 0 1 0
vn 0 1 0
vn 0 1 0
vn 0 1 0
vn 0 1 0
vn 0 1 0
vn 0 1 0
vn 0 1 0
vn 0 1 0
vn 0 1 0
vn 0 1 0
vn 0 1 0
vn 0 1 0
vn 0 1 0
vn 0 1 0
g Grass_1_Cluster47_0
f 2/2/2 3/3/3 1/1/1
f 2/2/2 4/4/4 3/3/3
f 6/6/6 7/7/7 5/5/5
f 6/6/6 8/8/8 7/7/7
f 10/10/10 11/11/11 9/9/9
f 10/10/10 12/12/12 11/11/11
f 14/14/14 15/15/15 13/13/13
f 14/14/14 16/16/16 15/15/15
f 18/18/18 19/19/19 17/17/17
f 18/18/18 20/20/20 19/19/19
f 22/22/22 23/23/23 21/21/21
f 22/22/22 24/24/24 23/23/23
f 26/26/26 27/27/27 25/25/25
f 26/26/26 28/28/28 27/27/27
f 30/30/30 31/31/31 29/29/29
f 30/30/30 32/32/32 31/31/31
f 34/34/34 35/35/35 33/33/33
f 34/34/34 36/36/36 35/35/35
f 38/38/38 39/39/39 37/37/37
f 38/38/38 40/40/40 39/39/39
f 42/42/42 43/43/43 41/41/41
f 42/42/42 44/44/44 43/43/43
f 46/46/46 47/47/47 45/45/45
f 46/46/46 48/48/48 47/47/47
f 50/50/50 51/51/51 49/49/49
f 50/50/50 52/52/52 51/51/51
f 54/54/54 55/55/55 53/53/53
f 54/54/54 56/56/56 55/55/55
f 58/58/58 59/59/59 57/57/57
f 58/58/58 60/60/60 59/59/59
f 62/62/62 63/63/63 61/61/61
f 62/62/62 64/64/64 63/63/63
f 66/66/66 67/67/67 65/65/65
f 66/66/66 68/68/68 67/67/67
f 70/70/70 71/71/71 69/69/69
f 70/70/70 72/72/72 71/71/71
f 74/74/74 75/75/75 73/73/73
f 74/74/74 76/76/76 75/75/75
f 78/78/78 79/79/79 77/77/77
f 78/78/78 80/80/80 79/79/79
