g Grass_0_Cluster277
v -237.097 0 380.8486
v -237.8437 0 380.8486
v -237.097 0 381.9688
v -237.8437 0 381.9688
v -238.5905 0 379.7285
v -239.7106 0 379.7285
v -238.5905 0 380.8486
v -239.7106 0 380.8486
v -221.4149 0 377.8616
v -222.1617 0 377.8616
v -221.4149 0 378.9818
v -222.1617 0 378.9818
v -238.2171 0 377.4882
v -239.3372 0 377.4882
v -238.2171 0 378.9818
v -239.3372 0 378.9818
v -210.5869 0 376.7415
v -211.707 0 376.7415
v -210.5869 0 377.8616
v -211.707 0 377.8616
v -218.8013 0 376.3681
v -219.548 0 376.3681
v -218.8013 0 377.4882
v -219.548 0 377.4882
v -209.8401 0 376.3681
v -210.5869 0 376.3681
v -209.8401 0 377.4882
v -210.5869 0 377.4882
v -210.9603 0 375.2479
v -211.707 0 375.2479
v -210.9603 0 376.7415
v -211.707 0 376.7415
v -214.3207 0 374.5012
v -215.4408 0 374.5012
v -214.3207 0 375.9947
v -215.4408 0 375.9947
v -211.3337 0 374.5012
v -212.0804 0 374.5012
v -211.3337 0 375.6213
v -212.0804 0 375.6213
v -210.5869 0 374.5012
v -211.3337 0 374.5012
v -210.5869 0 375.6213
v -211.3337 0 375.6213
v -213.2006 0 374.1278
v -213.9473 0 374.1278
v -213.2006 0 375.6213
v -213.9473 0 375.6213
v -211.707 0 374.1278
v -212.4538 0 374.1278
v -211.707 0 375.2479
v -212.4538 0 375.2479
v -213.5739 0 373.381
v -214.6941 0 373.381
v -213.5739 0 374.5012
v -214.6941 0 374.5012
v -217.3078 0 373.381
v -218.0545 0 373.381
v -217.3078 0 374.5012
v -218.0545 0 374.5012
v -216.561 0 372.6342
v -217.3078 0 372.6342
v -216.561 0 374.1278
v -217.3078 0 374.1278
v -218.8013 0 370.394
v -219.548 0 370.394
v -218.8013 0 371.5141
v -219.548 0 371.5141
v -218.4279 0 370.0206
v -219.548 0 370.0206
v -218.4279 0 371.5141
v -219.548 0 371.5141
v -239.3372 0 369.6472
v -240.084 0 369.6472
v -239.3372 0 370.7674
v -240.084 0 370.7674
v -223.2818 0 368.5271
v -224.0286 0 368.5271
v -223.2818 0 369.6472
v -224.0286 0 369.6472
v -238.2171 0 364.7932
v -238.9639 0 364.7932
v -238.2171 0 365.9134
v -238.9639 0 365.9134
v -228.5092 0 363.2997
v -229.256 0 363.2997
v -228.5092 0 364.7932
v -229.256 0 364.7932
v -227.7624 0 362.9264
v -228.5092 0 362.9264
v -227.7624 0 364.0465
v -228.5092 0 364.0465
v -227.389 0 361.0594
v -228.1358 0 361.0594
v -227.389 0 362.1796
v -228.1358 0 362.1796
v -230.0027 0 360.6861
v -231.1228 0 360.6861
v -230.0027 0 362.1796
v -231.1228 0 362.1796
v -227.0157 0 359.1925
v -228.1358 0 359.1925
v -227.0157 0 360.3127
v -228.1358 0 360.3127
v -230.7495 0 358.0724
v -231.8696 0 358.0724
v -230.7495 0 359.1925
v -231.8696 0 359.1925
v -226.6423 0 358.0724
v -227.7624 0 358.0724
v -226.6423 0 359.1925
v -227.7624 0 359.1925
v -228.8826 0 357.699
v -229.6293 0 357.699
v -228.8826 0 359.1925
v -229.6293 0 359.1925
v -227.389 0 356.9522
v -228.5092 0 356.9522
v -227.389 0 358.4458
v -228.5092 0 358.4458
v -227.0157 0 356.2055
v -228.1358 0 356.2055
v -227.0157 0 357.699
v -228.1358 0 357.699
v -221.0416 0 356.2055
v -221.7883 0 356.2055
v -221.0416 0 357.3256
v -221.7883 0 357.3256
v -225.8955 0 355.8321
v -227.0157 0 355.8321
v -225.8955 0 357.3256
v -227.0157 0 357.3256
v -228.5092 0 355.8321
v -229.256 0 355.8321
v -228.5092 0 356.9522
v -229.256 0 356.9522
v -223.6552 0 355.4587
v -224.402 0 355.4587
v -223.6552 0 356.9522
v -224.402 0 356.9522
v -227.389 0 355.0854
v -228.1358 0 355.0854
v -227.389 0 356.2055
v -228.1358 0 356.2055
v -221.4149 0 355.0854
v -222.1617 0 355.0854
v -221.4149 0 356.2055
v -222.1617 0 356.2055
v -225.5221 0 354.712
v -226.6423 0 354.712
v -225.5221 0 355.8321
v -226.6423 0 355.8321
v -217.6811 0 354.3386
v -218.4279 0 354.3386
v -217.6811 0 355.4587
v -218.4279 0 355.4587
v -219.1747 0 353.9652
v -219.9214 0 353.9652
v -219.1747 0 355.0854
v -219.9214 0 355.0854
v -222.1617 0 353.9652
v -222.9085 0 353.9652
v -222.1617 0 355.0854
v -222.9085 0 355.0854
v -224.0286 0 353.5918
v -225.1488 0 353.5918
v -224.0286 0 354.712
v -225.1488 0 354.712
vt 0 0.9058824
vt 0.06666667 0.9058824
vt 0 1
vt 0.06666667 1
vt 0 0.9058824
vt 0.06666667 0.9058824
vt 0 1
vt 0.06666667 1
vt 0 0.9058824
vt 0.06666667 0.9058824
vt 0 1
vt 0.06666667 1
vt 0 0.9058824
vt 0.06666667 0.9058824
vt 0 1
vt 0.06666667 1
vt 0 0.9058824
vt 0.06666667 0.9058824
vt 0 1
vt 0.06666667 1
vt 0 0.9058824
vt 0.06666667 0.9058824
vt 0 1
vt 0.06666667 1
vt 0 0.9058824
vt 0.06666667 0.9058824
vt 0 1
vt 0.06666667 1
vt 0 0.9058824
vt 0.06666667 0.9058824
vt 0 1
vt 0.06666667 1
vt 0 0.9058824
vt 0.06666667 0.9058824
vt 0 1
vt 0.06666667 1
vt 0 0.9058824
vt 0.06666667 0.9058824
vt 0 1
vt 0.06666667 1
vt 0 0.9058824
vt 0.06666667 0.9058824
vt 0 1
vt 0.06666667 1
vt 0 0.9058824
vt 0.06666667 0.9058824
vt 0 1
vt 0.06666667 1
vt 0 0.9058824
vt 0.06666667 0.9058824
vt 0 1
vt 0.06666667 1
vt 0 0.9058824
vt 0.06666667 0.9058824
vt 0 1
vt 0.06666667 1
vt 0 0.9058824
vt 0.06666667 0.9058824
vt 0 1
vt 0.06666667 1
vt 0 0.9058824
vt 0.06666667 0.9058824
vt 0 1
vt 0.06666667 1
vt 0 0.9058824
vt 0.06666667 0.9058824
vt 0 1
vt 0.06666667 1
vt 0 0.9058824
vt 0.06666667 0.9058824
vt 0 1
vt 0.06666667 1
vt 0 0.9058824
vt 0.06666667 0.9058824
vt 0 1
vt 0.06666667 1
vt 0 0.9058824
vt 0.06666667 0.9058824
vt 0 1
vt 0.06666667 1
vt 0 0.9058824
vt 0.06666667 0.9058824
vt 0 1
vt 0.06666667 1
vt 0 0.9058824
vt 0.06666667 0.9058824
vt 0 1
vt 0.06666667 1
vt 0 0.9058824
vt 0.06666667 0.9058824
vt 0 1
vt 0.06666667 1
vt 0 0.9058824
vt 0.06666667 0.9058824
vt 0 1
vt 0.06666667 1
vt 0 0.9058824
vt 0.06666667 0.9058824
vt 0 1
vt 0.06666667 1
vt 0 0.9058824
vt 0.06666667 0.9058824
vt 0 1
vt 0.06666667 1
vt 0 0.9058824
vt 0.06666667 0.9058824
vt 0 1
vt 0.06666667 1
vt 0 0.9058824
vt 0.06666667 0.9058824
vt 0 1
vt 0.06666667 1
vt 0 0.9058824
vt 0.06666667 0.9058824
vt 0 1
vt 0.06666667 1
vt 0 0.9058824
vt 0.06666667 0.9058824
vt 0 1
vt 0.06666667 1
vt 0 0.9058824
vt 0.06666667 0.9058824
vt 0 1
vt 0.06666667 1
vt 0 0.9058824
vt 0.06666667 0.9058824
vt 0 1
vt 0.06666667 1
vt 0 0.9058824
vt 0.06666667 0.9058824
vt 0 1
vt 0.06666667 1
vt 0 0.9058824
vt 0.06666667 0.9058824
vt 0 1
vt 0.06666667 1
vt 0 0.9058824
vt 0.06666667 0.9058824
vt 0 1
vt 0.06666667 1
vt 0 0.9058824
vt 0.06666667 0.9058824
vt 0 1
vt 0.06666667 1
vt 0 0.9058824
vt 0.06666667 0.9058824
vt 0 1
vt 0.06666667 1
vt 0 0.9058824
vt 0.06666667 0.9058824
vt 0 1
vt 0.06666667 1
vt 0 0.9058824
vt 0.06666667 0.9058824
vt 0 1
vt 0.06666667 1
vt 0 0.9058824
vt 0.06666667 0.9058824
vt 0 1
vt 0.06666667 1
vt 0 0.9058824
vt 0.06666667 0.9058824
vt 0 1
vt 0.06666667 1
vt 0 0.9058824
vt 0.06666667 0.9058824
vt 0 1
vt 0.06666667 1
vn 0 1 0
vn 0 1 0
vn 0 1 0
vn 0 1 0
vn 0 1 0
vn 0 1 0
vn 0 1 0
vn 0 1 0
vn 0 1 0
vn 0 1 0
vn 0 1 0
vn 0 1 0
vn 0 1 0
vn 0 1 0
vn 0 1 0
vn 0 1 0
vn 0 1 0
vn 0 1 0
vn 0 1 0
vn 0 1 0
vn 0 1 0
vn 0 1 0
vn 0 1 0
vn 0 1 0
vn 0 1 0
vn 0 1 0
vn 0 1 0
vn 0 1 0
vn 0 1 0
vn 0 1 0
vn 0 1 0
vn 0 1 0
vn 0 1 0
vn 0 1 0
vn 0 1 0
vn 0 1 0
vn 0 1 0
vn 0 1 0
vn 0 1 0
vn 0 1 0
vn 0 1 0
vn 0 1 0
vn 0 1 0
vn 0 1 0
vn 0 1 0
vn 0 1 0
vn 0 1 0
vn 0 1 0
vn 0 1 0
vn 0 1 0
vn 0 1 0
vn 0 1 0
vn 0 1 0
vn 0 1 0
vn 0 1 0
vn 0 1 0
vn 0 1 0
vn 0 1 0
vn 0 1 0
vn 0 1 0
vn 0 1 0
vn 0 1 0
vn 0 1 0
vn 0 1 0
vn 0 1 0
vn 0 1 0
vn 0 1 0
vn 0 1 0
vn 0 1 0
vn 0 1 0
vn 0 1 0
vn 0 1 0
vn 0 1 0
vn 0 1 0
vn 0 1 0
vn 0 1 0
vn 0 1 0
vn 0 1 0
vn 0 1 0
vn 0 1 0
vn 0 1 0
vn 0 1 0
vn 0 1 0
vn 0 1 0
vn 0 1 0
vn 0 1 0
vn 0 1 0
vn 0 1 0
vn 0 1 0
vn 0 1 0
vn 0 1 0
vn 0 1 0
vn 0 1 0
vn 0 1 0
vn 0 1 0
vn 0 1 0
vn 0 1 0
vn 0 1 0
vn 0 1 0
vn 0 1 0
vn 0 1 0
vn 0 1 0
vn 0 1 0
vn 0 1 0
vn 0 1 0
vn 0 1 0
vn 0 1 0
vn 0 1 0
vn 0 1 0
vn 0 1 0
vn 0 1 0
vn 0 1 0
vn 0 1 0
vn 0 1 0
vn 0 1 0
vn 0 1 0
vn 0 1 0
vn 0 1 0
vn 0 1 0
vn 0 1 0
vn 0 1 0
vn 0 1 0
vn 0 1 0
vn 0 1 0
vn 0 1 0
vn 0 1 0
vn 0 1 0
vn 0 1 0
vn 0 1 0
vn 0 1 0
vn 0 1 0
vn 0 1 0
vn 0 1 0
vn 0 1 0
vn 0 1 0
vn 0 1 0
vn 0 1 0
vn 0 1 0
vn 0 1 0
vn 0 1 0
vn 0 1 0
vn 0 1 0
vn 0 1 0
vn 0 1 0
vn 0 1 0
vn 0 1 0
vn 0 1 0
vn 0 1 0
vn 0 1 0
vn 0 1 0
vn 0 1 0
vn 0 1 0
vn 0 1 0
vn 0 1 0
vn 0 1 0
vn 0 1 0
vn 0 1 0
vn 0 1 0
vn 0 1 0
vn 0 1 0
vn 0 1 0
vn 0 1 0
vn 0 1 0
vn 0 1 0
vn 0 1 0
vn 0 1 0
vn 0 1 0
vn 0 1 0
g Grass_0_Cluster277_0
f 2/2/2 3/3/3 1/1/1
f 2/2/2 4/4/4 3/3/3
f 6/6/6 7/7/7 5/5/5
f 6/6/6 8/8/8 7/7/7
f 10/10/10 11/11/11 9/9/9
f 10/10/10 12/12/12 11/11/11
f 14/14/14 15/15/15 13/13/13
f 14/14/14 16/16/16 15/15/15
f 18/18/18 19/19/19 17/17/17
f 18/18/18 20/20/20 19/19/19
f 22/22/22 23/23/23 21/21/21
f 22/22/22 24/24/24 23/23/23
f 26/26/26 27/27/27 25/25/25
f 26/26/26 28/28/28 27/27/27
f 30/30/30 31/31/31 29/29/29
f 30/30/30 32/32/32 31/31/31
f 34/34/34 35/35/35 33/33/33
f 34/34/34 36/36/36 35/35/35
f 38/38/38 39/39/39 37/37/37
f 38/38/38 40/40/40 39/39/39
f 42/42/42 43/43/43 41/41/41
f 42/42/42 44/44/44 43/43/43
f 46/46/46 47/47/47 45/45/45
f 46/46/46 48/48/48 47/47/47
f 50/50/50 51/51/51 49/49/49
f 50/50/50 52/52/52 51/51/51
f 54/54/54 55/55/55 53/53/53
f 54/54/54 56/56/56 55/55/55
f 58/58/58 59/59/59 57/57/57
f 58/58/58 60/60/60 59/59/59
f 62/62/62 63/63/63 61/61/61
f 62/62/62 64/64/64 63/63/63
f 66/66/66 67/67/67 65/65/65
f 66/66/66 68/68/68 67/67/67
f 70/70/70 71/71/71 69/69/69
f 70/70/70 72/72/72 71/71/71
f 74/74/74 75/75/75 73/73/73
f 74/74/74 76/76/76 75/75/75
f 78/78/78 79/79/79 77/77/77
f 78/78/78 80/80/80 79/79/79
f 82/82/82 83/83/83 81/81/81
f 82/82/82 84/84/84 83/83/83
f 86/86/86 87/87/87 85/85/85
f 86/86/86 88/88/88 87/87/87
f 90/90/90 91/91/91 89/89/89
f 90/90/90 92/92/92 91/91/91
f 94/94/94 95/95/95 93/93/93
f 94/94/94 96/96/96 95/95/95
f 98/98/98 99/99/99 97/97/97
f 98/98/98 100/100/100 99/99/99
f 102/102/102 103/103/103 101/101/101
f 102/102/102 104/104/104 103/103/103
f 106/106/106 107/107/107 105/105/105
f 106/106/106 108/108/108 107/107/107
f 110/110/110 111/111/111 109/109/109
f 110/110/110 112/112/112 111/111/111
f 114/114/114 115/115/115 113/113/113
f 114/114/114 116/116/116 115/115/115
f 118/118/118 119/119/119 117/117/117
f 118/118/118 120/120/120 119/119/119
f 122/122/122 123/123/123 121/121/121
f 122/122/122 124/124/124 123/123/123
f 126/126/126 127/127/127 125/125/125
f 126/126/126 128/128/128 127/127/127
f 130/130/130 131/131/131 129/129/129
f 130/130/130 132/132/132 131/131/131
f 134/134/134 135/135/135 133/133/133
f 134/134/134 136/136/136 135/135/135
f 138/138/138 139/139/139 137/137/137
f 138/138/138 140/140/140 139/139/139
f 142/142/142 143/143/143 141/141/141
f 142/142/142 144/144/144 143/143/143
f 146/146/146 147/147/147 145/145/145
f 146/146/146 148/148/148 147/147/147
f 150/150/150 151/151/151 149/149/149
f 150/150/150 152/152/152 151/151/151
f 154/154/154 155/155/155 153/153/153
f 154/154/154 156/156/156 155/155/155
f 158/158/158 159/159/159 157/157/157
f 158/158/158 160/160/160 159/159/159
f 162/162/162 163/163/163 161/161/161
f 162/162/162 164/164/164 163/163/163
f 166/166/166 167/167/167 165/165/165
f 166/166/166 168/168/168 167/167/167
