g Grass_2_Cluster56
v -204.371 0 51.09276
v -205.1918 0 51.09276
v -204.371 0 52.32391
v -205.1918 0 52.32391
v -205.397 0 50.27199
v -206.2178 0 50.27199
v -205.397 0 51.29795
v -206.2178 0 51.29795
v -204.5762 0 49.65642
v -205.6022 0 49.65642
v -204.5762 0 50.88757
v -205.6022 0 50.88757
v -202.5243 0 49.04084
v -203.5503 0 49.04084
v -202.5243 0 50.0668
v -203.5503 0 50.0668
v -206.8333 0 49.04084
v -207.8593 0 49.04084
v -206.8333 0 50.0668
v -207.8593 0 50.0668
v -203.3451 0 48.42527
v -204.371 0 48.42527
v -203.3451 0 49.65642
v -204.371 0 49.65642
v -204.9866 0 48.22007
v -206.0126 0 48.22007
v -204.9866 0 49.45123
v -206.0126 0 49.45123
v -201.9087 0 48.01488
v -202.9347 0 48.01488
v -201.9087 0 49.24603
v -202.9347 0 49.24603
v -206.6281 0 47.80969
v -207.6541 0 47.80969
v -206.6281 0 48.83565
v -207.6541 0 48.83565
v -202.3191 0 47.80969
v -203.1399 0 47.80969
v -202.3191 0 48.83565
v -203.1399 0 48.83565
v -204.1658 0 47.39931
v -205.1918 0 47.39931
v -204.1658 0 48.42527
v -205.1918 0 48.42527
v -205.8074 0 46.98893
v -206.8333 0 46.98893
v -205.8074 0 48.01488
v -206.8333 0 48.01488
v -203.3451 0 46.98893
v -204.1658 0 46.98893
v -203.3451 0 48.01488
v -204.1658 0 48.01488
v -199.2412 0 46.98893
v -200.2672 0 46.98893
v -199.2412 0 48.22007
v -200.2672 0 48.22007
v -204.7814 0 46.78373
v -205.8074 0 46.78373
v -204.7814 0 47.80969
v -205.8074 0 47.80969
v -202.1139 0 46.78373
v -202.9347 0 46.78373
v -202.1139 0 47.80969
v -202.9347 0 47.80969
v -208.0645 0 46.37335
v -209.0905 0 46.37335
v -208.0645 0 47.6045
v -209.0905 0 47.6045
v -204.1658 0 46.37335
v -204.9866 0 46.37335
v -204.1658 0 47.39931
v -204.9866 0 47.39931
v -208.4749 0 46.16816
v -209.2956 0 46.16816
v -208.4749 0 47.19411
v -209.2956 0 47.19411
v -205.6022 0 46.16816
v -206.6281 0 46.16816
v -205.6022 0 47.39931
v -206.6281 0 47.39931
v -200.2672 0 45.96297
v -201.088 0 45.96297
v -200.2672 0 46.98893
v -201.088 0 46.98893
v -206.2178 0 45.75777
v -207.2437 0 45.75777
v -206.2178 0 46.78373
v -207.2437 0 46.78373
v -202.9347 0 45.55258
v -203.9607 0 45.55258
v -202.9347 0 46.78373
v -203.9607 0 46.78373
v -207.2437 0 45.34739
v -208.0645 0 45.34739
v -207.2437 0 46.37335
v -208.0645 0 46.37335
v -201.088 0 45.1422
v -202.1139 0 45.1422
v -201.088 0 46.16816
v -202.1139 0 46.16816
v -203.9607 0 45.1422
v -204.9866 0 45.1422
v -203.9607 0 46.37335
v -204.9866 0 46.37335
v -206.423 0 45.1422
v -207.2437 0 45.1422
v -206.423 0 46.16816
v -207.2437 0 46.16816
v -202.3191 0 44.937
v -203.3451 0 44.937
v -202.3191 0 45.96297
v -203.3451 0 45.96297
v -199.8568 0 44.937
v -200.6776 0 44.937
v -199.8568 0 45.96297
v -200.6776 0 45.96297
v -198.4205 0 44.73182
v -199.4464 0 44.73182
v -198.4205 0 45.75777
v -199.4464 0 45.75777
v -207.0385 0 44.73182
v -208.0645 0 44.73182
v -207.0385 0 45.75777
v -208.0645 0 45.75777
v -201.2932 0 44.73182
v -202.1139 0 44.73182
v -201.2932 0 45.75777
v -202.1139 0 45.75777
v -203.7555 0 44.52662
v -204.7814 0 44.52662
v -203.7555 0 45.75777
v -204.7814 0 45.75777
v -200.062 0 44.11624
v -200.8828 0 44.11624
v -200.062 0 45.34739
v -200.8828 0 45.34739
v -200.8828 0 44.11624
v -201.7036 0 44.11624
v -200.8828 0 45.1422
v -201.7036 0 45.1422
v -208.0645 0 43.91105
v -209.0905 0 43.91105
v -208.0645 0 45.1422
v -209.0905 0 45.1422
v -202.1139 0 43.91105
v -203.1399 0 43.91105
v -202.1139 0 44.937
v -203.1399 0 44.937
v -206.8333 0 43.70586
v -207.8593 0 43.70586
v -206.8333 0 44.937
v -207.8593 0 44.937
v -208.8853 0 43.50066
v -209.9112 0 43.50066
v -208.8853 0 44.52662
v -209.9112 0 44.52662
v -204.5762 0 43.50066
v -205.6022 0 43.50066
v -204.5762 0 44.73182
v -205.6022 0 44.73182
v -200.062 0 43.50066
v -201.088 0 43.50066
v -200.062 0 44.52662
v -201.088 0 44.52662
v -204.5762 0 43.29547
v -205.6022 0 43.29547
v -204.5762 0 44.52662
v -205.6022 0 44.52662
v -203.1399 0 43.09028
v -203.9607 0 43.09028
v -203.1399 0 44.32143
v -203.9607 0 44.32143
v -206.2178 0 43.09028
v -207.0385 0 43.09028
v -206.2178 0 44.11624
v -207.0385 0 44.11624
v -205.6022 0 42.88509
v -206.423 0 42.88509
v -205.6022 0 43.91105
v -206.423 0 43.91105
v -201.9087 0 42.6799
v -202.7295 0 42.6799
v -201.9087 0 43.50066
v -202.7295 0 43.50066
v -204.371 0 42.4747
v -205.397 0 42.4747
v -204.371 0 43.50066
v -205.397 0 43.50066
v -203.1399 0 41.65394
v -204.1658 0 41.65394
v -203.1399 0 42.88509
v -204.1658 0 42.88509
v -185.2882 0 40.0124
v -186.3142 0 40.0124
v -185.2882 0 41.24355
v -186.3142 0 41.24355
v -187.1349 0 39.19164
v -187.9557 0 39.19164
v -187.1349 0 40.21759
v -187.9557 0 40.21759
v -187.1349 0 37.75529
v -188.1609 0 37.75529
v -187.1349 0 38.98644
v -188.1609 0 38.98644
v -193.4959 0 34.06184
v -194.5218 0 34.06184
v -193.4959 0 35.29299
v -194.5218 0 35.29299
v -195.753 0 33.24107
v -196.5737 0 33.24107
v -195.753 0 34.47223
v -196.5737 0 34.47223
v -193.9063 0 32.83069
v -194.9322 0 32.83069
v -193.9063 0 33.85665
v -194.9322 0 33.85665
v -195.9582 0 32.42031
v -196.7789 0 32.42031
v -195.9582 0 33.65145
v -196.7789 0 33.65145
v -196.9841 0 32.42031
v -198.0101 0 32.42031
v -196.9841 0 33.44627
v -198.0101 0 33.44627
v -193.9063 0 32.21511
v -194.9322 0 32.21511
v -193.9063 0 33.24107
v -194.9322 0 33.24107
v -194.727 0 31.59954
v -195.5478 0 31.59954
v -194.727 0 32.6255
v -195.5478 0 32.6255
v -194.3166 0 30.98396
v -195.3426 0 30.98396
v -194.3166 0 32.00992
v -195.3426 0 32.00992
v -195.5478 0 30.77877
v -196.5737 0 30.77877
v -195.5478 0 31.80473
v -196.5737 0 31.80473
vt 0.1347656 0.9185662
vt 0.2060202 0.9185662
vt 0.1347656 1
vt 0.2060202 1
vt 0.1347656 0.9185662
vt 0.2060202 0.9185662
vt 0.1347656 1
vt 0.2060202 1
vt 0.1347656 0.9185662
vt 0.2060202 0.9185662
vt 0.1347656 1
vt 0.2060202 1
vt 0.1347656 0.9185662
vt 0.2060202 0.9185662
vt 0.1347656 1
vt 0.2060202 1
vt 0.1347656 0.9185662
vt 0.2060202 0.9185662
vt 0.1347656 1
vt 0.2060202 1
vt 0.1347656 0.9185662
vt 0.2060202 0.9185662
vt 0.1347656 1
vt 0.2060202 1
vt 0.1347656 0.9185662
vt 0.2060202 0.9185662
vt 0.1347656 1
vt 0.2060202 1
vt 0.1347656 0.9185662
vt 0.2060202 0.9185662
vt 0.1347656 1
vt 0.2060202 1
vt 0.1347656 0.9185662
vt 0.2060202 0.9185662
vt 0.1347656 1
vt 0.2060202 1
vt 0.1347656 0.9185662
vt 0.2060202 0.9185662
vt 0.1347656 1
vt 0.2060202 1
vt 0.1347656 0.9185662
vt 0.2060202 0.9185662
vt 0.1347656 1
vt 0.2060202 1
vt 0.1347656 0.9185662
vt 0.2060202 0.9185662
vt 0.1347656 1
vt 0.2060202 1
vt 0.1347656 0.9185662
vt 0.2060202 0.9185662
vt 0.1347656 1
vt 0.2060202 1
vt 0.1347656 0.9185662
vt 0.2060202 0.9185662
vt 0.1347656 1
vt 0.2060202 1
vt 0.1347656 0.9185662
vt 0.2060202 0.9185662
vt 0.1347656 1
vt 0.2060202 1
vt 0.1347656 0.9185662
vt 0.2060202 0.9185662
vt 0.1347656 1
vt 0.2060202 1
vt 0.1347656 0.9185662
vt 0.2060202 0.9185662
vt 0.1347656 1
vt 0.2060202 1
vt 0.1347656 0.9185662
vt 0.2060202 0.9185662
vt 0.1347656 1
vt 0.2060202 1
vt 0.1347656 0.9185662
vt 0.2060202 0.9185662
vt 0.1347656 1
vt 0.2060202 1
vt 0.1347656 0.9185662
vt 0.2060202 0.9185662
vt 0.1347656 1
vt 0.2060202 1
vt 0.1347656 0.9185662
vt 0.2060202 0.9185662
vt 0.1347656 1
vt 0.2060202 1
vt 0.1347656 0.9185662
vt 0.2060202 0.9185662
vt 0.1347656 1
vt 0.2060202 1
vt 0.1347656 0.9185662
vt 0.2060202 0.9185662
vt 0.1347656 1
vt 0.2060202 1
vt 0.1347656 0.9185662
vt 0.2060202 0.9185662
vt 0.1347656 1
vt 0.2060202 1
vt 0.1347656 0.9185662
vt 0.2060202 0.9185662
vt 0.1347656 1
vt 0.2060202 1
vt 0.1347656 0.9185662
vt 0.2060202 0.9185662
vt 0.1347656 1
vt 0.2060202 1
vt 0.1347656 0.9185662
vt 0.2060202 0.9185662
vt 0.1347656 1
vt 0.2060202 1
vt 0.1347656 0.9185662
vt 0.2060202 0.9185662
vt 0.1347656 1
vt 0.2060202 1
vt 0.1347656 0.9185662
vt 0.2060202 0.9185662
vt 0.1347656 1
vt 0.2060202 1
vt 0.1347656 0.9185662
vt 0.2060202 0.9185662
vt 0.1347656 1
vt 0.2060202 1
vt 0.1347656 0.9185662
vt 0.2060202 0.9185662
vt 0.1347656 1
vt 0.2060202 1
vt 0.1347656 0.9185662
vt 0.2060202 0.9185662
vt 0.1347656 1
vt 0.2060202 1
vt 0.1347656 0.9185662
vt 0.2060202 0.9185662
vt 0.1347656 1
vt 0.2060202 1
vt 0.1347656 0.9185662
vt 0.2060202 0.9185662
vt 0.1347656 1
vt 0.2060202 1
vt 0.1347656 0.9185662
vt 0.2060202 0.9185662
vt 0.1347656 1
vt 0.2060202 1
vt 0.1347656 0.9185662
vt 0.2060202 0.9185662
vt 0.1347656 1
vt 0.2060202 1
vt 0.1347656 0.9185662
vt 0.2060202 0.9185662
vt 0.1347656 1
vt 0.2060202 1
vt 0.1347656 0.9185662
vt 0.2060202 0.9185662
vt 0.1347656 1
vt 0.2060202 1
vt 0.1347656 0.9185662
vt 0.2060202 0.9185662
vt 0.1347656 1
vt 0.2060202 1
vt 0.1347656 0.9185662
vt 0.2060202 0.9185662
vt 0.1347656 1
vt 0.2060202 1
vt 0.1347656 0.9185662
vt 0.2060202 0.9185662
vt 0.1347656 1
vt 0.2060202 1
vt 0.1347656 0.9185662
vt 0.2060202 0.9185662
vt 0.1347656 1
vt 0.2060202 1
vt 0.1347656 0.9185662
vt 0.2060202 0.9185662
vt 0.1347656 1
vt 0.2060202 1
vt 0.1347656 0.9185662
vt 0.2060202 0.9185662
vt 0.1347656 1
vt 0.2060202 1
vt 0.1347656 0.9185662
vt 0.2060202 0.9185662
vt 0.1347656 1
vt 0.2060202 1
vt 0.1347656 0.9185662
vt 0.2060202 0.9185662
vt 0.1347656 1
vt 0.2060202 1
vt 0.1347656 0.9185662
vt 0.2060202 0.9185662
vt 0.1347656 1
vt 0.2060202 1
vt 0.1347656 0.9185662
vt 0.2060202 0.9185662
vt 0.1347656 1
vt 0.2060202 1
vt 0.1347656 0.9185662
vt 0.2060202 0.9185662
vt 0.1347656 1
vt 0.2060202 1
vt 0.1347656 0.9185662
vt 0.2060202 0.9185662
vt 0.1347656 1
vt 0.2060202 1
vt 0.1347656 0.9185662
vt 0.2060202 0.9185662
vt 0.1347656 1
vt 0.2060202 1
vt 0.1347656 0.9185662
vt 0.2060202 0.9185662
vt 0.1347656 1
vt 0.2060202 1
vt 0.1347656 0.9185662
vt 0.2060202 0.9185662
vt 0.1347656 1
vt 0.2060202 1
vt 0.1347656 0.9185662
vt 0.2060202 0.9185662
vt 0.1347656 1
vt 0.2060202 1
vt 0.1347656 0.9185662
vt 0.2060202 0.9185662
vt 0.1347656 1
vt 0.2060202 1
vt 0.1347656 0.9185662
vt 0.2060202 0.9185662
vt 0.1347656 1
vt 0.2060202 1
vt 0.1347656 0.9185662
vt 0.2060202 0.9185662
vt 0.1347656 1
vt 0.2060202 1
vt 0.1347656 0.9185662
vt 0.2060202 0.9185662
vt 0.1347656 1
vt 0.2060202 1
vt 0.1347656 0.9185662
vt 0.2060202 0.9185662
vt 0.1347656 1
vt 0.2060202 1
vt 0.1347656 0.9185662
vt 0.2060202 0.9185662
vt 0.1347656 1
vt 0.2060202 1
vn 0 1 0
vn 0 1 0
vn 0 1 0
vn 0 1 0
vn 0 1 0
vn 0 1 0
vn 0 1 0
vn 0 1 0
vn 0 1 0
vn 0 1 0
vn 0 1 0
vn 0 1 0
vn 0 1 0
vn 0 1 0
vn 0 1 0
vn 0 1 0
vn 0 1 0
vn 0 1 0
vn 0 1 0
vn 0 1 0
vn 0 1 0
vn 0 1 0
vn 0 1 0
vn 0 1 0
vn 0 1 0
vn 0 1 0
vn 0 1 0
vn 0 1 0
vn 0 1 0
vn 0 1 0
vn 0 1 0
vn 0 1 0
vn 0 1 0
vn 0 1 0
vn 0 1 0
vn 0 1 0
vn 0 1 0
vn 0 1 0
vn 0 1 0
vn 0 1 0
vn 0 1 0
vn 0 1 0
vn 0 1 0
vn 0 1 0
vn 0 1 0
vn 0 1 0
vn 0 1 0
vn 0 1 0
vn 0 1 0
vn 0 1 0
vn 0 1 0
vn 0 1 0
vn 0 1 0
vn 0 1 0
vn 0 1 0
vn 0 1 0
vn 0 1 0
vn 0 1 0
vn 0 1 0
vn 0 1 0
vn 0 1 0
vn 0 1 0
vn 0 1 0
vn 0 1 0
vn 0 1 0
vn 0 1 0
vn 0 1 0
vn 0 1 0
vn 0 1 0
vn 0 1 0
vn 0 1 0
vn 0 1 0
vn 0 1 0
vn 0 1 0
vn 0 1 0
vn 0 1 0
vn 0 1 0
vn 0 1 0
vn 0 1 0
vn 0 1 0
vn 0 1 0
vn 0 1 0
vn 0 1 0
vn 0 1 0
vn 0 1 0
vn 0 1 0
vn 0 1 0
vn 0 1 0
vn 0 1 0
vn 0 1 0
vn 0 1 0
vn 0 1 0
vn 0 1 0
vn 0 1 0
vn 0 1 0
vn 0 1 0
vn 0 1 0
vn 0 1 0
vn 0 1 0
vn 0 1 0
vn 0 1 0
vn 0 1 0
vn 0 1 0
vn 0 1 0
vn 0 1 0
vn 0 1 0
vn 0 1 0
vn 0 1 0
vn 0 1 0
vn 0 1 0
vn 0 1 0
vn 0 1 0
vn 0 1 0
vn 0 1 0
vn 0 1 0
vn 0 1 0
vn 0 1 0
vn 0 1 0
vn 0 1 0
vn 0 1 0
vn 0 1 0
vn 0 1 0
vn 0 1 0
vn 0 1 0
vn 0 1 0
vn 0 1 0
vn 0 1 0
vn 0 1 0
vn 0 1 0
vn 0 1 0
vn 0 1 0
vn 0 1 0
vn 0 1 0
vn 0 1 0
vn 0 1 0
vn 0 1 0
vn 0 1 0
vn 0 1 0
vn 0 1 0
vn 0 1 0
vn 0 1 0
vn 0 1 0
vn 0 1 0
vn 0 1 0
vn 0 1 0
vn 0 1 0
vn 0 1 0
vn 0 1 0
vn 0 1 0
vn 0 1 0
vn 0 1 0
vn 0 1 0
vn 0 1 0
vn 0 1 0
vn 0 1 0
vn 0 1 0
vn 0 1 0
vn 0 1 0
vn 0 1 0
vn 0 1 0
vn 0 1 0
vn 0 1 0
vn 0 1 0
vn 0 1 0
vn 0 1 0
vn 0 1 0
vn 0 1 0
vn 0 1 0
vn 0 1 0
vn 0 1 0
vn 0 1 0
vn 0 1 0
vn 0 1 0
vn 0 1 0
vn 0 1 0
vn 0 1 0
vn 0 1 0
vn 0 1 0
vn 0 1 0
vn 0 1 0
vn 0 1 0
vn 0 1 0
vn 0 1 0
vn 0 1 0
vn 0 1 0
vn 0 1 0
vn 0 1 0
vn 0 1 0
vn 0 1 0
vn 0 1 0
vn 0 1 0
vn 0 1 0
vn 0 1 0
vn 0 1 0
vn 0 1 0
vn 0 1 0
vn 0 1 0
vn 0 1 0
vn 0 1 0
vn 0 1 0
vn 0 1 0
vn 0 1 0
vn 0 1 0
vn 0 1 0
vn 0 1 0
vn 0 1 0
vn 0 1 0
vn 0 1 0
vn 0 1 0
vn 0 1 0
vn 0 1 0
vn 0 1 0
vn 0 1 0
vn 0 1 0
vn 0 1 0
vn 0 1 0
vn 0 1 0
vn 0 1 0
vn 0 1 0
vn 0 1 0
vn 0 1 0
vn 0 1 0
vn 0 1 0
vn 0 1 0
vn 0 1 0
vn 0 1 0
vn 0 1 0
vn 0 1 0
vn 0 1 0
vn 0 1 0
vn 0 1 0
vn 0 1 0
vn 0 1 0
vn 0 1 0
vn 0 1 0
vn 0 1 0
vn 0 1 0
vn 0 1 0
vn 0 1 0
vn 0 1 0
g Grass_2_Cluster56_0
f 2/2/2 3/3/3 1/1/1
f 2/2/2 4/4/4 3/3/3
f 6/6/6 7/7/7 5/5/5
f 6/6/6 8/8/8 7/7/7
f 10/10/10 11/11/11 9/9/9
f 10/10/10 12/12/12 11/11/11
f 14/14/14 15/15/15 13/13/13
f 14/14/14 16/16/16 15/15/15
f 18/18/18 19/19/19 17/17/17
f 18/18/18 20/20/20 19/19/19
f 22/22/22 23/23/23 21/21/21
f 22/22/22 24/24/24 23/23/23
f 26/26/26 27/27/27 25/25/25
f 26/26/26 28/28/28 27/27/27
f 30/30/30 31/31/31 29/29/29
f 30/30/30 32/32/32 31/31/31
f 34/34/34 35/35/35 33/33/33
f 34/34/34 36/36/36 35/35/35
f 38/38/38 39/39/39 37/37/37
f 38/38/38 40/40/40 39/39/39
f 42/42/42 43/43/43 41/41/41
f 42/42/42 44/44/44 43/43/43
f 46/46/46 47/47/47 45/45/45
f 46/46/46 48/48/48 47/47/47
f 50/50/50 51/51/51 49/49/49
f 50/50/50 52/52/52 51/51/51
f 54/54/54 55/55/55 53/53/53
f 54/54/54 56/56/56 55/55/55
f 58/58/58 59/59/59 57/57/57
f 58/58/58 60/60/60 59/59/59
f 62/62/62 63/63/63 61/61/61
f 62/62/62 64/64/64 63/63/63
f 66/66/66 67/67/67 65/65/65
f 66/66/66 68/68/68 67/67/67
f 70/70/70 71/71/71 69/69/69
f 70/70/70 72/72/72 71/71/71
f 74/74/74 75/75/75 73/73/73
f 74/74/74 76/76/76 75/75/75
f 78/78/78 79/79/79 77/77/77
f 78/78/78 80/80/80 79/79/79
f 82/82/82 83/83/83 81/81/81
f 82/82/82 84/84/84 83/83/83
f 86/86/86 87/87/87 85/85/85
f 86/86/86 88/88/88 87/87/87
f 90/90/90 91/91/91 89/89/89
f 90/90/90 92/92/92 91/91/91
f 94/94/94 95/95/95 93/93/93
f 94/94/94 96/96/96 95/95/95
f 98/98/98 99/99/99 97/97/97
f 98/98/98 100/100/100 99/99/99
f 102/102/102 103/103/103 101/101/101
f 102/102/102 104/104/104 103/103/103
f 106/106/106 107/107/107 105/105/105
f 106/106/106 108/108/108 107/107/107
f 110/110/110 111/111/111 109/109/109
f 110/110/110 112/112/112 111/111/111
f 114/114/114 115/115/115 113/113/113
f 114/114/114 116/116/116 115/115/115
f 118/118/118 119/119/119 117/117/117
f 118/118/118 120/120/120 119/119/119
f 122/122/122 123/123/123 121/121/121
f 122/122/122 124/124/124 123/123/123
f 126/126/126 127/127/127 125/125/125
f 126/126/126 128/128/128 127/127/127
f 130/130/130 131/131/131 129/129/129
f 130/130/130 132/132/132 131/131/131
f 134/134/134 135/135/135 133/133/133
f 134/134/134 136/136/136 135/135/135
f 138/138/138 139/139/139 137/137/137
f 138/138/138 140/140/140 139/139/139
f 142/142/142 143/143/143 141/141/141
f 142/142/142 144/144/144 143/143/143
f 146/146/146 147/147/147 145/145/145
f 146/146/146 148/148/148 147/147/147
f 150/150/150 151/151/151 149/149/149
f 150/150/150 152/152/152 151/151/151
f 154/154/154 155/155/155 153/153/153
f 154/154/154 156/156/156 155/155/155
f 158/158/158 159/159/159 157/157/157
f 158/158/158 160/160/160 159/159/159
f 162/162/162 163/163/163 161/161/161
f 162/162/162 164/164/164 163/163/163
f 166/166/166 167/167/167 165/165/165
f 166/166/166 168/168/168 167/167/167
f 170/170/170 171/171/171 169/169/169
f 170/170/170 172/172/172 171/171/171
f 174/174/174 175/175/175 173/173/173
f 174/174/174 176/176/176 175/175/175
f 178/178/178 179/179/179 177/177/177
f 178/178/178 180/180/180 179/179/179
f 182/182/182 183/183/183 181/181/181
f 182/182/182 184/184/184 183/183/183
f 186/186/186 187/187/187 185/185/185
f 186/186/186 188/188/188 187/187/187
f 190/190/190 191/191/191 189/189/189
f 190/190/190 192/192/192 191/191/191
f 194/194/194 195/195/195 193/193/193
f 194/194/194 196/196/196 195/195/195
f 198/198/198 199/199/199 197/197/197
f 198/198/198 200/200/200 199/199/199
f 202/202/202 203/203/203 201/201/201
f 202/202/202 204/204/204 203/203/203
f 206/206/206 207/207/207 205/205/205
f 206/206/206 208/208/208 207/207/207
f 210/210/210 211/211/211 209/209/209
f 210/210/210 212/212/212 211/211/211
f 214/214/214 215/215/215 213/213/213
f 214/214/214 216/216/216 215/215/215
f 218/218/218 219/219/219 217/217/217
f 218/218/218 220/220/220 219/219/219
f 222/222/222 223/223/223 221/221/221
f 222/222/222 224/224/224 223/223/223
f 226/226/226 227/227/227 225/225/225
f 226/226/226 228/228/228 227/227/227
f 230/230/230 231/231/231 229/229/229
f 230/230/230 232/232/232 231/231/231
f 234/234/234 235/235/235 233/233/233
f 234/234/234 236/236/236 235/235/235
f 238/238/238 239/239/239 237/237/237
f 238/238/238 240/240/240 239/239/239
