g Grass_0_Cluster152
v -80.84782 0 202.8182
v -81.84594 0 202.8182
v -80.84782 0 204.2156
v -81.84594 0 204.2156
v -82.84406 0 202.6186
v -83.84218 0 202.6186
v -82.84406 0 203.8163
v -83.84218 0 203.8163
v -81.64631 0 202.419
v -82.64443 0 202.419
v -81.64631 0 203.6167
v -82.64443 0 203.6167
v -81.64631 0 201.6205
v -82.44481 0 201.6205
v -81.64631 0 203.0179
v -82.44481 0 203.0179
v -82.44481 0 201.0216
v -83.44293 0 201.0216
v -82.44481 0 202.2193
v -83.44293 0 202.2193
v -83.84218 0 199.4246
v -84.64068 0 199.4246
v -83.84218 0 200.6224
v -84.64068 0 200.6224
v -75.45796 0 198.8257
v -76.25645 0 198.8257
v -75.45796 0 200.0235
v -76.25645 0 200.0235
v -63.08126 0 197.4284
v -64.07938 0 197.4284
v -63.08126 0 198.8257
v -64.07938 0 198.8257
v -70.26773 0 196.6299
v -71.06623 0 196.6299
v -70.26773 0 198.0272
v -71.06623 0 198.0272
v -65.67638 0 196.6299
v -66.47487 0 196.6299
v -65.67638 0 197.8276
v -66.47487 0 197.8276
v -69.66886 0 196.031
v -70.66698 0 196.031
v -69.66886 0 197.4284
v -70.66698 0 197.4284
v -70.66698 0 196.031
v -71.46548 0 196.031
v -70.66698 0 197.4284
v -71.46548 0 197.4284
v -69.86848 0 195.4321
v -70.66698 0 195.4321
v -69.86848 0 196.6299
v -70.66698 0 196.6299
v -72.06435 0 195.2325
v -73.06247 0 195.2325
v -72.06435 0 196.4303
v -73.06247 0 196.4303
v -68.07186 0 195.0329
v -69.06998 0 195.0329
v -68.07186 0 196.4303
v -69.06998 0 196.4303
v -69.06998 0 194.6336
v -69.86848 0 194.6336
v -69.06998 0 195.8314
v -69.86848 0 195.8314
v -68.07186 0 194.434
v -69.06998 0 194.434
v -68.07186 0 195.6317
v -69.06998 0 195.6317
v -70.46735 0 194.0348
v -71.26585 0 194.0348
v -70.46735 0 195.2325
v -71.26585 0 195.2325
v -66.27525 0 193.8351
v -67.27337 0 193.8351
v -66.27525 0 195.0329
v -67.27337 0 195.0329
v -71.86472 0 193.6355
v -72.66322 0 193.6355
v -71.86472 0 194.8333
v -72.66322 0 194.8333
v -66.67449 0 193.4359
v -67.67262 0 193.4359
v -66.67449 0 194.8333
v -67.67262 0 194.8333
v -68.87036 0 193.2363
v -69.86848 0 193.2363
v -68.87036 0 194.434
v -69.86848 0 194.434
v -68.67074 0 193.0366
v -69.46923 0 193.0366
v -68.67074 0 194.434
v -69.46923 0 194.434
v -71.06623 0 192.837
v -71.86472 0 192.837
v -71.06623 0 194.2344
v -71.86472 0 194.2344
v -69.86848 0 192.837
v -70.8666 0 192.837
v -69.86848 0 194.2344
v -70.8666 0 194.2344
v -67.27337 0 192.6374
v -68.07186 0 192.6374
v -67.27337 0 193.8351
v -68.07186 0 193.8351
v -67.87224 0 192.4378
v -68.87036 0 192.4378
v -67.87224 0 193.6355
v -68.87036 0 193.6355
v -71.06623 0 192.2381
v -71.86472 0 192.2381
v -71.06623 0 193.4359
v -71.86472 0 193.4359
v -69.46923 0 192.0385
v -70.26773 0 192.0385
v -69.46923 0 193.2363
v -70.26773 0 193.2363
v -71.6651 0 191.6393
v -72.4636 0 191.6393
v -71.6651 0 192.837
v -72.4636 0 192.837
v -67.27337 0 191.4396
v -68.07186 0 191.4396
v -67.27337 0 192.837
v -68.07186 0 192.837
v -69.46923 0 191.24
v -70.26773 0 191.24
v -69.46923 0 192.6374
v -70.26773 0 192.6374
v -67.47299 0 190.8408
v -68.47112 0 190.8408
v -67.47299 0 192.0385
v -68.47112 0 192.0385
v -83.64256 0 190.4415
v -84.64068 0 190.4415
v -83.64256 0 191.8389
v -84.64068 0 191.8389
v -69.06998 0 190.0423
v -70.06811 0 190.0423
v -69.06998 0 191.4396
v -70.06811 0 191.4396
v -70.06811 0 190.0423
v -70.8666 0 190.0423
v -70.06811 0 191.24
v -70.8666 0 191.24
v -69.06998 0 189.643
v -70.06811 0 189.643
v -69.06998 0 190.8408
v -70.06811 0 190.8408
v -67.87224 0 189.2438
v -68.87036 0 189.2438
v -67.87224 0 190.4415
v -68.87036 0 190.4415
v -68.27149 0 188.6449
v -69.06998 0 188.6449
v -68.27149 0 189.8427
v -69.06998 0 189.8427
v -71.26585 0 188.2457
v -72.06435 0 188.2457
v -71.26585 0 189.4434
v -72.06435 0 189.4434
v -68.47112 0 187.2475
v -69.46923 0 187.2475
v -68.47112 0 188.6449
v -69.46923 0 188.6449
v -69.26961 0 186.449
v -70.06811 0 186.449
v -69.26961 0 187.4472
v -70.06811 0 187.4472
v -68.67074 0 185.6505
v -69.66886 0 185.6505
v -68.67074 0 186.8483
v -69.66886 0 186.8483
v -89.03241 0 181.4584
v -90.03053 0 181.4584
v -89.03241 0 182.6562
v -90.03053 0 182.6562
v -87.63504 0 181.4584
v -88.43353 0 181.4584
v -87.63504 0 182.6562
v -88.43353 0 182.6562
v -76.45609 0 181.4584
v -77.4542 0 181.4584
v -76.45609 0 182.6562
v -77.4542 0 182.6562
v -89.23203 0 180.6599
v -90.03053 0 180.6599
v -89.23203 0 181.8577
v -90.03053 0 181.8577
v -88.83279 0 180.0611
v -89.8309 0 180.0611
v -88.83279 0 181.2588
v -89.8309 0 181.2588
v -87.23579 0 178.8633
v -88.03429 0 178.8633
v -87.23579 0 180.0611
v -88.03429 0 180.0611
v -86.63692 0 177.0667
v -87.43542 0 177.0667
v -86.63692 0 178.0648
v -87.43542 0 178.0648
v -87.83466 0 176.6674
v -88.83279 0 176.6674
v -87.83466 0 177.8652
v -88.83279 0 177.8652
v -82.84406 0 174.6712
v -83.84218 0 174.6712
v -82.84406 0 175.869
v -83.84218 0 175.869
v -86.03805 0 174.6712
v -86.83654 0 174.6712
v -86.03805 0 175.869
v -86.83654 0 175.869
v -88.83279 0 174.6712
v -89.8309 0 174.6712
v -88.83279 0 175.869
v -89.8309 0 175.869
v -78.85157 0 174.4716
v -79.65007 0 174.4716
v -78.85157 0 175.869
v -79.65007 0 175.869
v -61.68389 0 174.4716
v -62.48238 0 174.4716
v -61.68389 0 175.6693
v -62.48238 0 175.6693
v -85.43917 0 173.4735
v -86.23767 0 173.4735
v -85.43917 0 174.6712
v -86.23767 0 174.6712
vt 0 0.9058824
vt 0.06666667 0.9058824
vt 0 1
vt 0.06666667 1
vt 0 0.9058824
vt 0.06666667 0.9058824
vt 0 1
vt 0.06666667 1
vt 0 0.9058824
vt 0.06666667 0.9058824
vt 0 1
vt 0.06666667 1
vt 0 0.9058824
vt 0.06666667 0.9058824
vt 0 1
vt 0.06666667 1
vt 0 0.9058824
vt 0.06666667 0.9058824
vt 0 1
vt 0.06666667 1
vt 0 0.9058824
vt 0.06666667 0.9058824
vt 0 1
vt 0.06666667 1
vt 0 0.9058824
vt 0.06666667 0.9058824
vt 0 1
vt 0.06666667 1
vt 0 0.9058824
vt 0.06666667 0.9058824
vt 0 1
vt 0.06666667 1
vt 0 0.9058824
vt 0.06666667 0.9058824
vt 0 1
vt 0.06666667 1
vt 0 0.9058824
vt 0.06666667 0.9058824
vt 0 1
vt 0.06666667 1
vt 0 0.9058824
vt 0.06666667 0.9058824
vt 0 1
vt 0.06666667 1
vt 0 0.9058824
vt 0.06666667 0.9058824
vt 0 1
vt 0.06666667 1
vt 0 0.9058824
vt 0.06666667 0.9058824
vt 0 1
vt 0.06666667 1
vt 0 0.9058824
vt 0.06666667 0.9058824
vt 0 1
vt 0.06666667 1
vt 0 0.9058824
vt 0.06666667 0.9058824
vt 0 1
vt 0.06666667 1
vt 0 0.9058824
vt 0.06666667 0.9058824
vt 0 1
vt 0.06666667 1
vt 0 0.9058824
vt 0.06666667 0.9058824
vt 0 1
vt 0.06666667 1
vt 0 0.9058824
vt 0.06666667 0.9058824
vt 0 1
vt 0.06666667 1
vt 0 0.9058824
vt 0.06666667 0.9058824
vt 0 1
vt 0.06666667 1
vt 0 0.9058824
vt 0.06666667 0.9058824
vt 0 1
vt 0.06666667 1
vt 0 0.9058824
vt 0.06666667 0.9058824
vt 0 1
vt 0.06666667 1
vt 0 0.9058824
vt 0.06666667 0.9058824
vt 0 1
vt 0.06666667 1
vt 0 0.9058824
vt 0.06666667 0.9058824
vt 0 1
vt 0.06666667 1
vt 0 0.9058824
vt 0.06666667 0.9058824
vt 0 1
vt 0.06666667 1
vt 0 0.9058824
vt 0.06666667 0.9058824
vt 0 1
vt 0.06666667 1
vt 0 0.9058824
vt 0.06666667 0.9058824
vt 0 1
vt 0.06666667 1
vt 0 0.9058824
vt 0.06666667 0.9058824
vt 0 1
vt 0.06666667 1
vt 0 0.9058824
vt 0.06666667 0.9058824
vt 0 1
vt 0.06666667 1
vt 0 0.9058824
vt 0.06666667 0.9058824
vt 0 1
vt 0.06666667 1
vt 0 0.9058824
vt 0.06666667 0.9058824
vt 0 1
vt 0.06666667 1
vt 0 0.9058824
vt 0.06666667 0.9058824
vt 0 1
vt 0.06666667 1
vt 0 0.9058824
vt 0.06666667 0.9058824
vt 0 1
vt 0.06666667 1
vt 0 0.9058824
vt 0.06666667 0.9058824
vt 0 1
vt 0.06666667 1
vt 0 0.9058824
vt 0.06666667 0.9058824
vt 0 1
vt 0.06666667 1
vt 0 0.9058824
vt 0.06666667 0.9058824
vt 0 1
vt 0.06666667 1
vt 0 0.9058824
vt 0.06666667 0.9058824
vt 0 1
vt 0.06666667 1
vt 0 0.9058824
vt 0.06666667 0.9058824
vt 0 1
vt 0.06666667 1
vt 0 0.9058824
vt 0.06666667 0.9058824
vt 0 1
vt 0.06666667 1
vt 0 0.9058824
vt 0.06666667 0.9058824
vt 0 1
vt 0.06666667 1
vt 0 0.9058824
vt 0.06666667 0.9058824
vt 0 1
vt 0.06666667 1
vt 0 0.9058824
vt 0.06666667 0.9058824
vt 0 1
vt 0.06666667 1
vt 0 0.9058824
vt 0.06666667 0.9058824
vt 0 1
vt 0.06666667 1
vt 0 0.9058824
vt 0.06666667 0.9058824
vt 0 1
vt 0.06666667 1
vt 0 0.9058824
vt 0.06666667 0.9058824
vt 0 1
vt 0.06666667 1
vt 0 0.9058824
vt 0.06666667 0.9058824
vt 0 1
vt 0.06666667 1
vt 0 0.9058824
vt 0.06666667 0.9058824
vt 0 1
vt 0.06666667 1
vt 0 0.9058824
vt 0.06666667 0.9058824
vt 0 1
vt 0.06666667 1
vt 0 0.9058824
vt 0.06666667 0.9058824
vt 0 1
vt 0.06666667 1
vt 0 0.9058824
vt 0.06666667 0.9058824
vt 0 1
vt 0.06666667 1
vt 0 0.9058824
vt 0.06666667 0.9058824
vt 0 1
vt 0.06666667 1
vt 0 0.9058824
vt 0.06666667 0.9058824
vt 0 1
vt 0.06666667 1
vt 0 0.9058824
vt 0.06666667 0.9058824
vt 0 1
vt 0.06666667 1
vt 0 0.9058824
vt 0.06666667 0.9058824
vt 0 1
vt 0.06666667 1
vt 0 0.9058824
vt 0.06666667 0.9058824
vt 0 1
vt 0.06666667 1
vt 0 0.9058824
vt 0.06666667 0.9058824
vt 0 1
vt 0.06666667 1
vt 0 0.9058824
vt 0.06666667 0.9058824
vt 0 1
vt 0.06666667 1
vt 0 0.9058824
vt 0.06666667 0.9058824
vt 0 1
vt 0.06666667 1
vn 0 1 0
vn 0 1 0
vn 0 1 0
vn 0 1 0
vn 0 1 0
vn 0 1 0
vn 0 1 0
vn 0 1 0
vn 0 1 0
vn 0 1 0
vn 0 1 0
vn 0 1 0
vn 0 1 0
vn 0 1 0
vn 0 1 0
vn 0 1 0
vn 0 1 0
vn 0 1 0
vn 0 1 0
vn 0 1 0
vn 0 1 0
vn 0 1 0
vn 0 1 0
vn 0 1 0
vn 0 1 0
vn 0 1 0
vn 0 1 0
vn 0 1 0
vn 0 1 0
vn 0 1 0
vn 0 1 0
vn 0 1 0
vn 0 1 0
vn 0 1 0
vn 0 1 0
vn 0 1 0
vn 0 1 0
vn 0 1 0
vn 0 1 0
vn 0 1 0
vn 0 1 0
vn 0 1 0
vn 0 1 0
vn 0 1 0
vn 0 1 0
vn 0 1 0
vn 0 1 0
vn 0 1 0
vn 0 1 0
vn 0 1 0
vn 0 1 0
vn 0 1 0
vn 0 1 0
vn 0 1 0
vn 0 1 0
vn 0 1 0
vn 0 1 0
vn 0 1 0
vn 0 1 0
vn 0 1 0
vn 0 1 0
vn 0 1 0
vn 0 1 0
vn 0 1 0
vn 0 1 0
vn 0 1 0
vn 0 1 0
vn 0 1 0
vn 0 1 0
vn 0 1 0
vn 0 1 0
vn 0 1 0
vn 0 1 0
vn 0 1 0
vn 0 1 0
vn 0 1 0
vn 0 1 0
vn 0 1 0
vn 0 1 0
vn 0 1 0
vn 0 1 0
vn 0 1 0
vn 0 1 0
vn 0 1 0
vn 0 1 0
vn 0 1 0
vn 0 1 0
vn 0 1 0
vn 0 1 0
vn 0 1 0
vn 0 1 0
vn 0 1 0
vn 0 1 0
vn 0 1 0
vn 0 1 0
vn 0 1 0
vn 0 1 0
vn 0 1 0
vn 0 1 0
vn 0 1 0
vn 0 1 0
vn 0 1 0
vn 0 1 0
vn 0 1 0
vn 0 1 0
vn 0 1 0
vn 0 1 0
vn 0 1 0
vn 0 1 0
vn 0 1 0
vn 0 1 0
vn 0 1 0
vn 0 1 0
vn 0 1 0
vn 0 1 0
vn 0 1 0
vn 0 1 0
vn 0 1 0
vn 0 1 0
vn 0 1 0
vn 0 1 0
vn 0 1 0
vn 0 1 0
vn 0 1 0
vn 0 1 0
vn 0 1 0
vn 0 1 0
vn 0 1 0
vn 0 1 0
vn 0 1 0
vn 0 1 0
vn 0 1 0
vn 0 1 0
vn 0 1 0
vn 0 1 0
vn 0 1 0
vn 0 1 0
vn 0 1 0
vn 0 1 0
vn 0 1 0
vn 0 1 0
vn 0 1 0
vn 0 1 0
vn 0 1 0
vn 0 1 0
vn 0 1 0
vn 0 1 0
vn 0 1 0
vn 0 1 0
vn 0 1 0
vn 0 1 0
vn 0 1 0
vn 0 1 0
vn 0 1 0
vn 0 1 0
vn 0 1 0
vn 0 1 0
vn 0 1 0
vn 0 1 0
vn 0 1 0
vn 0 1 0
vn 0 1 0
vn 0 1 0
vn 0 1 0
vn 0 1 0
vn 0 1 0
vn 0 1 0
vn 0 1 0
vn 0 1 0
vn 0 1 0
vn 0 1 0
vn 0 1 0
vn 0 1 0
vn 0 1 0
vn 0 1 0
vn 0 1 0
vn 0 1 0
vn 0 1 0
vn 0 1 0
vn 0 1 0
vn 0 1 0
vn 0 1 0
vn 0 1 0
vn 0 1 0
vn 0 1 0
vn 0 1 0
vn 0 1 0
vn 0 1 0
vn 0 1 0
vn 0 1 0
vn 0 1 0
vn 0 1 0
vn 0 1 0
vn 0 1 0
vn 0 1 0
vn 0 1 0
vn 0 1 0
vn 0 1 0
vn 0 1 0
vn 0 1 0
vn 0 1 0
vn 0 1 0
vn 0 1 0
vn 0 1 0
vn 0 1 0
vn 0 1 0
vn 0 1 0
vn 0 1 0
vn 0 1 0
vn 0 1 0
vn 0 1 0
vn 0 1 0
vn 0 1 0
vn 0 1 0
vn 0 1 0
vn 0 1 0
vn 0 1 0
vn 0 1 0
vn 0 1 0
vn 0 1 0
vn 0 1 0
vn 0 1 0
vn 0 1 0
vn 0 1 0
vn 0 1 0
vn 0 1 0
vn 0 1 0
vn 0 1 0
g Grass_0_Cluster152_0
f 2/2/2 3/3/3 1/1/1
f 2/2/2 4/4/4 3/3/3
f 6/6/6 7/7/7 5/5/5
f 6/6/6 8/8/8 7/7/7
f 10/10/10 11/11/11 9/9/9
f 10/10/10 12/12/12 11/11/11
f 14/14/14 15/15/15 13/13/13
f 14/14/14 16/16/16 15/15/15
f 18/18/18 19/19/19 17/17/17
f 18/18/18 20/20/20 19/19/19
f 22/22/22 23/23/23 21/21/21
f 22/22/22 24/24/24 23/23/23
f 26/26/26 27/27/27 25/25/25
f 26/26/26 28/28/28 27/27/27
f 30/30/30 31/31/31 29/29/29
f 30/30/30 32/32/32 31/31/31
f 34/34/34 35/35/35 33/33/33
f 34/34/34 36/36/36 35/35/35
f 38/38/38 39/39/39 37/37/37
f 38/38/38 40/40/40 39/39/39
f 42/42/42 43/43/43 41/41/41
f 42/42/42 44/44/44 43/43/43
f 46/46/46 47/47/47 45/45/45
f 46/46/46 48/48/48 47/47/47
f 50/50/50 51/51/51 49/49/49
f 50/50/50 52/52/52 51/51/51
f 54/54/54 55/55/55 53/53/53
f 54/54/54 56/56/56 55/55/55
f 58/58/58 59/59/59 57/57/57
f 58/58/58 60/60/60 59/59/59
f 62/62/62 63/63/63 61/61/61
f 62/62/62 64/64/64 63/63/63
f 66/66/66 67/67/67 65/65/65
f 66/66/66 68/68/68 67/67/67
f 70/70/70 71/71/71 69/69/69
f 70/70/70 72/72/72 71/71/71
f 74/74/74 75/75/75 73/73/73
f 74/74/74 76/76/76 75/75/75
f 78/78/78 79/79/79 77/77/77
f 78/78/78 80/80/80 79/79/79
f 82/82/82 83/83/83 81/81/81
f 82/82/82 84/84/84 83/83/83
f 86/86/86 87/87/87 85/85/85
f 86/86/86 88/88/88 87/87/87
f 90/90/90 91/91/91 89/89/89
f 90/90/90 92/92/92 91/91/91
f 94/94/94 95/95/95 93/93/93
f 94/94/94 96/96/96 95/95/95
f 98/98/98 99/99/99 97/97/97
f 98/98/98 100/100/100 99/99/99
f 102/102/102 103/103/103 101/101/101
f 102/102/102 104/104/104 103/103/103
f 106/106/106 107/107/107 105/105/105
f 106/106/106 108/108/108 107/107/107
f 110/110/110 111/111/111 109/109/109
f 110/110/110 112/112/112 111/111/111
f 114/114/114 115/115/115 113/113/113
f 114/114/114 116/116/116 115/115/115
f 118/118/118 119/119/119 117/117/117
f 118/118/118 120/120/120 119/119/119
f 122/122/122 123/123/123 121/121/121
f 122/122/122 124/124/124 123/123/123
f 126/126/126 127/127/127 125/125/125
f 126/126/126 128/128/128 127/127/127
f 130/130/130 131/131/131 129/129/129
f 130/130/130 132/132/132 131/131/131
f 134/134/134 135/135/135 133/133/133
f 134/134/134 136/136/136 135/135/135
f 138/138/138 139/139/139 137/137/137
f 138/138/138 140/140/140 139/139/139
f 142/142/142 143/143/143 141/141/141
f 142/142/142 144/144/144 143/143/143
f 146/146/146 147/147/147 145/145/145
f 146/146/146 148/148/148 147/147/147
f 150/150/150 151/151/151 149/149/149
f 150/150/150 152/152/152 151/151/151
f 154/154/154 155/155/155 153/153/153
f 154/154/154 156/156/156 155/155/155
f 158/158/158 159/159/159 157/157/157
f 158/158/158 160/160/160 159/159/159
f 162/162/162 163/163/163 161/161/161
f 162/162/162 164/164/164 163/163/163
f 166/166/166 167/167/167 165/165/165
f 166/166/166 168/168/168 167/167/167
f 170/170/170 171/171/171 169/169/169
f 170/170/170 172/172/172 171/171/171
f 174/174/174 175/175/175 173/173/173
f 174/174/174 176/176/176 175/175/175
f 178/178/178 179/179/179 177/177/177
f 178/178/178 180/180/180 179/179/179
f 182/182/182 183/183/183 181/181/181
f 182/182/182 184/184/184 183/183/183
f 186/186/186 187/187/187 185/185/185
f 186/186/186 188/188/188 187/187/187
f 190/190/190 191/191/191 189/189/189
f 190/190/190 192/192/192 191/191/191
f 194/194/194 195/195/195 193/193/193
f 194/194/194 196/196/196 195/195/195
f 198/198/198 199/199/199 197/197/197
f 198/198/198 200/200/200 199/199/199
f 202/202/202 203/203/203 201/201/201
f 202/202/202 204/204/204 203/203/203
f 206/206/206 207/207/207 205/205/205
f 206/206/206 208/208/208 207/207/207
f 210/210/210 211/211/211 209/209/209
f 210/210/210 212/212/212 211/211/211
f 214/214/214 215/215/215 213/213/213
f 214/214/214 216/216/216 215/215/215
f 218/218/218 219/219/219 217/217/217
f 218/218/218 220/220/220 219/219/219
f 222/222/222 223/223/223 221/221/221
f 222/222/222 224/224/224 223/223/223
f 226/226/226 227/227/227 225/225/225
f 226/226/226 228/228/228 227/227/227
