g Grass_0_Cluster86
v 119.97 0.03665924 112.9437
v 119.0539 0.03665924 112.9437
v 119.97 0.03665924 114.0888
v 119.0539 0.03665924 114.0888
v 90.65542 0.03665924 112.7147
v 89.73933 0.03665924 112.7147
v 90.65542 0.03665924 113.8598
v 89.73933 0.03665924 113.8598
v 97.29701 0.03665924 112.4857
v 96.60995 0.03665924 112.4857
v 97.29701 0.03665924 113.6308
v 96.60995 0.03665924 113.6308
v 116.9928 0.03665924 112.4857
v 116.0767 0.03665924 112.4857
v 116.9928 0.03665924 113.8598
v 116.0767 0.03665924 113.8598
v 117.6798 0.03665924 112.2567
v 116.7637 0.03665924 112.2567
v 117.6798 0.03665924 113.6308
v 116.7637 0.03665924 113.6308
v 93.17464 0.03665924 112.4857
v 92.25856 0.03665924 112.4857
v 93.17464 0.03665924 113.6308
v 92.25856 0.03665924 113.6308
v 101.1904 0.03665924 112.0276
v 100.5033 0.03665924 112.0276
v 101.1904 0.03665924 113.4018
v 100.5033 0.03665924 113.4018
v 92.48758 0.03665924 112.0276
v 91.5715 0.03665924 112.0276
v 92.48758 0.03665924 113.1727
v 91.5715 0.03665924 113.1727
v 116.5347 0.03665924 112.0276
v 115.6186 0.03665924 112.0276
v 116.5347 0.03665924 113.1727
v 115.6186 0.03665924 113.1727
v 96.38093 0.03665924 111.7986
v 95.69386 0.03665924 111.7986
v 96.38093 0.03665924 112.9437
v 95.69386 0.03665924 112.9437
v 120.1991 0.03665924 111.5696
v 119.283 0.03665924 111.5696
v 120.1991 0.03665924 112.9437
v 119.283 0.03665924 112.9437
v 119.512 0.03665924 111.1116
v 118.8249 0.03665924 111.1116
v 119.512 0.03665924 112.4857
v 118.8249 0.03665924 112.4857
v 93.40366 0.03665924 110.8825
v 92.48758 0.03665924 110.8825
v 93.40366 0.03665924 112.2567
v 92.48758 0.03665924 112.2567
v 97.75505 0.03665924 110.8825
v 96.83897 0.03665924 110.8825
v 97.75505 0.03665924 112.0276
v 96.83897 0.03665924 112.0276
v 116.5347 0.03665924 110.8825
v 115.6186 0.03665924 110.8825
v 116.5347 0.03665924 112.2567
v 115.6186 0.03665924 112.2567
v 90.88444 0.03665924 110.6535
v 89.96835 0.03665924 110.6535
v 90.88444 0.03665924 112.0276
v 89.96835 0.03665924 112.0276
v 104.8547 0.03665924 109.5084
v 103.9386 0.03665924 109.5084
v 104.8547 0.03665924 110.6535
v 103.9386 0.03665924 110.6535
v 118.8249 0.03665924 109.0504
v 117.9088 0.03665924 109.0504
v 118.8249 0.03665924 110.4245
v 117.9088 0.03665924 110.4245
v 105.7708 0.03665924 108.8214
v 104.8547 0.03665924 108.8214
v 105.7708 0.03665924 110.1955
v 104.8547 0.03665924 110.1955
v 110.5802 0.03665924 98.97348
v 109.6641 0.03665924 98.97348
v 110.5802 0.03665924 100.3476
v 109.6641 0.03665924 100.3476
v 113.5575 0.03665924 98.28642
v 112.6414 0.03665924 98.28642
v 113.5575 0.03665924 99.66054
v 112.6414 0.03665924 99.66054
v 93.17464 0.03665924 98.28642
v 92.48758 0.03665924 98.28642
v 93.17464 0.03665924 99.43152
v 92.48758 0.03665924 99.43152
v 115.6186 0.03665924 98.0574
v 114.4735 0.03665924 98.0574
v 115.6186 0.03665924 99.2025
v 114.4735 0.03665924 99.2025
v 108.061 0.03665924 97.82837
v 107.1449 0.03665924 97.82837
v 108.061 0.03665924 98.97348
v 107.1449 0.03665924 98.97348
v 111.7253 0.03665924 96.91229
v 110.8092 0.03665924 96.91229
v 111.7253 0.03665924 98.28642
v 110.8092 0.03665924 98.28642
v 116.5347 0.03665924 96.91229
v 115.8477 0.03665924 96.91229
v 116.5347 0.03665924 98.0574
v 115.8477 0.03665924 98.0574
v 94.54877 0.03665924 96.68327
v 93.63268 0.03665924 96.68327
v 94.54877 0.03665924 97.82837
v 93.63268 0.03665924 97.82837
v 113.0994 0.03665924 96.22523
v 111.9543 0.03665924 96.22523
v 113.0994 0.03665924 97.59935
v 111.9543 0.03665924 97.59935
v 93.8617 0.03665924 95.7672
v 92.94563 0.03665924 95.7672
v 93.8617 0.03665924 97.14131
v 92.94563 0.03665924 97.14131
v 96.38093 0.03665924 95.53818
v 95.46484 0.03665924 95.53818
v 96.38093 0.03665924 96.91229
v 95.46484 0.03665924 96.91229
v 97.98407 0.03665924 95.08012
v 97.06799 0.03665924 95.08012
v 97.98407 0.03665924 96.22523
v 97.06799 0.03665924 96.22523
v 99.12917 0.03665924 95.08012
v 98.21309 0.03665924 95.08012
v 99.12917 0.03665924 96.45425
v 98.21309 0.03665924 96.45425
v 111.7253 0.03665924 95.08012
v 110.8092 0.03665924 95.08012
v 111.7253 0.03665924 96.22523
v 110.8092 0.03665924 96.22523
v 93.63268 0.03665924 94.8511
v 92.7166 0.03665924 94.8511
v 93.63268 0.03665924 96.22523
v 92.7166 0.03665924 96.22523
v 97.75505 0.03665924 94.8511
v 96.83897 0.03665924 94.8511
v 97.75505 0.03665924 95.99622
v 96.83897 0.03665924 95.99622
v 94.77779 0.03665924 94.62209
v 93.8617 0.03665924 94.62209
v 94.77779 0.03665924 95.99622
v 93.8617 0.03665924 95.99622
v 109.8931 0.03665924 94.39307
v 109.2061 0.03665924 94.39307
v 109.8931 0.03665924 95.7672
v 109.2061 0.03665924 95.7672
v 95.69386 0.03665924 94.16405
v 94.77779 0.03665924 94.16405
v 95.69386 0.03665924 95.53818
v 94.77779 0.03665924 95.53818
v 94.09073 0.03665924 94.39307
v 93.17464 0.03665924 94.39307
v 94.09073 0.03665924 95.53818
v 93.17464 0.03665924 95.53818
v 96.60995 0.03665924 94.16405
v 95.92289 0.03665924 94.16405
v 96.60995 0.03665924 95.30916
v 95.92289 0.03665924 95.30916
v 118.5959 0.03665924 93.93503
v 117.9088 0.03665924 93.93503
v 118.5959 0.03665924 95.30916
v 117.9088 0.03665924 95.30916
v 109.8931 0.03665924 93.93503
v 109.2061 0.03665924 93.93503
v 109.8931 0.03665924 95.08012
v 109.2061 0.03665924 95.08012
v 96.38093 0.03665924 93.70601
v 95.46484 0.03665924 93.70601
v 96.38093 0.03665924 95.08012
v 95.46484 0.03665924 95.08012
v 99.81624 0.03665924 93.01895
v 98.90015 0.03665924 93.01895
v 99.81624 0.03665924 94.39307
v 98.90015 0.03665924 94.39307
v 97.06799 0.03665924 92.78993
v 96.15191 0.03665924 92.78993
v 97.06799 0.03665924 93.93503
v 96.15191 0.03665924 93.93503
v 93.63268 0.03665924 92.78993
v 92.94563 0.03665924 92.78993
v 93.63268 0.03665924 93.93503
v 92.94563 0.03665924 93.93503
v 94.31975 0.03665924 92.56091
v 93.40366 0.03665924 92.56091
v 94.31975 0.03665924 93.70601
v 93.40366 0.03665924 93.70601
v 96.15191 0.03665924 92.33188
v 95.23582 0.03665924 92.33188
v 96.15191 0.03665924 93.47699
v 95.23582 0.03665924 93.47699
v 97.52603 0.03665924 92.10286
v 96.83897 0.03665924 92.10286
v 97.52603 0.03665924 93.24797
v 96.83897 0.03665924 93.24797
v 100.2743 0.03665924 92.10286
v 99.35819 0.03665924 92.10286
v 100.2743 0.03665924 93.47699
v 99.35819 0.03665924 93.47699
v 92.7166 0.03665924 91.87384
v 92.02954 0.03665924 91.87384
v 92.7166 0.03665924 93.01895
v 92.02954 0.03665924 93.01895
v 115.8477 0.03665924 91.18678
v 114.9316 0.03665924 91.18678
v 115.8477 0.03665924 92.33188
v 114.9316 0.03665924 92.33188
v 118.5959 0.03665924 90.04169
v 117.6798 0.03665924 90.04169
v 118.5959 0.03665924 91.4158
v 117.6798 0.03665924 91.4158
v 107.8319 0.03665924 87.52246
v 106.9159 0.03665924 87.52246
v 107.8319 0.03665924 88.89658
v 106.9159 0.03665924 88.89658
vt 0 0.9058824
vt 0.06666667 0.9058824
vt 0 1
vt 0.06666667 1
vt 0 0.9058824
vt 0.06666667 0.9058824
vt 0 1
vt 0.06666667 1
vt 0 0.9058824
vt 0.06666667 0.9058824
vt 0 1
vt 0.06666667 1
vt 0 0.9058824
vt 0.06666667 0.9058824
vt 0 1
vt 0.06666667 1
vt 0 0.9058824
vt 0.06666667 0.9058824
vt 0 1
vt 0.06666667 1
vt 0 0.9058824
vt 0.06666667 0.9058824
vt 0 1
vt 0.06666667 1
vt 0 0.9058824
vt 0.06666667 0.9058824
vt 0 1
vt 0.06666667 1
vt 0 0.9058824
vt 0.06666667 0.9058824
vt 0 1
vt 0.06666667 1
vt 0 0.9058824
vt 0.06666667 0.9058824
vt 0 1
vt 0.06666667 1
vt 0 0.9058824
vt 0.06666667 0.9058824
vt 0 1
vt 0.06666667 1
vt 0 0.9058824
vt 0.06666667 0.9058824
vt 0 1
vt 0.06666667 1
vt 0 0.9058824
vt 0.06666667 0.9058824
vt 0 1
vt 0.06666667 1
vt 0 0.9058824
vt 0.06666667 0.9058824
vt 0 1
vt 0.06666667 1
vt 0 0.9058824
vt 0.06666667 0.9058824
vt 0 1
vt 0.06666667 1
vt 0 0.9058824
vt 0.06666667 0.9058824
vt 0 1
vt 0.06666667 1
vt 0 0.9058824
vt 0.06666667 0.9058824
vt 0 1
vt 0.06666667 1
vt 0 0.9058824
vt 0.06666667 0.9058824
vt 0 1
vt 0.06666667 1
vt 0 0.9058824
vt 0.06666667 0.9058824
vt 0 1
vt 0.06666667 1
vt 0 0.9058824
vt 0.06666667 0.9058824
vt 0 1
vt 0.06666667 1
vt 0 0.9058824
vt 0.06666667 0.9058824
vt 0 1
vt 0.06666667 1
vt 0 0.9058824
vt 0.06666667 0.9058824
vt 0 1
vt 0.06666667 1
vt 0 0.9058824
vt 0.06666667 0.9058824
vt 0 1
vt 0.06666667 1
vt 0 0.9058824
vt 0.06666667 0.9058824
vt 0 1
vt 0.06666667 1
vt 0 0.9058824
vt 0.06666667 0.9058824
vt 0 1
vt 0.06666667 1
vt 0 0.9058824
vt 0.06666667 0.9058824
vt 0 1
vt 0.06666667 1
vt 0 0.9058824
vt 0.06666667 0.9058824
vt 0 1
vt 0.06666667 1
vt 0 0.9058824
vt 0.06666667 0.9058824
vt 0 1
vt 0.06666667 1
vt 0 0.9058824
vt 0.06666667 0.9058824
vt 0 1
vt 0.06666667 1
vt 0 0.9058824
vt 0.06666667 0.9058824
vt 0 1
vt 0.06666667 1
vt 0 0.9058824
vt 0.06666667 0.9058824
vt 0 1
vt 0.06666667 1
vt 0 0.9058824
vt 0.06666667 0.9058824
vt 0 1
vt 0.06666667 1
vt 0 0.9058824
vt 0.06666667 0.9058824
vt 0 1
vt 0.06666667 1
vt 0 0.9058824
vt 0.06666667 0.9058824
vt 0 1
vt 0.06666667 1
vt 0 0.9058824
vt 0.06666667 0.9058824
vt 0 1
vt 0.06666667 1
vt 0 0.9058824
vt 0.06666667 0.9058824
vt 0 1
vt 0.06666667 1
vt 0 0.9058824
vt 0.06666667 0.9058824
vt 0 1
vt 0.06666667 1
vt 0 0.9058824
vt 0.06666667 0.9058824
vt 0 1
vt 0.06666667 1
vt 0 0.9058824
vt 0.06666667 0.9058824
vt 0 1
vt 0.06666667 1
vt 0 0.9058824
vt 0.06666667 0.9058824
vt 0 1
vt 0.06666667 1
vt 0 0.9058824
vt 0.06666667 0.9058824
vt 0 1
vt 0.06666667 1
vt 0 0.9058824
vt 0.06666667 0.9058824
vt 0 1
vt 0.06666667 1
vt 0 0.9058824
vt 0.06666667 0.9058824
vt 0 1
vt 0.06666667 1
vt 0 0.9058824
vt 0.06666667 0.9058824
vt 0 1
vt 0.06666667 1
vt 0 0.9058824
vt 0.06666667 0.9058824
vt 0 1
vt 0.06666667 1
vt 0 0.9058824
vt 0.06666667 0.9058824
vt 0 1
vt 0.06666667 1
vt 0 0.9058824
vt 0.06666667 0.9058824
vt 0 1
vt 0.06666667 1
vt 0 0.9058824
vt 0.06666667 0.9058824
vt 0 1
vt 0.06666667 1
vt 0 0.9058824
vt 0.06666667 0.9058824
vt 0 1
vt 0.06666667 1
vt 0 0.9058824
vt 0.06666667 0.9058824
vt 0 1
vt 0.06666667 1
vt 0 0.9058824
vt 0.06666667 0.9058824
vt 0 1
vt 0.06666667 1
vt 0 0.9058824
vt 0.06666667 0.9058824
vt 0 1
vt 0.06666667 1
vt 0 0.9058824
vt 0.06666667 0.9058824
vt 0 1
vt 0.06666667 1
vt 0 0.9058824
vt 0.06666667 0.9058824
vt 0 1
vt 0.06666667 1
vt 0 0.9058824
vt 0.06666667 0.9058824
vt 0 1
vt 0.06666667 1
vn 0 1 0
vn 0 1 0
vn 0 1 0
vn 0 1 0
vn 0 1 0
vn 0 1 0
vn 0 1 0
vn 0 1 0
vn 0 1 0
vn 0 1 0
vn 0 1 0
vn 0 1 0
vn 0 1 0
vn 0 1 0
vn 0 1 0
vn 0 1 0
vn 0 1 0
vn 0 1 0
vn 0 1 0
vn 0 1 0
vn 0 1 0
vn 0 1 0
vn 0 1 0
vn 0 1 0
vn 0 1 0
vn 0 1 0
vn 0 1 0
vn 0 1 0
vn 0 1 0
vn 0 1 0
vn 0 1 0
vn 0 1 0
vn 0 1 0
vn 0 1 0
vn 0 1 0
vn 0 1 0
vn 0 1 0
vn 0 1 0
vn 0 1 0
vn 0 1 0
vn 0 1 0
vn 0 1 0
vn 0 1 0
vn 0 1 0
vn 0 1 0
vn 0 1 0
vn 0 1 0
vn 0 1 0
vn 0 1 0
vn 0 1 0
vn 0 1 0
vn 0 1 0
vn 0 1 0
vn 0 1 0
vn 0 1 0
vn 0 1 0
vn 0 1 0
vn 0 1 0
vn 0 1 0
vn 0 1 0
vn 0 1 0
vn 0 1 0
vn 0 1 0
vn 0 1 0
vn 0 1 0
vn 0 1 0
vn 0 1 0
vn 0 1 0
vn 0 1 0
vn 0 1 0
vn 0 1 0
vn 0 1 0
vn 0 1 0
vn 0 1 0
vn 0 1 0
vn 0 1 0
vn 0 1 0
vn 0 1 0
vn 0 1 0
vn 0 1 0
vn 0 1 0
vn 0 1 0
vn 0 1 0
vn 0 1 0
vn 0 1 0
vn 0 1 0
vn 0 1 0
vn 0 1 0
vn 0 1 0
vn 0 1 0
vn 0 1 0
vn 0 1 0
vn 0 1 0
vn 0 1 0
vn 0 1 0
vn 0 1 0
vn 0 1 0
vn 0 1 0
vn 0 1 0
vn 0 1 0
vn 0 1 0
vn 0 1 0
vn 0 1 0
vn 0 1 0
vn 0 1 0
vn 0 1 0
vn 0 1 0
vn 0 1 0
vn 0 1 0
vn 0 1 0
vn 0 1 0
vn 0 1 0
vn 0 1 0
vn 0 1 0
vn 0 1 0
vn 0 1 0
vn 0 1 0
vn 0 1 0
vn 0 1 0
vn 0 1 0
vn 0 1 0
vn 0 1 0
vn 0 1 0
vn 0 1 0
vn 0 1 0
vn 0 1 0
vn 0 1 0
vn 0 1 0
vn 0 1 0
vn 0 1 0
vn 0 1 0
vn 0 1 0
vn 0 1 0
vn 0 1 0
vn 0 1 0
vn 0 1 0
vn 0 1 0
vn 0 1 0
vn 0 1 0
vn 0 1 0
vn 0 1 0
vn 0 1 0
vn 0 1 0
vn 0 1 0
vn 0 1 0
vn 0 1 0
vn 0 1 0
vn 0 1 0
vn 0 1 0
vn 0 1 0
vn 0 1 0
vn 0 1 0
vn 0 1 0
vn 0 1 0
vn 0 1 0
vn 0 1 0
vn 0 1 0
vn 0 1 0
vn 0 1 0
vn 0 1 0
vn 0 1 0
vn 0 1 0
vn 0 1 0
vn 0 1 0
vn 0 1 0
vn 0 1 0
vn 0 1 0
vn 0 1 0
vn 0 1 0
vn 0 1 0
vn 0 1 0
vn 0 1 0
vn 0 1 0
vn 0 1 0
vn 0 1 0
vn 0 1 0
vn 0 1 0
vn 0 1 0
vn 0 1 0
vn 0 1 0
vn 0 1 0
vn 0 1 0
vn 0 1 0
vn 0 1 0
vn 0 1 0
vn 0 1 0
vn 0 1 0
vn 0 1 0
vn 0 1 0
vn 0 1 0
vn 0 1 0
vn 0 1 0
vn 0 1 0
vn 0 1 0
vn 0 1 0
vn 0 1 0
vn 0 1 0
vn 0 1 0
vn 0 1 0
vn 0 1 0
vn 0 1 0
vn 0 1 0
vn 0 1 0
vn 0 1 0
vn 0 1 0
vn 0 1 0
vn 0 1 0
vn 0 1 0
vn 0 1 0
vn 0 1 0
vn 0 1 0
vn 0 1 0
vn 0 1 0
vn 0 1 0
vn 0 1 0
vn 0 1 0
g Grass_0_Cluster86_0
f 2/2/2 3/3/3 1/1/1
f 2/2/2 4/4/4 3/3/3
f 6/6/6 7/7/7 5/5/5
f 6/6/6 8/8/8 7/7/7
f 10/10/10 11/11/11 9/9/9
f 10/10/10 12/12/12 11/11/11
f 14/14/14 15/15/15 13/13/13
f 14/14/14 16/16/16 15/15/15
f 18/18/18 19/19/19 17/17/17
f 18/18/18 20/20/20 19/19/19
f 22/22/22 23/23/23 21/21/21
f 22/22/22 24/24/24 23/23/23
f 26/26/26 27/27/27 25/25/25
f 26/26/26 28/28/28 27/27/27
f 30/30/30 31/31/31 29/29/29
f 30/30/30 32/32/32 31/31/31
f 34/34/34 35/35/35 33/33/33
f 34/34/34 36/36/36 35/35/35
f 38/38/38 39/39/39 37/37/37
f 38/38/38 40/40/40 39/39/39
f 42/42/42 43/43/43 41/41/41
f 42/42/42 44/44/44 43/43/43
f 46/46/46 47/47/47 45/45/45
f 46/46/46 48/48/48 47/47/47
f 50/50/50 51/51/51 49/49/49
f 50/50/50 52/52/52 51/51/51
f 54/54/54 55/55/55 53/53/53
f 54/54/54 56/56/56 55/55/55
f 58/58/58 59/59/59 57/57/57
f 58/58/58 60/60/60 59/59/59
f 62/62/62 63/63/63 61/61/61
f 62/62/62 64/64/64 63/63/63
f 66/66/66 67/67/67 65/65/65
f 66/66/66 68/68/68 67/67/67
f 70/70/70 71/71/71 69/69/69
f 70/70/70 72/72/72 71/71/71
f 74/74/74 75/75/75 73/73/73
f 74/74/74 76/76/76 75/75/75
f 78/78/78 79/79/79 77/77/77
f 78/78/78 80/80/80 79/79/79
f 82/82/82 83/83/83 81/81/81
f 82/82/82 84/84/84 83/83/83
f 86/86/86 87/87/87 85/85/85
f 86/86/86 88/88/88 87/87/87
f 90/90/90 91/91/91 89/89/89
f 90/90/90 92/92/92 91/91/91
f 94/94/94 95/95/95 93/93/93
f 94/94/94 96/96/96 95/95/95
f 98/98/98 99/99/99 97/97/97
f 98/98/98 100/100/100 99/99/99
f 102/102/102 103/103/103 101/101/101
f 102/102/102 104/104/104 103/103/103
f 106/106/106 107/107/107 105/105/105
f 106/106/106 108/108/108 107/107/107
f 110/110/110 111/111/111 109/109/109
f 110/110/110 112/112/112 111/111/111
f 114/114/114 115/115/115 113/113/113
f 114/114/114 116/116/116 115/115/115
f 118/118/118 119/119/119 117/117/117
f 118/118/118 120/120/120 119/119/119
f 122/122/122 123/123/123 121/121/121
f 122/122/122 124/124/124 123/123/123
f 126/126/126 127/127/127 125/125/125
f 126/126/126 128/128/128 127/127/127
f 130/130/130 131/131/131 129/129/129
f 130/130/130 132/132/132 131/131/131
f 134/134/134 135/135/135 133/133/133
f 134/134/134 136/136/136 135/135/135
f 138/138/138 139/139/139 137/137/137
f 138/138/138 140/140/140 139/139/139
f 142/142/142 143/143/143 141/141/141
f 142/142/142 144/144/144 143/143/143
f 146/146/146 147/147/147 145/145/145
f 146/146/146 148/148/148 147/147/147
f 150/150/150 151/151/151 149/149/149
f 150/150/150 152/152/152 151/151/151
f 154/154/154 155/155/155 153/153/153
f 154/154/154 156/156/156 155/155/155
f 158/158/158 159/159/159 157/157/157
f 158/158/158 160/160/160 159/159/159
f 162/162/162 163/163/163 161/161/161
f 162/162/162 164/164/164 163/163/163
f 166/166/166 167/167/167 165/165/165
f 166/166/166 168/168/168 167/167/167
f 170/170/170 171/171/171 169/169/169
f 170/170/170 172/172/172 171/171/171
f 174/174/174 175/175/175 173/173/173
f 174/174/174 176/176/176 175/175/175
f 178/178/178 179/179/179 177/177/177
f 178/178/178 180/180/180 179/179/179
f 182/182/182 183/183/183 181/181/181
f 182/182/182 184/184/184 183/183/183
f 186/186/186 187/187/187 185/185/185
f 186/186/186 188/188/188 187/187/187
f 190/190/190 191/191/191 189/189/189
f 190/190/190 192/192/192 191/191/191
f 194/194/194 195/195/195 193/193/193
f 194/194/194 196/196/196 195/195/195
f 198/198/198 199/199/199 197/197/197
f 198/198/198 200/200/200 199/199/199
f 202/202/202 203/203/203 201/201/201
f 202/202/202 204/204/204 203/203/203
f 206/206/206 207/207/207 205/205/205
f 206/206/206 208/208/208 207/207/207
f 210/210/210 211/211/211 209/209/209
f 210/210/210 212/212/212 211/211/211
f 214/214/214 215/215/215 213/213/213
f 214/214/214 216/216/216 215/215/215
