g Grass_2_Cluster118
v -252.315 0 140.5566
v -253.3718 0 140.5566
v -252.315 0 141.8776
v -253.3718 0 141.8776
v -240.69 0 129.46
v -241.7468 0 129.46
v -240.69 0 130.5168
v -241.7468 0 130.5168
v -267.6388 0 114.9288
v -268.4314 0 114.9288
v -267.6388 0 115.9856
v -268.4314 0 115.9856
v -248.0877 0 113.872
v -248.8803 0 113.872
v -248.0877 0 114.9288
v -248.8803 0 114.9288
v -269.224 0 113.6078
v -270.2809 0 113.6078
v -269.224 0 114.6646
v -270.2809 0 114.6646
vt 0.1347656 0.9185662
vt 0.2060202 0.9185662
vt 0.1347656 1
vt 0.2060202 1
vt 0.1347656 0.9185662
vt 0.2060202 0.9185662
vt 0.1347656 1
vt 0.2060202 1
vt 0.1347656 0.9185662
vt 0.2060202 0.9185662
vt 0.1347656 1
vt 0.2060202 1
vt 0.1347656 0.9185662
vt 0.2060202 0.9185662
vt 0.1347656 1
vt 0.2060202 1
vt 0.1347656 0.9185662
vt 0.2060202 0.9185662
vt 0.1347656 1
vt 0.2060202 1
vn 0 1 0
vn 0 1 0
vn 0 1 0
vn 0 1 0
vn 0 1 0
vn 0 1 0
vn 0 1 0
vn 0 1 0
vn 0 1 0
vn 0 1 0
vn 0 1 0
vn 0 1 0
vn 0 1 0
vn 0 1 0
vn 0 1 0
vn 0 1 0
vn 0 1 0
vn 0 1 0
vn 0 1 0
vn 0 1 0
g Grass_2_Cluster118_0
f 2/2/2 3/3/3 1/1/1
f 2/2/2 4/4/4 3/3/3
f 6/6/6 7/7/7 5/5/5
f 6/6/6 8/8/8 7/7/7
f 10/10/10 11/11/11 9/9/9
f 10/10/10 12/12/12 11/11/11
f 14/14/14 15/15/15 13/13/13
f 14/14/14 16/16/16 15/15/15
f 18/18/18 19/19/19 17/17/17
f 18/18/18 20/20/20 19/19/19
