g Grass_0_Cluster34
v -120.0774 0 17.83328
v -121.0285 0 17.83328
v -120.0774 0 19.14105
v -121.0285 0 19.14105
v -120.7907 0 17.47661
v -121.623 0 17.47661
v -120.7907 0 18.6655
v -121.623 0 18.6655
v -120.553 0 17.35773
v -121.5041 0 17.35773
v -120.553 0 18.54661
v -121.5041 0 18.54661
vt 0 0.9058824
vt 0.06666667 0.9058824
vt 0 1
vt 0.06666667 1
vt 0 0.9058824
vt 0.06666667 0.9058824
vt 0 1
vt 0.06666667 1
vt 0 0.9058824
vt 0.06666667 0.9058824
vt 0 1
vt 0.06666667 1
vn 0 1 0
vn 0 1 0
vn 0 1 0
vn 0 1 0
vn 0 1 0
vn 0 1 0
vn 0 1 0
vn 0 1 0
vn 0 1 0
vn 0 1 0
vn 0 1 0
vn 0 1 0
g Grass_0_Cluster34_0
f 2/2/2 3/3/3 1/1/1
f 2/2/2 4/4/4 3/3/3
f 6/6/6 7/7/7 5/5/5
f 6/6/6 8/8/8 7/7/7
f 10/10/10 11/11/11 9/9/9
f 10/10/10 12/12/12 11/11/11
