g Grass_0_Cluster252
v -65.75471 0 352.999
v -66.44687 0 352.999
v -65.75471 0 354.0372
v -66.44687 0 354.0372
v -80.63605 0 352.6529
v -81.3282 0 352.6529
v -80.63605 0 353.6912
v -81.3282 0 353.6912
v -69.21549 0 352.6529
v -69.90765 0 352.6529
v -69.21549 0 353.6912
v -69.90765 0 353.6912
v -65.75471 0 352.3069
v -66.79295 0 352.3069
v -65.75471 0 353.6912
v -66.79295 0 353.6912
v -62.29394 0 351.9608
v -62.9861 0 351.9608
v -62.29394 0 353.3451
v -62.9861 0 353.3451
v -74.06058 0 351.9608
v -75.09881 0 351.9608
v -74.06058 0 353.3451
v -75.09881 0 353.3451
v -69.56157 0 351.9608
v -70.25372 0 351.9608
v -69.56157 0 352.999
v -70.25372 0 352.999
v -77.52135 0 351.9608
v -78.55958 0 351.9608
v -77.52135 0 352.999
v -78.55958 0 352.999
v -72.33018 0 351.9608
v -73.36842 0 351.9608
v -72.33018 0 352.999
v -73.36842 0 352.999
v -67.4851 0 351.2686
v -68.52334 0 351.2686
v -67.4851 0 352.6529
v -68.52334 0 352.6529
v -75.79096 0 348.8461
v -76.48312 0 348.8461
v -75.79096 0 349.8843
v -76.48312 0 349.8843
v -78.90565 0 347.4618
v -79.59782 0 347.4618
v -78.90565 0 348.8461
v -79.59782 0 348.8461
v -79.25174 0 346.7696
v -79.94389 0 346.7696
v -79.25174 0 347.8078
v -79.94389 0 347.8078
v -70.94588 0 341.2324
v -71.63803 0 341.2324
v -70.94588 0 342.2706
v -71.63803 0 342.2706
v -72.67626 0 339.502
v -73.36842 0 339.502
v -72.67626 0 340.8863
v -73.36842 0 340.8863
v -61.94786 0 336.7334
v -62.9861 0 336.7334
v -61.94786 0 338.1177
v -62.9861 0 338.1177
v -79.25174 0 336.0412
v -80.28997 0 336.0412
v -79.25174 0 337.4255
v -80.28997 0 337.4255
v -83.05859 0 335.3491
v -83.75074 0 335.3491
v -83.05859 0 336.7334
v -83.75074 0 336.7334
v -80.98212 0 335.003
v -82.02036 0 335.003
v -80.98212 0 336.0412
v -82.02036 0 336.0412
v -59.8714 0 334.6569
v -60.90963 0 334.6569
v -59.8714 0 336.0412
v -60.90963 0 336.0412
v -84.4429 0 334.6569
v -85.13506 0 334.6569
v -84.4429 0 336.0412
v -85.13506 0 336.0412
v -82.36643 0 334.6569
v -83.40466 0 334.6569
v -82.36643 0 335.6951
v -83.40466 0 335.6951
v -62.64002 0 334.6569
v -63.33217 0 334.6569
v -62.64002 0 335.6951
v -63.33217 0 335.6951
v -81.3282 0 334.6569
v -82.02036 0 334.6569
v -81.3282 0 335.6951
v -82.02036 0 335.6951
v -71.29195 0 334.3108
v -71.98411 0 334.3108
v -71.29195 0 335.3491
v -71.98411 0 335.3491
v -62.9861 0 333.9648
v -63.67825 0 333.9648
v -62.9861 0 335.003
v -63.67825 0 335.003
v -82.71251 0 333.9648
v -83.40466 0 333.9648
v -82.71251 0 335.3491
v -83.40466 0 335.3491
v -84.09682 0 333.9648
v -84.78898 0 333.9648
v -84.09682 0 335.003
v -84.78898 0 335.003
v -83.40466 0 333.9648
v -84.4429 0 333.9648
v -83.40466 0 335.003
v -84.4429 0 335.003
v -60.90963 0 333.6187
v -61.94786 0 333.6187
v -60.90963 0 335.003
v -61.94786 0 335.003
v -79.59782 0 333.6187
v -80.28997 0 333.6187
v -79.59782 0 334.6569
v -80.28997 0 334.6569
v -61.94786 0 332.9265
v -62.64002 0 332.9265
v -61.94786 0 333.9648
v -62.64002 0 333.9648
v -80.63605 0 332.5804
v -81.67428 0 332.5804
v -80.63605 0 333.9648
v -81.67428 0 333.9648
v -66.79295 0 331.8883
v -67.83118 0 331.8883
v -66.79295 0 333.2726
v -67.83118 0 333.2726
v -84.78898 0 331.8883
v -85.48113 0 331.8883
v -84.78898 0 332.9265
v -85.48113 0 332.9265
v -72.33018 0 328.7736
v -73.02234 0 328.7736
v -72.33018 0 329.8118
v -73.02234 0 329.8118
v -69.21549 0 328.4275
v -69.90765 0 328.4275
v -69.21549 0 329.4657
v -69.90765 0 329.4657
v -89.28798 0 328.0814
v -89.98014 0 328.0814
v -89.28798 0 329.4657
v -89.98014 0 329.4657
v -66.44687 0 327.7354
v -67.4851 0 327.7354
v -66.44687 0 329.1197
v -67.4851 0 329.1197
v -71.29195 0 326.0049
v -71.98411 0 326.0049
v -71.29195 0 327.0432
v -71.98411 0 327.0432
v -73.7145 0 325.6589
v -74.40665 0 325.6589
v -73.7145 0 326.6971
v -74.40665 0 326.6971
v -76.82919 0 325.6589
v -77.86742 0 325.6589
v -76.82919 0 327.0432
v -77.86742 0 327.0432
v -72.67626 0 325.6589
v -73.36842 0 325.6589
v -72.67626 0 326.6971
v -73.36842 0 326.6971
v -69.56157 0 325.6589
v -70.5998 0 325.6589
v -69.56157 0 326.6971
v -70.5998 0 326.6971
v -70.5998 0 324.9667
v -71.63803 0 324.9667
v -70.5998 0 326.351
v -71.63803 0 326.351
v -72.67626 0 324.9667
v -73.7145 0 324.9667
v -72.67626 0 326.0049
v -73.7145 0 326.0049
v -70.25372 0 324.2746
v -71.29195 0 324.2746
v -70.25372 0 325.6589
v -71.29195 0 325.6589
v -87.90367 0 323.9285
v -88.9419 0 323.9285
v -87.90367 0 324.9667
v -88.9419 0 324.9667
v -73.36842 0 323.2363
v -74.06058 0 323.2363
v -73.36842 0 324.6206
v -74.06058 0 324.6206
v -68.52334 0 323.2363
v -69.56157 0 323.2363
v -68.52334 0 324.6206
v -69.56157 0 324.6206
vt 0 0.9058824
vt 0.06666667 0.9058824
vt 0 1
vt 0.06666667 1
vt 0 0.9058824
vt 0.06666667 0.9058824
vt 0 1
vt 0.06666667 1
vt 0 0.9058824
vt 0.06666667 0.9058824
vt 0 1
vt 0.06666667 1
vt 0 0.9058824
vt 0.06666667 0.9058824
vt 0 1
vt 0.06666667 1
vt 0 0.9058824
vt 0.06666667 0.9058824
vt 0 1
vt 0.06666667 1
vt 0 0.9058824
vt 0.06666667 0.9058824
vt 0 1
vt 0.06666667 1
vt 0 0.9058824
vt 0.06666667 0.9058824
vt 0 1
vt 0.06666667 1
vt 0 0.9058824
vt 0.06666667 0.9058824
vt 0 1
vt 0.06666667 1
vt 0 0.9058824
vt 0.06666667 0.9058824
vt 0 1
vt 0.06666667 1
vt 0 0.9058824
vt 0.06666667 0.9058824
vt 0 1
vt 0.06666667 1
vt 0 0.9058824
vt 0.06666667 0.9058824
vt 0 1
vt 0.06666667 1
vt 0 0.9058824
vt 0.06666667 0.9058824
vt 0 1
vt 0.06666667 1
vt 0 0.9058824
vt 0.06666667 0.9058824
vt 0 1
vt 0.06666667 1
vt 0 0.9058824
vt 0.06666667 0.9058824
vt 0 1
vt 0.06666667 1
vt 0 0.9058824
vt 0.06666667 0.9058824
vt 0 1
vt 0.06666667 1
vt 0 0.9058824
vt 0.06666667 0.9058824
vt 0 1
vt 0.06666667 1
vt 0 0.9058824
vt 0.06666667 0.9058824
vt 0 1
vt 0.06666667 1
vt 0 0.9058824
vt 0.06666667 0.9058824
vt 0 1
vt 0.06666667 1
vt 0 0.9058824
vt 0.06666667 0.9058824
vt 0 1
vt 0.06666667 1
vt 0 0.9058824
vt 0.06666667 0.9058824
vt 0 1
vt 0.06666667 1
vt 0 0.9058824
vt 0.06666667 0.9058824
vt 0 1
vt 0.06666667 1
vt 0 0.9058824
vt 0.06666667 0.9058824
vt 0 1
vt 0.06666667 1
vt 0 0.9058824
vt 0.06666667 0.9058824
vt 0 1
vt 0.06666667 1
vt 0 0.9058824
vt 0.06666667 0.9058824
vt 0 1
vt 0.06666667 1
vt 0 0.9058824
vt 0.06666667 0.9058824
vt 0 1
vt 0.06666667 1
vt 0 0.9058824
vt 0.06666667 0.9058824
vt 0 1
vt 0.06666667 1
vt 0 0.9058824
vt 0.06666667 0.9058824
vt 0 1
vt 0.06666667 1
vt 0 0.9058824
vt 0.06666667 0.9058824
vt 0 1
vt 0.06666667 1
vt 0 0.9058824
vt 0.06666667 0.9058824
vt 0 1
vt 0.06666667 1
vt 0 0.9058824
vt 0.06666667 0.9058824
vt 0 1
vt 0.06666667 1
vt 0 0.9058824
vt 0.06666667 0.9058824
vt 0 1
vt 0.06666667 1
vt 0 0.9058824
vt 0.06666667 0.9058824
vt 0 1
vt 0.06666667 1
vt 0 0.9058824
vt 0.06666667 0.9058824
vt 0 1
vt 0.06666667 1
vt 0 0.9058824
vt 0.06666667 0.9058824
vt 0 1
vt 0.06666667 1
vt 0 0.9058824
vt 0.06666667 0.9058824
vt 0 1
vt 0.06666667 1
vt 0 0.9058824
vt 0.06666667 0.9058824
vt 0 1
vt 0.06666667 1
vt 0 0.9058824
vt 0.06666667 0.9058824
vt 0 1
vt 0.06666667 1
vt 0 0.9058824
vt 0.06666667 0.9058824
vt 0 1
vt 0.06666667 1
vt 0 0.9058824
vt 0.06666667 0.9058824
vt 0 1
vt 0.06666667 1
vt 0 0.9058824
vt 0.06666667 0.9058824
vt 0 1
vt 0.06666667 1
vt 0 0.9058824
vt 0.06666667 0.9058824
vt 0 1
vt 0.06666667 1
vt 0 0.9058824
vt 0.06666667 0.9058824
vt 0 1
vt 0.06666667 1
vt 0 0.9058824
vt 0.06666667 0.9058824
vt 0 1
vt 0.06666667 1
vt 0 0.9058824
vt 0.06666667 0.9058824
vt 0 1
vt 0.06666667 1
vt 0 0.9058824
vt 0.06666667 0.9058824
vt 0 1
vt 0.06666667 1
vt 0 0.9058824
vt 0.06666667 0.9058824
vt 0 1
vt 0.06666667 1
vt 0 0.9058824
vt 0.06666667 0.9058824
vt 0 1
vt 0.06666667 1
vt 0 0.9058824
vt 0.06666667 0.9058824
vt 0 1
vt 0.06666667 1
vt 0 0.9058824
vt 0.06666667 0.9058824
vt 0 1
vt 0.06666667 1
vt 0 0.9058824
vt 0.06666667 0.9058824
vt 0 1
vt 0.06666667 1
vn 0 1 0
vn 0 1 0
vn 0 1 0
vn 0 1 0
vn 0 1 0
vn 0 1 0
vn 0 1 0
vn 0 1 0
vn 0 1 0
vn 0 1 0
vn 0 1 0
vn 0 1 0
vn 0 1 0
vn 0 1 0
vn 0 1 0
vn 0 1 0
vn 0 1 0
vn 0 1 0
vn 0 1 0
vn 0 1 0
vn 0 1 0
vn 0 1 0
vn 0 1 0
vn 0 1 0
vn 0 1 0
vn 0 1 0
vn 0 1 0
vn 0 1 0
vn 0 1 0
vn 0 1 0
vn 0 1 0
vn 0 1 0
vn 0 1 0
vn 0 1 0
vn 0 1 0
vn 0 1 0
vn 0 1 0
vn 0 1 0
vn 0 1 0
vn 0 1 0
vn 0 1 0
vn 0 1 0
vn 0 1 0
vn 0 1 0
vn 0 1 0
vn 0 1 0
vn 0 1 0
vn 0 1 0
vn 0 1 0
vn 0 1 0
vn 0 1 0
vn 0 1 0
vn 0 1 0
vn 0 1 0
vn 0 1 0
vn 0 1 0
vn 0 1 0
vn 0 1 0
vn 0 1 0
vn 0 1 0
vn 0 1 0
vn 0 1 0
vn 0 1 0
vn 0 1 0
vn 0 1 0
vn 0 1 0
vn 0 1 0
vn 0 1 0
vn 0 1 0
vn 0 1 0
vn 0 1 0
vn 0 1 0
vn 0 1 0
vn 0 1 0
vn 0 1 0
vn 0 1 0
vn 0 1 0
vn 0 1 0
vn 0 1 0
vn 0 1 0
vn 0 1 0
vn 0 1 0
vn 0 1 0
vn 0 1 0
vn 0 1 0
vn 0 1 0
vn 0 1 0
vn 0 1 0
vn 0 1 0
vn 0 1 0
vn 0 1 0
vn 0 1 0
vn 0 1 0
vn 0 1 0
vn 0 1 0
vn 0 1 0
vn 0 1 0
vn 0 1 0
vn 0 1 0
vn 0 1 0
vn 0 1 0
vn 0 1 0
vn 0 1 0
vn 0 1 0
vn 0 1 0
vn 0 1 0
vn 0 1 0
vn 0 1 0
vn 0 1 0
vn 0 1 0
vn 0 1 0
vn 0 1 0
vn 0 1 0
vn 0 1 0
vn 0 1 0
vn 0 1 0
vn 0 1 0
vn 0 1 0
vn 0 1 0
vn 0 1 0
vn 0 1 0
vn 0 1 0
vn 0 1 0
vn 0 1 0
vn 0 1 0
vn 0 1 0
vn 0 1 0
vn 0 1 0
vn 0 1 0
vn 0 1 0
vn 0 1 0
vn 0 1 0
vn 0 1 0
vn 0 1 0
vn 0 1 0
vn 0 1 0
vn 0 1 0
vn 0 1 0
vn 0 1 0
vn 0 1 0
vn 0 1 0
vn 0 1 0
vn 0 1 0
vn 0 1 0
vn 0 1 0
vn 0 1 0
vn 0 1 0
vn 0 1 0
vn 0 1 0
vn 0 1 0
vn 0 1 0
vn 0 1 0
vn 0 1 0
vn 0 1 0
vn 0 1 0
vn 0 1 0
vn 0 1 0
vn 0 1 0
vn 0 1 0
vn 0 1 0
vn 0 1 0
vn 0 1 0
vn 0 1 0
vn 0 1 0
vn 0 1 0
vn 0 1 0
vn 0 1 0
vn 0 1 0
vn 0 1 0
vn 0 1 0
vn 0 1 0
vn 0 1 0
vn 0 1 0
vn 0 1 0
vn 0 1 0
vn 0 1 0
vn 0 1 0
vn 0 1 0
vn 0 1 0
vn 0 1 0
vn 0 1 0
vn 0 1 0
vn 0 1 0
vn 0 1 0
vn 0 1 0
vn 0 1 0
vn 0 1 0
vn 0 1 0
vn 0 1 0
vn 0 1 0
vn 0 1 0
vn 0 1 0
vn 0 1 0
vn 0 1 0
vn 0 1 0
vn 0 1 0
vn 0 1 0
vn 0 1 0
vn 0 1 0
vn 0 1 0
g Grass_0_Cluster252_0
f 2/2/2 3/3/3 1/1/1
f 2/2/2 4/4/4 3/3/3
f 6/6/6 7/7/7 5/5/5
f 6/6/6 8/8/8 7/7/7
f 10/10/10 11/11/11 9/9/9
f 10/10/10 12/12/12 11/11/11
f 14/14/14 15/15/15 13/13/13
f 14/14/14 16/16/16 15/15/15
f 18/18/18 19/19/19 17/17/17
f 18/18/18 20/20/20 19/19/19
f 22/22/22 23/23/23 21/21/21
f 22/22/22 24/24/24 23/23/23
f 26/26/26 27/27/27 25/25/25
f 26/26/26 28/28/28 27/27/27
f 30/30/30 31/31/31 29/29/29
f 30/30/30 32/32/32 31/31/31
f 34/34/34 35/35/35 33/33/33
f 34/34/34 36/36/36 35/35/35
f 38/38/38 39/39/39 37/37/37
f 38/38/38 40/40/40 39/39/39
f 42/42/42 43/43/43 41/41/41
f 42/42/42 44/44/44 43/43/43
f 46/46/46 47/47/47 45/45/45
f 46/46/46 48/48/48 47/47/47
f 50/50/50 51/51/51 49/49/49
f 50/50/50 52/52/52 51/51/51
f 54/54/54 55/55/55 53/53/53
f 54/54/54 56/56/56 55/55/55
f 58/58/58 59/59/59 57/57/57
f 58/58/58 60/60/60 59/59/59
f 62/62/62 63/63/63 61/61/61
f 62/62/62 64/64/64 63/63/63
f 66/66/66 67/67/67 65/65/65
f 66/66/66 68/68/68 67/67/67
f 70/70/70 71/71/71 69/69/69
f 70/70/70 72/72/72 71/71/71
f 74/74/74 75/75/75 73/73/73
f 74/74/74 76/76/76 75/75/75
f 78/78/78 79/79/79 77/77/77
f 78/78/78 80/80/80 79/79/79
f 82/82/82 83/83/83 81/81/81
f 82/82/82 84/84/84 83/83/83
f 86/86/86 87/87/87 85/85/85
f 86/86/86 88/88/88 87/87/87
f 90/90/90 91/91/91 89/89/89
f 90/90/90 92/92/92 91/91/91
f 94/94/94 95/95/95 93/93/93
f 94/94/94 96/96/96 95/95/95
f 98/98/98 99/99/99 97/97/97
f 98/98/98 100/100/100 99/99/99
f 102/102/102 103/103/103 101/101/101
f 102/102/102 104/104/104 103/103/103
f 106/106/106 107/107/107 105/105/105
f 106/106/106 108/108/108 107/107/107
f 110/110/110 111/111/111 109/109/109
f 110/110/110 112/112/112 111/111/111
f 114/114/114 115/115/115 113/113/113
f 114/114/114 116/116/116 115/115/115
f 118/118/118 119/119/119 117/117/117
f 118/118/118 120/120/120 119/119/119
f 122/122/122 123/123/123 121/121/121
f 122/122/122 124/124/124 123/123/123
f 126/126/126 127/127/127 125/125/125
f 126/126/126 128/128/128 127/127/127
f 130/130/130 131/131/131 129/129/129
f 130/130/130 132/132/132 131/131/131
f 134/134/134 135/135/135 133/133/133
f 134/134/134 136/136/136 135/135/135
f 138/138/138 139/139/139 137/137/137
f 138/138/138 140/140/140 139/139/139
f 142/142/142 143/143/143 141/141/141
f 142/142/142 144/144/144 143/143/143
f 146/146/146 147/147/147 145/145/145
f 146/146/146 148/148/148 147/147/147
f 150/150/150 151/151/151 149/149/149
f 150/150/150 152/152/152 151/151/151
f 154/154/154 155/155/155 153/153/153
f 154/154/154 156/156/156 155/155/155
f 158/158/158 159/159/159 157/157/157
f 158/158/158 160/160/160 159/159/159
f 162/162/162 163/163/163 161/161/161
f 162/162/162 164/164/164 163/163/163
f 166/166/166 167/167/167 165/165/165
f 166/166/166 168/168/168 167/167/167
f 170/170/170 171/171/171 169/169/169
f 170/170/170 172/172/172 171/171/171
f 174/174/174 175/175/175 173/173/173
f 174/174/174 176/176/176 175/175/175
f 178/178/178 179/179/179 177/177/177
f 178/178/178 180/180/180 179/179/179
f 182/182/182 183/183/183 181/181/181
f 182/182/182 184/184/184 183/183/183
f 186/186/186 187/187/187 185/185/185
f 186/186/186 188/188/188 187/187/187
f 190/190/190 191/191/191 189/189/189
f 190/190/190 192/192/192 191/191/191
f 194/194/194 195/195/195 193/193/193
f 194/194/194 196/196/196 195/195/195
f 198/198/198 199/199/199 197/197/197
f 198/198/198 200/200/200 199/199/199
