g Grass_2_Cluster252
v -74.75742 0 351.3943
v -75.44643 0 351.3943
v -74.75742 0 352.4278
v -75.44643 0 352.4278
v -74.41292 0 350.7053
v -75.44643 0 350.7053
v -74.41292 0 351.7388
v -75.44643 0 351.7388
v -75.79093 0 350.0163
v -76.82445 0 350.0163
v -75.79093 0 351.3943
v -76.82445 0 351.3943
v -74.06841 0 350.0163
v -75.10192 0 350.0163
v -74.06841 0 351.0498
v -75.10192 0 351.0498
v -73.0349 0 350.0163
v -74.06841 0 350.0163
v -73.0349 0 351.0498
v -74.06841 0 351.0498
v -75.10192 0 349.3273
v -76.13544 0 349.3273
v -75.10192 0 350.3608
v -76.13544 0 350.3608
v -75.79093 0 348.9828
v -76.82445 0 348.9828
v -75.79093 0 350.0163
v -76.82445 0 350.0163
v -73.72391 0 348.6383
v -74.75742 0 348.6383
v -73.72391 0 349.6718
v -74.75742 0 349.6718
v -73.0349 0 348.2938
v -74.06841 0 348.2938
v -73.0349 0 349.3273
v -74.06841 0 349.3273
v -71.65688 0 348.2938
v -72.69039 0 348.2938
v -71.65688 0 349.3273
v -72.69039 0 349.3273
v -75.79093 0 347.6048
v -76.47994 0 347.6048
v -75.79093 0 348.6383
v -76.47994 0 348.6383
v -72.69039 0 347.6048
v -73.72391 0 347.6048
v -72.69039 0 348.6383
v -73.72391 0 348.6383
v -61.66626 0 340.0257
v -62.35527 0 340.0257
v -61.66626 0 341.0592
v -62.35527 0 341.0592
v -61.32175 0 338.3032
v -62.01077 0 338.3032
v -61.32175 0 339.3367
v -62.01077 0 339.3367
v -64.07779 0 337.2697
v -65.11131 0 337.2697
v -64.07779 0 338.3032
v -65.11131 0 338.3032
v -63.04428 0 336.9251
v -64.07779 0 336.9251
v -63.04428 0 337.9586
v -64.07779 0 337.9586
v -62.01077 0 336.9251
v -63.04428 0 336.9251
v -62.01077 0 337.9586
v -63.04428 0 337.9586
v -65.11131 0 336.2361
v -65.80031 0 336.2361
v -65.11131 0 337.6142
v -65.80031 0 337.6142
v -60.97725 0 336.2361
v -62.01077 0 336.2361
v -60.97725 0 337.2697
v -62.01077 0 337.2697
v -63.04428 0 335.8916
v -63.73328 0 335.8916
v -63.04428 0 337.2697
v -63.73328 0 337.2697
v -64.42229 0 335.5471
v -65.4558 0 335.5471
v -64.42229 0 336.9251
v -65.4558 0 336.9251
v -60.28824 0 335.2026
v -61.32175 0 335.2026
v -60.28824 0 336.5807
v -61.32175 0 336.5807
v -61.66626 0 335.2026
v -62.35527 0 335.2026
v -61.66626 0 336.2361
v -62.35527 0 336.2361
v -63.73328 0 334.8581
v -64.7668 0 334.8581
v -63.73328 0 335.8916
v -64.7668 0 335.8916
v -59.59924 0 334.8581
v -60.63275 0 334.8581
v -59.59924 0 335.8916
v -60.63275 0 335.8916
v -62.35527 0 334.5136
v -63.38878 0 334.5136
v -62.35527 0 335.5471
v -63.38878 0 335.5471
v -61.32175 0 334.5136
v -62.35527 0 334.5136
v -61.32175 0 335.5471
v -62.35527 0 335.5471
v -63.38878 0 334.1691
v -64.42229 0 334.1691
v -63.38878 0 335.2026
v -64.42229 0 335.2026
v -62.69977 0 333.8246
v -63.73328 0 333.8246
v -62.69977 0 334.8581
v -63.73328 0 334.8581
v -60.97725 0 333.8246
v -61.66626 0 333.8246
v -60.97725 0 334.8581
v -61.66626 0 334.8581
v -60.28824 0 333.1356
v -61.32175 0 333.1356
v -60.28824 0 334.1691
v -61.32175 0 334.1691
v -85.09254 0 332.4466
v -86.12606 0 332.4466
v -85.09254 0 333.4801
v -86.12606 0 333.4801
v -84.74805 0 331.7576
v -85.78156 0 331.7576
v -84.74805 0 333.1356
v -85.78156 0 333.1356
v -84.40354 0 330.7241
v -85.43705 0 330.7241
v -84.40354 0 331.7576
v -85.43705 0 331.7576
v -82.33652 0 329.6906
v -83.02552 0 329.6906
v -82.33652 0 330.7241
v -83.02552 0 330.7241
v -83.71453 0 329.3461
v -84.74805 0 329.3461
v -83.71453 0 330.7241
v -84.74805 0 330.7241
v -85.09254 0 329.3461
v -86.12606 0 329.3461
v -85.09254 0 330.7241
v -86.12606 0 330.7241
v -66.83382 0 329.0016
v -67.52283 0 329.0016
v -66.83382 0 330.0351
v -67.52283 0 330.0351
v -85.09254 0 328.657
v -86.12606 0 328.657
v -85.09254 0 329.6906
v -86.12606 0 329.6906
v -86.81507 0 328.3125
v -87.84858 0 328.3125
v -86.81507 0 329.3461
v -87.84858 0 329.3461
v -81.99201 0 327.968
v -83.02552 0 327.968
v -81.99201 0 329.0016
v -83.02552 0 329.0016
v -84.74805 0 327.968
v -85.78156 0 327.968
v -84.74805 0 328.657
v -85.78156 0 328.657
v -86.81507 0 326.2455
v -87.50407 0 326.2455
v -86.81507 0 327.279
v -87.50407 0 327.279
v -89.2266 0 324.8675
v -90.26011 0 324.8675
v -89.2266 0 325.901
v -90.26011 0 325.901
vt 0.1347656 0.9185662
vt 0.2060202 0.9185662
vt 0.1347656 1
vt 0.2060202 1
vt 0.1347656 0.9185662
vt 0.2060202 0.9185662
vt 0.1347656 1
vt 0.2060202 1
vt 0.1347656 0.9185662
vt 0.2060202 0.9185662
vt 0.1347656 1
vt 0.2060202 1
vt 0.1347656 0.9185662
vt 0.2060202 0.9185662
vt 0.1347656 1
vt 0.2060202 1
vt 0.1347656 0.9185662
vt 0.2060202 0.9185662
vt 0.1347656 1
vt 0.2060202 1
vt 0.1347656 0.9185662
vt 0.2060202 0.9185662
vt 0.1347656 1
vt 0.2060202 1
vt 0.1347656 0.9185662
vt 0.2060202 0.9185662
vt 0.1347656 1
vt 0.2060202 1
vt 0.1347656 0.9185662
vt 0.2060202 0.9185662
vt 0.1347656 1
vt 0.2060202 1
vt 0.1347656 0.9185662
vt 0.2060202 0.9185662
vt 0.1347656 1
vt 0.2060202 1
vt 0.1347656 0.9185662
vt 0.2060202 0.9185662
vt 0.1347656 1
vt 0.2060202 1
vt 0.1347656 0.9185662
vt 0.2060202 0.9185662
vt 0.1347656 1
vt 0.2060202 1
vt 0.1347656 0.9185662
vt 0.2060202 0.9185662
vt 0.1347656 1
vt 0.2060202 1
vt 0.1347656 0.9185662
vt 0.2060202 0.9185662
vt 0.1347656 1
vt 0.2060202 1
vt 0.1347656 0.9185662
vt 0.2060202 0.9185662
vt 0.1347656 1
vt 0.2060202 1
vt 0.1347656 0.9185662
vt 0.2060202 0.9185662
vt 0.1347656 1
vt 0.2060202 1
vt 0.1347656 0.9185662
vt 0.2060202 0.9185662
vt 0.1347656 1
vt 0.2060202 1
vt 0.1347656 0.9185662
vt 0.2060202 0.9185662
vt 0.1347656 1
vt 0.2060202 1
vt 0.1347656 0.9185662
vt 0.2060202 0.9185662
vt 0.1347656 1
vt 0.2060202 1
vt 0.1347656 0.9185662
vt 0.2060202 0.9185662
vt 0.1347656 1
vt 0.2060202 1
vt 0.1347656 0.9185662
vt 0.2060202 0.9185662
vt 0.1347656 1
vt 0.2060202 1
vt 0.1347656 0.9185662
vt 0.2060202 0.9185662
vt 0.1347656 1
vt 0.2060202 1
vt 0.1347656 0.9185662
vt 0.2060202 0.9185662
vt 0.1347656 1
vt 0.2060202 1
vt 0.1347656 0.9185662
vt 0.2060202 0.9185662
vt 0.1347656 1
vt 0.2060202 1
vt 0.1347656 0.9185662
vt 0.2060202 0.9185662
vt 0.1347656 1
vt 0.2060202 1
vt 0.1347656 0.9185662
vt 0.2060202 0.9185662
vt 0.1347656 1
vt 0.2060202 1
vt 0.1347656 0.9185662
vt 0.2060202 0.9185662
vt 0.1347656 1
vt 0.2060202 1
vt 0.1347656 0.9185662
vt 0.2060202 0.9185662
vt 0.1347656 1
vt 0.2060202 1
vt 0.1347656 0.9185662
vt 0.2060202 0.9185662
vt 0.1347656 1
vt 0.2060202 1
vt 0.1347656 0.9185662
vt 0.2060202 0.9185662
vt 0.1347656 1
vt 0.2060202 1
vt 0.1347656 0.9185662
vt 0.2060202 0.9185662
vt 0.1347656 1
vt 0.2060202 1
vt 0.1347656 0.9185662
vt 0.2060202 0.9185662
vt 0.1347656 1
vt 0.2060202 1
vt 0.1347656 0.9185662
vt 0.2060202 0.9185662
vt 0.1347656 1
vt 0.2060202 1
vt 0.1347656 0.9185662
vt 0.2060202 0.9185662
vt 0.1347656 1
vt 0.2060202 1
vt 0.1347656 0.9185662
vt 0.2060202 0.9185662
vt 0.1347656 1
vt 0.2060202 1
vt 0.1347656 0.9185662
vt 0.2060202 0.9185662
vt 0.1347656 1
vt 0.2060202 1
vt 0.1347656 0.9185662
vt 0.2060202 0.9185662
vt 0.1347656 1
vt 0.2060202 1
vt 0.1347656 0.9185662
vt 0.2060202 0.9185662
vt 0.1347656 1
vt 0.2060202 1
vt 0.1347656 0.9185662
vt 0.2060202 0.9185662
vt 0.1347656 1
vt 0.2060202 1
vt 0.1347656 0.9185662
vt 0.2060202 0.9185662
vt 0.1347656 1
vt 0.2060202 1
vt 0.1347656 0.9185662
vt 0.2060202 0.9185662
vt 0.1347656 1
vt 0.2060202 1
vt 0.1347656 0.9185662
vt 0.2060202 0.9185662
vt 0.1347656 1
vt 0.2060202 1
vt 0.1347656 0.9185662
vt 0.2060202 0.9185662
vt 0.1347656 1
vt 0.2060202 1
vt 0.1347656 0.9185662
vt 0.2060202 0.9185662
vt 0.1347656 1
vt 0.2060202 1
vt 0.1347656 0.9185662
vt 0.2060202 0.9185662
vt 0.1347656 1
vt 0.2060202 1
vn 0 1 0
vn 0 1 0
vn 0 1 0
vn 0 1 0
vn 0 1 0
vn 0 1 0
vn 0 1 0
vn 0 1 0
vn 0 1 0
vn 0 1 0
vn 0 1 0
vn 0 1 0
vn 0 1 0
vn 0 1 0
vn 0 1 0
vn 0 1 0
vn 0 1 0
vn 0 1 0
vn 0 1 0
vn 0 1 0
vn 0 1 0
vn 0 1 0
vn 0 1 0
vn 0 1 0
vn 0 1 0
vn 0 1 0
vn 0 1 0
vn 0 1 0
vn 0 1 0
vn 0 1 0
vn 0 1 0
vn 0 1 0
vn 0 1 0
vn 0 1 0
vn 0 1 0
vn 0 1 0
vn 0 1 0
vn 0 1 0
vn 0 1 0
vn 0 1 0
vn 0 1 0
vn 0 1 0
vn 0 1 0
vn 0 1 0
vn 0 1 0
vn 0 1 0
vn 0 1 0
vn 0 1 0
vn 0 1 0
vn 0 1 0
vn 0 1 0
vn 0 1 0
vn 0 1 0
vn 0 1 0
vn 0 1 0
vn 0 1 0
vn 0 1 0
vn 0 1 0
vn 0 1 0
vn 0 1 0
vn 0 1 0
vn 0 1 0
vn 0 1 0
vn 0 1 0
vn 0 1 0
vn 0 1 0
vn 0 1 0
vn 0 1 0
vn 0 1 0
vn 0 1 0
vn 0 1 0
vn 0 1 0
vn 0 1 0
vn 0 1 0
vn 0 1 0
vn 0 1 0
vn 0 1 0
vn 0 1 0
vn 0 1 0
vn 0 1 0
vn 0 1 0
vn 0 1 0
vn 0 1 0
vn 0 1 0
vn 0 1 0
vn 0 1 0
vn 0 1 0
vn 0 1 0
vn 0 1 0
vn 0 1 0
vn 0 1 0
vn 0 1 0
vn 0 1 0
vn 0 1 0
vn 0 1 0
vn 0 1 0
vn 0 1 0
vn 0 1 0
vn 0 1 0
vn 0 1 0
vn 0 1 0
vn 0 1 0
vn 0 1 0
vn 0 1 0
vn 0 1 0
vn 0 1 0
vn 0 1 0
vn 0 1 0
vn 0 1 0
vn 0 1 0
vn 0 1 0
vn 0 1 0
vn 0 1 0
vn 0 1 0
vn 0 1 0
vn 0 1 0
vn 0 1 0
vn 0 1 0
vn 0 1 0
vn 0 1 0
vn 0 1 0
vn 0 1 0
vn 0 1 0
vn 0 1 0
vn 0 1 0
vn 0 1 0
vn 0 1 0
vn 0 1 0
vn 0 1 0
vn 0 1 0
vn 0 1 0
vn 0 1 0
vn 0 1 0
vn 0 1 0
vn 0 1 0
vn 0 1 0
vn 0 1 0
vn 0 1 0
vn 0 1 0
vn 0 1 0
vn 0 1 0
vn 0 1 0
vn 0 1 0
vn 0 1 0
vn 0 1 0
vn 0 1 0
vn 0 1 0
vn 0 1 0
vn 0 1 0
vn 0 1 0
vn 0 1 0
vn 0 1 0
vn 0 1 0
vn 0 1 0
vn 0 1 0
vn 0 1 0
vn 0 1 0
vn 0 1 0
vn 0 1 0
vn 0 1 0
vn 0 1 0
vn 0 1 0
vn 0 1 0
vn 0 1 0
vn 0 1 0
vn 0 1 0
vn 0 1 0
vn 0 1 0
vn 0 1 0
vn 0 1 0
vn 0 1 0
vn 0 1 0
vn 0 1 0
vn 0 1 0
vn 0 1 0
vn 0 1 0
g Grass_2_Cluster252_0
f 2/2/2 3/3/3 1/1/1
f 2/2/2 4/4/4 3/3/3
f 6/6/6 7/7/7 5/5/5
f 6/6/6 8/8/8 7/7/7
f 10/10/10 11/11/11 9/9/9
f 10/10/10 12/12/12 11/11/11
f 14/14/14 15/15/15 13/13/13
f 14/14/14 16/16/16 15/15/15
f 18/18/18 19/19/19 17/17/17
f 18/18/18 20/20/20 19/19/19
f 22/22/22 23/23/23 21/21/21
f 22/22/22 24/24/24 23/23/23
f 26/26/26 27/27/27 25/25/25
f 26/26/26 28/28/28 27/27/27
f 30/30/30 31/31/31 29/29/29
f 30/30/30 32/32/32 31/31/31
f 34/34/34 35/35/35 33/33/33
f 34/34/34 36/36/36 35/35/35
f 38/38/38 39/39/39 37/37/37
f 38/38/38 40/40/40 39/39/39
f 42/42/42 43/43/43 41/41/41
f 42/42/42 44/44/44 43/43/43
f 46/46/46 47/47/47 45/45/45
f 46/46/46 48/48/48 47/47/47
f 50/50/50 51/51/51 49/49/49
f 50/50/50 52/52/52 51/51/51
f 54/54/54 55/55/55 53/53/53
f 54/54/54 56/56/56 55/55/55
f 58/58/58 59/59/59 57/57/57
f 58/58/58 60/60/60 59/59/59
f 62/62/62 63/63/63 61/61/61
f 62/62/62 64/64/64 63/63/63
f 66/66/66 67/67/67 65/65/65
f 66/66/66 68/68/68 67/67/67
f 70/70/70 71/71/71 69/69/69
f 70/70/70 72/72/72 71/71/71
f 74/74/74 75/75/75 73/73/73
f 74/74/74 76/76/76 75/75/75
f 78/78/78 79/79/79 77/77/77
f 78/78/78 80/80/80 79/79/79
f 82/82/82 83/83/83 81/81/81
f 82/82/82 84/84/84 83/83/83
f 86/86/86 87/87/87 85/85/85
f 86/86/86 88/88/88 87/87/87
f 90/90/90 91/91/91 89/89/89
f 90/90/90 92/92/92 91/91/91
f 94/94/94 95/95/95 93/93/93
f 94/94/94 96/96/96 95/95/95
f 98/98/98 99/99/99 97/97/97
f 98/98/98 100/100/100 99/99/99
f 102/102/102 103/103/103 101/101/101
f 102/102/102 104/104/104 103/103/103
f 106/106/106 107/107/107 105/105/105
f 106/106/106 108/108/108 107/107/107
f 110/110/110 111/111/111 109/109/109
f 110/110/110 112/112/112 111/111/111
f 114/114/114 115/115/115 113/113/113
f 114/114/114 116/116/116 115/115/115
f 118/118/118 119/119/119 117/117/117
f 118/118/118 120/120/120 119/119/119
f 122/122/122 123/123/123 121/121/121
f 122/122/122 124/124/124 123/123/123
f 126/126/126 127/127/127 125/125/125
f 126/126/126 128/128/128 127/127/127
f 130/130/130 131/131/131 129/129/129
f 130/130/130 132/132/132 131/131/131
f 134/134/134 135/135/135 133/133/133
f 134/134/134 136/136/136 135/135/135
f 138/138/138 139/139/139 137/137/137
f 138/138/138 140/140/140 139/139/139
f 142/142/142 143/143/143 141/141/141
f 142/142/142 144/144/144 143/143/143
f 146/146/146 147/147/147 145/145/145
f 146/146/146 148/148/148 147/147/147
f 150/150/150 151/151/151 149/149/149
f 150/150/150 152/152/152 151/151/151
f 154/154/154 155/155/155 153/153/153
f 154/154/154 156/156/156 155/155/155
f 158/158/158 159/159/159 157/157/157
f 158/158/158 160/160/160 159/159/159
f 162/162/162 163/163/163 161/161/161
f 162/162/162 164/164/164 163/163/163
f 166/166/166 167/167/167 165/165/165
f 166/166/166 168/168/168 167/167/167
f 170/170/170 171/171/171 169/169/169
f 170/170/170 172/172/172 171/171/171
f 174/174/174 175/175/175 173/173/173
f 174/174/174 176/176/176 175/175/175
