g Grass_2_Cluster293
v -104.0222 0 411.2505
v -104.8286 0 411.2505
v -104.0222 0 412.4601
v -104.8286 0 412.4601
v -103.2158 0 410.4442
v -104.4254 0 410.4442
v -103.2158 0 411.6537
v -104.4254 0 411.6537
v -95.15208 0 397.5422
v -95.95846 0 397.5422
v -95.15208 0 398.7518
v -95.95846 0 398.7518
v -95.95846 0 397.139
v -96.76483 0 397.139
v -95.95846 0 398.3486
v -96.76483 0 398.3486
v -96.36165 0 396.7358
v -97.16802 0 396.7358
v -96.36165 0 397.5422
v -97.16802 0 397.5422
v -98.37758 0 396.3326
v -99.18395 0 396.3326
v -98.37758 0 397.5422
v -99.18395 0 397.5422
v -96.76483 0 395.1231
v -97.57121 0 395.1231
v -96.76483 0 396.3326
v -97.57121 0 396.3326
v -97.9744 0 395.1231
v -99.18395 0 395.1231
v -97.9744 0 395.9294
v -99.18395 0 395.9294
v -97.16802 0 393.5103
v -97.9744 0 393.5103
v -97.16802 0 394.7199
v -97.9744 0 394.7199
v -95.55527 0 393.1071
v -96.76483 0 393.1071
v -95.55527 0 394.3167
v -96.76483 0 394.3167
v -114.1019 0 390.2848
v -114.9082 0 390.2848
v -114.1019 0 391.0912
v -114.9082 0 391.0912
v -93.53934 0 389.8817
v -94.7489 0 389.8817
v -93.53934 0 391.0912
v -94.7489 0 391.0912
v -93.13615 0 389.8817
v -93.94253 0 389.8817
v -93.13615 0 391.0912
v -93.94253 0 391.0912
v -94.34571 0 389.0753
v -95.55527 0 389.0753
v -94.34571 0 390.2848
v -95.55527 0 390.2848
v -93.53934 0 388.6721
v -94.34571 0 388.6721
v -93.53934 0 389.8817
v -94.34571 0 389.8817
v -92.73296 0 388.6721
v -93.94253 0 388.6721
v -92.73296 0 389.8817
v -93.94253 0 389.8817
v -95.95846 0 388.2689
v -97.16802 0 388.2689
v -95.95846 0 389.4785
v -97.16802 0 389.4785
v -97.16802 0 388.2689
v -97.9744 0 388.2689
v -97.16802 0 389.4785
v -97.9744 0 389.4785
v -94.34571 0 387.8657
v -95.15208 0 387.8657
v -94.34571 0 389.0753
v -95.15208 0 389.0753
v -95.15208 0 387.0593
v -95.95846 0 387.0593
v -95.15208 0 387.8657
v -95.95846 0 387.8657
v -93.94253 0 386.253
v -95.15208 0 386.253
v -93.94253 0 387.4625
v -95.15208 0 387.4625
v -96.76483 0 386.253
v -97.57121 0 386.253
v -96.76483 0 387.4625
v -97.57121 0 387.4625
v -92.73296 0 386.253
v -93.53934 0 386.253
v -92.73296 0 387.4625
v -93.53934 0 387.4625
v -91.52341 0 386.253
v -92.73296 0 386.253
v -91.52341 0 387.0593
v -92.73296 0 387.0593
v -118.1337 0 386.253
v -118.9401 0 386.253
v -118.1337 0 387.0593
v -118.9401 0 387.0593
v -90.71703 0 385.8498
v -91.92659 0 385.8498
v -90.71703 0 387.0593
v -91.92659 0 387.0593
v -93.53934 0 385.8498
v -94.7489 0 385.8498
v -93.53934 0 387.0593
v -94.7489 0 387.0593
vt 0.1347656 0.9185662
vt 0.2060202 0.9185662
vt 0.1347656 1
vt 0.2060202 1
vt 0.1347656 0.9185662
vt 0.2060202 0.9185662
vt 0.1347656 1
vt 0.2060202 1
vt 0.1347656 0.9185662
vt 0.2060202 0.9185662
vt 0.1347656 1
vt 0.2060202 1
vt 0.1347656 0.9185662
vt 0.2060202 0.9185662
vt 0.1347656 1
vt 0.2060202 1
vt 0.1347656 0.9185662
vt 0.2060202 0.9185662
vt 0.1347656 1
vt 0.2060202 1
vt 0.1347656 0.9185662
vt 0.2060202 0.9185662
vt 0.1347656 1
vt 0.2060202 1
vt 0.1347656 0.9185662
vt 0.2060202 0.9185662
vt 0.1347656 1
vt 0.2060202 1
vt 0.1347656 0.9185662
vt 0.2060202 0.9185662
vt 0.1347656 1
vt 0.2060202 1
vt 0.1347656 0.9185662
vt 0.2060202 0.9185662
vt 0.1347656 1
vt 0.2060202 1
vt 0.1347656 0.9185662
vt 0.2060202 0.9185662
vt 0.1347656 1
vt 0.2060202 1
vt 0.1347656 0.9185662
vt 0.2060202 0.9185662
vt 0.1347656 1
vt 0.2060202 1
vt 0.1347656 0.9185662
vt 0.2060202 0.9185662
vt 0.1347656 1
vt 0.2060202 1
vt 0.1347656 0.9185662
vt 0.2060202 0.9185662
vt 0.1347656 1
vt 0.2060202 1
vt 0.1347656 0.9185662
vt 0.2060202 0.9185662
vt 0.1347656 1
vt 0.2060202 1
vt 0.1347656 0.9185662
vt 0.2060202 0.9185662
vt 0.1347656 1
vt 0.2060202 1
vt 0.1347656 0.9185662
vt 0.2060202 0.9185662
vt 0.1347656 1
vt 0.2060202 1
vt 0.1347656 0.9185662
vt 0.2060202 0.9185662
vt 0.1347656 1
vt 0.2060202 1
vt 0.1347656 0.9185662
vt 0.2060202 0.9185662
vt 0.1347656 1
vt 0.2060202 1
vt 0.1347656 0.9185662
vt 0.2060202 0.9185662
vt 0.1347656 1
vt 0.2060202 1
vt 0.1347656 0.9185662
vt 0.2060202 0.9185662
vt 0.1347656 1
vt 0.2060202 1
vt 0.1347656 0.9185662
vt 0.2060202 0.9185662
vt 0.1347656 1
vt 0.2060202 1
vt 0.1347656 0.9185662
vt 0.2060202 0.9185662
vt 0.1347656 1
vt 0.2060202 1
vt 0.1347656 0.9185662
vt 0.2060202 0.9185662
vt 0.1347656 1
vt 0.2060202 1
vt 0.1347656 0.9185662
vt 0.2060202 0.9185662
vt 0.1347656 1
vt 0.2060202 1
vt 0.1347656 0.9185662
vt 0.2060202 0.9185662
vt 0.1347656 1
vt 0.2060202 1
vt 0.1347656 0.9185662
vt 0.2060202 0.9185662
vt 0.1347656 1
vt 0.2060202 1
vt 0.1347656 0.9185662
vt 0.2060202 0.9185662
vt 0.1347656 1
vt 0.2060202 1
vn 0 1 0
vn 0 1 0
vn 0 1 0
vn 0 1 0
vn 0 1 0
vn 0 1 0
vn 0 1 0
vn 0 1 0
vn 0 1 0
vn 0 1 0
vn 0 1 0
vn 0 1 0
vn 0 1 0
vn 0 1 0
vn 0 1 0
vn 0 1 0
vn 0 1 0
vn 0 1 0
vn 0 1 0
vn 0 1 0
vn 0 1 0
vn 0 1 0
vn 0 1 0
vn 0 1 0
vn 0 1 0
vn 0 1 0
vn 0 1 0
vn 0 1 0
vn 0 1 0
vn 0 1 0
vn 0 1 0
vn 0 1 0
vn 0 1 0
vn 0 1 0
vn 0 1 0
vn 0 1 0
vn 0 1 0
vn 0 1 0
vn 0 1 0
vn 0 1 0
vn 0 1 0
vn 0 1 0
vn 0 1 0
vn 0 1 0
vn 0 1 0
vn 0 1 0
vn 0 1 0
vn 0 1 0
vn 0 1 0
vn 0 1 0
vn 0 1 0
vn 0 1 0
vn 0 1 0
vn 0 1 0
vn 0 1 0
vn 0 1 0
vn 0 1 0
vn 0 1 0
vn 0 1 0
vn 0 1 0
vn 0 1 0
vn 0 1 0
vn 0 1 0
vn 0 1 0
vn 0 1 0
vn 0 1 0
vn 0 1 0
vn 0 1 0
vn 0 1 0
vn 0 1 0
vn 0 1 0
vn 0 1 0
vn 0 1 0
vn 0 1 0
vn 0 1 0
vn 0 1 0
vn 0 1 0
vn 0 1 0
vn 0 1 0
vn 0 1 0
vn 0 1 0
vn 0 1 0
vn 0 1 0
vn 0 1 0
vn 0 1 0
vn 0 1 0
vn 0 1 0
vn 0 1 0
vn 0 1 0
vn 0 1 0
vn 0 1 0
vn 0 1 0
vn 0 1 0
vn 0 1 0
vn 0 1 0
vn 0 1 0
vn 0 1 0
vn 0 1 0
vn 0 1 0
vn 0 1 0
vn 0 1 0
vn 0 1 0
vn 0 1 0
vn 0 1 0
vn 0 1 0
vn 0 1 0
vn 0 1 0
vn 0 1 0
g Grass_2_Cluster293_0
f 2/2/2 3/3/3 1/1/1
f 2/2/2 4/4/4 3/3/3
f 6/6/6 7/7/7 5/5/5
f 6/6/6 8/8/8 7/7/7
f 10/10/10 11/11/11 9/9/9
f 10/10/10 12/12/12 11/11/11
f 14/14/14 15/15/15 13/13/13
f 14/14/14 16/16/16 15/15/15
f 18/18/18 19/19/19 17/17/17
f 18/18/18 20/20/20 19/19/19
f 22/22/22 23/23/23 21/21/21
f 22/22/22 24/24/24 23/23/23
f 26/26/26 27/27/27 25/25/25
f 26/26/26 28/28/28 27/27/27
f 30/30/30 31/31/31 29/29/29
f 30/30/30 32/32/32 31/31/31
f 34/34/34 35/35/35 33/33/33
f 34/34/34 36/36/36 35/35/35
f 38/38/38 39/39/39 37/37/37
f 38/38/38 40/40/40 39/39/39
f 42/42/42 43/43/43 41/41/41
f 42/42/42 44/44/44 43/43/43
f 46/46/46 47/47/47 45/45/45
f 46/46/46 48/48/48 47/47/47
f 50/50/50 51/51/51 49/49/49
f 50/50/50 52/52/52 51/51/51
f 54/54/54 55/55/55 53/53/53
f 54/54/54 56/56/56 55/55/55
f 58/58/58 59/59/59 57/57/57
f 58/58/58 60/60/60 59/59/59
f 62/62/62 63/63/63 61/61/61
f 62/62/62 64/64/64 63/63/63
f 66/66/66 67/67/67 65/65/65
f 66/66/66 68/68/68 67/67/67
f 70/70/70 71/71/71 69/69/69
f 70/70/70 72/72/72 71/71/71
f 74/74/74 75/75/75 73/73/73
f 74/74/74 76/76/76 75/75/75
f 78/78/78 79/79/79 77/77/77
f 78/78/78 80/80/80 79/79/79
f 82/82/82 83/83/83 81/81/81
f 82/82/82 84/84/84 83/83/83
f 86/86/86 87/87/87 85/85/85
f 86/86/86 88/88/88 87/87/87
f 90/90/90 91/91/91 89/89/89
f 90/90/90 92/92/92 91/91/91
f 94/94/94 95/95/95 93/93/93
f 94/94/94 96/96/96 95/95/95
f 98/98/98 99/99/99 97/97/97
f 98/98/98 100/100/100 99/99/99
f 102/102/102 103/103/103 101/101/101
f 102/102/102 104/104/104 103/103/103
f 106/106/106 107/107/107 105/105/105
f 106/106/106 108/108/108 107/107/107
