g Grass_1_Cluster185
v 126.575 0.0637207 260.9555
v 125.7735 0.0637207 260.9555
v 126.575 0.0637207 261.757
v 125.7735 0.0637207 261.757
v 126.9757 0.0637207 256.1464
v 126.1742 0.0637207 256.1464
v 126.9757 0.0637207 257.3487
v 126.1742 0.0637207 257.3487
v 126.575 0.0637207 254.1427
v 125.3727 0.0637207 254.1427
v 126.575 0.0637207 254.9442
v 125.3727 0.0637207 254.9442
v 127.7773 0.0637207 253.3411
v 126.9757 0.0637207 253.3411
v 127.7773 0.0637207 254.1427
v 126.9757 0.0637207 254.1427
v 128.5788 0.0637207 252.5396
v 127.7773 0.0637207 252.5396
v 128.5788 0.0637207 253.3411
v 127.7773 0.0637207 253.3411
v 143.8075 0.0637207 236.5094
v 143.006 0.0637207 236.5094
v 143.8075 0.0637207 237.3109
v 143.006 0.0637207 237.3109
v 148.2158 0.0637207 235.7079
v 147.4143 0.0637207 235.7079
v 148.2158 0.0637207 236.9102
v 147.4143 0.0637207 236.9102
v 128.5788 0.0637207 234.5056
v 127.3765 0.0637207 234.5056
v 128.5788 0.0637207 235.3071
v 127.3765 0.0637207 235.3071
v 127.3765 0.0637207 233.7041
v 126.575 0.0637207 233.7041
v 127.3765 0.0637207 234.5056
v 126.575 0.0637207 234.5056
vt 0.06738281 0.9369141
vt 0.1331457 0.9369141
vt 0.06738281 0.9990234
vt 0.1331457 0.9990234
vt 0.06738281 0.9369141
vt 0.1331457 0.9369141
vt 0.06738281 0.9990234
vt 0.1331457 0.9990234
vt 0.06738281 0.9369141
vt 0.1331457 0.9369141
vt 0.06738281 0.9990234
vt 0.1331457 0.9990234
vt 0.06738281 0.9369141
vt 0.1331457 0.9369141
vt 0.06738281 0.9990234
vt 0.1331457 0.9990234
vt 0.06738281 0.9369141
vt 0.1331457 0.9369141
vt 0.06738281 0.9990234
vt 0.1331457 0.9990234
vt 0.06738281 0.9369141
vt 0.1331457 0.9369141
vt 0.06738281 0.9990234
vt 0.1331457 0.9990234
vt 0.06738281 0.9369141
vt 0.1331457 0.9369141
vt 0.06738281 0.9990234
vt 0.1331457 0.9990234
vt 0.06738281 0.9369141
vt 0.1331457 0.9369141
vt 0.06738281 0.9990234
vt 0.1331457 0.9990234
vt 0.06738281 0.9369141
vt 0.1331457 0.9369141
vt 0.06738281 0.9990234
vt 0.1331457 0.9990234
vn 0 1 0
vn 0 1 0
vn 0 1 0
vn 0 1 0
vn 0 1 0
vn 0 1 0
vn 0 1 0
vn 0 1 0
vn 0 1 0
vn 0 1 0
vn 0 1 0
vn 0 1 0
vn 0 1 0
vn 0 1 0
vn 0 1 0
vn 0 1 0
vn 0 1 0
vn 0 1 0
vn 0 1 0
vn 0 1 0
vn 0 1 0
vn 0 1 0
vn 0 1 0
vn 0 1 0
vn 0 1 0
vn 0 1 0
vn 0 1 0
vn 0 1 0
vn 0 1 0
vn 0 1 0
vn 0 1 0
vn 0 1 0
vn 0 1 0
vn 0 1 0
vn 0 1 0
vn 0 1 0
g Grass_1_Cluster185_0
f 2/2/2 3/3/3 1/1/1
f 2/2/2 4/4/4 3/3/3
f 6/6/6 7/7/7 5/5/5
f 6/6/6 8/8/8 7/7/7
f 10/10/10 11/11/11 9/9/9
f 10/10/10 12/12/12 11/11/11
f 14/14/14 15/15/15 13/13/13
f 14/14/14 16/16/16 15/15/15
f 18/18/18 19/19/19 17/17/17
f 18/18/18 20/20/20 19/19/19
f 22/22/22 23/23/23 21/21/21
f 22/22/22 24/24/24 23/23/23
f 26/26/26 27/27/27 25/25/25
f 26/26/26 28/28/28 27/27/27
f 30/30/30 31/31/31 29/29/29
f 30/30/30 32/32/32 31/31/31
f 34/34/34 35/35/35 33/33/33
f 34/34/34 36/36/36 35/35/35
