g Grass_1_Cluster68
v 50.62897 0.05453491 82.46788
v 49.78659 0.05453491 82.46788
v 50.62897 0.05453491 83.31027
v 49.78659 0.05453491 83.31027
v 58.91243 0.05453491 79.80032
v 58.07004 0.05453491 79.80032
v 58.91243 0.05453491 80.50232
v 58.07004 0.05453491 80.50232
v 56.52567 0.05453491 78.53674
v 55.54288 0.05453491 78.53674
v 56.52567 0.05453491 79.37914
v 55.54288 0.05453491 79.37914
v 59.05283 0.05453491 78.53674
v 58.21044 0.05453491 78.53674
v 59.05283 0.05453491 79.37914
v 58.21044 0.05453491 79.37914
v 60.3164 0.05453491 77.97516
v 59.33362 0.05453491 77.97516
v 60.3164 0.05453491 78.81755
v 59.33362 0.05453491 78.81755
v 56.80647 0.05453491 77.69437
v 55.96408 0.05453491 77.69437
v 56.80647 0.05453491 78.39635
v 55.96408 0.05453491 78.39635
v 57.92965 0.05453491 74.46523
v 57.08726 0.05453491 74.46523
v 57.92965 0.05453491 75.16721
v 57.08726 0.05453491 75.16721
v 57.50845 0.05453491 73.90363
v 56.66607 0.05453491 73.90363
v 57.50845 0.05453491 74.60562
v 56.66607 0.05453491 74.60562
v 32.93888 0.05453491 70.53409
v 32.0965 0.05453491 70.53409
v 32.93888 0.05453491 71.37648
v 32.0965 0.05453491 71.37648
v 47.96142 0.05453491 62.39104
v 46.97864 0.05453491 62.39104
v 47.96142 0.05453491 63.23343
v 46.97864 0.05453491 63.23343
v 46.69784 0.05453491 62.25064
v 45.85546 0.05453491 62.25064
v 46.69784 0.05453491 63.09302
v 45.85546 0.05453491 63.09302
v 44.17068 0.05453491 60.56587
v 43.3283 0.05453491 60.56587
v 44.17068 0.05453491 61.40825
v 43.3283 0.05453491 61.40825
v 48.10182 0.05453491 60.56587
v 47.25943 0.05453491 60.56587
v 48.10182 0.05453491 61.26786
v 47.25943 0.05453491 61.26786
v 46.97864 0.05453491 60.28508
v 45.99585 0.05453491 60.28508
v 46.97864 0.05453491 61.12746
v 45.99585 0.05453491 61.12746
v 45.43427 0.05453491 59.0215
v 44.45148 0.05453491 59.0215
v 45.43427 0.05453491 59.86388
v 44.45148 0.05453491 59.86388
v 41.50314 0.05453491 58.17911
v 40.66075 0.05453491 58.17911
v 41.50314 0.05453491 59.0215
v 40.66075 0.05453491 59.0215
vt 0.06738281 0.9369141
vt 0.1331457 0.9369141
vt 0.06738281 0.9990234
vt 0.1331457 0.9990234
vt 0.06738281 0.9369141
vt 0.1331457 0.9369141
vt 0.06738281 0.9990234
vt 0.1331457 0.9990234
vt 0.06738281 0.9369141
vt 0.1331457 0.9369141
vt 0.06738281 0.9990234
vt 0.1331457 0.9990234
vt 0.06738281 0.9369141
vt 0.1331457 0.9369141
vt 0.06738281 0.9990234
vt 0.1331457 0.9990234
vt 0.06738281 0.9369141
vt 0.1331457 0.9369141
vt 0.06738281 0.9990234
vt 0.1331457 0.9990234
vt 0.06738281 0.9369141
vt 0.1331457 0.9369141
vt 0.06738281 0.9990234
vt 0.1331457 0.9990234
vt 0.06738281 0.9369141
vt 0.1331457 0.9369141
vt 0.06738281 0.9990234
vt 0.1331457 0.9990234
vt 0.06738281 0.9369141
vt 0.1331457 0.9369141
vt 0.06738281 0.9990234
vt 0.1331457 0.9990234
vt 0.06738281 0.9369141
vt 0.1331457 0.9369141
vt 0.06738281 0.9990234
vt 0.1331457 0.9990234
vt 0.06738281 0.9369141
vt 0.1331457 0.9369141
vt 0.06738281 0.9990234
vt 0.1331457 0.9990234
vt 0.06738281 0.9369141
vt 0.1331457 0.9369141
vt 0.06738281 0.9990234
vt 0.1331457 0.9990234
vt 0.06738281 0.9369141
vt 0.1331457 0.9369141
vt 0.06738281 0.9990234
vt 0.1331457 0.9990234
vt 0.06738281 0.9369141
vt 0.1331457 0.9369141
vt 0.06738281 0.9990234
vt 0.1331457 0.9990234
vt 0.06738281 0.9369141
vt 0.1331457 0.9369141
vt 0.06738281 0.9990234
vt 0.1331457 0.9990234
vt 0.06738281 0.9369141
vt 0.1331457 0.9369141
vt 0.06738281 0.9990234
vt 0.1331457 0.9990234
vt 0.06738281 0.9369141
vt 0.1331457 0.9369141
vt 0.06738281 0.9990234
vt 0.1331457 0.9990234
vn 0 1 0
vn 0 1 0
vn 0 1 0
vn 0 1 0
vn 0 1 0
vn 0 1 0
vn 0 1 0
vn 0 1 0
vn 0 1 0
vn 0 1 0
vn 0 1 0
vn 0 1 0
vn 0 1 0
vn 0 1 0
vn 0 1 0
vn 0 1 0
vn 0 1 0
vn 0 1 0
vn 0 1 0
vn 0 1 0
vn 0 1 0
vn 0 1 0
vn 0 1 0
vn 0 1 0
vn 0 1 0
vn 0 1 0
vn 0 1 0
vn 0 1 0
vn 0 1 0
vn 0 1 0
vn 0 1 0
vn 0 1 0
vn 0 1 0
vn 0 1 0
vn 0 1 0
vn 0 1 0
vn 0 1 0
vn 0 1 0
vn 0 1 0
vn 0 1 0
vn 0 1 0
vn 0 1 0
vn 0 1 0
vn 0 1 0
vn 0 1 0
vn 0 1 0
vn 0 1 0
vn 0 1 0
vn 0 1 0
vn 0 1 0
vn 0 1 0
vn 0 1 0
vn 0 1 0
vn 0 1 0
vn 0 1 0
vn 0 1 0
vn 0 1 0
vn 0 1 0
vn 0 1 0
vn 0 1 0
vn 0 1 0
vn 0 1 0
vn 0 1 0
vn 0 1 0
g Grass_1_Cluster68_0
f 2/2/2 3/3/3 1/1/1
f 2/2/2 4/4/4 3/3/3
f 6/6/6 7/7/7 5/5/5
f 6/6/6 8/8/8 7/7/7
f 10/10/10 11/11/11 9/9/9
f 10/10/10 12/12/12 11/11/11
f 14/14/14 15/15/15 13/13/13
f 14/14/14 16/16/16 15/15/15
f 18/18/18 19/19/19 17/17/17
f 18/18/18 20/20/20 19/19/19
f 22/22/22 23/23/23 21/21/21
f 22/22/22 24/24/24 23/23/23
f 26/26/26 27/27/27 25/25/25
f 26/26/26 28/28/28 27/27/27
f 30/30/30 31/31/31 29/29/29
f 30/30/30 32/32/32 31/31/31
f 34/34/34 35/35/35 33/33/33
f 34/34/34 36/36/36 35/35/35
f 38/38/38 39/39/39 37/37/37
f 38/38/38 40/40/40 39/39/39
f 42/42/42 43/43/43 41/41/41
f 42/42/42 44/44/44 43/43/43
f 46/46/46 47/47/47 45/45/45
f 46/46/46 48/48/48 47/47/47
f 50/50/50 51/51/51 49/49/49
f 50/50/50 52/52/52 51/51/51
f 54/54/54 55/55/55 53/53/53
f 54/54/54 56/56/56 55/55/55
f 58/58/58 59/59/59 57/57/57
f 58/58/58 60/60/60 59/59/59
f 62/62/62 63/63/63 61/61/61
f 62/62/62 64/64/64 63/63/63
