g Grass_2_Cluster291
v -51.23229 0 405.0925
v -52.42374 0 405.0925
v -51.23229 0 406.284
v -52.42374 0 406.284
v -50.83514 0 404.2982
v -51.62944 0 404.2982
v -50.83514 0 405.4897
v -51.62944 0 405.4897
v -32.96341 0 400.3267
v -34.15486 0 400.3267
v -32.96341 0 401.5182
v -34.15486 0 401.5182
v -48.45224 0 387.2208
v -49.64369 0 387.2208
v -48.45224 0 388.4122
v -49.64369 0 388.4122
vt 0.1347656 0.9185662
vt 0.2060202 0.9185662
vt 0.1347656 1
vt 0.2060202 1
vt 0.1347656 0.9185662
vt 0.2060202 0.9185662
vt 0.1347656 1
vt 0.2060202 1
vt 0.1347656 0.9185662
vt 0.2060202 0.9185662
vt 0.1347656 1
vt 0.2060202 1
vt 0.1347656 0.9185662
vt 0.2060202 0.9185662
vt 0.1347656 1
vt 0.2060202 1
vn 0 1 0
vn 0 1 0
vn 0 1 0
vn 0 1 0
vn 0 1 0
vn 0 1 0
vn 0 1 0
vn 0 1 0
vn 0 1 0
vn 0 1 0
vn 0 1 0
vn 0 1 0
vn 0 1 0
vn 0 1 0
vn 0 1 0
vn 0 1 0
g Grass_2_Cluster291_0
f 2/2/2 3/3/3 1/1/1
f 2/2/2 4/4/4 3/3/3
f 6/6/6 7/7/7 5/5/5
f 6/6/6 8/8/8 7/7/7
f 10/10/10 11/11/11 9/9/9
f 10/10/10 12/12/12 11/11/11
f 14/14/14 15/15/15 13/13/13
f 14/14/14 16/16/16 15/15/15
