g Grass_1_Cluster248
v 43.30968 -0.1843834 352.0727
v 42.5036 -0.1843834 352.0727
v 43.30968 -0.1843834 352.8788
v 42.5036 -0.1843834 352.8788
v 59.43128 -0.1843834 351.6696
v 58.6252 -0.1843834 351.6696
v 59.43128 -0.1843834 352.4757
v 58.6252 -0.1843834 352.4757
v 40.08536 -0.1843834 351.2666
v 39.27927 -0.1843834 351.2666
v 40.08536 -0.1843834 352.0727
v 39.27927 -0.1843834 352.0727
v 41.29448 -0.1843834 350.4605
v 40.08536 -0.1843834 350.4605
v 41.29448 -0.1843834 351.2666
v 40.08536 -0.1843834 351.2666
v 57.01304 -0.1843834 350.4605
v 56.20696 -0.1843834 350.4605
v 57.01304 -0.1843834 350.8636
v 56.20696 -0.1843834 350.8636
v 53.78872 -0.1843834 350.0575
v 52.98264 -0.1843834 350.0575
v 53.78872 -0.1843834 350.8636
v 52.98264 -0.1843834 350.8636
v 50.96744 -0.1843834 350.0575
v 50.16136 -0.1843834 350.0575
v 50.96744 -0.1843834 350.8636
v 50.16136 -0.1843834 350.8636
v 44.5188 -0.1843834 349.6544
v 43.71272 -0.1843834 349.6544
v 44.5188 -0.1843834 350.4605
v 43.71272 -0.1843834 350.4605
v 52.98264 -0.1843834 349.2514
v 52.17656 -0.1843834 349.2514
v 52.98264 -0.1843834 350.0575
v 52.17656 -0.1843834 350.0575
v 54.19176 -0.1843834 346.4301
v 53.38568 -0.1843834 346.4301
v 54.19176 -0.1843834 347.6393
v 53.38568 -0.1843834 347.6393
v 58.22216 -0.1843834 346.4301
v 57.41608 -0.1843834 346.4301
v 58.22216 -0.1843834 347.2362
v 57.41608 -0.1843834 347.2362
v 30.41239 -0.1843834 331.1146
v 29.60631 -0.1843834 331.1146
v 30.41239 -0.1843834 332.3237
v 29.60631 -0.1843834 332.3237
v 32.42759 -0.1843834 330.7116
v 31.62151 -0.1843834 330.7116
v 32.42759 -0.1843834 331.5176
v 31.62151 -0.1843834 331.5176
v 33.63671 -0.1843834 329.9055
v 32.83064 -0.1843834 329.9055
v 33.63671 -0.1843834 330.7116
v 32.83064 -0.1843834 330.7116
v 31.62151 -0.1843834 329.5024
v 30.81543 -0.1843834 329.5024
v 31.62151 -0.1843834 330.3085
v 30.81543 -0.1843834 330.3085
v 52.98264 -0.1843834 329.0994
v 51.77352 -0.1843834 329.0994
v 52.98264 -0.1843834 329.9055
v 51.77352 -0.1843834 329.9055
vt 0.06738281 0.9369141
vt 0.1331457 0.9369141
vt 0.06738281 0.9990234
vt 0.1331457 0.9990234
vt 0.06738281 0.9369141
vt 0.1331457 0.9369141
vt 0.06738281 0.9990234
vt 0.1331457 0.9990234
vt 0.06738281 0.9369141
vt 0.1331457 0.9369141
vt 0.06738281 0.9990234
vt 0.1331457 0.9990234
vt 0.06738281 0.9369141
vt 0.1331457 0.9369141
vt 0.06738281 0.9990234
vt 0.1331457 0.9990234
vt 0.06738281 0.9369141
vt 0.1331457 0.9369141
vt 0.06738281 0.9990234
vt 0.1331457 0.9990234
vt 0.06738281 0.9369141
vt 0.1331457 0.9369141
vt 0.06738281 0.9990234
vt 0.1331457 0.9990234
vt 0.06738281 0.9369141
vt 0.1331457 0.9369141
vt 0.06738281 0.9990234
vt 0.1331457 0.9990234
vt 0.06738281 0.9369141
vt 0.1331457 0.9369141
vt 0.06738281 0.9990234
vt 0.1331457 0.9990234
vt 0.06738281 0.9369141
vt 0.1331457 0.9369141
vt 0.06738281 0.9990234
vt 0.1331457 0.9990234
vt 0.06738281 0.9369141
vt 0.1331457 0.9369141
vt 0.06738281 0.9990234
vt 0.1331457 0.9990234
vt 0.06738281 0.9369141
vt 0.1331457 0.9369141
vt 0.06738281 0.9990234
vt 0.1331457 0.9990234
vt 0.06738281 0.9369141
vt 0.1331457 0.9369141
vt 0.06738281 0.9990234
vt 0.1331457 0.9990234
vt 0.06738281 0.9369141
vt 0.1331457 0.9369141
vt 0.06738281 0.9990234
vt 0.1331457 0.9990234
vt 0.06738281 0.9369141
vt 0.1331457 0.9369141
vt 0.06738281 0.9990234
vt 0.1331457 0.9990234
vt 0.06738281 0.9369141
vt 0.1331457 0.9369141
vt 0.06738281 0.9990234
vt 0.1331457 0.9990234
vt 0.06738281 0.9369141
vt 0.1331457 0.9369141
vt 0.06738281 0.9990234
vt 0.1331457 0.9990234
vn 0 1 0
vn 0 1 0
vn 0 1 0
vn 0 1 0
vn 0 1 0
vn 0 1 0
vn 0 1 0
vn 0 1 0
vn 0 1 0
vn 0 1 0
vn 0 1 0
vn 0 1 0
vn 0 1 0
vn 0 1 0
vn 0 1 0
vn 0 1 0
vn 0 1 0
vn 0 1 0
vn 0 1 0
vn 0 1 0
vn 0 1 0
vn 0 1 0
vn 0 1 0
vn 0 1 0
vn 0 1 0
vn 0 1 0
vn 0 1 0
vn 0 1 0
vn 0 1 0
vn 0 1 0
vn 0 1 0
vn 0 1 0
vn 0 1 0
vn 0 1 0
vn 0 1 0
vn 0 1 0
vn 0 1 0
vn 0 1 0
vn 0 1 0
vn 0 1 0
vn 0 1 0
vn 0 1 0
vn 0 1 0
vn 0 1 0
vn 0 1 0
vn 0 1 0
vn 0 1 0
vn 0 1 0
vn 0 1 0
vn 0 1 0
vn 0 1 0
vn 0 1 0
vn 0 1 0
vn 0 1 0
vn 0 1 0
vn 0 1 0
vn 0 1 0
vn 0 1 0
vn 0 1 0
vn 0 1 0
vn 0 1 0
vn 0 1 0
vn 0 1 0
vn 0 1 0
g Grass_1_Cluster248_0
f 2/2/2 3/3/3 1/1/1
f 2/2/2 4/4/4 3/3/3
f 6/6/6 7/7/7 5/5/5
f 6/6/6 8/8/8 7/7/7
f 10/10/10 11/11/11 9/9/9
f 10/10/10 12/12/12 11/11/11
f 14/14/14 15/15/15 13/13/13
f 14/14/14 16/16/16 15/15/15
f 18/18/18 19/19/19 17/17/17
f 18/18/18 20/20/20 19/19/19
f 22/22/22 23/23/23 21/21/21
f 22/22/22 24/24/24 23/23/23
f 26/26/26 27/27/27 25/25/25
f 26/26/26 28/28/28 27/27/27
f 30/30/30 31/31/31 29/29/29
f 30/30/30 32/32/32 31/31/31
f 34/34/34 35/35/35 33/33/33
f 34/34/34 36/36/36 35/35/35
f 38/38/38 39/39/39 37/37/37
f 38/38/38 40/40/40 39/39/39
f 42/42/42 43/43/43 41/41/41
f 42/42/42 44/44/44 43/43/43
f 46/46/46 47/47/47 45/45/45
f 46/46/46 48/48/48 47/47/47
f 50/50/50 51/51/51 49/49/49
f 50/50/50 52/52/52 51/51/51
f 54/54/54 55/55/55 53/53/53
f 54/54/54 56/56/56 55/55/55
f 58/58/58 59/59/59 57/57/57
f 58/58/58 60/60/60 59/59/59
f 62/62/62 63/63/63 61/61/61
f 62/62/62 64/64/64 63/63/63
