g Grass_2_Cluster243
v 184.8367 -0.2212067 347.7708
v 184.2921 -0.2212067 347.7708
v 184.8367 -0.2212067 348.86
v 184.2921 -0.2212067 348.86
v 196.2731 -0.2212067 340.6912
v 195.1839 -0.2212067 340.6912
v 196.2731 -0.2212067 341.7804
v 195.1839 -0.2212067 341.7804
v 196.2731 -0.2212067 339.602
v 195.1839 -0.2212067 339.602
v 196.2731 -0.2212067 340.6912
v 195.1839 -0.2212067 340.6912
v 194.0947 -0.2212067 339.602
v 193.5501 -0.2212067 339.602
v 194.0947 -0.2212067 340.6912
v 193.5501 -0.2212067 340.6912
v 193.0055 -0.2212067 339.602
v 191.9164 -0.2212067 339.602
v 193.0055 -0.2212067 340.6912
v 191.9164 -0.2212067 340.6912
v 198.996 -0.2212067 339.0574
v 197.9068 -0.2212067 339.0574
v 198.996 -0.2212067 340.1466
v 197.9068 -0.2212067 340.1466
v 195.7285 -0.2212067 338.5128
v 194.6393 -0.2212067 338.5128
v 195.7285 -0.2212067 340.1466
v 194.6393 -0.2212067 340.1466
v 195.7285 -0.2212067 338.5128
v 194.6393 -0.2212067 338.5128
v 195.7285 -0.2212067 339.602
v 194.6393 -0.2212067 339.602
v 192.4609 -0.2212067 338.5128
v 191.3717 -0.2212067 338.5128
v 192.4609 -0.2212067 339.602
v 191.3717 -0.2212067 339.602
v 196.8176 -0.2212067 337.9682
v 195.7285 -0.2212067 337.9682
v 196.8176 -0.2212067 339.0574
v 195.7285 -0.2212067 339.0574
v 193.5501 -0.2212067 337.9682
v 193.0055 -0.2212067 337.9682
v 193.5501 -0.2212067 339.0574
v 193.0055 -0.2212067 339.0574
v 193.0055 -0.2212067 337.9682
v 191.9164 -0.2212067 337.9682
v 193.0055 -0.2212067 339.0574
v 191.9164 -0.2212067 339.0574
v 196.8176 -0.2212067 337.4236
v 196.2731 -0.2212067 337.4236
v 196.8176 -0.2212067 338.5128
v 196.2731 -0.2212067 338.5128
v 193.5501 -0.2212067 337.4236
v 193.0055 -0.2212067 337.4236
v 193.5501 -0.2212067 338.5128
v 193.0055 -0.2212067 338.5128
v 195.7285 -0.2212067 336.8791
v 194.6393 -0.2212067 336.8791
v 195.7285 -0.2212067 337.9682
v 194.6393 -0.2212067 337.9682
v 191.9164 -0.2212067 336.3344
v 190.8272 -0.2212067 336.3344
v 191.9164 -0.2212067 337.4236
v 190.8272 -0.2212067 337.4236
v 196.8176 -0.2212067 336.3344
v 195.7285 -0.2212067 336.3344
v 196.8176 -0.2212067 337.4236
v 195.7285 -0.2212067 337.4236
v 195.1839 -0.2212067 335.7899
v 194.0947 -0.2212067 335.7899
v 195.1839 -0.2212067 336.8791
v 194.0947 -0.2212067 336.8791
v 182.6583 -0.2212067 335.7899
v 181.5692 -0.2212067 335.7899
v 182.6583 -0.2212067 336.8791
v 181.5692 -0.2212067 336.8791
v 193.5501 -0.2212067 335.7899
v 192.4609 -0.2212067 335.7899
v 193.5501 -0.2212067 336.8791
v 192.4609 -0.2212067 336.8791
v 196.2731 -0.2212067 335.7899
v 195.7285 -0.2212067 335.7899
v 196.2731 -0.2212067 336.8791
v 195.7285 -0.2212067 336.8791
v 190.2826 -0.2212067 335.2453
v 189.738 -0.2212067 335.2453
v 190.2826 -0.2212067 336.3344
v 189.738 -0.2212067 336.3344
v 184.2921 -0.2212067 335.2453
v 183.2029 -0.2212067 335.2453
v 184.2921 -0.2212067 336.3344
v 183.2029 -0.2212067 336.3344
v 196.2731 -0.2212067 335.2453
v 195.1839 -0.2212067 335.2453
v 196.2731 -0.2212067 336.3344
v 195.1839 -0.2212067 336.3344
v 190.2826 -0.2212067 335.2453
v 189.1934 -0.2212067 335.2453
v 190.2826 -0.2212067 336.3344
v 189.1934 -0.2212067 336.3344
v 194.0947 -0.2212067 334.7007
v 193.0055 -0.2212067 334.7007
v 194.0947 -0.2212067 335.7899
v 193.0055 -0.2212067 335.7899
v 190.8272 -0.2212067 334.7007
v 190.2826 -0.2212067 334.7007
v 190.8272 -0.2212067 335.7899
v 190.2826 -0.2212067 335.7899
v 195.1839 -0.2212067 334.7007
v 194.0947 -0.2212067 334.7007
v 195.1839 -0.2212067 335.7899
v 194.0947 -0.2212067 335.7899
v 190.2826 -0.2212067 334.1561
v 189.1934 -0.2212067 334.1561
v 190.2826 -0.2212067 335.2453
v 189.1934 -0.2212067 335.2453
v 194.6393 -0.2212067 334.1561
v 193.5501 -0.2212067 334.1561
v 194.6393 -0.2212067 335.2453
v 193.5501 -0.2212067 335.2453
v 181.0246 -0.2212067 334.1561
v 179.9354 -0.2212067 334.1561
v 181.0246 -0.2212067 335.2453
v 179.9354 -0.2212067 335.2453
v 195.1839 -0.2212067 334.1561
v 194.0947 -0.2212067 334.1561
v 195.1839 -0.2212067 334.7007
v 194.0947 -0.2212067 334.7007
v 191.9164 -0.2212067 333.6115
v 191.3717 -0.2212067 333.6115
v 191.9164 -0.2212067 334.7007
v 191.3717 -0.2212067 334.7007
v 196.8176 -0.2212067 333.6115
v 195.7285 -0.2212067 333.6115
v 196.8176 -0.2212067 334.7007
v 195.7285 -0.2212067 334.7007
v 188.6488 -0.2212067 333.6115
v 187.5596 -0.2212067 333.6115
v 188.6488 -0.2212067 334.7007
v 187.5596 -0.2212067 334.7007
v 194.6393 -0.2212067 333.0669
v 194.0947 -0.2212067 333.0669
v 194.6393 -0.2212067 334.1561
v 194.0947 -0.2212067 334.1561
v 193.0055 -0.2212067 333.0669
v 191.9164 -0.2212067 333.0669
v 193.0055 -0.2212067 334.1561
v 191.9164 -0.2212067 334.1561
v 197.3622 -0.2212067 332.5223
v 196.2731 -0.2212067 332.5223
v 197.3622 -0.2212067 333.0669
v 196.2731 -0.2212067 333.0669
v 208.254 -0.2212067 327.0764
v 207.1648 -0.2212067 327.0764
v 208.254 -0.2212067 328.1656
v 207.1648 -0.2212067 328.1656
v 207.1648 -0.2212067 326.5319
v 206.0756 -0.2212067 326.5319
v 207.1648 -0.2212067 327.6211
v 206.0756 -0.2212067 327.6211
v 206.0756 -0.2212067 325.9873
v 205.5311 -0.2212067 325.9873
v 206.0756 -0.2212067 327.0764
v 205.5311 -0.2212067 327.0764
v 208.254 -0.2212067 325.4427
v 207.1648 -0.2212067 325.4427
v 208.254 -0.2212067 326.5319
v 207.1648 -0.2212067 326.5319
v 207.1648 -0.2212067 324.8981
v 206.0756 -0.2212067 324.8981
v 207.1648 -0.2212067 326.5319
v 206.0756 -0.2212067 326.5319
v 205.5311 -0.2212067 325.4427
v 204.4419 -0.2212067 325.4427
v 205.5311 -0.2212067 325.9873
v 204.4419 -0.2212067 325.9873
v 205.5311 -0.2212067 323.8089
v 204.9865 -0.2212067 323.8089
v 205.5311 -0.2212067 324.8981
v 204.9865 -0.2212067 324.8981
v 204.9865 -0.2212067 323.2643
v 204.4419 -0.2212067 323.2643
v 204.9865 -0.2212067 324.3535
v 204.4419 -0.2212067 324.3535
vt 0.1347656 0.9185662
vt 0.2060202 0.9185662
vt 0.1347656 1
vt 0.2060202 1
vt 0.1347656 0.9185662
vt 0.2060202 0.9185662
vt 0.1347656 1
vt 0.2060202 1
vt 0.1347656 0.9185662
vt 0.2060202 0.9185662
vt 0.1347656 1
vt 0.2060202 1
vt 0.1347656 0.9185662
vt 0.2060202 0.9185662
vt 0.1347656 1
vt 0.2060202 1
vt 0.1347656 0.9185662
vt 0.2060202 0.9185662
vt 0.1347656 1
vt 0.2060202 1
vt 0.1347656 0.9185662
vt 0.2060202 0.9185662
vt 0.1347656 1
vt 0.2060202 1
vt 0.1347656 0.9185662
vt 0.2060202 0.9185662
vt 0.1347656 1
vt 0.2060202 1
vt 0.1347656 0.9185662
vt 0.2060202 0.9185662
vt 0.1347656 1
vt 0.2060202 1
vt 0.1347656 0.9185662
vt 0.2060202 0.9185662
vt 0.1347656 1
vt 0.2060202 1
vt 0.1347656 0.9185662
vt 0.2060202 0.9185662
vt 0.1347656 1
vt 0.2060202 1
vt 0.1347656 0.9185662
vt 0.2060202 0.9185662
vt 0.1347656 1
vt 0.2060202 1
vt 0.1347656 0.9185662
vt 0.2060202 0.9185662
vt 0.1347656 1
vt 0.2060202 1
vt 0.1347656 0.9185662
vt 0.2060202 0.9185662
vt 0.1347656 1
vt 0.2060202 1
vt 0.1347656 0.9185662
vt 0.2060202 0.9185662
vt 0.1347656 1
vt 0.2060202 1
vt 0.1347656 0.9185662
vt 0.2060202 0.9185662
vt 0.1347656 1
vt 0.2060202 1
vt 0.1347656 0.9185662
vt 0.2060202 0.9185662
vt 0.1347656 1
vt 0.2060202 1
vt 0.1347656 0.9185662
vt 0.2060202 0.9185662
vt 0.1347656 1
vt 0.2060202 1
vt 0.1347656 0.9185662
vt 0.2060202 0.9185662
vt 0.1347656 1
vt 0.2060202 1
vt 0.1347656 0.9185662
vt 0.2060202 0.9185662
vt 0.1347656 1
vt 0.2060202 1
vt 0.1347656 0.9185662
vt 0.2060202 0.9185662
vt 0.1347656 1
vt 0.2060202 1
vt 0.1347656 0.9185662
vt 0.2060202 0.9185662
vt 0.1347656 1
vt 0.2060202 1
vt 0.1347656 0.9185662
vt 0.2060202 0.9185662
vt 0.1347656 1
vt 0.2060202 1
vt 0.1347656 0.9185662
vt 0.2060202 0.9185662
vt 0.1347656 1
vt 0.2060202 1
vt 0.1347656 0.9185662
vt 0.2060202 0.9185662
vt 0.1347656 1
vt 0.2060202 1
vt 0.1347656 0.9185662
vt 0.2060202 0.9185662
vt 0.1347656 1
vt 0.2060202 1
vt 0.1347656 0.9185662
vt 0.2060202 0.9185662
vt 0.1347656 1
vt 0.2060202 1
vt 0.1347656 0.9185662
vt 0.2060202 0.9185662
vt 0.1347656 1
vt 0.2060202 1
vt 0.1347656 0.9185662
vt 0.2060202 0.9185662
vt 0.1347656 1
vt 0.2060202 1
vt 0.1347656 0.9185662
vt 0.2060202 0.9185662
vt 0.1347656 1
vt 0.2060202 1
vt 0.1347656 0.9185662
vt 0.2060202 0.9185662
vt 0.1347656 1
vt 0.2060202 1
vt 0.1347656 0.9185662
vt 0.2060202 0.9185662
vt 0.1347656 1
vt 0.2060202 1
vt 0.1347656 0.9185662
vt 0.2060202 0.9185662
vt 0.1347656 1
vt 0.2060202 1
vt 0.1347656 0.9185662
vt 0.2060202 0.9185662
vt 0.1347656 1
vt 0.2060202 1
vt 0.1347656 0.9185662
vt 0.2060202 0.9185662
vt 0.1347656 1
vt 0.2060202 1
vt 0.1347656 0.9185662
vt 0.2060202 0.9185662
vt 0.1347656 1
vt 0.2060202 1
vt 0.1347656 0.9185662
vt 0.2060202 0.9185662
vt 0.1347656 1
vt 0.2060202 1
vt 0.1347656 0.9185662
vt 0.2060202 0.9185662
vt 0.1347656 1
vt 0.2060202 1
vt 0.1347656 0.9185662
vt 0.2060202 0.9185662
vt 0.1347656 1
vt 0.2060202 1
vt 0.1347656 0.9185662
vt 0.2060202 0.9185662
vt 0.1347656 1
vt 0.2060202 1
vt 0.1347656 0.9185662
vt 0.2060202 0.9185662
vt 0.1347656 1
vt 0.2060202 1
vt 0.1347656 0.9185662
vt 0.2060202 0.9185662
vt 0.1347656 1
vt 0.2060202 1
vt 0.1347656 0.9185662
vt 0.2060202 0.9185662
vt 0.1347656 1
vt 0.2060202 1
vt 0.1347656 0.9185662
vt 0.2060202 0.9185662
vt 0.1347656 1
vt 0.2060202 1
vt 0.1347656 0.9185662
vt 0.2060202 0.9185662
vt 0.1347656 1
vt 0.2060202 1
vt 0.1347656 0.9185662
vt 0.2060202 0.9185662
vt 0.1347656 1
vt 0.2060202 1
vt 0.1347656 0.9185662
vt 0.2060202 0.9185662
vt 0.1347656 1
vt 0.2060202 1
vn 0 1 0
vn 0 1 0
vn 0 1 0
vn 0 1 0
vn 0 1 0
vn 0 1 0
vn 0 1 0
vn 0 1 0
vn 0 1 0
vn 0 1 0
vn 0 1 0
vn 0 1 0
vn 0 1 0
vn 0 1 0
vn 0 1 0
vn 0 1 0
vn 0 1 0
vn 0 1 0
vn 0 1 0
vn 0 1 0
vn 0 1 0
vn 0 1 0
vn 0 1 0
vn 0 1 0
vn 0 1 0
vn 0 1 0
vn 0 1 0
vn 0 1 0
vn 0 1 0
vn 0 1 0
vn 0 1 0
vn 0 1 0
vn 0 1 0
vn 0 1 0
vn 0 1 0
vn 0 1 0
vn 0 1 0
vn 0 1 0
vn 0 1 0
vn 0 1 0
vn 0 1 0
vn 0 1 0
vn 0 1 0
vn 0 1 0
vn 0 1 0
vn 0 1 0
vn 0 1 0
vn 0 1 0
vn 0 1 0
vn 0 1 0
vn 0 1 0
vn 0 1 0
vn 0 1 0
vn 0 1 0
vn 0 1 0
vn 0 1 0
vn 0 1 0
vn 0 1 0
vn 0 1 0
vn 0 1 0
vn 0 1 0
vn 0 1 0
vn 0 1 0
vn 0 1 0
vn 0 1 0
vn 0 1 0
vn 0 1 0
vn 0 1 0
vn 0 1 0
vn 0 1 0
vn 0 1 0
vn 0 1 0
vn 0 1 0
vn 0 1 0
vn 0 1 0
vn 0 1 0
vn 0 1 0
vn 0 1 0
vn 0 1 0
vn 0 1 0
vn 0 1 0
vn 0 1 0
vn 0 1 0
vn 0 1 0
vn 0 1 0
vn 0 1 0
vn 0 1 0
vn 0 1 0
vn 0 1 0
vn 0 1 0
vn 0 1 0
vn 0 1 0
vn 0 1 0
vn 0 1 0
vn 0 1 0
vn 0 1 0
vn 0 1 0
vn 0 1 0
vn 0 1 0
vn 0 1 0
vn 0 1 0
vn 0 1 0
vn 0 1 0
vn 0 1 0
vn 0 1 0
vn 0 1 0
vn 0 1 0
vn 0 1 0
vn 0 1 0
vn 0 1 0
vn 0 1 0
vn 0 1 0
vn 0 1 0
vn 0 1 0
vn 0 1 0
vn 0 1 0
vn 0 1 0
vn 0 1 0
vn 0 1 0
vn 0 1 0
vn 0 1 0
vn 0 1 0
vn 0 1 0
vn 0 1 0
vn 0 1 0
vn 0 1 0
vn 0 1 0
vn 0 1 0
vn 0 1 0
vn 0 1 0
vn 0 1 0
vn 0 1 0
vn 0 1 0
vn 0 1 0
vn 0 1 0
vn 0 1 0
vn 0 1 0
vn 0 1 0
vn 0 1 0
vn 0 1 0
vn 0 1 0
vn 0 1 0
vn 0 1 0
vn 0 1 0
vn 0 1 0
vn 0 1 0
vn 0 1 0
vn 0 1 0
vn 0 1 0
vn 0 1 0
vn 0 1 0
vn 0 1 0
vn 0 1 0
vn 0 1 0
vn 0 1 0
vn 0 1 0
vn 0 1 0
vn 0 1 0
vn 0 1 0
vn 0 1 0
vn 0 1 0
vn 0 1 0
vn 0 1 0
vn 0 1 0
vn 0 1 0
vn 0 1 0
vn 0 1 0
vn 0 1 0
vn 0 1 0
vn 0 1 0
vn 0 1 0
vn 0 1 0
vn 0 1 0
vn 0 1 0
vn 0 1 0
vn 0 1 0
vn 0 1 0
vn 0 1 0
vn 0 1 0
vn 0 1 0
vn 0 1 0
vn 0 1 0
vn 0 1 0
vn 0 1 0
g Grass_2_Cluster243_0
f 2/2/2 3/3/3 1/1/1
f 2/2/2 4/4/4 3/3/3
f 6/6/6 7/7/7 5/5/5
f 6/6/6 8/8/8 7/7/7
f 10/10/10 11/11/11 9/9/9
f 10/10/10 12/12/12 11/11/11
f 14/14/14 15/15/15 13/13/13
f 14/14/14 16/16/16 15/15/15
f 18/18/18 19/19/19 17/17/17
f 18/18/18 20/20/20 19/19/19
f 22/22/22 23/23/23 21/21/21
f 22/22/22 24/24/24 23/23/23
f 26/26/26 27/27/27 25/25/25
f 26/26/26 28/28/28 27/27/27
f 30/30/30 31/31/31 29/29/29
f 30/30/30 32/32/32 31/31/31
f 34/34/34 35/35/35 33/33/33
f 34/34/34 36/36/36 35/35/35
f 38/38/38 39/39/39 37/37/37
f 38/38/38 40/40/40 39/39/39
f 42/42/42 43/43/43 41/41/41
f 42/42/42 44/44/44 43/43/43
f 46/46/46 47/47/47 45/45/45
f 46/46/46 48/48/48 47/47/47
f 50/50/50 51/51/51 49/49/49
f 50/50/50 52/52/52 51/51/51
f 54/54/54 55/55/55 53/53/53
f 54/54/54 56/56/56 55/55/55
f 58/58/58 59/59/59 57/57/57
f 58/58/58 60/60/60 59/59/59
f 62/62/62 63/63/63 61/61/61
f 62/62/62 64/64/64 63/63/63
f 66/66/66 67/67/67 65/65/65
f 66/66/66 68/68/68 67/67/67
f 70/70/70 71/71/71 69/69/69
f 70/70/70 72/72/72 71/71/71
f 74/74/74 75/75/75 73/73/73
f 74/74/74 76/76/76 75/75/75
f 78/78/78 79/79/79 77/77/77
f 78/78/78 80/80/80 79/79/79
f 82/82/82 83/83/83 81/81/81
f 82/82/82 84/84/84 83/83/83
f 86/86/86 87/87/87 85/85/85
f 86/86/86 88/88/88 87/87/87
f 90/90/90 91/91/91 89/89/89
f 90/90/90 92/92/92 91/91/91
f 94/94/94 95/95/95 93/93/93
f 94/94/94 96/96/96 95/95/95
f 98/98/98 99/99/99 97/97/97
f 98/98/98 100/100/100 99/99/99
f 102/102/102 103/103/103 101/101/101
f 102/102/102 104/104/104 103/103/103
f 106/106/106 107/107/107 105/105/105
f 106/106/106 108/108/108 107/107/107
f 110/110/110 111/111/111 109/109/109
f 110/110/110 112/112/112 111/111/111
f 114/114/114 115/115/115 113/113/113
f 114/114/114 116/116/116 115/115/115
f 118/118/118 119/119/119 117/117/117
f 118/118/118 120/120/120 119/119/119
f 122/122/122 123/123/123 121/121/121
f 122/122/122 124/124/124 123/123/123
f 126/126/126 127/127/127 125/125/125
f 126/126/126 128/128/128 127/127/127
f 130/130/130 131/131/131 129/129/129
f 130/130/130 132/132/132 131/131/131
f 134/134/134 135/135/135 133/133/133
f 134/134/134 136/136/136 135/135/135
f 138/138/138 139/139/139 137/137/137
f 138/138/138 140/140/140 139/139/139
f 142/142/142 143/143/143 141/141/141
f 142/142/142 144/144/144 143/143/143
f 146/146/146 147/147/147 145/145/145
f 146/146/146 148/148/148 147/147/147
f 150/150/150 151/151/151 149/149/149
f 150/150/150 152/152/152 151/151/151
f 154/154/154 155/155/155 153/153/153
f 154/154/154 156/156/156 155/155/155
f 158/158/158 159/159/159 157/157/157
f 158/158/158 160/160/160 159/159/159
f 162/162/162 163/163/163 161/161/161
f 162/162/162 164/164/164 163/163/163
f 166/166/166 167/167/167 165/165/165
f 166/166/166 168/168/168 167/167/167
f 170/170/170 171/171/171 169/169/169
f 170/170/170 172/172/172 171/171/171
f 174/174/174 175/175/175 173/173/173
f 174/174/174 176/176/176 175/175/175
f 178/178/178 179/179/179 177/177/177
f 178/178/178 180/180/180 179/179/179
f 182/182/182 183/183/183 181/181/181
f 182/182/182 184/184/184 183/183/183
