g Grass_0_Cluster195
v -154.4673 0 262.517
v -155.4988 0 262.517
v -154.4673 0 263.8064
v -155.4988 0 263.8064
v -159.6248 0 260.454
v -160.3984 0 260.454
v -159.6248 0 261.4855
v -160.3984 0 261.4855
v -157.5618 0 259.6804
v -158.3354 0 259.6804
v -157.5618 0 260.9698
v -158.3354 0 260.9698
v -169.424 0 259.6804
v -170.1977 0 259.6804
v -169.424 0 260.7119
v -170.1977 0 260.7119
v -159.8827 0 257.8753
v -160.6563 0 257.8753
v -159.8827 0 259.1646
v -160.6563 0 259.1646
v -161.4299 0 255.2965
v -162.4614 0 255.2965
v -161.4299 0 256.5859
v -162.4614 0 256.5859
v -165.8138 0 255.0386
v -166.5874 0 255.0386
v -165.8138 0 256.0701
v -166.5874 0 256.0701
v -167.8768 0 253.4914
v -168.9083 0 253.4914
v -167.8768 0 254.7808
v -168.9083 0 254.7808
v -166.3295 0 253.2335
v -167.361 0 253.2335
v -166.3295 0 254.265
v -167.361 0 254.265
v -168.9083 0 252.202
v -169.6819 0 252.202
v -168.9083 0 253.4914
v -169.6819 0 253.4914
v -169.6819 0 251.9441
v -170.7134 0 251.9441
v -169.6819 0 253.2335
v -170.7134 0 253.2335
v -165.5559 0 251.1705
v -166.3295 0 251.1705
v -165.5559 0 252.202
v -166.3295 0 252.202
v -170.7134 0 250.9126
v -171.7449 0 250.9126
v -170.7134 0 252.202
v -171.7449 0 252.202
v -168.3925 0 250.9126
v -169.1662 0 250.9126
v -168.3925 0 252.202
v -169.1662 0 252.202
v -167.1032 0 250.3969
v -168.1347 0 250.3969
v -167.1032 0 251.6862
v -168.1347 0 251.6862
v -170.1977 0 249.8811
v -170.9713 0 249.8811
v -170.1977 0 251.1705
v -170.9713 0 251.1705
v -168.6504 0 249.6233
v -169.424 0 249.6233
v -168.6504 0 250.9126
v -169.424 0 250.9126
v -153.6936 0 249.6233
v -154.7252 0 249.6233
v -153.6936 0 250.9126
v -154.7252 0 250.9126
v -169.6819 0 249.3654
v -170.4556 0 249.3654
v -169.6819 0 250.6548
v -170.4556 0 250.6548
v -150.0834 0 248.8496
v -150.857 0 248.8496
v -150.0834 0 250.139
v -150.857 0 250.139
v -150.0834 0 248.076
v -151.1149 0 248.076
v -150.0834 0 249.1075
v -151.1149 0 249.1075
v -169.9398 0 247.8181
v -170.9713 0 247.8181
v -169.9398 0 249.1075
v -170.9713 0 249.1075
v -167.6189 0 247.3024
v -168.6504 0 247.3024
v -167.6189 0 248.5918
v -168.6504 0 248.5918
v -151.1149 0 247.3024
v -151.8885 0 247.3024
v -151.1149 0 248.3339
v -151.8885 0 248.3339
v -168.3925 0 246.7866
v -169.1662 0 246.7866
v -168.3925 0 248.076
v -169.1662 0 248.076
v -150.3413 0 246.7866
v -151.3728 0 246.7866
v -150.3413 0 248.076
v -151.3728 0 248.076
v -151.6307 0 245.4973
v -152.4043 0 245.4973
v -151.6307 0 246.7866
v -152.4043 0 246.7866
v -168.9083 0 245.2394
v -169.6819 0 245.2394
v -168.9083 0 246.5287
v -169.6819 0 246.5287
v -165.8138 0 245.2394
v -166.5874 0 245.2394
v -165.8138 0 246.2709
v -166.5874 0 246.2709
v -166.3295 0 244.7236
v -167.1032 0 244.7236
v -166.3295 0 246.013
v -167.1032 0 246.013
v -155.2409 0 244.7236
v -156.0145 0 244.7236
v -155.2409 0 246.013
v -156.0145 0 246.013
v -149.5677 0 244.7236
v -150.5992 0 244.7236
v -149.5677 0 246.013
v -150.5992 0 246.013
v -169.1662 0 244.7236
v -169.9398 0 244.7236
v -169.1662 0 245.7551
v -169.9398 0 245.7551
v -169.424 0 244.4657
v -170.1977 0 244.4657
v -169.424 0 245.7551
v -170.1977 0 245.7551
v -151.8885 0 244.2079
v -152.6622 0 244.2079
v -151.8885 0 245.2394
v -152.6622 0 245.2394
v -167.6189 0 243.6921
v -168.6504 0 243.6921
v -167.6189 0 244.9815
v -168.6504 0 244.9815
v -154.983 0 243.6921
v -155.7567 0 243.6921
v -154.983 0 244.7236
v -155.7567 0 244.7236
v -150.0834 0 243.4342
v -151.1149 0 243.4342
v -150.0834 0 244.4657
v -151.1149 0 244.4657
v -166.8453 0 242.6606
v -167.8768 0 242.6606
v -166.8453 0 243.6921
v -167.8768 0 243.6921
v -152.1464 0 241.6291
v -153.1779 0 241.6291
v -152.1464 0 242.9185
v -153.1779 0 242.9185
v -166.5874 0 241.3712
v -167.361 0 241.3712
v -166.5874 0 242.4027
v -167.361 0 242.4027
v -156.5303 0 241.1134
v -157.3039 0 241.1134
v -156.5303 0 242.4027
v -157.3039 0 242.4027
v -166.0717 0 240.5976
v -167.1032 0 240.5976
v -166.0717 0 241.887
v -167.1032 0 241.887
v -167.8768 0 239.824
v -168.9083 0 239.824
v -167.8768 0 241.1134
v -168.9083 0 241.1134
v -169.9398 0 239.3082
v -170.9713 0 239.3082
v -169.9398 0 240.5976
v -170.9713 0 240.5976
v -167.361 0 237.761
v -168.3925 0 237.761
v -167.361 0 238.7925
v -168.3925 0 238.7925
v -170.7134 0 237.5031
v -171.487 0 237.5031
v -170.7134 0 238.7925
v -171.487 0 238.7925
v -169.6819 0 236.2137
v -170.7134 0 236.2137
v -169.6819 0 237.5031
v -170.7134 0 237.5031
v -170.9713 0 235.4401
v -172.0028 0 235.4401
v -170.9713 0 236.7295
v -172.0028 0 236.7295
v -174.0658 0 235.1822
v -175.0973 0 235.1822
v -174.0658 0 236.4716
v -175.0973 0 236.4716
v -169.424 0 234.9244
v -170.4556 0 234.9244
v -169.424 0 236.2137
v -170.4556 0 236.2137
v -169.9398 0 234.9244
v -170.7134 0 234.9244
v -169.9398 0 236.2137
v -170.7134 0 236.2137
v -171.7449 0 234.4086
v -172.7764 0 234.4086
v -171.7449 0 235.698
v -172.7764 0 235.698
v -171.7449 0 234.1507
v -172.5186 0 234.1507
v -171.7449 0 235.4401
v -172.5186 0 235.4401
v -170.4556 0 234.1507
v -171.2292 0 234.1507
v -170.4556 0 235.4401
v -171.2292 0 235.4401
v -167.1032 0 233.8929
v -167.8768 0 233.8929
v -167.1032 0 235.1822
v -167.8768 0 235.1822
v -171.7449 0 233.8929
v -172.5186 0 233.8929
v -171.7449 0 235.1822
v -172.5186 0 235.1822
v -173.2922 0 233.3771
v -174.0658 0 233.3771
v -173.2922 0 234.4086
v -174.0658 0 234.4086
vt 0 0.9058824
vt 0.06666667 0.9058824
vt 0 1
vt 0.06666667 1
vt 0 0.9058824
vt 0.06666667 0.9058824
vt 0 1
vt 0.06666667 1
vt 0 0.9058824
vt 0.06666667 0.9058824
vt 0 1
vt 0.06666667 1
vt 0 0.9058824
vt 0.06666667 0.9058824
vt 0 1
vt 0.06666667 1
vt 0 0.9058824
vt 0.06666667 0.9058824
vt 0 1
vt 0.06666667 1
vt 0 0.9058824
vt 0.06666667 0.9058824
vt 0 1
vt 0.06666667 1
vt 0 0.9058824
vt 0.06666667 0.9058824
vt 0 1
vt 0.06666667 1
vt 0 0.9058824
vt 0.06666667 0.9058824
vt 0 1
vt 0.06666667 1
vt 0 0.9058824
vt 0.06666667 0.9058824
vt 0 1
vt 0.06666667 1
vt 0 0.9058824
vt 0.06666667 0.9058824
vt 0 1
vt 0.06666667 1
vt 0 0.9058824
vt 0.06666667 0.9058824
vt 0 1
vt 0.06666667 1
vt 0 0.9058824
vt 0.06666667 0.9058824
vt 0 1
vt 0.06666667 1
vt 0 0.9058824
vt 0.06666667 0.9058824
vt 0 1
vt 0.06666667 1
vt 0 0.9058824
vt 0.06666667 0.9058824
vt 0 1
vt 0.06666667 1
vt 0 0.9058824
vt 0.06666667 0.9058824
vt 0 1
vt 0.06666667 1
vt 0 0.9058824
vt 0.06666667 0.9058824
vt 0 1
vt 0.06666667 1
vt 0 0.9058824
vt 0.06666667 0.9058824
vt 0 1
vt 0.06666667 1
vt 0 0.9058824
vt 0.06666667 0.9058824
vt 0 1
vt 0.06666667 1
vt 0 0.9058824
vt 0.06666667 0.9058824
vt 0 1
vt 0.06666667 1
vt 0 0.9058824
vt 0.06666667 0.9058824
vt 0 1
vt 0.06666667 1
vt 0 0.9058824
vt 0.06666667 0.9058824
vt 0 1
vt 0.06666667 1
vt 0 0.9058824
vt 0.06666667 0.9058824
vt 0 1
vt 0.06666667 1
vt 0 0.9058824
vt 0.06666667 0.9058824
vt 0 1
vt 0.06666667 1
vt 0 0.9058824
vt 0.06666667 0.9058824
vt 0 1
vt 0.06666667 1
vt 0 0.9058824
vt 0.06666667 0.9058824
vt 0 1
vt 0.06666667 1
vt 0 0.9058824
vt 0.06666667 0.9058824
vt 0 1
vt 0.06666667 1
vt 0 0.9058824
vt 0.06666667 0.9058824
vt 0 1
vt 0.06666667 1
vt 0 0.9058824
vt 0.06666667 0.9058824
vt 0 1
vt 0.06666667 1
vt 0 0.9058824
vt 0.06666667 0.9058824
vt 0 1
vt 0.06666667 1
vt 0 0.9058824
vt 0.06666667 0.9058824
vt 0 1
vt 0.06666667 1
vt 0 0.9058824
vt 0.06666667 0.9058824
vt 0 1
vt 0.06666667 1
vt 0 0.9058824
vt 0.06666667 0.9058824
vt 0 1
vt 0.06666667 1
vt 0 0.9058824
vt 0.06666667 0.9058824
vt 0 1
vt 0.06666667 1
vt 0 0.9058824
vt 0.06666667 0.9058824
vt 0 1
vt 0.06666667 1
vt 0 0.9058824
vt 0.06666667 0.9058824
vt 0 1
vt 0.06666667 1
vt 0 0.9058824
vt 0.06666667 0.9058824
vt 0 1
vt 0.06666667 1
vt 0 0.9058824
vt 0.06666667 0.9058824
vt 0 1
vt 0.06666667 1
vt 0 0.9058824
vt 0.06666667 0.9058824
vt 0 1
vt 0.06666667 1
vt 0 0.9058824
vt 0.06666667 0.9058824
vt 0 1
vt 0.06666667 1
vt 0 0.9058824
vt 0.06666667 0.9058824
vt 0 1
vt 0.06666667 1
vt 0 0.9058824
vt 0.06666667 0.9058824
vt 0 1
vt 0.06666667 1
vt 0 0.9058824
vt 0.06666667 0.9058824
vt 0 1
vt 0.06666667 1
vt 0 0.9058824
vt 0.06666667 0.9058824
vt 0 1
vt 0.06666667 1
vt 0 0.9058824
vt 0.06666667 0.9058824
vt 0 1
vt 0.06666667 1
vt 0 0.9058824
vt 0.06666667 0.9058824
vt 0 1
vt 0.06666667 1
vt 0 0.9058824
vt 0.06666667 0.9058824
vt 0 1
vt 0.06666667 1
vt 0 0.9058824
vt 0.06666667 0.9058824
vt 0 1
vt 0.06666667 1
vt 0 0.9058824
vt 0.06666667 0.9058824
vt 0 1
vt 0.06666667 1
vt 0 0.9058824
vt 0.06666667 0.9058824
vt 0 1
vt 0.06666667 1
vt 0 0.9058824
vt 0.06666667 0.9058824
vt 0 1
vt 0.06666667 1
vt 0 0.9058824
vt 0.06666667 0.9058824
vt 0 1
vt 0.06666667 1
vt 0 0.9058824
vt 0.06666667 0.9058824
vt 0 1
vt 0.06666667 1
vt 0 0.9058824
vt 0.06666667 0.9058824
vt 0 1
vt 0.06666667 1
vt 0 0.9058824
vt 0.06666667 0.9058824
vt 0 1
vt 0.06666667 1
vt 0 0.9058824
vt 0.06666667 0.9058824
vt 0 1
vt 0.06666667 1
vt 0 0.9058824
vt 0.06666667 0.9058824
vt 0 1
vt 0.06666667 1
vt 0 0.9058824
vt 0.06666667 0.9058824
vt 0 1
vt 0.06666667 1
vt 0 0.9058824
vt 0.06666667 0.9058824
vt 0 1
vt 0.06666667 1
vn 0 1 0
vn 0 1 0
vn 0 1 0
vn 0 1 0
vn 0 1 0
vn 0 1 0
vn 0 1 0
vn 0 1 0
vn 0 1 0
vn 0 1 0
vn 0 1 0
vn 0 1 0
vn 0 1 0
vn 0 1 0
vn 0 1 0
vn 0 1 0
vn 0 1 0
vn 0 1 0
vn 0 1 0
vn 0 1 0
vn 0 1 0
vn 0 1 0
vn 0 1 0
vn 0 1 0
vn 0 1 0
vn 0 1 0
vn 0 1 0
vn 0 1 0
vn 0 1 0
vn 0 1 0
vn 0 1 0
vn 0 1 0
vn 0 1 0
vn 0 1 0
vn 0 1 0
vn 0 1 0
vn 0 1 0
vn 0 1 0
vn 0 1 0
vn 0 1 0
vn 0 1 0
vn 0 1 0
vn 0 1 0
vn 0 1 0
vn 0 1 0
vn 0 1 0
vn 0 1 0
vn 0 1 0
vn 0 1 0
vn 0 1 0
vn 0 1 0
vn 0 1 0
vn 0 1 0
vn 0 1 0
vn 0 1 0
vn 0 1 0
vn 0 1 0
vn 0 1 0
vn 0 1 0
vn 0 1 0
vn 0 1 0
vn 0 1 0
vn 0 1 0
vn 0 1 0
vn 0 1 0
vn 0 1 0
vn 0 1 0
vn 0 1 0
vn 0 1 0
vn 0 1 0
vn 0 1 0
vn 0 1 0
vn 0 1 0
vn 0 1 0
vn 0 1 0
vn 0 1 0
vn 0 1 0
vn 0 1 0
vn 0 1 0
vn 0 1 0
vn 0 1 0
vn 0 1 0
vn 0 1 0
vn 0 1 0
vn 0 1 0
vn 0 1 0
vn 0 1 0
vn 0 1 0
vn 0 1 0
vn 0 1 0
vn 0 1 0
vn 0 1 0
vn 0 1 0
vn 0 1 0
vn 0 1 0
vn 0 1 0
vn 0 1 0
vn 0 1 0
vn 0 1 0
vn 0 1 0
vn 0 1 0
vn 0 1 0
vn 0 1 0
vn 0 1 0
vn 0 1 0
vn 0 1 0
vn 0 1 0
vn 0 1 0
vn 0 1 0
vn 0 1 0
vn 0 1 0
vn 0 1 0
vn 0 1 0
vn 0 1 0
vn 0 1 0
vn 0 1 0
vn 0 1 0
vn 0 1 0
vn 0 1 0
vn 0 1 0
vn 0 1 0
vn 0 1 0
vn 0 1 0
vn 0 1 0
vn 0 1 0
vn 0 1 0
vn 0 1 0
vn 0 1 0
vn 0 1 0
vn 0 1 0
vn 0 1 0
vn 0 1 0
vn 0 1 0
vn 0 1 0
vn 0 1 0
vn 0 1 0
vn 0 1 0
vn 0 1 0
vn 0 1 0
vn 0 1 0
vn 0 1 0
vn 0 1 0
vn 0 1 0
vn 0 1 0
vn 0 1 0
vn 0 1 0
vn 0 1 0
vn 0 1 0
vn 0 1 0
vn 0 1 0
vn 0 1 0
vn 0 1 0
vn 0 1 0
vn 0 1 0
vn 0 1 0
vn 0 1 0
vn 0 1 0
vn 0 1 0
vn 0 1 0
vn 0 1 0
vn 0 1 0
vn 0 1 0
vn 0 1 0
vn 0 1 0
vn 0 1 0
vn 0 1 0
vn 0 1 0
vn 0 1 0
vn 0 1 0
vn 0 1 0
vn 0 1 0
vn 0 1 0
vn 0 1 0
vn 0 1 0
vn 0 1 0
vn 0 1 0
vn 0 1 0
vn 0 1 0
vn 0 1 0
vn 0 1 0
vn 0 1 0
vn 0 1 0
vn 0 1 0
vn 0 1 0
vn 0 1 0
vn 0 1 0
vn 0 1 0
vn 0 1 0
vn 0 1 0
vn 0 1 0
vn 0 1 0
vn 0 1 0
vn 0 1 0
vn 0 1 0
vn 0 1 0
vn 0 1 0
vn 0 1 0
vn 0 1 0
vn 0 1 0
vn 0 1 0
vn 0 1 0
vn 0 1 0
vn 0 1 0
vn 0 1 0
vn 0 1 0
vn 0 1 0
vn 0 1 0
vn 0 1 0
vn 0 1 0
vn 0 1 0
vn 0 1 0
vn 0 1 0
vn 0 1 0
vn 0 1 0
vn 0 1 0
vn 0 1 0
vn 0 1 0
vn 0 1 0
vn 0 1 0
vn 0 1 0
vn 0 1 0
vn 0 1 0
vn 0 1 0
vn 0 1 0
vn 0 1 0
vn 0 1 0
vn 0 1 0
vn 0 1 0
vn 0 1 0
vn 0 1 0
vn 0 1 0
vn 0 1 0
g Grass_0_Cluster195_0
f 2/2/2 3/3/3 1/1/1
f 2/2/2 4/4/4 3/3/3
f 6/6/6 7/7/7 5/5/5
f 6/6/6 8/8/8 7/7/7
f 10/10/10 11/11/11 9/9/9
f 10/10/10 12/12/12 11/11/11
f 14/14/14 15/15/15 13/13/13
f 14/14/14 16/16/16 15/15/15
f 18/18/18 19/19/19 17/17/17
f 18/18/18 20/20/20 19/19/19
f 22/22/22 23/23/23 21/21/21
f 22/22/22 24/24/24 23/23/23
f 26/26/26 27/27/27 25/25/25
f 26/26/26 28/28/28 27/27/27
f 30/30/30 31/31/31 29/29/29
f 30/30/30 32/32/32 31/31/31
f 34/34/34 35/35/35 33/33/33
f 34/34/34 36/36/36 35/35/35
f 38/38/38 39/39/39 37/37/37
f 38/38/38 40/40/40 39/39/39
f 42/42/42 43/43/43 41/41/41
f 42/42/42 44/44/44 43/43/43
f 46/46/46 47/47/47 45/45/45
f 46/46/46 48/48/48 47/47/47
f 50/50/50 51/51/51 49/49/49
f 50/50/50 52/52/52 51/51/51
f 54/54/54 55/55/55 53/53/53
f 54/54/54 56/56/56 55/55/55
f 58/58/58 59/59/59 57/57/57
f 58/58/58 60/60/60 59/59/59
f 62/62/62 63/63/63 61/61/61
f 62/62/62 64/64/64 63/63/63
f 66/66/66 67/67/67 65/65/65
f 66/66/66 68/68/68 67/67/67
f 70/70/70 71/71/71 69/69/69
f 70/70/70 72/72/72 71/71/71
f 74/74/74 75/75/75 73/73/73
f 74/74/74 76/76/76 75/75/75
f 78/78/78 79/79/79 77/77/77
f 78/78/78 80/80/80 79/79/79
f 82/82/82 83/83/83 81/81/81
f 82/82/82 84/84/84 83/83/83
f 86/86/86 87/87/87 85/85/85
f 86/86/86 88/88/88 87/87/87
f 90/90/90 91/91/91 89/89/89
f 90/90/90 92/92/92 91/91/91
f 94/94/94 95/95/95 93/93/93
f 94/94/94 96/96/96 95/95/95
f 98/98/98 99/99/99 97/97/97
f 98/98/98 100/100/100 99/99/99
f 102/102/102 103/103/103 101/101/101
f 102/102/102 104/104/104 103/103/103
f 106/106/106 107/107/107 105/105/105
f 106/106/106 108/108/108 107/107/107
f 110/110/110 111/111/111 109/109/109
f 110/110/110 112/112/112 111/111/111
f 114/114/114 115/115/115 113/113/113
f 114/114/114 116/116/116 115/115/115
f 118/118/118 119/119/119 117/117/117
f 118/118/118 120/120/120 119/119/119
f 122/122/122 123/123/123 121/121/121
f 122/122/122 124/124/124 123/123/123
f 126/126/126 127/127/127 125/125/125
f 126/126/126 128/128/128 127/127/127
f 130/130/130 131/131/131 129/129/129
f 130/130/130 132/132/132 131/131/131
f 134/134/134 135/135/135 133/133/133
f 134/134/134 136/136/136 135/135/135
f 138/138/138 139/139/139 137/137/137
f 138/138/138 140/140/140 139/139/139
f 142/142/142 143/143/143 141/141/141
f 142/142/142 144/144/144 143/143/143
f 146/146/146 147/147/147 145/145/145
f 146/146/146 148/148/148 147/147/147
f 150/150/150 151/151/151 149/149/149
f 150/150/150 152/152/152 151/151/151
f 154/154/154 155/155/155 153/153/153
f 154/154/154 156/156/156 155/155/155
f 158/158/158 159/159/159 157/157/157
f 158/158/158 160/160/160 159/159/159
f 162/162/162 163/163/163 161/161/161
f 162/162/162 164/164/164 163/163/163
f 166/166/166 167/167/167 165/165/165
f 166/166/166 168/168/168 167/167/167
f 170/170/170 171/171/171 169/169/169
f 170/170/170 172/172/172 171/171/171
f 174/174/174 175/175/175 173/173/173
f 174/174/174 176/176/176 175/175/175
f 178/178/178 179/179/179 177/177/177
f 178/178/178 180/180/180 179/179/179
f 182/182/182 183/183/183 181/181/181
f 182/182/182 184/184/184 183/183/183
f 186/186/186 187/187/187 185/185/185
f 186/186/186 188/188/188 187/187/187
f 190/190/190 191/191/191 189/189/189
f 190/190/190 192/192/192 191/191/191
f 194/194/194 195/195/195 193/193/193
f 194/194/194 196/196/196 195/195/195
f 198/198/198 199/199/199 197/197/197
f 198/198/198 200/200/200 199/199/199
f 202/202/202 203/203/203 201/201/201
f 202/202/202 204/204/204 203/203/203
f 206/206/206 207/207/207 205/205/205
f 206/206/206 208/208/208 207/207/207
f 210/210/210 211/211/211 209/209/209
f 210/210/210 212/212/212 211/211/211
f 214/214/214 215/215/215 213/213/213
f 214/214/214 216/216/216 215/215/215
f 218/218/218 219/219/219 217/217/217
f 218/218/218 220/220/220 219/219/219
f 222/222/222 223/223/223 221/221/221
f 222/222/222 224/224/224 223/223/223
f 226/226/226 227/227/227 225/225/225
f 226/226/226 228/228/228 227/227/227
f 230/230/230 231/231/231 229/229/229
f 230/230/230 232/232/232 231/231/231
