g Grass_1_Cluster180
v 299.0127 -0.06500244 262.6133
v 297.9136 -0.06500244 262.6133
v 299.0127 -0.06500244 263.1628
v 297.9136 -0.06500244 263.1628
v 285.2743 -0.06500244 261.5142
v 284.1752 -0.06500244 261.5142
v 285.2743 -0.06500244 262.0638
v 284.1752 -0.06500244 262.0638
v 297.3641 -0.06500244 260.9647
v 296.8145 -0.06500244 260.9647
v 297.3641 -0.06500244 262.0638
v 296.8145 -0.06500244 262.0638
v 286.3734 -0.06500244 260.9647
v 285.2743 -0.06500244 260.9647
v 286.3734 -0.06500244 261.5142
v 285.2743 -0.06500244 261.5142
v 299.0127 -0.06500244 260.4152
v 297.9136 -0.06500244 260.4152
v 299.0127 -0.06500244 260.9647
v 297.9136 -0.06500244 260.9647
v 282.5266 -0.06500244 259.8656
v 281.9771 -0.06500244 259.8656
v 282.5266 -0.06500244 260.4152
v 281.9771 -0.06500244 260.4152
v 295.7155 -0.06500244 259.3161
v 294.6164 -0.06500244 259.3161
v 295.7155 -0.06500244 260.4152
v 294.6164 -0.06500244 260.4152
v 284.7248 -0.06500244 259.3161
v 283.6257 -0.06500244 259.3161
v 284.7248 -0.06500244 259.8656
v 283.6257 -0.06500244 259.8656
v 283.0761 -0.06500244 258.7665
v 281.9771 -0.06500244 258.7665
v 283.0761 -0.06500244 259.3161
v 281.9771 -0.06500244 259.3161
v 272.0854 -0.06500244 248.8749
v 271.5359 -0.06500244 248.8749
v 272.0854 -0.06500244 249.4244
v 271.5359 -0.06500244 249.4244
v 286.3734 -0.06500244 247.2263
v 285.8238 -0.06500244 247.2263
v 286.3734 -0.06500244 248.3254
v 285.8238 -0.06500244 248.3254
v 286.9229 -0.06500244 245.0281
v 286.3734 -0.06500244 245.0281
v 286.9229 -0.06500244 246.1272
v 286.3734 -0.06500244 246.1272
v 288.022 -0.06500244 244.4786
v 286.9229 -0.06500244 244.4786
v 288.022 -0.06500244 245.5777
v 286.9229 -0.06500244 245.5777
v 284.7248 -0.06500244 243.3795
v 283.6257 -0.06500244 243.3795
v 284.7248 -0.06500244 244.4786
v 283.6257 -0.06500244 244.4786
v 289.121 -0.06500244 243.3795
v 288.022 -0.06500244 243.3795
v 289.121 -0.06500244 243.9291
v 288.022 -0.06500244 243.9291
v 288.5715 -0.06500244 242.83
v 287.4724 -0.06500244 242.83
v 288.5715 -0.06500244 243.3795
v 287.4724 -0.06500244 243.3795
v 286.3734 -0.06500244 241.7309
v 285.8238 -0.06500244 241.7309
v 286.3734 -0.06500244 242.2805
v 285.8238 -0.06500244 242.2805
vt 0.06738281 0.9369141
vt 0.1331457 0.9369141
vt 0.06738281 0.9990234
vt 0.1331457 0.9990234
vt 0.06738281 0.9369141
vt 0.1331457 0.9369141
vt 0.06738281 0.9990234
vt 0.1331457 0.9990234
vt 0.06738281 0.9369141
vt 0.1331457 0.9369141
vt 0.06738281 0.9990234
vt 0.1331457 0.9990234
vt 0.06738281 0.9369141
vt 0.1331457 0.9369141
vt 0.06738281 0.9990234
vt 0.1331457 0.9990234
vt 0.06738281 0.9369141
vt 0.1331457 0.9369141
vt 0.06738281 0.9990234
vt 0.1331457 0.9990234
vt 0.06738281 0.9369141
vt 0.1331457 0.9369141
vt 0.06738281 0.9990234
vt 0.1331457 0.9990234
vt 0.06738281 0.9369141
vt 0.1331457 0.9369141
vt 0.06738281 0.9990234
vt 0.1331457 0.9990234
vt 0.06738281 0.9369141
vt 0.1331457 0.9369141
vt 0.06738281 0.9990234
vt 0.1331457 0.9990234
vt 0.06738281 0.9369141
vt 0.1331457 0.9369141
vt 0.06738281 0.9990234
vt 0.1331457 0.9990234
vt 0.06738281 0.9369141
vt 0.1331457 0.9369141
vt 0.06738281 0.9990234
vt 0.1331457 0.9990234
vt 0.06738281 0.9369141
vt 0.1331457 0.9369141
vt 0.06738281 0.9990234
vt 0.1331457 0.9990234
vt 0.06738281 0.9369141
vt 0.1331457 0.9369141
vt 0.06738281 0.9990234
vt 0.1331457 0.9990234
vt 0.06738281 0.9369141
vt 0.1331457 0.9369141
vt 0.06738281 0.9990234
vt 0.1331457 0.9990234
vt 0.06738281 0.9369141
vt 0.1331457 0.9369141
vt 0.06738281 0.9990234
vt 0.1331457 0.9990234
vt 0.06738281 0.9369141
vt 0.1331457 0.9369141
vt 0.06738281 0.9990234
vt 0.1331457 0.9990234
vt 0.06738281 0.9369141
vt 0.1331457 0.9369141
vt 0.06738281 0.9990234
vt 0.1331457 0.9990234
vt 0.06738281 0.9369141
vt 0.1331457 0.9369141
vt 0.06738281 0.9990234
vt 0.1331457 0.9990234
vn 0 1 0
vn 0 1 0
vn 0 1 0
vn 0 1 0
vn 0 1 0
vn 0 1 0
vn 0 1 0
vn 0 1 0
vn 0 1 0
vn 0 1 0
vn 0 1 0
vn 0 1 0
vn 0 1 0
vn 0 1 0
vn 0 1 0
vn 0 1 0
vn 0 1 0
vn 0 1 0
vn 0 1 0
vn 0 1 0
vn 0 1 0
vn 0 1 0
vn 0 1 0
vn 0 1 0
vn 0 1 0
vn 0 1 0
vn 0 1 0
vn 0 1 0
vn 0 1 0
vn 0 1 0
vn 0 1 0
vn 0 1 0
vn 0 1 0
vn 0 1 0
vn 0 1 0
vn 0 1 0
vn 0 1 0
vn 0 1 0
vn 0 1 0
vn 0 1 0
vn 0 1 0
vn 0 1 0
vn 0 1 0
vn 0 1 0
vn 0 1 0
vn 0 1 0
vn 0 1 0
vn 0 1 0
vn 0 1 0
vn 0 1 0
vn 0 1 0
vn 0 1 0
vn 0 1 0
vn 0 1 0
vn 0 1 0
vn 0 1 0
vn 0 1 0
vn 0 1 0
vn 0 1 0
vn 0 1 0
vn 0 1 0
vn 0 1 0
vn 0 1 0
vn 0 1 0
vn 0 1 0
vn 0 1 0
vn 0 1 0
vn 0 1 0
g Grass_1_Cluster180_0
f 2/2/2 3/3/3 1/1/1
f 2/2/2 4/4/4 3/3/3
f 6/6/6 7/7/7 5/5/5
f 6/6/6 8/8/8 7/7/7
f 10/10/10 11/11/11 9/9/9
f 10/10/10 12/12/12 11/11/11
f 14/14/14 15/15/15 13/13/13
f 14/14/14 16/16/16 15/15/15
f 18/18/18 19/19/19 17/17/17
f 18/18/18 20/20/20 19/19/19
f 22/22/22 23/23/23 21/21/21
f 22/22/22 24/24/24 23/23/23
f 26/26/26 27/27/27 25/25/25
f 26/26/26 28/28/28 27/27/27
f 30/30/30 31/31/31 29/29/29
f 30/30/30 32/32/32 31/31/31
f 34/34/34 35/35/35 33/33/33
f 34/34/34 36/36/36 35/35/35
f 38/38/38 39/39/39 37/37/37
f 38/38/38 40/40/40 39/39/39
f 42/42/42 43/43/43 41/41/41
f 42/42/42 44/44/44 43/43/43
f 46/46/46 47/47/47 45/45/45
f 46/46/46 48/48/48 47/47/47
f 50/50/50 51/51/51 49/49/49
f 50/50/50 52/52/52 51/51/51
f 54/54/54 55/55/55 53/53/53
f 54/54/54 56/56/56 55/55/55
f 58/58/58 59/59/59 57/57/57
f 58/58/58 60/60/60 59/59/59
f 62/62/62 63/63/63 61/61/61
f 62/62/62 64/64/64 63/63/63
f 66/66/66 67/67/67 65/65/65
f 66/66/66 68/68/68 67/67/67
