g Grass_1_Cluster146
v 106.1281 0.09584045 199.8832
v 105.2017 0.09584045 199.8832
v 106.1281 0.09584045 200.8096
v 105.2017 0.09584045 200.8096
v 95.93797 0.09584045 192.1635
v 95.0116 0.09584045 192.1635
v 95.93797 0.09584045 193.0898
v 95.0116 0.09584045 193.0898
v 93.15886 0.09584045 181.3558
v 92.23249 0.09584045 181.3558
v 93.15886 0.09584045 181.9734
v 92.23249 0.09584045 181.9734
v 115.083 0.09584045 173.636
v 114.1566 0.09584045 173.636
v 115.083 0.09584045 174.2536
v 114.1566 0.09584045 174.2536
vt 0.06738281 0.9369141
vt 0.1331457 0.9369141
vt 0.06738281 0.9990234
vt 0.1331457 0.9990234
vt 0.06738281 0.9369141
vt 0.1331457 0.9369141
vt 0.06738281 0.9990234
vt 0.1331457 0.9990234
vt 0.06738281 0.9369141
vt 0.1331457 0.9369141
vt 0.06738281 0.9990234
vt 0.1331457 0.9990234
vt 0.06738281 0.9369141
vt 0.1331457 0.9369141
vt 0.06738281 0.9990234
vt 0.1331457 0.9990234
vn 0 1 0
vn 0 1 0
vn 0 1 0
vn 0 1 0
vn 0 1 0
vn 0 1 0
vn 0 1 0
vn 0 1 0
vn 0 1 0
vn 0 1 0
vn 0 1 0
vn 0 1 0
vn 0 1 0
vn 0 1 0
vn 0 1 0
vn 0 1 0
g Grass_1_Cluster146_0
f 2/2/2 3/3/3 1/1/1
f 2/2/2 4/4/4 3/3/3
f 6/6/6 7/7/7 5/5/5
f 6/6/6 8/8/8 7/7/7
f 10/10/10 11/11/11 9/9/9
f 10/10/10 12/12/12 11/11/11
f 14/14/14 15/15/15 13/13/13
f 14/14/14 16/16/16 15/15/15
