g Grass_1_Cluster87
v 85.9195 0.03903961 112.5991
v 85.12543 0.03903961 112.5991
v 85.9195 0.03903961 113.3932
v 85.12543 0.03903961 113.3932
v 84.72839 0.03903961 112.4006
v 83.93431 0.03903961 112.4006
v 84.72839 0.03903961 113.1946
v 83.93431 0.03903961 113.1946
v 87.50764 0.03903961 112.4006
v 86.71358 0.03903961 112.4006
v 87.50764 0.03903961 113.1946
v 86.71358 0.03903961 113.1946
v 88.69876 0.03903961 112.0035
v 87.90469 0.03903961 112.0035
v 88.69876 0.03903961 112.7976
v 87.90469 0.03903961 112.7976
v 67.85431 0.03903961 111.408
v 66.86172 0.03903961 111.408
v 67.85431 0.03903961 112.202
v 66.86172 0.03903961 112.202
v 82.14764 0.03903961 111.0109
v 81.35358 0.03903961 111.0109
v 82.14764 0.03903961 111.805
v 81.35358 0.03903961 111.805
v 85.32394 0.03903961 110.6139
v 84.52987 0.03903961 110.6139
v 85.32394 0.03903961 111.408
v 84.52987 0.03903961 111.408
v 84.13284 0.03903961 110.6139
v 83.33876 0.03903961 110.6139
v 84.13284 0.03903961 111.408
v 83.33876 0.03903961 111.408
v 89.09579 0.03903961 110.0183
v 88.1032 0.03903961 110.0183
v 89.09579 0.03903961 110.8124
v 88.1032 0.03903961 110.8124
v 83.53728 0.03903961 109.4228
v 82.54469 0.03903961 109.4228
v 83.53728 0.03903961 110.2169
v 82.54469 0.03903961 110.2169
v 89.69135 0.03903961 109.2243
v 88.69876 0.03903961 109.2243
v 89.69135 0.03903961 110.0183
v 88.69876 0.03903961 110.0183
v 86.51505 0.03903961 108.2317
v 85.72098 0.03903961 108.2317
v 86.51505 0.03903961 109.2243
v 85.72098 0.03903961 109.2243
v 84.92691 0.03903961 106.6435
v 84.13284 0.03903961 106.6435
v 84.92691 0.03903961 107.4376
v 84.13284 0.03903961 107.4376
v 62.49431 0.03903961 100.8865
v 61.50172 0.03903961 100.8865
v 62.49431 0.03903961 101.8791
v 61.50172 0.03903961 101.8791
v 64.08246 0.03903961 100.2909
v 63.28838 0.03903961 100.2909
v 64.08246 0.03903961 101.2835
v 63.28838 0.03903961 101.2835
vt 0.06738281 0.9369141
vt 0.1331457 0.9369141
vt 0.06738281 0.9990234
vt 0.1331457 0.9990234
vt 0.06738281 0.9369141
vt 0.1331457 0.9369141
vt 0.06738281 0.9990234
vt 0.1331457 0.9990234
vt 0.06738281 0.9369141
vt 0.1331457 0.9369141
vt 0.06738281 0.9990234
vt 0.1331457 0.9990234
vt 0.06738281 0.9369141
vt 0.1331457 0.9369141
vt 0.06738281 0.9990234
vt 0.1331457 0.9990234
vt 0.06738281 0.9369141
vt 0.1331457 0.9369141
vt 0.06738281 0.9990234
vt 0.1331457 0.9990234
vt 0.06738281 0.9369141
vt 0.1331457 0.9369141
vt 0.06738281 0.9990234
vt 0.1331457 0.9990234
vt 0.06738281 0.9369141
vt 0.1331457 0.9369141
vt 0.06738281 0.9990234
vt 0.1331457 0.9990234
vt 0.06738281 0.9369141
vt 0.1331457 0.9369141
vt 0.06738281 0.9990234
vt 0.1331457 0.9990234
vt 0.06738281 0.9369141
vt 0.1331457 0.9369141
vt 0.06738281 0.9990234
vt 0.1331457 0.9990234
vt 0.06738281 0.9369141
vt 0.1331457 0.9369141
vt 0.06738281 0.9990234
vt 0.1331457 0.9990234
vt 0.06738281 0.9369141
vt 0.1331457 0.9369141
vt 0.06738281 0.9990234
vt 0.1331457 0.9990234
vt 0.06738281 0.9369141
vt 0.1331457 0.9369141
vt 0.06738281 0.9990234
vt 0.1331457 0.9990234
vt 0.06738281 0.9369141
vt 0.1331457 0.9369141
vt 0.06738281 0.9990234
vt 0.1331457 0.9990234
vt 0.06738281 0.9369141
vt 0.1331457 0.9369141
vt 0.06738281 0.9990234
vt 0.1331457 0.9990234
vt 0.06738281 0.9369141
vt 0.1331457 0.9369141
vt 0.06738281 0.9990234
vt 0.1331457 0.9990234
vn 0 1 0
vn 0 1 0
vn 0 1 0
vn 0 1 0
vn 0 1 0
vn 0 1 0
vn 0 1 0
vn 0 1 0
vn 0 1 0
vn 0 1 0
vn 0 1 0
vn 0 1 0
vn 0 1 0
vn 0 1 0
vn 0 1 0
vn 0 1 0
vn 0 1 0
vn 0 1 0
vn 0 1 0
vn 0 1 0
vn 0 1 0
vn 0 1 0
vn 0 1 0
vn 0 1 0
vn 0 1 0
vn 0 1 0
vn 0 1 0
vn 0 1 0
vn 0 1 0
vn 0 1 0
vn 0 1 0
vn 0 1 0
vn 0 1 0
vn 0 1 0
vn 0 1 0
vn 0 1 0
vn 0 1 0
vn 0 1 0
vn 0 1 0
vn 0 1 0
vn 0 1 0
vn 0 1 0
vn 0 1 0
vn 0 1 0
vn 0 1 0
vn 0 1 0
vn 0 1 0
vn 0 1 0
vn 0 1 0
vn 0 1 0
vn 0 1 0
vn 0 1 0
vn 0 1 0
vn 0 1 0
vn 0 1 0
vn 0 1 0
vn 0 1 0
vn 0 1 0
vn 0 1 0
vn 0 1 0
g Grass_1_Cluster87_0
f 2/2/2 3/3/3 1/1/1
f 2/2/2 4/4/4 3/3/3
f 6/6/6 7/7/7 5/5/5
f 6/6/6 8/8/8 7/7/7
f 10/10/10 11/11/11 9/9/9
f 10/10/10 12/12/12 11/11/11
f 14/14/14 15/15/15 13/13/13
f 14/14/14 16/16/16 15/15/15
f 18/18/18 19/19/19 17/17/17
f 18/18/18 20/20/20 19/19/19
f 22/22/22 23/23/23 21/21/21
f 22/22/22 24/24/24 23/23/23
f 26/26/26 27/27/27 25/25/25
f 26/26/26 28/28/28 27/27/27
f 30/30/30 31/31/31 29/29/29
f 30/30/30 32/32/32 31/31/31
f 34/34/34 35/35/35 33/33/33
f 34/34/34 36/36/36 35/35/35
f 38/38/38 39/39/39 37/37/37
f 38/38/38 40/40/40 39/39/39
f 42/42/42 43/43/43 41/41/41
f 42/42/42 44/44/44 43/43/43
f 46/46/46 47/47/47 45/45/45
f 46/46/46 48/48/48 47/47/47
f 50/50/50 51/51/51 49/49/49
f 50/50/50 52/52/52 51/51/51
f 54/54/54 55/55/55 53/53/53
f 54/54/54 56/56/56 55/55/55
f 58/58/58 59/59/59 57/57/57
f 58/58/58 60/60/60 59/59/59
