g Grass_1_Cluster305
v 145.3759 0.05787659 442.7327
v 144.7965 0.05787659 442.7327
v 145.3759 0.05787659 443.3122
v 144.7965 0.05787659 443.3122
v 149.4318 0.05787659 442.1533
v 148.273 0.05787659 442.1533
v 149.4318 0.05787659 442.7327
v 148.273 0.05787659 442.7327
v 145.9553 0.05787659 442.1533
v 145.3759 0.05787659 442.1533
v 145.9553 0.05787659 442.7327
v 145.3759 0.05787659 442.7327
v 144.2171 0.05787659 441.5739
v 143.6376 0.05787659 441.5739
v 144.2171 0.05787659 442.7327
v 143.6376 0.05787659 442.7327
v 148.273 0.05787659 441.5739
v 147.6936 0.05787659 441.5739
v 148.273 0.05787659 442.1533
v 147.6936 0.05787659 442.1533
v 144.2171 0.05787659 440.9945
v 143.6376 0.05787659 440.9945
v 144.2171 0.05787659 441.5739
v 143.6376 0.05787659 441.5739
v 147.6936 0.05787659 440.4151
v 146.5347 0.05787659 440.4151
v 147.6936 0.05787659 440.9945
v 146.5347 0.05787659 440.9945
v 148.8524 0.05787659 439.2562
v 148.273 0.05787659 439.2562
v 148.8524 0.05787659 440.4151
v 148.273 0.05787659 440.4151
v 145.3759 0.05787659 438.6768
v 144.7965 0.05787659 438.6768
v 145.3759 0.05787659 439.2562
v 144.7965 0.05787659 439.2562
v 145.9553 0.05787659 438.0974
v 145.3759 0.05787659 438.0974
v 145.9553 0.05787659 438.6768
v 145.3759 0.05787659 438.6768
vt 0.06738281 0.9369141
vt 0.1331457 0.9369141
vt 0.06738281 0.9990234
vt 0.1331457 0.9990234
vt 0.06738281 0.9369141
vt 0.1331457 0.9369141
vt 0.06738281 0.9990234
vt 0.1331457 0.9990234
vt 0.06738281 0.9369141
vt 0.1331457 0.9369141
vt 0.06738281 0.9990234
vt 0.1331457 0.9990234
vt 0.06738281 0.9369141
vt 0.1331457 0.9369141
vt 0.06738281 0.9990234
vt 0.1331457 0.9990234
vt 0.06738281 0.9369141
vt 0.1331457 0.9369141
vt 0.06738281 0.9990234
vt 0.1331457 0.9990234
vt 0.06738281 0.9369141
vt 0.1331457 0.9369141
vt 0.06738281 0.9990234
vt 0.1331457 0.9990234
vt 0.06738281 0.9369141
vt 0.1331457 0.9369141
vt 0.06738281 0.9990234
vt 0.1331457 0.9990234
vt 0.06738281 0.9369141
vt 0.1331457 0.9369141
vt 0.06738281 0.9990234
vt 0.1331457 0.9990234
vt 0.06738281 0.9369141
vt 0.1331457 0.9369141
vt 0.06738281 0.9990234
vt 0.1331457 0.9990234
vt 0.06738281 0.9369141
vt 0.1331457 0.9369141
vt 0.06738281 0.9990234
vt 0.1331457 0.9990234
vn 0 1 0
vn 0 1 0
vn 0 1 0
vn 0 1 0
vn 0 1 0
vn 0 1 0
vn 0 1 0
vn 0 1 0
vn 0 1 0
vn 0 1 0
vn 0 1 0
vn 0 1 0
vn 0 1 0
vn 0 1 0
vn 0 1 0
vn 0 1 0
vn 0 1 0
vn 0 1 0
vn 0 1 0
vn 0 1 0
vn 0 1 0
vn 0 1 0
vn 0 1 0
vn 0 1 0
vn 0 1 0
vn 0 1 0
vn 0 1 0
vn 0 1 0
vn 0 1 0
vn 0 1 0
vn 0 1 0
vn 0 1 0
vn 0 1 0
vn 0 1 0
vn 0 1 0
vn 0 1 0
vn 0 1 0
vn 0 1 0
vn 0 1 0
vn 0 1 0
g Grass_1_Cluster305_0
f 2/2/2 3/3/3 1/1/1
f 2/2/2 4/4/4 3/3/3
f 6/6/6 7/7/7 5/5/5
f 6/6/6 8/8/8 7/7/7
f 10/10/10 11/11/11 9/9/9
f 10/10/10 12/12/12 11/11/11
f 14/14/14 15/15/15 13/13/13
f 14/14/14 16/16/16 15/15/15
f 18/18/18 19/19/19 17/17/17
f 18/18/18 20/20/20 19/19/19
f 22/22/22 23/23/23 21/21/21
f 22/22/22 24/24/24 23/23/23
f 26/26/26 27/27/27 25/25/25
f 26/26/26 28/28/28 27/27/27
f 30/30/30 31/31/31 29/29/29
f 30/30/30 32/32/32 31/31/31
f 34/34/34 35/35/35 33/33/33
f 34/34/34 36/36/36 35/35/35
f 38/38/38 39/39/39 37/37/37
f 38/38/38 40/40/40 39/39/39
