g Grass_2_Cluster31
v -47.07256 -0.01292253 22.80169
v -47.98271 -0.01292253 22.80169
v -47.07256 -0.01292253 23.89388
v -47.98271 -0.01292253 23.89388
v -41.06552 -0.01292253 22.74101
v -41.97567 -0.01292253 22.74101
v -41.06552 -0.01292253 23.77253
v -41.97567 -0.01292253 23.77253
v -44.94886 -0.01292253 22.74101
v -45.85901 -0.01292253 22.74101
v -44.94886 -0.01292253 23.77253
v -45.85901 -0.01292253 23.77253
v -43.79599 -0.01292253 22.55898
v -44.70615 -0.01292253 22.55898
v -43.79599 -0.01292253 23.59049
v -44.70615 -0.01292253 23.59049
v -44.22073 -0.01292253 22.07356
v -45.19156 -0.01292253 22.07356
v -44.22073 -0.01292253 23.16575
v -45.19156 -0.01292253 23.16575
v -47.67933 -0.01292253 21.95221
v -48.58949 -0.01292253 21.95221
v -47.67933 -0.01292253 22.98372
v -48.58949 -0.01292253 22.98372
v -46.34443 -0.01292253 21.7095
v -47.31527 -0.01292253 21.7095
v -46.34443 -0.01292253 22.86237
v -47.31527 -0.01292253 22.86237
v -46.70849 -0.01292253 21.40612
v -47.61865 -0.01292253 21.40612
v -46.70849 -0.01292253 22.43763
v -47.61865 -0.01292253 22.43763
v -58.17648 -0.01292253 15.21704
v -59.14731 -0.01292253 15.21704
v -58.17648 -0.01292253 16.36991
v -59.14731 -0.01292253 16.36991
v -57.75174 -0.01292253 13.33605
v -58.78325 -0.01292253 13.33605
v -57.75174 -0.01292253 14.48892
v -58.78325 -0.01292253 14.48892
v -54.83923 -0.01292253 12.78996
v -55.74939 -0.01292253 12.78996
v -54.83923 -0.01292253 13.82147
v -55.74939 -0.01292253 13.82147
v -55.26397 -0.01292253 10.84829
v -56.23481 -0.01292253 10.84829
v -55.26397 -0.01292253 12.00116
v -56.23481 -0.01292253 12.00116
v -43.85667 -0.01292253 8.663912
v -44.70615 -0.01292253 8.663912
v -43.85667 -0.01292253 9.695423
v -44.70615 -0.01292253 9.695423
v -41.55093 -0.01292253 7.753754
v -42.52177 -0.01292253 7.753754
v -41.55093 -0.01292253 8.845943
v -42.52177 -0.01292253 8.845943
v -43.00719 -0.01292253 7.511045
v -44.0387 -0.01292253 7.511045
v -43.00719 -0.01292253 8.663912
v -44.0387 -0.01292253 8.663912
v -45.73766 -0.01292253 7.025628
v -46.64782 -0.01292253 7.025628
v -45.73766 -0.01292253 8.05714
v -46.64782 -0.01292253 8.05714
v -44.58479 -0.01292253 7.025628
v -45.6163 -0.01292253 7.025628
v -44.58479 -0.01292253 8.117817
v -45.6163 -0.01292253 8.117817
v -44.70615 -0.01292253 6.418857
v -45.6163 -0.01292253 6.418857
v -44.70615 -0.01292253 7.511045
v -45.6163 -0.01292253 7.511045
v -42.58245 -0.01292253 5.872762
v -43.43193 -0.01292253 5.872762
v -42.58245 -0.01292253 6.904274
v -43.43193 -0.01292253 6.904274
v -43.4926 -0.01292253 5.508699
v -44.46344 -0.01292253 5.508699
v -43.4926 -0.01292253 6.600888
v -44.46344 -0.01292253 6.600888
v -46.28375 -0.01292253 5.326668
v -47.25459 -0.01292253 5.326668
v -46.28375 -0.01292253 6.358179
v -47.25459 -0.01292253 6.358179
v -47.61865 -0.01292253 5.26599
v -48.65016 -0.01292253 5.26599
v -47.61865 -0.01292253 6.418857
v -48.65016 -0.01292253 6.418857
v -45.19156 -0.01292253 4.780574
v -46.22308 -0.01292253 4.780574
v -45.19156 -0.01292253 5.994117
v -46.22308 -0.01292253 5.994117
v -45.19156 -0.01292253 3.384999
v -46.10172 -0.01292253 3.384999
v -45.19156 -0.01292253 4.416511
v -46.10172 -0.01292253 4.416511
v -45.73766 -0.01292253 0.9579122
v -46.70849 -0.01292253 0.9579122
v -45.73766 -0.01292253 2.110778
v -46.70849 -0.01292253 2.110778
v -44.8275 -0.01292253 0.8972349
v -45.73766 -0.01292253 0.8972349
v -44.8275 -0.01292253 1.928747
v -45.73766 -0.01292253 1.928747
v -44.22073 -0.01292253 0.2904634
v -45.19156 -0.01292253 0.2904634
v -44.22073 -0.01292253 1.382653
v -45.19156 -0.01292253 1.382653
v -41.67229 -0.01292253 -0.2556312
v -42.64312 -0.01292253 -0.2556312
v -41.67229 -0.01292253 0.8365579
v -42.64312 -0.01292253 0.8365579
v -44.8275 -0.01292253 -0.983757
v -45.73766 -0.01292253 -0.983757
v -44.8275 -0.01292253 0.1084318
v -45.73766 -0.01292253 0.1084318
v -44.09937 -0.01292253 -1.226466
v -45.00953 -0.01292253 -1.226466
v -44.09937 -0.01292253 -0.1949539
v -45.00953 -0.01292253 -0.1949539
v -45.19156 -0.01292253 -1.529852
v -46.1624 -0.01292253 -1.529852
v -45.19156 -0.01292253 -0.3769853
v -46.1624 -0.01292253 -0.3769853
v -42.64312 -0.01292253 -1.651206
v -43.61396 -0.01292253 -1.651206
v -42.64312 -0.01292253 -0.4983397
v -43.61396 -0.01292253 -0.4983397
v -44.94886 -0.01292253 -1.893914
v -45.85901 -0.01292253 -1.893914
v -44.94886 -0.01292253 -0.8624027
v -45.85901 -0.01292253 -0.8624027
v -46.34443 -0.01292253 -2.318655
v -47.31527 -0.01292253 -2.318655
v -46.34443 -0.01292253 -1.165789
v -47.31527 -0.01292253 -1.165789
v -44.40276 -0.01292253 -2.925426
v -45.31292 -0.01292253 -2.925426
v -44.40276 -0.01292253 -1.833237
v -45.31292 -0.01292253 -1.833237
vt 0.1347656 0.9185662
vt 0.2060202 0.9185662
vt 0.1347656 1
vt 0.2060202 1
vt 0.1347656 0.9185662
vt 0.2060202 0.9185662
vt 0.1347656 1
vt 0.2060202 1
vt 0.1347656 0.9185662
vt 0.2060202 0.9185662
vt 0.1347656 1
vt 0.2060202 1
vt 0.1347656 0.9185662
vt 0.2060202 0.9185662
vt 0.1347656 1
vt 0.2060202 1
vt 0.1347656 0.9185662
vt 0.2060202 0.9185662
vt 0.1347656 1
vt 0.2060202 1
vt 0.1347656 0.9185662
vt 0.2060202 0.9185662
vt 0.1347656 1
vt 0.2060202 1
vt 0.1347656 0.9185662
vt 0.2060202 0.9185662
vt 0.1347656 1
vt 0.2060202 1
vt 0.1347656 0.9185662
vt 0.2060202 0.9185662
vt 0.1347656 1
vt 0.2060202 1
vt 0.1347656 0.9185662
vt 0.2060202 0.9185662
vt 0.1347656 1
vt 0.2060202 1
vt 0.1347656 0.9185662
vt 0.2060202 0.9185662
vt 0.1347656 1
vt 0.2060202 1
vt 0.1347656 0.9185662
vt 0.2060202 0.9185662
vt 0.1347656 1
vt 0.2060202 1
vt 0.1347656 0.9185662
vt 0.2060202 0.9185662
vt 0.1347656 1
vt 0.2060202 1
vt 0.1347656 0.9185662
vt 0.2060202 0.9185662
vt 0.1347656 1
vt 0.2060202 1
vt 0.1347656 0.9185662
vt 0.2060202 0.9185662
vt 0.1347656 1
vt 0.2060202 1
vt 0.1347656 0.9185662
vt 0.2060202 0.9185662
vt 0.1347656 1
vt 0.2060202 1
vt 0.1347656 0.9185662
vt 0.2060202 0.9185662
vt 0.1347656 1
vt 0.2060202 1
vt 0.1347656 0.9185662
vt 0.2060202 0.9185662
vt 0.1347656 1
vt 0.2060202 1
vt 0.1347656 0.9185662
vt 0.2060202 0.9185662
vt 0.1347656 1
vt 0.2060202 1
vt 0.1347656 0.9185662
vt 0.2060202 0.9185662
vt 0.1347656 1
vt 0.2060202 1
vt 0.1347656 0.9185662
vt 0.2060202 0.9185662
vt 0.1347656 1
vt 0.2060202 1
vt 0.1347656 0.9185662
vt 0.2060202 0.9185662
vt 0.1347656 1
vt 0.2060202 1
vt 0.1347656 0.9185662
vt 0.2060202 0.9185662
vt 0.1347656 1
vt 0.2060202 1
vt 0.1347656 0.9185662
vt 0.2060202 0.9185662
vt 0.1347656 1
vt 0.2060202 1
vt 0.1347656 0.9185662
vt 0.2060202 0.9185662
vt 0.1347656 1
vt 0.2060202 1
vt 0.1347656 0.9185662
vt 0.2060202 0.9185662
vt 0.1347656 1
vt 0.2060202 1
vt 0.1347656 0.9185662
vt 0.2060202 0.9185662
vt 0.1347656 1
vt 0.2060202 1
vt 0.1347656 0.9185662
vt 0.2060202 0.9185662
vt 0.1347656 1
vt 0.2060202 1
vt 0.1347656 0.9185662
vt 0.2060202 0.9185662
vt 0.1347656 1
vt 0.2060202 1
vt 0.1347656 0.9185662
vt 0.2060202 0.9185662
vt 0.1347656 1
vt 0.2060202 1
vt 0.1347656 0.9185662
vt 0.2060202 0.9185662
vt 0.1347656 1
vt 0.2060202 1
vt 0.1347656 0.9185662
vt 0.2060202 0.9185662
vt 0.1347656 1
vt 0.2060202 1
vt 0.1347656 0.9185662
vt 0.2060202 0.9185662
vt 0.1347656 1
vt 0.2060202 1
vt 0.1347656 0.9185662
vt 0.2060202 0.9185662
vt 0.1347656 1
vt 0.2060202 1
vt 0.1347656 0.9185662
vt 0.2060202 0.9185662
vt 0.1347656 1
vt 0.2060202 1
vt 0.1347656 0.9185662
vt 0.2060202 0.9185662
vt 0.1347656 1
vt 0.2060202 1
vn 0 1 0
vn 0 1 0
vn 0 1 0
vn 0 1 0
vn 0 1 0
vn 0 1 0
vn 0 1 0
vn 0 1 0
vn 0 1 0
vn 0 1 0
vn 0 1 0
vn 0 1 0
vn 0 1 0
vn 0 1 0
vn 0 1 0
vn 0 1 0
vn 0 1 0
vn 0 1 0
vn 0 1 0
vn 0 1 0
vn 0 1 0
vn 0 1 0
vn 0 1 0
vn 0 1 0
vn 0 1 0
vn 0 1 0
vn 0 1 0
vn 0 1 0
vn 0 1 0
vn 0 1 0
vn 0 1 0
vn 0 1 0
vn 0 1 0
vn 0 1 0
vn 0 1 0
vn 0 1 0
vn 0 1 0
vn 0 1 0
vn 0 1 0
vn 0 1 0
vn 0 1 0
vn 0 1 0
vn 0 1 0
vn 0 1 0
vn 0 1 0
vn 0 1 0
vn 0 1 0
vn 0 1 0
vn 0 1 0
vn 0 1 0
vn 0 1 0
vn 0 1 0
vn 0 1 0
vn 0 1 0
vn 0 1 0
vn 0 1 0
vn 0 1 0
vn 0 1 0
vn 0 1 0
vn 0 1 0
vn 0 1 0
vn 0 1 0
vn 0 1 0
vn 0 1 0
vn 0 1 0
vn 0 1 0
vn 0 1 0
vn 0 1 0
vn 0 1 0
vn 0 1 0
vn 0 1 0
vn 0 1 0
vn 0 1 0
vn 0 1 0
vn 0 1 0
vn 0 1 0
vn 0 1 0
vn 0 1 0
vn 0 1 0
vn 0 1 0
vn 0 1 0
vn 0 1 0
vn 0 1 0
vn 0 1 0
vn 0 1 0
vn 0 1 0
vn 0 1 0
vn 0 1 0
vn 0 1 0
vn 0 1 0
vn 0 1 0
vn 0 1 0
vn 0 1 0
vn 0 1 0
vn 0 1 0
vn 0 1 0
vn 0 1 0
vn 0 1 0
vn 0 1 0
vn 0 1 0
vn 0 1 0
vn 0 1 0
vn 0 1 0
vn 0 1 0
vn 0 1 0
vn 0 1 0
vn 0 1 0
vn 0 1 0
vn 0 1 0
vn 0 1 0
vn 0 1 0
vn 0 1 0
vn 0 1 0
vn 0 1 0
vn 0 1 0
vn 0 1 0
vn 0 1 0
vn 0 1 0
vn 0 1 0
vn 0 1 0
vn 0 1 0
vn 0 1 0
vn 0 1 0
vn 0 1 0
vn 0 1 0
vn 0 1 0
vn 0 1 0
vn 0 1 0
vn 0 1 0
vn 0 1 0
vn 0 1 0
vn 0 1 0
vn 0 1 0
vn 0 1 0
vn 0 1 0
vn 0 1 0
vn 0 1 0
vn 0 1 0
vn 0 1 0
vn 0 1 0
g Grass_2_Cluster31_0
f 2/2/2 3/3/3 1/1/1
f 2/2/2 4/4/4 3/3/3
f 6/6/6 7/7/7 5/5/5
f 6/6/6 8/8/8 7/7/7
f 10/10/10 11/11/11 9/9/9
f 10/10/10 12/12/12 11/11/11
f 14/14/14 15/15/15 13/13/13
f 14/14/14 16/16/16 15/15/15
f 18/18/18 19/19/19 17/17/17
f 18/18/18 20/20/20 19/19/19
f 22/22/22 23/23/23 21/21/21
f 22/22/22 24/24/24 23/23/23
f 26/26/26 27/27/27 25/25/25
f 26/26/26 28/28/28 27/27/27
f 30/30/30 31/31/31 29/29/29
f 30/30/30 32/32/32 31/31/31
f 34/34/34 35/35/35 33/33/33
f 34/34/34 36/36/36 35/35/35
f 38/38/38 39/39/39 37/37/37
f 38/38/38 40/40/40 39/39/39
f 42/42/42 43/43/43 41/41/41
f 42/42/42 44/44/44 43/43/43
f 46/46/46 47/47/47 45/45/45
f 46/46/46 48/48/48 47/47/47
f 50/50/50 51/51/51 49/49/49
f 50/50/50 52/52/52 51/51/51
f 54/54/54 55/55/55 53/53/53
f 54/54/54 56/56/56 55/55/55
f 58/58/58 59/59/59 57/57/57
f 58/58/58 60/60/60 59/59/59
f 62/62/62 63/63/63 61/61/61
f 62/62/62 64/64/64 63/63/63
f 66/66/66 67/67/67 65/65/65
f 66/66/66 68/68/68 67/67/67
f 70/70/70 71/71/71 69/69/69
f 70/70/70 72/72/72 71/71/71
f 74/74/74 75/75/75 73/73/73
f 74/74/74 76/76/76 75/75/75
f 78/78/78 79/79/79 77/77/77
f 78/78/78 80/80/80 79/79/79
f 82/82/82 83/83/83 81/81/81
f 82/82/82 84/84/84 83/83/83
f 86/86/86 87/87/87 85/85/85
f 86/86/86 88/88/88 87/87/87
f 90/90/90 91/91/91 89/89/89
f 90/90/90 92/92/92 91/91/91
f 94/94/94 95/95/95 93/93/93
f 94/94/94 96/96/96 95/95/95
f 98/98/98 99/99/99 97/97/97
f 98/98/98 100/100/100 99/99/99
f 102/102/102 103/103/103 101/101/101
f 102/102/102 104/104/104 103/103/103
f 106/106/106 107/107/107 105/105/105
f 106/106/106 108/108/108 107/107/107
f 110/110/110 111/111/111 109/109/109
f 110/110/110 112/112/112 111/111/111
f 114/114/114 115/115/115 113/113/113
f 114/114/114 116/116/116 115/115/115
f 118/118/118 119/119/119 117/117/117
f 118/118/118 120/120/120 119/119/119
f 122/122/122 123/123/123 121/121/121
f 122/122/122 124/124/124 123/123/123
f 126/126/126 127/127/127 125/125/125
f 126/126/126 128/128/128 127/127/127
f 130/130/130 131/131/131 129/129/129
f 130/130/130 132/132/132 131/131/131
f 134/134/134 135/135/135 133/133/133
f 134/134/134 136/136/136 135/135/135
f 138/138/138 139/139/139 137/137/137
f 138/138/138 140/140/140 139/139/139
