g Grass_0_Cluster266
v 109.5687 -0.05306244 376.7385
v 108.6038 -0.05306244 376.7385
v 109.5687 -0.05306244 378.1858
v 108.6038 -0.05306244 378.1858
v 96.06012 -0.05306244 374.8087
v 95.09523 -0.05306244 374.8087
v 96.06012 -0.05306244 376.256
v 95.09523 -0.05306244 376.256
v 107.1564 -0.05306244 374.8087
v 106.1915 -0.05306244 374.8087
v 107.1564 -0.05306244 375.7736
v 106.1915 -0.05306244 375.7736
v 107.6389 -0.05306244 373.3613
v 106.674 -0.05306244 373.3613
v 107.6389 -0.05306244 374.8087
v 106.674 -0.05306244 374.8087
v 99.43726 -0.05306244 373.3613
v 98.47236 -0.05306244 373.3613
v 99.43726 -0.05306244 374.3262
v 98.47236 -0.05306244 374.3262
v 108.1213 -0.05306244 372.8789
v 107.1564 -0.05306244 372.8789
v 108.1213 -0.05306244 373.8438
v 107.1564 -0.05306244 373.8438
v 109.0862 -0.05306244 372.3965
v 108.1213 -0.05306244 372.3965
v 109.0862 -0.05306244 373.8438
v 108.1213 -0.05306244 373.8438
v 112.9458 -0.05306244 371.4315
v 111.9809 -0.05306244 371.4315
v 112.9458 -0.05306244 372.3965
v 111.9809 -0.05306244 372.3965
v 108.1213 -0.05306244 371.4315
v 107.1564 -0.05306244 371.4315
v 108.1213 -0.05306244 372.8789
v 107.1564 -0.05306244 372.8789
v 109.5687 -0.05306244 370.9491
v 109.0862 -0.05306244 370.9491
v 109.5687 -0.05306244 371.914
v 109.0862 -0.05306244 371.914
v 96.06012 -0.05306244 370.9491
v 95.57767 -0.05306244 370.9491
v 96.06012 -0.05306244 371.914
v 95.57767 -0.05306244 371.914
v 112.4633 -0.05306244 370.4666
v 111.4984 -0.05306244 370.4666
v 112.4633 -0.05306244 371.914
v 111.4984 -0.05306244 371.914
v 113.9107 -0.05306244 369.5018
v 112.9458 -0.05306244 369.5018
v 113.9107 -0.05306244 370.4666
v 112.9458 -0.05306244 370.4666
v 100.8846 -0.05306244 368.5369
v 99.9197 -0.05306244 368.5369
v 100.8846 -0.05306244 369.5018
v 99.9197 -0.05306244 369.5018
v 111.9809 -0.05306244 368.5369
v 111.016 -0.05306244 368.5369
v 111.9809 -0.05306244 369.5018
v 111.016 -0.05306244 369.5018
v 111.4984 -0.05306244 367.572
v 110.5335 -0.05306244 367.572
v 111.4984 -0.05306244 369.0193
v 110.5335 -0.05306244 369.0193
v 110.5335 -0.05306244 367.0895
v 109.5687 -0.05306244 367.0895
v 110.5335 -0.05306244 368.5369
v 109.5687 -0.05306244 368.5369
v 111.9809 -0.05306244 367.0895
v 111.4984 -0.05306244 367.0895
v 111.9809 -0.05306244 368.0544
v 111.4984 -0.05306244 368.0544
v 105.7091 -0.05306244 366.6071
v 104.7442 -0.05306244 366.6071
v 105.7091 -0.05306244 368.0544
v 104.7442 -0.05306244 368.0544
v 112.9458 -0.05306244 366.1246
v 111.9809 -0.05306244 366.1246
v 112.9458 -0.05306244 367.572
v 111.9809 -0.05306244 367.572
v 114.8756 -0.05306244 365.6422
v 113.9107 -0.05306244 365.6422
v 114.8756 -0.05306244 366.6071
v 113.9107 -0.05306244 366.6071
v 111.016 -0.05306244 365.6422
v 110.0511 -0.05306244 365.6422
v 111.016 -0.05306244 366.6071
v 110.0511 -0.05306244 366.6071
v 111.4984 -0.05306244 364.6773
v 110.5335 -0.05306244 364.6773
v 111.4984 -0.05306244 366.1246
v 110.5335 -0.05306244 366.1246
v 115.358 -0.05306244 364.1948
v 114.3931 -0.05306244 364.1948
v 115.358 -0.05306244 365.6422
v 114.3931 -0.05306244 365.6422
v 114.3931 -0.05306244 363.7124
v 113.4282 -0.05306244 363.7124
v 114.3931 -0.05306244 364.6773
v 113.4282 -0.05306244 364.6773
v 111.4984 -0.05306244 363.2299
v 110.5335 -0.05306244 363.2299
v 111.4984 -0.05306244 364.1948
v 110.5335 -0.05306244 364.1948
v 110.5335 -0.05306244 362.7475
v 110.0511 -0.05306244 362.7475
v 110.5335 -0.05306244 363.7124
v 110.0511 -0.05306244 363.7124
v 103.2968 -0.05306244 359.8528
v 102.8144 -0.05306244 359.8528
v 103.2968 -0.05306244 360.8177
v 102.8144 -0.05306244 360.8177
v 90.7532 -0.05306244 359.3704
v 89.7883 -0.05306244 359.3704
v 90.7532 -0.05306244 360.8177
v 89.7883 -0.05306244 360.8177
v 94.13033 -0.05306244 357.4406
v 93.16544 -0.05306244 357.4406
v 94.13033 -0.05306244 358.4055
v 93.16544 -0.05306244 358.4055
v 93.64789 -0.05306244 355.9932
v 92.68299 -0.05306244 355.9932
v 93.64789 -0.05306244 357.4406
v 92.68299 -0.05306244 357.4406
v 95.09523 -0.05306244 355.9932
v 94.13033 -0.05306244 355.9932
v 95.09523 -0.05306244 356.9581
v 94.13033 -0.05306244 356.9581
v 93.64789 -0.05306244 354.0634
v 93.16544 -0.05306244 354.0634
v 93.64789 -0.05306244 355.0283
v 93.16544 -0.05306244 355.0283
v 102.3319 -0.05306244 354.0634
v 101.367 -0.05306244 354.0634
v 102.3319 -0.05306244 355.0283
v 101.367 -0.05306244 355.0283
v 94.61278 -0.05306244 354.0634
v 93.64789 -0.05306244 354.0634
v 94.61278 -0.05306244 355.0283
v 93.64789 -0.05306244 355.0283
v 99.9197 -0.05306244 353.581
v 98.9548 -0.05306244 353.581
v 99.9197 -0.05306244 355.0283
v 98.9548 -0.05306244 355.0283
v 98.47236 -0.05306244 353.581
v 97.50746 -0.05306244 353.581
v 98.47236 -0.05306244 354.5459
v 97.50746 -0.05306244 354.5459
v 97.02502 -0.05306244 353.0985
v 96.06012 -0.05306244 353.0985
v 97.02502 -0.05306244 354.5459
v 96.06012 -0.05306244 354.5459
v 93.64789 -0.05306244 353.0985
v 92.68299 -0.05306244 353.0985
v 93.64789 -0.05306244 354.5459
v 92.68299 -0.05306244 354.5459
vt 0 0.9058824
vt 0.06666667 0.9058824
vt 0 1
vt 0.06666667 1
vt 0 0.9058824
vt 0.06666667 0.9058824
vt 0 1
vt 0.06666667 1
vt 0 0.9058824
vt 0.06666667 0.9058824
vt 0 1
vt 0.06666667 1
vt 0 0.9058824
vt 0.06666667 0.9058824
vt 0 1
vt 0.06666667 1
vt 0 0.9058824
vt 0.06666667 0.9058824
vt 0 1
vt 0.06666667 1
vt 0 0.9058824
vt 0.06666667 0.9058824
vt 0 1
vt 0.06666667 1
vt 0 0.9058824
vt 0.06666667 0.9058824
vt 0 1
vt 0.06666667 1
vt 0 0.9058824
vt 0.06666667 0.9058824
vt 0 1
vt 0.06666667 1
vt 0 0.9058824
vt 0.06666667 0.9058824
vt 0 1
vt 0.06666667 1
vt 0 0.9058824
vt 0.06666667 0.9058824
vt 0 1
vt 0.06666667 1
vt 0 0.9058824
vt 0.06666667 0.9058824
vt 0 1
vt 0.06666667 1
vt 0 0.9058824
vt 0.06666667 0.9058824
vt 0 1
vt 0.06666667 1
vt 0 0.9058824
vt 0.06666667 0.9058824
vt 0 1
vt 0.06666667 1
vt 0 0.9058824
vt 0.06666667 0.9058824
vt 0 1
vt 0.06666667 1
vt 0 0.9058824
vt 0.06666667 0.9058824
vt 0 1
vt 0.06666667 1
vt 0 0.9058824
vt 0.06666667 0.9058824
vt 0 1
vt 0.06666667 1
vt 0 0.9058824
vt 0.06666667 0.9058824
vt 0 1
vt 0.06666667 1
vt 0 0.9058824
vt 0.06666667 0.9058824
vt 0 1
vt 0.06666667 1
vt 0 0.9058824
vt 0.06666667 0.9058824
vt 0 1
vt 0.06666667 1
vt 0 0.9058824
vt 0.06666667 0.9058824
vt 0 1
vt 0.06666667 1
vt 0 0.9058824
vt 0.06666667 0.9058824
vt 0 1
vt 0.06666667 1
vt 0 0.9058824
vt 0.06666667 0.9058824
vt 0 1
vt 0.06666667 1
vt 0 0.9058824
vt 0.06666667 0.9058824
vt 0 1
vt 0.06666667 1
vt 0 0.9058824
vt 0.06666667 0.9058824
vt 0 1
vt 0.06666667 1
vt 0 0.9058824
vt 0.06666667 0.9058824
vt 0 1
vt 0.06666667 1
vt 0 0.9058824
vt 0.06666667 0.9058824
vt 0 1
vt 0.06666667 1
vt 0 0.9058824
vt 0.06666667 0.9058824
vt 0 1
vt 0.06666667 1
vt 0 0.9058824
vt 0.06666667 0.9058824
vt 0 1
vt 0.06666667 1
vt 0 0.9058824
vt 0.06666667 0.9058824
vt 0 1
vt 0.06666667 1
vt 0 0.9058824
vt 0.06666667 0.9058824
vt 0 1
vt 0.06666667 1
vt 0 0.9058824
vt 0.06666667 0.9058824
vt 0 1
vt 0.06666667 1
vt 0 0.9058824
vt 0.06666667 0.9058824
vt 0 1
vt 0.06666667 1
vt 0 0.9058824
vt 0.06666667 0.9058824
vt 0 1
vt 0.06666667 1
vt 0 0.9058824
vt 0.06666667 0.9058824
vt 0 1
vt 0.06666667 1
vt 0 0.9058824
vt 0.06666667 0.9058824
vt 0 1
vt 0.06666667 1
vt 0 0.9058824
vt 0.06666667 0.9058824
vt 0 1
vt 0.06666667 1
vt 0 0.9058824
vt 0.06666667 0.9058824
vt 0 1
vt 0.06666667 1
vt 0 0.9058824
vt 0.06666667 0.9058824
vt 0 1
vt 0.06666667 1
vt 0 0.9058824
vt 0.06666667 0.9058824
vt 0 1
vt 0.06666667 1
vn 0 1 0
vn 0 1 0
vn 0 1 0
vn 0 1 0
vn 0 1 0
vn 0 1 0
vn 0 1 0
vn 0 1 0
vn 0 1 0
vn 0 1 0
vn 0 1 0
vn 0 1 0
vn 0 1 0
vn 0 1 0
vn 0 1 0
vn 0 1 0
vn 0 1 0
vn 0 1 0
vn 0 1 0
vn 0 1 0
vn 0 1 0
vn 0 1 0
vn 0 1 0
vn 0 1 0
vn 0 1 0
vn 0 1 0
vn 0 1 0
vn 0 1 0
vn 0 1 0
vn 0 1 0
vn 0 1 0
vn 0 1 0
vn 0 1 0
vn 0 1 0
vn 0 1 0
vn 0 1 0
vn 0 1 0
vn 0 1 0
vn 0 1 0
vn 0 1 0
vn 0 1 0
vn 0 1 0
vn 0 1 0
vn 0 1 0
vn 0 1 0
vn 0 1 0
vn 0 1 0
vn 0 1 0
vn 0 1 0
vn 0 1 0
vn 0 1 0
vn 0 1 0
vn 0 1 0
vn 0 1 0
vn 0 1 0
vn 0 1 0
vn 0 1 0
vn 0 1 0
vn 0 1 0
vn 0 1 0
vn 0 1 0
vn 0 1 0
vn 0 1 0
vn 0 1 0
vn 0 1 0
vn 0 1 0
vn 0 1 0
vn 0 1 0
vn 0 1 0
vn 0 1 0
vn 0 1 0
vn 0 1 0
vn 0 1 0
vn 0 1 0
vn 0 1 0
vn 0 1 0
vn 0 1 0
vn 0 1 0
vn 0 1 0
vn 0 1 0
vn 0 1 0
vn 0 1 0
vn 0 1 0
vn 0 1 0
vn 0 1 0
vn 0 1 0
vn 0 1 0
vn 0 1 0
vn 0 1 0
vn 0 1 0
vn 0 1 0
vn 0 1 0
vn 0 1 0
vn 0 1 0
vn 0 1 0
vn 0 1 0
vn 0 1 0
vn 0 1 0
vn 0 1 0
vn 0 1 0
vn 0 1 0
vn 0 1 0
vn 0 1 0
vn 0 1 0
vn 0 1 0
vn 0 1 0
vn 0 1 0
vn 0 1 0
vn 0 1 0
vn 0 1 0
vn 0 1 0
vn 0 1 0
vn 0 1 0
vn 0 1 0
vn 0 1 0
vn 0 1 0
vn 0 1 0
vn 0 1 0
vn 0 1 0
vn 0 1 0
vn 0 1 0
vn 0 1 0
vn 0 1 0
vn 0 1 0
vn 0 1 0
vn 0 1 0
vn 0 1 0
vn 0 1 0
vn 0 1 0
vn 0 1 0
vn 0 1 0
vn 0 1 0
vn 0 1 0
vn 0 1 0
vn 0 1 0
vn 0 1 0
vn 0 1 0
vn 0 1 0
vn 0 1 0
vn 0 1 0
vn 0 1 0
vn 0 1 0
vn 0 1 0
vn 0 1 0
vn 0 1 0
vn 0 1 0
vn 0 1 0
vn 0 1 0
vn 0 1 0
vn 0 1 0
vn 0 1 0
vn 0 1 0
vn 0 1 0
vn 0 1 0
vn 0 1 0
vn 0 1 0
g Grass_0_Cluster266_0
f 2/2/2 3/3/3 1/1/1
f 2/2/2 4/4/4 3/3/3
f 6/6/6 7/7/7 5/5/5
f 6/6/6 8/8/8 7/7/7
f 10/10/10 11/11/11 9/9/9
f 10/10/10 12/12/12 11/11/11
f 14/14/14 15/15/15 13/13/13
f 14/14/14 16/16/16 15/15/15
f 18/18/18 19/19/19 17/17/17
f 18/18/18 20/20/20 19/19/19
f 22/22/22 23/23/23 21/21/21
f 22/22/22 24/24/24 23/23/23
f 26/26/26 27/27/27 25/25/25
f 26/26/26 28/28/28 27/27/27
f 30/30/30 31/31/31 29/29/29
f 30/30/30 32/32/32 31/31/31
f 34/34/34 35/35/35 33/33/33
f 34/34/34 36/36/36 35/35/35
f 38/38/38 39/39/39 37/37/37
f 38/38/38 40/40/40 39/39/39
f 42/42/42 43/43/43 41/41/41
f 42/42/42 44/44/44 43/43/43
f 46/46/46 47/47/47 45/45/45
f 46/46/46 48/48/48 47/47/47
f 50/50/50 51/51/51 49/49/49
f 50/50/50 52/52/52 51/51/51
f 54/54/54 55/55/55 53/53/53
f 54/54/54 56/56/56 55/55/55
f 58/58/58 59/59/59 57/57/57
f 58/58/58 60/60/60 59/59/59
f 62/62/62 63/63/63 61/61/61
f 62/62/62 64/64/64 63/63/63
f 66/66/66 67/67/67 65/65/65
f 66/66/66 68/68/68 67/67/67
f 70/70/70 71/71/71 69/69/69
f 70/70/70 72/72/72 71/71/71
f 74/74/74 75/75/75 73/73/73
f 74/74/74 76/76/76 75/75/75
f 78/78/78 79/79/79 77/77/77
f 78/78/78 80/80/80 79/79/79
f 82/82/82 83/83/83 81/81/81
f 82/82/82 84/84/84 83/83/83
f 86/86/86 87/87/87 85/85/85
f 86/86/86 88/88/88 87/87/87
f 90/90/90 91/91/91 89/89/89
f 90/90/90 92/92/92 91/91/91
f 94/94/94 95/95/95 93/93/93
f 94/94/94 96/96/96 95/95/95
f 98/98/98 99/99/99 97/97/97
f 98/98/98 100/100/100 99/99/99
f 102/102/102 103/103/103 101/101/101
f 102/102/102 104/104/104 103/103/103
f 106/106/106 107/107/107 105/105/105
f 106/106/106 108/108/108 107/107/107
f 110/110/110 111/111/111 109/109/109
f 110/110/110 112/112/112 111/111/111
f 114/114/114 115/115/115 113/113/113
f 114/114/114 116/116/116 115/115/115
f 118/118/118 119/119/119 117/117/117
f 118/118/118 120/120/120 119/119/119
f 122/122/122 123/123/123 121/121/121
f 122/122/122 124/124/124 123/123/123
f 126/126/126 127/127/127 125/125/125
f 126/126/126 128/128/128 127/127/127
f 130/130/130 131/131/131 129/129/129
f 130/130/130 132/132/132 131/131/131
f 134/134/134 135/135/135 133/133/133
f 134/134/134 136/136/136 135/135/135
f 138/138/138 139/139/139 137/137/137
f 138/138/138 140/140/140 139/139/139
f 142/142/142 143/143/143 141/141/141
f 142/142/142 144/144/144 143/143/143
f 146/146/146 147/147/147 145/145/145
f 146/146/146 148/148/148 147/147/147
f 150/150/150 151/151/151 149/149/149
f 150/150/150 152/152/152 151/151/151
f 154/154/154 155/155/155 153/153/153
f 154/154/154 156/156/156 155/155/155
