g Grass_0_Cluster87
v 67.45051 -0.0963974 112.8911
v 66.65342 -0.0963974 112.8911
v 67.45051 -0.0963974 114.0867
v 66.65342 -0.0963974 114.0867
v 85.98285 -0.0963974 112.6918
v 85.18576 -0.0963974 112.6918
v 85.98285 -0.0963974 114.0867
v 85.18576 -0.0963974 114.0867
v 88.97194 -0.0963974 112.4926
v 88.17485 -0.0963974 112.4926
v 88.97194 -0.0963974 113.6882
v 88.17485 -0.0963974 113.6882
v 87.57703 -0.0963974 112.2933
v 86.58067 -0.0963974 112.2933
v 87.57703 -0.0963974 113.6882
v 86.58067 -0.0963974 113.6882
v 63.46506 -0.0963974 112.094
v 62.66797 -0.0963974 112.094
v 63.46506 -0.0963974 113.2897
v 62.66797 -0.0963974 113.2897
v 68.64614 -0.0963974 111.6955
v 67.64978 -0.0963974 111.6955
v 68.64614 -0.0963974 112.8911
v 67.64978 -0.0963974 112.8911
v 60.47597 -0.0963974 111.6955
v 59.67888 -0.0963974 111.6955
v 60.47597 -0.0963974 113.0904
v 59.67888 -0.0963974 113.0904
v 61.07379 -0.0963974 110.6991
v 60.07742 -0.0963974 110.6991
v 61.07379 -0.0963974 111.8947
v 60.07742 -0.0963974 111.8947
v 84.1894 -0.0963974 109.7027
v 83.19304 -0.0963974 109.7027
v 84.1894 -0.0963974 110.8984
v 83.19304 -0.0963974 110.8984
v 78.21122 -0.0963974 105.518
v 77.21486 -0.0963974 105.518
v 78.21122 -0.0963974 106.7137
v 77.21486 -0.0963974 106.7137
v 80.20395 -0.0963974 104.3224
v 79.40686 -0.0963974 104.3224
v 80.20395 -0.0963974 105.518
v 79.40686 -0.0963974 105.518
v 74.0265 -0.0963974 103.7246
v 73.22941 -0.0963974 103.7246
v 74.0265 -0.0963974 104.9202
v 73.22941 -0.0963974 104.9202
v 77.01559 -0.0963974 103.5253
v 76.01923 -0.0963974 103.5253
v 77.01559 -0.0963974 104.7209
v 76.01923 -0.0963974 104.7209
v 78.41049 -0.0963974 103.326
v 77.6134 -0.0963974 103.326
v 78.41049 -0.0963974 104.7209
v 77.6134 -0.0963974 104.7209
v 80.80177 -0.0963974 103.1268
v 79.8054 -0.0963974 103.1268
v 80.80177 -0.0963974 104.5217
v 79.8054 -0.0963974 104.5217
v 79.40686 -0.0963974 102.5289
v 78.41049 -0.0963974 102.5289
v 79.40686 -0.0963974 103.7246
v 78.41049 -0.0963974 103.7246
v 80.80177 -0.0963974 101.9311
v 79.8054 -0.0963974 101.9311
v 80.80177 -0.0963974 103.1268
v 79.8054 -0.0963974 103.1268
v 80.00468 -0.0963974 101.9311
v 79.00832 -0.0963974 101.9311
v 80.00468 -0.0963974 103.1268
v 79.00832 -0.0963974 103.1268
v 81.00104 -0.0963974 101.134
v 80.00468 -0.0963974 101.134
v 81.00104 -0.0963974 102.3297
v 80.00468 -0.0963974 102.3297
v 80.40322 -0.0963974 100.3369
v 79.60613 -0.0963974 100.3369
v 80.40322 -0.0963974 101.7318
v 79.60613 -0.0963974 101.7318
v 64.26215 -0.0963974 100.3369
v 63.26579 -0.0963974 100.3369
v 64.26215 -0.0963974 101.5326
v 63.26579 -0.0963974 101.5326
v 86.18212 -0.0963974 100.3369
v 85.38503 -0.0963974 100.3369
v 86.18212 -0.0963974 101.5326
v 85.38503 -0.0963974 101.5326
v 81.79813 -0.0963974 100.3369
v 81.00104 -0.0963974 100.3369
v 81.79813 -0.0963974 101.5326
v 81.00104 -0.0963974 101.5326
v 63.26579 -0.0963974 100.1377
v 62.4687 -0.0963974 100.1377
v 63.26579 -0.0963974 101.5326
v 62.4687 -0.0963974 101.5326
v 82.19667 -0.0963974 99.53986
v 81.20031 -0.0963974 99.53986
v 82.19667 -0.0963974 100.7355
v 81.20031 -0.0963974 100.7355
v 83.59158 -0.0963974 98.54349
v 82.79449 -0.0963974 98.54349
v 83.59158 -0.0963974 99.73912
v 82.79449 -0.0963974 99.73912
v 83.79086 -0.0963974 97.7464
v 82.79449 -0.0963974 97.7464
v 83.79086 -0.0963974 98.94203
v 82.79449 -0.0963974 98.94203
v 82.99376 -0.0963974 97.14857
v 82.19667 -0.0963974 97.14857
v 82.99376 -0.0963974 98.34422
v 82.19667 -0.0963974 98.34422
v 83.39231 -0.0963974 94.75731
v 82.39594 -0.0963974 94.75731
v 83.39231 -0.0963974 95.95294
v 82.39594 -0.0963974 95.95294
v 82.99376 -0.0963974 93.76096
v 81.9974 -0.0963974 93.76096
v 82.99376 -0.0963974 95.15585
v 81.9974 -0.0963974 95.15585
v 60.87452 -0.0963974 91.56895
v 59.87815 -0.0963974 91.56895
v 60.87452 -0.0963974 92.76459
v 59.87815 -0.0963974 92.76459
v 84.98649 -0.0963974 90.57259
v 84.1894 -0.0963974 90.57259
v 84.98649 -0.0963974 91.76822
v 84.1894 -0.0963974 91.76822
v 89.76903 -0.0963974 90.17404
v 88.97194 -0.0963974 90.17404
v 89.76903 -0.0963974 91.36967
v 88.97194 -0.0963974 91.36967
v 60.67524 -0.0963974 87.5835
v 59.87815 -0.0963974 87.5835
v 60.67524 -0.0963974 88.97841
v 59.87815 -0.0963974 88.97841
v 65.05923 -0.0963974 85.98932
v 64.06287 -0.0963974 85.98932
v 65.05923 -0.0963974 87.18495
v 64.06287 -0.0963974 87.18495
v 81.39958 -0.0963974 85.98932
v 80.60249 -0.0963974 85.98932
v 81.39958 -0.0963974 87.18495
v 80.60249 -0.0963974 87.18495
v 63.06651 -0.0963974 85.98932
v 62.26942 -0.0963974 85.98932
v 63.06651 -0.0963974 87.18495
v 62.26942 -0.0963974 87.18495
v 85.98285 -0.0963974 85.79005
v 84.98649 -0.0963974 85.79005
v 85.98285 -0.0963974 86.98569
v 84.98649 -0.0963974 86.98569
v 79.40686 -0.0963974 83.79732
v 78.60977 -0.0963974 83.79732
v 79.40686 -0.0963974 84.99297
v 78.60977 -0.0963974 84.99297
v 80.20395 -0.0963974 83.79732
v 79.40686 -0.0963974 83.79732
v 80.20395 -0.0963974 84.99297
v 79.40686 -0.0963974 84.99297
vt 0 0.9058824
vt 0.06666667 0.9058824
vt 0 1
vt 0.06666667 1
vt 0 0.9058824
vt 0.06666667 0.9058824
vt 0 1
vt 0.06666667 1
vt 0 0.9058824
vt 0.06666667 0.9058824
vt 0 1
vt 0.06666667 1
vt 0 0.9058824
vt 0.06666667 0.9058824
vt 0 1
vt 0.06666667 1
vt 0 0.9058824
vt 0.06666667 0.9058824
vt 0 1
vt 0.06666667 1
vt 0 0.9058824
vt 0.06666667 0.9058824
vt 0 1
vt 0.06666667 1
vt 0 0.9058824
vt 0.06666667 0.9058824
vt 0 1
vt 0.06666667 1
vt 0 0.9058824
vt 0.06666667 0.9058824
vt 0 1
vt 0.06666667 1
vt 0 0.9058824
vt 0.06666667 0.9058824
vt 0 1
vt 0.06666667 1
vt 0 0.9058824
vt 0.06666667 0.9058824
vt 0 1
vt 0.06666667 1
vt 0 0.9058824
vt 0.06666667 0.9058824
vt 0 1
vt 0.06666667 1
vt 0 0.9058824
vt 0.06666667 0.9058824
vt 0 1
vt 0.06666667 1
vt 0 0.9058824
vt 0.06666667 0.9058824
vt 0 1
vt 0.06666667 1
vt 0 0.9058824
vt 0.06666667 0.9058824
vt 0 1
vt 0.06666667 1
vt 0 0.9058824
vt 0.06666667 0.9058824
vt 0 1
vt 0.06666667 1
vt 0 0.9058824
vt 0.06666667 0.9058824
vt 0 1
vt 0.06666667 1
vt 0 0.9058824
vt 0.06666667 0.9058824
vt 0 1
vt 0.06666667 1
vt 0 0.9058824
vt 0.06666667 0.9058824
vt 0 1
vt 0.06666667 1
vt 0 0.9058824
vt 0.06666667 0.9058824
vt 0 1
vt 0.06666667 1
vt 0 0.9058824
vt 0.06666667 0.9058824
vt 0 1
vt 0.06666667 1
vt 0 0.9058824
vt 0.06666667 0.9058824
vt 0 1
vt 0.06666667 1
vt 0 0.9058824
vt 0.06666667 0.9058824
vt 0 1
vt 0.06666667 1
vt 0 0.9058824
vt 0.06666667 0.9058824
vt 0 1
vt 0.06666667 1
vt 0 0.9058824
vt 0.06666667 0.9058824
vt 0 1
vt 0.06666667 1
vt 0 0.9058824
vt 0.06666667 0.9058824
vt 0 1
vt 0.06666667 1
vt 0 0.9058824
vt 0.06666667 0.9058824
vt 0 1
vt 0.06666667 1
vt 0 0.9058824
vt 0.06666667 0.9058824
vt 0 1
vt 0.06666667 1
vt 0 0.9058824
vt 0.06666667 0.9058824
vt 0 1
vt 0.06666667 1
vt 0 0.9058824
vt 0.06666667 0.9058824
vt 0 1
vt 0.06666667 1
vt 0 0.9058824
vt 0.06666667 0.9058824
vt 0 1
vt 0.06666667 1
vt 0 0.9058824
vt 0.06666667 0.9058824
vt 0 1
vt 0.06666667 1
vt 0 0.9058824
vt 0.06666667 0.9058824
vt 0 1
vt 0.06666667 1
vt 0 0.9058824
vt 0.06666667 0.9058824
vt 0 1
vt 0.06666667 1
vt 0 0.9058824
vt 0.06666667 0.9058824
vt 0 1
vt 0.06666667 1
vt 0 0.9058824
vt 0.06666667 0.9058824
vt 0 1
vt 0.06666667 1
vt 0 0.9058824
vt 0.06666667 0.9058824
vt 0 1
vt 0.06666667 1
vt 0 0.9058824
vt 0.06666667 0.9058824
vt 0 1
vt 0.06666667 1
vt 0 0.9058824
vt 0.06666667 0.9058824
vt 0 1
vt 0.06666667 1
vt 0 0.9058824
vt 0.06666667 0.9058824
vt 0 1
vt 0.06666667 1
vt 0 0.9058824
vt 0.06666667 0.9058824
vt 0 1
vt 0.06666667 1
vn 0 1 0
vn 0 1 0
vn 0 1 0
vn 0 1 0
vn 0 1 0
vn 0 1 0
vn 0 1 0
vn 0 1 0
vn 0 1 0
vn 0 1 0
vn 0 1 0
vn 0 1 0
vn 0 1 0
vn 0 1 0
vn 0 1 0
vn 0 1 0
vn 0 1 0
vn 0 1 0
vn 0 1 0
vn 0 1 0
vn 0 1 0
vn 0 1 0
vn 0 1 0
vn 0 1 0
vn 0 1 0
vn 0 1 0
vn 0 1 0
vn 0 1 0
vn 0 1 0
vn 0 1 0
vn 0 1 0
vn 0 1 0
vn 0 1 0
vn 0 1 0
vn 0 1 0
vn 0 1 0
vn 0 1 0
vn 0 1 0
vn 0 1 0
vn 0 1 0
vn 0 1 0
vn 0 1 0
vn 0 1 0
vn 0 1 0
vn 0 1 0
vn 0 1 0
vn 0 1 0
vn 0 1 0
vn 0 1 0
vn 0 1 0
vn 0 1 0
vn 0 1 0
vn 0 1 0
vn 0 1 0
vn 0 1 0
vn 0 1 0
vn 0 1 0
vn 0 1 0
vn 0 1 0
vn 0 1 0
vn 0 1 0
vn 0 1 0
vn 0 1 0
vn 0 1 0
vn 0 1 0
vn 0 1 0
vn 0 1 0
vn 0 1 0
vn 0 1 0
vn 0 1 0
vn 0 1 0
vn 0 1 0
vn 0 1 0
vn 0 1 0
vn 0 1 0
vn 0 1 0
vn 0 1 0
vn 0 1 0
vn 0 1 0
vn 0 1 0
vn 0 1 0
vn 0 1 0
vn 0 1 0
vn 0 1 0
vn 0 1 0
vn 0 1 0
vn 0 1 0
vn 0 1 0
vn 0 1 0
vn 0 1 0
vn 0 1 0
vn 0 1 0
vn 0 1 0
vn 0 1 0
vn 0 1 0
vn 0 1 0
vn 0 1 0
vn 0 1 0
vn 0 1 0
vn 0 1 0
vn 0 1 0
vn 0 1 0
vn 0 1 0
vn 0 1 0
vn 0 1 0
vn 0 1 0
vn 0 1 0
vn 0 1 0
vn 0 1 0
vn 0 1 0
vn 0 1 0
vn 0 1 0
vn 0 1 0
vn 0 1 0
vn 0 1 0
vn 0 1 0
vn 0 1 0
vn 0 1 0
vn 0 1 0
vn 0 1 0
vn 0 1 0
vn 0 1 0
vn 0 1 0
vn 0 1 0
vn 0 1 0
vn 0 1 0
vn 0 1 0
vn 0 1 0
vn 0 1 0
vn 0 1 0
vn 0 1 0
vn 0 1 0
vn 0 1 0
vn 0 1 0
vn 0 1 0
vn 0 1 0
vn 0 1 0
vn 0 1 0
vn 0 1 0
vn 0 1 0
vn 0 1 0
vn 0 1 0
vn 0 1 0
vn 0 1 0
vn 0 1 0
vn 0 1 0
vn 0 1 0
vn 0 1 0
vn 0 1 0
vn 0 1 0
vn 0 1 0
vn 0 1 0
vn 0 1 0
vn 0 1 0
vn 0 1 0
vn 0 1 0
vn 0 1 0
vn 0 1 0
vn 0 1 0
vn 0 1 0
g Grass_0_Cluster87_0
f 2/2/2 3/3/3 1/1/1
f 2/2/2 4/4/4 3/3/3
f 6/6/6 7/7/7 5/5/5
f 6/6/6 8/8/8 7/7/7
f 10/10/10 11/11/11 9/9/9
f 10/10/10 12/12/12 11/11/11
f 14/14/14 15/15/15 13/13/13
f 14/14/14 16/16/16 15/15/15
f 18/18/18 19/19/19 17/17/17
f 18/18/18 20/20/20 19/19/19
f 22/22/22 23/23/23 21/21/21
f 22/22/22 24/24/24 23/23/23
f 26/26/26 27/27/27 25/25/25
f 26/26/26 28/28/28 27/27/27
f 30/30/30 31/31/31 29/29/29
f 30/30/30 32/32/32 31/31/31
f 34/34/34 35/35/35 33/33/33
f 34/34/34 36/36/36 35/35/35
f 38/38/38 39/39/39 37/37/37
f 38/38/38 40/40/40 39/39/39
f 42/42/42 43/43/43 41/41/41
f 42/42/42 44/44/44 43/43/43
f 46/46/46 47/47/47 45/45/45
f 46/46/46 48/48/48 47/47/47
f 50/50/50 51/51/51 49/49/49
f 50/50/50 52/52/52 51/51/51
f 54/54/54 55/55/55 53/53/53
f 54/54/54 56/56/56 55/55/55
f 58/58/58 59/59/59 57/57/57
f 58/58/58 60/60/60 59/59/59
f 62/62/62 63/63/63 61/61/61
f 62/62/62 64/64/64 63/63/63
f 66/66/66 67/67/67 65/65/65
f 66/66/66 68/68/68 67/67/67
f 70/70/70 71/71/71 69/69/69
f 70/70/70 72/72/72 71/71/71
f 74/74/74 75/75/75 73/73/73
f 74/74/74 76/76/76 75/75/75
f 78/78/78 79/79/79 77/77/77
f 78/78/78 80/80/80 79/79/79
f 82/82/82 83/83/83 81/81/81
f 82/82/82 84/84/84 83/83/83
f 86/86/86 87/87/87 85/85/85
f 86/86/86 88/88/88 87/87/87
f 90/90/90 91/91/91 89/89/89
f 90/90/90 92/92/92 91/91/91
f 94/94/94 95/95/95 93/93/93
f 94/94/94 96/96/96 95/95/95
f 98/98/98 99/99/99 97/97/97
f 98/98/98 100/100/100 99/99/99
f 102/102/102 103/103/103 101/101/101
f 102/102/102 104/104/104 103/103/103
f 106/106/106 107/107/107 105/105/105
f 106/106/106 108/108/108 107/107/107
f 110/110/110 111/111/111 109/109/109
f 110/110/110 112/112/112 111/111/111
f 114/114/114 115/115/115 113/113/113
f 114/114/114 116/116/116 115/115/115
f 118/118/118 119/119/119 117/117/117
f 118/118/118 120/120/120 119/119/119
f 122/122/122 123/123/123 121/121/121
f 122/122/122 124/124/124 123/123/123
f 126/126/126 127/127/127 125/125/125
f 126/126/126 128/128/128 127/127/127
f 130/130/130 131/131/131 129/129/129
f 130/130/130 132/132/132 131/131/131
f 134/134/134 135/135/135 133/133/133
f 134/134/134 136/136/136 135/135/135
f 138/138/138 139/139/139 137/137/137
f 138/138/138 140/140/140 139/139/139
f 142/142/142 143/143/143 141/141/141
f 142/142/142 144/144/144 143/143/143
f 146/146/146 147/147/147 145/145/145
f 146/146/146 148/148/148 147/147/147
f 150/150/150 151/151/151 149/149/149
f 150/150/150 152/152/152 151/151/151
f 154/154/154 155/155/155 153/153/153
f 154/154/154 156/156/156 155/155/155
f 158/158/158 159/159/159 157/157/157
f 158/158/158 160/160/160 159/159/159
