g Grass_2_Cluster114
v -126.0899 0 141.4133
v -127.1114 0 141.4133
v -126.0899 0 142.5808
v -127.1114 0 142.5808
v -126.3817 0 141.1214
v -127.2574 0 141.1214
v -126.3817 0 142.2889
v -127.2574 0 142.2889
v -124.9224 0 140.8295
v -125.9439 0 140.8295
v -124.9224 0 141.8511
v -125.9439 0 141.8511
v -123.9008 0 139.662
v -124.7764 0 139.662
v -123.9008 0 140.6836
v -124.7764 0 140.6836
v -126.8195 0 139.3702
v -127.6952 0 139.3702
v -126.8195 0 140.3917
v -127.6952 0 140.3917
v -123.9008 0 139.0783
v -124.7764 0 139.0783
v -123.9008 0 140.0999
v -124.7764 0 140.0999
v -128.133 0 138.4945
v -129.1545 0 138.4945
v -128.133 0 139.662
v -129.1545 0 139.662
v -125.5061 0 138.0567
v -126.5277 0 138.0567
v -125.5061 0 139.2242
v -126.5277 0 139.2242
v -124.6305 0 137.7648
v -125.5061 0 137.7648
v -124.6305 0 138.7864
v -125.5061 0 138.7864
v -140.0999 0 137.6189
v -141.1214 0 137.6189
v -140.0999 0 138.7864
v -141.1214 0 138.7864
v -123.6089 0 137.6189
v -124.4846 0 137.6189
v -123.6089 0 138.6405
v -124.4846 0 138.6405
v -140.5377 0 137.327
v -141.4133 0 137.327
v -140.5377 0 138.3486
v -141.4133 0 138.3486
v -125.6521 0 137.327
v -126.6736 0 137.327
v -125.6521 0 138.4945
v -126.6736 0 138.4945
v -128.4249 0 137.327
v -129.3005 0 137.327
v -128.4249 0 138.3486
v -129.3005 0 138.3486
v -140.0999 0 137.1811
v -140.9755 0 137.1811
v -140.0999 0 138.3486
v -140.9755 0 138.3486
v -124.3386 0 136.7433
v -125.3602 0 136.7433
v -124.3386 0 137.7648
v -125.3602 0 137.7648
v -126.5277 0 136.5974
v -127.5492 0 136.5974
v -126.5277 0 137.6189
v -127.5492 0 137.6189
v -127.4033 0 136.4514
v -128.4249 0 136.4514
v -127.4033 0 137.6189
v -128.4249 0 137.6189
v -129.8842 0 136.3055
v -130.9058 0 136.3055
v -129.8842 0 137.473
v -130.9058 0 137.473
v -139.808 0 136.1595
v -140.8295 0 136.1595
v -139.808 0 137.327
v -140.8295 0 137.327
v -141.8511 0 136.0136
v -142.8727 0 136.0136
v -141.8511 0 137.1811
v -142.8727 0 137.1811
v -123.3171 0 136.1595
v -124.1927 0 136.1595
v -123.3171 0 137.327
v -124.1927 0 137.327
v -126.0899 0 136.0136
v -126.9655 0 136.0136
v -126.0899 0 137.1811
v -126.9655 0 137.1811
v -137.1811 0 135.7217
v -138.0567 0 135.7217
v -137.1811 0 136.7433
v -138.0567 0 136.7433
v -128.2789 0 135.7217
v -129.1545 0 135.7217
v -128.2789 0 136.7433
v -129.1545 0 136.7433
v -124.3386 0 135.4299
v -125.2142 0 135.4299
v -124.3386 0 136.4514
v -125.2142 0 136.4514
v -138.9323 0 135.5758
v -139.9539 0 135.5758
v -138.9323 0 136.7433
v -139.9539 0 136.7433
v -127.2574 0 135.2839
v -128.133 0 135.2839
v -127.2574 0 136.3055
v -128.133 0 136.3055
v -129.0086 0 135.2839
v -130.0302 0 135.2839
v -129.0086 0 136.3055
v -130.0302 0 136.3055
v -140.9755 0 135.138
v -141.8511 0 135.138
v -140.9755 0 136.1595
v -141.8511 0 136.1595
v -137.9108 0 134.992
v -138.7864 0 134.992
v -137.9108 0 136.0136
v -138.7864 0 136.0136
v -129.5924 0 134.7002
v -130.6139 0 134.7002
v -129.5924 0 135.7217
v -130.6139 0 135.7217
v -127.2574 0 134.5542
v -128.2789 0 134.5542
v -127.2574 0 135.7217
v -128.2789 0 135.7217
v -125.798 0 134.4083
v -126.6736 0 134.4083
v -125.798 0 135.5758
v -126.6736 0 135.5758
v -127.987 0 134.4083
v -129.0086 0 134.4083
v -127.987 0 135.5758
v -129.0086 0 135.5758
v -136.7433 0 134.2624
v -137.6189 0 134.2624
v -136.7433 0 135.2839
v -137.6189 0 135.2839
v -143.1645 0 134.1164
v -144.1861 0 134.1164
v -143.1645 0 135.2839
v -144.1861 0 135.2839
v -131.0517 0 134.2624
v -132.0733 0 134.2624
v -131.0517 0 135.2839
v -132.0733 0 135.2839
v -142.2889 0 134.2624
v -143.3105 0 134.2624
v -142.2889 0 135.4299
v -143.3105 0 135.4299
v -130.6139 0 133.9705
v -131.4895 0 133.9705
v -130.6139 0 134.992
v -131.4895 0 134.992
v -139.5161 0 133.9705
v -140.3917 0 133.9705
v -139.5161 0 135.138
v -140.3917 0 135.138
v -129.5924 0 133.9705
v -130.6139 0 133.9705
v -129.5924 0 135.138
v -130.6139 0 135.138
v -124.9224 0 133.6786
v -125.798 0 133.6786
v -124.9224 0 134.8461
v -125.798 0 134.8461
v -124.9224 0 133.6786
v -125.798 0 133.6786
v -124.9224 0 134.7002
v -125.798 0 134.7002
v -123.3171 0 133.5327
v -124.3386 0 133.5327
v -123.3171 0 134.7002
v -124.3386 0 134.7002
v -132.0733 0 133.5327
v -133.0948 0 133.5327
v -132.0733 0 134.7002
v -133.0948 0 134.7002
v -126.3817 0 133.3867
v -127.4033 0 133.3867
v -126.3817 0 134.5542
v -127.4033 0 134.5542
v -144.6239 0 133.2408
v -145.4995 0 133.2408
v -144.6239 0 134.2624
v -145.4995 0 134.2624
v -138.6405 0 133.0948
v -139.5161 0 133.0948
v -138.6405 0 134.2624
v -139.5161 0 134.2624
v -143.1645 0 132.803
v -144.1861 0 132.803
v -143.1645 0 133.9705
v -144.1861 0 133.9705
v -145.2077 0 132.657
v -146.2292 0 132.657
v -145.2077 0 133.8245
v -146.2292 0 133.8245
v -144.9158 0 132.0733
v -145.7914 0 132.0733
v -144.9158 0 133.0948
v -145.7914 0 133.0948
v -148.2723 0 130.7599
v -149.2939 0 130.7599
v -148.2723 0 131.9274
v -149.2939 0 131.9274
v -130.7599 0 123.463
v -131.7814 0 123.463
v -130.7599 0 124.6305
v -131.7814 0 124.6305
v -131.0517 0 120.6902
v -131.9274 0 120.6902
v -131.0517 0 121.8577
v -131.9274 0 121.8577
v -141.4133 0 117.1877
v -142.4348 0 117.1877
v -141.4133 0 118.2092
v -142.4348 0 118.2092
v -144.1861 0 116.8958
v -145.0617 0 116.8958
v -144.1861 0 118.0633
v -145.0617 0 118.0633
v -139.2242 0 116.6039
v -140.2458 0 116.6039
v -139.2242 0 117.6255
v -140.2458 0 117.6255
v -138.2027 0 116.0202
v -139.0783 0 116.0202
v -138.2027 0 117.0417
v -139.0783 0 117.0417
v -143.8942 0 115.7283
v -144.9158 0 115.7283
v -143.8942 0 116.7499
v -144.9158 0 116.7499
v -138.7864 0 115.2905
v -139.662 0 115.2905
v -138.7864 0 116.458
v -139.662 0 116.458
v -143.4564 0 115.2905
v -144.332 0 115.2905
v -143.4564 0 116.458
v -144.332 0 116.458
v -141.997 0 115.2905
v -143.0186 0 115.2905
v -141.997 0 116.458
v -143.0186 0 116.458
v -143.0186 0 114.7067
v -144.0402 0 114.7067
v -143.0186 0 115.8743
v -144.0402 0 115.8743
v -139.808 0 114.5608
v -140.8295 0 114.5608
v -139.808 0 115.7283
v -140.8295 0 115.7283
v -140.0999 0 114.2689
v -141.1214 0 114.2689
v -140.0999 0 115.2905
v -141.1214 0 115.2905
v -143.7483 0 113.6852
v -144.6239 0 113.6852
v -143.7483 0 114.7067
v -144.6239 0 114.7067
v -141.2673 0 113.6852
v -142.2889 0 113.6852
v -141.2673 0 114.8527
v -142.2889 0 114.8527
v -142.143 0 113.2474
v -143.1645 0 113.2474
v -142.143 0 114.4149
v -143.1645 0 114.4149
v -144.6239 0 113.1014
v -145.6455 0 113.1014
v -144.6239 0 114.2689
v -145.6455 0 114.2689
vt 0.1347656 0.9185662
vt 0.2060202 0.9185662
vt 0.1347656 1
vt 0.2060202 1
vt 0.1347656 0.9185662
vt 0.2060202 0.9185662
vt 0.1347656 1
vt 0.2060202 1
vt 0.1347656 0.9185662
vt 0.2060202 0.9185662
vt 0.1347656 1
vt 0.2060202 1
vt 0.1347656 0.9185662
vt 0.2060202 0.9185662
vt 0.1347656 1
vt 0.2060202 1
vt 0.1347656 0.9185662
vt 0.2060202 0.9185662
vt 0.1347656 1
vt 0.2060202 1
vt 0.1347656 0.9185662
vt 0.2060202 0.9185662
vt 0.1347656 1
vt 0.2060202 1
vt 0.1347656 0.9185662
vt 0.2060202 0.9185662
vt 0.1347656 1
vt 0.2060202 1
vt 0.1347656 0.9185662
vt 0.2060202 0.9185662
vt 0.1347656 1
vt 0.2060202 1
vt 0.1347656 0.9185662
vt 0.2060202 0.9185662
vt 0.1347656 1
vt 0.2060202 1
vt 0.1347656 0.9185662
vt 0.2060202 0.9185662
vt 0.1347656 1
vt 0.2060202 1
vt 0.1347656 0.9185662
vt 0.2060202 0.9185662
vt 0.1347656 1
vt 0.2060202 1
vt 0.1347656 0.9185662
vt 0.2060202 0.9185662
vt 0.1347656 1
vt 0.2060202 1
vt 0.1347656 0.9185662
vt 0.2060202 0.9185662
vt 0.1347656 1
vt 0.2060202 1
vt 0.1347656 0.9185662
vt 0.2060202 0.9185662
vt 0.1347656 1
vt 0.2060202 1
vt 0.1347656 0.9185662
vt 0.2060202 0.9185662
vt 0.1347656 1
vt 0.2060202 1
vt 0.1347656 0.9185662
vt 0.2060202 0.9185662
vt 0.1347656 1
vt 0.2060202 1
vt 0.1347656 0.9185662
vt 0.2060202 0.9185662
vt 0.1347656 1
vt 0.2060202 1
vt 0.1347656 0.9185662
vt 0.2060202 0.9185662
vt 0.1347656 1
vt 0.2060202 1
vt 0.1347656 0.9185662
vt 0.2060202 0.9185662
vt 0.1347656 1
vt 0.2060202 1
vt 0.1347656 0.9185662
vt 0.2060202 0.9185662
vt 0.1347656 1
vt 0.2060202 1
vt 0.1347656 0.9185662
vt 0.2060202 0.9185662
vt 0.1347656 1
vt 0.2060202 1
vt 0.1347656 0.9185662
vt 0.2060202 0.9185662
vt 0.1347656 1
vt 0.2060202 1
vt 0.1347656 0.9185662
vt 0.2060202 0.9185662
vt 0.1347656 1
vt 0.2060202 1
vt 0.1347656 0.9185662
vt 0.2060202 0.9185662
vt 0.1347656 1
vt 0.2060202 1
vt 0.1347656 0.9185662
vt 0.2060202 0.9185662
vt 0.1347656 1
vt 0.2060202 1
vt 0.1347656 0.9185662
vt 0.2060202 0.9185662
vt 0.1347656 1
vt 0.2060202 1
vt 0.1347656 0.9185662
vt 0.2060202 0.9185662
vt 0.1347656 1
vt 0.2060202 1
vt 0.1347656 0.9185662
vt 0.2060202 0.9185662
vt 0.1347656 1
vt 0.2060202 1
vt 0.1347656 0.9185662
vt 0.2060202 0.9185662
vt 0.1347656 1
vt 0.2060202 1
vt 0.1347656 0.9185662
vt 0.2060202 0.9185662
vt 0.1347656 1
vt 0.2060202 1
vt 0.1347656 0.9185662
vt 0.2060202 0.9185662
vt 0.1347656 1
vt 0.2060202 1
vt 0.1347656 0.9185662
vt 0.2060202 0.9185662
vt 0.1347656 1
vt 0.2060202 1
vt 0.1347656 0.9185662
vt 0.2060202 0.9185662
vt 0.1347656 1
vt 0.2060202 1
vt 0.1347656 0.9185662
vt 0.2060202 0.9185662
vt 0.1347656 1
vt 0.2060202 1
vt 0.1347656 0.9185662
vt 0.2060202 0.9185662
vt 0.1347656 1
vt 0.2060202 1
vt 0.1347656 0.9185662
vt 0.2060202 0.9185662
vt 0.1347656 1
vt 0.2060202 1
vt 0.1347656 0.9185662
vt 0.2060202 0.9185662
vt 0.1347656 1
vt 0.2060202 1
vt 0.1347656 0.9185662
vt 0.2060202 0.9185662
vt 0.1347656 1
vt 0.2060202 1
vt 0.1347656 0.9185662
vt 0.2060202 0.9185662
vt 0.1347656 1
vt 0.2060202 1
vt 0.1347656 0.9185662
vt 0.2060202 0.9185662
vt 0.1347656 1
vt 0.2060202 1
vt 0.1347656 0.9185662
vt 0.2060202 0.9185662
vt 0.1347656 1
vt 0.2060202 1
vt 0.1347656 0.9185662
vt 0.2060202 0.9185662
vt 0.1347656 1
vt 0.2060202 1
vt 0.1347656 0.9185662
vt 0.2060202 0.9185662
vt 0.1347656 1
vt 0.2060202 1
vt 0.1347656 0.9185662
vt 0.2060202 0.9185662
vt 0.1347656 1
vt 0.2060202 1
vt 0.1347656 0.9185662
vt 0.2060202 0.9185662
vt 0.1347656 1
vt 0.2060202 1
vt 0.1347656 0.9185662
vt 0.2060202 0.9185662
vt 0.1347656 1
vt 0.2060202 1
vt 0.1347656 0.9185662
vt 0.2060202 0.9185662
vt 0.1347656 1
vt 0.2060202 1
vt 0.1347656 0.9185662
vt 0.2060202 0.9185662
vt 0.1347656 1
vt 0.2060202 1
vt 0.1347656 0.9185662
vt 0.2060202 0.9185662
vt 0.1347656 1
vt 0.2060202 1
vt 0.1347656 0.9185662
vt 0.2060202 0.9185662
vt 0.1347656 1
vt 0.2060202 1
vt 0.1347656 0.9185662
vt 0.2060202 0.9185662
vt 0.1347656 1
vt 0.2060202 1
vt 0.1347656 0.9185662
vt 0.2060202 0.9185662
vt 0.1347656 1
vt 0.2060202 1
vt 0.1347656 0.9185662
vt 0.2060202 0.9185662
vt 0.1347656 1
vt 0.2060202 1
vt 0.1347656 0.9185662
vt 0.2060202 0.9185662
vt 0.1347656 1
vt 0.2060202 1
vt 0.1347656 0.9185662
vt 0.2060202 0.9185662
vt 0.1347656 1
vt 0.2060202 1
vt 0.1347656 0.9185662
vt 0.2060202 0.9185662
vt 0.1347656 1
vt 0.2060202 1
vt 0.1347656 0.9185662
vt 0.2060202 0.9185662
vt 0.1347656 1
vt 0.2060202 1
vt 0.1347656 0.9185662
vt 0.2060202 0.9185662
vt 0.1347656 1
vt 0.2060202 1
vt 0.1347656 0.9185662
vt 0.2060202 0.9185662
vt 0.1347656 1
vt 0.2060202 1
vt 0.1347656 0.9185662
vt 0.2060202 0.9185662
vt 0.1347656 1
vt 0.2060202 1
vt 0.1347656 0.9185662
vt 0.2060202 0.9185662
vt 0.1347656 1
vt 0.2060202 1
vt 0.1347656 0.9185662
vt 0.2060202 0.9185662
vt 0.1347656 1
vt 0.2060202 1
vt 0.1347656 0.9185662
vt 0.2060202 0.9185662
vt 0.1347656 1
vt 0.2060202 1
vt 0.1347656 0.9185662
vt 0.2060202 0.9185662
vt 0.1347656 1
vt 0.2060202 1
vt 0.1347656 0.9185662
vt 0.2060202 0.9185662
vt 0.1347656 1
vt 0.2060202 1
vt 0.1347656 0.9185662
vt 0.2060202 0.9185662
vt 0.1347656 1
vt 0.2060202 1
vt 0.1347656 0.9185662
vt 0.2060202 0.9185662
vt 0.1347656 1
vt 0.2060202 1
vt 0.1347656 0.9185662
vt 0.2060202 0.9185662
vt 0.1347656 1
vt 0.2060202 1
vt 0.1347656 0.9185662
vt 0.2060202 0.9185662
vt 0.1347656 1
vt 0.2060202 1
vt 0.1347656 0.9185662
vt 0.2060202 0.9185662
vt 0.1347656 1
vt 0.2060202 1
vn 0 1 0
vn 0 1 0
vn 0 1 0
vn 0 1 0
vn 0 1 0
vn 0 1 0
vn 0 1 0
vn 0 1 0
vn 0 1 0
vn 0 1 0
vn 0 1 0
vn 0 1 0
vn 0 1 0
vn 0 1 0
vn 0 1 0
vn 0 1 0
vn 0 1 0
vn 0 1 0
vn 0 1 0
vn 0 1 0
vn 0 1 0
vn 0 1 0
vn 0 1 0
vn 0 1 0
vn 0 1 0
vn 0 1 0
vn 0 1 0
vn 0 1 0
vn 0 1 0
vn 0 1 0
vn 0 1 0
vn 0 1 0
vn 0 1 0
vn 0 1 0
vn 0 1 0
vn 0 1 0
vn 0 1 0
vn 0 1 0
vn 0 1 0
vn 0 1 0
vn 0 1 0
vn 0 1 0
vn 0 1 0
vn 0 1 0
vn 0 1 0
vn 0 1 0
vn 0 1 0
vn 0 1 0
vn 0 1 0
vn 0 1 0
vn 0 1 0
vn 0 1 0
vn 0 1 0
vn 0 1 0
vn 0 1 0
vn 0 1 0
vn 0 1 0
vn 0 1 0
vn 0 1 0
vn 0 1 0
vn 0 1 0
vn 0 1 0
vn 0 1 0
vn 0 1 0
vn 0 1 0
vn 0 1 0
vn 0 1 0
vn 0 1 0
vn 0 1 0
vn 0 1 0
vn 0 1 0
vn 0 1 0
vn 0 1 0
vn 0 1 0
vn 0 1 0
vn 0 1 0
vn 0 1 0
vn 0 1 0
vn 0 1 0
vn 0 1 0
vn 0 1 0
vn 0 1 0
vn 0 1 0
vn 0 1 0
vn 0 1 0
vn 0 1 0
vn 0 1 0
vn 0 1 0
vn 0 1 0
vn 0 1 0
vn 0 1 0
vn 0 1 0
vn 0 1 0
vn 0 1 0
vn 0 1 0
vn 0 1 0
vn 0 1 0
vn 0 1 0
vn 0 1 0
vn 0 1 0
vn 0 1 0
vn 0 1 0
vn 0 1 0
vn 0 1 0
vn 0 1 0
vn 0 1 0
vn 0 1 0
vn 0 1 0
vn 0 1 0
vn 0 1 0
vn 0 1 0
vn 0 1 0
vn 0 1 0
vn 0 1 0
vn 0 1 0
vn 0 1 0
vn 0 1 0
vn 0 1 0
vn 0 1 0
vn 0 1 0
vn 0 1 0
vn 0 1 0
vn 0 1 0
vn 0 1 0
vn 0 1 0
vn 0 1 0
vn 0 1 0
vn 0 1 0
vn 0 1 0
vn 0 1 0
vn 0 1 0
vn 0 1 0
vn 0 1 0
vn 0 1 0
vn 0 1 0
vn 0 1 0
vn 0 1 0
vn 0 1 0
vn 0 1 0
vn 0 1 0
vn 0 1 0
vn 0 1 0
vn 0 1 0
vn 0 1 0
vn 0 1 0
vn 0 1 0
vn 0 1 0
vn 0 1 0
vn 0 1 0
vn 0 1 0
vn 0 1 0
vn 0 1 0
vn 0 1 0
vn 0 1 0
vn 0 1 0
vn 0 1 0
vn 0 1 0
vn 0 1 0
vn 0 1 0
vn 0 1 0
vn 0 1 0
vn 0 1 0
vn 0 1 0
vn 0 1 0
vn 0 1 0
vn 0 1 0
vn 0 1 0
vn 0 1 0
vn 0 1 0
vn 0 1 0
vn 0 1 0
vn 0 1 0
vn 0 1 0
vn 0 1 0
vn 0 1 0
vn 0 1 0
vn 0 1 0
vn 0 1 0
vn 0 1 0
vn 0 1 0
vn 0 1 0
vn 0 1 0
vn 0 1 0
vn 0 1 0
vn 0 1 0
vn 0 1 0
vn 0 1 0
vn 0 1 0
vn 0 1 0
vn 0 1 0
vn 0 1 0
vn 0 1 0
vn 0 1 0
vn 0 1 0
vn 0 1 0
vn 0 1 0
vn 0 1 0
vn 0 1 0
vn 0 1 0
vn 0 1 0
vn 0 1 0
vn 0 1 0
vn 0 1 0
vn 0 1 0
vn 0 1 0
vn 0 1 0
vn 0 1 0
vn 0 1 0
vn 0 1 0
vn 0 1 0
vn 0 1 0
vn 0 1 0
vn 0 1 0
vn 0 1 0
vn 0 1 0
vn 0 1 0
vn 0 1 0
vn 0 1 0
vn 0 1 0
vn 0 1 0
vn 0 1 0
vn 0 1 0
vn 0 1 0
vn 0 1 0
vn 0 1 0
vn 0 1 0
vn 0 1 0
vn 0 1 0
vn 0 1 0
vn 0 1 0
vn 0 1 0
vn 0 1 0
vn 0 1 0
vn 0 1 0
vn 0 1 0
vn 0 1 0
vn 0 1 0
vn 0 1 0
vn 0 1 0
vn 0 1 0
vn 0 1 0
vn 0 1 0
vn 0 1 0
vn 0 1 0
vn 0 1 0
vn 0 1 0
vn 0 1 0
vn 0 1 0
vn 0 1 0
vn 0 1 0
vn 0 1 0
vn 0 1 0
vn 0 1 0
vn 0 1 0
vn 0 1 0
vn 0 1 0
vn 0 1 0
vn 0 1 0
vn 0 1 0
vn 0 1 0
vn 0 1 0
vn 0 1 0
vn 0 1 0
vn 0 1 0
vn 0 1 0
vn 0 1 0
vn 0 1 0
vn 0 1 0
vn 0 1 0
vn 0 1 0
vn 0 1 0
vn 0 1 0
vn 0 1 0
vn 0 1 0
vn 0 1 0
vn 0 1 0
vn 0 1 0
vn 0 1 0
vn 0 1 0
vn 0 1 0
g Grass_2_Cluster114_0
f 2/2/2 3/3/3 1/1/1
f 2/2/2 4/4/4 3/3/3
f 6/6/6 7/7/7 5/5/5
f 6/6/6 8/8/8 7/7/7
f 10/10/10 11/11/11 9/9/9
f 10/10/10 12/12/12 11/11/11
f 14/14/14 15/15/15 13/13/13
f 14/14/14 16/16/16 15/15/15
f 18/18/18 19/19/19 17/17/17
f 18/18/18 20/20/20 19/19/19
f 22/22/22 23/23/23 21/21/21
f 22/22/22 24/24/24 23/23/23
f 26/26/26 27/27/27 25/25/25
f 26/26/26 28/28/28 27/27/27
f 30/30/30 31/31/31 29/29/29
f 30/30/30 32/32/32 31/31/31
f 34/34/34 35/35/35 33/33/33
f 34/34/34 36/36/36 35/35/35
f 38/38/38 39/39/39 37/37/37
f 38/38/38 40/40/40 39/39/39
f 42/42/42 43/43/43 41/41/41
f 42/42/42 44/44/44 43/43/43
f 46/46/46 47/47/47 45/45/45
f 46/46/46 48/48/48 47/47/47
f 50/50/50 51/51/51 49/49/49
f 50/50/50 52/52/52 51/51/51
f 54/54/54 55/55/55 53/53/53
f 54/54/54 56/56/56 55/55/55
f 58/58/58 59/59/59 57/57/57
f 58/58/58 60/60/60 59/59/59
f 62/62/62 63/63/63 61/61/61
f 62/62/62 64/64/64 63/63/63
f 66/66/66 67/67/67 65/65/65
f 66/66/66 68/68/68 67/67/67
f 70/70/70 71/71/71 69/69/69
f 70/70/70 72/72/72 71/71/71
f 74/74/74 75/75/75 73/73/73
f 74/74/74 76/76/76 75/75/75
f 78/78/78 79/79/79 77/77/77
f 78/78/78 80/80/80 79/79/79
f 82/82/82 83/83/83 81/81/81
f 82/82/82 84/84/84 83/83/83
f 86/86/86 87/87/87 85/85/85
f 86/86/86 88/88/88 87/87/87
f 90/90/90 91/91/91 89/89/89
f 90/90/90 92/92/92 91/91/91
f 94/94/94 95/95/95 93/93/93
f 94/94/94 96/96/96 95/95/95
f 98/98/98 99/99/99 97/97/97
f 98/98/98 100/100/100 99/99/99
f 102/102/102 103/103/103 101/101/101
f 102/102/102 104/104/104 103/103/103
f 106/106/106 107/107/107 105/105/105
f 106/106/106 108/108/108 107/107/107
f 110/110/110 111/111/111 109/109/109
f 110/110/110 112/112/112 111/111/111
f 114/114/114 115/115/115 113/113/113
f 114/114/114 116/116/116 115/115/115
f 118/118/118 119/119/119 117/117/117
f 118/118/118 120/120/120 119/119/119
f 122/122/122 123/123/123 121/121/121
f 122/122/122 124/124/124 123/123/123
f 126/126/126 127/127/127 125/125/125
f 126/126/126 128/128/128 127/127/127
f 130/130/130 131/131/131 129/129/129
f 130/130/130 132/132/132 131/131/131
f 134/134/134 135/135/135 133/133/133
f 134/134/134 136/136/136 135/135/135
f 138/138/138 139/139/139 137/137/137
f 138/138/138 140/140/140 139/139/139
f 142/142/142 143/143/143 141/141/141
f 142/142/142 144/144/144 143/143/143
f 146/146/146 147/147/147 145/145/145
f 146/146/146 148/148/148 147/147/147
f 150/150/150 151/151/151 149/149/149
f 150/150/150 152/152/152 151/151/151
f 154/154/154 155/155/155 153/153/153
f 154/154/154 156/156/156 155/155/155
f 158/158/158 159/159/159 157/157/157
f 158/158/158 160/160/160 159/159/159
f 162/162/162 163/163/163 161/161/161
f 162/162/162 164/164/164 163/163/163
f 166/166/166 167/167/167 165/165/165
f 166/166/166 168/168/168 167/167/167
f 170/170/170 171/171/171 169/169/169
f 170/170/170 172/172/172 171/171/171
f 174/174/174 175/175/175 173/173/173
f 174/174/174 176/176/176 175/175/175
f 178/178/178 179/179/179 177/177/177
f 178/178/178 180/180/180 179/179/179
f 182/182/182 183/183/183 181/181/181
f 182/182/182 184/184/184 183/183/183
f 186/186/186 187/187/187 185/185/185
f 186/186/186 188/188/188 187/187/187
f 190/190/190 191/191/191 189/189/189
f 190/190/190 192/192/192 191/191/191
f 194/194/194 195/195/195 193/193/193
f 194/194/194 196/196/196 195/195/195
f 198/198/198 199/199/199 197/197/197
f 198/198/198 200/200/200 199/199/199
f 202/202/202 203/203/203 201/201/201
f 202/202/202 204/204/204 203/203/203
f 206/206/206 207/207/207 205/205/205
f 206/206/206 208/208/208 207/207/207
f 210/210/210 211/211/211 209/209/209
f 210/210/210 212/212/212 211/211/211
f 214/214/214 215/215/215 213/213/213
f 214/214/214 216/216/216 215/215/215
f 218/218/218 219/219/219 217/217/217
f 218/218/218 220/220/220 219/219/219
f 222/222/222 223/223/223 221/221/221
f 222/222/222 224/224/224 223/223/223
f 226/226/226 227/227/227 225/225/225
f 226/226/226 228/228/228 227/227/227
f 230/230/230 231/231/231 229/229/229
f 230/230/230 232/232/232 231/231/231
f 234/234/234 235/235/235 233/233/233
f 234/234/234 236/236/236 235/235/235
f 238/238/238 239/239/239 237/237/237
f 238/238/238 240/240/240 239/239/239
f 242/242/242 243/243/243 241/241/241
f 242/242/242 244/244/244 243/243/243
f 246/246/246 247/247/247 245/245/245
f 246/246/246 248/248/248 247/247/247
f 250/250/250 251/251/251 249/249/249
f 250/250/250 252/252/252 251/251/251
f 254/254/254 255/255/255 253/253/253
f 254/254/254 256/256/256 255/255/255
f 258/258/258 259/259/259 257/257/257
f 258/258/258 260/260/260 259/259/259
f 262/262/262 263/263/263 261/261/261
f 262/262/262 264/264/264 263/263/263
f 266/266/266 267/267/267 265/265/265
f 266/266/266 268/268/268 267/267/267
f 270/270/270 271/271/271 269/269/269
f 270/270/270 272/272/272 271/271/271
f 274/274/274 275/275/275 273/273/273
f 274/274/274 276/276/276 275/275/275
f 278/278/278 279/279/279 277/277/277
f 278/278/278 280/280/280 279/279/279
