g Grass_2_Cluster301
v 247.9806 -0.1004333 440.1125
v 246.5919 -0.1004333 440.1125
v 247.9806 -0.1004333 440.8068
v 246.5919 -0.1004333 440.8068
v 257.7014 -0.1004333 438.0294
v 257.007 -0.1004333 438.0294
v 257.7014 -0.1004333 439.4181
v 257.007 -0.1004333 439.4181
v 257.7014 -0.1004333 435.9464
v 256.3127 -0.1004333 435.9464
v 257.7014 -0.1004333 437.3351
v 256.3127 -0.1004333 437.3351
v 247.9806 -0.1004333 435.2521
v 247.2862 -0.1004333 435.2521
v 247.9806 -0.1004333 436.6408
v 247.2862 -0.1004333 436.6408
v 269.5052 -0.1004333 435.2521
v 268.8108 -0.1004333 435.2521
v 269.5052 -0.1004333 436.6408
v 268.8108 -0.1004333 436.6408
v 241.0371 -0.1004333 435.2521
v 240.3428 -0.1004333 435.2521
v 241.0371 -0.1004333 435.9464
v 240.3428 -0.1004333 435.9464
v 243.8145 -0.1004333 434.5577
v 243.1202 -0.1004333 434.5577
v 243.8145 -0.1004333 435.9464
v 243.1202 -0.1004333 435.9464
v 251.4523 -0.1004333 434.5577
v 250.0636 -0.1004333 434.5577
v 251.4523 -0.1004333 435.2521
v 250.0636 -0.1004333 435.2521
v 254.924 -0.1004333 433.169
v 253.5353 -0.1004333 433.169
v 254.924 -0.1004333 433.8634
v 253.5353 -0.1004333 433.8634
v 255.6183 -0.1004333 431.086
v 254.924 -0.1004333 431.086
v 255.6183 -0.1004333 432.4747
v 254.924 -0.1004333 432.4747
v 254.924 -0.1004333 429.003
v 254.2296 -0.1004333 429.003
v 254.924 -0.1004333 430.3917
v 254.2296 -0.1004333 430.3917
v 264.6448 -0.1004333 417.8935
v 263.9504 -0.1004333 417.8935
v 264.6448 -0.1004333 418.5879
v 263.9504 -0.1004333 418.5879
v 261.1731 -0.1004333 417.1992
v 260.4787 -0.1004333 417.1992
v 261.1731 -0.1004333 418.5879
v 260.4787 -0.1004333 418.5879
v 266.0334 -0.1004333 417.1992
v 265.3391 -0.1004333 417.1992
v 266.0334 -0.1004333 418.5879
v 265.3391 -0.1004333 418.5879
v 263.9504 -0.1004333 416.5049
v 263.2561 -0.1004333 416.5049
v 263.9504 -0.1004333 417.8935
v 263.2561 -0.1004333 417.8935
v 261.1731 -0.1004333 416.5049
v 260.4787 -0.1004333 416.5049
v 261.1731 -0.1004333 417.8935
v 260.4787 -0.1004333 417.8935
v 266.7278 -0.1004333 416.5049
v 265.3391 -0.1004333 416.5049
v 266.7278 -0.1004333 417.1992
v 265.3391 -0.1004333 417.1992
v 255.6183 -0.1004333 416.5049
v 254.2296 -0.1004333 416.5049
v 255.6183 -0.1004333 417.8935
v 254.2296 -0.1004333 417.8935
v 263.9504 -0.1004333 416.5049
v 263.2561 -0.1004333 416.5049
v 263.9504 -0.1004333 417.1992
v 263.2561 -0.1004333 417.1992
v 263.2561 -0.1004333 415.8105
v 261.8674 -0.1004333 415.8105
v 263.2561 -0.1004333 417.1992
v 261.8674 -0.1004333 417.1992
v 266.7278 -0.1004333 415.8105
v 266.0334 -0.1004333 415.8105
v 266.7278 -0.1004333 416.5049
v 266.0334 -0.1004333 416.5049
v 256.3127 -0.1004333 415.1162
v 255.6183 -0.1004333 415.1162
v 256.3127 -0.1004333 416.5049
v 255.6183 -0.1004333 416.5049
v 260.4787 -0.1004333 415.1162
v 259.7844 -0.1004333 415.1162
v 260.4787 -0.1004333 416.5049
v 259.7844 -0.1004333 416.5049
v 263.9504 -0.1004333 415.1162
v 263.2561 -0.1004333 415.1162
v 263.9504 -0.1004333 416.5049
v 263.2561 -0.1004333 416.5049
v 261.1731 -0.1004333 415.1162
v 260.4787 -0.1004333 415.1162
v 261.1731 -0.1004333 415.8105
v 260.4787 -0.1004333 415.8105
v 255.6183 -0.1004333 415.1162
v 254.2296 -0.1004333 415.1162
v 255.6183 -0.1004333 415.8105
v 254.2296 -0.1004333 415.8105
v 261.8674 -0.1004333 414.4218
v 261.1731 -0.1004333 414.4218
v 261.8674 -0.1004333 415.8105
v 261.1731 -0.1004333 415.8105
v 259.7844 -0.1004333 414.4218
v 259.09 -0.1004333 414.4218
v 259.7844 -0.1004333 415.8105
v 259.09 -0.1004333 415.8105
v 254.2296 -0.1004333 414.4218
v 253.5353 -0.1004333 414.4218
v 254.2296 -0.1004333 415.8105
v 253.5353 -0.1004333 415.8105
v 263.2561 -0.1004333 414.4218
v 262.5617 -0.1004333 414.4218
v 263.2561 -0.1004333 415.8105
v 262.5617 -0.1004333 415.8105
v 259.09 -0.1004333 413.7274
v 257.7014 -0.1004333 413.7274
v 259.09 -0.1004333 415.1162
v 257.7014 -0.1004333 415.1162
v 264.6448 -0.1004333 413.7274
v 263.9504 -0.1004333 413.7274
v 264.6448 -0.1004333 415.1162
v 263.9504 -0.1004333 415.1162
v 262.5617 -0.1004333 413.7274
v 261.1731 -0.1004333 413.7274
v 262.5617 -0.1004333 415.1162
v 261.1731 -0.1004333 415.1162
v 261.8674 -0.1004333 413.7274
v 260.4787 -0.1004333 413.7274
v 261.8674 -0.1004333 414.4218
v 260.4787 -0.1004333 414.4218
v 244.5089 -0.1004333 413.0331
v 243.8145 -0.1004333 413.0331
v 244.5089 -0.1004333 414.4218
v 243.8145 -0.1004333 414.4218
vt 0.1347656 0.9185662
vt 0.2060202 0.9185662
vt 0.1347656 1
vt 0.2060202 1
vt 0.1347656 0.9185662
vt 0.2060202 0.9185662
vt 0.1347656 1
vt 0.2060202 1
vt 0.1347656 0.9185662
vt 0.2060202 0.9185662
vt 0.1347656 1
vt 0.2060202 1
vt 0.1347656 0.9185662
vt 0.2060202 0.9185662
vt 0.1347656 1
vt 0.2060202 1
vt 0.1347656 0.9185662
vt 0.2060202 0.9185662
vt 0.1347656 1
vt 0.2060202 1
vt 0.1347656 0.9185662
vt 0.2060202 0.9185662
vt 0.1347656 1
vt 0.2060202 1
vt 0.1347656 0.9185662
vt 0.2060202 0.9185662
vt 0.1347656 1
vt 0.2060202 1
vt 0.1347656 0.9185662
vt 0.2060202 0.9185662
vt 0.1347656 1
vt 0.2060202 1
vt 0.1347656 0.9185662
vt 0.2060202 0.9185662
vt 0.1347656 1
vt 0.2060202 1
vt 0.1347656 0.9185662
vt 0.2060202 0.9185662
vt 0.1347656 1
vt 0.2060202 1
vt 0.1347656 0.9185662
vt 0.2060202 0.9185662
vt 0.1347656 1
vt 0.2060202 1
vt 0.1347656 0.9185662
vt 0.2060202 0.9185662
vt 0.1347656 1
vt 0.2060202 1
vt 0.1347656 0.9185662
vt 0.2060202 0.9185662
vt 0.1347656 1
vt 0.2060202 1
vt 0.1347656 0.9185662
vt 0.2060202 0.9185662
vt 0.1347656 1
vt 0.2060202 1
vt 0.1347656 0.9185662
vt 0.2060202 0.9185662
vt 0.1347656 1
vt 0.2060202 1
vt 0.1347656 0.9185662
vt 0.2060202 0.9185662
vt 0.1347656 1
vt 0.2060202 1
vt 0.1347656 0.9185662
vt 0.2060202 0.9185662
vt 0.1347656 1
vt 0.2060202 1
vt 0.1347656 0.9185662
vt 0.2060202 0.9185662
vt 0.1347656 1
vt 0.2060202 1
vt 0.1347656 0.9185662
vt 0.2060202 0.9185662
vt 0.1347656 1
vt 0.2060202 1
vt 0.1347656 0.9185662
vt 0.2060202 0.9185662
vt 0.1347656 1
vt 0.2060202 1
vt 0.1347656 0.9185662
vt 0.2060202 0.9185662
vt 0.1347656 1
vt 0.2060202 1
vt 0.1347656 0.9185662
vt 0.2060202 0.9185662
vt 0.1347656 1
vt 0.2060202 1
vt 0.1347656 0.9185662
vt 0.2060202 0.9185662
vt 0.1347656 1
vt 0.2060202 1
vt 0.1347656 0.9185662
vt 0.2060202 0.9185662
vt 0.1347656 1
vt 0.2060202 1
vt 0.1347656 0.9185662
vt 0.2060202 0.9185662
vt 0.1347656 1
vt 0.2060202 1
vt 0.1347656 0.9185662
vt 0.2060202 0.9185662
vt 0.1347656 1
vt 0.2060202 1
vt 0.1347656 0.9185662
vt 0.2060202 0.9185662
vt 0.1347656 1
vt 0.2060202 1
vt 0.1347656 0.9185662
vt 0.2060202 0.9185662
vt 0.1347656 1
vt 0.2060202 1
vt 0.1347656 0.9185662
vt 0.2060202 0.9185662
vt 0.1347656 1
vt 0.2060202 1
vt 0.1347656 0.9185662
vt 0.2060202 0.9185662
vt 0.1347656 1
vt 0.2060202 1
vt 0.1347656 0.9185662
vt 0.2060202 0.9185662
vt 0.1347656 1
vt 0.2060202 1
vt 0.1347656 0.9185662
vt 0.2060202 0.9185662
vt 0.1347656 1
vt 0.2060202 1
vt 0.1347656 0.9185662
vt 0.2060202 0.9185662
vt 0.1347656 1
vt 0.2060202 1
vt 0.1347656 0.9185662
vt 0.2060202 0.9185662
vt 0.1347656 1
vt 0.2060202 1
vt 0.1347656 0.9185662
vt 0.2060202 0.9185662
vt 0.1347656 1
vt 0.2060202 1
vn 0 1 0
vn 0 1 0
vn 0 1 0
vn 0 1 0
vn 0 1 0
vn 0 1 0
vn 0 1 0
vn 0 1 0
vn 0 1 0
vn 0 1 0
vn 0 1 0
vn 0 1 0
vn 0 1 0
vn 0 1 0
vn 0 1 0
vn 0 1 0
vn 0 1 0
vn 0 1 0
vn 0 1 0
vn 0 1 0
vn 0 1 0
vn 0 1 0
vn 0 1 0
vn 0 1 0
vn 0 1 0
vn 0 1 0
vn 0 1 0
vn 0 1 0
vn 0 1 0
vn 0 1 0
vn 0 1 0
vn 0 1 0
vn 0 1 0
vn 0 1 0
vn 0 1 0
vn 0 1 0
vn 0 1 0
vn 0 1 0
vn 0 1 0
vn 0 1 0
vn 0 1 0
vn 0 1 0
vn 0 1 0
vn 0 1 0
vn 0 1 0
vn 0 1 0
vn 0 1 0
vn 0 1 0
vn 0 1 0
vn 0 1 0
vn 0 1 0
vn 0 1 0
vn 0 1 0
vn 0 1 0
vn 0 1 0
vn 0 1 0
vn 0 1 0
vn 0 1 0
vn 0 1 0
vn 0 1 0
vn 0 1 0
vn 0 1 0
vn 0 1 0
vn 0 1 0
vn 0 1 0
vn 0 1 0
vn 0 1 0
vn 0 1 0
vn 0 1 0
vn 0 1 0
vn 0 1 0
vn 0 1 0
vn 0 1 0
vn 0 1 0
vn 0 1 0
vn 0 1 0
vn 0 1 0
vn 0 1 0
vn 0 1 0
vn 0 1 0
vn 0 1 0
vn 0 1 0
vn 0 1 0
vn 0 1 0
vn 0 1 0
vn 0 1 0
vn 0 1 0
vn 0 1 0
vn 0 1 0
vn 0 1 0
vn 0 1 0
vn 0 1 0
vn 0 1 0
vn 0 1 0
vn 0 1 0
vn 0 1 0
vn 0 1 0
vn 0 1 0
vn 0 1 0
vn 0 1 0
vn 0 1 0
vn 0 1 0
vn 0 1 0
vn 0 1 0
vn 0 1 0
vn 0 1 0
vn 0 1 0
vn 0 1 0
vn 0 1 0
vn 0 1 0
vn 0 1 0
vn 0 1 0
vn 0 1 0
vn 0 1 0
vn 0 1 0
vn 0 1 0
vn 0 1 0
vn 0 1 0
vn 0 1 0
vn 0 1 0
vn 0 1 0
vn 0 1 0
vn 0 1 0
vn 0 1 0
vn 0 1 0
vn 0 1 0
vn 0 1 0
vn 0 1 0
vn 0 1 0
vn 0 1 0
vn 0 1 0
vn 0 1 0
vn 0 1 0
vn 0 1 0
vn 0 1 0
vn 0 1 0
vn 0 1 0
vn 0 1 0
vn 0 1 0
vn 0 1 0
g Grass_2_Cluster301_0
f 2/2/2 3/3/3 1/1/1
f 2/2/2 4/4/4 3/3/3
f 6/6/6 7/7/7 5/5/5
f 6/6/6 8/8/8 7/7/7
f 10/10/10 11/11/11 9/9/9
f 10/10/10 12/12/12 11/11/11
f 14/14/14 15/15/15 13/13/13
f 14/14/14 16/16/16 15/15/15
f 18/18/18 19/19/19 17/17/17
f 18/18/18 20/20/20 19/19/19
f 22/22/22 23/23/23 21/21/21
f 22/22/22 24/24/24 23/23/23
f 26/26/26 27/27/27 25/25/25
f 26/26/26 28/28/28 27/27/27
f 30/30/30 31/31/31 29/29/29
f 30/30/30 32/32/32 31/31/31
f 34/34/34 35/35/35 33/33/33
f 34/34/34 36/36/36 35/35/35
f 38/38/38 39/39/39 37/37/37
f 38/38/38 40/40/40 39/39/39
f 42/42/42 43/43/43 41/41/41
f 42/42/42 44/44/44 43/43/43
f 46/46/46 47/47/47 45/45/45
f 46/46/46 48/48/48 47/47/47
f 50/50/50 51/51/51 49/49/49
f 50/50/50 52/52/52 51/51/51
f 54/54/54 55/55/55 53/53/53
f 54/54/54 56/56/56 55/55/55
f 58/58/58 59/59/59 57/57/57
f 58/58/58 60/60/60 59/59/59
f 62/62/62 63/63/63 61/61/61
f 62/62/62 64/64/64 63/63/63
f 66/66/66 67/67/67 65/65/65
f 66/66/66 68/68/68 67/67/67
f 70/70/70 71/71/71 69/69/69
f 70/70/70 72/72/72 71/71/71
f 74/74/74 75/75/75 73/73/73
f 74/74/74 76/76/76 75/75/75
f 78/78/78 79/79/79 77/77/77
f 78/78/78 80/80/80 79/79/79
f 82/82/82 83/83/83 81/81/81
f 82/82/82 84/84/84 83/83/83
f 86/86/86 87/87/87 85/85/85
f 86/86/86 88/88/88 87/87/87
f 90/90/90 91/91/91 89/89/89
f 90/90/90 92/92/92 91/91/91
f 94/94/94 95/95/95 93/93/93
f 94/94/94 96/96/96 95/95/95
f 98/98/98 99/99/99 97/97/97
f 98/98/98 100/100/100 99/99/99
f 102/102/102 103/103/103 101/101/101
f 102/102/102 104/104/104 103/103/103
f 106/106/106 107/107/107 105/105/105
f 106/106/106 108/108/108 107/107/107
f 110/110/110 111/111/111 109/109/109
f 110/110/110 112/112/112 111/111/111
f 114/114/114 115/115/115 113/113/113
f 114/114/114 116/116/116 115/115/115
f 118/118/118 119/119/119 117/117/117
f 118/118/118 120/120/120 119/119/119
f 122/122/122 123/123/123 121/121/121
f 122/122/122 124/124/124 123/123/123
f 126/126/126 127/127/127 125/125/125
f 126/126/126 128/128/128 127/127/127
f 130/130/130 131/131/131 129/129/129
f 130/130/130 132/132/132 131/131/131
f 134/134/134 135/135/135 133/133/133
f 134/134/134 136/136/136 135/135/135
f 138/138/138 139/139/139 137/137/137
f 138/138/138 140/140/140 139/139/139
