g Grass_1_Cluster89
v 15.18886 -0.03363037 109.939
v 14.28214 -0.03363037 109.939
v 15.18886 -0.03363037 110.8457
v 14.28214 -0.03363037 110.8457
v 8.582736 -0.03363037 92.84076
v 7.676013 -0.03363037 92.84076
v 8.582736 -0.03363037 93.61795
v 7.676013 -0.03363037 93.61795
v 21.66546 -0.03363037 91.02731
v 20.75874 -0.03363037 91.02731
v 21.66546 -0.03363037 91.8045
v 20.75874 -0.03363037 91.8045
v 20.11108 -0.03363037 89.3434
v 19.20435 -0.03363037 89.3434
v 20.11108 -0.03363037 90.25012
v 19.20435 -0.03363037 90.25012
vt 0.06738281 0.9369141
vt 0.1331457 0.9369141
vt 0.06738281 0.9990234
vt 0.1331457 0.9990234
vt 0.06738281 0.9369141
vt 0.1331457 0.9369141
vt 0.06738281 0.9990234
vt 0.1331457 0.9990234
vt 0.06738281 0.9369141
vt 0.1331457 0.9369141
vt 0.06738281 0.9990234
vt 0.1331457 0.9990234
vt 0.06738281 0.9369141
vt 0.1331457 0.9369141
vt 0.06738281 0.9990234
vt 0.1331457 0.9990234
vn 0 1 0
vn 0 1 0
vn 0 1 0
vn 0 1 0
vn 0 1 0
vn 0 1 0
vn 0 1 0
vn 0 1 0
vn 0 1 0
vn 0 1 0
vn 0 1 0
vn 0 1 0
vn 0 1 0
vn 0 1 0
vn 0 1 0
vn 0 1 0
g Grass_1_Cluster89_0
f 2/2/2 3/3/3 1/1/1
f 2/2/2 4/4/4 3/3/3
f 6/6/6 7/7/7 5/5/5
f 6/6/6 8/8/8 7/7/7
f 10/10/10 11/11/11 9/9/9
f 10/10/10 12/12/12 11/11/11
f 14/14/14 15/15/15 13/13/13
f 14/14/14 16/16/16 15/15/15
