g Grass_0_Cluster137
v -220.515 0 172.8672
v -221.4358 0 172.8672
v -220.515 0 174.2483
v -221.4358 0 174.2483
v -218.6736 0 171.9465
v -219.3641 0 171.9465
v -218.6736 0 173.0974
v -219.3641 0 173.0974
v -222.8169 0 171.4861
v -223.7376 0 171.4861
v -222.8169 0 172.637
v -223.7376 0 172.637
v -228.5714 0 169.1843
v -229.4922 0 169.1843
v -228.5714 0 170.3352
v -229.4922 0 170.3352
v -217.5227 0 168.2636
v -218.4434 0 168.2636
v -217.5227 0 169.4145
v -218.4434 0 169.4145
v -228.3413 0 167.8032
v -229.262 0 167.8032
v -228.3413 0 169.1843
v -229.262 0 169.1843
v -233.1751 0 166.6523
v -234.0958 0 166.6523
v -233.1751 0 168.0334
v -234.0958 0 168.0334
v -229.4922 0 166.4221
v -230.1827 0 166.4221
v -229.4922 0 167.573
v -230.1827 0 167.573
v -233.6355 0 165.7316
v -234.5562 0 165.7316
v -233.6355 0 167.1127
v -234.5562 0 167.1127
v -230.8733 0 165.7316
v -231.794 0 165.7316
v -230.8733 0 166.8825
v -231.794 0 166.8825
v -214.5303 0 165.7316
v -215.2209 0 165.7316
v -214.5303 0 166.8825
v -215.2209 0 166.8825
v -232.7147 0 165.2712
v -233.6355 0 165.2712
v -232.7147 0 166.6523
v -233.6355 0 166.6523
v -232.4846 0 165.041
v -233.4053 0 165.041
v -232.4846 0 166.1919
v -233.4053 0 166.1919
v -233.8656 0 165.041
v -234.7864 0 165.041
v -233.8656 0 166.4221
v -234.7864 0 166.4221
v -231.3336 0 164.8108
v -232.2544 0 164.8108
v -231.3336 0 166.1919
v -232.2544 0 166.1919
v -232.4846 0 164.3505
v -233.4053 0 164.3505
v -232.4846 0 165.5014
v -233.4053 0 165.5014
v -234.0958 0 164.3505
v -235.0166 0 164.3505
v -234.0958 0 165.5014
v -235.0166 0 165.5014
v -231.1035 0 164.1203
v -232.0242 0 164.1203
v -231.1035 0 165.5014
v -232.0242 0 165.5014
v -230.1827 0 163.8901
v -231.1035 0 163.8901
v -230.1827 0 165.041
v -231.1035 0 165.041
v -233.4053 0 163.4297
v -234.326 0 163.4297
v -233.4053 0 164.5806
v -234.326 0 164.5806
v -229.4922 0 163.1996
v -230.1827 0 163.1996
v -229.4922 0 164.3505
v -230.1827 0 164.3505
v -228.5714 0 163.1996
v -229.4922 0 163.1996
v -228.5714 0 164.3505
v -229.4922 0 164.3505
v -230.8733 0 162.7392
v -231.794 0 162.7392
v -230.8733 0 164.1203
v -231.794 0 164.1203
v -213.3794 0 162.7392
v -214.0699 0 162.7392
v -213.3794 0 163.8901
v -214.0699 0 163.8901
v -234.5562 0 162.509
v -235.4769 0 162.509
v -234.5562 0 163.6599
v -235.4769 0 163.6599
v -218.2132 0 162.509
v -219.134 0 162.509
v -218.2132 0 163.6599
v -219.134 0 163.6599
v -211.5379 0 162.509
v -212.4586 0 162.509
v -211.5379 0 163.6599
v -212.4586 0 163.6599
v -229.262 0 161.1279
v -230.1827 0 161.1279
v -229.262 0 162.509
v -230.1827 0 162.509
v -230.4129 0 159.0563
v -231.3336 0 159.0563
v -230.4129 0 160.2072
v -231.3336 0 160.2072
v -219.134 0 150.9999
v -220.0547 0 150.9999
v -219.134 0 152.1508
v -220.0547 0 152.1508
v -217.5227 0 150.3093
v -218.4434 0 150.3093
v -217.5227 0 151.4602
v -218.4434 0 151.4602
v -220.7452 0 148.698
v -221.666 0 148.698
v -220.7452 0 149.849
v -221.666 0 149.849
v -219.8245 0 148.698
v -220.7452 0 148.698
v -219.8245 0 150.0791
v -220.7452 0 150.0791
v -220.9754 0 148.4679
v -221.8961 0 148.4679
v -220.9754 0 149.849
v -221.8961 0 149.849
v -219.3641 0 148.0075
v -220.2849 0 148.0075
v -219.3641 0 149.3886
v -220.2849 0 149.3886
v -217.983 0 147.7773
v -218.9038 0 147.7773
v -217.983 0 148.9282
v -218.9038 0 148.9282
v -224.4282 0 146.8566
v -225.3489 0 146.8566
v -224.4282 0 148.2377
v -225.3489 0 148.2377
v -219.134 0 146.6264
v -219.8245 0 146.6264
v -219.134 0 147.7773
v -219.8245 0 147.7773
v -221.666 0 146.3962
v -222.5867 0 146.3962
v -221.666 0 147.7773
v -222.5867 0 147.7773
v -217.0623 0 145.9359
v -217.983 0 145.9359
v -217.0623 0 147.3169
v -217.983 0 147.3169
v -219.8245 0 145.9359
v -220.7452 0 145.9359
v -219.8245 0 147.0868
v -220.7452 0 147.0868
v -222.8169 0 145.9359
v -223.7376 0 145.9359
v -222.8169 0 147.0868
v -223.7376 0 147.0868
v -221.2056 0 145.7057
v -222.1263 0 145.7057
v -221.2056 0 147.0868
v -222.1263 0 147.0868
v -218.4434 0 145.4755
v -219.3641 0 145.4755
v -218.4434 0 146.8566
v -219.3641 0 146.8566
v -217.0623 0 145.4755
v -217.983 0 145.4755
v -217.0623 0 146.8566
v -217.983 0 146.8566
v -220.0547 0 145.4755
v -220.9754 0 145.4755
v -220.0547 0 146.6264
v -220.9754 0 146.6264
v -222.5867 0 145.2453
v -223.5074 0 145.2453
v -222.5867 0 146.3962
v -223.5074 0 146.3962
v -218.6736 0 145.0151
v -219.5943 0 145.0151
v -218.6736 0 146.166
v -219.5943 0 146.166
v -219.5943 0 144.7849
v -220.515 0 144.7849
v -219.5943 0 146.166
v -220.515 0 146.166
v -220.9754 0 144.7849
v -221.8961 0 144.7849
v -220.9754 0 145.9359
v -221.8961 0 145.9359
v -217.7529 0 144.3246
v -218.6736 0 144.3246
v -217.7529 0 145.4755
v -218.6736 0 145.4755
v -223.5074 0 144.3246
v -224.4282 0 144.3246
v -223.5074 0 145.4755
v -224.4282 0 145.4755
v -218.9038 0 144.0944
v -219.5943 0 144.0944
v -218.9038 0 145.2453
v -219.5943 0 145.2453
v -223.2772 0 144.0944
v -224.198 0 144.0944
v -223.2772 0 145.4755
v -224.198 0 145.4755
v -221.8961 0 144.0944
v -222.8169 0 144.0944
v -221.8961 0 145.2453
v -222.8169 0 145.2453
v -220.7452 0 143.4038
v -221.666 0 143.4038
v -220.7452 0 144.5547
v -221.666 0 144.5547
v -223.2772 0 143.1737
v -224.198 0 143.1737
v -223.2772 0 144.3246
v -224.198 0 144.3246
vt 0 0.9058824
vt 0.06666667 0.9058824
vt 0 1
vt 0.06666667 1
vt 0 0.9058824
vt 0.06666667 0.9058824
vt 0 1
vt 0.06666667 1
vt 0 0.9058824
vt 0.06666667 0.9058824
vt 0 1
vt 0.06666667 1
vt 0 0.9058824
vt 0.06666667 0.9058824
vt 0 1
vt 0.06666667 1
vt 0 0.9058824
vt 0.06666667 0.9058824
vt 0 1
vt 0.06666667 1
vt 0 0.9058824
vt 0.06666667 0.9058824
vt 0 1
vt 0.06666667 1
vt 0 0.9058824
vt 0.06666667 0.9058824
vt 0 1
vt 0.06666667 1
vt 0 0.9058824
vt 0.06666667 0.9058824
vt 0 1
vt 0.06666667 1
vt 0 0.9058824
vt 0.06666667 0.9058824
vt 0 1
vt 0.06666667 1
vt 0 0.9058824
vt 0.06666667 0.9058824
vt 0 1
vt 0.06666667 1
vt 0 0.9058824
vt 0.06666667 0.9058824
vt 0 1
vt 0.06666667 1
vt 0 0.9058824
vt 0.06666667 0.9058824
vt 0 1
vt 0.06666667 1
vt 0 0.9058824
vt 0.06666667 0.9058824
vt 0 1
vt 0.06666667 1
vt 0 0.9058824
vt 0.06666667 0.9058824
vt 0 1
vt 0.06666667 1
vt 0 0.9058824
vt 0.06666667 0.9058824
vt 0 1
vt 0.06666667 1
vt 0 0.9058824
vt 0.06666667 0.9058824
vt 0 1
vt 0.06666667 1
vt 0 0.9058824
vt 0.06666667 0.9058824
vt 0 1
vt 0.06666667 1
vt 0 0.9058824
vt 0.06666667 0.9058824
vt 0 1
vt 0.06666667 1
vt 0 0.9058824
vt 0.06666667 0.9058824
vt 0 1
vt 0.06666667 1
vt 0 0.9058824
vt 0.06666667 0.9058824
vt 0 1
vt 0.06666667 1
vt 0 0.9058824
vt 0.06666667 0.9058824
vt 0 1
vt 0.06666667 1
vt 0 0.9058824
vt 0.06666667 0.9058824
vt 0 1
vt 0.06666667 1
vt 0 0.9058824
vt 0.06666667 0.9058824
vt 0 1
vt 0.06666667 1
vt 0 0.9058824
vt 0.06666667 0.9058824
vt 0 1
vt 0.06666667 1
vt 0 0.9058824
vt 0.06666667 0.9058824
vt 0 1
vt 0.06666667 1
vt 0 0.9058824
vt 0.06666667 0.9058824
vt 0 1
vt 0.06666667 1
vt 0 0.9058824
vt 0.06666667 0.9058824
vt 0 1
vt 0.06666667 1
vt 0 0.9058824
vt 0.06666667 0.9058824
vt 0 1
vt 0.06666667 1
vt 0 0.9058824
vt 0.06666667 0.9058824
vt 0 1
vt 0.06666667 1
vt 0 0.9058824
vt 0.06666667 0.9058824
vt 0 1
vt 0.06666667 1
vt 0 0.9058824
vt 0.06666667 0.9058824
vt 0 1
vt 0.06666667 1
vt 0 0.9058824
vt 0.06666667 0.9058824
vt 0 1
vt 0.06666667 1
vt 0 0.9058824
vt 0.06666667 0.9058824
vt 0 1
vt 0.06666667 1
vt 0 0.9058824
vt 0.06666667 0.9058824
vt 0 1
vt 0.06666667 1
vt 0 0.9058824
vt 0.06666667 0.9058824
vt 0 1
vt 0.06666667 1
vt 0 0.9058824
vt 0.06666667 0.9058824
vt 0 1
vt 0.06666667 1
vt 0 0.9058824
vt 0.06666667 0.9058824
vt 0 1
vt 0.06666667 1
vt 0 0.9058824
vt 0.06666667 0.9058824
vt 0 1
vt 0.06666667 1
vt 0 0.9058824
vt 0.06666667 0.9058824
vt 0 1
vt 0.06666667 1
vt 0 0.9058824
vt 0.06666667 0.9058824
vt 0 1
vt 0.06666667 1
vt 0 0.9058824
vt 0.06666667 0.9058824
vt 0 1
vt 0.06666667 1
vt 0 0.9058824
vt 0.06666667 0.9058824
vt 0 1
vt 0.06666667 1
vt 0 0.9058824
vt 0.06666667 0.9058824
vt 0 1
vt 0.06666667 1
vt 0 0.9058824
vt 0.06666667 0.9058824
vt 0 1
vt 0.06666667 1
vt 0 0.9058824
vt 0.06666667 0.9058824
vt 0 1
vt 0.06666667 1
vt 0 0.9058824
vt 0.06666667 0.9058824
vt 0 1
vt 0.06666667 1
vt 0 0.9058824
vt 0.06666667 0.9058824
vt 0 1
vt 0.06666667 1
vt 0 0.9058824
vt 0.06666667 0.9058824
vt 0 1
vt 0.06666667 1
vt 0 0.9058824
vt 0.06666667 0.9058824
vt 0 1
vt 0.06666667 1
vt 0 0.9058824
vt 0.06666667 0.9058824
vt 0 1
vt 0.06666667 1
vt 0 0.9058824
vt 0.06666667 0.9058824
vt 0 1
vt 0.06666667 1
vt 0 0.9058824
vt 0.06666667 0.9058824
vt 0 1
vt 0.06666667 1
vt 0 0.9058824
vt 0.06666667 0.9058824
vt 0 1
vt 0.06666667 1
vt 0 0.9058824
vt 0.06666667 0.9058824
vt 0 1
vt 0.06666667 1
vt 0 0.9058824
vt 0.06666667 0.9058824
vt 0 1
vt 0.06666667 1
vt 0 0.9058824
vt 0.06666667 0.9058824
vt 0 1
vt 0.06666667 1
vt 0 0.9058824
vt 0.06666667 0.9058824
vt 0 1
vt 0.06666667 1
vn 0 1 0
vn 0 1 0
vn 0 1 0
vn 0 1 0
vn 0 1 0
vn 0 1 0
vn 0 1 0
vn 0 1 0
vn 0 1 0
vn 0 1 0
vn 0 1 0
vn 0 1 0
vn 0 1 0
vn 0 1 0
vn 0 1 0
vn 0 1 0
vn 0 1 0
vn 0 1 0
vn 0 1 0
vn 0 1 0
vn 0 1 0
vn 0 1 0
vn 0 1 0
vn 0 1 0
vn 0 1 0
vn 0 1 0
vn 0 1 0
vn 0 1 0
vn 0 1 0
vn 0 1 0
vn 0 1 0
vn 0 1 0
vn 0 1 0
vn 0 1 0
vn 0 1 0
vn 0 1 0
vn 0 1 0
vn 0 1 0
vn 0 1 0
vn 0 1 0
vn 0 1 0
vn 0 1 0
vn 0 1 0
vn 0 1 0
vn 0 1 0
vn 0 1 0
vn 0 1 0
vn 0 1 0
vn 0 1 0
vn 0 1 0
vn 0 1 0
vn 0 1 0
vn 0 1 0
vn 0 1 0
vn 0 1 0
vn 0 1 0
vn 0 1 0
vn 0 1 0
vn 0 1 0
vn 0 1 0
vn 0 1 0
vn 0 1 0
vn 0 1 0
vn 0 1 0
vn 0 1 0
vn 0 1 0
vn 0 1 0
vn 0 1 0
vn 0 1 0
vn 0 1 0
vn 0 1 0
vn 0 1 0
vn 0 1 0
vn 0 1 0
vn 0 1 0
vn 0 1 0
vn 0 1 0
vn 0 1 0
vn 0 1 0
vn 0 1 0
vn 0 1 0
vn 0 1 0
vn 0 1 0
vn 0 1 0
vn 0 1 0
vn 0 1 0
vn 0 1 0
vn 0 1 0
vn 0 1 0
vn 0 1 0
vn 0 1 0
vn 0 1 0
vn 0 1 0
vn 0 1 0
vn 0 1 0
vn 0 1 0
vn 0 1 0
vn 0 1 0
vn 0 1 0
vn 0 1 0
vn 0 1 0
vn 0 1 0
vn 0 1 0
vn 0 1 0
vn 0 1 0
vn 0 1 0
vn 0 1 0
vn 0 1 0
vn 0 1 0
vn 0 1 0
vn 0 1 0
vn 0 1 0
vn 0 1 0
vn 0 1 0
vn 0 1 0
vn 0 1 0
vn 0 1 0
vn 0 1 0
vn 0 1 0
vn 0 1 0
vn 0 1 0
vn 0 1 0
vn 0 1 0
vn 0 1 0
vn 0 1 0
vn 0 1 0
vn 0 1 0
vn 0 1 0
vn 0 1 0
vn 0 1 0
vn 0 1 0
vn 0 1 0
vn 0 1 0
vn 0 1 0
vn 0 1 0
vn 0 1 0
vn 0 1 0
vn 0 1 0
vn 0 1 0
vn 0 1 0
vn 0 1 0
vn 0 1 0
vn 0 1 0
vn 0 1 0
vn 0 1 0
vn 0 1 0
vn 0 1 0
vn 0 1 0
vn 0 1 0
vn 0 1 0
vn 0 1 0
vn 0 1 0
vn 0 1 0
vn 0 1 0
vn 0 1 0
vn 0 1 0
vn 0 1 0
vn 0 1 0
vn 0 1 0
vn 0 1 0
vn 0 1 0
vn 0 1 0
vn 0 1 0
vn 0 1 0
vn 0 1 0
vn 0 1 0
vn 0 1 0
vn 0 1 0
vn 0 1 0
vn 0 1 0
vn 0 1 0
vn 0 1 0
vn 0 1 0
vn 0 1 0
vn 0 1 0
vn 0 1 0
vn 0 1 0
vn 0 1 0
vn 0 1 0
vn 0 1 0
vn 0 1 0
vn 0 1 0
vn 0 1 0
vn 0 1 0
vn 0 1 0
vn 0 1 0
vn 0 1 0
vn 0 1 0
vn 0 1 0
vn 0 1 0
vn 0 1 0
vn 0 1 0
vn 0 1 0
vn 0 1 0
vn 0 1 0
vn 0 1 0
vn 0 1 0
vn 0 1 0
vn 0 1 0
vn 0 1 0
vn 0 1 0
vn 0 1 0
vn 0 1 0
vn 0 1 0
vn 0 1 0
vn 0 1 0
vn 0 1 0
vn 0 1 0
vn 0 1 0
vn 0 1 0
vn 0 1 0
vn 0 1 0
vn 0 1 0
vn 0 1 0
vn 0 1 0
vn 0 1 0
vn 0 1 0
vn 0 1 0
vn 0 1 0
vn 0 1 0
vn 0 1 0
vn 0 1 0
vn 0 1 0
vn 0 1 0
vn 0 1 0
vn 0 1 0
vn 0 1 0
vn 0 1 0
g Grass_0_Cluster137_0
f 2/2/2 3/3/3 1/1/1
f 2/2/2 4/4/4 3/3/3
f 6/6/6 7/7/7 5/5/5
f 6/6/6 8/8/8 7/7/7
f 10/10/10 11/11/11 9/9/9
f 10/10/10 12/12/12 11/11/11
f 14/14/14 15/15/15 13/13/13
f 14/14/14 16/16/16 15/15/15
f 18/18/18 19/19/19 17/17/17
f 18/18/18 20/20/20 19/19/19
f 22/22/22 23/23/23 21/21/21
f 22/22/22 24/24/24 23/23/23
f 26/26/26 27/27/27 25/25/25
f 26/26/26 28/28/28 27/27/27
f 30/30/30 31/31/31 29/29/29
f 30/30/30 32/32/32 31/31/31
f 34/34/34 35/35/35 33/33/33
f 34/34/34 36/36/36 35/35/35
f 38/38/38 39/39/39 37/37/37
f 38/38/38 40/40/40 39/39/39
f 42/42/42 43/43/43 41/41/41
f 42/42/42 44/44/44 43/43/43
f 46/46/46 47/47/47 45/45/45
f 46/46/46 48/48/48 47/47/47
f 50/50/50 51/51/51 49/49/49
f 50/50/50 52/52/52 51/51/51
f 54/54/54 55/55/55 53/53/53
f 54/54/54 56/56/56 55/55/55
f 58/58/58 59/59/59 57/57/57
f 58/58/58 60/60/60 59/59/59
f 62/62/62 63/63/63 61/61/61
f 62/62/62 64/64/64 63/63/63
f 66/66/66 67/67/67 65/65/65
f 66/66/66 68/68/68 67/67/67
f 70/70/70 71/71/71 69/69/69
f 70/70/70 72/72/72 71/71/71
f 74/74/74 75/75/75 73/73/73
f 74/74/74 76/76/76 75/75/75
f 78/78/78 79/79/79 77/77/77
f 78/78/78 80/80/80 79/79/79
f 82/82/82 83/83/83 81/81/81
f 82/82/82 84/84/84 83/83/83
f 86/86/86 87/87/87 85/85/85
f 86/86/86 88/88/88 87/87/87
f 90/90/90 91/91/91 89/89/89
f 90/90/90 92/92/92 91/91/91
f 94/94/94 95/95/95 93/93/93
f 94/94/94 96/96/96 95/95/95
f 98/98/98 99/99/99 97/97/97
f 98/98/98 100/100/100 99/99/99
f 102/102/102 103/103/103 101/101/101
f 102/102/102 104/104/104 103/103/103
f 106/106/106 107/107/107 105/105/105
f 106/106/106 108/108/108 107/107/107
f 110/110/110 111/111/111 109/109/109
f 110/110/110 112/112/112 111/111/111
f 114/114/114 115/115/115 113/113/113
f 114/114/114 116/116/116 115/115/115
f 118/118/118 119/119/119 117/117/117
f 118/118/118 120/120/120 119/119/119
f 122/122/122 123/123/123 121/121/121
f 122/122/122 124/124/124 123/123/123
f 126/126/126 127/127/127 125/125/125
f 126/126/126 128/128/128 127/127/127
f 130/130/130 131/131/131 129/129/129
f 130/130/130 132/132/132 131/131/131
f 134/134/134 135/135/135 133/133/133
f 134/134/134 136/136/136 135/135/135
f 138/138/138 139/139/139 137/137/137
f 138/138/138 140/140/140 139/139/139
f 142/142/142 143/143/143 141/141/141
f 142/142/142 144/144/144 143/143/143
f 146/146/146 147/147/147 145/145/145
f 146/146/146 148/148/148 147/147/147
f 150/150/150 151/151/151 149/149/149
f 150/150/150 152/152/152 151/151/151
f 154/154/154 155/155/155 153/153/153
f 154/154/154 156/156/156 155/155/155
f 158/158/158 159/159/159 157/157/157
f 158/158/158 160/160/160 159/159/159
f 162/162/162 163/163/163 161/161/161
f 162/162/162 164/164/164 163/163/163
f 166/166/166 167/167/167 165/165/165
f 166/166/166 168/168/168 167/167/167
f 170/170/170 171/171/171 169/169/169
f 170/170/170 172/172/172 171/171/171
f 174/174/174 175/175/175 173/173/173
f 174/174/174 176/176/176 175/175/175
f 178/178/178 179/179/179 177/177/177
f 178/178/178 180/180/180 179/179/179
f 182/182/182 183/183/183 181/181/181
f 182/182/182 184/184/184 183/183/183
f 186/186/186 187/187/187 185/185/185
f 186/186/186 188/188/188 187/187/187
f 190/190/190 191/191/191 189/189/189
f 190/190/190 192/192/192 191/191/191
f 194/194/194 195/195/195 193/193/193
f 194/194/194 196/196/196 195/195/195
f 198/198/198 199/199/199 197/197/197
f 198/198/198 200/200/200 199/199/199
f 202/202/202 203/203/203 201/201/201
f 202/202/202 204/204/204 203/203/203
f 206/206/206 207/207/207 205/205/205
f 206/206/206 208/208/208 207/207/207
f 210/210/210 211/211/211 209/209/209
f 210/210/210 212/212/212 211/211/211
f 214/214/214 215/215/215 213/213/213
f 214/214/214 216/216/216 215/215/215
f 218/218/218 219/219/219 217/217/217
f 218/218/218 220/220/220 219/219/219
f 222/222/222 223/223/223 221/221/221
f 222/222/222 224/224/224 223/223/223
f 226/226/226 227/227/227 225/225/225
f 226/226/226 228/228/228 227/227/227
