g Grass_1_Cluster64
v 167.2355 0.003128052 82.52055
v 166.5009 0.003128052 82.52055
v 167.2355 0.003128052 83.25513
v 166.5009 0.003128052 83.25513
v 153.7682 0.003128052 81.54112
v 152.7888 0.003128052 81.54112
v 153.7682 0.003128052 82.2757
v 152.7888 0.003128052 82.2757
v 155.7271 0.003128052 80.56168
v 154.7477 0.003128052 80.56168
v 155.7271 0.003128052 81.29626
v 154.7477 0.003128052 81.29626
v 151.3196 0.003128052 80.07196
v 150.3402 0.003128052 80.07196
v 151.3196 0.003128052 80.80653
v 150.3402 0.003128052 80.80653
v 152.0542 0.003128052 79.58224
v 151.0748 0.003128052 79.58224
v 152.0542 0.003128052 80.31682
v 151.0748 0.003128052 80.31682
v 153.0336 0.003128052 78.1131
v 152.0542 0.003128052 78.1131
v 153.0336 0.003128052 79.09253
v 152.0542 0.003128052 79.09253
vt 0.06738281 0.9369141
vt 0.1331457 0.9369141
vt 0.06738281 0.9990234
vt 0.1331457 0.9990234
vt 0.06738281 0.9369141
vt 0.1331457 0.9369141
vt 0.06738281 0.9990234
vt 0.1331457 0.9990234
vt 0.06738281 0.9369141
vt 0.1331457 0.9369141
vt 0.06738281 0.9990234
vt 0.1331457 0.9990234
vt 0.06738281 0.9369141
vt 0.1331457 0.9369141
vt 0.06738281 0.9990234
vt 0.1331457 0.9990234
vt 0.06738281 0.9369141
vt 0.1331457 0.9369141
vt 0.06738281 0.9990234
vt 0.1331457 0.9990234
vt 0.06738281 0.9369141
vt 0.1331457 0.9369141
vt 0.06738281 0.9990234
vt 0.1331457 0.9990234
vn 0 1 0
vn 0 1 0
vn 0 1 0
vn 0 1 0
vn 0 1 0
vn 0 1 0
vn 0 1 0
vn 0 1 0
vn 0 1 0
vn 0 1 0
vn 0 1 0
vn 0 1 0
vn 0 1 0
vn 0 1 0
vn 0 1 0
vn 0 1 0
vn 0 1 0
vn 0 1 0
vn 0 1 0
vn 0 1 0
vn 0 1 0
vn 0 1 0
vn 0 1 0
vn 0 1 0
g Grass_1_Cluster64_0
f 2/2/2 3/3/3 1/1/1
f 2/2/2 4/4/4 3/3/3
f 6/6/6 7/7/7 5/5/5
f 6/6/6 8/8/8 7/7/7
f 10/10/10 11/11/11 9/9/9
f 10/10/10 12/12/12 11/11/11
f 14/14/14 15/15/15 13/13/13
f 14/14/14 16/16/16 15/15/15
f 18/18/18 19/19/19 17/17/17
f 18/18/18 20/20/20 19/19/19
f 22/22/22 23/23/23 21/21/21
f 22/22/22 24/24/24 23/23/23
