g Grass_0_Cluster128
v 47.19516 -0.002285004 172.6601
v 46.2876 -0.002285004 172.6601
v 47.19516 -0.002285004 174.0214
v 46.2876 -0.002285004 174.0214
v 49.23716 -0.002285004 172.2063
v 48.3296 -0.002285004 172.2063
v 49.23716 -0.002285004 173.3408
v 48.3296 -0.002285004 173.3408
v 33.12805 -0.002285004 171.7525
v 32.2205 -0.002285004 171.7525
v 33.12805 -0.002285004 173.1139
v 32.2205 -0.002285004 173.1139
v 30.85916 -0.002285004 171.7525
v 29.95161 -0.002285004 171.7525
v 30.85916 -0.002285004 172.887
v 29.95161 -0.002285004 172.887
v 30.85916 -0.002285004 170.1643
v 29.95161 -0.002285004 170.1643
v 30.85916 -0.002285004 171.2988
v 29.95161 -0.002285004 171.2988
v 31.76672 -0.002285004 169.0299
v 31.08605 -0.002285004 169.0299
v 31.76672 -0.002285004 170.1643
v 31.08605 -0.002285004 170.1643
v 35.85072 -0.002285004 168.5761
v 34.94316 -0.002285004 168.5761
v 35.85072 -0.002285004 169.9374
v 34.94316 -0.002285004 169.9374
v 32.2205 -0.002285004 167.8954
v 31.31294 -0.002285004 167.8954
v 32.2205 -0.002285004 169.0299
v 31.31294 -0.002285004 169.0299
v 31.08605 -0.002285004 166.9879
v 30.1785 -0.002285004 166.9879
v 31.08605 -0.002285004 168.1223
v 30.1785 -0.002285004 168.1223
v 57.63204 -0.002285004 165.8534
v 56.72449 -0.002285004 165.8534
v 57.63204 -0.002285004 166.9879
v 56.72449 -0.002285004 166.9879
v 56.27071 -0.002285004 164.4921
v 55.36316 -0.002285004 164.4921
v 56.27071 -0.002285004 165.8534
v 55.36316 -0.002285004 165.8534
v 56.27071 -0.002285004 164.0383
v 55.36316 -0.002285004 164.0383
v 56.27071 -0.002285004 165.1728
v 55.36316 -0.002285004 165.1728
v 55.81693 -0.002285004 162.9039
v 54.90938 -0.002285004 162.9039
v 55.81693 -0.002285004 164.0383
v 54.90938 -0.002285004 164.0383
v 53.77493 -0.002285004 162.677
v 52.64049 -0.002285004 162.677
v 53.77493 -0.002285004 164.0383
v 52.64049 -0.002285004 164.0383
v 57.85893 -0.002285004 162.4501
v 56.95137 -0.002285004 162.4501
v 57.85893 -0.002285004 163.8114
v 56.95137 -0.002285004 163.8114
v 53.32116 -0.002285004 161.9963
v 52.4136 -0.002285004 161.9963
v 53.32116 -0.002285004 163.1308
v 52.4136 -0.002285004 163.1308
v 57.40515 -0.002285004 158.3661
v 56.4976 -0.002285004 158.3661
v 57.40515 -0.002285004 159.5005
v 56.4976 -0.002285004 159.5005
v 49.69093 -0.002285004 157.9123
v 49.01027 -0.002285004 157.9123
v 49.69093 -0.002285004 159.0468
v 49.01027 -0.002285004 159.0468
v 41.06916 -0.002285004 156.551
v 40.16161 -0.002285004 156.551
v 41.06916 -0.002285004 157.9123
v 40.16161 -0.002285004 157.9123
v 42.88427 -0.002285004 153.1477
v 41.97672 -0.002285004 153.1477
v 42.88427 -0.002285004 154.509
v 41.97672 -0.002285004 154.509
v 50.3716 -0.002285004 149.7443
v 49.46404 -0.002285004 149.7443
v 50.3716 -0.002285004 151.1057
v 49.46404 -0.002285004 151.1057
v 30.85916 -0.002285004 148.8368
v 29.95161 -0.002285004 148.8368
v 30.85916 -0.002285004 149.9712
v 29.95161 -0.002285004 149.9712
v 36.98516 -0.002285004 145.4334
v 36.07761 -0.002285004 145.4334
v 36.98516 -0.002285004 146.7948
v 36.07761 -0.002285004 146.7948
v 58.08582 -0.002285004 145.2065
v 57.17826 -0.002285004 145.2065
v 58.08582 -0.002285004 146.5679
v 57.17826 -0.002285004 146.5679
vt 0 0.9058824
vt 0.06666667 0.9058824
vt 0 1
vt 0.06666667 1
vt 0 0.9058824
vt 0.06666667 0.9058824
vt 0 1
vt 0.06666667 1
vt 0 0.9058824
vt 0.06666667 0.9058824
vt 0 1
vt 0.06666667 1
vt 0 0.9058824
vt 0.06666667 0.9058824
vt 0 1
vt 0.06666667 1
vt 0 0.9058824
vt 0.06666667 0.9058824
vt 0 1
vt 0.06666667 1
vt 0 0.9058824
vt 0.06666667 0.9058824
vt 0 1
vt 0.06666667 1
vt 0 0.9058824
vt 0.06666667 0.9058824
vt 0 1
vt 0.06666667 1
vt 0 0.9058824
vt 0.06666667 0.9058824
vt 0 1
vt 0.06666667 1
vt 0 0.9058824
vt 0.06666667 0.9058824
vt 0 1
vt 0.06666667 1
vt 0 0.9058824
vt 0.06666667 0.9058824
vt 0 1
vt 0.06666667 1
vt 0 0.9058824
vt 0.06666667 0.9058824
vt 0 1
vt 0.06666667 1
vt 0 0.9058824
vt 0.06666667 0.9058824
vt 0 1
vt 0.06666667 1
vt 0 0.9058824
vt 0.06666667 0.9058824
vt 0 1
vt 0.06666667 1
vt 0 0.9058824
vt 0.06666667 0.9058824
vt 0 1
vt 0.06666667 1
vt 0 0.9058824
vt 0.06666667 0.9058824
vt 0 1
vt 0.06666667 1
vt 0 0.9058824
vt 0.06666667 0.9058824
vt 0 1
vt 0.06666667 1
vt 0 0.9058824
vt 0.06666667 0.9058824
vt 0 1
vt 0.06666667 1
vt 0 0.9058824
vt 0.06666667 0.9058824
vt 0 1
vt 0.06666667 1
vt 0 0.9058824
vt 0.06666667 0.9058824
vt 0 1
vt 0.06666667 1
vt 0 0.9058824
vt 0.06666667 0.9058824
vt 0 1
vt 0.06666667 1
vt 0 0.9058824
vt 0.06666667 0.9058824
vt 0 1
vt 0.06666667 1
vt 0 0.9058824
vt 0.06666667 0.9058824
vt 0 1
vt 0.06666667 1
vt 0 0.9058824
vt 0.06666667 0.9058824
vt 0 1
vt 0.06666667 1
vt 0 0.9058824
vt 0.06666667 0.9058824
vt 0 1
vt 0.06666667 1
vn 0 1 0
vn 0 1 0
vn 0 1 0
vn 0 1 0
vn 0 1 0
vn 0 1 0
vn 0 1 0
vn 0 1 0
vn 0 1 0
vn 0 1 0
vn 0 1 0
vn 0 1 0
vn 0 1 0
vn 0 1 0
vn 0 1 0
vn 0 1 0
vn 0 1 0
vn 0 1 0
vn 0 1 0
vn 0 1 0
vn 0 1 0
vn 0 1 0
vn 0 1 0
vn 0 1 0
vn 0 1 0
vn 0 1 0
vn 0 1 0
vn 0 1 0
vn 0 1 0
vn 0 1 0
vn 0 1 0
vn 0 1 0
vn 0 1 0
vn 0 1 0
vn 0 1 0
vn 0 1 0
vn 0 1 0
vn 0 1 0
vn 0 1 0
vn 0 1 0
vn 0 1 0
vn 0 1 0
vn 0 1 0
vn 0 1 0
vn 0 1 0
vn 0 1 0
vn 0 1 0
vn 0 1 0
vn 0 1 0
vn 0 1 0
vn 0 1 0
vn 0 1 0
vn 0 1 0
vn 0 1 0
vn 0 1 0
vn 0 1 0
vn 0 1 0
vn 0 1 0
vn 0 1 0
vn 0 1 0
vn 0 1 0
vn 0 1 0
vn 0 1 0
vn 0 1 0
vn 0 1 0
vn 0 1 0
vn 0 1 0
vn 0 1 0
vn 0 1 0
vn 0 1 0
vn 0 1 0
vn 0 1 0
vn 0 1 0
vn 0 1 0
vn 0 1 0
vn 0 1 0
vn 0 1 0
vn 0 1 0
vn 0 1 0
vn 0 1 0
vn 0 1 0
vn 0 1 0
vn 0 1 0
vn 0 1 0
vn 0 1 0
vn 0 1 0
vn 0 1 0
vn 0 1 0
vn 0 1 0
vn 0 1 0
vn 0 1 0
vn 0 1 0
vn 0 1 0
vn 0 1 0
vn 0 1 0
vn 0 1 0
g Grass_0_Cluster128_0
f 2/2/2 3/3/3 1/1/1
f 2/2/2 4/4/4 3/3/3
f 6/6/6 7/7/7 5/5/5
f 6/6/6 8/8/8 7/7/7
f 10/10/10 11/11/11 9/9/9
f 10/10/10 12/12/12 11/11/11
f 14/14/14 15/15/15 13/13/13
f 14/14/14 16/16/16 15/15/15
f 18/18/18 19/19/19 17/17/17
f 18/18/18 20/20/20 19/19/19
f 22/22/22 23/23/23 21/21/21
f 22/22/22 24/24/24 23/23/23
f 26/26/26 27/27/27 25/25/25
f 26/26/26 28/28/28 27/27/27
f 30/30/30 31/31/31 29/29/29
f 30/30/30 32/32/32 31/31/31
f 34/34/34 35/35/35 33/33/33
f 34/34/34 36/36/36 35/35/35
f 38/38/38 39/39/39 37/37/37
f 38/38/38 40/40/40 39/39/39
f 42/42/42 43/43/43 41/41/41
f 42/42/42 44/44/44 43/43/43
f 46/46/46 47/47/47 45/45/45
f 46/46/46 48/48/48 47/47/47
f 50/50/50 51/51/51 49/49/49
f 50/50/50 52/52/52 51/51/51
f 54/54/54 55/55/55 53/53/53
f 54/54/54 56/56/56 55/55/55
f 58/58/58 59/59/59 57/57/57
f 58/58/58 60/60/60 59/59/59
f 62/62/62 63/63/63 61/61/61
f 62/62/62 64/64/64 63/63/63
f 66/66/66 67/67/67 65/65/65
f 66/66/66 68/68/68 67/67/67
f 70/70/70 71/71/71 69/69/69
f 70/70/70 72/72/72 71/71/71
f 74/74/74 75/75/75 73/73/73
f 74/74/74 76/76/76 75/75/75
f 78/78/78 79/79/79 77/77/77
f 78/78/78 80/80/80 79/79/79
f 82/82/82 83/83/83 81/81/81
f 82/82/82 84/84/84 83/83/83
f 86/86/86 87/87/87 85/85/85
f 86/86/86 88/88/88 87/87/87
f 90/90/90 91/91/91 89/89/89
f 90/90/90 92/92/92 91/91/91
f 94/94/94 95/95/95 93/93/93
f 94/94/94 96/96/96 95/95/95
