g Grass_2_Cluster264
v 165.4821 0.2169952 382.8903
v 164.4027 0.2169952 382.8903
v 165.4821 0.2169952 383.9697
v 164.4027 0.2169952 383.9697
v 164.4027 0.2169952 381.2711
v 163.3232 0.2169952 381.2711
v 164.4027 0.2169952 382.3505
v 163.3232 0.2169952 382.3505
v 165.4821 0.2169952 381.2711
v 164.9424 0.2169952 381.2711
v 165.4821 0.2169952 382.3505
v 164.9424 0.2169952 382.3505
v 166.0219 0.2169952 381.2711
v 164.9424 0.2169952 381.2711
v 166.0219 0.2169952 382.3505
v 164.9424 0.2169952 382.3505
v 166.0219 0.2169952 380.1916
v 164.9424 0.2169952 380.1916
v 166.0219 0.2169952 381.2711
v 164.9424 0.2169952 381.2711
v 164.9424 0.2169952 379.6519
v 163.8629 0.2169952 379.6519
v 164.9424 0.2169952 380.7313
v 163.8629 0.2169952 380.7313
v 166.5616 0.2169952 379.1121
v 166.0219 0.2169952 379.1121
v 166.5616 0.2169952 380.1916
v 166.0219 0.2169952 380.1916
v 165.4821 0.2169952 378.5724
v 164.9424 0.2169952 378.5724
v 165.4821 0.2169952 379.6519
v 164.9424 0.2169952 379.6519
v 164.4027 0.2169952 378.0327
v 163.3232 0.2169952 378.0327
v 164.4027 0.2169952 379.1121
v 163.3232 0.2169952 379.1121
v 165.4821 0.2169952 378.0327
v 164.4027 0.2169952 378.0327
v 165.4821 0.2169952 379.1121
v 164.4027 0.2169952 379.1121
v 166.5616 0.2169952 376.4135
v 165.4821 0.2169952 376.4135
v 166.5616 0.2169952 377.4929
v 165.4821 0.2169952 377.4929
v 167.1014 0.2169952 374.7942
v 166.0219 0.2169952 374.7942
v 167.1014 0.2169952 375.8737
v 166.0219 0.2169952 375.8737
v 168.1808 0.2169952 374.7942
v 167.1014 0.2169952 374.7942
v 168.1808 0.2169952 375.8737
v 167.1014 0.2169952 375.8737
v 166.0219 0.2169952 374.2545
v 165.4821 0.2169952 374.2545
v 166.0219 0.2169952 375.334
v 165.4821 0.2169952 375.334
v 165.4821 0.2169952 374.2545
v 164.4027 0.2169952 374.2545
v 165.4821 0.2169952 375.334
v 164.4027 0.2169952 375.334
v 168.1808 0.2169952 373.7147
v 167.1014 0.2169952 373.7147
v 168.1808 0.2169952 374.7942
v 167.1014 0.2169952 374.7942
v 167.6411 0.2169952 373.7147
v 166.5616 0.2169952 373.7147
v 167.6411 0.2169952 374.7942
v 166.5616 0.2169952 374.7942
v 166.0219 0.2169952 373.175
v 164.9424 0.2169952 373.175
v 166.0219 0.2169952 374.2545
v 164.9424 0.2169952 374.2545
v 166.5616 0.2169952 372.6353
v 165.4821 0.2169952 372.6353
v 166.5616 0.2169952 373.7147
v 165.4821 0.2169952 373.7147
v 164.9424 0.2169952 372.0955
v 163.8629 0.2169952 372.0955
v 164.9424 0.2169952 373.175
v 163.8629 0.2169952 373.175
v 166.5616 0.2169952 371.5558
v 165.4821 0.2169952 371.5558
v 166.5616 0.2169952 372.6353
v 165.4821 0.2169952 372.6353
v 165.4821 0.2169952 371.5558
v 164.9424 0.2169952 371.5558
v 165.4821 0.2169952 372.6353
v 164.9424 0.2169952 372.6353
v 166.0219 0.2169952 370.4763
v 164.9424 0.2169952 370.4763
v 166.0219 0.2169952 371.5558
v 164.9424 0.2169952 371.5558
v 164.4027 0.2169952 370.4763
v 163.3232 0.2169952 370.4763
v 164.4027 0.2169952 371.5558
v 163.3232 0.2169952 371.5558
v 167.1014 0.2169952 370.4763
v 166.5616 0.2169952 370.4763
v 167.1014 0.2169952 371.5558
v 166.5616 0.2169952 371.5558
v 164.4027 0.2169952 369.9366
v 163.3232 0.2169952 369.9366
v 164.4027 0.2169952 371.0161
v 163.3232 0.2169952 371.0161
v 164.9424 0.2169952 369.9366
v 164.4027 0.2169952 369.9366
v 164.9424 0.2169952 371.0161
v 164.4027 0.2169952 371.0161
v 164.9424 0.2169952 369.3969
v 163.8629 0.2169952 369.3969
v 164.9424 0.2169952 370.4763
v 163.8629 0.2169952 370.4763
v 163.8629 0.2169952 368.3174
v 162.7835 0.2169952 368.3174
v 163.8629 0.2169952 369.3969
v 162.7835 0.2169952 369.3969
v 164.4027 0.2169952 368.3174
v 163.8629 0.2169952 368.3174
v 164.4027 0.2169952 369.3969
v 163.8629 0.2169952 369.3969
v 163.3232 0.2169952 367.7776
v 162.2437 0.2169952 367.7776
v 163.3232 0.2169952 368.8571
v 162.2437 0.2169952 368.8571
v 155.2272 0.2169952 355.9034
v 154.1477 0.2169952 355.9034
v 155.2272 0.2169952 356.9829
v 154.1477 0.2169952 356.9829
v 151.9887 0.2169952 355.9034
v 151.449 0.2169952 355.9034
v 151.9887 0.2169952 356.4432
v 151.449 0.2169952 356.4432
v 157.3861 0.2169952 354.2842
v 156.8464 0.2169952 354.2842
v 157.3861 0.2169952 355.3637
v 156.8464 0.2169952 355.3637
v 152.5285 0.2169952 354.2842
v 151.449 0.2169952 354.2842
v 152.5285 0.2169952 355.3637
v 151.449 0.2169952 355.3637
vt 0.1347656 0.9185662
vt 0.2060202 0.9185662
vt 0.1347656 1
vt 0.2060202 1
vt 0.1347656 0.9185662
vt 0.2060202 0.9185662
vt 0.1347656 1
vt 0.2060202 1
vt 0.1347656 0.9185662
vt 0.2060202 0.9185662
vt 0.1347656 1
vt 0.2060202 1
vt 0.1347656 0.9185662
vt 0.2060202 0.9185662
vt 0.1347656 1
vt 0.2060202 1
vt 0.1347656 0.9185662
vt 0.2060202 0.9185662
vt 0.1347656 1
vt 0.2060202 1
vt 0.1347656 0.9185662
vt 0.2060202 0.9185662
vt 0.1347656 1
vt 0.2060202 1
vt 0.1347656 0.9185662
vt 0.2060202 0.9185662
vt 0.1347656 1
vt 0.2060202 1
vt 0.1347656 0.9185662
vt 0.2060202 0.9185662
vt 0.1347656 1
vt 0.2060202 1
vt 0.1347656 0.9185662
vt 0.2060202 0.9185662
vt 0.1347656 1
vt 0.2060202 1
vt 0.1347656 0.9185662
vt 0.2060202 0.9185662
vt 0.1347656 1
vt 0.2060202 1
vt 0.1347656 0.9185662
vt 0.2060202 0.9185662
vt 0.1347656 1
vt 0.2060202 1
vt 0.1347656 0.9185662
vt 0.2060202 0.9185662
vt 0.1347656 1
vt 0.2060202 1
vt 0.1347656 0.9185662
vt 0.2060202 0.9185662
vt 0.1347656 1
vt 0.2060202 1
vt 0.1347656 0.9185662
vt 0.2060202 0.9185662
vt 0.1347656 1
vt 0.2060202 1
vt 0.1347656 0.9185662
vt 0.2060202 0.9185662
vt 0.1347656 1
vt 0.2060202 1
vt 0.1347656 0.9185662
vt 0.2060202 0.9185662
vt 0.1347656 1
vt 0.2060202 1
vt 0.1347656 0.9185662
vt 0.2060202 0.9185662
vt 0.1347656 1
vt 0.2060202 1
vt 0.1347656 0.9185662
vt 0.2060202 0.9185662
vt 0.1347656 1
vt 0.2060202 1
vt 0.1347656 0.9185662
vt 0.2060202 0.9185662
vt 0.1347656 1
vt 0.2060202 1
vt 0.1347656 0.9185662
vt 0.2060202 0.9185662
vt 0.1347656 1
vt 0.2060202 1
vt 0.1347656 0.9185662
vt 0.2060202 0.9185662
vt 0.1347656 1
vt 0.2060202 1
vt 0.1347656 0.9185662
vt 0.2060202 0.9185662
vt 0.1347656 1
vt 0.2060202 1
vt 0.1347656 0.9185662
vt 0.2060202 0.9185662
vt 0.1347656 1
vt 0.2060202 1
vt 0.1347656 0.9185662
vt 0.2060202 0.9185662
vt 0.1347656 1
vt 0.2060202 1
vt 0.1347656 0.9185662
vt 0.2060202 0.9185662
vt 0.1347656 1
vt 0.2060202 1
vt 0.1347656 0.9185662
vt 0.2060202 0.9185662
vt 0.1347656 1
vt 0.2060202 1
vt 0.1347656 0.9185662
vt 0.2060202 0.9185662
vt 0.1347656 1
vt 0.2060202 1
vt 0.1347656 0.9185662
vt 0.2060202 0.9185662
vt 0.1347656 1
vt 0.2060202 1
vt 0.1347656 0.9185662
vt 0.2060202 0.9185662
vt 0.1347656 1
vt 0.2060202 1
vt 0.1347656 0.9185662
vt 0.2060202 0.9185662
vt 0.1347656 1
vt 0.2060202 1
vt 0.1347656 0.9185662
vt 0.2060202 0.9185662
vt 0.1347656 1
vt 0.2060202 1
vt 0.1347656 0.9185662
vt 0.2060202 0.9185662
vt 0.1347656 1
vt 0.2060202 1
vt 0.1347656 0.9185662
vt 0.2060202 0.9185662
vt 0.1347656 1
vt 0.2060202 1
vt 0.1347656 0.9185662
vt 0.2060202 0.9185662
vt 0.1347656 1
vt 0.2060202 1
vt 0.1347656 0.9185662
vt 0.2060202 0.9185662
vt 0.1347656 1
vt 0.2060202 1
vn 0 1 0
vn 0 1 0
vn 0 1 0
vn 0 1 0
vn 0 1 0
vn 0 1 0
vn 0 1 0
vn 0 1 0
vn 0 1 0
vn 0 1 0
vn 0 1 0
vn 0 1 0
vn 0 1 0
vn 0 1 0
vn 0 1 0
vn 0 1 0
vn 0 1 0
vn 0 1 0
vn 0 1 0
vn 0 1 0
vn 0 1 0
vn 0 1 0
vn 0 1 0
vn 0 1 0
vn 0 1 0
vn 0 1 0
vn 0 1 0
vn 0 1 0
vn 0 1 0
vn 0 1 0
vn 0 1 0
vn 0 1 0
vn 0 1 0
vn 0 1 0
vn 0 1 0
vn 0 1 0
vn 0 1 0
vn 0 1 0
vn 0 1 0
vn 0 1 0
vn 0 1 0
vn 0 1 0
vn 0 1 0
vn 0 1 0
vn 0 1 0
vn 0 1 0
vn 0 1 0
vn 0 1 0
vn 0 1 0
vn 0 1 0
vn 0 1 0
vn 0 1 0
vn 0 1 0
vn 0 1 0
vn 0 1 0
vn 0 1 0
vn 0 1 0
vn 0 1 0
vn 0 1 0
vn 0 1 0
vn 0 1 0
vn 0 1 0
vn 0 1 0
vn 0 1 0
vn 0 1 0
vn 0 1 0
vn 0 1 0
vn 0 1 0
vn 0 1 0
vn 0 1 0
vn 0 1 0
vn 0 1 0
vn 0 1 0
vn 0 1 0
vn 0 1 0
vn 0 1 0
vn 0 1 0
vn 0 1 0
vn 0 1 0
vn 0 1 0
vn 0 1 0
vn 0 1 0
vn 0 1 0
vn 0 1 0
vn 0 1 0
vn 0 1 0
vn 0 1 0
vn 0 1 0
vn 0 1 0
vn 0 1 0
vn 0 1 0
vn 0 1 0
vn 0 1 0
vn 0 1 0
vn 0 1 0
vn 0 1 0
vn 0 1 0
vn 0 1 0
vn 0 1 0
vn 0 1 0
vn 0 1 0
vn 0 1 0
vn 0 1 0
vn 0 1 0
vn 0 1 0
vn 0 1 0
vn 0 1 0
vn 0 1 0
vn 0 1 0
vn 0 1 0
vn 0 1 0
vn 0 1 0
vn 0 1 0
vn 0 1 0
vn 0 1 0
vn 0 1 0
vn 0 1 0
vn 0 1 0
vn 0 1 0
vn 0 1 0
vn 0 1 0
vn 0 1 0
vn 0 1 0
vn 0 1 0
vn 0 1 0
vn 0 1 0
vn 0 1 0
vn 0 1 0
vn 0 1 0
vn 0 1 0
vn 0 1 0
vn 0 1 0
vn 0 1 0
vn 0 1 0
vn 0 1 0
vn 0 1 0
vn 0 1 0
vn 0 1 0
vn 0 1 0
vn 0 1 0
g Grass_2_Cluster264_0
f 2/2/2 3/3/3 1/1/1
f 2/2/2 4/4/4 3/3/3
f 6/6/6 7/7/7 5/5/5
f 6/6/6 8/8/8 7/7/7
f 10/10/10 11/11/11 9/9/9
f 10/10/10 12/12/12 11/11/11
f 14/14/14 15/15/15 13/13/13
f 14/14/14 16/16/16 15/15/15
f 18/18/18 19/19/19 17/17/17
f 18/18/18 20/20/20 19/19/19
f 22/22/22 23/23/23 21/21/21
f 22/22/22 24/24/24 23/23/23
f 26/26/26 27/27/27 25/25/25
f 26/26/26 28/28/28 27/27/27
f 30/30/30 31/31/31 29/29/29
f 30/30/30 32/32/32 31/31/31
f 34/34/34 35/35/35 33/33/33
f 34/34/34 36/36/36 35/35/35
f 38/38/38 39/39/39 37/37/37
f 38/38/38 40/40/40 39/39/39
f 42/42/42 43/43/43 41/41/41
f 42/42/42 44/44/44 43/43/43
f 46/46/46 47/47/47 45/45/45
f 46/46/46 48/48/48 47/47/47
f 50/50/50 51/51/51 49/49/49
f 50/50/50 52/52/52 51/51/51
f 54/54/54 55/55/55 53/53/53
f 54/54/54 56/56/56 55/55/55
f 58/58/58 59/59/59 57/57/57
f 58/58/58 60/60/60 59/59/59
f 62/62/62 63/63/63 61/61/61
f 62/62/62 64/64/64 63/63/63
f 66/66/66 67/67/67 65/65/65
f 66/66/66 68/68/68 67/67/67
f 70/70/70 71/71/71 69/69/69
f 70/70/70 72/72/72 71/71/71
f 74/74/74 75/75/75 73/73/73
f 74/74/74 76/76/76 75/75/75
f 78/78/78 79/79/79 77/77/77
f 78/78/78 80/80/80 79/79/79
f 82/82/82 83/83/83 81/81/81
f 82/82/82 84/84/84 83/83/83
f 86/86/86 87/87/87 85/85/85
f 86/86/86 88/88/88 87/87/87
f 90/90/90 91/91/91 89/89/89
f 90/90/90 92/92/92 91/91/91
f 94/94/94 95/95/95 93/93/93
f 94/94/94 96/96/96 95/95/95
f 98/98/98 99/99/99 97/97/97
f 98/98/98 100/100/100 99/99/99
f 102/102/102 103/103/103 101/101/101
f 102/102/102 104/104/104 103/103/103
f 106/106/106 107/107/107 105/105/105
f 106/106/106 108/108/108 107/107/107
f 110/110/110 111/111/111 109/109/109
f 110/110/110 112/112/112 111/111/111
f 114/114/114 115/115/115 113/113/113
f 114/114/114 116/116/116 115/115/115
f 118/118/118 119/119/119 117/117/117
f 118/118/118 120/120/120 119/119/119
f 122/122/122 123/123/123 121/121/121
f 122/122/122 124/124/124 123/123/123
f 126/126/126 127/127/127 125/125/125
f 126/126/126 128/128/128 127/127/127
f 130/130/130 131/131/131 129/129/129
f 130/130/130 132/132/132 131/131/131
f 134/134/134 135/135/135 133/133/133
f 134/134/134 136/136/136 135/135/135
f 138/138/138 139/139/139 137/137/137
f 138/138/138 140/140/140 139/139/139
