g Grass_0_Cluster150
v -3.190759 0 202.8126
v -3.988449 0 202.8126
v -3.190759 0 204.0092
v -3.988449 0 204.0092
v -28.91626 0 202.8126
v -29.71395 0 202.8126
v -28.91626 0 203.8097
v -29.71395 0 203.8097
v -6.182096 0 202.6132
v -7.179208 0 202.6132
v -6.182096 0 203.8097
v -7.179208 0 203.8097
v -7.578053 0 202.2144
v -8.575166 0 202.2144
v -7.578053 0 203.4109
v -8.575166 0 203.4109
v -27.71972 0 199.223
v -28.51741 0 199.223
v -27.71972 0 200.4196
v -28.51741 0 200.4196
v -29.11568 0 198.6248
v -30.11279 0 198.6248
v -29.11568 0 200.0207
v -30.11279 0 200.0207
v -13.3613 0 198.4253
v -14.15899 0 198.4253
v -13.3613 0 199.6219
v -14.15899 0 199.6219
v -29.51452 0 197.8271
v -30.31221 0 197.8271
v -29.51452 0 199.0236
v -30.31221 0 199.0236
v -14.55784 0 197.0294
v -15.35553 0 197.0294
v -14.55784 0 198.2259
v -15.35553 0 198.2259
v -28.31799 0 196.83
v -29.3151 0 196.83
v -28.31799 0 198.0265
v -29.3151 0 198.0265
v -11.16766 0 195.2346
v -11.96535 0 195.2346
v -11.16766 0 196.2317
v -11.96535 0 196.2317
v -0.9971123 0 190.249
v -1.794802 0 190.249
v -0.9971123 0 191.645
v -1.794802 0 191.645
v -14.15899 0 190.249
v -15.15611 0 190.249
v -14.15899 0 191.4456
v -15.15611 0 191.4456
v -12.16477 0 189.6507
v -13.16188 0 189.6507
v -12.16477 0 190.8473
v -13.16188 0 190.8473
v -26.92203 0 188.0554
v -27.71972 0 188.0554
v -26.92203 0 189.2519
v -27.71972 0 189.2519
v -1.59538 0 186.46
v -2.39307 0 186.46
v -1.59538 0 187.6565
v -2.39307 0 187.6565
v -24.92781 0 185.4629
v -25.7255 0 185.4629
v -24.92781 0 186.6594
v -25.7255 0 186.6594
v -9.971123 0 184.8646
v -10.96824 0 184.8646
v -9.971123 0 186.0611
v -10.96824 0 186.0611
v -0.7976898 0 181.8733
v -1.794802 0 181.8733
v -0.7976898 0 183.0698
v -1.794802 0 183.0698
v -15.55495 0 179.6796
v -16.55206 0 179.6796
v -15.55495 0 180.8762
v -16.55206 0 180.8762
vt 0 0.9058824
vt 0.06666667 0.9058824
vt 0 1
vt 0.06666667 1
vt 0 0.9058824
vt 0.06666667 0.9058824
vt 0 1
vt 0.06666667 1
vt 0 0.9058824
vt 0.06666667 0.9058824
vt 0 1
vt 0.06666667 1
vt 0 0.9058824
vt 0.06666667 0.9058824
vt 0 1
vt 0.06666667 1
vt 0 0.9058824
vt 0.06666667 0.9058824
vt 0 1
vt 0.06666667 1
vt 0 0.9058824
vt 0.06666667 0.9058824
vt 0 1
vt 0.06666667 1
vt 0 0.9058824
vt 0.06666667 0.9058824
vt 0 1
vt 0.06666667 1
vt 0 0.9058824
vt 0.06666667 0.9058824
vt 0 1
vt 0.06666667 1
vt 0 0.9058824
vt 0.06666667 0.9058824
vt 0 1
vt 0.06666667 1
vt 0 0.9058824
vt 0.06666667 0.9058824
vt 0 1
vt 0.06666667 1
vt 0 0.9058824
vt 0.06666667 0.9058824
vt 0 1
vt 0.06666667 1
vt 0 0.9058824
vt 0.06666667 0.9058824
vt 0 1
vt 0.06666667 1
vt 0 0.9058824
vt 0.06666667 0.9058824
vt 0 1
vt 0.06666667 1
vt 0 0.9058824
vt 0.06666667 0.9058824
vt 0 1
vt 0.06666667 1
vt 0 0.9058824
vt 0.06666667 0.9058824
vt 0 1
vt 0.06666667 1
vt 0 0.9058824
vt 0.06666667 0.9058824
vt 0 1
vt 0.06666667 1
vt 0 0.9058824
vt 0.06666667 0.9058824
vt 0 1
vt 0.06666667 1
vt 0 0.9058824
vt 0.06666667 0.9058824
vt 0 1
vt 0.06666667 1
vt 0 0.9058824
vt 0.06666667 0.9058824
vt 0 1
vt 0.06666667 1
vt 0 0.9058824
vt 0.06666667 0.9058824
vt 0 1
vt 0.06666667 1
vn 0 1 0
vn 0 1 0
vn 0 1 0
vn 0 1 0
vn 0 1 0
vn 0 1 0
vn 0 1 0
vn 0 1 0
vn 0 1 0
vn 0 1 0
vn 0 1 0
vn 0 1 0
vn 0 1 0
vn 0 1 0
vn 0 1 0
vn 0 1 0
vn 0 1 0
vn 0 1 0
vn 0 1 0
vn 0 1 0
vn 0 1 0
vn 0 1 0
vn 0 1 0
vn 0 1 0
vn 0 1 0
vn 0 1 0
vn 0 1 0
vn 0 1 0
vn 0 1 0
vn 0 1 0
vn 0 1 0
vn 0 1 0
vn 0 1 0
vn 0 1 0
vn 0 1 0
vn 0 1 0
vn 0 1 0
vn 0 1 0
vn 0 1 0
vn 0 1 0
vn 0 1 0
vn 0 1 0
vn 0 1 0
vn 0 1 0
vn 0 1 0
vn 0 1 0
vn 0 1 0
vn 0 1 0
vn 0 1 0
vn 0 1 0
vn 0 1 0
vn 0 1 0
vn 0 1 0
vn 0 1 0
vn 0 1 0
vn 0 1 0
vn 0 1 0
vn 0 1 0
vn 0 1 0
vn 0 1 0
vn 0 1 0
vn 0 1 0
vn 0 1 0
vn 0 1 0
vn 0 1 0
vn 0 1 0
vn 0 1 0
vn 0 1 0
vn 0 1 0
vn 0 1 0
vn 0 1 0
vn 0 1 0
vn 0 1 0
vn 0 1 0
vn 0 1 0
vn 0 1 0
vn 0 1 0
vn 0 1 0
vn 0 1 0
vn 0 1 0
g Grass_0_Cluster150_0
f 2/2/2 3/3/3 1/1/1
f 2/2/2 4/4/4 3/3/3
f 6/6/6 7/7/7 5/5/5
f 6/6/6 8/8/8 7/7/7
f 10/10/10 11/11/11 9/9/9
f 10/10/10 12/12/12 11/11/11
f 14/14/14 15/15/15 13/13/13
f 14/14/14 16/16/16 15/15/15
f 18/18/18 19/19/19 17/17/17
f 18/18/18 20/20/20 19/19/19
f 22/22/22 23/23/23 21/21/21
f 22/22/22 24/24/24 23/23/23
f 26/26/26 27/27/27 25/25/25
f 26/26/26 28/28/28 27/27/27
f 30/30/30 31/31/31 29/29/29
f 30/30/30 32/32/32 31/31/31
f 34/34/34 35/35/35 33/33/33
f 34/34/34 36/36/36 35/35/35
f 38/38/38 39/39/39 37/37/37
f 38/38/38 40/40/40 39/39/39
f 42/42/42 43/43/43 41/41/41
f 42/42/42 44/44/44 43/43/43
f 46/46/46 47/47/47 45/45/45
f 46/46/46 48/48/48 47/47/47
f 50/50/50 51/51/51 49/49/49
f 50/50/50 52/52/52 51/51/51
f 54/54/54 55/55/55 53/53/53
f 54/54/54 56/56/56 55/55/55
f 58/58/58 59/59/59 57/57/57
f 58/58/58 60/60/60 59/59/59
f 62/62/62 63/63/63 61/61/61
f 62/62/62 64/64/64 63/63/63
f 66/66/66 67/67/67 65/65/65
f 66/66/66 68/68/68 67/67/67
f 70/70/70 71/71/71 69/69/69
f 70/70/70 72/72/72 71/71/71
f 74/74/74 75/75/75 73/73/73
f 74/74/74 76/76/76 75/75/75
f 78/78/78 79/79/79 77/77/77
f 78/78/78 80/80/80 79/79/79
