g Grass_1_Cluster323
v 198.1459 -0.09324646 472.1863
v 196.8212 -0.09324646 472.1863
v 198.1459 -0.09324646 472.8486
v 196.8212 -0.09324646 472.8486
v 199.4707 -0.09324646 471.5239
v 198.8083 -0.09324646 471.5239
v 199.4707 -0.09324646 472.1863
v 198.8083 -0.09324646 472.1863
v 196.8212 -0.09324646 470.8615
v 196.1588 -0.09324646 470.8615
v 196.8212 -0.09324646 472.1863
v 196.1588 -0.09324646 472.1863
v 204.1074 -0.09324646 470.1991
v 202.7826 -0.09324646 470.1991
v 204.1074 -0.09324646 471.5239
v 202.7826 -0.09324646 471.5239
v 200.7955 -0.09324646 470.1991
v 200.1331 -0.09324646 470.1991
v 200.7955 -0.09324646 470.8615
v 200.1331 -0.09324646 470.8615
v 197.4836 -0.09324646 469.5367
v 196.8212 -0.09324646 469.5367
v 197.4836 -0.09324646 470.8615
v 196.8212 -0.09324646 470.8615
v 203.445 -0.09324646 469.5367
v 202.1202 -0.09324646 469.5367
v 203.445 -0.09324646 470.1991
v 202.1202 -0.09324646 470.1991
v 204.7698 -0.09324646 469.5367
v 204.1074 -0.09324646 469.5367
v 204.7698 -0.09324646 470.1991
v 204.1074 -0.09324646 470.1991
v 196.1588 -0.09324646 468.8743
v 195.4964 -0.09324646 468.8743
v 196.1588 -0.09324646 469.5367
v 195.4964 -0.09324646 469.5367
v 196.1588 -0.09324646 468.212
v 194.834 -0.09324646 468.212
v 196.1588 -0.09324646 468.8743
v 194.834 -0.09324646 468.8743
v 202.1202 -0.09324646 468.212
v 201.4579 -0.09324646 468.212
v 202.1202 -0.09324646 468.8743
v 201.4579 -0.09324646 468.8743
v 198.1459 -0.09324646 463.5753
v 196.8212 -0.09324646 463.5753
v 198.1459 -0.09324646 464.2377
v 196.8212 -0.09324646 464.2377
v 195.4964 -0.09324646 457.6138
v 194.1716 -0.09324646 457.6138
v 195.4964 -0.09324646 458.2762
v 194.1716 -0.09324646 458.2762
v 194.834 -0.09324646 457.6138
v 194.1716 -0.09324646 457.6138
v 194.834 -0.09324646 458.2762
v 194.1716 -0.09324646 458.2762
v 197.4836 -0.09324646 453.6395
v 196.8212 -0.09324646 453.6395
v 197.4836 -0.09324646 454.3019
v 196.8212 -0.09324646 454.3019
v 201.4579 -0.09324646 444.3661
v 200.1331 -0.09324646 444.3661
v 201.4579 -0.09324646 445.0285
v 200.1331 -0.09324646 445.0285
vt 0.06738281 0.9369141
vt 0.1331457 0.9369141
vt 0.06738281 0.9990234
vt 0.1331457 0.9990234
vt 0.06738281 0.9369141
vt 0.1331457 0.9369141
vt 0.06738281 0.9990234
vt 0.1331457 0.9990234
vt 0.06738281 0.9369141
vt 0.1331457 0.9369141
vt 0.06738281 0.9990234
vt 0.1331457 0.9990234
vt 0.06738281 0.9369141
vt 0.1331457 0.9369141
vt 0.06738281 0.9990234
vt 0.1331457 0.9990234
vt 0.06738281 0.9369141
vt 0.1331457 0.9369141
vt 0.06738281 0.9990234
vt 0.1331457 0.9990234
vt 0.06738281 0.9369141
vt 0.1331457 0.9369141
vt 0.06738281 0.9990234
vt 0.1331457 0.9990234
vt 0.06738281 0.9369141
vt 0.1331457 0.9369141
vt 0.06738281 0.9990234
vt 0.1331457 0.9990234
vt 0.06738281 0.9369141
vt 0.1331457 0.9369141
vt 0.06738281 0.9990234
vt 0.1331457 0.9990234
vt 0.06738281 0.9369141
vt 0.1331457 0.9369141
vt 0.06738281 0.9990234
vt 0.1331457 0.9990234
vt 0.06738281 0.9369141
vt 0.1331457 0.9369141
vt 0.06738281 0.9990234
vt 0.1331457 0.9990234
vt 0.06738281 0.9369141
vt 0.1331457 0.9369141
vt 0.06738281 0.9990234
vt 0.1331457 0.9990234
vt 0.06738281 0.9369141
vt 0.1331457 0.9369141
vt 0.06738281 0.9990234
vt 0.1331457 0.9990234
vt 0.06738281 0.9369141
vt 0.1331457 0.9369141
vt 0.06738281 0.9990234
vt 0.1331457 0.9990234
vt 0.06738281 0.9369141
vt 0.1331457 0.9369141
vt 0.06738281 0.9990234
vt 0.1331457 0.9990234
vt 0.06738281 0.9369141
vt 0.1331457 0.9369141
vt 0.06738281 0.9990234
vt 0.1331457 0.9990234
vt 0.06738281 0.9369141
vt 0.1331457 0.9369141
vt 0.06738281 0.9990234
vt 0.1331457 0.9990234
vn 0 1 0
vn 0 1 0
vn 0 1 0
vn 0 1 0
vn 0 1 0
vn 0 1 0
vn 0 1 0
vn 0 1 0
vn 0 1 0
vn 0 1 0
vn 0 1 0
vn 0 1 0
vn 0 1 0
vn 0 1 0
vn 0 1 0
vn 0 1 0
vn 0 1 0
vn 0 1 0
vn 0 1 0
vn 0 1 0
vn 0 1 0
vn 0 1 0
vn 0 1 0
vn 0 1 0
vn 0 1 0
vn 0 1 0
vn 0 1 0
vn 0 1 0
vn 0 1 0
vn 0 1 0
vn 0 1 0
vn 0 1 0
vn 0 1 0
vn 0 1 0
vn 0 1 0
vn 0 1 0
vn 0 1 0
vn 0 1 0
vn 0 1 0
vn 0 1 0
vn 0 1 0
vn 0 1 0
vn 0 1 0
vn 0 1 0
vn 0 1 0
vn 0 1 0
vn 0 1 0
vn 0 1 0
vn 0 1 0
vn 0 1 0
vn 0 1 0
vn 0 1 0
vn 0 1 0
vn 0 1 0
vn 0 1 0
vn 0 1 0
vn 0 1 0
vn 0 1 0
vn 0 1 0
vn 0 1 0
vn 0 1 0
vn 0 1 0
vn 0 1 0
vn 0 1 0
g Grass_1_Cluster323_0
f 2/2/2 3/3/3 1/1/1
f 2/2/2 4/4/4 3/3/3
f 6/6/6 7/7/7 5/5/5
f 6/6/6 8/8/8 7/7/7
f 10/10/10 11/11/11 9/9/9
f 10/10/10 12/12/12 11/11/11
f 14/14/14 15/15/15 13/13/13
f 14/14/14 16/16/16 15/15/15
f 18/18/18 19/19/19 17/17/17
f 18/18/18 20/20/20 19/19/19
f 22/22/22 23/23/23 21/21/21
f 22/22/22 24/24/24 23/23/23
f 26/26/26 27/27/27 25/25/25
f 26/26/26 28/28/28 27/27/27
f 30/30/30 31/31/31 29/29/29
f 30/30/30 32/32/32 31/31/31
f 34/34/34 35/35/35 33/33/33
f 34/34/34 36/36/36 35/35/35
f 38/38/38 39/39/39 37/37/37
f 38/38/38 40/40/40 39/39/39
f 42/42/42 43/43/43 41/41/41
f 42/42/42 44/44/44 43/43/43
f 46/46/46 47/47/47 45/45/45
f 46/46/46 48/48/48 47/47/47
f 50/50/50 51/51/51 49/49/49
f 50/50/50 52/52/52 51/51/51
f 54/54/54 55/55/55 53/53/53
f 54/54/54 56/56/56 55/55/55
f 58/58/58 59/59/59 57/57/57
f 58/58/58 60/60/60 59/59/59
f 62/62/62 63/63/63 61/61/61
f 62/62/62 64/64/64 63/63/63
