g Grass_2_Cluster312
v -68.97067 0 437.3854
v -69.82745 0 437.3854
v -68.97067 0 438.2422
v -69.82745 0 438.2422
v -71.11262 0 436.1003
v -71.9694 0 436.1003
v -71.11262 0 437.3854
v -71.9694 0 437.3854
v -71.11262 0 435.2435
v -71.9694 0 435.2435
v -71.11262 0 436.5287
v -71.9694 0 436.5287
v -71.54101 0 435.2435
v -72.82617 0 435.2435
v -71.54101 0 436.1003
v -72.82617 0 436.1003
v -66.82873 0 434.8151
v -68.11389 0 434.8151
v -66.82873 0 436.1003
v -68.11389 0 436.1003
v -68.97067 0 434.3867
v -69.82745 0 434.3867
v -68.97067 0 435.6719
v -69.82745 0 435.6719
v -71.11262 0 434.3867
v -72.39779 0 434.3867
v -71.11262 0 435.6719
v -72.39779 0 435.6719
v -68.54228 0 434.3867
v -69.39906 0 434.3867
v -68.54228 0 435.2435
v -69.39906 0 435.2435
v -69.82745 0 433.9583
v -70.68423 0 433.9583
v -69.82745 0 435.2435
v -70.68423 0 435.2435
v -70.68423 0 433.5299
v -71.9694 0 433.5299
v -70.68423 0 434.3867
v -71.9694 0 434.3867
v -83.10751 0 433.1015
v -84.39268 0 433.1015
v -83.10751 0 434.3867
v -84.39268 0 434.3867
v -85.24947 0 431.8164
v -86.10624 0 431.8164
v -85.24947 0 432.6732
v -86.10624 0 432.6732
v -83.5359 0 430.5312
v -84.39268 0 430.5312
v -83.5359 0 431.388
v -84.39268 0 431.388
v -84.82108 0 430.1028
v -85.67785 0 430.1028
v -84.82108 0 431.388
v -85.67785 0 431.388
v -85.67785 0 429.6744
v -86.53463 0 429.6744
v -85.67785 0 430.9596
v -86.53463 0 430.9596
v -82.67913 0 429.246
v -83.5359 0 429.246
v -82.67913 0 430.5312
v -83.5359 0 430.5312
v -83.96429 0 429.246
v -84.82108 0 429.246
v -83.96429 0 430.5312
v -84.82108 0 430.5312
v -83.96429 0 428.8177
v -85.24947 0 428.8177
v -83.96429 0 430.1028
v -85.24947 0 430.1028
v -86.10624 0 428.3893
v -86.96302 0 428.3893
v -86.10624 0 429.6744
v -86.96302 0 429.6744
v -86.53463 0 428.3893
v -87.39141 0 428.3893
v -86.53463 0 429.246
v -87.39141 0 429.246
v -83.5359 0 427.9609
v -84.39268 0 427.9609
v -83.5359 0 428.8177
v -84.39268 0 428.8177
v -85.24947 0 427.5325
v -86.10624 0 427.5325
v -85.24947 0 428.8177
v -86.10624 0 428.8177
v -87.39141 0 427.5325
v -88.24818 0 427.5325
v -87.39141 0 428.3893
v -88.24818 0 428.3893
v -88.67657 0 427.5325
v -89.96175 0 427.5325
v -88.67657 0 428.3893
v -89.96175 0 428.3893
v -83.10751 0 427.1041
v -83.96429 0 427.1041
v -83.10751 0 428.3893
v -83.96429 0 428.3893
v -84.39268 0 427.1041
v -85.24947 0 427.1041
v -84.39268 0 427.9609
v -85.24947 0 427.9609
v -81.82235 0 426.6757
v -82.67913 0 426.6757
v -81.82235 0 427.5325
v -82.67913 0 427.5325
v -84.82108 0 426.6757
v -86.10624 0 426.6757
v -84.82108 0 427.5325
v -86.10624 0 427.5325
v -87.8198 0 426.2473
v -88.67657 0 426.2473
v -87.8198 0 427.1041
v -88.67657 0 427.1041
v -79.6804 0 426.2473
v -80.53718 0 426.2473
v -79.6804 0 427.1041
v -80.53718 0 427.1041
v -86.96302 0 425.8189
v -88.24818 0 425.8189
v -86.96302 0 427.1041
v -88.24818 0 427.1041
v -83.10751 0 425.8189
v -83.96429 0 425.8189
v -83.10751 0 426.6757
v -83.96429 0 426.6757
v -86.10624 0 425.8189
v -86.96302 0 425.8189
v -86.10624 0 426.6757
v -86.96302 0 426.6757
v -89.10497 0 425.8189
v -89.96175 0 425.8189
v -89.10497 0 426.6757
v -89.96175 0 426.6757
v -86.10624 0 425.3905
v -86.96302 0 425.3905
v -86.10624 0 426.2473
v -86.96302 0 426.2473
v -88.24818 0 424.9622
v -89.10497 0 424.9622
v -88.24818 0 426.2473
v -89.10497 0 426.2473
v -89.53336 0 424.9622
v -90.39014 0 424.9622
v -89.53336 0 425.8189
v -90.39014 0 425.8189
v -82.25074 0 424.9622
v -83.10751 0 424.9622
v -82.25074 0 425.8189
v -83.10751 0 425.8189
v -84.39268 0 424.5338
v -85.24947 0 424.5338
v -84.39268 0 425.8189
v -85.24947 0 425.8189
v -85.67785 0 424.5338
v -86.53463 0 424.5338
v -85.67785 0 425.3905
v -86.53463 0 425.3905
v -88.67657 0 424.1054
v -89.53336 0 424.1054
v -88.67657 0 424.9622
v -89.53336 0 424.9622
v -86.96302 0 423.677
v -87.8198 0 423.677
v -86.96302 0 424.9622
v -87.8198 0 424.9622
v -89.53336 0 423.677
v -90.39014 0 423.677
v -89.53336 0 424.9622
v -90.39014 0 424.9622
v -83.5359 0 423.677
v -84.39268 0 423.677
v -83.5359 0 424.5338
v -84.39268 0 424.5338
v -87.39141 0 422.8202
v -88.67657 0 422.8202
v -87.39141 0 424.1054
v -88.67657 0 424.1054
v -61.68805 0 415.5376
v -62.54483 0 415.5376
v -61.68805 0 416.8228
v -62.54483 0 416.8228
v -59.54611 0 415.1092
v -60.40289 0 415.1092
v -59.54611 0 416.3943
v -60.40289 0 416.3943
v -61.25966 0 414.6808
v -62.11644 0 414.6808
v -61.25966 0 415.966
v -62.11644 0 415.966
v -76.68168 0 413.3956
v -77.53846 0 413.3956
v -76.68168 0 414.2524
v -77.53846 0 414.2524
vt 0.1347656 0.9185662
vt 0.2060202 0.9185662
vt 0.1347656 1
vt 0.2060202 1
vt 0.1347656 0.9185662
vt 0.2060202 0.9185662
vt 0.1347656 1
vt 0.2060202 1
vt 0.1347656 0.9185662
vt 0.2060202 0.9185662
vt 0.1347656 1
vt 0.2060202 1
vt 0.1347656 0.9185662
vt 0.2060202 0.9185662
vt 0.1347656 1
vt 0.2060202 1
vt 0.1347656 0.9185662
vt 0.2060202 0.9185662
vt 0.1347656 1
vt 0.2060202 1
vt 0.1347656 0.9185662
vt 0.2060202 0.9185662
vt 0.1347656 1
vt 0.2060202 1
vt 0.1347656 0.9185662
vt 0.2060202 0.9185662
vt 0.1347656 1
vt 0.2060202 1
vt 0.1347656 0.9185662
vt 0.2060202 0.9185662
vt 0.1347656 1
vt 0.2060202 1
vt 0.1347656 0.9185662
vt 0.2060202 0.9185662
vt 0.1347656 1
vt 0.2060202 1
vt 0.1347656 0.9185662
vt 0.2060202 0.9185662
vt 0.1347656 1
vt 0.2060202 1
vt 0.1347656 0.9185662
vt 0.2060202 0.9185662
vt 0.1347656 1
vt 0.2060202 1
vt 0.1347656 0.9185662
vt 0.2060202 0.9185662
vt 0.1347656 1
vt 0.2060202 1
vt 0.1347656 0.9185662
vt 0.2060202 0.9185662
vt 0.1347656 1
vt 0.2060202 1
vt 0.1347656 0.9185662
vt 0.2060202 0.9185662
vt 0.1347656 1
vt 0.2060202 1
vt 0.1347656 0.9185662
vt 0.2060202 0.9185662
vt 0.1347656 1
vt 0.2060202 1
vt 0.1347656 0.9185662
vt 0.2060202 0.9185662
vt 0.1347656 1
vt 0.2060202 1
vt 0.1347656 0.9185662
vt 0.2060202 0.9185662
vt 0.1347656 1
vt 0.2060202 1
vt 0.1347656 0.9185662
vt 0.2060202 0.9185662
vt 0.1347656 1
vt 0.2060202 1
vt 0.1347656 0.9185662
vt 0.2060202 0.9185662
vt 0.1347656 1
vt 0.2060202 1
vt 0.1347656 0.9185662
vt 0.2060202 0.9185662
vt 0.1347656 1
vt 0.2060202 1
vt 0.1347656 0.9185662
vt 0.2060202 0.9185662
vt 0.1347656 1
vt 0.2060202 1
vt 0.1347656 0.9185662
vt 0.2060202 0.9185662
vt 0.1347656 1
vt 0.2060202 1
vt 0.1347656 0.9185662
vt 0.2060202 0.9185662
vt 0.1347656 1
vt 0.2060202 1
vt 0.1347656 0.9185662
vt 0.2060202 0.9185662
vt 0.1347656 1
vt 0.2060202 1
vt 0.1347656 0.9185662
vt 0.2060202 0.9185662
vt 0.1347656 1
vt 0.2060202 1
vt 0.1347656 0.9185662
vt 0.2060202 0.9185662
vt 0.1347656 1
vt 0.2060202 1
vt 0.1347656 0.9185662
vt 0.2060202 0.9185662
vt 0.1347656 1
vt 0.2060202 1
vt 0.1347656 0.9185662
vt 0.2060202 0.9185662
vt 0.1347656 1
vt 0.2060202 1
vt 0.1347656 0.9185662
vt 0.2060202 0.9185662
vt 0.1347656 1
vt 0.2060202 1
vt 0.1347656 0.9185662
vt 0.2060202 0.9185662
vt 0.1347656 1
vt 0.2060202 1
vt 0.1347656 0.9185662
vt 0.2060202 0.9185662
vt 0.1347656 1
vt 0.2060202 1
vt 0.1347656 0.9185662
vt 0.2060202 0.9185662
vt 0.1347656 1
vt 0.2060202 1
vt 0.1347656 0.9185662
vt 0.2060202 0.9185662
vt 0.1347656 1
vt 0.2060202 1
vt 0.1347656 0.9185662
vt 0.2060202 0.9185662
vt 0.1347656 1
vt 0.2060202 1
vt 0.1347656 0.9185662
vt 0.2060202 0.9185662
vt 0.1347656 1
vt 0.2060202 1
vt 0.1347656 0.9185662
vt 0.2060202 0.9185662
vt 0.1347656 1
vt 0.2060202 1
vt 0.1347656 0.9185662
vt 0.2060202 0.9185662
vt 0.1347656 1
vt 0.2060202 1
vt 0.1347656 0.9185662
vt 0.2060202 0.9185662
vt 0.1347656 1
vt 0.2060202 1
vt 0.1347656 0.9185662
vt 0.2060202 0.9185662
vt 0.1347656 1
vt 0.2060202 1
vt 0.1347656 0.9185662
vt 0.2060202 0.9185662
vt 0.1347656 1
vt 0.2060202 1
vt 0.1347656 0.9185662
vt 0.2060202 0.9185662
vt 0.1347656 1
vt 0.2060202 1
vt 0.1347656 0.9185662
vt 0.2060202 0.9185662
vt 0.1347656 1
vt 0.2060202 1
vt 0.1347656 0.9185662
vt 0.2060202 0.9185662
vt 0.1347656 1
vt 0.2060202 1
vt 0.1347656 0.9185662
vt 0.2060202 0.9185662
vt 0.1347656 1
vt 0.2060202 1
vt 0.1347656 0.9185662
vt 0.2060202 0.9185662
vt 0.1347656 1
vt 0.2060202 1
vt 0.1347656 0.9185662
vt 0.2060202 0.9185662
vt 0.1347656 1
vt 0.2060202 1
vt 0.1347656 0.9185662
vt 0.2060202 0.9185662
vt 0.1347656 1
vt 0.2060202 1
vt 0.1347656 0.9185662
vt 0.2060202 0.9185662
vt 0.1347656 1
vt 0.2060202 1
vt 0.1347656 0.9185662
vt 0.2060202 0.9185662
vt 0.1347656 1
vt 0.2060202 1
vn 0 1 0
vn 0 1 0
vn 0 1 0
vn 0 1 0
vn 0 1 0
vn 0 1 0
vn 0 1 0
vn 0 1 0
vn 0 1 0
vn 0 1 0
vn 0 1 0
vn 0 1 0
vn 0 1 0
vn 0 1 0
vn 0 1 0
vn 0 1 0
vn 0 1 0
vn 0 1 0
vn 0 1 0
vn 0 1 0
vn 0 1 0
vn 0 1 0
vn 0 1 0
vn 0 1 0
vn 0 1 0
vn 0 1 0
vn 0 1 0
vn 0 1 0
vn 0 1 0
vn 0 1 0
vn 0 1 0
vn 0 1 0
vn 0 1 0
vn 0 1 0
vn 0 1 0
vn 0 1 0
vn 0 1 0
vn 0 1 0
vn 0 1 0
vn 0 1 0
vn 0 1 0
vn 0 1 0
vn 0 1 0
vn 0 1 0
vn 0 1 0
vn 0 1 0
vn 0 1 0
vn 0 1 0
vn 0 1 0
vn 0 1 0
vn 0 1 0
vn 0 1 0
vn 0 1 0
vn 0 1 0
vn 0 1 0
vn 0 1 0
vn 0 1 0
vn 0 1 0
vn 0 1 0
vn 0 1 0
vn 0 1 0
vn 0 1 0
vn 0 1 0
vn 0 1 0
vn 0 1 0
vn 0 1 0
vn 0 1 0
vn 0 1 0
vn 0 1 0
vn 0 1 0
vn 0 1 0
vn 0 1 0
vn 0 1 0
vn 0 1 0
vn 0 1 0
vn 0 1 0
vn 0 1 0
vn 0 1 0
vn 0 1 0
vn 0 1 0
vn 0 1 0
vn 0 1 0
vn 0 1 0
vn 0 1 0
vn 0 1 0
vn 0 1 0
vn 0 1 0
vn 0 1 0
vn 0 1 0
vn 0 1 0
vn 0 1 0
vn 0 1 0
vn 0 1 0
vn 0 1 0
vn 0 1 0
vn 0 1 0
vn 0 1 0
vn 0 1 0
vn 0 1 0
vn 0 1 0
vn 0 1 0
vn 0 1 0
vn 0 1 0
vn 0 1 0
vn 0 1 0
vn 0 1 0
vn 0 1 0
vn 0 1 0
vn 0 1 0
vn 0 1 0
vn 0 1 0
vn 0 1 0
vn 0 1 0
vn 0 1 0
vn 0 1 0
vn 0 1 0
vn 0 1 0
vn 0 1 0
vn 0 1 0
vn 0 1 0
vn 0 1 0
vn 0 1 0
vn 0 1 0
vn 0 1 0
vn 0 1 0
vn 0 1 0
vn 0 1 0
vn 0 1 0
vn 0 1 0
vn 0 1 0
vn 0 1 0
vn 0 1 0
vn 0 1 0
vn 0 1 0
vn 0 1 0
vn 0 1 0
vn 0 1 0
vn 0 1 0
vn 0 1 0
vn 0 1 0
vn 0 1 0
vn 0 1 0
vn 0 1 0
vn 0 1 0
vn 0 1 0
vn 0 1 0
vn 0 1 0
vn 0 1 0
vn 0 1 0
vn 0 1 0
vn 0 1 0
vn 0 1 0
vn 0 1 0
vn 0 1 0
vn 0 1 0
vn 0 1 0
vn 0 1 0
vn 0 1 0
vn 0 1 0
vn 0 1 0
vn 0 1 0
vn 0 1 0
vn 0 1 0
vn 0 1 0
vn 0 1 0
vn 0 1 0
vn 0 1 0
vn 0 1 0
vn 0 1 0
vn 0 1 0
vn 0 1 0
vn 0 1 0
vn 0 1 0
vn 0 1 0
vn 0 1 0
vn 0 1 0
vn 0 1 0
vn 0 1 0
vn 0 1 0
vn 0 1 0
vn 0 1 0
vn 0 1 0
vn 0 1 0
vn 0 1 0
vn 0 1 0
vn 0 1 0
vn 0 1 0
vn 0 1 0
vn 0 1 0
vn 0 1 0
vn 0 1 0
vn 0 1 0
vn 0 1 0
vn 0 1 0
vn 0 1 0
vn 0 1 0
g Grass_2_Cluster312_0
f 2/2/2 3/3/3 1/1/1
f 2/2/2 4/4/4 3/3/3
f 6/6/6 7/7/7 5/5/5
f 6/6/6 8/8/8 7/7/7
f 10/10/10 11/11/11 9/9/9
f 10/10/10 12/12/12 11/11/11
f 14/14/14 15/15/15 13/13/13
f 14/14/14 16/16/16 15/15/15
f 18/18/18 19/19/19 17/17/17
f 18/18/18 20/20/20 19/19/19
f 22/22/22 23/23/23 21/21/21
f 22/22/22 24/24/24 23/23/23
f 26/26/26 27/27/27 25/25/25
f 26/26/26 28/28/28 27/27/27
f 30/30/30 31/31/31 29/29/29
f 30/30/30 32/32/32 31/31/31
f 34/34/34 35/35/35 33/33/33
f 34/34/34 36/36/36 35/35/35
f 38/38/38 39/39/39 37/37/37
f 38/38/38 40/40/40 39/39/39
f 42/42/42 43/43/43 41/41/41
f 42/42/42 44/44/44 43/43/43
f 46/46/46 47/47/47 45/45/45
f 46/46/46 48/48/48 47/47/47
f 50/50/50 51/51/51 49/49/49
f 50/50/50 52/52/52 51/51/51
f 54/54/54 55/55/55 53/53/53
f 54/54/54 56/56/56 55/55/55
f 58/58/58 59/59/59 57/57/57
f 58/58/58 60/60/60 59/59/59
f 62/62/62 63/63/63 61/61/61
f 62/62/62 64/64/64 63/63/63
f 66/66/66 67/67/67 65/65/65
f 66/66/66 68/68/68 67/67/67
f 70/70/70 71/71/71 69/69/69
f 70/70/70 72/72/72 71/71/71
f 74/74/74 75/75/75 73/73/73
f 74/74/74 76/76/76 75/75/75
f 78/78/78 79/79/79 77/77/77
f 78/78/78 80/80/80 79/79/79
f 82/82/82 83/83/83 81/81/81
f 82/82/82 84/84/84 83/83/83
f 86/86/86 87/87/87 85/85/85
f 86/86/86 88/88/88 87/87/87
f 90/90/90 91/91/91 89/89/89
f 90/90/90 92/92/92 91/91/91
f 94/94/94 95/95/95 93/93/93
f 94/94/94 96/96/96 95/95/95
f 98/98/98 99/99/99 97/97/97
f 98/98/98 100/100/100 99/99/99
f 102/102/102 103/103/103 101/101/101
f 102/102/102 104/104/104 103/103/103
f 106/106/106 107/107/107 105/105/105
f 106/106/106 108/108/108 107/107/107
f 110/110/110 111/111/111 109/109/109
f 110/110/110 112/112/112 111/111/111
f 114/114/114 115/115/115 113/113/113
f 114/114/114 116/116/116 115/115/115
f 118/118/118 119/119/119 117/117/117
f 118/118/118 120/120/120 119/119/119
f 122/122/122 123/123/123 121/121/121
f 122/122/122 124/124/124 123/123/123
f 126/126/126 127/127/127 125/125/125
f 126/126/126 128/128/128 127/127/127
f 130/130/130 131/131/131 129/129/129
f 130/130/130 132/132/132 131/131/131
f 134/134/134 135/135/135 133/133/133
f 134/134/134 136/136/136 135/135/135
f 138/138/138 139/139/139 137/137/137
f 138/138/138 140/140/140 139/139/139
f 142/142/142 143/143/143 141/141/141
f 142/142/142 144/144/144 143/143/143
f 146/146/146 147/147/147 145/145/145
f 146/146/146 148/148/148 147/147/147
f 150/150/150 151/151/151 149/149/149
f 150/150/150 152/152/152 151/151/151
f 154/154/154 155/155/155 153/153/153
f 154/154/154 156/156/156 155/155/155
f 158/158/158 159/159/159 157/157/157
f 158/158/158 160/160/160 159/159/159
f 162/162/162 163/163/163 161/161/161
f 162/162/162 164/164/164 163/163/163
f 166/166/166 167/167/167 165/165/165
f 166/166/166 168/168/168 167/167/167
f 170/170/170 171/171/171 169/169/169
f 170/170/170 172/172/172 171/171/171
f 174/174/174 175/175/175 173/173/173
f 174/174/174 176/176/176 175/175/175
f 178/178/178 179/179/179 177/177/177
f 178/178/178 180/180/180 179/179/179
f 182/182/182 183/183/183 181/181/181
f 182/182/182 184/184/184 183/183/183
f 186/186/186 187/187/187 185/185/185
f 186/186/186 188/188/188 187/187/187
f 190/190/190 191/191/191 189/189/189
f 190/190/190 192/192/192 191/191/191
f 194/194/194 195/195/195 193/193/193
f 194/194/194 196/196/196 195/195/195
