g Grass_1_Cluster148
v 47.43595 0.01150513 202.9251
v 46.67881 0.01150513 202.9251
v 47.43595 0.01150513 203.6822
v 46.67881 0.01150513 203.6822
v 46.42643 0.01150513 202.6727
v 45.41691 0.01150513 202.6727
v 46.42643 0.01150513 203.4298
v 45.41691 0.01150513 203.4298
v 49.20261 0.01150513 202.1679
v 48.44547 0.01150513 202.1679
v 49.20261 0.01150513 202.9251
v 48.44547 0.01150513 202.9251
v 50.21213 0.01150513 200.6537
v 49.20261 0.01150513 200.6537
v 50.21213 0.01150513 201.4108
v 49.20261 0.01150513 201.4108
v 54.25021 0.01150513 199.8965
v 53.24069 0.01150513 199.8965
v 54.25021 0.01150513 200.6537
v 53.24069 0.01150513 200.6537
v 51.47403 0.01150513 199.3918
v 50.46451 0.01150513 199.3918
v 51.47403 0.01150513 200.4013
v 50.46451 0.01150513 200.4013
v 54.50259 0.01150513 198.3822
v 53.49307 0.01150513 198.3822
v 54.50259 0.01150513 199.1394
v 53.49307 0.01150513 199.1394
v 52.23117 0.01150513 196.6156
v 51.22165 0.01150513 196.6156
v 52.23117 0.01150513 197.3727
v 51.22165 0.01150513 197.3727
v 36.07885 0.01150513 192.5775
v 35.06932 0.01150513 192.5775
v 36.07885 0.01150513 193.3346
v 35.06932 0.01150513 193.3346
v 42.13597 0.01150513 190.8108
v 41.12645 0.01150513 190.8108
v 42.13597 0.01150513 191.8203
v 41.12645 0.01150513 191.8203
v 37.08836 0.01150513 190.3061
v 36.33123 0.01150513 190.3061
v 37.08836 0.01150513 191.0632
v 36.33123 0.01150513 191.0632
v 43.39787 0.01150513 190.0537
v 42.64073 0.01150513 190.0537
v 43.39787 0.01150513 190.8108
v 42.64073 0.01150513 190.8108
v 38.35027 0.01150513 189.8013
v 37.34074 0.01150513 189.8013
v 38.35027 0.01150513 190.8108
v 37.34074 0.01150513 190.8108
v 39.61217 0.01150513 189.0442
v 38.85503 0.01150513 189.0442
v 39.61217 0.01150513 189.8013
v 38.85503 0.01150513 189.8013
v 42.13597 0.01150513 188.5394
v 41.12645 0.01150513 188.5394
v 42.13597 0.01150513 189.5489
v 41.12645 0.01150513 189.5489
vt 0.06738281 0.9369141
vt 0.1331457 0.9369141
vt 0.06738281 0.9990234
vt 0.1331457 0.9990234
vt 0.06738281 0.9369141
vt 0.1331457 0.9369141
vt 0.06738281 0.9990234
vt 0.1331457 0.9990234
vt 0.06738281 0.9369141
vt 0.1331457 0.9369141
vt 0.06738281 0.9990234
vt 0.1331457 0.9990234
vt 0.06738281 0.9369141
vt 0.1331457 0.9369141
vt 0.06738281 0.9990234
vt 0.1331457 0.9990234
vt 0.06738281 0.9369141
vt 0.1331457 0.9369141
vt 0.06738281 0.9990234
vt 0.1331457 0.9990234
vt 0.06738281 0.9369141
vt 0.1331457 0.9369141
vt 0.06738281 0.9990234
vt 0.1331457 0.9990234
vt 0.06738281 0.9369141
vt 0.1331457 0.9369141
vt 0.06738281 0.9990234
vt 0.1331457 0.9990234
vt 0.06738281 0.9369141
vt 0.1331457 0.9369141
vt 0.06738281 0.9990234
vt 0.1331457 0.9990234
vt 0.06738281 0.9369141
vt 0.1331457 0.9369141
vt 0.06738281 0.9990234
vt 0.1331457 0.9990234
vt 0.06738281 0.9369141
vt 0.1331457 0.9369141
vt 0.06738281 0.9990234
vt 0.1331457 0.9990234
vt 0.06738281 0.9369141
vt 0.1331457 0.9369141
vt 0.06738281 0.9990234
vt 0.1331457 0.9990234
vt 0.06738281 0.9369141
vt 0.1331457 0.9369141
vt 0.06738281 0.9990234
vt 0.1331457 0.9990234
vt 0.06738281 0.9369141
vt 0.1331457 0.9369141
vt 0.06738281 0.9990234
vt 0.1331457 0.9990234
vt 0.06738281 0.9369141
vt 0.1331457 0.9369141
vt 0.06738281 0.9990234
vt 0.1331457 0.9990234
vt 0.06738281 0.9369141
vt 0.1331457 0.9369141
vt 0.06738281 0.9990234
vt 0.1331457 0.9990234
vn 0 1 0
vn 0 1 0
vn 0 1 0
vn 0 1 0
vn 0 1 0
vn 0 1 0
vn 0 1 0
vn 0 1 0
vn 0 1 0
vn 0 1 0
vn 0 1 0
vn 0 1 0
vn 0 1 0
vn 0 1 0
vn 0 1 0
vn 0 1 0
vn 0 1 0
vn 0 1 0
vn 0 1 0
vn 0 1 0
vn 0 1 0
vn 0 1 0
vn 0 1 0
vn 0 1 0
vn 0 1 0
vn 0 1 0
vn 0 1 0
vn 0 1 0
vn 0 1 0
vn 0 1 0
vn 0 1 0
vn 0 1 0
vn 0 1 0
vn 0 1 0
vn 0 1 0
vn 0 1 0
vn 0 1 0
vn 0 1 0
vn 0 1 0
vn 0 1 0
vn 0 1 0
vn 0 1 0
vn 0 1 0
vn 0 1 0
vn 0 1 0
vn 0 1 0
vn 0 1 0
vn 0 1 0
vn 0 1 0
vn 0 1 0
vn 0 1 0
vn 0 1 0
vn 0 1 0
vn 0 1 0
vn 0 1 0
vn 0 1 0
vn 0 1 0
vn 0 1 0
vn 0 1 0
vn 0 1 0
g Grass_1_Cluster148_0
f 2/2/2 3/3/3 1/1/1
f 2/2/2 4/4/4 3/3/3
f 6/6/6 7/7/7 5/5/5
f 6/6/6 8/8/8 7/7/7
f 10/10/10 11/11/11 9/9/9
f 10/10/10 12/12/12 11/11/11
f 14/14/14 15/15/15 13/13/13
f 14/14/14 16/16/16 15/15/15
f 18/18/18 19/19/19 17/17/17
f 18/18/18 20/20/20 19/19/19
f 22/22/22 23/23/23 21/21/21
f 22/22/22 24/24/24 23/23/23
f 26/26/26 27/27/27 25/25/25
f 26/26/26 28/28/28 27/27/27
f 30/30/30 31/31/31 29/29/29
f 30/30/30 32/32/32 31/31/31
f 34/34/34 35/35/35 33/33/33
f 34/34/34 36/36/36 35/35/35
f 38/38/38 39/39/39 37/37/37
f 38/38/38 40/40/40 39/39/39
f 42/42/42 43/43/43 41/41/41
f 42/42/42 44/44/44 43/43/43
f 46/46/46 47/47/47 45/45/45
f 46/46/46 48/48/48 47/47/47
f 50/50/50 51/51/51 49/49/49
f 50/50/50 52/52/52 51/51/51
f 54/54/54 55/55/55 53/53/53
f 54/54/54 56/56/56 55/55/55
f 58/58/58 59/59/59 57/57/57
f 58/58/58 60/60/60 59/59/59
