g Grass_0_Cluster19
v -289.1617 0.1620903 -8.066828
v -290.1492 0.1620903 -8.066828
v -289.1617 0.1620903 -6.7502
v -290.1492 0.1620903 -6.7502
v -294.4282 0.1620903 -8.72514
v -295.4157 0.1620903 -8.72514
v -294.4282 0.1620903 -7.408514
v -295.4157 0.1620903 -7.408514
v -296.7323 0.1620903 -9.71261
v -297.7198 0.1620903 -9.71261
v -296.7323 0.1620903 -8.395983
v -297.7198 0.1620903 -8.395983
v -298.7072 0.1620903 -9.71261
v -299.6947 0.1620903 -9.71261
v -298.7072 0.1620903 -8.395983
v -299.6947 0.1620903 -8.395983
v -290.8075 0.1620903 -10.37092
v -291.795 0.1620903 -10.37092
v -290.8075 0.1620903 -9.054296
v -291.795 0.1620903 -9.054296
v -291.4658 0.1620903 -10.37092
v -292.4533 0.1620903 -10.37092
v -291.4658 0.1620903 -9.383453
v -292.4533 0.1620903 -9.383453
v -298.049 0.1620903 -10.70008
v -298.7072 0.1620903 -10.70008
v -298.049 0.1620903 -9.71261
v -298.7072 0.1620903 -9.71261
v -299.0364 0.1620903 -13.00418
v -299.6947 0.1620903 -13.00418
v -299.0364 0.1620903 -11.68755
v -299.6947 0.1620903 -11.68755
v -288.8326 0.1620903 -14.3208
v -289.82 0.1620903 -14.3208
v -288.8326 0.1620903 -13.00418
v -289.82 0.1620903 -13.00418
v -280.9328 0.1620903 -15.63743
v -281.9203 0.1620903 -15.63743
v -280.9328 0.1620903 -14.3208
v -281.9203 0.1620903 -14.3208
v -299.0364 0.1620903 -18.59984
v -300.0239 0.1620903 -18.59984
v -299.0364 0.1620903 -17.28321
v -300.0239 0.1620903 -17.28321
v -298.049 0.1620903 -20.24563
v -299.0364 0.1620903 -20.24563
v -298.049 0.1620903 -18.929
v -299.0364 0.1620903 -18.929
v -281.5911 0.1620903 -22.22057
v -282.5786 0.1620903 -22.22057
v -281.5911 0.1620903 -20.90394
v -282.5786 0.1620903 -20.90394
v -295.4157 0.1620903 -27.48707
v -296.074 0.1620903 -27.48707
v -295.4157 0.1620903 -26.17045
v -296.074 0.1620903 -26.17045
v -299.3656 0.1620903 -30.44948
v -300.353 0.1620903 -30.44948
v -299.3656 0.1620903 -29.13286
v -300.353 0.1620903 -29.13286
v -293.4407 0.1620903 -31.76611
v -294.0991 0.1620903 -31.76611
v -293.4407 0.1620903 -30.77864
v -294.0991 0.1620903 -30.77864
v -285.541 0.1620903 -33.74105
v -286.5284 0.1620903 -33.74105
v -285.541 0.1620903 -32.42442
v -286.5284 0.1620903 -32.42442
v -284.8827 0.1620903 -33.74105
v -285.8701 0.1620903 -33.74105
v -284.8827 0.1620903 -32.42442
v -285.8701 0.1620903 -32.42442
v -285.2118 0.1620903 -34.39936
v -285.8701 0.1620903 -34.39936
v -285.2118 0.1620903 -33.08274
v -285.8701 0.1620903 -33.08274
v -290.4783 0.1620903 -36.37431
v -291.4658 0.1620903 -36.37431
v -290.4783 0.1620903 -35.05768
v -291.4658 0.1620903 -35.05768
vt 0 0.9058824
vt 0.06666667 0.9058824
vt 0 1
vt 0.06666667 1
vt 0 0.9058824
vt 0.06666667 0.9058824
vt 0 1
vt 0.06666667 1
vt 0 0.9058824
vt 0.06666667 0.9058824
vt 0 1
vt 0.06666667 1
vt 0 0.9058824
vt 0.06666667 0.9058824
vt 0 1
vt 0.06666667 1
vt 0 0.9058824
vt 0.06666667 0.9058824
vt 0 1
vt 0.06666667 1
vt 0 0.9058824
vt 0.06666667 0.9058824
vt 0 1
vt 0.06666667 1
vt 0 0.9058824
vt 0.06666667 0.9058824
vt 0 1
vt 0.06666667 1
vt 0 0.9058824
vt 0.06666667 0.9058824
vt 0 1
vt 0.06666667 1
vt 0 0.9058824
vt 0.06666667 0.9058824
vt 0 1
vt 0.06666667 1
vt 0 0.9058824
vt 0.06666667 0.9058824
vt 0 1
vt 0.06666667 1
vt 0 0.9058824
vt 0.06666667 0.9058824
vt 0 1
vt 0.06666667 1
vt 0 0.9058824
vt 0.06666667 0.9058824
vt 0 1
vt 0.06666667 1
vt 0 0.9058824
vt 0.06666667 0.9058824
vt 0 1
vt 0.06666667 1
vt 0 0.9058824
vt 0.06666667 0.9058824
vt 0 1
vt 0.06666667 1
vt 0 0.9058824
vt 0.06666667 0.9058824
vt 0 1
vt 0.06666667 1
vt 0 0.9058824
vt 0.06666667 0.9058824
vt 0 1
vt 0.06666667 1
vt 0 0.9058824
vt 0.06666667 0.9058824
vt 0 1
vt 0.06666667 1
vt 0 0.9058824
vt 0.06666667 0.9058824
vt 0 1
vt 0.06666667 1
vt 0 0.9058824
vt 0.06666667 0.9058824
vt 0 1
vt 0.06666667 1
vt 0 0.9058824
vt 0.06666667 0.9058824
vt 0 1
vt 0.06666667 1
vn 0 1 0
vn 0 1 0
vn 0 1 0
vn 0 1 0
vn 0 1 0
vn 0 1 0
vn 0 1 0
vn 0 1 0
vn 0 1 0
vn 0 1 0
vn 0 1 0
vn 0 1 0
vn 0 1 0
vn 0 1 0
vn 0 1 0
vn 0 1 0
vn 0 1 0
vn 0 1 0
vn 0 1 0
vn 0 1 0
vn 0 1 0
vn 0 1 0
vn 0 1 0
vn 0 1 0
vn 0 1 0
vn 0 1 0
vn 0 1 0
vn 0 1 0
vn 0 1 0
vn 0 1 0
vn 0 1 0
vn 0 1 0
vn 0 1 0
vn 0 1 0
vn 0 1 0
vn 0 1 0
vn 0 1 0
vn 0 1 0
vn 0 1 0
vn 0 1 0
vn 0 1 0
vn 0 1 0
vn 0 1 0
vn 0 1 0
vn 0 1 0
vn 0 1 0
vn 0 1 0
vn 0 1 0
vn 0 1 0
vn 0 1 0
vn 0 1 0
vn 0 1 0
vn 0 1 0
vn 0 1 0
vn 0 1 0
vn 0 1 0
vn 0 1 0
vn 0 1 0
vn 0 1 0
vn 0 1 0
vn 0 1 0
vn 0 1 0
vn 0 1 0
vn 0 1 0
vn 0 1 0
vn 0 1 0
vn 0 1 0
vn 0 1 0
vn 0 1 0
vn 0 1 0
vn 0 1 0
vn 0 1 0
vn 0 1 0
vn 0 1 0
vn 0 1 0
vn 0 1 0
vn 0 1 0
vn 0 1 0
vn 0 1 0
vn 0 1 0
g Grass_0_Cluster19_0
f 2/2/2 3/3/3 1/1/1
f 2/2/2 4/4/4 3/3/3
f 6/6/6 7/7/7 5/5/5
f 6/6/6 8/8/8 7/7/7
f 10/10/10 11/11/11 9/9/9
f 10/10/10 12/12/12 11/11/11
f 14/14/14 15/15/15 13/13/13
f 14/14/14 16/16/16 15/15/15
f 18/18/18 19/19/19 17/17/17
f 18/18/18 20/20/20 19/19/19
f 22/22/22 23/23/23 21/21/21
f 22/22/22 24/24/24 23/23/23
f 26/26/26 27/27/27 25/25/25
f 26/26/26 28/28/28 27/27/27
f 30/30/30 31/31/31 29/29/29
f 30/30/30 32/32/32 31/31/31
f 34/34/34 35/35/35 33/33/33
f 34/34/34 36/36/36 35/35/35
f 38/38/38 39/39/39 37/37/37
f 38/38/38 40/40/40 39/39/39
f 42/42/42 43/43/43 41/41/41
f 42/42/42 44/44/44 43/43/43
f 46/46/46 47/47/47 45/45/45
f 46/46/46 48/48/48 47/47/47
f 50/50/50 51/51/51 49/49/49
f 50/50/50 52/52/52 51/51/51
f 54/54/54 55/55/55 53/53/53
f 54/54/54 56/56/56 55/55/55
f 58/58/58 59/59/59 57/57/57
f 58/58/58 60/60/60 59/59/59
f 62/62/62 63/63/63 61/61/61
f 62/62/62 64/64/64 63/63/63
f 66/66/66 67/67/67 65/65/65
f 66/66/66 68/68/68 67/67/67
f 70/70/70 71/71/71 69/69/69
f 70/70/70 72/72/72 71/71/71
f 74/74/74 75/75/75 73/73/73
f 74/74/74 76/76/76 75/75/75
f 78/78/78 79/79/79 77/77/77
f 78/78/78 80/80/80 79/79/79
