g Grass_1_Cluster28
v 41.83894 0.01047134 20.18078
v 40.88602 0.01047134 20.18078
v 41.83894 0.01047134 20.97488
v 40.88602 0.01047134 20.97488
v 42.71246 0.01047134 19.46608
v 41.75953 0.01047134 19.46608
v 42.71246 0.01047134 20.3396
v 41.75953 0.01047134 20.3396
v 41.5213 0.01047134 19.30726
v 40.56837 0.01047134 19.30726
v 41.5213 0.01047134 20.18078
v 40.56837 0.01047134 20.18078
v 39.37721 0.01047134 18.75139
v 38.50369 0.01047134 18.75139
v 39.37721 0.01047134 19.54549
v 38.50369 0.01047134 19.54549
v 33.65965 0.01047134 6.83979
v 32.78613 0.01047134 6.83979
v 33.65965 0.01047134 7.633896
v 32.78613 0.01047134 7.633896
v 40.09191 0.01047134 2.472202
v 39.21839 0.01047134 2.472202
v 40.09191 0.01047134 3.266308
v 39.21839 0.01047134 3.266308
v 59.15047 0.01047134 0.3281136
v 58.19754 0.01047134 0.3281136
v 59.15047 0.01047134 1.201633
v 58.19754 0.01047134 1.201633
v 60.26221 0.01047134 -2.689491
v 59.30929 0.01047134 -2.689491
v 60.26221 0.01047134 -1.895382
v 59.30929 0.01047134 -1.895382
vt 0.06738281 0.9369141
vt 0.1331457 0.9369141
vt 0.06738281 0.9990234
vt 0.1331457 0.9990234
vt 0.06738281 0.9369141
vt 0.1331457 0.9369141
vt 0.06738281 0.9990234
vt 0.1331457 0.9990234
vt 0.06738281 0.9369141
vt 0.1331457 0.9369141
vt 0.06738281 0.9990234
vt 0.1331457 0.9990234
vt 0.06738281 0.9369141
vt 0.1331457 0.9369141
vt 0.06738281 0.9990234
vt 0.1331457 0.9990234
vt 0.06738281 0.9369141
vt 0.1331457 0.9369141
vt 0.06738281 0.9990234
vt 0.1331457 0.9990234
vt 0.06738281 0.9369141
vt 0.1331457 0.9369141
vt 0.06738281 0.9990234
vt 0.1331457 0.9990234
vt 0.06738281 0.9369141
vt 0.1331457 0.9369141
vt 0.06738281 0.9990234
vt 0.1331457 0.9990234
vt 0.06738281 0.9369141
vt 0.1331457 0.9369141
vt 0.06738281 0.9990234
vt 0.1331457 0.9990234
vn 0 1 0
vn 0 1 0
vn 0 1 0
vn 0 1 0
vn 0 1 0
vn 0 1 0
vn 0 1 0
vn 0 1 0
vn 0 1 0
vn 0 1 0
vn 0 1 0
vn 0 1 0
vn 0 1 0
vn 0 1 0
vn 0 1 0
vn 0 1 0
vn 0 1 0
vn 0 1 0
vn 0 1 0
vn 0 1 0
vn 0 1 0
vn 0 1 0
vn 0 1 0
vn 0 1 0
vn 0 1 0
vn 0 1 0
vn 0 1 0
vn 0 1 0
vn 0 1 0
vn 0 1 0
vn 0 1 0
vn 0 1 0
g Grass_1_Cluster28_0
f 2/2/2 3/3/3 1/1/1
f 2/2/2 4/4/4 3/3/3
f 6/6/6 7/7/7 5/5/5
f 6/6/6 8/8/8 7/7/7
f 10/10/10 11/11/11 9/9/9
f 10/10/10 12/12/12 11/11/11
f 14/14/14 15/15/15 13/13/13
f 14/14/14 16/16/16 15/15/15
f 18/18/18 19/19/19 17/17/17
f 18/18/18 20/20/20 19/19/19
f 22/22/22 23/23/23 21/21/21
f 22/22/22 24/24/24 23/23/23
f 26/26/26 27/27/27 25/25/25
f 26/26/26 28/28/28 27/27/27
f 30/30/30 31/31/31 29/29/29
f 30/30/30 32/32/32 31/31/31
