g Grass_2_Cluster332
v -74.49975 0 472.4487
v -75.42521 0 472.4487
v -74.49975 0 473.3742
v -75.42521 0 473.3742
v -73.57429 0 471.986
v -74.49975 0 471.986
v -73.57429 0 472.9115
v -74.49975 0 472.9115
v -75.42521 0 471.5233
v -76.35068 0 471.5233
v -75.42521 0 472.9115
v -76.35068 0 472.9115
v -74.49975 0 471.5233
v -75.42521 0 471.5233
v -74.49975 0 472.4487
v -75.42521 0 472.4487
v -76.81341 0 470.1351
v -77.73887 0 470.1351
v -76.81341 0 471.0605
v -77.73887 0 471.0605
v -74.49975 0 469.6723
v -75.42521 0 469.6723
v -74.49975 0 471.0605
v -75.42521 0 471.0605
v -74.03702 0 469.2096
v -74.96248 0 469.2096
v -74.03702 0 470.1351
v -74.96248 0 470.1351
v -72.64883 0 468.7469
v -73.57429 0 468.7469
v -72.64883 0 469.6723
v -73.57429 0 469.6723
v -75.88795 0 467.8214
v -76.81341 0 467.8214
v -75.88795 0 469.2096
v -76.81341 0 469.2096
v -73.57429 0 467.8214
v -74.49975 0 467.8214
v -73.57429 0 468.7469
v -74.49975 0 468.7469
v -75.42521 0 466.8959
v -76.35068 0 466.8959
v -75.42521 0 468.2841
v -76.35068 0 468.2841
v -88.84442 0 465.5078
v -89.76988 0 465.5078
v -88.84442 0 466.4332
v -89.76988 0 466.4332
v -77.27614 0 465.045
v -78.2016 0 465.045
v -77.27614 0 465.9705
v -78.2016 0 465.9705
v -88.38169 0 464.5823
v -89.30715 0 464.5823
v -88.38169 0 465.9705
v -89.30715 0 465.9705
v -76.81341 0 461.3432
v -77.73887 0 461.3432
v -76.81341 0 462.2686
v -77.73887 0 462.2686
v -75.88795 0 459.4922
v -76.81341 0 459.4922
v -75.88795 0 460.4177
v -76.81341 0 460.4177
v -71.72336 0 457.1786
v -73.11156 0 457.1786
v -71.72336 0 458.5668
v -73.11156 0 458.5668
v -78.66433 0 446.073
v -79.5898 0 446.073
v -78.66433 0 446.9985
v -79.5898 0 446.9985
vt 0.1347656 0.9185662
vt 0.2060202 0.9185662
vt 0.1347656 1
vt 0.2060202 1
vt 0.1347656 0.9185662
vt 0.2060202 0.9185662
vt 0.1347656 1
vt 0.2060202 1
vt 0.1347656 0.9185662
vt 0.2060202 0.9185662
vt 0.1347656 1
vt 0.2060202 1
vt 0.1347656 0.9185662
vt 0.2060202 0.9185662
vt 0.1347656 1
vt 0.2060202 1
vt 0.1347656 0.9185662
vt 0.2060202 0.9185662
vt 0.1347656 1
vt 0.2060202 1
vt 0.1347656 0.9185662
vt 0.2060202 0.9185662
vt 0.1347656 1
vt 0.2060202 1
vt 0.1347656 0.9185662
vt 0.2060202 0.9185662
vt 0.1347656 1
vt 0.2060202 1
vt 0.1347656 0.9185662
vt 0.2060202 0.9185662
vt 0.1347656 1
vt 0.2060202 1
vt 0.1347656 0.9185662
vt 0.2060202 0.9185662
vt 0.1347656 1
vt 0.2060202 1
vt 0.1347656 0.9185662
vt 0.2060202 0.9185662
vt 0.1347656 1
vt 0.2060202 1
vt 0.1347656 0.9185662
vt 0.2060202 0.9185662
vt 0.1347656 1
vt 0.2060202 1
vt 0.1347656 0.9185662
vt 0.2060202 0.9185662
vt 0.1347656 1
vt 0.2060202 1
vt 0.1347656 0.9185662
vt 0.2060202 0.9185662
vt 0.1347656 1
vt 0.2060202 1
vt 0.1347656 0.9185662
vt 0.2060202 0.9185662
vt 0.1347656 1
vt 0.2060202 1
vt 0.1347656 0.9185662
vt 0.2060202 0.9185662
vt 0.1347656 1
vt 0.2060202 1
vt 0.1347656 0.9185662
vt 0.2060202 0.9185662
vt 0.1347656 1
vt 0.2060202 1
vt 0.1347656 0.9185662
vt 0.2060202 0.9185662
vt 0.1347656 1
vt 0.2060202 1
vt 0.1347656 0.9185662
vt 0.2060202 0.9185662
vt 0.1347656 1
vt 0.2060202 1
vn 0 1 0
vn 0 1 0
vn 0 1 0
vn 0 1 0
vn 0 1 0
vn 0 1 0
vn 0 1 0
vn 0 1 0
vn 0 1 0
vn 0 1 0
vn 0 1 0
vn 0 1 0
vn 0 1 0
vn 0 1 0
vn 0 1 0
vn 0 1 0
vn 0 1 0
vn 0 1 0
vn 0 1 0
vn 0 1 0
vn 0 1 0
vn 0 1 0
vn 0 1 0
vn 0 1 0
vn 0 1 0
vn 0 1 0
vn 0 1 0
vn 0 1 0
vn 0 1 0
vn 0 1 0
vn 0 1 0
vn 0 1 0
vn 0 1 0
vn 0 1 0
vn 0 1 0
vn 0 1 0
vn 0 1 0
vn 0 1 0
vn 0 1 0
vn 0 1 0
vn 0 1 0
vn 0 1 0
vn 0 1 0
vn 0 1 0
vn 0 1 0
vn 0 1 0
vn 0 1 0
vn 0 1 0
vn 0 1 0
vn 0 1 0
vn 0 1 0
vn 0 1 0
vn 0 1 0
vn 0 1 0
vn 0 1 0
vn 0 1 0
vn 0 1 0
vn 0 1 0
vn 0 1 0
vn 0 1 0
vn 0 1 0
vn 0 1 0
vn 0 1 0
vn 0 1 0
vn 0 1 0
vn 0 1 0
vn 0 1 0
vn 0 1 0
vn 0 1 0
vn 0 1 0
vn 0 1 0
vn 0 1 0
g Grass_2_Cluster332_0
f 2/2/2 3/3/3 1/1/1
f 2/2/2 4/4/4 3/3/3
f 6/6/6 7/7/7 5/5/5
f 6/6/6 8/8/8 7/7/7
f 10/10/10 11/11/11 9/9/9
f 10/10/10 12/12/12 11/11/11
f 14/14/14 15/15/15 13/13/13
f 14/14/14 16/16/16 15/15/15
f 18/18/18 19/19/19 17/17/17
f 18/18/18 20/20/20 19/19/19
f 22/22/22 23/23/23 21/21/21
f 22/22/22 24/24/24 23/23/23
f 26/26/26 27/27/27 25/25/25
f 26/26/26 28/28/28 27/27/27
f 30/30/30 31/31/31 29/29/29
f 30/30/30 32/32/32 31/31/31
f 34/34/34 35/35/35 33/33/33
f 34/34/34 36/36/36 35/35/35
f 38/38/38 39/39/39 37/37/37
f 38/38/38 40/40/40 39/39/39
f 42/42/42 43/43/43 41/41/41
f 42/42/42 44/44/44 43/43/43
f 46/46/46 47/47/47 45/45/45
f 46/46/46 48/48/48 47/47/47
f 50/50/50 51/51/51 49/49/49
f 50/50/50 52/52/52 51/51/51
f 54/54/54 55/55/55 53/53/53
f 54/54/54 56/56/56 55/55/55
f 58/58/58 59/59/59 57/57/57
f 58/58/58 60/60/60 59/59/59
f 62/62/62 63/63/63 61/61/61
f 62/62/62 64/64/64 63/63/63
f 66/66/66 67/67/67 65/65/65
f 66/66/66 68/68/68 67/67/67
f 70/70/70 71/71/71 69/69/69
f 70/70/70 72/72/72 71/71/71
