g Grass_2_Cluster140
v 290.7046 0.1234741 203.1176
v 289.7287 0.1234741 203.1176
v 290.7046 0.1234741 204.0935
v 289.7287 0.1234741 204.0935
v 283.8731 0.1234741 198.2379
v 283.3851 0.1234741 198.2379
v 283.8731 0.1234741 199.2138
v 283.3851 0.1234741 199.2138
v 281.4333 0.1234741 192.8703
v 280.4573 0.1234741 192.8703
v 281.4333 0.1234741 194.3342
v 280.4573 0.1234741 194.3342
v 275.0897 0.1234741 190.4304
v 274.1137 0.1234741 190.4304
v 275.0897 0.1234741 191.4064
v 274.1137 0.1234741 191.4064
v 293.1444 0.1234741 187.0146
v 292.1685 0.1234741 187.0146
v 293.1444 0.1234741 188.4785
v 292.1685 0.1234741 188.4785
v 294.1204 0.1234741 187.0146
v 293.1444 0.1234741 187.0146
v 294.1204 0.1234741 187.9906
v 293.1444 0.1234741 187.9906
v 295.0963 0.1234741 187.0146
v 294.1204 0.1234741 187.0146
v 295.0963 0.1234741 187.9906
v 294.1204 0.1234741 187.9906
v 292.1685 0.1234741 186.5267
v 291.1926 0.1234741 186.5267
v 292.1685 0.1234741 187.5026
v 291.1926 0.1234741 187.5026
v 293.6324 0.1234741 186.0387
v 292.6565 0.1234741 186.0387
v 293.6324 0.1234741 187.0146
v 292.6565 0.1234741 187.0146
v 291.1926 0.1234741 185.5508
v 290.7046 0.1234741 185.5508
v 291.1926 0.1234741 186.5267
v 290.7046 0.1234741 186.5267
v 292.6565 0.1234741 185.0628
v 291.6805 0.1234741 185.0628
v 292.6565 0.1234741 186.0387
v 291.6805 0.1234741 186.0387
v 290.7046 0.1234741 185.0628
v 289.7287 0.1234741 185.0628
v 290.7046 0.1234741 186.0387
v 289.7287 0.1234741 186.0387
v 293.6324 0.1234741 185.0628
v 292.6565 0.1234741 185.0628
v 293.6324 0.1234741 186.0387
v 292.6565 0.1234741 186.0387
v 293.1444 0.1234741 184.5748
v 292.1685 0.1234741 184.5748
v 293.1444 0.1234741 185.5508
v 292.1685 0.1234741 185.5508
v 288.2648 0.1234741 184.5748
v 287.2888 0.1234741 184.5748
v 288.2648 0.1234741 185.5508
v 287.2888 0.1234741 185.5508
v 291.1926 0.1234741 184.0869
v 290.2166 0.1234741 184.0869
v 291.1926 0.1234741 185.5508
v 290.2166 0.1234741 185.5508
v 290.2166 0.1234741 184.0869
v 289.2407 0.1234741 184.0869
v 290.2166 0.1234741 185.0628
v 289.2407 0.1234741 185.0628
v 294.6083 0.1234741 184.0869
v 293.6324 0.1234741 184.0869
v 294.6083 0.1234741 185.0628
v 293.6324 0.1234741 185.0628
v 291.6805 0.1234741 183.5989
v 290.7046 0.1234741 183.5989
v 291.6805 0.1234741 184.5748
v 290.7046 0.1234741 184.5748
v 293.1444 0.1234741 183.1109
v 292.1685 0.1234741 183.1109
v 293.1444 0.1234741 184.5748
v 292.1685 0.1234741 184.5748
vt 0.1347656 0.9185662
vt 0.2060202 0.9185662
vt 0.1347656 1
vt 0.2060202 1
vt 0.1347656 0.9185662
vt 0.2060202 0.9185662
vt 0.1347656 1
vt 0.2060202 1
vt 0.1347656 0.9185662
vt 0.2060202 0.9185662
vt 0.1347656 1
vt 0.2060202 1
vt 0.1347656 0.9185662
vt 0.2060202 0.9185662
vt 0.1347656 1
vt 0.2060202 1
vt 0.1347656 0.9185662
vt 0.2060202 0.9185662
vt 0.1347656 1
vt 0.2060202 1
vt 0.1347656 0.9185662
vt 0.2060202 0.9185662
vt 0.1347656 1
vt 0.2060202 1
vt 0.1347656 0.9185662
vt 0.2060202 0.9185662
vt 0.1347656 1
vt 0.2060202 1
vt 0.1347656 0.9185662
vt 0.2060202 0.9185662
vt 0.1347656 1
vt 0.2060202 1
vt 0.1347656 0.9185662
vt 0.2060202 0.9185662
vt 0.1347656 1
vt 0.2060202 1
vt 0.1347656 0.9185662
vt 0.2060202 0.9185662
vt 0.1347656 1
vt 0.2060202 1
vt 0.1347656 0.9185662
vt 0.2060202 0.9185662
vt 0.1347656 1
vt 0.2060202 1
vt 0.1347656 0.9185662
vt 0.2060202 0.9185662
vt 0.1347656 1
vt 0.2060202 1
vt 0.1347656 0.9185662
vt 0.2060202 0.9185662
vt 0.1347656 1
vt 0.2060202 1
vt 0.1347656 0.9185662
vt 0.2060202 0.9185662
vt 0.1347656 1
vt 0.2060202 1
vt 0.1347656 0.9185662
vt 0.2060202 0.9185662
vt 0.1347656 1
vt 0.2060202 1
vt 0.1347656 0.9185662
vt 0.2060202 0.9185662
vt 0.1347656 1
vt 0.2060202 1
vt 0.1347656 0.9185662
vt 0.2060202 0.9185662
vt 0.1347656 1
vt 0.2060202 1
vt 0.1347656 0.9185662
vt 0.2060202 0.9185662
vt 0.1347656 1
vt 0.2060202 1
vt 0.1347656 0.9185662
vt 0.2060202 0.9185662
vt 0.1347656 1
vt 0.2060202 1
vt 0.1347656 0.9185662
vt 0.2060202 0.9185662
vt 0.1347656 1
vt 0.2060202 1
vn 0 1 0
vn 0 1 0
vn 0 1 0
vn 0 1 0
vn 0 1 0
vn 0 1 0
vn 0 1 0
vn 0 1 0
vn 0 1 0
vn 0 1 0
vn 0 1 0
vn 0 1 0
vn 0 1 0
vn 0 1 0
vn 0 1 0
vn 0 1 0
vn 0 1 0
vn 0 1 0
vn 0 1 0
vn 0 1 0
vn 0 1 0
vn 0 1 0
vn 0 1 0
vn 0 1 0
vn 0 1 0
vn 0 1 0
vn 0 1 0
vn 0 1 0
vn 0 1 0
vn 0 1 0
vn 0 1 0
vn 0 1 0
vn 0 1 0
vn 0 1 0
vn 0 1 0
vn 0 1 0
vn 0 1 0
vn 0 1 0
vn 0 1 0
vn 0 1 0
vn 0 1 0
vn 0 1 0
vn 0 1 0
vn 0 1 0
vn 0 1 0
vn 0 1 0
vn 0 1 0
vn 0 1 0
vn 0 1 0
vn 0 1 0
vn 0 1 0
vn 0 1 0
vn 0 1 0
vn 0 1 0
vn 0 1 0
vn 0 1 0
vn 0 1 0
vn 0 1 0
vn 0 1 0
vn 0 1 0
vn 0 1 0
vn 0 1 0
vn 0 1 0
vn 0 1 0
vn 0 1 0
vn 0 1 0
vn 0 1 0
vn 0 1 0
vn 0 1 0
vn 0 1 0
vn 0 1 0
vn 0 1 0
vn 0 1 0
vn 0 1 0
vn 0 1 0
vn 0 1 0
vn 0 1 0
vn 0 1 0
vn 0 1 0
vn 0 1 0
g Grass_2_Cluster140_0
f 2/2/2 3/3/3 1/1/1
f 2/2/2 4/4/4 3/3/3
f 6/6/6 7/7/7 5/5/5
f 6/6/6 8/8/8 7/7/7
f 10/10/10 11/11/11 9/9/9
f 10/10/10 12/12/12 11/11/11
f 14/14/14 15/15/15 13/13/13
f 14/14/14 16/16/16 15/15/15
f 18/18/18 19/19/19 17/17/17
f 18/18/18 20/20/20 19/19/19
f 22/22/22 23/23/23 21/21/21
f 22/22/22 24/24/24 23/23/23
f 26/26/26 27/27/27 25/25/25
f 26/26/26 28/28/28 27/27/27
f 30/30/30 31/31/31 29/29/29
f 30/30/30 32/32/32 31/31/31
f 34/34/34 35/35/35 33/33/33
f 34/34/34 36/36/36 35/35/35
f 38/38/38 39/39/39 37/37/37
f 38/38/38 40/40/40 39/39/39
f 42/42/42 43/43/43 41/41/41
f 42/42/42 44/44/44 43/43/43
f 46/46/46 47/47/47 45/45/45
f 46/46/46 48/48/48 47/47/47
f 50/50/50 51/51/51 49/49/49
f 50/50/50 52/52/52 51/51/51
f 54/54/54 55/55/55 53/53/53
f 54/54/54 56/56/56 55/55/55
f 58/58/58 59/59/59 57/57/57
f 58/58/58 60/60/60 59/59/59
f 62/62/62 63/63/63 61/61/61
f 62/62/62 64/64/64 63/63/63
f 66/66/66 67/67/67 65/65/65
f 66/66/66 68/68/68 67/67/67
f 70/70/70 71/71/71 69/69/69
f 70/70/70 72/72/72 71/71/71
f 74/74/74 75/75/75 73/73/73
f 74/74/74 76/76/76 75/75/75
f 78/78/78 79/79/79 77/77/77
f 78/78/78 80/80/80 79/79/79
