g Grass_0_Cluster326
v 97.77115 0.1182861 468.2602
v 96.61951 0.1182861 468.2602
v 97.77115 0.1182861 469.4118
v 96.61951 0.1182861 469.4118
v 109.2876 0.1182861 467.6844
v 108.1359 0.1182861 467.6844
v 109.2876 0.1182861 468.836
v 108.1359 0.1182861 468.836
v 94.89205 0.1182861 465.3811
v 93.74041 0.1182861 465.3811
v 94.89205 0.1182861 466.5327
v 93.74041 0.1182861 466.5327
v 109.2876 0.1182861 465.3811
v 108.7117 0.1182861 465.3811
v 109.2876 0.1182861 466.5327
v 108.7117 0.1182861 466.5327
v 94.89205 0.1182861 462.5019
v 93.74041 0.1182861 462.5019
v 94.89205 0.1182861 464.2294
v 93.74041 0.1182861 464.2294
v 93.74041 0.1182861 457.8954
v 93.16459 0.1182861 457.8954
v 93.74041 0.1182861 459.6228
v 93.16459 0.1182861 459.6228
v 103.5294 0.1182861 456.7437
v 102.3777 0.1182861 456.7437
v 103.5294 0.1182861 457.8954
v 102.3777 0.1182861 457.8954
v 96.04369 0.1182861 456.1679
v 94.89205 0.1182861 456.1679
v 96.04369 0.1182861 457.3195
v 94.89205 0.1182861 457.3195
v 94.89205 0.1182861 455.0163
v 93.74041 0.1182861 455.0163
v 94.89205 0.1182861 456.1679
v 93.74041 0.1182861 456.1679
v 93.16459 0.1182861 453.8647
v 92.01295 0.1182861 453.8647
v 93.16459 0.1182861 455.0163
v 92.01295 0.1182861 455.0163
v 100.0744 0.1182861 452.1372
v 99.49861 0.1182861 452.1372
v 100.0744 0.1182861 453.2888
v 99.49861 0.1182861 453.2888
v 119.6523 0.1182861 450.4097
v 118.5007 0.1182861 450.4097
v 119.6523 0.1182861 452.1372
v 118.5007 0.1182861 452.1372
v 105.8326 0.1182861 449.8339
v 105.2568 0.1182861 449.8339
v 105.8326 0.1182861 451.5614
v 105.2568 0.1182861 451.5614
v 97.19533 0.1182861 449.2581
v 96.61951 0.1182861 449.2581
v 97.19533 0.1182861 450.4097
v 96.61951 0.1182861 450.4097
v 97.77115 0.1182861 449.2581
v 97.19533 0.1182861 449.2581
v 97.77115 0.1182861 450.4097
v 97.19533 0.1182861 450.4097
v 117.349 0.1182861 448.1064
v 116.7732 0.1182861 448.1064
v 117.349 0.1182861 449.2581
v 116.7732 0.1182861 449.2581
v 100.0744 0.1182861 447.5306
v 98.92279 0.1182861 447.5306
v 100.0744 0.1182861 449.2581
v 98.92279 0.1182861 449.2581
v 118.5007 0.1182861 447.5306
v 117.349 0.1182861 447.5306
v 118.5007 0.1182861 448.6823
v 117.349 0.1182861 448.6823
v 102.9535 0.1182861 446.9548
v 101.8019 0.1182861 446.9548
v 102.9535 0.1182861 448.1064
v 101.8019 0.1182861 448.1064
v 116.7732 0.1182861 446.379
v 116.1974 0.1182861 446.379
v 116.7732 0.1182861 447.5306
v 116.1974 0.1182861 447.5306
v 105.2568 0.1182861 446.379
v 104.1052 0.1182861 446.379
v 105.2568 0.1182861 447.5306
v 104.1052 0.1182861 447.5306
v 117.9249 0.1182861 445.2273
v 116.7732 0.1182861 445.2273
v 117.9249 0.1182861 446.9548
v 116.7732 0.1182861 446.9548
v 100.6503 0.1182861 445.2273
v 99.49861 0.1182861 445.2273
v 100.6503 0.1182861 446.379
v 99.49861 0.1182861 446.379
v 92.58877 0.1182861 445.2273
v 91.43713 0.1182861 445.2273
v 92.58877 0.1182861 446.379
v 91.43713 0.1182861 446.379
v 101.2261 0.1182861 444.6515
v 100.0744 0.1182861 444.6515
v 101.2261 0.1182861 445.8032
v 100.0744 0.1182861 445.8032
v 118.5007 0.1182861 444.6515
v 117.349 0.1182861 444.6515
v 118.5007 0.1182861 445.8032
v 117.349 0.1182861 445.8032
v 92.01295 0.1182861 444.6515
v 91.43713 0.1182861 444.6515
v 92.01295 0.1182861 445.8032
v 91.43713 0.1182861 445.8032
v 119.6523 0.1182861 444.0757
v 118.5007 0.1182861 444.0757
v 119.6523 0.1182861 445.8032
v 118.5007 0.1182861 445.8032
v 96.61951 0.1182861 444.0757
v 96.04369 0.1182861 444.0757
v 96.61951 0.1182861 445.8032
v 96.04369 0.1182861 445.8032
v 117.349 0.1182861 444.0757
v 116.1974 0.1182861 444.0757
v 117.349 0.1182861 445.2273
v 116.1974 0.1182861 445.2273
v 119.0765 0.1182861 443.4999
v 118.5007 0.1182861 443.4999
v 119.0765 0.1182861 444.6515
v 118.5007 0.1182861 444.6515
v 96.04369 0.1182861 443.4999
v 94.89205 0.1182861 443.4999
v 96.04369 0.1182861 444.6515
v 94.89205 0.1182861 444.6515
v 118.5007 0.1182861 443.4999
v 117.9249 0.1182861 443.4999
v 118.5007 0.1182861 444.6515
v 117.9249 0.1182861 444.6515
v 112.1667 0.1182861 443.4999
v 111.015 0.1182861 443.4999
v 112.1667 0.1182861 444.6515
v 111.015 0.1182861 444.6515
v 96.61951 0.1182861 443.4999
v 95.46787 0.1182861 443.4999
v 96.61951 0.1182861 444.6515
v 95.46787 0.1182861 444.6515
vt 0 0.9058824
vt 0.06666667 0.9058824
vt 0 1
vt 0.06666667 1
vt 0 0.9058824
vt 0.06666667 0.9058824
vt 0 1
vt 0.06666667 1
vt 0 0.9058824
vt 0.06666667 0.9058824
vt 0 1
vt 0.06666667 1
vt 0 0.9058824
vt 0.06666667 0.9058824
vt 0 1
vt 0.06666667 1
vt 0 0.9058824
vt 0.06666667 0.9058824
vt 0 1
vt 0.06666667 1
vt 0 0.9058824
vt 0.06666667 0.9058824
vt 0 1
vt 0.06666667 1
vt 0 0.9058824
vt 0.06666667 0.9058824
vt 0 1
vt 0.06666667 1
vt 0 0.9058824
vt 0.06666667 0.9058824
vt 0 1
vt 0.06666667 1
vt 0 0.9058824
vt 0.06666667 0.9058824
vt 0 1
vt 0.06666667 1
vt 0 0.9058824
vt 0.06666667 0.9058824
vt 0 1
vt 0.06666667 1
vt 0 0.9058824
vt 0.06666667 0.9058824
vt 0 1
vt 0.06666667 1
vt 0 0.9058824
vt 0.06666667 0.9058824
vt 0 1
vt 0.06666667 1
vt 0 0.9058824
vt 0.06666667 0.9058824
vt 0 1
vt 0.06666667 1
vt 0 0.9058824
vt 0.06666667 0.9058824
vt 0 1
vt 0.06666667 1
vt 0 0.9058824
vt 0.06666667 0.9058824
vt 0 1
vt 0.06666667 1
vt 0 0.9058824
vt 0.06666667 0.9058824
vt 0 1
vt 0.06666667 1
vt 0 0.9058824
vt 0.06666667 0.9058824
vt 0 1
vt 0.06666667 1
vt 0 0.9058824
vt 0.06666667 0.9058824
vt 0 1
vt 0.06666667 1
vt 0 0.9058824
vt 0.06666667 0.9058824
vt 0 1
vt 0.06666667 1
vt 0 0.9058824
vt 0.06666667 0.9058824
vt 0 1
vt 0.06666667 1
vt 0 0.9058824
vt 0.06666667 0.9058824
vt 0 1
vt 0.06666667 1
vt 0 0.9058824
vt 0.06666667 0.9058824
vt 0 1
vt 0.06666667 1
vt 0 0.9058824
vt 0.06666667 0.9058824
vt 0 1
vt 0.06666667 1
vt 0 0.9058824
vt 0.06666667 0.9058824
vt 0 1
vt 0.06666667 1
vt 0 0.9058824
vt 0.06666667 0.9058824
vt 0 1
vt 0.06666667 1
vt 0 0.9058824
vt 0.06666667 0.9058824
vt 0 1
vt 0.06666667 1
vt 0 0.9058824
vt 0.06666667 0.9058824
vt 0 1
vt 0.06666667 1
vt 0 0.9058824
vt 0.06666667 0.9058824
vt 0 1
vt 0.06666667 1
vt 0 0.9058824
vt 0.06666667 0.9058824
vt 0 1
vt 0.06666667 1
vt 0 0.9058824
vt 0.06666667 0.9058824
vt 0 1
vt 0.06666667 1
vt 0 0.9058824
vt 0.06666667 0.9058824
vt 0 1
vt 0.06666667 1
vt 0 0.9058824
vt 0.06666667 0.9058824
vt 0 1
vt 0.06666667 1
vt 0 0.9058824
vt 0.06666667 0.9058824
vt 0 1
vt 0.06666667 1
vt 0 0.9058824
vt 0.06666667 0.9058824
vt 0 1
vt 0.06666667 1
vt 0 0.9058824
vt 0.06666667 0.9058824
vt 0 1
vt 0.06666667 1
vn 0 1 0
vn 0 1 0
vn 0 1 0
vn 0 1 0
vn 0 1 0
vn 0 1 0
vn 0 1 0
vn 0 1 0
vn 0 1 0
vn 0 1 0
vn 0 1 0
vn 0 1 0
vn 0 1 0
vn 0 1 0
vn 0 1 0
vn 0 1 0
vn 0 1 0
vn 0 1 0
vn 0 1 0
vn 0 1 0
vn 0 1 0
vn 0 1 0
vn 0 1 0
vn 0 1 0
vn 0 1 0
vn 0 1 0
vn 0 1 0
vn 0 1 0
vn 0 1 0
vn 0 1 0
vn 0 1 0
vn 0 1 0
vn 0 1 0
vn 0 1 0
vn 0 1 0
vn 0 1 0
vn 0 1 0
vn 0 1 0
vn 0 1 0
vn 0 1 0
vn 0 1 0
vn 0 1 0
vn 0 1 0
vn 0 1 0
vn 0 1 0
vn 0 1 0
vn 0 1 0
vn 0 1 0
vn 0 1 0
vn 0 1 0
vn 0 1 0
vn 0 1 0
vn 0 1 0
vn 0 1 0
vn 0 1 0
vn 0 1 0
vn 0 1 0
vn 0 1 0
vn 0 1 0
vn 0 1 0
vn 0 1 0
vn 0 1 0
vn 0 1 0
vn 0 1 0
vn 0 1 0
vn 0 1 0
vn 0 1 0
vn 0 1 0
vn 0 1 0
vn 0 1 0
vn 0 1 0
vn 0 1 0
vn 0 1 0
vn 0 1 0
vn 0 1 0
vn 0 1 0
vn 0 1 0
vn 0 1 0
vn 0 1 0
vn 0 1 0
vn 0 1 0
vn 0 1 0
vn 0 1 0
vn 0 1 0
vn 0 1 0
vn 0 1 0
vn 0 1 0
vn 0 1 0
vn 0 1 0
vn 0 1 0
vn 0 1 0
vn 0 1 0
vn 0 1 0
vn 0 1 0
vn 0 1 0
vn 0 1 0
vn 0 1 0
vn 0 1 0
vn 0 1 0
vn 0 1 0
vn 0 1 0
vn 0 1 0
vn 0 1 0
vn 0 1 0
vn 0 1 0
vn 0 1 0
vn 0 1 0
vn 0 1 0
vn 0 1 0
vn 0 1 0
vn 0 1 0
vn 0 1 0
vn 0 1 0
vn 0 1 0
vn 0 1 0
vn 0 1 0
vn 0 1 0
vn 0 1 0
vn 0 1 0
vn 0 1 0
vn 0 1 0
vn 0 1 0
vn 0 1 0
vn 0 1 0
vn 0 1 0
vn 0 1 0
vn 0 1 0
vn 0 1 0
vn 0 1 0
vn 0 1 0
vn 0 1 0
vn 0 1 0
vn 0 1 0
vn 0 1 0
vn 0 1 0
vn 0 1 0
vn 0 1 0
vn 0 1 0
vn 0 1 0
vn 0 1 0
g Grass_0_Cluster326_0
f 2/2/2 3/3/3 1/1/1
f 2/2/2 4/4/4 3/3/3
f 6/6/6 7/7/7 5/5/5
f 6/6/6 8/8/8 7/7/7
f 10/10/10 11/11/11 9/9/9
f 10/10/10 12/12/12 11/11/11
f 14/14/14 15/15/15 13/13/13
f 14/14/14 16/16/16 15/15/15
f 18/18/18 19/19/19 17/17/17
f 18/18/18 20/20/20 19/19/19
f 22/22/22 23/23/23 21/21/21
f 22/22/22 24/24/24 23/23/23
f 26/26/26 27/27/27 25/25/25
f 26/26/26 28/28/28 27/27/27
f 30/30/30 31/31/31 29/29/29
f 30/30/30 32/32/32 31/31/31
f 34/34/34 35/35/35 33/33/33
f 34/34/34 36/36/36 35/35/35
f 38/38/38 39/39/39 37/37/37
f 38/38/38 40/40/40 39/39/39
f 42/42/42 43/43/43 41/41/41
f 42/42/42 44/44/44 43/43/43
f 46/46/46 47/47/47 45/45/45
f 46/46/46 48/48/48 47/47/47
f 50/50/50 51/51/51 49/49/49
f 50/50/50 52/52/52 51/51/51
f 54/54/54 55/55/55 53/53/53
f 54/54/54 56/56/56 55/55/55
f 58/58/58 59/59/59 57/57/57
f 58/58/58 60/60/60 59/59/59
f 62/62/62 63/63/63 61/61/61
f 62/62/62 64/64/64 63/63/63
f 66/66/66 67/67/67 65/65/65
f 66/66/66 68/68/68 67/67/67
f 70/70/70 71/71/71 69/69/69
f 70/70/70 72/72/72 71/71/71
f 74/74/74 75/75/75 73/73/73
f 74/74/74 76/76/76 75/75/75
f 78/78/78 79/79/79 77/77/77
f 78/78/78 80/80/80 79/79/79
f 82/82/82 83/83/83 81/81/81
f 82/82/82 84/84/84 83/83/83
f 86/86/86 87/87/87 85/85/85
f 86/86/86 88/88/88 87/87/87
f 90/90/90 91/91/91 89/89/89
f 90/90/90 92/92/92 91/91/91
f 94/94/94 95/95/95 93/93/93
f 94/94/94 96/96/96 95/95/95
f 98/98/98 99/99/99 97/97/97
f 98/98/98 100/100/100 99/99/99
f 102/102/102 103/103/103 101/101/101
f 102/102/102 104/104/104 103/103/103
f 106/106/106 107/107/107 105/105/105
f 106/106/106 108/108/108 107/107/107
f 110/110/110 111/111/111 109/109/109
f 110/110/110 112/112/112 111/111/111
f 114/114/114 115/115/115 113/113/113
f 114/114/114 116/116/116 115/115/115
f 118/118/118 119/119/119 117/117/117
f 118/118/118 120/120/120 119/119/119
f 122/122/122 123/123/123 121/121/121
f 122/122/122 124/124/124 123/123/123
f 126/126/126 127/127/127 125/125/125
f 126/126/126 128/128/128 127/127/127
f 130/130/130 131/131/131 129/129/129
f 130/130/130 132/132/132 131/131/131
f 134/134/134 135/135/135 133/133/133
f 134/134/134 136/136/136 135/135/135
f 138/138/138 139/139/139 137/137/137
f 138/138/138 140/140/140 139/139/139
