g Grass_0_Cluster312
v -79.23804 0 441.6547
v -80.10403 0 441.6547
v -79.23804 0 442.9537
v -80.10403 0 442.9537
v -84.86698 0 440.7887
v -85.73296 0 440.7887
v -84.86698 0 442.0877
v -85.73296 0 442.0877
v -75.77409 0 439.4897
v -76.64008 0 439.4897
v -75.77409 0 440.7887
v -76.64008 0 440.7887
v -77.50607 0 437.3247
v -78.37206 0 437.3247
v -77.50607 0 438.6237
v -78.37206 0 438.6237
v -74.9081 0 434.2938
v -75.77409 0 434.2938
v -74.9081 0 435.5927
v -75.77409 0 435.5927
v -77.07307 0 433.8608
v -77.93906 0 433.8608
v -77.07307 0 435.1598
v -77.93906 0 435.1598
v -73.60912 0 433.4278
v -74.47511 0 433.4278
v -73.60912 0 434.7268
v -74.47511 0 434.7268
v -73.17612 0 432.9948
v -74.47511 0 432.9948
v -73.17612 0 434.2938
v -74.47511 0 434.2938
v -70.14516 0 431.2628
v -71.01115 0 431.2628
v -70.14516 0 432.5618
v -71.01115 0 432.5618
v -77.93906 0 430.3968
v -78.80505 0 430.3968
v -77.93906 0 431.6958
v -78.80505 0 431.6958
v -68.41318 0 425.2009
v -69.27917 0 425.2009
v -68.41318 0 426.4998
v -69.27917 0 426.4998
v -67.11419 0 420.0049
v -67.98018 0 420.0049
v -67.11419 0 421.3039
v -67.98018 0 421.3039
v -86.59895 0 419.1389
v -87.46494 0 419.1389
v -86.59895 0 420.4379
v -87.46494 0 420.4379
v -67.11419 0 416.974
v -67.98018 0 416.974
v -67.11419 0 418.2729
v -67.98018 0 418.2729
v -87.03195 0 416.541
v -87.89794 0 416.541
v -87.03195 0 417.407
v -87.89794 0 417.407
v -85.73296 0 415.675
v -86.59895 0 415.675
v -85.73296 0 416.974
v -86.59895 0 416.974
v -86.59895 0 415.675
v -87.46494 0 415.675
v -86.59895 0 416.974
v -87.46494 0 416.974
v -82.702 0 414.809
v -83.56799 0 414.809
v -82.702 0 416.108
v -83.56799 0 416.108
v -85.73296 0 414.809
v -86.59895 0 414.809
v -85.73296 0 415.675
v -86.59895 0 415.675
v -87.46494 0 414.376
v -88.33093 0 414.376
v -87.46494 0 415.675
v -88.33093 0 415.675
v -66.2482 0 414.376
v -67.11419 0 414.376
v -66.2482 0 415.675
v -67.11419 0 415.675
v -81.40302 0 413.943
v -82.26901 0 413.943
v -81.40302 0 415.242
v -82.26901 0 415.242
v -64.94922 0 414.376
v -65.81521 0 414.376
v -64.94922 0 415.242
v -65.81521 0 415.242
v -65.38221 0 413.943
v -66.2482 0 413.943
v -65.38221 0 414.809
v -66.2482 0 414.809
v -83.56799 0 413.943
v -84.43398 0 413.943
v -83.56799 0 415.242
v -84.43398 0 415.242
v -80.97002 0 413.51
v -81.83601 0 413.51
v -80.97002 0 414.809
v -81.83601 0 414.809
v -77.50607 0 413.077
v -78.37206 0 413.077
v -77.50607 0 414.376
v -78.37206 0 414.376
v -78.80505 0 413.077
v -79.67104 0 413.077
v -78.80505 0 414.376
v -79.67104 0 414.376
vt 0 0.9058824
vt 0.06666667 0.9058824
vt 0 1
vt 0.06666667 1
vt 0 0.9058824
vt 0.06666667 0.9058824
vt 0 1
vt 0.06666667 1
vt 0 0.9058824
vt 0.06666667 0.9058824
vt 0 1
vt 0.06666667 1
vt 0 0.9058824
vt 0.06666667 0.9058824
vt 0 1
vt 0.06666667 1
vt 0 0.9058824
vt 0.06666667 0.9058824
vt 0 1
vt 0.06666667 1
vt 0 0.9058824
vt 0.06666667 0.9058824
vt 0 1
vt 0.06666667 1
vt 0 0.9058824
vt 0.06666667 0.9058824
vt 0 1
vt 0.06666667 1
vt 0 0.9058824
vt 0.06666667 0.9058824
vt 0 1
vt 0.06666667 1
vt 0 0.9058824
vt 0.06666667 0.9058824
vt 0 1
vt 0.06666667 1
vt 0 0.9058824
vt 0.06666667 0.9058824
vt 0 1
vt 0.06666667 1
vt 0 0.9058824
vt 0.06666667 0.9058824
vt 0 1
vt 0.06666667 1
vt 0 0.9058824
vt 0.06666667 0.9058824
vt 0 1
vt 0.06666667 1
vt 0 0.9058824
vt 0.06666667 0.9058824
vt 0 1
vt 0.06666667 1
vt 0 0.9058824
vt 0.06666667 0.9058824
vt 0 1
vt 0.06666667 1
vt 0 0.9058824
vt 0.06666667 0.9058824
vt 0 1
vt 0.06666667 1
vt 0 0.9058824
vt 0.06666667 0.9058824
vt 0 1
vt 0.06666667 1
vt 0 0.9058824
vt 0.06666667 0.9058824
vt 0 1
vt 0.06666667 1
vt 0 0.9058824
vt 0.06666667 0.9058824
vt 0 1
vt 0.06666667 1
vt 0 0.9058824
vt 0.06666667 0.9058824
vt 0 1
vt 0.06666667 1
vt 0 0.9058824
vt 0.06666667 0.9058824
vt 0 1
vt 0.06666667 1
vt 0 0.9058824
vt 0.06666667 0.9058824
vt 0 1
vt 0.06666667 1
vt 0 0.9058824
vt 0.06666667 0.9058824
vt 0 1
vt 0.06666667 1
vt 0 0.9058824
vt 0.06666667 0.9058824
vt 0 1
vt 0.06666667 1
vt 0 0.9058824
vt 0.06666667 0.9058824
vt 0 1
vt 0.06666667 1
vt 0 0.9058824
vt 0.06666667 0.9058824
vt 0 1
vt 0.06666667 1
vt 0 0.9058824
vt 0.06666667 0.9058824
vt 0 1
vt 0.06666667 1
vt 0 0.9058824
vt 0.06666667 0.9058824
vt 0 1
vt 0.06666667 1
vt 0 0.9058824
vt 0.06666667 0.9058824
vt 0 1
vt 0.06666667 1
vn 0 1 0
vn 0 1 0
vn 0 1 0
vn 0 1 0
vn 0 1 0
vn 0 1 0
vn 0 1 0
vn 0 1 0
vn 0 1 0
vn 0 1 0
vn 0 1 0
vn 0 1 0
vn 0 1 0
vn 0 1 0
vn 0 1 0
vn 0 1 0
vn 0 1 0
vn 0 1 0
vn 0 1 0
vn 0 1 0
vn 0 1 0
vn 0 1 0
vn 0 1 0
vn 0 1 0
vn 0 1 0
vn 0 1 0
vn 0 1 0
vn 0 1 0
vn 0 1 0
vn 0 1 0
vn 0 1 0
vn 0 1 0
vn 0 1 0
vn 0 1 0
vn 0 1 0
vn 0 1 0
vn 0 1 0
vn 0 1 0
vn 0 1 0
vn 0 1 0
vn 0 1 0
vn 0 1 0
vn 0 1 0
vn 0 1 0
vn 0 1 0
vn 0 1 0
vn 0 1 0
vn 0 1 0
vn 0 1 0
vn 0 1 0
vn 0 1 0
vn 0 1 0
vn 0 1 0
vn 0 1 0
vn 0 1 0
vn 0 1 0
vn 0 1 0
vn 0 1 0
vn 0 1 0
vn 0 1 0
vn 0 1 0
vn 0 1 0
vn 0 1 0
vn 0 1 0
vn 0 1 0
vn 0 1 0
vn 0 1 0
vn 0 1 0
vn 0 1 0
vn 0 1 0
vn 0 1 0
vn 0 1 0
vn 0 1 0
vn 0 1 0
vn 0 1 0
vn 0 1 0
vn 0 1 0
vn 0 1 0
vn 0 1 0
vn 0 1 0
vn 0 1 0
vn 0 1 0
vn 0 1 0
vn 0 1 0
vn 0 1 0
vn 0 1 0
vn 0 1 0
vn 0 1 0
vn 0 1 0
vn 0 1 0
vn 0 1 0
vn 0 1 0
vn 0 1 0
vn 0 1 0
vn 0 1 0
vn 0 1 0
vn 0 1 0
vn 0 1 0
vn 0 1 0
vn 0 1 0
vn 0 1 0
vn 0 1 0
vn 0 1 0
vn 0 1 0
vn 0 1 0
vn 0 1 0
vn 0 1 0
vn 0 1 0
vn 0 1 0
vn 0 1 0
vn 0 1 0
vn 0 1 0
g Grass_0_Cluster312_0
f 2/2/2 3/3/3 1/1/1
f 2/2/2 4/4/4 3/3/3
f 6/6/6 7/7/7 5/5/5
f 6/6/6 8/8/8 7/7/7
f 10/10/10 11/11/11 9/9/9
f 10/10/10 12/12/12 11/11/11
f 14/14/14 15/15/15 13/13/13
f 14/14/14 16/16/16 15/15/15
f 18/18/18 19/19/19 17/17/17
f 18/18/18 20/20/20 19/19/19
f 22/22/22 23/23/23 21/21/21
f 22/22/22 24/24/24 23/23/23
f 26/26/26 27/27/27 25/25/25
f 26/26/26 28/28/28 27/27/27
f 30/30/30 31/31/31 29/29/29
f 30/30/30 32/32/32 31/31/31
f 34/34/34 35/35/35 33/33/33
f 34/34/34 36/36/36 35/35/35
f 38/38/38 39/39/39 37/37/37
f 38/38/38 40/40/40 39/39/39
f 42/42/42 43/43/43 41/41/41
f 42/42/42 44/44/44 43/43/43
f 46/46/46 47/47/47 45/45/45
f 46/46/46 48/48/48 47/47/47
f 50/50/50 51/51/51 49/49/49
f 50/50/50 52/52/52 51/51/51
f 54/54/54 55/55/55 53/53/53
f 54/54/54 56/56/56 55/55/55
f 58/58/58 59/59/59 57/57/57
f 58/58/58 60/60/60 59/59/59
f 62/62/62 63/63/63 61/61/61
f 62/62/62 64/64/64 63/63/63
f 66/66/66 67/67/67 65/65/65
f 66/66/66 68/68/68 67/67/67
f 70/70/70 71/71/71 69/69/69
f 70/70/70 72/72/72 71/71/71
f 74/74/74 75/75/75 73/73/73
f 74/74/74 76/76/76 75/75/75
f 78/78/78 79/79/79 77/77/77
f 78/78/78 80/80/80 79/79/79
f 82/82/82 83/83/83 81/81/81
f 82/82/82 84/84/84 83/83/83
f 86/86/86 87/87/87 85/85/85
f 86/86/86 88/88/88 87/87/87
f 90/90/90 91/91/91 89/89/89
f 90/90/90 92/92/92 91/91/91
f 94/94/94 95/95/95 93/93/93
f 94/94/94 96/96/96 95/95/95
f 98/98/98 99/99/99 97/97/97
f 98/98/98 100/100/100 99/99/99
f 102/102/102 103/103/103 101/101/101
f 102/102/102 104/104/104 103/103/103
f 106/106/106 107/107/107 105/105/105
f 106/106/106 108/108/108 107/107/107
f 110/110/110 111/111/111 109/109/109
f 110/110/110 112/112/112 111/111/111
