g Grass_2_Cluster48
v 53.55992 0.0321846 43.1238
v 52.66837 0.0321846 43.1238
v 53.55992 0.0321846 44.21347
v 52.66837 0.0321846 44.21347
v 56.63082 0.0321846 40.44915
v 55.54115 0.0321846 40.44915
v 56.63082 0.0321846 41.63788
v 55.54115 0.0321846 41.63788
v 57.12613 0.0321846 40.05291
v 56.23457 0.0321846 40.05291
v 57.12613 0.0321846 41.14257
v 56.23457 0.0321846 41.14257
v 55.04584 0.0321846 39.35948
v 54.05523 0.0321846 39.35948
v 55.04584 0.0321846 40.54821
v 54.05523 0.0321846 40.54821
v 55.93739 0.0321846 39.16136
v 55.04584 0.0321846 39.16136
v 55.93739 0.0321846 40.25103
v 55.04584 0.0321846 40.25103
v 54.94678 0.0321846 38.66605
v 53.95617 0.0321846 38.66605
v 54.94678 0.0321846 39.85479
v 53.95617 0.0321846 39.85479
v 56.4327 0.0321846 38.46792
v 55.54115 0.0321846 38.46792
v 56.4327 0.0321846 39.45854
v 55.54115 0.0321846 39.45854
v 54.25335 0.0321846 37.87356
v 53.26274 0.0321846 37.87356
v 54.25335 0.0321846 38.96323
v 53.26274 0.0321846 38.96323
v 55.1449 0.0321846 37.47731
v 54.35241 0.0321846 37.47731
v 55.1449 0.0321846 38.46792
v 54.35241 0.0321846 38.46792
v 42.86131 0.0321846 34.80266
v 41.96976 0.0321846 34.80266
v 42.86131 0.0321846 35.9914
v 41.96976 0.0321846 35.9914
v 42.26694 0.0321846 34.01017
v 41.3754 0.0321846 34.01017
v 42.26694 0.0321846 35.09984
v 41.3754 0.0321846 35.09984
v 42.76225 0.0321846 33.31675
v 41.77164 0.0321846 33.31675
v 42.76225 0.0321846 34.50548
v 41.77164 0.0321846 34.50548
v 46.03127 0.0321846 32.12801
v 45.13972 0.0321846 32.12801
v 46.03127 0.0321846 33.11862
v 45.13972 0.0321846 33.11862
v 33.94581 0.0321846 24.20311
v 33.05425 0.0321846 24.20311
v 33.94581 0.0321846 25.19373
v 33.05425 0.0321846 25.19373
v 35.2336 0.0321846 23.80687
v 34.34205 0.0321846 23.80687
v 35.2336 0.0321846 24.79748
v 34.34205 0.0321846 24.79748
v 36.42234 0.0321846 23.31157
v 35.53078 0.0321846 23.31157
v 36.42234 0.0321846 24.40123
v 35.53078 0.0321846 24.40123
v 35.03548 0.0321846 23.11344
v 34.04487 0.0321846 23.11344
v 35.03548 0.0321846 24.20311
v 34.04487 0.0321846 24.20311
vt 0.1347656 0.9185662
vt 0.2060202 0.9185662
vt 0.1347656 1
vt 0.2060202 1
vt 0.1347656 0.9185662
vt 0.2060202 0.9185662
vt 0.1347656 1
vt 0.2060202 1
vt 0.1347656 0.9185662
vt 0.2060202 0.9185662
vt 0.1347656 1
vt 0.2060202 1
vt 0.1347656 0.9185662
vt 0.2060202 0.9185662
vt 0.1347656 1
vt 0.2060202 1
vt 0.1347656 0.9185662
vt 0.2060202 0.9185662
vt 0.1347656 1
vt 0.2060202 1
vt 0.1347656 0.9185662
vt 0.2060202 0.9185662
vt 0.1347656 1
vt 0.2060202 1
vt 0.1347656 0.9185662
vt 0.2060202 0.9185662
vt 0.1347656 1
vt 0.2060202 1
vt 0.1347656 0.9185662
vt 0.2060202 0.9185662
vt 0.1347656 1
vt 0.2060202 1
vt 0.1347656 0.9185662
vt 0.2060202 0.9185662
vt 0.1347656 1
vt 0.2060202 1
vt 0.1347656 0.9185662
vt 0.2060202 0.9185662
vt 0.1347656 1
vt 0.2060202 1
vt 0.1347656 0.9185662
vt 0.2060202 0.9185662
vt 0.1347656 1
vt 0.2060202 1
vt 0.1347656 0.9185662
vt 0.2060202 0.9185662
vt 0.1347656 1
vt 0.2060202 1
vt 0.1347656 0.9185662
vt 0.2060202 0.9185662
vt 0.1347656 1
vt 0.2060202 1
vt 0.1347656 0.9185662
vt 0.2060202 0.9185662
vt 0.1347656 1
vt 0.2060202 1
vt 0.1347656 0.9185662
vt 0.2060202 0.9185662
vt 0.1347656 1
vt 0.2060202 1
vt 0.1347656 0.9185662
vt 0.2060202 0.9185662
vt 0.1347656 1
vt 0.2060202 1
vt 0.1347656 0.9185662
vt 0.2060202 0.9185662
vt 0.1347656 1
vt 0.2060202 1
vn 0 1 0
vn 0 1 0
vn 0 1 0
vn 0 1 0
vn 0 1 0
vn 0 1 0
vn 0 1 0
vn 0 1 0
vn 0 1 0
vn 0 1 0
vn 0 1 0
vn 0 1 0
vn 0 1 0
vn 0 1 0
vn 0 1 0
vn 0 1 0
vn 0 1 0
vn 0 1 0
vn 0 1 0
vn 0 1 0
vn 0 1 0
vn 0 1 0
vn 0 1 0
vn 0 1 0
vn 0 1 0
vn 0 1 0
vn 0 1 0
vn 0 1 0
vn 0 1 0
vn 0 1 0
vn 0 1 0
vn 0 1 0
vn 0 1 0
vn 0 1 0
vn 0 1 0
vn 0 1 0
vn 0 1 0
vn 0 1 0
vn 0 1 0
vn 0 1 0
vn 0 1 0
vn 0 1 0
vn 0 1 0
vn 0 1 0
vn 0 1 0
vn 0 1 0
vn 0 1 0
vn 0 1 0
vn 0 1 0
vn 0 1 0
vn 0 1 0
vn 0 1 0
vn 0 1 0
vn 0 1 0
vn 0 1 0
vn 0 1 0
vn 0 1 0
vn 0 1 0
vn 0 1 0
vn 0 1 0
vn 0 1 0
vn 0 1 0
vn 0 1 0
vn 0 1 0
vn 0 1 0
vn 0 1 0
vn 0 1 0
vn 0 1 0
g Grass_2_Cluster48_0
f 2/2/2 3/3/3 1/1/1
f 2/2/2 4/4/4 3/3/3
f 6/6/6 7/7/7 5/5/5
f 6/6/6 8/8/8 7/7/7
f 10/10/10 11/11/11 9/9/9
f 10/10/10 12/12/12 11/11/11
f 14/14/14 15/15/15 13/13/13
f 14/14/14 16/16/16 15/15/15
f 18/18/18 19/19/19 17/17/17
f 18/18/18 20/20/20 19/19/19
f 22/22/22 23/23/23 21/21/21
f 22/22/22 24/24/24 23/23/23
f 26/26/26 27/27/27 25/25/25
f 26/26/26 28/28/28 27/27/27
f 30/30/30 31/31/31 29/29/29
f 30/30/30 32/32/32 31/31/31
f 34/34/34 35/35/35 33/33/33
f 34/34/34 36/36/36 35/35/35
f 38/38/38 39/39/39 37/37/37
f 38/38/38 40/40/40 39/39/39
f 42/42/42 43/43/43 41/41/41
f 42/42/42 44/44/44 43/43/43
f 46/46/46 47/47/47 45/45/45
f 46/46/46 48/48/48 47/47/47
f 50/50/50 51/51/51 49/49/49
f 50/50/50 52/52/52 51/51/51
f 54/54/54 55/55/55 53/53/53
f 54/54/54 56/56/56 55/55/55
f 58/58/58 59/59/59 57/57/57
f 58/58/58 60/60/60 59/59/59
f 62/62/62 63/63/63 61/61/61
f 62/62/62 64/64/64 63/63/63
f 66/66/66 67/67/67 65/65/65
f 66/66/66 68/68/68 67/67/67
