g Grass_2_Cluster302
v 224.4159 0.255661 440.2652
v 223.7492 0.255661 440.2652
v 224.4159 0.255661 441.5986
v 223.7492 0.255661 441.5986
v 237.7495 0.255661 438.9318
v 237.0828 0.255661 438.9318
v 237.7495 0.255661 439.5985
v 237.0828 0.255661 439.5985
v 235.7495 0.255661 438.2651
v 234.4161 0.255661 438.2651
v 235.7495 0.255661 439.5985
v 234.4161 0.255661 439.5985
v 240.4162 0.255661 437.5984
v 239.7495 0.255661 437.5984
v 240.4162 0.255661 438.2651
v 239.7495 0.255661 438.2651
v 236.4161 0.255661 437.5984
v 235.7495 0.255661 437.5984
v 236.4161 0.255661 438.2651
v 235.7495 0.255661 438.2651
v 238.4162 0.255661 436.9318
v 237.7495 0.255661 436.9318
v 238.4162 0.255661 437.5984
v 237.7495 0.255661 437.5984
v 239.7495 0.255661 436.2651
v 239.0829 0.255661 436.2651
v 239.7495 0.255661 437.5984
v 239.0829 0.255661 437.5984
v 237.7495 0.255661 436.2651
v 237.0828 0.255661 436.2651
v 237.7495 0.255661 437.5984
v 237.0828 0.255661 437.5984
v 235.0828 0.255661 436.2651
v 233.7494 0.255661 436.2651
v 235.0828 0.255661 436.9318
v 233.7494 0.255661 436.9318
v 238.4162 0.255661 435.5984
v 237.0828 0.255661 435.5984
v 238.4162 0.255661 436.9318
v 237.0828 0.255661 436.9318
v 239.0829 0.255661 435.5984
v 238.4162 0.255661 435.5984
v 239.0829 0.255661 436.2651
v 238.4162 0.255661 436.2651
v 237.0828 0.255661 435.5984
v 235.7495 0.255661 435.5984
v 237.0828 0.255661 436.9318
v 235.7495 0.255661 436.9318
v 235.7495 0.255661 434.9318
v 235.0828 0.255661 434.9318
v 235.7495 0.255661 436.2651
v 235.0828 0.255661 436.2651
v 239.7495 0.255661 434.9318
v 239.0829 0.255661 434.9318
v 239.7495 0.255661 436.2651
v 239.0829 0.255661 436.2651
v 238.4162 0.255661 434.9318
v 237.7495 0.255661 434.9318
v 238.4162 0.255661 435.5984
v 237.7495 0.255661 435.5984
v 236.4161 0.255661 434.2651
v 235.0828 0.255661 434.2651
v 236.4161 0.255661 435.5984
v 235.0828 0.255661 435.5984
v 237.7495 0.255661 433.5984
v 237.0828 0.255661 433.5984
v 237.7495 0.255661 434.9318
v 237.0828 0.255661 434.9318
v 239.7495 0.255661 433.5984
v 238.4162 0.255661 433.5984
v 239.7495 0.255661 434.9318
v 238.4162 0.255661 434.9318
v 237.0828 0.255661 433.5984
v 235.7495 0.255661 433.5984
v 237.0828 0.255661 434.2651
v 235.7495 0.255661 434.2651
v 235.0828 0.255661 432.9317
v 234.4161 0.255661 432.9317
v 235.0828 0.255661 434.2651
v 234.4161 0.255661 434.2651
v 237.0828 0.255661 432.265
v 236.4161 0.255661 432.265
v 237.0828 0.255661 433.5984
v 236.4161 0.255661 433.5984
v 237.0828 0.255661 432.265
v 236.4161 0.255661 432.265
v 237.0828 0.255661 432.9317
v 236.4161 0.255661 432.9317
v 236.4161 0.255661 431.5983
v 235.0828 0.255661 431.5983
v 236.4161 0.255661 432.9317
v 235.0828 0.255661 432.9317
v 235.7495 0.255661 430.9316
v 234.4161 0.255661 430.9316
v 235.7495 0.255661 432.265
v 234.4161 0.255661 432.265
v 236.4161 0.255661 428.2649
v 235.7495 0.255661 428.2649
v 236.4161 0.255661 428.9316
v 235.7495 0.255661 428.9316
v 235.0828 0.255661 424.9315
v 234.4161 0.255661 424.9315
v 235.0828 0.255661 426.2649
v 234.4161 0.255661 426.2649
v 234.4161 0.255661 424.9315
v 233.0827 0.255661 424.9315
v 234.4161 0.255661 425.5982
v 233.0827 0.255661 425.5982
v 211.0822 0.255661 423.5981
v 209.7489 0.255661 423.5981
v 211.0822 0.255661 424.9315
v 209.7489 0.255661 424.9315
v 235.7495 0.255661 422.2648
v 235.0828 0.255661 422.2648
v 235.7495 0.255661 423.5981
v 235.0828 0.255661 423.5981
v 239.0829 0.255661 420.9315
v 238.4162 0.255661 420.9315
v 239.0829 0.255661 421.5981
v 238.4162 0.255661 421.5981
vt 0.1347656 0.9185662
vt 0.2060202 0.9185662
vt 0.1347656 1
vt 0.2060202 1
vt 0.1347656 0.9185662
vt 0.2060202 0.9185662
vt 0.1347656 1
vt 0.2060202 1
vt 0.1347656 0.9185662
vt 0.2060202 0.9185662
vt 0.1347656 1
vt 0.2060202 1
vt 0.1347656 0.9185662
vt 0.2060202 0.9185662
vt 0.1347656 1
vt 0.2060202 1
vt 0.1347656 0.9185662
vt 0.2060202 0.9185662
vt 0.1347656 1
vt 0.2060202 1
vt 0.1347656 0.9185662
vt 0.2060202 0.9185662
vt 0.1347656 1
vt 0.2060202 1
vt 0.1347656 0.9185662
vt 0.2060202 0.9185662
vt 0.1347656 1
vt 0.2060202 1
vt 0.1347656 0.9185662
vt 0.2060202 0.9185662
vt 0.1347656 1
vt 0.2060202 1
vt 0.1347656 0.9185662
vt 0.2060202 0.9185662
vt 0.1347656 1
vt 0.2060202 1
vt 0.1347656 0.9185662
vt 0.2060202 0.9185662
vt 0.1347656 1
vt 0.2060202 1
vt 0.1347656 0.9185662
vt 0.2060202 0.9185662
vt 0.1347656 1
vt 0.2060202 1
vt 0.1347656 0.9185662
vt 0.2060202 0.9185662
vt 0.1347656 1
vt 0.2060202 1
vt 0.1347656 0.9185662
vt 0.2060202 0.9185662
vt 0.1347656 1
vt 0.2060202 1
vt 0.1347656 0.9185662
vt 0.2060202 0.9185662
vt 0.1347656 1
vt 0.2060202 1
vt 0.1347656 0.9185662
vt 0.2060202 0.9185662
vt 0.1347656 1
vt 0.2060202 1
vt 0.1347656 0.9185662
vt 0.2060202 0.9185662
vt 0.1347656 1
vt 0.2060202 1
vt 0.1347656 0.9185662
vt 0.2060202 0.9185662
vt 0.1347656 1
vt 0.2060202 1
vt 0.1347656 0.9185662
vt 0.2060202 0.9185662
vt 0.1347656 1
vt 0.2060202 1
vt 0.1347656 0.9185662
vt 0.2060202 0.9185662
vt 0.1347656 1
vt 0.2060202 1
vt 0.1347656 0.9185662
vt 0.2060202 0.9185662
vt 0.1347656 1
vt 0.2060202 1
vt 0.1347656 0.9185662
vt 0.2060202 0.9185662
vt 0.1347656 1
vt 0.2060202 1
vt 0.1347656 0.9185662
vt 0.2060202 0.9185662
vt 0.1347656 1
vt 0.2060202 1
vt 0.1347656 0.9185662
vt 0.2060202 0.9185662
vt 0.1347656 1
vt 0.2060202 1
vt 0.1347656 0.9185662
vt 0.2060202 0.9185662
vt 0.1347656 1
vt 0.2060202 1
vt 0.1347656 0.9185662
vt 0.2060202 0.9185662
vt 0.1347656 1
vt 0.2060202 1
vt 0.1347656 0.9185662
vt 0.2060202 0.9185662
vt 0.1347656 1
vt 0.2060202 1
vt 0.1347656 0.9185662
vt 0.2060202 0.9185662
vt 0.1347656 1
vt 0.2060202 1
vt 0.1347656 0.9185662
vt 0.2060202 0.9185662
vt 0.1347656 1
vt 0.2060202 1
vt 0.1347656 0.9185662
vt 0.2060202 0.9185662
vt 0.1347656 1
vt 0.2060202 1
vt 0.1347656 0.9185662
vt 0.2060202 0.9185662
vt 0.1347656 1
vt 0.2060202 1
vn 0 1 0
vn 0 1 0
vn 0 1 0
vn 0 1 0
vn 0 1 0
vn 0 1 0
vn 0 1 0
vn 0 1 0
vn 0 1 0
vn 0 1 0
vn 0 1 0
vn 0 1 0
vn 0 1 0
vn 0 1 0
vn 0 1 0
vn 0 1 0
vn 0 1 0
vn 0 1 0
vn 0 1 0
vn 0 1 0
vn 0 1 0
vn 0 1 0
vn 0 1 0
vn 0 1 0
vn 0 1 0
vn 0 1 0
vn 0 1 0
vn 0 1 0
vn 0 1 0
vn 0 1 0
vn 0 1 0
vn 0 1 0
vn 0 1 0
vn 0 1 0
vn 0 1 0
vn 0 1 0
vn 0 1 0
vn 0 1 0
vn 0 1 0
vn 0 1 0
vn 0 1 0
vn 0 1 0
vn 0 1 0
vn 0 1 0
vn 0 1 0
vn 0 1 0
vn 0 1 0
vn 0 1 0
vn 0 1 0
vn 0 1 0
vn 0 1 0
vn 0 1 0
vn 0 1 0
vn 0 1 0
vn 0 1 0
vn 0 1 0
vn 0 1 0
vn 0 1 0
vn 0 1 0
vn 0 1 0
vn 0 1 0
vn 0 1 0
vn 0 1 0
vn 0 1 0
vn 0 1 0
vn 0 1 0
vn 0 1 0
vn 0 1 0
vn 0 1 0
vn 0 1 0
vn 0 1 0
vn 0 1 0
vn 0 1 0
vn 0 1 0
vn 0 1 0
vn 0 1 0
vn 0 1 0
vn 0 1 0
vn 0 1 0
vn 0 1 0
vn 0 1 0
vn 0 1 0
vn 0 1 0
vn 0 1 0
vn 0 1 0
vn 0 1 0
vn 0 1 0
vn 0 1 0
vn 0 1 0
vn 0 1 0
vn 0 1 0
vn 0 1 0
vn 0 1 0
vn 0 1 0
vn 0 1 0
vn 0 1 0
vn 0 1 0
vn 0 1 0
vn 0 1 0
vn 0 1 0
vn 0 1 0
vn 0 1 0
vn 0 1 0
vn 0 1 0
vn 0 1 0
vn 0 1 0
vn 0 1 0
vn 0 1 0
vn 0 1 0
vn 0 1 0
vn 0 1 0
vn 0 1 0
vn 0 1 0
vn 0 1 0
vn 0 1 0
vn 0 1 0
vn 0 1 0
vn 0 1 0
vn 0 1 0
vn 0 1 0
g Grass_2_Cluster302_0
f 2/2/2 3/3/3 1/1/1
f 2/2/2 4/4/4 3/3/3
f 6/6/6 7/7/7 5/5/5
f 6/6/6 8/8/8 7/7/7
f 10/10/10 11/11/11 9/9/9
f 10/10/10 12/12/12 11/11/11
f 14/14/14 15/15/15 13/13/13
f 14/14/14 16/16/16 15/15/15
f 18/18/18 19/19/19 17/17/17
f 18/18/18 20/20/20 19/19/19
f 22/22/22 23/23/23 21/21/21
f 22/22/22 24/24/24 23/23/23
f 26/26/26 27/27/27 25/25/25
f 26/26/26 28/28/28 27/27/27
f 30/30/30 31/31/31 29/29/29
f 30/30/30 32/32/32 31/31/31
f 34/34/34 35/35/35 33/33/33
f 34/34/34 36/36/36 35/35/35
f 38/38/38 39/39/39 37/37/37
f 38/38/38 40/40/40 39/39/39
f 42/42/42 43/43/43 41/41/41
f 42/42/42 44/44/44 43/43/43
f 46/46/46 47/47/47 45/45/45
f 46/46/46 48/48/48 47/47/47
f 50/50/50 51/51/51 49/49/49
f 50/50/50 52/52/52 51/51/51
f 54/54/54 55/55/55 53/53/53
f 54/54/54 56/56/56 55/55/55
f 58/58/58 59/59/59 57/57/57
f 58/58/58 60/60/60 59/59/59
f 62/62/62 63/63/63 61/61/61
f 62/62/62 64/64/64 63/63/63
f 66/66/66 67/67/67 65/65/65
f 66/66/66 68/68/68 67/67/67
f 70/70/70 71/71/71 69/69/69
f 70/70/70 72/72/72 71/71/71
f 74/74/74 75/75/75 73/73/73
f 74/74/74 76/76/76 75/75/75
f 78/78/78 79/79/79 77/77/77
f 78/78/78 80/80/80 79/79/79
f 82/82/82 83/83/83 81/81/81
f 82/82/82 84/84/84 83/83/83
f 86/86/86 87/87/87 85/85/85
f 86/86/86 88/88/88 87/87/87
f 90/90/90 91/91/91 89/89/89
f 90/90/90 92/92/92 91/91/91
f 94/94/94 95/95/95 93/93/93
f 94/94/94 96/96/96 95/95/95
f 98/98/98 99/99/99 97/97/97
f 98/98/98 100/100/100 99/99/99
f 102/102/102 103/103/103 101/101/101
f 102/102/102 104/104/104 103/103/103
f 106/106/106 107/107/107 105/105/105
f 106/106/106 108/108/108 107/107/107
f 110/110/110 111/111/111 109/109/109
f 110/110/110 112/112/112 111/111/111
f 114/114/114 115/115/115 113/113/113
f 114/114/114 116/116/116 115/115/115
f 118/118/118 119/119/119 117/117/117
f 118/118/118 120/120/120 119/119/119
