g Grass_2_Cluster319
v -291.8217 0 435.1728
v -292.675 0 435.1728
v -291.8217 0 436.4527
v -292.675 0 436.4527
v -281.5824 0 426.64
v -282.4357 0 426.64
v -281.5824 0 427.4933
v -282.4357 0 427.4933
v -269.6365 0 426.64
v -270.4897 0 426.64
v -269.6365 0 427.4933
v -270.4897 0 427.4933
v -271.343 0 425.7867
v -272.1963 0 425.7867
v -271.343 0 426.64
v -272.1963 0 426.64
v -269.6365 0 424.9334
v -270.4897 0 424.9334
v -269.6365 0 426.2133
v -270.4897 0 426.2133
v -270.9164 0 424.0801
v -271.7697 0 424.0801
v -270.9164 0 425.36
v -271.7697 0 425.36
v -270.0631 0 423.2269
v -271.343 0 423.2269
v -270.0631 0 424.5068
v -271.343 0 424.5068
v -276.4627 0 421.5203
v -277.7426 0 421.5203
v -276.4627 0 422.8002
v -277.7426 0 422.8002
v -295.2349 0 420.2404
v -296.0881 0 420.2404
v -295.2349 0 421.0937
v -296.0881 0 421.0937
v -293.955 0 416.4006
v -295.2349 0 416.4006
v -293.955 0 417.6805
v -295.2349 0 417.6805
v -273.9029 0 415.974
v -274.7561 0 415.974
v -273.9029 0 417.2539
v -274.7561 0 417.2539
v -295.2349 0 415.974
v -296.0881 0 415.974
v -295.2349 0 416.8273
v -296.0881 0 416.8273
v -274.7561 0 415.1207
v -275.6094 0 415.1207
v -274.7561 0 416.4006
v -275.6094 0 416.4006
v -276.0361 0 415.1207
v -277.316 0 415.1207
v -276.0361 0 416.4006
v -277.316 0 416.4006
v -275.6094 0 415.1207
v -276.4627 0 415.1207
v -275.6094 0 415.974
v -276.4627 0 415.974
v -277.7426 0 414.6941
v -278.5959 0 414.6941
v -277.7426 0 415.974
v -278.5959 0 415.974
v -275.6094 0 414.2674
v -276.4627 0 414.2674
v -275.6094 0 415.5473
v -276.4627 0 415.5473
v -278.5959 0 414.2674
v -279.4492 0 414.2674
v -278.5959 0 415.1207
v -279.4492 0 415.1207
v -274.3295 0 413.8408
v -275.1828 0 413.8408
v -274.3295 0 414.6941
v -275.1828 0 414.6941
v -273.4762 0 413.8408
v -274.7561 0 413.8408
v -273.4762 0 414.6941
v -274.7561 0 414.6941
v -276.4627 0 413.4141
v -277.7426 0 413.4141
v -276.4627 0 414.6941
v -277.7426 0 414.6941
v -277.316 0 413.4141
v -278.5959 0 413.4141
v -277.316 0 414.6941
v -278.5959 0 414.6941
v -299.5013 0 413.4141
v -300.3546 0 413.4141
v -299.5013 0 414.2674
v -300.3546 0 414.2674
v -276.0361 0 412.9875
v -276.8893 0 412.9875
v -276.0361 0 414.2674
v -276.8893 0 414.2674
vt 0.1347656 0.9185662
vt 0.2060202 0.9185662
vt 0.1347656 1
vt 0.2060202 1
vt 0.1347656 0.9185662
vt 0.2060202 0.9185662
vt 0.1347656 1
vt 0.2060202 1
vt 0.1347656 0.9185662
vt 0.2060202 0.9185662
vt 0.1347656 1
vt 0.2060202 1
vt 0.1347656 0.9185662
vt 0.2060202 0.9185662
vt 0.1347656 1
vt 0.2060202 1
vt 0.1347656 0.9185662
vt 0.2060202 0.9185662
vt 0.1347656 1
vt 0.2060202 1
vt 0.1347656 0.9185662
vt 0.2060202 0.9185662
vt 0.1347656 1
vt 0.2060202 1
vt 0.1347656 0.9185662
vt 0.2060202 0.9185662
vt 0.1347656 1
vt 0.2060202 1
vt 0.1347656 0.9185662
vt 0.2060202 0.9185662
vt 0.1347656 1
vt 0.2060202 1
vt 0.1347656 0.9185662
vt 0.2060202 0.9185662
vt 0.1347656 1
vt 0.2060202 1
vt 0.1347656 0.9185662
vt 0.2060202 0.9185662
vt 0.1347656 1
vt 0.2060202 1
vt 0.1347656 0.9185662
vt 0.2060202 0.9185662
vt 0.1347656 1
vt 0.2060202 1
vt 0.1347656 0.9185662
vt 0.2060202 0.9185662
vt 0.1347656 1
vt 0.2060202 1
vt 0.1347656 0.9185662
vt 0.2060202 0.9185662
vt 0.1347656 1
vt 0.2060202 1
vt 0.1347656 0.9185662
vt 0.2060202 0.9185662
vt 0.1347656 1
vt 0.2060202 1
vt 0.1347656 0.9185662
vt 0.2060202 0.9185662
vt 0.1347656 1
vt 0.2060202 1
vt 0.1347656 0.9185662
vt 0.2060202 0.9185662
vt 0.1347656 1
vt 0.2060202 1
vt 0.1347656 0.9185662
vt 0.2060202 0.9185662
vt 0.1347656 1
vt 0.2060202 1
vt 0.1347656 0.9185662
vt 0.2060202 0.9185662
vt 0.1347656 1
vt 0.2060202 1
vt 0.1347656 0.9185662
vt 0.2060202 0.9185662
vt 0.1347656 1
vt 0.2060202 1
vt 0.1347656 0.9185662
vt 0.2060202 0.9185662
vt 0.1347656 1
vt 0.2060202 1
vt 0.1347656 0.9185662
vt 0.2060202 0.9185662
vt 0.1347656 1
vt 0.2060202 1
vt 0.1347656 0.9185662
vt 0.2060202 0.9185662
vt 0.1347656 1
vt 0.2060202 1
vt 0.1347656 0.9185662
vt 0.2060202 0.9185662
vt 0.1347656 1
vt 0.2060202 1
vt 0.1347656 0.9185662
vt 0.2060202 0.9185662
vt 0.1347656 1
vt 0.2060202 1
vn 0 1 0
vn 0 1 0
vn 0 1 0
vn 0 1 0
vn 0 1 0
vn 0 1 0
vn 0 1 0
vn 0 1 0
vn 0 1 0
vn 0 1 0
vn 0 1 0
vn 0 1 0
vn 0 1 0
vn 0 1 0
vn 0 1 0
vn 0 1 0
vn 0 1 0
vn 0 1 0
vn 0 1 0
vn 0 1 0
vn 0 1 0
vn 0 1 0
vn 0 1 0
vn 0 1 0
vn 0 1 0
vn 0 1 0
vn 0 1 0
vn 0 1 0
vn 0 1 0
vn 0 1 0
vn 0 1 0
vn 0 1 0
vn 0 1 0
vn 0 1 0
vn 0 1 0
vn 0 1 0
vn 0 1 0
vn 0 1 0
vn 0 1 0
vn 0 1 0
vn 0 1 0
vn 0 1 0
vn 0 1 0
vn 0 1 0
vn 0 1 0
vn 0 1 0
vn 0 1 0
vn 0 1 0
vn 0 1 0
vn 0 1 0
vn 0 1 0
vn 0 1 0
vn 0 1 0
vn 0 1 0
vn 0 1 0
vn 0 1 0
vn 0 1 0
vn 0 1 0
vn 0 1 0
vn 0 1 0
vn 0 1 0
vn 0 1 0
vn 0 1 0
vn 0 1 0
vn 0 1 0
vn 0 1 0
vn 0 1 0
vn 0 1 0
vn 0 1 0
vn 0 1 0
vn 0 1 0
vn 0 1 0
vn 0 1 0
vn 0 1 0
vn 0 1 0
vn 0 1 0
vn 0 1 0
vn 0 1 0
vn 0 1 0
vn 0 1 0
vn 0 1 0
vn 0 1 0
vn 0 1 0
vn 0 1 0
vn 0 1 0
vn 0 1 0
vn 0 1 0
vn 0 1 0
vn 0 1 0
vn 0 1 0
vn 0 1 0
vn 0 1 0
vn 0 1 0
vn 0 1 0
vn 0 1 0
vn 0 1 0
g Grass_2_Cluster319_0
f 2/2/2 3/3/3 1/1/1
f 2/2/2 4/4/4 3/3/3
f 6/6/6 7/7/7 5/5/5
f 6/6/6 8/8/8 7/7/7
f 10/10/10 11/11/11 9/9/9
f 10/10/10 12/12/12 11/11/11
f 14/14/14 15/15/15 13/13/13
f 14/14/14 16/16/16 15/15/15
f 18/18/18 19/19/19 17/17/17
f 18/18/18 20/20/20 19/19/19
f 22/22/22 23/23/23 21/21/21
f 22/22/22 24/24/24 23/23/23
f 26/26/26 27/27/27 25/25/25
f 26/26/26 28/28/28 27/27/27
f 30/30/30 31/31/31 29/29/29
f 30/30/30 32/32/32 31/31/31
f 34/34/34 35/35/35 33/33/33
f 34/34/34 36/36/36 35/35/35
f 38/38/38 39/39/39 37/37/37
f 38/38/38 40/40/40 39/39/39
f 42/42/42 43/43/43 41/41/41
f 42/42/42 44/44/44 43/43/43
f 46/46/46 47/47/47 45/45/45
f 46/46/46 48/48/48 47/47/47
f 50/50/50 51/51/51 49/49/49
f 50/50/50 52/52/52 51/51/51
f 54/54/54 55/55/55 53/53/53
f 54/54/54 56/56/56 55/55/55
f 58/58/58 59/59/59 57/57/57
f 58/58/58 60/60/60 59/59/59
f 62/62/62 63/63/63 61/61/61
f 62/62/62 64/64/64 63/63/63
f 66/66/66 67/67/67 65/65/65
f 66/66/66 68/68/68 67/67/67
f 70/70/70 71/71/71 69/69/69
f 70/70/70 72/72/72 71/71/71
f 74/74/74 75/75/75 73/73/73
f 74/74/74 76/76/76 75/75/75
f 78/78/78 79/79/79 77/77/77
f 78/78/78 80/80/80 79/79/79
f 82/82/82 83/83/83 81/81/81
f 82/82/82 84/84/84 83/83/83
f 86/86/86 87/87/87 85/85/85
f 86/86/86 88/88/88 87/87/87
f 90/90/90 91/91/91 89/89/89
f 90/90/90 92/92/92 91/91/91
f 94/94/94 95/95/95 93/93/93
f 94/94/94 96/96/96 95/95/95
