g Grass_1_Cluster182
v 221.5091 0.01623535 257.5699
v 220.5354 0.01623535 257.5699
v 221.5091 0.01623535 258.5437
v 220.5354 0.01623535 258.5437
v 236.6021 0.01623535 257.083
v 235.6283 0.01623535 257.083
v 236.6021 0.01623535 258.0568
v 235.6283 0.01623535 258.0568
v 217.1273 0.01623535 254.1618
v 216.1536 0.01623535 254.1618
v 217.1273 0.01623535 255.1356
v 216.1536 0.01623535 255.1356
v 216.1536 0.01623535 253.1881
v 215.1798 0.01623535 253.1881
v 216.1536 0.01623535 254.1618
v 215.1798 0.01623535 254.1618
v 238.0627 0.01623535 251.7275
v 237.5758 0.01623535 251.7275
v 238.0627 0.01623535 252.2144
v 237.5758 0.01623535 252.2144
v 237.5758 0.01623535 249.2932
v 236.6021 0.01623535 249.2932
v 237.5758 0.01623535 250.2669
v 236.6021 0.01623535 250.2669
v 239.5233 0.01623535 248.3194
v 238.5495 0.01623535 248.3194
v 239.5233 0.01623535 249.2932
v 238.5495 0.01623535 249.2932
v 232.2202 0.01623535 247.8326
v 231.7334 0.01623535 247.8326
v 232.2202 0.01623535 248.8063
v 231.7334 0.01623535 248.8063
v 224.9172 0.01623535 244.4245
v 223.9435 0.01623535 244.4245
v 224.9172 0.01623535 245.3982
v 223.9435 0.01623535 245.3982
v 222.4829 0.01623535 243.4507
v 221.5091 0.01623535 243.4507
v 222.4829 0.01623535 244.4245
v 221.5091 0.01623535 244.4245
v 224.9172 0.01623535 241.9901
v 224.4303 0.01623535 241.9901
v 224.9172 0.01623535 242.9638
v 224.4303 0.01623535 242.9638
v 225.891 0.01623535 241.5032
v 224.9172 0.01623535 241.5032
v 225.891 0.01623535 242.477
v 224.9172 0.01623535 242.477
v 222.4829 0.01623535 241.5032
v 221.5091 0.01623535 241.5032
v 222.4829 0.01623535 241.9901
v 221.5091 0.01623535 241.9901
v 221.996 0.01623535 239.5558
v 221.0223 0.01623535 239.5558
v 221.996 0.01623535 240.5295
v 221.0223 0.01623535 240.5295
v 225.4041 0.01623535 238.582
v 224.4303 0.01623535 238.582
v 225.4041 0.01623535 239.0689
v 224.4303 0.01623535 239.0689
vt 0.06738281 0.9369141
vt 0.1331457 0.9369141
vt 0.06738281 0.9990234
vt 0.1331457 0.9990234
vt 0.06738281 0.9369141
vt 0.1331457 0.9369141
vt 0.06738281 0.9990234
vt 0.1331457 0.9990234
vt 0.06738281 0.9369141
vt 0.1331457 0.9369141
vt 0.06738281 0.9990234
vt 0.1331457 0.9990234
vt 0.06738281 0.9369141
vt 0.1331457 0.9369141
vt 0.06738281 0.9990234
vt 0.1331457 0.9990234
vt 0.06738281 0.9369141
vt 0.1331457 0.9369141
vt 0.06738281 0.9990234
vt 0.1331457 0.9990234
vt 0.06738281 0.9369141
vt 0.1331457 0.9369141
vt 0.06738281 0.9990234
vt 0.1331457 0.9990234
vt 0.06738281 0.9369141
vt 0.1331457 0.9369141
vt 0.06738281 0.9990234
vt 0.1331457 0.9990234
vt 0.06738281 0.9369141
vt 0.1331457 0.9369141
vt 0.06738281 0.9990234
vt 0.1331457 0.9990234
vt 0.06738281 0.9369141
vt 0.1331457 0.9369141
vt 0.06738281 0.9990234
vt 0.1331457 0.9990234
vt 0.06738281 0.9369141
vt 0.1331457 0.9369141
vt 0.06738281 0.9990234
vt 0.1331457 0.9990234
vt 0.06738281 0.9369141
vt 0.1331457 0.9369141
vt 0.06738281 0.9990234
vt 0.1331457 0.9990234
vt 0.06738281 0.9369141
vt 0.1331457 0.9369141
vt 0.06738281 0.9990234
vt 0.1331457 0.9990234
vt 0.06738281 0.9369141
vt 0.1331457 0.9369141
vt 0.06738281 0.9990234
vt 0.1331457 0.9990234
vt 0.06738281 0.9369141
vt 0.1331457 0.9369141
vt 0.06738281 0.9990234
vt 0.1331457 0.9990234
vt 0.06738281 0.9369141
vt 0.1331457 0.9369141
vt 0.06738281 0.9990234
vt 0.1331457 0.9990234
vn 0 1 0
vn 0 1 0
vn 0 1 0
vn 0 1 0
vn 0 1 0
vn 0 1 0
vn 0 1 0
vn 0 1 0
vn 0 1 0
vn 0 1 0
vn 0 1 0
vn 0 1 0
vn 0 1 0
vn 0 1 0
vn 0 1 0
vn 0 1 0
vn 0 1 0
vn 0 1 0
vn 0 1 0
vn 0 1 0
vn 0 1 0
vn 0 1 0
vn 0 1 0
vn 0 1 0
vn 0 1 0
vn 0 1 0
vn 0 1 0
vn 0 1 0
vn 0 1 0
vn 0 1 0
vn 0 1 0
vn 0 1 0
vn 0 1 0
vn 0 1 0
vn 0 1 0
vn 0 1 0
vn 0 1 0
vn 0 1 0
vn 0 1 0
vn 0 1 0
vn 0 1 0
vn 0 1 0
vn 0 1 0
vn 0 1 0
vn 0 1 0
vn 0 1 0
vn 0 1 0
vn 0 1 0
vn 0 1 0
vn 0 1 0
vn 0 1 0
vn 0 1 0
vn 0 1 0
vn 0 1 0
vn 0 1 0
vn 0 1 0
vn 0 1 0
vn 0 1 0
vn 0 1 0
vn 0 1 0
g Grass_1_Cluster182_0
f 2/2/2 3/3/3 1/1/1
f 2/2/2 4/4/4 3/3/3
f 6/6/6 7/7/7 5/5/5
f 6/6/6 8/8/8 7/7/7
f 10/10/10 11/11/11 9/9/9
f 10/10/10 12/12/12 11/11/11
f 14/14/14 15/15/15 13/13/13
f 14/14/14 16/16/16 15/15/15
f 18/18/18 19/19/19 17/17/17
f 18/18/18 20/20/20 19/19/19
f 22/22/22 23/23/23 21/21/21
f 22/22/22 24/24/24 23/23/23
f 26/26/26 27/27/27 25/25/25
f 26/26/26 28/28/28 27/27/27
f 30/30/30 31/31/31 29/29/29
f 30/30/30 32/32/32 31/31/31
f 34/34/34 35/35/35 33/33/33
f 34/34/34 36/36/36 35/35/35
f 38/38/38 39/39/39 37/37/37
f 38/38/38 40/40/40 39/39/39
f 42/42/42 43/43/43 41/41/41
f 42/42/42 44/44/44 43/43/43
f 46/46/46 47/47/47 45/45/45
f 46/46/46 48/48/48 47/47/47
f 50/50/50 51/51/51 49/49/49
f 50/50/50 52/52/52 51/51/51
f 54/54/54 55/55/55 53/53/53
f 54/54/54 56/56/56 55/55/55
f 58/58/58 59/59/59 57/57/57
f 58/58/58 60/60/60 59/59/59
