g Grass_2_Cluster281
v 241.8739 -0.103241 403.0674
v 240.5564 -0.103241 403.0674
v 241.8739 -0.103241 404.385
v 240.5564 -0.103241 404.385
v 259.0021 -0.103241 399.1148
v 257.6845 -0.103241 399.1148
v 259.0021 -0.103241 400.4324
v 257.6845 -0.103241 400.4324
v 257.6845 -0.103241 398.4561
v 256.367 -0.103241 398.4561
v 257.6845 -0.103241 399.7736
v 256.367 -0.103241 399.7736
v 256.367 -0.103241 397.7972
v 255.0494 -0.103241 397.7972
v 256.367 -0.103241 399.1148
v 255.0494 -0.103241 399.1148
v 262.296 -0.103241 397.7972
v 260.9784 -0.103241 397.7972
v 262.296 -0.103241 399.1148
v 260.9784 -0.103241 399.1148
v 267.5662 -0.103241 397.1385
v 266.2486 -0.103241 397.1385
v 267.5662 -0.103241 398.4561
v 266.2486 -0.103241 398.4561
v 268.8837 -0.103241 397.1385
v 268.2249 -0.103241 397.1385
v 268.8837 -0.103241 397.7972
v 268.2249 -0.103241 397.7972
v 266.9074 -0.103241 396.4797
v 265.5898 -0.103241 396.4797
v 266.9074 -0.103241 397.7972
v 265.5898 -0.103241 397.7972
v 268.2249 -0.103241 396.4797
v 266.9074 -0.103241 396.4797
v 268.2249 -0.103241 397.7972
v 266.9074 -0.103241 397.7972
v 268.2249 -0.103241 395.8209
v 267.5662 -0.103241 395.8209
v 268.2249 -0.103241 397.1385
v 267.5662 -0.103241 397.1385
v 265.5898 -0.103241 395.8209
v 264.2723 -0.103241 395.8209
v 265.5898 -0.103241 397.1385
v 264.2723 -0.103241 397.1385
v 266.9074 -0.103241 395.1622
v 265.5898 -0.103241 395.1622
v 266.9074 -0.103241 396.4797
v 265.5898 -0.103241 396.4797
v 269.5425 -0.103241 394.5034
v 268.8837 -0.103241 394.5034
v 269.5425 -0.103241 395.8209
v 268.8837 -0.103241 395.8209
v 268.8837 -0.103241 394.5034
v 267.5662 -0.103241 394.5034
v 268.8837 -0.103241 395.8209
v 267.5662 -0.103241 395.8209
v 261.6372 -0.103241 394.5034
v 260.9784 -0.103241 394.5034
v 261.6372 -0.103241 395.8209
v 260.9784 -0.103241 395.8209
v 265.5898 -0.103241 394.5034
v 264.9311 -0.103241 394.5034
v 265.5898 -0.103241 395.1622
v 264.9311 -0.103241 395.1622
v 267.5662 -0.103241 393.8446
v 266.9074 -0.103241 393.8446
v 267.5662 -0.103241 395.1622
v 266.9074 -0.103241 395.1622
v 266.2486 -0.103241 393.8446
v 265.5898 -0.103241 393.8446
v 266.2486 -0.103241 394.5034
v 265.5898 -0.103241 394.5034
vt 0.1347656 0.9185662
vt 0.2060202 0.9185662
vt 0.1347656 1
vt 0.2060202 1
vt 0.1347656 0.9185662
vt 0.2060202 0.9185662
vt 0.1347656 1
vt 0.2060202 1
vt 0.1347656 0.9185662
vt 0.2060202 0.9185662
vt 0.1347656 1
vt 0.2060202 1
vt 0.1347656 0.9185662
vt 0.2060202 0.9185662
vt 0.1347656 1
vt 0.2060202 1
vt 0.1347656 0.9185662
vt 0.2060202 0.9185662
vt 0.1347656 1
vt 0.2060202 1
vt 0.1347656 0.9185662
vt 0.2060202 0.9185662
vt 0.1347656 1
vt 0.2060202 1
vt 0.1347656 0.9185662
vt 0.2060202 0.9185662
vt 0.1347656 1
vt 0.2060202 1
vt 0.1347656 0.9185662
vt 0.2060202 0.9185662
vt 0.1347656 1
vt 0.2060202 1
vt 0.1347656 0.9185662
vt 0.2060202 0.9185662
vt 0.1347656 1
vt 0.2060202 1
vt 0.1347656 0.9185662
vt 0.2060202 0.9185662
vt 0.1347656 1
vt 0.2060202 1
vt 0.1347656 0.9185662
vt 0.2060202 0.9185662
vt 0.1347656 1
vt 0.2060202 1
vt 0.1347656 0.9185662
vt 0.2060202 0.9185662
vt 0.1347656 1
vt 0.2060202 1
vt 0.1347656 0.9185662
vt 0.2060202 0.9185662
vt 0.1347656 1
vt 0.2060202 1
vt 0.1347656 0.9185662
vt 0.2060202 0.9185662
vt 0.1347656 1
vt 0.2060202 1
vt 0.1347656 0.9185662
vt 0.2060202 0.9185662
vt 0.1347656 1
vt 0.2060202 1
vt 0.1347656 0.9185662
vt 0.2060202 0.9185662
vt 0.1347656 1
vt 0.2060202 1
vt 0.1347656 0.9185662
vt 0.2060202 0.9185662
vt 0.1347656 1
vt 0.2060202 1
vt 0.1347656 0.9185662
vt 0.2060202 0.9185662
vt 0.1347656 1
vt 0.2060202 1
vn 0 1 0
vn 0 1 0
vn 0 1 0
vn 0 1 0
vn 0 1 0
vn 0 1 0
vn 0 1 0
vn 0 1 0
vn 0 1 0
vn 0 1 0
vn 0 1 0
vn 0 1 0
vn 0 1 0
vn 0 1 0
vn 0 1 0
vn 0 1 0
vn 0 1 0
vn 0 1 0
vn 0 1 0
vn 0 1 0
vn 0 1 0
vn 0 1 0
vn 0 1 0
vn 0 1 0
vn 0 1 0
vn 0 1 0
vn 0 1 0
vn 0 1 0
vn 0 1 0
vn 0 1 0
vn 0 1 0
vn 0 1 0
vn 0 1 0
vn 0 1 0
vn 0 1 0
vn 0 1 0
vn 0 1 0
vn 0 1 0
vn 0 1 0
vn 0 1 0
vn 0 1 0
vn 0 1 0
vn 0 1 0
vn 0 1 0
vn 0 1 0
vn 0 1 0
vn 0 1 0
vn 0 1 0
vn 0 1 0
vn 0 1 0
vn 0 1 0
vn 0 1 0
vn 0 1 0
vn 0 1 0
vn 0 1 0
vn 0 1 0
vn 0 1 0
vn 0 1 0
vn 0 1 0
vn 0 1 0
vn 0 1 0
vn 0 1 0
vn 0 1 0
vn 0 1 0
vn 0 1 0
vn 0 1 0
vn 0 1 0
vn 0 1 0
vn 0 1 0
vn 0 1 0
vn 0 1 0
vn 0 1 0
g Grass_2_Cluster281_0
f 2/2/2 3/3/3 1/1/1
f 2/2/2 4/4/4 3/3/3
f 6/6/6 7/7/7 5/5/5
f 6/6/6 8/8/8 7/7/7
f 10/10/10 11/11/11 9/9/9
f 10/10/10 12/12/12 11/11/11
f 14/14/14 15/15/15 13/13/13
f 14/14/14 16/16/16 15/15/15
f 18/18/18 19/19/19 17/17/17
f 18/18/18 20/20/20 19/19/19
f 22/22/22 23/23/23 21/21/21
f 22/22/22 24/24/24 23/23/23
f 26/26/26 27/27/27 25/25/25
f 26/26/26 28/28/28 27/27/27
f 30/30/30 31/31/31 29/29/29
f 30/30/30 32/32/32 31/31/31
f 34/34/34 35/35/35 33/33/33
f 34/34/34 36/36/36 35/35/35
f 38/38/38 39/39/39 37/37/37
f 38/38/38 40/40/40 39/39/39
f 42/42/42 43/43/43 41/41/41
f 42/42/42 44/44/44 43/43/43
f 46/46/46 47/47/47 45/45/45
f 46/46/46 48/48/48 47/47/47
f 50/50/50 51/51/51 49/49/49
f 50/50/50 52/52/52 51/51/51
f 54/54/54 55/55/55 53/53/53
f 54/54/54 56/56/56 55/55/55
f 58/58/58 59/59/59 57/57/57
f 58/58/58 60/60/60 59/59/59
f 62/62/62 63/63/63 61/61/61
f 62/62/62 64/64/64 63/63/63
f 66/66/66 67/67/67 65/65/65
f 66/66/66 68/68/68 67/67/67
f 70/70/70 71/71/71 69/69/69
f 70/70/70 72/72/72 71/71/71
