g Grass_0_Cluster336
v -187.6884 0 452.582
v -188.5758 0 452.582
v -187.6884 0 453.9131
v -188.5758 0 453.9131
v -206.3241 0 449.9197
v -207.2116 0 449.9197
v -206.3241 0 451.2509
v -207.2116 0 451.2509
v -202.3308 0 448.1449
v -203.2182 0 448.1449
v -202.3308 0 449.476
v -203.2182 0 449.476
v -200.1122 0 445.4827
v -200.9996 0 445.4827
v -200.1122 0 446.3701
v -200.9996 0 446.3701
v -198.7811 0 445.0389
v -199.6685 0 445.0389
v -198.7811 0 446.3701
v -199.6685 0 446.3701
v -207.2116 0 445.0389
v -208.099 0 445.0389
v -207.2116 0 445.9264
v -208.099 0 445.9264
v -192.5692 0 444.5952
v -193.4566 0 444.5952
v -192.5692 0 445.9264
v -193.4566 0 445.9264
v -191.2381 0 444.5952
v -192.5692 0 444.5952
v -191.2381 0 445.9264
v -192.5692 0 445.9264
v -199.2248 0 444.5952
v -200.5559 0 444.5952
v -199.2248 0 445.9264
v -200.5559 0 445.9264
v -201.8871 0 444.1516
v -202.7745 0 444.1516
v -201.8871 0 445.4827
v -202.7745 0 445.4827
v -199.2248 0 443.7078
v -200.1122 0 443.7078
v -199.2248 0 445.0389
v -200.1122 0 445.0389
v -198.3374 0 443.2641
v -199.2248 0 443.2641
v -198.3374 0 444.5952
v -199.2248 0 444.5952
vt 0 0.9058824
vt 0.06666667 0.9058824
vt 0 1
vt 0.06666667 1
vt 0 0.9058824
vt 0.06666667 0.9058824
vt 0 1
vt 0.06666667 1
vt 0 0.9058824
vt 0.06666667 0.9058824
vt 0 1
vt 0.06666667 1
vt 0 0.9058824
vt 0.06666667 0.9058824
vt 0 1
vt 0.06666667 1
vt 0 0.9058824
vt 0.06666667 0.9058824
vt 0 1
vt 0.06666667 1
vt 0 0.9058824
vt 0.06666667 0.9058824
vt 0 1
vt 0.06666667 1
vt 0 0.9058824
vt 0.06666667 0.9058824
vt 0 1
vt 0.06666667 1
vt 0 0.9058824
vt 0.06666667 0.9058824
vt 0 1
vt 0.06666667 1
vt 0 0.9058824
vt 0.06666667 0.9058824
vt 0 1
vt 0.06666667 1
vt 0 0.9058824
vt 0.06666667 0.9058824
vt 0 1
vt 0.06666667 1
vt 0 0.9058824
vt 0.06666667 0.9058824
vt 0 1
vt 0.06666667 1
vt 0 0.9058824
vt 0.06666667 0.9058824
vt 0 1
vt 0.06666667 1
vn 0 1 0
vn 0 1 0
vn 0 1 0
vn 0 1 0
vn 0 1 0
vn 0 1 0
vn 0 1 0
vn 0 1 0
vn 0 1 0
vn 0 1 0
vn 0 1 0
vn 0 1 0
vn 0 1 0
vn 0 1 0
vn 0 1 0
vn 0 1 0
vn 0 1 0
vn 0 1 0
vn 0 1 0
vn 0 1 0
vn 0 1 0
vn 0 1 0
vn 0 1 0
vn 0 1 0
vn 0 1 0
vn 0 1 0
vn 0 1 0
vn 0 1 0
vn 0 1 0
vn 0 1 0
vn 0 1 0
vn 0 1 0
vn 0 1 0
vn 0 1 0
vn 0 1 0
vn 0 1 0
vn 0 1 0
vn 0 1 0
vn 0 1 0
vn 0 1 0
vn 0 1 0
vn 0 1 0
vn 0 1 0
vn 0 1 0
vn 0 1 0
vn 0 1 0
vn 0 1 0
vn 0 1 0
g Grass_0_Cluster336_0
f 2/2/2 3/3/3 1/1/1
f 2/2/2 4/4/4 3/3/3
f 6/6/6 7/7/7 5/5/5
f 6/6/6 8/8/8 7/7/7
f 10/10/10 11/11/11 9/9/9
f 10/10/10 12/12/12 11/11/11
f 14/14/14 15/15/15 13/13/13
f 14/14/14 16/16/16 15/15/15
f 18/18/18 19/19/19 17/17/17
f 18/18/18 20/20/20 19/19/19
f 22/22/22 23/23/23 21/21/21
f 22/22/22 24/24/24 23/23/23
f 26/26/26 27/27/27 25/25/25
f 26/26/26 28/28/28 27/27/27
f 30/30/30 31/31/31 29/29/29
f 30/30/30 32/32/32 31/31/31
f 34/34/34 35/35/35 33/33/33
f 34/34/34 36/36/36 35/35/35
f 38/38/38 39/39/39 37/37/37
f 38/38/38 40/40/40 39/39/39
f 42/42/42 43/43/43 41/41/41
f 42/42/42 44/44/44 43/43/43
f 46/46/46 47/47/47 45/45/45
f 46/46/46 48/48/48 47/47/47
