g Grass_2_Cluster333
v -110.7042 0 472.9248
v -111.6306 0 472.9248
v -110.7042 0 473.8512
v -111.6306 0 473.8512
v -103.2931 0 472.4616
v -104.2195 0 472.4616
v -103.2931 0 473.388
v -104.2195 0 473.388
v -113.4834 0 472.4616
v -114.873 0 472.4616
v -113.4834 0 473.388
v -114.873 0 473.388
v -112.557 0 471.9984
v -113.4834 0 471.9984
v -112.557 0 473.388
v -113.4834 0 473.388
v -90.78674 0 465.9769
v -92.17634 0 465.9769
v -90.78674 0 466.9033
v -92.17634 0 466.9033
v -89.86035 0 465.5137
v -90.78674 0 465.5137
v -89.86035 0 466.4401
v -90.78674 0 466.4401
v -91.71314 0 464.5872
v -92.17634 0 464.5872
v -91.71314 0 465.5137
v -92.17634 0 465.5137
v -92.63953 0 463.6609
v -93.56593 0 463.6609
v -92.63953 0 464.5872
v -93.56593 0 464.5872
v -118.1154 0 457.6393
v -118.5786 0 457.6393
v -118.1154 0 458.5657
v -118.5786 0 458.5657
v -118.1154 0 457.1761
v -119.505 0 457.1761
v -118.1154 0 458.5657
v -119.505 0 458.5657
v -98.19791 0 456.7129
v -99.1243 0 456.7129
v -98.19791 0 457.6393
v -99.1243 0 457.6393
v -100.0507 0 456.2497
v -100.9771 0 456.2497
v -100.0507 0 457.1761
v -100.9771 0 457.1761
v -97.27151 0 455.7865
v -98.19791 0 455.7865
v -97.27151 0 456.7129
v -98.19791 0 456.7129
v -96.34512 0 455.3233
v -97.27151 0 455.3233
v -96.34512 0 456.2497
v -97.27151 0 456.2497
v -98.19791 0 455.3233
v -99.1243 0 455.3233
v -98.19791 0 456.2497
v -99.1243 0 456.2497
v -97.73471 0 454.3969
v -98.6611 0 454.3969
v -97.73471 0 455.7865
v -98.6611 0 455.7865
v -99.1243 0 454.3969
v -100.0507 0 454.3969
v -99.1243 0 455.3233
v -100.0507 0 455.3233
v -96.34512 0 453.4705
v -97.27151 0 453.4705
v -96.34512 0 454.3969
v -97.27151 0 454.3969
v -96.34512 0 453.0073
v -97.27151 0 453.0073
v -96.34512 0 453.9337
v -97.27151 0 453.9337
v -94.95552 0 452.0809
v -95.88192 0 452.0809
v -94.95552 0 453.0073
v -95.88192 0 453.0073
v -95.41872 0 452.0809
v -96.34512 0 452.0809
v -95.41872 0 453.0073
v -96.34512 0 453.0073
v -96.80831 0 451.6177
v -97.73471 0 451.6177
v -96.80831 0 452.5441
v -97.73471 0 452.5441
v -93.56593 0 450.6913
v -94.49232 0 450.6913
v -93.56593 0 452.0809
v -94.49232 0 452.0809
v -94.95552 0 450.2281
v -95.88192 0 450.2281
v -94.95552 0 451.1545
v -95.88192 0 451.1545
v -93.56593 0 449.7649
v -94.49232 0 449.7649
v -93.56593 0 450.6913
v -94.49232 0 450.6913
v -93.10273 0 449.3017
v -94.02913 0 449.3017
v -93.10273 0 450.6913
v -94.02913 0 450.6913
v -94.02913 0 448.8385
v -94.95552 0 448.8385
v -94.02913 0 450.2281
v -94.95552 0 450.2281
v -92.17634 0 447.4489
v -93.10273 0 447.4489
v -92.17634 0 448.8385
v -93.10273 0 448.8385
v -93.56593 0 446.9857
v -94.49232 0 446.9857
v -93.56593 0 448.3753
v -94.49232 0 448.3753
v -93.56593 0 445.5962
v -94.49232 0 445.5962
v -93.56593 0 446.5226
v -94.49232 0 446.5226
vt 0.1347656 0.9185662
vt 0.2060202 0.9185662
vt 0.1347656 1
vt 0.2060202 1
vt 0.1347656 0.9185662
vt 0.2060202 0.9185662
vt 0.1347656 1
vt 0.2060202 1
vt 0.1347656 0.9185662
vt 0.2060202 0.9185662
vt 0.1347656 1
vt 0.2060202 1
vt 0.1347656 0.9185662
vt 0.2060202 0.9185662
vt 0.1347656 1
vt 0.2060202 1
vt 0.1347656 0.9185662
vt 0.2060202 0.9185662
vt 0.1347656 1
vt 0.2060202 1
vt 0.1347656 0.9185662
vt 0.2060202 0.9185662
vt 0.1347656 1
vt 0.2060202 1
vt 0.1347656 0.9185662
vt 0.2060202 0.9185662
vt 0.1347656 1
vt 0.2060202 1
vt 0.1347656 0.9185662
vt 0.2060202 0.9185662
vt 0.1347656 1
vt 0.2060202 1
vt 0.1347656 0.9185662
vt 0.2060202 0.9185662
vt 0.1347656 1
vt 0.2060202 1
vt 0.1347656 0.9185662
vt 0.2060202 0.9185662
vt 0.1347656 1
vt 0.2060202 1
vt 0.1347656 0.9185662
vt 0.2060202 0.9185662
vt 0.1347656 1
vt 0.2060202 1
vt 0.1347656 0.9185662
vt 0.2060202 0.9185662
vt 0.1347656 1
vt 0.2060202 1
vt 0.1347656 0.9185662
vt 0.2060202 0.9185662
vt 0.1347656 1
vt 0.2060202 1
vt 0.1347656 0.9185662
vt 0.2060202 0.9185662
vt 0.1347656 1
vt 0.2060202 1
vt 0.1347656 0.9185662
vt 0.2060202 0.9185662
vt 0.1347656 1
vt 0.2060202 1
vt 0.1347656 0.9185662
vt 0.2060202 0.9185662
vt 0.1347656 1
vt 0.2060202 1
vt 0.1347656 0.9185662
vt 0.2060202 0.9185662
vt 0.1347656 1
vt 0.2060202 1
vt 0.1347656 0.9185662
vt 0.2060202 0.9185662
vt 0.1347656 1
vt 0.2060202 1
vt 0.1347656 0.9185662
vt 0.2060202 0.9185662
vt 0.1347656 1
vt 0.2060202 1
vt 0.1347656 0.9185662
vt 0.2060202 0.9185662
vt 0.1347656 1
vt 0.2060202 1
vt 0.1347656 0.9185662
vt 0.2060202 0.9185662
vt 0.1347656 1
vt 0.2060202 1
vt 0.1347656 0.9185662
vt 0.2060202 0.9185662
vt 0.1347656 1
vt 0.2060202 1
vt 0.1347656 0.9185662
vt 0.2060202 0.9185662
vt 0.1347656 1
vt 0.2060202 1
vt 0.1347656 0.9185662
vt 0.2060202 0.9185662
vt 0.1347656 1
vt 0.2060202 1
vt 0.1347656 0.9185662
vt 0.2060202 0.9185662
vt 0.1347656 1
vt 0.2060202 1
vt 0.1347656 0.9185662
vt 0.2060202 0.9185662
vt 0.1347656 1
vt 0.2060202 1
vt 0.1347656 0.9185662
vt 0.2060202 0.9185662
vt 0.1347656 1
vt 0.2060202 1
vt 0.1347656 0.9185662
vt 0.2060202 0.9185662
vt 0.1347656 1
vt 0.2060202 1
vt 0.1347656 0.9185662
vt 0.2060202 0.9185662
vt 0.1347656 1
vt 0.2060202 1
vt 0.1347656 0.9185662
vt 0.2060202 0.9185662
vt 0.1347656 1
vt 0.2060202 1
vn 0 1 0
vn 0 1 0
vn 0 1 0
vn 0 1 0
vn 0 1 0
vn 0 1 0
vn 0 1 0
vn 0 1 0
vn 0 1 0
vn 0 1 0
vn 0 1 0
vn 0 1 0
vn 0 1 0
vn 0 1 0
vn 0 1 0
vn 0 1 0
vn 0 1 0
vn 0 1 0
vn 0 1 0
vn 0 1 0
vn 0 1 0
vn 0 1 0
vn 0 1 0
vn 0 1 0
vn 0 1 0
vn 0 1 0
vn 0 1 0
vn 0 1 0
vn 0 1 0
vn 0 1 0
vn 0 1 0
vn 0 1 0
vn 0 1 0
vn 0 1 0
vn 0 1 0
vn 0 1 0
vn 0 1 0
vn 0 1 0
vn 0 1 0
vn 0 1 0
vn 0 1 0
vn 0 1 0
vn 0 1 0
vn 0 1 0
vn 0 1 0
vn 0 1 0
vn 0 1 0
vn 0 1 0
vn 0 1 0
vn 0 1 0
vn 0 1 0
vn 0 1 0
vn 0 1 0
vn 0 1 0
vn 0 1 0
vn 0 1 0
vn 0 1 0
vn 0 1 0
vn 0 1 0
vn 0 1 0
vn 0 1 0
vn 0 1 0
vn 0 1 0
vn 0 1 0
vn 0 1 0
vn 0 1 0
vn 0 1 0
vn 0 1 0
vn 0 1 0
vn 0 1 0
vn 0 1 0
vn 0 1 0
vn 0 1 0
vn 0 1 0
vn 0 1 0
vn 0 1 0
vn 0 1 0
vn 0 1 0
vn 0 1 0
vn 0 1 0
vn 0 1 0
vn 0 1 0
vn 0 1 0
vn 0 1 0
vn 0 1 0
vn 0 1 0
vn 0 1 0
vn 0 1 0
vn 0 1 0
vn 0 1 0
vn 0 1 0
vn 0 1 0
vn 0 1 0
vn 0 1 0
vn 0 1 0
vn 0 1 0
vn 0 1 0
vn 0 1 0
vn 0 1 0
vn 0 1 0
vn 0 1 0
vn 0 1 0
vn 0 1 0
vn 0 1 0
vn 0 1 0
vn 0 1 0
vn 0 1 0
vn 0 1 0
vn 0 1 0
vn 0 1 0
vn 0 1 0
vn 0 1 0
vn 0 1 0
vn 0 1 0
vn 0 1 0
vn 0 1 0
vn 0 1 0
vn 0 1 0
vn 0 1 0
vn 0 1 0
g Grass_2_Cluster333_0
f 2/2/2 3/3/3 1/1/1
f 2/2/2 4/4/4 3/3/3
f 6/6/6 7/7/7 5/5/5
f 6/6/6 8/8/8 7/7/7
f 10/10/10 11/11/11 9/9/9
f 10/10/10 12/12/12 11/11/11
f 14/14/14 15/15/15 13/13/13
f 14/14/14 16/16/16 15/15/15
f 18/18/18 19/19/19 17/17/17
f 18/18/18 20/20/20 19/19/19
f 22/22/22 23/23/23 21/21/21
f 22/22/22 24/24/24 23/23/23
f 26/26/26 27/27/27 25/25/25
f 26/26/26 28/28/28 27/27/27
f 30/30/30 31/31/31 29/29/29
f 30/30/30 32/32/32 31/31/31
f 34/34/34 35/35/35 33/33/33
f 34/34/34 36/36/36 35/35/35
f 38/38/38 39/39/39 37/37/37
f 38/38/38 40/40/40 39/39/39
f 42/42/42 43/43/43 41/41/41
f 42/42/42 44/44/44 43/43/43
f 46/46/46 47/47/47 45/45/45
f 46/46/46 48/48/48 47/47/47
f 50/50/50 51/51/51 49/49/49
f 50/50/50 52/52/52 51/51/51
f 54/54/54 55/55/55 53/53/53
f 54/54/54 56/56/56 55/55/55
f 58/58/58 59/59/59 57/57/57
f 58/58/58 60/60/60 59/59/59
f 62/62/62 63/63/63 61/61/61
f 62/62/62 64/64/64 63/63/63
f 66/66/66 67/67/67 65/65/65
f 66/66/66 68/68/68 67/67/67
f 70/70/70 71/71/71 69/69/69
f 70/70/70 72/72/72 71/71/71
f 74/74/74 75/75/75 73/73/73
f 74/74/74 76/76/76 75/75/75
f 78/78/78 79/79/79 77/77/77
f 78/78/78 80/80/80 79/79/79
f 82/82/82 83/83/83 81/81/81
f 82/82/82 84/84/84 83/83/83
f 86/86/86 87/87/87 85/85/85
f 86/86/86 88/88/88 87/87/87
f 90/90/90 91/91/91 89/89/89
f 90/90/90 92/92/92 91/91/91
f 94/94/94 95/95/95 93/93/93
f 94/94/94 96/96/96 95/95/95
f 98/98/98 99/99/99 97/97/97
f 98/98/98 100/100/100 99/99/99
f 102/102/102 103/103/103 101/101/101
f 102/102/102 104/104/104 103/103/103
f 106/106/106 107/107/107 105/105/105
f 106/106/106 108/108/108 107/107/107
f 110/110/110 111/111/111 109/109/109
f 110/110/110 112/112/112 111/111/111
f 114/114/114 115/115/115 113/113/113
f 114/114/114 116/116/116 115/115/115
f 118/118/118 119/119/119 117/117/117
f 118/118/118 120/120/120 119/119/119
