g Grass_2_Cluster169
v 6.482203 -0.09238815 226.746
v 5.499155 -0.09238815 226.746
v 6.482203 -0.09238815 227.7291
v 5.499155 -0.09238815 227.7291
v 5.253393 -0.09238815 226.5003
v 4.270344 -0.09238815 226.5003
v 5.253393 -0.09238815 227.4833
v 4.270344 -0.09238815 227.4833
v 5.744917 -0.09238815 225.5172
v 4.761868 -0.09238815 225.5172
v 5.744917 -0.09238815 226.5003
v 4.761868 -0.09238815 226.5003
v 7.465252 -0.09238815 224.78
v 6.482203 -0.09238815 224.78
v 7.465252 -0.09238815 226.0088
v 6.482203 -0.09238815 226.0088
v 5.744917 -0.09238815 224.78
v 4.761868 -0.09238815 224.78
v 5.744917 -0.09238815 225.763
v 4.761868 -0.09238815 225.763
v 7.21949 -0.09238815 224.5342
v 6.236441 -0.09238815 224.5342
v 7.21949 -0.09238815 225.763
v 6.236441 -0.09238815 225.763
v 8.448299 -0.09238815 224.2884
v 7.465252 -0.09238815 224.2884
v 8.448299 -0.09238815 225.2715
v 7.465252 -0.09238815 225.2715
v 5.007629 -0.09238815 223.7969
v 4.024582 -0.09238815 223.7969
v 5.007629 -0.09238815 224.78
v 4.024582 -0.09238815 224.78
v 5.990679 -0.09238815 223.5511
v 5.007629 -0.09238815 223.5511
v 5.990679 -0.09238815 224.78
v 5.007629 -0.09238815 224.78
v 7.21949 -0.09238815 223.0596
v 6.236441 -0.09238815 223.0596
v 7.21949 -0.09238815 224.0427
v 6.236441 -0.09238815 224.0427
v 9.922873 -0.09238815 222.8139
v 8.939824 -0.09238815 222.8139
v 9.922873 -0.09238815 224.0427
v 8.939824 -0.09238815 224.0427
v 8.694062 -0.09238815 223.0596
v 7.711014 -0.09238815 223.0596
v 8.694062 -0.09238815 224.0427
v 7.711014 -0.09238815 224.0427
v 5.744917 -0.09238815 222.8139
v 4.761868 -0.09238815 222.8139
v 5.744917 -0.09238815 224.0427
v 4.761868 -0.09238815 224.0427
v 6.727964 -0.09238815 222.3223
v 5.744917 -0.09238815 222.3223
v 6.727964 -0.09238815 223.3054
v 5.744917 -0.09238815 223.3054
v 5.499155 -0.09238815 221.585
v 4.516106 -0.09238815 221.585
v 5.499155 -0.09238815 222.5681
v 4.516106 -0.09238815 222.5681
v 7.956776 -0.09238815 221.0935
v 6.973726 -0.09238815 221.0935
v 7.956776 -0.09238815 222.3223
v 6.973726 -0.09238815 222.3223
v 5.253393 -0.09238815 220.8477
v 4.270344 -0.09238815 220.8477
v 5.253393 -0.09238815 221.8308
v 4.270344 -0.09238815 221.8308
v 4.270344 -0.09238815 220.3562
v 3.287296 -0.09238815 220.3562
v 4.270344 -0.09238815 221.3393
v 3.287296 -0.09238815 221.3393
v 4.761868 -0.09238815 219.6189
v 3.77882 -0.09238815 219.6189
v 4.761868 -0.09238815 220.602
v 3.77882 -0.09238815 220.602
v 6.727964 -0.09238815 219.1274
v 5.990679 -0.09238815 219.1274
v 6.727964 -0.09238815 220.1105
v 5.990679 -0.09238815 220.1105
v 4.761868 -0.09238815 218.1444
v 3.77882 -0.09238815 218.1444
v 4.761868 -0.09238815 219.3732
v 3.77882 -0.09238815 219.3732
v 2.550009 -0.09238815 217.8986
v 1.566961 -0.09238815 217.8986
v 2.550009 -0.09238815 219.1274
v 1.566961 -0.09238815 219.1274
v 4.024582 -0.09238815 217.6528
v 3.041533 -0.09238815 217.6528
v 4.024582 -0.09238815 218.6359
v 3.041533 -0.09238815 218.6359
v 5.253393 -0.09238815 217.6528
v 4.516106 -0.09238815 217.6528
v 5.253393 -0.09238815 218.6359
v 4.516106 -0.09238815 218.6359
v 3.533058 -0.09238815 217.4071
v 2.795771 -0.09238815 217.4071
v 3.533058 -0.09238815 218.3901
v 2.795771 -0.09238815 218.3901
v 1.566961 -0.09238815 217.1613
v 0.5839119 -0.09238815 217.1613
v 1.566961 -0.09238815 218.3901
v 0.5839119 -0.09238815 218.3901
v 16.80421 -0.09238815 216.9156
v 16.06693 -0.09238815 216.9156
v 16.80421 -0.09238815 217.8986
v 16.06693 -0.09238815 217.8986
v 19.26183 -0.09238815 216.9156
v 18.27878 -0.09238815 216.9156
v 19.26183 -0.09238815 218.1444
v 18.27878 -0.09238815 218.1444
v 2.795771 -0.09238815 216.6698
v 1.812723 -0.09238815 216.6698
v 2.795771 -0.09238815 217.6528
v 1.812723 -0.09238815 217.6528
v 3.287296 -0.09238815 216.424
v 2.550009 -0.09238815 216.424
v 3.287296 -0.09238815 217.4071
v 2.550009 -0.09238815 217.4071
v 18.77031 -0.09238815 216.424
v 17.78726 -0.09238815 216.424
v 18.77031 -0.09238815 217.4071
v 17.78726 -0.09238815 217.4071
v 17.78726 -0.09238815 216.1783
v 17.04997 -0.09238815 216.1783
v 17.78726 -0.09238815 217.1613
v 17.04997 -0.09238815 217.1613
v 4.270344 -0.09238815 215.9325
v 3.287296 -0.09238815 215.9325
v 4.270344 -0.09238815 217.1613
v 3.287296 -0.09238815 217.1613
v 1.812723 -0.09238815 215.9325
v 0.8296738 -0.09238815 215.9325
v 1.812723 -0.09238815 216.9156
v 0.8296738 -0.09238815 216.9156
v 1.075436 -0.09238815 215.441
v 0.33815 -0.09238815 215.441
v 1.075436 -0.09238815 216.6698
v 0.33815 -0.09238815 216.6698
v 17.04997 -0.09238815 215.441
v 16.06693 -0.09238815 215.441
v 17.04997 -0.09238815 216.424
v 16.06693 -0.09238815 216.424
v 3.041533 -0.09238815 215.1952
v 2.304247 -0.09238815 215.1952
v 3.041533 -0.09238815 216.1783
v 2.304247 -0.09238815 216.1783
v 1.075436 -0.09238815 214.9495
v 0.09238815 -0.09238815 214.9495
v 1.075436 -0.09238815 215.9325
v 0.09238815 -0.09238815 215.9325
v 20.24488 -0.09238815 214.7037
v 19.01607 -0.09238815 214.7037
v 20.24488 -0.09238815 215.9325
v 19.01607 -0.09238815 215.9325
v 2.058485 -0.09238815 214.7037
v 1.075436 -0.09238815 214.7037
v 2.058485 -0.09238815 215.9325
v 1.075436 -0.09238815 215.9325
v 18.03302 -0.09238815 214.4579
v 17.29574 -0.09238815 214.4579
v 18.03302 -0.09238815 215.441
v 17.29574 -0.09238815 215.441
v 3.041533 -0.09238815 214.4579
v 2.058485 -0.09238815 214.4579
v 3.041533 -0.09238815 215.6868
v 2.058485 -0.09238815 215.6868
v 22.45674 -0.09238815 214.4579
v 21.47369 -0.09238815 214.4579
v 22.45674 -0.09238815 215.441
v 21.47369 -0.09238815 215.441
v 20.24488 -0.09238815 214.4579
v 19.26183 -0.09238815 214.4579
v 20.24488 -0.09238815 215.441
v 19.26183 -0.09238815 215.441
v 0.8296738 -0.09238815 214.2122
v 0.09238815 -0.09238815 214.2122
v 0.8296738 -0.09238815 215.1952
v 0.09238815 -0.09238815 215.1952
v 2.550009 -0.09238815 214.2122
v 1.566961 -0.09238815 214.2122
v 2.550009 -0.09238815 215.1952
v 1.566961 -0.09238815 215.1952
v 20.49064 -0.09238815 214.2122
v 19.5076 -0.09238815 214.2122
v 20.49064 -0.09238815 215.1952
v 19.5076 -0.09238815 215.1952
v 14.83811 -0.09238815 213.9664
v 13.85507 -0.09238815 213.9664
v 14.83811 -0.09238815 214.9495
v 13.85507 -0.09238815 214.9495
v 21.22793 -0.09238815 213.4749
v 20.49064 -0.09238815 213.4749
v 21.22793 -0.09238815 214.4579
v 20.49064 -0.09238815 214.4579
v 1.321199 -0.09238815 213.2291
v 0.33815 -0.09238815 213.2291
v 1.321199 -0.09238815 214.2122
v 0.33815 -0.09238815 214.2122
v 23.68555 -0.09238815 212.9834
v 22.7025 -0.09238815 212.9834
v 23.68555 -0.09238815 213.9664
v 22.7025 -0.09238815 213.9664
v 15.5754 -0.09238815 211.7546
v 14.59235 -0.09238815 211.7546
v 15.5754 -0.09238815 212.9834
v 14.59235 -0.09238815 212.9834
vt 0.1347656 0.9185662
vt 0.2060202 0.9185662
vt 0.1347656 1
vt 0.2060202 1
vt 0.1347656 0.9185662
vt 0.2060202 0.9185662
vt 0.1347656 1
vt 0.2060202 1
vt 0.1347656 0.9185662
vt 0.2060202 0.9185662
vt 0.1347656 1
vt 0.2060202 1
vt 0.1347656 0.9185662
vt 0.2060202 0.9185662
vt 0.1347656 1
vt 0.2060202 1
vt 0.1347656 0.9185662
vt 0.2060202 0.9185662
vt 0.1347656 1
vt 0.2060202 1
vt 0.1347656 0.9185662
vt 0.2060202 0.9185662
vt 0.1347656 1
vt 0.2060202 1
vt 0.1347656 0.9185662
vt 0.2060202 0.9185662
vt 0.1347656 1
vt 0.2060202 1
vt 0.1347656 0.9185662
vt 0.2060202 0.9185662
vt 0.1347656 1
vt 0.2060202 1
vt 0.1347656 0.9185662
vt 0.2060202 0.9185662
vt 0.1347656 1
vt 0.2060202 1
vt 0.1347656 0.9185662
vt 0.2060202 0.9185662
vt 0.1347656 1
vt 0.2060202 1
vt 0.1347656 0.9185662
vt 0.2060202 0.9185662
vt 0.1347656 1
vt 0.2060202 1
vt 0.1347656 0.9185662
vt 0.2060202 0.9185662
vt 0.1347656 1
vt 0.2060202 1
vt 0.1347656 0.9185662
vt 0.2060202 0.9185662
vt 0.1347656 1
vt 0.2060202 1
vt 0.1347656 0.9185662
vt 0.2060202 0.9185662
vt 0.1347656 1
vt 0.2060202 1
vt 0.1347656 0.9185662
vt 0.2060202 0.9185662
vt 0.1347656 1
vt 0.2060202 1
vt 0.1347656 0.9185662
vt 0.2060202 0.9185662
vt 0.1347656 1
vt 0.2060202 1
vt 0.1347656 0.9185662
vt 0.2060202 0.9185662
vt 0.1347656 1
vt 0.2060202 1
vt 0.1347656 0.9185662
vt 0.2060202 0.9185662
vt 0.1347656 1
vt 0.2060202 1
vt 0.1347656 0.9185662
vt 0.2060202 0.9185662
vt 0.1347656 1
vt 0.2060202 1
vt 0.1347656 0.9185662
vt 0.2060202 0.9185662
vt 0.1347656 1
vt 0.2060202 1
vt 0.1347656 0.9185662
vt 0.2060202 0.9185662
vt 0.1347656 1
vt 0.2060202 1
vt 0.1347656 0.9185662
vt 0.2060202 0.9185662
vt 0.1347656 1
vt 0.2060202 1
vt 0.1347656 0.9185662
vt 0.2060202 0.9185662
vt 0.1347656 1
vt 0.2060202 1
vt 0.1347656 0.9185662
vt 0.2060202 0.9185662
vt 0.1347656 1
vt 0.2060202 1
vt 0.1347656 0.9185662
vt 0.2060202 0.9185662
vt 0.1347656 1
vt 0.2060202 1
vt 0.1347656 0.9185662
vt 0.2060202 0.9185662
vt 0.1347656 1
vt 0.2060202 1
vt 0.1347656 0.9185662
vt 0.2060202 0.9185662
vt 0.1347656 1
vt 0.2060202 1
vt 0.1347656 0.9185662
vt 0.2060202 0.9185662
vt 0.1347656 1
vt 0.2060202 1
vt 0.1347656 0.9185662
vt 0.2060202 0.9185662
vt 0.1347656 1
vt 0.2060202 1
vt 0.1347656 0.9185662
vt 0.2060202 0.9185662
vt 0.1347656 1
vt 0.2060202 1
vt 0.1347656 0.9185662
vt 0.2060202 0.9185662
vt 0.1347656 1
vt 0.2060202 1
vt 0.1347656 0.9185662
vt 0.2060202 0.9185662
vt 0.1347656 1
vt 0.2060202 1
vt 0.1347656 0.9185662
vt 0.2060202 0.9185662
vt 0.1347656 1
vt 0.2060202 1
vt 0.1347656 0.9185662
vt 0.2060202 0.9185662
vt 0.1347656 1
vt 0.2060202 1
vt 0.1347656 0.9185662
vt 0.2060202 0.9185662
vt 0.1347656 1
vt 0.2060202 1
vt 0.1347656 0.9185662
vt 0.2060202 0.9185662
vt 0.1347656 1
vt 0.2060202 1
vt 0.1347656 0.9185662
vt 0.2060202 0.9185662
vt 0.1347656 1
vt 0.2060202 1
vt 0.1347656 0.9185662
vt 0.2060202 0.9185662
vt 0.1347656 1
vt 0.2060202 1
vt 0.1347656 0.9185662
vt 0.2060202 0.9185662
vt 0.1347656 1
vt 0.2060202 1
vt 0.1347656 0.9185662
vt 0.2060202 0.9185662
vt 0.1347656 1
vt 0.2060202 1
vt 0.1347656 0.9185662
vt 0.2060202 0.9185662
vt 0.1347656 1
vt 0.2060202 1
vt 0.1347656 0.9185662
vt 0.2060202 0.9185662
vt 0.1347656 1
vt 0.2060202 1
vt 0.1347656 0.9185662
vt 0.2060202 0.9185662
vt 0.1347656 1
vt 0.2060202 1
vt 0.1347656 0.9185662
vt 0.2060202 0.9185662
vt 0.1347656 1
vt 0.2060202 1
vt 0.1347656 0.9185662
vt 0.2060202 0.9185662
vt 0.1347656 1
vt 0.2060202 1
vt 0.1347656 0.9185662
vt 0.2060202 0.9185662
vt 0.1347656 1
vt 0.2060202 1
vt 0.1347656 0.9185662
vt 0.2060202 0.9185662
vt 0.1347656 1
vt 0.2060202 1
vt 0.1347656 0.9185662
vt 0.2060202 0.9185662
vt 0.1347656 1
vt 0.2060202 1
vt 0.1347656 0.9185662
vt 0.2060202 0.9185662
vt 0.1347656 1
vt 0.2060202 1
vt 0.1347656 0.9185662
vt 0.2060202 0.9185662
vt 0.1347656 1
vt 0.2060202 1
vt 0.1347656 0.9185662
vt 0.2060202 0.9185662
vt 0.1347656 1
vt 0.2060202 1
vt 0.1347656 0.9185662
vt 0.2060202 0.9185662
vt 0.1347656 1
vt 0.2060202 1
vn 0 1 0
vn 0 1 0
vn 0 1 0
vn 0 1 0
vn 0 1 0
vn 0 1 0
vn 0 1 0
vn 0 1 0
vn 0 1 0
vn 0 1 0
vn 0 1 0
vn 0 1 0
vn 0 1 0
vn 0 1 0
vn 0 1 0
vn 0 1 0
vn 0 1 0
vn 0 1 0
vn 0 1 0
vn 0 1 0
vn 0 1 0
vn 0 1 0
vn 0 1 0
vn 0 1 0
vn 0 1 0
vn 0 1 0
vn 0 1 0
vn 0 1 0
vn 0 1 0
vn 0 1 0
vn 0 1 0
vn 0 1 0
vn 0 1 0
vn 0 1 0
vn 0 1 0
vn 0 1 0
vn 0 1 0
vn 0 1 0
vn 0 1 0
vn 0 1 0
vn 0 1 0
vn 0 1 0
vn 0 1 0
vn 0 1 0
vn 0 1 0
vn 0 1 0
vn 0 1 0
vn 0 1 0
vn 0 1 0
vn 0 1 0
vn 0 1 0
vn 0 1 0
vn 0 1 0
vn 0 1 0
vn 0 1 0
vn 0 1 0
vn 0 1 0
vn 0 1 0
vn 0 1 0
vn 0 1 0
vn 0 1 0
vn 0 1 0
vn 0 1 0
vn 0 1 0
vn 0 1 0
vn 0 1 0
vn 0 1 0
vn 0 1 0
vn 0 1 0
vn 0 1 0
vn 0 1 0
vn 0 1 0
vn 0 1 0
vn 0 1 0
vn 0 1 0
vn 0 1 0
vn 0 1 0
vn 0 1 0
vn 0 1 0
vn 0 1 0
vn 0 1 0
vn 0 1 0
vn 0 1 0
vn 0 1 0
vn 0 1 0
vn 0 1 0
vn 0 1 0
vn 0 1 0
vn 0 1 0
vn 0 1 0
vn 0 1 0
vn 0 1 0
vn 0 1 0
vn 0 1 0
vn 0 1 0
vn 0 1 0
vn 0 1 0
vn 0 1 0
vn 0 1 0
vn 0 1 0
vn 0 1 0
vn 0 1 0
vn 0 1 0
vn 0 1 0
vn 0 1 0
vn 0 1 0
vn 0 1 0
vn 0 1 0
vn 0 1 0
vn 0 1 0
vn 0 1 0
vn 0 1 0
vn 0 1 0
vn 0 1 0
vn 0 1 0
vn 0 1 0
vn 0 1 0
vn 0 1 0
vn 0 1 0
vn 0 1 0
vn 0 1 0
vn 0 1 0
vn 0 1 0
vn 0 1 0
vn 0 1 0
vn 0 1 0
vn 0 1 0
vn 0 1 0
vn 0 1 0
vn 0 1 0
vn 0 1 0
vn 0 1 0
vn 0 1 0
vn 0 1 0
vn 0 1 0
vn 0 1 0
vn 0 1 0
vn 0 1 0
vn 0 1 0
vn 0 1 0
vn 0 1 0
vn 0 1 0
vn 0 1 0
vn 0 1 0
vn 0 1 0
vn 0 1 0
vn 0 1 0
vn 0 1 0
vn 0 1 0
vn 0 1 0
vn 0 1 0
vn 0 1 0
vn 0 1 0
vn 0 1 0
vn 0 1 0
vn 0 1 0
vn 0 1 0
vn 0 1 0
vn 0 1 0
vn 0 1 0
vn 0 1 0
vn 0 1 0
vn 0 1 0
vn 0 1 0
vn 0 1 0
vn 0 1 0
vn 0 1 0
vn 0 1 0
vn 0 1 0
vn 0 1 0
vn 0 1 0
vn 0 1 0
vn 0 1 0
vn 0 1 0
vn 0 1 0
vn 0 1 0
vn 0 1 0
vn 0 1 0
vn 0 1 0
vn 0 1 0
vn 0 1 0
vn 0 1 0
vn 0 1 0
vn 0 1 0
vn 0 1 0
vn 0 1 0
vn 0 1 0
vn 0 1 0
vn 0 1 0
vn 0 1 0
vn 0 1 0
vn 0 1 0
vn 0 1 0
vn 0 1 0
vn 0 1 0
vn 0 1 0
vn 0 1 0
vn 0 1 0
vn 0 1 0
vn 0 1 0
vn 0 1 0
vn 0 1 0
vn 0 1 0
vn 0 1 0
vn 0 1 0
vn 0 1 0
vn 0 1 0
vn 0 1 0
g Grass_2_Cluster169_0
f 2/2/2 3/3/3 1/1/1
f 2/2/2 4/4/4 3/3/3
f 6/6/6 7/7/7 5/5/5
f 6/6/6 8/8/8 7/7/7
f 10/10/10 11/11/11 9/9/9
f 10/10/10 12/12/12 11/11/11
f 14/14/14 15/15/15 13/13/13
f 14/14/14 16/16/16 15/15/15
f 18/18/18 19/19/19 17/17/17
f 18/18/18 20/20/20 19/19/19
f 22/22/22 23/23/23 21/21/21
f 22/22/22 24/24/24 23/23/23
f 26/26/26 27/27/27 25/25/25
f 26/26/26 28/28/28 27/27/27
f 30/30/30 31/31/31 29/29/29
f 30/30/30 32/32/32 31/31/31
f 34/34/34 35/35/35 33/33/33
f 34/34/34 36/36/36 35/35/35
f 38/38/38 39/39/39 37/37/37
f 38/38/38 40/40/40 39/39/39
f 42/42/42 43/43/43 41/41/41
f 42/42/42 44/44/44 43/43/43
f 46/46/46 47/47/47 45/45/45
f 46/46/46 48/48/48 47/47/47
f 50/50/50 51/51/51 49/49/49
f 50/50/50 52/52/52 51/51/51
f 54/54/54 55/55/55 53/53/53
f 54/54/54 56/56/56 55/55/55
f 58/58/58 59/59/59 57/57/57
f 58/58/58 60/60/60 59/59/59
f 62/62/62 63/63/63 61/61/61
f 62/62/62 64/64/64 63/63/63
f 66/66/66 67/67/67 65/65/65
f 66/66/66 68/68/68 67/67/67
f 70/70/70 71/71/71 69/69/69
f 70/70/70 72/72/72 71/71/71
f 74/74/74 75/75/75 73/73/73
f 74/74/74 76/76/76 75/75/75
f 78/78/78 79/79/79 77/77/77
f 78/78/78 80/80/80 79/79/79
f 82/82/82 83/83/83 81/81/81
f 82/82/82 84/84/84 83/83/83
f 86/86/86 87/87/87 85/85/85
f 86/86/86 88/88/88 87/87/87
f 90/90/90 91/91/91 89/89/89
f 90/90/90 92/92/92 91/91/91
f 94/94/94 95/95/95 93/93/93
f 94/94/94 96/96/96 95/95/95
f 98/98/98 99/99/99 97/97/97
f 98/98/98 100/100/100 99/99/99
f 102/102/102 103/103/103 101/101/101
f 102/102/102 104/104/104 103/103/103
f 106/106/106 107/107/107 105/105/105
f 106/106/106 108/108/108 107/107/107
f 110/110/110 111/111/111 109/109/109
f 110/110/110 112/112/112 111/111/111
f 114/114/114 115/115/115 113/113/113
f 114/114/114 116/116/116 115/115/115
f 118/118/118 119/119/119 117/117/117
f 118/118/118 120/120/120 119/119/119
f 122/122/122 123/123/123 121/121/121
f 122/122/122 124/124/124 123/123/123
f 126/126/126 127/127/127 125/125/125
f 126/126/126 128/128/128 127/127/127
f 130/130/130 131/131/131 129/129/129
f 130/130/130 132/132/132 131/131/131
f 134/134/134 135/135/135 133/133/133
f 134/134/134 136/136/136 135/135/135
f 138/138/138 139/139/139 137/137/137
f 138/138/138 140/140/140 139/139/139
f 142/142/142 143/143/143 141/141/141
f 142/142/142 144/144/144 143/143/143
f 146/146/146 147/147/147 145/145/145
f 146/146/146 148/148/148 147/147/147
f 150/150/150 151/151/151 149/149/149
f 150/150/150 152/152/152 151/151/151
f 154/154/154 155/155/155 153/153/153
f 154/154/154 156/156/156 155/155/155
f 158/158/158 159/159/159 157/157/157
f 158/158/158 160/160/160 159/159/159
f 162/162/162 163/163/163 161/161/161
f 162/162/162 164/164/164 163/163/163
f 166/166/166 167/167/167 165/165/165
f 166/166/166 168/168/168 167/167/167
f 170/170/170 171/171/171 169/169/169
f 170/170/170 172/172/172 171/171/171
f 174/174/174 175/175/175 173/173/173
f 174/174/174 176/176/176 175/175/175
f 178/178/178 179/179/179 177/177/177
f 178/178/178 180/180/180 179/179/179
f 182/182/182 183/183/183 181/181/181
f 182/182/182 184/184/184 183/183/183
f 186/186/186 187/187/187 185/185/185
f 186/186/186 188/188/188 187/187/187
f 190/190/190 191/191/191 189/189/189
f 190/190/190 192/192/192 191/191/191
f 194/194/194 195/195/195 193/193/193
f 194/194/194 196/196/196 195/195/195
f 198/198/198 199/199/199 197/197/197
f 198/198/198 200/200/200 199/199/199
f 202/202/202 203/203/203 201/201/201
f 202/202/202 204/204/204 203/203/203
f 206/206/206 207/207/207 205/205/205
f 206/206/206 208/208/208 207/207/207
