g Grass_0_Cluster324
v 163.7242 -0.191925 472.6573
v 163.0904 -0.191925 472.6573
v 163.7242 -0.191925 473.925
v 163.0904 -0.191925 473.925
v 163.0904 -0.191925 472.0235
v 162.4566 -0.191925 472.0235
v 163.0904 -0.191925 473.2912
v 162.4566 -0.191925 473.2912
v 165.6258 -0.191925 472.0235
v 164.3581 -0.191925 472.0235
v 165.6258 -0.191925 473.2912
v 164.3581 -0.191925 473.2912
v 163.7242 -0.191925 471.3896
v 163.0904 -0.191925 471.3896
v 163.7242 -0.191925 472.6573
v 163.0904 -0.191925 472.6573
v 174.4996 -0.191925 470.7558
v 173.2319 -0.191925 470.7558
v 174.4996 -0.191925 472.0235
v 173.2319 -0.191925 472.0235
v 163.0904 -0.191925 468.2205
v 161.8227 -0.191925 468.2205
v 163.0904 -0.191925 469.4881
v 161.8227 -0.191925 469.4881
v 159.2873 -0.191925 467.5866
v 158.6535 -0.191925 467.5866
v 159.2873 -0.191925 468.8543
v 158.6535 -0.191925 468.8543
v 157.3858 -0.191925 466.9528
v 156.1181 -0.191925 466.9528
v 157.3858 -0.191925 468.2205
v 156.1181 -0.191925 468.2205
v 156.7519 -0.191925 461.882
v 156.1181 -0.191925 461.882
v 156.7519 -0.191925 463.1497
v 156.1181 -0.191925 463.1497
v 159.9212 -0.191925 461.882
v 159.2873 -0.191925 461.882
v 159.9212 -0.191925 463.1497
v 159.2873 -0.191925 463.1497
v 167.5273 -0.191925 461.2481
v 166.2596 -0.191925 461.2481
v 167.5273 -0.191925 462.5158
v 166.2596 -0.191925 462.5158
v 158.0196 -0.191925 460.6143
v 156.7519 -0.191925 460.6143
v 158.0196 -0.191925 461.882
v 156.7519 -0.191925 461.882
v 163.7242 -0.191925 460.6143
v 162.4566 -0.191925 460.6143
v 163.7242 -0.191925 461.882
v 162.4566 -0.191925 461.882
v 161.8227 -0.191925 453.642
v 161.1889 -0.191925 453.642
v 161.8227 -0.191925 454.9097
v 161.1889 -0.191925 454.9097
v 159.9212 -0.191925 452.3743
v 158.6535 -0.191925 452.3743
v 159.9212 -0.191925 453.642
v 158.6535 -0.191925 453.642
v 162.4566 -0.191925 452.3743
v 161.8227 -0.191925 452.3743
v 162.4566 -0.191925 453.642
v 161.8227 -0.191925 453.642
v 168.1612 -0.191925 452.3743
v 167.5273 -0.191925 452.3743
v 168.1612 -0.191925 453.642
v 167.5273 -0.191925 453.642
v 159.9212 -0.191925 452.3743
v 159.2873 -0.191925 452.3743
v 159.9212 -0.191925 453.642
v 159.2873 -0.191925 453.642
v 167.5273 -0.191925 451.7404
v 166.8935 -0.191925 451.7404
v 167.5273 -0.191925 453.0081
v 166.8935 -0.191925 453.0081
v 158.0196 -0.191925 450.4727
v 157.3858 -0.191925 450.4727
v 158.0196 -0.191925 451.7404
v 157.3858 -0.191925 451.7404
v 174.4996 -0.191925 444.7681
v 173.8658 -0.191925 444.7681
v 174.4996 -0.191925 446.0358
v 173.8658 -0.191925 446.0358
vt 0 0.9058824
vt 0.06666667 0.9058824
vt 0 1
vt 0.06666667 1
vt 0 0.9058824
vt 0.06666667 0.9058824
vt 0 1
vt 0.06666667 1
vt 0 0.9058824
vt 0.06666667 0.9058824
vt 0 1
vt 0.06666667 1
vt 0 0.9058824
vt 0.06666667 0.9058824
vt 0 1
vt 0.06666667 1
vt 0 0.9058824
vt 0.06666667 0.9058824
vt 0 1
vt 0.06666667 1
vt 0 0.9058824
vt 0.06666667 0.9058824
vt 0 1
vt 0.06666667 1
vt 0 0.9058824
vt 0.06666667 0.9058824
vt 0 1
vt 0.06666667 1
vt 0 0.9058824
vt 0.06666667 0.9058824
vt 0 1
vt 0.06666667 1
vt 0 0.9058824
vt 0.06666667 0.9058824
vt 0 1
vt 0.06666667 1
vt 0 0.9058824
vt 0.06666667 0.9058824
vt 0 1
vt 0.06666667 1
vt 0 0.9058824
vt 0.06666667 0.9058824
vt 0 1
vt 0.06666667 1
vt 0 0.9058824
vt 0.06666667 0.9058824
vt 0 1
vt 0.06666667 1
vt 0 0.9058824
vt 0.06666667 0.9058824
vt 0 1
vt 0.06666667 1
vt 0 0.9058824
vt 0.06666667 0.9058824
vt 0 1
vt 0.06666667 1
vt 0 0.9058824
vt 0.06666667 0.9058824
vt 0 1
vt 0.06666667 1
vt 0 0.9058824
vt 0.06666667 0.9058824
vt 0 1
vt 0.06666667 1
vt 0 0.9058824
vt 0.06666667 0.9058824
vt 0 1
vt 0.06666667 1
vt 0 0.9058824
vt 0.06666667 0.9058824
vt 0 1
vt 0.06666667 1
vt 0 0.9058824
vt 0.06666667 0.9058824
vt 0 1
vt 0.06666667 1
vt 0 0.9058824
vt 0.06666667 0.9058824
vt 0 1
vt 0.06666667 1
vt 0 0.9058824
vt 0.06666667 0.9058824
vt 0 1
vt 0.06666667 1
vn 0 1 0
vn 0 1 0
vn 0 1 0
vn 0 1 0
vn 0 1 0
vn 0 1 0
vn 0 1 0
vn 0 1 0
vn 0 1 0
vn 0 1 0
vn 0 1 0
vn 0 1 0
vn 0 1 0
vn 0 1 0
vn 0 1 0
vn 0 1 0
vn 0 1 0
vn 0 1 0
vn 0 1 0
vn 0 1 0
vn 0 1 0
vn 0 1 0
vn 0 1 0
vn 0 1 0
vn 0 1 0
vn 0 1 0
vn 0 1 0
vn 0 1 0
vn 0 1 0
vn 0 1 0
vn 0 1 0
vn 0 1 0
vn 0 1 0
vn 0 1 0
vn 0 1 0
vn 0 1 0
vn 0 1 0
vn 0 1 0
vn 0 1 0
vn 0 1 0
vn 0 1 0
vn 0 1 0
vn 0 1 0
vn 0 1 0
vn 0 1 0
vn 0 1 0
vn 0 1 0
vn 0 1 0
vn 0 1 0
vn 0 1 0
vn 0 1 0
vn 0 1 0
vn 0 1 0
vn 0 1 0
vn 0 1 0
vn 0 1 0
vn 0 1 0
vn 0 1 0
vn 0 1 0
vn 0 1 0
vn 0 1 0
vn 0 1 0
vn 0 1 0
vn 0 1 0
vn 0 1 0
vn 0 1 0
vn 0 1 0
vn 0 1 0
vn 0 1 0
vn 0 1 0
vn 0 1 0
vn 0 1 0
vn 0 1 0
vn 0 1 0
vn 0 1 0
vn 0 1 0
vn 0 1 0
vn 0 1 0
vn 0 1 0
vn 0 1 0
vn 0 1 0
vn 0 1 0
vn 0 1 0
vn 0 1 0
g Grass_0_Cluster324_0
f 2/2/2 3/3/3 1/1/1
f 2/2/2 4/4/4 3/3/3
f 6/6/6 7/7/7 5/5/5
f 6/6/6 8/8/8 7/7/7
f 10/10/10 11/11/11 9/9/9
f 10/10/10 12/12/12 11/11/11
f 14/14/14 15/15/15 13/13/13
f 14/14/14 16/16/16 15/15/15
f 18/18/18 19/19/19 17/17/17
f 18/18/18 20/20/20 19/19/19
f 22/22/22 23/23/23 21/21/21
f 22/22/22 24/24/24 23/23/23
f 26/26/26 27/27/27 25/25/25
f 26/26/26 28/28/28 27/27/27
f 30/30/30 31/31/31 29/29/29
f 30/30/30 32/32/32 31/31/31
f 34/34/34 35/35/35 33/33/33
f 34/34/34 36/36/36 35/35/35
f 38/38/38 39/39/39 37/37/37
f 38/38/38 40/40/40 39/39/39
f 42/42/42 43/43/43 41/41/41
f 42/42/42 44/44/44 43/43/43
f 46/46/46 47/47/47 45/45/45
f 46/46/46 48/48/48 47/47/47
f 50/50/50 51/51/51 49/49/49
f 50/50/50 52/52/52 51/51/51
f 54/54/54 55/55/55 53/53/53
f 54/54/54 56/56/56 55/55/55
f 58/58/58 59/59/59 57/57/57
f 58/58/58 60/60/60 59/59/59
f 62/62/62 63/63/63 61/61/61
f 62/62/62 64/64/64 63/63/63
f 66/66/66 67/67/67 65/65/65
f 66/66/66 68/68/68 67/67/67
f 70/70/70 71/71/71 69/69/69
f 70/70/70 72/72/72 71/71/71
f 74/74/74 75/75/75 73/73/73
f 74/74/74 76/76/76 75/75/75
f 78/78/78 79/79/79 77/77/77
f 78/78/78 80/80/80 79/79/79
f 82/82/82 83/83/83 81/81/81
f 82/82/82 84/84/84 83/83/83
