g Grass_0_Cluster204
v 163.0717 -0.1565094 291.714
v 162.1538 -0.1565094 291.714
v 163.0717 -0.1565094 293.0907
v 162.1538 -0.1565094 293.0907
v 168.5786 -0.1565094 290.7962
v 167.6608 -0.1565094 290.7962
v 168.5786 -0.1565094 291.714
v 167.6608 -0.1565094 291.714
v 158.0236 -0.1565094 290.3372
v 157.5647 -0.1565094 290.3372
v 158.0236 -0.1565094 291.714
v 157.5647 -0.1565094 291.714
v 162.6127 -0.1565094 288.9605
v 161.6949 -0.1565094 288.9605
v 162.6127 -0.1565094 289.8783
v 161.6949 -0.1565094 289.8783
v 173.6267 -0.1565094 288.5016
v 172.7089 -0.1565094 288.5016
v 173.6267 -0.1565094 289.8783
v 172.7089 -0.1565094 289.8783
v 175.0035 -0.1565094 288.5016
v 174.0856 -0.1565094 288.5016
v 175.0035 -0.1565094 289.4194
v 174.0856 -0.1565094 289.4194
v 157.5647 -0.1565094 287.5837
v 157.1057 -0.1565094 287.5837
v 157.5647 -0.1565094 288.9605
v 157.1057 -0.1565094 288.9605
v 159.4003 -0.1565094 287.5837
v 158.4825 -0.1565094 287.5837
v 159.4003 -0.1565094 288.5016
v 158.4825 -0.1565094 288.5016
v 154.3522 -0.1565094 287.1248
v 153.4344 -0.1565094 287.1248
v 154.3522 -0.1565094 288.0427
v 153.4344 -0.1565094 288.0427
v 155.729 -0.1565094 286.207
v 155.2701 -0.1565094 286.207
v 155.729 -0.1565094 287.5837
v 155.2701 -0.1565094 287.5837
v 174.0856 -0.1565094 285.7481
v 173.1678 -0.1565094 285.7481
v 174.0856 -0.1565094 287.1248
v 173.1678 -0.1565094 287.1248
v 158.4825 -0.1565094 285.7481
v 157.5647 -0.1565094 285.7481
v 158.4825 -0.1565094 286.6659
v 157.5647 -0.1565094 286.6659
v 174.5446 -0.1565094 284.3713
v 173.6267 -0.1565094 284.3713
v 174.5446 -0.1565094 285.2892
v 173.6267 -0.1565094 285.2892
v 175.4624 -0.1565094 283.9124
v 174.5446 -0.1565094 283.9124
v 175.4624 -0.1565094 285.2892
v 174.5446 -0.1565094 285.2892
v 158.4825 -0.1565094 283.9124
v 157.5647 -0.1565094 283.9124
v 158.4825 -0.1565094 285.2892
v 157.5647 -0.1565094 285.2892
v 176.3802 -0.1565094 283.9124
v 175.4624 -0.1565094 283.9124
v 176.3802 -0.1565094 284.8303
v 175.4624 -0.1565094 284.8303
v 158.9414 -0.1565094 282.9946
v 158.0236 -0.1565094 282.9946
v 158.9414 -0.1565094 283.9124
v 158.0236 -0.1565094 283.9124
v 152.5166 -0.1565094 281.1589
v 151.5988 -0.1565094 281.1589
v 152.5166 -0.1565094 282.5357
v 151.5988 -0.1565094 282.5357
v 157.5647 -0.1565094 281.1589
v 156.6468 -0.1565094 281.1589
v 157.5647 -0.1565094 282.5357
v 156.6468 -0.1565094 282.5357
v 173.1678 -0.1565094 281.1589
v 172.25 -0.1565094 281.1589
v 173.1678 -0.1565094 282.0768
v 172.25 -0.1565094 282.0768
v 172.7089 -0.1565094 278.8643
v 171.7911 -0.1565094 278.8643
v 172.7089 -0.1565094 280.2411
v 171.7911 -0.1565094 280.2411
v 170.4143 -0.1565094 277.4876
v 169.9554 -0.1565094 277.4876
v 170.4143 -0.1565094 278.8643
v 169.9554 -0.1565094 278.8643
v 175.4624 -0.1565094 276.5698
v 174.5446 -0.1565094 276.5698
v 175.4624 -0.1565094 277.9465
v 174.5446 -0.1565094 277.9465
v 174.5446 -0.1565094 276.1108
v 173.6267 -0.1565094 276.1108
v 174.5446 -0.1565094 277.4876
v 173.6267 -0.1565094 277.4876
v 174.0856 -0.1565094 274.7341
v 173.1678 -0.1565094 274.7341
v 174.0856 -0.1565094 276.1108
v 173.1678 -0.1565094 276.1108
v 174.5446 -0.1565094 274.2752
v 173.6267 -0.1565094 274.2752
v 174.5446 -0.1565094 275.6519
v 173.6267 -0.1565094 275.6519
v 167.2019 -0.1565094 273.8163
v 166.2841 -0.1565094 273.8163
v 167.2019 -0.1565094 274.7341
v 166.2841 -0.1565094 274.7341
v 175.0035 -0.1565094 272.8984
v 174.0856 -0.1565094 272.8984
v 175.0035 -0.1565094 273.8163
v 174.0856 -0.1565094 273.8163
v 174.0856 -0.1565094 272.4395
v 173.1678 -0.1565094 272.4395
v 174.0856 -0.1565094 273.3574
v 173.1678 -0.1565094 273.3574
v 170.8732 -0.1565094 271.9806
v 170.4143 -0.1565094 271.9806
v 170.8732 -0.1565094 273.3574
v 170.4143 -0.1565094 273.3574
v 172.7089 -0.1565094 271.9806
v 171.7911 -0.1565094 271.9806
v 172.7089 -0.1565094 272.8984
v 171.7911 -0.1565094 272.8984
v 159.4003 -0.1565094 271.5217
v 158.4825 -0.1565094 271.5217
v 159.4003 -0.1565094 272.4395
v 158.4825 -0.1565094 272.4395
v 165.3662 -0.1565094 271.0628
v 164.4484 -0.1565094 271.0628
v 165.3662 -0.1565094 272.4395
v 164.4484 -0.1565094 272.4395
v 161.6949 -0.1565094 270.6039
v 160.7771 -0.1565094 270.6039
v 161.6949 -0.1565094 271.9806
v 160.7771 -0.1565094 271.9806
v 172.7089 -0.1565094 270.1449
v 172.25 -0.1565094 270.1449
v 172.7089 -0.1565094 271.5217
v 172.25 -0.1565094 271.5217
v 163.0717 -0.1565094 269.2271
v 162.1538 -0.1565094 269.2271
v 163.0717 -0.1565094 270.1449
v 162.1538 -0.1565094 270.1449
vt 0 0.9058824
vt 0.06666667 0.9058824
vt 0 1
vt 0.06666667 1
vt 0 0.9058824
vt 0.06666667 0.9058824
vt 0 1
vt 0.06666667 1
vt 0 0.9058824
vt 0.06666667 0.9058824
vt 0 1
vt 0.06666667 1
vt 0 0.9058824
vt 0.06666667 0.9058824
vt 0 1
vt 0.06666667 1
vt 0 0.9058824
vt 0.06666667 0.9058824
vt 0 1
vt 0.06666667 1
vt 0 0.9058824
vt 0.06666667 0.9058824
vt 0 1
vt 0.06666667 1
vt 0 0.9058824
vt 0.06666667 0.9058824
vt 0 1
vt 0.06666667 1
vt 0 0.9058824
vt 0.06666667 0.9058824
vt 0 1
vt 0.06666667 1
vt 0 0.9058824
vt 0.06666667 0.9058824
vt 0 1
vt 0.06666667 1
vt 0 0.9058824
vt 0.06666667 0.9058824
vt 0 1
vt 0.06666667 1
vt 0 0.9058824
vt 0.06666667 0.9058824
vt 0 1
vt 0.06666667 1
vt 0 0.9058824
vt 0.06666667 0.9058824
vt 0 1
vt 0.06666667 1
vt 0 0.9058824
vt 0.06666667 0.9058824
vt 0 1
vt 0.06666667 1
vt 0 0.9058824
vt 0.06666667 0.9058824
vt 0 1
vt 0.06666667 1
vt 0 0.9058824
vt 0.06666667 0.9058824
vt 0 1
vt 0.06666667 1
vt 0 0.9058824
vt 0.06666667 0.9058824
vt 0 1
vt 0.06666667 1
vt 0 0.9058824
vt 0.06666667 0.9058824
vt 0 1
vt 0.06666667 1
vt 0 0.9058824
vt 0.06666667 0.9058824
vt 0 1
vt 0.06666667 1
vt 0 0.9058824
vt 0.06666667 0.9058824
vt 0 1
vt 0.06666667 1
vt 0 0.9058824
vt 0.06666667 0.9058824
vt 0 1
vt 0.06666667 1
vt 0 0.9058824
vt 0.06666667 0.9058824
vt 0 1
vt 0.06666667 1
vt 0 0.9058824
vt 0.06666667 0.9058824
vt 0 1
vt 0.06666667 1
vt 0 0.9058824
vt 0.06666667 0.9058824
vt 0 1
vt 0.06666667 1
vt 0 0.9058824
vt 0.06666667 0.9058824
vt 0 1
vt 0.06666667 1
vt 0 0.9058824
vt 0.06666667 0.9058824
vt 0 1
vt 0.06666667 1
vt 0 0.9058824
vt 0.06666667 0.9058824
vt 0 1
vt 0.06666667 1
vt 0 0.9058824
vt 0.06666667 0.9058824
vt 0 1
vt 0.06666667 1
vt 0 0.9058824
vt 0.06666667 0.9058824
vt 0 1
vt 0.06666667 1
vt 0 0.9058824
vt 0.06666667 0.9058824
vt 0 1
vt 0.06666667 1
vt 0 0.9058824
vt 0.06666667 0.9058824
vt 0 1
vt 0.06666667 1
vt 0 0.9058824
vt 0.06666667 0.9058824
vt 0 1
vt 0.06666667 1
vt 0 0.9058824
vt 0.06666667 0.9058824
vt 0 1
vt 0.06666667 1
vt 0 0.9058824
vt 0.06666667 0.9058824
vt 0 1
vt 0.06666667 1
vt 0 0.9058824
vt 0.06666667 0.9058824
vt 0 1
vt 0.06666667 1
vt 0 0.9058824
vt 0.06666667 0.9058824
vt 0 1
vt 0.06666667 1
vt 0 0.9058824
vt 0.06666667 0.9058824
vt 0 1
vt 0.06666667 1
vn 0 1 0
vn 0 1 0
vn 0 1 0
vn 0 1 0
vn 0 1 0
vn 0 1 0
vn 0 1 0
vn 0 1 0
vn 0 1 0
vn 0 1 0
vn 0 1 0
vn 0 1 0
vn 0 1 0
vn 0 1 0
vn 0 1 0
vn 0 1 0
vn 0 1 0
vn 0 1 0
vn 0 1 0
vn 0 1 0
vn 0 1 0
vn 0 1 0
vn 0 1 0
vn 0 1 0
vn 0 1 0
vn 0 1 0
vn 0 1 0
vn 0 1 0
vn 0 1 0
vn 0 1 0
vn 0 1 0
vn 0 1 0
vn 0 1 0
vn 0 1 0
vn 0 1 0
vn 0 1 0
vn 0 1 0
vn 0 1 0
vn 0 1 0
vn 0 1 0
vn 0 1 0
vn 0 1 0
vn 0 1 0
vn 0 1 0
vn 0 1 0
vn 0 1 0
vn 0 1 0
vn 0 1 0
vn 0 1 0
vn 0 1 0
vn 0 1 0
vn 0 1 0
vn 0 1 0
vn 0 1 0
vn 0 1 0
vn 0 1 0
vn 0 1 0
vn 0 1 0
vn 0 1 0
vn 0 1 0
vn 0 1 0
vn 0 1 0
vn 0 1 0
vn 0 1 0
vn 0 1 0
vn 0 1 0
vn 0 1 0
vn 0 1 0
vn 0 1 0
vn 0 1 0
vn 0 1 0
vn 0 1 0
vn 0 1 0
vn 0 1 0
vn 0 1 0
vn 0 1 0
vn 0 1 0
vn 0 1 0
vn 0 1 0
vn 0 1 0
vn 0 1 0
vn 0 1 0
vn 0 1 0
vn 0 1 0
vn 0 1 0
vn 0 1 0
vn 0 1 0
vn 0 1 0
vn 0 1 0
vn 0 1 0
vn 0 1 0
vn 0 1 0
vn 0 1 0
vn 0 1 0
vn 0 1 0
vn 0 1 0
vn 0 1 0
vn 0 1 0
vn 0 1 0
vn 0 1 0
vn 0 1 0
vn 0 1 0
vn 0 1 0
vn 0 1 0
vn 0 1 0
vn 0 1 0
vn 0 1 0
vn 0 1 0
vn 0 1 0
vn 0 1 0
vn 0 1 0
vn 0 1 0
vn 0 1 0
vn 0 1 0
vn 0 1 0
vn 0 1 0
vn 0 1 0
vn 0 1 0
vn 0 1 0
vn 0 1 0
vn 0 1 0
vn 0 1 0
vn 0 1 0
vn 0 1 0
vn 0 1 0
vn 0 1 0
vn 0 1 0
vn 0 1 0
vn 0 1 0
vn 0 1 0
vn 0 1 0
vn 0 1 0
vn 0 1 0
vn 0 1 0
vn 0 1 0
vn 0 1 0
vn 0 1 0
vn 0 1 0
vn 0 1 0
vn 0 1 0
vn 0 1 0
vn 0 1 0
vn 0 1 0
vn 0 1 0
g Grass_0_Cluster204_0
f 2/2/2 3/3/3 1/1/1
f 2/2/2 4/4/4 3/3/3
f 6/6/6 7/7/7 5/5/5
f 6/6/6 8/8/8 7/7/7
f 10/10/10 11/11/11 9/9/9
f 10/10/10 12/12/12 11/11/11
f 14/14/14 15/15/15 13/13/13
f 14/14/14 16/16/16 15/15/15
f 18/18/18 19/19/19 17/17/17
f 18/18/18 20/20/20 19/19/19
f 22/22/22 23/23/23 21/21/21
f 22/22/22 24/24/24 23/23/23
f 26/26/26 27/27/27 25/25/25
f 26/26/26 28/28/28 27/27/27
f 30/30/30 31/31/31 29/29/29
f 30/30/30 32/32/32 31/31/31
f 34/34/34 35/35/35 33/33/33
f 34/34/34 36/36/36 35/35/35
f 38/38/38 39/39/39 37/37/37
f 38/38/38 40/40/40 39/39/39
f 42/42/42 43/43/43 41/41/41
f 42/42/42 44/44/44 43/43/43
f 46/46/46 47/47/47 45/45/45
f 46/46/46 48/48/48 47/47/47
f 50/50/50 51/51/51 49/49/49
f 50/50/50 52/52/52 51/51/51
f 54/54/54 55/55/55 53/53/53
f 54/54/54 56/56/56 55/55/55
f 58/58/58 59/59/59 57/57/57
f 58/58/58 60/60/60 59/59/59
f 62/62/62 63/63/63 61/61/61
f 62/62/62 64/64/64 63/63/63
f 66/66/66 67/67/67 65/65/65
f 66/66/66 68/68/68 67/67/67
f 70/70/70 71/71/71 69/69/69
f 70/70/70 72/72/72 71/71/71
f 74/74/74 75/75/75 73/73/73
f 74/74/74 76/76/76 75/75/75
f 78/78/78 79/79/79 77/77/77
f 78/78/78 80/80/80 79/79/79
f 82/82/82 83/83/83 81/81/81
f 82/82/82 84/84/84 83/83/83
f 86/86/86 87/87/87 85/85/85
f 86/86/86 88/88/88 87/87/87
f 90/90/90 91/91/91 89/89/89
f 90/90/90 92/92/92 91/91/91
f 94/94/94 95/95/95 93/93/93
f 94/94/94 96/96/96 95/95/95
f 98/98/98 99/99/99 97/97/97
f 98/98/98 100/100/100 99/99/99
f 102/102/102 103/103/103 101/101/101
f 102/102/102 104/104/104 103/103/103
f 106/106/106 107/107/107 105/105/105
f 106/106/106 108/108/108 107/107/107
f 110/110/110 111/111/111 109/109/109
f 110/110/110 112/112/112 111/111/111
f 114/114/114 115/115/115 113/113/113
f 114/114/114 116/116/116 115/115/115
f 118/118/118 119/119/119 117/117/117
f 118/118/118 120/120/120 119/119/119
f 122/122/122 123/123/123 121/121/121
f 122/122/122 124/124/124 123/123/123
f 126/126/126 127/127/127 125/125/125
f 126/126/126 128/128/128 127/127/127
f 130/130/130 131/131/131 129/129/129
f 130/130/130 132/132/132 131/131/131
f 134/134/134 135/135/135 133/133/133
f 134/134/134 136/136/136 135/135/135
f 138/138/138 139/139/139 137/137/137
f 138/138/138 140/140/140 139/139/139
f 142/142/142 143/143/143 141/141/141
f 142/142/142 144/144/144 143/143/143
