g Grass_0_Cluster53
v -118.8055 0 52.99832
v -119.7457 0 52.99832
v -118.8055 0 54.17345
v -119.7457 0 54.17345
v -118.3355 0 51.70568
v -119.2756 0 51.70568
v -118.3355 0 52.99832
v -119.2756 0 52.99832
v -118.9231 0 48.76786
v -119.8632 0 48.76786
v -118.9231 0 50.0605
v -119.8632 0 50.0605
v -116.8078 0 47.3577
v -117.6304 0 47.3577
v -116.8078 0 48.65034
v -117.6304 0 48.65034
v -92.71768 0 47.24019
v -93.54028 0 47.24019
v -92.71768 0 48.41532
v -93.54028 0 48.41532
v -90.95499 0 46.4176
v -91.8951 0 46.4176
v -90.95499 0 47.71024
v -91.8951 0 47.71024
v -95.53799 0 46.18257
v -96.36058 0 46.18257
v -95.53799 0 47.47521
v -96.36058 0 47.47521
v -95.77302 0 45.94755
v -96.71312 0 45.94755
v -95.77302 0 47.24019
v -96.71312 0 47.24019
v -93.18774 0 45.83003
v -94.12784 0 45.83003
v -93.18774 0 47.24019
v -94.12784 0 47.24019
v -98.71084 0 45.83003
v -99.53343 0 45.83003
v -98.71084 0 47.00516
v -99.53343 0 47.00516
v -94.01032 0 45.59501
v -94.95042 0 45.59501
v -94.01032 0 46.77014
v -94.95042 0 46.77014
v -92.60017 0 45.12495
v -93.42276 0 45.12495
v -92.60017 0 46.30008
v -93.42276 0 46.30008
v -98.3583 0 45.12495
v -99.18089 0 45.12495
v -98.3583 0 46.30008
v -99.18089 0 46.30008
v -94.12784 0 44.77242
v -94.95042 0 44.77242
v -94.12784 0 45.94755
v -94.95042 0 45.94755
v -107.0543 0 43.12724
v -107.9944 0 43.12724
v -107.0543 0 44.41988
v -107.9944 0 44.41988
v -109.9921 0 43.00972
v -110.8147 0 43.00972
v -109.9921 0 44.18485
v -110.8147 0 44.18485
v -108.8169 0 43.00972
v -109.8746 0 43.00972
v -108.8169 0 44.41988
v -109.8746 0 44.41988
v -93.65778 0 42.89221
v -94.59789 0 42.89221
v -93.65778 0 44.18485
v -94.59789 0 44.18485
v -107.7593 0 42.30465
v -108.5819 0 42.30465
v -107.7593 0 43.59729
v -108.5819 0 43.59729
v -103.7639 0 42.30465
v -104.704 0 42.30465
v -103.7639 0 43.47977
v -104.704 0 43.47977
v -111.4022 0 41.83459
v -112.3423 0 41.83459
v -111.4022 0 43.00972
v -112.3423 0 43.00972
v -92.95271 0 41.83459
v -93.7753 0 41.83459
v -92.95271 0 43.00972
v -93.7753 0 43.00972
v -108.5819 0 41.48206
v -109.522 0 41.48206
v -108.5819 0 42.7747
v -109.522 0 42.7747
v -92.36514 0 41.12952
v -93.18774 0 41.12952
v -92.36514 0 42.18713
v -93.18774 0 42.18713
v -109.522 0 40.54195
v -110.3446 0 40.54195
v -109.522 0 41.83459
v -110.3446 0 41.83459
v -109.1695 0 39.48434
v -110.1096 0 39.48434
v -109.1695 0 40.65947
v -110.1096 0 40.65947
v -107.5243 0 39.1318
v -108.4644 0 39.1318
v -107.5243 0 40.42444
v -108.4644 0 40.42444
v -107.0543 0 38.42672
v -107.9944 0 38.42672
v -107.0543 0 39.71936
v -107.9944 0 39.71936
v -105.2916 0 37.95667
v -106.2317 0 37.95667
v -105.2916 0 39.24931
v -106.2317 0 39.24931
v -109.4045 0 37.3691
v -110.3446 0 37.3691
v -109.4045 0 38.66175
v -110.3446 0 38.66175
v -106.1142 0 36.89905
v -107.0543 0 36.89905
v -106.1142 0 38.1917
v -107.0543 0 38.1917
v -106.8192 0 36.429
v -107.6418 0 36.429
v -106.8192 0 37.72164
v -107.6418 0 37.72164
v -109.522 0 36.19397
v -110.3446 0 36.19397
v -109.522 0 37.25159
v -110.3446 0 37.25159
v -109.052 0 35.37138
v -109.8746 0 35.37138
v -109.052 0 36.54651
v -109.8746 0 36.54651
v -106.4667 0 31.72849
v -107.2893 0 31.72849
v -106.4667 0 33.02113
v -107.2893 0 33.02113
v -119.2756 0 31.72849
v -120.2157 0 31.72849
v -119.2756 0 33.02113
v -120.2157 0 33.02113
v -116.9253 0 28.67315
v -117.7479 0 28.67315
v -116.9253 0 29.96579
v -117.7479 0 29.96579
v -112.4599 0 26.32289
v -113.2824 0 26.32289
v -112.4599 0 27.49802
v -113.2824 0 27.49802
v -117.0429 0 23.73761
v -117.8654 0 23.73761
v -117.0429 0 25.03025
v -117.8654 0 25.03025
v -115.5152 0 23.62009
v -116.4553 0 23.62009
v -115.5152 0 24.91274
v -116.4553 0 24.91274
vt 0 0.9058824
vt 0.06666667 0.9058824
vt 0 1
vt 0.06666667 1
vt 0 0.9058824
vt 0.06666667 0.9058824
vt 0 1
vt 0.06666667 1
vt 0 0.9058824
vt 0.06666667 0.9058824
vt 0 1
vt 0.06666667 1
vt 0 0.9058824
vt 0.06666667 0.9058824
vt 0 1
vt 0.06666667 1
vt 0 0.9058824
vt 0.06666667 0.9058824
vt 0 1
vt 0.06666667 1
vt 0 0.9058824
vt 0.06666667 0.9058824
vt 0 1
vt 0.06666667 1
vt 0 0.9058824
vt 0.06666667 0.9058824
vt 0 1
vt 0.06666667 1
vt 0 0.9058824
vt 0.06666667 0.9058824
vt 0 1
vt 0.06666667 1
vt 0 0.9058824
vt 0.06666667 0.9058824
vt 0 1
vt 0.06666667 1
vt 0 0.9058824
vt 0.06666667 0.9058824
vt 0 1
vt 0.06666667 1
vt 0 0.9058824
vt 0.06666667 0.9058824
vt 0 1
vt 0.06666667 1
vt 0 0.9058824
vt 0.06666667 0.9058824
vt 0 1
vt 0.06666667 1
vt 0 0.9058824
vt 0.06666667 0.9058824
vt 0 1
vt 0.06666667 1
vt 0 0.9058824
vt 0.06666667 0.9058824
vt 0 1
vt 0.06666667 1
vt 0 0.9058824
vt 0.06666667 0.9058824
vt 0 1
vt 0.06666667 1
vt 0 0.9058824
vt 0.06666667 0.9058824
vt 0 1
vt 0.06666667 1
vt 0 0.9058824
vt 0.06666667 0.9058824
vt 0 1
vt 0.06666667 1
vt 0 0.9058824
vt 0.06666667 0.9058824
vt 0 1
vt 0.06666667 1
vt 0 0.9058824
vt 0.06666667 0.9058824
vt 0 1
vt 0.06666667 1
vt 0 0.9058824
vt 0.06666667 0.9058824
vt 0 1
vt 0.06666667 1
vt 0 0.9058824
vt 0.06666667 0.9058824
vt 0 1
vt 0.06666667 1
vt 0 0.9058824
vt 0.06666667 0.9058824
vt 0 1
vt 0.06666667 1
vt 0 0.9058824
vt 0.06666667 0.9058824
vt 0 1
vt 0.06666667 1
vt 0 0.9058824
vt 0.06666667 0.9058824
vt 0 1
vt 0.06666667 1
vt 0 0.9058824
vt 0.06666667 0.9058824
vt 0 1
vt 0.06666667 1
vt 0 0.9058824
vt 0.06666667 0.9058824
vt 0 1
vt 0.06666667 1
vt 0 0.9058824
vt 0.06666667 0.9058824
vt 0 1
vt 0.06666667 1
vt 0 0.9058824
vt 0.06666667 0.9058824
vt 0 1
vt 0.06666667 1
vt 0 0.9058824
vt 0.06666667 0.9058824
vt 0 1
vt 0.06666667 1
vt 0 0.9058824
vt 0.06666667 0.9058824
vt 0 1
vt 0.06666667 1
vt 0 0.9058824
vt 0.06666667 0.9058824
vt 0 1
vt 0.06666667 1
vt 0 0.9058824
vt 0.06666667 0.9058824
vt 0 1
vt 0.06666667 1
vt 0 0.9058824
vt 0.06666667 0.9058824
vt 0 1
vt 0.06666667 1
vt 0 0.9058824
vt 0.06666667 0.9058824
vt 0 1
vt 0.06666667 1
vt 0 0.9058824
vt 0.06666667 0.9058824
vt 0 1
vt 0.06666667 1
vt 0 0.9058824
vt 0.06666667 0.9058824
vt 0 1
vt 0.06666667 1
vt 0 0.9058824
vt 0.06666667 0.9058824
vt 0 1
vt 0.06666667 1
vt 0 0.9058824
vt 0.06666667 0.9058824
vt 0 1
vt 0.06666667 1
vt 0 0.9058824
vt 0.06666667 0.9058824
vt 0 1
vt 0.06666667 1
vt 0 0.9058824
vt 0.06666667 0.9058824
vt 0 1
vt 0.06666667 1
vn 0 1 0
vn 0 1 0
vn 0 1 0
vn 0 1 0
vn 0 1 0
vn 0 1 0
vn 0 1 0
vn 0 1 0
vn 0 1 0
vn 0 1 0
vn 0 1 0
vn 0 1 0
vn 0 1 0
vn 0 1 0
vn 0 1 0
vn 0 1 0
vn 0 1 0
vn 0 1 0
vn 0 1 0
vn 0 1 0
vn 0 1 0
vn 0 1 0
vn 0 1 0
vn 0 1 0
vn 0 1 0
vn 0 1 0
vn 0 1 0
vn 0 1 0
vn 0 1 0
vn 0 1 0
vn 0 1 0
vn 0 1 0
vn 0 1 0
vn 0 1 0
vn 0 1 0
vn 0 1 0
vn 0 1 0
vn 0 1 0
vn 0 1 0
vn 0 1 0
vn 0 1 0
vn 0 1 0
vn 0 1 0
vn 0 1 0
vn 0 1 0
vn 0 1 0
vn 0 1 0
vn 0 1 0
vn 0 1 0
vn 0 1 0
vn 0 1 0
vn 0 1 0
vn 0 1 0
vn 0 1 0
vn 0 1 0
vn 0 1 0
vn 0 1 0
vn 0 1 0
vn 0 1 0
vn 0 1 0
vn 0 1 0
vn 0 1 0
vn 0 1 0
vn 0 1 0
vn 0 1 0
vn 0 1 0
vn 0 1 0
vn 0 1 0
vn 0 1 0
vn 0 1 0
vn 0 1 0
vn 0 1 0
vn 0 1 0
vn 0 1 0
vn 0 1 0
vn 0 1 0
vn 0 1 0
vn 0 1 0
vn 0 1 0
vn 0 1 0
vn 0 1 0
vn 0 1 0
vn 0 1 0
vn 0 1 0
vn 0 1 0
vn 0 1 0
vn 0 1 0
vn 0 1 0
vn 0 1 0
vn 0 1 0
vn 0 1 0
vn 0 1 0
vn 0 1 0
vn 0 1 0
vn 0 1 0
vn 0 1 0
vn 0 1 0
vn 0 1 0
vn 0 1 0
vn 0 1 0
vn 0 1 0
vn 0 1 0
vn 0 1 0
vn 0 1 0
vn 0 1 0
vn 0 1 0
vn 0 1 0
vn 0 1 0
vn 0 1 0
vn 0 1 0
vn 0 1 0
vn 0 1 0
vn 0 1 0
vn 0 1 0
vn 0 1 0
vn 0 1 0
vn 0 1 0
vn 0 1 0
vn 0 1 0
vn 0 1 0
vn 0 1 0
vn 0 1 0
vn 0 1 0
vn 0 1 0
vn 0 1 0
vn 0 1 0
vn 0 1 0
vn 0 1 0
vn 0 1 0
vn 0 1 0
vn 0 1 0
vn 0 1 0
vn 0 1 0
vn 0 1 0
vn 0 1 0
vn 0 1 0
vn 0 1 0
vn 0 1 0
vn 0 1 0
vn 0 1 0
vn 0 1 0
vn 0 1 0
vn 0 1 0
vn 0 1 0
vn 0 1 0
vn 0 1 0
vn 0 1 0
vn 0 1 0
vn 0 1 0
vn 0 1 0
vn 0 1 0
vn 0 1 0
vn 0 1 0
vn 0 1 0
vn 0 1 0
vn 0 1 0
vn 0 1 0
vn 0 1 0
vn 0 1 0
vn 0 1 0
g Grass_0_Cluster53_0
f 2/2/2 3/3/3 1/1/1
f 2/2/2 4/4/4 3/3/3
f 6/6/6 7/7/7 5/5/5
f 6/6/6 8/8/8 7/7/7
f 10/10/10 11/11/11 9/9/9
f 10/10/10 12/12/12 11/11/11
f 14/14/14 15/15/15 13/13/13
f 14/14/14 16/16/16 15/15/15
f 18/18/18 19/19/19 17/17/17
f 18/18/18 20/20/20 19/19/19
f 22/22/22 23/23/23 21/21/21
f 22/22/22 24/24/24 23/23/23
f 26/26/26 27/27/27 25/25/25
f 26/26/26 28/28/28 27/27/27
f 30/30/30 31/31/31 29/29/29
f 30/30/30 32/32/32 31/31/31
f 34/34/34 35/35/35 33/33/33
f 34/34/34 36/36/36 35/35/35
f 38/38/38 39/39/39 37/37/37
f 38/38/38 40/40/40 39/39/39
f 42/42/42 43/43/43 41/41/41
f 42/42/42 44/44/44 43/43/43
f 46/46/46 47/47/47 45/45/45
f 46/46/46 48/48/48 47/47/47
f 50/50/50 51/51/51 49/49/49
f 50/50/50 52/52/52 51/51/51
f 54/54/54 55/55/55 53/53/53
f 54/54/54 56/56/56 55/55/55
f 58/58/58 59/59/59 57/57/57
f 58/58/58 60/60/60 59/59/59
f 62/62/62 63/63/63 61/61/61
f 62/62/62 64/64/64 63/63/63
f 66/66/66 67/67/67 65/65/65
f 66/66/66 68/68/68 67/67/67
f 70/70/70 71/71/71 69/69/69
f 70/70/70 72/72/72 71/71/71
f 74/74/74 75/75/75 73/73/73
f 74/74/74 76/76/76 75/75/75
f 78/78/78 79/79/79 77/77/77
f 78/78/78 80/80/80 79/79/79
f 82/82/82 83/83/83 81/81/81
f 82/82/82 84/84/84 83/83/83
f 86/86/86 87/87/87 85/85/85
f 86/86/86 88/88/88 87/87/87
f 90/90/90 91/91/91 89/89/89
f 90/90/90 92/92/92 91/91/91
f 94/94/94 95/95/95 93/93/93
f 94/94/94 96/96/96 95/95/95
f 98/98/98 99/99/99 97/97/97
f 98/98/98 100/100/100 99/99/99
f 102/102/102 103/103/103 101/101/101
f 102/102/102 104/104/104 103/103/103
f 106/106/106 107/107/107 105/105/105
f 106/106/106 108/108/108 107/107/107
f 110/110/110 111/111/111 109/109/109
f 110/110/110 112/112/112 111/111/111
f 114/114/114 115/115/115 113/113/113
f 114/114/114 116/116/116 115/115/115
f 118/118/118 119/119/119 117/117/117
f 118/118/118 120/120/120 119/119/119
f 122/122/122 123/123/123 121/121/121
f 122/122/122 124/124/124 123/123/123
f 126/126/126 127/127/127 125/125/125
f 126/126/126 128/128/128 127/127/127
f 130/130/130 131/131/131 129/129/129
f 130/130/130 132/132/132 131/131/131
f 134/134/134 135/135/135 133/133/133
f 134/134/134 136/136/136 135/135/135
f 138/138/138 139/139/139 137/137/137
f 138/138/138 140/140/140 139/139/139
f 142/142/142 143/143/143 141/141/141
f 142/142/142 144/144/144 143/143/143
f 146/146/146 147/147/147 145/145/145
f 146/146/146 148/148/148 147/147/147
f 150/150/150 151/151/151 149/149/149
f 150/150/150 152/152/152 151/151/151
f 154/154/154 155/155/155 153/153/153
f 154/154/154 156/156/156 155/155/155
f 158/158/158 159/159/159 157/157/157
f 158/158/158 160/160/160 159/159/159
