g Grass_0_Cluster247
v 66.00523 -0.08686829 352.4896
v 65.13788 -0.08686829 352.4896
v 66.00523 -0.08686829 353.7906
v 65.13788 -0.08686829 353.7906
v 75.11237 -0.08686829 346.4182
v 74.24502 -0.08686829 346.4182
v 75.11237 -0.08686829 347.2855
v 74.24502 -0.08686829 347.2855
v 88.12257 -0.08686829 345.9845
v 86.82155 -0.08686829 345.9845
v 88.12257 -0.08686829 346.8518
v 86.82155 -0.08686829 346.8518
v 88.55624 -0.08686829 344.6835
v 87.6889 -0.08686829 344.6835
v 88.55624 -0.08686829 345.9845
v 87.6889 -0.08686829 345.9845
v 89.85726 -0.08686829 344.6835
v 88.98991 -0.08686829 344.6835
v 89.85726 -0.08686829 345.9845
v 88.98991 -0.08686829 345.9845
v 60.80114 -0.08686829 340.3467
v 59.9338 -0.08686829 340.3467
v 60.80114 -0.08686829 341.6478
v 59.9338 -0.08686829 341.6478
v 63.40318 -0.08686829 339.9131
v 62.53584 -0.08686829 339.9131
v 63.40318 -0.08686829 341.2141
v 62.53584 -0.08686829 341.2141
v 61.23482 -0.08686829 339.9131
v 60.36747 -0.08686829 339.9131
v 61.23482 -0.08686829 341.2141
v 60.36747 -0.08686829 341.2141
v 88.98991 -0.08686829 337.311
v 87.6889 -0.08686829 337.311
v 88.98991 -0.08686829 338.6121
v 87.6889 -0.08686829 338.6121
v 60.36747 -0.08686829 336.4437
v 59.50012 -0.08686829 336.4437
v 60.36747 -0.08686829 337.7447
v 59.50012 -0.08686829 337.7447
v 61.66849 -0.08686829 336.4437
v 60.80114 -0.08686829 336.4437
v 61.66849 -0.08686829 337.7447
v 60.80114 -0.08686829 337.7447
v 75.97971 -0.08686829 336.01
v 75.11237 -0.08686829 336.01
v 75.97971 -0.08686829 337.311
v 75.11237 -0.08686829 337.311
v 75.11237 -0.08686829 334.709
v 74.24502 -0.08686829 334.709
v 75.11237 -0.08686829 336.01
v 74.24502 -0.08686829 336.01
v 62.96951 -0.08686829 334.2753
v 61.66849 -0.08686829 334.2753
v 62.96951 -0.08686829 335.1427
v 61.66849 -0.08686829 335.1427
v 81.18379 -0.08686829 331.2396
v 80.31644 -0.08686829 331.2396
v 81.18379 -0.08686829 332.5406
v 80.31644 -0.08686829 332.5406
v 70.77563 -0.08686829 330.3723
v 69.90829 -0.08686829 330.3723
v 70.77563 -0.08686829 331.6733
v 69.90829 -0.08686829 331.6733
v 69.90829 -0.08686829 329.0712
v 69.04094 -0.08686829 329.0712
v 69.90829 -0.08686829 329.9386
v 69.04094 -0.08686829 329.9386
v 68.60727 -0.08686829 328.2039
v 68.17359 -0.08686829 328.2039
v 68.60727 -0.08686829 329.5049
v 68.17359 -0.08686829 329.5049
v 72.51033 -0.08686829 326.9029
v 71.64297 -0.08686829 326.9029
v 72.51033 -0.08686829 327.7702
v 71.64297 -0.08686829 327.7702
v 82.48482 -0.08686829 326.4692
v 81.61747 -0.08686829 326.4692
v 82.48482 -0.08686829 327.3365
v 81.61747 -0.08686829 327.3365
v 79.88277 -0.08686829 326.0355
v 78.58176 -0.08686829 326.0355
v 79.88277 -0.08686829 327.3365
v 78.58176 -0.08686829 327.3365
v 81.18379 -0.08686829 326.0355
v 80.31644 -0.08686829 326.0355
v 81.18379 -0.08686829 327.3365
v 80.31644 -0.08686829 327.3365
v 67.30624 -0.08686829 325.6019
v 66.4389 -0.08686829 325.6019
v 67.30624 -0.08686829 326.9029
v 66.4389 -0.08686829 326.9029
v 86.38787 -0.08686829 325.1682
v 85.52053 -0.08686829 325.1682
v 86.38787 -0.08686829 326.4692
v 85.52053 -0.08686829 326.4692
v 82.91849 -0.08686829 324.7345
v 82.05114 -0.08686829 324.7345
v 82.91849 -0.08686829 326.0355
v 82.05114 -0.08686829 326.0355
v 66.4389 -0.08686829 324.3008
v 65.57155 -0.08686829 324.3008
v 66.4389 -0.08686829 325.6019
v 65.57155 -0.08686829 325.6019
v 88.98991 -0.08686829 324.7345
v 88.12257 -0.08686829 324.7345
v 88.98991 -0.08686829 326.0355
v 88.12257 -0.08686829 326.0355
v 82.05114 -0.08686829 324.3008
v 81.18379 -0.08686829 324.3008
v 82.05114 -0.08686829 325.6019
v 81.18379 -0.08686829 325.6019
v 70.34196 -0.08686829 324.3008
v 69.47461 -0.08686829 324.3008
v 70.34196 -0.08686829 325.6019
v 69.47461 -0.08686829 325.6019
v 85.08685 -0.08686829 323.8672
v 84.21951 -0.08686829 323.8672
v 85.08685 -0.08686829 325.1682
v 84.21951 -0.08686829 325.1682
v 83.78584 -0.08686829 323.8672
v 82.91849 -0.08686829 323.8672
v 83.78584 -0.08686829 325.1682
v 82.91849 -0.08686829 325.1682
v 80.75012 -0.08686829 323.8672
v 79.88277 -0.08686829 323.8672
v 80.75012 -0.08686829 325.1682
v 79.88277 -0.08686829 325.1682
v 85.9542 -0.08686829 323.4335
v 85.08685 -0.08686829 323.4335
v 85.9542 -0.08686829 324.7345
v 85.08685 -0.08686829 324.7345
v 71.2093 -0.08686829 323.4335
v 70.34196 -0.08686829 323.4335
v 71.2093 -0.08686829 324.7345
v 70.34196 -0.08686829 324.7345
v 67.73991 -0.08686829 323.4335
v 66.87257 -0.08686829 323.4335
v 67.73991 -0.08686829 324.7345
v 66.87257 -0.08686829 324.7345
v 64.70421 -0.08686829 322.9998
v 63.83686 -0.08686829 322.9998
v 64.70421 -0.08686829 324.3008
v 63.83686 -0.08686829 324.3008
vt 0 0.9058824
vt 0.06666667 0.9058824
vt 0 1
vt 0.06666667 1
vt 0 0.9058824
vt 0.06666667 0.9058824
vt 0 1
vt 0.06666667 1
vt 0 0.9058824
vt 0.06666667 0.9058824
vt 0 1
vt 0.06666667 1
vt 0 0.9058824
vt 0.06666667 0.9058824
vt 0 1
vt 0.06666667 1
vt 0 0.9058824
vt 0.06666667 0.9058824
vt 0 1
vt 0.06666667 1
vt 0 0.9058824
vt 0.06666667 0.9058824
vt 0 1
vt 0.06666667 1
vt 0 0.9058824
vt 0.06666667 0.9058824
vt 0 1
vt 0.06666667 1
vt 0 0.9058824
vt 0.06666667 0.9058824
vt 0 1
vt 0.06666667 1
vt 0 0.9058824
vt 0.06666667 0.9058824
vt 0 1
vt 0.06666667 1
vt 0 0.9058824
vt 0.06666667 0.9058824
vt 0 1
vt 0.06666667 1
vt 0 0.9058824
vt 0.06666667 0.9058824
vt 0 1
vt 0.06666667 1
vt 0 0.9058824
vt 0.06666667 0.9058824
vt 0 1
vt 0.06666667 1
vt 0 0.9058824
vt 0.06666667 0.9058824
vt 0 1
vt 0.06666667 1
vt 0 0.9058824
vt 0.06666667 0.9058824
vt 0 1
vt 0.06666667 1
vt 0 0.9058824
vt 0.06666667 0.9058824
vt 0 1
vt 0.06666667 1
vt 0 0.9058824
vt 0.06666667 0.9058824
vt 0 1
vt 0.06666667 1
vt 0 0.9058824
vt 0.06666667 0.9058824
vt 0 1
vt 0.06666667 1
vt 0 0.9058824
vt 0.06666667 0.9058824
vt 0 1
vt 0.06666667 1
vt 0 0.9058824
vt 0.06666667 0.9058824
vt 0 1
vt 0.06666667 1
vt 0 0.9058824
vt 0.06666667 0.9058824
vt 0 1
vt 0.06666667 1
vt 0 0.9058824
vt 0.06666667 0.9058824
vt 0 1
vt 0.06666667 1
vt 0 0.9058824
vt 0.06666667 0.9058824
vt 0 1
vt 0.06666667 1
vt 0 0.9058824
vt 0.06666667 0.9058824
vt 0 1
vt 0.06666667 1
vt 0 0.9058824
vt 0.06666667 0.9058824
vt 0 1
vt 0.06666667 1
vt 0 0.9058824
vt 0.06666667 0.9058824
vt 0 1
vt 0.06666667 1
vt 0 0.9058824
vt 0.06666667 0.9058824
vt 0 1
vt 0.06666667 1
vt 0 0.9058824
vt 0.06666667 0.9058824
vt 0 1
vt 0.06666667 1
vt 0 0.9058824
vt 0.06666667 0.9058824
vt 0 1
vt 0.06666667 1
vt 0 0.9058824
vt 0.06666667 0.9058824
vt 0 1
vt 0.06666667 1
vt 0 0.9058824
vt 0.06666667 0.9058824
vt 0 1
vt 0.06666667 1
vt 0 0.9058824
vt 0.06666667 0.9058824
vt 0 1
vt 0.06666667 1
vt 0 0.9058824
vt 0.06666667 0.9058824
vt 0 1
vt 0.06666667 1
vt 0 0.9058824
vt 0.06666667 0.9058824
vt 0 1
vt 0.06666667 1
vt 0 0.9058824
vt 0.06666667 0.9058824
vt 0 1
vt 0.06666667 1
vt 0 0.9058824
vt 0.06666667 0.9058824
vt 0 1
vt 0.06666667 1
vt 0 0.9058824
vt 0.06666667 0.9058824
vt 0 1
vt 0.06666667 1
vn 0 1 0
vn 0 1 0
vn 0 1 0
vn 0 1 0
vn 0 1 0
vn 0 1 0
vn 0 1 0
vn 0 1 0
vn 0 1 0
vn 0 1 0
vn 0 1 0
vn 0 1 0
vn 0 1 0
vn 0 1 0
vn 0 1 0
vn 0 1 0
vn 0 1 0
vn 0 1 0
vn 0 1 0
vn 0 1 0
vn 0 1 0
vn 0 1 0
vn 0 1 0
vn 0 1 0
vn 0 1 0
vn 0 1 0
vn 0 1 0
vn 0 1 0
vn 0 1 0
vn 0 1 0
vn 0 1 0
vn 0 1 0
vn 0 1 0
vn 0 1 0
vn 0 1 0
vn 0 1 0
vn 0 1 0
vn 0 1 0
vn 0 1 0
vn 0 1 0
vn 0 1 0
vn 0 1 0
vn 0 1 0
vn 0 1 0
vn 0 1 0
vn 0 1 0
vn 0 1 0
vn 0 1 0
vn 0 1 0
vn 0 1 0
vn 0 1 0
vn 0 1 0
vn 0 1 0
vn 0 1 0
vn 0 1 0
vn 0 1 0
vn 0 1 0
vn 0 1 0
vn 0 1 0
vn 0 1 0
vn 0 1 0
vn 0 1 0
vn 0 1 0
vn 0 1 0
vn 0 1 0
vn 0 1 0
vn 0 1 0
vn 0 1 0
vn 0 1 0
vn 0 1 0
vn 0 1 0
vn 0 1 0
vn 0 1 0
vn 0 1 0
vn 0 1 0
vn 0 1 0
vn 0 1 0
vn 0 1 0
vn 0 1 0
vn 0 1 0
vn 0 1 0
vn 0 1 0
vn 0 1 0
vn 0 1 0
vn 0 1 0
vn 0 1 0
vn 0 1 0
vn 0 1 0
vn 0 1 0
vn 0 1 0
vn 0 1 0
vn 0 1 0
vn 0 1 0
vn 0 1 0
vn 0 1 0
vn 0 1 0
vn 0 1 0
vn 0 1 0
vn 0 1 0
vn 0 1 0
vn 0 1 0
vn 0 1 0
vn 0 1 0
vn 0 1 0
vn 0 1 0
vn 0 1 0
vn 0 1 0
vn 0 1 0
vn 0 1 0
vn 0 1 0
vn 0 1 0
vn 0 1 0
vn 0 1 0
vn 0 1 0
vn 0 1 0
vn 0 1 0
vn 0 1 0
vn 0 1 0
vn 0 1 0
vn 0 1 0
vn 0 1 0
vn 0 1 0
vn 0 1 0
vn 0 1 0
vn 0 1 0
vn 0 1 0
vn 0 1 0
vn 0 1 0
vn 0 1 0
vn 0 1 0
vn 0 1 0
vn 0 1 0
vn 0 1 0
vn 0 1 0
vn 0 1 0
vn 0 1 0
vn 0 1 0
vn 0 1 0
vn 0 1 0
vn 0 1 0
vn 0 1 0
vn 0 1 0
vn 0 1 0
vn 0 1 0
g Grass_0_Cluster247_0
f 2/2/2 3/3/3 1/1/1
f 2/2/2 4/4/4 3/3/3
f 6/6/6 7/7/7 5/5/5
f 6/6/6 8/8/8 7/7/7
f 10/10/10 11/11/11 9/9/9
f 10/10/10 12/12/12 11/11/11
f 14/14/14 15/15/15 13/13/13
f 14/14/14 16/16/16 15/15/15
f 18/18/18 19/19/19 17/17/17
f 18/18/18 20/20/20 19/19/19
f 22/22/22 23/23/23 21/21/21
f 22/22/22 24/24/24 23/23/23
f 26/26/26 27/27/27 25/25/25
f 26/26/26 28/28/28 27/27/27
f 30/30/30 31/31/31 29/29/29
f 30/30/30 32/32/32 31/31/31
f 34/34/34 35/35/35 33/33/33
f 34/34/34 36/36/36 35/35/35
f 38/38/38 39/39/39 37/37/37
f 38/38/38 40/40/40 39/39/39
f 42/42/42 43/43/43 41/41/41
f 42/42/42 44/44/44 43/43/43
f 46/46/46 47/47/47 45/45/45
f 46/46/46 48/48/48 47/47/47
f 50/50/50 51/51/51 49/49/49
f 50/50/50 52/52/52 51/51/51
f 54/54/54 55/55/55 53/53/53
f 54/54/54 56/56/56 55/55/55
f 58/58/58 59/59/59 57/57/57
f 58/58/58 60/60/60 59/59/59
f 62/62/62 63/63/63 61/61/61
f 62/62/62 64/64/64 63/63/63
f 66/66/66 67/67/67 65/65/65
f 66/66/66 68/68/68 67/67/67
f 70/70/70 71/71/71 69/69/69
f 70/70/70 72/72/72 71/71/71
f 74/74/74 75/75/75 73/73/73
f 74/74/74 76/76/76 75/75/75
f 78/78/78 79/79/79 77/77/77
f 78/78/78 80/80/80 79/79/79
f 82/82/82 83/83/83 81/81/81
f 82/82/82 84/84/84 83/83/83
f 86/86/86 87/87/87 85/85/85
f 86/86/86 88/88/88 87/87/87
f 90/90/90 91/91/91 89/89/89
f 90/90/90 92/92/92 91/91/91
f 94/94/94 95/95/95 93/93/93
f 94/94/94 96/96/96 95/95/95
f 98/98/98 99/99/99 97/97/97
f 98/98/98 100/100/100 99/99/99
f 102/102/102 103/103/103 101/101/101
f 102/102/102 104/104/104 103/103/103
f 106/106/106 107/107/107 105/105/105
f 106/106/106 108/108/108 107/107/107
f 110/110/110 111/111/111 109/109/109
f 110/110/110 112/112/112 111/111/111
f 114/114/114 115/115/115 113/113/113
f 114/114/114 116/116/116 115/115/115
f 118/118/118 119/119/119 117/117/117
f 118/118/118 120/120/120 119/119/119
f 122/122/122 123/123/123 121/121/121
f 122/122/122 124/124/124 123/123/123
f 126/126/126 127/127/127 125/125/125
f 126/126/126 128/128/128 127/127/127
f 130/130/130 131/131/131 129/129/129
f 130/130/130 132/132/132 131/131/131
f 134/134/134 135/135/135 133/133/133
f 134/134/134 136/136/136 135/135/135
f 138/138/138 139/139/139 137/137/137
f 138/138/138 140/140/140 139/139/139
f 142/142/142 143/143/143 141/141/141
f 142/142/142 144/144/144 143/143/143
