g Grass_2_Cluster271
v -52.1441 0 382.6401
v -53.26951 0 382.6401
v -52.1441 0 383.7656
v -53.26951 0 383.7656
v -54.39492 0 381.1396
v -55.52034 0 381.1396
v -54.39492 0 382.265
v -55.52034 0 382.265
v -54.01979 0 379.639
v -55.1452 0 379.639
v -54.01979 0 380.7645
v -55.1452 0 380.7645
v -55.89547 0 379.2639
v -57.02089 0 379.2639
v -55.89547 0 380.3893
v -57.02089 0 380.3893
v -53.64465 0 378.8888
v -54.77006 0 378.8888
v -53.64465 0 380.0142
v -54.77006 0 380.0142
v -56.64575 0 378.1385
v -57.77116 0 378.1385
v -56.64575 0 379.2639
v -57.77116 0 379.2639
v -55.1452 0 378.1385
v -55.89547 0 378.1385
v -55.1452 0 378.8888
v -55.89547 0 378.8888
v -54.39492 0 377.7634
v -55.1452 0 377.7634
v -54.39492 0 378.8888
v -55.1452 0 378.8888
v -55.89547 0 377.7634
v -57.02089 0 377.7634
v -55.89547 0 378.8888
v -57.02089 0 378.8888
v -53.26951 0 377.3882
v -54.39492 0 377.3882
v -53.26951 0 378.5136
v -54.39492 0 378.5136
v -59.27171 0 377.0131
v -60.39712 0 377.0131
v -59.27171 0 378.1385
v -60.39712 0 378.1385
v -58.52143 0 375.8877
v -59.27171 0 375.8877
v -58.52143 0 377.0131
v -59.27171 0 377.0131
v -55.89547 0 375.8877
v -56.64575 0 375.8877
v -55.89547 0 377.0131
v -56.64575 0 377.0131
v -29.63585 0 375.5125
v -30.38613 0 375.5125
v -29.63585 0 376.6379
v -30.38613 0 376.6379
v -30.01099 0 374.3871
v -31.1364 0 374.3871
v -30.01099 0 375.5125
v -31.1364 0 375.5125
v -43.51594 0 372.5114
v -44.26621 0 372.5114
v -43.51594 0 373.6368
v -44.26621 0 373.6368
v -44.26621 0 372.1363
v -45.39162 0 372.1363
v -44.26621 0 373.2617
v -45.39162 0 373.2617
v -45.01649 0 369.8855
v -45.76676 0 369.8855
v -45.01649 0 371.0109
v -45.76676 0 371.0109
v -42.76566 0 369.5103
v -43.89108 0 369.5103
v -42.76566 0 370.6357
v -43.89108 0 370.6357
v -43.1408 0 368.7601
v -43.89108 0 368.7601
v -43.1408 0 369.8855
v -43.89108 0 369.8855
v -45.76676 0 368.3849
v -46.89217 0 368.3849
v -45.76676 0 369.5103
v -46.89217 0 369.5103
v -44.26621 0 368.3849
v -45.39162 0 368.3849
v -44.26621 0 369.5103
v -45.39162 0 369.5103
v -41.26511 0 368.0098
v -42.39053 0 368.0098
v -41.26511 0 369.1352
v -42.39053 0 369.1352
v -44.64135 0 368.0098
v -45.39162 0 368.0098
v -44.64135 0 369.1352
v -45.39162 0 369.1352
v -41.64025 0 367.6346
v -42.76566 0 367.6346
v -41.64025 0 368.7601
v -42.76566 0 368.7601
v -43.1408 0 367.2595
v -44.26621 0 367.2595
v -43.1408 0 368.3849
v -44.26621 0 368.3849
v -45.39162 0 366.8844
v -46.51704 0 366.8844
v -45.39162 0 368.0098
v -46.51704 0 368.0098
v -42.76566 0 366.8844
v -43.51594 0 366.8844
v -42.76566 0 368.0098
v -43.51594 0 368.0098
v -46.89217 0 366.8844
v -48.01759 0 366.8844
v -46.89217 0 368.0098
v -48.01759 0 368.0098
v -41.26511 0 366.8844
v -42.01539 0 366.8844
v -41.26511 0 367.6346
v -42.01539 0 367.6346
v -43.51594 0 366.5092
v -44.64135 0 366.5092
v -43.51594 0 367.6346
v -44.64135 0 367.6346
v -45.01649 0 366.1341
v -46.1419 0 366.1341
v -45.01649 0 367.2595
v -46.1419 0 367.2595
v -43.89108 0 365.759
v -44.64135 0 365.759
v -43.89108 0 366.8844
v -44.64135 0 366.8844
v -39.38943 0 365.759
v -40.51484 0 365.759
v -39.38943 0 366.8844
v -40.51484 0 366.8844
v -42.39053 0 365.3838
v -43.1408 0 365.3838
v -42.39053 0 366.5092
v -43.1408 0 366.5092
v -45.39162 0 365.3838
v -46.1419 0 365.3838
v -45.39162 0 366.5092
v -46.1419 0 366.5092
v -46.51704 0 365.3838
v -47.26731 0 365.3838
v -46.51704 0 366.5092
v -47.26731 0 366.5092
v -46.1419 0 365.3838
v -46.89217 0 365.3838
v -46.1419 0 366.1341
v -46.89217 0 366.1341
v -42.01539 0 365.0087
v -43.1408 0 365.0087
v -42.01539 0 365.759
v -43.1408 0 365.759
v -45.39162 0 364.6335
v -46.51704 0 364.6335
v -45.39162 0 365.3838
v -46.51704 0 365.3838
v -43.1408 0 363.8833
v -44.26621 0 363.8833
v -43.1408 0 365.0087
v -44.26621 0 365.0087
v -42.01539 0 363.5081
v -43.1408 0 363.5081
v -42.01539 0 364.6335
v -43.1408 0 364.6335
v -44.26621 0 363.5081
v -45.01649 0 363.5081
v -44.26621 0 364.6335
v -45.01649 0 364.6335
v -39.76456 0 361.6324
v -40.88998 0 361.6324
v -39.76456 0 362.7579
v -40.88998 0 362.7579
v -53.64465 0 361.2573
v -54.77006 0 361.2573
v -53.64465 0 362.3827
v -54.77006 0 362.3827
v -44.64135 0 360.1319
v -45.39162 0 360.1319
v -44.64135 0 361.2573
v -45.39162 0 361.2573
v -57.39602 0 356.7557
v -58.52143 0 356.7557
v -57.39602 0 357.8811
v -58.52143 0 357.8811
v -30.76127 0 356.0054
v -31.88668 0 356.0054
v -30.76127 0 357.1308
v -31.88668 0 357.1308
vt 0.1347656 0.9185662
vt 0.2060202 0.9185662
vt 0.1347656 1
vt 0.2060202 1
vt 0.1347656 0.9185662
vt 0.2060202 0.9185662
vt 0.1347656 1
vt 0.2060202 1
vt 0.1347656 0.9185662
vt 0.2060202 0.9185662
vt 0.1347656 1
vt 0.2060202 1
vt 0.1347656 0.9185662
vt 0.2060202 0.9185662
vt 0.1347656 1
vt 0.2060202 1
vt 0.1347656 0.9185662
vt 0.2060202 0.9185662
vt 0.1347656 1
vt 0.2060202 1
vt 0.1347656 0.9185662
vt 0.2060202 0.9185662
vt 0.1347656 1
vt 0.2060202 1
vt 0.1347656 0.9185662
vt 0.2060202 0.9185662
vt 0.1347656 1
vt 0.2060202 1
vt 0.1347656 0.9185662
vt 0.2060202 0.9185662
vt 0.1347656 1
vt 0.2060202 1
vt 0.1347656 0.9185662
vt 0.2060202 0.9185662
vt 0.1347656 1
vt 0.2060202 1
vt 0.1347656 0.9185662
vt 0.2060202 0.9185662
vt 0.1347656 1
vt 0.2060202 1
vt 0.1347656 0.9185662
vt 0.2060202 0.9185662
vt 0.1347656 1
vt 0.2060202 1
vt 0.1347656 0.9185662
vt 0.2060202 0.9185662
vt 0.1347656 1
vt 0.2060202 1
vt 0.1347656 0.9185662
vt 0.2060202 0.9185662
vt 0.1347656 1
vt 0.2060202 1
vt 0.1347656 0.9185662
vt 0.2060202 0.9185662
vt 0.1347656 1
vt 0.2060202 1
vt 0.1347656 0.9185662
vt 0.2060202 0.9185662
vt 0.1347656 1
vt 0.2060202 1
vt 0.1347656 0.9185662
vt 0.2060202 0.9185662
vt 0.1347656 1
vt 0.2060202 1
vt 0.1347656 0.9185662
vt 0.2060202 0.9185662
vt 0.1347656 1
vt 0.2060202 1
vt 0.1347656 0.9185662
vt 0.2060202 0.9185662
vt 0.1347656 1
vt 0.2060202 1
vt 0.1347656 0.9185662
vt 0.2060202 0.9185662
vt 0.1347656 1
vt 0.2060202 1
vt 0.1347656 0.9185662
vt 0.2060202 0.9185662
vt 0.1347656 1
vt 0.2060202 1
vt 0.1347656 0.9185662
vt 0.2060202 0.9185662
vt 0.1347656 1
vt 0.2060202 1
vt 0.1347656 0.9185662
vt 0.2060202 0.9185662
vt 0.1347656 1
vt 0.2060202 1
vt 0.1347656 0.9185662
vt 0.2060202 0.9185662
vt 0.1347656 1
vt 0.2060202 1
vt 0.1347656 0.9185662
vt 0.2060202 0.9185662
vt 0.1347656 1
vt 0.2060202 1
vt 0.1347656 0.9185662
vt 0.2060202 0.9185662
vt 0.1347656 1
vt 0.2060202 1
vt 0.1347656 0.9185662
vt 0.2060202 0.9185662
vt 0.1347656 1
vt 0.2060202 1
vt 0.1347656 0.9185662
vt 0.2060202 0.9185662
vt 0.1347656 1
vt 0.2060202 1
vt 0.1347656 0.9185662
vt 0.2060202 0.9185662
vt 0.1347656 1
vt 0.2060202 1
vt 0.1347656 0.9185662
vt 0.2060202 0.9185662
vt 0.1347656 1
vt 0.2060202 1
vt 0.1347656 0.9185662
vt 0.2060202 0.9185662
vt 0.1347656 1
vt 0.2060202 1
vt 0.1347656 0.9185662
vt 0.2060202 0.9185662
vt 0.1347656 1
vt 0.2060202 1
vt 0.1347656 0.9185662
vt 0.2060202 0.9185662
vt 0.1347656 1
vt 0.2060202 1
vt 0.1347656 0.9185662
vt 0.2060202 0.9185662
vt 0.1347656 1
vt 0.2060202 1
vt 0.1347656 0.9185662
vt 0.2060202 0.9185662
vt 0.1347656 1
vt 0.2060202 1
vt 0.1347656 0.9185662
vt 0.2060202 0.9185662
vt 0.1347656 1
vt 0.2060202 1
vt 0.1347656 0.9185662
vt 0.2060202 0.9185662
vt 0.1347656 1
vt 0.2060202 1
vt 0.1347656 0.9185662
vt 0.2060202 0.9185662
vt 0.1347656 1
vt 0.2060202 1
vt 0.1347656 0.9185662
vt 0.2060202 0.9185662
vt 0.1347656 1
vt 0.2060202 1
vt 0.1347656 0.9185662
vt 0.2060202 0.9185662
vt 0.1347656 1
vt 0.2060202 1
vt 0.1347656 0.9185662
vt 0.2060202 0.9185662
vt 0.1347656 1
vt 0.2060202 1
vt 0.1347656 0.9185662
vt 0.2060202 0.9185662
vt 0.1347656 1
vt 0.2060202 1
vt 0.1347656 0.9185662
vt 0.2060202 0.9185662
vt 0.1347656 1
vt 0.2060202 1
vt 0.1347656 0.9185662
vt 0.2060202 0.9185662
vt 0.1347656 1
vt 0.2060202 1
vt 0.1347656 0.9185662
vt 0.2060202 0.9185662
vt 0.1347656 1
vt 0.2060202 1
vt 0.1347656 0.9185662
vt 0.2060202 0.9185662
vt 0.1347656 1
vt 0.2060202 1
vt 0.1347656 0.9185662
vt 0.2060202 0.9185662
vt 0.1347656 1
vt 0.2060202 1
vt 0.1347656 0.9185662
vt 0.2060202 0.9185662
vt 0.1347656 1
vt 0.2060202 1
vt 0.1347656 0.9185662
vt 0.2060202 0.9185662
vt 0.1347656 1
vt 0.2060202 1
vn 0 1 0
vn 0 1 0
vn 0 1 0
vn 0 1 0
vn 0 1 0
vn 0 1 0
vn 0 1 0
vn 0 1 0
vn 0 1 0
vn 0 1 0
vn 0 1 0
vn 0 1 0
vn 0 1 0
vn 0 1 0
vn 0 1 0
vn 0 1 0
vn 0 1 0
vn 0 1 0
vn 0 1 0
vn 0 1 0
vn 0 1 0
vn 0 1 0
vn 0 1 0
vn 0 1 0
vn 0 1 0
vn 0 1 0
vn 0 1 0
vn 0 1 0
vn 0 1 0
vn 0 1 0
vn 0 1 0
vn 0 1 0
vn 0 1 0
vn 0 1 0
vn 0 1 0
vn 0 1 0
vn 0 1 0
vn 0 1 0
vn 0 1 0
vn 0 1 0
vn 0 1 0
vn 0 1 0
vn 0 1 0
vn 0 1 0
vn 0 1 0
vn 0 1 0
vn 0 1 0
vn 0 1 0
vn 0 1 0
vn 0 1 0
vn 0 1 0
vn 0 1 0
vn 0 1 0
vn 0 1 0
vn 0 1 0
vn 0 1 0
vn 0 1 0
vn 0 1 0
vn 0 1 0
vn 0 1 0
vn 0 1 0
vn 0 1 0
vn 0 1 0
vn 0 1 0
vn 0 1 0
vn 0 1 0
vn 0 1 0
vn 0 1 0
vn 0 1 0
vn 0 1 0
vn 0 1 0
vn 0 1 0
vn 0 1 0
vn 0 1 0
vn 0 1 0
vn 0 1 0
vn 0 1 0
vn 0 1 0
vn 0 1 0
vn 0 1 0
vn 0 1 0
vn 0 1 0
vn 0 1 0
vn 0 1 0
vn 0 1 0
vn 0 1 0
vn 0 1 0
vn 0 1 0
vn 0 1 0
vn 0 1 0
vn 0 1 0
vn 0 1 0
vn 0 1 0
vn 0 1 0
vn 0 1 0
vn 0 1 0
vn 0 1 0
vn 0 1 0
vn 0 1 0
vn 0 1 0
vn 0 1 0
vn 0 1 0
vn 0 1 0
vn 0 1 0
vn 0 1 0
vn 0 1 0
vn 0 1 0
vn 0 1 0
vn 0 1 0
vn 0 1 0
vn 0 1 0
vn 0 1 0
vn 0 1 0
vn 0 1 0
vn 0 1 0
vn 0 1 0
vn 0 1 0
vn 0 1 0
vn 0 1 0
vn 0 1 0
vn 0 1 0
vn 0 1 0
vn 0 1 0
vn 0 1 0
vn 0 1 0
vn 0 1 0
vn 0 1 0
vn 0 1 0
vn 0 1 0
vn 0 1 0
vn 0 1 0
vn 0 1 0
vn 0 1 0
vn 0 1 0
vn 0 1 0
vn 0 1 0
vn 0 1 0
vn 0 1 0
vn 0 1 0
vn 0 1 0
vn 0 1 0
vn 0 1 0
vn 0 1 0
vn 0 1 0
vn 0 1 0
vn 0 1 0
vn 0 1 0
vn 0 1 0
vn 0 1 0
vn 0 1 0
vn 0 1 0
vn 0 1 0
vn 0 1 0
vn 0 1 0
vn 0 1 0
vn 0 1 0
vn 0 1 0
vn 0 1 0
vn 0 1 0
vn 0 1 0
vn 0 1 0
vn 0 1 0
vn 0 1 0
vn 0 1 0
vn 0 1 0
vn 0 1 0
vn 0 1 0
vn 0 1 0
vn 0 1 0
vn 0 1 0
vn 0 1 0
vn 0 1 0
vn 0 1 0
vn 0 1 0
vn 0 1 0
vn 0 1 0
vn 0 1 0
vn 0 1 0
vn 0 1 0
vn 0 1 0
vn 0 1 0
vn 0 1 0
vn 0 1 0
vn 0 1 0
vn 0 1 0
vn 0 1 0
vn 0 1 0
vn 0 1 0
vn 0 1 0
vn 0 1 0
vn 0 1 0
vn 0 1 0
g Grass_2_Cluster271_0
f 2/2/2 3/3/3 1/1/1
f 2/2/2 4/4/4 3/3/3
f 6/6/6 7/7/7 5/5/5
f 6/6/6 8/8/8 7/7/7
f 10/10/10 11/11/11 9/9/9
f 10/10/10 12/12/12 11/11/11
f 14/14/14 15/15/15 13/13/13
f 14/14/14 16/16/16 15/15/15
f 18/18/18 19/19/19 17/17/17
f 18/18/18 20/20/20 19/19/19
f 22/22/22 23/23/23 21/21/21
f 22/22/22 24/24/24 23/23/23
f 26/26/26 27/27/27 25/25/25
f 26/26/26 28/28/28 27/27/27
f 30/30/30 31/31/31 29/29/29
f 30/30/30 32/32/32 31/31/31
f 34/34/34 35/35/35 33/33/33
f 34/34/34 36/36/36 35/35/35
f 38/38/38 39/39/39 37/37/37
f 38/38/38 40/40/40 39/39/39
f 42/42/42 43/43/43 41/41/41
f 42/42/42 44/44/44 43/43/43
f 46/46/46 47/47/47 45/45/45
f 46/46/46 48/48/48 47/47/47
f 50/50/50 51/51/51 49/49/49
f 50/50/50 52/52/52 51/51/51
f 54/54/54 55/55/55 53/53/53
f 54/54/54 56/56/56 55/55/55
f 58/58/58 59/59/59 57/57/57
f 58/58/58 60/60/60 59/59/59
f 62/62/62 63/63/63 61/61/61
f 62/62/62 64/64/64 63/63/63
f 66/66/66 67/67/67 65/65/65
f 66/66/66 68/68/68 67/67/67
f 70/70/70 71/71/71 69/69/69
f 70/70/70 72/72/72 71/71/71
f 74/74/74 75/75/75 73/73/73
f 74/74/74 76/76/76 75/75/75
f 78/78/78 79/79/79 77/77/77
f 78/78/78 80/80/80 79/79/79
f 82/82/82 83/83/83 81/81/81
f 82/82/82 84/84/84 83/83/83
f 86/86/86 87/87/87 85/85/85
f 86/86/86 88/88/88 87/87/87
f 90/90/90 91/91/91 89/89/89
f 90/90/90 92/92/92 91/91/91
f 94/94/94 95/95/95 93/93/93
f 94/94/94 96/96/96 95/95/95
f 98/98/98 99/99/99 97/97/97
f 98/98/98 100/100/100 99/99/99
f 102/102/102 103/103/103 101/101/101
f 102/102/102 104/104/104 103/103/103
f 106/106/106 107/107/107 105/105/105
f 106/106/106 108/108/108 107/107/107
f 110/110/110 111/111/111 109/109/109
f 110/110/110 112/112/112 111/111/111
f 114/114/114 115/115/115 113/113/113
f 114/114/114 116/116/116 115/115/115
f 118/118/118 119/119/119 117/117/117
f 118/118/118 120/120/120 119/119/119
f 122/122/122 123/123/123 121/121/121
f 122/122/122 124/124/124 123/123/123
f 126/126/126 127/127/127 125/125/125
f 126/126/126 128/128/128 127/127/127
f 130/130/130 131/131/131 129/129/129
f 130/130/130 132/132/132 131/131/131
f 134/134/134 135/135/135 133/133/133
f 134/134/134 136/136/136 135/135/135
f 138/138/138 139/139/139 137/137/137
f 138/138/138 140/140/140 139/139/139
f 142/142/142 143/143/143 141/141/141
f 142/142/142 144/144/144 143/143/143
f 146/146/146 147/147/147 145/145/145
f 146/146/146 148/148/148 147/147/147
f 150/150/150 151/151/151 149/149/149
f 150/150/150 152/152/152 151/151/151
f 154/154/154 155/155/155 153/153/153
f 154/154/154 156/156/156 155/155/155
f 158/158/158 159/159/159 157/157/157
f 158/158/158 160/160/160 159/159/159
f 162/162/162 163/163/163 161/161/161
f 162/162/162 164/164/164 163/163/163
f 166/166/166 167/167/167 165/165/165
f 166/166/166 168/168/168 167/167/167
f 170/170/170 171/171/171 169/169/169
f 170/170/170 172/172/172 171/171/171
f 174/174/174 175/175/175 173/173/173
f 174/174/174 176/176/176 175/175/175
f 178/178/178 179/179/179 177/177/177
f 178/178/178 180/180/180 179/179/179
f 182/182/182 183/183/183 181/181/181
f 182/182/182 184/184/184 183/183/183
f 186/186/186 187/187/187 185/185/185
f 186/186/186 188/188/188 187/187/187
f 190/190/190 191/191/191 189/189/189
f 190/190/190 192/192/192 191/191/191
