g Grass_1_Cluster208
v 56.98913 0.06891251 284.3522
v 55.98222 0.06891251 284.3522
v 56.98913 0.06891251 285.0235
v 55.98222 0.06891251 285.0235
v 57.32476 0.06891251 282.3384
v 56.31786 0.06891251 282.3384
v 57.32476 0.06891251 283.0097
v 56.31786 0.06891251 283.0097
v 58.33167 0.06891251 282.0028
v 57.32476 0.06891251 282.0028
v 58.33167 0.06891251 282.674
v 57.32476 0.06891251 282.674
v 55.98222 0.06891251 280.6602
v 54.97532 0.06891251 280.6602
v 55.98222 0.06891251 281.3315
v 54.97532 0.06891251 281.3315
v 44.90625 0.06891251 271.5981
v 43.89934 0.06891251 271.5981
v 44.90625 0.06891251 272.2693
v 43.89934 0.06891251 272.2693
v 45.24188 0.06891251 269.5843
v 44.57061 0.06891251 269.5843
v 45.24188 0.06891251 270.2555
v 44.57061 0.06891251 270.2555
v 46.24879 0.06891251 269.2486
v 45.57752 0.06891251 269.2486
v 46.24879 0.06891251 269.9199
v 45.57752 0.06891251 269.9199
v 50.61205 0.06891251 268.913
v 49.60514 0.06891251 268.913
v 50.61205 0.06891251 269.5843
v 49.60514 0.06891251 269.5843
v 48.93388 0.06891251 268.2417
v 47.92697 0.06891251 268.2417
v 48.93388 0.06891251 269.2486
v 47.92697 0.06891251 269.2486
v 46.92006 0.06891251 266.8992
v 45.91315 0.06891251 266.8992
v 46.92006 0.06891251 267.5704
v 45.91315 0.06891251 267.5704
v 51.95459 0.06891251 266.2279
v 51.28332 0.06891251 266.2279
v 51.95459 0.06891251 267.2348
v 51.28332 0.06891251 267.2348
v 48.2626 0.06891251 265.221
v 47.2557 0.06891251 265.221
v 48.2626 0.06891251 266.2279
v 47.2557 0.06891251 266.2279
v 47.2557 0.06891251 265.221
v 46.58443 0.06891251 265.221
v 47.2557 0.06891251 265.8923
v 46.58443 0.06891251 265.8923
vt 0.06738281 0.9369141
vt 0.1331457 0.9369141
vt 0.06738281 0.9990234
vt 0.1331457 0.9990234
vt 0.06738281 0.9369141
vt 0.1331457 0.9369141
vt 0.06738281 0.9990234
vt 0.1331457 0.9990234
vt 0.06738281 0.9369141
vt 0.1331457 0.9369141
vt 0.06738281 0.9990234
vt 0.1331457 0.9990234
vt 0.06738281 0.9369141
vt 0.1331457 0.9369141
vt 0.06738281 0.9990234
vt 0.1331457 0.9990234
vt 0.06738281 0.9369141
vt 0.1331457 0.9369141
vt 0.06738281 0.9990234
vt 0.1331457 0.9990234
vt 0.06738281 0.9369141
vt 0.1331457 0.9369141
vt 0.06738281 0.9990234
vt 0.1331457 0.9990234
vt 0.06738281 0.9369141
vt 0.1331457 0.9369141
vt 0.06738281 0.9990234
vt 0.1331457 0.9990234
vt 0.06738281 0.9369141
vt 0.1331457 0.9369141
vt 0.06738281 0.9990234
vt 0.1331457 0.9990234
vt 0.06738281 0.9369141
vt 0.1331457 0.9369141
vt 0.06738281 0.9990234
vt 0.1331457 0.9990234
vt 0.06738281 0.9369141
vt 0.1331457 0.9369141
vt 0.06738281 0.9990234
vt 0.1331457 0.9990234
vt 0.06738281 0.9369141
vt 0.1331457 0.9369141
vt 0.06738281 0.9990234
vt 0.1331457 0.9990234
vt 0.06738281 0.9369141
vt 0.1331457 0.9369141
vt 0.06738281 0.9990234
vt 0.1331457 0.9990234
vt 0.06738281 0.9369141
vt 0.1331457 0.9369141
vt 0.06738281 0.9990234
vt 0.1331457 0.9990234
vn 0 1 0
vn 0 1 0
vn 0 1 0
vn 0 1 0
vn 0 1 0
vn 0 1 0
vn 0 1 0
vn 0 1 0
vn 0 1 0
vn 0 1 0
vn 0 1 0
vn 0 1 0
vn 0 1 0
vn 0 1 0
vn 0 1 0
vn 0 1 0
vn 0 1 0
vn 0 1 0
vn 0 1 0
vn 0 1 0
vn 0 1 0
vn 0 1 0
vn 0 1 0
vn 0 1 0
vn 0 1 0
vn 0 1 0
vn 0 1 0
vn 0 1 0
vn 0 1 0
vn 0 1 0
vn 0 1 0
vn 0 1 0
vn 0 1 0
vn 0 1 0
vn 0 1 0
vn 0 1 0
vn 0 1 0
vn 0 1 0
vn 0 1 0
vn 0 1 0
vn 0 1 0
vn 0 1 0
vn 0 1 0
vn 0 1 0
vn 0 1 0
vn 0 1 0
vn 0 1 0
vn 0 1 0
vn 0 1 0
vn 0 1 0
vn 0 1 0
vn 0 1 0
g Grass_1_Cluster208_0
f 2/2/2 3/3/3 1/1/1
f 2/2/2 4/4/4 3/3/3
f 6/6/6 7/7/7 5/5/5
f 6/6/6 8/8/8 7/7/7
f 10/10/10 11/11/11 9/9/9
f 10/10/10 12/12/12 11/11/11
f 14/14/14 15/15/15 13/13/13
f 14/14/14 16/16/16 15/15/15
f 18/18/18 19/19/19 17/17/17
f 18/18/18 20/20/20 19/19/19
f 22/22/22 23/23/23 21/21/21
f 22/22/22 24/24/24 23/23/23
f 26/26/26 27/27/27 25/25/25
f 26/26/26 28/28/28 27/27/27
f 30/30/30 31/31/31 29/29/29
f 30/30/30 32/32/32 31/31/31
f 34/34/34 35/35/35 33/33/33
f 34/34/34 36/36/36 35/35/35
f 38/38/38 39/39/39 37/37/37
f 38/38/38 40/40/40 39/39/39
f 42/42/42 43/43/43 41/41/41
f 42/42/42 44/44/44 43/43/43
f 46/46/46 47/47/47 45/45/45
f 46/46/46 48/48/48 47/47/47
f 50/50/50 51/51/51 49/49/49
f 50/50/50 52/52/52 51/51/51
