g Grass_0_Cluster110
v -23.2286 0 140.0629
v -24.19646 0 140.0629
v -23.2286 0 141.4456
v -24.19646 0 141.4456
v -11.33777 0 136.6063
v -12.30563 0 136.6063
v -11.33777 0 137.8507
v -12.30563 0 137.8507
v -29.58881 0 128.8634
v -30.4184 0 128.8634
v -29.58881 0 129.9695
v -30.4184 0 129.9695
v -28.62095 0 127.066
v -29.58881 0 127.066
v -28.62095 0 128.3103
v -29.58881 0 128.3103
v -0.9678583 0 126.5129
v -1.797451 0 126.5129
v -0.9678583 0 127.7573
v -1.797451 0 127.7573
v -17.69798 0 126.2364
v -18.52757 0 126.2364
v -17.69798 0 127.4808
v -18.52757 0 127.4808
v -29.17401 0 126.2364
v -30.00361 0 126.2364
v -29.17401 0 127.3425
v -30.00361 0 127.3425
v -16.86839 0 125.8216
v -17.69798 0 125.8216
v -16.86839 0 126.9277
v -17.69798 0 126.9277
v -16.03879 0 125.1302
v -17.00665 0 125.1302
v -16.03879 0 126.3746
v -17.00665 0 126.3746
v -0.1382655 0 125.1302
v -0.9678583 0 125.1302
v -0.1382655 0 126.3746
v -0.9678583 0 126.3746
v -14.10308 0 124.5772
v -14.93267 0 124.5772
v -14.10308 0 125.6833
v -14.93267 0 125.6833
v -12.72042 0 124.4389
v -13.55002 0 124.4389
v -12.72042 0 125.6833
v -13.55002 0 125.6833
v -7.051539 0 124.3007
v -8.019397 0 124.3007
v -7.051539 0 125.545
v -8.019397 0 125.545
v -3.04184 0 124.0241
v -4.009698 0 124.0241
v -3.04184 0 125.2685
v -4.009698 0 125.2685
v -3.733168 0 123.8859
v -4.701026 0 123.8859
v -3.733168 0 125.1302
v -4.701026 0 125.1302
v -16.59186 0 123.7476
v -17.42145 0 123.7476
v -16.59186 0 124.992
v -17.42145 0 124.992
v -5.392353 0 123.6093
v -6.221946 0 123.6093
v -5.392353 0 124.8537
v -6.221946 0 124.8537
v -11.33777 0 121.5353
v -12.30563 0 121.5353
v -11.33777 0 122.918
v -12.30563 0 122.918
v -10.64644 0 121.1206
v -11.47603 0 121.1206
v -10.64644 0 122.5032
v -11.47603 0 122.5032
v -9.540318 0 120.9823
v -10.36991 0 120.9823
v -9.540318 0 122.2267
v -10.36991 0 122.2267
v -6.775008 0 120.1527
v -7.742866 0 120.1527
v -6.775008 0 121.3971
v -7.742866 0 121.3971
v -5.80715 0 120.1527
v -6.636743 0 120.1527
v -5.80715 0 121.3971
v -6.636743 0 121.3971
v -6.360211 0 118.9083
v -7.32807 0 118.9083
v -6.360211 0 120.1527
v -7.32807 0 120.1527
v -9.263786 0 118.3552
v -10.09338 0 118.3552
v -9.263786 0 119.4614
v -10.09338 0 119.4614
v -22.26074 0 117.6639
v -23.09033 0 117.6639
v -22.26074 0 118.77
v -23.09033 0 118.77
v -20.87809 0 116.8343
v -21.70768 0 116.8343
v -20.87809 0 118.0787
v -21.70768 0 118.0787
v -26.54697 0 116.2813
v -27.51483 0 116.2813
v -26.54697 0 117.6639
v -27.51483 0 117.6639
v -24.05819 0 116.143
v -25.02605 0 116.143
v -24.05819 0 117.3874
v -25.02605 0 117.3874
v -26.96177 0 115.8665
v -27.79136 0 115.8665
v -26.96177 0 117.1109
v -27.79136 0 117.1109
v -23.91993 0 115.5899
v -24.88778 0 115.5899
v -23.91993 0 116.9726
v -24.88778 0 116.9726
v -25.02605 0 115.4517
v -25.99391 0 115.4517
v -25.02605 0 116.6961
v -25.99391 0 116.6961
v -19.6337 0 115.0369
v -20.46329 0 115.0369
v -19.6337 0 116.4195
v -20.46329 0 116.4195
v -22.39901 0 115.0369
v -23.2286 0 115.0369
v -22.39901 0 116.143
v -23.2286 0 116.143
v -21.43115 0 114.7603
v -22.26074 0 114.7603
v -21.43115 0 115.8665
v -22.26074 0 115.8665
v -1.935717 0 114.7603
v -2.765309 0 114.7603
v -1.935717 0 116.0047
v -2.765309 0 116.0047
v -6.083681 0 114.6221
v -7.051539 0 114.6221
v -6.083681 0 115.8665
v -7.051539 0 115.8665
v -23.64339 0 113.7925
v -24.47299 0 113.7925
v -23.64339 0 115.0369
v -24.47299 0 115.0369
v -22.8138 0 113.6542
v -23.78166 0 113.6542
v -22.8138 0 114.8986
v -23.78166 0 114.8986
vt 0 0.9058824
vt 0.06666667 0.9058824
vt 0 1
vt 0.06666667 1
vt 0 0.9058824
vt 0.06666667 0.9058824
vt 0 1
vt 0.06666667 1
vt 0 0.9058824
vt 0.06666667 0.9058824
vt 0 1
vt 0.06666667 1
vt 0 0.9058824
vt 0.06666667 0.9058824
vt 0 1
vt 0.06666667 1
vt 0 0.9058824
vt 0.06666667 0.9058824
vt 0 1
vt 0.06666667 1
vt 0 0.9058824
vt 0.06666667 0.9058824
vt 0 1
vt 0.06666667 1
vt 0 0.9058824
vt 0.06666667 0.9058824
vt 0 1
vt 0.06666667 1
vt 0 0.9058824
vt 0.06666667 0.9058824
vt 0 1
vt 0.06666667 1
vt 0 0.9058824
vt 0.06666667 0.9058824
vt 0 1
vt 0.06666667 1
vt 0 0.9058824
vt 0.06666667 0.9058824
vt 0 1
vt 0.06666667 1
vt 0 0.9058824
vt 0.06666667 0.9058824
vt 0 1
vt 0.06666667 1
vt 0 0.9058824
vt 0.06666667 0.9058824
vt 0 1
vt 0.06666667 1
vt 0 0.9058824
vt 0.06666667 0.9058824
vt 0 1
vt 0.06666667 1
vt 0 0.9058824
vt 0.06666667 0.9058824
vt 0 1
vt 0.06666667 1
vt 0 0.9058824
vt 0.06666667 0.9058824
vt 0 1
vt 0.06666667 1
vt 0 0.9058824
vt 0.06666667 0.9058824
vt 0 1
vt 0.06666667 1
vt 0 0.9058824
vt 0.06666667 0.9058824
vt 0 1
vt 0.06666667 1
vt 0 0.9058824
vt 0.06666667 0.9058824
vt 0 1
vt 0.06666667 1
vt 0 0.9058824
vt 0.06666667 0.9058824
vt 0 1
vt 0.06666667 1
vt 0 0.9058824
vt 0.06666667 0.9058824
vt 0 1
vt 0.06666667 1
vt 0 0.9058824
vt 0.06666667 0.9058824
vt 0 1
vt 0.06666667 1
vt 0 0.9058824
vt 0.06666667 0.9058824
vt 0 1
vt 0.06666667 1
vt 0 0.9058824
vt 0.06666667 0.9058824
vt 0 1
vt 0.06666667 1
vt 0 0.9058824
vt 0.06666667 0.9058824
vt 0 1
vt 0.06666667 1
vt 0 0.9058824
vt 0.06666667 0.9058824
vt 0 1
vt 0.06666667 1
vt 0 0.9058824
vt 0.06666667 0.9058824
vt 0 1
vt 0.06666667 1
vt 0 0.9058824
vt 0.06666667 0.9058824
vt 0 1
vt 0.06666667 1
vt 0 0.9058824
vt 0.06666667 0.9058824
vt 0 1
vt 0.06666667 1
vt 0 0.9058824
vt 0.06666667 0.9058824
vt 0 1
vt 0.06666667 1
vt 0 0.9058824
vt 0.06666667 0.9058824
vt 0 1
vt 0.06666667 1
vt 0 0.9058824
vt 0.06666667 0.9058824
vt 0 1
vt 0.06666667 1
vt 0 0.9058824
vt 0.06666667 0.9058824
vt 0 1
vt 0.06666667 1
vt 0 0.9058824
vt 0.06666667 0.9058824
vt 0 1
vt 0.06666667 1
vt 0 0.9058824
vt 0.06666667 0.9058824
vt 0 1
vt 0.06666667 1
vt 0 0.9058824
vt 0.06666667 0.9058824
vt 0 1
vt 0.06666667 1
vt 0 0.9058824
vt 0.06666667 0.9058824
vt 0 1
vt 0.06666667 1
vt 0 0.9058824
vt 0.06666667 0.9058824
vt 0 1
vt 0.06666667 1
vt 0 0.9058824
vt 0.06666667 0.9058824
vt 0 1
vt 0.06666667 1
vn 0 1 0
vn 0 1 0
vn 0 1 0
vn 0 1 0
vn 0 1 0
vn 0 1 0
vn 0 1 0
vn 0 1 0
vn 0 1 0
vn 0 1 0
vn 0 1 0
vn 0 1 0
vn 0 1 0
vn 0 1 0
vn 0 1 0
vn 0 1 0
vn 0 1 0
vn 0 1 0
vn 0 1 0
vn 0 1 0
vn 0 1 0
vn 0 1 0
vn 0 1 0
vn 0 1 0
vn 0 1 0
vn 0 1 0
vn 0 1 0
vn 0 1 0
vn 0 1 0
vn 0 1 0
vn 0 1 0
vn 0 1 0
vn 0 1 0
vn 0 1 0
vn 0 1 0
vn 0 1 0
vn 0 1 0
vn 0 1 0
vn 0 1 0
vn 0 1 0
vn 0 1 0
vn 0 1 0
vn 0 1 0
vn 0 1 0
vn 0 1 0
vn 0 1 0
vn 0 1 0
vn 0 1 0
vn 0 1 0
vn 0 1 0
vn 0 1 0
vn 0 1 0
vn 0 1 0
vn 0 1 0
vn 0 1 0
vn 0 1 0
vn 0 1 0
vn 0 1 0
vn 0 1 0
vn 0 1 0
vn 0 1 0
vn 0 1 0
vn 0 1 0
vn 0 1 0
vn 0 1 0
vn 0 1 0
vn 0 1 0
vn 0 1 0
vn 0 1 0
vn 0 1 0
vn 0 1 0
vn 0 1 0
vn 0 1 0
vn 0 1 0
vn 0 1 0
vn 0 1 0
vn 0 1 0
vn 0 1 0
vn 0 1 0
vn 0 1 0
vn 0 1 0
vn 0 1 0
vn 0 1 0
vn 0 1 0
vn 0 1 0
vn 0 1 0
vn 0 1 0
vn 0 1 0
vn 0 1 0
vn 0 1 0
vn 0 1 0
vn 0 1 0
vn 0 1 0
vn 0 1 0
vn 0 1 0
vn 0 1 0
vn 0 1 0
vn 0 1 0
vn 0 1 0
vn 0 1 0
vn 0 1 0
vn 0 1 0
vn 0 1 0
vn 0 1 0
vn 0 1 0
vn 0 1 0
vn 0 1 0
vn 0 1 0
vn 0 1 0
vn 0 1 0
vn 0 1 0
vn 0 1 0
vn 0 1 0
vn 0 1 0
vn 0 1 0
vn 0 1 0
vn 0 1 0
vn 0 1 0
vn 0 1 0
vn 0 1 0
vn 0 1 0
vn 0 1 0
vn 0 1 0
vn 0 1 0
vn 0 1 0
vn 0 1 0
vn 0 1 0
vn 0 1 0
vn 0 1 0
vn 0 1 0
vn 0 1 0
vn 0 1 0
vn 0 1 0
vn 0 1 0
vn 0 1 0
vn 0 1 0
vn 0 1 0
vn 0 1 0
vn 0 1 0
vn 0 1 0
vn 0 1 0
vn 0 1 0
vn 0 1 0
vn 0 1 0
vn 0 1 0
vn 0 1 0
vn 0 1 0
vn 0 1 0
vn 0 1 0
vn 0 1 0
vn 0 1 0
vn 0 1 0
g Grass_0_Cluster110_0
f 2/2/2 3/3/3 1/1/1
f 2/2/2 4/4/4 3/3/3
f 6/6/6 7/7/7 5/5/5
f 6/6/6 8/8/8 7/7/7
f 10/10/10 11/11/11 9/9/9
f 10/10/10 12/12/12 11/11/11
f 14/14/14 15/15/15 13/13/13
f 14/14/14 16/16/16 15/15/15
f 18/18/18 19/19/19 17/17/17
f 18/18/18 20/20/20 19/19/19
f 22/22/22 23/23/23 21/21/21
f 22/22/22 24/24/24 23/23/23
f 26/26/26 27/27/27 25/25/25
f 26/26/26 28/28/28 27/27/27
f 30/30/30 31/31/31 29/29/29
f 30/30/30 32/32/32 31/31/31
f 34/34/34 35/35/35 33/33/33
f 34/34/34 36/36/36 35/35/35
f 38/38/38 39/39/39 37/37/37
f 38/38/38 40/40/40 39/39/39
f 42/42/42 43/43/43 41/41/41
f 42/42/42 44/44/44 43/43/43
f 46/46/46 47/47/47 45/45/45
f 46/46/46 48/48/48 47/47/47
f 50/50/50 51/51/51 49/49/49
f 50/50/50 52/52/52 51/51/51
f 54/54/54 55/55/55 53/53/53
f 54/54/54 56/56/56 55/55/55
f 58/58/58 59/59/59 57/57/57
f 58/58/58 60/60/60 59/59/59
f 62/62/62 63/63/63 61/61/61
f 62/62/62 64/64/64 63/63/63
f 66/66/66 67/67/67 65/65/65
f 66/66/66 68/68/68 67/67/67
f 70/70/70 71/71/71 69/69/69
f 70/70/70 72/72/72 71/71/71
f 74/74/74 75/75/75 73/73/73
f 74/74/74 76/76/76 75/75/75
f 78/78/78 79/79/79 77/77/77
f 78/78/78 80/80/80 79/79/79
f 82/82/82 83/83/83 81/81/81
f 82/82/82 84/84/84 83/83/83
f 86/86/86 87/87/87 85/85/85
f 86/86/86 88/88/88 87/87/87
f 90/90/90 91/91/91 89/89/89
f 90/90/90 92/92/92 91/91/91
f 94/94/94 95/95/95 93/93/93
f 94/94/94 96/96/96 95/95/95
f 98/98/98 99/99/99 97/97/97
f 98/98/98 100/100/100 99/99/99
f 102/102/102 103/103/103 101/101/101
f 102/102/102 104/104/104 103/103/103
f 106/106/106 107/107/107 105/105/105
f 106/106/106 108/108/108 107/107/107
f 110/110/110 111/111/111 109/109/109
f 110/110/110 112/112/112 111/111/111
f 114/114/114 115/115/115 113/113/113
f 114/114/114 116/116/116 115/115/115
f 118/118/118 119/119/119 117/117/117
f 118/118/118 120/120/120 119/119/119
f 122/122/122 123/123/123 121/121/121
f 122/122/122 124/124/124 123/123/123
f 126/126/126 127/127/127 125/125/125
f 126/126/126 128/128/128 127/127/127
f 130/130/130 131/131/131 129/129/129
f 130/130/130 132/132/132 131/131/131
f 134/134/134 135/135/135 133/133/133
f 134/134/134 136/136/136 135/135/135
f 138/138/138 139/139/139 137/137/137
f 138/138/138 140/140/140 139/139/139
f 142/142/142 143/143/143 141/141/141
f 142/142/142 144/144/144 143/143/143
f 146/146/146 147/147/147 145/145/145
f 146/146/146 148/148/148 147/147/147
f 150/150/150 151/151/151 149/149/149
f 150/150/150 152/152/152 151/151/151
