g Grass_1_Cluster66
v 117.2884 0.06456757 76.63255
v 116.5188 0.06456757 76.63255
v 117.2884 0.06456757 77.40207
v 116.5188 0.06456757 77.40207
v 119.4046 0.06456757 75.28587
v 118.635 0.06456757 75.28587
v 119.4046 0.06456757 76.0554
v 118.635 0.06456757 76.0554
v 116.5188 0.06456757 72.78491
v 115.7493 0.06456757 72.78491
v 116.5188 0.06456757 73.55444
v 115.7493 0.06456757 73.55444
v 118.8274 0.06456757 72.40015
v 117.8655 0.06456757 72.40015
v 118.8274 0.06456757 73.16968
v 117.8655 0.06456757 73.16968
v 114.2103 0.06456757 72.01538
v 113.4407 0.06456757 72.01538
v 114.2103 0.06456757 72.78491
v 113.4407 0.06456757 72.78491
v 99.78162 0.06456757 71.24585
v 99.01209 0.06456757 71.24585
v 99.78162 0.06456757 72.01538
v 99.01209 0.06456757 72.01538
v 117.4808 0.06456757 70.86108
v 116.5188 0.06456757 70.86108
v 117.4808 0.06456757 71.63062
v 116.5188 0.06456757 71.63062
v 112.6712 0.06456757 70.28395
v 111.9017 0.06456757 70.28395
v 112.6712 0.06456757 71.05347
v 111.9017 0.06456757 71.05347
v 118.2503 0.06456757 70.09157
v 117.2884 0.06456757 70.09157
v 118.2503 0.06456757 70.86108
v 117.2884 0.06456757 70.86108
v 115.9417 0.06456757 69.89919
v 114.9798 0.06456757 69.89919
v 115.9417 0.06456757 70.66872
v 114.9798 0.06456757 70.66872
v 108.8236 0.06456757 69.7068
v 107.8617 0.06456757 69.7068
v 108.8236 0.06456757 70.66872
v 107.8617 0.06456757 70.66872
v 100.1664 0.06456757 69.32204
v 99.20448 0.06456757 69.32204
v 100.1664 0.06456757 70.28395
v 99.20448 0.06456757 70.28395
v 111.1321 0.06456757 69.12965
v 110.3626 0.06456757 69.12965
v 111.1321 0.06456757 69.89919
v 110.3626 0.06456757 69.89919
v 113.2484 0.06456757 68.55251
v 112.4788 0.06456757 68.55251
v 113.2484 0.06456757 69.32204
v 112.4788 0.06456757 69.32204
v 102.0902 0.06456757 68.16774
v 101.3207 0.06456757 68.16774
v 102.0902 0.06456757 68.93727
v 101.3207 0.06456757 68.93727
v 93.04826 0.06456757 60.85724
v 92.27873 0.06456757 60.85724
v 93.04826 0.06456757 61.62675
v 92.27873 0.06456757 61.62675
v 94.97208 0.06456757 59.31818
v 94.01016 0.06456757 59.31818
v 94.97208 0.06456757 60.08771
v 94.01016 0.06456757 60.08771
v 90.73967 0.06456757 59.12579
v 89.77776 0.06456757 59.12579
v 90.73967 0.06456757 59.89532
v 89.77776 0.06456757 59.89532
v 96.70351 0.06456757 58.74103
v 95.93398 0.06456757 58.74103
v 96.70351 0.06456757 59.51056
v 95.93398 0.06456757 59.51056
vt 0.06738281 0.9369141
vt 0.1331457 0.9369141
vt 0.06738281 0.9990234
vt 0.1331457 0.9990234
vt 0.06738281 0.9369141
vt 0.1331457 0.9369141
vt 0.06738281 0.9990234
vt 0.1331457 0.9990234
vt 0.06738281 0.9369141
vt 0.1331457 0.9369141
vt 0.06738281 0.9990234
vt 0.1331457 0.9990234
vt 0.06738281 0.9369141
vt 0.1331457 0.9369141
vt 0.06738281 0.9990234
vt 0.1331457 0.9990234
vt 0.06738281 0.9369141
vt 0.1331457 0.9369141
vt 0.06738281 0.9990234
vt 0.1331457 0.9990234
vt 0.06738281 0.9369141
vt 0.1331457 0.9369141
vt 0.06738281 0.9990234
vt 0.1331457 0.9990234
vt 0.06738281 0.9369141
vt 0.1331457 0.9369141
vt 0.06738281 0.9990234
vt 0.1331457 0.9990234
vt 0.06738281 0.9369141
vt 0.1331457 0.9369141
vt 0.06738281 0.9990234
vt 0.1331457 0.9990234
vt 0.06738281 0.9369141
vt 0.1331457 0.9369141
vt 0.06738281 0.9990234
vt 0.1331457 0.9990234
vt 0.06738281 0.9369141
vt 0.1331457 0.9369141
vt 0.06738281 0.9990234
vt 0.1331457 0.9990234
vt 0.06738281 0.9369141
vt 0.1331457 0.9369141
vt 0.06738281 0.9990234
vt 0.1331457 0.9990234
vt 0.06738281 0.9369141
vt 0.1331457 0.9369141
vt 0.06738281 0.9990234
vt 0.1331457 0.9990234
vt 0.06738281 0.9369141
vt 0.1331457 0.9369141
vt 0.06738281 0.9990234
vt 0.1331457 0.9990234
vt 0.06738281 0.9369141
vt 0.1331457 0.9369141
vt 0.06738281 0.9990234
vt 0.1331457 0.9990234
vt 0.06738281 0.9369141
vt 0.1331457 0.9369141
vt 0.06738281 0.9990234
vt 0.1331457 0.9990234
vt 0.06738281 0.9369141
vt 0.1331457 0.9369141
vt 0.06738281 0.9990234
vt 0.1331457 0.9990234
vt 0.06738281 0.9369141
vt 0.1331457 0.9369141
vt 0.06738281 0.9990234
vt 0.1331457 0.9990234
vt 0.06738281 0.9369141
vt 0.1331457 0.9369141
vt 0.06738281 0.9990234
vt 0.1331457 0.9990234
vt 0.06738281 0.9369141
vt 0.1331457 0.9369141
vt 0.06738281 0.9990234
vt 0.1331457 0.9990234
vn 0 1 0
vn 0 1 0
vn 0 1 0
vn 0 1 0
vn 0 1 0
vn 0 1 0
vn 0 1 0
vn 0 1 0
vn 0 1 0
vn 0 1 0
vn 0 1 0
vn 0 1 0
vn 0 1 0
vn 0 1 0
vn 0 1 0
vn 0 1 0
vn 0 1 0
vn 0 1 0
vn 0 1 0
vn 0 1 0
vn 0 1 0
vn 0 1 0
vn 0 1 0
vn 0 1 0
vn 0 1 0
vn 0 1 0
vn 0 1 0
vn 0 1 0
vn 0 1 0
vn 0 1 0
vn 0 1 0
vn 0 1 0
vn 0 1 0
vn 0 1 0
vn 0 1 0
vn 0 1 0
vn 0 1 0
vn 0 1 0
vn 0 1 0
vn 0 1 0
vn 0 1 0
vn 0 1 0
vn 0 1 0
vn 0 1 0
vn 0 1 0
vn 0 1 0
vn 0 1 0
vn 0 1 0
vn 0 1 0
vn 0 1 0
vn 0 1 0
vn 0 1 0
vn 0 1 0
vn 0 1 0
vn 0 1 0
vn 0 1 0
vn 0 1 0
vn 0 1 0
vn 0 1 0
vn 0 1 0
vn 0 1 0
vn 0 1 0
vn 0 1 0
vn 0 1 0
vn 0 1 0
vn 0 1 0
vn 0 1 0
vn 0 1 0
vn 0 1 0
vn 0 1 0
vn 0 1 0
vn 0 1 0
vn 0 1 0
vn 0 1 0
vn 0 1 0
vn 0 1 0
g Grass_1_Cluster66_0
f 2/2/2 3/3/3 1/1/1
f 2/2/2 4/4/4 3/3/3
f 6/6/6 7/7/7 5/5/5
f 6/6/6 8/8/8 7/7/7
f 10/10/10 11/11/11 9/9/9
f 10/10/10 12/12/12 11/11/11
f 14/14/14 15/15/15 13/13/13
f 14/14/14 16/16/16 15/15/15
f 18/18/18 19/19/19 17/17/17
f 18/18/18 20/20/20 19/19/19
f 22/22/22 23/23/23 21/21/21
f 22/22/22 24/24/24 23/23/23
f 26/26/26 27/27/27 25/25/25
f 26/26/26 28/28/28 27/27/27
f 30/30/30 31/31/31 29/29/29
f 30/30/30 32/32/32 31/31/31
f 34/34/34 35/35/35 33/33/33
f 34/34/34 36/36/36 35/35/35
f 38/38/38 39/39/39 37/37/37
f 38/38/38 40/40/40 39/39/39
f 42/42/42 43/43/43 41/41/41
f 42/42/42 44/44/44 43/43/43
f 46/46/46 47/47/47 45/45/45
f 46/46/46 48/48/48 47/47/47
f 50/50/50 51/51/51 49/49/49
f 50/50/50 52/52/52 51/51/51
f 54/54/54 55/55/55 53/53/53
f 54/54/54 56/56/56 55/55/55
f 58/58/58 59/59/59 57/57/57
f 58/58/58 60/60/60 59/59/59
f 62/62/62 63/63/63 61/61/61
f 62/62/62 64/64/64 63/63/63
f 66/66/66 67/67/67 65/65/65
f 66/66/66 68/68/68 67/67/67
f 70/70/70 71/71/71 69/69/69
f 70/70/70 72/72/72 71/71/71
f 74/74/74 75/75/75 73/73/73
f 74/74/74 76/76/76 75/75/75
