g Grass_0_Cluster205
v 128.3651 0.1893768 292.7915
v 127.4994 0.1893768 292.7915
v 128.3651 0.1893768 294.09
v 127.4994 0.1893768 294.09
v 129.6636 0.1893768 292.7915
v 128.7979 0.1893768 292.7915
v 129.6636 0.1893768 294.09
v 128.7979 0.1893768 294.09
v 130.5293 0.1893768 292.3586
v 129.6636 0.1893768 292.3586
v 130.5293 0.1893768 293.6572
v 129.6636 0.1893768 293.6572
v 132.6935 0.1893768 291.9258
v 131.8279 0.1893768 291.9258
v 132.6935 0.1893768 293.2243
v 131.8279 0.1893768 293.2243
v 129.6636 0.1893768 291.0601
v 128.7979 0.1893768 291.0601
v 129.6636 0.1893768 292.3586
v 128.7979 0.1893768 292.3586
v 129.2308 0.1893768 291.0601
v 128.3651 0.1893768 291.0601
v 129.2308 0.1893768 291.9258
v 128.3651 0.1893768 291.9258
v 130.5293 0.1893768 290.1944
v 129.6636 0.1893768 290.1944
v 130.5293 0.1893768 291.493
v 129.6636 0.1893768 291.493
v 147.843 0.1893768 289.3287
v 146.9774 0.1893768 289.3287
v 147.843 0.1893768 290.6273
v 146.9774 0.1893768 290.6273
v 120.5739 0.1893768 288.0302
v 119.7082 0.1893768 288.0302
v 120.5739 0.1893768 289.3287
v 119.7082 0.1893768 289.3287
v 141.3504 0.1893768 287.1645
v 140.4847 0.1893768 287.1645
v 141.3504 0.1893768 288.463
v 140.4847 0.1893768 288.463
v 146.1117 0.1893768 285.0003
v 145.246 0.1893768 285.0003
v 146.1117 0.1893768 286.2988
v 145.246 0.1893768 286.2988
v 121.0068 0.1893768 284.5674
v 120.1411 0.1893768 284.5674
v 121.0068 0.1893768 285.866
v 120.1411 0.1893768 285.866
v 121.4396 0.1893768 283.7018
v 120.5739 0.1893768 283.7018
v 121.4396 0.1893768 285.0003
v 120.5739 0.1893768 285.0003
v 121.8725 0.1893768 282.8361
v 121.0068 0.1893768 282.8361
v 121.8725 0.1893768 284.1346
v 121.0068 0.1893768 284.1346
v 135.2906 0.1893768 282.4032
v 134.4249 0.1893768 282.4032
v 135.2906 0.1893768 283.7018
v 134.4249 0.1893768 283.7018
v 134.8578 0.1893768 282.4032
v 133.9921 0.1893768 282.4032
v 134.8578 0.1893768 283.7018
v 133.9921 0.1893768 283.7018
v 121.0068 0.1893768 281.9704
v 120.1411 0.1893768 281.9704
v 121.0068 0.1893768 283.2689
v 120.1411 0.1893768 283.2689
v 122.3053 0.1893768 281.9704
v 121.4396 0.1893768 281.9704
v 122.3053 0.1893768 283.2689
v 121.4396 0.1893768 283.2689
v 122.3053 0.1893768 281.5375
v 121.4396 0.1893768 281.5375
v 122.3053 0.1893768 282.8361
v 121.4396 0.1893768 282.8361
v 124.9024 0.1893768 281.5375
v 124.0367 0.1893768 281.5375
v 124.9024 0.1893768 282.8361
v 124.0367 0.1893768 282.8361
v 121.4396 0.1893768 281.1047
v 120.5739 0.1893768 281.1047
v 121.4396 0.1893768 282.4032
v 120.5739 0.1893768 282.4032
v 123.171 0.1893768 280.239
v 122.3053 0.1893768 280.239
v 123.171 0.1893768 281.5375
v 122.3053 0.1893768 281.5375
v 120.5739 0.1893768 280.239
v 119.7082 0.1893768 280.239
v 120.5739 0.1893768 281.1047
v 119.7082 0.1893768 281.1047
v 124.9024 0.1893768 279.3733
v 123.6038 0.1893768 279.3733
v 124.9024 0.1893768 280.6719
v 123.6038 0.1893768 280.6719
v 121.8725 0.1893768 279.3733
v 121.0068 0.1893768 279.3733
v 121.8725 0.1893768 280.6719
v 121.0068 0.1893768 280.6719
v 148.7087 0.1893768 278.9405
v 147.843 0.1893768 278.9405
v 148.7087 0.1893768 280.6719
v 147.843 0.1893768 280.6719
v 123.6038 0.1893768 278.9405
v 122.7381 0.1893768 278.9405
v 123.6038 0.1893768 279.8062
v 122.7381 0.1893768 279.8062
v 121.8725 0.1893768 278.9405
v 121.0068 0.1893768 278.9405
v 121.8725 0.1893768 280.239
v 121.0068 0.1893768 280.239
v 120.5739 0.1893768 277.2091
v 119.7082 0.1893768 277.2091
v 120.5739 0.1893768 278.5077
v 119.7082 0.1893768 278.5077
v 146.9774 0.1893768 276.7763
v 146.1117 0.1893768 276.7763
v 146.9774 0.1893768 278.0748
v 146.1117 0.1893768 278.0748
v 121.4396 0.1893768 275.4778
v 120.5739 0.1893768 275.4778
v 121.4396 0.1893768 276.7763
v 120.5739 0.1893768 276.7763
v 144.8132 0.1893768 273.7464
v 143.9475 0.1893768 273.7464
v 144.8132 0.1893768 275.0449
v 143.9475 0.1893768 275.0449
v 124.0367 0.1893768 269.4179
v 123.171 0.1893768 269.4179
v 124.0367 0.1893768 270.7165
v 123.171 0.1893768 270.7165
v 142.2161 0.1893768 268.9851
v 141.3504 0.1893768 268.9851
v 142.2161 0.1893768 270.2836
v 141.3504 0.1893768 270.2836
v 122.7381 0.1893768 268.1194
v 122.3053 0.1893768 268.1194
v 122.7381 0.1893768 268.9851
v 122.3053 0.1893768 268.9851
v 140.0519 0.1893768 265.9552
v 139.1862 0.1893768 265.9552
v 140.0519 0.1893768 267.2537
v 139.1862 0.1893768 267.2537
vt 0 0.9058824
vt 0.06666667 0.9058824
vt 0 1
vt 0.06666667 1
vt 0 0.9058824
vt 0.06666667 0.9058824
vt 0 1
vt 0.06666667 1
vt 0 0.9058824
vt 0.06666667 0.9058824
vt 0 1
vt 0.06666667 1
vt 0 0.9058824
vt 0.06666667 0.9058824
vt 0 1
vt 0.06666667 1
vt 0 0.9058824
vt 0.06666667 0.9058824
vt 0 1
vt 0.06666667 1
vt 0 0.9058824
vt 0.06666667 0.9058824
vt 0 1
vt 0.06666667 1
vt 0 0.9058824
vt 0.06666667 0.9058824
vt 0 1
vt 0.06666667 1
vt 0 0.9058824
vt 0.06666667 0.9058824
vt 0 1
vt 0.06666667 1
vt 0 0.9058824
vt 0.06666667 0.9058824
vt 0 1
vt 0.06666667 1
vt 0 0.9058824
vt 0.06666667 0.9058824
vt 0 1
vt 0.06666667 1
vt 0 0.9058824
vt 0.06666667 0.9058824
vt 0 1
vt 0.06666667 1
vt 0 0.9058824
vt 0.06666667 0.9058824
vt 0 1
vt 0.06666667 1
vt 0 0.9058824
vt 0.06666667 0.9058824
vt 0 1
vt 0.06666667 1
vt 0 0.9058824
vt 0.06666667 0.9058824
vt 0 1
vt 0.06666667 1
vt 0 0.9058824
vt 0.06666667 0.9058824
vt 0 1
vt 0.06666667 1
vt 0 0.9058824
vt 0.06666667 0.9058824
vt 0 1
vt 0.06666667 1
vt 0 0.9058824
vt 0.06666667 0.9058824
vt 0 1
vt 0.06666667 1
vt 0 0.9058824
vt 0.06666667 0.9058824
vt 0 1
vt 0.06666667 1
vt 0 0.9058824
vt 0.06666667 0.9058824
vt 0 1
vt 0.06666667 1
vt 0 0.9058824
vt 0.06666667 0.9058824
vt 0 1
vt 0.06666667 1
vt 0 0.9058824
vt 0.06666667 0.9058824
vt 0 1
vt 0.06666667 1
vt 0 0.9058824
vt 0.06666667 0.9058824
vt 0 1
vt 0.06666667 1
vt 0 0.9058824
vt 0.06666667 0.9058824
vt 0 1
vt 0.06666667 1
vt 0 0.9058824
vt 0.06666667 0.9058824
vt 0 1
vt 0.06666667 1
vt 0 0.9058824
vt 0.06666667 0.9058824
vt 0 1
vt 0.06666667 1
vt 0 0.9058824
vt 0.06666667 0.9058824
vt 0 1
vt 0.06666667 1
vt 0 0.9058824
vt 0.06666667 0.9058824
vt 0 1
vt 0.06666667 1
vt 0 0.9058824
vt 0.06666667 0.9058824
vt 0 1
vt 0.06666667 1
vt 0 0.9058824
vt 0.06666667 0.9058824
vt 0 1
vt 0.06666667 1
vt 0 0.9058824
vt 0.06666667 0.9058824
vt 0 1
vt 0.06666667 1
vt 0 0.9058824
vt 0.06666667 0.9058824
vt 0 1
vt 0.06666667 1
vt 0 0.9058824
vt 0.06666667 0.9058824
vt 0 1
vt 0.06666667 1
vt 0 0.9058824
vt 0.06666667 0.9058824
vt 0 1
vt 0.06666667 1
vt 0 0.9058824
vt 0.06666667 0.9058824
vt 0 1
vt 0.06666667 1
vt 0 0.9058824
vt 0.06666667 0.9058824
vt 0 1
vt 0.06666667 1
vt 0 0.9058824
vt 0.06666667 0.9058824
vt 0 1
vt 0.06666667 1
vn 0 1 0
vn 0 1 0
vn 0 1 0
vn 0 1 0
vn 0 1 0
vn 0 1 0
vn 0 1 0
vn 0 1 0
vn 0 1 0
vn 0 1 0
vn 0 1 0
vn 0 1 0
vn 0 1 0
vn 0 1 0
vn 0 1 0
vn 0 1 0
vn 0 1 0
vn 0 1 0
vn 0 1 0
vn 0 1 0
vn 0 1 0
vn 0 1 0
vn 0 1 0
vn 0 1 0
vn 0 1 0
vn 0 1 0
vn 0 1 0
vn 0 1 0
vn 0 1 0
vn 0 1 0
vn 0 1 0
vn 0 1 0
vn 0 1 0
vn 0 1 0
vn 0 1 0
vn 0 1 0
vn 0 1 0
vn 0 1 0
vn 0 1 0
vn 0 1 0
vn 0 1 0
vn 0 1 0
vn 0 1 0
vn 0 1 0
vn 0 1 0
vn 0 1 0
vn 0 1 0
vn 0 1 0
vn 0 1 0
vn 0 1 0
vn 0 1 0
vn 0 1 0
vn 0 1 0
vn 0 1 0
vn 0 1 0
vn 0 1 0
vn 0 1 0
vn 0 1 0
vn 0 1 0
vn 0 1 0
vn 0 1 0
vn 0 1 0
vn 0 1 0
vn 0 1 0
vn 0 1 0
vn 0 1 0
vn 0 1 0
vn 0 1 0
vn 0 1 0
vn 0 1 0
vn 0 1 0
vn 0 1 0
vn 0 1 0
vn 0 1 0
vn 0 1 0
vn 0 1 0
vn 0 1 0
vn 0 1 0
vn 0 1 0
vn 0 1 0
vn 0 1 0
vn 0 1 0
vn 0 1 0
vn 0 1 0
vn 0 1 0
vn 0 1 0
vn 0 1 0
vn 0 1 0
vn 0 1 0
vn 0 1 0
vn 0 1 0
vn 0 1 0
vn 0 1 0
vn 0 1 0
vn 0 1 0
vn 0 1 0
vn 0 1 0
vn 0 1 0
vn 0 1 0
vn 0 1 0
vn 0 1 0
vn 0 1 0
vn 0 1 0
vn 0 1 0
vn 0 1 0
vn 0 1 0
vn 0 1 0
vn 0 1 0
vn 0 1 0
vn 0 1 0
vn 0 1 0
vn 0 1 0
vn 0 1 0
vn 0 1 0
vn 0 1 0
vn 0 1 0
vn 0 1 0
vn 0 1 0
vn 0 1 0
vn 0 1 0
vn 0 1 0
vn 0 1 0
vn 0 1 0
vn 0 1 0
vn 0 1 0
vn 0 1 0
vn 0 1 0
vn 0 1 0
vn 0 1 0
vn 0 1 0
vn 0 1 0
vn 0 1 0
vn 0 1 0
vn 0 1 0
vn 0 1 0
vn 0 1 0
vn 0 1 0
vn 0 1 0
vn 0 1 0
vn 0 1 0
vn 0 1 0
vn 0 1 0
vn 0 1 0
vn 0 1 0
g Grass_0_Cluster205_0
f 2/2/2 3/3/3 1/1/1
f 2/2/2 4/4/4 3/3/3
f 6/6/6 7/7/7 5/5/5
f 6/6/6 8/8/8 7/7/7
f 10/10/10 11/11/11 9/9/9
f 10/10/10 12/12/12 11/11/11
f 14/14/14 15/15/15 13/13/13
f 14/14/14 16/16/16 15/15/15
f 18/18/18 19/19/19 17/17/17
f 18/18/18 20/20/20 19/19/19
f 22/22/22 23/23/23 21/21/21
f 22/22/22 24/24/24 23/23/23
f 26/26/26 27/27/27 25/25/25
f 26/26/26 28/28/28 27/27/27
f 30/30/30 31/31/31 29/29/29
f 30/30/30 32/32/32 31/31/31
f 34/34/34 35/35/35 33/33/33
f 34/34/34 36/36/36 35/35/35
f 38/38/38 39/39/39 37/37/37
f 38/38/38 40/40/40 39/39/39
f 42/42/42 43/43/43 41/41/41
f 42/42/42 44/44/44 43/43/43
f 46/46/46 47/47/47 45/45/45
f 46/46/46 48/48/48 47/47/47
f 50/50/50 51/51/51 49/49/49
f 50/50/50 52/52/52 51/51/51
f 54/54/54 55/55/55 53/53/53
f 54/54/54 56/56/56 55/55/55
f 58/58/58 59/59/59 57/57/57
f 58/58/58 60/60/60 59/59/59
f 62/62/62 63/63/63 61/61/61
f 62/62/62 64/64/64 63/63/63
f 66/66/66 67/67/67 65/65/65
f 66/66/66 68/68/68 67/67/67
f 70/70/70 71/71/71 69/69/69
f 70/70/70 72/72/72 71/71/71
f 74/74/74 75/75/75 73/73/73
f 74/74/74 76/76/76 75/75/75
f 78/78/78 79/79/79 77/77/77
f 78/78/78 80/80/80 79/79/79
f 82/82/82 83/83/83 81/81/81
f 82/82/82 84/84/84 83/83/83
f 86/86/86 87/87/87 85/85/85
f 86/86/86 88/88/88 87/87/87
f 90/90/90 91/91/91 89/89/89
f 90/90/90 92/92/92 91/91/91
f 94/94/94 95/95/95 93/93/93
f 94/94/94 96/96/96 95/95/95
f 98/98/98 99/99/99 97/97/97
f 98/98/98 100/100/100 99/99/99
f 102/102/102 103/103/103 101/101/101
f 102/102/102 104/104/104 103/103/103
f 106/106/106 107/107/107 105/105/105
f 106/106/106 108/108/108 107/107/107
f 110/110/110 111/111/111 109/109/109
f 110/110/110 112/112/112 111/111/111
f 114/114/114 115/115/115 113/113/113
f 114/114/114 116/116/116 115/115/115
f 118/118/118 119/119/119 117/117/117
f 118/118/118 120/120/120 119/119/119
f 122/122/122 123/123/123 121/121/121
f 122/122/122 124/124/124 123/123/123
f 126/126/126 127/127/127 125/125/125
f 126/126/126 128/128/128 127/127/127
f 130/130/130 131/131/131 129/129/129
f 130/130/130 132/132/132 131/131/131
f 134/134/134 135/135/135 133/133/133
f 134/134/134 136/136/136 135/135/135
f 138/138/138 139/139/139 137/137/137
f 138/138/138 140/140/140 139/139/139
f 142/142/142 143/143/143 141/141/141
f 142/142/142 144/144/144 143/143/143
