g Grass_0_Cluster149
v 21.0419 -0.08841515 199.9836
v 20.14067 -0.08841515 199.9836
v 21.0419 -0.08841515 201.1101
v 20.14067 -0.08841515 201.1101
v 7.748829 -0.08841515 198.1811
v 6.847603 -0.08841515 198.1811
v 7.748829 -0.08841515 199.3076
v 6.847603 -0.08841515 199.3076
v 29.37823 -0.08841515 191.4219
v 28.47701 -0.08841515 191.4219
v 29.37823 -0.08841515 192.5484
v 28.47701 -0.08841515 192.5484
v 25.99864 -0.08841515 190.5207
v 25.09741 -0.08841515 190.5207
v 25.99864 -0.08841515 191.8725
v 25.09741 -0.08841515 191.8725
v 28.92762 -0.08841515 189.6195
v 28.02639 -0.08841515 189.6195
v 28.92762 -0.08841515 190.9713
v 28.02639 -0.08841515 190.9713
v 2.341476 -0.08841515 186.0146
v 1.440252 -0.08841515 186.0146
v 2.341476 -0.08841515 187.3664
v 1.440252 -0.08841515 187.3664
v 17.21169 -0.08841515 185.564
v 16.31047 -0.08841515 185.564
v 17.21169 -0.08841515 186.6905
v 16.31047 -0.08841515 186.6905
v 18.11292 -0.08841515 185.1133
v 17.21169 -0.08841515 185.1133
v 18.11292 -0.08841515 186.2399
v 17.21169 -0.08841515 186.2399
v 11.80434 -0.08841515 181.2831
v 10.90312 -0.08841515 181.2831
v 11.80434 -0.08841515 182.4097
v 10.90312 -0.08841515 182.4097
v 14.50802 -0.08841515 180.6072
v 13.38148 -0.08841515 180.6072
v 14.50802 -0.08841515 181.9591
v 13.38148 -0.08841515 181.9591
v 10.90312 -0.08841515 180.3819
v 10.00189 -0.08841515 180.3819
v 10.90312 -0.08841515 181.5084
v 10.00189 -0.08841515 181.5084
v 12.70557 -0.08841515 179.706
v 11.57903 -0.08841515 179.706
v 12.70557 -0.08841515 181.0578
v 11.57903 -0.08841515 181.0578
v 9.776585 -0.08841515 179.4807
v 8.875359 -0.08841515 179.4807
v 9.776585 -0.08841515 180.8325
v 8.875359 -0.08841515 180.8325
v 11.12842 -0.08841515 178.8048
v 10.2272 -0.08841515 178.8048
v 11.12842 -0.08841515 180.1566
v 10.2272 -0.08841515 180.1566
v 12.93087 -0.08841515 177.6782
v 12.02965 -0.08841515 177.6782
v 12.93087 -0.08841515 178.8048
v 12.02965 -0.08841515 178.8048
v 14.95863 -0.08841515 177.2276
v 14.0574 -0.08841515 177.2276
v 14.95863 -0.08841515 178.3542
v 14.0574 -0.08841515 178.3542
v 12.02965 -0.08841515 177.2276
v 11.12842 -0.08841515 177.2276
v 12.02965 -0.08841515 178.5795
v 11.12842 -0.08841515 178.5795
v 12.93087 -0.08841515 177.0023
v 12.02965 -0.08841515 177.0023
v 12.93087 -0.08841515 178.1288
v 12.02965 -0.08841515 178.1288
v 17.21169 -0.08841515 176.777
v 16.31047 -0.08841515 176.777
v 17.21169 -0.08841515 177.9035
v 16.31047 -0.08841515 177.9035
v 12.02965 -0.08841515 176.5517
v 11.12842 -0.08841515 176.5517
v 12.02965 -0.08841515 177.6782
v 11.12842 -0.08841515 177.6782
v 10.67781 -0.08841515 176.1011
v 9.551279 -0.08841515 176.1011
v 10.67781 -0.08841515 177.4529
v 9.551279 -0.08841515 177.4529
v 13.8321 -0.08841515 176.1011
v 12.93087 -0.08841515 176.1011
v 13.8321 -0.08841515 177.2276
v 12.93087 -0.08841515 177.2276
v 11.35373 -0.08841515 175.8758
v 10.2272 -0.08841515 175.8758
v 11.35373 -0.08841515 177.2276
v 10.2272 -0.08841515 177.2276
v 10.4525 -0.08841515 175.6505
v 9.551279 -0.08841515 175.6505
v 10.4525 -0.08841515 176.777
v 9.551279 -0.08841515 176.777
v 12.48026 -0.08841515 174.9746
v 11.57903 -0.08841515 174.9746
v 12.48026 -0.08841515 176.3264
v 11.57903 -0.08841515 176.3264
v 19.69006 -0.08841515 174.9746
v 18.78884 -0.08841515 174.9746
v 19.69006 -0.08841515 176.1011
v 18.78884 -0.08841515 176.1011
v 13.60679 -0.08841515 174.7493
v 12.70557 -0.08841515 174.7493
v 13.60679 -0.08841515 176.1011
v 12.70557 -0.08841515 176.1011
v 17.6623 -0.08841515 174.524
v 16.76108 -0.08841515 174.524
v 17.6623 -0.08841515 175.6505
v 16.76108 -0.08841515 175.6505
v 13.8321 -0.08841515 174.0733
v 13.15618 -0.08841515 174.0733
v 13.8321 -0.08841515 175.1999
v 13.15618 -0.08841515 175.1999
v 2.116171 -0.08841515 173.848
v 1.214945 -0.08841515 173.848
v 2.116171 -0.08841515 175.1999
v 1.214945 -0.08841515 175.1999
v 8.875359 -0.08841515 173.1721
v 7.974134 -0.08841515 173.1721
v 8.875359 -0.08841515 174.524
v 7.974134 -0.08841515 174.524
vt 0 0.9058824
vt 0.06666667 0.9058824
vt 0 1
vt 0.06666667 1
vt 0 0.9058824
vt 0.06666667 0.9058824
vt 0 1
vt 0.06666667 1
vt 0 0.9058824
vt 0.06666667 0.9058824
vt 0 1
vt 0.06666667 1
vt 0 0.9058824
vt 0.06666667 0.9058824
vt 0 1
vt 0.06666667 1
vt 0 0.9058824
vt 0.06666667 0.9058824
vt 0 1
vt 0.06666667 1
vt 0 0.9058824
vt 0.06666667 0.9058824
vt 0 1
vt 0.06666667 1
vt 0 0.9058824
vt 0.06666667 0.9058824
vt 0 1
vt 0.06666667 1
vt 0 0.9058824
vt 0.06666667 0.9058824
vt 0 1
vt 0.06666667 1
vt 0 0.9058824
vt 0.06666667 0.9058824
vt 0 1
vt 0.06666667 1
vt 0 0.9058824
vt 0.06666667 0.9058824
vt 0 1
vt 0.06666667 1
vt 0 0.9058824
vt 0.06666667 0.9058824
vt 0 1
vt 0.06666667 1
vt 0 0.9058824
vt 0.06666667 0.9058824
vt 0 1
vt 0.06666667 1
vt 0 0.9058824
vt 0.06666667 0.9058824
vt 0 1
vt 0.06666667 1
vt 0 0.9058824
vt 0.06666667 0.9058824
vt 0 1
vt 0.06666667 1
vt 0 0.9058824
vt 0.06666667 0.9058824
vt 0 1
vt 0.06666667 1
vt 0 0.9058824
vt 0.06666667 0.9058824
vt 0 1
vt 0.06666667 1
vt 0 0.9058824
vt 0.06666667 0.9058824
vt 0 1
vt 0.06666667 1
vt 0 0.9058824
vt 0.06666667 0.9058824
vt 0 1
vt 0.06666667 1
vt 0 0.9058824
vt 0.06666667 0.9058824
vt 0 1
vt 0.06666667 1
vt 0 0.9058824
vt 0.06666667 0.9058824
vt 0 1
vt 0.06666667 1
vt 0 0.9058824
vt 0.06666667 0.9058824
vt 0 1
vt 0.06666667 1
vt 0 0.9058824
vt 0.06666667 0.9058824
vt 0 1
vt 0.06666667 1
vt 0 0.9058824
vt 0.06666667 0.9058824
vt 0 1
vt 0.06666667 1
vt 0 0.9058824
vt 0.06666667 0.9058824
vt 0 1
vt 0.06666667 1
vt 0 0.9058824
vt 0.06666667 0.9058824
vt 0 1
vt 0.06666667 1
vt 0 0.9058824
vt 0.06666667 0.9058824
vt 0 1
vt 0.06666667 1
vt 0 0.9058824
vt 0.06666667 0.9058824
vt 0 1
vt 0.06666667 1
vt 0 0.9058824
vt 0.06666667 0.9058824
vt 0 1
vt 0.06666667 1
vt 0 0.9058824
vt 0.06666667 0.9058824
vt 0 1
vt 0.06666667 1
vt 0 0.9058824
vt 0.06666667 0.9058824
vt 0 1
vt 0.06666667 1
vt 0 0.9058824
vt 0.06666667 0.9058824
vt 0 1
vt 0.06666667 1
vn 0 1 0
vn 0 1 0
vn 0 1 0
vn 0 1 0
vn 0 1 0
vn 0 1 0
vn 0 1 0
vn 0 1 0
vn 0 1 0
vn 0 1 0
vn 0 1 0
vn 0 1 0
vn 0 1 0
vn 0 1 0
vn 0 1 0
vn 0 1 0
vn 0 1 0
vn 0 1 0
vn 0 1 0
vn 0 1 0
vn 0 1 0
vn 0 1 0
vn 0 1 0
vn 0 1 0
vn 0 1 0
vn 0 1 0
vn 0 1 0
vn 0 1 0
vn 0 1 0
vn 0 1 0
vn 0 1 0
vn 0 1 0
vn 0 1 0
vn 0 1 0
vn 0 1 0
vn 0 1 0
vn 0 1 0
vn 0 1 0
vn 0 1 0
vn 0 1 0
vn 0 1 0
vn 0 1 0
vn 0 1 0
vn 0 1 0
vn 0 1 0
vn 0 1 0
vn 0 1 0
vn 0 1 0
vn 0 1 0
vn 0 1 0
vn 0 1 0
vn 0 1 0
vn 0 1 0
vn 0 1 0
vn 0 1 0
vn 0 1 0
vn 0 1 0
vn 0 1 0
vn 0 1 0
vn 0 1 0
vn 0 1 0
vn 0 1 0
vn 0 1 0
vn 0 1 0
vn 0 1 0
vn 0 1 0
vn 0 1 0
vn 0 1 0
vn 0 1 0
vn 0 1 0
vn 0 1 0
vn 0 1 0
vn 0 1 0
vn 0 1 0
vn 0 1 0
vn 0 1 0
vn 0 1 0
vn 0 1 0
vn 0 1 0
vn 0 1 0
vn 0 1 0
vn 0 1 0
vn 0 1 0
vn 0 1 0
vn 0 1 0
vn 0 1 0
vn 0 1 0
vn 0 1 0
vn 0 1 0
vn 0 1 0
vn 0 1 0
vn 0 1 0
vn 0 1 0
vn 0 1 0
vn 0 1 0
vn 0 1 0
vn 0 1 0
vn 0 1 0
vn 0 1 0
vn 0 1 0
vn 0 1 0
vn 0 1 0
vn 0 1 0
vn 0 1 0
vn 0 1 0
vn 0 1 0
vn 0 1 0
vn 0 1 0
vn 0 1 0
vn 0 1 0
vn 0 1 0
vn 0 1 0
vn 0 1 0
vn 0 1 0
vn 0 1 0
vn 0 1 0
vn 0 1 0
vn 0 1 0
vn 0 1 0
vn 0 1 0
vn 0 1 0
vn 0 1 0
vn 0 1 0
vn 0 1 0
g Grass_0_Cluster149_0
f 2/2/2 3/3/3 1/1/1
f 2/2/2 4/4/4 3/3/3
f 6/6/6 7/7/7 5/5/5
f 6/6/6 8/8/8 7/7/7
f 10/10/10 11/11/11 9/9/9
f 10/10/10 12/12/12 11/11/11
f 14/14/14 15/15/15 13/13/13
f 14/14/14 16/16/16 15/15/15
f 18/18/18 19/19/19 17/17/17
f 18/18/18 20/20/20 19/19/19
f 22/22/22 23/23/23 21/21/21
f 22/22/22 24/24/24 23/23/23
f 26/26/26 27/27/27 25/25/25
f 26/26/26 28/28/28 27/27/27
f 30/30/30 31/31/31 29/29/29
f 30/30/30 32/32/32 31/31/31
f 34/34/34 35/35/35 33/33/33
f 34/34/34 36/36/36 35/35/35
f 38/38/38 39/39/39 37/37/37
f 38/38/38 40/40/40 39/39/39
f 42/42/42 43/43/43 41/41/41
f 42/42/42 44/44/44 43/43/43
f 46/46/46 47/47/47 45/45/45
f 46/46/46 48/48/48 47/47/47
f 50/50/50 51/51/51 49/49/49
f 50/50/50 52/52/52 51/51/51
f 54/54/54 55/55/55 53/53/53
f 54/54/54 56/56/56 55/55/55
f 58/58/58 59/59/59 57/57/57
f 58/58/58 60/60/60 59/59/59
f 62/62/62 63/63/63 61/61/61
f 62/62/62 64/64/64 63/63/63
f 66/66/66 67/67/67 65/65/65
f 66/66/66 68/68/68 67/67/67
f 70/70/70 71/71/71 69/69/69
f 70/70/70 72/72/72 71/71/71
f 74/74/74 75/75/75 73/73/73
f 74/74/74 76/76/76 75/75/75
f 78/78/78 79/79/79 77/77/77
f 78/78/78 80/80/80 79/79/79
f 82/82/82 83/83/83 81/81/81
f 82/82/82 84/84/84 83/83/83
f 86/86/86 87/87/87 85/85/85
f 86/86/86 88/88/88 87/87/87
f 90/90/90 91/91/91 89/89/89
f 90/90/90 92/92/92 91/91/91
f 94/94/94 95/95/95 93/93/93
f 94/94/94 96/96/96 95/95/95
f 98/98/98 99/99/99 97/97/97
f 98/98/98 100/100/100 99/99/99
f 102/102/102 103/103/103 101/101/101
f 102/102/102 104/104/104 103/103/103
f 106/106/106 107/107/107 105/105/105
f 106/106/106 108/108/108 107/107/107
f 110/110/110 111/111/111 109/109/109
f 110/110/110 112/112/112 111/111/111
f 114/114/114 115/115/115 113/113/113
f 114/114/114 116/116/116 115/115/115
f 118/118/118 119/119/119 117/117/117
f 118/118/118 120/120/120 119/119/119
f 122/122/122 123/123/123 121/121/121
f 122/122/122 124/124/124 123/123/123
