g Grass_2_Cluster117
v -224.745 0 141.6617
v -225.6785 0 141.6617
v -224.745 0 142.5952
v -225.6785 0 142.5952
v -228.9458 0 136.7607
v -229.8793 0 136.7607
v -228.9458 0 137.9276
v -229.8793 0 137.9276
v -225.9119 0 136.2939
v -226.612 0 136.2939
v -225.9119 0 137.2275
v -226.612 0 137.2275
v -228.4791 0 136.0606
v -229.4126 0 136.0606
v -228.4791 0 136.9941
v -229.4126 0 136.9941
v -227.0788 0 135.8272
v -228.2457 0 135.8272
v -227.0788 0 136.9941
v -228.2457 0 136.9941
v -229.646 0 135.8272
v -230.5795 0 135.8272
v -229.646 0 136.7607
v -230.5795 0 136.7607
v -227.7789 0 135.127
v -228.7124 0 135.127
v -227.7789 0 136.2939
v -228.7124 0 136.2939
v -226.1453 0 134.8937
v -227.0788 0 134.8937
v -226.1453 0 136.0606
v -227.0788 0 136.0606
v -228.2457 0 134.6603
v -229.1792 0 134.6603
v -228.2457 0 135.8272
v -229.1792 0 135.8272
v -226.3786 0 134.4269
v -227.3122 0 134.4269
v -226.3786 0 135.5938
v -227.3122 0 135.5938
v -229.1792 0 134.1935
v -230.1127 0 134.1935
v -229.1792 0 135.127
v -230.1127 0 135.127
v -231.9798 0 133.9601
v -232.9133 0 133.9601
v -231.9798 0 135.127
v -232.9133 0 135.127
v -227.7789 0 133.7268
v -228.7124 0 133.7268
v -227.7789 0 134.6603
v -228.7124 0 134.6603
v -230.1127 0 133.4934
v -231.0462 0 133.4934
v -230.1127 0 134.6603
v -231.0462 0 134.6603
v -214.943 0 132.7932
v -215.8766 0 132.7932
v -214.943 0 133.9601
v -215.8766 0 133.9601
v -235.2471 0 121.1242
v -236.1806 0 121.1242
v -235.2471 0 122.0578
v -236.1806 0 122.0578
v -234.547 0 120.6575
v -235.4805 0 120.6575
v -234.547 0 121.591
v -235.4805 0 121.591
v -235.2471 0 120.1907
v -236.1806 0 120.1907
v -235.2471 0 121.3576
v -236.1806 0 121.3576
v -235.0137 0 119.2572
v -235.9472 0 119.2572
v -235.0137 0 120.4241
v -235.9472 0 120.4241
v -232.2132 0 118.7905
v -233.1467 0 118.7905
v -232.2132 0 119.724
v -233.1467 0 119.724
v -234.3136 0 118.5571
v -235.2471 0 118.5571
v -234.3136 0 119.724
v -235.2471 0 119.724
v -235.7139 0 118.3237
v -236.6474 0 118.3237
v -235.7139 0 119.2572
v -236.6474 0 119.2572
v -232.9133 0 118.0903
v -233.8468 0 118.0903
v -232.9133 0 119.2572
v -233.8468 0 119.2572
v -233.6134 0 117.3902
v -234.7803 0 117.3902
v -233.6134 0 118.5571
v -234.7803 0 118.5571
v -233.8468 0 117.3902
v -234.7803 0 117.3902
v -233.8468 0 118.3237
v -234.7803 0 118.3237
v -231.0462 0 116.9234
v -231.9798 0 116.9234
v -231.0462 0 118.0903
v -231.9798 0 118.0903
v -237.8143 0 116.69
v -238.7478 0 116.69
v -237.8143 0 117.8569
v -238.7478 0 117.8569
v -231.9798 0 116.4566
v -232.9133 0 116.4566
v -231.9798 0 117.6236
v -232.9133 0 117.6236
v -234.7803 0 116.69
v -235.7139 0 116.69
v -234.7803 0 117.6236
v -235.7139 0 117.6236
v -230.5795 0 116.2233
v -231.513 0 116.2233
v -230.5795 0 117.3902
v -231.513 0 117.3902
v -233.3801 0 115.9899
v -234.3136 0 115.9899
v -233.3801 0 117.1568
v -234.3136 0 117.1568
v -235.4805 0 115.9899
v -236.414 0 115.9899
v -235.4805 0 117.1568
v -236.414 0 117.1568
v -229.4126 0 115.9899
v -230.3461 0 115.9899
v -229.4126 0 117.1568
v -230.3461 0 117.1568
v -236.414 0 115.5231
v -237.3475 0 115.5231
v -236.414 0 116.4566
v -237.3475 0 116.4566
v -232.9133 0 115.2897
v -234.0802 0 115.2897
v -232.9133 0 116.4566
v -234.0802 0 116.4566
v -234.547 0 115.2897
v -235.7139 0 115.2897
v -234.547 0 116.4566
v -235.7139 0 116.4566
v -231.7464 0 115.0564
v -232.6799 0 115.0564
v -231.7464 0 116.2233
v -232.6799 0 116.2233
v -231.0462 0 114.823
v -231.9798 0 114.823
v -231.0462 0 115.9899
v -231.9798 0 115.9899
v -229.8793 0 114.823
v -231.0462 0 114.823
v -229.8793 0 115.9899
v -231.0462 0 115.9899
v -234.0802 0 114.5896
v -235.0137 0 114.5896
v -234.0802 0 115.5231
v -235.0137 0 115.5231
v -232.4465 0 114.3562
v -233.6134 0 114.3562
v -232.4465 0 115.5231
v -233.6134 0 115.5231
v -236.1806 0 114.3562
v -237.1141 0 114.3562
v -236.1806 0 115.2897
v -237.1141 0 115.2897
v -229.646 0 113.8895
v -230.5795 0 113.8895
v -229.646 0 115.0564
v -230.5795 0 115.0564
v -236.414 0 113.8895
v -237.3475 0 113.8895
v -236.414 0 114.823
v -237.3475 0 114.823
v -231.513 0 113.6561
v -232.4465 0 113.6561
v -231.513 0 114.823
v -232.4465 0 114.823
v -215.1764 0 113.6561
v -216.1099 0 113.6561
v -215.1764 0 114.5896
v -216.1099 0 114.5896
v -233.3801 0 113.4227
v -234.3136 0 113.4227
v -233.3801 0 114.5896
v -234.3136 0 114.5896
v -235.4805 0 113.4227
v -236.414 0 113.4227
v -235.4805 0 114.5896
v -236.414 0 114.5896
v -231.7464 0 113.4227
v -232.6799 0 113.4227
v -231.7464 0 114.3562
v -232.6799 0 114.3562
v -234.547 0 113.4227
v -235.4805 0 113.4227
v -234.547 0 114.3562
v -235.4805 0 114.3562
vt 0.1347656 0.9185662
vt 0.2060202 0.9185662
vt 0.1347656 1
vt 0.2060202 1
vt 0.1347656 0.9185662
vt 0.2060202 0.9185662
vt 0.1347656 1
vt 0.2060202 1
vt 0.1347656 0.9185662
vt 0.2060202 0.9185662
vt 0.1347656 1
vt 0.2060202 1
vt 0.1347656 0.9185662
vt 0.2060202 0.9185662
vt 0.1347656 1
vt 0.2060202 1
vt 0.1347656 0.9185662
vt 0.2060202 0.9185662
vt 0.1347656 1
vt 0.2060202 1
vt 0.1347656 0.9185662
vt 0.2060202 0.9185662
vt 0.1347656 1
vt 0.2060202 1
vt 0.1347656 0.9185662
vt 0.2060202 0.9185662
vt 0.1347656 1
vt 0.2060202 1
vt 0.1347656 0.9185662
vt 0.2060202 0.9185662
vt 0.1347656 1
vt 0.2060202 1
vt 0.1347656 0.9185662
vt 0.2060202 0.9185662
vt 0.1347656 1
vt 0.2060202 1
vt 0.1347656 0.9185662
vt 0.2060202 0.9185662
vt 0.1347656 1
vt 0.2060202 1
vt 0.1347656 0.9185662
vt 0.2060202 0.9185662
vt 0.1347656 1
vt 0.2060202 1
vt 0.1347656 0.9185662
vt 0.2060202 0.9185662
vt 0.1347656 1
vt 0.2060202 1
vt 0.1347656 0.9185662
vt 0.2060202 0.9185662
vt 0.1347656 1
vt 0.2060202 1
vt 0.1347656 0.9185662
vt 0.2060202 0.9185662
vt 0.1347656 1
vt 0.2060202 1
vt 0.1347656 0.9185662
vt 0.2060202 0.9185662
vt 0.1347656 1
vt 0.2060202 1
vt 0.1347656 0.9185662
vt 0.2060202 0.9185662
vt 0.1347656 1
vt 0.2060202 1
vt 0.1347656 0.9185662
vt 0.2060202 0.9185662
vt 0.1347656 1
vt 0.2060202 1
vt 0.1347656 0.9185662
vt 0.2060202 0.9185662
vt 0.1347656 1
vt 0.2060202 1
vt 0.1347656 0.9185662
vt 0.2060202 0.9185662
vt 0.1347656 1
vt 0.2060202 1
vt 0.1347656 0.9185662
vt 0.2060202 0.9185662
vt 0.1347656 1
vt 0.2060202 1
vt 0.1347656 0.9185662
vt 0.2060202 0.9185662
vt 0.1347656 1
vt 0.2060202 1
vt 0.1347656 0.9185662
vt 0.2060202 0.9185662
vt 0.1347656 1
vt 0.2060202 1
vt 0.1347656 0.9185662
vt 0.2060202 0.9185662
vt 0.1347656 1
vt 0.2060202 1
vt 0.1347656 0.9185662
vt 0.2060202 0.9185662
vt 0.1347656 1
vt 0.2060202 1
vt 0.1347656 0.9185662
vt 0.2060202 0.9185662
vt 0.1347656 1
vt 0.2060202 1
vt 0.1347656 0.9185662
vt 0.2060202 0.9185662
vt 0.1347656 1
vt 0.2060202 1
vt 0.1347656 0.9185662
vt 0.2060202 0.9185662
vt 0.1347656 1
vt 0.2060202 1
vt 0.1347656 0.9185662
vt 0.2060202 0.9185662
vt 0.1347656 1
vt 0.2060202 1
vt 0.1347656 0.9185662
vt 0.2060202 0.9185662
vt 0.1347656 1
vt 0.2060202 1
vt 0.1347656 0.9185662
vt 0.2060202 0.9185662
vt 0.1347656 1
vt 0.2060202 1
vt 0.1347656 0.9185662
vt 0.2060202 0.9185662
vt 0.1347656 1
vt 0.2060202 1
vt 0.1347656 0.9185662
vt 0.2060202 0.9185662
vt 0.1347656 1
vt 0.2060202 1
vt 0.1347656 0.9185662
vt 0.2060202 0.9185662
vt 0.1347656 1
vt 0.2060202 1
vt 0.1347656 0.9185662
vt 0.2060202 0.9185662
vt 0.1347656 1
vt 0.2060202 1
vt 0.1347656 0.9185662
vt 0.2060202 0.9185662
vt 0.1347656 1
vt 0.2060202 1
vt 0.1347656 0.9185662
vt 0.2060202 0.9185662
vt 0.1347656 1
vt 0.2060202 1
vt 0.1347656 0.9185662
vt 0.2060202 0.9185662
vt 0.1347656 1
vt 0.2060202 1
vt 0.1347656 0.9185662
vt 0.2060202 0.9185662
vt 0.1347656 1
vt 0.2060202 1
vt 0.1347656 0.9185662
vt 0.2060202 0.9185662
vt 0.1347656 1
vt 0.2060202 1
vt 0.1347656 0.9185662
vt 0.2060202 0.9185662
vt 0.1347656 1
vt 0.2060202 1
vt 0.1347656 0.9185662
vt 0.2060202 0.9185662
vt 0.1347656 1
vt 0.2060202 1
vt 0.1347656 0.9185662
vt 0.2060202 0.9185662
vt 0.1347656 1
vt 0.2060202 1
vt 0.1347656 0.9185662
vt 0.2060202 0.9185662
vt 0.1347656 1
vt 0.2060202 1
vt 0.1347656 0.9185662
vt 0.2060202 0.9185662
vt 0.1347656 1
vt 0.2060202 1
vt 0.1347656 0.9185662
vt 0.2060202 0.9185662
vt 0.1347656 1
vt 0.2060202 1
vt 0.1347656 0.9185662
vt 0.2060202 0.9185662
vt 0.1347656 1
vt 0.2060202 1
vt 0.1347656 0.9185662
vt 0.2060202 0.9185662
vt 0.1347656 1
vt 0.2060202 1
vt 0.1347656 0.9185662
vt 0.2060202 0.9185662
vt 0.1347656 1
vt 0.2060202 1
vt 0.1347656 0.9185662
vt 0.2060202 0.9185662
vt 0.1347656 1
vt 0.2060202 1
vt 0.1347656 0.9185662
vt 0.2060202 0.9185662
vt 0.1347656 1
vt 0.2060202 1
vn 0 1 0
vn 0 1 0
vn 0 1 0
vn 0 1 0
vn 0 1 0
vn 0 1 0
vn 0 1 0
vn 0 1 0
vn 0 1 0
vn 0 1 0
vn 0 1 0
vn 0 1 0
vn 0 1 0
vn 0 1 0
vn 0 1 0
vn 0 1 0
vn 0 1 0
vn 0 1 0
vn 0 1 0
vn 0 1 0
vn 0 1 0
vn 0 1 0
vn 0 1 0
vn 0 1 0
vn 0 1 0
vn 0 1 0
vn 0 1 0
vn 0 1 0
vn 0 1 0
vn 0 1 0
vn 0 1 0
vn 0 1 0
vn 0 1 0
vn 0 1 0
vn 0 1 0
vn 0 1 0
vn 0 1 0
vn 0 1 0
vn 0 1 0
vn 0 1 0
vn 0 1 0
vn 0 1 0
vn 0 1 0
vn 0 1 0
vn 0 1 0
vn 0 1 0
vn 0 1 0
vn 0 1 0
vn 0 1 0
vn 0 1 0
vn 0 1 0
vn 0 1 0
vn 0 1 0
vn 0 1 0
vn 0 1 0
vn 0 1 0
vn 0 1 0
vn 0 1 0
vn 0 1 0
vn 0 1 0
vn 0 1 0
vn 0 1 0
vn 0 1 0
vn 0 1 0
vn 0 1 0
vn 0 1 0
vn 0 1 0
vn 0 1 0
vn 0 1 0
vn 0 1 0
vn 0 1 0
vn 0 1 0
vn 0 1 0
vn 0 1 0
vn 0 1 0
vn 0 1 0
vn 0 1 0
vn 0 1 0
vn 0 1 0
vn 0 1 0
vn 0 1 0
vn 0 1 0
vn 0 1 0
vn 0 1 0
vn 0 1 0
vn 0 1 0
vn 0 1 0
vn 0 1 0
vn 0 1 0
vn 0 1 0
vn 0 1 0
vn 0 1 0
vn 0 1 0
vn 0 1 0
vn 0 1 0
vn 0 1 0
vn 0 1 0
vn 0 1 0
vn 0 1 0
vn 0 1 0
vn 0 1 0
vn 0 1 0
vn 0 1 0
vn 0 1 0
vn 0 1 0
vn 0 1 0
vn 0 1 0
vn 0 1 0
vn 0 1 0
vn 0 1 0
vn 0 1 0
vn 0 1 0
vn 0 1 0
vn 0 1 0
vn 0 1 0
vn 0 1 0
vn 0 1 0
vn 0 1 0
vn 0 1 0
vn 0 1 0
vn 0 1 0
vn 0 1 0
vn 0 1 0
vn 0 1 0
vn 0 1 0
vn 0 1 0
vn 0 1 0
vn 0 1 0
vn 0 1 0
vn 0 1 0
vn 0 1 0
vn 0 1 0
vn 0 1 0
vn 0 1 0
vn 0 1 0
vn 0 1 0
vn 0 1 0
vn 0 1 0
vn 0 1 0
vn 0 1 0
vn 0 1 0
vn 0 1 0
vn 0 1 0
vn 0 1 0
vn 0 1 0
vn 0 1 0
vn 0 1 0
vn 0 1 0
vn 0 1 0
vn 0 1 0
vn 0 1 0
vn 0 1 0
vn 0 1 0
vn 0 1 0
vn 0 1 0
vn 0 1 0
vn 0 1 0
vn 0 1 0
vn 0 1 0
vn 0 1 0
vn 0 1 0
vn 0 1 0
vn 0 1 0
vn 0 1 0
vn 0 1 0
vn 0 1 0
vn 0 1 0
vn 0 1 0
vn 0 1 0
vn 0 1 0
vn 0 1 0
vn 0 1 0
vn 0 1 0
vn 0 1 0
vn 0 1 0
vn 0 1 0
vn 0 1 0
vn 0 1 0
vn 0 1 0
vn 0 1 0
vn 0 1 0
vn 0 1 0
vn 0 1 0
vn 0 1 0
vn 0 1 0
vn 0 1 0
vn 0 1 0
vn 0 1 0
vn 0 1 0
vn 0 1 0
vn 0 1 0
vn 0 1 0
vn 0 1 0
vn 0 1 0
vn 0 1 0
vn 0 1 0
vn 0 1 0
vn 0 1 0
vn 0 1 0
vn 0 1 0
g Grass_2_Cluster117_0
f 2/2/2 3/3/3 1/1/1
f 2/2/2 4/4/4 3/3/3
f 6/6/6 7/7/7 5/5/5
f 6/6/6 8/8/8 7/7/7
f 10/10/10 11/11/11 9/9/9
f 10/10/10 12/12/12 11/11/11
f 14/14/14 15/15/15 13/13/13
f 14/14/14 16/16/16 15/15/15
f 18/18/18 19/19/19 17/17/17
f 18/18/18 20/20/20 19/19/19
f 22/22/22 23/23/23 21/21/21
f 22/22/22 24/24/24 23/23/23
f 26/26/26 27/27/27 25/25/25
f 26/26/26 28/28/28 27/27/27
f 30/30/30 31/31/31 29/29/29
f 30/30/30 32/32/32 31/31/31
f 34/34/34 35/35/35 33/33/33
f 34/34/34 36/36/36 35/35/35
f 38/38/38 39/39/39 37/37/37
f 38/38/38 40/40/40 39/39/39
f 42/42/42 43/43/43 41/41/41
f 42/42/42 44/44/44 43/43/43
f 46/46/46 47/47/47 45/45/45
f 46/46/46 48/48/48 47/47/47
f 50/50/50 51/51/51 49/49/49
f 50/50/50 52/52/52 51/51/51
f 54/54/54 55/55/55 53/53/53
f 54/54/54 56/56/56 55/55/55
f 58/58/58 59/59/59 57/57/57
f 58/58/58 60/60/60 59/59/59
f 62/62/62 63/63/63 61/61/61
f 62/62/62 64/64/64 63/63/63
f 66/66/66 67/67/67 65/65/65
f 66/66/66 68/68/68 67/67/67
f 70/70/70 71/71/71 69/69/69
f 70/70/70 72/72/72 71/71/71
f 74/74/74 75/75/75 73/73/73
f 74/74/74 76/76/76 75/75/75
f 78/78/78 79/79/79 77/77/77
f 78/78/78 80/80/80 79/79/79
f 82/82/82 83/83/83 81/81/81
f 82/82/82 84/84/84 83/83/83
f 86/86/86 87/87/87 85/85/85
f 86/86/86 88/88/88 87/87/87
f 90/90/90 91/91/91 89/89/89
f 90/90/90 92/92/92 91/91/91
f 94/94/94 95/95/95 93/93/93
f 94/94/94 96/96/96 95/95/95
f 98/98/98 99/99/99 97/97/97
f 98/98/98 100/100/100 99/99/99
f 102/102/102 103/103/103 101/101/101
f 102/102/102 104/104/104 103/103/103
f 106/106/106 107/107/107 105/105/105
f 106/106/106 108/108/108 107/107/107
f 110/110/110 111/111/111 109/109/109
f 110/110/110 112/112/112 111/111/111
f 114/114/114 115/115/115 113/113/113
f 114/114/114 116/116/116 115/115/115
f 118/118/118 119/119/119 117/117/117
f 118/118/118 120/120/120 119/119/119
f 122/122/122 123/123/123 121/121/121
f 122/122/122 124/124/124 123/123/123
f 126/126/126 127/127/127 125/125/125
f 126/126/126 128/128/128 127/127/127
f 130/130/130 131/131/131 129/129/129
f 130/130/130 132/132/132 131/131/131
f 134/134/134 135/135/135 133/133/133
f 134/134/134 136/136/136 135/135/135
f 138/138/138 139/139/139 137/137/137
f 138/138/138 140/140/140 139/139/139
f 142/142/142 143/143/143 141/141/141
f 142/142/142 144/144/144 143/143/143
f 146/146/146 147/147/147 145/145/145
f 146/146/146 148/148/148 147/147/147
f 150/150/150 151/151/151 149/149/149
f 150/150/150 152/152/152 151/151/151
f 154/154/154 155/155/155 153/153/153
f 154/154/154 156/156/156 155/155/155
f 158/158/158 159/159/159 157/157/157
f 158/158/158 160/160/160 159/159/159
f 162/162/162 163/163/163 161/161/161
f 162/162/162 164/164/164 163/163/163
f 166/166/166 167/167/167 165/165/165
f 166/166/166 168/168/168 167/167/167
f 170/170/170 171/171/171 169/169/169
f 170/170/170 172/172/172 171/171/171
f 174/174/174 175/175/175 173/173/173
f 174/174/174 176/176/176 175/175/175
f 178/178/178 179/179/179 177/177/177
f 178/178/178 180/180/180 179/179/179
f 182/182/182 183/183/183 181/181/181
f 182/182/182 184/184/184 183/183/183
f 186/186/186 187/187/187 185/185/185
f 186/186/186 188/188/188 187/187/187
f 190/190/190 191/191/191 189/189/189
f 190/190/190 192/192/192 191/191/191
f 194/194/194 195/195/195 193/193/193
f 194/194/194 196/196/196 195/195/195
f 198/198/198 199/199/199 197/197/197
f 198/198/198 200/200/200 199/199/199
