g Grass_2_Cluster306
v 114.9373 -0.1453171 442.5453
v 113.8388 -0.1453171 442.5453
v 114.9373 -0.1453171 443.6438
v 113.8388 -0.1453171 443.6438
v 116.0358 -0.1453171 442.5453
v 115.4865 -0.1453171 442.5453
v 116.0358 -0.1453171 443.6438
v 115.4865 -0.1453171 443.6438
v 116.585 -0.1453171 441.9961
v 116.0358 -0.1453171 441.9961
v 116.585 -0.1453171 443.0945
v 116.0358 -0.1453171 443.0945
v 113.8388 -0.1453171 441.4468
v 113.2896 -0.1453171 441.4468
v 113.8388 -0.1453171 442.5453
v 113.2896 -0.1453171 442.5453
v 113.2896 -0.1453171 441.4468
v 112.1911 -0.1453171 441.4468
v 113.2896 -0.1453171 442.5453
v 112.1911 -0.1453171 442.5453
v 116.585 -0.1453171 441.4468
v 115.4865 -0.1453171 441.4468
v 116.585 -0.1453171 442.5453
v 115.4865 -0.1453171 442.5453
v 116.0358 -0.1453171 440.8976
v 115.4865 -0.1453171 440.8976
v 116.0358 -0.1453171 441.9961
v 115.4865 -0.1453171 441.9961
v 113.8388 -0.1453171 440.8976
v 113.2896 -0.1453171 440.8976
v 113.8388 -0.1453171 441.9961
v 113.2896 -0.1453171 441.9961
v 113.8388 -0.1453171 440.8976
v 113.2896 -0.1453171 440.8976
v 113.8388 -0.1453171 441.9961
v 113.2896 -0.1453171 441.9961
v 115.4865 -0.1453171 440.3483
v 114.9373 -0.1453171 440.3483
v 115.4865 -0.1453171 441.4468
v 114.9373 -0.1453171 441.4468
v 114.9373 -0.1453171 440.3483
v 113.8388 -0.1453171 440.3483
v 114.9373 -0.1453171 441.4468
v 113.8388 -0.1453171 441.4468
v 118.2328 -0.1453171 439.2498
v 117.1343 -0.1453171 439.2498
v 118.2328 -0.1453171 440.3483
v 117.1343 -0.1453171 440.3483
v 115.4865 -0.1453171 439.2498
v 114.3881 -0.1453171 439.2498
v 115.4865 -0.1453171 440.3483
v 114.3881 -0.1453171 440.3483
v 116.0358 -0.1453171 438.7006
v 114.9373 -0.1453171 438.7006
v 116.0358 -0.1453171 439.2498
v 114.9373 -0.1453171 439.2498
v 94.06603 -0.1453171 435.4051
v 92.96754 -0.1453171 435.4051
v 94.06603 -0.1453171 436.5036
v 92.96754 -0.1453171 436.5036
v 101.2062 -0.1453171 427.1665
v 100.657 -0.1453171 427.1665
v 101.2062 -0.1453171 428.2649
v 100.657 -0.1453171 428.2649
v 91.31981 -0.1453171 416.1816
v 90.22133 -0.1453171 416.1816
v 91.31981 -0.1453171 417.2801
v 90.22133 -0.1453171 417.2801
v 91.31981 -0.1453171 415.0831
v 90.77057 -0.1453171 415.0831
v 91.31981 -0.1453171 416.1816
v 90.77057 -0.1453171 416.1816
v 92.96754 -0.1453171 414.5338
v 91.86906 -0.1453171 414.5338
v 92.96754 -0.1453171 415.6324
v 91.86906 -0.1453171 415.6324
v 94.61528 -0.1453171 413.9846
v 93.51678 -0.1453171 413.9846
v 94.61528 -0.1453171 415.0831
v 93.51678 -0.1453171 415.0831
v 91.31981 -0.1453171 413.9846
v 90.22133 -0.1453171 413.9846
v 91.31981 -0.1453171 415.0831
v 90.22133 -0.1453171 415.0831
vt 0.1347656 0.9185662
vt 0.2060202 0.9185662
vt 0.1347656 1
vt 0.2060202 1
vt 0.1347656 0.9185662
vt 0.2060202 0.9185662
vt 0.1347656 1
vt 0.2060202 1
vt 0.1347656 0.9185662
vt 0.2060202 0.9185662
vt 0.1347656 1
vt 0.2060202 1
vt 0.1347656 0.9185662
vt 0.2060202 0.9185662
vt 0.1347656 1
vt 0.2060202 1
vt 0.1347656 0.9185662
vt 0.2060202 0.9185662
vt 0.1347656 1
vt 0.2060202 1
vt 0.1347656 0.9185662
vt 0.2060202 0.9185662
vt 0.1347656 1
vt 0.2060202 1
vt 0.1347656 0.9185662
vt 0.2060202 0.9185662
vt 0.1347656 1
vt 0.2060202 1
vt 0.1347656 0.9185662
vt 0.2060202 0.9185662
vt 0.1347656 1
vt 0.2060202 1
vt 0.1347656 0.9185662
vt 0.2060202 0.9185662
vt 0.1347656 1
vt 0.2060202 1
vt 0.1347656 0.9185662
vt 0.2060202 0.9185662
vt 0.1347656 1
vt 0.2060202 1
vt 0.1347656 0.9185662
vt 0.2060202 0.9185662
vt 0.1347656 1
vt 0.2060202 1
vt 0.1347656 0.9185662
vt 0.2060202 0.9185662
vt 0.1347656 1
vt 0.2060202 1
vt 0.1347656 0.9185662
vt 0.2060202 0.9185662
vt 0.1347656 1
vt 0.2060202 1
vt 0.1347656 0.9185662
vt 0.2060202 0.9185662
vt 0.1347656 1
vt 0.2060202 1
vt 0.1347656 0.9185662
vt 0.2060202 0.9185662
vt 0.1347656 1
vt 0.2060202 1
vt 0.1347656 0.9185662
vt 0.2060202 0.9185662
vt 0.1347656 1
vt 0.2060202 1
vt 0.1347656 0.9185662
vt 0.2060202 0.9185662
vt 0.1347656 1
vt 0.2060202 1
vt 0.1347656 0.9185662
vt 0.2060202 0.9185662
vt 0.1347656 1
vt 0.2060202 1
vt 0.1347656 0.9185662
vt 0.2060202 0.9185662
vt 0.1347656 1
vt 0.2060202 1
vt 0.1347656 0.9185662
vt 0.2060202 0.9185662
vt 0.1347656 1
vt 0.2060202 1
vt 0.1347656 0.9185662
vt 0.2060202 0.9185662
vt 0.1347656 1
vt 0.2060202 1
vn 0 1 0
vn 0 1 0
vn 0 1 0
vn 0 1 0
vn 0 1 0
vn 0 1 0
vn 0 1 0
vn 0 1 0
vn 0 1 0
vn 0 1 0
vn 0 1 0
vn 0 1 0
vn 0 1 0
vn 0 1 0
vn 0 1 0
vn 0 1 0
vn 0 1 0
vn 0 1 0
vn 0 1 0
vn 0 1 0
vn 0 1 0
vn 0 1 0
vn 0 1 0
vn 0 1 0
vn 0 1 0
vn 0 1 0
vn 0 1 0
vn 0 1 0
vn 0 1 0
vn 0 1 0
vn 0 1 0
vn 0 1 0
vn 0 1 0
vn 0 1 0
vn 0 1 0
vn 0 1 0
vn 0 1 0
vn 0 1 0
vn 0 1 0
vn 0 1 0
vn 0 1 0
vn 0 1 0
vn 0 1 0
vn 0 1 0
vn 0 1 0
vn 0 1 0
vn 0 1 0
vn 0 1 0
vn 0 1 0
vn 0 1 0
vn 0 1 0
vn 0 1 0
vn 0 1 0
vn 0 1 0
vn 0 1 0
vn 0 1 0
vn 0 1 0
vn 0 1 0
vn 0 1 0
vn 0 1 0
vn 0 1 0
vn 0 1 0
vn 0 1 0
vn 0 1 0
vn 0 1 0
vn 0 1 0
vn 0 1 0
vn 0 1 0
vn 0 1 0
vn 0 1 0
vn 0 1 0
vn 0 1 0
vn 0 1 0
vn 0 1 0
vn 0 1 0
vn 0 1 0
vn 0 1 0
vn 0 1 0
vn 0 1 0
vn 0 1 0
vn 0 1 0
vn 0 1 0
vn 0 1 0
vn 0 1 0
g Grass_2_Cluster306_0
f 2/2/2 3/3/3 1/1/1
f 2/2/2 4/4/4 3/3/3
f 6/6/6 7/7/7 5/5/5
f 6/6/6 8/8/8 7/7/7
f 10/10/10 11/11/11 9/9/9
f 10/10/10 12/12/12 11/11/11
f 14/14/14 15/15/15 13/13/13
f 14/14/14 16/16/16 15/15/15
f 18/18/18 19/19/19 17/17/17
f 18/18/18 20/20/20 19/19/19
f 22/22/22 23/23/23 21/21/21
f 22/22/22 24/24/24 23/23/23
f 26/26/26 27/27/27 25/25/25
f 26/26/26 28/28/28 27/27/27
f 30/30/30 31/31/31 29/29/29
f 30/30/30 32/32/32 31/31/31
f 34/34/34 35/35/35 33/33/33
f 34/34/34 36/36/36 35/35/35
f 38/38/38 39/39/39 37/37/37
f 38/38/38 40/40/40 39/39/39
f 42/42/42 43/43/43 41/41/41
f 42/42/42 44/44/44 43/43/43
f 46/46/46 47/47/47 45/45/45
f 46/46/46 48/48/48 47/47/47
f 50/50/50 51/51/51 49/49/49
f 50/50/50 52/52/52 51/51/51
f 54/54/54 55/55/55 53/53/53
f 54/54/54 56/56/56 55/55/55
f 58/58/58 59/59/59 57/57/57
f 58/58/58 60/60/60 59/59/59
f 62/62/62 63/63/63 61/61/61
f 62/62/62 64/64/64 63/63/63
f 66/66/66 67/67/67 65/65/65
f 66/66/66 68/68/68 67/67/67
f 70/70/70 71/71/71 69/69/69
f 70/70/70 72/72/72 71/71/71
f 74/74/74 75/75/75 73/73/73
f 74/74/74 76/76/76 75/75/75
f 78/78/78 79/79/79 77/77/77
f 78/78/78 80/80/80 79/79/79
f 82/82/82 83/83/83 81/81/81
f 82/82/82 84/84/84 83/83/83
