g Grass_0_Cluster264
v 180.0627 -0.03790283 382.0329
v 178.9616 -0.03790283 382.0329
v 180.0627 -0.03790283 383.134
v 178.9616 -0.03790283 383.134
v 179.5121 -0.03790283 381.4824
v 178.4111 -0.03790283 381.4824
v 179.5121 -0.03790283 383.134
v 178.4111 -0.03790283 383.134
v 153.0865 -0.03790283 380.3814
v 151.9854 -0.03790283 380.3814
v 153.0865 -0.03790283 382.0329
v 151.9854 -0.03790283 382.0329
v 151.4349 -0.03790283 379.8308
v 150.8843 -0.03790283 379.8308
v 151.4349 -0.03790283 380.9319
v 150.8843 -0.03790283 380.9319
v 151.4349 -0.03790283 376.5276
v 150.3338 -0.03790283 376.5276
v 151.4349 -0.03790283 377.6287
v 150.3338 -0.03790283 377.6287
v 179.5121 -0.03790283 375.4265
v 178.9616 -0.03790283 375.4265
v 179.5121 -0.03790283 377.0782
v 178.9616 -0.03790283 377.0782
v 178.9616 -0.03790283 371.0222
v 178.4111 -0.03790283 371.0222
v 178.9616 -0.03790283 372.1233
v 178.4111 -0.03790283 372.1233
v 178.4111 -0.03790283 368.8201
v 177.8605 -0.03790283 368.8201
v 178.4111 -0.03790283 369.9212
v 177.8605 -0.03790283 369.9212
v 177.31 -0.03790283 368.8201
v 176.2089 -0.03790283 368.8201
v 177.31 -0.03790283 369.9212
v 176.2089 -0.03790283 369.9212
v 177.8605 -0.03790283 367.1685
v 176.7594 -0.03790283 367.1685
v 177.8605 -0.03790283 368.2696
v 176.7594 -0.03790283 368.2696
v 179.5121 -0.03790283 366.618
v 178.9616 -0.03790283 366.618
v 179.5121 -0.03790283 367.7191
v 178.9616 -0.03790283 367.7191
v 155.8391 -0.03790283 366.0675
v 154.7381 -0.03790283 366.0675
v 155.8391 -0.03790283 367.1685
v 154.7381 -0.03790283 367.1685
v 180.0627 -0.03790283 366.0675
v 178.9616 -0.03790283 366.0675
v 180.0627 -0.03790283 367.1685
v 178.9616 -0.03790283 367.1685
v 154.7381 -0.03790283 364.9664
v 153.637 -0.03790283 364.9664
v 154.7381 -0.03790283 366.0675
v 153.637 -0.03790283 366.0675
v 153.637 -0.03790283 363.8653
v 153.0865 -0.03790283 363.8653
v 153.637 -0.03790283 364.9664
v 153.0865 -0.03790283 364.9664
v 158.0413 -0.03790283 363.3148
v 156.9402 -0.03790283 363.3148
v 158.0413 -0.03790283 364.9664
v 156.9402 -0.03790283 364.9664
v 167.4004 -0.03790283 362.7643
v 166.8498 -0.03790283 362.7643
v 167.4004 -0.03790283 363.8653
v 166.8498 -0.03790283 363.8653
v 154.1875 -0.03790283 362.7643
v 153.0865 -0.03790283 362.7643
v 154.1875 -0.03790283 363.8653
v 153.0865 -0.03790283 363.8653
v 159.6929 -0.03790283 362.7643
v 158.5918 -0.03790283 362.7643
v 159.6929 -0.03790283 363.8653
v 158.5918 -0.03790283 363.8653
v 158.0413 -0.03790283 362.2137
v 157.4907 -0.03790283 362.2137
v 158.0413 -0.03790283 363.8653
v 157.4907 -0.03790283 363.8653
v 156.3897 -0.03790283 362.2137
v 155.2886 -0.03790283 362.2137
v 156.3897 -0.03790283 363.8653
v 155.2886 -0.03790283 363.8653
v 157.4907 -0.03790283 361.6632
v 156.3897 -0.03790283 361.6632
v 157.4907 -0.03790283 362.7643
v 156.3897 -0.03790283 362.7643
v 166.8498 -0.03790283 361.1126
v 166.2993 -0.03790283 361.1126
v 166.8498 -0.03790283 362.2137
v 166.2993 -0.03790283 362.2137
v 158.5918 -0.03790283 359.461
v 157.4907 -0.03790283 359.461
v 158.5918 -0.03790283 360.5621
v 157.4907 -0.03790283 360.5621
v 179.5121 -0.03790283 358.36
v 178.9616 -0.03790283 358.36
v 179.5121 -0.03790283 359.461
v 178.9616 -0.03790283 359.461
v 178.9616 -0.03790283 356.1578
v 177.8605 -0.03790283 356.1578
v 178.9616 -0.03790283 357.2589
v 177.8605 -0.03790283 357.2589
vt 0 0.9058824
vt 0.06666667 0.9058824
vt 0 1
vt 0.06666667 1
vt 0 0.9058824
vt 0.06666667 0.9058824
vt 0 1
vt 0.06666667 1
vt 0 0.9058824
vt 0.06666667 0.9058824
vt 0 1
vt 0.06666667 1
vt 0 0.9058824
vt 0.06666667 0.9058824
vt 0 1
vt 0.06666667 1
vt 0 0.9058824
vt 0.06666667 0.9058824
vt 0 1
vt 0.06666667 1
vt 0 0.9058824
vt 0.06666667 0.9058824
vt 0 1
vt 0.06666667 1
vt 0 0.9058824
vt 0.06666667 0.9058824
vt 0 1
vt 0.06666667 1
vt 0 0.9058824
vt 0.06666667 0.9058824
vt 0 1
vt 0.06666667 1
vt 0 0.9058824
vt 0.06666667 0.9058824
vt 0 1
vt 0.06666667 1
vt 0 0.9058824
vt 0.06666667 0.9058824
vt 0 1
vt 0.06666667 1
vt 0 0.9058824
vt 0.06666667 0.9058824
vt 0 1
vt 0.06666667 1
vt 0 0.9058824
vt 0.06666667 0.9058824
vt 0 1
vt 0.06666667 1
vt 0 0.9058824
vt 0.06666667 0.9058824
vt 0 1
vt 0.06666667 1
vt 0 0.9058824
vt 0.06666667 0.9058824
vt 0 1
vt 0.06666667 1
vt 0 0.9058824
vt 0.06666667 0.9058824
vt 0 1
vt 0.06666667 1
vt 0 0.9058824
vt 0.06666667 0.9058824
vt 0 1
vt 0.06666667 1
vt 0 0.9058824
vt 0.06666667 0.9058824
vt 0 1
vt 0.06666667 1
vt 0 0.9058824
vt 0.06666667 0.9058824
vt 0 1
vt 0.06666667 1
vt 0 0.9058824
vt 0.06666667 0.9058824
vt 0 1
vt 0.06666667 1
vt 0 0.9058824
vt 0.06666667 0.9058824
vt 0 1
vt 0.06666667 1
vt 0 0.9058824
vt 0.06666667 0.9058824
vt 0 1
vt 0.06666667 1
vt 0 0.9058824
vt 0.06666667 0.9058824
vt 0 1
vt 0.06666667 1
vt 0 0.9058824
vt 0.06666667 0.9058824
vt 0 1
vt 0.06666667 1
vt 0 0.9058824
vt 0.06666667 0.9058824
vt 0 1
vt 0.06666667 1
vt 0 0.9058824
vt 0.06666667 0.9058824
vt 0 1
vt 0.06666667 1
vt 0 0.9058824
vt 0.06666667 0.9058824
vt 0 1
vt 0.06666667 1
vn 0 1 0
vn 0 1 0
vn 0 1 0
vn 0 1 0
vn 0 1 0
vn 0 1 0
vn 0 1 0
vn 0 1 0
vn 0 1 0
vn 0 1 0
vn 0 1 0
vn 0 1 0
vn 0 1 0
vn 0 1 0
vn 0 1 0
vn 0 1 0
vn 0 1 0
vn 0 1 0
vn 0 1 0
vn 0 1 0
vn 0 1 0
vn 0 1 0
vn 0 1 0
vn 0 1 0
vn 0 1 0
vn 0 1 0
vn 0 1 0
vn 0 1 0
vn 0 1 0
vn 0 1 0
vn 0 1 0
vn 0 1 0
vn 0 1 0
vn 0 1 0
vn 0 1 0
vn 0 1 0
vn 0 1 0
vn 0 1 0
vn 0 1 0
vn 0 1 0
vn 0 1 0
vn 0 1 0
vn 0 1 0
vn 0 1 0
vn 0 1 0
vn 0 1 0
vn 0 1 0
vn 0 1 0
vn 0 1 0
vn 0 1 0
vn 0 1 0
vn 0 1 0
vn 0 1 0
vn 0 1 0
vn 0 1 0
vn 0 1 0
vn 0 1 0
vn 0 1 0
vn 0 1 0
vn 0 1 0
vn 0 1 0
vn 0 1 0
vn 0 1 0
vn 0 1 0
vn 0 1 0
vn 0 1 0
vn 0 1 0
vn 0 1 0
vn 0 1 0
vn 0 1 0
vn 0 1 0
vn 0 1 0
vn 0 1 0
vn 0 1 0
vn 0 1 0
vn 0 1 0
vn 0 1 0
vn 0 1 0
vn 0 1 0
vn 0 1 0
vn 0 1 0
vn 0 1 0
vn 0 1 0
vn 0 1 0
vn 0 1 0
vn 0 1 0
vn 0 1 0
vn 0 1 0
vn 0 1 0
vn 0 1 0
vn 0 1 0
vn 0 1 0
vn 0 1 0
vn 0 1 0
vn 0 1 0
vn 0 1 0
vn 0 1 0
vn 0 1 0
vn 0 1 0
vn 0 1 0
vn 0 1 0
vn 0 1 0
vn 0 1 0
vn 0 1 0
g Grass_0_Cluster264_0
f 2/2/2 3/3/3 1/1/1
f 2/2/2 4/4/4 3/3/3
f 6/6/6 7/7/7 5/5/5
f 6/6/6 8/8/8 7/7/7
f 10/10/10 11/11/11 9/9/9
f 10/10/10 12/12/12 11/11/11
f 14/14/14 15/15/15 13/13/13
f 14/14/14 16/16/16 15/15/15
f 18/18/18 19/19/19 17/17/17
f 18/18/18 20/20/20 19/19/19
f 22/22/22 23/23/23 21/21/21
f 22/22/22 24/24/24 23/23/23
f 26/26/26 27/27/27 25/25/25
f 26/26/26 28/28/28 27/27/27
f 30/30/30 31/31/31 29/29/29
f 30/30/30 32/32/32 31/31/31
f 34/34/34 35/35/35 33/33/33
f 34/34/34 36/36/36 35/35/35
f 38/38/38 39/39/39 37/37/37
f 38/38/38 40/40/40 39/39/39
f 42/42/42 43/43/43 41/41/41
f 42/42/42 44/44/44 43/43/43
f 46/46/46 47/47/47 45/45/45
f 46/46/46 48/48/48 47/47/47
f 50/50/50 51/51/51 49/49/49
f 50/50/50 52/52/52 51/51/51
f 54/54/54 55/55/55 53/53/53
f 54/54/54 56/56/56 55/55/55
f 58/58/58 59/59/59 57/57/57
f 58/58/58 60/60/60 59/59/59
f 62/62/62 63/63/63 61/61/61
f 62/62/62 64/64/64 63/63/63
f 66/66/66 67/67/67 65/65/65
f 66/66/66 68/68/68 67/67/67
f 70/70/70 71/71/71 69/69/69
f 70/70/70 72/72/72 71/71/71
f 74/74/74 75/75/75 73/73/73
f 74/74/74 76/76/76 75/75/75
f 78/78/78 79/79/79 77/77/77
f 78/78/78 80/80/80 79/79/79
f 82/82/82 83/83/83 81/81/81
f 82/82/82 84/84/84 83/83/83
f 86/86/86 87/87/87 85/85/85
f 86/86/86 88/88/88 87/87/87
f 90/90/90 91/91/91 89/89/89
f 90/90/90 92/92/92 91/91/91
f 94/94/94 95/95/95 93/93/93
f 94/94/94 96/96/96 95/95/95
f 98/98/98 99/99/99 97/97/97
f 98/98/98 100/100/100 99/99/99
f 102/102/102 103/103/103 101/101/101
f 102/102/102 104/104/104 103/103/103
