g Grass_0_Cluster285
v 145.0061 0.02101135 413.0451
v 144.4547 0.02101135 413.0451
v 145.0061 0.02101135 414.1479
v 144.4547 0.02101135 414.1479
v 121.2945 0.02101135 411.9422
v 120.1916 0.02101135 411.9422
v 121.2945 0.02101135 413.5965
v 120.1916 0.02101135 413.5965
v 142.8004 0.02101135 410.8393
v 141.6975 0.02101135 410.8393
v 142.8004 0.02101135 411.9422
v 141.6975 0.02101135 411.9422
v 120.743 0.02101135 410.8393
v 119.6402 0.02101135 410.8393
v 120.743 0.02101135 411.9422
v 119.6402 0.02101135 411.9422
v 139.4918 0.02101135 409.7364
v 138.9403 0.02101135 409.7364
v 139.4918 0.02101135 410.8393
v 138.9403 0.02101135 410.8393
v 123.5002 0.02101135 409.185
v 122.3973 0.02101135 409.185
v 123.5002 0.02101135 410.2879
v 122.3973 0.02101135 410.2879
v 141.6975 0.02101135 408.6336
v 141.1461 0.02101135 408.6336
v 141.6975 0.02101135 409.7364
v 141.1461 0.02101135 409.7364
v 124.0516 0.02101135 408.6336
v 123.5002 0.02101135 408.6336
v 124.0516 0.02101135 409.7364
v 123.5002 0.02101135 409.7364
v 127.9117 0.02101135 405.325
v 127.3602 0.02101135 405.325
v 127.9117 0.02101135 406.4278
v 127.3602 0.02101135 406.4278
v 139.4918 0.02101135 405.325
v 138.9403 0.02101135 405.325
v 139.4918 0.02101135 406.4278
v 138.9403 0.02101135 406.4278
v 149.969 0.02101135 403.6707
v 148.8661 0.02101135 403.6707
v 149.969 0.02101135 404.7735
v 148.8661 0.02101135 404.7735
v 149.4176 0.02101135 401.4649
v 148.3147 0.02101135 401.4649
v 149.4176 0.02101135 402.5678
v 148.3147 0.02101135 402.5678
v 148.3147 0.02101135 400.3621
v 147.7633 0.02101135 400.3621
v 148.3147 0.02101135 401.4649
v 147.7633 0.02101135 401.4649
v 137.286 0.02101135 394.2963
v 136.1832 0.02101135 394.2963
v 137.286 0.02101135 395.9506
v 136.1832 0.02101135 395.9506
v 149.4176 0.02101135 394.2963
v 148.3147 0.02101135 394.2963
v 149.4176 0.02101135 395.3991
v 148.3147 0.02101135 395.3991
v 147.2119 0.02101135 393.7448
v 146.6604 0.02101135 393.7448
v 147.2119 0.02101135 395.3991
v 146.6604 0.02101135 395.3991
v 137.286 0.02101135 393.1935
v 136.7346 0.02101135 393.1935
v 137.286 0.02101135 394.2963
v 136.7346 0.02101135 394.2963
v 136.7346 0.02101135 392.642
v 135.6317 0.02101135 392.642
v 136.7346 0.02101135 393.7448
v 135.6317 0.02101135 393.7448
v 130.6688 0.02101135 392.0905
v 130.1174 0.02101135 392.0905
v 130.6688 0.02101135 393.7448
v 130.1174 0.02101135 393.7448
v 147.7633 0.02101135 392.0905
v 146.6604 0.02101135 392.0905
v 147.7633 0.02101135 393.1935
v 146.6604 0.02101135 393.1935
v 135.0803 0.02101135 391.5391
v 134.5289 0.02101135 391.5391
v 135.0803 0.02101135 392.642
v 134.5289 0.02101135 392.642
v 144.4547 0.02101135 389.8848
v 143.9032 0.02101135 389.8848
v 144.4547 0.02101135 391.5391
v 143.9032 0.02101135 391.5391
v 145.5576 0.02101135 389.8848
v 144.4547 0.02101135 389.8848
v 145.5576 0.02101135 390.9877
v 144.4547 0.02101135 390.9877
v 131.2203 0.02101135 389.8848
v 130.1174 0.02101135 389.8848
v 131.2203 0.02101135 390.9877
v 130.1174 0.02101135 390.9877
v 131.2203 0.02101135 388.782
v 130.6688 0.02101135 388.782
v 131.2203 0.02101135 390.4362
v 130.6688 0.02101135 390.4362
v 130.6688 0.02101135 388.2305
v 129.566 0.02101135 388.2305
v 130.6688 0.02101135 389.3334
v 129.566 0.02101135 389.3334
v 129.566 0.02101135 387.1277
v 129.0145 0.02101135 387.1277
v 129.566 0.02101135 388.782
v 129.0145 0.02101135 388.782
v 126.8088 0.02101135 386.5762
v 126.2574 0.02101135 386.5762
v 126.8088 0.02101135 387.6791
v 126.2574 0.02101135 387.6791
v 129.0145 0.02101135 385.4734
v 128.4631 0.02101135 385.4734
v 129.0145 0.02101135 386.5762
v 128.4631 0.02101135 386.5762
v 129.566 0.02101135 384.3705
v 128.4631 0.02101135 384.3705
v 129.566 0.02101135 386.0248
v 128.4631 0.02101135 386.0248
v 135.6317 0.02101135 384.3705
v 135.0803 0.02101135 384.3705
v 135.6317 0.02101135 385.4734
v 135.0803 0.02101135 385.4734
v 127.9117 0.02101135 383.8191
v 126.8088 0.02101135 383.8191
v 127.9117 0.02101135 384.9219
v 126.8088 0.02101135 384.9219
v 131.2203 0.02101135 383.2676
v 130.1174 0.02101135 383.2676
v 131.2203 0.02101135 384.3705
v 130.1174 0.02101135 384.3705
v 129.566 0.02101135 383.2676
v 128.4631 0.02101135 383.2676
v 129.566 0.02101135 384.3705
v 128.4631 0.02101135 384.3705
vt 0 0.9058824
vt 0.06666667 0.9058824
vt 0 1
vt 0.06666667 1
vt 0 0.9058824
vt 0.06666667 0.9058824
vt 0 1
vt 0.06666667 1
vt 0 0.9058824
vt 0.06666667 0.9058824
vt 0 1
vt 0.06666667 1
vt 0 0.9058824
vt 0.06666667 0.9058824
vt 0 1
vt 0.06666667 1
vt 0 0.9058824
vt 0.06666667 0.9058824
vt 0 1
vt 0.06666667 1
vt 0 0.9058824
vt 0.06666667 0.9058824
vt 0 1
vt 0.06666667 1
vt 0 0.9058824
vt 0.06666667 0.9058824
vt 0 1
vt 0.06666667 1
vt 0 0.9058824
vt 0.06666667 0.9058824
vt 0 1
vt 0.06666667 1
vt 0 0.9058824
vt 0.06666667 0.9058824
vt 0 1
vt 0.06666667 1
vt 0 0.9058824
vt 0.06666667 0.9058824
vt 0 1
vt 0.06666667 1
vt 0 0.9058824
vt 0.06666667 0.9058824
vt 0 1
vt 0.06666667 1
vt 0 0.9058824
vt 0.06666667 0.9058824
vt 0 1
vt 0.06666667 1
vt 0 0.9058824
vt 0.06666667 0.9058824
vt 0 1
vt 0.06666667 1
vt 0 0.9058824
vt 0.06666667 0.9058824
vt 0 1
vt 0.06666667 1
vt 0 0.9058824
vt 0.06666667 0.9058824
vt 0 1
vt 0.06666667 1
vt 0 0.9058824
vt 0.06666667 0.9058824
vt 0 1
vt 0.06666667 1
vt 0 0.9058824
vt 0.06666667 0.9058824
vt 0 1
vt 0.06666667 1
vt 0 0.9058824
vt 0.06666667 0.9058824
vt 0 1
vt 0.06666667 1
vt 0 0.9058824
vt 0.06666667 0.9058824
vt 0 1
vt 0.06666667 1
vt 0 0.9058824
vt 0.06666667 0.9058824
vt 0 1
vt 0.06666667 1
vt 0 0.9058824
vt 0.06666667 0.9058824
vt 0 1
vt 0.06666667 1
vt 0 0.9058824
vt 0.06666667 0.9058824
vt 0 1
vt 0.06666667 1
vt 0 0.9058824
vt 0.06666667 0.9058824
vt 0 1
vt 0.06666667 1
vt 0 0.9058824
vt 0.06666667 0.9058824
vt 0 1
vt 0.06666667 1
vt 0 0.9058824
vt 0.06666667 0.9058824
vt 0 1
vt 0.06666667 1
vt 0 0.9058824
vt 0.06666667 0.9058824
vt 0 1
vt 0.06666667 1
vt 0 0.9058824
vt 0.06666667 0.9058824
vt 0 1
vt 0.06666667 1
vt 0 0.9058824
vt 0.06666667 0.9058824
vt 0 1
vt 0.06666667 1
vt 0 0.9058824
vt 0.06666667 0.9058824
vt 0 1
vt 0.06666667 1
vt 0 0.9058824
vt 0.06666667 0.9058824
vt 0 1
vt 0.06666667 1
vt 0 0.9058824
vt 0.06666667 0.9058824
vt 0 1
vt 0.06666667 1
vt 0 0.9058824
vt 0.06666667 0.9058824
vt 0 1
vt 0.06666667 1
vt 0 0.9058824
vt 0.06666667 0.9058824
vt 0 1
vt 0.06666667 1
vt 0 0.9058824
vt 0.06666667 0.9058824
vt 0 1
vt 0.06666667 1
vn 0 1 0
vn 0 1 0
vn 0 1 0
vn 0 1 0
vn 0 1 0
vn 0 1 0
vn 0 1 0
vn 0 1 0
vn 0 1 0
vn 0 1 0
vn 0 1 0
vn 0 1 0
vn 0 1 0
vn 0 1 0
vn 0 1 0
vn 0 1 0
vn 0 1 0
vn 0 1 0
vn 0 1 0
vn 0 1 0
vn 0 1 0
vn 0 1 0
vn 0 1 0
vn 0 1 0
vn 0 1 0
vn 0 1 0
vn 0 1 0
vn 0 1 0
vn 0 1 0
vn 0 1 0
vn 0 1 0
vn 0 1 0
vn 0 1 0
vn 0 1 0
vn 0 1 0
vn 0 1 0
vn 0 1 0
vn 0 1 0
vn 0 1 0
vn 0 1 0
vn 0 1 0
vn 0 1 0
vn 0 1 0
vn 0 1 0
vn 0 1 0
vn 0 1 0
vn 0 1 0
vn 0 1 0
vn 0 1 0
vn 0 1 0
vn 0 1 0
vn 0 1 0
vn 0 1 0
vn 0 1 0
vn 0 1 0
vn 0 1 0
vn 0 1 0
vn 0 1 0
vn 0 1 0
vn 0 1 0
vn 0 1 0
vn 0 1 0
vn 0 1 0
vn 0 1 0
vn 0 1 0
vn 0 1 0
vn 0 1 0
vn 0 1 0
vn 0 1 0
vn 0 1 0
vn 0 1 0
vn 0 1 0
vn 0 1 0
vn 0 1 0
vn 0 1 0
vn 0 1 0
vn 0 1 0
vn 0 1 0
vn 0 1 0
vn 0 1 0
vn 0 1 0
vn 0 1 0
vn 0 1 0
vn 0 1 0
vn 0 1 0
vn 0 1 0
vn 0 1 0
vn 0 1 0
vn 0 1 0
vn 0 1 0
vn 0 1 0
vn 0 1 0
vn 0 1 0
vn 0 1 0
vn 0 1 0
vn 0 1 0
vn 0 1 0
vn 0 1 0
vn 0 1 0
vn 0 1 0
vn 0 1 0
vn 0 1 0
vn 0 1 0
vn 0 1 0
vn 0 1 0
vn 0 1 0
vn 0 1 0
vn 0 1 0
vn 0 1 0
vn 0 1 0
vn 0 1 0
vn 0 1 0
vn 0 1 0
vn 0 1 0
vn 0 1 0
vn 0 1 0
vn 0 1 0
vn 0 1 0
vn 0 1 0
vn 0 1 0
vn 0 1 0
vn 0 1 0
vn 0 1 0
vn 0 1 0
vn 0 1 0
vn 0 1 0
vn 0 1 0
vn 0 1 0
vn 0 1 0
vn 0 1 0
vn 0 1 0
vn 0 1 0
vn 0 1 0
vn 0 1 0
vn 0 1 0
vn 0 1 0
g Grass_0_Cluster285_0
f 2/2/2 3/3/3 1/1/1
f 2/2/2 4/4/4 3/3/3
f 6/6/6 7/7/7 5/5/5
f 6/6/6 8/8/8 7/7/7
f 10/10/10 11/11/11 9/9/9
f 10/10/10 12/12/12 11/11/11
f 14/14/14 15/15/15 13/13/13
f 14/14/14 16/16/16 15/15/15
f 18/18/18 19/19/19 17/17/17
f 18/18/18 20/20/20 19/19/19
f 22/22/22 23/23/23 21/21/21
f 22/22/22 24/24/24 23/23/23
f 26/26/26 27/27/27 25/25/25
f 26/26/26 28/28/28 27/27/27
f 30/30/30 31/31/31 29/29/29
f 30/30/30 32/32/32 31/31/31
f 34/34/34 35/35/35 33/33/33
f 34/34/34 36/36/36 35/35/35
f 38/38/38 39/39/39 37/37/37
f 38/38/38 40/40/40 39/39/39
f 42/42/42 43/43/43 41/41/41
f 42/42/42 44/44/44 43/43/43
f 46/46/46 47/47/47 45/45/45
f 46/46/46 48/48/48 47/47/47
f 50/50/50 51/51/51 49/49/49
f 50/50/50 52/52/52 51/51/51
f 54/54/54 55/55/55 53/53/53
f 54/54/54 56/56/56 55/55/55
f 58/58/58 59/59/59 57/57/57
f 58/58/58 60/60/60 59/59/59
f 62/62/62 63/63/63 61/61/61
f 62/62/62 64/64/64 63/63/63
f 66/66/66 67/67/67 65/65/65
f 66/66/66 68/68/68 67/67/67
f 70/70/70 71/71/71 69/69/69
f 70/70/70 72/72/72 71/71/71
f 74/74/74 75/75/75 73/73/73
f 74/74/74 76/76/76 75/75/75
f 78/78/78 79/79/79 77/77/77
f 78/78/78 80/80/80 79/79/79
f 82/82/82 83/83/83 81/81/81
f 82/82/82 84/84/84 83/83/83
f 86/86/86 87/87/87 85/85/85
f 86/86/86 88/88/88 87/87/87
f 90/90/90 91/91/91 89/89/89
f 90/90/90 92/92/92 91/91/91
f 94/94/94 95/95/95 93/93/93
f 94/94/94 96/96/96 95/95/95
f 98/98/98 99/99/99 97/97/97
f 98/98/98 100/100/100 99/99/99
f 102/102/102 103/103/103 101/101/101
f 102/102/102 104/104/104 103/103/103
f 106/106/106 107/107/107 105/105/105
f 106/106/106 108/108/108 107/107/107
f 110/110/110 111/111/111 109/109/109
f 110/110/110 112/112/112 111/111/111
f 114/114/114 115/115/115 113/113/113
f 114/114/114 116/116/116 115/115/115
f 118/118/118 119/119/119 117/117/117
f 118/118/118 120/120/120 119/119/119
f 122/122/122 123/123/123 121/121/121
f 122/122/122 124/124/124 123/123/123
f 126/126/126 127/127/127 125/125/125
f 126/126/126 128/128/128 127/127/127
f 130/130/130 131/131/131 129/129/129
f 130/130/130 132/132/132 131/131/131
f 134/134/134 135/135/135 133/133/133
f 134/134/134 136/136/136 135/135/135
