g Grass_2_Cluster303
v 182.8601 -0.3070984 441.3947
v 181.5835 -0.3070984 441.3947
v 182.8601 -0.3070984 442.6712
v 181.5835 -0.3070984 442.6712
v 203.2856 -0.3070984 440.7563
v 202.6473 -0.3070984 440.7563
v 203.2856 -0.3070984 442.0329
v 202.6473 -0.3070984 442.0329
v 186.0516 -0.3070984 440.7563
v 185.4133 -0.3070984 440.7563
v 186.0516 -0.3070984 441.3947
v 185.4133 -0.3070984 441.3947
v 188.6048 -0.3070984 437.5648
v 187.3282 -0.3070984 437.5648
v 188.6048 -0.3070984 438.8414
v 187.3282 -0.3070984 438.8414
v 187.3282 -0.3070984 437.5648
v 186.6899 -0.3070984 437.5648
v 187.3282 -0.3070984 438.8414
v 186.6899 -0.3070984 438.8414
v 186.6899 -0.3070984 436.9265
v 186.0516 -0.3070984 436.9265
v 186.6899 -0.3070984 438.2031
v 186.0516 -0.3070984 438.2031
v 187.9665 -0.3070984 436.2883
v 187.3282 -0.3070984 436.2883
v 187.9665 -0.3070984 437.5648
v 187.3282 -0.3070984 437.5648
v 191.158 -0.3070984 435.65
v 189.8814 -0.3070984 435.65
v 191.158 -0.3070984 436.9265
v 189.8814 -0.3070984 436.9265
v 188.6048 -0.3070984 435.65
v 187.9665 -0.3070984 435.65
v 188.6048 -0.3070984 436.2883
v 187.9665 -0.3070984 436.2883
v 189.8814 -0.3070984 435.0117
v 189.2431 -0.3070984 435.0117
v 189.8814 -0.3070984 436.2883
v 189.2431 -0.3070984 436.2883
v 191.7963 -0.3070984 435.0117
v 190.5197 -0.3070984 435.0117
v 191.7963 -0.3070984 436.2883
v 190.5197 -0.3070984 436.2883
v 189.2431 -0.3070984 434.3734
v 188.6048 -0.3070984 434.3734
v 189.2431 -0.3070984 435.65
v 188.6048 -0.3070984 435.65
v 187.9665 -0.3070984 434.3734
v 187.3282 -0.3070984 434.3734
v 187.9665 -0.3070984 435.0117
v 187.3282 -0.3070984 435.0117
v 192.4346 -0.3070984 434.3734
v 191.158 -0.3070984 434.3734
v 192.4346 -0.3070984 435.0117
v 191.158 -0.3070984 435.0117
v 190.5197 -0.3070984 433.735
v 189.8814 -0.3070984 433.735
v 190.5197 -0.3070984 435.0117
v 189.8814 -0.3070984 435.0117
v 189.8814 -0.3070984 433.735
v 189.2431 -0.3070984 433.735
v 189.8814 -0.3070984 434.3734
v 189.2431 -0.3070984 434.3734
v 187.3282 -0.3070984 433.735
v 186.0516 -0.3070984 433.735
v 187.3282 -0.3070984 435.0117
v 186.0516 -0.3070984 435.0117
v 206.4771 -0.3070984 429.267
v 205.2005 -0.3070984 429.267
v 206.4771 -0.3070984 429.9053
v 205.2005 -0.3070984 429.9053
v 208.392 -0.3070984 428.6287
v 207.1154 -0.3070984 428.6287
v 208.392 -0.3070984 429.9053
v 207.1154 -0.3070984 429.9053
v 205.2005 -0.3070984 427.9904
v 204.5622 -0.3070984 427.9904
v 205.2005 -0.3070984 429.267
v 204.5622 -0.3070984 429.267
v 208.392 -0.3070984 427.9904
v 207.7537 -0.3070984 427.9904
v 208.392 -0.3070984 429.267
v 207.7537 -0.3070984 429.267
v 207.1154 -0.3070984 427.3521
v 206.4771 -0.3070984 427.3521
v 207.1154 -0.3070984 428.6287
v 206.4771 -0.3070984 428.6287
v 205.8388 -0.3070984 427.3521
v 205.2005 -0.3070984 427.3521
v 205.8388 -0.3070984 428.6287
v 205.2005 -0.3070984 428.6287
v 207.7537 -0.3070984 427.3521
v 206.4771 -0.3070984 427.3521
v 207.7537 -0.3070984 427.9904
v 206.4771 -0.3070984 427.9904
v 205.2005 -0.3070984 426.7138
v 203.9239 -0.3070984 426.7138
v 205.2005 -0.3070984 427.9904
v 203.9239 -0.3070984 427.9904
v 209.0303 -0.3070984 426.0755
v 207.7537 -0.3070984 426.0755
v 209.0303 -0.3070984 427.3521
v 207.7537 -0.3070984 427.3521
v 209.6686 -0.3070984 426.0755
v 209.0303 -0.3070984 426.0755
v 209.6686 -0.3070984 427.3521
v 209.0303 -0.3070984 427.3521
v 204.5622 -0.3070984 426.0755
v 203.9239 -0.3070984 426.0755
v 204.5622 -0.3070984 426.7138
v 203.9239 -0.3070984 426.7138
v 207.7537 -0.3070984 425.4372
v 206.4771 -0.3070984 425.4372
v 207.7537 -0.3070984 426.7138
v 206.4771 -0.3070984 426.7138
v 206.4771 -0.3070984 425.4372
v 205.2005 -0.3070984 425.4372
v 206.4771 -0.3070984 426.0755
v 205.2005 -0.3070984 426.0755
v 209.0303 -0.3070984 424.7989
v 208.392 -0.3070984 424.7989
v 209.0303 -0.3070984 426.0755
v 208.392 -0.3070984 426.0755
v 207.1154 -0.3070984 424.7989
v 205.8388 -0.3070984 424.7989
v 207.1154 -0.3070984 426.0755
v 205.8388 -0.3070984 426.0755
v 180.3069 -0.3070984 424.7989
v 179.6686 -0.3070984 424.7989
v 180.3069 -0.3070984 426.0755
v 179.6686 -0.3070984 426.0755
v 210.3069 -0.3070984 424.7989
v 209.0303 -0.3070984 424.7989
v 210.3069 -0.3070984 425.4372
v 209.0303 -0.3070984 425.4372
v 208.392 -0.3070984 424.1606
v 207.1154 -0.3070984 424.1606
v 208.392 -0.3070984 425.4372
v 207.1154 -0.3070984 425.4372
v 181.5835 -0.3070984 424.1606
v 180.9452 -0.3070984 424.1606
v 181.5835 -0.3070984 424.7989
v 180.9452 -0.3070984 424.7989
v 206.4771 -0.3070984 423.5223
v 205.2005 -0.3070984 423.5223
v 206.4771 -0.3070984 424.7989
v 205.2005 -0.3070984 424.7989
v 207.1154 -0.3070984 423.5223
v 205.8388 -0.3070984 423.5223
v 207.1154 -0.3070984 424.7989
v 205.8388 -0.3070984 424.7989
v 208.392 -0.3070984 422.884
v 207.7537 -0.3070984 422.884
v 208.392 -0.3070984 424.1606
v 207.7537 -0.3070984 424.1606
v 210.3069 -0.3070984 422.884
v 209.0303 -0.3070984 422.884
v 210.3069 -0.3070984 424.1606
v 209.0303 -0.3070984 424.1606
v 205.8388 -0.3070984 422.884
v 205.2005 -0.3070984 422.884
v 205.8388 -0.3070984 424.1606
v 205.2005 -0.3070984 424.1606
v 203.9239 -0.3070984 420.9691
v 203.2856 -0.3070984 420.9691
v 203.9239 -0.3070984 422.2457
v 203.2856 -0.3070984 422.2457
v 202.6473 -0.3070984 418.4159
v 202.009 -0.3070984 418.4159
v 202.6473 -0.3070984 419.6925
v 202.009 -0.3070984 419.6925
vt 0.1347656 0.9185662
vt 0.2060202 0.9185662
vt 0.1347656 1
vt 0.2060202 1
vt 0.1347656 0.9185662
vt 0.2060202 0.9185662
vt 0.1347656 1
vt 0.2060202 1
vt 0.1347656 0.9185662
vt 0.2060202 0.9185662
vt 0.1347656 1
vt 0.2060202 1
vt 0.1347656 0.9185662
vt 0.2060202 0.9185662
vt 0.1347656 1
vt 0.2060202 1
vt 0.1347656 0.9185662
vt 0.2060202 0.9185662
vt 0.1347656 1
vt 0.2060202 1
vt 0.1347656 0.9185662
vt 0.2060202 0.9185662
vt 0.1347656 1
vt 0.2060202 1
vt 0.1347656 0.9185662
vt 0.2060202 0.9185662
vt 0.1347656 1
vt 0.2060202 1
vt 0.1347656 0.9185662
vt 0.2060202 0.9185662
vt 0.1347656 1
vt 0.2060202 1
vt 0.1347656 0.9185662
vt 0.2060202 0.9185662
vt 0.1347656 1
vt 0.2060202 1
vt 0.1347656 0.9185662
vt 0.2060202 0.9185662
vt 0.1347656 1
vt 0.2060202 1
vt 0.1347656 0.9185662
vt 0.2060202 0.9185662
vt 0.1347656 1
vt 0.2060202 1
vt 0.1347656 0.9185662
vt 0.2060202 0.9185662
vt 0.1347656 1
vt 0.2060202 1
vt 0.1347656 0.9185662
vt 0.2060202 0.9185662
vt 0.1347656 1
vt 0.2060202 1
vt 0.1347656 0.9185662
vt 0.2060202 0.9185662
vt 0.1347656 1
vt 0.2060202 1
vt 0.1347656 0.9185662
vt 0.2060202 0.9185662
vt 0.1347656 1
vt 0.2060202 1
vt 0.1347656 0.9185662
vt 0.2060202 0.9185662
vt 0.1347656 1
vt 0.2060202 1
vt 0.1347656 0.9185662
vt 0.2060202 0.9185662
vt 0.1347656 1
vt 0.2060202 1
vt 0.1347656 0.9185662
vt 0.2060202 0.9185662
vt 0.1347656 1
vt 0.2060202 1
vt 0.1347656 0.9185662
vt 0.2060202 0.9185662
vt 0.1347656 1
vt 0.2060202 1
vt 0.1347656 0.9185662
vt 0.2060202 0.9185662
vt 0.1347656 1
vt 0.2060202 1
vt 0.1347656 0.9185662
vt 0.2060202 0.9185662
vt 0.1347656 1
vt 0.2060202 1
vt 0.1347656 0.9185662
vt 0.2060202 0.9185662
vt 0.1347656 1
vt 0.2060202 1
vt 0.1347656 0.9185662
vt 0.2060202 0.9185662
vt 0.1347656 1
vt 0.2060202 1
vt 0.1347656 0.9185662
vt 0.2060202 0.9185662
vt 0.1347656 1
vt 0.2060202 1
vt 0.1347656 0.9185662
vt 0.2060202 0.9185662
vt 0.1347656 1
vt 0.2060202 1
vt 0.1347656 0.9185662
vt 0.2060202 0.9185662
vt 0.1347656 1
vt 0.2060202 1
vt 0.1347656 0.9185662
vt 0.2060202 0.9185662
vt 0.1347656 1
vt 0.2060202 1
vt 0.1347656 0.9185662
vt 0.2060202 0.9185662
vt 0.1347656 1
vt 0.2060202 1
vt 0.1347656 0.9185662
vt 0.2060202 0.9185662
vt 0.1347656 1
vt 0.2060202 1
vt 0.1347656 0.9185662
vt 0.2060202 0.9185662
vt 0.1347656 1
vt 0.2060202 1
vt 0.1347656 0.9185662
vt 0.2060202 0.9185662
vt 0.1347656 1
vt 0.2060202 1
vt 0.1347656 0.9185662
vt 0.2060202 0.9185662
vt 0.1347656 1
vt 0.2060202 1
vt 0.1347656 0.9185662
vt 0.2060202 0.9185662
vt 0.1347656 1
vt 0.2060202 1
vt 0.1347656 0.9185662
vt 0.2060202 0.9185662
vt 0.1347656 1
vt 0.2060202 1
vt 0.1347656 0.9185662
vt 0.2060202 0.9185662
vt 0.1347656 1
vt 0.2060202 1
vt 0.1347656 0.9185662
vt 0.2060202 0.9185662
vt 0.1347656 1
vt 0.2060202 1
vt 0.1347656 0.9185662
vt 0.2060202 0.9185662
vt 0.1347656 1
vt 0.2060202 1
vt 0.1347656 0.9185662
vt 0.2060202 0.9185662
vt 0.1347656 1
vt 0.2060202 1
vt 0.1347656 0.9185662
vt 0.2060202 0.9185662
vt 0.1347656 1
vt 0.2060202 1
vt 0.1347656 0.9185662
vt 0.2060202 0.9185662
vt 0.1347656 1
vt 0.2060202 1
vt 0.1347656 0.9185662
vt 0.2060202 0.9185662
vt 0.1347656 1
vt 0.2060202 1
vt 0.1347656 0.9185662
vt 0.2060202 0.9185662
vt 0.1347656 1
vt 0.2060202 1
vt 0.1347656 0.9185662
vt 0.2060202 0.9185662
vt 0.1347656 1
vt 0.2060202 1
vn 0 1 0
vn 0 1 0
vn 0 1 0
vn 0 1 0
vn 0 1 0
vn 0 1 0
vn 0 1 0
vn 0 1 0
vn 0 1 0
vn 0 1 0
vn 0 1 0
vn 0 1 0
vn 0 1 0
vn 0 1 0
vn 0 1 0
vn 0 1 0
vn 0 1 0
vn 0 1 0
vn 0 1 0
vn 0 1 0
vn 0 1 0
vn 0 1 0
vn 0 1 0
vn 0 1 0
vn 0 1 0
vn 0 1 0
vn 0 1 0
vn 0 1 0
vn 0 1 0
vn 0 1 0
vn 0 1 0
vn 0 1 0
vn 0 1 0
vn 0 1 0
vn 0 1 0
vn 0 1 0
vn 0 1 0
vn 0 1 0
vn 0 1 0
vn 0 1 0
vn 0 1 0
vn 0 1 0
vn 0 1 0
vn 0 1 0
vn 0 1 0
vn 0 1 0
vn 0 1 0
vn 0 1 0
vn 0 1 0
vn 0 1 0
vn 0 1 0
vn 0 1 0
vn 0 1 0
vn 0 1 0
vn 0 1 0
vn 0 1 0
vn 0 1 0
vn 0 1 0
vn 0 1 0
vn 0 1 0
vn 0 1 0
vn 0 1 0
vn 0 1 0
vn 0 1 0
vn 0 1 0
vn 0 1 0
vn 0 1 0
vn 0 1 0
vn 0 1 0
vn 0 1 0
vn 0 1 0
vn 0 1 0
vn 0 1 0
vn 0 1 0
vn 0 1 0
vn 0 1 0
vn 0 1 0
vn 0 1 0
vn 0 1 0
vn 0 1 0
vn 0 1 0
vn 0 1 0
vn 0 1 0
vn 0 1 0
vn 0 1 0
vn 0 1 0
vn 0 1 0
vn 0 1 0
vn 0 1 0
vn 0 1 0
vn 0 1 0
vn 0 1 0
vn 0 1 0
vn 0 1 0
vn 0 1 0
vn 0 1 0
vn 0 1 0
vn 0 1 0
vn 0 1 0
vn 0 1 0
vn 0 1 0
vn 0 1 0
vn 0 1 0
vn 0 1 0
vn 0 1 0
vn 0 1 0
vn 0 1 0
vn 0 1 0
vn 0 1 0
vn 0 1 0
vn 0 1 0
vn 0 1 0
vn 0 1 0
vn 0 1 0
vn 0 1 0
vn 0 1 0
vn 0 1 0
vn 0 1 0
vn 0 1 0
vn 0 1 0
vn 0 1 0
vn 0 1 0
vn 0 1 0
vn 0 1 0
vn 0 1 0
vn 0 1 0
vn 0 1 0
vn 0 1 0
vn 0 1 0
vn 0 1 0
vn 0 1 0
vn 0 1 0
vn 0 1 0
vn 0 1 0
vn 0 1 0
vn 0 1 0
vn 0 1 0
vn 0 1 0
vn 0 1 0
vn 0 1 0
vn 0 1 0
vn 0 1 0
vn 0 1 0
vn 0 1 0
vn 0 1 0
vn 0 1 0
vn 0 1 0
vn 0 1 0
vn 0 1 0
vn 0 1 0
vn 0 1 0
vn 0 1 0
vn 0 1 0
vn 0 1 0
vn 0 1 0
vn 0 1 0
vn 0 1 0
vn 0 1 0
vn 0 1 0
vn 0 1 0
vn 0 1 0
vn 0 1 0
vn 0 1 0
vn 0 1 0
vn 0 1 0
vn 0 1 0
vn 0 1 0
vn 0 1 0
vn 0 1 0
vn 0 1 0
vn 0 1 0
vn 0 1 0
g Grass_2_Cluster303_0
f 2/2/2 3/3/3 1/1/1
f 2/2/2 4/4/4 3/3/3
f 6/6/6 7/7/7 5/5/5
f 6/6/6 8/8/8 7/7/7
f 10/10/10 11/11/11 9/9/9
f 10/10/10 12/12/12 11/11/11
f 14/14/14 15/15/15 13/13/13
f 14/14/14 16/16/16 15/15/15
f 18/18/18 19/19/19 17/17/17
f 18/18/18 20/20/20 19/19/19
f 22/22/22 23/23/23 21/21/21
f 22/22/22 24/24/24 23/23/23
f 26/26/26 27/27/27 25/25/25
f 26/26/26 28/28/28 27/27/27
f 30/30/30 31/31/31 29/29/29
f 30/30/30 32/32/32 31/31/31
f 34/34/34 35/35/35 33/33/33
f 34/34/34 36/36/36 35/35/35
f 38/38/38 39/39/39 37/37/37
f 38/38/38 40/40/40 39/39/39
f 42/42/42 43/43/43 41/41/41
f 42/42/42 44/44/44 43/43/43
f 46/46/46 47/47/47 45/45/45
f 46/46/46 48/48/48 47/47/47
f 50/50/50 51/51/51 49/49/49
f 50/50/50 52/52/52 51/51/51
f 54/54/54 55/55/55 53/53/53
f 54/54/54 56/56/56 55/55/55
f 58/58/58 59/59/59 57/57/57
f 58/58/58 60/60/60 59/59/59
f 62/62/62 63/63/63 61/61/61
f 62/62/62 64/64/64 63/63/63
f 66/66/66 67/67/67 65/65/65
f 66/66/66 68/68/68 67/67/67
f 70/70/70 71/71/71 69/69/69
f 70/70/70 72/72/72 71/71/71
f 74/74/74 75/75/75 73/73/73
f 74/74/74 76/76/76 75/75/75
f 78/78/78 79/79/79 77/77/77
f 78/78/78 80/80/80 79/79/79
f 82/82/82 83/83/83 81/81/81
f 82/82/82 84/84/84 83/83/83
f 86/86/86 87/87/87 85/85/85
f 86/86/86 88/88/88 87/87/87
f 90/90/90 91/91/91 89/89/89
f 90/90/90 92/92/92 91/91/91
f 94/94/94 95/95/95 93/93/93
f 94/94/94 96/96/96 95/95/95
f 98/98/98 99/99/99 97/97/97
f 98/98/98 100/100/100 99/99/99
f 102/102/102 103/103/103 101/101/101
f 102/102/102 104/104/104 103/103/103
f 106/106/106 107/107/107 105/105/105
f 106/106/106 108/108/108 107/107/107
f 110/110/110 111/111/111 109/109/109
f 110/110/110 112/112/112 111/111/111
f 114/114/114 115/115/115 113/113/113
f 114/114/114 116/116/116 115/115/115
f 118/118/118 119/119/119 117/117/117
f 118/118/118 120/120/120 119/119/119
f 122/122/122 123/123/123 121/121/121
f 122/122/122 124/124/124 123/123/123
f 126/126/126 127/127/127 125/125/125
f 126/126/126 128/128/128 127/127/127
f 130/130/130 131/131/131 129/129/129
f 130/130/130 132/132/132 131/131/131
f 134/134/134 135/135/135 133/133/133
f 134/134/134 136/136/136 135/135/135
f 138/138/138 139/139/139 137/137/137
f 138/138/138 140/140/140 139/139/139
f 142/142/142 143/143/143 141/141/141
f 142/142/142 144/144/144 143/143/143
f 146/146/146 147/147/147 145/145/145
f 146/146/146 148/148/148 147/147/147
f 150/150/150 151/151/151 149/149/149
f 150/150/150 152/152/152 151/151/151
f 154/154/154 155/155/155 153/153/153
f 154/154/154 156/156/156 155/155/155
f 158/158/158 159/159/159 157/157/157
f 158/158/158 160/160/160 159/159/159
f 162/162/162 163/163/163 161/161/161
f 162/162/162 164/164/164 163/163/163
f 166/166/166 167/167/167 165/165/165
f 166/166/166 168/168/168 167/167/167
f 170/170/170 171/171/171 169/169/169
f 170/170/170 172/172/172 171/171/171
