g Grass_2_Cluster253
v -113.6017 0 350.0717
v -114.2881 0 350.0717
v -113.6017 0 351.1013
v -114.2881 0 351.1013
v -115.3177 0 349.3853
v -116.0041 0 349.3853
v -115.3177 0 350.4149
v -116.0041 0 350.4149
v -114.2881 0 349.3853
v -115.3177 0 349.3853
v -114.2881 0 350.4149
v -115.3177 0 350.4149
v -115.6609 0 349.0421
v -116.6906 0 349.0421
v -115.6609 0 350.0717
v -116.6906 0 350.0717
v -113.2585 0 349.0421
v -113.9449 0 349.0421
v -113.2585 0 350.0717
v -113.9449 0 350.0717
v -116.3473 0 348.3556
v -117.377 0 348.3556
v -116.3473 0 349.3853
v -117.377 0 349.3853
v -113.9449 0 348.0124
v -114.9745 0 348.0124
v -113.9449 0 349.0421
v -114.9745 0 349.0421
v -114.6313 0 347.326
v -115.6609 0 347.326
v -114.6313 0 348.6988
v -115.6609 0 348.6988
v -118.0634 0 347.326
v -118.7498 0 347.326
v -118.0634 0 348.3556
v -118.7498 0 348.3556
v -113.2585 0 346.9828
v -114.2881 0 346.9828
v -113.2585 0 348.0124
v -114.2881 0 348.0124
v -114.6313 0 346.6396
v -115.6609 0 346.6396
v -114.6313 0 347.6692
v -115.6609 0 347.6692
v -117.7202 0 346.2964
v -118.7498 0 346.2964
v -117.7202 0 347.326
v -118.7498 0 347.326
v -112.9153 0 346.2964
v -113.9449 0 346.2964
v -112.9153 0 347.326
v -113.9449 0 347.326
v -118.4066 0 346.2964
v -119.4362 0 346.2964
v -118.4066 0 347.326
v -119.4362 0 347.326
v -113.6017 0 345.9532
v -114.6313 0 345.9532
v -113.6017 0 346.9828
v -114.6313 0 346.9828
v -116.0041 0 345.9532
v -116.6906 0 345.9532
v -116.0041 0 346.9828
v -116.6906 0 346.9828
v -118.0634 0 345.61
v -119.093 0 345.61
v -118.0634 0 346.6396
v -119.093 0 346.6396
v -115.3177 0 345.2668
v -116.3473 0 345.2668
v -115.3177 0 346.6396
v -116.3473 0 346.6396
v -113.9449 0 345.2668
v -114.9745 0 345.2668
v -113.9449 0 346.2964
v -114.9745 0 346.2964
v -112.5721 0 344.5804
v -113.6017 0 344.5804
v -112.5721 0 345.61
v -113.6017 0 345.61
v -115.6609 0 344.5804
v -116.3473 0 344.5804
v -115.6609 0 345.61
v -116.3473 0 345.61
v -111.5424 0 344.5804
v -112.2289 0 344.5804
v -111.5424 0 345.61
v -112.2289 0 345.61
v -117.0338 0 344.5804
v -118.0634 0 344.5804
v -117.0338 0 345.61
v -118.0634 0 345.61
v -116.0041 0 344.2371
v -116.6906 0 344.2371
v -116.0041 0 345.2668
v -116.6906 0 345.2668
v -109.8264 0 344.2371
v -110.5128 0 344.2371
v -109.8264 0 345.2668
v -110.5128 0 345.2668
v -114.2881 0 343.8939
v -115.3177 0 343.8939
v -114.2881 0 344.9236
v -115.3177 0 344.9236
v -114.6313 0 343.5507
v -115.6609 0 343.5507
v -114.6313 0 344.5804
v -115.6609 0 344.5804
v -113.6017 0 343.2075
v -114.6313 0 343.2075
v -113.6017 0 344.2371
v -114.6313 0 344.2371
v -111.1992 0 343.2075
v -112.2289 0 343.2075
v -111.1992 0 344.5804
v -112.2289 0 344.5804
v -106.7375 0 328.1064
v -107.7672 0 328.1064
v -106.7375 0 329.136
v -107.7672 0 329.136
v -108.1104 0 326.7336
v -109.14 0 326.7336
v -108.1104 0 328.1064
v -109.14 0 328.1064
vt 0.1347656 0.9185662
vt 0.2060202 0.9185662
vt 0.1347656 1
vt 0.2060202 1
vt 0.1347656 0.9185662
vt 0.2060202 0.9185662
vt 0.1347656 1
vt 0.2060202 1
vt 0.1347656 0.9185662
vt 0.2060202 0.9185662
vt 0.1347656 1
vt 0.2060202 1
vt 0.1347656 0.9185662
vt 0.2060202 0.9185662
vt 0.1347656 1
vt 0.2060202 1
vt 0.1347656 0.9185662
vt 0.2060202 0.9185662
vt 0.1347656 1
vt 0.2060202 1
vt 0.1347656 0.9185662
vt 0.2060202 0.9185662
vt 0.1347656 1
vt 0.2060202 1
vt 0.1347656 0.9185662
vt 0.2060202 0.9185662
vt 0.1347656 1
vt 0.2060202 1
vt 0.1347656 0.9185662
vt 0.2060202 0.9185662
vt 0.1347656 1
vt 0.2060202 1
vt 0.1347656 0.9185662
vt 0.2060202 0.9185662
vt 0.1347656 1
vt 0.2060202 1
vt 0.1347656 0.9185662
vt 0.2060202 0.9185662
vt 0.1347656 1
vt 0.2060202 1
vt 0.1347656 0.9185662
vt 0.2060202 0.9185662
vt 0.1347656 1
vt 0.2060202 1
vt 0.1347656 0.9185662
vt 0.2060202 0.9185662
vt 0.1347656 1
vt 0.2060202 1
vt 0.1347656 0.9185662
vt 0.2060202 0.9185662
vt 0.1347656 1
vt 0.2060202 1
vt 0.1347656 0.9185662
vt 0.2060202 0.9185662
vt 0.1347656 1
vt 0.2060202 1
vt 0.1347656 0.9185662
vt 0.2060202 0.9185662
vt 0.1347656 1
vt 0.2060202 1
vt 0.1347656 0.9185662
vt 0.2060202 0.9185662
vt 0.1347656 1
vt 0.2060202 1
vt 0.1347656 0.9185662
vt 0.2060202 0.9185662
vt 0.1347656 1
vt 0.2060202 1
vt 0.1347656 0.9185662
vt 0.2060202 0.9185662
vt 0.1347656 1
vt 0.2060202 1
vt 0.1347656 0.9185662
vt 0.2060202 0.9185662
vt 0.1347656 1
vt 0.2060202 1
vt 0.1347656 0.9185662
vt 0.2060202 0.9185662
vt 0.1347656 1
vt 0.2060202 1
vt 0.1347656 0.9185662
vt 0.2060202 0.9185662
vt 0.1347656 1
vt 0.2060202 1
vt 0.1347656 0.9185662
vt 0.2060202 0.9185662
vt 0.1347656 1
vt 0.2060202 1
vt 0.1347656 0.9185662
vt 0.2060202 0.9185662
vt 0.1347656 1
vt 0.2060202 1
vt 0.1347656 0.9185662
vt 0.2060202 0.9185662
vt 0.1347656 1
vt 0.2060202 1
vt 0.1347656 0.9185662
vt 0.2060202 0.9185662
vt 0.1347656 1
vt 0.2060202 1
vt 0.1347656 0.9185662
vt 0.2060202 0.9185662
vt 0.1347656 1
vt 0.2060202 1
vt 0.1347656 0.9185662
vt 0.2060202 0.9185662
vt 0.1347656 1
vt 0.2060202 1
vt 0.1347656 0.9185662
vt 0.2060202 0.9185662
vt 0.1347656 1
vt 0.2060202 1
vt 0.1347656 0.9185662
vt 0.2060202 0.9185662
vt 0.1347656 1
vt 0.2060202 1
vt 0.1347656 0.9185662
vt 0.2060202 0.9185662
vt 0.1347656 1
vt 0.2060202 1
vt 0.1347656 0.9185662
vt 0.2060202 0.9185662
vt 0.1347656 1
vt 0.2060202 1
vn 0 1 0
vn 0 1 0
vn 0 1 0
vn 0 1 0
vn 0 1 0
vn 0 1 0
vn 0 1 0
vn 0 1 0
vn 0 1 0
vn 0 1 0
vn 0 1 0
vn 0 1 0
vn 0 1 0
vn 0 1 0
vn 0 1 0
vn 0 1 0
vn 0 1 0
vn 0 1 0
vn 0 1 0
vn 0 1 0
vn 0 1 0
vn 0 1 0
vn 0 1 0
vn 0 1 0
vn 0 1 0
vn 0 1 0
vn 0 1 0
vn 0 1 0
vn 0 1 0
vn 0 1 0
vn 0 1 0
vn 0 1 0
vn 0 1 0
vn 0 1 0
vn 0 1 0
vn 0 1 0
vn 0 1 0
vn 0 1 0
vn 0 1 0
vn 0 1 0
vn 0 1 0
vn 0 1 0
vn 0 1 0
vn 0 1 0
vn 0 1 0
vn 0 1 0
vn 0 1 0
vn 0 1 0
vn 0 1 0
vn 0 1 0
vn 0 1 0
vn 0 1 0
vn 0 1 0
vn 0 1 0
vn 0 1 0
vn 0 1 0
vn 0 1 0
vn 0 1 0
vn 0 1 0
vn 0 1 0
vn 0 1 0
vn 0 1 0
vn 0 1 0
vn 0 1 0
vn 0 1 0
vn 0 1 0
vn 0 1 0
vn 0 1 0
vn 0 1 0
vn 0 1 0
vn 0 1 0
vn 0 1 0
vn 0 1 0
vn 0 1 0
vn 0 1 0
vn 0 1 0
vn 0 1 0
vn 0 1 0
vn 0 1 0
vn 0 1 0
vn 0 1 0
vn 0 1 0
vn 0 1 0
vn 0 1 0
vn 0 1 0
vn 0 1 0
vn 0 1 0
vn 0 1 0
vn 0 1 0
vn 0 1 0
vn 0 1 0
vn 0 1 0
vn 0 1 0
vn 0 1 0
vn 0 1 0
vn 0 1 0
vn 0 1 0
vn 0 1 0
vn 0 1 0
vn 0 1 0
vn 0 1 0
vn 0 1 0
vn 0 1 0
vn 0 1 0
vn 0 1 0
vn 0 1 0
vn 0 1 0
vn 0 1 0
vn 0 1 0
vn 0 1 0
vn 0 1 0
vn 0 1 0
vn 0 1 0
vn 0 1 0
vn 0 1 0
vn 0 1 0
vn 0 1 0
vn 0 1 0
vn 0 1 0
vn 0 1 0
vn 0 1 0
vn 0 1 0
vn 0 1 0
vn 0 1 0
g Grass_2_Cluster253_0
f 2/2/2 3/3/3 1/1/1
f 2/2/2 4/4/4 3/3/3
f 6/6/6 7/7/7 5/5/5
f 6/6/6 8/8/8 7/7/7
f 10/10/10 11/11/11 9/9/9
f 10/10/10 12/12/12 11/11/11
f 14/14/14 15/15/15 13/13/13
f 14/14/14 16/16/16 15/15/15
f 18/18/18 19/19/19 17/17/17
f 18/18/18 20/20/20 19/19/19
f 22/22/22 23/23/23 21/21/21
f 22/22/22 24/24/24 23/23/23
f 26/26/26 27/27/27 25/25/25
f 26/26/26 28/28/28 27/27/27
f 30/30/30 31/31/31 29/29/29
f 30/30/30 32/32/32 31/31/31
f 34/34/34 35/35/35 33/33/33
f 34/34/34 36/36/36 35/35/35
f 38/38/38 39/39/39 37/37/37
f 38/38/38 40/40/40 39/39/39
f 42/42/42 43/43/43 41/41/41
f 42/42/42 44/44/44 43/43/43
f 46/46/46 47/47/47 45/45/45
f 46/46/46 48/48/48 47/47/47
f 50/50/50 51/51/51 49/49/49
f 50/50/50 52/52/52 51/51/51
f 54/54/54 55/55/55 53/53/53
f 54/54/54 56/56/56 55/55/55
f 58/58/58 59/59/59 57/57/57
f 58/58/58 60/60/60 59/59/59
f 62/62/62 63/63/63 61/61/61
f 62/62/62 64/64/64 63/63/63
f 66/66/66 67/67/67 65/65/65
f 66/66/66 68/68/68 67/67/67
f 70/70/70 71/71/71 69/69/69
f 70/70/70 72/72/72 71/71/71
f 74/74/74 75/75/75 73/73/73
f 74/74/74 76/76/76 75/75/75
f 78/78/78 79/79/79 77/77/77
f 78/78/78 80/80/80 79/79/79
f 82/82/82 83/83/83 81/81/81
f 82/82/82 84/84/84 83/83/83
f 86/86/86 87/87/87 85/85/85
f 86/86/86 88/88/88 87/87/87
f 90/90/90 91/91/91 89/89/89
f 90/90/90 92/92/92 91/91/91
f 94/94/94 95/95/95 93/93/93
f 94/94/94 96/96/96 95/95/95
f 98/98/98 99/99/99 97/97/97
f 98/98/98 100/100/100 99/99/99
f 102/102/102 103/103/103 101/101/101
f 102/102/102 104/104/104 103/103/103
f 106/106/106 107/107/107 105/105/105
f 106/106/106 108/108/108 107/107/107
f 110/110/110 111/111/111 109/109/109
f 110/110/110 112/112/112 111/111/111
f 114/114/114 115/115/115 113/113/113
f 114/114/114 116/116/116 115/115/115
f 118/118/118 119/119/119 117/117/117
f 118/118/118 120/120/120 119/119/119
f 122/122/122 123/123/123 121/121/121
f 122/122/122 124/124/124 123/123/123
