g Grass_2_Cluster110
v -22.26241 0 141.2272
v -23.23639 0 141.2272
v -22.26241 0 142.3403
v -23.23639 0 142.3403
v -4.452483 0 138.5835
v -5.426464 0 138.5835
v -4.452483 0 139.6967
v -5.426464 0 139.6967
v -6.122164 0 137.8878
v -7.096145 0 137.8878
v -6.122164 0 139.0009
v -7.096145 0 139.0009
v -3.061082 0 137.1921
v -4.035063 0 137.1921
v -3.061082 0 138.3053
v -4.035063 0 138.3053
v -1.947961 0 137.053
v -2.921942 0 137.053
v -1.947961 0 138.1661
v -2.921942 0 138.1661
v -5.009043 0 136.6356
v -5.983024 0 136.6356
v -5.009043 0 137.7487
v -5.983024 0 137.7487
v -0.2782802 0 136.3573
v -1.113121 0 136.3573
v -0.2782802 0 137.3313
v -1.113121 0 137.3313
v -0.8348405 0 136.079
v -1.808821 0 136.079
v -0.8348405 0 137.053
v -1.808821 0 137.053
v -28.66286 0 136.079
v -29.4977 0 136.079
v -28.66286 0 137.053
v -29.4977 0 137.053
v -3.617642 0 136.079
v -4.591623 0 136.079
v -3.617642 0 137.053
v -4.591623 0 137.053
v -2.643662 0 135.6616
v -3.478502 0 135.6616
v -2.643662 0 136.7747
v -3.478502 0 136.7747
v -5.843884 0 135.6616
v -6.678724 0 135.6616
v -5.843884 0 136.6356
v -6.678724 0 136.6356
v -4.591623 0 135.3833
v -5.565604 0 135.3833
v -4.591623 0 136.4964
v -5.565604 0 136.4964
v -1.669681 0 135.3833
v -2.504522 0 135.3833
v -1.669681 0 136.3573
v -2.504522 0 136.3573
v -0.4174203 0 134.9659
v -1.391401 0 134.9659
v -0.4174203 0 136.079
v -1.391401 0 136.079
v -3.339362 0 134.6876
v -4.313343 0 134.6876
v -3.339362 0 135.6616
v -4.313343 0 135.6616
v -4.730763 0 134.5485
v -5.704744 0 134.5485
v -4.730763 0 135.5224
v -5.704744 0 135.5224
v -5.704744 0 134.2702
v -6.678724 0 134.2702
v -5.704744 0 135.3833
v -6.678724 0 135.3833
v -1.391401 0 133.9919
v -2.365381 0 133.9919
v -1.391401 0 135.105
v -2.365381 0 135.105
v -2.504522 0 133.5745
v -3.339362 0 133.5745
v -2.504522 0 134.6876
v -3.339362 0 134.6876
v -2.782802 0 133.0179
v -3.756783 0 133.0179
v -2.782802 0 134.131
v -3.756783 0 134.131
v -4.174203 0 132.4614
v -5.148183 0 132.4614
v -4.174203 0 133.4353
v -5.148183 0 133.4353
v -6.957005 0 132.3222
v -7.930985 0 132.3222
v -6.957005 0 133.5745
v -7.930985 0 133.5745
v -2.365381 0 132.3222
v -3.200222 0 132.3222
v -2.365381 0 133.4353
v -3.200222 0 133.4353
v -21.70585 0 117.8517
v -22.67983 0 117.8517
v -21.70585 0 118.9648
v -22.67983 0 118.9648
vt 0.1347656 0.9185662
vt 0.2060202 0.9185662
vt 0.1347656 1
vt 0.2060202 1
vt 0.1347656 0.9185662
vt 0.2060202 0.9185662
vt 0.1347656 1
vt 0.2060202 1
vt 0.1347656 0.9185662
vt 0.2060202 0.9185662
vt 0.1347656 1
vt 0.2060202 1
vt 0.1347656 0.9185662
vt 0.2060202 0.9185662
vt 0.1347656 1
vt 0.2060202 1
vt 0.1347656 0.9185662
vt 0.2060202 0.9185662
vt 0.1347656 1
vt 0.2060202 1
vt 0.1347656 0.9185662
vt 0.2060202 0.9185662
vt 0.1347656 1
vt 0.2060202 1
vt 0.1347656 0.9185662
vt 0.2060202 0.9185662
vt 0.1347656 1
vt 0.2060202 1
vt 0.1347656 0.9185662
vt 0.2060202 0.9185662
vt 0.1347656 1
vt 0.2060202 1
vt 0.1347656 0.9185662
vt 0.2060202 0.9185662
vt 0.1347656 1
vt 0.2060202 1
vt 0.1347656 0.9185662
vt 0.2060202 0.9185662
vt 0.1347656 1
vt 0.2060202 1
vt 0.1347656 0.9185662
vt 0.2060202 0.9185662
vt 0.1347656 1
vt 0.2060202 1
vt 0.1347656 0.9185662
vt 0.2060202 0.9185662
vt 0.1347656 1
vt 0.2060202 1
vt 0.1347656 0.9185662
vt 0.2060202 0.9185662
vt 0.1347656 1
vt 0.2060202 1
vt 0.1347656 0.9185662
vt 0.2060202 0.9185662
vt 0.1347656 1
vt 0.2060202 1
vt 0.1347656 0.9185662
vt 0.2060202 0.9185662
vt 0.1347656 1
vt 0.2060202 1
vt 0.1347656 0.9185662
vt 0.2060202 0.9185662
vt 0.1347656 1
vt 0.2060202 1
vt 0.1347656 0.9185662
vt 0.2060202 0.9185662
vt 0.1347656 1
vt 0.2060202 1
vt 0.1347656 0.9185662
vt 0.2060202 0.9185662
vt 0.1347656 1
vt 0.2060202 1
vt 0.1347656 0.9185662
vt 0.2060202 0.9185662
vt 0.1347656 1
vt 0.2060202 1
vt 0.1347656 0.9185662
vt 0.2060202 0.9185662
vt 0.1347656 1
vt 0.2060202 1
vt 0.1347656 0.9185662
vt 0.2060202 0.9185662
vt 0.1347656 1
vt 0.2060202 1
vt 0.1347656 0.9185662
vt 0.2060202 0.9185662
vt 0.1347656 1
vt 0.2060202 1
vt 0.1347656 0.9185662
vt 0.2060202 0.9185662
vt 0.1347656 1
vt 0.2060202 1
vt 0.1347656 0.9185662
vt 0.2060202 0.9185662
vt 0.1347656 1
vt 0.2060202 1
vt 0.1347656 0.9185662
vt 0.2060202 0.9185662
vt 0.1347656 1
vt 0.2060202 1
vn 0 1 0
vn 0 1 0
vn 0 1 0
vn 0 1 0
vn 0 1 0
vn 0 1 0
vn 0 1 0
vn 0 1 0
vn 0 1 0
vn 0 1 0
vn 0 1 0
vn 0 1 0
vn 0 1 0
vn 0 1 0
vn 0 1 0
vn 0 1 0
vn 0 1 0
vn 0 1 0
vn 0 1 0
vn 0 1 0
vn 0 1 0
vn 0 1 0
vn 0 1 0
vn 0 1 0
vn 0 1 0
vn 0 1 0
vn 0 1 0
vn 0 1 0
vn 0 1 0
vn 0 1 0
vn 0 1 0
vn 0 1 0
vn 0 1 0
vn 0 1 0
vn 0 1 0
vn 0 1 0
vn 0 1 0
vn 0 1 0
vn 0 1 0
vn 0 1 0
vn 0 1 0
vn 0 1 0
vn 0 1 0
vn 0 1 0
vn 0 1 0
vn 0 1 0
vn 0 1 0
vn 0 1 0
vn 0 1 0
vn 0 1 0
vn 0 1 0
vn 0 1 0
vn 0 1 0
vn 0 1 0
vn 0 1 0
vn 0 1 0
vn 0 1 0
vn 0 1 0
vn 0 1 0
vn 0 1 0
vn 0 1 0
vn 0 1 0
vn 0 1 0
vn 0 1 0
vn 0 1 0
vn 0 1 0
vn 0 1 0
vn 0 1 0
vn 0 1 0
vn 0 1 0
vn 0 1 0
vn 0 1 0
vn 0 1 0
vn 0 1 0
vn 0 1 0
vn 0 1 0
vn 0 1 0
vn 0 1 0
vn 0 1 0
vn 0 1 0
vn 0 1 0
vn 0 1 0
vn 0 1 0
vn 0 1 0
vn 0 1 0
vn 0 1 0
vn 0 1 0
vn 0 1 0
vn 0 1 0
vn 0 1 0
vn 0 1 0
vn 0 1 0
vn 0 1 0
vn 0 1 0
vn 0 1 0
vn 0 1 0
vn 0 1 0
vn 0 1 0
vn 0 1 0
vn 0 1 0
g Grass_2_Cluster110_0
f 2/2/2 3/3/3 1/1/1
f 2/2/2 4/4/4 3/3/3
f 6/6/6 7/7/7 5/5/5
f 6/6/6 8/8/8 7/7/7
f 10/10/10 11/11/11 9/9/9
f 10/10/10 12/12/12 11/11/11
f 14/14/14 15/15/15 13/13/13
f 14/14/14 16/16/16 15/15/15
f 18/18/18 19/19/19 17/17/17
f 18/18/18 20/20/20 19/19/19
f 22/22/22 23/23/23 21/21/21
f 22/22/22 24/24/24 23/23/23
f 26/26/26 27/27/27 25/25/25
f 26/26/26 28/28/28 27/27/27
f 30/30/30 31/31/31 29/29/29
f 30/30/30 32/32/32 31/31/31
f 34/34/34 35/35/35 33/33/33
f 34/34/34 36/36/36 35/35/35
f 38/38/38 39/39/39 37/37/37
f 38/38/38 40/40/40 39/39/39
f 42/42/42 43/43/43 41/41/41
f 42/42/42 44/44/44 43/43/43
f 46/46/46 47/47/47 45/45/45
f 46/46/46 48/48/48 47/47/47
f 50/50/50 51/51/51 49/49/49
f 50/50/50 52/52/52 51/51/51
f 54/54/54 55/55/55 53/53/53
f 54/54/54 56/56/56 55/55/55
f 58/58/58 59/59/59 57/57/57
f 58/58/58 60/60/60 59/59/59
f 62/62/62 63/63/63 61/61/61
f 62/62/62 64/64/64 63/63/63
f 66/66/66 67/67/67 65/65/65
f 66/66/66 68/68/68 67/67/67
f 70/70/70 71/71/71 69/69/69
f 70/70/70 72/72/72 71/71/71
f 74/74/74 75/75/75 73/73/73
f 74/74/74 76/76/76 75/75/75
f 78/78/78 79/79/79 77/77/77
f 78/78/78 80/80/80 79/79/79
f 82/82/82 83/83/83 81/81/81
f 82/82/82 84/84/84 83/83/83
f 86/86/86 87/87/87 85/85/85
f 86/86/86 88/88/88 87/87/87
f 90/90/90 91/91/91 89/89/89
f 90/90/90 92/92/92 91/91/91
f 94/94/94 95/95/95 93/93/93
f 94/94/94 96/96/96 95/95/95
f 98/98/98 99/99/99 97/97/97
f 98/98/98 100/100/100 99/99/99
