g Grass_1_Cluster80
v 299.4601 0.1926575 112.613
v 298.6514 0.1926575 112.613
v 299.4601 0.1926575 113.4218
v 298.6514 0.1926575 113.4218
v 299.0558 0.1926575 111.3998
v 298.247 0.1926575 111.3998
v 299.0558 0.1926575 112.2086
v 298.247 0.1926575 112.2086
v 297.4382 0.1926575 110.9954
v 296.6294 0.1926575 110.9954
v 297.4382 0.1926575 111.8042
v 296.6294 0.1926575 111.8042
v 300.2689 0.1926575 108.9735
v 299.4601 0.1926575 108.9735
v 300.2689 0.1926575 109.7823
v 299.4601 0.1926575 109.7823
v 297.0338 0.1926575 108.1647
v 295.8206 0.1926575 108.1647
v 297.0338 0.1926575 108.9735
v 295.8206 0.1926575 108.9735
v 284.9021 0.1926575 100.4813
v 284.0933 0.1926575 100.4813
v 284.9021 0.1926575 101.2901
v 284.0933 0.1926575 101.2901
v 283.2845 0.1926575 100.0769
v 282.4758 0.1926575 100.0769
v 283.2845 0.1926575 100.8857
v 282.4758 0.1926575 100.8857
v 282.4758 0.1926575 98.86374
v 281.667 0.1926575 98.86374
v 282.4758 0.1926575 99.67252
v 281.667 0.1926575 99.67252
vt 0.06738281 0.9369141
vt 0.1331457 0.9369141
vt 0.06738281 0.9990234
vt 0.1331457 0.9990234
vt 0.06738281 0.9369141
vt 0.1331457 0.9369141
vt 0.06738281 0.9990234
vt 0.1331457 0.9990234
vt 0.06738281 0.9369141
vt 0.1331457 0.9369141
vt 0.06738281 0.9990234
vt 0.1331457 0.9990234
vt 0.06738281 0.9369141
vt 0.1331457 0.9369141
vt 0.06738281 0.9990234
vt 0.1331457 0.9990234
vt 0.06738281 0.9369141
vt 0.1331457 0.9369141
vt 0.06738281 0.9990234
vt 0.1331457 0.9990234
vt 0.06738281 0.9369141
vt 0.1331457 0.9369141
vt 0.06738281 0.9990234
vt 0.1331457 0.9990234
vt 0.06738281 0.9369141
vt 0.1331457 0.9369141
vt 0.06738281 0.9990234
vt 0.1331457 0.9990234
vt 0.06738281 0.9369141
vt 0.1331457 0.9369141
vt 0.06738281 0.9990234
vt 0.1331457 0.9990234
vn 0 1 0
vn 0 1 0
vn 0 1 0
vn 0 1 0
vn 0 1 0
vn 0 1 0
vn 0 1 0
vn 0 1 0
vn 0 1 0
vn 0 1 0
vn 0 1 0
vn 0 1 0
vn 0 1 0
vn 0 1 0
vn 0 1 0
vn 0 1 0
vn 0 1 0
vn 0 1 0
vn 0 1 0
vn 0 1 0
vn 0 1 0
vn 0 1 0
vn 0 1 0
vn 0 1 0
vn 0 1 0
vn 0 1 0
vn 0 1 0
vn 0 1 0
vn 0 1 0
vn 0 1 0
vn 0 1 0
vn 0 1 0
g Grass_1_Cluster80_0
f 2/2/2 3/3/3 1/1/1
f 2/2/2 4/4/4 3/3/3
f 6/6/6 7/7/7 5/5/5
f 6/6/6 8/8/8 7/7/7
f 10/10/10 11/11/11 9/9/9
f 10/10/10 12/12/12 11/11/11
f 14/14/14 15/15/15 13/13/13
f 14/14/14 16/16/16 15/15/15
f 18/18/18 19/19/19 17/17/17
f 18/18/18 20/20/20 19/19/19
f 22/22/22 23/23/23 21/21/21
f 22/22/22 24/24/24 23/23/23
f 26/26/26 27/27/27 25/25/25
f 26/26/26 28/28/28 27/27/27
f 30/30/30 31/31/31 29/29/29
f 30/30/30 32/32/32 31/31/31
