g Grass_0_Cluster207
v 68.9678 0.009628296 292.414
v 67.84317 0.009628296 292.414
v 68.9678 0.009628296 293.5386
v 67.84317 0.009628296 293.5386
v 62.22001 0.009628296 291.6642
v 61.09538 0.009628296 291.6642
v 62.22001 0.009628296 293.1637
v 61.09538 0.009628296 293.1637
v 74.96584 0.009628296 291.6642
v 74.21609 0.009628296 291.6642
v 74.96584 0.009628296 293.1637
v 74.21609 0.009628296 293.1637
v 70.09244 0.009628296 291.2893
v 68.9678 0.009628296 291.2893
v 70.09244 0.009628296 292.7888
v 68.9678 0.009628296 292.7888
v 74.59097 0.009628296 290.9145
v 73.84121 0.009628296 290.9145
v 74.59097 0.009628296 292.0391
v 73.84121 0.009628296 292.0391
v 70.09244 0.009628296 289.4149
v 69.34268 0.009628296 289.4149
v 70.09244 0.009628296 290.5396
v 69.34268 0.009628296 290.5396
v 62.22001 0.009628296 289.4149
v 61.09538 0.009628296 289.4149
v 62.22001 0.009628296 290.5396
v 61.09538 0.009628296 290.5396
v 89.96094 0.009628296 289.0401
v 89.21118 0.009628296 289.0401
v 89.96094 0.009628296 290.1647
v 89.21118 0.009628296 290.1647
v 88.8363 0.009628296 288.2903
v 88.08655 0.009628296 288.2903
v 88.8363 0.009628296 289.4149
v 88.08655 0.009628296 289.4149
v 88.8363 0.009628296 287.5406
v 88.08655 0.009628296 287.5406
v 88.8363 0.009628296 289.0401
v 88.08655 0.009628296 289.0401
v 89.58606 0.009628296 287.5406
v 88.8363 0.009628296 287.5406
v 89.58606 0.009628296 288.6652
v 88.8363 0.009628296 288.6652
v 60.7205 0.009628296 286.7908
v 59.59587 0.009628296 286.7908
v 60.7205 0.009628296 287.9154
v 59.59587 0.009628296 287.9154
v 86.96192 0.009628296 286.4159
v 86.21217 0.009628296 286.4159
v 86.96192 0.009628296 287.5406
v 86.21217 0.009628296 287.5406
v 88.46143 0.009628296 286.041
v 87.3368 0.009628296 286.041
v 88.46143 0.009628296 287.1657
v 87.3368 0.009628296 287.1657
v 89.21118 0.009628296 285.2913
v 88.46143 0.009628296 285.2913
v 89.21118 0.009628296 286.4159
v 88.46143 0.009628296 286.4159
v 85.08753 0.009628296 284.9164
v 83.9629 0.009628296 284.9164
v 85.08753 0.009628296 286.041
v 83.9629 0.009628296 286.041
v 89.58606 0.009628296 284.9164
v 88.8363 0.009628296 284.9164
v 89.58606 0.009628296 286.041
v 88.8363 0.009628296 286.041
v 61.09538 0.009628296 284.5415
v 60.34563 0.009628296 284.5415
v 61.09538 0.009628296 286.041
v 60.34563 0.009628296 286.041
v 88.08655 0.009628296 284.5415
v 87.3368 0.009628296 284.5415
v 88.08655 0.009628296 285.6662
v 87.3368 0.009628296 285.6662
v 85.46241 0.009628296 284.1667
v 84.71265 0.009628296 284.1667
v 85.46241 0.009628296 285.2913
v 84.71265 0.009628296 285.2913
v 86.58704 0.009628296 284.1667
v 85.83729 0.009628296 284.1667
v 86.58704 0.009628296 285.2913
v 85.83729 0.009628296 285.2913
v 84.71265 0.009628296 283.042
v 83.9629 0.009628296 283.042
v 84.71265 0.009628296 284.5415
v 83.9629 0.009628296 284.5415
v 81.71364 0.009628296 282.6671
v 80.589 0.009628296 282.6671
v 81.71364 0.009628296 283.7918
v 80.589 0.009628296 283.7918
v 86.58704 0.009628296 282.2923
v 85.83729 0.009628296 282.2923
v 86.58704 0.009628296 283.4169
v 85.83729 0.009628296 283.4169
v 83.9629 0.009628296 281.9174
v 82.83826 0.009628296 281.9174
v 83.9629 0.009628296 283.042
v 82.83826 0.009628296 283.042
v 82.46339 0.009628296 281.9174
v 81.71364 0.009628296 281.9174
v 82.46339 0.009628296 283.042
v 81.71364 0.009628296 283.042
v 60.7205 0.009628296 280.7928
v 59.97075 0.009628296 280.7928
v 60.7205 0.009628296 281.9174
v 59.97075 0.009628296 281.9174
v 79.46437 0.009628296 280.4179
v 78.33974 0.009628296 280.4179
v 79.46437 0.009628296 281.5425
v 78.33974 0.009628296 281.5425
v 80.589 0.009628296 280.043
v 79.83925 0.009628296 280.043
v 80.589 0.009628296 281.1676
v 79.83925 0.009628296 281.1676
v 60.7205 0.009628296 280.043
v 59.97075 0.009628296 280.043
v 60.7205 0.009628296 281.1676
v 59.97075 0.009628296 281.1676
v 81.71364 0.009628296 280.043
v 80.96388 0.009628296 280.043
v 81.71364 0.009628296 281.1676
v 80.96388 0.009628296 281.1676
v 82.46339 0.009628296 279.6681
v 81.71364 0.009628296 279.6681
v 82.46339 0.009628296 280.7928
v 81.71364 0.009628296 280.7928
v 82.08852 0.009628296 279.2932
v 81.33876 0.009628296 279.2932
v 82.08852 0.009628296 280.4179
v 81.33876 0.009628296 280.4179
v 80.96388 0.009628296 278.1686
v 80.21413 0.009628296 278.1686
v 80.96388 0.009628296 279.2932
v 80.21413 0.009628296 279.2932
v 62.22001 0.009628296 278.1686
v 61.47026 0.009628296 278.1686
v 62.22001 0.009628296 279.2932
v 61.47026 0.009628296 279.2932
v 80.96388 0.009628296 277.7937
v 79.83925 0.009628296 277.7937
v 80.96388 0.009628296 278.9184
v 79.83925 0.009628296 278.9184
v 82.83826 0.009628296 277.044
v 81.71364 0.009628296 277.044
v 82.83826 0.009628296 278.1686
v 81.71364 0.009628296 278.1686
v 79.83925 0.009628296 277.044
v 78.71461 0.009628296 277.044
v 79.83925 0.009628296 278.1686
v 78.71461 0.009628296 278.1686
v 64.46928 0.009628296 277.044
v 63.34465 0.009628296 277.044
v 64.46928 0.009628296 278.1686
v 63.34465 0.009628296 278.1686
v 77.96486 0.009628296 276.6691
v 76.84023 0.009628296 276.6691
v 77.96486 0.009628296 278.1686
v 76.84023 0.009628296 278.1686
v 81.71364 0.009628296 276.6691
v 80.96388 0.009628296 276.6691
v 81.71364 0.009628296 277.7937
v 80.96388 0.009628296 277.7937
v 80.21413 0.009628296 276.2942
v 79.46437 0.009628296 276.2942
v 80.21413 0.009628296 277.7937
v 79.46437 0.009628296 277.7937
v 79.46437 0.009628296 276.2942
v 78.33974 0.009628296 276.2942
v 79.46437 0.009628296 277.4189
v 78.33974 0.009628296 277.4189
v 76.09048 0.009628296 275.9194
v 75.34072 0.009628296 275.9194
v 76.09048 0.009628296 277.044
v 75.34072 0.009628296 277.044
v 77.21511 0.009628296 275.5445
v 76.46535 0.009628296 275.5445
v 77.21511 0.009628296 276.6691
v 76.46535 0.009628296 276.6691
v 80.21413 0.009628296 275.1696
v 79.08949 0.009628296 275.1696
v 80.21413 0.009628296 276.2942
v 79.08949 0.009628296 276.2942
v 81.71364 0.009628296 275.1696
v 80.589 0.009628296 275.1696
v 81.71364 0.009628296 276.6691
v 80.589 0.009628296 276.6691
v 78.71461 0.009628296 275.1696
v 77.58998 0.009628296 275.1696
v 78.71461 0.009628296 276.2942
v 77.58998 0.009628296 276.2942
v 79.08949 0.009628296 274.7947
v 78.33974 0.009628296 274.7947
v 79.08949 0.009628296 275.9194
v 78.33974 0.009628296 275.9194
v 77.21511 0.009628296 274.7947
v 76.09048 0.009628296 274.7947
v 77.21511 0.009628296 275.9194
v 76.09048 0.009628296 275.9194
v 82.08852 0.009628296 274.4199
v 80.96388 0.009628296 274.4199
v 82.08852 0.009628296 275.9194
v 80.96388 0.009628296 275.9194
v 76.46535 0.009628296 274.4199
v 75.7156 0.009628296 274.4199
v 76.46535 0.009628296 275.5445
v 75.7156 0.009628296 275.5445
v 79.46437 0.009628296 274.045
v 78.71461 0.009628296 274.045
v 79.46437 0.009628296 275.5445
v 78.71461 0.009628296 275.5445
v 80.96388 0.009628296 274.045
v 80.21413 0.009628296 274.045
v 80.96388 0.009628296 275.1696
v 80.21413 0.009628296 275.1696
v 83.9629 0.009628296 274.045
v 83.21314 0.009628296 274.045
v 83.9629 0.009628296 275.5445
v 83.21314 0.009628296 275.5445
v 78.33974 0.009628296 273.6701
v 77.58998 0.009628296 273.6701
v 78.33974 0.009628296 275.1696
v 77.58998 0.009628296 275.1696
v 74.59097 0.009628296 273.6701
v 73.84121 0.009628296 273.6701
v 74.59097 0.009628296 274.7947
v 73.84121 0.009628296 274.7947
v 79.46437 0.009628296 273.6701
v 78.33974 0.009628296 273.6701
v 79.46437 0.009628296 274.7947
v 78.33974 0.009628296 274.7947
v 83.21314 0.009628296 273.2952
v 82.46339 0.009628296 273.2952
v 83.21314 0.009628296 274.7947
v 82.46339 0.009628296 274.7947
v 72.71658 0.009628296 273.2952
v 71.59195 0.009628296 273.2952
v 72.71658 0.009628296 274.4199
v 71.59195 0.009628296 274.4199
v 82.08852 0.009628296 272.9203
v 81.33876 0.009628296 272.9203
v 82.08852 0.009628296 274.045
v 81.33876 0.009628296 274.045
v 74.96584 0.009628296 272.9203
v 74.21609 0.009628296 272.9203
v 74.96584 0.009628296 274.045
v 74.21609 0.009628296 274.045
v 79.83925 0.009628296 272.9203
v 79.08949 0.009628296 272.9203
v 79.83925 0.009628296 274.045
v 79.08949 0.009628296 274.045
v 83.9629 0.009628296 272.5455
v 83.21314 0.009628296 272.5455
v 83.9629 0.009628296 273.6701
v 83.21314 0.009628296 273.6701
v 70.84219 0.009628296 272.1706
v 69.71756 0.009628296 272.1706
v 70.84219 0.009628296 273.6701
v 69.71756 0.009628296 273.6701
v 81.33876 0.009628296 272.1706
v 80.589 0.009628296 272.1706
v 81.33876 0.009628296 273.2952
v 80.589 0.009628296 273.2952
v 80.589 0.009628296 272.1706
v 79.83925 0.009628296 272.1706
v 80.589 0.009628296 273.2952
v 79.83925 0.009628296 273.2952
v 74.21609 0.009628296 271.7957
v 73.09146 0.009628296 271.7957
v 74.21609 0.009628296 272.9203
v 73.09146 0.009628296 272.9203
v 82.46339 0.009628296 271.7957
v 81.71364 0.009628296 271.7957
v 82.46339 0.009628296 272.9203
v 81.71364 0.009628296 272.9203
v 80.589 0.009628296 271.4208
v 79.83925 0.009628296 271.4208
v 80.589 0.009628296 272.5455
v 79.83925 0.009628296 272.5455
v 77.58998 0.009628296 271.4208
v 76.84023 0.009628296 271.4208
v 77.58998 0.009628296 272.5455
v 76.84023 0.009628296 272.5455
v 78.33974 0.009628296 271.4208
v 77.58998 0.009628296 271.4208
v 78.33974 0.009628296 272.5455
v 77.58998 0.009628296 272.5455
v 82.83826 0.009628296 271.046
v 82.08852 0.009628296 271.046
v 82.83826 0.009628296 272.1706
v 82.08852 0.009628296 272.1706
v 65.21903 0.009628296 268.4218
v 64.46928 0.009628296 268.4218
v 65.21903 0.009628296 269.5464
v 64.46928 0.009628296 269.5464
v 68.9678 0.009628296 268.0469
v 68.21805 0.009628296 268.0469
v 68.9678 0.009628296 269.1716
v 68.21805 0.009628296 269.1716
v 65.21903 0.009628296 265.4228
v 64.46928 0.009628296 265.4228
v 65.21903 0.009628296 266.9223
v 64.46928 0.009628296 266.9223
vt 0 0.9058824
vt 0.06666667 0.9058824
vt 0 1
vt 0.06666667 1
vt 0 0.9058824
vt 0.06666667 0.9058824
vt 0 1
vt 0.06666667 1
vt 0 0.9058824
vt 0.06666667 0.9058824
vt 0 1
vt 0.06666667 1
vt 0 0.9058824
vt 0.06666667 0.9058824
vt 0 1
vt 0.06666667 1
vt 0 0.9058824
vt 0.06666667 0.9058824
vt 0 1
vt 0.06666667 1
vt 0 0.9058824
vt 0.06666667 0.9058824
vt 0 1
vt 0.06666667 1
vt 0 0.9058824
vt 0.06666667 0.9058824
vt 0 1
vt 0.06666667 1
vt 0 0.9058824
vt 0.06666667 0.9058824
vt 0 1
vt 0.06666667 1
vt 0 0.9058824
vt 0.06666667 0.9058824
vt 0 1
vt 0.06666667 1
vt 0 0.9058824
vt 0.06666667 0.9058824
vt 0 1
vt 0.06666667 1
vt 0 0.9058824
vt 0.06666667 0.9058824
vt 0 1
vt 0.06666667 1
vt 0 0.9058824
vt 0.06666667 0.9058824
vt 0 1
vt 0.06666667 1
vt 0 0.9058824
vt 0.06666667 0.9058824
vt 0 1
vt 0.06666667 1
vt 0 0.9058824
vt 0.06666667 0.9058824
vt 0 1
vt 0.06666667 1
vt 0 0.9058824
vt 0.06666667 0.9058824
vt 0 1
vt 0.06666667 1
vt 0 0.9058824
vt 0.06666667 0.9058824
vt 0 1
vt 0.06666667 1
vt 0 0.9058824
vt 0.06666667 0.9058824
vt 0 1
vt 0.06666667 1
vt 0 0.9058824
vt 0.06666667 0.9058824
vt 0 1
vt 0.06666667 1
vt 0 0.9058824
vt 0.06666667 0.9058824
vt 0 1
vt 0.06666667 1
vt 0 0.9058824
vt 0.06666667 0.9058824
vt 0 1
vt 0.06666667 1
vt 0 0.9058824
vt 0.06666667 0.9058824
vt 0 1
vt 0.06666667 1
vt 0 0.9058824
vt 0.06666667 0.9058824
vt 0 1
vt 0.06666667 1
vt 0 0.9058824
vt 0.06666667 0.9058824
vt 0 1
vt 0.06666667 1
vt 0 0.9058824
vt 0.06666667 0.9058824
vt 0 1
vt 0.06666667 1
vt 0 0.9058824
vt 0.06666667 0.9058824
vt 0 1
vt 0.06666667 1
vt 0 0.9058824
vt 0.06666667 0.9058824
vt 0 1
vt 0.06666667 1
vt 0 0.9058824
vt 0.06666667 0.9058824
vt 0 1
vt 0.06666667 1
vt 0 0.9058824
vt 0.06666667 0.9058824
vt 0 1
vt 0.06666667 1
vt 0 0.9058824
vt 0.06666667 0.9058824
vt 0 1
vt 0.06666667 1
vt 0 0.9058824
vt 0.06666667 0.9058824
vt 0 1
vt 0.06666667 1
vt 0 0.9058824
vt 0.06666667 0.9058824
vt 0 1
vt 0.06666667 1
vt 0 0.9058824
vt 0.06666667 0.9058824
vt 0 1
vt 0.06666667 1
vt 0 0.9058824
vt 0.06666667 0.9058824
vt 0 1
vt 0.06666667 1
vt 0 0.9058824
vt 0.06666667 0.9058824
vt 0 1
vt 0.06666667 1
vt 0 0.9058824
vt 0.06666667 0.9058824
vt 0 1
vt 0.06666667 1
vt 0 0.9058824
vt 0.06666667 0.9058824
vt 0 1
vt 0.06666667 1
vt 0 0.9058824
vt 0.06666667 0.9058824
vt 0 1
vt 0.06666667 1
vt 0 0.9058824
vt 0.06666667 0.9058824
vt 0 1
vt 0.06666667 1
vt 0 0.9058824
vt 0.06666667 0.9058824
vt 0 1
vt 0.06666667 1
vt 0 0.9058824
vt 0.06666667 0.9058824
vt 0 1
vt 0.06666667 1
vt 0 0.9058824
vt 0.06666667 0.9058824
vt 0 1
vt 0.06666667 1
vt 0 0.9058824
vt 0.06666667 0.9058824
vt 0 1
vt 0.06666667 1
vt 0 0.9058824
vt 0.06666667 0.9058824
vt 0 1
vt 0.06666667 1
vt 0 0.9058824
vt 0.06666667 0.9058824
vt 0 1
vt 0.06666667 1
vt 0 0.9058824
vt 0.06666667 0.9058824
vt 0 1
vt 0.06666667 1
vt 0 0.9058824
vt 0.06666667 0.9058824
vt 0 1
vt 0.06666667 1
vt 0 0.9058824
vt 0.06666667 0.9058824
vt 0 1
vt 0.06666667 1
vt 0 0.9058824
vt 0.06666667 0.9058824
vt 0 1
vt 0.06666667 1
vt 0 0.9058824
vt 0.06666667 0.9058824
vt 0 1
vt 0.06666667 1
vt 0 0.9058824
vt 0.06666667 0.9058824
vt 0 1
vt 0.06666667 1
vt 0 0.9058824
vt 0.06666667 0.9058824
vt 0 1
vt 0.06666667 1
vt 0 0.9058824
vt 0.06666667 0.9058824
vt 0 1
vt 0.06666667 1
vt 0 0.9058824
vt 0.06666667 0.9058824
vt 0 1
vt 0.06666667 1
vt 0 0.9058824
vt 0.06666667 0.9058824
vt 0 1
vt 0.06666667 1
vt 0 0.9058824
vt 0.06666667 0.9058824
vt 0 1
vt 0.06666667 1
vt 0 0.9058824
vt 0.06666667 0.9058824
vt 0 1
vt 0.06666667 1
vt 0 0.9058824
vt 0.06666667 0.9058824
vt 0 1
vt 0.06666667 1
vt 0 0.9058824
vt 0.06666667 0.9058824
vt 0 1
vt 0.06666667 1
vt 0 0.9058824
vt 0.06666667 0.9058824
vt 0 1
vt 0.06666667 1
vt 0 0.9058824
vt 0.06666667 0.9058824
vt 0 1
vt 0.06666667 1
vt 0 0.9058824
vt 0.06666667 0.9058824
vt 0 1
vt 0.06666667 1
vt 0 0.9058824
vt 0.06666667 0.9058824
vt 0 1
vt 0.06666667 1
vt 0 0.9058824
vt 0.06666667 0.9058824
vt 0 1
vt 0.06666667 1
vt 0 0.9058824
vt 0.06666667 0.9058824
vt 0 1
vt 0.06666667 1
vt 0 0.9058824
vt 0.06666667 0.9058824
vt 0 1
vt 0.06666667 1
vt 0 0.9058824
vt 0.06666667 0.9058824
vt 0 1
vt 0.06666667 1
vt 0 0.9058824
vt 0.06666667 0.9058824
vt 0 1
vt 0.06666667 1
vt 0 0.9058824
vt 0.06666667 0.9058824
vt 0 1
vt 0.06666667 1
vt 0 0.9058824
vt 0.06666667 0.9058824
vt 0 1
vt 0.06666667 1
vt 0 0.9058824
vt 0.06666667 0.9058824
vt 0 1
vt 0.06666667 1
vt 0 0.9058824
vt 0.06666667 0.9058824
vt 0 1
vt 0.06666667 1
vt 0 0.9058824
vt 0.06666667 0.9058824
vt 0 1
vt 0.06666667 1
vt 0 0.9058824
vt 0.06666667 0.9058824
vt 0 1
vt 0.06666667 1
vt 0 0.9058824
vt 0.06666667 0.9058824
vt 0 1
vt 0.06666667 1
vt 0 0.9058824
vt 0.06666667 0.9058824
vt 0 1
vt 0.06666667 1
vt 0 0.9058824
vt 0.06666667 0.9058824
vt 0 1
vt 0.06666667 1
vn 0 1 0
vn 0 1 0
vn 0 1 0
vn 0 1 0
vn 0 1 0
vn 0 1 0
vn 0 1 0
vn 0 1 0
vn 0 1 0
vn 0 1 0
vn 0 1 0
vn 0 1 0
vn 0 1 0
vn 0 1 0
vn 0 1 0
vn 0 1 0
vn 0 1 0
vn 0 1 0
vn 0 1 0
vn 0 1 0
vn 0 1 0
vn 0 1 0
vn 0 1 0
vn 0 1 0
vn 0 1 0
vn 0 1 0
vn 0 1 0
vn 0 1 0
vn 0 1 0
vn 0 1 0
vn 0 1 0
vn 0 1 0
vn 0 1 0
vn 0 1 0
vn 0 1 0
vn 0 1 0
vn 0 1 0
vn 0 1 0
vn 0 1 0
vn 0 1 0
vn 0 1 0
vn 0 1 0
vn 0 1 0
vn 0 1 0
vn 0 1 0
vn 0 1 0
vn 0 1 0
vn 0 1 0
vn 0 1 0
vn 0 1 0
vn 0 1 0
vn 0 1 0
vn 0 1 0
vn 0 1 0
vn 0 1 0
vn 0 1 0
vn 0 1 0
vn 0 1 0
vn 0 1 0
vn 0 1 0
vn 0 1 0
vn 0 1 0
vn 0 1 0
vn 0 1 0
vn 0 1 0
vn 0 1 0
vn 0 1 0
vn 0 1 0
vn 0 1 0
vn 0 1 0
vn 0 1 0
vn 0 1 0
vn 0 1 0
vn 0 1 0
vn 0 1 0
vn 0 1 0
vn 0 1 0
vn 0 1 0
vn 0 1 0
vn 0 1 0
vn 0 1 0
vn 0 1 0
vn 0 1 0
vn 0 1 0
vn 0 1 0
vn 0 1 0
vn 0 1 0
vn 0 1 0
vn 0 1 0
vn 0 1 0
vn 0 1 0
vn 0 1 0
vn 0 1 0
vn 0 1 0
vn 0 1 0
vn 0 1 0
vn 0 1 0
vn 0 1 0
vn 0 1 0
vn 0 1 0
vn 0 1 0
vn 0 1 0
vn 0 1 0
vn 0 1 0
vn 0 1 0
vn 0 1 0
vn 0 1 0
vn 0 1 0
vn 0 1 0
vn 0 1 0
vn 0 1 0
vn 0 1 0
vn 0 1 0
vn 0 1 0
vn 0 1 0
vn 0 1 0
vn 0 1 0
vn 0 1 0
vn 0 1 0
vn 0 1 0
vn 0 1 0
vn 0 1 0
vn 0 1 0
vn 0 1 0
vn 0 1 0
vn 0 1 0
vn 0 1 0
vn 0 1 0
vn 0 1 0
vn 0 1 0
vn 0 1 0
vn 0 1 0
vn 0 1 0
vn 0 1 0
vn 0 1 0
vn 0 1 0
vn 0 1 0
vn 0 1 0
vn 0 1 0
vn 0 1 0
vn 0 1 0
vn 0 1 0
vn 0 1 0
vn 0 1 0
vn 0 1 0
vn 0 1 0
vn 0 1 0
vn 0 1 0
vn 0 1 0
vn 0 1 0
vn 0 1 0
vn 0 1 0
vn 0 1 0
vn 0 1 0
vn 0 1 0
vn 0 1 0
vn 0 1 0
vn 0 1 0
vn 0 1 0
vn 0 1 0
vn 0 1 0
vn 0 1 0
vn 0 1 0
vn 0 1 0
vn 0 1 0
vn 0 1 0
vn 0 1 0
vn 0 1 0
vn 0 1 0
vn 0 1 0
vn 0 1 0
vn 0 1 0
vn 0 1 0
vn 0 1 0
vn 0 1 0
vn 0 1 0
vn 0 1 0
vn 0 1 0
vn 0 1 0
vn 0 1 0
vn 0 1 0
vn 0 1 0
vn 0 1 0
vn 0 1 0
vn 0 1 0
vn 0 1 0
vn 0 1 0
vn 0 1 0
vn 0 1 0
vn 0 1 0
vn 0 1 0
vn 0 1 0
vn 0 1 0
vn 0 1 0
vn 0 1 0
vn 0 1 0
vn 0 1 0
vn 0 1 0
vn 0 1 0
vn 0 1 0
vn 0 1 0
vn 0 1 0
vn 0 1 0
vn 0 1 0
vn 0 1 0
vn 0 1 0
vn 0 1 0
vn 0 1 0
vn 0 1 0
vn 0 1 0
vn 0 1 0
vn 0 1 0
vn 0 1 0
vn 0 1 0
vn 0 1 0
vn 0 1 0
vn 0 1 0
vn 0 1 0
vn 0 1 0
vn 0 1 0
vn 0 1 0
vn 0 1 0
vn 0 1 0
vn 0 1 0
vn 0 1 0
vn 0 1 0
vn 0 1 0
vn 0 1 0
vn 0 1 0
vn 0 1 0
vn 0 1 0
vn 0 1 0
vn 0 1 0
vn 0 1 0
vn 0 1 0
vn 0 1 0
vn 0 1 0
vn 0 1 0
vn 0 1 0
vn 0 1 0
vn 0 1 0
vn 0 1 0
vn 0 1 0
vn 0 1 0
vn 0 1 0
vn 0 1 0
vn 0 1 0
vn 0 1 0
vn 0 1 0
vn 0 1 0
vn 0 1 0
vn 0 1 0
vn 0 1 0
vn 0 1 0
vn 0 1 0
vn 0 1 0
vn 0 1 0
vn 0 1 0
vn 0 1 0
vn 0 1 0
vn 0 1 0
vn 0 1 0
vn 0 1 0
vn 0 1 0
vn 0 1 0
vn 0 1 0
vn 0 1 0
vn 0 1 0
vn 0 1 0
vn 0 1 0
vn 0 1 0
vn 0 1 0
vn 0 1 0
vn 0 1 0
vn 0 1 0
vn 0 1 0
vn 0 1 0
vn 0 1 0
vn 0 1 0
vn 0 1 0
vn 0 1 0
vn 0 1 0
vn 0 1 0
vn 0 1 0
vn 0 1 0
vn 0 1 0
vn 0 1 0
vn 0 1 0
vn 0 1 0
vn 0 1 0
vn 0 1 0
vn 0 1 0
vn 0 1 0
vn 0 1 0
vn 0 1 0
vn 0 1 0
vn 0 1 0
vn 0 1 0
vn 0 1 0
vn 0 1 0
vn 0 1 0
vn 0 1 0
vn 0 1 0
vn 0 1 0
g Grass_0_Cluster207_0
f 2/2/2 3/3/3 1/1/1
f 2/2/2 4/4/4 3/3/3
f 6/6/6 7/7/7 5/5/5
f 6/6/6 8/8/8 7/7/7
f 10/10/10 11/11/11 9/9/9
f 10/10/10 12/12/12 11/11/11
f 14/14/14 15/15/15 13/13/13
f 14/14/14 16/16/16 15/15/15
f 18/18/18 19/19/19 17/17/17
f 18/18/18 20/20/20 19/19/19
f 22/22/22 23/23/23 21/21/21
f 22/22/22 24/24/24 23/23/23
f 26/26/26 27/27/27 25/25/25
f 26/26/26 28/28/28 27/27/27
f 30/30/30 31/31/31 29/29/29
f 30/30/30 32/32/32 31/31/31
f 34/34/34 35/35/35 33/33/33
f 34/34/34 36/36/36 35/35/35
f 38/38/38 39/39/39 37/37/37
f 38/38/38 40/40/40 39/39/39
f 42/42/42 43/43/43 41/41/41
f 42/42/42 44/44/44 43/43/43
f 46/46/46 47/47/47 45/45/45
f 46/46/46 48/48/48 47/47/47
f 50/50/50 51/51/51 49/49/49
f 50/50/50 52/52/52 51/51/51
f 54/54/54 55/55/55 53/53/53
f 54/54/54 56/56/56 55/55/55
f 58/58/58 59/59/59 57/57/57
f 58/58/58 60/60/60 59/59/59
f 62/62/62 63/63/63 61/61/61
f 62/62/62 64/64/64 63/63/63
f 66/66/66 67/67/67 65/65/65
f 66/66/66 68/68/68 67/67/67
f 70/70/70 71/71/71 69/69/69
f 70/70/70 72/72/72 71/71/71
f 74/74/74 75/75/75 73/73/73
f 74/74/74 76/76/76 75/75/75
f 78/78/78 79/79/79 77/77/77
f 78/78/78 80/80/80 79/79/79
f 82/82/82 83/83/83 81/81/81
f 82/82/82 84/84/84 83/83/83
f 86/86/86 87/87/87 85/85/85
f 86/86/86 88/88/88 87/87/87
f 90/90/90 91/91/91 89/89/89
f 90/90/90 92/92/92 91/91/91
f 94/94/94 95/95/95 93/93/93
f 94/94/94 96/96/96 95/95/95
f 98/98/98 99/99/99 97/97/97
f 98/98/98 100/100/100 99/99/99
f 102/102/102 103/103/103 101/101/101
f 102/102/102 104/104/104 103/103/103
f 106/106/106 107/107/107 105/105/105
f 106/106/106 108/108/108 107/107/107
f 110/110/110 111/111/111 109/109/109
f 110/110/110 112/112/112 111/111/111
f 114/114/114 115/115/115 113/113/113
f 114/114/114 116/116/116 115/115/115
f 118/118/118 119/119/119 117/117/117
f 118/118/118 120/120/120 119/119/119
f 122/122/122 123/123/123 121/121/121
f 122/122/122 124/124/124 123/123/123
f 126/126/126 127/127/127 125/125/125
f 126/126/126 128/128/128 127/127/127
f 130/130/130 131/131/131 129/129/129
f 130/130/130 132/132/132 131/131/131
f 134/134/134 135/135/135 133/133/133
f 134/134/134 136/136/136 135/135/135
f 138/138/138 139/139/139 137/137/137
f 138/138/138 140/140/140 139/139/139
f 142/142/142 143/143/143 141/141/141
f 142/142/142 144/144/144 143/143/143
f 146/146/146 147/147/147 145/145/145
f 146/146/146 148/148/148 147/147/147
f 150/150/150 151/151/151 149/149/149
f 150/150/150 152/152/152 151/151/151
f 154/154/154 155/155/155 153/153/153
f 154/154/154 156/156/156 155/155/155
f 158/158/158 159/159/159 157/157/157
f 158/158/158 160/160/160 159/159/159
f 162/162/162 163/163/163 161/161/161
f 162/162/162 164/164/164 163/163/163
f 166/166/166 167/167/167 165/165/165
f 166/166/166 168/168/168 167/167/167
f 170/170/170 171/171/171 169/169/169
f 170/170/170 172/172/172 171/171/171
f 174/174/174 175/175/175 173/173/173
f 174/174/174 176/176/176 175/175/175
f 178/178/178 179/179/179 177/177/177
f 178/178/178 180/180/180 179/179/179
f 182/182/182 183/183/183 181/181/181
f 182/182/182 184/184/184 183/183/183
f 186/186/186 187/187/187 185/185/185
f 186/186/186 188/188/188 187/187/187
f 190/190/190 191/191/191 189/189/189
f 190/190/190 192/192/192 191/191/191
f 194/194/194 195/195/195 193/193/193
f 194/194/194 196/196/196 195/195/195
f 198/198/198 199/199/199 197/197/197
f 198/198/198 200/200/200 199/199/199
f 202/202/202 203/203/203 201/201/201
f 202/202/202 204/204/204 203/203/203
f 206/206/206 207/207/207 205/205/205
f 206/206/206 208/208/208 207/207/207
f 210/210/210 211/211/211 209/209/209
f 210/210/210 212/212/212 211/211/211
f 214/214/214 215/215/215 213/213/213
f 214/214/214 216/216/216 215/215/215
f 218/218/218 219/219/219 217/217/217
f 218/218/218 220/220/220 219/219/219
f 222/222/222 223/223/223 221/221/221
f 222/222/222 224/224/224 223/223/223
f 226/226/226 227/227/227 225/225/225
f 226/226/226 228/228/228 227/227/227
f 230/230/230 231/231/231 229/229/229
f 230/230/230 232/232/232 231/231/231
f 234/234/234 235/235/235 233/233/233
f 234/234/234 236/236/236 235/235/235
f 238/238/238 239/239/239 237/237/237
f 238/238/238 240/240/240 239/239/239
f 242/242/242 243/243/243 241/241/241
f 242/242/242 244/244/244 243/243/243
f 246/246/246 247/247/247 245/245/245
f 246/246/246 248/248/248 247/247/247
f 250/250/250 251/251/251 249/249/249
f 250/250/250 252/252/252 251/251/251
f 254/254/254 255/255/255 253/253/253
f 254/254/254 256/256/256 255/255/255
f 258/258/258 259/259/259 257/257/257
f 258/258/258 260/260/260 259/259/259
f 262/262/262 263/263/263 261/261/261
f 262/262/262 264/264/264 263/263/263
f 266/266/266 267/267/267 265/265/265
f 266/266/266 268/268/268 267/267/267
f 270/270/270 271/271/271 269/269/269
f 270/270/270 272/272/272 271/271/271
f 274/274/274 275/275/275 273/273/273
f 274/274/274 276/276/276 275/275/275
f 278/278/278 279/279/279 277/277/277
f 278/278/278 280/280/280 279/279/279
f 282/282/282 283/283/283 281/281/281
f 282/282/282 284/284/284 283/283/283
f 286/286/286 287/287/287 285/285/285
f 286/286/286 288/288/288 287/287/287
f 290/290/290 291/291/291 289/289/289
f 290/290/290 292/292/292 291/291/291
f 294/294/294 295/295/295 293/293/293
f 294/294/294 296/296/296 295/295/295
f 298/298/298 299/299/299 297/297/297
f 298/298/298 300/300/300 299/299/299
f 302/302/302 303/303/303 301/301/301
f 302/302/302 304/304/304 303/303/303
