g Grass_1_Cluster24
v 164.0336 0.0005950928 21.39636
v 163.0431 0.0005950928 21.39636
v 164.0336 0.0005950928 22.1888
v 163.0431 0.0005950928 22.1888
v 160.4677 0.0005950928 20.80205
v 159.4771 0.0005950928 20.80205
v 160.4677 0.0005950928 21.79259
v 159.4771 0.0005950928 21.79259
v 161.6563 0.0005950928 20.0096
v 160.6658 0.0005950928 20.0096
v 161.6563 0.0005950928 20.80205
v 160.6658 0.0005950928 20.80205
v 157.8922 0.0005950928 19.41528
v 157.0998 0.0005950928 19.41528
v 157.8922 0.0005950928 20.20772
v 157.0998 0.0005950928 20.20772
v 162.845 0.0005950928 18.82095
v 161.8544 0.0005950928 18.82095
v 162.845 0.0005950928 19.61339
v 161.8544 0.0005950928 19.61339
v 165.8166 0.0005950928 18.02852
v 165.0242 0.0005950928 18.02852
v 165.8166 0.0005950928 18.82095
v 165.0242 0.0005950928 18.82095
v 156.3074 0.0005950928 18.02852
v 155.3168 0.0005950928 18.02852
v 156.3074 0.0005950928 18.82095
v 155.3168 0.0005950928 18.82095
v 170.5712 0.0005950928 12.28336
v 169.7788 0.0005950928 12.28336
v 170.5712 0.0005950928 13.07579
v 169.7788 0.0005950928 13.07579
v 179.288 0.0005950928 10.30226
v 178.2975 0.0005950928 10.30226
v 179.288 0.0005950928 11.29282
v 178.2975 0.0005950928 11.29282
v 176.7126 0.0005950928 8.915497
v 175.7221 0.0005950928 8.915497
v 176.7126 0.0005950928 9.707932
v 175.7221 0.0005950928 9.707932
v 180.4767 0.0005950928 7.330627
v 179.6842 0.0005950928 7.330627
v 180.4767 0.0005950928 8.123062
v 179.6842 0.0005950928 8.123062
v 175.3258 0.0005950928 6.141983
v 174.3353 0.0005950928 6.141983
v 175.3258 0.0005950928 6.736298
v 174.3353 0.0005950928 6.736298
v 178.4956 0.0005950928 5.547653
v 177.505 0.0005950928 5.547653
v 178.4956 0.0005950928 6.340088
v 177.505 0.0005950928 6.340088
v 176.5145 0.0005950928 4.358994
v 175.5239 0.0005950928 4.358994
v 176.5145 0.0005950928 5.151428
v 175.5239 0.0005950928 5.151428
v 175.9202 0.0005950928 3.962784
v 175.1277 0.0005950928 3.962784
v 175.9202 0.0005950928 4.755219
v 175.1277 0.0005950928 4.755219
v 156.7036 0.0005950928 -3.367249
v 155.9112 0.0005950928 -3.367249
v 156.7036 0.0005950928 -2.574814
v 155.9112 0.0005950928 -2.574814
v 157.0998 0.0005950928 -5.348343
v 156.3074 0.0005950928 -5.348343
v 157.0998 0.0005950928 -4.555908
v 156.3074 0.0005950928 -4.555908
v 156.1093 0.0005950928 -6.338882
v 155.1187 0.0005950928 -6.338882
v 156.1093 0.0005950928 -5.546448
v 155.1187 0.0005950928 -5.546448
vt 0.06738281 0.9369141
vt 0.1331457 0.9369141
vt 0.06738281 0.9990234
vt 0.1331457 0.9990234
vt 0.06738281 0.9369141
vt 0.1331457 0.9369141
vt 0.06738281 0.9990234
vt 0.1331457 0.9990234
vt 0.06738281 0.9369141
vt 0.1331457 0.9369141
vt 0.06738281 0.9990234
vt 0.1331457 0.9990234
vt 0.06738281 0.9369141
vt 0.1331457 0.9369141
vt 0.06738281 0.9990234
vt 0.1331457 0.9990234
vt 0.06738281 0.9369141
vt 0.1331457 0.9369141
vt 0.06738281 0.9990234
vt 0.1331457 0.9990234
vt 0.06738281 0.9369141
vt 0.1331457 0.9369141
vt 0.06738281 0.9990234
vt 0.1331457 0.9990234
vt 0.06738281 0.9369141
vt 0.1331457 0.9369141
vt 0.06738281 0.9990234
vt 0.1331457 0.9990234
vt 0.06738281 0.9369141
vt 0.1331457 0.9369141
vt 0.06738281 0.9990234
vt 0.1331457 0.9990234
vt 0.06738281 0.9369141
vt 0.1331457 0.9369141
vt 0.06738281 0.9990234
vt 0.1331457 0.9990234
vt 0.06738281 0.9369141
vt 0.1331457 0.9369141
vt 0.06738281 0.9990234
vt 0.1331457 0.9990234
vt 0.06738281 0.9369141
vt 0.1331457 0.9369141
vt 0.06738281 0.9990234
vt 0.1331457 0.9990234
vt 0.06738281 0.9369141
vt 0.1331457 0.9369141
vt 0.06738281 0.9990234
vt 0.1331457 0.9990234
vt 0.06738281 0.9369141
vt 0.1331457 0.9369141
vt 0.06738281 0.9990234
vt 0.1331457 0.9990234
vt 0.06738281 0.9369141
vt 0.1331457 0.9369141
vt 0.06738281 0.9990234
vt 0.1331457 0.9990234
vt 0.06738281 0.9369141
vt 0.1331457 0.9369141
vt 0.06738281 0.9990234
vt 0.1331457 0.9990234
vt 0.06738281 0.9369141
vt 0.1331457 0.9369141
vt 0.06738281 0.9990234
vt 0.1331457 0.9990234
vt 0.06738281 0.9369141
vt 0.1331457 0.9369141
vt 0.06738281 0.9990234
vt 0.1331457 0.9990234
vt 0.06738281 0.9369141
vt 0.1331457 0.9369141
vt 0.06738281 0.9990234
vt 0.1331457 0.9990234
vn 0 1 0
vn 0 1 0
vn 0 1 0
vn 0 1 0
vn 0 1 0
vn 0 1 0
vn 0 1 0
vn 0 1 0
vn 0 1 0
vn 0 1 0
vn 0 1 0
vn 0 1 0
vn 0 1 0
vn 0 1 0
vn 0 1 0
vn 0 1 0
vn 0 1 0
vn 0 1 0
vn 0 1 0
vn 0 1 0
vn 0 1 0
vn 0 1 0
vn 0 1 0
vn 0 1 0
vn 0 1 0
vn 0 1 0
vn 0 1 0
vn 0 1 0
vn 0 1 0
vn 0 1 0
vn 0 1 0
vn 0 1 0
vn 0 1 0
vn 0 1 0
vn 0 1 0
vn 0 1 0
vn 0 1 0
vn 0 1 0
vn 0 1 0
vn 0 1 0
vn 0 1 0
vn 0 1 0
vn 0 1 0
vn 0 1 0
vn 0 1 0
vn 0 1 0
vn 0 1 0
vn 0 1 0
vn 0 1 0
vn 0 1 0
vn 0 1 0
vn 0 1 0
vn 0 1 0
vn 0 1 0
vn 0 1 0
vn 0 1 0
vn 0 1 0
vn 0 1 0
vn 0 1 0
vn 0 1 0
vn 0 1 0
vn 0 1 0
vn 0 1 0
vn 0 1 0
vn 0 1 0
vn 0 1 0
vn 0 1 0
vn 0 1 0
vn 0 1 0
vn 0 1 0
vn 0 1 0
vn 0 1 0
g Grass_1_Cluster24_0
f 2/2/2 3/3/3 1/1/1
f 2/2/2 4/4/4 3/3/3
f 6/6/6 7/7/7 5/5/5
f 6/6/6 8/8/8 7/7/7
f 10/10/10 11/11/11 9/9/9
f 10/10/10 12/12/12 11/11/11
f 14/14/14 15/15/15 13/13/13
f 14/14/14 16/16/16 15/15/15
f 18/18/18 19/19/19 17/17/17
f 18/18/18 20/20/20 19/19/19
f 22/22/22 23/23/23 21/21/21
f 22/22/22 24/24/24 23/23/23
f 26/26/26 27/27/27 25/25/25
f 26/26/26 28/28/28 27/27/27
f 30/30/30 31/31/31 29/29/29
f 30/30/30 32/32/32 31/31/31
f 34/34/34 35/35/35 33/33/33
f 34/34/34 36/36/36 35/35/35
f 38/38/38 39/39/39 37/37/37
f 38/38/38 40/40/40 39/39/39
f 42/42/42 43/43/43 41/41/41
f 42/42/42 44/44/44 43/43/43
f 46/46/46 47/47/47 45/45/45
f 46/46/46 48/48/48 47/47/47
f 50/50/50 51/51/51 49/49/49
f 50/50/50 52/52/52 51/51/51
f 54/54/54 55/55/55 53/53/53
f 54/54/54 56/56/56 55/55/55
f 58/58/58 59/59/59 57/57/57
f 58/58/58 60/60/60 59/59/59
f 62/62/62 63/63/63 61/61/61
f 62/62/62 64/64/64 63/63/63
f 66/66/66 67/67/67 65/65/65
f 66/66/66 68/68/68 67/67/67
f 70/70/70 71/71/71 69/69/69
f 70/70/70 72/72/72 71/71/71
