g Grass_2_Cluster180
v 298.1162 0.1384277 257.0293
v 297.0276 0.1384277 257.0293
v 298.1162 0.1384277 258.1178
v 297.0276 0.1384277 258.1178
v 298.6604 0.1384277 257.0293
v 297.5719 0.1384277 257.0293
v 298.6604 0.1384277 258.1178
v 297.5719 0.1384277 258.1178
v 277.4343 0.1384277 254.8522
v 276.3458 0.1384277 254.8522
v 277.4343 0.1384277 255.9407
v 276.3458 0.1384277 255.9407
v 272.5359 0.1384277 247.7768
v 271.4474 0.1384277 247.7768
v 272.5359 0.1384277 248.8653
v 271.4474 0.1384277 248.8653
v 273.6245 0.1384277 247.7768
v 272.5359 0.1384277 247.7768
v 273.6245 0.1384277 248.8653
v 272.5359 0.1384277 248.8653
v 271.4474 0.1384277 247.2326
v 270.3589 0.1384277 247.2326
v 271.4474 0.1384277 248.3211
v 270.3589 0.1384277 248.3211
v 274.1687 0.1384277 247.2326
v 273.6245 0.1384277 247.2326
v 274.1687 0.1384277 248.3211
v 273.6245 0.1384277 248.3211
v 273.6245 0.1384277 246.6883
v 272.5359 0.1384277 246.6883
v 273.6245 0.1384277 247.7768
v 272.5359 0.1384277 247.7768
v 271.4474 0.1384277 246.144
v 270.3589 0.1384277 246.144
v 271.4474 0.1384277 247.2326
v 270.3589 0.1384277 247.2326
v 293.7621 0.1384277 246.144
v 292.6736 0.1384277 246.144
v 293.7621 0.1384277 247.2326
v 292.6736 0.1384277 247.2326
v 273.6245 0.1384277 245.5998
v 272.5359 0.1384277 245.5998
v 273.6245 0.1384277 246.6883
v 272.5359 0.1384277 246.6883
v 273.0802 0.1384277 245.5998
v 271.9917 0.1384277 245.5998
v 273.0802 0.1384277 246.144
v 271.9917 0.1384277 246.144
v 272.5359 0.1384277 244.5113
v 271.4474 0.1384277 244.5113
v 272.5359 0.1384277 245.5998
v 271.4474 0.1384277 245.5998
v 270.9032 0.1384277 244.5113
v 269.8146 0.1384277 244.5113
v 270.9032 0.1384277 245.5998
v 269.8146 0.1384277 245.5998
v 271.9917 0.1384277 244.5113
v 270.9032 0.1384277 244.5113
v 271.9917 0.1384277 245.5998
v 270.9032 0.1384277 245.5998
v 274.1687 0.1384277 243.967
v 273.0802 0.1384277 243.967
v 274.1687 0.1384277 245.5998
v 273.0802 0.1384277 245.5998
v 271.9917 0.1384277 243.967
v 270.9032 0.1384277 243.967
v 271.9917 0.1384277 245.0555
v 270.9032 0.1384277 245.0555
v 274.713 0.1384277 243.967
v 274.1687 0.1384277 243.967
v 274.713 0.1384277 245.0555
v 274.1687 0.1384277 245.0555
v 272.5359 0.1384277 243.4228
v 271.4474 0.1384277 243.4228
v 272.5359 0.1384277 243.967
v 271.4474 0.1384277 243.967
v 279.6113 0.1384277 237.4359
v 278.5228 0.1384277 237.4359
v 279.6113 0.1384277 238.5244
v 278.5228 0.1384277 238.5244
v 279.0671 0.1384277 236.8916
v 278.5228 0.1384277 236.8916
v 279.0671 0.1384277 237.9801
v 278.5228 0.1384277 237.9801
v 277.4343 0.1384277 235.8031
v 276.89 0.1384277 235.8031
v 277.4343 0.1384277 236.8916
v 276.89 0.1384277 236.8916
v 279.0671 0.1384277 235.8031
v 277.9785 0.1384277 235.8031
v 279.0671 0.1384277 236.8916
v 277.9785 0.1384277 236.8916
v 280.1556 0.1384277 235.2588
v 279.6113 0.1384277 235.2588
v 280.1556 0.1384277 236.3474
v 279.6113 0.1384277 236.3474
v 277.9785 0.1384277 234.7146
v 276.89 0.1384277 234.7146
v 277.9785 0.1384277 235.8031
v 276.89 0.1384277 235.8031
v 280.6998 0.1384277 234.7146
v 279.6113 0.1384277 234.7146
v 280.6998 0.1384277 235.8031
v 279.6113 0.1384277 235.8031
v 279.6113 0.1384277 234.1703
v 279.0671 0.1384277 234.1703
v 279.6113 0.1384277 235.2588
v 279.0671 0.1384277 235.2588
v 279.6113 0.1384277 233.6261
v 279.0671 0.1384277 233.6261
v 279.6113 0.1384277 234.7146
v 279.0671 0.1384277 234.7146
vt 0.1347656 0.9185662
vt 0.2060202 0.9185662
vt 0.1347656 1
vt 0.2060202 1
vt 0.1347656 0.9185662
vt 0.2060202 0.9185662
vt 0.1347656 1
vt 0.2060202 1
vt 0.1347656 0.9185662
vt 0.2060202 0.9185662
vt 0.1347656 1
vt 0.2060202 1
vt 0.1347656 0.9185662
vt 0.2060202 0.9185662
vt 0.1347656 1
vt 0.2060202 1
vt 0.1347656 0.9185662
vt 0.2060202 0.9185662
vt 0.1347656 1
vt 0.2060202 1
vt 0.1347656 0.9185662
vt 0.2060202 0.9185662
vt 0.1347656 1
vt 0.2060202 1
vt 0.1347656 0.9185662
vt 0.2060202 0.9185662
vt 0.1347656 1
vt 0.2060202 1
vt 0.1347656 0.9185662
vt 0.2060202 0.9185662
vt 0.1347656 1
vt 0.2060202 1
vt 0.1347656 0.9185662
vt 0.2060202 0.9185662
vt 0.1347656 1
vt 0.2060202 1
vt 0.1347656 0.9185662
vt 0.2060202 0.9185662
vt 0.1347656 1
vt 0.2060202 1
vt 0.1347656 0.9185662
vt 0.2060202 0.9185662
vt 0.1347656 1
vt 0.2060202 1
vt 0.1347656 0.9185662
vt 0.2060202 0.9185662
vt 0.1347656 1
vt 0.2060202 1
vt 0.1347656 0.9185662
vt 0.2060202 0.9185662
vt 0.1347656 1
vt 0.2060202 1
vt 0.1347656 0.9185662
vt 0.2060202 0.9185662
vt 0.1347656 1
vt 0.2060202 1
vt 0.1347656 0.9185662
vt 0.2060202 0.9185662
vt 0.1347656 1
vt 0.2060202 1
vt 0.1347656 0.9185662
vt 0.2060202 0.9185662
vt 0.1347656 1
vt 0.2060202 1
vt 0.1347656 0.9185662
vt 0.2060202 0.9185662
vt 0.1347656 1
vt 0.2060202 1
vt 0.1347656 0.9185662
vt 0.2060202 0.9185662
vt 0.1347656 1
vt 0.2060202 1
vt 0.1347656 0.9185662
vt 0.2060202 0.9185662
vt 0.1347656 1
vt 0.2060202 1
vt 0.1347656 0.9185662
vt 0.2060202 0.9185662
vt 0.1347656 1
vt 0.2060202 1
vt 0.1347656 0.9185662
vt 0.2060202 0.9185662
vt 0.1347656 1
vt 0.2060202 1
vt 0.1347656 0.9185662
vt 0.2060202 0.9185662
vt 0.1347656 1
vt 0.2060202 1
vt 0.1347656 0.9185662
vt 0.2060202 0.9185662
vt 0.1347656 1
vt 0.2060202 1
vt 0.1347656 0.9185662
vt 0.2060202 0.9185662
vt 0.1347656 1
vt 0.2060202 1
vt 0.1347656 0.9185662
vt 0.2060202 0.9185662
vt 0.1347656 1
vt 0.2060202 1
vt 0.1347656 0.9185662
vt 0.2060202 0.9185662
vt 0.1347656 1
vt 0.2060202 1
vt 0.1347656 0.9185662
vt 0.2060202 0.9185662
vt 0.1347656 1
vt 0.2060202 1
vt 0.1347656 0.9185662
vt 0.2060202 0.9185662
vt 0.1347656 1
vt 0.2060202 1
vn 0 1 0
vn 0 1 0
vn 0 1 0
vn 0 1 0
vn 0 1 0
vn 0 1 0
vn 0 1 0
vn 0 1 0
vn 0 1 0
vn 0 1 0
vn 0 1 0
vn 0 1 0
vn 0 1 0
vn 0 1 0
vn 0 1 0
vn 0 1 0
vn 0 1 0
vn 0 1 0
vn 0 1 0
vn 0 1 0
vn 0 1 0
vn 0 1 0
vn 0 1 0
vn 0 1 0
vn 0 1 0
vn 0 1 0
vn 0 1 0
vn 0 1 0
vn 0 1 0
vn 0 1 0
vn 0 1 0
vn 0 1 0
vn 0 1 0
vn 0 1 0
vn 0 1 0
vn 0 1 0
vn 0 1 0
vn 0 1 0
vn 0 1 0
vn 0 1 0
vn 0 1 0
vn 0 1 0
vn 0 1 0
vn 0 1 0
vn 0 1 0
vn 0 1 0
vn 0 1 0
vn 0 1 0
vn 0 1 0
vn 0 1 0
vn 0 1 0
vn 0 1 0
vn 0 1 0
vn 0 1 0
vn 0 1 0
vn 0 1 0
vn 0 1 0
vn 0 1 0
vn 0 1 0
vn 0 1 0
vn 0 1 0
vn 0 1 0
vn 0 1 0
vn 0 1 0
vn 0 1 0
vn 0 1 0
vn 0 1 0
vn 0 1 0
vn 0 1 0
vn 0 1 0
vn 0 1 0
vn 0 1 0
vn 0 1 0
vn 0 1 0
vn 0 1 0
vn 0 1 0
vn 0 1 0
vn 0 1 0
vn 0 1 0
vn 0 1 0
vn 0 1 0
vn 0 1 0
vn 0 1 0
vn 0 1 0
vn 0 1 0
vn 0 1 0
vn 0 1 0
vn 0 1 0
vn 0 1 0
vn 0 1 0
vn 0 1 0
vn 0 1 0
vn 0 1 0
vn 0 1 0
vn 0 1 0
vn 0 1 0
vn 0 1 0
vn 0 1 0
vn 0 1 0
vn 0 1 0
vn 0 1 0
vn 0 1 0
vn 0 1 0
vn 0 1 0
vn 0 1 0
vn 0 1 0
vn 0 1 0
vn 0 1 0
vn 0 1 0
vn 0 1 0
vn 0 1 0
vn 0 1 0
g Grass_2_Cluster180_0
f 2/2/2 3/3/3 1/1/1
f 2/2/2 4/4/4 3/3/3
f 6/6/6 7/7/7 5/5/5
f 6/6/6 8/8/8 7/7/7
f 10/10/10 11/11/11 9/9/9
f 10/10/10 12/12/12 11/11/11
f 14/14/14 15/15/15 13/13/13
f 14/14/14 16/16/16 15/15/15
f 18/18/18 19/19/19 17/17/17
f 18/18/18 20/20/20 19/19/19
f 22/22/22 23/23/23 21/21/21
f 22/22/22 24/24/24 23/23/23
f 26/26/26 27/27/27 25/25/25
f 26/26/26 28/28/28 27/27/27
f 30/30/30 31/31/31 29/29/29
f 30/30/30 32/32/32 31/31/31
f 34/34/34 35/35/35 33/33/33
f 34/34/34 36/36/36 35/35/35
f 38/38/38 39/39/39 37/37/37
f 38/38/38 40/40/40 39/39/39
f 42/42/42 43/43/43 41/41/41
f 42/42/42 44/44/44 43/43/43
f 46/46/46 47/47/47 45/45/45
f 46/46/46 48/48/48 47/47/47
f 50/50/50 51/51/51 49/49/49
f 50/50/50 52/52/52 51/51/51
f 54/54/54 55/55/55 53/53/53
f 54/54/54 56/56/56 55/55/55
f 58/58/58 59/59/59 57/57/57
f 58/58/58 60/60/60 59/59/59
f 62/62/62 63/63/63 61/61/61
f 62/62/62 64/64/64 63/63/63
f 66/66/66 67/67/67 65/65/65
f 66/66/66 68/68/68 67/67/67
f 70/70/70 71/71/71 69/69/69
f 70/70/70 72/72/72 71/71/71
f 74/74/74 75/75/75 73/73/73
f 74/74/74 76/76/76 75/75/75
f 78/78/78 79/79/79 77/77/77
f 78/78/78 80/80/80 79/79/79
f 82/82/82 83/83/83 81/81/81
f 82/82/82 84/84/84 83/83/83
f 86/86/86 87/87/87 85/85/85
f 86/86/86 88/88/88 87/87/87
f 90/90/90 91/91/91 89/89/89
f 90/90/90 92/92/92 91/91/91
f 94/94/94 95/95/95 93/93/93
f 94/94/94 96/96/96 95/95/95
f 98/98/98 99/99/99 97/97/97
f 98/98/98 100/100/100 99/99/99
f 102/102/102 103/103/103 101/101/101
f 102/102/102 104/104/104 103/103/103
f 106/106/106 107/107/107 105/105/105
f 106/106/106 108/108/108 107/107/107
f 110/110/110 111/111/111 109/109/109
f 110/110/110 112/112/112 111/111/111
