g Grass_2_Cluster233
v -95.23605 0 322.7268
v -95.86885 0 322.7268
v -95.23605 0 323.676
v -95.86885 0 323.676
v -113.9036 0 321.7776
v -114.8528 0 321.7776
v -113.9036 0 322.7268
v -114.8528 0 322.7268
v -97.45084 0 321.4612
v -98.40004 0 321.4612
v -97.45084 0 322.4104
v -98.40004 0 322.4104
v -114.8528 0 320.512
v -115.4856 0 320.512
v -114.8528 0 321.7776
v -115.4856 0 321.7776
v -113.5872 0 319.8792
v -114.5364 0 319.8792
v -113.5872 0 320.8284
v -114.5364 0 320.8284
v -114.5364 0 319.2464
v -115.4856 0 319.2464
v -114.5364 0 320.512
v -115.4856 0 320.512
v -112.9544 0 318.9301
v -113.9036 0 318.9301
v -112.9544 0 319.8792
v -113.9036 0 319.8792
v -115.4856 0 318.6136
v -116.4348 0 318.6136
v -115.4856 0 319.8792
v -116.4348 0 319.8792
v -116.1184 0 318.2972
v -117.0676 0 318.2972
v -116.1184 0 319.2464
v -117.0676 0 319.2464
v -118.3332 0 317.9808
v -119.2824 0 317.9808
v -118.3332 0 318.9301
v -119.2824 0 318.9301
v -114.22 0 317.6644
v -115.1692 0 317.6644
v -114.22 0 318.9301
v -115.1692 0 318.9301
v -117.0676 0 317.6644
v -118.3332 0 317.6644
v -117.0676 0 318.9301
v -118.3332 0 318.9301
v -114.22 0 317.6644
v -115.1692 0 317.6644
v -114.22 0 318.6136
v -115.1692 0 318.6136
v -112.9544 0 317.3481
v -113.9036 0 317.3481
v -112.9544 0 318.2972
v -113.9036 0 318.2972
v -115.1692 0 317.0316
v -116.1184 0 317.0316
v -115.1692 0 317.9808
v -116.1184 0 317.9808
v -117.384 0 317.0316
v -118.3332 0 317.0316
v -117.384 0 318.2972
v -118.3332 0 318.2972
v -116.4348 0 317.0316
v -117.384 0 317.0316
v -116.4348 0 317.9808
v -117.384 0 317.9808
v -115.802 0 316.0825
v -116.7512 0 316.0825
v -115.802 0 317.0316
v -116.7512 0 317.0316
v -118.966 0 315.7661
v -119.9152 0 315.7661
v -118.966 0 317.0316
v -119.9152 0 317.0316
v -94.28686 0 315.7661
v -95.23605 0 315.7661
v -94.28686 0 317.0316
v -95.23605 0 317.0316
v -118.966 0 315.1332
v -119.5988 0 315.1332
v -118.966 0 316.3988
v -119.5988 0 316.3988
v -114.8528 0 315.1332
v -115.802 0 315.1332
v -114.8528 0 316.3988
v -115.802 0 316.3988
v -119.2824 0 314.8169
v -120.2316 0 314.8169
v -119.2824 0 316.0825
v -120.2316 0 316.0825
v -115.1692 0 314.5005
v -116.1184 0 314.5005
v -115.1692 0 315.7661
v -116.1184 0 315.7661
v -117.0676 0 314.5005
v -118.0168 0 314.5005
v -117.0676 0 315.4496
v -118.0168 0 315.4496
v -96.81805 0 314.1841
v -97.76724 0 314.1841
v -96.81805 0 315.4496
v -97.76724 0 315.4496
v -118.0168 0 314.1841
v -118.966 0 314.1841
v -118.0168 0 315.4496
v -118.966 0 315.4496
v -116.4348 0 313.5513
v -117.384 0 313.5513
v -116.4348 0 314.8169
v -117.384 0 314.8169
v -115.4856 0 313.2349
v -116.4348 0 313.2349
v -115.4856 0 314.1841
v -116.4348 0 314.1841
v -118.0168 0 312.9185
v -118.966 0 312.9185
v -118.0168 0 314.1841
v -118.966 0 314.1841
v -116.7512 0 312.9185
v -117.7004 0 312.9185
v -116.7512 0 314.1841
v -117.7004 0 314.1841
v -90.80647 0 312.9185
v -91.43927 0 312.9185
v -90.80647 0 313.8676
v -91.43927 0 313.8676
v -117.7004 0 312.2857
v -118.6496 0 312.2857
v -117.7004 0 313.2349
v -118.6496 0 313.2349
v -116.1184 0 312.2857
v -117.0676 0 312.2857
v -116.1184 0 313.2349
v -117.0676 0 313.2349
v -96.81805 0 296.4657
v -97.76724 0 296.4657
v -96.81805 0 297.7313
v -97.76724 0 297.7313
v -98.08364 0 296.4657
v -99.03284 0 296.4657
v -98.08364 0 297.4149
v -99.03284 0 297.4149
v -89.85727 0 296.1493
v -90.80647 0 296.1493
v -89.85727 0 297.0985
v -90.80647 0 297.0985
v -101.564 0 295.8329
v -102.5132 0 295.8329
v -101.564 0 296.7821
v -102.5132 0 296.7821
v -90.80647 0 295.2001
v -91.75567 0 295.2001
v -90.80647 0 296.4657
v -91.75567 0 296.4657
v -99.34924 0 295.5165
v -100.6148 0 295.5165
v -99.34924 0 296.4657
v -100.6148 0 296.4657
v -94.91965 0 295.2001
v -95.86885 0 295.2001
v -94.91965 0 296.4657
v -95.86885 0 296.4657
v -98.71644 0 295.2001
v -99.66563 0 295.2001
v -98.71644 0 296.4657
v -99.66563 0 296.4657
v -95.86885 0 294.5673
v -96.81805 0 294.5673
v -95.86885 0 295.8329
v -96.81805 0 295.8329
v -93.33766 0 294.5673
v -94.28686 0 294.5673
v -93.33766 0 295.8329
v -94.28686 0 295.8329
v -99.98203 0 294.5673
v -100.9312 0 294.5673
v -99.98203 0 295.8329
v -100.9312 0 295.8329
v -93.02126 0 294.5673
v -93.97046 0 294.5673
v -93.02126 0 295.5165
v -93.97046 0 295.5165
v -98.71644 0 294.2509
v -99.66563 0 294.2509
v -98.71644 0 295.2001
v -99.66563 0 295.2001
v -97.76724 0 294.2509
v -98.71644 0 294.2509
v -97.76724 0 295.2001
v -98.71644 0 295.2001
v -92.07207 0 294.2509
v -93.02126 0 294.2509
v -92.07207 0 295.2001
v -93.02126 0 295.2001
v -93.65406 0 294.2509
v -94.60326 0 294.2509
v -93.65406 0 295.2001
v -94.60326 0 295.2001
v -90.49007 0 293.9345
v -91.43927 0 293.9345
v -90.49007 0 295.2001
v -91.43927 0 295.2001
v -102.1968 0 293.6181
v -103.146 0 293.6181
v -102.1968 0 294.8837
v -103.146 0 294.8837
v -94.28686 0 293.6181
v -95.55245 0 293.6181
v -94.28686 0 294.8837
v -95.55245 0 294.8837
v -97.13445 0 293.6181
v -98.08364 0 293.6181
v -97.13445 0 294.5673
v -98.08364 0 294.5673
v -91.43927 0 293.3017
v -92.38847 0 293.3017
v -91.43927 0 294.5673
v -92.38847 0 294.5673
v -101.2476 0 293.3017
v -102.1968 0 293.3017
v -101.2476 0 294.5673
v -102.1968 0 294.5673
v -98.40004 0 293.3017
v -99.34924 0 293.3017
v -98.40004 0 294.2509
v -99.34924 0 294.2509
v -89.85727 0 292.9853
v -90.80647 0 292.9853
v -89.85727 0 294.2509
v -90.80647 0 294.2509
vt 0.1347656 0.9185662
vt 0.2060202 0.9185662
vt 0.1347656 1
vt 0.2060202 1
vt 0.1347656 0.9185662
vt 0.2060202 0.9185662
vt 0.1347656 1
vt 0.2060202 1
vt 0.1347656 0.9185662
vt 0.2060202 0.9185662
vt 0.1347656 1
vt 0.2060202 1
vt 0.1347656 0.9185662
vt 0.2060202 0.9185662
vt 0.1347656 1
vt 0.2060202 1
vt 0.1347656 0.9185662
vt 0.2060202 0.9185662
vt 0.1347656 1
vt 0.2060202 1
vt 0.1347656 0.9185662
vt 0.2060202 0.9185662
vt 0.1347656 1
vt 0.2060202 1
vt 0.1347656 0.9185662
vt 0.2060202 0.9185662
vt 0.1347656 1
vt 0.2060202 1
vt 0.1347656 0.9185662
vt 0.2060202 0.9185662
vt 0.1347656 1
vt 0.2060202 1
vt 0.1347656 0.9185662
vt 0.2060202 0.9185662
vt 0.1347656 1
vt 0.2060202 1
vt 0.1347656 0.9185662
vt 0.2060202 0.9185662
vt 0.1347656 1
vt 0.2060202 1
vt 0.1347656 0.9185662
vt 0.2060202 0.9185662
vt 0.1347656 1
vt 0.2060202 1
vt 0.1347656 0.9185662
vt 0.2060202 0.9185662
vt 0.1347656 1
vt 0.2060202 1
vt 0.1347656 0.9185662
vt 0.2060202 0.9185662
vt 0.1347656 1
vt 0.2060202 1
vt 0.1347656 0.9185662
vt 0.2060202 0.9185662
vt 0.1347656 1
vt 0.2060202 1
vt 0.1347656 0.9185662
vt 0.2060202 0.9185662
vt 0.1347656 1
vt 0.2060202 1
vt 0.1347656 0.9185662
vt 0.2060202 0.9185662
vt 0.1347656 1
vt 0.2060202 1
vt 0.1347656 0.9185662
vt 0.2060202 0.9185662
vt 0.1347656 1
vt 0.2060202 1
vt 0.1347656 0.9185662
vt 0.2060202 0.9185662
vt 0.1347656 1
vt 0.2060202 1
vt 0.1347656 0.9185662
vt 0.2060202 0.9185662
vt 0.1347656 1
vt 0.2060202 1
vt 0.1347656 0.9185662
vt 0.2060202 0.9185662
vt 0.1347656 1
vt 0.2060202 1
vt 0.1347656 0.9185662
vt 0.2060202 0.9185662
vt 0.1347656 1
vt 0.2060202 1
vt 0.1347656 0.9185662
vt 0.2060202 0.9185662
vt 0.1347656 1
vt 0.2060202 1
vt 0.1347656 0.9185662
vt 0.2060202 0.9185662
vt 0.1347656 1
vt 0.2060202 1
vt 0.1347656 0.9185662
vt 0.2060202 0.9185662
vt 0.1347656 1
vt 0.2060202 1
vt 0.1347656 0.9185662
vt 0.2060202 0.9185662
vt 0.1347656 1
vt 0.2060202 1
vt 0.1347656 0.9185662
vt 0.2060202 0.9185662
vt 0.1347656 1
vt 0.2060202 1
vt 0.1347656 0.9185662
vt 0.2060202 0.9185662
vt 0.1347656 1
vt 0.2060202 1
vt 0.1347656 0.9185662
vt 0.2060202 0.9185662
vt 0.1347656 1
vt 0.2060202 1
vt 0.1347656 0.9185662
vt 0.2060202 0.9185662
vt 0.1347656 1
vt 0.2060202 1
vt 0.1347656 0.9185662
vt 0.2060202 0.9185662
vt 0.1347656 1
vt 0.2060202 1
vt 0.1347656 0.9185662
vt 0.2060202 0.9185662
vt 0.1347656 1
vt 0.2060202 1
vt 0.1347656 0.9185662
vt 0.2060202 0.9185662
vt 0.1347656 1
vt 0.2060202 1
vt 0.1347656 0.9185662
vt 0.2060202 0.9185662
vt 0.1347656 1
vt 0.2060202 1
vt 0.1347656 0.9185662
vt 0.2060202 0.9185662
vt 0.1347656 1
vt 0.2060202 1
vt 0.1347656 0.9185662
vt 0.2060202 0.9185662
vt 0.1347656 1
vt 0.2060202 1
vt 0.1347656 0.9185662
vt 0.2060202 0.9185662
vt 0.1347656 1
vt 0.2060202 1
vt 0.1347656 0.9185662
vt 0.2060202 0.9185662
vt 0.1347656 1
vt 0.2060202 1
vt 0.1347656 0.9185662
vt 0.2060202 0.9185662
vt 0.1347656 1
vt 0.2060202 1
vt 0.1347656 0.9185662
vt 0.2060202 0.9185662
vt 0.1347656 1
vt 0.2060202 1
vt 0.1347656 0.9185662
vt 0.2060202 0.9185662
vt 0.1347656 1
vt 0.2060202 1
vt 0.1347656 0.9185662
vt 0.2060202 0.9185662
vt 0.1347656 1
vt 0.2060202 1
vt 0.1347656 0.9185662
vt 0.2060202 0.9185662
vt 0.1347656 1
vt 0.2060202 1
vt 0.1347656 0.9185662
vt 0.2060202 0.9185662
vt 0.1347656 1
vt 0.2060202 1
vt 0.1347656 0.9185662
vt 0.2060202 0.9185662
vt 0.1347656 1
vt 0.2060202 1
vt 0.1347656 0.9185662
vt 0.2060202 0.9185662
vt 0.1347656 1
vt 0.2060202 1
vt 0.1347656 0.9185662
vt 0.2060202 0.9185662
vt 0.1347656 1
vt 0.2060202 1
vt 0.1347656 0.9185662
vt 0.2060202 0.9185662
vt 0.1347656 1
vt 0.2060202 1
vt 0.1347656 0.9185662
vt 0.2060202 0.9185662
vt 0.1347656 1
vt 0.2060202 1
vt 0.1347656 0.9185662
vt 0.2060202 0.9185662
vt 0.1347656 1
vt 0.2060202 1
vt 0.1347656 0.9185662
vt 0.2060202 0.9185662
vt 0.1347656 1
vt 0.2060202 1
vt 0.1347656 0.9185662
vt 0.2060202 0.9185662
vt 0.1347656 1
vt 0.2060202 1
vt 0.1347656 0.9185662
vt 0.2060202 0.9185662
vt 0.1347656 1
vt 0.2060202 1
vt 0.1347656 0.9185662
vt 0.2060202 0.9185662
vt 0.1347656 1
vt 0.2060202 1
vt 0.1347656 0.9185662
vt 0.2060202 0.9185662
vt 0.1347656 1
vt 0.2060202 1
vt 0.1347656 0.9185662
vt 0.2060202 0.9185662
vt 0.1347656 1
vt 0.2060202 1
vt 0.1347656 0.9185662
vt 0.2060202 0.9185662
vt 0.1347656 1
vt 0.2060202 1
vt 0.1347656 0.9185662
vt 0.2060202 0.9185662
vt 0.1347656 1
vt 0.2060202 1
vt 0.1347656 0.9185662
vt 0.2060202 0.9185662
vt 0.1347656 1
vt 0.2060202 1
vn 0 1 0
vn 0 1 0
vn 0 1 0
vn 0 1 0
vn 0 1 0
vn 0 1 0
vn 0 1 0
vn 0 1 0
vn 0 1 0
vn 0 1 0
vn 0 1 0
vn 0 1 0
vn 0 1 0
vn 0 1 0
vn 0 1 0
vn 0 1 0
vn 0 1 0
vn 0 1 0
vn 0 1 0
vn 0 1 0
vn 0 1 0
vn 0 1 0
vn 0 1 0
vn 0 1 0
vn 0 1 0
vn 0 1 0
vn 0 1 0
vn 0 1 0
vn 0 1 0
vn 0 1 0
vn 0 1 0
vn 0 1 0
vn 0 1 0
vn 0 1 0
vn 0 1 0
vn 0 1 0
vn 0 1 0
vn 0 1 0
vn 0 1 0
vn 0 1 0
vn 0 1 0
vn 0 1 0
vn 0 1 0
vn 0 1 0
vn 0 1 0
vn 0 1 0
vn 0 1 0
vn 0 1 0
vn 0 1 0
vn 0 1 0
vn 0 1 0
vn 0 1 0
vn 0 1 0
vn 0 1 0
vn 0 1 0
vn 0 1 0
vn 0 1 0
vn 0 1 0
vn 0 1 0
vn 0 1 0
vn 0 1 0
vn 0 1 0
vn 0 1 0
vn 0 1 0
vn 0 1 0
vn 0 1 0
vn 0 1 0
vn 0 1 0
vn 0 1 0
vn 0 1 0
vn 0 1 0
vn 0 1 0
vn 0 1 0
vn 0 1 0
vn 0 1 0
vn 0 1 0
vn 0 1 0
vn 0 1 0
vn 0 1 0
vn 0 1 0
vn 0 1 0
vn 0 1 0
vn 0 1 0
vn 0 1 0
vn 0 1 0
vn 0 1 0
vn 0 1 0
vn 0 1 0
vn 0 1 0
vn 0 1 0
vn 0 1 0
vn 0 1 0
vn 0 1 0
vn 0 1 0
vn 0 1 0
vn 0 1 0
vn 0 1 0
vn 0 1 0
vn 0 1 0
vn 0 1 0
vn 0 1 0
vn 0 1 0
vn 0 1 0
vn 0 1 0
vn 0 1 0
vn 0 1 0
vn 0 1 0
vn 0 1 0
vn 0 1 0
vn 0 1 0
vn 0 1 0
vn 0 1 0
vn 0 1 0
vn 0 1 0
vn 0 1 0
vn 0 1 0
vn 0 1 0
vn 0 1 0
vn 0 1 0
vn 0 1 0
vn 0 1 0
vn 0 1 0
vn 0 1 0
vn 0 1 0
vn 0 1 0
vn 0 1 0
vn 0 1 0
vn 0 1 0
vn 0 1 0
vn 0 1 0
vn 0 1 0
vn 0 1 0
vn 0 1 0
vn 0 1 0
vn 0 1 0
vn 0 1 0
vn 0 1 0
vn 0 1 0
vn 0 1 0
vn 0 1 0
vn 0 1 0
vn 0 1 0
vn 0 1 0
vn 0 1 0
vn 0 1 0
vn 0 1 0
vn 0 1 0
vn 0 1 0
vn 0 1 0
vn 0 1 0
vn 0 1 0
vn 0 1 0
vn 0 1 0
vn 0 1 0
vn 0 1 0
vn 0 1 0
vn 0 1 0
vn 0 1 0
vn 0 1 0
vn 0 1 0
vn 0 1 0
vn 0 1 0
vn 0 1 0
vn 0 1 0
vn 0 1 0
vn 0 1 0
vn 0 1 0
vn 0 1 0
vn 0 1 0
vn 0 1 0
vn 0 1 0
vn 0 1 0
vn 0 1 0
vn 0 1 0
vn 0 1 0
vn 0 1 0
vn 0 1 0
vn 0 1 0
vn 0 1 0
vn 0 1 0
vn 0 1 0
vn 0 1 0
vn 0 1 0
vn 0 1 0
vn 0 1 0
vn 0 1 0
vn 0 1 0
vn 0 1 0
vn 0 1 0
vn 0 1 0
vn 0 1 0
vn 0 1 0
vn 0 1 0
vn 0 1 0
vn 0 1 0
vn 0 1 0
vn 0 1 0
vn 0 1 0
vn 0 1 0
vn 0 1 0
vn 0 1 0
vn 0 1 0
vn 0 1 0
vn 0 1 0
vn 0 1 0
vn 0 1 0
vn 0 1 0
vn 0 1 0
vn 0 1 0
vn 0 1 0
vn 0 1 0
vn 0 1 0
vn 0 1 0
vn 0 1 0
vn 0 1 0
vn 0 1 0
vn 0 1 0
vn 0 1 0
vn 0 1 0
vn 0 1 0
vn 0 1 0
vn 0 1 0
vn 0 1 0
vn 0 1 0
vn 0 1 0
vn 0 1 0
vn 0 1 0
vn 0 1 0
vn 0 1 0
vn 0 1 0
vn 0 1 0
vn 0 1 0
g Grass_2_Cluster233_0
f 2/2/2 3/3/3 1/1/1
f 2/2/2 4/4/4 3/3/3
f 6/6/6 7/7/7 5/5/5
f 6/6/6 8/8/8 7/7/7
f 10/10/10 11/11/11 9/9/9
f 10/10/10 12/12/12 11/11/11
f 14/14/14 15/15/15 13/13/13
f 14/14/14 16/16/16 15/15/15
f 18/18/18 19/19/19 17/17/17
f 18/18/18 20/20/20 19/19/19
f 22/22/22 23/23/23 21/21/21
f 22/22/22 24/24/24 23/23/23
f 26/26/26 27/27/27 25/25/25
f 26/26/26 28/28/28 27/27/27
f 30/30/30 31/31/31 29/29/29
f 30/30/30 32/32/32 31/31/31
f 34/34/34 35/35/35 33/33/33
f 34/34/34 36/36/36 35/35/35
f 38/38/38 39/39/39 37/37/37
f 38/38/38 40/40/40 39/39/39
f 42/42/42 43/43/43 41/41/41
f 42/42/42 44/44/44 43/43/43
f 46/46/46 47/47/47 45/45/45
f 46/46/46 48/48/48 47/47/47
f 50/50/50 51/51/51 49/49/49
f 50/50/50 52/52/52 51/51/51
f 54/54/54 55/55/55 53/53/53
f 54/54/54 56/56/56 55/55/55
f 58/58/58 59/59/59 57/57/57
f 58/58/58 60/60/60 59/59/59
f 62/62/62 63/63/63 61/61/61
f 62/62/62 64/64/64 63/63/63
f 66/66/66 67/67/67 65/65/65
f 66/66/66 68/68/68 67/67/67
f 70/70/70 71/71/71 69/69/69
f 70/70/70 72/72/72 71/71/71
f 74/74/74 75/75/75 73/73/73
f 74/74/74 76/76/76 75/75/75
f 78/78/78 79/79/79 77/77/77
f 78/78/78 80/80/80 79/79/79
f 82/82/82 83/83/83 81/81/81
f 82/82/82 84/84/84 83/83/83
f 86/86/86 87/87/87 85/85/85
f 86/86/86 88/88/88 87/87/87
f 90/90/90 91/91/91 89/89/89
f 90/90/90 92/92/92 91/91/91
f 94/94/94 95/95/95 93/93/93
f 94/94/94 96/96/96 95/95/95
f 98/98/98 99/99/99 97/97/97
f 98/98/98 100/100/100 99/99/99
f 102/102/102 103/103/103 101/101/101
f 102/102/102 104/104/104 103/103/103
f 106/106/106 107/107/107 105/105/105
f 106/106/106 108/108/108 107/107/107
f 110/110/110 111/111/111 109/109/109
f 110/110/110 112/112/112 111/111/111
f 114/114/114 115/115/115 113/113/113
f 114/114/114 116/116/116 115/115/115
f 118/118/118 119/119/119 117/117/117
f 118/118/118 120/120/120 119/119/119
f 122/122/122 123/123/123 121/121/121
f 122/122/122 124/124/124 123/123/123
f 126/126/126 127/127/127 125/125/125
f 126/126/126 128/128/128 127/127/127
f 130/130/130 131/131/131 129/129/129
f 130/130/130 132/132/132 131/131/131
f 134/134/134 135/135/135 133/133/133
f 134/134/134 136/136/136 135/135/135
f 138/138/138 139/139/139 137/137/137
f 138/138/138 140/140/140 139/139/139
f 142/142/142 143/143/143 141/141/141
f 142/142/142 144/144/144 143/143/143
f 146/146/146 147/147/147 145/145/145
f 146/146/146 148/148/148 147/147/147
f 150/150/150 151/151/151 149/149/149
f 150/150/150 152/152/152 151/151/151
f 154/154/154 155/155/155 153/153/153
f 154/154/154 156/156/156 155/155/155
f 158/158/158 159/159/159 157/157/157
f 158/158/158 160/160/160 159/159/159
f 162/162/162 163/163/163 161/161/161
f 162/162/162 164/164/164 163/163/163
f 166/166/166 167/167/167 165/165/165
f 166/166/166 168/168/168 167/167/167
f 170/170/170 171/171/171 169/169/169
f 170/170/170 172/172/172 171/171/171
f 174/174/174 175/175/175 173/173/173
f 174/174/174 176/176/176 175/175/175
f 178/178/178 179/179/179 177/177/177
f 178/178/178 180/180/180 179/179/179
f 182/182/182 183/183/183 181/181/181
f 182/182/182 184/184/184 183/183/183
f 186/186/186 187/187/187 185/185/185
f 186/186/186 188/188/188 187/187/187
f 190/190/190 191/191/191 189/189/189
f 190/190/190 192/192/192 191/191/191
f 194/194/194 195/195/195 193/193/193
f 194/194/194 196/196/196 195/195/195
f 198/198/198 199/199/199 197/197/197
f 198/198/198 200/200/200 199/199/199
f 202/202/202 203/203/203 201/201/201
f 202/202/202 204/204/204 203/203/203
f 206/206/206 207/207/207 205/205/205
f 206/206/206 208/208/208 207/207/207
f 210/210/210 211/211/211 209/209/209
f 210/210/210 212/212/212 211/211/211
f 214/214/214 215/215/215 213/213/213
f 214/214/214 216/216/216 215/215/215
f 218/218/218 219/219/219 217/217/217
f 218/218/218 220/220/220 219/219/219
f 222/222/222 223/223/223 221/221/221
f 222/222/222 224/224/224 223/223/223
f 226/226/226 227/227/227 225/225/225
f 226/226/226 228/228/228 227/227/227
f 230/230/230 231/231/231 229/229/229
f 230/230/230 232/232/232 231/231/231
