g Grass_0_Cluster189
v 6.724327 0.1085968 262.6068
v 5.870211 0.1085968 262.6068
v 6.724327 0.1085968 263.7456
v 5.870211 0.1085968 263.7456
v 1.314928 0.1085968 262.0374
v 0.4608135 0.1085968 262.0374
v 1.314928 0.1085968 263.1762
v 0.4608135 0.1085968 263.1762
v 12.98784 0.1085968 259.7597
v 12.41843 0.1085968 259.7597
v 12.98784 0.1085968 260.8985
v 12.41843 0.1085968 260.8985
v 27.2231 0.1085968 255.7738
v 26.36898 0.1085968 255.7738
v 27.2231 0.1085968 256.9127
v 26.36898 0.1085968 256.9127
v 27.5078 0.1085968 255.4891
v 26.65369 0.1085968 255.4891
v 27.5078 0.1085968 256.9127
v 26.65369 0.1085968 256.9127
v 13.27255 0.1085968 254.3503
v 12.13373 0.1085968 254.3503
v 13.27255 0.1085968 255.7738
v 12.13373 0.1085968 255.7738
v 12.41843 0.1085968 253.7809
v 11.27961 0.1085968 253.7809
v 12.41843 0.1085968 255.2044
v 11.27961 0.1085968 255.2044
v 9.856085 0.1085968 252.9268
v 9.001968 0.1085968 252.9268
v 9.856085 0.1085968 254.0656
v 9.001968 0.1085968 254.0656
v 10.7102 0.1085968 251.5033
v 9.571379 0.1085968 251.5033
v 10.7102 0.1085968 252.9268
v 9.571379 0.1085968 252.9268
v 10.7102 0.1085968 250.3644
v 9.856085 0.1085968 250.3644
v 10.7102 0.1085968 251.5033
v 9.856085 0.1085968 251.5033
v 11.27961 0.1085968 249.2256
v 10.4255 0.1085968 249.2256
v 11.27961 0.1085968 250.6491
v 10.4255 0.1085968 250.6491
v 12.13373 0.1085968 248.3715
v 11.27961 0.1085968 248.3715
v 12.13373 0.1085968 249.795
v 11.27961 0.1085968 249.795
v 12.98784 0.1085968 246.0939
v 12.13373 0.1085968 246.0939
v 12.98784 0.1085968 247.2327
v 12.13373 0.1085968 247.2327
v 15.83489 0.1085968 242.9621
v 14.98078 0.1085968 242.9621
v 15.83489 0.1085968 244.3856
v 14.98078 0.1085968 244.3856
v 23.23723 0.1085968 242.9621
v 22.38311 0.1085968 242.9621
v 23.23723 0.1085968 244.1009
v 22.38311 0.1085968 244.1009
v 18.96665 0.1085968 242.6774
v 18.11253 0.1085968 242.6774
v 18.96665 0.1085968 244.1009
v 18.11253 0.1085968 244.1009
v 22.66782 0.1085968 241.5386
v 21.8137 0.1085968 241.5386
v 22.66782 0.1085968 242.6774
v 21.8137 0.1085968 242.6774
v 21.8137 0.1085968 241.5386
v 20.95959 0.1085968 241.5386
v 21.8137 0.1085968 242.6774
v 20.95959 0.1085968 242.6774
v 18.39724 0.1085968 240.3997
v 17.54312 0.1085968 240.3997
v 18.39724 0.1085968 241.8233
v 17.54312 0.1085968 241.8233
v 18.96665 0.1085968 236.4139
v 18.11253 0.1085968 236.4139
v 18.96665 0.1085968 237.8374
v 18.11253 0.1085968 237.8374
v 12.70314 0.1085968 235.8445
v 11.84902 0.1085968 235.8445
v 12.70314 0.1085968 236.9833
v 11.84902 0.1085968 236.9833
vt 0 0.9058824
vt 0.06666667 0.9058824
vt 0 1
vt 0.06666667 1
vt 0 0.9058824
vt 0.06666667 0.9058824
vt 0 1
vt 0.06666667 1
vt 0 0.9058824
vt 0.06666667 0.9058824
vt 0 1
vt 0.06666667 1
vt 0 0.9058824
vt 0.06666667 0.9058824
vt 0 1
vt 0.06666667 1
vt 0 0.9058824
vt 0.06666667 0.9058824
vt 0 1
vt 0.06666667 1
vt 0 0.9058824
vt 0.06666667 0.9058824
vt 0 1
vt 0.06666667 1
vt 0 0.9058824
vt 0.06666667 0.9058824
vt 0 1
vt 0.06666667 1
vt 0 0.9058824
vt 0.06666667 0.9058824
vt 0 1
vt 0.06666667 1
vt 0 0.9058824
vt 0.06666667 0.9058824
vt 0 1
vt 0.06666667 1
vt 0 0.9058824
vt 0.06666667 0.9058824
vt 0 1
vt 0.06666667 1
vt 0 0.9058824
vt 0.06666667 0.9058824
vt 0 1
vt 0.06666667 1
vt 0 0.9058824
vt 0.06666667 0.9058824
vt 0 1
vt 0.06666667 1
vt 0 0.9058824
vt 0.06666667 0.9058824
vt 0 1
vt 0.06666667 1
vt 0 0.9058824
vt 0.06666667 0.9058824
vt 0 1
vt 0.06666667 1
vt 0 0.9058824
vt 0.06666667 0.9058824
vt 0 1
vt 0.06666667 1
vt 0 0.9058824
vt 0.06666667 0.9058824
vt 0 1
vt 0.06666667 1
vt 0 0.9058824
vt 0.06666667 0.9058824
vt 0 1
vt 0.06666667 1
vt 0 0.9058824
vt 0.06666667 0.9058824
vt 0 1
vt 0.06666667 1
vt 0 0.9058824
vt 0.06666667 0.9058824
vt 0 1
vt 0.06666667 1
vt 0 0.9058824
vt 0.06666667 0.9058824
vt 0 1
vt 0.06666667 1
vt 0 0.9058824
vt 0.06666667 0.9058824
vt 0 1
vt 0.06666667 1
vn 0 1 0
vn 0 1 0
vn 0 1 0
vn 0 1 0
vn 0 1 0
vn 0 1 0
vn 0 1 0
vn 0 1 0
vn 0 1 0
vn 0 1 0
vn 0 1 0
vn 0 1 0
vn 0 1 0
vn 0 1 0
vn 0 1 0
vn 0 1 0
vn 0 1 0
vn 0 1 0
vn 0 1 0
vn 0 1 0
vn 0 1 0
vn 0 1 0
vn 0 1 0
vn 0 1 0
vn 0 1 0
vn 0 1 0
vn 0 1 0
vn 0 1 0
vn 0 1 0
vn 0 1 0
vn 0 1 0
vn 0 1 0
vn 0 1 0
vn 0 1 0
vn 0 1 0
vn 0 1 0
vn 0 1 0
vn 0 1 0
vn 0 1 0
vn 0 1 0
vn 0 1 0
vn 0 1 0
vn 0 1 0
vn 0 1 0
vn 0 1 0
vn 0 1 0
vn 0 1 0
vn 0 1 0
vn 0 1 0
vn 0 1 0
vn 0 1 0
vn 0 1 0
vn 0 1 0
vn 0 1 0
vn 0 1 0
vn 0 1 0
vn 0 1 0
vn 0 1 0
vn 0 1 0
vn 0 1 0
vn 0 1 0
vn 0 1 0
vn 0 1 0
vn 0 1 0
vn 0 1 0
vn 0 1 0
vn 0 1 0
vn 0 1 0
vn 0 1 0
vn 0 1 0
vn 0 1 0
vn 0 1 0
vn 0 1 0
vn 0 1 0
vn 0 1 0
vn 0 1 0
vn 0 1 0
vn 0 1 0
vn 0 1 0
vn 0 1 0
vn 0 1 0
vn 0 1 0
vn 0 1 0
vn 0 1 0
g Grass_0_Cluster189_0
f 2/2/2 3/3/3 1/1/1
f 2/2/2 4/4/4 3/3/3
f 6/6/6 7/7/7 5/5/5
f 6/6/6 8/8/8 7/7/7
f 10/10/10 11/11/11 9/9/9
f 10/10/10 12/12/12 11/11/11
f 14/14/14 15/15/15 13/13/13
f 14/14/14 16/16/16 15/15/15
f 18/18/18 19/19/19 17/17/17
f 18/18/18 20/20/20 19/19/19
f 22/22/22 23/23/23 21/21/21
f 22/22/22 24/24/24 23/23/23
f 26/26/26 27/27/27 25/25/25
f 26/26/26 28/28/28 27/27/27
f 30/30/30 31/31/31 29/29/29
f 30/30/30 32/32/32 31/31/31
f 34/34/34 35/35/35 33/33/33
f 34/34/34 36/36/36 35/35/35
f 38/38/38 39/39/39 37/37/37
f 38/38/38 40/40/40 39/39/39
f 42/42/42 43/43/43 41/41/41
f 42/42/42 44/44/44 43/43/43
f 46/46/46 47/47/47 45/45/45
f 46/46/46 48/48/48 47/47/47
f 50/50/50 51/51/51 49/49/49
f 50/50/50 52/52/52 51/51/51
f 54/54/54 55/55/55 53/53/53
f 54/54/54 56/56/56 55/55/55
f 58/58/58 59/59/59 57/57/57
f 58/58/58 60/60/60 59/59/59
f 62/62/62 63/63/63 61/61/61
f 62/62/62 64/64/64 63/63/63
f 66/66/66 67/67/67 65/65/65
f 66/66/66 68/68/68 67/67/67
f 70/70/70 71/71/71 69/69/69
f 70/70/70 72/72/72 71/71/71
f 74/74/74 75/75/75 73/73/73
f 74/74/74 76/76/76 75/75/75
f 78/78/78 79/79/79 77/77/77
f 78/78/78 80/80/80 79/79/79
f 82/82/82 83/83/83 81/81/81
f 82/82/82 84/84/84 83/83/83
