g Grass_1_Cluster140
v 289.7762 -0.1531982 202.5829
v 288.7945 -0.1531982 202.5829
v 289.7762 -0.1531982 203.5647
v 288.7945 -0.1531982 203.5647
v 282.4129 -0.1531982 201.1103
v 281.4312 -0.1531982 201.1103
v 282.4129 -0.1531982 201.6011
v 281.4312 -0.1531982 201.6011
v 284.8674 -0.1531982 200.6194
v 283.8856 -0.1531982 200.6194
v 284.8674 -0.1531982 201.1103
v 283.8856 -0.1531982 201.1103
v 285.8491 -0.1531982 200.1285
v 284.8674 -0.1531982 200.1285
v 285.8491 -0.1531982 201.1103
v 284.8674 -0.1531982 201.1103
v 279.9585 -0.1531982 200.1285
v 279.4676 -0.1531982 200.1285
v 279.9585 -0.1531982 200.6194
v 279.4676 -0.1531982 200.6194
v 286.8309 -0.1531982 199.1467
v 285.8491 -0.1531982 199.1467
v 286.8309 -0.1531982 200.1285
v 285.8491 -0.1531982 200.1285
v 287.3218 -0.1531982 197.1832
v 286.8309 -0.1531982 197.1832
v 287.3218 -0.1531982 198.1649
v 286.8309 -0.1531982 198.1649
v 271.6134 -0.1531982 189.8199
v 270.6317 -0.1531982 189.8199
v 271.6134 -0.1531982 190.8016
v 270.6317 -0.1531982 190.8016
v 276.0314 -0.1531982 187.8563
v 275.0496 -0.1531982 187.8563
v 276.0314 -0.1531982 188.3472
v 275.0496 -0.1531982 188.3472
v 294.6851 -0.1531982 183.9292
v 293.7033 -0.1531982 183.9292
v 294.6851 -0.1531982 184.4201
v 293.7033 -0.1531982 184.4201
v 298.6122 -0.1531982 182.9474
v 297.6304 -0.1531982 182.9474
v 298.6122 -0.1531982 183.4384
v 297.6304 -0.1531982 183.4384
v 294.6851 -0.1531982 181.9657
v 293.7033 -0.1531982 181.9657
v 294.6851 -0.1531982 182.9474
v 293.7033 -0.1531982 182.9474
v 296.6487 -0.1531982 181.4748
v 295.6669 -0.1531982 181.4748
v 296.6487 -0.1531982 182.4566
v 295.6669 -0.1531982 182.4566
v 292.2307 -0.1531982 180.9839
v 291.2489 -0.1531982 180.9839
v 292.2307 -0.1531982 181.9657
v 291.2489 -0.1531982 181.9657
v 294.1942 -0.1531982 180.0021
v 293.2124 -0.1531982 180.0021
v 294.1942 -0.1531982 180.493
v 293.2124 -0.1531982 180.493
v 279.9585 -0.1531982 178.0386
v 278.9767 -0.1531982 178.0386
v 279.9585 -0.1531982 179.0204
v 278.9767 -0.1531982 179.0204
v 278.4858 -0.1531982 177.5477
v 277.5041 -0.1531982 177.5477
v 278.4858 -0.1531982 178.5295
v 277.5041 -0.1531982 178.5295
v 277.5041 -0.1531982 176.075
v 276.5223 -0.1531982 176.075
v 277.5041 -0.1531982 176.5659
v 276.5223 -0.1531982 176.5659
v 274.0679 -0.1531982 173.1297
v 273.577 -0.1531982 173.1297
v 274.0679 -0.1531982 174.1115
v 273.577 -0.1531982 174.1115
vt 0.06738281 0.9369141
vt 0.1331457 0.9369141
vt 0.06738281 0.9990234
vt 0.1331457 0.9990234
vt 0.06738281 0.9369141
vt 0.1331457 0.9369141
vt 0.06738281 0.9990234
vt 0.1331457 0.9990234
vt 0.06738281 0.9369141
vt 0.1331457 0.9369141
vt 0.06738281 0.9990234
vt 0.1331457 0.9990234
vt 0.06738281 0.9369141
vt 0.1331457 0.9369141
vt 0.06738281 0.9990234
vt 0.1331457 0.9990234
vt 0.06738281 0.9369141
vt 0.1331457 0.9369141
vt 0.06738281 0.9990234
vt 0.1331457 0.9990234
vt 0.06738281 0.9369141
vt 0.1331457 0.9369141
vt 0.06738281 0.9990234
vt 0.1331457 0.9990234
vt 0.06738281 0.9369141
vt 0.1331457 0.9369141
vt 0.06738281 0.9990234
vt 0.1331457 0.9990234
vt 0.06738281 0.9369141
vt 0.1331457 0.9369141
vt 0.06738281 0.9990234
vt 0.1331457 0.9990234
vt 0.06738281 0.9369141
vt 0.1331457 0.9369141
vt 0.06738281 0.9990234
vt 0.1331457 0.9990234
vt 0.06738281 0.9369141
vt 0.1331457 0.9369141
vt 0.06738281 0.9990234
vt 0.1331457 0.9990234
vt 0.06738281 0.9369141
vt 0.1331457 0.9369141
vt 0.06738281 0.9990234
vt 0.1331457 0.9990234
vt 0.06738281 0.9369141
vt 0.1331457 0.9369141
vt 0.06738281 0.9990234
vt 0.1331457 0.9990234
vt 0.06738281 0.9369141
vt 0.1331457 0.9369141
vt 0.06738281 0.9990234
vt 0.1331457 0.9990234
vt 0.06738281 0.9369141
vt 0.1331457 0.9369141
vt 0.06738281 0.9990234
vt 0.1331457 0.9990234
vt 0.06738281 0.9369141
vt 0.1331457 0.9369141
vt 0.06738281 0.9990234
vt 0.1331457 0.9990234
vt 0.06738281 0.9369141
vt 0.1331457 0.9369141
vt 0.06738281 0.9990234
vt 0.1331457 0.9990234
vt 0.06738281 0.9369141
vt 0.1331457 0.9369141
vt 0.06738281 0.9990234
vt 0.1331457 0.9990234
vt 0.06738281 0.9369141
vt 0.1331457 0.9369141
vt 0.06738281 0.9990234
vt 0.1331457 0.9990234
vt 0.06738281 0.9369141
vt 0.1331457 0.9369141
vt 0.06738281 0.9990234
vt 0.1331457 0.9990234
vn 0 1 0
vn 0 1 0
vn 0 1 0
vn 0 1 0
vn 0 1 0
vn 0 1 0
vn 0 1 0
vn 0 1 0
vn 0 1 0
vn 0 1 0
vn 0 1 0
vn 0 1 0
vn 0 1 0
vn 0 1 0
vn 0 1 0
vn 0 1 0
vn 0 1 0
vn 0 1 0
vn 0 1 0
vn 0 1 0
vn 0 1 0
vn 0 1 0
vn 0 1 0
vn 0 1 0
vn 0 1 0
vn 0 1 0
vn 0 1 0
vn 0 1 0
vn 0 1 0
vn 0 1 0
vn 0 1 0
vn 0 1 0
vn 0 1 0
vn 0 1 0
vn 0 1 0
vn 0 1 0
vn 0 1 0
vn 0 1 0
vn 0 1 0
vn 0 1 0
vn 0 1 0
vn 0 1 0
vn 0 1 0
vn 0 1 0
vn 0 1 0
vn 0 1 0
vn 0 1 0
vn 0 1 0
vn 0 1 0
vn 0 1 0
vn 0 1 0
vn 0 1 0
vn 0 1 0
vn 0 1 0
vn 0 1 0
vn 0 1 0
vn 0 1 0
vn 0 1 0
vn 0 1 0
vn 0 1 0
vn 0 1 0
vn 0 1 0
vn 0 1 0
vn 0 1 0
vn 0 1 0
vn 0 1 0
vn 0 1 0
vn 0 1 0
vn 0 1 0
vn 0 1 0
vn 0 1 0
vn 0 1 0
vn 0 1 0
vn 0 1 0
vn 0 1 0
vn 0 1 0
g Grass_1_Cluster140_0
f 2/2/2 3/3/3 1/1/1
f 2/2/2 4/4/4 3/3/3
f 6/6/6 7/7/7 5/5/5
f 6/6/6 8/8/8 7/7/7
f 10/10/10 11/11/11 9/9/9
f 10/10/10 12/12/12 11/11/11
f 14/14/14 15/15/15 13/13/13
f 14/14/14 16/16/16 15/15/15
f 18/18/18 19/19/19 17/17/17
f 18/18/18 20/20/20 19/19/19
f 22/22/22 23/23/23 21/21/21
f 22/22/22 24/24/24 23/23/23
f 26/26/26 27/27/27 25/25/25
f 26/26/26 28/28/28 27/27/27
f 30/30/30 31/31/31 29/29/29
f 30/30/30 32/32/32 31/31/31
f 34/34/34 35/35/35 33/33/33
f 34/34/34 36/36/36 35/35/35
f 38/38/38 39/39/39 37/37/37
f 38/38/38 40/40/40 39/39/39
f 42/42/42 43/43/43 41/41/41
f 42/42/42 44/44/44 43/43/43
f 46/46/46 47/47/47 45/45/45
f 46/46/46 48/48/48 47/47/47
f 50/50/50 51/51/51 49/49/49
f 50/50/50 52/52/52 51/51/51
f 54/54/54 55/55/55 53/53/53
f 54/54/54 56/56/56 55/55/55
f 58/58/58 59/59/59 57/57/57
f 58/58/58 60/60/60 59/59/59
f 62/62/62 63/63/63 61/61/61
f 62/62/62 64/64/64 63/63/63
f 66/66/66 67/67/67 65/65/65
f 66/66/66 68/68/68 67/67/67
f 70/70/70 71/71/71 69/69/69
f 70/70/70 72/72/72 71/71/71
f 74/74/74 75/75/75 73/73/73
f 74/74/74 76/76/76 75/75/75
