g Grass_2_Cluster89
v 25.94333 0.008785248 112.9851
v 24.95602 0.008785248 112.9851
v 25.94333 0.008785248 114.1134
v 24.95602 0.008785248 114.1134
v 27.35377 0.008785248 112.2799
v 26.22541 0.008785248 112.2799
v 27.35377 0.008785248 113.4082
v 26.22541 0.008785248 113.4082
v 4.222538 0.008785248 109.459
v 3.235229 0.008785248 109.459
v 4.222538 0.008785248 110.5873
v 3.235229 0.008785248 110.5873
v 6.620287 0.008785248 99.72695
v 5.774021 0.008785248 99.72695
v 6.620287 0.008785248 100.7143
v 5.774021 0.008785248 100.7143
v 4.081493 0.008785248 98.31651
v 2.95314 0.008785248 98.31651
v 4.081493 0.008785248 99.44486
v 2.95314 0.008785248 99.44486
v 27.49481 0.008785248 97.04711
v 26.64854 0.008785248 97.04711
v 27.49481 0.008785248 98.17545
v 26.64854 0.008785248 98.17545
v 6.05611 0.008785248 96.48293
v 5.068802 0.008785248 96.48293
v 6.05611 0.008785248 97.47024
v 5.068802 0.008785248 97.47024
v 8.171772 0.008785248 96.0598
v 7.325506 0.008785248 96.0598
v 8.171772 0.008785248 97.18815
v 7.325506 0.008785248 97.18815
v 25.80228 0.008785248 95.49562
v 24.81497 0.008785248 95.49562
v 25.80228 0.008785248 96.62398
v 24.81497 0.008785248 96.62398
v 24.95602 0.008785248 91.96952
v 23.96871 0.008785248 91.96952
v 24.95602 0.008785248 93.09788
v 23.96871 0.008785248 93.09788
v 26.78959 0.008785248 91.40534
v 25.80228 0.008785248 91.40534
v 26.78959 0.008785248 92.5337
v 25.80228 0.008785248 92.5337
v 3.658361 0.008785248 90.98222
v 2.671053 0.008785248 90.98222
v 3.658361 0.008785248 92.11057
v 2.671053 0.008785248 92.11057
v 5.350889 0.008785248 90.41804
v 4.363581 0.008785248 90.41804
v 5.350889 0.008785248 91.54639
v 4.363581 0.008785248 91.54639
v 25.66124 0.008785248 90.27699
v 24.67393 0.008785248 90.27699
v 25.66124 0.008785248 91.40534
v 24.67393 0.008785248 91.40534
v 26.22541 0.008785248 90.13595
v 25.2381 0.008785248 90.13595
v 26.22541 0.008785248 91.2643
v 25.2381 0.008785248 91.2643
v 4.363581 0.008785248 89.9949
v 3.376272 0.008785248 89.9949
v 4.363581 0.008785248 91.12326
v 3.376272 0.008785248 91.12326
v 26.08437 0.008785248 89.57177
v 25.09706 0.008785248 89.57177
v 26.08437 0.008785248 90.55908
v 25.09706 0.008785248 90.55908
v 4.64567 0.008785248 89.28968
v 3.658361 0.008785248 89.28968
v 4.64567 0.008785248 90.41804
v 3.658361 0.008785248 90.41804
v 6.197155 0.008785248 89.14864
v 5.209846 0.008785248 89.14864
v 6.197155 0.008785248 90.27699
v 5.209846 0.008785248 90.27699
v 3.235229 0.008785248 89.0076
v 2.388964 0.008785248 89.0076
v 3.235229 0.008785248 89.9949
v 2.388964 0.008785248 89.9949
v 26.36646 0.008785248 89.0076
v 25.37915 0.008785248 89.0076
v 26.36646 0.008785248 89.9949
v 25.37915 0.008785248 89.9949
v 0.6964359 0.008785248 88.86655
v -0.2908726 0.008785248 88.86655
v 0.6964359 0.008785248 89.9949
v -0.2908726 0.008785248 89.9949
v 8.312815 0.008785248 88.72551
v 7.325506 0.008785248 88.72551
v 8.312815 0.008785248 89.85386
v 7.325506 0.008785248 89.85386
v 6.338198 0.008785248 88.58447
v 5.350889 0.008785248 88.58447
v 6.338198 0.008785248 89.71281
v 5.350889 0.008785248 89.71281
v 24.10975 0.008785248 88.58447
v 23.12244 0.008785248 88.58447
v 24.10975 0.008785248 89.57177
v 23.12244 0.008785248 89.57177
v 28.05898 0.008785248 88.44342
v 27.21272 0.008785248 88.44342
v 28.05898 0.008785248 89.43073
v 27.21272 0.008785248 89.43073
v 3.235229 0.008785248 88.44342
v 2.247921 0.008785248 88.44342
v 3.235229 0.008785248 89.57177
v 2.247921 0.008785248 89.57177
v 4.927757 0.008785248 88.30238
v 4.081493 0.008785248 88.30238
v 4.927757 0.008785248 89.43073
v 4.081493 0.008785248 89.43073
v 27.49481 0.008785248 88.02029
v 26.5075 0.008785248 88.02029
v 27.49481 0.008785248 89.0076
v 26.5075 0.008785248 89.0076
v 24.53288 0.008785248 87.87924
v 23.68662 0.008785248 87.87924
v 24.53288 0.008785248 89.0076
v 23.68662 0.008785248 89.0076
v 2.388964 0.008785248 87.7382
v 1.401655 0.008785248 87.7382
v 2.388964 0.008785248 88.86655
v 1.401655 0.008785248 88.86655
v 3.940449 0.008785248 87.59715
v 2.95314 0.008785248 87.59715
v 3.940449 0.008785248 88.72551
v 2.95314 0.008785248 88.72551
v 6.479242 0.008785248 87.45611
v 5.491934 0.008785248 87.45611
v 6.479242 0.008785248 88.58447
v 5.491934 0.008785248 88.58447
v 4.081493 0.008785248 87.45611
v 3.094185 0.008785248 87.45611
v 4.081493 0.008785248 88.58447
v 3.094185 0.008785248 88.58447
v 26.5075 0.008785248 87.31506
v 25.66124 0.008785248 87.31506
v 26.5075 0.008785248 88.30238
v 25.66124 0.008785248 88.30238
v 25.37915 0.008785248 86.89194
v 24.53288 0.008785248 86.89194
v 25.37915 0.008785248 88.02029
v 24.53288 0.008785248 88.02029
v 5.774021 0.008785248 86.60985
v 4.786713 0.008785248 86.60985
v 5.774021 0.008785248 87.7382
v 4.786713 0.008785248 87.7382
v 2.671053 0.008785248 86.4688
v 1.824787 0.008785248 86.4688
v 2.671053 0.008785248 87.59715
v 1.824787 0.008785248 87.59715
v 27.63585 0.008785248 86.04567
v 26.64854 0.008785248 86.04567
v 27.63585 0.008785248 87.17403
v 26.64854 0.008785248 87.17403
v 29.75151 0.008785248 86.04567
v 28.76421 0.008785248 86.04567
v 29.75151 0.008785248 87.17403
v 28.76421 0.008785248 87.17403
v 26.78959 0.008785248 85.90462
v 25.80228 0.008785248 85.90462
v 26.78959 0.008785248 87.03298
v 25.80228 0.008785248 87.03298
v 1.824787 0.008785248 85.62254
v 0.9785233 0.008785248 85.62254
v 1.824787 0.008785248 86.75089
v 0.9785233 0.008785248 86.75089
v 30.17465 0.008785248 85.48149
v 29.32838 0.008785248 85.48149
v 30.17465 0.008785248 86.60985
v 29.32838 0.008785248 86.60985
v 28.76421 0.008785248 85.34045
v 27.7769 0.008785248 85.34045
v 28.76421 0.008785248 86.4688
v 27.7769 0.008785248 86.4688
v 27.21272 0.008785248 85.34045
v 26.22541 0.008785248 85.34045
v 27.21272 0.008785248 86.4688
v 26.22541 0.008785248 86.4688
v 28.48212 0.008785248 84.91732
v 27.49481 0.008785248 84.91732
v 28.48212 0.008785248 86.04567
v 27.49481 0.008785248 86.04567
v 30.0336 0.008785248 84.2121
v 29.04629 0.008785248 84.2121
v 30.0336 0.008785248 85.34045
v 29.04629 0.008785248 85.34045
v 28.20003 0.008785248 84.07105
v 27.35377 0.008785248 84.07105
v 28.20003 0.008785248 85.05836
v 27.35377 0.008785248 85.05836
v 26.93063 0.008785248 84.07105
v 26.08437 0.008785248 84.07105
v 26.93063 0.008785248 85.05836
v 26.08437 0.008785248 85.05836
v 29.04629 0.008785248 83.78896
v 28.05898 0.008785248 83.78896
v 29.04629 0.008785248 84.91732
v 28.05898 0.008785248 84.91732
vt 0.1347656 0.9185662
vt 0.2060202 0.9185662
vt 0.1347656 1
vt 0.2060202 1
vt 0.1347656 0.9185662
vt 0.2060202 0.9185662
vt 0.1347656 1
vt 0.2060202 1
vt 0.1347656 0.9185662
vt 0.2060202 0.9185662
vt 0.1347656 1
vt 0.2060202 1
vt 0.1347656 0.9185662
vt 0.2060202 0.9185662
vt 0.1347656 1
vt 0.2060202 1
vt 0.1347656 0.9185662
vt 0.2060202 0.9185662
vt 0.1347656 1
vt 0.2060202 1
vt 0.1347656 0.9185662
vt 0.2060202 0.9185662
vt 0.1347656 1
vt 0.2060202 1
vt 0.1347656 0.9185662
vt 0.2060202 0.9185662
vt 0.1347656 1
vt 0.2060202 1
vt 0.1347656 0.9185662
vt 0.2060202 0.9185662
vt 0.1347656 1
vt 0.2060202 1
vt 0.1347656 0.9185662
vt 0.2060202 0.9185662
vt 0.1347656 1
vt 0.2060202 1
vt 0.1347656 0.9185662
vt 0.2060202 0.9185662
vt 0.1347656 1
vt 0.2060202 1
vt 0.1347656 0.9185662
vt 0.2060202 0.9185662
vt 0.1347656 1
vt 0.2060202 1
vt 0.1347656 0.9185662
vt 0.2060202 0.9185662
vt 0.1347656 1
vt 0.2060202 1
vt 0.1347656 0.9185662
vt 0.2060202 0.9185662
vt 0.1347656 1
vt 0.2060202 1
vt 0.1347656 0.9185662
vt 0.2060202 0.9185662
vt 0.1347656 1
vt 0.2060202 1
vt 0.1347656 0.9185662
vt 0.2060202 0.9185662
vt 0.1347656 1
vt 0.2060202 1
vt 0.1347656 0.9185662
vt 0.2060202 0.9185662
vt 0.1347656 1
vt 0.2060202 1
vt 0.1347656 0.9185662
vt 0.2060202 0.9185662
vt 0.1347656 1
vt 0.2060202 1
vt 0.1347656 0.9185662
vt 0.2060202 0.9185662
vt 0.1347656 1
vt 0.2060202 1
vt 0.1347656 0.9185662
vt 0.2060202 0.9185662
vt 0.1347656 1
vt 0.2060202 1
vt 0.1347656 0.9185662
vt 0.2060202 0.9185662
vt 0.1347656 1
vt 0.2060202 1
vt 0.1347656 0.9185662
vt 0.2060202 0.9185662
vt 0.1347656 1
vt 0.2060202 1
vt 0.1347656 0.9185662
vt 0.2060202 0.9185662
vt 0.1347656 1
vt 0.2060202 1
vt 0.1347656 0.9185662
vt 0.2060202 0.9185662
vt 0.1347656 1
vt 0.2060202 1
vt 0.1347656 0.9185662
vt 0.2060202 0.9185662
vt 0.1347656 1
vt 0.2060202 1
vt 0.1347656 0.9185662
vt 0.2060202 0.9185662
vt 0.1347656 1
vt 0.2060202 1
vt 0.1347656 0.9185662
vt 0.2060202 0.9185662
vt 0.1347656 1
vt 0.2060202 1
vt 0.1347656 0.9185662
vt 0.2060202 0.9185662
vt 0.1347656 1
vt 0.2060202 1
vt 0.1347656 0.9185662
vt 0.2060202 0.9185662
vt 0.1347656 1
vt 0.2060202 1
vt 0.1347656 0.9185662
vt 0.2060202 0.9185662
vt 0.1347656 1
vt 0.2060202 1
vt 0.1347656 0.9185662
vt 0.2060202 0.9185662
vt 0.1347656 1
vt 0.2060202 1
vt 0.1347656 0.9185662
vt 0.2060202 0.9185662
vt 0.1347656 1
vt 0.2060202 1
vt 0.1347656 0.9185662
vt 0.2060202 0.9185662
vt 0.1347656 1
vt 0.2060202 1
vt 0.1347656 0.9185662
vt 0.2060202 0.9185662
vt 0.1347656 1
vt 0.2060202 1
vt 0.1347656 0.9185662
vt 0.2060202 0.9185662
vt 0.1347656 1
vt 0.2060202 1
vt 0.1347656 0.9185662
vt 0.2060202 0.9185662
vt 0.1347656 1
vt 0.2060202 1
vt 0.1347656 0.9185662
vt 0.2060202 0.9185662
vt 0.1347656 1
vt 0.2060202 1
vt 0.1347656 0.9185662
vt 0.2060202 0.9185662
vt 0.1347656 1
vt 0.2060202 1
vt 0.1347656 0.9185662
vt 0.2060202 0.9185662
vt 0.1347656 1
vt 0.2060202 1
vt 0.1347656 0.9185662
vt 0.2060202 0.9185662
vt 0.1347656 1
vt 0.2060202 1
vt 0.1347656 0.9185662
vt 0.2060202 0.9185662
vt 0.1347656 1
vt 0.2060202 1
vt 0.1347656 0.9185662
vt 0.2060202 0.9185662
vt 0.1347656 1
vt 0.2060202 1
vt 0.1347656 0.9185662
vt 0.2060202 0.9185662
vt 0.1347656 1
vt 0.2060202 1
vt 0.1347656 0.9185662
vt 0.2060202 0.9185662
vt 0.1347656 1
vt 0.2060202 1
vt 0.1347656 0.9185662
vt 0.2060202 0.9185662
vt 0.1347656 1
vt 0.2060202 1
vt 0.1347656 0.9185662
vt 0.2060202 0.9185662
vt 0.1347656 1
vt 0.2060202 1
vt 0.1347656 0.9185662
vt 0.2060202 0.9185662
vt 0.1347656 1
vt 0.2060202 1
vt 0.1347656 0.9185662
vt 0.2060202 0.9185662
vt 0.1347656 1
vt 0.2060202 1
vt 0.1347656 0.9185662
vt 0.2060202 0.9185662
vt 0.1347656 1
vt 0.2060202 1
vt 0.1347656 0.9185662
vt 0.2060202 0.9185662
vt 0.1347656 1
vt 0.2060202 1
vt 0.1347656 0.9185662
vt 0.2060202 0.9185662
vt 0.1347656 1
vt 0.2060202 1
vn 0 1 0
vn 0 1 0
vn 0 1 0
vn 0 1 0
vn 0 1 0
vn 0 1 0
vn 0 1 0
vn 0 1 0
vn 0 1 0
vn 0 1 0
vn 0 1 0
vn 0 1 0
vn 0 1 0
vn 0 1 0
vn 0 1 0
vn 0 1 0
vn 0 1 0
vn 0 1 0
vn 0 1 0
vn 0 1 0
vn 0 1 0
vn 0 1 0
vn 0 1 0
vn 0 1 0
vn 0 1 0
vn 0 1 0
vn 0 1 0
vn 0 1 0
vn 0 1 0
vn 0 1 0
vn 0 1 0
vn 0 1 0
vn 0 1 0
vn 0 1 0
vn 0 1 0
vn 0 1 0
vn 0 1 0
vn 0 1 0
vn 0 1 0
vn 0 1 0
vn 0 1 0
vn 0 1 0
vn 0 1 0
vn 0 1 0
vn 0 1 0
vn 0 1 0
vn 0 1 0
vn 0 1 0
vn 0 1 0
vn 0 1 0
vn 0 1 0
vn 0 1 0
vn 0 1 0
vn 0 1 0
vn 0 1 0
vn 0 1 0
vn 0 1 0
vn 0 1 0
vn 0 1 0
vn 0 1 0
vn 0 1 0
vn 0 1 0
vn 0 1 0
vn 0 1 0
vn 0 1 0
vn 0 1 0
vn 0 1 0
vn 0 1 0
vn 0 1 0
vn 0 1 0
vn 0 1 0
vn 0 1 0
vn 0 1 0
vn 0 1 0
vn 0 1 0
vn 0 1 0
vn 0 1 0
vn 0 1 0
vn 0 1 0
vn 0 1 0
vn 0 1 0
vn 0 1 0
vn 0 1 0
vn 0 1 0
vn 0 1 0
vn 0 1 0
vn 0 1 0
vn 0 1 0
vn 0 1 0
vn 0 1 0
vn 0 1 0
vn 0 1 0
vn 0 1 0
vn 0 1 0
vn 0 1 0
vn 0 1 0
vn 0 1 0
vn 0 1 0
vn 0 1 0
vn 0 1 0
vn 0 1 0
vn 0 1 0
vn 0 1 0
vn 0 1 0
vn 0 1 0
vn 0 1 0
vn 0 1 0
vn 0 1 0
vn 0 1 0
vn 0 1 0
vn 0 1 0
vn 0 1 0
vn 0 1 0
vn 0 1 0
vn 0 1 0
vn 0 1 0
vn 0 1 0
vn 0 1 0
vn 0 1 0
vn 0 1 0
vn 0 1 0
vn 0 1 0
vn 0 1 0
vn 0 1 0
vn 0 1 0
vn 0 1 0
vn 0 1 0
vn 0 1 0
vn 0 1 0
vn 0 1 0
vn 0 1 0
vn 0 1 0
vn 0 1 0
vn 0 1 0
vn 0 1 0
vn 0 1 0
vn 0 1 0
vn 0 1 0
vn 0 1 0
vn 0 1 0
vn 0 1 0
vn 0 1 0
vn 0 1 0
vn 0 1 0
vn 0 1 0
vn 0 1 0
vn 0 1 0
vn 0 1 0
vn 0 1 0
vn 0 1 0
vn 0 1 0
vn 0 1 0
vn 0 1 0
vn 0 1 0
vn 0 1 0
vn 0 1 0
vn 0 1 0
vn 0 1 0
vn 0 1 0
vn 0 1 0
vn 0 1 0
vn 0 1 0
vn 0 1 0
vn 0 1 0
vn 0 1 0
vn 0 1 0
vn 0 1 0
vn 0 1 0
vn 0 1 0
vn 0 1 0
vn 0 1 0
vn 0 1 0
vn 0 1 0
vn 0 1 0
vn 0 1 0
vn 0 1 0
vn 0 1 0
vn 0 1 0
vn 0 1 0
vn 0 1 0
vn 0 1 0
vn 0 1 0
vn 0 1 0
vn 0 1 0
vn 0 1 0
vn 0 1 0
vn 0 1 0
vn 0 1 0
vn 0 1 0
vn 0 1 0
vn 0 1 0
vn 0 1 0
vn 0 1 0
vn 0 1 0
vn 0 1 0
vn 0 1 0
vn 0 1 0
vn 0 1 0
vn 0 1 0
vn 0 1 0
g Grass_2_Cluster89_0
f 2/2/2 3/3/3 1/1/1
f 2/2/2 4/4/4 3/3/3
f 6/6/6 7/7/7 5/5/5
f 6/6/6 8/8/8 7/7/7
f 10/10/10 11/11/11 9/9/9
f 10/10/10 12/12/12 11/11/11
f 14/14/14 15/15/15 13/13/13
f 14/14/14 16/16/16 15/15/15
f 18/18/18 19/19/19 17/17/17
f 18/18/18 20/20/20 19/19/19
f 22/22/22 23/23/23 21/21/21
f 22/22/22 24/24/24 23/23/23
f 26/26/26 27/27/27 25/25/25
f 26/26/26 28/28/28 27/27/27
f 30/30/30 31/31/31 29/29/29
f 30/30/30 32/32/32 31/31/31
f 34/34/34 35/35/35 33/33/33
f 34/34/34 36/36/36 35/35/35
f 38/38/38 39/39/39 37/37/37
f 38/38/38 40/40/40 39/39/39
f 42/42/42 43/43/43 41/41/41
f 42/42/42 44/44/44 43/43/43
f 46/46/46 47/47/47 45/45/45
f 46/46/46 48/48/48 47/47/47
f 50/50/50 51/51/51 49/49/49
f 50/50/50 52/52/52 51/51/51
f 54/54/54 55/55/55 53/53/53
f 54/54/54 56/56/56 55/55/55
f 58/58/58 59/59/59 57/57/57
f 58/58/58 60/60/60 59/59/59
f 62/62/62 63/63/63 61/61/61
f 62/62/62 64/64/64 63/63/63
f 66/66/66 67/67/67 65/65/65
f 66/66/66 68/68/68 67/67/67
f 70/70/70 71/71/71 69/69/69
f 70/70/70 72/72/72 71/71/71
f 74/74/74 75/75/75 73/73/73
f 74/74/74 76/76/76 75/75/75
f 78/78/78 79/79/79 77/77/77
f 78/78/78 80/80/80 79/79/79
f 82/82/82 83/83/83 81/81/81
f 82/82/82 84/84/84 83/83/83
f 86/86/86 87/87/87 85/85/85
f 86/86/86 88/88/88 87/87/87
f 90/90/90 91/91/91 89/89/89
f 90/90/90 92/92/92 91/91/91
f 94/94/94 95/95/95 93/93/93
f 94/94/94 96/96/96 95/95/95
f 98/98/98 99/99/99 97/97/97
f 98/98/98 100/100/100 99/99/99
f 102/102/102 103/103/103 101/101/101
f 102/102/102 104/104/104 103/103/103
f 106/106/106 107/107/107 105/105/105
f 106/106/106 108/108/108 107/107/107
f 110/110/110 111/111/111 109/109/109
f 110/110/110 112/112/112 111/111/111
f 114/114/114 115/115/115 113/113/113
f 114/114/114 116/116/116 115/115/115
f 118/118/118 119/119/119 117/117/117
f 118/118/118 120/120/120 119/119/119
f 122/122/122 123/123/123 121/121/121
f 122/122/122 124/124/124 123/123/123
f 126/126/126 127/127/127 125/125/125
f 126/126/126 128/128/128 127/127/127
f 130/130/130 131/131/131 129/129/129
f 130/130/130 132/132/132 131/131/131
f 134/134/134 135/135/135 133/133/133
f 134/134/134 136/136/136 135/135/135
f 138/138/138 139/139/139 137/137/137
f 138/138/138 140/140/140 139/139/139
f 142/142/142 143/143/143 141/141/141
f 142/142/142 144/144/144 143/143/143
f 146/146/146 147/147/147 145/145/145
f 146/146/146 148/148/148 147/147/147
f 150/150/150 151/151/151 149/149/149
f 150/150/150 152/152/152 151/151/151
f 154/154/154 155/155/155 153/153/153
f 154/154/154 156/156/156 155/155/155
f 158/158/158 159/159/159 157/157/157
f 158/158/158 160/160/160 159/159/159
f 162/162/162 163/163/163 161/161/161
f 162/162/162 164/164/164 163/163/163
f 166/166/166 167/167/167 165/165/165
f 166/166/166 168/168/168 167/167/167
f 170/170/170 171/171/171 169/169/169
f 170/170/170 172/172/172 171/171/171
f 174/174/174 175/175/175 173/173/173
f 174/174/174 176/176/176 175/175/175
f 178/178/178 179/179/179 177/177/177
f 178/178/178 180/180/180 179/179/179
f 182/182/182 183/183/183 181/181/181
f 182/182/182 184/184/184 183/183/183
f 186/186/186 187/187/187 185/185/185
f 186/186/186 188/188/188 187/187/187
f 190/190/190 191/191/191 189/189/189
f 190/190/190 192/192/192 191/191/191
f 194/194/194 195/195/195 193/193/193
f 194/194/194 196/196/196 195/195/195
f 198/198/198 199/199/199 197/197/197
f 198/198/198 200/200/200 199/199/199
