g Grass_1_Cluster125
v 146.6403 0.07489014 172.402
v 145.6917 0.07489014 172.402
v 146.6403 0.07489014 173.3506
v 145.6917 0.07489014 173.3506
v 148.5375 0.07489014 172.0858
v 147.5889 0.07489014 172.0858
v 148.5375 0.07489014 172.7182
v 147.5889 0.07489014 172.7182
v 145.0593 0.07489014 171.4534
v 144.1107 0.07489014 171.4534
v 145.0593 0.07489014 172.402
v 144.1107 0.07489014 172.402
v 150.1185 0.07489014 171.1372
v 149.1699 0.07489014 171.1372
v 150.1185 0.07489014 171.7696
v 149.1699 0.07489014 171.7696
v 146.6403 0.07489014 170.821
v 145.6917 0.07489014 170.821
v 146.6403 0.07489014 171.4534
v 145.6917 0.07489014 171.4534
v 143.4783 0.07489014 170.5048
v 142.5298 0.07489014 170.5048
v 143.4783 0.07489014 171.1372
v 142.5298 0.07489014 171.1372
v 143.1621 0.07489014 170.1886
v 142.2136 0.07489014 170.1886
v 143.1621 0.07489014 170.821
v 142.2136 0.07489014 170.821
v 139.0516 0.07489014 168.9238
v 138.103 0.07489014 168.9238
v 139.0516 0.07489014 169.5562
v 138.103 0.07489014 169.5562
v 144.4269 0.07489014 168.2914
v 143.4783 0.07489014 168.2914
v 144.4269 0.07489014 169.24
v 143.4783 0.07489014 169.24
v 133.9924 0.07489014 161.0189
v 133.0439 0.07489014 161.0189
v 133.9924 0.07489014 161.9675
v 133.0439 0.07489014 161.9675
v 138.103 0.07489014 160.3865
v 137.1544 0.07489014 160.3865
v 138.103 0.07489014 161.3351
v 137.1544 0.07489014 161.3351
v 139.3678 0.07489014 159.4379
v 138.4192 0.07489014 159.4379
v 139.3678 0.07489014 160.3865
v 138.4192 0.07489014 160.3865
v 135.2572 0.07489014 158.8055
v 134.3086 0.07489014 158.8055
v 135.2572 0.07489014 159.7541
v 134.3086 0.07489014 159.7541
v 135.2572 0.07489014 158.8055
v 134.3086 0.07489014 158.8055
v 135.2572 0.07489014 159.4379
v 134.3086 0.07489014 159.4379
v 138.4192 0.07489014 158.4893
v 137.4706 0.07489014 158.4893
v 138.4192 0.07489014 159.1217
v 137.4706 0.07489014 159.1217
v 135.5734 0.07489014 158.1732
v 134.6248 0.07489014 158.1732
v 135.5734 0.07489014 158.8055
v 134.6248 0.07489014 158.8055
v 137.4706 0.07489014 157.5408
v 136.522 0.07489014 157.5408
v 137.4706 0.07489014 158.1732
v 136.522 0.07489014 158.1732
vt 0.06738281 0.9369141
vt 0.1331457 0.9369141
vt 0.06738281 0.9990234
vt 0.1331457 0.9990234
vt 0.06738281 0.9369141
vt 0.1331457 0.9369141
vt 0.06738281 0.9990234
vt 0.1331457 0.9990234
vt 0.06738281 0.9369141
vt 0.1331457 0.9369141
vt 0.06738281 0.9990234
vt 0.1331457 0.9990234
vt 0.06738281 0.9369141
vt 0.1331457 0.9369141
vt 0.06738281 0.9990234
vt 0.1331457 0.9990234
vt 0.06738281 0.9369141
vt 0.1331457 0.9369141
vt 0.06738281 0.9990234
vt 0.1331457 0.9990234
vt 0.06738281 0.9369141
vt 0.1331457 0.9369141
vt 0.06738281 0.9990234
vt 0.1331457 0.9990234
vt 0.06738281 0.9369141
vt 0.1331457 0.9369141
vt 0.06738281 0.9990234
vt 0.1331457 0.9990234
vt 0.06738281 0.9369141
vt 0.1331457 0.9369141
vt 0.06738281 0.9990234
vt 0.1331457 0.9990234
vt 0.06738281 0.9369141
vt 0.1331457 0.9369141
vt 0.06738281 0.9990234
vt 0.1331457 0.9990234
vt 0.06738281 0.9369141
vt 0.1331457 0.9369141
vt 0.06738281 0.9990234
vt 0.1331457 0.9990234
vt 0.06738281 0.9369141
vt 0.1331457 0.9369141
vt 0.06738281 0.9990234
vt 0.1331457 0.9990234
vt 0.06738281 0.9369141
vt 0.1331457 0.9369141
vt 0.06738281 0.9990234
vt 0.1331457 0.9990234
vt 0.06738281 0.9369141
vt 0.1331457 0.9369141
vt 0.06738281 0.9990234
vt 0.1331457 0.9990234
vt 0.06738281 0.9369141
vt 0.1331457 0.9369141
vt 0.06738281 0.9990234
vt 0.1331457 0.9990234
vt 0.06738281 0.9369141
vt 0.1331457 0.9369141
vt 0.06738281 0.9990234
vt 0.1331457 0.9990234
vt 0.06738281 0.9369141
vt 0.1331457 0.9369141
vt 0.06738281 0.9990234
vt 0.1331457 0.9990234
vt 0.06738281 0.9369141
vt 0.1331457 0.9369141
vt 0.06738281 0.9990234
vt 0.1331457 0.9990234
vn 0 1 0
vn 0 1 0
vn 0 1 0
vn 0 1 0
vn 0 1 0
vn 0 1 0
vn 0 1 0
vn 0 1 0
vn 0 1 0
vn 0 1 0
vn 0 1 0
vn 0 1 0
vn 0 1 0
vn 0 1 0
vn 0 1 0
vn 0 1 0
vn 0 1 0
vn 0 1 0
vn 0 1 0
vn 0 1 0
vn 0 1 0
vn 0 1 0
vn 0 1 0
vn 0 1 0
vn 0 1 0
vn 0 1 0
vn 0 1 0
vn 0 1 0
vn 0 1 0
vn 0 1 0
vn 0 1 0
vn 0 1 0
vn 0 1 0
vn 0 1 0
vn 0 1 0
vn 0 1 0
vn 0 1 0
vn 0 1 0
vn 0 1 0
vn 0 1 0
vn 0 1 0
vn 0 1 0
vn 0 1 0
vn 0 1 0
vn 0 1 0
vn 0 1 0
vn 0 1 0
vn 0 1 0
vn 0 1 0
vn 0 1 0
vn 0 1 0
vn 0 1 0
vn 0 1 0
vn 0 1 0
vn 0 1 0
vn 0 1 0
vn 0 1 0
vn 0 1 0
vn 0 1 0
vn 0 1 0
vn 0 1 0
vn 0 1 0
vn 0 1 0
vn 0 1 0
vn 0 1 0
vn 0 1 0
vn 0 1 0
vn 0 1 0
g Grass_1_Cluster125_0
f 2/2/2 3/3/3 1/1/1
f 2/2/2 4/4/4 3/3/3
f 6/6/6 7/7/7 5/5/5
f 6/6/6 8/8/8 7/7/7
f 10/10/10 11/11/11 9/9/9
f 10/10/10 12/12/12 11/11/11
f 14/14/14 15/15/15 13/13/13
f 14/14/14 16/16/16 15/15/15
f 18/18/18 19/19/19 17/17/17
f 18/18/18 20/20/20 19/19/19
f 22/22/22 23/23/23 21/21/21
f 22/22/22 24/24/24 23/23/23
f 26/26/26 27/27/27 25/25/25
f 26/26/26 28/28/28 27/27/27
f 30/30/30 31/31/31 29/29/29
f 30/30/30 32/32/32 31/31/31
f 34/34/34 35/35/35 33/33/33
f 34/34/34 36/36/36 35/35/35
f 38/38/38 39/39/39 37/37/37
f 38/38/38 40/40/40 39/39/39
f 42/42/42 43/43/43 41/41/41
f 42/42/42 44/44/44 43/43/43
f 46/46/46 47/47/47 45/45/45
f 46/46/46 48/48/48 47/47/47
f 50/50/50 51/51/51 49/49/49
f 50/50/50 52/52/52 51/51/51
f 54/54/54 55/55/55 53/53/53
f 54/54/54 56/56/56 55/55/55
f 58/58/58 59/59/59 57/57/57
f 58/58/58 60/60/60 59/59/59
f 62/62/62 63/63/63 61/61/61
f 62/62/62 64/64/64 63/63/63
f 66/66/66 67/67/67 65/65/65
f 66/66/66 68/68/68 67/67/67
