g Grass_0_Cluster51
v -40.47913 0 52.58827
v -41.40173 0 52.58827
v -40.47913 0 53.85685
v -41.40173 0 53.85685
v -37.30769 0 52.18464
v -38.17263 0 52.18464
v -37.30769 0 53.33789
v -38.17263 0 53.33789
v -40.65212 0 51.78099
v -41.63238 0 51.78099
v -40.65212 0 53.10723
v -41.63238 0 53.10723
v -39.67186 0 51.43502
v -40.53679 0 51.43502
v -39.67186 0 52.64594
v -40.53679 0 52.64594
v -38.46094 0 51.37736
v -39.32588 0 51.37736
v -38.46094 0 52.64594
v -39.32588 0 52.64594
v -39.55653 0 50.91606
v -40.42147 0 50.91606
v -39.55653 0 52.12697
v -40.42147 0 52.12697
v -36.38509 0 50.39709
v -37.25003 0 50.39709
v -36.38509 0 51.60801
v -37.25003 0 51.60801
v -37.88432 0 50.39709
v -38.74925 0 50.39709
v -37.88432 0 51.60801
v -38.74925 0 51.60801
v -37.48067 0 48.32124
v -38.34562 0 48.32124
v -37.48067 0 49.53215
v -38.34562 0 49.53215
v -36.50041 0 47.74461
v -37.36535 0 47.74461
v -36.50041 0 48.95553
v -37.36535 0 48.95553
v -38.46094 0 47.28331
v -39.32588 0 47.28331
v -38.46094 0 48.49423
v -39.32588 0 48.49423
v -40.76744 0 47.11032
v -41.74771 0 47.11032
v -40.76744 0 48.43657
v -41.74771 0 48.43657
v -37.30769 0 46.70669
v -38.17263 0 46.70669
v -37.30769 0 47.9176
v -38.17263 0 47.9176
v -39.78718 0 46.5337
v -40.65212 0 46.5337
v -39.78718 0 47.74461
v -40.65212 0 47.74461
v -38.23029 0 46.01474
v -39.15289 0 46.01474
v -38.23029 0 47.28331
v -39.15289 0 47.28331
v -47.4563 0 44.28486
v -48.32124 0 44.28486
v -47.4563 0 45.43811
v -48.32124 0 45.43811
v -33.96326 0 44.11187
v -34.88586 0 44.11187
v -33.96326 0 45.38045
v -34.88586 0 45.38045
v -48.49423 0 43.99655
v -49.30151 0 43.99655
v -48.49423 0 45.1498
v -49.30151 0 45.1498
v -52.29996 0 43.47758
v -53.10723 0 43.47758
v -52.29996 0 44.63084
v -53.10723 0 44.63084
v -43.53525 0 42.90096
v -44.40018 0 42.90096
v -43.53525 0 44.16954
v -44.40018 0 44.16954
v -48.14825 0 41.9207
v -49.07085 0 41.9207
v -48.14825 0 43.13161
v -49.07085 0 43.13161
v -46.64902 0 41.51706
v -47.57163 0 41.51706
v -46.64902 0 42.72797
v -47.57163 0 42.72797
v -48.89787 0 41.40173
v -49.82047 0 41.40173
v -48.89787 0 42.67031
v -49.82047 0 42.67031
v -47.22565 0 40.99809
v -48.03293 0 40.99809
v -47.22565 0 42.20901
v -48.03293 0 42.20901
v -47.9176 0 40.53679
v -48.78254 0 40.53679
v -47.9176 0 41.74771
v -48.78254 0 41.74771
v -49.24384 0 40.19082
v -50.05112 0 40.19082
v -49.24384 0 41.40173
v -50.05112 0 41.40173
v -36.84639 0 38.34562
v -37.76899 0 38.34562
v -36.84639 0 39.67186
v -37.76899 0 39.67186
v -58.06622 0 37.48067
v -58.98882 0 37.48067
v -58.06622 0 38.74925
v -58.98882 0 38.74925
v -35.05885 0 37.30769
v -36.03911 0 37.30769
v -35.05885 0 38.63393
v -36.03911 0 38.63393
v -46.5337 0 35.63548
v -47.4563 0 35.63548
v -46.5337 0 36.90405
v -47.4563 0 36.90405
v -46.87968 0 34.3669
v -47.68695 0 34.3669
v -46.87968 0 35.52015
v -47.68695 0 35.52015
v -45.03447 0 32.81001
v -45.84175 0 32.81001
v -45.03447 0 34.02092
v -45.84175 0 34.02092
v -48.55189 0 31.88741
v -49.41683 0 31.88741
v -48.55189 0 33.09832
v -49.41683 0 33.09832
v -46.01474 0 31.13779
v -46.87968 0 31.13779
v -46.01474 0 32.29104
v -46.87968 0 32.29104
v -54.66412 0 26.29414
v -55.52906 0 26.29414
v -54.66412 0 27.50505
v -55.52906 0 27.50505
v -34.88586 0 24.73725
v -35.86612 0 24.73725
v -34.88586 0 26.06349
v -35.86612 0 26.06349
v -56.62465 0 24.16062
v -57.60492 0 24.16062
v -56.62465 0 25.48686
v -57.60492 0 25.48686
vt 0 0.9058824
vt 0.06666667 0.9058824
vt 0 1
vt 0.06666667 1
vt 0 0.9058824
vt 0.06666667 0.9058824
vt 0 1
vt 0.06666667 1
vt 0 0.9058824
vt 0.06666667 0.9058824
vt 0 1
vt 0.06666667 1
vt 0 0.9058824
vt 0.06666667 0.9058824
vt 0 1
vt 0.06666667 1
vt 0 0.9058824
vt 0.06666667 0.9058824
vt 0 1
vt 0.06666667 1
vt 0 0.9058824
vt 0.06666667 0.9058824
vt 0 1
vt 0.06666667 1
vt 0 0.9058824
vt 0.06666667 0.9058824
vt 0 1
vt 0.06666667 1
vt 0 0.9058824
vt 0.06666667 0.9058824
vt 0 1
vt 0.06666667 1
vt 0 0.9058824
vt 0.06666667 0.9058824
vt 0 1
vt 0.06666667 1
vt 0 0.9058824
vt 0.06666667 0.9058824
vt 0 1
vt 0.06666667 1
vt 0 0.9058824
vt 0.06666667 0.9058824
vt 0 1
vt 0.06666667 1
vt 0 0.9058824
vt 0.06666667 0.9058824
vt 0 1
vt 0.06666667 1
vt 0 0.9058824
vt 0.06666667 0.9058824
vt 0 1
vt 0.06666667 1
vt 0 0.9058824
vt 0.06666667 0.9058824
vt 0 1
vt 0.06666667 1
vt 0 0.9058824
vt 0.06666667 0.9058824
vt 0 1
vt 0.06666667 1
vt 0 0.9058824
vt 0.06666667 0.9058824
vt 0 1
vt 0.06666667 1
vt 0 0.9058824
vt 0.06666667 0.9058824
vt 0 1
vt 0.06666667 1
vt 0 0.9058824
vt 0.06666667 0.9058824
vt 0 1
vt 0.06666667 1
vt 0 0.9058824
vt 0.06666667 0.9058824
vt 0 1
vt 0.06666667 1
vt 0 0.9058824
vt 0.06666667 0.9058824
vt 0 1
vt 0.06666667 1
vt 0 0.9058824
vt 0.06666667 0.9058824
vt 0 1
vt 0.06666667 1
vt 0 0.9058824
vt 0.06666667 0.9058824
vt 0 1
vt 0.06666667 1
vt 0 0.9058824
vt 0.06666667 0.9058824
vt 0 1
vt 0.06666667 1
vt 0 0.9058824
vt 0.06666667 0.9058824
vt 0 1
vt 0.06666667 1
vt 0 0.9058824
vt 0.06666667 0.9058824
vt 0 1
vt 0.06666667 1
vt 0 0.9058824
vt 0.06666667 0.9058824
vt 0 1
vt 0.06666667 1
vt 0 0.9058824
vt 0.06666667 0.9058824
vt 0 1
vt 0.06666667 1
vt 0 0.9058824
vt 0.06666667 0.9058824
vt 0 1
vt 0.06666667 1
vt 0 0.9058824
vt 0.06666667 0.9058824
vt 0 1
vt 0.06666667 1
vt 0 0.9058824
vt 0.06666667 0.9058824
vt 0 1
vt 0.06666667 1
vt 0 0.9058824
vt 0.06666667 0.9058824
vt 0 1
vt 0.06666667 1
vt 0 0.9058824
vt 0.06666667 0.9058824
vt 0 1
vt 0.06666667 1
vt 0 0.9058824
vt 0.06666667 0.9058824
vt 0 1
vt 0.06666667 1
vt 0 0.9058824
vt 0.06666667 0.9058824
vt 0 1
vt 0.06666667 1
vt 0 0.9058824
vt 0.06666667 0.9058824
vt 0 1
vt 0.06666667 1
vt 0 0.9058824
vt 0.06666667 0.9058824
vt 0 1
vt 0.06666667 1
vt 0 0.9058824
vt 0.06666667 0.9058824
vt 0 1
vt 0.06666667 1
vn 0 1 0
vn 0 1 0
vn 0 1 0
vn 0 1 0
vn 0 1 0
vn 0 1 0
vn 0 1 0
vn 0 1 0
vn 0 1 0
vn 0 1 0
vn 0 1 0
vn 0 1 0
vn 0 1 0
vn 0 1 0
vn 0 1 0
vn 0 1 0
vn 0 1 0
vn 0 1 0
vn 0 1 0
vn 0 1 0
vn 0 1 0
vn 0 1 0
vn 0 1 0
vn 0 1 0
vn 0 1 0
vn 0 1 0
vn 0 1 0
vn 0 1 0
vn 0 1 0
vn 0 1 0
vn 0 1 0
vn 0 1 0
vn 0 1 0
vn 0 1 0
vn 0 1 0
vn 0 1 0
vn 0 1 0
vn 0 1 0
vn 0 1 0
vn 0 1 0
vn 0 1 0
vn 0 1 0
vn 0 1 0
vn 0 1 0
vn 0 1 0
vn 0 1 0
vn 0 1 0
vn 0 1 0
vn 0 1 0
vn 0 1 0
vn 0 1 0
vn 0 1 0
vn 0 1 0
vn 0 1 0
vn 0 1 0
vn 0 1 0
vn 0 1 0
vn 0 1 0
vn 0 1 0
vn 0 1 0
vn 0 1 0
vn 0 1 0
vn 0 1 0
vn 0 1 0
vn 0 1 0
vn 0 1 0
vn 0 1 0
vn 0 1 0
vn 0 1 0
vn 0 1 0
vn 0 1 0
vn 0 1 0
vn 0 1 0
vn 0 1 0
vn 0 1 0
vn 0 1 0
vn 0 1 0
vn 0 1 0
vn 0 1 0
vn 0 1 0
vn 0 1 0
vn 0 1 0
vn 0 1 0
vn 0 1 0
vn 0 1 0
vn 0 1 0
vn 0 1 0
vn 0 1 0
vn 0 1 0
vn 0 1 0
vn 0 1 0
vn 0 1 0
vn 0 1 0
vn 0 1 0
vn 0 1 0
vn 0 1 0
vn 0 1 0
vn 0 1 0
vn 0 1 0
vn 0 1 0
vn 0 1 0
vn 0 1 0
vn 0 1 0
vn 0 1 0
vn 0 1 0
vn 0 1 0
vn 0 1 0
vn 0 1 0
vn 0 1 0
vn 0 1 0
vn 0 1 0
vn 0 1 0
vn 0 1 0
vn 0 1 0
vn 0 1 0
vn 0 1 0
vn 0 1 0
vn 0 1 0
vn 0 1 0
vn 0 1 0
vn 0 1 0
vn 0 1 0
vn 0 1 0
vn 0 1 0
vn 0 1 0
vn 0 1 0
vn 0 1 0
vn 0 1 0
vn 0 1 0
vn 0 1 0
vn 0 1 0
vn 0 1 0
vn 0 1 0
vn 0 1 0
vn 0 1 0
vn 0 1 0
vn 0 1 0
vn 0 1 0
vn 0 1 0
vn 0 1 0
vn 0 1 0
vn 0 1 0
vn 0 1 0
vn 0 1 0
vn 0 1 0
vn 0 1 0
vn 0 1 0
vn 0 1 0
g Grass_0_Cluster51_0
f 2/2/2 3/3/3 1/1/1
f 2/2/2 4/4/4 3/3/3
f 6/6/6 7/7/7 5/5/5
f 6/6/6 8/8/8 7/7/7
f 10/10/10 11/11/11 9/9/9
f 10/10/10 12/12/12 11/11/11
f 14/14/14 15/15/15 13/13/13
f 14/14/14 16/16/16 15/15/15
f 18/18/18 19/19/19 17/17/17
f 18/18/18 20/20/20 19/19/19
f 22/22/22 23/23/23 21/21/21
f 22/22/22 24/24/24 23/23/23
f 26/26/26 27/27/27 25/25/25
f 26/26/26 28/28/28 27/27/27
f 30/30/30 31/31/31 29/29/29
f 30/30/30 32/32/32 31/31/31
f 34/34/34 35/35/35 33/33/33
f 34/34/34 36/36/36 35/35/35
f 38/38/38 39/39/39 37/37/37
f 38/38/38 40/40/40 39/39/39
f 42/42/42 43/43/43 41/41/41
f 42/42/42 44/44/44 43/43/43
f 46/46/46 47/47/47 45/45/45
f 46/46/46 48/48/48 47/47/47
f 50/50/50 51/51/51 49/49/49
f 50/50/50 52/52/52 51/51/51
f 54/54/54 55/55/55 53/53/53
f 54/54/54 56/56/56 55/55/55
f 58/58/58 59/59/59 57/57/57
f 58/58/58 60/60/60 59/59/59
f 62/62/62 63/63/63 61/61/61
f 62/62/62 64/64/64 63/63/63
f 66/66/66 67/67/67 65/65/65
f 66/66/66 68/68/68 67/67/67
f 70/70/70 71/71/71 69/69/69
f 70/70/70 72/72/72 71/71/71
f 74/74/74 75/75/75 73/73/73
f 74/74/74 76/76/76 75/75/75
f 78/78/78 79/79/79 77/77/77
f 78/78/78 80/80/80 79/79/79
f 82/82/82 83/83/83 81/81/81
f 82/82/82 84/84/84 83/83/83
f 86/86/86 87/87/87 85/85/85
f 86/86/86 88/88/88 87/87/87
f 90/90/90 91/91/91 89/89/89
f 90/90/90 92/92/92 91/91/91
f 94/94/94 95/95/95 93/93/93
f 94/94/94 96/96/96 95/95/95
f 98/98/98 99/99/99 97/97/97
f 98/98/98 100/100/100 99/99/99
f 102/102/102 103/103/103 101/101/101
f 102/102/102 104/104/104 103/103/103
f 106/106/106 107/107/107 105/105/105
f 106/106/106 108/108/108 107/107/107
f 110/110/110 111/111/111 109/109/109
f 110/110/110 112/112/112 111/111/111
f 114/114/114 115/115/115 113/113/113
f 114/114/114 116/116/116 115/115/115
f 118/118/118 119/119/119 117/117/117
f 118/118/118 120/120/120 119/119/119
f 122/122/122 123/123/123 121/121/121
f 122/122/122 124/124/124 123/123/123
f 126/126/126 127/127/127 125/125/125
f 126/126/126 128/128/128 127/127/127
f 130/130/130 131/131/131 129/129/129
f 130/130/130 132/132/132 131/131/131
f 134/134/134 135/135/135 133/133/133
f 134/134/134 136/136/136 135/135/135
f 138/138/138 139/139/139 137/137/137
f 138/138/138 140/140/140 139/139/139
f 142/142/142 143/143/143 141/141/141
f 142/142/142 144/144/144 143/143/143
f 146/146/146 147/147/147 145/145/145
f 146/146/146 148/148/148 147/147/147
