g Grass_0_Cluster165
v 124.139 0.02537537 232.2241
v 123.3888 0.02537537 232.2241
v 124.139 0.02537537 233.3495
v 123.3888 0.02537537 233.3495
v 136.8931 0.02537537 227.3476
v 136.1429 0.02537537 227.3476
v 136.8931 0.02537537 228.848
v 136.1429 0.02537537 228.848
v 121.5132 0.02537537 226.5973
v 120.3879 0.02537537 226.5973
v 121.5132 0.02537537 228.0978
v 120.3879 0.02537537 228.0978
v 137.6433 0.02537537 226.5973
v 136.518 0.02537537 226.5973
v 137.6433 0.02537537 227.7227
v 136.518 0.02537537 227.7227
v 124.139 0.02537537 226.2222
v 123.0137 0.02537537 226.2222
v 124.139 0.02537537 227.3476
v 123.0137 0.02537537 227.3476
v 121.8883 0.02537537 226.2222
v 120.763 0.02537537 226.2222
v 121.8883 0.02537537 227.3476
v 120.763 0.02537537 227.3476
v 122.6386 0.02537537 225.8471
v 121.5132 0.02537537 225.8471
v 122.6386 0.02537537 227.3476
v 121.5132 0.02537537 227.3476
v 120.763 0.02537537 225.8471
v 120.0127 0.02537537 225.8471
v 120.763 0.02537537 227.3476
v 120.0127 0.02537537 227.3476
v 142.5199 0.02537537 225.472
v 141.3945 0.02537537 225.472
v 142.5199 0.02537537 226.5973
v 141.3945 0.02537537 226.5973
v 124.8893 0.02537537 225.472
v 124.139 0.02537537 225.472
v 124.8893 0.02537537 226.5973
v 124.139 0.02537537 226.5973
v 122.2635 0.02537537 224.7217
v 121.5132 0.02537537 224.7217
v 122.2635 0.02537537 226.2222
v 121.5132 0.02537537 226.2222
v 122.2635 0.02537537 224.7217
v 121.1381 0.02537537 224.7217
v 122.2635 0.02537537 225.8471
v 121.1381 0.02537537 225.8471
v 120.763 0.02537537 224.3466
v 120.0127 0.02537537 224.3466
v 120.763 0.02537537 225.472
v 120.0127 0.02537537 225.472
v 138.3936 0.02537537 224.3466
v 137.6433 0.02537537 224.3466
v 138.3936 0.02537537 225.472
v 137.6433 0.02537537 225.472
v 124.139 0.02537537 223.9715
v 123.3888 0.02537537 223.9715
v 124.139 0.02537537 225.0968
v 123.3888 0.02537537 225.0968
v 121.1381 0.02537537 223.9715
v 120.3879 0.02537537 223.9715
v 121.1381 0.02537537 225.472
v 120.3879 0.02537537 225.472
v 146.6462 0.02537537 223.9715
v 145.5208 0.02537537 223.9715
v 146.6462 0.02537537 225.0968
v 145.5208 0.02537537 225.0968
v 123.3888 0.02537537 223.5964
v 122.2635 0.02537537 223.5964
v 123.3888 0.02537537 225.0968
v 122.2635 0.02537537 225.0968
v 121.5132 0.02537537 222.8461
v 120.763 0.02537537 222.8461
v 121.5132 0.02537537 223.9715
v 120.763 0.02537537 223.9715
v 148.5218 0.02537537 222.0959
v 147.3964 0.02537537 222.0959
v 148.5218 0.02537537 223.2213
v 147.3964 0.02537537 223.2213
v 123.7639 0.02537537 221.7208
v 122.6386 0.02537537 221.7208
v 123.7639 0.02537537 223.2213
v 122.6386 0.02537537 223.2213
v 147.7715 0.02537537 221.7208
v 147.0213 0.02537537 221.7208
v 147.7715 0.02537537 222.8461
v 147.0213 0.02537537 222.8461
v 121.8883 0.02537537 221.7208
v 121.1381 0.02537537 221.7208
v 121.8883 0.02537537 222.8461
v 121.1381 0.02537537 222.8461
v 135.0175 0.02537537 221.3457
v 134.2673 0.02537537 221.3457
v 135.0175 0.02537537 222.471
v 134.2673 0.02537537 222.471
v 122.6386 0.02537537 220.9705
v 121.8883 0.02537537 220.9705
v 122.6386 0.02537537 222.471
v 121.8883 0.02537537 222.471
v 133.517 0.02537537 220.5954
v 132.7668 0.02537537 220.5954
v 133.517 0.02537537 222.0959
v 132.7668 0.02537537 222.0959
v 121.8883 0.02537537 220.5954
v 120.763 0.02537537 220.5954
v 121.8883 0.02537537 222.0959
v 120.763 0.02537537 222.0959
v 150.3974 0.02537537 220.5954
v 149.6471 0.02537537 220.5954
v 150.3974 0.02537537 221.7208
v 149.6471 0.02537537 221.7208
v 148.5218 0.02537537 220.2203
v 147.7715 0.02537537 220.2203
v 148.5218 0.02537537 221.3457
v 147.7715 0.02537537 221.3457
v 134.2673 0.02537537 219.4701
v 133.517 0.02537537 219.4701
v 134.2673 0.02537537 220.5954
v 133.517 0.02537537 220.5954
v 146.6462 0.02537537 218.7198
v 145.896 0.02537537 218.7198
v 146.6462 0.02537537 219.8452
v 145.896 0.02537537 219.8452
v 122.6386 0.02537537 215.7189
v 121.8883 0.02537537 215.7189
v 122.6386 0.02537537 216.8442
v 121.8883 0.02537537 216.8442
v 120.3879 0.02537537 215.7189
v 119.6376 0.02537537 215.7189
v 120.3879 0.02537537 216.8442
v 119.6376 0.02537537 216.8442
v 121.5132 0.02537537 215.3438
v 120.763 0.02537537 215.3438
v 121.5132 0.02537537 216.8442
v 120.763 0.02537537 216.8442
v 120.3879 0.02537537 214.9686
v 119.6376 0.02537537 214.9686
v 120.3879 0.02537537 216.094
v 119.6376 0.02537537 216.094
v 121.8883 0.02537537 214.5935
v 120.763 0.02537537 214.5935
v 121.8883 0.02537537 215.7189
v 120.763 0.02537537 215.7189
v 123.3888 0.02537537 214.2184
v 122.6386 0.02537537 214.2184
v 123.3888 0.02537537 215.3438
v 122.6386 0.02537537 215.3438
v 123.7639 0.02537537 213.8433
v 122.6386 0.02537537 213.8433
v 123.7639 0.02537537 215.3438
v 122.6386 0.02537537 215.3438
v 122.2635 0.02537537 213.8433
v 121.1381 0.02537537 213.8433
v 122.2635 0.02537537 215.3438
v 121.1381 0.02537537 215.3438
v 121.8883 0.02537537 212.7179
v 121.1381 0.02537537 212.7179
v 121.8883 0.02537537 213.8433
v 121.1381 0.02537537 213.8433
v 121.1381 0.02537537 211.5926
v 120.3879 0.02537537 211.5926
v 121.1381 0.02537537 212.7179
v 120.3879 0.02537537 212.7179
v 125.6395 0.02537537 210.0921
v 124.8893 0.02537537 210.0921
v 125.6395 0.02537537 211.5926
v 124.8893 0.02537537 211.5926
v 136.8931 0.02537537 208.5916
v 135.7677 0.02537537 208.5916
v 136.8931 0.02537537 210.0921
v 135.7677 0.02537537 210.0921
v 140.6443 0.02537537 208.2165
v 139.894 0.02537537 208.2165
v 140.6443 0.02537537 209.3418
v 139.894 0.02537537 209.3418
v 134.2673 0.02537537 207.4663
v 133.517 0.02537537 207.4663
v 134.2673 0.02537537 208.5916
v 133.517 0.02537537 208.5916
v 142.895 0.02537537 205.2155
v 141.7696 0.02537537 205.2155
v 142.895 0.02537537 206.3409
v 141.7696 0.02537537 206.3409
v 141.3945 0.02537537 204.8404
v 140.2692 0.02537537 204.8404
v 141.3945 0.02537537 205.9658
v 140.2692 0.02537537 205.9658
v 139.5189 0.02537537 204.8404
v 138.7687 0.02537537 204.8404
v 139.5189 0.02537537 205.9658
v 138.7687 0.02537537 205.9658
v 147.0213 0.02537537 204.8404
v 145.896 0.02537537 204.8404
v 147.0213 0.02537537 205.9658
v 145.896 0.02537537 205.9658
v 142.5199 0.02537537 203.7151
v 141.3945 0.02537537 203.7151
v 142.5199 0.02537537 205.2155
v 141.3945 0.02537537 205.2155
v 141.0194 0.02537537 203.7151
v 139.894 0.02537537 203.7151
v 141.0194 0.02537537 205.2155
v 139.894 0.02537537 205.2155
v 139.5189 0.02537537 203.7151
v 138.7687 0.02537537 203.7151
v 139.5189 0.02537537 204.8404
v 138.7687 0.02537537 204.8404
v 141.7696 0.02537537 203.34
v 140.6443 0.02537537 203.34
v 141.7696 0.02537537 204.8404
v 140.6443 0.02537537 204.8404
vt 0 0.9058824
vt 0.06666667 0.9058824
vt 0 1
vt 0.06666667 1
vt 0 0.9058824
vt 0.06666667 0.9058824
vt 0 1
vt 0.06666667 1
vt 0 0.9058824
vt 0.06666667 0.9058824
vt 0 1
vt 0.06666667 1
vt 0 0.9058824
vt 0.06666667 0.9058824
vt 0 1
vt 0.06666667 1
vt 0 0.9058824
vt 0.06666667 0.9058824
vt 0 1
vt 0.06666667 1
vt 0 0.9058824
vt 0.06666667 0.9058824
vt 0 1
vt 0.06666667 1
vt 0 0.9058824
vt 0.06666667 0.9058824
vt 0 1
vt 0.06666667 1
vt 0 0.9058824
vt 0.06666667 0.9058824
vt 0 1
vt 0.06666667 1
vt 0 0.9058824
vt 0.06666667 0.9058824
vt 0 1
vt 0.06666667 1
vt 0 0.9058824
vt 0.06666667 0.9058824
vt 0 1
vt 0.06666667 1
vt 0 0.9058824
vt 0.06666667 0.9058824
vt 0 1
vt 0.06666667 1
vt 0 0.9058824
vt 0.06666667 0.9058824
vt 0 1
vt 0.06666667 1
vt 0 0.9058824
vt 0.06666667 0.9058824
vt 0 1
vt 0.06666667 1
vt 0 0.9058824
vt 0.06666667 0.9058824
vt 0 1
vt 0.06666667 1
vt 0 0.9058824
vt 0.06666667 0.9058824
vt 0 1
vt 0.06666667 1
vt 0 0.9058824
vt 0.06666667 0.9058824
vt 0 1
vt 0.06666667 1
vt 0 0.9058824
vt 0.06666667 0.9058824
vt 0 1
vt 0.06666667 1
vt 0 0.9058824
vt 0.06666667 0.9058824
vt 0 1
vt 0.06666667 1
vt 0 0.9058824
vt 0.06666667 0.9058824
vt 0 1
vt 0.06666667 1
vt 0 0.9058824
vt 0.06666667 0.9058824
vt 0 1
vt 0.06666667 1
vt 0 0.9058824
vt 0.06666667 0.9058824
vt 0 1
vt 0.06666667 1
vt 0 0.9058824
vt 0.06666667 0.9058824
vt 0 1
vt 0.06666667 1
vt 0 0.9058824
vt 0.06666667 0.9058824
vt 0 1
vt 0.06666667 1
vt 0 0.9058824
vt 0.06666667 0.9058824
vt 0 1
vt 0.06666667 1
vt 0 0.9058824
vt 0.06666667 0.9058824
vt 0 1
vt 0.06666667 1
vt 0 0.9058824
vt 0.06666667 0.9058824
vt 0 1
vt 0.06666667 1
vt 0 0.9058824
vt 0.06666667 0.9058824
vt 0 1
vt 0.06666667 1
vt 0 0.9058824
vt 0.06666667 0.9058824
vt 0 1
vt 0.06666667 1
vt 0 0.9058824
vt 0.06666667 0.9058824
vt 0 1
vt 0.06666667 1
vt 0 0.9058824
vt 0.06666667 0.9058824
vt 0 1
vt 0.06666667 1
vt 0 0.9058824
vt 0.06666667 0.9058824
vt 0 1
vt 0.06666667 1
vt 0 0.9058824
vt 0.06666667 0.9058824
vt 0 1
vt 0.06666667 1
vt 0 0.9058824
vt 0.06666667 0.9058824
vt 0 1
vt 0.06666667 1
vt 0 0.9058824
vt 0.06666667 0.9058824
vt 0 1
vt 0.06666667 1
vt 0 0.9058824
vt 0.06666667 0.9058824
vt 0 1
vt 0.06666667 1
vt 0 0.9058824
vt 0.06666667 0.9058824
vt 0 1
vt 0.06666667 1
vt 0 0.9058824
vt 0.06666667 0.9058824
vt 0 1
vt 0.06666667 1
vt 0 0.9058824
vt 0.06666667 0.9058824
vt 0 1
vt 0.06666667 1
vt 0 0.9058824
vt 0.06666667 0.9058824
vt 0 1
vt 0.06666667 1
vt 0 0.9058824
vt 0.06666667 0.9058824
vt 0 1
vt 0.06666667 1
vt 0 0.9058824
vt 0.06666667 0.9058824
vt 0 1
vt 0.06666667 1
vt 0 0.9058824
vt 0.06666667 0.9058824
vt 0 1
vt 0.06666667 1
vt 0 0.9058824
vt 0.06666667 0.9058824
vt 0 1
vt 0.06666667 1
vt 0 0.9058824
vt 0.06666667 0.9058824
vt 0 1
vt 0.06666667 1
vt 0 0.9058824
vt 0.06666667 0.9058824
vt 0 1
vt 0.06666667 1
vt 0 0.9058824
vt 0.06666667 0.9058824
vt 0 1
vt 0.06666667 1
vt 0 0.9058824
vt 0.06666667 0.9058824
vt 0 1
vt 0.06666667 1
vt 0 0.9058824
vt 0.06666667 0.9058824
vt 0 1
vt 0.06666667 1
vt 0 0.9058824
vt 0.06666667 0.9058824
vt 0 1
vt 0.06666667 1
vt 0 0.9058824
vt 0.06666667 0.9058824
vt 0 1
vt 0.06666667 1
vt 0 0.9058824
vt 0.06666667 0.9058824
vt 0 1
vt 0.06666667 1
vt 0 0.9058824
vt 0.06666667 0.9058824
vt 0 1
vt 0.06666667 1
vt 0 0.9058824
vt 0.06666667 0.9058824
vt 0 1
vt 0.06666667 1
vn 0 1 0
vn 0 1 0
vn 0 1 0
vn 0 1 0
vn 0 1 0
vn 0 1 0
vn 0 1 0
vn 0 1 0
vn 0 1 0
vn 0 1 0
vn 0 1 0
vn 0 1 0
vn 0 1 0
vn 0 1 0
vn 0 1 0
vn 0 1 0
vn 0 1 0
vn 0 1 0
vn 0 1 0
vn 0 1 0
vn 0 1 0
vn 0 1 0
vn 0 1 0
vn 0 1 0
vn 0 1 0
vn 0 1 0
vn 0 1 0
vn 0 1 0
vn 0 1 0
vn 0 1 0
vn 0 1 0
vn 0 1 0
vn 0 1 0
vn 0 1 0
vn 0 1 0
vn 0 1 0
vn 0 1 0
vn 0 1 0
vn 0 1 0
vn 0 1 0
vn 0 1 0
vn 0 1 0
vn 0 1 0
vn 0 1 0
vn 0 1 0
vn 0 1 0
vn 0 1 0
vn 0 1 0
vn 0 1 0
vn 0 1 0
vn 0 1 0
vn 0 1 0
vn 0 1 0
vn 0 1 0
vn 0 1 0
vn 0 1 0
vn 0 1 0
vn 0 1 0
vn 0 1 0
vn 0 1 0
vn 0 1 0
vn 0 1 0
vn 0 1 0
vn 0 1 0
vn 0 1 0
vn 0 1 0
vn 0 1 0
vn 0 1 0
vn 0 1 0
vn 0 1 0
vn 0 1 0
vn 0 1 0
vn 0 1 0
vn 0 1 0
vn 0 1 0
vn 0 1 0
vn 0 1 0
vn 0 1 0
vn 0 1 0
vn 0 1 0
vn 0 1 0
vn 0 1 0
vn 0 1 0
vn 0 1 0
vn 0 1 0
vn 0 1 0
vn 0 1 0
vn 0 1 0
vn 0 1 0
vn 0 1 0
vn 0 1 0
vn 0 1 0
vn 0 1 0
vn 0 1 0
vn 0 1 0
vn 0 1 0
vn 0 1 0
vn 0 1 0
vn 0 1 0
vn 0 1 0
vn 0 1 0
vn 0 1 0
vn 0 1 0
vn 0 1 0
vn 0 1 0
vn 0 1 0
vn 0 1 0
vn 0 1 0
vn 0 1 0
vn 0 1 0
vn 0 1 0
vn 0 1 0
vn 0 1 0
vn 0 1 0
vn 0 1 0
vn 0 1 0
vn 0 1 0
vn 0 1 0
vn 0 1 0
vn 0 1 0
vn 0 1 0
vn 0 1 0
vn 0 1 0
vn 0 1 0
vn 0 1 0
vn 0 1 0
vn 0 1 0
vn 0 1 0
vn 0 1 0
vn 0 1 0
vn 0 1 0
vn 0 1 0
vn 0 1 0
vn 0 1 0
vn 0 1 0
vn 0 1 0
vn 0 1 0
vn 0 1 0
vn 0 1 0
vn 0 1 0
vn 0 1 0
vn 0 1 0
vn 0 1 0
vn 0 1 0
vn 0 1 0
vn 0 1 0
vn 0 1 0
vn 0 1 0
vn 0 1 0
vn 0 1 0
vn 0 1 0
vn 0 1 0
vn 0 1 0
vn 0 1 0
vn 0 1 0
vn 0 1 0
vn 0 1 0
vn 0 1 0
vn 0 1 0
vn 0 1 0
vn 0 1 0
vn 0 1 0
vn 0 1 0
vn 0 1 0
vn 0 1 0
vn 0 1 0
vn 0 1 0
vn 0 1 0
vn 0 1 0
vn 0 1 0
vn 0 1 0
vn 0 1 0
vn 0 1 0
vn 0 1 0
vn 0 1 0
vn 0 1 0
vn 0 1 0
vn 0 1 0
vn 0 1 0
vn 0 1 0
vn 0 1 0
vn 0 1 0
vn 0 1 0
vn 0 1 0
vn 0 1 0
vn 0 1 0
vn 0 1 0
vn 0 1 0
vn 0 1 0
vn 0 1 0
vn 0 1 0
vn 0 1 0
vn 0 1 0
vn 0 1 0
vn 0 1 0
vn 0 1 0
vn 0 1 0
vn 0 1 0
vn 0 1 0
vn 0 1 0
vn 0 1 0
vn 0 1 0
vn 0 1 0
vn 0 1 0
vn 0 1 0
vn 0 1 0
vn 0 1 0
vn 0 1 0
vn 0 1 0
vn 0 1 0
vn 0 1 0
vn 0 1 0
g Grass_0_Cluster165_0
f 2/2/2 3/3/3 1/1/1
f 2/2/2 4/4/4 3/3/3
f 6/6/6 7/7/7 5/5/5
f 6/6/6 8/8/8 7/7/7
f 10/10/10 11/11/11 9/9/9
f 10/10/10 12/12/12 11/11/11
f 14/14/14 15/15/15 13/13/13
f 14/14/14 16/16/16 15/15/15
f 18/18/18 19/19/19 17/17/17
f 18/18/18 20/20/20 19/19/19
f 22/22/22 23/23/23 21/21/21
f 22/22/22 24/24/24 23/23/23
f 26/26/26 27/27/27 25/25/25
f 26/26/26 28/28/28 27/27/27
f 30/30/30 31/31/31 29/29/29
f 30/30/30 32/32/32 31/31/31
f 34/34/34 35/35/35 33/33/33
f 34/34/34 36/36/36 35/35/35
f 38/38/38 39/39/39 37/37/37
f 38/38/38 40/40/40 39/39/39
f 42/42/42 43/43/43 41/41/41
f 42/42/42 44/44/44 43/43/43
f 46/46/46 47/47/47 45/45/45
f 46/46/46 48/48/48 47/47/47
f 50/50/50 51/51/51 49/49/49
f 50/50/50 52/52/52 51/51/51
f 54/54/54 55/55/55 53/53/53
f 54/54/54 56/56/56 55/55/55
f 58/58/58 59/59/59 57/57/57
f 58/58/58 60/60/60 59/59/59
f 62/62/62 63/63/63 61/61/61
f 62/62/62 64/64/64 63/63/63
f 66/66/66 67/67/67 65/65/65
f 66/66/66 68/68/68 67/67/67
f 70/70/70 71/71/71 69/69/69
f 70/70/70 72/72/72 71/71/71
f 74/74/74 75/75/75 73/73/73
f 74/74/74 76/76/76 75/75/75
f 78/78/78 79/79/79 77/77/77
f 78/78/78 80/80/80 79/79/79
f 82/82/82 83/83/83 81/81/81
f 82/82/82 84/84/84 83/83/83
f 86/86/86 87/87/87 85/85/85
f 86/86/86 88/88/88 87/87/87
f 90/90/90 91/91/91 89/89/89
f 90/90/90 92/92/92 91/91/91
f 94/94/94 95/95/95 93/93/93
f 94/94/94 96/96/96 95/95/95
f 98/98/98 99/99/99 97/97/97
f 98/98/98 100/100/100 99/99/99
f 102/102/102 103/103/103 101/101/101
f 102/102/102 104/104/104 103/103/103
f 106/106/106 107/107/107 105/105/105
f 106/106/106 108/108/108 107/107/107
f 110/110/110 111/111/111 109/109/109
f 110/110/110 112/112/112 111/111/111
f 114/114/114 115/115/115 113/113/113
f 114/114/114 116/116/116 115/115/115
f 118/118/118 119/119/119 117/117/117
f 118/118/118 120/120/120 119/119/119
f 122/122/122 123/123/123 121/121/121
f 122/122/122 124/124/124 123/123/123
f 126/126/126 127/127/127 125/125/125
f 126/126/126 128/128/128 127/127/127
f 130/130/130 131/131/131 129/129/129
f 130/130/130 132/132/132 131/131/131
f 134/134/134 135/135/135 133/133/133
f 134/134/134 136/136/136 135/135/135
f 138/138/138 139/139/139 137/137/137
f 138/138/138 140/140/140 139/139/139
f 142/142/142 143/143/143 141/141/141
f 142/142/142 144/144/144 143/143/143
f 146/146/146 147/147/147 145/145/145
f 146/146/146 148/148/148 147/147/147
f 150/150/150 151/151/151 149/149/149
f 150/150/150 152/152/152 151/151/151
f 154/154/154 155/155/155 153/153/153
f 154/154/154 156/156/156 155/155/155
f 158/158/158 159/159/159 157/157/157
f 158/158/158 160/160/160 159/159/159
f 162/162/162 163/163/163 161/161/161
f 162/162/162 164/164/164 163/163/163
f 166/166/166 167/167/167 165/165/165
f 166/166/166 168/168/168 167/167/167
f 170/170/170 171/171/171 169/169/169
f 170/170/170 172/172/172 171/171/171
f 174/174/174 175/175/175 173/173/173
f 174/174/174 176/176/176 175/175/175
f 178/178/178 179/179/179 177/177/177
f 178/178/178 180/180/180 179/179/179
f 182/182/182 183/183/183 181/181/181
f 182/182/182 184/184/184 183/183/183
f 186/186/186 187/187/187 185/185/185
f 186/186/186 188/188/188 187/187/187
f 190/190/190 191/191/191 189/189/189
f 190/190/190 192/192/192 191/191/191
f 194/194/194 195/195/195 193/193/193
f 194/194/194 196/196/196 195/195/195
f 198/198/198 199/199/199 197/197/197
f 198/198/198 200/200/200 199/199/199
f 202/202/202 203/203/203 201/201/201
f 202/202/202 204/204/204 203/203/203
f 206/206/206 207/207/207 205/205/205
f 206/206/206 208/208/208 207/207/207
f 210/210/210 211/211/211 209/209/209
f 210/210/210 212/212/212 211/211/211
