g Grass_0_Cluster296
v -205.7653 0 411.5306
v -206.5722 0 411.5306
v -205.7653 0 412.741
v -206.5722 0 412.741
v -183.5749 0 411.1272
v -184.3819 0 411.1272
v -183.5749 0 412.3376
v -184.3819 0 412.3376
v -208.1861 0 409.5133
v -208.993 0 409.5133
v -208.1861 0 410.7237
v -208.993 0 410.7237
v -190.8372 0 405.8822
v -192.0476 0 405.8822
v -190.8372 0 407.0926
v -192.0476 0 407.0926
v -194.8719 0 405.8822
v -195.6788 0 405.8822
v -194.8719 0 407.0926
v -195.6788 0 407.0926
v -191.2407 0 405.4787
v -192.0476 0 405.4787
v -191.2407 0 406.6891
v -192.0476 0 406.6891
v -209.3965 0 405.4787
v -210.2034 0 405.4787
v -209.3965 0 406.6891
v -210.2034 0 406.6891
v -190.0303 0 405.0753
v -190.8372 0 405.0753
v -190.0303 0 406.2856
v -190.8372 0 406.2856
v -192.0476 0 404.6718
v -192.8546 0 404.6718
v -192.0476 0 405.8822
v -192.8546 0 405.8822
v -193.258 0 404.2683
v -194.0649 0 404.2683
v -193.258 0 405.4787
v -194.0649 0 405.4787
v -191.6442 0 403.8649
v -192.4511 0 403.8649
v -191.6442 0 405.0753
v -192.4511 0 405.0753
v -192.8546 0 403.4614
v -193.6615 0 403.4614
v -192.8546 0 404.6718
v -193.6615 0 404.6718
v -189.2234 0 403.4614
v -190.0303 0 403.4614
v -189.2234 0 404.6718
v -190.0303 0 404.6718
v -191.6442 0 403.0579
v -192.4511 0 403.0579
v -191.6442 0 404.2683
v -192.4511 0 404.2683
v -194.4684 0 403.0579
v -195.2753 0 403.0579
v -194.4684 0 404.2683
v -195.2753 0 404.2683
v -197.2926 0 403.0579
v -198.503 0 403.0579
v -197.2926 0 404.2683
v -198.503 0 404.2683
v -190.0303 0 403.0579
v -190.8372 0 403.0579
v -190.0303 0 404.2683
v -190.8372 0 404.2683
v -192.8546 0 402.6545
v -193.6615 0 402.6545
v -192.8546 0 403.8649
v -193.6615 0 403.8649
v -194.8719 0 402.6545
v -195.6788 0 402.6545
v -194.8719 0 403.8649
v -195.6788 0 403.8649
v -190.4338 0 402.251
v -191.2407 0 402.251
v -190.4338 0 403.4614
v -191.2407 0 403.4614
v -190.8372 0 401.8476
v -191.6442 0 401.8476
v -190.8372 0 403.0579
v -191.6442 0 403.0579
v -192.0476 0 401.8476
v -192.8546 0 401.8476
v -192.0476 0 403.0579
v -192.8546 0 403.0579
v -193.6615 0 401.4441
v -194.4684 0 401.4441
v -193.6615 0 402.6545
v -194.4684 0 402.6545
v -189.6269 0 401.4441
v -190.4338 0 401.4441
v -189.6269 0 402.6545
v -190.4338 0 402.6545
v -188.8199 0 401.4441
v -189.6269 0 401.4441
v -188.8199 0 402.6545
v -189.6269 0 402.6545
v -195.2753 0 401.0406
v -196.0822 0 401.0406
v -195.2753 0 402.251
v -196.0822 0 402.251
v -190.8372 0 401.0406
v -191.6442 0 401.0406
v -190.8372 0 402.251
v -191.6442 0 402.251
v -186.8026 0 400.6372
v -187.6095 0 400.6372
v -186.8026 0 401.8476
v -187.6095 0 401.8476
v -188.013 0 400.2337
v -188.8199 0 400.2337
v -188.013 0 401.4441
v -188.8199 0 401.4441
v -191.2407 0 399.8302
v -192.0476 0 399.8302
v -191.2407 0 401.0406
v -192.0476 0 401.0406
v -187.2061 0 399.4268
v -188.013 0 399.4268
v -187.2061 0 401.0406
v -188.013 0 401.0406
v -201.3272 0 399.4268
v -202.1342 0 399.4268
v -201.3272 0 400.6372
v -202.1342 0 400.6372
v -189.6269 0 398.6199
v -190.4338 0 398.6199
v -189.6269 0 400.2337
v -190.4338 0 400.2337
v -186.3992 0 396.6025
v -187.2061 0 396.6025
v -186.3992 0 397.8129
v -187.2061 0 397.8129
v -184.7853 0 395.7956
v -185.5922 0 395.7956
v -184.7853 0 397.006
v -185.5922 0 397.006
v -188.013 0 395.3922
v -189.2234 0 395.3922
v -188.013 0 396.6025
v -189.2234 0 396.6025
v -188.013 0 388.9368
v -188.8199 0 388.9368
v -188.013 0 390.5506
v -188.8199 0 390.5506
v -186.8026 0 388.5333
v -187.6095 0 388.5333
v -186.8026 0 389.7437
v -187.6095 0 389.7437
v -185.5922 0 387.7264
v -186.3992 0 387.7264
v -185.5922 0 388.9368
v -186.3992 0 388.9368
v -208.993 0 387.3229
v -209.7999 0 387.3229
v -208.993 0 388.5333
v -209.7999 0 388.5333
v -204.1515 0 386.516
v -204.9584 0 386.516
v -204.1515 0 387.7264
v -204.9584 0 387.7264
v -208.1861 0 386.1125
v -208.993 0 386.1125
v -208.1861 0 387.3229
v -208.993 0 387.3229
v -188.8199 0 386.1125
v -189.6269 0 386.1125
v -188.8199 0 387.3229
v -189.6269 0 387.3229
v -193.258 0 385.7091
v -194.0649 0 385.7091
v -193.258 0 386.9195
v -194.0649 0 386.9195
v -208.1861 0 385.3056
v -208.993 0 385.3056
v -208.1861 0 386.516
v -208.993 0 386.516
v -205.7653 0 385.3056
v -206.5722 0 385.3056
v -205.7653 0 386.516
v -206.5722 0 386.516
v -201.3272 0 385.3056
v -202.5376 0 385.3056
v -201.3272 0 386.516
v -202.5376 0 386.516
v -206.5722 0 384.9022
v -207.3792 0 384.9022
v -206.5722 0 386.1125
v -207.3792 0 386.1125
v -208.1861 0 384.9022
v -208.993 0 384.9022
v -208.1861 0 386.1125
v -208.993 0 386.1125
v -205.7653 0 384.9022
v -206.5722 0 384.9022
v -205.7653 0 386.1125
v -206.5722 0 386.1125
v -206.1688 0 384.4987
v -206.9757 0 384.4987
v -206.1688 0 385.7091
v -206.9757 0 385.7091
v -202.9411 0 384.0952
v -203.748 0 384.0952
v -202.9411 0 385.3056
v -203.748 0 385.3056
v -189.6269 0 384.0952
v -190.8372 0 384.0952
v -189.6269 0 385.3056
v -190.8372 0 385.3056
v -198.503 0 384.0952
v -199.3099 0 384.0952
v -198.503 0 385.3056
v -199.3099 0 385.3056
v -206.9757 0 384.0952
v -207.7826 0 384.0952
v -206.9757 0 385.3056
v -207.7826 0 385.3056
v -192.8546 0 383.6918
v -193.6615 0 383.6918
v -192.8546 0 385.3056
v -193.6615 0 385.3056
v -203.748 0 383.6918
v -204.5549 0 383.6918
v -203.748 0 384.9022
v -204.5549 0 384.9022
v -187.2061 0 383.6918
v -188.013 0 383.6918
v -187.2061 0 384.9022
v -188.013 0 384.9022
v -202.5376 0 383.6918
v -203.3445 0 383.6918
v -202.5376 0 384.9022
v -203.3445 0 384.9022
v -202.1342 0 383.2883
v -203.3445 0 383.2883
v -202.1342 0 384.4987
v -203.3445 0 384.4987
v -207.7826 0 383.2883
v -208.5895 0 383.2883
v -207.7826 0 384.4987
v -208.5895 0 384.4987
v -188.8199 0 383.2883
v -189.6269 0 383.2883
v -188.8199 0 384.4987
v -189.6269 0 384.4987
vt 0 0.9058824
vt 0.06666667 0.9058824
vt 0 1
vt 0.06666667 1
vt 0 0.9058824
vt 0.06666667 0.9058824
vt 0 1
vt 0.06666667 1
vt 0 0.9058824
vt 0.06666667 0.9058824
vt 0 1
vt 0.06666667 1
vt 0 0.9058824
vt 0.06666667 0.9058824
vt 0 1
vt 0.06666667 1
vt 0 0.9058824
vt 0.06666667 0.9058824
vt 0 1
vt 0.06666667 1
vt 0 0.9058824
vt 0.06666667 0.9058824
vt 0 1
vt 0.06666667 1
vt 0 0.9058824
vt 0.06666667 0.9058824
vt 0 1
vt 0.06666667 1
vt 0 0.9058824
vt 0.06666667 0.9058824
vt 0 1
vt 0.06666667 1
vt 0 0.9058824
vt 0.06666667 0.9058824
vt 0 1
vt 0.06666667 1
vt 0 0.9058824
vt 0.06666667 0.9058824
vt 0 1
vt 0.06666667 1
vt 0 0.9058824
vt 0.06666667 0.9058824
vt 0 1
vt 0.06666667 1
vt 0 0.9058824
vt 0.06666667 0.9058824
vt 0 1
vt 0.06666667 1
vt 0 0.9058824
vt 0.06666667 0.9058824
vt 0 1
vt 0.06666667 1
vt 0 0.9058824
vt 0.06666667 0.9058824
vt 0 1
vt 0.06666667 1
vt 0 0.9058824
vt 0.06666667 0.9058824
vt 0 1
vt 0.06666667 1
vt 0 0.9058824
vt 0.06666667 0.9058824
vt 0 1
vt 0.06666667 1
vt 0 0.9058824
vt 0.06666667 0.9058824
vt 0 1
vt 0.06666667 1
vt 0 0.9058824
vt 0.06666667 0.9058824
vt 0 1
vt 0.06666667 1
vt 0 0.9058824
vt 0.06666667 0.9058824
vt 0 1
vt 0.06666667 1
vt 0 0.9058824
vt 0.06666667 0.9058824
vt 0 1
vt 0.06666667 1
vt 0 0.9058824
vt 0.06666667 0.9058824
vt 0 1
vt 0.06666667 1
vt 0 0.9058824
vt 0.06666667 0.9058824
vt 0 1
vt 0.06666667 1
vt 0 0.9058824
vt 0.06666667 0.9058824
vt 0 1
vt 0.06666667 1
vt 0 0.9058824
vt 0.06666667 0.9058824
vt 0 1
vt 0.06666667 1
vt 0 0.9058824
vt 0.06666667 0.9058824
vt 0 1
vt 0.06666667 1
vt 0 0.9058824
vt 0.06666667 0.9058824
vt 0 1
vt 0.06666667 1
vt 0 0.9058824
vt 0.06666667 0.9058824
vt 0 1
vt 0.06666667 1
vt 0 0.9058824
vt 0.06666667 0.9058824
vt 0 1
vt 0.06666667 1
vt 0 0.9058824
vt 0.06666667 0.9058824
vt 0 1
vt 0.06666667 1
vt 0 0.9058824
vt 0.06666667 0.9058824
vt 0 1
vt 0.06666667 1
vt 0 0.9058824
vt 0.06666667 0.9058824
vt 0 1
vt 0.06666667 1
vt 0 0.9058824
vt 0.06666667 0.9058824
vt 0 1
vt 0.06666667 1
vt 0 0.9058824
vt 0.06666667 0.9058824
vt 0 1
vt 0.06666667 1
vt 0 0.9058824
vt 0.06666667 0.9058824
vt 0 1
vt 0.06666667 1
vt 0 0.9058824
vt 0.06666667 0.9058824
vt 0 1
vt 0.06666667 1
vt 0 0.9058824
vt 0.06666667 0.9058824
vt 0 1
vt 0.06666667 1
vt 0 0.9058824
vt 0.06666667 0.9058824
vt 0 1
vt 0.06666667 1
vt 0 0.9058824
vt 0.06666667 0.9058824
vt 0 1
vt 0.06666667 1
vt 0 0.9058824
vt 0.06666667 0.9058824
vt 0 1
vt 0.06666667 1
vt 0 0.9058824
vt 0.06666667 0.9058824
vt 0 1
vt 0.06666667 1
vt 0 0.9058824
vt 0.06666667 0.9058824
vt 0 1
vt 0.06666667 1
vt 0 0.9058824
vt 0.06666667 0.9058824
vt 0 1
vt 0.06666667 1
vt 0 0.9058824
vt 0.06666667 0.9058824
vt 0 1
vt 0.06666667 1
vt 0 0.9058824
vt 0.06666667 0.9058824
vt 0 1
vt 0.06666667 1
vt 0 0.9058824
vt 0.06666667 0.9058824
vt 0 1
vt 0.06666667 1
vt 0 0.9058824
vt 0.06666667 0.9058824
vt 0 1
vt 0.06666667 1
vt 0 0.9058824
vt 0.06666667 0.9058824
vt 0 1
vt 0.06666667 1
vt 0 0.9058824
vt 0.06666667 0.9058824
vt 0 1
vt 0.06666667 1
vt 0 0.9058824
vt 0.06666667 0.9058824
vt 0 1
vt 0.06666667 1
vt 0 0.9058824
vt 0.06666667 0.9058824
vt 0 1
vt 0.06666667 1
vt 0 0.9058824
vt 0.06666667 0.9058824
vt 0 1
vt 0.06666667 1
vt 0 0.9058824
vt 0.06666667 0.9058824
vt 0 1
vt 0.06666667 1
vt 0 0.9058824
vt 0.06666667 0.9058824
vt 0 1
vt 0.06666667 1
vt 0 0.9058824
vt 0.06666667 0.9058824
vt 0 1
vt 0.06666667 1
vt 0 0.9058824
vt 0.06666667 0.9058824
vt 0 1
vt 0.06666667 1
vt 0 0.9058824
vt 0.06666667 0.9058824
vt 0 1
vt 0.06666667 1
vt 0 0.9058824
vt 0.06666667 0.9058824
vt 0 1
vt 0.06666667 1
vt 0 0.9058824
vt 0.06666667 0.9058824
vt 0 1
vt 0.06666667 1
vt 0 0.9058824
vt 0.06666667 0.9058824
vt 0 1
vt 0.06666667 1
vt 0 0.9058824
vt 0.06666667 0.9058824
vt 0 1
vt 0.06666667 1
vt 0 0.9058824
vt 0.06666667 0.9058824
vt 0 1
vt 0.06666667 1
vt 0 0.9058824
vt 0.06666667 0.9058824
vt 0 1
vt 0.06666667 1
vn 0 1 0
vn 0 1 0
vn 0 1 0
vn 0 1 0
vn 0 1 0
vn 0 1 0
vn 0 1 0
vn 0 1 0
vn 0 1 0
vn 0 1 0
vn 0 1 0
vn 0 1 0
vn 0 1 0
vn 0 1 0
vn 0 1 0
vn 0 1 0
vn 0 1 0
vn 0 1 0
vn 0 1 0
vn 0 1 0
vn 0 1 0
vn 0 1 0
vn 0 1 0
vn 0 1 0
vn 0 1 0
vn 0 1 0
vn 0 1 0
vn 0 1 0
vn 0 1 0
vn 0 1 0
vn 0 1 0
vn 0 1 0
vn 0 1 0
vn 0 1 0
vn 0 1 0
vn 0 1 0
vn 0 1 0
vn 0 1 0
vn 0 1 0
vn 0 1 0
vn 0 1 0
vn 0 1 0
vn 0 1 0
vn 0 1 0
vn 0 1 0
vn 0 1 0
vn 0 1 0
vn 0 1 0
vn 0 1 0
vn 0 1 0
vn 0 1 0
vn 0 1 0
vn 0 1 0
vn 0 1 0
vn 0 1 0
vn 0 1 0
vn 0 1 0
vn 0 1 0
vn 0 1 0
vn 0 1 0
vn 0 1 0
vn 0 1 0
vn 0 1 0
vn 0 1 0
vn 0 1 0
vn 0 1 0
vn 0 1 0
vn 0 1 0
vn 0 1 0
vn 0 1 0
vn 0 1 0
vn 0 1 0
vn 0 1 0
vn 0 1 0
vn 0 1 0
vn 0 1 0
vn 0 1 0
vn 0 1 0
vn 0 1 0
vn 0 1 0
vn 0 1 0
vn 0 1 0
vn 0 1 0
vn 0 1 0
vn 0 1 0
vn 0 1 0
vn 0 1 0
vn 0 1 0
vn 0 1 0
vn 0 1 0
vn 0 1 0
vn 0 1 0
vn 0 1 0
vn 0 1 0
vn 0 1 0
vn 0 1 0
vn 0 1 0
vn 0 1 0
vn 0 1 0
vn 0 1 0
vn 0 1 0
vn 0 1 0
vn 0 1 0
vn 0 1 0
vn 0 1 0
vn 0 1 0
vn 0 1 0
vn 0 1 0
vn 0 1 0
vn 0 1 0
vn 0 1 0
vn 0 1 0
vn 0 1 0
vn 0 1 0
vn 0 1 0
vn 0 1 0
vn 0 1 0
vn 0 1 0
vn 0 1 0
vn 0 1 0
vn 0 1 0
vn 0 1 0
vn 0 1 0
vn 0 1 0
vn 0 1 0
vn 0 1 0
vn 0 1 0
vn 0 1 0
vn 0 1 0
vn 0 1 0
vn 0 1 0
vn 0 1 0
vn 0 1 0
vn 0 1 0
vn 0 1 0
vn 0 1 0
vn 0 1 0
vn 0 1 0
vn 0 1 0
vn 0 1 0
vn 0 1 0
vn 0 1 0
vn 0 1 0
vn 0 1 0
vn 0 1 0
vn 0 1 0
vn 0 1 0
vn 0 1 0
vn 0 1 0
vn 0 1 0
vn 0 1 0
vn 0 1 0
vn 0 1 0
vn 0 1 0
vn 0 1 0
vn 0 1 0
vn 0 1 0
vn 0 1 0
vn 0 1 0
vn 0 1 0
vn 0 1 0
vn 0 1 0
vn 0 1 0
vn 0 1 0
vn 0 1 0
vn 0 1 0
vn 0 1 0
vn 0 1 0
vn 0 1 0
vn 0 1 0
vn 0 1 0
vn 0 1 0
vn 0 1 0
vn 0 1 0
vn 0 1 0
vn 0 1 0
vn 0 1 0
vn 0 1 0
vn 0 1 0
vn 0 1 0
vn 0 1 0
vn 0 1 0
vn 0 1 0
vn 0 1 0
vn 0 1 0
vn 0 1 0
vn 0 1 0
vn 0 1 0
vn 0 1 0
vn 0 1 0
vn 0 1 0
vn 0 1 0
vn 0 1 0
vn 0 1 0
vn 0 1 0
vn 0 1 0
vn 0 1 0
vn 0 1 0
vn 0 1 0
vn 0 1 0
vn 0 1 0
vn 0 1 0
vn 0 1 0
vn 0 1 0
vn 0 1 0
vn 0 1 0
vn 0 1 0
vn 0 1 0
vn 0 1 0
vn 0 1 0
vn 0 1 0
vn 0 1 0
vn 0 1 0
vn 0 1 0
vn 0 1 0
vn 0 1 0
vn 0 1 0
vn 0 1 0
vn 0 1 0
vn 0 1 0
vn 0 1 0
vn 0 1 0
vn 0 1 0
vn 0 1 0
vn 0 1 0
vn 0 1 0
vn 0 1 0
vn 0 1 0
vn 0 1 0
vn 0 1 0
vn 0 1 0
vn 0 1 0
vn 0 1 0
vn 0 1 0
vn 0 1 0
vn 0 1 0
vn 0 1 0
vn 0 1 0
vn 0 1 0
vn 0 1 0
vn 0 1 0
vn 0 1 0
vn 0 1 0
vn 0 1 0
vn 0 1 0
vn 0 1 0
vn 0 1 0
vn 0 1 0
g Grass_0_Cluster296_0
f 2/2/2 3/3/3 1/1/1
f 2/2/2 4/4/4 3/3/3
f 6/6/6 7/7/7 5/5/5
f 6/6/6 8/8/8 7/7/7
f 10/10/10 11/11/11 9/9/9
f 10/10/10 12/12/12 11/11/11
f 14/14/14 15/15/15 13/13/13
f 14/14/14 16/16/16 15/15/15
f 18/18/18 19/19/19 17/17/17
f 18/18/18 20/20/20 19/19/19
f 22/22/22 23/23/23 21/21/21
f 22/22/22 24/24/24 23/23/23
f 26/26/26 27/27/27 25/25/25
f 26/26/26 28/28/28 27/27/27
f 30/30/30 31/31/31 29/29/29
f 30/30/30 32/32/32 31/31/31
f 34/34/34 35/35/35 33/33/33
f 34/34/34 36/36/36 35/35/35
f 38/38/38 39/39/39 37/37/37
f 38/38/38 40/40/40 39/39/39
f 42/42/42 43/43/43 41/41/41
f 42/42/42 44/44/44 43/43/43
f 46/46/46 47/47/47 45/45/45
f 46/46/46 48/48/48 47/47/47
f 50/50/50 51/51/51 49/49/49
f 50/50/50 52/52/52 51/51/51
f 54/54/54 55/55/55 53/53/53
f 54/54/54 56/56/56 55/55/55
f 58/58/58 59/59/59 57/57/57
f 58/58/58 60/60/60 59/59/59
f 62/62/62 63/63/63 61/61/61
f 62/62/62 64/64/64 63/63/63
f 66/66/66 67/67/67 65/65/65
f 66/66/66 68/68/68 67/67/67
f 70/70/70 71/71/71 69/69/69
f 70/70/70 72/72/72 71/71/71
f 74/74/74 75/75/75 73/73/73
f 74/74/74 76/76/76 75/75/75
f 78/78/78 79/79/79 77/77/77
f 78/78/78 80/80/80 79/79/79
f 82/82/82 83/83/83 81/81/81
f 82/82/82 84/84/84 83/83/83
f 86/86/86 87/87/87 85/85/85
f 86/86/86 88/88/88 87/87/87
f 90/90/90 91/91/91 89/89/89
f 90/90/90 92/92/92 91/91/91
f 94/94/94 95/95/95 93/93/93
f 94/94/94 96/96/96 95/95/95
f 98/98/98 99/99/99 97/97/97
f 98/98/98 100/100/100 99/99/99
f 102/102/102 103/103/103 101/101/101
f 102/102/102 104/104/104 103/103/103
f 106/106/106 107/107/107 105/105/105
f 106/106/106 108/108/108 107/107/107
f 110/110/110 111/111/111 109/109/109
f 110/110/110 112/112/112 111/111/111
f 114/114/114 115/115/115 113/113/113
f 114/114/114 116/116/116 115/115/115
f 118/118/118 119/119/119 117/117/117
f 118/118/118 120/120/120 119/119/119
f 122/122/122 123/123/123 121/121/121
f 122/122/122 124/124/124 123/123/123
f 126/126/126 127/127/127 125/125/125
f 126/126/126 128/128/128 127/127/127
f 130/130/130 131/131/131 129/129/129
f 130/130/130 132/132/132 131/131/131
f 134/134/134 135/135/135 133/133/133
f 134/134/134 136/136/136 135/135/135
f 138/138/138 139/139/139 137/137/137
f 138/138/138 140/140/140 139/139/139
f 142/142/142 143/143/143 141/141/141
f 142/142/142 144/144/144 143/143/143
f 146/146/146 147/147/147 145/145/145
f 146/146/146 148/148/148 147/147/147
f 150/150/150 151/151/151 149/149/149
f 150/150/150 152/152/152 151/151/151
f 154/154/154 155/155/155 153/153/153
f 154/154/154 156/156/156 155/155/155
f 158/158/158 159/159/159 157/157/157
f 158/158/158 160/160/160 159/159/159
f 162/162/162 163/163/163 161/161/161
f 162/162/162 164/164/164 163/163/163
f 166/166/166 167/167/167 165/165/165
f 166/166/166 168/168/168 167/167/167
f 170/170/170 171/171/171 169/169/169
f 170/170/170 172/172/172 171/171/171
f 174/174/174 175/175/175 173/173/173
f 174/174/174 176/176/176 175/175/175
f 178/178/178 179/179/179 177/177/177
f 178/178/178 180/180/180 179/179/179
f 182/182/182 183/183/183 181/181/181
f 182/182/182 184/184/184 183/183/183
f 186/186/186 187/187/187 185/185/185
f 186/186/186 188/188/188 187/187/187
f 190/190/190 191/191/191 189/189/189
f 190/190/190 192/192/192 191/191/191
f 194/194/194 195/195/195 193/193/193
f 194/194/194 196/196/196 195/195/195
f 198/198/198 199/199/199 197/197/197
f 198/198/198 200/200/200 199/199/199
f 202/202/202 203/203/203 201/201/201
f 202/202/202 204/204/204 203/203/203
f 206/206/206 207/207/207 205/205/205
f 206/206/206 208/208/208 207/207/207
f 210/210/210 211/211/211 209/209/209
f 210/210/210 212/212/212 211/211/211
f 214/214/214 215/215/215 213/213/213
f 214/214/214 216/216/216 215/215/215
f 218/218/218 219/219/219 217/217/217
f 218/218/218 220/220/220 219/219/219
f 222/222/222 223/223/223 221/221/221
f 222/222/222 224/224/224 223/223/223
f 226/226/226 227/227/227 225/225/225
f 226/226/226 228/228/228 227/227/227
f 230/230/230 231/231/231 229/229/229
f 230/230/230 232/232/232 231/231/231
f 234/234/234 235/235/235 233/233/233
f 234/234/234 236/236/236 235/235/235
f 238/238/238 239/239/239 237/237/237
f 238/238/238 240/240/240 239/239/239
f 242/242/242 243/243/243 241/241/241
f 242/242/242 244/244/244 243/243/243
f 246/246/246 247/247/247 245/245/245
f 246/246/246 248/248/248 247/247/247
