g Grass_2_Cluster30
v -23.5879 0 17.3793
v -24.52279 0 17.3793
v -23.5879 0 18.45801
v -24.52279 0 18.45801
v -14.38287 0 16.27661
v -15.26981 0 16.27661
v -14.38287 0 17.30738
v -15.26981 0 17.30738
v -15.77321 0 16.13278
v -16.63618 0 16.13278
v -15.77321 0 17.13958
v -16.63618 0 17.13958
v -13.6877 0 15.60541
v -14.71847 0 15.60541
v -13.6877 0 16.78001
v -14.71847 0 16.78001
v -12.96855 0 15.58144
v -13.87947 0 15.58144
v -12.96855 0 16.63618
v -13.87947 0 16.63618
v -11.74601 0 15.1979
v -12.6809 0 15.1979
v -11.74601 0 16.27661
v -12.6809 0 16.27661
v -18.45801 0 15.07804
v -19.34496 0 15.07804
v -18.45801 0 16.08484
v -19.34496 0 16.08484
v -16.25264 0 14.74244
v -17.18753 0 14.74244
v -16.25264 0 15.82115
v -17.18753 0 15.82115
v -11.8419 0 14.59861
v -12.72884 0 14.59861
v -11.8419 0 15.62938
v -12.72884 0 15.62938
v -14.11918 0 14.3589
v -15.07804 0 14.3589
v -14.11918 0 15.43761
v -15.07804 0 15.43761
v -15.12598 0 13.95138
v -16.01293 0 13.95138
v -15.12598 0 14.95818
v -16.01293 0 14.95818
v -13.44798 0 13.5199
v -14.33493 0 13.5199
v -13.44798 0 14.55067
v -14.33493 0 14.55067
v -14.95818 0 13.13635
v -15.84513 0 13.13635
v -14.95818 0 14.14315
v -15.84513 0 14.14315
v -13.28018 0 12.94458
v -14.23904 0 12.94458
v -13.28018 0 14.04727
v -14.23904 0 14.04727
v -14.59861 0 12.1775
v -15.5335 0 12.1775
v -14.59861 0 13.25621
v -15.5335 0 13.25621
vt 0.1347656 0.9185662
vt 0.2060202 0.9185662
vt 0.1347656 1
vt 0.2060202 1
vt 0.1347656 0.9185662
vt 0.2060202 0.9185662
vt 0.1347656 1
vt 0.2060202 1
vt 0.1347656 0.9185662
vt 0.2060202 0.9185662
vt 0.1347656 1
vt 0.2060202 1
vt 0.1347656 0.9185662
vt 0.2060202 0.9185662
vt 0.1347656 1
vt 0.2060202 1
vt 0.1347656 0.9185662
vt 0.2060202 0.9185662
vt 0.1347656 1
vt 0.2060202 1
vt 0.1347656 0.9185662
vt 0.2060202 0.9185662
vt 0.1347656 1
vt 0.2060202 1
vt 0.1347656 0.9185662
vt 0.2060202 0.9185662
vt 0.1347656 1
vt 0.2060202 1
vt 0.1347656 0.9185662
vt 0.2060202 0.9185662
vt 0.1347656 1
vt 0.2060202 1
vt 0.1347656 0.9185662
vt 0.2060202 0.9185662
vt 0.1347656 1
vt 0.2060202 1
vt 0.1347656 0.9185662
vt 0.2060202 0.9185662
vt 0.1347656 1
vt 0.2060202 1
vt 0.1347656 0.9185662
vt 0.2060202 0.9185662
vt 0.1347656 1
vt 0.2060202 1
vt 0.1347656 0.9185662
vt 0.2060202 0.9185662
vt 0.1347656 1
vt 0.2060202 1
vt 0.1347656 0.9185662
vt 0.2060202 0.9185662
vt 0.1347656 1
vt 0.2060202 1
vt 0.1347656 0.9185662
vt 0.2060202 0.9185662
vt 0.1347656 1
vt 0.2060202 1
vt 0.1347656 0.9185662
vt 0.2060202 0.9185662
vt 0.1347656 1
vt 0.2060202 1
vn 0 1 0
vn 0 1 0
vn 0 1 0
vn 0 1 0
vn 0 1 0
vn 0 1 0
vn 0 1 0
vn 0 1 0
vn 0 1 0
vn 0 1 0
vn 0 1 0
vn 0 1 0
vn 0 1 0
vn 0 1 0
vn 0 1 0
vn 0 1 0
vn 0 1 0
vn 0 1 0
vn 0 1 0
vn 0 1 0
vn 0 1 0
vn 0 1 0
vn 0 1 0
vn 0 1 0
vn 0 1 0
vn 0 1 0
vn 0 1 0
vn 0 1 0
vn 0 1 0
vn 0 1 0
vn 0 1 0
vn 0 1 0
vn 0 1 0
vn 0 1 0
vn 0 1 0
vn 0 1 0
vn 0 1 0
vn 0 1 0
vn 0 1 0
vn 0 1 0
vn 0 1 0
vn 0 1 0
vn 0 1 0
vn 0 1 0
vn 0 1 0
vn 0 1 0
vn 0 1 0
vn 0 1 0
vn 0 1 0
vn 0 1 0
vn 0 1 0
vn 0 1 0
vn 0 1 0
vn 0 1 0
vn 0 1 0
vn 0 1 0
vn 0 1 0
vn 0 1 0
vn 0 1 0
vn 0 1 0
g Grass_2_Cluster30_0
f 2/2/2 3/3/3 1/1/1
f 2/2/2 4/4/4 3/3/3
f 6/6/6 7/7/7 5/5/5
f 6/6/6 8/8/8 7/7/7
f 10/10/10 11/11/11 9/9/9
f 10/10/10 12/12/12 11/11/11
f 14/14/14 15/15/15 13/13/13
f 14/14/14 16/16/16 15/15/15
f 18/18/18 19/19/19 17/17/17
f 18/18/18 20/20/20 19/19/19
f 22/22/22 23/23/23 21/21/21
f 22/22/22 24/24/24 23/23/23
f 26/26/26 27/27/27 25/25/25
f 26/26/26 28/28/28 27/27/27
f 30/30/30 31/31/31 29/29/29
f 30/30/30 32/32/32 31/31/31
f 34/34/34 35/35/35 33/33/33
f 34/34/34 36/36/36 35/35/35
f 38/38/38 39/39/39 37/37/37
f 38/38/38 40/40/40 39/39/39
f 42/42/42 43/43/43 41/41/41
f 42/42/42 44/44/44 43/43/43
f 46/46/46 47/47/47 45/45/45
f 46/46/46 48/48/48 47/47/47
f 50/50/50 51/51/51 49/49/49
f 50/50/50 52/52/52 51/51/51
f 54/54/54 55/55/55 53/53/53
f 54/54/54 56/56/56 55/55/55
f 58/58/58 59/59/59 57/57/57
f 58/58/58 60/60/60 59/59/59
