g Grass_1_Cluster30
v -20.40155 -0.01529741 20.58857
v -21.3055 -0.01529741 20.58857
v -20.40155 -0.01529741 21.46135
v -21.3055 -0.01529741 21.46135
v -20.74443 -0.01529741 20.30803
v -21.61721 -0.01529741 20.30803
v -20.74443 -0.01529741 21.11847
v -21.61721 -0.01529741 21.11847
v -19.52877 -0.01529741 18.43779
v -20.40155 -0.01529741 18.43779
v -19.52877 -0.01529741 19.21706
v -20.40155 -0.01529741 19.21706
v -24.70311 -0.01529741 17.22213
v -25.60706 -0.01529741 17.22213
v -24.70311 -0.01529741 18.03257
v -25.60706 -0.01529741 18.03257
v -21.58604 -0.01529741 16.5052
v -22.45882 -0.01529741 16.5052
v -21.58604 -0.01529741 17.31564
v -22.45882 -0.01529741 17.31564
v -22.24062 -0.01529741 12.79588
v -23.14458 -0.01529741 12.79588
v -22.24062 -0.01529741 13.60632
v -23.14458 -0.01529741 13.60632
v -29.50341 -0.01529741 1.636753
v -30.37619 -0.01529741 1.636753
v -29.50341 -0.01529741 2.416022
v -30.37619 -0.01529741 2.416022
v -27.57082 -0.01529741 0.8574839
v -28.50595 -0.01529741 0.8574839
v -27.57082 -0.01529741 1.699094
v -28.50595 -0.01529741 1.699094
v -26.44868 -0.01529741 -1.511494
v -27.35263 -0.01529741 -1.511494
v -26.44868 -0.01529741 -0.701054
v -27.35263 -0.01529741 -0.701054
vt 0.06738281 0.9369141
vt 0.1331457 0.9369141
vt 0.06738281 0.9990234
vt 0.1331457 0.9990234
vt 0.06738281 0.9369141
vt 0.1331457 0.9369141
vt 0.06738281 0.9990234
vt 0.1331457 0.9990234
vt 0.06738281 0.9369141
vt 0.1331457 0.9369141
vt 0.06738281 0.9990234
vt 0.1331457 0.9990234
vt 0.06738281 0.9369141
vt 0.1331457 0.9369141
vt 0.06738281 0.9990234
vt 0.1331457 0.9990234
vt 0.06738281 0.9369141
vt 0.1331457 0.9369141
vt 0.06738281 0.9990234
vt 0.1331457 0.9990234
vt 0.06738281 0.9369141
vt 0.1331457 0.9369141
vt 0.06738281 0.9990234
vt 0.1331457 0.9990234
vt 0.06738281 0.9369141
vt 0.1331457 0.9369141
vt 0.06738281 0.9990234
vt 0.1331457 0.9990234
vt 0.06738281 0.9369141
vt 0.1331457 0.9369141
vt 0.06738281 0.9990234
vt 0.1331457 0.9990234
vt 0.06738281 0.9369141
vt 0.1331457 0.9369141
vt 0.06738281 0.9990234
vt 0.1331457 0.9990234
vn 0 1 0
vn 0 1 0
vn 0 1 0
vn 0 1 0
vn 0 1 0
vn 0 1 0
vn 0 1 0
vn 0 1 0
vn 0 1 0
vn 0 1 0
vn 0 1 0
vn 0 1 0
vn 0 1 0
vn 0 1 0
vn 0 1 0
vn 0 1 0
vn 0 1 0
vn 0 1 0
vn 0 1 0
vn 0 1 0
vn 0 1 0
vn 0 1 0
vn 0 1 0
vn 0 1 0
vn 0 1 0
vn 0 1 0
vn 0 1 0
vn 0 1 0
vn 0 1 0
vn 0 1 0
vn 0 1 0
vn 0 1 0
vn 0 1 0
vn 0 1 0
vn 0 1 0
vn 0 1 0
g Grass_1_Cluster30_0
f 2/2/2 3/3/3 1/1/1
f 2/2/2 4/4/4 3/3/3
f 6/6/6 7/7/7 5/5/5
f 6/6/6 8/8/8 7/7/7
f 10/10/10 11/11/11 9/9/9
f 10/10/10 12/12/12 11/11/11
f 14/14/14 15/15/15 13/13/13
f 14/14/14 16/16/16 15/15/15
f 18/18/18 19/19/19 17/17/17
f 18/18/18 20/20/20 19/19/19
f 22/22/22 23/23/23 21/21/21
f 22/22/22 24/24/24 23/23/23
f 26/26/26 27/27/27 25/25/25
f 26/26/26 28/28/28 27/27/27
f 30/30/30 31/31/31 29/29/29
f 30/30/30 32/32/32 31/31/31
f 34/34/34 35/35/35 33/33/33
f 34/34/34 36/36/36 35/35/35
