g Grass_0_Cluster118
v -247.5453 0 142.9264
v -248.602 0 142.9264
v -247.5453 0 144.2473
v -248.602 0 144.2473
v -244.6392 0 142.398
v -245.696 0 142.398
v -244.6392 0 143.4547
v -245.696 0 143.4547
v -247.2811 0 141.6054
v -248.0737 0 141.6054
v -247.2811 0 142.9264
v -248.0737 0 142.9264
v -262.6041 0 141.077
v -263.3966 0 141.077
v -262.6041 0 142.1338
v -263.3966 0 142.1338
v -247.5453 0 139.7561
v -248.602 0 139.7561
v -247.5453 0 140.8129
v -248.602 0 140.8129
v -247.8095 0 138.9635
v -248.8662 0 138.9635
v -247.8095 0 140.2845
v -248.8662 0 140.2845
v -250.1872 0 137.9068
v -251.2439 0 137.9068
v -250.1872 0 139.2277
v -251.2439 0 139.2277
v -248.602 0 137.6426
v -249.3946 0 137.6426
v -248.602 0 138.9635
v -249.3946 0 138.9635
v -252.8291 0 137.1142
v -253.6216 0 137.1142
v -252.8291 0 138.171
v -253.6216 0 138.171
v -251.5081 0 136.85
v -252.5649 0 136.85
v -251.5081 0 138.171
v -252.5649 0 138.171
v -249.923 0 136.5858
v -250.7156 0 136.5858
v -249.923 0 137.6426
v -250.7156 0 137.6426
v -248.0737 0 136.5858
v -249.1304 0 136.5858
v -248.0737 0 137.6426
v -249.1304 0 137.6426
v -250.7156 0 136.0574
v -251.5081 0 136.0574
v -250.7156 0 137.3784
v -251.5081 0 137.3784
v -246.4885 0 135.7932
v -247.5453 0 135.7932
v -246.4885 0 137.1142
v -247.5453 0 137.1142
v -249.1304 0 135.7932
v -249.923 0 135.7932
v -249.1304 0 136.85
v -249.923 0 136.85
v -247.5453 0 135.7932
v -248.602 0 135.7932
v -247.5453 0 136.85
v -248.602 0 136.85
v -249.3946 0 135.5291
v -250.4514 0 135.5291
v -249.3946 0 136.85
v -250.4514 0 136.85
v -249.6588 0 134.4723
v -250.4514 0 134.4723
v -249.6588 0 135.7932
v -250.4514 0 135.7932
v -246.2243 0 134.4723
v -247.2811 0 134.4723
v -246.2243 0 135.7932
v -247.2811 0 135.7932
v -248.8662 0 134.2081
v -249.6588 0 134.2081
v -248.8662 0 135.5291
v -249.6588 0 135.5291
v -251.5081 0 133.9439
v -252.3007 0 133.9439
v -251.5081 0 135.2649
v -252.3007 0 135.2649
v -247.5453 0 133.6797
v -248.3378 0 133.6797
v -247.5453 0 134.7365
v -248.3378 0 134.7365
v -244.1108 0 133.1514
v -244.9034 0 133.1514
v -244.1108 0 134.4723
v -244.9034 0 134.4723
v -244.6392 0 133.1514
v -245.4318 0 133.1514
v -244.6392 0 134.4723
v -245.4318 0 134.4723
v -248.8662 0 132.8872
v -249.6588 0 132.8872
v -248.8662 0 134.2081
v -249.6588 0 134.2081
v -246.4885 0 131.302
v -247.2811 0 131.302
v -246.4885 0 132.3588
v -247.2811 0 132.3588
v -247.0169 0 130.7737
v -247.8095 0 130.7737
v -247.0169 0 132.0946
v -247.8095 0 132.0946
v -248.602 0 130.7737
v -249.3946 0 130.7737
v -248.602 0 132.0946
v -249.3946 0 132.0946
v -241.9973 0 129.9811
v -243.0541 0 129.9811
v -241.9973 0 131.302
v -243.0541 0 131.302
v -259.1696 0 127.8676
v -259.9622 0 127.8676
v -259.1696 0 129.1885
v -259.9622 0 129.1885
v -251.7723 0 125.7541
v -252.5649 0 125.7541
v -251.7723 0 127.075
v -252.5649 0 127.075
v -250.4514 0 125.4899
v -251.5081 0 125.4899
v -250.4514 0 126.8108
v -251.5081 0 126.8108
v -254.6784 0 124.4331
v -255.7352 0 124.4331
v -254.6784 0 125.4899
v -255.7352 0 125.4899
v -251.7723 0 124.1689
v -252.8291 0 124.1689
v -251.7723 0 125.4899
v -252.8291 0 125.4899
v -253.8858 0 123.9047
v -254.6784 0 123.9047
v -253.8858 0 125.2257
v -254.6784 0 125.2257
v -250.4514 0 123.9047
v -251.2439 0 123.9047
v -250.4514 0 125.2257
v -251.2439 0 125.2257
v -253.0933 0 123.3764
v -253.8858 0 123.3764
v -253.0933 0 124.4331
v -253.8858 0 124.4331
v -254.15 0 123.1122
v -254.9426 0 123.1122
v -254.15 0 124.4331
v -254.9426 0 124.4331
v -252.5649 0 122.848
v -253.6216 0 122.848
v -252.5649 0 124.1689
v -253.6216 0 124.1689
v -248.3378 0 122.848
v -249.3946 0 122.848
v -248.3378 0 124.1689
v -249.3946 0 124.1689
v -256.5277 0 122.848
v -257.5845 0 122.848
v -256.5277 0 124.1689
v -257.5845 0 124.1689
v -252.3007 0 122.3196
v -253.3575 0 122.3196
v -252.3007 0 123.3764
v -253.3575 0 123.3764
v -252.5649 0 122.0554
v -253.6216 0 122.0554
v -252.5649 0 123.3764
v -253.6216 0 123.3764
v -249.1304 0 121.527
v -249.923 0 121.527
v -249.1304 0 122.848
v -249.923 0 122.848
v -248.0737 0 118.8851
v -248.8662 0 118.8851
v -248.0737 0 120.2061
v -248.8662 0 120.2061
v -268.9446 0 117.8284
v -269.7372 0 117.8284
v -268.9446 0 119.1493
v -269.7372 0 119.1493
v -249.6588 0 117.0358
v -250.4514 0 117.0358
v -249.6588 0 118.0926
v -250.4514 0 118.0926
v -245.9601 0 116.2432
v -246.7527 0 116.2432
v -245.9601 0 117.5642
v -246.7527 0 117.5642
v -245.1676 0 115.9791
v -246.2243 0 115.9791
v -245.1676 0 117.3
v -246.2243 0 117.3
v -265.246 0 115.9791
v -266.3027 0 115.9791
v -265.246 0 117.0358
v -266.3027 0 117.0358
v -262.0757 0 115.7149
v -262.8683 0 115.7149
v -262.0757 0 117.0358
v -262.8683 0 117.0358
v -262.6041 0 115.1865
v -263.3966 0 115.1865
v -262.6041 0 116.5074
v -263.3966 0 116.5074
v -266.5669 0 114.6581
v -267.3595 0 114.6581
v -266.5669 0 115.9791
v -267.3595 0 115.9791
v -245.9601 0 114.9223
v -247.0169 0 114.9223
v -245.9601 0 115.9791
v -247.0169 0 115.9791
v -248.3378 0 114.9223
v -249.1304 0 114.9223
v -248.3378 0 115.9791
v -249.1304 0 115.9791
v -246.7527 0 114.6581
v -247.8095 0 114.6581
v -246.7527 0 115.9791
v -247.8095 0 115.9791
v -244.375 0 114.3939
v -245.1676 0 114.3939
v -244.375 0 115.7149
v -245.1676 0 115.7149
v -266.0385 0 114.1297
v -266.8311 0 114.1297
v -266.0385 0 115.4507
v -266.8311 0 115.4507
v -246.4885 0 114.1297
v -247.5453 0 114.1297
v -246.4885 0 115.4507
v -247.5453 0 115.4507
v -247.8095 0 113.8655
v -248.602 0 113.8655
v -247.8095 0 115.1865
v -248.602 0 115.1865
v -264.4534 0 113.8655
v -265.246 0 113.8655
v -264.4534 0 114.9223
v -265.246 0 114.9223
v -267.3595 0 113.6014
v -268.152 0 113.6014
v -267.3595 0 114.6581
v -268.152 0 114.6581
v -269.473 0 113.6014
v -270.2656 0 113.6014
v -269.473 0 114.9223
v -270.2656 0 114.9223
v -245.1676 0 113.6014
v -245.9601 0 113.6014
v -245.1676 0 114.6581
v -245.9601 0 114.6581
v -246.2243 0 113.073
v -247.0169 0 113.073
v -246.2243 0 114.3939
v -247.0169 0 114.3939
v -266.5669 0 113.3372
v -267.3595 0 113.3372
v -266.5669 0 114.3939
v -267.3595 0 114.3939
v -242.7899 0 113.073
v -243.5824 0 113.073
v -242.7899 0 114.1297
v -243.5824 0 114.1297
vt 0 0.9058824
vt 0.06666667 0.9058824
vt 0 1
vt 0.06666667 1
vt 0 0.9058824
vt 0.06666667 0.9058824
vt 0 1
vt 0.06666667 1
vt 0 0.9058824
vt 0.06666667 0.9058824
vt 0 1
vt 0.06666667 1
vt 0 0.9058824
vt 0.06666667 0.9058824
vt 0 1
vt 0.06666667 1
vt 0 0.9058824
vt 0.06666667 0.9058824
vt 0 1
vt 0.06666667 1
vt 0 0.9058824
vt 0.06666667 0.9058824
vt 0 1
vt 0.06666667 1
vt 0 0.9058824
vt 0.06666667 0.9058824
vt 0 1
vt 0.06666667 1
vt 0 0.9058824
vt 0.06666667 0.9058824
vt 0 1
vt 0.06666667 1
vt 0 0.9058824
vt 0.06666667 0.9058824
vt 0 1
vt 0.06666667 1
vt 0 0.9058824
vt 0.06666667 0.9058824
vt 0 1
vt 0.06666667 1
vt 0 0.9058824
vt 0.06666667 0.9058824
vt 0 1
vt 0.06666667 1
vt 0 0.9058824
vt 0.06666667 0.9058824
vt 0 1
vt 0.06666667 1
vt 0 0.9058824
vt 0.06666667 0.9058824
vt 0 1
vt 0.06666667 1
vt 0 0.9058824
vt 0.06666667 0.9058824
vt 0 1
vt 0.06666667 1
vt 0 0.9058824
vt 0.06666667 0.9058824
vt 0 1
vt 0.06666667 1
vt 0 0.9058824
vt 0.06666667 0.9058824
vt 0 1
vt 0.06666667 1
vt 0 0.9058824
vt 0.06666667 0.9058824
vt 0 1
vt 0.06666667 1
vt 0 0.9058824
vt 0.06666667 0.9058824
vt 0 1
vt 0.06666667 1
vt 0 0.9058824
vt 0.06666667 0.9058824
vt 0 1
vt 0.06666667 1
vt 0 0.9058824
vt 0.06666667 0.9058824
vt 0 1
vt 0.06666667 1
vt 0 0.9058824
vt 0.06666667 0.9058824
vt 0 1
vt 0.06666667 1
vt 0 0.9058824
vt 0.06666667 0.9058824
vt 0 1
vt 0.06666667 1
vt 0 0.9058824
vt 0.06666667 0.9058824
vt 0 1
vt 0.06666667 1
vt 0 0.9058824
vt 0.06666667 0.9058824
vt 0 1
vt 0.06666667 1
vt 0 0.9058824
vt 0.06666667 0.9058824
vt 0 1
vt 0.06666667 1
vt 0 0.9058824
vt 0.06666667 0.9058824
vt 0 1
vt 0.06666667 1
vt 0 0.9058824
vt 0.06666667 0.9058824
vt 0 1
vt 0.06666667 1
vt 0 0.9058824
vt 0.06666667 0.9058824
vt 0 1
vt 0.06666667 1
vt 0 0.9058824
vt 0.06666667 0.9058824
vt 0 1
vt 0.06666667 1
vt 0 0.9058824
vt 0.06666667 0.9058824
vt 0 1
vt 0.06666667 1
vt 0 0.9058824
vt 0.06666667 0.9058824
vt 0 1
vt 0.06666667 1
vt 0 0.9058824
vt 0.06666667 0.9058824
vt 0 1
vt 0.06666667 1
vt 0 0.9058824
vt 0.06666667 0.9058824
vt 0 1
vt 0.06666667 1
vt 0 0.9058824
vt 0.06666667 0.9058824
vt 0 1
vt 0.06666667 1
vt 0 0.9058824
vt 0.06666667 0.9058824
vt 0 1
vt 0.06666667 1
vt 0 0.9058824
vt 0.06666667 0.9058824
vt 0 1
vt 0.06666667 1
vt 0 0.9058824
vt 0.06666667 0.9058824
vt 0 1
vt 0.06666667 1
vt 0 0.9058824
vt 0.06666667 0.9058824
vt 0 1
vt 0.06666667 1
vt 0 0.9058824
vt 0.06666667 0.9058824
vt 0 1
vt 0.06666667 1
vt 0 0.9058824
vt 0.06666667 0.9058824
vt 0 1
vt 0.06666667 1
vt 0 0.9058824
vt 0.06666667 0.9058824
vt 0 1
vt 0.06666667 1
vt 0 0.9058824
vt 0.06666667 0.9058824
vt 0 1
vt 0.06666667 1
vt 0 0.9058824
vt 0.06666667 0.9058824
vt 0 1
vt 0.06666667 1
vt 0 0.9058824
vt 0.06666667 0.9058824
vt 0 1
vt 0.06666667 1
vt 0 0.9058824
vt 0.06666667 0.9058824
vt 0 1
vt 0.06666667 1
vt 0 0.9058824
vt 0.06666667 0.9058824
vt 0 1
vt 0.06666667 1
vt 0 0.9058824
vt 0.06666667 0.9058824
vt 0 1
vt 0.06666667 1
vt 0 0.9058824
vt 0.06666667 0.9058824
vt 0 1
vt 0.06666667 1
vt 0 0.9058824
vt 0.06666667 0.9058824
vt 0 1
vt 0.06666667 1
vt 0 0.9058824
vt 0.06666667 0.9058824
vt 0 1
vt 0.06666667 1
vt 0 0.9058824
vt 0.06666667 0.9058824
vt 0 1
vt 0.06666667 1
vt 0 0.9058824
vt 0.06666667 0.9058824
vt 0 1
vt 0.06666667 1
vt 0 0.9058824
vt 0.06666667 0.9058824
vt 0 1
vt 0.06666667 1
vt 0 0.9058824
vt 0.06666667 0.9058824
vt 0 1
vt 0.06666667 1
vt 0 0.9058824
vt 0.06666667 0.9058824
vt 0 1
vt 0.06666667 1
vt 0 0.9058824
vt 0.06666667 0.9058824
vt 0 1
vt 0.06666667 1
vt 0 0.9058824
vt 0.06666667 0.9058824
vt 0 1
vt 0.06666667 1
vt 0 0.9058824
vt 0.06666667 0.9058824
vt 0 1
vt 0.06666667 1
vt 0 0.9058824
vt 0.06666667 0.9058824
vt 0 1
vt 0.06666667 1
vt 0 0.9058824
vt 0.06666667 0.9058824
vt 0 1
vt 0.06666667 1
vt 0 0.9058824
vt 0.06666667 0.9058824
vt 0 1
vt 0.06666667 1
vt 0 0.9058824
vt 0.06666667 0.9058824
vt 0 1
vt 0.06666667 1
vt 0 0.9058824
vt 0.06666667 0.9058824
vt 0 1
vt 0.06666667 1
vt 0 0.9058824
vt 0.06666667 0.9058824
vt 0 1
vt 0.06666667 1
vt 0 0.9058824
vt 0.06666667 0.9058824
vt 0 1
vt 0.06666667 1
vt 0 0.9058824
vt 0.06666667 0.9058824
vt 0 1
vt 0.06666667 1
vt 0 0.9058824
vt 0.06666667 0.9058824
vt 0 1
vt 0.06666667 1
vn 0 1 0
vn 0 1 0
vn 0 1 0
vn 0 1 0
vn 0 1 0
vn 0 1 0
vn 0 1 0
vn 0 1 0
vn 0 1 0
vn 0 1 0
vn 0 1 0
vn 0 1 0
vn 0 1 0
vn 0 1 0
vn 0 1 0
vn 0 1 0
vn 0 1 0
vn 0 1 0
vn 0 1 0
vn 0 1 0
vn 0 1 0
vn 0 1 0
vn 0 1 0
vn 0 1 0
vn 0 1 0
vn 0 1 0
vn 0 1 0
vn 0 1 0
vn 0 1 0
vn 0 1 0
vn 0 1 0
vn 0 1 0
vn 0 1 0
vn 0 1 0
vn 0 1 0
vn 0 1 0
vn 0 1 0
vn 0 1 0
vn 0 1 0
vn 0 1 0
vn 0 1 0
vn 0 1 0
vn 0 1 0
vn 0 1 0
vn 0 1 0
vn 0 1 0
vn 0 1 0
vn 0 1 0
vn 0 1 0
vn 0 1 0
vn 0 1 0
vn 0 1 0
vn 0 1 0
vn 0 1 0
vn 0 1 0
vn 0 1 0
vn 0 1 0
vn 0 1 0
vn 0 1 0
vn 0 1 0
vn 0 1 0
vn 0 1 0
vn 0 1 0
vn 0 1 0
vn 0 1 0
vn 0 1 0
vn 0 1 0
vn 0 1 0
vn 0 1 0
vn 0 1 0
vn 0 1 0
vn 0 1 0
vn 0 1 0
vn 0 1 0
vn 0 1 0
vn 0 1 0
vn 0 1 0
vn 0 1 0
vn 0 1 0
vn 0 1 0
vn 0 1 0
vn 0 1 0
vn 0 1 0
vn 0 1 0
vn 0 1 0
vn 0 1 0
vn 0 1 0
vn 0 1 0
vn 0 1 0
vn 0 1 0
vn 0 1 0
vn 0 1 0
vn 0 1 0
vn 0 1 0
vn 0 1 0
vn 0 1 0
vn 0 1 0
vn 0 1 0
vn 0 1 0
vn 0 1 0
vn 0 1 0
vn 0 1 0
vn 0 1 0
vn 0 1 0
vn 0 1 0
vn 0 1 0
vn 0 1 0
vn 0 1 0
vn 0 1 0
vn 0 1 0
vn 0 1 0
vn 0 1 0
vn 0 1 0
vn 0 1 0
vn 0 1 0
vn 0 1 0
vn 0 1 0
vn 0 1 0
vn 0 1 0
vn 0 1 0
vn 0 1 0
vn 0 1 0
vn 0 1 0
vn 0 1 0
vn 0 1 0
vn 0 1 0
vn 0 1 0
vn 0 1 0
vn 0 1 0
vn 0 1 0
vn 0 1 0
vn 0 1 0
vn 0 1 0
vn 0 1 0
vn 0 1 0
vn 0 1 0
vn 0 1 0
vn 0 1 0
vn 0 1 0
vn 0 1 0
vn 0 1 0
vn 0 1 0
vn 0 1 0
vn 0 1 0
vn 0 1 0
vn 0 1 0
vn 0 1 0
vn 0 1 0
vn 0 1 0
vn 0 1 0
vn 0 1 0
vn 0 1 0
vn 0 1 0
vn 0 1 0
vn 0 1 0
vn 0 1 0
vn 0 1 0
vn 0 1 0
vn 0 1 0
vn 0 1 0
vn 0 1 0
vn 0 1 0
vn 0 1 0
vn 0 1 0
vn 0 1 0
vn 0 1 0
vn 0 1 0
vn 0 1 0
vn 0 1 0
vn 0 1 0
vn 0 1 0
vn 0 1 0
vn 0 1 0
vn 0 1 0
vn 0 1 0
vn 0 1 0
vn 0 1 0
vn 0 1 0
vn 0 1 0
vn 0 1 0
vn 0 1 0
vn 0 1 0
vn 0 1 0
vn 0 1 0
vn 0 1 0
vn 0 1 0
vn 0 1 0
vn 0 1 0
vn 0 1 0
vn 0 1 0
vn 0 1 0
vn 0 1 0
vn 0 1 0
vn 0 1 0
vn 0 1 0
vn 0 1 0
vn 0 1 0
vn 0 1 0
vn 0 1 0
vn 0 1 0
vn 0 1 0
vn 0 1 0
vn 0 1 0
vn 0 1 0
vn 0 1 0
vn 0 1 0
vn 0 1 0
vn 0 1 0
vn 0 1 0
vn 0 1 0
vn 0 1 0
vn 0 1 0
vn 0 1 0
vn 0 1 0
vn 0 1 0
vn 0 1 0
vn 0 1 0
vn 0 1 0
vn 0 1 0
vn 0 1 0
vn 0 1 0
vn 0 1 0
vn 0 1 0
vn 0 1 0
vn 0 1 0
vn 0 1 0
vn 0 1 0
vn 0 1 0
vn 0 1 0
vn 0 1 0
vn 0 1 0
vn 0 1 0
vn 0 1 0
vn 0 1 0
vn 0 1 0
vn 0 1 0
vn 0 1 0
vn 0 1 0
vn 0 1 0
vn 0 1 0
vn 0 1 0
vn 0 1 0
vn 0 1 0
vn 0 1 0
vn 0 1 0
vn 0 1 0
vn 0 1 0
vn 0 1 0
vn 0 1 0
vn 0 1 0
vn 0 1 0
vn 0 1 0
vn 0 1 0
vn 0 1 0
vn 0 1 0
vn 0 1 0
vn 0 1 0
vn 0 1 0
vn 0 1 0
vn 0 1 0
vn 0 1 0
vn 0 1 0
vn 0 1 0
vn 0 1 0
vn 0 1 0
vn 0 1 0
vn 0 1 0
vn 0 1 0
g Grass_0_Cluster118_0
f 2/2/2 3/3/3 1/1/1
f 2/2/2 4/4/4 3/3/3
f 6/6/6 7/7/7 5/5/5
f 6/6/6 8/8/8 7/7/7
f 10/10/10 11/11/11 9/9/9
f 10/10/10 12/12/12 11/11/11
f 14/14/14 15/15/15 13/13/13
f 14/14/14 16/16/16 15/15/15
f 18/18/18 19/19/19 17/17/17
f 18/18/18 20/20/20 19/19/19
f 22/22/22 23/23/23 21/21/21
f 22/22/22 24/24/24 23/23/23
f 26/26/26 27/27/27 25/25/25
f 26/26/26 28/28/28 27/27/27
f 30/30/30 31/31/31 29/29/29
f 30/30/30 32/32/32 31/31/31
f 34/34/34 35/35/35 33/33/33
f 34/34/34 36/36/36 35/35/35
f 38/38/38 39/39/39 37/37/37
f 38/38/38 40/40/40 39/39/39
f 42/42/42 43/43/43 41/41/41
f 42/42/42 44/44/44 43/43/43
f 46/46/46 47/47/47 45/45/45
f 46/46/46 48/48/48 47/47/47
f 50/50/50 51/51/51 49/49/49
f 50/50/50 52/52/52 51/51/51
f 54/54/54 55/55/55 53/53/53
f 54/54/54 56/56/56 55/55/55
f 58/58/58 59/59/59 57/57/57
f 58/58/58 60/60/60 59/59/59
f 62/62/62 63/63/63 61/61/61
f 62/62/62 64/64/64 63/63/63
f 66/66/66 67/67/67 65/65/65
f 66/66/66 68/68/68 67/67/67
f 70/70/70 71/71/71 69/69/69
f 70/70/70 72/72/72 71/71/71
f 74/74/74 75/75/75 73/73/73
f 74/74/74 76/76/76 75/75/75
f 78/78/78 79/79/79 77/77/77
f 78/78/78 80/80/80 79/79/79
f 82/82/82 83/83/83 81/81/81
f 82/82/82 84/84/84 83/83/83
f 86/86/86 87/87/87 85/85/85
f 86/86/86 88/88/88 87/87/87
f 90/90/90 91/91/91 89/89/89
f 90/90/90 92/92/92 91/91/91
f 94/94/94 95/95/95 93/93/93
f 94/94/94 96/96/96 95/95/95
f 98/98/98 99/99/99 97/97/97
f 98/98/98 100/100/100 99/99/99
f 102/102/102 103/103/103 101/101/101
f 102/102/102 104/104/104 103/103/103
f 106/106/106 107/107/107 105/105/105
f 106/106/106 108/108/108 107/107/107
f 110/110/110 111/111/111 109/109/109
f 110/110/110 112/112/112 111/111/111
f 114/114/114 115/115/115 113/113/113
f 114/114/114 116/116/116 115/115/115
f 118/118/118 119/119/119 117/117/117
f 118/118/118 120/120/120 119/119/119
f 122/122/122 123/123/123 121/121/121
f 122/122/122 124/124/124 123/123/123
f 126/126/126 127/127/127 125/125/125
f 126/126/126 128/128/128 127/127/127
f 130/130/130 131/131/131 129/129/129
f 130/130/130 132/132/132 131/131/131
f 134/134/134 135/135/135 133/133/133
f 134/134/134 136/136/136 135/135/135
f 138/138/138 139/139/139 137/137/137
f 138/138/138 140/140/140 139/139/139
f 142/142/142 143/143/143 141/141/141
f 142/142/142 144/144/144 143/143/143
f 146/146/146 147/147/147 145/145/145
f 146/146/146 148/148/148 147/147/147
f 150/150/150 151/151/151 149/149/149
f 150/150/150 152/152/152 151/151/151
f 154/154/154 155/155/155 153/153/153
f 154/154/154 156/156/156 155/155/155
f 158/158/158 159/159/159 157/157/157
f 158/158/158 160/160/160 159/159/159
f 162/162/162 163/163/163 161/161/161
f 162/162/162 164/164/164 163/163/163
f 166/166/166 167/167/167 165/165/165
f 166/166/166 168/168/168 167/167/167
f 170/170/170 171/171/171 169/169/169
f 170/170/170 172/172/172 171/171/171
f 174/174/174 175/175/175 173/173/173
f 174/174/174 176/176/176 175/175/175
f 178/178/178 179/179/179 177/177/177
f 178/178/178 180/180/180 179/179/179
f 182/182/182 183/183/183 181/181/181
f 182/182/182 184/184/184 183/183/183
f 186/186/186 187/187/187 185/185/185
f 186/186/186 188/188/188 187/187/187
f 190/190/190 191/191/191 189/189/189
f 190/190/190 192/192/192 191/191/191
f 194/194/194 195/195/195 193/193/193
f 194/194/194 196/196/196 195/195/195
f 198/198/198 199/199/199 197/197/197
f 198/198/198 200/200/200 199/199/199
f 202/202/202 203/203/203 201/201/201
f 202/202/202 204/204/204 203/203/203
f 206/206/206 207/207/207 205/205/205
f 206/206/206 208/208/208 207/207/207
f 210/210/210 211/211/211 209/209/209
f 210/210/210 212/212/212 211/211/211
f 214/214/214 215/215/215 213/213/213
f 214/214/214 216/216/216 215/215/215
f 218/218/218 219/219/219 217/217/217
f 218/218/218 220/220/220 219/219/219
f 222/222/222 223/223/223 221/221/221
f 222/222/222 224/224/224 223/223/223
f 226/226/226 227/227/227 225/225/225
f 226/226/226 228/228/228 227/227/227
f 230/230/230 231/231/231 229/229/229
f 230/230/230 232/232/232 231/231/231
f 234/234/234 235/235/235 233/233/233
f 234/234/234 236/236/236 235/235/235
f 238/238/238 239/239/239 237/237/237
f 238/238/238 240/240/240 239/239/239
f 242/242/242 243/243/243 241/241/241
f 242/242/242 244/244/244 243/243/243
f 246/246/246 247/247/247 245/245/245
f 246/246/246 248/248/248 247/247/247
f 250/250/250 251/251/251 249/249/249
f 250/250/250 252/252/252 251/251/251
f 254/254/254 255/255/255 253/253/253
f 254/254/254 256/256/256 255/255/255
f 258/258/258 259/259/259 257/257/257
f 258/258/258 260/260/260 259/259/259
f 262/262/262 263/263/263 261/261/261
f 262/262/262 264/264/264 263/263/263
f 266/266/266 267/267/267 265/265/265
f 266/266/266 268/268/268 267/267/267
