g Grass_0_Cluster27
v 75.65122 -0.03845978 22.36127
v 74.88635 -0.03845978 22.36127
v 75.65122 -0.03845978 23.56321
v 74.88635 -0.03845978 23.56321
v 67.23766 -0.03845978 19.62959
v 66.25426 -0.03845978 19.62959
v 67.23766 -0.03845978 20.9408
v 66.25426 -0.03845978 20.9408
v 85.81305 -0.03845978 15.80525
v 84.93892 -0.03845978 15.80525
v 85.81305 -0.03845978 16.89792
v 84.93892 -0.03845978 16.89792
v 87.23352 -0.03845978 14.05698
v 86.46866 -0.03845978 14.05698
v 87.23352 -0.03845978 15.25892
v 86.46866 -0.03845978 15.25892
v 87.12426 -0.03845978 13.07358
v 86.35939 -0.03845978 13.07358
v 87.12426 -0.03845978 14.27551
v 86.35939 -0.03845978 14.27551
v 84.50185 -0.03845978 12.85504
v 83.51845 -0.03845978 12.85504
v 84.50185 -0.03845978 14.16624
v 83.51845 -0.03845978 14.16624
v 83.51845 -0.03845978 12.52724
v 82.64431 -0.03845978 12.52724
v 83.51845 -0.03845978 13.83845
v 82.64431 -0.03845978 13.83845
v 88.21693 -0.03845978 11.10677
v 87.34279 -0.03845978 11.10677
v 88.21693 -0.03845978 12.30871
v 87.34279 -0.03845978 12.30871
v 79.58483 -0.03845978 10.77897
v 78.7107 -0.03845978 10.77897
v 79.58483 -0.03845978 11.9809
v 78.7107 -0.03845978 11.9809
v 61.99285 -0.03845978 7.828758
v 61.00945 -0.03845978 7.828758
v 61.99285 -0.03845978 9.139961
v 61.00945 -0.03845978 9.139961
v 63.95966 -0.03845978 7.391693
v 63.08552 -0.03845978 7.391693
v 63.95966 -0.03845978 8.593628
v 63.08552 -0.03845978 8.593628
v 61.44651 -0.03845978 6.08049
v 60.57238 -0.03845978 6.08049
v 61.44651 -0.03845978 7.391693
v 60.57238 -0.03845978 7.391693
v 63.41332 -0.03845978 4.878548
v 62.53918 -0.03845978 4.878548
v 63.41332 -0.03845978 6.08049
v 62.53918 -0.03845978 6.08049
v 65.81719 -0.03845978 4.441483
v 64.83379 -0.03845978 4.441483
v 65.81719 -0.03845978 5.752686
v 64.83379 -0.03845978 5.752686
v 62.53918 -0.03845978 4.004417
v 61.66505 -0.03845978 4.004417
v 62.53918 -0.03845978 5.31562
v 61.66505 -0.03845978 5.31562
v 64.17819 -0.03845978 3.567345
v 63.41332 -0.03845978 3.567345
v 64.17819 -0.03845978 4.660019
v 63.41332 -0.03845978 4.660019
v 62.53918 -0.03845978 3.021011
v 61.77431 -0.03845978 3.021011
v 62.53918 -0.03845978 4.113686
v 61.77431 -0.03845978 4.113686
v 63.08552 -0.03845978 -0.2569962
v 62.10212 -0.03845978 -0.2569962
v 63.08552 -0.03845978 0.9449387
v 62.10212 -0.03845978 0.9449387
v 84.39258 -0.03845978 -2.551605
v 83.51845 -0.03845978 -2.551605
v 84.39258 -0.03845978 -1.34967
v 83.51845 -0.03845978 -1.34967
vt 0 0.9058824
vt 0.06666667 0.9058824
vt 0 1
vt 0.06666667 1
vt 0 0.9058824
vt 0.06666667 0.9058824
vt 0 1
vt 0.06666667 1
vt 0 0.9058824
vt 0.06666667 0.9058824
vt 0 1
vt 0.06666667 1
vt 0 0.9058824
vt 0.06666667 0.9058824
vt 0 1
vt 0.06666667 1
vt 0 0.9058824
vt 0.06666667 0.9058824
vt 0 1
vt 0.06666667 1
vt 0 0.9058824
vt 0.06666667 0.9058824
vt 0 1
vt 0.06666667 1
vt 0 0.9058824
vt 0.06666667 0.9058824
vt 0 1
vt 0.06666667 1
vt 0 0.9058824
vt 0.06666667 0.9058824
vt 0 1
vt 0.06666667 1
vt 0 0.9058824
vt 0.06666667 0.9058824
vt 0 1
vt 0.06666667 1
vt 0 0.9058824
vt 0.06666667 0.9058824
vt 0 1
vt 0.06666667 1
vt 0 0.9058824
vt 0.06666667 0.9058824
vt 0 1
vt 0.06666667 1
vt 0 0.9058824
vt 0.06666667 0.9058824
vt 0 1
vt 0.06666667 1
vt 0 0.9058824
vt 0.06666667 0.9058824
vt 0 1
vt 0.06666667 1
vt 0 0.9058824
vt 0.06666667 0.9058824
vt 0 1
vt 0.06666667 1
vt 0 0.9058824
vt 0.06666667 0.9058824
vt 0 1
vt 0.06666667 1
vt 0 0.9058824
vt 0.06666667 0.9058824
vt 0 1
vt 0.06666667 1
vt 0 0.9058824
vt 0.06666667 0.9058824
vt 0 1
vt 0.06666667 1
vt 0 0.9058824
vt 0.06666667 0.9058824
vt 0 1
vt 0.06666667 1
vt 0 0.9058824
vt 0.06666667 0.9058824
vt 0 1
vt 0.06666667 1
vn 0 1 0
vn 0 1 0
vn 0 1 0
vn 0 1 0
vn 0 1 0
vn 0 1 0
vn 0 1 0
vn 0 1 0
vn 0 1 0
vn 0 1 0
vn 0 1 0
vn 0 1 0
vn 0 1 0
vn 0 1 0
vn 0 1 0
vn 0 1 0
vn 0 1 0
vn 0 1 0
vn 0 1 0
vn 0 1 0
vn 0 1 0
vn 0 1 0
vn 0 1 0
vn 0 1 0
vn 0 1 0
vn 0 1 0
vn 0 1 0
vn 0 1 0
vn 0 1 0
vn 0 1 0
vn 0 1 0
vn 0 1 0
vn 0 1 0
vn 0 1 0
vn 0 1 0
vn 0 1 0
vn 0 1 0
vn 0 1 0
vn 0 1 0
vn 0 1 0
vn 0 1 0
vn 0 1 0
vn 0 1 0
vn 0 1 0
vn 0 1 0
vn 0 1 0
vn 0 1 0
vn 0 1 0
vn 0 1 0
vn 0 1 0
vn 0 1 0
vn 0 1 0
vn 0 1 0
vn 0 1 0
vn 0 1 0
vn 0 1 0
vn 0 1 0
vn 0 1 0
vn 0 1 0
vn 0 1 0
vn 0 1 0
vn 0 1 0
vn 0 1 0
vn 0 1 0
vn 0 1 0
vn 0 1 0
vn 0 1 0
vn 0 1 0
vn 0 1 0
vn 0 1 0
vn 0 1 0
vn 0 1 0
vn 0 1 0
vn 0 1 0
vn 0 1 0
vn 0 1 0
g Grass_0_Cluster27_0
f 2/2/2 3/3/3 1/1/1
f 2/2/2 4/4/4 3/3/3
f 6/6/6 7/7/7 5/5/5
f 6/6/6 8/8/8 7/7/7
f 10/10/10 11/11/11 9/9/9
f 10/10/10 12/12/12 11/11/11
f 14/14/14 15/15/15 13/13/13
f 14/14/14 16/16/16 15/15/15
f 18/18/18 19/19/19 17/17/17
f 18/18/18 20/20/20 19/19/19
f 22/22/22 23/23/23 21/21/21
f 22/22/22 24/24/24 23/23/23
f 26/26/26 27/27/27 25/25/25
f 26/26/26 28/28/28 27/27/27
f 30/30/30 31/31/31 29/29/29
f 30/30/30 32/32/32 31/31/31
f 34/34/34 35/35/35 33/33/33
f 34/34/34 36/36/36 35/35/35
f 38/38/38 39/39/39 37/37/37
f 38/38/38 40/40/40 39/39/39
f 42/42/42 43/43/43 41/41/41
f 42/42/42 44/44/44 43/43/43
f 46/46/46 47/47/47 45/45/45
f 46/46/46 48/48/48 47/47/47
f 50/50/50 51/51/51 49/49/49
f 50/50/50 52/52/52 51/51/51
f 54/54/54 55/55/55 53/53/53
f 54/54/54 56/56/56 55/55/55
f 58/58/58 59/59/59 57/57/57
f 58/58/58 60/60/60 59/59/59
f 62/62/62 63/63/63 61/61/61
f 62/62/62 64/64/64 63/63/63
f 66/66/66 67/67/67 65/65/65
f 66/66/66 68/68/68 67/67/67
f 70/70/70 71/71/71 69/69/69
f 70/70/70 72/72/72 71/71/71
f 74/74/74 75/75/75 73/73/73
f 74/74/74 76/76/76 75/75/75
