g Grass_1_Cluster321
v 265.6097 0.3295593 472.7885
v 264.8851 0.3295593 472.7885
v 265.6097 0.3295593 473.5131
v 264.8851 0.3295593 473.5131
v 253.291 0.3295593 470.6146
v 252.5664 0.3295593 470.6146
v 253.291 0.3295593 471.3392
v 252.5664 0.3295593 471.3392
v 267.7836 0.3295593 469.1653
v 267.059 0.3295593 469.1653
v 267.7836 0.3295593 469.89
v 267.059 0.3295593 469.89
v 251.1171 0.3295593 451.7742
v 250.3925 0.3295593 451.7742
v 251.1171 0.3295593 453.2234
v 250.3925 0.3295593 453.2234
vt 0.06738281 0.9369141
vt 0.1331457 0.9369141
vt 0.06738281 0.9990234
vt 0.1331457 0.9990234
vt 0.06738281 0.9369141
vt 0.1331457 0.9369141
vt 0.06738281 0.9990234
vt 0.1331457 0.9990234
vt 0.06738281 0.9369141
vt 0.1331457 0.9369141
vt 0.06738281 0.9990234
vt 0.1331457 0.9990234
vt 0.06738281 0.9369141
vt 0.1331457 0.9369141
vt 0.06738281 0.9990234
vt 0.1331457 0.9990234
vn 0 1 0
vn 0 1 0
vn 0 1 0
vn 0 1 0
vn 0 1 0
vn 0 1 0
vn 0 1 0
vn 0 1 0
vn 0 1 0
vn 0 1 0
vn 0 1 0
vn 0 1 0
vn 0 1 0
vn 0 1 0
vn 0 1 0
vn 0 1 0
g Grass_1_Cluster321_0
f 2/2/2 3/3/3 1/1/1
f 2/2/2 4/4/4 3/3/3
f 6/6/6 7/7/7 5/5/5
f 6/6/6 8/8/8 7/7/7
f 10/10/10 11/11/11 9/9/9
f 10/10/10 12/12/12 11/11/11
f 14/14/14 15/15/15 13/13/13
f 14/14/14 16/16/16 15/15/15
