g Grass_0_Cluster280
v 288.1255 0.3088074 408.6929
v 287.4321 0.3088074 408.6929
v 288.1255 0.3088074 410.0797
v 287.4321 0.3088074 410.0797
v 279.8053 0.3088074 407.9996
v 279.1119 0.3088074 407.9996
v 279.8053 0.3088074 409.3863
v 279.1119 0.3088074 409.3863
v 289.5122 0.3088074 406.6129
v 288.1255 0.3088074 406.6129
v 289.5122 0.3088074 407.9996
v 288.1255 0.3088074 407.9996
v 290.8989 0.3088074 406.6129
v 290.2055 0.3088074 406.6129
v 290.8989 0.3088074 407.9996
v 290.2055 0.3088074 407.9996
v 293.6723 0.3088074 405.9195
v 292.9789 0.3088074 405.9195
v 293.6723 0.3088074 407.3062
v 292.9789 0.3088074 407.3062
v 291.5923 0.3088074 405.9195
v 290.2055 0.3088074 405.9195
v 291.5923 0.3088074 407.3062
v 290.2055 0.3088074 407.3062
v 286.7388 0.3088074 405.9195
v 286.0454 0.3088074 405.9195
v 286.7388 0.3088074 407.3062
v 286.0454 0.3088074 407.3062
v 297.8324 0.3088074 405.2262
v 297.1391 0.3088074 405.2262
v 297.8324 0.3088074 406.6129
v 297.1391 0.3088074 406.6129
v 288.8188 0.3088074 405.2262
v 288.1255 0.3088074 405.2262
v 288.8188 0.3088074 406.6129
v 288.1255 0.3088074 406.6129
v 295.7523 0.3088074 405.2262
v 295.059 0.3088074 405.2262
v 295.7523 0.3088074 405.9195
v 295.059 0.3088074 405.9195
v 291.5923 0.3088074 404.5328
v 290.8989 0.3088074 404.5328
v 291.5923 0.3088074 405.9195
v 290.8989 0.3088074 405.9195
v 292.9789 0.3088074 404.5328
v 292.2856 0.3088074 404.5328
v 292.9789 0.3088074 405.9195
v 292.2856 0.3088074 405.9195
v 290.2055 0.3088074 404.5328
v 289.5122 0.3088074 404.5328
v 290.2055 0.3088074 405.9195
v 289.5122 0.3088074 405.9195
v 290.2055 0.3088074 403.8395
v 289.5122 0.3088074 403.8395
v 290.2055 0.3088074 405.2262
v 289.5122 0.3088074 405.2262
v 292.9789 0.3088074 403.1461
v 292.2856 0.3088074 403.1461
v 292.9789 0.3088074 404.5328
v 292.2856 0.3088074 404.5328
v 291.5923 0.3088074 402.4528
v 290.8989 0.3088074 402.4528
v 291.5923 0.3088074 403.8395
v 290.8989 0.3088074 403.8395
v 277.7252 0.3088074 402.4528
v 277.0319 0.3088074 402.4528
v 277.7252 0.3088074 403.8395
v 277.0319 0.3088074 403.8395
v 293.6723 0.3088074 402.4528
v 292.9789 0.3088074 402.4528
v 293.6723 0.3088074 403.8395
v 292.9789 0.3088074 403.8395
v 278.4186 0.3088074 402.4528
v 277.7252 0.3088074 402.4528
v 278.4186 0.3088074 403.1461
v 277.7252 0.3088074 403.1461
v 290.8989 0.3088074 401.7594
v 289.5122 0.3088074 401.7594
v 290.8989 0.3088074 403.1461
v 289.5122 0.3088074 403.1461
v 290.2055 0.3088074 401.7594
v 289.5122 0.3088074 401.7594
v 290.2055 0.3088074 402.4528
v 289.5122 0.3088074 402.4528
v 277.7252 0.3088074 401.066
v 277.0319 0.3088074 401.066
v 277.7252 0.3088074 402.4528
v 277.0319 0.3088074 402.4528
v 288.1255 0.3088074 401.066
v 287.4321 0.3088074 401.066
v 288.1255 0.3088074 401.7594
v 287.4321 0.3088074 401.7594
v 294.3657 0.3088074 400.3727
v 293.6723 0.3088074 400.3727
v 294.3657 0.3088074 401.7594
v 293.6723 0.3088074 401.7594
v 291.5923 0.3088074 399.6794
v 290.8989 0.3088074 399.6794
v 291.5923 0.3088074 401.066
v 290.8989 0.3088074 401.066
v 292.9789 0.3088074 399.6794
v 292.2856 0.3088074 399.6794
v 292.9789 0.3088074 401.066
v 292.2856 0.3088074 401.066
v 297.1391 0.3088074 398.986
v 296.4457 0.3088074 398.986
v 297.1391 0.3088074 400.3727
v 296.4457 0.3088074 400.3727
v 289.5122 0.3088074 398.986
v 288.8188 0.3088074 398.986
v 289.5122 0.3088074 400.3727
v 288.8188 0.3088074 400.3727
v 292.2856 0.3088074 398.2927
v 290.8989 0.3088074 398.2927
v 292.2856 0.3088074 399.6794
v 290.8989 0.3088074 399.6794
v 288.8188 0.3088074 398.2927
v 288.1255 0.3088074 398.2927
v 288.8188 0.3088074 399.6794
v 288.1255 0.3088074 399.6794
v 292.2856 0.3088074 397.5993
v 291.5923 0.3088074 397.5993
v 292.2856 0.3088074 398.986
v 291.5923 0.3088074 398.986
v 291.5923 0.3088074 397.5993
v 290.2055 0.3088074 397.5993
v 291.5923 0.3088074 398.2927
v 290.2055 0.3088074 398.2927
v 292.9789 0.3088074 396.9059
v 292.2856 0.3088074 396.9059
v 292.9789 0.3088074 398.2927
v 292.2856 0.3088074 398.2927
v 289.5122 0.3088074 396.9059
v 288.1255 0.3088074 396.9059
v 289.5122 0.3088074 397.5993
v 288.1255 0.3088074 397.5993
v 290.2055 0.3088074 396.2126
v 289.5122 0.3088074 396.2126
v 290.2055 0.3088074 397.5993
v 289.5122 0.3088074 397.5993
v 287.4321 0.3088074 396.2126
v 286.7388 0.3088074 396.2126
v 287.4321 0.3088074 397.5993
v 286.7388 0.3088074 397.5993
v 294.3657 0.3088074 396.2126
v 293.6723 0.3088074 396.2126
v 294.3657 0.3088074 397.5993
v 293.6723 0.3088074 397.5993
v 286.7388 0.3088074 395.5192
v 286.0454 0.3088074 395.5192
v 286.7388 0.3088074 396.9059
v 286.0454 0.3088074 396.9059
v 290.8989 0.3088074 395.5192
v 290.2055 0.3088074 395.5192
v 290.8989 0.3088074 396.9059
v 290.2055 0.3088074 396.9059
v 291.5923 0.3088074 395.5192
v 290.8989 0.3088074 395.5192
v 291.5923 0.3088074 396.9059
v 290.8989 0.3088074 396.9059
v 288.8188 0.3088074 395.5192
v 288.1255 0.3088074 395.5192
v 288.8188 0.3088074 396.2126
v 288.1255 0.3088074 396.2126
v 284.6587 0.3088074 394.8259
v 283.9654 0.3088074 394.8259
v 284.6587 0.3088074 396.2126
v 283.9654 0.3088074 396.2126
v 288.1255 0.3088074 394.8259
v 287.4321 0.3088074 394.8259
v 288.1255 0.3088074 396.2126
v 287.4321 0.3088074 396.2126
v 291.5923 0.3088074 394.8259
v 290.8989 0.3088074 394.8259
v 291.5923 0.3088074 395.5192
v 290.8989 0.3088074 395.5192
v 290.8989 0.3088074 394.1326
v 289.5122 0.3088074 394.1326
v 290.8989 0.3088074 395.5192
v 289.5122 0.3088074 395.5192
v 287.4321 0.3088074 393.4392
v 286.0454 0.3088074 393.4392
v 287.4321 0.3088074 394.8259
v 286.0454 0.3088074 394.8259
v 285.3521 0.3088074 393.4392
v 284.6587 0.3088074 393.4392
v 285.3521 0.3088074 394.1326
v 284.6587 0.3088074 394.1326
v 271.485 0.3088074 392.7458
v 270.7917 0.3088074 392.7458
v 271.485 0.3088074 394.1326
v 270.7917 0.3088074 394.1326
v 288.1255 0.3088074 392.7458
v 287.4321 0.3088074 392.7458
v 288.1255 0.3088074 394.1326
v 287.4321 0.3088074 394.1326
v 287.4321 0.3088074 392.7458
v 286.7388 0.3088074 392.7458
v 287.4321 0.3088074 393.4392
v 286.7388 0.3088074 393.4392
v 288.1255 0.3088074 392.0525
v 287.4321 0.3088074 392.0525
v 288.1255 0.3088074 393.4392
v 287.4321 0.3088074 393.4392
v 286.7388 0.3088074 390.6658
v 285.3521 0.3088074 390.6658
v 286.7388 0.3088074 392.0525
v 285.3521 0.3088074 392.0525
v 288.1255 0.3088074 389.9724
v 287.4321 0.3088074 389.9724
v 288.1255 0.3088074 391.3591
v 287.4321 0.3088074 391.3591
v 270.7917 0.3088074 385.8123
v 270.0984 0.3088074 385.8123
v 270.7917 0.3088074 387.199
v 270.0984 0.3088074 387.199
v 270.7917 0.3088074 384.4256
v 269.405 0.3088074 384.4256
v 270.7917 0.3088074 385.8123
v 269.405 0.3088074 385.8123
v 270.7917 0.3088074 383.0389
v 269.405 0.3088074 383.0389
v 270.7917 0.3088074 384.4256
v 269.405 0.3088074 384.4256
v 299.2191 0.3088074 383.0389
v 298.5258 0.3088074 383.0389
v 299.2191 0.3088074 384.4256
v 298.5258 0.3088074 384.4256
vt 0 0.9058824
vt 0.06666667 0.9058824
vt 0 1
vt 0.06666667 1
vt 0 0.9058824
vt 0.06666667 0.9058824
vt 0 1
vt 0.06666667 1
vt 0 0.9058824
vt 0.06666667 0.9058824
vt 0 1
vt 0.06666667 1
vt 0 0.9058824
vt 0.06666667 0.9058824
vt 0 1
vt 0.06666667 1
vt 0 0.9058824
vt 0.06666667 0.9058824
vt 0 1
vt 0.06666667 1
vt 0 0.9058824
vt 0.06666667 0.9058824
vt 0 1
vt 0.06666667 1
vt 0 0.9058824
vt 0.06666667 0.9058824
vt 0 1
vt 0.06666667 1
vt 0 0.9058824
vt 0.06666667 0.9058824
vt 0 1
vt 0.06666667 1
vt 0 0.9058824
vt 0.06666667 0.9058824
vt 0 1
vt 0.06666667 1
vt 0 0.9058824
vt 0.06666667 0.9058824
vt 0 1
vt 0.06666667 1
vt 0 0.9058824
vt 0.06666667 0.9058824
vt 0 1
vt 0.06666667 1
vt 0 0.9058824
vt 0.06666667 0.9058824
vt 0 1
vt 0.06666667 1
vt 0 0.9058824
vt 0.06666667 0.9058824
vt 0 1
vt 0.06666667 1
vt 0 0.9058824
vt 0.06666667 0.9058824
vt 0 1
vt 0.06666667 1
vt 0 0.9058824
vt 0.06666667 0.9058824
vt 0 1
vt 0.06666667 1
vt 0 0.9058824
vt 0.06666667 0.9058824
vt 0 1
vt 0.06666667 1
vt 0 0.9058824
vt 0.06666667 0.9058824
vt 0 1
vt 0.06666667 1
vt 0 0.9058824
vt 0.06666667 0.9058824
vt 0 1
vt 0.06666667 1
vt 0 0.9058824
vt 0.06666667 0.9058824
vt 0 1
vt 0.06666667 1
vt 0 0.9058824
vt 0.06666667 0.9058824
vt 0 1
vt 0.06666667 1
vt 0 0.9058824
vt 0.06666667 0.9058824
vt 0 1
vt 0.06666667 1
vt 0 0.9058824
vt 0.06666667 0.9058824
vt 0 1
vt 0.06666667 1
vt 0 0.9058824
vt 0.06666667 0.9058824
vt 0 1
vt 0.06666667 1
vt 0 0.9058824
vt 0.06666667 0.9058824
vt 0 1
vt 0.06666667 1
vt 0 0.9058824
vt 0.06666667 0.9058824
vt 0 1
vt 0.06666667 1
vt 0 0.9058824
vt 0.06666667 0.9058824
vt 0 1
vt 0.06666667 1
vt 0 0.9058824
vt 0.06666667 0.9058824
vt 0 1
vt 0.06666667 1
vt 0 0.9058824
vt 0.06666667 0.9058824
vt 0 1
vt 0.06666667 1
vt 0 0.9058824
vt 0.06666667 0.9058824
vt 0 1
vt 0.06666667 1
vt 0 0.9058824
vt 0.06666667 0.9058824
vt 0 1
vt 0.06666667 1
vt 0 0.9058824
vt 0.06666667 0.9058824
vt 0 1
vt 0.06666667 1
vt 0 0.9058824
vt 0.06666667 0.9058824
vt 0 1
vt 0.06666667 1
vt 0 0.9058824
vt 0.06666667 0.9058824
vt 0 1
vt 0.06666667 1
vt 0 0.9058824
vt 0.06666667 0.9058824
vt 0 1
vt 0.06666667 1
vt 0 0.9058824
vt 0.06666667 0.9058824
vt 0 1
vt 0.06666667 1
vt 0 0.9058824
vt 0.06666667 0.9058824
vt 0 1
vt 0.06666667 1
vt 0 0.9058824
vt 0.06666667 0.9058824
vt 0 1
vt 0.06666667 1
vt 0 0.9058824
vt 0.06666667 0.9058824
vt 0 1
vt 0.06666667 1
vt 0 0.9058824
vt 0.06666667 0.9058824
vt 0 1
vt 0.06666667 1
vt 0 0.9058824
vt 0.06666667 0.9058824
vt 0 1
vt 0.06666667 1
vt 0 0.9058824
vt 0.06666667 0.9058824
vt 0 1
vt 0.06666667 1
vt 0 0.9058824
vt 0.06666667 0.9058824
vt 0 1
vt 0.06666667 1
vt 0 0.9058824
vt 0.06666667 0.9058824
vt 0 1
vt 0.06666667 1
vt 0 0.9058824
vt 0.06666667 0.9058824
vt 0 1
vt 0.06666667 1
vt 0 0.9058824
vt 0.06666667 0.9058824
vt 0 1
vt 0.06666667 1
vt 0 0.9058824
vt 0.06666667 0.9058824
vt 0 1
vt 0.06666667 1
vt 0 0.9058824
vt 0.06666667 0.9058824
vt 0 1
vt 0.06666667 1
vt 0 0.9058824
vt 0.06666667 0.9058824
vt 0 1
vt 0.06666667 1
vt 0 0.9058824
vt 0.06666667 0.9058824
vt 0 1
vt 0.06666667 1
vt 0 0.9058824
vt 0.06666667 0.9058824
vt 0 1
vt 0.06666667 1
vt 0 0.9058824
vt 0.06666667 0.9058824
vt 0 1
vt 0.06666667 1
vt 0 0.9058824
vt 0.06666667 0.9058824
vt 0 1
vt 0.06666667 1
vt 0 0.9058824
vt 0.06666667 0.9058824
vt 0 1
vt 0.06666667 1
vt 0 0.9058824
vt 0.06666667 0.9058824
vt 0 1
vt 0.06666667 1
vt 0 0.9058824
vt 0.06666667 0.9058824
vt 0 1
vt 0.06666667 1
vt 0 0.9058824
vt 0.06666667 0.9058824
vt 0 1
vt 0.06666667 1
vt 0 0.9058824
vt 0.06666667 0.9058824
vt 0 1
vt 0.06666667 1
vn 0 1 0
vn 0 1 0
vn 0 1 0
vn 0 1 0
vn 0 1 0
vn 0 1 0
vn 0 1 0
vn 0 1 0
vn 0 1 0
vn 0 1 0
vn 0 1 0
vn 0 1 0
vn 0 1 0
vn 0 1 0
vn 0 1 0
vn 0 1 0
vn 0 1 0
vn 0 1 0
vn 0 1 0
vn 0 1 0
vn 0 1 0
vn 0 1 0
vn 0 1 0
vn 0 1 0
vn 0 1 0
vn 0 1 0
vn 0 1 0
vn 0 1 0
vn 0 1 0
vn 0 1 0
vn 0 1 0
vn 0 1 0
vn 0 1 0
vn 0 1 0
vn 0 1 0
vn 0 1 0
vn 0 1 0
vn 0 1 0
vn 0 1 0
vn 0 1 0
vn 0 1 0
vn 0 1 0
vn 0 1 0
vn 0 1 0
vn 0 1 0
vn 0 1 0
vn 0 1 0
vn 0 1 0
vn 0 1 0
vn 0 1 0
vn 0 1 0
vn 0 1 0
vn 0 1 0
vn 0 1 0
vn 0 1 0
vn 0 1 0
vn 0 1 0
vn 0 1 0
vn 0 1 0
vn 0 1 0
vn 0 1 0
vn 0 1 0
vn 0 1 0
vn 0 1 0
vn 0 1 0
vn 0 1 0
vn 0 1 0
vn 0 1 0
vn 0 1 0
vn 0 1 0
vn 0 1 0
vn 0 1 0
vn 0 1 0
vn 0 1 0
vn 0 1 0
vn 0 1 0
vn 0 1 0
vn 0 1 0
vn 0 1 0
vn 0 1 0
vn 0 1 0
vn 0 1 0
vn 0 1 0
vn 0 1 0
vn 0 1 0
vn 0 1 0
vn 0 1 0
vn 0 1 0
vn 0 1 0
vn 0 1 0
vn 0 1 0
vn 0 1 0
vn 0 1 0
vn 0 1 0
vn 0 1 0
vn 0 1 0
vn 0 1 0
vn 0 1 0
vn 0 1 0
vn 0 1 0
vn 0 1 0
vn 0 1 0
vn 0 1 0
vn 0 1 0
vn 0 1 0
vn 0 1 0
vn 0 1 0
vn 0 1 0
vn 0 1 0
vn 0 1 0
vn 0 1 0
vn 0 1 0
vn 0 1 0
vn 0 1 0
vn 0 1 0
vn 0 1 0
vn 0 1 0
vn 0 1 0
vn 0 1 0
vn 0 1 0
vn 0 1 0
vn 0 1 0
vn 0 1 0
vn 0 1 0
vn 0 1 0
vn 0 1 0
vn 0 1 0
vn 0 1 0
vn 0 1 0
vn 0 1 0
vn 0 1 0
vn 0 1 0
vn 0 1 0
vn 0 1 0
vn 0 1 0
vn 0 1 0
vn 0 1 0
vn 0 1 0
vn 0 1 0
vn 0 1 0
vn 0 1 0
vn 0 1 0
vn 0 1 0
vn 0 1 0
vn 0 1 0
vn 0 1 0
vn 0 1 0
vn 0 1 0
vn 0 1 0
vn 0 1 0
vn 0 1 0
vn 0 1 0
vn 0 1 0
vn 0 1 0
vn 0 1 0
vn 0 1 0
vn 0 1 0
vn 0 1 0
vn 0 1 0
vn 0 1 0
vn 0 1 0
vn 0 1 0
vn 0 1 0
vn 0 1 0
vn 0 1 0
vn 0 1 0
vn 0 1 0
vn 0 1 0
vn 0 1 0
vn 0 1 0
vn 0 1 0
vn 0 1 0
vn 0 1 0
vn 0 1 0
vn 0 1 0
vn 0 1 0
vn 0 1 0
vn 0 1 0
vn 0 1 0
vn 0 1 0
vn 0 1 0
vn 0 1 0
vn 0 1 0
vn 0 1 0
vn 0 1 0
vn 0 1 0
vn 0 1 0
vn 0 1 0
vn 0 1 0
vn 0 1 0
vn 0 1 0
vn 0 1 0
vn 0 1 0
vn 0 1 0
vn 0 1 0
vn 0 1 0
vn 0 1 0
vn 0 1 0
vn 0 1 0
vn 0 1 0
vn 0 1 0
vn 0 1 0
vn 0 1 0
vn 0 1 0
vn 0 1 0
vn 0 1 0
vn 0 1 0
vn 0 1 0
vn 0 1 0
vn 0 1 0
vn 0 1 0
vn 0 1 0
vn 0 1 0
vn 0 1 0
vn 0 1 0
vn 0 1 0
vn 0 1 0
vn 0 1 0
vn 0 1 0
vn 0 1 0
vn 0 1 0
vn 0 1 0
vn 0 1 0
vn 0 1 0
vn 0 1 0
vn 0 1 0
vn 0 1 0
vn 0 1 0
g Grass_0_Cluster280_0
f 2/2/2 3/3/3 1/1/1
f 2/2/2 4/4/4 3/3/3
f 6/6/6 7/7/7 5/5/5
f 6/6/6 8/8/8 7/7/7
f 10/10/10 11/11/11 9/9/9
f 10/10/10 12/12/12 11/11/11
f 14/14/14 15/15/15 13/13/13
f 14/14/14 16/16/16 15/15/15
f 18/18/18 19/19/19 17/17/17
f 18/18/18 20/20/20 19/19/19
f 22/22/22 23/23/23 21/21/21
f 22/22/22 24/24/24 23/23/23
f 26/26/26 27/27/27 25/25/25
f 26/26/26 28/28/28 27/27/27
f 30/30/30 31/31/31 29/29/29
f 30/30/30 32/32/32 31/31/31
f 34/34/34 35/35/35 33/33/33
f 34/34/34 36/36/36 35/35/35
f 38/38/38 39/39/39 37/37/37
f 38/38/38 40/40/40 39/39/39
f 42/42/42 43/43/43 41/41/41
f 42/42/42 44/44/44 43/43/43
f 46/46/46 47/47/47 45/45/45
f 46/46/46 48/48/48 47/47/47
f 50/50/50 51/51/51 49/49/49
f 50/50/50 52/52/52 51/51/51
f 54/54/54 55/55/55 53/53/53
f 54/54/54 56/56/56 55/55/55
f 58/58/58 59/59/59 57/57/57
f 58/58/58 60/60/60 59/59/59
f 62/62/62 63/63/63 61/61/61
f 62/62/62 64/64/64 63/63/63
f 66/66/66 67/67/67 65/65/65
f 66/66/66 68/68/68 67/67/67
f 70/70/70 71/71/71 69/69/69
f 70/70/70 72/72/72 71/71/71
f 74/74/74 75/75/75 73/73/73
f 74/74/74 76/76/76 75/75/75
f 78/78/78 79/79/79 77/77/77
f 78/78/78 80/80/80 79/79/79
f 82/82/82 83/83/83 81/81/81
f 82/82/82 84/84/84 83/83/83
f 86/86/86 87/87/87 85/85/85
f 86/86/86 88/88/88 87/87/87
f 90/90/90 91/91/91 89/89/89
f 90/90/90 92/92/92 91/91/91
f 94/94/94 95/95/95 93/93/93
f 94/94/94 96/96/96 95/95/95
f 98/98/98 99/99/99 97/97/97
f 98/98/98 100/100/100 99/99/99
f 102/102/102 103/103/103 101/101/101
f 102/102/102 104/104/104 103/103/103
f 106/106/106 107/107/107 105/105/105
f 106/106/106 108/108/108 107/107/107
f 110/110/110 111/111/111 109/109/109
f 110/110/110 112/112/112 111/111/111
f 114/114/114 115/115/115 113/113/113
f 114/114/114 116/116/116 115/115/115
f 118/118/118 119/119/119 117/117/117
f 118/118/118 120/120/120 119/119/119
f 122/122/122 123/123/123 121/121/121
f 122/122/122 124/124/124 123/123/123
f 126/126/126 127/127/127 125/125/125
f 126/126/126 128/128/128 127/127/127
f 130/130/130 131/131/131 129/129/129
f 130/130/130 132/132/132 131/131/131
f 134/134/134 135/135/135 133/133/133
f 134/134/134 136/136/136 135/135/135
f 138/138/138 139/139/139 137/137/137
f 138/138/138 140/140/140 139/139/139
f 142/142/142 143/143/143 141/141/141
f 142/142/142 144/144/144 143/143/143
f 146/146/146 147/147/147 145/145/145
f 146/146/146 148/148/148 147/147/147
f 150/150/150 151/151/151 149/149/149
f 150/150/150 152/152/152 151/151/151
f 154/154/154 155/155/155 153/153/153
f 154/154/154 156/156/156 155/155/155
f 158/158/158 159/159/159 157/157/157
f 158/158/158 160/160/160 159/159/159
f 162/162/162 163/163/163 161/161/161
f 162/162/162 164/164/164 163/163/163
f 166/166/166 167/167/167 165/165/165
f 166/166/166 168/168/168 167/167/167
f 170/170/170 171/171/171 169/169/169
f 170/170/170 172/172/172 171/171/171
f 174/174/174 175/175/175 173/173/173
f 174/174/174 176/176/176 175/175/175
f 178/178/178 179/179/179 177/177/177
f 178/178/178 180/180/180 179/179/179
f 182/182/182 183/183/183 181/181/181
f 182/182/182 184/184/184 183/183/183
f 186/186/186 187/187/187 185/185/185
f 186/186/186 188/188/188 187/187/187
f 190/190/190 191/191/191 189/189/189
f 190/190/190 192/192/192 191/191/191
f 194/194/194 195/195/195 193/193/193
f 194/194/194 196/196/196 195/195/195
f 198/198/198 199/199/199 197/197/197
f 198/198/198 200/200/200 199/199/199
f 202/202/202 203/203/203 201/201/201
f 202/202/202 204/204/204 203/203/203
f 206/206/206 207/207/207 205/205/205
f 206/206/206 208/208/208 207/207/207
f 210/210/210 211/211/211 209/209/209
f 210/210/210 212/212/212 211/211/211
f 214/214/214 215/215/215 213/213/213
f 214/214/214 216/216/216 215/215/215
f 218/218/218 219/219/219 217/217/217
f 218/218/218 220/220/220 219/219/219
f 222/222/222 223/223/223 221/221/221
f 222/222/222 224/224/224 223/223/223
f 226/226/226 227/227/227 225/225/225
f 226/226/226 228/228/228 227/227/227
