g Grass_0_Cluster245
v 140.4388 -0.1391144 351.1007
v 139.4577 -0.1391144 351.1007
v 140.4388 -0.1391144 352.0818
v 139.4577 -0.1391144 352.0818
v 147.7972 -0.1391144 350.1196
v 147.3066 -0.1391144 350.1196
v 147.7972 -0.1391144 351.1007
v 147.3066 -0.1391144 351.1007
v 139.4577 -0.1391144 349.1384
v 138.4766 -0.1391144 349.1384
v 139.4577 -0.1391144 350.6101
v 138.4766 -0.1391144 350.6101
v 141.4199 -0.1391144 349.1384
v 140.4388 -0.1391144 349.1384
v 141.4199 -0.1391144 350.1196
v 140.4388 -0.1391144 350.1196
v 134.5521 -0.1391144 347.6667
v 134.0616 -0.1391144 347.6667
v 134.5521 -0.1391144 348.6479
v 134.0616 -0.1391144 348.6479
v 130.1371 -0.1391144 346.6857
v 129.156 -0.1391144 346.6857
v 130.1371 -0.1391144 347.6667
v 129.156 -0.1391144 347.6667
v 138.9671 -0.1391144 346.6857
v 137.986 -0.1391144 346.6857
v 138.9671 -0.1391144 347.6667
v 137.986 -0.1391144 347.6667
v 138.4766 -0.1391144 346.1951
v 137.4955 -0.1391144 346.1951
v 138.4766 -0.1391144 347.1762
v 137.4955 -0.1391144 347.1762
v 128.1749 -0.1391144 345.7045
v 127.1937 -0.1391144 345.7045
v 128.1749 -0.1391144 347.1762
v 127.1937 -0.1391144 347.1762
v 136.5143 -0.1391144 345.7045
v 135.5332 -0.1391144 345.7045
v 136.5143 -0.1391144 347.1762
v 135.5332 -0.1391144 347.1762
v 129.6465 -0.1391144 345.7045
v 128.6654 -0.1391144 345.7045
v 129.6465 -0.1391144 347.1762
v 128.6654 -0.1391144 347.1762
v 136.0238 -0.1391144 345.7045
v 135.0427 -0.1391144 345.7045
v 136.0238 -0.1391144 347.1762
v 135.0427 -0.1391144 347.1762
v 131.6087 -0.1391144 345.7045
v 130.6276 -0.1391144 345.7045
v 131.6087 -0.1391144 346.6857
v 130.6276 -0.1391144 346.6857
v 134.0616 -0.1391144 345.7045
v 133.571 -0.1391144 345.7045
v 134.0616 -0.1391144 346.6857
v 133.571 -0.1391144 346.6857
v 132.0993 -0.1391144 345.214
v 131.1182 -0.1391144 345.214
v 132.0993 -0.1391144 346.6857
v 131.1182 -0.1391144 346.6857
v 137.4955 -0.1391144 345.214
v 136.5143 -0.1391144 345.214
v 137.4955 -0.1391144 346.1951
v 136.5143 -0.1391144 346.1951
v 127.6843 -0.1391144 345.214
v 126.7032 -0.1391144 345.214
v 127.6843 -0.1391144 346.1951
v 126.7032 -0.1391144 346.1951
v 127.6843 -0.1391144 344.7234
v 126.7032 -0.1391144 344.7234
v 127.6843 -0.1391144 346.1951
v 126.7032 -0.1391144 346.1951
v 121.7976 -0.1391144 344.7234
v 120.8165 -0.1391144 344.7234
v 121.7976 -0.1391144 346.1951
v 120.8165 -0.1391144 346.1951
v 138.4766 -0.1391144 344.7234
v 137.4955 -0.1391144 344.7234
v 138.4766 -0.1391144 345.7045
v 137.4955 -0.1391144 345.7045
v 128.6654 -0.1391144 344.7234
v 127.6843 -0.1391144 344.7234
v 128.6654 -0.1391144 345.7045
v 127.6843 -0.1391144 345.7045
v 129.6465 -0.1391144 344.2328
v 128.6654 -0.1391144 344.2328
v 129.6465 -0.1391144 345.7045
v 128.6654 -0.1391144 345.7045
v 140.9294 -0.1391144 344.2328
v 140.4388 -0.1391144 344.2328
v 140.9294 -0.1391144 345.7045
v 140.4388 -0.1391144 345.7045
v 131.1182 -0.1391144 344.2328
v 130.1371 -0.1391144 344.2328
v 131.1182 -0.1391144 345.7045
v 130.1371 -0.1391144 345.7045
v 129.156 -0.1391144 343.7423
v 128.6654 -0.1391144 343.7423
v 129.156 -0.1391144 345.214
v 128.6654 -0.1391144 345.214
v 132.0993 -0.1391144 343.7423
v 131.1182 -0.1391144 343.7423
v 132.0993 -0.1391144 345.214
v 131.1182 -0.1391144 345.214
v 137.4955 -0.1391144 343.7423
v 136.5143 -0.1391144 343.7423
v 137.4955 -0.1391144 344.7234
v 136.5143 -0.1391144 344.7234
v 135.0427 -0.1391144 343.2518
v 134.0616 -0.1391144 343.2518
v 135.0427 -0.1391144 344.7234
v 134.0616 -0.1391144 344.7234
v 137.4955 -0.1391144 343.2518
v 136.5143 -0.1391144 343.2518
v 137.4955 -0.1391144 344.7234
v 136.5143 -0.1391144 344.7234
v 130.6276 -0.1391144 343.2518
v 130.1371 -0.1391144 343.2518
v 130.6276 -0.1391144 344.2328
v 130.1371 -0.1391144 344.2328
v 138.9671 -0.1391144 343.2518
v 137.986 -0.1391144 343.2518
v 138.9671 -0.1391144 344.7234
v 137.986 -0.1391144 344.7234
v 122.7787 -0.1391144 343.2518
v 121.7976 -0.1391144 343.2518
v 122.7787 -0.1391144 344.2328
v 121.7976 -0.1391144 344.2328
v 121.7976 -0.1391144 342.7612
v 120.8165 -0.1391144 342.7612
v 121.7976 -0.1391144 344.2328
v 120.8165 -0.1391144 344.2328
v 127.6843 -0.1391144 342.7612
v 126.7032 -0.1391144 342.7612
v 127.6843 -0.1391144 344.2328
v 126.7032 -0.1391144 344.2328
v 133.571 -0.1391144 342.7612
v 132.5899 -0.1391144 342.7612
v 133.571 -0.1391144 344.2328
v 132.5899 -0.1391144 344.2328
v 123.7598 -0.1391144 342.7612
v 123.2693 -0.1391144 342.7612
v 123.7598 -0.1391144 344.2328
v 123.2693 -0.1391144 344.2328
v 128.6654 -0.1391144 342.2706
v 127.6843 -0.1391144 342.2706
v 128.6654 -0.1391144 343.7423
v 127.6843 -0.1391144 343.7423
v 126.2126 -0.1391144 342.2706
v 125.2315 -0.1391144 342.2706
v 126.2126 -0.1391144 343.7423
v 125.2315 -0.1391144 343.7423
v 142.401 -0.1391144 342.2706
v 141.4199 -0.1391144 342.2706
v 142.401 -0.1391144 343.2518
v 141.4199 -0.1391144 343.2518
v 130.6276 -0.1391144 342.2706
v 129.6465 -0.1391144 342.2706
v 130.6276 -0.1391144 343.2518
v 129.6465 -0.1391144 343.2518
v 128.6654 -0.1391144 341.7801
v 127.6843 -0.1391144 341.7801
v 128.6654 -0.1391144 343.2518
v 127.6843 -0.1391144 343.2518
v 137.0049 -0.1391144 341.7801
v 136.0238 -0.1391144 341.7801
v 137.0049 -0.1391144 342.7612
v 136.0238 -0.1391144 342.7612
v 141.4199 -0.1391144 341.2895
v 140.4388 -0.1391144 341.2895
v 141.4199 -0.1391144 342.2706
v 140.4388 -0.1391144 342.2706
v 133.0804 -0.1391144 340.799
v 132.0993 -0.1391144 340.799
v 133.0804 -0.1391144 342.2706
v 132.0993 -0.1391144 342.2706
v 137.4955 -0.1391144 340.799
v 136.5143 -0.1391144 340.799
v 137.4955 -0.1391144 341.7801
v 136.5143 -0.1391144 341.7801
v 132.5899 -0.1391144 339.8178
v 132.0993 -0.1391144 339.8178
v 132.5899 -0.1391144 341.2895
v 132.0993 -0.1391144 341.2895
v 149.7594 -0.1391144 330.4973
v 148.7783 -0.1391144 330.4973
v 149.7594 -0.1391144 331.9689
v 148.7783 -0.1391144 331.9689
v 131.6087 -0.1391144 328.0444
v 130.6276 -0.1391144 328.0444
v 131.6087 -0.1391144 329.5161
v 130.6276 -0.1391144 329.5161
v 139.9482 -0.1391144 328.0444
v 138.9671 -0.1391144 328.0444
v 139.9482 -0.1391144 329.5161
v 138.9671 -0.1391144 329.5161
v 128.6654 -0.1391144 325.5917
v 127.6843 -0.1391144 325.5917
v 128.6654 -0.1391144 327.0633
v 127.6843 -0.1391144 327.0633
v 133.0804 -0.1391144 325.1011
v 132.0993 -0.1391144 325.1011
v 133.0804 -0.1391144 326.0822
v 132.0993 -0.1391144 326.0822
v 135.0427 -0.1391144 323.1389
v 134.0616 -0.1391144 323.1389
v 135.0427 -0.1391144 324.6105
v 134.0616 -0.1391144 324.6105
vt 0 0.9058824
vt 0.06666667 0.9058824
vt 0 1
vt 0.06666667 1
vt 0 0.9058824
vt 0.06666667 0.9058824
vt 0 1
vt 0.06666667 1
vt 0 0.9058824
vt 0.06666667 0.9058824
vt 0 1
vt 0.06666667 1
vt 0 0.9058824
vt 0.06666667 0.9058824
vt 0 1
vt 0.06666667 1
vt 0 0.9058824
vt 0.06666667 0.9058824
vt 0 1
vt 0.06666667 1
vt 0 0.9058824
vt 0.06666667 0.9058824
vt 0 1
vt 0.06666667 1
vt 0 0.9058824
vt 0.06666667 0.9058824
vt 0 1
vt 0.06666667 1
vt 0 0.9058824
vt 0.06666667 0.9058824
vt 0 1
vt 0.06666667 1
vt 0 0.9058824
vt 0.06666667 0.9058824
vt 0 1
vt 0.06666667 1
vt 0 0.9058824
vt 0.06666667 0.9058824
vt 0 1
vt 0.06666667 1
vt 0 0.9058824
vt 0.06666667 0.9058824
vt 0 1
vt 0.06666667 1
vt 0 0.9058824
vt 0.06666667 0.9058824
vt 0 1
vt 0.06666667 1
vt 0 0.9058824
vt 0.06666667 0.9058824
vt 0 1
vt 0.06666667 1
vt 0 0.9058824
vt 0.06666667 0.9058824
vt 0 1
vt 0.06666667 1
vt 0 0.9058824
vt 0.06666667 0.9058824
vt 0 1
vt 0.06666667 1
vt 0 0.9058824
vt 0.06666667 0.9058824
vt 0 1
vt 0.06666667 1
vt 0 0.9058824
vt 0.06666667 0.9058824
vt 0 1
vt 0.06666667 1
vt 0 0.9058824
vt 0.06666667 0.9058824
vt 0 1
vt 0.06666667 1
vt 0 0.9058824
vt 0.06666667 0.9058824
vt 0 1
vt 0.06666667 1
vt 0 0.9058824
vt 0.06666667 0.9058824
vt 0 1
vt 0.06666667 1
vt 0 0.9058824
vt 0.06666667 0.9058824
vt 0 1
vt 0.06666667 1
vt 0 0.9058824
vt 0.06666667 0.9058824
vt 0 1
vt 0.06666667 1
vt 0 0.9058824
vt 0.06666667 0.9058824
vt 0 1
vt 0.06666667 1
vt 0 0.9058824
vt 0.06666667 0.9058824
vt 0 1
vt 0.06666667 1
vt 0 0.9058824
vt 0.06666667 0.9058824
vt 0 1
vt 0.06666667 1
vt 0 0.9058824
vt 0.06666667 0.9058824
vt 0 1
vt 0.06666667 1
vt 0 0.9058824
vt 0.06666667 0.9058824
vt 0 1
vt 0.06666667 1
vt 0 0.9058824
vt 0.06666667 0.9058824
vt 0 1
vt 0.06666667 1
vt 0 0.9058824
vt 0.06666667 0.9058824
vt 0 1
vt 0.06666667 1
vt 0 0.9058824
vt 0.06666667 0.9058824
vt 0 1
vt 0.06666667 1
vt 0 0.9058824
vt 0.06666667 0.9058824
vt 0 1
vt 0.06666667 1
vt 0 0.9058824
vt 0.06666667 0.9058824
vt 0 1
vt 0.06666667 1
vt 0 0.9058824
vt 0.06666667 0.9058824
vt 0 1
vt 0.06666667 1
vt 0 0.9058824
vt 0.06666667 0.9058824
vt 0 1
vt 0.06666667 1
vt 0 0.9058824
vt 0.06666667 0.9058824
vt 0 1
vt 0.06666667 1
vt 0 0.9058824
vt 0.06666667 0.9058824
vt 0 1
vt 0.06666667 1
vt 0 0.9058824
vt 0.06666667 0.9058824
vt 0 1
vt 0.06666667 1
vt 0 0.9058824
vt 0.06666667 0.9058824
vt 0 1
vt 0.06666667 1
vt 0 0.9058824
vt 0.06666667 0.9058824
vt 0 1
vt 0.06666667 1
vt 0 0.9058824
vt 0.06666667 0.9058824
vt 0 1
vt 0.06666667 1
vt 0 0.9058824
vt 0.06666667 0.9058824
vt 0 1
vt 0.06666667 1
vt 0 0.9058824
vt 0.06666667 0.9058824
vt 0 1
vt 0.06666667 1
vt 0 0.9058824
vt 0.06666667 0.9058824
vt 0 1
vt 0.06666667 1
vt 0 0.9058824
vt 0.06666667 0.9058824
vt 0 1
vt 0.06666667 1
vt 0 0.9058824
vt 0.06666667 0.9058824
vt 0 1
vt 0.06666667 1
vt 0 0.9058824
vt 0.06666667 0.9058824
vt 0 1
vt 0.06666667 1
vt 0 0.9058824
vt 0.06666667 0.9058824
vt 0 1
vt 0.06666667 1
vt 0 0.9058824
vt 0.06666667 0.9058824
vt 0 1
vt 0.06666667 1
vt 0 0.9058824
vt 0.06666667 0.9058824
vt 0 1
vt 0.06666667 1
vt 0 0.9058824
vt 0.06666667 0.9058824
vt 0 1
vt 0.06666667 1
vt 0 0.9058824
vt 0.06666667 0.9058824
vt 0 1
vt 0.06666667 1
vt 0 0.9058824
vt 0.06666667 0.9058824
vt 0 1
vt 0.06666667 1
vn 0 1 0
vn 0 1 0
vn 0 1 0
vn 0 1 0
vn 0 1 0
vn 0 1 0
vn 0 1 0
vn 0 1 0
vn 0 1 0
vn 0 1 0
vn 0 1 0
vn 0 1 0
vn 0 1 0
vn 0 1 0
vn 0 1 0
vn 0 1 0
vn 0 1 0
vn 0 1 0
vn 0 1 0
vn 0 1 0
vn 0 1 0
vn 0 1 0
vn 0 1 0
vn 0 1 0
vn 0 1 0
vn 0 1 0
vn 0 1 0
vn 0 1 0
vn 0 1 0
vn 0 1 0
vn 0 1 0
vn 0 1 0
vn 0 1 0
vn 0 1 0
vn 0 1 0
vn 0 1 0
vn 0 1 0
vn 0 1 0
vn 0 1 0
vn 0 1 0
vn 0 1 0
vn 0 1 0
vn 0 1 0
vn 0 1 0
vn 0 1 0
vn 0 1 0
vn 0 1 0
vn 0 1 0
vn 0 1 0
vn 0 1 0
vn 0 1 0
vn 0 1 0
vn 0 1 0
vn 0 1 0
vn 0 1 0
vn 0 1 0
vn 0 1 0
vn 0 1 0
vn 0 1 0
vn 0 1 0
vn 0 1 0
vn 0 1 0
vn 0 1 0
vn 0 1 0
vn 0 1 0
vn 0 1 0
vn 0 1 0
vn 0 1 0
vn 0 1 0
vn 0 1 0
vn 0 1 0
vn 0 1 0
vn 0 1 0
vn 0 1 0
vn 0 1 0
vn 0 1 0
vn 0 1 0
vn 0 1 0
vn 0 1 0
vn 0 1 0
vn 0 1 0
vn 0 1 0
vn 0 1 0
vn 0 1 0
vn 0 1 0
vn 0 1 0
vn 0 1 0
vn 0 1 0
vn 0 1 0
vn 0 1 0
vn 0 1 0
vn 0 1 0
vn 0 1 0
vn 0 1 0
vn 0 1 0
vn 0 1 0
vn 0 1 0
vn 0 1 0
vn 0 1 0
vn 0 1 0
vn 0 1 0
vn 0 1 0
vn 0 1 0
vn 0 1 0
vn 0 1 0
vn 0 1 0
vn 0 1 0
vn 0 1 0
vn 0 1 0
vn 0 1 0
vn 0 1 0
vn 0 1 0
vn 0 1 0
vn 0 1 0
vn 0 1 0
vn 0 1 0
vn 0 1 0
vn 0 1 0
vn 0 1 0
vn 0 1 0
vn 0 1 0
vn 0 1 0
vn 0 1 0
vn 0 1 0
vn 0 1 0
vn 0 1 0
vn 0 1 0
vn 0 1 0
vn 0 1 0
vn 0 1 0
vn 0 1 0
vn 0 1 0
vn 0 1 0
vn 0 1 0
vn 0 1 0
vn 0 1 0
vn 0 1 0
vn 0 1 0
vn 0 1 0
vn 0 1 0
vn 0 1 0
vn 0 1 0
vn 0 1 0
vn 0 1 0
vn 0 1 0
vn 0 1 0
vn 0 1 0
vn 0 1 0
vn 0 1 0
vn 0 1 0
vn 0 1 0
vn 0 1 0
vn 0 1 0
vn 0 1 0
vn 0 1 0
vn 0 1 0
vn 0 1 0
vn 0 1 0
vn 0 1 0
vn 0 1 0
vn 0 1 0
vn 0 1 0
vn 0 1 0
vn 0 1 0
vn 0 1 0
vn 0 1 0
vn 0 1 0
vn 0 1 0
vn 0 1 0
vn 0 1 0
vn 0 1 0
vn 0 1 0
vn 0 1 0
vn 0 1 0
vn 0 1 0
vn 0 1 0
vn 0 1 0
vn 0 1 0
vn 0 1 0
vn 0 1 0
vn 0 1 0
vn 0 1 0
vn 0 1 0
vn 0 1 0
vn 0 1 0
vn 0 1 0
vn 0 1 0
vn 0 1 0
vn 0 1 0
vn 0 1 0
vn 0 1 0
vn 0 1 0
vn 0 1 0
vn 0 1 0
vn 0 1 0
vn 0 1 0
vn 0 1 0
vn 0 1 0
vn 0 1 0
vn 0 1 0
vn 0 1 0
vn 0 1 0
vn 0 1 0
vn 0 1 0
vn 0 1 0
vn 0 1 0
vn 0 1 0
vn 0 1 0
g Grass_0_Cluster245_0
f 2/2/2 3/3/3 1/1/1
f 2/2/2 4/4/4 3/3/3
f 6/6/6 7/7/7 5/5/5
f 6/6/6 8/8/8 7/7/7
f 10/10/10 11/11/11 9/9/9
f 10/10/10 12/12/12 11/11/11
f 14/14/14 15/15/15 13/13/13
f 14/14/14 16/16/16 15/15/15
f 18/18/18 19/19/19 17/17/17
f 18/18/18 20/20/20 19/19/19
f 22/22/22 23/23/23 21/21/21
f 22/22/22 24/24/24 23/23/23
f 26/26/26 27/27/27 25/25/25
f 26/26/26 28/28/28 27/27/27
f 30/30/30 31/31/31 29/29/29
f 30/30/30 32/32/32 31/31/31
f 34/34/34 35/35/35 33/33/33
f 34/34/34 36/36/36 35/35/35
f 38/38/38 39/39/39 37/37/37
f 38/38/38 40/40/40 39/39/39
f 42/42/42 43/43/43 41/41/41
f 42/42/42 44/44/44 43/43/43
f 46/46/46 47/47/47 45/45/45
f 46/46/46 48/48/48 47/47/47
f 50/50/50 51/51/51 49/49/49
f 50/50/50 52/52/52 51/51/51
f 54/54/54 55/55/55 53/53/53
f 54/54/54 56/56/56 55/55/55
f 58/58/58 59/59/59 57/57/57
f 58/58/58 60/60/60 59/59/59
f 62/62/62 63/63/63 61/61/61
f 62/62/62 64/64/64 63/63/63
f 66/66/66 67/67/67 65/65/65
f 66/66/66 68/68/68 67/67/67
f 70/70/70 71/71/71 69/69/69
f 70/70/70 72/72/72 71/71/71
f 74/74/74 75/75/75 73/73/73
f 74/74/74 76/76/76 75/75/75
f 78/78/78 79/79/79 77/77/77
f 78/78/78 80/80/80 79/79/79
f 82/82/82 83/83/83 81/81/81
f 82/82/82 84/84/84 83/83/83
f 86/86/86 87/87/87 85/85/85
f 86/86/86 88/88/88 87/87/87
f 90/90/90 91/91/91 89/89/89
f 90/90/90 92/92/92 91/91/91
f 94/94/94 95/95/95 93/93/93
f 94/94/94 96/96/96 95/95/95
f 98/98/98 99/99/99 97/97/97
f 98/98/98 100/100/100 99/99/99
f 102/102/102 103/103/103 101/101/101
f 102/102/102 104/104/104 103/103/103
f 106/106/106 107/107/107 105/105/105
f 106/106/106 108/108/108 107/107/107
f 110/110/110 111/111/111 109/109/109
f 110/110/110 112/112/112 111/111/111
f 114/114/114 115/115/115 113/113/113
f 114/114/114 116/116/116 115/115/115
f 118/118/118 119/119/119 117/117/117
f 118/118/118 120/120/120 119/119/119
f 122/122/122 123/123/123 121/121/121
f 122/122/122 124/124/124 123/123/123
f 126/126/126 127/127/127 125/125/125
f 126/126/126 128/128/128 127/127/127
f 130/130/130 131/131/131 129/129/129
f 130/130/130 132/132/132 131/131/131
f 134/134/134 135/135/135 133/133/133
f 134/134/134 136/136/136 135/135/135
f 138/138/138 139/139/139 137/137/137
f 138/138/138 140/140/140 139/139/139
f 142/142/142 143/143/143 141/141/141
f 142/142/142 144/144/144 143/143/143
f 146/146/146 147/147/147 145/145/145
f 146/146/146 148/148/148 147/147/147
f 150/150/150 151/151/151 149/149/149
f 150/150/150 152/152/152 151/151/151
f 154/154/154 155/155/155 153/153/153
f 154/154/154 156/156/156 155/155/155
f 158/158/158 159/159/159 157/157/157
f 158/158/158 160/160/160 159/159/159
f 162/162/162 163/163/163 161/161/161
f 162/162/162 164/164/164 163/163/163
f 166/166/166 167/167/167 165/165/165
f 166/166/166 168/168/168 167/167/167
f 170/170/170 171/171/171 169/169/169
f 170/170/170 172/172/172 171/171/171
f 174/174/174 175/175/175 173/173/173
f 174/174/174 176/176/176 175/175/175
f 178/178/178 179/179/179 177/177/177
f 178/178/178 180/180/180 179/179/179
f 182/182/182 183/183/183 181/181/181
f 182/182/182 184/184/184 183/183/183
f 186/186/186 187/187/187 185/185/185
f 186/186/186 188/188/188 187/187/187
f 190/190/190 191/191/191 189/189/189
f 190/190/190 192/192/192 191/191/191
f 194/194/194 195/195/195 193/193/193
f 194/194/194 196/196/196 195/195/195
f 198/198/198 199/199/199 197/197/197
f 198/198/198 200/200/200 199/199/199
f 202/202/202 203/203/203 201/201/201
f 202/202/202 204/204/204 203/203/203
f 206/206/206 207/207/207 205/205/205
f 206/206/206 208/208/208 207/207/207
