g Grass_2_Cluster68
v 59.52081 0.05758286 82.68047
v 58.67772 0.05758286 82.68047
v 59.52081 0.05758286 83.66406
v 58.67772 0.05758286 83.66406
v 45.60982 0.05758286 76.77882
v 44.76673 0.05758286 76.77882
v 45.60982 0.05758286 77.90294
v 44.76673 0.05758286 77.90294
v 53.47866 0.05758286 76.91934
v 52.49506 0.05758286 76.91934
v 53.47866 0.05758286 78.04346
v 52.49506 0.05758286 78.04346
v 39.14613 0.05758286 76.63831
v 38.30304 0.05758286 76.63831
v 39.14613 0.05758286 77.62192
v 38.30304 0.05758286 77.62192
v 52.07351 0.05758286 76.63831
v 51.08991 0.05758286 76.63831
v 52.07351 0.05758286 77.90294
v 51.08991 0.05758286 77.90294
v 40.83231 0.05758286 76.63831
v 39.8487 0.05758286 76.63831
v 40.83231 0.05758286 77.76244
v 39.8487 0.05758286 77.76244
v 44.90725 0.05758286 76.4978
v 43.92364 0.05758286 76.4978
v 44.90725 0.05758286 77.76244
v 43.92364 0.05758286 77.76244
v 52.77609 0.05758286 76.21677
v 51.933 0.05758286 76.21677
v 52.77609 0.05758286 77.34088
v 51.933 0.05758286 77.34088
v 48.98218 0.05758286 76.21677
v 47.99858 0.05758286 76.21677
v 48.98218 0.05758286 77.20036
v 47.99858 0.05758286 77.20036
v 44.76673 0.05758286 76.07625
v 43.78313 0.05758286 76.07625
v 44.76673 0.05758286 77.05986
v 43.78313 0.05758286 77.05986
v 55.44588 0.05758286 75.79523
v 54.46227 0.05758286 75.79523
v 55.44588 0.05758286 76.77882
v 54.46227 0.05758286 76.77882
v 41.95643 0.05758286 75.79523
v 40.97282 0.05758286 75.79523
v 41.95643 0.05758286 76.91934
v 40.97282 0.05758286 76.91934
v 42.79952 0.05758286 75.65471
v 41.81591 0.05758286 75.65471
v 42.79952 0.05758286 76.77882
v 41.81591 0.05758286 76.77882
v 49.68476 0.05758286 75.51419
v 48.70115 0.05758286 75.51419
v 49.68476 0.05758286 76.4978
v 48.70115 0.05758286 76.4978
v 46.03136 0.05758286 75.23315
v 45.04776 0.05758286 75.23315
v 46.03136 0.05758286 76.35728
v 45.04776 0.05758286 76.35728
v 53.61918 0.05758286 75.23315
v 52.63557 0.05758286 75.23315
v 53.61918 0.05758286 76.35728
v 52.63557 0.05758286 76.35728
v 54.7433 0.05758286 75.09265
v 53.61918 0.05758286 75.09265
v 54.7433 0.05758286 76.21677
v 53.61918 0.05758286 76.21677
v 51.79248 0.05758286 75.09265
v 50.80888 0.05758286 75.09265
v 51.79248 0.05758286 76.07625
v 50.80888 0.05758286 76.07625
v 43.36158 0.05758286 74.95213
v 42.37798 0.05758286 74.95213
v 43.36158 0.05758286 76.07625
v 42.37798 0.05758286 76.07625
v 50.80888 0.05758286 74.95213
v 49.82527 0.05758286 74.95213
v 50.80888 0.05758286 76.07625
v 49.82527 0.05758286 76.07625
v 44.34518 0.05758286 74.81161
v 43.50209 0.05758286 74.81161
v 44.34518 0.05758286 75.79523
v 43.50209 0.05758286 75.79523
v 56.28897 0.05758286 74.81161
v 55.30536 0.05758286 74.81161
v 56.28897 0.05758286 75.93573
v 55.30536 0.05758286 75.93573
v 45.18827 0.05758286 74.6711
v 44.20467 0.05758286 74.6711
v 45.18827 0.05758286 75.65471
v 44.20467 0.05758286 75.65471
v 42.23746 0.05758286 74.6711
v 41.25385 0.05758286 74.6711
v 42.23746 0.05758286 75.79523
v 41.25385 0.05758286 75.79523
v 39.98922 0.05758286 74.39008
v 39.00561 0.05758286 74.39008
v 39.98922 0.05758286 75.51419
v 39.00561 0.05758286 75.51419
v 51.23042 0.05758286 74.24956
v 50.24682 0.05758286 74.24956
v 51.23042 0.05758286 75.51419
v 50.24682 0.05758286 75.51419
v 52.21403 0.05758286 74.24956
v 51.23042 0.05758286 74.24956
v 52.21403 0.05758286 75.23315
v 51.23042 0.05758286 75.23315
v 49.1227 0.05758286 74.24956
v 48.27961 0.05758286 74.24956
v 49.1227 0.05758286 75.23315
v 48.27961 0.05758286 75.23315
v 46.17188 0.05758286 74.10904
v 45.18827 0.05758286 74.10904
v 46.17188 0.05758286 75.23315
v 45.18827 0.05758286 75.23315
v 40.55128 0.05758286 73.96852
v 39.70819 0.05758286 73.96852
v 40.55128 0.05758286 75.09265
v 39.70819 0.05758286 75.09265
v 53.33815 0.05758286 73.96852
v 52.35455 0.05758286 73.96852
v 53.33815 0.05758286 75.09265
v 52.35455 0.05758286 75.09265
v 42.23746 0.05758286 73.6875
v 41.39437 0.05758286 73.6875
v 42.23746 0.05758286 74.81161
v 41.39437 0.05758286 74.81161
v 43.64261 0.05758286 73.54698
v 42.79952 0.05758286 73.54698
v 43.64261 0.05758286 74.53058
v 42.79952 0.05758286 74.53058
v 54.88382 0.05758286 73.54698
v 53.90021 0.05758286 73.54698
v 54.88382 0.05758286 74.81161
v 53.90021 0.05758286 74.81161
v 56.71051 0.05758286 73.26595
v 55.72691 0.05758286 73.26595
v 56.71051 0.05758286 74.39008
v 55.72691 0.05758286 74.39008
v 41.53488 0.05758286 73.26595
v 40.55128 0.05758286 73.26595
v 41.53488 0.05758286 74.39008
v 40.55128 0.05758286 74.39008
v 53.7597 0.05758286 73.26595
v 52.77609 0.05758286 73.26595
v 53.7597 0.05758286 74.24956
v 52.77609 0.05758286 74.24956
v 48.27961 0.05758286 73.26595
v 47.296 0.05758286 73.26595
v 48.27961 0.05758286 74.39008
v 47.296 0.05758286 74.39008
v 45.46931 0.05758286 73.12543
v 44.4857 0.05758286 73.12543
v 45.46931 0.05758286 74.24956
v 44.4857 0.05758286 74.24956
v 42.79952 0.05758286 72.98492
v 41.95643 0.05758286 72.98492
v 42.79952 0.05758286 74.10904
v 41.95643 0.05758286 74.10904
v 44.62621 0.05758286 72.84441
v 43.64261 0.05758286 72.84441
v 44.62621 0.05758286 73.96852
v 43.64261 0.05758286 73.96852
v 55.72691 0.05758286 72.84441
v 54.88382 0.05758286 72.84441
v 55.72691 0.05758286 73.828
v 54.88382 0.05758286 73.828
v 55.02433 0.05758286 72.42285
v 54.04073 0.05758286 72.42285
v 55.02433 0.05758286 73.54698
v 54.04073 0.05758286 73.54698
v 53.05712 0.05758286 72.28235
v 52.07351 0.05758286 72.28235
v 53.05712 0.05758286 73.26595
v 52.07351 0.05758286 73.26595
v 56.71051 0.05758286 71.86079
v 55.72691 0.05758286 71.86079
v 56.71051 0.05758286 72.98492
v 55.72691 0.05758286 72.98492
v 54.04073 0.05758286 71.72028
v 53.05712 0.05758286 71.72028
v 54.04073 0.05758286 72.98492
v 53.05712 0.05758286 72.98492
v 55.30536 0.05758286 71.72028
v 54.32175 0.05758286 71.72028
v 55.30536 0.05758286 72.84441
v 54.32175 0.05758286 72.84441
v 56.00794 0.05758286 71.43925
v 55.16485 0.05758286 71.43925
v 56.00794 0.05758286 72.42285
v 55.16485 0.05758286 72.42285
v 53.19764 0.05758286 71.0177
v 52.35455 0.05758286 71.0177
v 53.19764 0.05758286 72.00131
v 52.35455 0.05758286 72.00131
v 52.77609 0.05758286 71.0177
v 51.79248 0.05758286 71.0177
v 52.77609 0.05758286 72.14183
v 51.79248 0.05758286 72.14183
v 33.10398 0.05758286 70.45564
v 32.12037 0.05758286 70.45564
v 33.10398 0.05758286 71.57977
v 32.12037 0.05758286 71.57977
v 54.46227 0.05758286 70.45564
v 53.61918 0.05758286 70.45564
v 54.46227 0.05758286 71.57977
v 53.61918 0.05758286 71.57977
v 54.46227 0.05758286 69.61255
v 53.61918 0.05758286 69.61255
v 54.46227 0.05758286 70.73668
v 53.61918 0.05758286 70.73668
v 54.32175 0.05758286 69.33153
v 53.33815 0.05758286 69.33153
v 54.32175 0.05758286 70.45564
v 53.33815 0.05758286 70.45564
v 56.42948 0.05758286 68.62895
v 55.44588 0.05758286 68.62895
v 56.42948 0.05758286 69.75307
v 55.44588 0.05758286 69.75307
v 53.90021 0.05758286 67.92638
v 52.9166 0.05758286 67.92638
v 53.90021 0.05758286 69.05049
v 52.9166 0.05758286 69.05049
v 32.26089 0.05758286 63.14886
v 31.27728 0.05758286 63.14886
v 32.26089 0.05758286 64.27298
v 31.27728 0.05758286 64.27298
v 60.08287 0.05758286 55.28001
v 59.09927 0.05758286 55.28001
v 60.08287 0.05758286 56.40413
v 59.09927 0.05758286 56.40413
vt 0.1347656 0.9185662
vt 0.2060202 0.9185662
vt 0.1347656 1
vt 0.2060202 1
vt 0.1347656 0.9185662
vt 0.2060202 0.9185662
vt 0.1347656 1
vt 0.2060202 1
vt 0.1347656 0.9185662
vt 0.2060202 0.9185662
vt 0.1347656 1
vt 0.2060202 1
vt 0.1347656 0.9185662
vt 0.2060202 0.9185662
vt 0.1347656 1
vt 0.2060202 1
vt 0.1347656 0.9185662
vt 0.2060202 0.9185662
vt 0.1347656 1
vt 0.2060202 1
vt 0.1347656 0.9185662
vt 0.2060202 0.9185662
vt 0.1347656 1
vt 0.2060202 1
vt 0.1347656 0.9185662
vt 0.2060202 0.9185662
vt 0.1347656 1
vt 0.2060202 1
vt 0.1347656 0.9185662
vt 0.2060202 0.9185662
vt 0.1347656 1
vt 0.2060202 1
vt 0.1347656 0.9185662
vt 0.2060202 0.9185662
vt 0.1347656 1
vt 0.2060202 1
vt 0.1347656 0.9185662
vt 0.2060202 0.9185662
vt 0.1347656 1
vt 0.2060202 1
vt 0.1347656 0.9185662
vt 0.2060202 0.9185662
vt 0.1347656 1
vt 0.2060202 1
vt 0.1347656 0.9185662
vt 0.2060202 0.9185662
vt 0.1347656 1
vt 0.2060202 1
vt 0.1347656 0.9185662
vt 0.2060202 0.9185662
vt 0.1347656 1
vt 0.2060202 1
vt 0.1347656 0.9185662
vt 0.2060202 0.9185662
vt 0.1347656 1
vt 0.2060202 1
vt 0.1347656 0.9185662
vt 0.2060202 0.9185662
vt 0.1347656 1
vt 0.2060202 1
vt 0.1347656 0.9185662
vt 0.2060202 0.9185662
vt 0.1347656 1
vt 0.2060202 1
vt 0.1347656 0.9185662
vt 0.2060202 0.9185662
vt 0.1347656 1
vt 0.2060202 1
vt 0.1347656 0.9185662
vt 0.2060202 0.9185662
vt 0.1347656 1
vt 0.2060202 1
vt 0.1347656 0.9185662
vt 0.2060202 0.9185662
vt 0.1347656 1
vt 0.2060202 1
vt 0.1347656 0.9185662
vt 0.2060202 0.9185662
vt 0.1347656 1
vt 0.2060202 1
vt 0.1347656 0.9185662
vt 0.2060202 0.9185662
vt 0.1347656 1
vt 0.2060202 1
vt 0.1347656 0.9185662
vt 0.2060202 0.9185662
vt 0.1347656 1
vt 0.2060202 1
vt 0.1347656 0.9185662
vt 0.2060202 0.9185662
vt 0.1347656 1
vt 0.2060202 1
vt 0.1347656 0.9185662
vt 0.2060202 0.9185662
vt 0.1347656 1
vt 0.2060202 1
vt 0.1347656 0.9185662
vt 0.2060202 0.9185662
vt 0.1347656 1
vt 0.2060202 1
vt 0.1347656 0.9185662
vt 0.2060202 0.9185662
vt 0.1347656 1
vt 0.2060202 1
vt 0.1347656 0.9185662
vt 0.2060202 0.9185662
vt 0.1347656 1
vt 0.2060202 1
vt 0.1347656 0.9185662
vt 0.2060202 0.9185662
vt 0.1347656 1
vt 0.2060202 1
vt 0.1347656 0.9185662
vt 0.2060202 0.9185662
vt 0.1347656 1
vt 0.2060202 1
vt 0.1347656 0.9185662
vt 0.2060202 0.9185662
vt 0.1347656 1
vt 0.2060202 1
vt 0.1347656 0.9185662
vt 0.2060202 0.9185662
vt 0.1347656 1
vt 0.2060202 1
vt 0.1347656 0.9185662
vt 0.2060202 0.9185662
vt 0.1347656 1
vt 0.2060202 1
vt 0.1347656 0.9185662
vt 0.2060202 0.9185662
vt 0.1347656 1
vt 0.2060202 1
vt 0.1347656 0.9185662
vt 0.2060202 0.9185662
vt 0.1347656 1
vt 0.2060202 1
vt 0.1347656 0.9185662
vt 0.2060202 0.9185662
vt 0.1347656 1
vt 0.2060202 1
vt 0.1347656 0.9185662
vt 0.2060202 0.9185662
vt 0.1347656 1
vt 0.2060202 1
vt 0.1347656 0.9185662
vt 0.2060202 0.9185662
vt 0.1347656 1
vt 0.2060202 1
vt 0.1347656 0.9185662
vt 0.2060202 0.9185662
vt 0.1347656 1
vt 0.2060202 1
vt 0.1347656 0.9185662
vt 0.2060202 0.9185662
vt 0.1347656 1
vt 0.2060202 1
vt 0.1347656 0.9185662
vt 0.2060202 0.9185662
vt 0.1347656 1
vt 0.2060202 1
vt 0.1347656 0.9185662
vt 0.2060202 0.9185662
vt 0.1347656 1
vt 0.2060202 1
vt 0.1347656 0.9185662
vt 0.2060202 0.9185662
vt 0.1347656 1
vt 0.2060202 1
vt 0.1347656 0.9185662
vt 0.2060202 0.9185662
vt 0.1347656 1
vt 0.2060202 1
vt 0.1347656 0.9185662
vt 0.2060202 0.9185662
vt 0.1347656 1
vt 0.2060202 1
vt 0.1347656 0.9185662
vt 0.2060202 0.9185662
vt 0.1347656 1
vt 0.2060202 1
vt 0.1347656 0.9185662
vt 0.2060202 0.9185662
vt 0.1347656 1
vt 0.2060202 1
vt 0.1347656 0.9185662
vt 0.2060202 0.9185662
vt 0.1347656 1
vt 0.2060202 1
vt 0.1347656 0.9185662
vt 0.2060202 0.9185662
vt 0.1347656 1
vt 0.2060202 1
vt 0.1347656 0.9185662
vt 0.2060202 0.9185662
vt 0.1347656 1
vt 0.2060202 1
vt 0.1347656 0.9185662
vt 0.2060202 0.9185662
vt 0.1347656 1
vt 0.2060202 1
vt 0.1347656 0.9185662
vt 0.2060202 0.9185662
vt 0.1347656 1
vt 0.2060202 1
vt 0.1347656 0.9185662
vt 0.2060202 0.9185662
vt 0.1347656 1
vt 0.2060202 1
vt 0.1347656 0.9185662
vt 0.2060202 0.9185662
vt 0.1347656 1
vt 0.2060202 1
vt 0.1347656 0.9185662
vt 0.2060202 0.9185662
vt 0.1347656 1
vt 0.2060202 1
vt 0.1347656 0.9185662
vt 0.2060202 0.9185662
vt 0.1347656 1
vt 0.2060202 1
vt 0.1347656 0.9185662
vt 0.2060202 0.9185662
vt 0.1347656 1
vt 0.2060202 1
vt 0.1347656 0.9185662
vt 0.2060202 0.9185662
vt 0.1347656 1
vt 0.2060202 1
vt 0.1347656 0.9185662
vt 0.2060202 0.9185662
vt 0.1347656 1
vt 0.2060202 1
vn 0 1 0
vn 0 1 0
vn 0 1 0
vn 0 1 0
vn 0 1 0
vn 0 1 0
vn 0 1 0
vn 0 1 0
vn 0 1 0
vn 0 1 0
vn 0 1 0
vn 0 1 0
vn 0 1 0
vn 0 1 0
vn 0 1 0
vn 0 1 0
vn 0 1 0
vn 0 1 0
vn 0 1 0
vn 0 1 0
vn 0 1 0
vn 0 1 0
vn 0 1 0
vn 0 1 0
vn 0 1 0
vn 0 1 0
vn 0 1 0
vn 0 1 0
vn 0 1 0
vn 0 1 0
vn 0 1 0
vn 0 1 0
vn 0 1 0
vn 0 1 0
vn 0 1 0
vn 0 1 0
vn 0 1 0
vn 0 1 0
vn 0 1 0
vn 0 1 0
vn 0 1 0
vn 0 1 0
vn 0 1 0
vn 0 1 0
vn 0 1 0
vn 0 1 0
vn 0 1 0
vn 0 1 0
vn 0 1 0
vn 0 1 0
vn 0 1 0
vn 0 1 0
vn 0 1 0
vn 0 1 0
vn 0 1 0
vn 0 1 0
vn 0 1 0
vn 0 1 0
vn 0 1 0
vn 0 1 0
vn 0 1 0
vn 0 1 0
vn 0 1 0
vn 0 1 0
vn 0 1 0
vn 0 1 0
vn 0 1 0
vn 0 1 0
vn 0 1 0
vn 0 1 0
vn 0 1 0
vn 0 1 0
vn 0 1 0
vn 0 1 0
vn 0 1 0
vn 0 1 0
vn 0 1 0
vn 0 1 0
vn 0 1 0
vn 0 1 0
vn 0 1 0
vn 0 1 0
vn 0 1 0
vn 0 1 0
vn 0 1 0
vn 0 1 0
vn 0 1 0
vn 0 1 0
vn 0 1 0
vn 0 1 0
vn 0 1 0
vn 0 1 0
vn 0 1 0
vn 0 1 0
vn 0 1 0
vn 0 1 0
vn 0 1 0
vn 0 1 0
vn 0 1 0
vn 0 1 0
vn 0 1 0
vn 0 1 0
vn 0 1 0
vn 0 1 0
vn 0 1 0
vn 0 1 0
vn 0 1 0
vn 0 1 0
vn 0 1 0
vn 0 1 0
vn 0 1 0
vn 0 1 0
vn 0 1 0
vn 0 1 0
vn 0 1 0
vn 0 1 0
vn 0 1 0
vn 0 1 0
vn 0 1 0
vn 0 1 0
vn 0 1 0
vn 0 1 0
vn 0 1 0
vn 0 1 0
vn 0 1 0
vn 0 1 0
vn 0 1 0
vn 0 1 0
vn 0 1 0
vn 0 1 0
vn 0 1 0
vn 0 1 0
vn 0 1 0
vn 0 1 0
vn 0 1 0
vn 0 1 0
vn 0 1 0
vn 0 1 0
vn 0 1 0
vn 0 1 0
vn 0 1 0
vn 0 1 0
vn 0 1 0
vn 0 1 0
vn 0 1 0
vn 0 1 0
vn 0 1 0
vn 0 1 0
vn 0 1 0
vn 0 1 0
vn 0 1 0
vn 0 1 0
vn 0 1 0
vn 0 1 0
vn 0 1 0
vn 0 1 0
vn 0 1 0
vn 0 1 0
vn 0 1 0
vn 0 1 0
vn 0 1 0
vn 0 1 0
vn 0 1 0
vn 0 1 0
vn 0 1 0
vn 0 1 0
vn 0 1 0
vn 0 1 0
vn 0 1 0
vn 0 1 0
vn 0 1 0
vn 0 1 0
vn 0 1 0
vn 0 1 0
vn 0 1 0
vn 0 1 0
vn 0 1 0
vn 0 1 0
vn 0 1 0
vn 0 1 0
vn 0 1 0
vn 0 1 0
vn 0 1 0
vn 0 1 0
vn 0 1 0
vn 0 1 0
vn 0 1 0
vn 0 1 0
vn 0 1 0
vn 0 1 0
vn 0 1 0
vn 0 1 0
vn 0 1 0
vn 0 1 0
vn 0 1 0
vn 0 1 0
vn 0 1 0
vn 0 1 0
vn 0 1 0
vn 0 1 0
vn 0 1 0
vn 0 1 0
vn 0 1 0
vn 0 1 0
vn 0 1 0
vn 0 1 0
vn 0 1 0
vn 0 1 0
vn 0 1 0
vn 0 1 0
vn 0 1 0
vn 0 1 0
vn 0 1 0
vn 0 1 0
vn 0 1 0
vn 0 1 0
vn 0 1 0
vn 0 1 0
vn 0 1 0
vn 0 1 0
vn 0 1 0
vn 0 1 0
vn 0 1 0
vn 0 1 0
vn 0 1 0
vn 0 1 0
vn 0 1 0
vn 0 1 0
vn 0 1 0
vn 0 1 0
vn 0 1 0
vn 0 1 0
g Grass_2_Cluster68_0
f 2/2/2 3/3/3 1/1/1
f 2/2/2 4/4/4 3/3/3
f 6/6/6 7/7/7 5/5/5
f 6/6/6 8/8/8 7/7/7
f 10/10/10 11/11/11 9/9/9
f 10/10/10 12/12/12 11/11/11
f 14/14/14 15/15/15 13/13/13
f 14/14/14 16/16/16 15/15/15
f 18/18/18 19/19/19 17/17/17
f 18/18/18 20/20/20 19/19/19
f 22/22/22 23/23/23 21/21/21
f 22/22/22 24/24/24 23/23/23
f 26/26/26 27/27/27 25/25/25
f 26/26/26 28/28/28 27/27/27
f 30/30/30 31/31/31 29/29/29
f 30/30/30 32/32/32 31/31/31
f 34/34/34 35/35/35 33/33/33
f 34/34/34 36/36/36 35/35/35
f 38/38/38 39/39/39 37/37/37
f 38/38/38 40/40/40 39/39/39
f 42/42/42 43/43/43 41/41/41
f 42/42/42 44/44/44 43/43/43
f 46/46/46 47/47/47 45/45/45
f 46/46/46 48/48/48 47/47/47
f 50/50/50 51/51/51 49/49/49
f 50/50/50 52/52/52 51/51/51
f 54/54/54 55/55/55 53/53/53
f 54/54/54 56/56/56 55/55/55
f 58/58/58 59/59/59 57/57/57
f 58/58/58 60/60/60 59/59/59
f 62/62/62 63/63/63 61/61/61
f 62/62/62 64/64/64 63/63/63
f 66/66/66 67/67/67 65/65/65
f 66/66/66 68/68/68 67/67/67
f 70/70/70 71/71/71 69/69/69
f 70/70/70 72/72/72 71/71/71
f 74/74/74 75/75/75 73/73/73
f 74/74/74 76/76/76 75/75/75
f 78/78/78 79/79/79 77/77/77
f 78/78/78 80/80/80 79/79/79
f 82/82/82 83/83/83 81/81/81
f 82/82/82 84/84/84 83/83/83
f 86/86/86 87/87/87 85/85/85
f 86/86/86 88/88/88 87/87/87
f 90/90/90 91/91/91 89/89/89
f 90/90/90 92/92/92 91/91/91
f 94/94/94 95/95/95 93/93/93
f 94/94/94 96/96/96 95/95/95
f 98/98/98 99/99/99 97/97/97
f 98/98/98 100/100/100 99/99/99
f 102/102/102 103/103/103 101/101/101
f 102/102/102 104/104/104 103/103/103
f 106/106/106 107/107/107 105/105/105
f 106/106/106 108/108/108 107/107/107
f 110/110/110 111/111/111 109/109/109
f 110/110/110 112/112/112 111/111/111
f 114/114/114 115/115/115 113/113/113
f 114/114/114 116/116/116 115/115/115
f 118/118/118 119/119/119 117/117/117
f 118/118/118 120/120/120 119/119/119
f 122/122/122 123/123/123 121/121/121
f 122/122/122 124/124/124 123/123/123
f 126/126/126 127/127/127 125/125/125
f 126/126/126 128/128/128 127/127/127
f 130/130/130 131/131/131 129/129/129
f 130/130/130 132/132/132 131/131/131
f 134/134/134 135/135/135 133/133/133
f 134/134/134 136/136/136 135/135/135
f 138/138/138 139/139/139 137/137/137
f 138/138/138 140/140/140 139/139/139
f 142/142/142 143/143/143 141/141/141
f 142/142/142 144/144/144 143/143/143
f 146/146/146 147/147/147 145/145/145
f 146/146/146 148/148/148 147/147/147
f 150/150/150 151/151/151 149/149/149
f 150/150/150 152/152/152 151/151/151
f 154/154/154 155/155/155 153/153/153
f 154/154/154 156/156/156 155/155/155
f 158/158/158 159/159/159 157/157/157
f 158/158/158 160/160/160 159/159/159
f 162/162/162 163/163/163 161/161/161
f 162/162/162 164/164/164 163/163/163
f 166/166/166 167/167/167 165/165/165
f 166/166/166 168/168/168 167/167/167
f 170/170/170 171/171/171 169/169/169
f 170/170/170 172/172/172 171/171/171
f 174/174/174 175/175/175 173/173/173
f 174/174/174 176/176/176 175/175/175
f 178/178/178 179/179/179 177/177/177
f 178/178/178 180/180/180 179/179/179
f 182/182/182 183/183/183 181/181/181
f 182/182/182 184/184/184 183/183/183
f 186/186/186 187/187/187 185/185/185
f 186/186/186 188/188/188 187/187/187
f 190/190/190 191/191/191 189/189/189
f 190/190/190 192/192/192 191/191/191
f 194/194/194 195/195/195 193/193/193
f 194/194/194 196/196/196 195/195/195
f 198/198/198 199/199/199 197/197/197
f 198/198/198 200/200/200 199/199/199
f 202/202/202 203/203/203 201/201/201
f 202/202/202 204/204/204 203/203/203
f 206/206/206 207/207/207 205/205/205
f 206/206/206 208/208/208 207/207/207
f 210/210/210 211/211/211 209/209/209
f 210/210/210 212/212/212 211/211/211
f 214/214/214 215/215/215 213/213/213
f 214/214/214 216/216/216 215/215/215
f 218/218/218 219/219/219 217/217/217
f 218/218/218 220/220/220 219/219/219
f 222/222/222 223/223/223 221/221/221
f 222/222/222 224/224/224 223/223/223
f 226/226/226 227/227/227 225/225/225
f 226/226/226 228/228/228 227/227/227
f 230/230/230 231/231/231 229/229/229
f 230/230/230 232/232/232 231/231/231
