g Grass_2_Cluster33
v -115.7842 -0.001017094 21.00695
v -116.7501 -0.001017094 21.00695
v -115.7842 -0.001017094 22.09356
v -116.7501 -0.001017094 22.09356
v -95.37997 -0.001017094 20.28253
v -96.34585 -0.001017094 20.28253
v -95.37997 -0.001017094 21.36915
v -96.34585 -0.001017094 21.36915
v -94.29334 -0.001017094 19.55812
v -95.25923 -0.001017094 19.55812
v -94.29334 -0.001017094 20.64474
v -95.25923 -0.001017094 20.64474
v -95.98364 -0.001017094 18.10929
v -96.82879 -0.001017094 18.10929
v -95.98364 -0.001017094 19.19592
v -96.82879 -0.001017094 19.19592
v -94.53481 -0.001017094 17.74709
v -95.5007 -0.001017094 17.74709
v -94.53481 -0.001017094 18.83371
v -95.5007 -0.001017094 18.83371
v -93.32746 -0.001017094 17.50562
v -94.29334 -0.001017094 17.50562
v -93.32746 -0.001017094 18.59224
v -94.29334 -0.001017094 18.59224
v -92.72379 -0.001017094 17.38488
v -93.8104 -0.001017094 17.38488
v -92.72379 -0.001017094 18.4715
v -93.8104 -0.001017094 18.4715
v -96.10438 -0.001017094 17.14341
v -97.07026 -0.001017094 17.14341
v -96.10438 -0.001017094 18.35077
v -97.07026 -0.001017094 18.35077
v -95.01776 -0.001017094 16.53973
v -95.98364 -0.001017094 16.53973
v -95.01776 -0.001017094 17.74709
v -95.98364 -0.001017094 17.74709
v -97.07026 -0.001017094 16.29826
v -98.03614 -0.001017094 16.29826
v -97.07026 -0.001017094 17.50562
v -98.03614 -0.001017094 17.50562
v -92.60305 -0.001017094 16.17753
v -93.56893 -0.001017094 16.17753
v -92.60305 -0.001017094 17.26415
v -93.56893 -0.001017094 17.26415
v -95.1385 -0.001017094 15.69459
v -96.10438 -0.001017094 15.69459
v -95.1385 -0.001017094 16.78121
v -96.10438 -0.001017094 16.78121
v -93.93114 -0.001017094 15.21165
v -94.89703 -0.001017094 15.21165
v -93.93114 -0.001017094 16.419
v -94.89703 -0.001017094 16.419
v -93.20673 -0.001017094 13.76282
v -94.05187 -0.001017094 13.76282
v -93.20673 -0.001017094 14.84944
v -94.05187 -0.001017094 14.84944
v -93.20673 -0.001017094 13.15914
v -94.17261 -0.001017094 13.15914
v -93.20673 -0.001017094 14.24576
v -94.17261 -0.001017094 14.24576
v -98.27761 -0.001017094 7.726049
v -99.12276 -0.001017094 7.726049
v -98.27761 -0.001017094 8.812669
v -99.12276 -0.001017094 8.812669
v -96.10438 -0.001017094 -6.7622
v -97.07026 -0.001017094 -6.7622
v -96.10438 -0.001017094 -5.675581
v -97.07026 -0.001017094 -5.675581
vt 0.1347656 0.9185662
vt 0.2060202 0.9185662
vt 0.1347656 1
vt 0.2060202 1
vt 0.1347656 0.9185662
vt 0.2060202 0.9185662
vt 0.1347656 1
vt 0.2060202 1
vt 0.1347656 0.9185662
vt 0.2060202 0.9185662
vt 0.1347656 1
vt 0.2060202 1
vt 0.1347656 0.9185662
vt 0.2060202 0.9185662
vt 0.1347656 1
vt 0.2060202 1
vt 0.1347656 0.9185662
vt 0.2060202 0.9185662
vt 0.1347656 1
vt 0.2060202 1
vt 0.1347656 0.9185662
vt 0.2060202 0.9185662
vt 0.1347656 1
vt 0.2060202 1
vt 0.1347656 0.9185662
vt 0.2060202 0.9185662
vt 0.1347656 1
vt 0.2060202 1
vt 0.1347656 0.9185662
vt 0.2060202 0.9185662
vt 0.1347656 1
vt 0.2060202 1
vt 0.1347656 0.9185662
vt 0.2060202 0.9185662
vt 0.1347656 1
vt 0.2060202 1
vt 0.1347656 0.9185662
vt 0.2060202 0.9185662
vt 0.1347656 1
vt 0.2060202 1
vt 0.1347656 0.9185662
vt 0.2060202 0.9185662
vt 0.1347656 1
vt 0.2060202 1
vt 0.1347656 0.9185662
vt 0.2060202 0.9185662
vt 0.1347656 1
vt 0.2060202 1
vt 0.1347656 0.9185662
vt 0.2060202 0.9185662
vt 0.1347656 1
vt 0.2060202 1
vt 0.1347656 0.9185662
vt 0.2060202 0.9185662
vt 0.1347656 1
vt 0.2060202 1
vt 0.1347656 0.9185662
vt 0.2060202 0.9185662
vt 0.1347656 1
vt 0.2060202 1
vt 0.1347656 0.9185662
vt 0.2060202 0.9185662
vt 0.1347656 1
vt 0.2060202 1
vt 0.1347656 0.9185662
vt 0.2060202 0.9185662
vt 0.1347656 1
vt 0.2060202 1
vn 0 1 0
vn 0 1 0
vn 0 1 0
vn 0 1 0
vn 0 1 0
vn 0 1 0
vn 0 1 0
vn 0 1 0
vn 0 1 0
vn 0 1 0
vn 0 1 0
vn 0 1 0
vn 0 1 0
vn 0 1 0
vn 0 1 0
vn 0 1 0
vn 0 1 0
vn 0 1 0
vn 0 1 0
vn 0 1 0
vn 0 1 0
vn 0 1 0
vn 0 1 0
vn 0 1 0
vn 0 1 0
vn 0 1 0
vn 0 1 0
vn 0 1 0
vn 0 1 0
vn 0 1 0
vn 0 1 0
vn 0 1 0
vn 0 1 0
vn 0 1 0
vn 0 1 0
vn 0 1 0
vn 0 1 0
vn 0 1 0
vn 0 1 0
vn 0 1 0
vn 0 1 0
vn 0 1 0
vn 0 1 0
vn 0 1 0
vn 0 1 0
vn 0 1 0
vn 0 1 0
vn 0 1 0
vn 0 1 0
vn 0 1 0
vn 0 1 0
vn 0 1 0
vn 0 1 0
vn 0 1 0
vn 0 1 0
vn 0 1 0
vn 0 1 0
vn 0 1 0
vn 0 1 0
vn 0 1 0
vn 0 1 0
vn 0 1 0
vn 0 1 0
vn 0 1 0
vn 0 1 0
vn 0 1 0
vn 0 1 0
vn 0 1 0
g Grass_2_Cluster33_0
f 2/2/2 3/3/3 1/1/1
f 2/2/2 4/4/4 3/3/3
f 6/6/6 7/7/7 5/5/5
f 6/6/6 8/8/8 7/7/7
f 10/10/10 11/11/11 9/9/9
f 10/10/10 12/12/12 11/11/11
f 14/14/14 15/15/15 13/13/13
f 14/14/14 16/16/16 15/15/15
f 18/18/18 19/19/19 17/17/17
f 18/18/18 20/20/20 19/19/19
f 22/22/22 23/23/23 21/21/21
f 22/22/22 24/24/24 23/23/23
f 26/26/26 27/27/27 25/25/25
f 26/26/26 28/28/28 27/27/27
f 30/30/30 31/31/31 29/29/29
f 30/30/30 32/32/32 31/31/31
f 34/34/34 35/35/35 33/33/33
f 34/34/34 36/36/36 35/35/35
f 38/38/38 39/39/39 37/37/37
f 38/38/38 40/40/40 39/39/39
f 42/42/42 43/43/43 41/41/41
f 42/42/42 44/44/44 43/43/43
f 46/46/46 47/47/47 45/45/45
f 46/46/46 48/48/48 47/47/47
f 50/50/50 51/51/51 49/49/49
f 50/50/50 52/52/52 51/51/51
f 54/54/54 55/55/55 53/53/53
f 54/54/54 56/56/56 55/55/55
f 58/58/58 59/59/59 57/57/57
f 58/58/58 60/60/60 59/59/59
f 62/62/62 63/63/63 61/61/61
f 62/62/62 64/64/64 63/63/63
f 66/66/66 67/67/67 65/65/65
f 66/66/66 68/68/68 67/67/67
