g Grass_2_Cluster111
v -56.24731 0 142.7276
v -57.23164 0 142.7276
v -56.24731 0 143.8525
v -57.23164 0 143.8525
v -43.02919 0 135.4154
v -43.87291 0 135.4154
v -43.02919 0 136.5404
v -43.87291 0 136.5404
v -41.76363 0 135.1342
v -42.74796 0 135.1342
v -41.76363 0 136.2591
v -42.74796 0 136.2591
v -42.60734 0 134.2905
v -43.59167 0 134.2905
v -42.60734 0 135.4154
v -43.59167 0 135.4154
v -41.20116 0 134.1498
v -42.18549 0 134.1498
v -41.20116 0 135.2748
v -42.18549 0 135.2748
v -30.93602 0 128.2439
v -31.77973 0 128.2439
v -30.93602 0 129.2282
v -31.77973 0 129.2282
v -31.92035 0 124.7284
v -32.76406 0 124.7284
v -31.92035 0 125.8534
v -32.76406 0 125.8534
v -33.46715 0 124.5878
v -34.45148 0 124.5878
v -33.46715 0 125.7127
v -34.45148 0 125.7127
v -33.18592 0 123.1816
v -34.02962 0 123.1816
v -33.18592 0 124.3066
v -34.02962 0 124.3066
v -35.43581 0 122.4785
v -36.42014 0 122.4785
v -35.43581 0 123.4629
v -36.42014 0 123.4629
v -30.51417 0 122.1973
v -31.35788 0 122.1973
v -30.51417 0 123.1816
v -31.35788 0 123.1816
v -34.5921 0 122.0567
v -35.57643 0 122.0567
v -34.5921 0 123.3222
v -35.57643 0 123.3222
v -33.18592 0 121.9161
v -34.17024 0 121.9161
v -33.18592 0 123.041
v -34.17024 0 123.041
v -32.76406 0 121.3536
v -33.60777 0 121.3536
v -32.76406 0 122.3379
v -33.60777 0 122.3379
v -33.74839 0 120.9317
v -34.73272 0 120.9317
v -33.74839 0 122.0567
v -34.73272 0 122.0567
v -33.60777 0 120.2286
v -34.5921 0 120.2286
v -33.60777 0 121.3536
v -34.5921 0 121.3536
v -35.01395 0 119.6662
v -35.85766 0 119.6662
v -35.01395 0 120.7911
v -35.85766 0 120.7911
v -33.46715 0 119.2443
v -34.45148 0 119.2443
v -33.46715 0 120.2286
v -34.45148 0 120.2286
v -36.70137 0 118.9631
v -37.6857 0 118.9631
v -36.70137 0 120.088
v -37.6857 0 120.088
vt 0.1347656 0.9185662
vt 0.2060202 0.9185662
vt 0.1347656 1
vt 0.2060202 1
vt 0.1347656 0.9185662
vt 0.2060202 0.9185662
vt 0.1347656 1
vt 0.2060202 1
vt 0.1347656 0.9185662
vt 0.2060202 0.9185662
vt 0.1347656 1
vt 0.2060202 1
vt 0.1347656 0.9185662
vt 0.2060202 0.9185662
vt 0.1347656 1
vt 0.2060202 1
vt 0.1347656 0.9185662
vt 0.2060202 0.9185662
vt 0.1347656 1
vt 0.2060202 1
vt 0.1347656 0.9185662
vt 0.2060202 0.9185662
vt 0.1347656 1
vt 0.2060202 1
vt 0.1347656 0.9185662
vt 0.2060202 0.9185662
vt 0.1347656 1
vt 0.2060202 1
vt 0.1347656 0.9185662
vt 0.2060202 0.9185662
vt 0.1347656 1
vt 0.2060202 1
vt 0.1347656 0.9185662
vt 0.2060202 0.9185662
vt 0.1347656 1
vt 0.2060202 1
vt 0.1347656 0.9185662
vt 0.2060202 0.9185662
vt 0.1347656 1
vt 0.2060202 1
vt 0.1347656 0.9185662
vt 0.2060202 0.9185662
vt 0.1347656 1
vt 0.2060202 1
vt 0.1347656 0.9185662
vt 0.2060202 0.9185662
vt 0.1347656 1
vt 0.2060202 1
vt 0.1347656 0.9185662
vt 0.2060202 0.9185662
vt 0.1347656 1
vt 0.2060202 1
vt 0.1347656 0.9185662
vt 0.2060202 0.9185662
vt 0.1347656 1
vt 0.2060202 1
vt 0.1347656 0.9185662
vt 0.2060202 0.9185662
vt 0.1347656 1
vt 0.2060202 1
vt 0.1347656 0.9185662
vt 0.2060202 0.9185662
vt 0.1347656 1
vt 0.2060202 1
vt 0.1347656 0.9185662
vt 0.2060202 0.9185662
vt 0.1347656 1
vt 0.2060202 1
vt 0.1347656 0.9185662
vt 0.2060202 0.9185662
vt 0.1347656 1
vt 0.2060202 1
vt 0.1347656 0.9185662
vt 0.2060202 0.9185662
vt 0.1347656 1
vt 0.2060202 1
vn 0 1 0
vn 0 1 0
vn 0 1 0
vn 0 1 0
vn 0 1 0
vn 0 1 0
vn 0 1 0
vn 0 1 0
vn 0 1 0
vn 0 1 0
vn 0 1 0
vn 0 1 0
vn 0 1 0
vn 0 1 0
vn 0 1 0
vn 0 1 0
vn 0 1 0
vn 0 1 0
vn 0 1 0
vn 0 1 0
vn 0 1 0
vn 0 1 0
vn 0 1 0
vn 0 1 0
vn 0 1 0
vn 0 1 0
vn 0 1 0
vn 0 1 0
vn 0 1 0
vn 0 1 0
vn 0 1 0
vn 0 1 0
vn 0 1 0
vn 0 1 0
vn 0 1 0
vn 0 1 0
vn 0 1 0
vn 0 1 0
vn 0 1 0
vn 0 1 0
vn 0 1 0
vn 0 1 0
vn 0 1 0
vn 0 1 0
vn 0 1 0
vn 0 1 0
vn 0 1 0
vn 0 1 0
vn 0 1 0
vn 0 1 0
vn 0 1 0
vn 0 1 0
vn 0 1 0
vn 0 1 0
vn 0 1 0
vn 0 1 0
vn 0 1 0
vn 0 1 0
vn 0 1 0
vn 0 1 0
vn 0 1 0
vn 0 1 0
vn 0 1 0
vn 0 1 0
vn 0 1 0
vn 0 1 0
vn 0 1 0
vn 0 1 0
vn 0 1 0
vn 0 1 0
vn 0 1 0
vn 0 1 0
vn 0 1 0
vn 0 1 0
vn 0 1 0
vn 0 1 0
g Grass_2_Cluster111_0
f 2/2/2 3/3/3 1/1/1
f 2/2/2 4/4/4 3/3/3
f 6/6/6 7/7/7 5/5/5
f 6/6/6 8/8/8 7/7/7
f 10/10/10 11/11/11 9/9/9
f 10/10/10 12/12/12 11/11/11
f 14/14/14 15/15/15 13/13/13
f 14/14/14 16/16/16 15/15/15
f 18/18/18 19/19/19 17/17/17
f 18/18/18 20/20/20 19/19/19
f 22/22/22 23/23/23 21/21/21
f 22/22/22 24/24/24 23/23/23
f 26/26/26 27/27/27 25/25/25
f 26/26/26 28/28/28 27/27/27
f 30/30/30 31/31/31 29/29/29
f 30/30/30 32/32/32 31/31/31
f 34/34/34 35/35/35 33/33/33
f 34/34/34 36/36/36 35/35/35
f 38/38/38 39/39/39 37/37/37
f 38/38/38 40/40/40 39/39/39
f 42/42/42 43/43/43 41/41/41
f 42/42/42 44/44/44 43/43/43
f 46/46/46 47/47/47 45/45/45
f 46/46/46 48/48/48 47/47/47
f 50/50/50 51/51/51 49/49/49
f 50/50/50 52/52/52 51/51/51
f 54/54/54 55/55/55 53/53/53
f 54/54/54 56/56/56 55/55/55
f 58/58/58 59/59/59 57/57/57
f 58/58/58 60/60/60 59/59/59
f 62/62/62 63/63/63 61/61/61
f 62/62/62 64/64/64 63/63/63
f 66/66/66 67/67/67 65/65/65
f 66/66/66 68/68/68 67/67/67
f 70/70/70 71/71/71 69/69/69
f 70/70/70 72/72/72 71/71/71
f 74/74/74 75/75/75 73/73/73
f 74/74/74 76/76/76 75/75/75
