g Grass_2_Cluster50
v -10.30945 0 52.80962
v -11.15104 0 52.80962
v -10.30945 0 53.80901
v -11.15104 0 53.80901
v -12.57122 0 52.12584
v -13.5706 0 52.12584
v -12.57122 0 53.28302
v -13.5706 0 53.28302
v -3.155954 0 41.81639
v -4.10274 0 41.81639
v -3.155954 0 42.92097
v -4.10274 0 42.92097
v -29.35037 0 35.71487
v -30.29716 0 35.71487
v -29.35037 0 36.81946
v -30.29716 0 36.81946
v -28.35098 0 34.66289
v -29.29777 0 34.66289
v -28.35098 0 35.76748
v -29.29777 0 35.76748
v -29.13997 0 34.39989
v -30.03416 0 34.39989
v -29.13997 0 35.45188
v -30.03416 0 35.45188
v -23.40666 0 34.0317
v -24.40604 0 34.0317
v -23.40666 0 35.18888
v -24.40604 0 35.18888
v -28.50878 0 33.24271
v -29.50817 0 33.24271
v -28.50878 0 34.34729
v -29.50817 0 34.34729
vt 0.1347656 0.9185662
vt 0.2060202 0.9185662
vt 0.1347656 1
vt 0.2060202 1
vt 0.1347656 0.9185662
vt 0.2060202 0.9185662
vt 0.1347656 1
vt 0.2060202 1
vt 0.1347656 0.9185662
vt 0.2060202 0.9185662
vt 0.1347656 1
vt 0.2060202 1
vt 0.1347656 0.9185662
vt 0.2060202 0.9185662
vt 0.1347656 1
vt 0.2060202 1
vt 0.1347656 0.9185662
vt 0.2060202 0.9185662
vt 0.1347656 1
vt 0.2060202 1
vt 0.1347656 0.9185662
vt 0.2060202 0.9185662
vt 0.1347656 1
vt 0.2060202 1
vt 0.1347656 0.9185662
vt 0.2060202 0.9185662
vt 0.1347656 1
vt 0.2060202 1
vt 0.1347656 0.9185662
vt 0.2060202 0.9185662
vt 0.1347656 1
vt 0.2060202 1
vn 0 1 0
vn 0 1 0
vn 0 1 0
vn 0 1 0
vn 0 1 0
vn 0 1 0
vn 0 1 0
vn 0 1 0
vn 0 1 0
vn 0 1 0
vn 0 1 0
vn 0 1 0
vn 0 1 0
vn 0 1 0
vn 0 1 0
vn 0 1 0
vn 0 1 0
vn 0 1 0
vn 0 1 0
vn 0 1 0
vn 0 1 0
vn 0 1 0
vn 0 1 0
vn 0 1 0
vn 0 1 0
vn 0 1 0
vn 0 1 0
vn 0 1 0
vn 0 1 0
vn 0 1 0
vn 0 1 0
vn 0 1 0
g Grass_2_Cluster50_0
f 2/2/2 3/3/3 1/1/1
f 2/2/2 4/4/4 3/3/3
f 6/6/6 7/7/7 5/5/5
f 6/6/6 8/8/8 7/7/7
f 10/10/10 11/11/11 9/9/9
f 10/10/10 12/12/12 11/11/11
f 14/14/14 15/15/15 13/13/13
f 14/14/14 16/16/16 15/15/15
f 18/18/18 19/19/19 17/17/17
f 18/18/18 20/20/20 19/19/19
f 22/22/22 23/23/23 21/21/21
f 22/22/22 24/24/24 23/23/23
f 26/26/26 27/27/27 25/25/25
f 26/26/26 28/28/28 27/27/27
f 30/30/30 31/31/31 29/29/29
f 30/30/30 32/32/32 31/31/31
