g Grass_0_Cluster271
v -36.30212 0 381.3594
v -37.42487 0 381.3594
v -36.30212 0 382.8564
v -37.42487 0 382.8564
v -54.26606 0 380.9852
v -55.38881 0 380.9852
v -54.26606 0 382.1079
v -55.38881 0 382.1079
v -59.50554 0 379.1139
v -60.25404 0 379.1139
v -59.50554 0 380.2367
v -60.25404 0 380.2367
v -47.15534 0 376.1199
v -48.27808 0 376.1199
v -47.15534 0 377.2427
v -48.27808 0 377.2427
v -45.28409 0 374.9972
v -46.03259 0 374.9972
v -45.28409 0 376.1199
v -46.03259 0 376.1199
v -46.40684 0 374.623
v -47.15534 0 374.623
v -46.40684 0 375.7457
v -47.15534 0 375.7457
v -42.2901 0 374.2487
v -43.41285 0 374.2487
v -42.2901 0 375.3715
v -43.41285 0 375.3715
v -44.90984 0 374.2487
v -45.65834 0 374.2487
v -44.90984 0 375.3715
v -45.65834 0 375.3715
v -41.91586 0 373.5002
v -42.66435 0 373.5002
v -41.91586 0 374.623
v -42.66435 0 374.623
v -43.7871 0 373.5002
v -44.90984 0 373.5002
v -43.7871 0 374.623
v -44.90984 0 374.623
v -46.03259 0 373.1259
v -46.78109 0 373.1259
v -46.03259 0 374.2487
v -46.78109 0 374.2487
v -44.16135 0 372.7517
v -44.90984 0 372.7517
v -44.16135 0 374.2487
v -44.90984 0 374.2487
v -47.15534 0 372.7517
v -47.90384 0 372.7517
v -47.15534 0 373.8745
v -47.90384 0 373.8745
v -56.8858 0 371.629
v -57.6343 0 371.629
v -56.8858 0 372.7517
v -57.6343 0 372.7517
v -49.02658 0 370.5062
v -49.77508 0 370.5062
v -49.02658 0 371.629
v -49.77508 0 371.629
v -46.78109 0 370.132
v -47.90384 0 370.132
v -46.78109 0 371.629
v -47.90384 0 371.629
v -46.03259 0 369.0092
v -47.15534 0 369.0092
v -46.03259 0 370.132
v -47.15534 0 370.132
v -45.28409 0 364.5182
v -46.40684 0 364.5182
v -45.28409 0 365.641
v -46.40684 0 365.641
v -30.68839 0 363.3955
v -31.43689 0 363.3955
v -30.68839 0 364.8925
v -31.43689 0 364.8925
v -38.17337 0 362.647
v -39.29611 0 362.647
v -38.17337 0 363.7697
v -39.29611 0 363.7697
v -38.92186 0 360.0273
v -39.67036 0 360.0273
v -38.92186 0 361.15
v -39.67036 0 361.15
v -37.79912 0 359.653
v -38.92186 0 359.653
v -37.79912 0 360.7758
v -38.92186 0 360.7758
v -39.29611 0 358.5302
v -40.04461 0 358.5302
v -39.29611 0 360.0273
v -40.04461 0 360.0273
v -58.75705 0 355.5363
v -59.50554 0 355.5363
v -58.75705 0 356.659
v -59.50554 0 356.659
v -58.3828 0 354.7878
v -59.13129 0 354.7878
v -58.3828 0 355.9105
v -59.13129 0 355.9105
v -35.92788 0 352.9165
v -36.67637 0 352.9165
v -35.92788 0 354.0393
v -36.67637 0 354.0393
vt 0 0.9058824
vt 0.06666667 0.9058824
vt 0 1
vt 0.06666667 1
vt 0 0.9058824
vt 0.06666667 0.9058824
vt 0 1
vt 0.06666667 1
vt 0 0.9058824
vt 0.06666667 0.9058824
vt 0 1
vt 0.06666667 1
vt 0 0.9058824
vt 0.06666667 0.9058824
vt 0 1
vt 0.06666667 1
vt 0 0.9058824
vt 0.06666667 0.9058824
vt 0 1
vt 0.06666667 1
vt 0 0.9058824
vt 0.06666667 0.9058824
vt 0 1
vt 0.06666667 1
vt 0 0.9058824
vt 0.06666667 0.9058824
vt 0 1
vt 0.06666667 1
vt 0 0.9058824
vt 0.06666667 0.9058824
vt 0 1
vt 0.06666667 1
vt 0 0.9058824
vt 0.06666667 0.9058824
vt 0 1
vt 0.06666667 1
vt 0 0.9058824
vt 0.06666667 0.9058824
vt 0 1
vt 0.06666667 1
vt 0 0.9058824
vt 0.06666667 0.9058824
vt 0 1
vt 0.06666667 1
vt 0 0.9058824
vt 0.06666667 0.9058824
vt 0 1
vt 0.06666667 1
vt 0 0.9058824
vt 0.06666667 0.9058824
vt 0 1
vt 0.06666667 1
vt 0 0.9058824
vt 0.06666667 0.9058824
vt 0 1
vt 0.06666667 1
vt 0 0.9058824
vt 0.06666667 0.9058824
vt 0 1
vt 0.06666667 1
vt 0 0.9058824
vt 0.06666667 0.9058824
vt 0 1
vt 0.06666667 1
vt 0 0.9058824
vt 0.06666667 0.9058824
vt 0 1
vt 0.06666667 1
vt 0 0.9058824
vt 0.06666667 0.9058824
vt 0 1
vt 0.06666667 1
vt 0 0.9058824
vt 0.06666667 0.9058824
vt 0 1
vt 0.06666667 1
vt 0 0.9058824
vt 0.06666667 0.9058824
vt 0 1
vt 0.06666667 1
vt 0 0.9058824
vt 0.06666667 0.9058824
vt 0 1
vt 0.06666667 1
vt 0 0.9058824
vt 0.06666667 0.9058824
vt 0 1
vt 0.06666667 1
vt 0 0.9058824
vt 0.06666667 0.9058824
vt 0 1
vt 0.06666667 1
vt 0 0.9058824
vt 0.06666667 0.9058824
vt 0 1
vt 0.06666667 1
vt 0 0.9058824
vt 0.06666667 0.9058824
vt 0 1
vt 0.06666667 1
vt 0 0.9058824
vt 0.06666667 0.9058824
vt 0 1
vt 0.06666667 1
vn 0 1 0
vn 0 1 0
vn 0 1 0
vn 0 1 0
vn 0 1 0
vn 0 1 0
vn 0 1 0
vn 0 1 0
vn 0 1 0
vn 0 1 0
vn 0 1 0
vn 0 1 0
vn 0 1 0
vn 0 1 0
vn 0 1 0
vn 0 1 0
vn 0 1 0
vn 0 1 0
vn 0 1 0
vn 0 1 0
vn 0 1 0
vn 0 1 0
vn 0 1 0
vn 0 1 0
vn 0 1 0
vn 0 1 0
vn 0 1 0
vn 0 1 0
vn 0 1 0
vn 0 1 0
vn 0 1 0
vn 0 1 0
vn 0 1 0
vn 0 1 0
vn 0 1 0
vn 0 1 0
vn 0 1 0
vn 0 1 0
vn 0 1 0
vn 0 1 0
vn 0 1 0
vn 0 1 0
vn 0 1 0
vn 0 1 0
vn 0 1 0
vn 0 1 0
vn 0 1 0
vn 0 1 0
vn 0 1 0
vn 0 1 0
vn 0 1 0
vn 0 1 0
vn 0 1 0
vn 0 1 0
vn 0 1 0
vn 0 1 0
vn 0 1 0
vn 0 1 0
vn 0 1 0
vn 0 1 0
vn 0 1 0
vn 0 1 0
vn 0 1 0
vn 0 1 0
vn 0 1 0
vn 0 1 0
vn 0 1 0
vn 0 1 0
vn 0 1 0
vn 0 1 0
vn 0 1 0
vn 0 1 0
vn 0 1 0
vn 0 1 0
vn 0 1 0
vn 0 1 0
vn 0 1 0
vn 0 1 0
vn 0 1 0
vn 0 1 0
vn 0 1 0
vn 0 1 0
vn 0 1 0
vn 0 1 0
vn 0 1 0
vn 0 1 0
vn 0 1 0
vn 0 1 0
vn 0 1 0
vn 0 1 0
vn 0 1 0
vn 0 1 0
vn 0 1 0
vn 0 1 0
vn 0 1 0
vn 0 1 0
vn 0 1 0
vn 0 1 0
vn 0 1 0
vn 0 1 0
vn 0 1 0
vn 0 1 0
vn 0 1 0
vn 0 1 0
g Grass_0_Cluster271_0
f 2/2/2 3/3/3 1/1/1
f 2/2/2 4/4/4 3/3/3
f 6/6/6 7/7/7 5/5/5
f 6/6/6 8/8/8 7/7/7
f 10/10/10 11/11/11 9/9/9
f 10/10/10 12/12/12 11/11/11
f 14/14/14 15/15/15 13/13/13
f 14/14/14 16/16/16 15/15/15
f 18/18/18 19/19/19 17/17/17
f 18/18/18 20/20/20 19/19/19
f 22/22/22 23/23/23 21/21/21
f 22/22/22 24/24/24 23/23/23
f 26/26/26 27/27/27 25/25/25
f 26/26/26 28/28/28 27/27/27
f 30/30/30 31/31/31 29/29/29
f 30/30/30 32/32/32 31/31/31
f 34/34/34 35/35/35 33/33/33
f 34/34/34 36/36/36 35/35/35
f 38/38/38 39/39/39 37/37/37
f 38/38/38 40/40/40 39/39/39
f 42/42/42 43/43/43 41/41/41
f 42/42/42 44/44/44 43/43/43
f 46/46/46 47/47/47 45/45/45
f 46/46/46 48/48/48 47/47/47
f 50/50/50 51/51/51 49/49/49
f 50/50/50 52/52/52 51/51/51
f 54/54/54 55/55/55 53/53/53
f 54/54/54 56/56/56 55/55/55
f 58/58/58 59/59/59 57/57/57
f 58/58/58 60/60/60 59/59/59
f 62/62/62 63/63/63 61/61/61
f 62/62/62 64/64/64 63/63/63
f 66/66/66 67/67/67 65/65/65
f 66/66/66 68/68/68 67/67/67
f 70/70/70 71/71/71 69/69/69
f 70/70/70 72/72/72 71/71/71
f 74/74/74 75/75/75 73/73/73
f 74/74/74 76/76/76 75/75/75
f 78/78/78 79/79/79 77/77/77
f 78/78/78 80/80/80 79/79/79
f 82/82/82 83/83/83 81/81/81
f 82/82/82 84/84/84 83/83/83
f 86/86/86 87/87/87 85/85/85
f 86/86/86 88/88/88 87/87/87
f 90/90/90 91/91/91 89/89/89
f 90/90/90 92/92/92 91/91/91
f 94/94/94 95/95/95 93/93/93
f 94/94/94 96/96/96 95/95/95
f 98/98/98 99/99/99 97/97/97
f 98/98/98 100/100/100 99/99/99
f 102/102/102 103/103/103 101/101/101
f 102/102/102 104/104/104 103/103/103
