g Grass_2_Cluster146
v 118.7935 0.06489563 190.9678
v 117.8815 0.06489563 190.9678
v 118.7935 0.06489563 192.1838
v 117.8815 0.06489563 192.1838
v 90.82678 0.06489563 187.624
v 89.91483 0.06489563 187.624
v 90.82678 0.06489563 188.5359
v 89.91483 0.06489563 188.5359
v 93.25867 0.06489563 180.3283
v 92.34671 0.06489563 180.3283
v 93.25867 0.06489563 181.5443
v 92.34671 0.06489563 181.5443
v 116.3616 0.06489563 179.7204
v 115.4496 0.06489563 179.7204
v 116.3616 0.06489563 180.9363
v 115.4496 0.06489563 180.9363
v 92.6507 0.06489563 177.2885
v 91.73874 0.06489563 177.2885
v 92.6507 0.06489563 178.2004
v 91.73874 0.06489563 178.2004
v 105.1141 0.06489563 176.3765
v 104.2021 0.06489563 176.3765
v 105.1141 0.06489563 177.5925
v 104.2021 0.06489563 177.5925
v 93.56265 0.06489563 176.0725
v 92.6507 0.06489563 176.0725
v 93.56265 0.06489563 177.2885
v 92.6507 0.06489563 177.2885
v 97.81845 0.06489563 176.3765
v 96.60251 0.06489563 176.3765
v 97.81845 0.06489563 177.2885
v 96.60251 0.06489563 177.2885
v 103.5942 0.06489563 175.4646
v 102.6822 0.06489563 175.4646
v 103.5942 0.06489563 176.3765
v 102.6822 0.06489563 176.3765
v 92.04272 0.06489563 175.4646
v 91.13077 0.06489563 175.4646
v 92.04272 0.06489563 176.3765
v 91.13077 0.06489563 176.3765
v 93.86664 0.06489563 174.2486
v 92.6507 0.06489563 174.2486
v 93.86664 0.06489563 175.4646
v 92.6507 0.06489563 175.4646
v 103.8982 0.06489563 173.9446
v 102.9862 0.06489563 173.9446
v 103.8982 0.06489563 175.1606
v 102.9862 0.06489563 175.1606
v 92.95468 0.06489563 173.3367
v 91.73874 0.06489563 173.3367
v 92.95468 0.06489563 174.5526
v 91.73874 0.06489563 174.5526
vt 0.1347656 0.9185662
vt 0.2060202 0.9185662
vt 0.1347656 1
vt 0.2060202 1
vt 0.1347656 0.9185662
vt 0.2060202 0.9185662
vt 0.1347656 1
vt 0.2060202 1
vt 0.1347656 0.9185662
vt 0.2060202 0.9185662
vt 0.1347656 1
vt 0.2060202 1
vt 0.1347656 0.9185662
vt 0.2060202 0.9185662
vt 0.1347656 1
vt 0.2060202 1
vt 0.1347656 0.9185662
vt 0.2060202 0.9185662
vt 0.1347656 1
vt 0.2060202 1
vt 0.1347656 0.9185662
vt 0.2060202 0.9185662
vt 0.1347656 1
vt 0.2060202 1
vt 0.1347656 0.9185662
vt 0.2060202 0.9185662
vt 0.1347656 1
vt 0.2060202 1
vt 0.1347656 0.9185662
vt 0.2060202 0.9185662
vt 0.1347656 1
vt 0.2060202 1
vt 0.1347656 0.9185662
vt 0.2060202 0.9185662
vt 0.1347656 1
vt 0.2060202 1
vt 0.1347656 0.9185662
vt 0.2060202 0.9185662
vt 0.1347656 1
vt 0.2060202 1
vt 0.1347656 0.9185662
vt 0.2060202 0.9185662
vt 0.1347656 1
vt 0.2060202 1
vt 0.1347656 0.9185662
vt 0.2060202 0.9185662
vt 0.1347656 1
vt 0.2060202 1
vt 0.1347656 0.9185662
vt 0.2060202 0.9185662
vt 0.1347656 1
vt 0.2060202 1
vn 0 1 0
vn 0 1 0
vn 0 1 0
vn 0 1 0
vn 0 1 0
vn 0 1 0
vn 0 1 0
vn 0 1 0
vn 0 1 0
vn 0 1 0
vn 0 1 0
vn 0 1 0
vn 0 1 0
vn 0 1 0
vn 0 1 0
vn 0 1 0
vn 0 1 0
vn 0 1 0
vn 0 1 0
vn 0 1 0
vn 0 1 0
vn 0 1 0
vn 0 1 0
vn 0 1 0
vn 0 1 0
vn 0 1 0
vn 0 1 0
vn 0 1 0
vn 0 1 0
vn 0 1 0
vn 0 1 0
vn 0 1 0
vn 0 1 0
vn 0 1 0
vn 0 1 0
vn 0 1 0
vn 0 1 0
vn 0 1 0
vn 0 1 0
vn 0 1 0
vn 0 1 0
vn 0 1 0
vn 0 1 0
vn 0 1 0
vn 0 1 0
vn 0 1 0
vn 0 1 0
vn 0 1 0
vn 0 1 0
vn 0 1 0
vn 0 1 0
vn 0 1 0
g Grass_2_Cluster146_0
f 2/2/2 3/3/3 1/1/1
f 2/2/2 4/4/4 3/3/3
f 6/6/6 7/7/7 5/5/5
f 6/6/6 8/8/8 7/7/7
f 10/10/10 11/11/11 9/9/9
f 10/10/10 12/12/12 11/11/11
f 14/14/14 15/15/15 13/13/13
f 14/14/14 16/16/16 15/15/15
f 18/18/18 19/19/19 17/17/17
f 18/18/18 20/20/20 19/19/19
f 22/22/22 23/23/23 21/21/21
f 22/22/22 24/24/24 23/23/23
f 26/26/26 27/27/27 25/25/25
f 26/26/26 28/28/28 27/27/27
f 30/30/30 31/31/31 29/29/29
f 30/30/30 32/32/32 31/31/31
f 34/34/34 35/35/35 33/33/33
f 34/34/34 36/36/36 35/35/35
f 38/38/38 39/39/39 37/37/37
f 38/38/38 40/40/40 39/39/39
f 42/42/42 43/43/43 41/41/41
f 42/42/42 44/44/44 43/43/43
f 46/46/46 47/47/47 45/45/45
f 46/46/46 48/48/48 47/47/47
f 50/50/50 51/51/51 49/49/49
f 50/50/50 52/52/52 51/51/51
