g Grass_0_Cluster197
v -228.0669 0 262.0452
v -229.0965 0 262.0452
v -228.0669 0 263.3323
v -229.0965 0 263.3323
v -231.1558 0 261.7878
v -232.1855 0 261.7878
v -231.1558 0 263.0749
v -232.1855 0 263.0749
v -226.5224 0 261.7878
v -227.2946 0 261.7878
v -226.5224 0 263.0749
v -227.2946 0 263.0749
v -229.0965 0 261.273
v -230.1262 0 261.273
v -229.0965 0 262.56
v -230.1262 0 262.56
v -228.0669 0 261.0156
v -228.8391 0 261.0156
v -228.0669 0 262.3026
v -228.8391 0 262.3026
v -225.4927 0 260.5007
v -226.265 0 260.5007
v -225.4927 0 261.7878
v -226.265 0 261.7878
v -228.8391 0 259.9859
v -229.6113 0 259.9859
v -228.8391 0 261.273
v -229.6113 0 261.273
v -226.7798 0 258.9563
v -227.552 0 258.9563
v -226.7798 0 260.2433
v -227.552 0 260.2433
v -229.8687 0 258.6989
v -230.8984 0 258.6989
v -229.8687 0 259.9859
v -230.8984 0 259.9859
v -212.3647 0 257.9266
v -213.137 0 257.9266
v -212.3647 0 259.2137
v -213.137 0 259.2137
v -229.3539 0 257.9266
v -230.3836 0 257.9266
v -229.3539 0 259.2137
v -230.3836 0 259.2137
v -228.8391 0 257.4118
v -229.8687 0 257.4118
v -228.8391 0 258.6989
v -229.8687 0 258.6989
v -226.7798 0 256.897
v -227.8094 0 256.897
v -226.7798 0 258.1841
v -227.8094 0 258.1841
v -229.3539 0 256.6396
v -230.3836 0 256.6396
v -229.3539 0 257.9266
v -230.3836 0 257.9266
v -225.4927 0 256.6396
v -226.5224 0 256.6396
v -225.4927 0 257.6692
v -226.5224 0 257.6692
v -227.8094 0 256.3822
v -228.8391 0 256.3822
v -227.8094 0 257.4118
v -228.8391 0 257.4118
v -209.7906 0 256.1248
v -210.5629 0 256.1248
v -209.7906 0 257.4118
v -210.5629 0 257.4118
v -229.0965 0 255.8673
v -229.8687 0 255.8673
v -229.0965 0 256.897
v -229.8687 0 256.897
v -230.641 0 255.8673
v -231.4132 0 255.8673
v -230.641 0 257.1544
v -231.4132 0 257.1544
v -233.2151 0 255.6099
v -234.2447 0 255.6099
v -233.2151 0 256.897
v -234.2447 0 256.897
v -215.9685 0 255.6099
v -216.7407 0 255.6099
v -215.9685 0 256.6396
v -216.7407 0 256.6396
v -226.5224 0 255.6099
v -227.552 0 255.6099
v -226.5224 0 256.6396
v -227.552 0 256.6396
v -210.048 0 255.6099
v -211.0777 0 255.6099
v -210.048 0 256.6396
v -211.0777 0 256.6396
v -227.2946 0 255.3525
v -228.0669 0 255.3525
v -227.2946 0 256.3822
v -228.0669 0 256.3822
v -211.0777 0 255.0951
v -212.1073 0 255.0951
v -211.0777 0 256.3822
v -212.1073 0 256.3822
v -230.3836 0 254.8377
v -231.1558 0 254.8377
v -230.3836 0 255.8673
v -231.1558 0 255.8673
v -228.8391 0 254.5803
v -229.6113 0 254.5803
v -228.8391 0 255.6099
v -229.6113 0 255.6099
v -227.2946 0 254.0654
v -228.3243 0 254.0654
v -227.2946 0 255.3525
v -228.3243 0 255.3525
v -228.3243 0 253.808
v -229.0965 0 253.808
v -228.3243 0 254.8377
v -229.0965 0 254.8377
v -223.6909 0 254.0654
v -224.7205 0 254.0654
v -223.6909 0 255.0951
v -224.7205 0 255.0951
v -231.1558 0 253.5506
v -231.928 0 253.5506
v -231.1558 0 254.8377
v -231.928 0 254.8377
v -213.6518 0 253.2932
v -214.424 0 253.2932
v -213.6518 0 254.5803
v -214.424 0 254.5803
v -227.8094 0 252.7784
v -228.8391 0 252.7784
v -227.8094 0 254.0654
v -228.8391 0 254.0654
v -229.3539 0 252.521
v -230.1262 0 252.521
v -229.3539 0 253.808
v -230.1262 0 253.808
v -215.1963 0 252.7784
v -215.9685 0 252.7784
v -215.1963 0 253.808
v -215.9685 0 253.808
v -231.928 0 252.521
v -232.9577 0 252.521
v -231.928 0 253.808
v -232.9577 0 253.808
v -225.2353 0 252.521
v -226.265 0 252.521
v -225.2353 0 253.808
v -226.265 0 253.808
v -227.8094 0 252.2636
v -228.8391 0 252.2636
v -227.8094 0 253.5506
v -228.8391 0 253.5506
v -228.8391 0 251.2339
v -229.8687 0 251.2339
v -228.8391 0 252.521
v -229.8687 0 252.521
v -227.0372 0 250.2043
v -227.8094 0 250.2043
v -227.0372 0 251.4913
v -227.8094 0 251.4913
v -233.2151 0 250.2043
v -233.9873 0 250.2043
v -233.2151 0 251.2339
v -233.9873 0 251.2339
v -230.1262 0 249.9469
v -230.8984 0 249.9469
v -230.1262 0 251.2339
v -230.8984 0 251.2339
v -228.5817 0 249.432
v -229.3539 0 249.432
v -228.5817 0 250.4617
v -229.3539 0 250.4617
v -212.8796 0 247.3727
v -213.9092 0 247.3727
v -212.8796 0 248.6598
v -213.9092 0 248.6598
v -227.8094 0 244.5412
v -228.5817 0 244.5412
v -227.8094 0 245.8283
v -228.5817 0 245.8283
v -236.5614 0 235.7892
v -237.3337 0 235.7892
v -236.5614 0 236.8189
v -237.3337 0 236.8189
v -213.9092 0 235.5318
v -214.6814 0 235.5318
v -213.9092 0 236.5614
v -214.6814 0 236.5614
v -231.928 0 234.5022
v -232.7003 0 234.5022
v -231.928 0 235.7892
v -232.7003 0 235.7892
v -213.9092 0 233.9873
v -214.9389 0 233.9873
v -213.9092 0 235.2744
v -214.9389 0 235.2744
v -237.0763 0 233.7299
v -237.8485 0 233.7299
v -237.0763 0 235.017
v -237.8485 0 235.017
vt 0 0.9058824
vt 0.06666667 0.9058824
vt 0 1
vt 0.06666667 1
vt 0 0.9058824
vt 0.06666667 0.9058824
vt 0 1
vt 0.06666667 1
vt 0 0.9058824
vt 0.06666667 0.9058824
vt 0 1
vt 0.06666667 1
vt 0 0.9058824
vt 0.06666667 0.9058824
vt 0 1
vt 0.06666667 1
vt 0 0.9058824
vt 0.06666667 0.9058824
vt 0 1
vt 0.06666667 1
vt 0 0.9058824
vt 0.06666667 0.9058824
vt 0 1
vt 0.06666667 1
vt 0 0.9058824
vt 0.06666667 0.9058824
vt 0 1
vt 0.06666667 1
vt 0 0.9058824
vt 0.06666667 0.9058824
vt 0 1
vt 0.06666667 1
vt 0 0.9058824
vt 0.06666667 0.9058824
vt 0 1
vt 0.06666667 1
vt 0 0.9058824
vt 0.06666667 0.9058824
vt 0 1
vt 0.06666667 1
vt 0 0.9058824
vt 0.06666667 0.9058824
vt 0 1
vt 0.06666667 1
vt 0 0.9058824
vt 0.06666667 0.9058824
vt 0 1
vt 0.06666667 1
vt 0 0.9058824
vt 0.06666667 0.9058824
vt 0 1
vt 0.06666667 1
vt 0 0.9058824
vt 0.06666667 0.9058824
vt 0 1
vt 0.06666667 1
vt 0 0.9058824
vt 0.06666667 0.9058824
vt 0 1
vt 0.06666667 1
vt 0 0.9058824
vt 0.06666667 0.9058824
vt 0 1
vt 0.06666667 1
vt 0 0.9058824
vt 0.06666667 0.9058824
vt 0 1
vt 0.06666667 1
vt 0 0.9058824
vt 0.06666667 0.9058824
vt 0 1
vt 0.06666667 1
vt 0 0.9058824
vt 0.06666667 0.9058824
vt 0 1
vt 0.06666667 1
vt 0 0.9058824
vt 0.06666667 0.9058824
vt 0 1
vt 0.06666667 1
vt 0 0.9058824
vt 0.06666667 0.9058824
vt 0 1
vt 0.06666667 1
vt 0 0.9058824
vt 0.06666667 0.9058824
vt 0 1
vt 0.06666667 1
vt 0 0.9058824
vt 0.06666667 0.9058824
vt 0 1
vt 0.06666667 1
vt 0 0.9058824
vt 0.06666667 0.9058824
vt 0 1
vt 0.06666667 1
vt 0 0.9058824
vt 0.06666667 0.9058824
vt 0 1
vt 0.06666667 1
vt 0 0.9058824
vt 0.06666667 0.9058824
vt 0 1
vt 0.06666667 1
vt 0 0.9058824
vt 0.06666667 0.9058824
vt 0 1
vt 0.06666667 1
vt 0 0.9058824
vt 0.06666667 0.9058824
vt 0 1
vt 0.06666667 1
vt 0 0.9058824
vt 0.06666667 0.9058824
vt 0 1
vt 0.06666667 1
vt 0 0.9058824
vt 0.06666667 0.9058824
vt 0 1
vt 0.06666667 1
vt 0 0.9058824
vt 0.06666667 0.9058824
vt 0 1
vt 0.06666667 1
vt 0 0.9058824
vt 0.06666667 0.9058824
vt 0 1
vt 0.06666667 1
vt 0 0.9058824
vt 0.06666667 0.9058824
vt 0 1
vt 0.06666667 1
vt 0 0.9058824
vt 0.06666667 0.9058824
vt 0 1
vt 0.06666667 1
vt 0 0.9058824
vt 0.06666667 0.9058824
vt 0 1
vt 0.06666667 1
vt 0 0.9058824
vt 0.06666667 0.9058824
vt 0 1
vt 0.06666667 1
vt 0 0.9058824
vt 0.06666667 0.9058824
vt 0 1
vt 0.06666667 1
vt 0 0.9058824
vt 0.06666667 0.9058824
vt 0 1
vt 0.06666667 1
vt 0 0.9058824
vt 0.06666667 0.9058824
vt 0 1
vt 0.06666667 1
vt 0 0.9058824
vt 0.06666667 0.9058824
vt 0 1
vt 0.06666667 1
vt 0 0.9058824
vt 0.06666667 0.9058824
vt 0 1
vt 0.06666667 1
vt 0 0.9058824
vt 0.06666667 0.9058824
vt 0 1
vt 0.06666667 1
vt 0 0.9058824
vt 0.06666667 0.9058824
vt 0 1
vt 0.06666667 1
vt 0 0.9058824
vt 0.06666667 0.9058824
vt 0 1
vt 0.06666667 1
vt 0 0.9058824
vt 0.06666667 0.9058824
vt 0 1
vt 0.06666667 1
vt 0 0.9058824
vt 0.06666667 0.9058824
vt 0 1
vt 0.06666667 1
vt 0 0.9058824
vt 0.06666667 0.9058824
vt 0 1
vt 0.06666667 1
vt 0 0.9058824
vt 0.06666667 0.9058824
vt 0 1
vt 0.06666667 1
vt 0 0.9058824
vt 0.06666667 0.9058824
vt 0 1
vt 0.06666667 1
vt 0 0.9058824
vt 0.06666667 0.9058824
vt 0 1
vt 0.06666667 1
vn 0 1 0
vn 0 1 0
vn 0 1 0
vn 0 1 0
vn 0 1 0
vn 0 1 0
vn 0 1 0
vn 0 1 0
vn 0 1 0
vn 0 1 0
vn 0 1 0
vn 0 1 0
vn 0 1 0
vn 0 1 0
vn 0 1 0
vn 0 1 0
vn 0 1 0
vn 0 1 0
vn 0 1 0
vn 0 1 0
vn 0 1 0
vn 0 1 0
vn 0 1 0
vn 0 1 0
vn 0 1 0
vn 0 1 0
vn 0 1 0
vn 0 1 0
vn 0 1 0
vn 0 1 0
vn 0 1 0
vn 0 1 0
vn 0 1 0
vn 0 1 0
vn 0 1 0
vn 0 1 0
vn 0 1 0
vn 0 1 0
vn 0 1 0
vn 0 1 0
vn 0 1 0
vn 0 1 0
vn 0 1 0
vn 0 1 0
vn 0 1 0
vn 0 1 0
vn 0 1 0
vn 0 1 0
vn 0 1 0
vn 0 1 0
vn 0 1 0
vn 0 1 0
vn 0 1 0
vn 0 1 0
vn 0 1 0
vn 0 1 0
vn 0 1 0
vn 0 1 0
vn 0 1 0
vn 0 1 0
vn 0 1 0
vn 0 1 0
vn 0 1 0
vn 0 1 0
vn 0 1 0
vn 0 1 0
vn 0 1 0
vn 0 1 0
vn 0 1 0
vn 0 1 0
vn 0 1 0
vn 0 1 0
vn 0 1 0
vn 0 1 0
vn 0 1 0
vn 0 1 0
vn 0 1 0
vn 0 1 0
vn 0 1 0
vn 0 1 0
vn 0 1 0
vn 0 1 0
vn 0 1 0
vn 0 1 0
vn 0 1 0
vn 0 1 0
vn 0 1 0
vn 0 1 0
vn 0 1 0
vn 0 1 0
vn 0 1 0
vn 0 1 0
vn 0 1 0
vn 0 1 0
vn 0 1 0
vn 0 1 0
vn 0 1 0
vn 0 1 0
vn 0 1 0
vn 0 1 0
vn 0 1 0
vn 0 1 0
vn 0 1 0
vn 0 1 0
vn 0 1 0
vn 0 1 0
vn 0 1 0
vn 0 1 0
vn 0 1 0
vn 0 1 0
vn 0 1 0
vn 0 1 0
vn 0 1 0
vn 0 1 0
vn 0 1 0
vn 0 1 0
vn 0 1 0
vn 0 1 0
vn 0 1 0
vn 0 1 0
vn 0 1 0
vn 0 1 0
vn 0 1 0
vn 0 1 0
vn 0 1 0
vn 0 1 0
vn 0 1 0
vn 0 1 0
vn 0 1 0
vn 0 1 0
vn 0 1 0
vn 0 1 0
vn 0 1 0
vn 0 1 0
vn 0 1 0
vn 0 1 0
vn 0 1 0
vn 0 1 0
vn 0 1 0
vn 0 1 0
vn 0 1 0
vn 0 1 0
vn 0 1 0
vn 0 1 0
vn 0 1 0
vn 0 1 0
vn 0 1 0
vn 0 1 0
vn 0 1 0
vn 0 1 0
vn 0 1 0
vn 0 1 0
vn 0 1 0
vn 0 1 0
vn 0 1 0
vn 0 1 0
vn 0 1 0
vn 0 1 0
vn 0 1 0
vn 0 1 0
vn 0 1 0
vn 0 1 0
vn 0 1 0
vn 0 1 0
vn 0 1 0
vn 0 1 0
vn 0 1 0
vn 0 1 0
vn 0 1 0
vn 0 1 0
vn 0 1 0
vn 0 1 0
vn 0 1 0
vn 0 1 0
vn 0 1 0
vn 0 1 0
vn 0 1 0
vn 0 1 0
vn 0 1 0
vn 0 1 0
vn 0 1 0
vn 0 1 0
vn 0 1 0
vn 0 1 0
vn 0 1 0
vn 0 1 0
vn 0 1 0
vn 0 1 0
vn 0 1 0
vn 0 1 0
vn 0 1 0
vn 0 1 0
vn 0 1 0
vn 0 1 0
vn 0 1 0
vn 0 1 0
vn 0 1 0
vn 0 1 0
vn 0 1 0
vn 0 1 0
g Grass_0_Cluster197_0
f 2/2/2 3/3/3 1/1/1
f 2/2/2 4/4/4 3/3/3
f 6/6/6 7/7/7 5/5/5
f 6/6/6 8/8/8 7/7/7
f 10/10/10 11/11/11 9/9/9
f 10/10/10 12/12/12 11/11/11
f 14/14/14 15/15/15 13/13/13
f 14/14/14 16/16/16 15/15/15
f 18/18/18 19/19/19 17/17/17
f 18/18/18 20/20/20 19/19/19
f 22/22/22 23/23/23 21/21/21
f 22/22/22 24/24/24 23/23/23
f 26/26/26 27/27/27 25/25/25
f 26/26/26 28/28/28 27/27/27
f 30/30/30 31/31/31 29/29/29
f 30/30/30 32/32/32 31/31/31
f 34/34/34 35/35/35 33/33/33
f 34/34/34 36/36/36 35/35/35
f 38/38/38 39/39/39 37/37/37
f 38/38/38 40/40/40 39/39/39
f 42/42/42 43/43/43 41/41/41
f 42/42/42 44/44/44 43/43/43
f 46/46/46 47/47/47 45/45/45
f 46/46/46 48/48/48 47/47/47
f 50/50/50 51/51/51 49/49/49
f 50/50/50 52/52/52 51/51/51
f 54/54/54 55/55/55 53/53/53
f 54/54/54 56/56/56 55/55/55
f 58/58/58 59/59/59 57/57/57
f 58/58/58 60/60/60 59/59/59
f 62/62/62 63/63/63 61/61/61
f 62/62/62 64/64/64 63/63/63
f 66/66/66 67/67/67 65/65/65
f 66/66/66 68/68/68 67/67/67
f 70/70/70 71/71/71 69/69/69
f 70/70/70 72/72/72 71/71/71
f 74/74/74 75/75/75 73/73/73
f 74/74/74 76/76/76 75/75/75
f 78/78/78 79/79/79 77/77/77
f 78/78/78 80/80/80 79/79/79
f 82/82/82 83/83/83 81/81/81
f 82/82/82 84/84/84 83/83/83
f 86/86/86 87/87/87 85/85/85
f 86/86/86 88/88/88 87/87/87
f 90/90/90 91/91/91 89/89/89
f 90/90/90 92/92/92 91/91/91
f 94/94/94 95/95/95 93/93/93
f 94/94/94 96/96/96 95/95/95
f 98/98/98 99/99/99 97/97/97
f 98/98/98 100/100/100 99/99/99
f 102/102/102 103/103/103 101/101/101
f 102/102/102 104/104/104 103/103/103
f 106/106/106 107/107/107 105/105/105
f 106/106/106 108/108/108 107/107/107
f 110/110/110 111/111/111 109/109/109
f 110/110/110 112/112/112 111/111/111
f 114/114/114 115/115/115 113/113/113
f 114/114/114 116/116/116 115/115/115
f 118/118/118 119/119/119 117/117/117
f 118/118/118 120/120/120 119/119/119
f 122/122/122 123/123/123 121/121/121
f 122/122/122 124/124/124 123/123/123
f 126/126/126 127/127/127 125/125/125
f 126/126/126 128/128/128 127/127/127
f 130/130/130 131/131/131 129/129/129
f 130/130/130 132/132/132 131/131/131
f 134/134/134 135/135/135 133/133/133
f 134/134/134 136/136/136 135/135/135
f 138/138/138 139/139/139 137/137/137
f 138/138/138 140/140/140 139/139/139
f 142/142/142 143/143/143 141/141/141
f 142/142/142 144/144/144 143/143/143
f 146/146/146 147/147/147 145/145/145
f 146/146/146 148/148/148 147/147/147
f 150/150/150 151/151/151 149/149/149
f 150/150/150 152/152/152 151/151/151
f 154/154/154 155/155/155 153/153/153
f 154/154/154 156/156/156 155/155/155
f 158/158/158 159/159/159 157/157/157
f 158/158/158 160/160/160 159/159/159
f 162/162/162 163/163/163 161/161/161
f 162/162/162 164/164/164 163/163/163
f 166/166/166 167/167/167 165/165/165
f 166/166/166 168/168/168 167/167/167
f 170/170/170 171/171/171 169/169/169
f 170/170/170 172/172/172 171/171/171
f 174/174/174 175/175/175 173/173/173
f 174/174/174 176/176/176 175/175/175
f 178/178/178 179/179/179 177/177/177
f 178/178/178 180/180/180 179/179/179
f 182/182/182 183/183/183 181/181/181
f 182/182/182 184/184/184 183/183/183
f 186/186/186 187/187/187 185/185/185
f 186/186/186 188/188/188 187/187/187
f 190/190/190 191/191/191 189/189/189
f 190/190/190 192/192/192 191/191/191
f 194/194/194 195/195/195 193/193/193
f 194/194/194 196/196/196 195/195/195
f 198/198/198 199/199/199 197/197/197
f 198/198/198 200/200/200 199/199/199
