g Grass_1_Cluster67
v 87.15013 0.0329361 77.18172
v 86.32764 0.0329361 77.18172
v 87.15013 0.0329361 78.0042
v 86.32764 0.0329361 78.0042
v 64.94312 0.0329361 63.52852
v 64.12064 0.0329361 63.52852
v 64.94312 0.0329361 64.351
v 64.12064 0.0329361 64.351
v 66.0946 0.0329361 61.71906
v 65.27211 0.0329361 61.71906
v 66.0946 0.0329361 62.54153
v 65.27211 0.0329361 62.54153
v 90.27556 0.0329361 61.55457
v 89.28858 0.0329361 61.55457
v 90.27556 0.0329361 62.37704
v 89.28858 0.0329361 62.37704
vt 0.06738281 0.9369141
vt 0.1331457 0.9369141
vt 0.06738281 0.9990234
vt 0.1331457 0.9990234
vt 0.06738281 0.9369141
vt 0.1331457 0.9369141
vt 0.06738281 0.9990234
vt 0.1331457 0.9990234
vt 0.06738281 0.9369141
vt 0.1331457 0.9369141
vt 0.06738281 0.9990234
vt 0.1331457 0.9990234
vt 0.06738281 0.9369141
vt 0.1331457 0.9369141
vt 0.06738281 0.9990234
vt 0.1331457 0.9990234
vn 0 1 0
vn 0 1 0
vn 0 1 0
vn 0 1 0
vn 0 1 0
vn 0 1 0
vn 0 1 0
vn 0 1 0
vn 0 1 0
vn 0 1 0
vn 0 1 0
vn 0 1 0
vn 0 1 0
vn 0 1 0
vn 0 1 0
vn 0 1 0
g Grass_1_Cluster67_0
f 2/2/2 3/3/3 1/1/1
f 2/2/2 4/4/4 3/3/3
f 6/6/6 7/7/7 5/5/5
f 6/6/6 8/8/8 7/7/7
f 10/10/10 11/11/11 9/9/9
f 10/10/10 12/12/12 11/11/11
f 14/14/14 15/15/15 13/13/13
f 14/14/14 16/16/16 15/15/15
