g Grass_0_Cluster146
v 110.6238 -0.1385574 201.8916
v 109.6768 -0.1385574 201.8916
v 110.6238 -0.1385574 203.1543
v 109.6768 -0.1385574 203.1543
v 109.9924 -0.1385574 200.6289
v 109.0454 -0.1385574 200.6289
v 109.9924 -0.1385574 202.2072
v 109.0454 -0.1385574 202.2072
v 111.8865 -0.1385574 199.9975
v 110.9395 -0.1385574 199.9975
v 111.8865 -0.1385574 201.2602
v 110.9395 -0.1385574 201.2602
v 112.8335 -0.1385574 198.1035
v 111.8865 -0.1385574 198.1035
v 112.8335 -0.1385574 199.3662
v 111.8865 -0.1385574 199.3662
v 112.8335 -0.1385574 198.1035
v 112.2021 -0.1385574 198.1035
v 112.8335 -0.1385574 199.3662
v 112.2021 -0.1385574 199.3662
v 108.7297 -0.1385574 197.4722
v 107.7827 -0.1385574 197.4722
v 108.7297 -0.1385574 198.7348
v 107.7827 -0.1385574 198.7348
v 109.6768 -0.1385574 196.5251
v 108.7297 -0.1385574 196.5251
v 109.6768 -0.1385574 197.7878
v 108.7297 -0.1385574 197.7878
v 95.47152 -0.1385574 196.2095
v 94.52451 -0.1385574 196.2095
v 95.47152 -0.1385574 197.4722
v 94.52451 -0.1385574 197.4722
v 115.3589 -0.1385574 195.8938
v 114.4118 -0.1385574 195.8938
v 115.3589 -0.1385574 197.1565
v 114.4118 -0.1385574 197.1565
v 95.78719 -0.1385574 195.8938
v 94.84017 -0.1385574 195.8938
v 95.78719 -0.1385574 197.1565
v 94.84017 -0.1385574 197.1565
v 118.1999 -0.1385574 195.2625
v 117.5686 -0.1385574 195.2625
v 118.1999 -0.1385574 196.5251
v 117.5686 -0.1385574 196.5251
v 97.04988 -0.1385574 195.2625
v 96.10286 -0.1385574 195.2625
v 97.04988 -0.1385574 196.5251
v 96.10286 -0.1385574 196.5251
v 113.4648 -0.1385574 194.6311
v 112.5178 -0.1385574 194.6311
v 113.4648 -0.1385574 195.8938
v 112.5178 -0.1385574 195.8938
v 99.57526 -0.1385574 194.3154
v 98.62823 -0.1385574 194.3154
v 99.57526 -0.1385574 195.5781
v 98.62823 -0.1385574 195.5781
v 97.36555 -0.1385574 194.3154
v 96.41853 -0.1385574 194.3154
v 97.36555 -0.1385574 195.5781
v 96.41853 -0.1385574 195.5781
v 97.99689 -0.1385574 193.0527
v 97.04988 -0.1385574 193.0527
v 97.99689 -0.1385574 194.3154
v 97.04988 -0.1385574 194.3154
v 91.99913 -0.1385574 193.0527
v 91.36778 -0.1385574 193.0527
v 91.99913 -0.1385574 194.3154
v 91.36778 -0.1385574 194.3154
v 93.57748 -0.1385574 193.0527
v 92.63047 -0.1385574 193.0527
v 93.57748 -0.1385574 194.3154
v 92.63047 -0.1385574 194.3154
v 95.15585 -0.1385574 192.4214
v 94.20883 -0.1385574 192.4214
v 95.15585 -0.1385574 193.6841
v 94.20883 -0.1385574 193.6841
v 90.73643 -0.1385574 192.4214
v 89.78942 -0.1385574 192.4214
v 90.73643 -0.1385574 193.6841
v 89.78942 -0.1385574 193.6841
v 113.1492 -0.1385574 192.1057
v 112.2021 -0.1385574 192.1057
v 113.1492 -0.1385574 193.6841
v 112.2021 -0.1385574 193.6841
v 94.52451 -0.1385574 191.7901
v 93.57748 -0.1385574 191.7901
v 94.52451 -0.1385574 193.0527
v 93.57748 -0.1385574 193.0527
v 119.7783 -0.1385574 191.7901
v 118.8313 -0.1385574 191.7901
v 119.7783 -0.1385574 193.0527
v 118.8313 -0.1385574 193.0527
v 98.31257 -0.1385574 190.843
v 97.36555 -0.1385574 190.843
v 98.31257 -0.1385574 192.1057
v 97.36555 -0.1385574 192.1057
v 93.89316 -0.1385574 190.843
v 92.94614 -0.1385574 190.843
v 93.89316 -0.1385574 191.7901
v 92.94614 -0.1385574 191.7901
v 92.94614 -0.1385574 189.896
v 91.99913 -0.1385574 189.896
v 92.94614 -0.1385574 191.1587
v 91.99913 -0.1385574 191.1587
v 118.1999 -0.1385574 184.2139
v 117.2529 -0.1385574 184.2139
v 118.1999 -0.1385574 185.4766
v 117.2529 -0.1385574 185.4766
v 109.3611 -0.1385574 178.5318
v 108.4141 -0.1385574 178.5318
v 109.3611 -0.1385574 179.7945
v 108.4141 -0.1385574 179.7945
v 110.9395 -0.1385574 177.2691
v 110.3081 -0.1385574 177.2691
v 110.9395 -0.1385574 178.5318
v 110.3081 -0.1385574 178.5318
v 109.3611 -0.1385574 175.0594
v 108.4141 -0.1385574 175.0594
v 109.3611 -0.1385574 176.3221
v 108.4141 -0.1385574 176.3221
v 110.3081 -0.1385574 174.4281
v 109.3611 -0.1385574 174.4281
v 110.3081 -0.1385574 175.6908
v 109.3611 -0.1385574 175.6908
v 107.4671 -0.1385574 174.4281
v 106.8357 -0.1385574 174.4281
v 107.4671 -0.1385574 175.3751
v 106.8357 -0.1385574 175.3751
v 95.47152 -0.1385574 173.7968
v 94.84017 -0.1385574 173.7968
v 95.47152 -0.1385574 175.0594
v 94.84017 -0.1385574 175.0594
v 108.0984 -0.1385574 173.4811
v 107.1514 -0.1385574 173.4811
v 108.0984 -0.1385574 174.7438
v 107.1514 -0.1385574 174.7438
vt 0 0.9058824
vt 0.06666667 0.9058824
vt 0 1
vt 0.06666667 1
vt 0 0.9058824
vt 0.06666667 0.9058824
vt 0 1
vt 0.06666667 1
vt 0 0.9058824
vt 0.06666667 0.9058824
vt 0 1
vt 0.06666667 1
vt 0 0.9058824
vt 0.06666667 0.9058824
vt 0 1
vt 0.06666667 1
vt 0 0.9058824
vt 0.06666667 0.9058824
vt 0 1
vt 0.06666667 1
vt 0 0.9058824
vt 0.06666667 0.9058824
vt 0 1
vt 0.06666667 1
vt 0 0.9058824
vt 0.06666667 0.9058824
vt 0 1
vt 0.06666667 1
vt 0 0.9058824
vt 0.06666667 0.9058824
vt 0 1
vt 0.06666667 1
vt 0 0.9058824
vt 0.06666667 0.9058824
vt 0 1
vt 0.06666667 1
vt 0 0.9058824
vt 0.06666667 0.9058824
vt 0 1
vt 0.06666667 1
vt 0 0.9058824
vt 0.06666667 0.9058824
vt 0 1
vt 0.06666667 1
vt 0 0.9058824
vt 0.06666667 0.9058824
vt 0 1
vt 0.06666667 1
vt 0 0.9058824
vt 0.06666667 0.9058824
vt 0 1
vt 0.06666667 1
vt 0 0.9058824
vt 0.06666667 0.9058824
vt 0 1
vt 0.06666667 1
vt 0 0.9058824
vt 0.06666667 0.9058824
vt 0 1
vt 0.06666667 1
vt 0 0.9058824
vt 0.06666667 0.9058824
vt 0 1
vt 0.06666667 1
vt 0 0.9058824
vt 0.06666667 0.9058824
vt 0 1
vt 0.06666667 1
vt 0 0.9058824
vt 0.06666667 0.9058824
vt 0 1
vt 0.06666667 1
vt 0 0.9058824
vt 0.06666667 0.9058824
vt 0 1
vt 0.06666667 1
vt 0 0.9058824
vt 0.06666667 0.9058824
vt 0 1
vt 0.06666667 1
vt 0 0.9058824
vt 0.06666667 0.9058824
vt 0 1
vt 0.06666667 1
vt 0 0.9058824
vt 0.06666667 0.9058824
vt 0 1
vt 0.06666667 1
vt 0 0.9058824
vt 0.06666667 0.9058824
vt 0 1
vt 0.06666667 1
vt 0 0.9058824
vt 0.06666667 0.9058824
vt 0 1
vt 0.06666667 1
vt 0 0.9058824
vt 0.06666667 0.9058824
vt 0 1
vt 0.06666667 1
vt 0 0.9058824
vt 0.06666667 0.9058824
vt 0 1
vt 0.06666667 1
vt 0 0.9058824
vt 0.06666667 0.9058824
vt 0 1
vt 0.06666667 1
vt 0 0.9058824
vt 0.06666667 0.9058824
vt 0 1
vt 0.06666667 1
vt 0 0.9058824
vt 0.06666667 0.9058824
vt 0 1
vt 0.06666667 1
vt 0 0.9058824
vt 0.06666667 0.9058824
vt 0 1
vt 0.06666667 1
vt 0 0.9058824
vt 0.06666667 0.9058824
vt 0 1
vt 0.06666667 1
vt 0 0.9058824
vt 0.06666667 0.9058824
vt 0 1
vt 0.06666667 1
vt 0 0.9058824
vt 0.06666667 0.9058824
vt 0 1
vt 0.06666667 1
vt 0 0.9058824
vt 0.06666667 0.9058824
vt 0 1
vt 0.06666667 1
vn 0 1 0
vn 0 1 0
vn 0 1 0
vn 0 1 0
vn 0 1 0
vn 0 1 0
vn 0 1 0
vn 0 1 0
vn 0 1 0
vn 0 1 0
vn 0 1 0
vn 0 1 0
vn 0 1 0
vn 0 1 0
vn 0 1 0
vn 0 1 0
vn 0 1 0
vn 0 1 0
vn 0 1 0
vn 0 1 0
vn 0 1 0
vn 0 1 0
vn 0 1 0
vn 0 1 0
vn 0 1 0
vn 0 1 0
vn 0 1 0
vn 0 1 0
vn 0 1 0
vn 0 1 0
vn 0 1 0
vn 0 1 0
vn 0 1 0
vn 0 1 0
vn 0 1 0
vn 0 1 0
vn 0 1 0
vn 0 1 0
vn 0 1 0
vn 0 1 0
vn 0 1 0
vn 0 1 0
vn 0 1 0
vn 0 1 0
vn 0 1 0
vn 0 1 0
vn 0 1 0
vn 0 1 0
vn 0 1 0
vn 0 1 0
vn 0 1 0
vn 0 1 0
vn 0 1 0
vn 0 1 0
vn 0 1 0
vn 0 1 0
vn 0 1 0
vn 0 1 0
vn 0 1 0
vn 0 1 0
vn 0 1 0
vn 0 1 0
vn 0 1 0
vn 0 1 0
vn 0 1 0
vn 0 1 0
vn 0 1 0
vn 0 1 0
vn 0 1 0
vn 0 1 0
vn 0 1 0
vn 0 1 0
vn 0 1 0
vn 0 1 0
vn 0 1 0
vn 0 1 0
vn 0 1 0
vn 0 1 0
vn 0 1 0
vn 0 1 0
vn 0 1 0
vn 0 1 0
vn 0 1 0
vn 0 1 0
vn 0 1 0
vn 0 1 0
vn 0 1 0
vn 0 1 0
vn 0 1 0
vn 0 1 0
vn 0 1 0
vn 0 1 0
vn 0 1 0
vn 0 1 0
vn 0 1 0
vn 0 1 0
vn 0 1 0
vn 0 1 0
vn 0 1 0
vn 0 1 0
vn 0 1 0
vn 0 1 0
vn 0 1 0
vn 0 1 0
vn 0 1 0
vn 0 1 0
vn 0 1 0
vn 0 1 0
vn 0 1 0
vn 0 1 0
vn 0 1 0
vn 0 1 0
vn 0 1 0
vn 0 1 0
vn 0 1 0
vn 0 1 0
vn 0 1 0
vn 0 1 0
vn 0 1 0
vn 0 1 0
vn 0 1 0
vn 0 1 0
vn 0 1 0
vn 0 1 0
vn 0 1 0
vn 0 1 0
vn 0 1 0
vn 0 1 0
vn 0 1 0
vn 0 1 0
vn 0 1 0
vn 0 1 0
vn 0 1 0
vn 0 1 0
vn 0 1 0
vn 0 1 0
g Grass_0_Cluster146_0
f 2/2/2 3/3/3 1/1/1
f 2/2/2 4/4/4 3/3/3
f 6/6/6 7/7/7 5/5/5
f 6/6/6 8/8/8 7/7/7
f 10/10/10 11/11/11 9/9/9
f 10/10/10 12/12/12 11/11/11
f 14/14/14 15/15/15 13/13/13
f 14/14/14 16/16/16 15/15/15
f 18/18/18 19/19/19 17/17/17
f 18/18/18 20/20/20 19/19/19
f 22/22/22 23/23/23 21/21/21
f 22/22/22 24/24/24 23/23/23
f 26/26/26 27/27/27 25/25/25
f 26/26/26 28/28/28 27/27/27
f 30/30/30 31/31/31 29/29/29
f 30/30/30 32/32/32 31/31/31
f 34/34/34 35/35/35 33/33/33
f 34/34/34 36/36/36 35/35/35
f 38/38/38 39/39/39 37/37/37
f 38/38/38 40/40/40 39/39/39
f 42/42/42 43/43/43 41/41/41
f 42/42/42 44/44/44 43/43/43
f 46/46/46 47/47/47 45/45/45
f 46/46/46 48/48/48 47/47/47
f 50/50/50 51/51/51 49/49/49
f 50/50/50 52/52/52 51/51/51
f 54/54/54 55/55/55 53/53/53
f 54/54/54 56/56/56 55/55/55
f 58/58/58 59/59/59 57/57/57
f 58/58/58 60/60/60 59/59/59
f 62/62/62 63/63/63 61/61/61
f 62/62/62 64/64/64 63/63/63
f 66/66/66 67/67/67 65/65/65
f 66/66/66 68/68/68 67/67/67
f 70/70/70 71/71/71 69/69/69
f 70/70/70 72/72/72 71/71/71
f 74/74/74 75/75/75 73/73/73
f 74/74/74 76/76/76 75/75/75
f 78/78/78 79/79/79 77/77/77
f 78/78/78 80/80/80 79/79/79
f 82/82/82 83/83/83 81/81/81
f 82/82/82 84/84/84 83/83/83
f 86/86/86 87/87/87 85/85/85
f 86/86/86 88/88/88 87/87/87
f 90/90/90 91/91/91 89/89/89
f 90/90/90 92/92/92 91/91/91
f 94/94/94 95/95/95 93/93/93
f 94/94/94 96/96/96 95/95/95
f 98/98/98 99/99/99 97/97/97
f 98/98/98 100/100/100 99/99/99
f 102/102/102 103/103/103 101/101/101
f 102/102/102 104/104/104 103/103/103
f 106/106/106 107/107/107 105/105/105
f 106/106/106 108/108/108 107/107/107
f 110/110/110 111/111/111 109/109/109
f 110/110/110 112/112/112 111/111/111
f 114/114/114 115/115/115 113/113/113
f 114/114/114 116/116/116 115/115/115
f 118/118/118 119/119/119 117/117/117
f 118/118/118 120/120/120 119/119/119
f 122/122/122 123/123/123 121/121/121
f 122/122/122 124/124/124 123/123/123
f 126/126/126 127/127/127 125/125/125
f 126/126/126 128/128/128 127/127/127
f 130/130/130 131/131/131 129/129/129
f 130/130/130 132/132/132 131/131/131
f 134/134/134 135/135/135 133/133/133
f 134/134/134 136/136/136 135/135/135
