g Grass_2_Cluster219
v -283.4134 0 288.6456
v -284.2854 0 288.6456
v -283.4134 0 289.8083
v -284.2854 0 289.8083
v -277.8904 0 287.7736
v -279.0532 0 287.7736
v -277.8904 0 288.6456
v -279.0532 0 288.6456
v -281.96 0 287.4829
v -283.1227 0 287.4829
v -281.96 0 288.6456
v -283.1227 0 288.6456
v -272.0768 0 287.4829
v -272.9489 0 287.4829
v -272.0768 0 288.3549
v -272.9489 0 288.3549
v -284.8668 0 287.1922
v -285.7388 0 287.1922
v -284.8668 0 288.3549
v -285.7388 0 288.3549
v -283.4134 0 286.9016
v -284.2854 0 286.9016
v -283.4134 0 288.0643
v -284.2854 0 288.0643
v -285.7388 0 286.9016
v -286.9016 0 286.9016
v -285.7388 0 288.0643
v -286.9016 0 288.0643
v -281.96 0 286.6109
v -282.832 0 286.6109
v -281.96 0 287.7736
v -282.832 0 287.7736
v -283.9947 0 286.3202
v -284.8668 0 286.3202
v -283.9947 0 287.4829
v -284.8668 0 287.4829
v -290.099 0 286.0295
v -290.9711 0 286.0295
v -290.099 0 287.1922
v -290.9711 0 287.1922
v -282.5413 0 286.0295
v -283.4134 0 286.0295
v -282.5413 0 287.1922
v -283.4134 0 287.1922
v -284.2854 0 286.0295
v -285.4482 0 286.0295
v -284.2854 0 287.1922
v -285.4482 0 287.1922
v -290.3897 0 285.7388
v -291.5524 0 285.7388
v -290.3897 0 286.9016
v -291.5524 0 286.9016
v -277.5998 0 285.7388
v -278.7625 0 285.7388
v -277.5998 0 286.9016
v -278.7625 0 286.9016
v -287.1922 0 285.7388
v -288.0643 0 285.7388
v -287.1922 0 286.9016
v -288.0643 0 286.9016
v -281.6693 0 285.7388
v -282.5413 0 285.7388
v -281.6693 0 286.9016
v -282.5413 0 286.9016
v -282.5413 0 285.4482
v -283.4134 0 285.4482
v -282.5413 0 286.6109
v -283.4134 0 286.6109
v -285.4482 0 285.1575
v -286.3202 0 285.1575
v -285.4482 0 286.3202
v -286.3202 0 286.3202
v -279.3438 0 285.1575
v -280.2159 0 285.1575
v -279.3438 0 286.0295
v -280.2159 0 286.0295
v -288.0643 0 285.1575
v -289.227 0 285.1575
v -288.0643 0 286.3202
v -289.227 0 286.3202
v -291.2617 0 285.1575
v -292.1338 0 285.1575
v -291.2617 0 286.3202
v -292.1338 0 286.3202
v -286.9016 0 284.8668
v -287.7736 0 284.8668
v -286.9016 0 286.0295
v -287.7736 0 286.0295
v -283.9947 0 284.8668
v -285.1575 0 284.8668
v -283.9947 0 286.0295
v -285.1575 0 286.0295
v -280.2159 0 284.8668
v -281.0879 0 284.8668
v -280.2159 0 286.0295
v -281.0879 0 286.0295
v -286.3202 0 284.5761
v -287.4829 0 284.5761
v -286.3202 0 285.7388
v -287.4829 0 285.7388
v -280.7972 0 284.5761
v -281.96 0 284.5761
v -280.7972 0 285.4482
v -281.96 0 285.4482
v -292.1338 0 284.2854
v -293.0058 0 284.2854
v -292.1338 0 285.4482
v -293.0058 0 285.4482
v -283.704 0 284.2854
v -284.5761 0 284.2854
v -283.704 0 285.1575
v -284.5761 0 285.1575
v -280.2159 0 284.2854
v -281.0879 0 284.2854
v -280.2159 0 285.4482
v -281.0879 0 285.4482
v -289.227 0 283.9947
v -290.099 0 283.9947
v -289.227 0 285.1575
v -290.099 0 285.1575
v -290.099 0 283.9947
v -290.9711 0 283.9947
v -290.099 0 285.1575
v -290.9711 0 285.1575
v -284.5761 0 283.9947
v -285.4482 0 283.9947
v -284.5761 0 285.1575
v -285.4482 0 285.1575
v -277.5998 0 283.704
v -278.7625 0 283.704
v -277.5998 0 284.8668
v -278.7625 0 284.8668
v -287.4829 0 283.704
v -288.3549 0 283.704
v -287.4829 0 284.8668
v -288.3549 0 284.8668
v -289.8083 0 283.704
v -290.6804 0 283.704
v -289.8083 0 284.5761
v -290.6804 0 284.5761
v -282.2506 0 283.4134
v -283.1227 0 283.4134
v -282.2506 0 284.5761
v -283.1227 0 284.5761
v -290.9711 0 283.4134
v -291.8431 0 283.4134
v -290.9711 0 284.5761
v -291.8431 0 284.5761
v -288.3549 0 283.1227
v -289.227 0 283.1227
v -288.3549 0 284.2854
v -289.227 0 284.2854
v -280.2159 0 283.1227
v -281.0879 0 283.1227
v -280.2159 0 284.2854
v -281.0879 0 284.2854
v -286.6109 0 283.1227
v -287.4829 0 283.1227
v -286.6109 0 283.9947
v -287.4829 0 283.9947
v -288.9363 0 282.5413
v -290.099 0 282.5413
v -288.9363 0 283.704
v -290.099 0 283.704
v -284.8668 0 282.2506
v -286.0295 0 282.2506
v -284.8668 0 283.4134
v -286.0295 0 283.4134
v -295.6219 0 279.3438
v -296.7847 0 279.3438
v -295.6219 0 280.5066
v -296.7847 0 280.5066
v -294.1685 0 273.2396
v -295.0406 0 273.2396
v -294.1685 0 274.4023
v -295.0406 0 274.4023
v -294.1685 0 270.9141
v -295.0406 0 270.9141
v -294.1685 0 271.7862
v -295.0406 0 271.7862
v -295.3313 0 269.4607
v -296.494 0 269.4607
v -295.3313 0 270.6234
v -296.494 0 270.6234
v -295.0406 0 269.17
v -296.2033 0 269.17
v -295.0406 0 270.3328
v -296.2033 0 270.3328
v -293.8779 0 269.17
v -294.7499 0 269.17
v -293.8779 0 270.3328
v -294.7499 0 270.3328
v -294.4592 0 268.5887
v -295.6219 0 268.5887
v -294.4592 0 269.7514
v -295.6219 0 269.7514
v -294.1685 0 267.1353
v -295.3313 0 267.1353
v -294.1685 0 268.298
v -295.3313 0 268.298
v -296.494 0 266.8446
v -297.366 0 266.8446
v -296.494 0 268.0073
v -297.366 0 268.0073
v -293.8779 0 266.5539
v -294.7499 0 266.5539
v -293.8779 0 267.7166
v -294.7499 0 267.7166
v -292.7151 0 265.9726
v -293.5872 0 265.9726
v -292.7151 0 267.1353
v -293.5872 0 267.1353
v -293.2965 0 265.3912
v -294.4592 0 265.3912
v -293.2965 0 266.8446
v -294.4592 0 266.8446
v -294.7499 0 265.1005
v -295.6219 0 265.1005
v -294.7499 0 266.2632
v -295.6219 0 266.2632
v -292.4245 0 264.8098
v -293.2965 0 264.8098
v -292.4245 0 265.6819
v -293.2965 0 265.6819
v -294.4592 0 264.5191
v -295.3313 0 264.5191
v -294.4592 0 265.6819
v -295.3313 0 265.6819
v -292.7151 0 264.5191
v -293.5872 0 264.5191
v -292.7151 0 265.6819
v -293.5872 0 265.6819
v -293.8779 0 263.9378
v -294.7499 0 263.9378
v -293.8779 0 264.8098
v -294.7499 0 264.8098
v -295.0406 0 263.6471
v -295.9126 0 263.6471
v -295.0406 0 264.5191
v -295.9126 0 264.5191
vt 0.1347656 0.9185662
vt 0.2060202 0.9185662
vt 0.1347656 1
vt 0.2060202 1
vt 0.1347656 0.9185662
vt 0.2060202 0.9185662
vt 0.1347656 1
vt 0.2060202 1
vt 0.1347656 0.9185662
vt 0.2060202 0.9185662
vt 0.1347656 1
vt 0.2060202 1
vt 0.1347656 0.9185662
vt 0.2060202 0.9185662
vt 0.1347656 1
vt 0.2060202 1
vt 0.1347656 0.9185662
vt 0.2060202 0.9185662
vt 0.1347656 1
vt 0.2060202 1
vt 0.1347656 0.9185662
vt 0.2060202 0.9185662
vt 0.1347656 1
vt 0.2060202 1
vt 0.1347656 0.9185662
vt 0.2060202 0.9185662
vt 0.1347656 1
vt 0.2060202 1
vt 0.1347656 0.9185662
vt 0.2060202 0.9185662
vt 0.1347656 1
vt 0.2060202 1
vt 0.1347656 0.9185662
vt 0.2060202 0.9185662
vt 0.1347656 1
vt 0.2060202 1
vt 0.1347656 0.9185662
vt 0.2060202 0.9185662
vt 0.1347656 1
vt 0.2060202 1
vt 0.1347656 0.9185662
vt 0.2060202 0.9185662
vt 0.1347656 1
vt 0.2060202 1
vt 0.1347656 0.9185662
vt 0.2060202 0.9185662
vt 0.1347656 1
vt 0.2060202 1
vt 0.1347656 0.9185662
vt 0.2060202 0.9185662
vt 0.1347656 1
vt 0.2060202 1
vt 0.1347656 0.9185662
vt 0.2060202 0.9185662
vt 0.1347656 1
vt 0.2060202 1
vt 0.1347656 0.9185662
vt 0.2060202 0.9185662
vt 0.1347656 1
vt 0.2060202 1
vt 0.1347656 0.9185662
vt 0.2060202 0.9185662
vt 0.1347656 1
vt 0.2060202 1
vt 0.1347656 0.9185662
vt 0.2060202 0.9185662
vt 0.1347656 1
vt 0.2060202 1
vt 0.1347656 0.9185662
vt 0.2060202 0.9185662
vt 0.1347656 1
vt 0.2060202 1
vt 0.1347656 0.9185662
vt 0.2060202 0.9185662
vt 0.1347656 1
vt 0.2060202 1
vt 0.1347656 0.9185662
vt 0.2060202 0.9185662
vt 0.1347656 1
vt 0.2060202 1
vt 0.1347656 0.9185662
vt 0.2060202 0.9185662
vt 0.1347656 1
vt 0.2060202 1
vt 0.1347656 0.9185662
vt 0.2060202 0.9185662
vt 0.1347656 1
vt 0.2060202 1
vt 0.1347656 0.9185662
vt 0.2060202 0.9185662
vt 0.1347656 1
vt 0.2060202 1
vt 0.1347656 0.9185662
vt 0.2060202 0.9185662
vt 0.1347656 1
vt 0.2060202 1
vt 0.1347656 0.9185662
vt 0.2060202 0.9185662
vt 0.1347656 1
vt 0.2060202 1
vt 0.1347656 0.9185662
vt 0.2060202 0.9185662
vt 0.1347656 1
vt 0.2060202 1
vt 0.1347656 0.9185662
vt 0.2060202 0.9185662
vt 0.1347656 1
vt 0.2060202 1
vt 0.1347656 0.9185662
vt 0.2060202 0.9185662
vt 0.1347656 1
vt 0.2060202 1
vt 0.1347656 0.9185662
vt 0.2060202 0.9185662
vt 0.1347656 1
vt 0.2060202 1
vt 0.1347656 0.9185662
vt 0.2060202 0.9185662
vt 0.1347656 1
vt 0.2060202 1
vt 0.1347656 0.9185662
vt 0.2060202 0.9185662
vt 0.1347656 1
vt 0.2060202 1
vt 0.1347656 0.9185662
vt 0.2060202 0.9185662
vt 0.1347656 1
vt 0.2060202 1
vt 0.1347656 0.9185662
vt 0.2060202 0.9185662
vt 0.1347656 1
vt 0.2060202 1
vt 0.1347656 0.9185662
vt 0.2060202 0.9185662
vt 0.1347656 1
vt 0.2060202 1
vt 0.1347656 0.9185662
vt 0.2060202 0.9185662
vt 0.1347656 1
vt 0.2060202 1
vt 0.1347656 0.9185662
vt 0.2060202 0.9185662
vt 0.1347656 1
vt 0.2060202 1
vt 0.1347656 0.9185662
vt 0.2060202 0.9185662
vt 0.1347656 1
vt 0.2060202 1
vt 0.1347656 0.9185662
vt 0.2060202 0.9185662
vt 0.1347656 1
vt 0.2060202 1
vt 0.1347656 0.9185662
vt 0.2060202 0.9185662
vt 0.1347656 1
vt 0.2060202 1
vt 0.1347656 0.9185662
vt 0.2060202 0.9185662
vt 0.1347656 1
vt 0.2060202 1
vt 0.1347656 0.9185662
vt 0.2060202 0.9185662
vt 0.1347656 1
vt 0.2060202 1
vt 0.1347656 0.9185662
vt 0.2060202 0.9185662
vt 0.1347656 1
vt 0.2060202 1
vt 0.1347656 0.9185662
vt 0.2060202 0.9185662
vt 0.1347656 1
vt 0.2060202 1
vt 0.1347656 0.9185662
vt 0.2060202 0.9185662
vt 0.1347656 1
vt 0.2060202 1
vt 0.1347656 0.9185662
vt 0.2060202 0.9185662
vt 0.1347656 1
vt 0.2060202 1
vt 0.1347656 0.9185662
vt 0.2060202 0.9185662
vt 0.1347656 1
vt 0.2060202 1
vt 0.1347656 0.9185662
vt 0.2060202 0.9185662
vt 0.1347656 1
vt 0.2060202 1
vt 0.1347656 0.9185662
vt 0.2060202 0.9185662
vt 0.1347656 1
vt 0.2060202 1
vt 0.1347656 0.9185662
vt 0.2060202 0.9185662
vt 0.1347656 1
vt 0.2060202 1
vt 0.1347656 0.9185662
vt 0.2060202 0.9185662
vt 0.1347656 1
vt 0.2060202 1
vt 0.1347656 0.9185662
vt 0.2060202 0.9185662
vt 0.1347656 1
vt 0.2060202 1
vt 0.1347656 0.9185662
vt 0.2060202 0.9185662
vt 0.1347656 1
vt 0.2060202 1
vt 0.1347656 0.9185662
vt 0.2060202 0.9185662
vt 0.1347656 1
vt 0.2060202 1
vt 0.1347656 0.9185662
vt 0.2060202 0.9185662
vt 0.1347656 1
vt 0.2060202 1
vt 0.1347656 0.9185662
vt 0.2060202 0.9185662
vt 0.1347656 1
vt 0.2060202 1
vt 0.1347656 0.9185662
vt 0.2060202 0.9185662
vt 0.1347656 1
vt 0.2060202 1
vt 0.1347656 0.9185662
vt 0.2060202 0.9185662
vt 0.1347656 1
vt 0.2060202 1
vt 0.1347656 0.9185662
vt 0.2060202 0.9185662
vt 0.1347656 1
vt 0.2060202 1
vt 0.1347656 0.9185662
vt 0.2060202 0.9185662
vt 0.1347656 1
vt 0.2060202 1
vt 0.1347656 0.9185662
vt 0.2060202 0.9185662
vt 0.1347656 1
vt 0.2060202 1
vn 0 1 0
vn 0 1 0
vn 0 1 0
vn 0 1 0
vn 0 1 0
vn 0 1 0
vn 0 1 0
vn 0 1 0
vn 0 1 0
vn 0 1 0
vn 0 1 0
vn 0 1 0
vn 0 1 0
vn 0 1 0
vn 0 1 0
vn 0 1 0
vn 0 1 0
vn 0 1 0
vn 0 1 0
vn 0 1 0
vn 0 1 0
vn 0 1 0
vn 0 1 0
vn 0 1 0
vn 0 1 0
vn 0 1 0
vn 0 1 0
vn 0 1 0
vn 0 1 0
vn 0 1 0
vn 0 1 0
vn 0 1 0
vn 0 1 0
vn 0 1 0
vn 0 1 0
vn 0 1 0
vn 0 1 0
vn 0 1 0
vn 0 1 0
vn 0 1 0
vn 0 1 0
vn 0 1 0
vn 0 1 0
vn 0 1 0
vn 0 1 0
vn 0 1 0
vn 0 1 0
vn 0 1 0
vn 0 1 0
vn 0 1 0
vn 0 1 0
vn 0 1 0
vn 0 1 0
vn 0 1 0
vn 0 1 0
vn 0 1 0
vn 0 1 0
vn 0 1 0
vn 0 1 0
vn 0 1 0
vn 0 1 0
vn 0 1 0
vn 0 1 0
vn 0 1 0
vn 0 1 0
vn 0 1 0
vn 0 1 0
vn 0 1 0
vn 0 1 0
vn 0 1 0
vn 0 1 0
vn 0 1 0
vn 0 1 0
vn 0 1 0
vn 0 1 0
vn 0 1 0
vn 0 1 0
vn 0 1 0
vn 0 1 0
vn 0 1 0
vn 0 1 0
vn 0 1 0
vn 0 1 0
vn 0 1 0
vn 0 1 0
vn 0 1 0
vn 0 1 0
vn 0 1 0
vn 0 1 0
vn 0 1 0
vn 0 1 0
vn 0 1 0
vn 0 1 0
vn 0 1 0
vn 0 1 0
vn 0 1 0
vn 0 1 0
vn 0 1 0
vn 0 1 0
vn 0 1 0
vn 0 1 0
vn 0 1 0
vn 0 1 0
vn 0 1 0
vn 0 1 0
vn 0 1 0
vn 0 1 0
vn 0 1 0
vn 0 1 0
vn 0 1 0
vn 0 1 0
vn 0 1 0
vn 0 1 0
vn 0 1 0
vn 0 1 0
vn 0 1 0
vn 0 1 0
vn 0 1 0
vn 0 1 0
vn 0 1 0
vn 0 1 0
vn 0 1 0
vn 0 1 0
vn 0 1 0
vn 0 1 0
vn 0 1 0
vn 0 1 0
vn 0 1 0
vn 0 1 0
vn 0 1 0
vn 0 1 0
vn 0 1 0
vn 0 1 0
vn 0 1 0
vn 0 1 0
vn 0 1 0
vn 0 1 0
vn 0 1 0
vn 0 1 0
vn 0 1 0
vn 0 1 0
vn 0 1 0
vn 0 1 0
vn 0 1 0
vn 0 1 0
vn 0 1 0
vn 0 1 0
vn 0 1 0
vn 0 1 0
vn 0 1 0
vn 0 1 0
vn 0 1 0
vn 0 1 0
vn 0 1 0
vn 0 1 0
vn 0 1 0
vn 0 1 0
vn 0 1 0
vn 0 1 0
vn 0 1 0
vn 0 1 0
vn 0 1 0
vn 0 1 0
vn 0 1 0
vn 0 1 0
vn 0 1 0
vn 0 1 0
vn 0 1 0
vn 0 1 0
vn 0 1 0
vn 0 1 0
vn 0 1 0
vn 0 1 0
vn 0 1 0
vn 0 1 0
vn 0 1 0
vn 0 1 0
vn 0 1 0
vn 0 1 0
vn 0 1 0
vn 0 1 0
vn 0 1 0
vn 0 1 0
vn 0 1 0
vn 0 1 0
vn 0 1 0
vn 0 1 0
vn 0 1 0
vn 0 1 0
vn 0 1 0
vn 0 1 0
vn 0 1 0
vn 0 1 0
vn 0 1 0
vn 0 1 0
vn 0 1 0
vn 0 1 0
vn 0 1 0
vn 0 1 0
vn 0 1 0
vn 0 1 0
vn 0 1 0
vn 0 1 0
vn 0 1 0
vn 0 1 0
vn 0 1 0
vn 0 1 0
vn 0 1 0
vn 0 1 0
vn 0 1 0
vn 0 1 0
vn 0 1 0
vn 0 1 0
vn 0 1 0
vn 0 1 0
vn 0 1 0
vn 0 1 0
vn 0 1 0
vn 0 1 0
vn 0 1 0
vn 0 1 0
vn 0 1 0
vn 0 1 0
vn 0 1 0
vn 0 1 0
vn 0 1 0
vn 0 1 0
vn 0 1 0
vn 0 1 0
vn 0 1 0
vn 0 1 0
vn 0 1 0
vn 0 1 0
vn 0 1 0
vn 0 1 0
vn 0 1 0
vn 0 1 0
vn 0 1 0
vn 0 1 0
vn 0 1 0
g Grass_2_Cluster219_0
f 2/2/2 3/3/3 1/1/1
f 2/2/2 4/4/4 3/3/3
f 6/6/6 7/7/7 5/5/5
f 6/6/6 8/8/8 7/7/7
f 10/10/10 11/11/11 9/9/9
f 10/10/10 12/12/12 11/11/11
f 14/14/14 15/15/15 13/13/13
f 14/14/14 16/16/16 15/15/15
f 18/18/18 19/19/19 17/17/17
f 18/18/18 20/20/20 19/19/19
f 22/22/22 23/23/23 21/21/21
f 22/22/22 24/24/24 23/23/23
f 26/26/26 27/27/27 25/25/25
f 26/26/26 28/28/28 27/27/27
f 30/30/30 31/31/31 29/29/29
f 30/30/30 32/32/32 31/31/31
f 34/34/34 35/35/35 33/33/33
f 34/34/34 36/36/36 35/35/35
f 38/38/38 39/39/39 37/37/37
f 38/38/38 40/40/40 39/39/39
f 42/42/42 43/43/43 41/41/41
f 42/42/42 44/44/44 43/43/43
f 46/46/46 47/47/47 45/45/45
f 46/46/46 48/48/48 47/47/47
f 50/50/50 51/51/51 49/49/49
f 50/50/50 52/52/52 51/51/51
f 54/54/54 55/55/55 53/53/53
f 54/54/54 56/56/56 55/55/55
f 58/58/58 59/59/59 57/57/57
f 58/58/58 60/60/60 59/59/59
f 62/62/62 63/63/63 61/61/61
f 62/62/62 64/64/64 63/63/63
f 66/66/66 67/67/67 65/65/65
f 66/66/66 68/68/68 67/67/67
f 70/70/70 71/71/71 69/69/69
f 70/70/70 72/72/72 71/71/71
f 74/74/74 75/75/75 73/73/73
f 74/74/74 76/76/76 75/75/75
f 78/78/78 79/79/79 77/77/77
f 78/78/78 80/80/80 79/79/79
f 82/82/82 83/83/83 81/81/81
f 82/82/82 84/84/84 83/83/83
f 86/86/86 87/87/87 85/85/85
f 86/86/86 88/88/88 87/87/87
f 90/90/90 91/91/91 89/89/89
f 90/90/90 92/92/92 91/91/91
f 94/94/94 95/95/95 93/93/93
f 94/94/94 96/96/96 95/95/95
f 98/98/98 99/99/99 97/97/97
f 98/98/98 100/100/100 99/99/99
f 102/102/102 103/103/103 101/101/101
f 102/102/102 104/104/104 103/103/103
f 106/106/106 107/107/107 105/105/105
f 106/106/106 108/108/108 107/107/107
f 110/110/110 111/111/111 109/109/109
f 110/110/110 112/112/112 111/111/111
f 114/114/114 115/115/115 113/113/113
f 114/114/114 116/116/116 115/115/115
f 118/118/118 119/119/119 117/117/117
f 118/118/118 120/120/120 119/119/119
f 122/122/122 123/123/123 121/121/121
f 122/122/122 124/124/124 123/123/123
f 126/126/126 127/127/127 125/125/125
f 126/126/126 128/128/128 127/127/127
f 130/130/130 131/131/131 129/129/129
f 130/130/130 132/132/132 131/131/131
f 134/134/134 135/135/135 133/133/133
f 134/134/134 136/136/136 135/135/135
f 138/138/138 139/139/139 137/137/137
f 138/138/138 140/140/140 139/139/139
f 142/142/142 143/143/143 141/141/141
f 142/142/142 144/144/144 143/143/143
f 146/146/146 147/147/147 145/145/145
f 146/146/146 148/148/148 147/147/147
f 150/150/150 151/151/151 149/149/149
f 150/150/150 152/152/152 151/151/151
f 154/154/154 155/155/155 153/153/153
f 154/154/154 156/156/156 155/155/155
f 158/158/158 159/159/159 157/157/157
f 158/158/158 160/160/160 159/159/159
f 162/162/162 163/163/163 161/161/161
f 162/162/162 164/164/164 163/163/163
f 166/166/166 167/167/167 165/165/165
f 166/166/166 168/168/168 167/167/167
f 170/170/170 171/171/171 169/169/169
f 170/170/170 172/172/172 171/171/171
f 174/174/174 175/175/175 173/173/173
f 174/174/174 176/176/176 175/175/175
f 178/178/178 179/179/179 177/177/177
f 178/178/178 180/180/180 179/179/179
f 182/182/182 183/183/183 181/181/181
f 182/182/182 184/184/184 183/183/183
f 186/186/186 187/187/187 185/185/185
f 186/186/186 188/188/188 187/187/187
f 190/190/190 191/191/191 189/189/189
f 190/190/190 192/192/192 191/191/191
f 194/194/194 195/195/195 193/193/193
f 194/194/194 196/196/196 195/195/195
f 198/198/198 199/199/199 197/197/197
f 198/198/198 200/200/200 199/199/199
f 202/202/202 203/203/203 201/201/201
f 202/202/202 204/204/204 203/203/203
f 206/206/206 207/207/207 205/205/205
f 206/206/206 208/208/208 207/207/207
f 210/210/210 211/211/211 209/209/209
f 210/210/210 212/212/212 211/211/211
f 214/214/214 215/215/215 213/213/213
f 214/214/214 216/216/216 215/215/215
f 218/218/218 219/219/219 217/217/217
f 218/218/218 220/220/220 219/219/219
f 222/222/222 223/223/223 221/221/221
f 222/222/222 224/224/224 223/223/223
f 226/226/226 227/227/227 225/225/225
f 226/226/226 228/228/228 227/227/227
f 230/230/230 231/231/231 229/229/229
f 230/230/230 232/232/232 231/231/231
f 234/234/234 235/235/235 233/233/233
f 234/234/234 236/236/236 235/235/235
f 238/238/238 239/239/239 237/237/237
f 238/238/238 240/240/240 239/239/239
