g Grass_2_Cluster126
v 105.0338 -0.07759094 171.0774
v 104.1851 -0.07759094 171.0774
v 105.0338 -0.07759094 172.209
v 104.1851 -0.07759094 172.209
v 105.5996 -0.07759094 170.2286
v 104.7509 -0.07759094 170.2286
v 105.5996 -0.07759094 171.3603
v 104.7509 -0.07759094 171.3603
v 104.468 -0.07759094 169.9457
v 103.3364 -0.07759094 169.9457
v 104.468 -0.07759094 171.0774
v 103.3364 -0.07759094 171.0774
v 105.3167 -0.07759094 169.097
v 104.468 -0.07759094 169.097
v 105.3167 -0.07759094 170.2286
v 104.468 -0.07759094 170.2286
v 105.8825 -0.07759094 168.8141
v 105.0338 -0.07759094 168.8141
v 105.8825 -0.07759094 169.9457
v 105.0338 -0.07759094 169.9457
v 104.7509 -0.07759094 168.5313
v 103.6193 -0.07759094 168.5313
v 104.7509 -0.07759094 169.6628
v 103.6193 -0.07759094 169.6628
v 107.297 -0.07759094 168.2484
v 106.1654 -0.07759094 168.2484
v 107.297 -0.07759094 169.3799
v 106.1654 -0.07759094 169.3799
v 105.0338 -0.07759094 168.2484
v 104.1851 -0.07759094 168.2484
v 105.0338 -0.07759094 169.3799
v 104.1851 -0.07759094 169.3799
v 103.9022 -0.07759094 167.6826
v 102.7706 -0.07759094 167.6826
v 103.9022 -0.07759094 168.8141
v 102.7706 -0.07759094 168.8141
v 106.1654 -0.07759094 167.3997
v 105.3167 -0.07759094 167.3997
v 106.1654 -0.07759094 168.2484
v 105.3167 -0.07759094 168.2484
v 105.5996 -0.07759094 167.1167
v 104.7509 -0.07759094 167.1167
v 105.5996 -0.07759094 168.2484
v 104.7509 -0.07759094 168.2484
v 108.4286 -0.07759094 166.8338
v 107.5799 -0.07759094 166.8338
v 108.4286 -0.07759094 167.9655
v 107.5799 -0.07759094 167.9655
v 107.0141 -0.07759094 166.5509
v 106.1654 -0.07759094 166.5509
v 107.0141 -0.07759094 167.6826
v 106.1654 -0.07759094 167.6826
v 108.1457 -0.07759094 166.268
v 107.297 -0.07759094 166.268
v 108.1457 -0.07759094 167.3997
v 107.297 -0.07759094 167.3997
v 108.7115 -0.07759094 165.4193
v 107.8628 -0.07759094 165.4193
v 108.7115 -0.07759094 166.5509
v 107.8628 -0.07759094 166.5509
v 108.1457 -0.07759094 163.7219
v 107.297 -0.07759094 163.7219
v 108.1457 -0.07759094 164.5706
v 107.297 -0.07759094 164.5706
v 95.69804 -0.07759094 159.4784
v 94.56644 -0.07759094 159.4784
v 95.69804 -0.07759094 160.61
v 94.56644 -0.07759094 160.61
v 95.41514 -0.07759094 159.4784
v 94.56644 -0.07759094 159.4784
v 95.41514 -0.07759094 160.3271
v 94.56644 -0.07759094 160.3271
v 94.00063 -0.07759094 158.9126
v 92.86903 -0.07759094 158.9126
v 94.00063 -0.07759094 160.0442
v 92.86903 -0.07759094 160.0442
v 96.82964 -0.07759094 158.9126
v 95.98094 -0.07759094 158.9126
v 96.82964 -0.07759094 160.0442
v 95.98094 -0.07759094 160.0442
v 94.56644 -0.07759094 158.6297
v 93.43483 -0.07759094 158.6297
v 94.56644 -0.07759094 159.7613
v 93.43483 -0.07759094 159.7613
v 97.11254 -0.07759094 158.0639
v 95.98094 -0.07759094 158.0639
v 97.11254 -0.07759094 159.1955
v 95.98094 -0.07759094 159.1955
v 93.71774 -0.07759094 158.0639
v 92.86903 -0.07759094 158.0639
v 93.71774 -0.07759094 159.1955
v 92.86903 -0.07759094 159.1955
v 94.28354 -0.07759094 157.781
v 93.43483 -0.07759094 157.781
v 94.28354 -0.07759094 158.6297
v 93.43483 -0.07759094 158.6297
v 95.41514 -0.07759094 157.4981
v 94.56644 -0.07759094 157.4981
v 95.41514 -0.07759094 158.6297
v 94.56644 -0.07759094 158.6297
v 95.98094 -0.07759094 156.9323
v 95.13223 -0.07759094 156.9323
v 95.98094 -0.07759094 158.0639
v 95.13223 -0.07759094 158.0639
v 95.13223 -0.07759094 156.3665
v 94.00063 -0.07759094 156.3665
v 95.13223 -0.07759094 157.4981
v 94.00063 -0.07759094 157.4981
v 97.39545 -0.07759094 156.0836
v 96.26384 -0.07759094 156.0836
v 97.39545 -0.07759094 156.9323
v 96.26384 -0.07759094 156.9323
v 92.86903 -0.07759094 155.8007
v 91.73743 -0.07759094 155.8007
v 92.86903 -0.07759094 156.6494
v 91.73743 -0.07759094 156.6494
v 94.56644 -0.07759094 154.3862
v 93.71774 -0.07759094 154.3862
v 94.56644 -0.07759094 155.5178
v 93.71774 -0.07759094 155.5178
v 95.41514 -0.07759094 148.4453
v 94.56644 -0.07759094 148.4453
v 95.41514 -0.07759094 149.5769
v 94.56644 -0.07759094 149.5769
v 96.82964 -0.07759094 148.1624
v 95.98094 -0.07759094 148.1624
v 96.82964 -0.07759094 149.294
v 95.98094 -0.07759094 149.294
v 94.00063 -0.07759094 147.8795
v 92.86903 -0.07759094 147.8795
v 94.00063 -0.07759094 149.0111
v 92.86903 -0.07759094 149.0111
v 98.24414 -0.07759094 147.5966
v 97.11254 -0.07759094 147.5966
v 98.24414 -0.07759094 148.7282
v 97.11254 -0.07759094 148.7282
v 109.2773 -0.07759094 147.3137
v 108.1457 -0.07759094 147.3137
v 109.2773 -0.07759094 148.4453
v 108.1457 -0.07759094 148.4453
v 113.5208 -0.07759094 146.1821
v 112.6721 -0.07759094 146.1821
v 113.5208 -0.07759094 147.3137
v 112.6721 -0.07759094 147.3137
v 112.6721 -0.07759094 145.8992
v 111.5405 -0.07759094 145.8992
v 112.6721 -0.07759094 147.0308
v 111.5405 -0.07759094 147.0308
v 110.4089 -0.07759094 145.8992
v 109.5602 -0.07759094 145.8992
v 110.4089 -0.07759094 147.0308
v 109.5602 -0.07759094 147.0308
v 112.6721 -0.07759094 145.3334
v 111.5405 -0.07759094 145.3334
v 112.6721 -0.07759094 146.465
v 111.5405 -0.07759094 146.465
v 108.9944 -0.07759094 144.7676
v 108.1457 -0.07759094 144.7676
v 108.9944 -0.07759094 145.8992
v 108.1457 -0.07759094 145.8992
v 110.4089 -0.07759094 144.4847
v 109.5602 -0.07759094 144.4847
v 110.4089 -0.07759094 145.3334
v 109.5602 -0.07759094 145.3334
v 111.8234 -0.07759094 144.2018
v 110.6918 -0.07759094 144.2018
v 111.8234 -0.07759094 145.3334
v 110.6918 -0.07759094 145.3334
v 111.8234 -0.07759094 144.2018
v 110.6918 -0.07759094 144.2018
v 111.8234 -0.07759094 145.3334
v 110.6918 -0.07759094 145.3334
v 117.1985 -0.07759094 144.2018
v 116.0669 -0.07759094 144.2018
v 117.1985 -0.07759094 145.3334
v 116.0669 -0.07759094 145.3334
v 109.8431 -0.07759094 143.9189
v 108.9944 -0.07759094 143.9189
v 109.8431 -0.07759094 145.0505
v 108.9944 -0.07759094 145.0505
v 113.2379 -0.07759094 143.636
v 112.1063 -0.07759094 143.636
v 113.2379 -0.07759094 144.7676
v 112.1063 -0.07759094 144.7676
v 114.0866 -0.07759094 143.0702
v 113.2379 -0.07759094 143.0702
v 114.0866 -0.07759094 144.2018
v 113.2379 -0.07759094 144.2018
v 112.1063 -0.07759094 143.0702
v 111.2576 -0.07759094 143.0702
v 112.1063 -0.07759094 144.2018
v 111.2576 -0.07759094 144.2018
vt 0.1347656 0.9185662
vt 0.2060202 0.9185662
vt 0.1347656 1
vt 0.2060202 1
vt 0.1347656 0.9185662
vt 0.2060202 0.9185662
vt 0.1347656 1
vt 0.2060202 1
vt 0.1347656 0.9185662
vt 0.2060202 0.9185662
vt 0.1347656 1
vt 0.2060202 1
vt 0.1347656 0.9185662
vt 0.2060202 0.9185662
vt 0.1347656 1
vt 0.2060202 1
vt 0.1347656 0.9185662
vt 0.2060202 0.9185662
vt 0.1347656 1
vt 0.2060202 1
vt 0.1347656 0.9185662
vt 0.2060202 0.9185662
vt 0.1347656 1
vt 0.2060202 1
vt 0.1347656 0.9185662
vt 0.2060202 0.9185662
vt 0.1347656 1
vt 0.2060202 1
vt 0.1347656 0.9185662
vt 0.2060202 0.9185662
vt 0.1347656 1
vt 0.2060202 1
vt 0.1347656 0.9185662
vt 0.2060202 0.9185662
vt 0.1347656 1
vt 0.2060202 1
vt 0.1347656 0.9185662
vt 0.2060202 0.9185662
vt 0.1347656 1
vt 0.2060202 1
vt 0.1347656 0.9185662
vt 0.2060202 0.9185662
vt 0.1347656 1
vt 0.2060202 1
vt 0.1347656 0.9185662
vt 0.2060202 0.9185662
vt 0.1347656 1
vt 0.2060202 1
vt 0.1347656 0.9185662
vt 0.2060202 0.9185662
vt 0.1347656 1
vt 0.2060202 1
vt 0.1347656 0.9185662
vt 0.2060202 0.9185662
vt 0.1347656 1
vt 0.2060202 1
vt 0.1347656 0.9185662
vt 0.2060202 0.9185662
vt 0.1347656 1
vt 0.2060202 1
vt 0.1347656 0.9185662
vt 0.2060202 0.9185662
vt 0.1347656 1
vt 0.2060202 1
vt 0.1347656 0.9185662
vt 0.2060202 0.9185662
vt 0.1347656 1
vt 0.2060202 1
vt 0.1347656 0.9185662
vt 0.2060202 0.9185662
vt 0.1347656 1
vt 0.2060202 1
vt 0.1347656 0.9185662
vt 0.2060202 0.9185662
vt 0.1347656 1
vt 0.2060202 1
vt 0.1347656 0.9185662
vt 0.2060202 0.9185662
vt 0.1347656 1
vt 0.2060202 1
vt 0.1347656 0.9185662
vt 0.2060202 0.9185662
vt 0.1347656 1
vt 0.2060202 1
vt 0.1347656 0.9185662
vt 0.2060202 0.9185662
vt 0.1347656 1
vt 0.2060202 1
vt 0.1347656 0.9185662
vt 0.2060202 0.9185662
vt 0.1347656 1
vt 0.2060202 1
vt 0.1347656 0.9185662
vt 0.2060202 0.9185662
vt 0.1347656 1
vt 0.2060202 1
vt 0.1347656 0.9185662
vt 0.2060202 0.9185662
vt 0.1347656 1
vt 0.2060202 1
vt 0.1347656 0.9185662
vt 0.2060202 0.9185662
vt 0.1347656 1
vt 0.2060202 1
vt 0.1347656 0.9185662
vt 0.2060202 0.9185662
vt 0.1347656 1
vt 0.2060202 1
vt 0.1347656 0.9185662
vt 0.2060202 0.9185662
vt 0.1347656 1
vt 0.2060202 1
vt 0.1347656 0.9185662
vt 0.2060202 0.9185662
vt 0.1347656 1
vt 0.2060202 1
vt 0.1347656 0.9185662
vt 0.2060202 0.9185662
vt 0.1347656 1
vt 0.2060202 1
vt 0.1347656 0.9185662
vt 0.2060202 0.9185662
vt 0.1347656 1
vt 0.2060202 1
vt 0.1347656 0.9185662
vt 0.2060202 0.9185662
vt 0.1347656 1
vt 0.2060202 1
vt 0.1347656 0.9185662
vt 0.2060202 0.9185662
vt 0.1347656 1
vt 0.2060202 1
vt 0.1347656 0.9185662
vt 0.2060202 0.9185662
vt 0.1347656 1
vt 0.2060202 1
vt 0.1347656 0.9185662
vt 0.2060202 0.9185662
vt 0.1347656 1
vt 0.2060202 1
vt 0.1347656 0.9185662
vt 0.2060202 0.9185662
vt 0.1347656 1
vt 0.2060202 1
vt 0.1347656 0.9185662
vt 0.2060202 0.9185662
vt 0.1347656 1
vt 0.2060202 1
vt 0.1347656 0.9185662
vt 0.2060202 0.9185662
vt 0.1347656 1
vt 0.2060202 1
vt 0.1347656 0.9185662
vt 0.2060202 0.9185662
vt 0.1347656 1
vt 0.2060202 1
vt 0.1347656 0.9185662
vt 0.2060202 0.9185662
vt 0.1347656 1
vt 0.2060202 1
vt 0.1347656 0.9185662
vt 0.2060202 0.9185662
vt 0.1347656 1
vt 0.2060202 1
vt 0.1347656 0.9185662
vt 0.2060202 0.9185662
vt 0.1347656 1
vt 0.2060202 1
vt 0.1347656 0.9185662
vt 0.2060202 0.9185662
vt 0.1347656 1
vt 0.2060202 1
vt 0.1347656 0.9185662
vt 0.2060202 0.9185662
vt 0.1347656 1
vt 0.2060202 1
vt 0.1347656 0.9185662
vt 0.2060202 0.9185662
vt 0.1347656 1
vt 0.2060202 1
vt 0.1347656 0.9185662
vt 0.2060202 0.9185662
vt 0.1347656 1
vt 0.2060202 1
vt 0.1347656 0.9185662
vt 0.2060202 0.9185662
vt 0.1347656 1
vt 0.2060202 1
vt 0.1347656 0.9185662
vt 0.2060202 0.9185662
vt 0.1347656 1
vt 0.2060202 1
vn 0 1 0
vn 0 1 0
vn 0 1 0
vn 0 1 0
vn 0 1 0
vn 0 1 0
vn 0 1 0
vn 0 1 0
vn 0 1 0
vn 0 1 0
vn 0 1 0
vn 0 1 0
vn 0 1 0
vn 0 1 0
vn 0 1 0
vn 0 1 0
vn 0 1 0
vn 0 1 0
vn 0 1 0
vn 0 1 0
vn 0 1 0
vn 0 1 0
vn 0 1 0
vn 0 1 0
vn 0 1 0
vn 0 1 0
vn 0 1 0
vn 0 1 0
vn 0 1 0
vn 0 1 0
vn 0 1 0
vn 0 1 0
vn 0 1 0
vn 0 1 0
vn 0 1 0
vn 0 1 0
vn 0 1 0
vn 0 1 0
vn 0 1 0
vn 0 1 0
vn 0 1 0
vn 0 1 0
vn 0 1 0
vn 0 1 0
vn 0 1 0
vn 0 1 0
vn 0 1 0
vn 0 1 0
vn 0 1 0
vn 0 1 0
vn 0 1 0
vn 0 1 0
vn 0 1 0
vn 0 1 0
vn 0 1 0
vn 0 1 0
vn 0 1 0
vn 0 1 0
vn 0 1 0
vn 0 1 0
vn 0 1 0
vn 0 1 0
vn 0 1 0
vn 0 1 0
vn 0 1 0
vn 0 1 0
vn 0 1 0
vn 0 1 0
vn 0 1 0
vn 0 1 0
vn 0 1 0
vn 0 1 0
vn 0 1 0
vn 0 1 0
vn 0 1 0
vn 0 1 0
vn 0 1 0
vn 0 1 0
vn 0 1 0
vn 0 1 0
vn 0 1 0
vn 0 1 0
vn 0 1 0
vn 0 1 0
vn 0 1 0
vn 0 1 0
vn 0 1 0
vn 0 1 0
vn 0 1 0
vn 0 1 0
vn 0 1 0
vn 0 1 0
vn 0 1 0
vn 0 1 0
vn 0 1 0
vn 0 1 0
vn 0 1 0
vn 0 1 0
vn 0 1 0
vn 0 1 0
vn 0 1 0
vn 0 1 0
vn 0 1 0
vn 0 1 0
vn 0 1 0
vn 0 1 0
vn 0 1 0
vn 0 1 0
vn 0 1 0
vn 0 1 0
vn 0 1 0
vn 0 1 0
vn 0 1 0
vn 0 1 0
vn 0 1 0
vn 0 1 0
vn 0 1 0
vn 0 1 0
vn 0 1 0
vn 0 1 0
vn 0 1 0
vn 0 1 0
vn 0 1 0
vn 0 1 0
vn 0 1 0
vn 0 1 0
vn 0 1 0
vn 0 1 0
vn 0 1 0
vn 0 1 0
vn 0 1 0
vn 0 1 0
vn 0 1 0
vn 0 1 0
vn 0 1 0
vn 0 1 0
vn 0 1 0
vn 0 1 0
vn 0 1 0
vn 0 1 0
vn 0 1 0
vn 0 1 0
vn 0 1 0
vn 0 1 0
vn 0 1 0
vn 0 1 0
vn 0 1 0
vn 0 1 0
vn 0 1 0
vn 0 1 0
vn 0 1 0
vn 0 1 0
vn 0 1 0
vn 0 1 0
vn 0 1 0
vn 0 1 0
vn 0 1 0
vn 0 1 0
vn 0 1 0
vn 0 1 0
vn 0 1 0
vn 0 1 0
vn 0 1 0
vn 0 1 0
vn 0 1 0
vn 0 1 0
vn 0 1 0
vn 0 1 0
vn 0 1 0
vn 0 1 0
vn 0 1 0
vn 0 1 0
vn 0 1 0
vn 0 1 0
vn 0 1 0
vn 0 1 0
vn 0 1 0
vn 0 1 0
vn 0 1 0
vn 0 1 0
vn 0 1 0
vn 0 1 0
vn 0 1 0
vn 0 1 0
vn 0 1 0
vn 0 1 0
vn 0 1 0
vn 0 1 0
vn 0 1 0
vn 0 1 0
vn 0 1 0
vn 0 1 0
g Grass_2_Cluster126_0
f 2/2/2 3/3/3 1/1/1
f 2/2/2 4/4/4 3/3/3
f 6/6/6 7/7/7 5/5/5
f 6/6/6 8/8/8 7/7/7
f 10/10/10 11/11/11 9/9/9
f 10/10/10 12/12/12 11/11/11
f 14/14/14 15/15/15 13/13/13
f 14/14/14 16/16/16 15/15/15
f 18/18/18 19/19/19 17/17/17
f 18/18/18 20/20/20 19/19/19
f 22/22/22 23/23/23 21/21/21
f 22/22/22 24/24/24 23/23/23
f 26/26/26 27/27/27 25/25/25
f 26/26/26 28/28/28 27/27/27
f 30/30/30 31/31/31 29/29/29
f 30/30/30 32/32/32 31/31/31
f 34/34/34 35/35/35 33/33/33
f 34/34/34 36/36/36 35/35/35
f 38/38/38 39/39/39 37/37/37
f 38/38/38 40/40/40 39/39/39
f 42/42/42 43/43/43 41/41/41
f 42/42/42 44/44/44 43/43/43
f 46/46/46 47/47/47 45/45/45
f 46/46/46 48/48/48 47/47/47
f 50/50/50 51/51/51 49/49/49
f 50/50/50 52/52/52 51/51/51
f 54/54/54 55/55/55 53/53/53
f 54/54/54 56/56/56 55/55/55
f 58/58/58 59/59/59 57/57/57
f 58/58/58 60/60/60 59/59/59
f 62/62/62 63/63/63 61/61/61
f 62/62/62 64/64/64 63/63/63
f 66/66/66 67/67/67 65/65/65
f 66/66/66 68/68/68 67/67/67
f 70/70/70 71/71/71 69/69/69
f 70/70/70 72/72/72 71/71/71
f 74/74/74 75/75/75 73/73/73
f 74/74/74 76/76/76 75/75/75
f 78/78/78 79/79/79 77/77/77
f 78/78/78 80/80/80 79/79/79
f 82/82/82 83/83/83 81/81/81
f 82/82/82 84/84/84 83/83/83
f 86/86/86 87/87/87 85/85/85
f 86/86/86 88/88/88 87/87/87
f 90/90/90 91/91/91 89/89/89
f 90/90/90 92/92/92 91/91/91
f 94/94/94 95/95/95 93/93/93
f 94/94/94 96/96/96 95/95/95
f 98/98/98 99/99/99 97/97/97
f 98/98/98 100/100/100 99/99/99
f 102/102/102 103/103/103 101/101/101
f 102/102/102 104/104/104 103/103/103
f 106/106/106 107/107/107 105/105/105
f 106/106/106 108/108/108 107/107/107
f 110/110/110 111/111/111 109/109/109
f 110/110/110 112/112/112 111/111/111
f 114/114/114 115/115/115 113/113/113
f 114/114/114 116/116/116 115/115/115
f 118/118/118 119/119/119 117/117/117
f 118/118/118 120/120/120 119/119/119
f 122/122/122 123/123/123 121/121/121
f 122/122/122 124/124/124 123/123/123
f 126/126/126 127/127/127 125/125/125
f 126/126/126 128/128/128 127/127/127
f 130/130/130 131/131/131 129/129/129
f 130/130/130 132/132/132 131/131/131
f 134/134/134 135/135/135 133/133/133
f 134/134/134 136/136/136 135/135/135
f 138/138/138 139/139/139 137/137/137
f 138/138/138 140/140/140 139/139/139
f 142/142/142 143/143/143 141/141/141
f 142/142/142 144/144/144 143/143/143
f 146/146/146 147/147/147 145/145/145
f 146/146/146 148/148/148 147/147/147
f 150/150/150 151/151/151 149/149/149
f 150/150/150 152/152/152 151/151/151
f 154/154/154 155/155/155 153/153/153
f 154/154/154 156/156/156 155/155/155
f 158/158/158 159/159/159 157/157/157
f 158/158/158 160/160/160 159/159/159
f 162/162/162 163/163/163 161/161/161
f 162/162/162 164/164/164 163/163/163
f 166/166/166 167/167/167 165/165/165
f 166/166/166 168/168/168 167/167/167
f 170/170/170 171/171/171 169/169/169
f 170/170/170 172/172/172 171/171/171
f 174/174/174 175/175/175 173/173/173
f 174/174/174 176/176/176 175/175/175
f 178/178/178 179/179/179 177/177/177
f 178/178/178 180/180/180 179/179/179
f 182/182/182 183/183/183 181/181/181
f 182/182/182 184/184/184 183/183/183
f 186/186/186 187/187/187 185/185/185
f 186/186/186 188/188/188 187/187/187
f 190/190/190 191/191/191 189/189/189
f 190/190/190 192/192/192 191/191/191
