g Grass_2_Cluster249
v 28.48576 -0.07612991 352.8014
v 27.36433 -0.07612991 352.8014
v 28.48576 -0.07612991 353.9229
v 27.36433 -0.07612991 353.9229
v 10.54284 -0.07612991 352.4276
v 9.795216 -0.07612991 352.4276
v 10.54284 -0.07612991 353.549
v 9.795216 -0.07612991 353.549
v 14.28095 -0.07612991 349.8109
v 13.53333 -0.07612991 349.8109
v 14.28095 -0.07612991 350.9324
v 13.53333 -0.07612991 350.9324
v 13.53333 -0.07612991 349.0633
v 12.41189 -0.07612991 349.0633
v 13.53333 -0.07612991 350.1848
v 12.41189 -0.07612991 350.1848
v 1.197563 -0.07612991 345.3252
v 0.07612991 -0.07612991 345.3252
v 1.197563 -0.07612991 346.4467
v 0.07612991 -0.07612991 346.4467
v 0.4499416 -0.07612991 344.2037
v -0.2976799 -0.07612991 344.2037
v 0.4499416 -0.07612991 345.3252
v -0.2976799 -0.07612991 345.3252
v 1.197563 -0.07612991 343.0823
v 0.4499416 -0.07612991 343.0823
v 1.197563 -0.07612991 344.2037
v 0.4499416 -0.07612991 344.2037
v 15.02857 -0.07612991 342.7085
v 14.28095 -0.07612991 342.7085
v 15.02857 -0.07612991 343.83
v 14.28095 -0.07612991 343.83
v 15.40238 -0.07612991 341.9609
v 14.65476 -0.07612991 341.9609
v 15.40238 -0.07612991 343.0823
v 14.65476 -0.07612991 343.0823
v 25.49528 -0.07612991 341.9609
v 24.37384 -0.07612991 341.9609
v 25.49528 -0.07612991 343.0823
v 24.37384 -0.07612991 343.0823
v 9.047594 -0.07612991 328.1299
v 7.926161 -0.07612991 328.1299
v 9.047594 -0.07612991 328.8775
v 7.926161 -0.07612991 328.8775
v 5.309484 -0.07612991 327.0085
v 4.188051 -0.07612991 327.0085
v 5.309484 -0.07612991 328.1299
v 4.188051 -0.07612991 328.1299
vt 0.1347656 0.9185662
vt 0.2060202 0.9185662
vt 0.1347656 1
vt 0.2060202 1
vt 0.1347656 0.9185662
vt 0.2060202 0.9185662
vt 0.1347656 1
vt 0.2060202 1
vt 0.1347656 0.9185662
vt 0.2060202 0.9185662
vt 0.1347656 1
vt 0.2060202 1
vt 0.1347656 0.9185662
vt 0.2060202 0.9185662
vt 0.1347656 1
vt 0.2060202 1
vt 0.1347656 0.9185662
vt 0.2060202 0.9185662
vt 0.1347656 1
vt 0.2060202 1
vt 0.1347656 0.9185662
vt 0.2060202 0.9185662
vt 0.1347656 1
vt 0.2060202 1
vt 0.1347656 0.9185662
vt 0.2060202 0.9185662
vt 0.1347656 1
vt 0.2060202 1
vt 0.1347656 0.9185662
vt 0.2060202 0.9185662
vt 0.1347656 1
vt 0.2060202 1
vt 0.1347656 0.9185662
vt 0.2060202 0.9185662
vt 0.1347656 1
vt 0.2060202 1
vt 0.1347656 0.9185662
vt 0.2060202 0.9185662
vt 0.1347656 1
vt 0.2060202 1
vt 0.1347656 0.9185662
vt 0.2060202 0.9185662
vt 0.1347656 1
vt 0.2060202 1
vt 0.1347656 0.9185662
vt 0.2060202 0.9185662
vt 0.1347656 1
vt 0.2060202 1
vn 0 1 0
vn 0 1 0
vn 0 1 0
vn 0 1 0
vn 0 1 0
vn 0 1 0
vn 0 1 0
vn 0 1 0
vn 0 1 0
vn 0 1 0
vn 0 1 0
vn 0 1 0
vn 0 1 0
vn 0 1 0
vn 0 1 0
vn 0 1 0
vn 0 1 0
vn 0 1 0
vn 0 1 0
vn 0 1 0
vn 0 1 0
vn 0 1 0
vn 0 1 0
vn 0 1 0
vn 0 1 0
vn 0 1 0
vn 0 1 0
vn 0 1 0
vn 0 1 0
vn 0 1 0
vn 0 1 0
vn 0 1 0
vn 0 1 0
vn 0 1 0
vn 0 1 0
vn 0 1 0
vn 0 1 0
vn 0 1 0
vn 0 1 0
vn 0 1 0
vn 0 1 0
vn 0 1 0
vn 0 1 0
vn 0 1 0
vn 0 1 0
vn 0 1 0
vn 0 1 0
vn 0 1 0
g Grass_2_Cluster249_0
f 2/2/2 3/3/3 1/1/1
f 2/2/2 4/4/4 3/3/3
f 6/6/6 7/7/7 5/5/5
f 6/6/6 8/8/8 7/7/7
f 10/10/10 11/11/11 9/9/9
f 10/10/10 12/12/12 11/11/11
f 14/14/14 15/15/15 13/13/13
f 14/14/14 16/16/16 15/15/15
f 18/18/18 19/19/19 17/17/17
f 18/18/18 20/20/20 19/19/19
f 22/22/22 23/23/23 21/21/21
f 22/22/22 24/24/24 23/23/23
f 26/26/26 27/27/27 25/25/25
f 26/26/26 28/28/28 27/27/27
f 30/30/30 31/31/31 29/29/29
f 30/30/30 32/32/32 31/31/31
f 34/34/34 35/35/35 33/33/33
f 34/34/34 36/36/36 35/35/35
f 38/38/38 39/39/39 37/37/37
f 38/38/38 40/40/40 39/39/39
f 42/42/42 43/43/43 41/41/41
f 42/42/42 44/44/44 43/43/43
f 46/46/46 47/47/47 45/45/45
f 46/46/46 48/48/48 47/47/47
