g Grass_0_Cluster157
v -220.135 0 198.9907
v -220.8398 0 198.9907
v -220.135 0 200.1654
v -220.8398 0 200.1654
v -220.8398 0 196.8763
v -221.5446 0 196.8763
v -220.8398 0 198.051
v -221.5446 0 198.051
v -219.6651 0 196.6414
v -220.3699 0 196.6414
v -219.6651 0 197.8161
v -220.3699 0 197.8161
v -220.8398 0 195.7016
v -221.7795 0 195.7016
v -220.8398 0 196.8763
v -221.7795 0 196.8763
v -216.6109 0 195.4667
v -217.5507 0 195.4667
v -216.6109 0 196.6414
v -217.5507 0 196.6414
v -218.0205 0 192.8824
v -218.7253 0 192.8824
v -218.0205 0 194.0571
v -218.7253 0 194.0571
v -214.7314 0 191.2378
v -215.6712 0 191.2378
v -214.7314 0 192.4125
v -215.6712 0 192.4125
v -232.8215 0 188.4186
v -233.5263 0 188.4186
v -232.8215 0 189.8282
v -233.5263 0 189.8282
v -218.9603 0 186.5391
v -219.9 0 186.5391
v -218.9603 0 187.7138
v -219.9 0 187.7138
v -234.701 0 181.1356
v -235.6407 0 181.1356
v -234.701 0 182.5452
v -235.6407 0 182.5452
v -220.3699 0 180.9007
v -221.3096 0 180.9007
v -220.3699 0 182.0753
v -221.3096 0 182.0753
v -238.225 0 179.9609
v -239.1648 0 179.9609
v -238.225 0 181.1356
v -239.1648 0 181.1356
v -236.3455 0 179.726
v -237.2853 0 179.726
v -236.3455 0 181.1356
v -237.2853 0 181.1356
v -239.3997 0 179.491
v -240.3394 0 179.491
v -239.3997 0 180.9007
v -240.3394 0 180.9007
v -218.2555 0 179.2561
v -218.9603 0 179.2561
v -218.2555 0 180.4308
v -218.9603 0 180.4308
v -238.46 0 178.7862
v -239.3997 0 178.7862
v -238.46 0 179.9609
v -239.3997 0 179.9609
v -218.7253 0 177.8465
v -219.6651 0 177.8465
v -218.7253 0 179.2561
v -219.6651 0 179.2561
v -221.7795 0 177.8465
v -222.7193 0 177.8465
v -221.7795 0 179.0212
v -222.7193 0 179.0212
v -219.9 0 177.8465
v -220.8398 0 177.8465
v -219.9 0 179.0212
v -220.8398 0 179.0212
v -218.4904 0 177.3766
v -219.4301 0 177.3766
v -218.4904 0 178.5513
v -219.4301 0 178.5513
v -219.9 0 177.1417
v -220.8398 0 177.1417
v -219.9 0 178.3164
v -220.8398 0 178.3164
v -219.1952 0 176.9068
v -220.135 0 176.9068
v -219.1952 0 178.0814
v -220.135 0 178.0814
v -215.9061 0 176.6718
v -216.8459 0 176.6718
v -215.9061 0 178.0814
v -216.8459 0 178.0814
v -218.4904 0 176.4369
v -219.4301 0 176.4369
v -218.4904 0 177.6116
v -219.4301 0 177.6116
v -234.9359 0 176.4369
v -235.6407 0 176.4369
v -234.9359 0 177.6116
v -235.6407 0 177.6116
v -235.6407 0 176.4369
v -236.5805 0 176.4369
v -235.6407 0 177.6116
v -236.5805 0 177.6116
v -219.4301 0 176.202
v -220.3699 0 176.202
v -219.4301 0 177.6116
v -220.3699 0 177.6116
v -238.46 0 176.202
v -239.3997 0 176.202
v -238.46 0 177.3766
v -239.3997 0 177.3766
v -221.5446 0 176.202
v -222.2494 0 176.202
v -221.5446 0 177.3766
v -222.2494 0 177.3766
v -217.3157 0 175.967
v -218.2555 0 175.967
v -217.3157 0 177.1417
v -218.2555 0 177.1417
v -223.1891 0 175.4971
v -223.8939 0 175.4971
v -223.1891 0 176.6718
v -223.8939 0 176.6718
v -239.3997 0 175.2622
v -240.3394 0 175.2622
v -239.3997 0 176.6718
v -240.3394 0 176.6718
v -217.7856 0 175.2622
v -218.4904 0 175.2622
v -217.7856 0 176.4369
v -218.4904 0 176.4369
v -214.7314 0 175.2622
v -215.6712 0 175.2622
v -214.7314 0 176.4369
v -215.6712 0 176.4369
v -216.8459 0 175.0273
v -217.7856 0 175.0273
v -216.8459 0 176.202
v -217.7856 0 176.202
v -220.8398 0 175.0273
v -221.5446 0 175.0273
v -220.8398 0 176.202
v -221.5446 0 176.202
v -219.9 0 175.0273
v -220.8398 0 175.0273
v -219.9 0 176.202
v -220.8398 0 176.202
v -220.3699 0 174.7923
v -221.3096 0 174.7923
v -220.3699 0 175.967
v -221.3096 0 175.967
v -221.3096 0 174.5574
v -222.0145 0 174.5574
v -221.3096 0 175.967
v -222.0145 0 175.967
v -218.9603 0 174.3224
v -219.9 0 174.3224
v -218.9603 0 175.4971
v -219.9 0 175.4971
v -222.9542 0 174.0875
v -223.8939 0 174.0875
v -222.9542 0 175.2622
v -223.8939 0 175.2622
v -222.2494 0 173.8526
v -222.9542 0 173.8526
v -222.2494 0 175.2622
v -222.9542 0 175.2622
v -218.0205 0 173.8526
v -218.9603 0 173.8526
v -218.0205 0 175.2622
v -218.9603 0 175.2622
v -222.2494 0 173.6176
v -223.1891 0 173.6176
v -222.2494 0 174.7923
v -223.1891 0 174.7923
vt 0 0.9058824
vt 0.06666667 0.9058824
vt 0 1
vt 0.06666667 1
vt 0 0.9058824
vt 0.06666667 0.9058824
vt 0 1
vt 0.06666667 1
vt 0 0.9058824
vt 0.06666667 0.9058824
vt 0 1
vt 0.06666667 1
vt 0 0.9058824
vt 0.06666667 0.9058824
vt 0 1
vt 0.06666667 1
vt 0 0.9058824
vt 0.06666667 0.9058824
vt 0 1
vt 0.06666667 1
vt 0 0.9058824
vt 0.06666667 0.9058824
vt 0 1
vt 0.06666667 1
vt 0 0.9058824
vt 0.06666667 0.9058824
vt 0 1
vt 0.06666667 1
vt 0 0.9058824
vt 0.06666667 0.9058824
vt 0 1
vt 0.06666667 1
vt 0 0.9058824
vt 0.06666667 0.9058824
vt 0 1
vt 0.06666667 1
vt 0 0.9058824
vt 0.06666667 0.9058824
vt 0 1
vt 0.06666667 1
vt 0 0.9058824
vt 0.06666667 0.9058824
vt 0 1
vt 0.06666667 1
vt 0 0.9058824
vt 0.06666667 0.9058824
vt 0 1
vt 0.06666667 1
vt 0 0.9058824
vt 0.06666667 0.9058824
vt 0 1
vt 0.06666667 1
vt 0 0.9058824
vt 0.06666667 0.9058824
vt 0 1
vt 0.06666667 1
vt 0 0.9058824
vt 0.06666667 0.9058824
vt 0 1
vt 0.06666667 1
vt 0 0.9058824
vt 0.06666667 0.9058824
vt 0 1
vt 0.06666667 1
vt 0 0.9058824
vt 0.06666667 0.9058824
vt 0 1
vt 0.06666667 1
vt 0 0.9058824
vt 0.06666667 0.9058824
vt 0 1
vt 0.06666667 1
vt 0 0.9058824
vt 0.06666667 0.9058824
vt 0 1
vt 0.06666667 1
vt 0 0.9058824
vt 0.06666667 0.9058824
vt 0 1
vt 0.06666667 1
vt 0 0.9058824
vt 0.06666667 0.9058824
vt 0 1
vt 0.06666667 1
vt 0 0.9058824
vt 0.06666667 0.9058824
vt 0 1
vt 0.06666667 1
vt 0 0.9058824
vt 0.06666667 0.9058824
vt 0 1
vt 0.06666667 1
vt 0 0.9058824
vt 0.06666667 0.9058824
vt 0 1
vt 0.06666667 1
vt 0 0.9058824
vt 0.06666667 0.9058824
vt 0 1
vt 0.06666667 1
vt 0 0.9058824
vt 0.06666667 0.9058824
vt 0 1
vt 0.06666667 1
vt 0 0.9058824
vt 0.06666667 0.9058824
vt 0 1
vt 0.06666667 1
vt 0 0.9058824
vt 0.06666667 0.9058824
vt 0 1
vt 0.06666667 1
vt 0 0.9058824
vt 0.06666667 0.9058824
vt 0 1
vt 0.06666667 1
vt 0 0.9058824
vt 0.06666667 0.9058824
vt 0 1
vt 0.06666667 1
vt 0 0.9058824
vt 0.06666667 0.9058824
vt 0 1
vt 0.06666667 1
vt 0 0.9058824
vt 0.06666667 0.9058824
vt 0 1
vt 0.06666667 1
vt 0 0.9058824
vt 0.06666667 0.9058824
vt 0 1
vt 0.06666667 1
vt 0 0.9058824
vt 0.06666667 0.9058824
vt 0 1
vt 0.06666667 1
vt 0 0.9058824
vt 0.06666667 0.9058824
vt 0 1
vt 0.06666667 1
vt 0 0.9058824
vt 0.06666667 0.9058824
vt 0 1
vt 0.06666667 1
vt 0 0.9058824
vt 0.06666667 0.9058824
vt 0 1
vt 0.06666667 1
vt 0 0.9058824
vt 0.06666667 0.9058824
vt 0 1
vt 0.06666667 1
vt 0 0.9058824
vt 0.06666667 0.9058824
vt 0 1
vt 0.06666667 1
vt 0 0.9058824
vt 0.06666667 0.9058824
vt 0 1
vt 0.06666667 1
vt 0 0.9058824
vt 0.06666667 0.9058824
vt 0 1
vt 0.06666667 1
vt 0 0.9058824
vt 0.06666667 0.9058824
vt 0 1
vt 0.06666667 1
vt 0 0.9058824
vt 0.06666667 0.9058824
vt 0 1
vt 0.06666667 1
vt 0 0.9058824
vt 0.06666667 0.9058824
vt 0 1
vt 0.06666667 1
vn 0 1 0
vn 0 1 0
vn 0 1 0
vn 0 1 0
vn 0 1 0
vn 0 1 0
vn 0 1 0
vn 0 1 0
vn 0 1 0
vn 0 1 0
vn 0 1 0
vn 0 1 0
vn 0 1 0
vn 0 1 0
vn 0 1 0
vn 0 1 0
vn 0 1 0
vn 0 1 0
vn 0 1 0
vn 0 1 0
vn 0 1 0
vn 0 1 0
vn 0 1 0
vn 0 1 0
vn 0 1 0
vn 0 1 0
vn 0 1 0
vn 0 1 0
vn 0 1 0
vn 0 1 0
vn 0 1 0
vn 0 1 0
vn 0 1 0
vn 0 1 0
vn 0 1 0
vn 0 1 0
vn 0 1 0
vn 0 1 0
vn 0 1 0
vn 0 1 0
vn 0 1 0
vn 0 1 0
vn 0 1 0
vn 0 1 0
vn 0 1 0
vn 0 1 0
vn 0 1 0
vn 0 1 0
vn 0 1 0
vn 0 1 0
vn 0 1 0
vn 0 1 0
vn 0 1 0
vn 0 1 0
vn 0 1 0
vn 0 1 0
vn 0 1 0
vn 0 1 0
vn 0 1 0
vn 0 1 0
vn 0 1 0
vn 0 1 0
vn 0 1 0
vn 0 1 0
vn 0 1 0
vn 0 1 0
vn 0 1 0
vn 0 1 0
vn 0 1 0
vn 0 1 0
vn 0 1 0
vn 0 1 0
vn 0 1 0
vn 0 1 0
vn 0 1 0
vn 0 1 0
vn 0 1 0
vn 0 1 0
vn 0 1 0
vn 0 1 0
vn 0 1 0
vn 0 1 0
vn 0 1 0
vn 0 1 0
vn 0 1 0
vn 0 1 0
vn 0 1 0
vn 0 1 0
vn 0 1 0
vn 0 1 0
vn 0 1 0
vn 0 1 0
vn 0 1 0
vn 0 1 0
vn 0 1 0
vn 0 1 0
vn 0 1 0
vn 0 1 0
vn 0 1 0
vn 0 1 0
vn 0 1 0
vn 0 1 0
vn 0 1 0
vn 0 1 0
vn 0 1 0
vn 0 1 0
vn 0 1 0
vn 0 1 0
vn 0 1 0
vn 0 1 0
vn 0 1 0
vn 0 1 0
vn 0 1 0
vn 0 1 0
vn 0 1 0
vn 0 1 0
vn 0 1 0
vn 0 1 0
vn 0 1 0
vn 0 1 0
vn 0 1 0
vn 0 1 0
vn 0 1 0
vn 0 1 0
vn 0 1 0
vn 0 1 0
vn 0 1 0
vn 0 1 0
vn 0 1 0
vn 0 1 0
vn 0 1 0
vn 0 1 0
vn 0 1 0
vn 0 1 0
vn 0 1 0
vn 0 1 0
vn 0 1 0
vn 0 1 0
vn 0 1 0
vn 0 1 0
vn 0 1 0
vn 0 1 0
vn 0 1 0
vn 0 1 0
vn 0 1 0
vn 0 1 0
vn 0 1 0
vn 0 1 0
vn 0 1 0
vn 0 1 0
vn 0 1 0
vn 0 1 0
vn 0 1 0
vn 0 1 0
vn 0 1 0
vn 0 1 0
vn 0 1 0
vn 0 1 0
vn 0 1 0
vn 0 1 0
vn 0 1 0
vn 0 1 0
vn 0 1 0
vn 0 1 0
vn 0 1 0
vn 0 1 0
vn 0 1 0
vn 0 1 0
vn 0 1 0
vn 0 1 0
vn 0 1 0
vn 0 1 0
vn 0 1 0
vn 0 1 0
vn 0 1 0
vn 0 1 0
g Grass_0_Cluster157_0
f 2/2/2 3/3/3 1/1/1
f 2/2/2 4/4/4 3/3/3
f 6/6/6 7/7/7 5/5/5
f 6/6/6 8/8/8 7/7/7
f 10/10/10 11/11/11 9/9/9
f 10/10/10 12/12/12 11/11/11
f 14/14/14 15/15/15 13/13/13
f 14/14/14 16/16/16 15/15/15
f 18/18/18 19/19/19 17/17/17
f 18/18/18 20/20/20 19/19/19
f 22/22/22 23/23/23 21/21/21
f 22/22/22 24/24/24 23/23/23
f 26/26/26 27/27/27 25/25/25
f 26/26/26 28/28/28 27/27/27
f 30/30/30 31/31/31 29/29/29
f 30/30/30 32/32/32 31/31/31
f 34/34/34 35/35/35 33/33/33
f 34/34/34 36/36/36 35/35/35
f 38/38/38 39/39/39 37/37/37
f 38/38/38 40/40/40 39/39/39
f 42/42/42 43/43/43 41/41/41
f 42/42/42 44/44/44 43/43/43
f 46/46/46 47/47/47 45/45/45
f 46/46/46 48/48/48 47/47/47
f 50/50/50 51/51/51 49/49/49
f 50/50/50 52/52/52 51/51/51
f 54/54/54 55/55/55 53/53/53
f 54/54/54 56/56/56 55/55/55
f 58/58/58 59/59/59 57/57/57
f 58/58/58 60/60/60 59/59/59
f 62/62/62 63/63/63 61/61/61
f 62/62/62 64/64/64 63/63/63
f 66/66/66 67/67/67 65/65/65
f 66/66/66 68/68/68 67/67/67
f 70/70/70 71/71/71 69/69/69
f 70/70/70 72/72/72 71/71/71
f 74/74/74 75/75/75 73/73/73
f 74/74/74 76/76/76 75/75/75
f 78/78/78 79/79/79 77/77/77
f 78/78/78 80/80/80 79/79/79
f 82/82/82 83/83/83 81/81/81
f 82/82/82 84/84/84 83/83/83
f 86/86/86 87/87/87 85/85/85
f 86/86/86 88/88/88 87/87/87
f 90/90/90 91/91/91 89/89/89
f 90/90/90 92/92/92 91/91/91
f 94/94/94 95/95/95 93/93/93
f 94/94/94 96/96/96 95/95/95
f 98/98/98 99/99/99 97/97/97
f 98/98/98 100/100/100 99/99/99
f 102/102/102 103/103/103 101/101/101
f 102/102/102 104/104/104 103/103/103
f 106/106/106 107/107/107 105/105/105
f 106/106/106 108/108/108 107/107/107
f 110/110/110 111/111/111 109/109/109
f 110/110/110 112/112/112 111/111/111
f 114/114/114 115/115/115 113/113/113
f 114/114/114 116/116/116 115/115/115
f 118/118/118 119/119/119 117/117/117
f 118/118/118 120/120/120 119/119/119
f 122/122/122 123/123/123 121/121/121
f 122/122/122 124/124/124 123/123/123
f 126/126/126 127/127/127 125/125/125
f 126/126/126 128/128/128 127/127/127
f 130/130/130 131/131/131 129/129/129
f 130/130/130 132/132/132 131/131/131
f 134/134/134 135/135/135 133/133/133
f 134/134/134 136/136/136 135/135/135
f 138/138/138 139/139/139 137/137/137
f 138/138/138 140/140/140 139/139/139
f 142/142/142 143/143/143 141/141/141
f 142/142/142 144/144/144 143/143/143
f 146/146/146 147/147/147 145/145/145
f 146/146/146 148/148/148 147/147/147
f 150/150/150 151/151/151 149/149/149
f 150/150/150 152/152/152 151/151/151
f 154/154/154 155/155/155 153/153/153
f 154/154/154 156/156/156 155/155/155
f 158/158/158 159/159/159 157/157/157
f 158/158/158 160/160/160 159/159/159
f 162/162/162 163/163/163 161/161/161
f 162/162/162 164/164/164 163/163/163
f 166/166/166 167/167/167 165/165/165
f 166/166/166 168/168/168 167/167/167
f 170/170/170 171/171/171 169/169/169
f 170/170/170 172/172/172 171/171/171
f 174/174/174 175/175/175 173/173/173
f 174/174/174 176/176/176 175/175/175
