g Grass_0_Cluster169
v 24.15363 0.005582809 232.0882
v 23.12558 0.005582809 232.0882
v 24.15363 0.005582809 233.3733
v 23.12558 0.005582809 233.3733
v 20.55545 0.005582809 230.0321
v 19.78441 0.005582809 230.0321
v 20.55545 0.005582809 231.3172
v 19.78441 0.005582809 231.3172
v 3.078573 0.005582809 229.0041
v 2.307533 0.005582809 229.0041
v 3.078573 0.005582809 230.2891
v 2.307533 0.005582809 230.2891
v 0.7654572 0.005582809 229.0041
v -0.2625942 0.005582809 229.0041
v 0.7654572 0.005582809 230.2891
v -0.2625942 0.005582809 230.2891
v 2.307533 0.005582809 228.7471
v 1.536495 0.005582809 228.7471
v 2.307533 0.005582809 229.7751
v 1.536495 0.005582809 229.7751
v 3.849611 0.005582809 228.4901
v 3.078573 0.005582809 228.4901
v 3.849611 0.005582809 229.5181
v 3.078573 0.005582809 229.5181
v 2.050522 0.005582809 227.976
v 1.279482 0.005582809 227.976
v 2.050522 0.005582809 229.2611
v 1.279482 0.005582809 229.2611
v 1.536495 0.005582809 227.719
v 0.7654572 0.005582809 227.719
v 1.536495 0.005582809 229.0041
v 0.7654572 0.005582809 229.0041
v 3.849611 0.005582809 227.462
v 3.078573 0.005582809 227.462
v 3.849611 0.005582809 228.7471
v 3.078573 0.005582809 228.7471
v 3.335587 0.005582809 227.462
v 2.564547 0.005582809 227.462
v 3.335587 0.005582809 228.7471
v 2.564547 0.005582809 228.7471
v 0.5084438 0.005582809 226.948
v -0.5196075 0.005582809 226.948
v 0.5084438 0.005582809 228.233
v -0.5196075 0.005582809 228.233
v 3.849611 0.005582809 226.6909
v 2.82156 0.005582809 226.6909
v 3.849611 0.005582809 227.976
v 2.82156 0.005582809 227.976
v 2.307533 0.005582809 226.1769
v 1.536495 0.005582809 226.1769
v 2.307533 0.005582809 227.462
v 1.536495 0.005582809 227.462
v 1.536495 0.005582809 225.6629
v 0.5084438 0.005582809 225.6629
v 1.536495 0.005582809 226.948
v 0.5084438 0.005582809 226.948
v 4.106625 0.005582809 225.6629
v 3.335587 0.005582809 225.6629
v 4.106625 0.005582809 226.948
v 3.335587 0.005582809 226.948
v 3.592598 0.005582809 225.1489
v 2.564547 0.005582809 225.1489
v 3.592598 0.005582809 226.4339
v 2.564547 0.005582809 226.4339
v 1.536495 0.005582809 224.8919
v 0.7654572 0.005582809 224.8919
v 1.536495 0.005582809 226.1769
v 0.7654572 0.005582809 226.1769
v 2.564547 0.005582809 224.6349
v 1.793509 0.005582809 224.6349
v 2.564547 0.005582809 225.9199
v 1.793509 0.005582809 225.9199
v 4.363638 0.005582809 224.3778
v 3.592598 0.005582809 224.3778
v 4.363638 0.005582809 225.6629
v 3.592598 0.005582809 225.6629
v 29.5509 0.005582809 224.3778
v 28.52285 0.005582809 224.3778
v 29.5509 0.005582809 225.6629
v 28.52285 0.005582809 225.6629
v 1.793509 0.005582809 224.1208
v 0.7654572 0.005582809 224.1208
v 1.793509 0.005582809 225.4059
v 0.7654572 0.005582809 225.4059
v 0.7654572 0.005582809 223.8638
v -0.005582809 0.005582809 223.8638
v 0.7654572 0.005582809 225.1489
v -0.005582809 0.005582809 225.1489
v 3.078573 0.005582809 223.0928
v 2.050522 0.005582809 223.0928
v 3.078573 0.005582809 224.3778
v 2.050522 0.005582809 224.3778
v 2.050522 0.005582809 222.8358
v 1.279482 0.005582809 222.8358
v 2.050522 0.005582809 223.8638
v 1.279482 0.005582809 223.8638
v 0.7654572 0.005582809 222.3217
v -0.005582809 0.005582809 222.3217
v 0.7654572 0.005582809 223.6068
v -0.005582809 0.005582809 223.6068
v 2.82156 0.005582809 221.8077
v 1.793509 0.005582809 221.8077
v 2.82156 0.005582809 223.0928
v 1.793509 0.005582809 223.0928
v 3.849611 0.005582809 221.2937
v 3.078573 0.005582809 221.2937
v 3.849611 0.005582809 222.5788
v 3.078573 0.005582809 222.5788
v 24.66766 0.005582809 220.7797
v 23.89662 0.005582809 220.7797
v 24.66766 0.005582809 222.0647
v 23.89662 0.005582809 222.0647
v 1.793509 0.005582809 215.8964
v 1.02247 0.005582809 215.8964
v 1.793509 0.005582809 217.1815
v 1.02247 0.005582809 217.1815
v 1.536495 0.005582809 208.7001
v 0.5084438 0.005582809 208.7001
v 1.536495 0.005582809 210.2421
v 0.5084438 0.005582809 210.2421
v 3.335587 0.005582809 208.443
v 2.307533 0.005582809 208.443
v 3.335587 0.005582809 209.7281
v 2.307533 0.005582809 209.7281
v 0.7654572 0.005582809 207.672
v -0.005582809 0.005582809 207.672
v 0.7654572 0.005582809 208.9571
v -0.005582809 0.005582809 208.9571
v 4.877663 0.005582809 207.415
v 3.849611 0.005582809 207.415
v 4.877663 0.005582809 208.7001
v 3.849611 0.005582809 208.7001
v 11.30299 0.005582809 206.644
v 10.27493 0.005582809 206.644
v 11.30299 0.005582809 207.929
v 10.27493 0.005582809 207.929
v 8.475843 0.005582809 205.1019
v 7.704805 0.005582809 205.1019
v 8.475843 0.005582809 206.1299
v 7.704805 0.005582809 206.1299
v 2.82156 0.005582809 204.3308
v 2.050522 0.005582809 204.3308
v 2.82156 0.005582809 205.6159
v 2.050522 0.005582809 205.6159
v 25.95272 0.005582809 203.5598
v 25.18168 0.005582809 203.5598
v 25.95272 0.005582809 204.8449
v 25.18168 0.005582809 204.8449
v 28.26584 0.005582809 203.3028
v 27.23779 0.005582809 203.3028
v 28.26584 0.005582809 204.3308
v 27.23779 0.005582809 204.3308
vt 0 0.9058824
vt 0.06666667 0.9058824
vt 0 1
vt 0.06666667 1
vt 0 0.9058824
vt 0.06666667 0.9058824
vt 0 1
vt 0.06666667 1
vt 0 0.9058824
vt 0.06666667 0.9058824
vt 0 1
vt 0.06666667 1
vt 0 0.9058824
vt 0.06666667 0.9058824
vt 0 1
vt 0.06666667 1
vt 0 0.9058824
vt 0.06666667 0.9058824
vt 0 1
vt 0.06666667 1
vt 0 0.9058824
vt 0.06666667 0.9058824
vt 0 1
vt 0.06666667 1
vt 0 0.9058824
vt 0.06666667 0.9058824
vt 0 1
vt 0.06666667 1
vt 0 0.9058824
vt 0.06666667 0.9058824
vt 0 1
vt 0.06666667 1
vt 0 0.9058824
vt 0.06666667 0.9058824
vt 0 1
vt 0.06666667 1
vt 0 0.9058824
vt 0.06666667 0.9058824
vt 0 1
vt 0.06666667 1
vt 0 0.9058824
vt 0.06666667 0.9058824
vt 0 1
vt 0.06666667 1
vt 0 0.9058824
vt 0.06666667 0.9058824
vt 0 1
vt 0.06666667 1
vt 0 0.9058824
vt 0.06666667 0.9058824
vt 0 1
vt 0.06666667 1
vt 0 0.9058824
vt 0.06666667 0.9058824
vt 0 1
vt 0.06666667 1
vt 0 0.9058824
vt 0.06666667 0.9058824
vt 0 1
vt 0.06666667 1
vt 0 0.9058824
vt 0.06666667 0.9058824
vt 0 1
vt 0.06666667 1
vt 0 0.9058824
vt 0.06666667 0.9058824
vt 0 1
vt 0.06666667 1
vt 0 0.9058824
vt 0.06666667 0.9058824
vt 0 1
vt 0.06666667 1
vt 0 0.9058824
vt 0.06666667 0.9058824
vt 0 1
vt 0.06666667 1
vt 0 0.9058824
vt 0.06666667 0.9058824
vt 0 1
vt 0.06666667 1
vt 0 0.9058824
vt 0.06666667 0.9058824
vt 0 1
vt 0.06666667 1
vt 0 0.9058824
vt 0.06666667 0.9058824
vt 0 1
vt 0.06666667 1
vt 0 0.9058824
vt 0.06666667 0.9058824
vt 0 1
vt 0.06666667 1
vt 0 0.9058824
vt 0.06666667 0.9058824
vt 0 1
vt 0.06666667 1
vt 0 0.9058824
vt 0.06666667 0.9058824
vt 0 1
vt 0.06666667 1
vt 0 0.9058824
vt 0.06666667 0.9058824
vt 0 1
vt 0.06666667 1
vt 0 0.9058824
vt 0.06666667 0.9058824
vt 0 1
vt 0.06666667 1
vt 0 0.9058824
vt 0.06666667 0.9058824
vt 0 1
vt 0.06666667 1
vt 0 0.9058824
vt 0.06666667 0.9058824
vt 0 1
vt 0.06666667 1
vt 0 0.9058824
vt 0.06666667 0.9058824
vt 0 1
vt 0.06666667 1
vt 0 0.9058824
vt 0.06666667 0.9058824
vt 0 1
vt 0.06666667 1
vt 0 0.9058824
vt 0.06666667 0.9058824
vt 0 1
vt 0.06666667 1
vt 0 0.9058824
vt 0.06666667 0.9058824
vt 0 1
vt 0.06666667 1
vt 0 0.9058824
vt 0.06666667 0.9058824
vt 0 1
vt 0.06666667 1
vt 0 0.9058824
vt 0.06666667 0.9058824
vt 0 1
vt 0.06666667 1
vt 0 0.9058824
vt 0.06666667 0.9058824
vt 0 1
vt 0.06666667 1
vt 0 0.9058824
vt 0.06666667 0.9058824
vt 0 1
vt 0.06666667 1
vt 0 0.9058824
vt 0.06666667 0.9058824
vt 0 1
vt 0.06666667 1
vn 0 1 0
vn 0 1 0
vn 0 1 0
vn 0 1 0
vn 0 1 0
vn 0 1 0
vn 0 1 0
vn 0 1 0
vn 0 1 0
vn 0 1 0
vn 0 1 0
vn 0 1 0
vn 0 1 0
vn 0 1 0
vn 0 1 0
vn 0 1 0
vn 0 1 0
vn 0 1 0
vn 0 1 0
vn 0 1 0
vn 0 1 0
vn 0 1 0
vn 0 1 0
vn 0 1 0
vn 0 1 0
vn 0 1 0
vn 0 1 0
vn 0 1 0
vn 0 1 0
vn 0 1 0
vn 0 1 0
vn 0 1 0
vn 0 1 0
vn 0 1 0
vn 0 1 0
vn 0 1 0
vn 0 1 0
vn 0 1 0
vn 0 1 0
vn 0 1 0
vn 0 1 0
vn 0 1 0
vn 0 1 0
vn 0 1 0
vn 0 1 0
vn 0 1 0
vn 0 1 0
vn 0 1 0
vn 0 1 0
vn 0 1 0
vn 0 1 0
vn 0 1 0
vn 0 1 0
vn 0 1 0
vn 0 1 0
vn 0 1 0
vn 0 1 0
vn 0 1 0
vn 0 1 0
vn 0 1 0
vn 0 1 0
vn 0 1 0
vn 0 1 0
vn 0 1 0
vn 0 1 0
vn 0 1 0
vn 0 1 0
vn 0 1 0
vn 0 1 0
vn 0 1 0
vn 0 1 0
vn 0 1 0
vn 0 1 0
vn 0 1 0
vn 0 1 0
vn 0 1 0
vn 0 1 0
vn 0 1 0
vn 0 1 0
vn 0 1 0
vn 0 1 0
vn 0 1 0
vn 0 1 0
vn 0 1 0
vn 0 1 0
vn 0 1 0
vn 0 1 0
vn 0 1 0
vn 0 1 0
vn 0 1 0
vn 0 1 0
vn 0 1 0
vn 0 1 0
vn 0 1 0
vn 0 1 0
vn 0 1 0
vn 0 1 0
vn 0 1 0
vn 0 1 0
vn 0 1 0
vn 0 1 0
vn 0 1 0
vn 0 1 0
vn 0 1 0
vn 0 1 0
vn 0 1 0
vn 0 1 0
vn 0 1 0
vn 0 1 0
vn 0 1 0
vn 0 1 0
vn 0 1 0
vn 0 1 0
vn 0 1 0
vn 0 1 0
vn 0 1 0
vn 0 1 0
vn 0 1 0
vn 0 1 0
vn 0 1 0
vn 0 1 0
vn 0 1 0
vn 0 1 0
vn 0 1 0
vn 0 1 0
vn 0 1 0
vn 0 1 0
vn 0 1 0
vn 0 1 0
vn 0 1 0
vn 0 1 0
vn 0 1 0
vn 0 1 0
vn 0 1 0
vn 0 1 0
vn 0 1 0
vn 0 1 0
vn 0 1 0
vn 0 1 0
vn 0 1 0
vn 0 1 0
vn 0 1 0
vn 0 1 0
vn 0 1 0
vn 0 1 0
vn 0 1 0
vn 0 1 0
vn 0 1 0
vn 0 1 0
vn 0 1 0
vn 0 1 0
vn 0 1 0
g Grass_0_Cluster169_0
f 2/2/2 3/3/3 1/1/1
f 2/2/2 4/4/4 3/3/3
f 6/6/6 7/7/7 5/5/5
f 6/6/6 8/8/8 7/7/7
f 10/10/10 11/11/11 9/9/9
f 10/10/10 12/12/12 11/11/11
f 14/14/14 15/15/15 13/13/13
f 14/14/14 16/16/16 15/15/15
f 18/18/18 19/19/19 17/17/17
f 18/18/18 20/20/20 19/19/19
f 22/22/22 23/23/23 21/21/21
f 22/22/22 24/24/24 23/23/23
f 26/26/26 27/27/27 25/25/25
f 26/26/26 28/28/28 27/27/27
f 30/30/30 31/31/31 29/29/29
f 30/30/30 32/32/32 31/31/31
f 34/34/34 35/35/35 33/33/33
f 34/34/34 36/36/36 35/35/35
f 38/38/38 39/39/39 37/37/37
f 38/38/38 40/40/40 39/39/39
f 42/42/42 43/43/43 41/41/41
f 42/42/42 44/44/44 43/43/43
f 46/46/46 47/47/47 45/45/45
f 46/46/46 48/48/48 47/47/47
f 50/50/50 51/51/51 49/49/49
f 50/50/50 52/52/52 51/51/51
f 54/54/54 55/55/55 53/53/53
f 54/54/54 56/56/56 55/55/55
f 58/58/58 59/59/59 57/57/57
f 58/58/58 60/60/60 59/59/59
f 62/62/62 63/63/63 61/61/61
f 62/62/62 64/64/64 63/63/63
f 66/66/66 67/67/67 65/65/65
f 66/66/66 68/68/68 67/67/67
f 70/70/70 71/71/71 69/69/69
f 70/70/70 72/72/72 71/71/71
f 74/74/74 75/75/75 73/73/73
f 74/74/74 76/76/76 75/75/75
f 78/78/78 79/79/79 77/77/77
f 78/78/78 80/80/80 79/79/79
f 82/82/82 83/83/83 81/81/81
f 82/82/82 84/84/84 83/83/83
f 86/86/86 87/87/87 85/85/85
f 86/86/86 88/88/88 87/87/87
f 90/90/90 91/91/91 89/89/89
f 90/90/90 92/92/92 91/91/91
f 94/94/94 95/95/95 93/93/93
f 94/94/94 96/96/96 95/95/95
f 98/98/98 99/99/99 97/97/97
f 98/98/98 100/100/100 99/99/99
f 102/102/102 103/103/103 101/101/101
f 102/102/102 104/104/104 103/103/103
f 106/106/106 107/107/107 105/105/105
f 106/106/106 108/108/108 107/107/107
f 110/110/110 111/111/111 109/109/109
f 110/110/110 112/112/112 111/111/111
f 114/114/114 115/115/115 113/113/113
f 114/114/114 116/116/116 115/115/115
f 118/118/118 119/119/119 117/117/117
f 118/118/118 120/120/120 119/119/119
f 122/122/122 123/123/123 121/121/121
f 122/122/122 124/124/124 123/123/123
f 126/126/126 127/127/127 125/125/125
f 126/126/126 128/128/128 127/127/127
f 130/130/130 131/131/131 129/129/129
f 130/130/130 132/132/132 131/131/131
f 134/134/134 135/135/135 133/133/133
f 134/134/134 136/136/136 135/135/135
f 138/138/138 139/139/139 137/137/137
f 138/138/138 140/140/140 139/139/139
f 142/142/142 143/143/143 141/141/141
f 142/142/142 144/144/144 143/143/143
f 146/146/146 147/147/147 145/145/145
f 146/146/146 148/148/148 147/147/147
f 150/150/150 151/151/151 149/149/149
f 150/150/150 152/152/152 151/151/151
