g Grass_1_Cluster221
v 250.6652 -0.08511353 315.8147
v 249.539 -0.08511353 315.8147
v 250.6652 -0.08511353 316.3778
v 249.539 -0.08511353 316.3778
v 255.17 -0.08511353 306.2419
v 254.0438 -0.08511353 306.2419
v 255.17 -0.08511353 306.8051
v 254.0438 -0.08511353 306.8051
v 257.9855 -0.08511353 303.9896
v 257.4224 -0.08511353 303.9896
v 257.9855 -0.08511353 305.1158
v 257.4224 -0.08511353 305.1158
v 259.6748 -0.08511353 303.9896
v 258.5486 -0.08511353 303.9896
v 259.6748 -0.08511353 304.5527
v 258.5486 -0.08511353 304.5527
v 257.9855 -0.08511353 302.8633
v 257.4224 -0.08511353 302.8633
v 257.9855 -0.08511353 303.9896
v 257.4224 -0.08511353 303.9896
vt 0.06738281 0.9369141
vt 0.1331457 0.9369141
vt 0.06738281 0.9990234
vt 0.1331457 0.9990234
vt 0.06738281 0.9369141
vt 0.1331457 0.9369141
vt 0.06738281 0.9990234
vt 0.1331457 0.9990234
vt 0.06738281 0.9369141
vt 0.1331457 0.9369141
vt 0.06738281 0.9990234
vt 0.1331457 0.9990234
vt 0.06738281 0.9369141
vt 0.1331457 0.9369141
vt 0.06738281 0.9990234
vt 0.1331457 0.9990234
vt 0.06738281 0.9369141
vt 0.1331457 0.9369141
vt 0.06738281 0.9990234
vt 0.1331457 0.9990234
vn 0 1 0
vn 0 1 0
vn 0 1 0
vn 0 1 0
vn 0 1 0
vn 0 1 0
vn 0 1 0
vn 0 1 0
vn 0 1 0
vn 0 1 0
vn 0 1 0
vn 0 1 0
vn 0 1 0
vn 0 1 0
vn 0 1 0
vn 0 1 0
vn 0 1 0
vn 0 1 0
vn 0 1 0
vn 0 1 0
g Grass_1_Cluster221_0
f 2/2/2 3/3/3 1/1/1
f 2/2/2 4/4/4 3/3/3
f 6/6/6 7/7/7 5/5/5
f 6/6/6 8/8/8 7/7/7
f 10/10/10 11/11/11 9/9/9
f 10/10/10 12/12/12 11/11/11
f 14/14/14 15/15/15 13/13/13
f 14/14/14 16/16/16 15/15/15
f 18/18/18 19/19/19 17/17/17
f 18/18/18 20/20/20 19/19/19
