g Grass_1_Cluster103
v 186.2269 -0.1459351 141.8543
v 185.5539 -0.1459351 141.8543
v 186.2269 -0.1459351 142.5273
v 185.5539 -0.1459351 142.5273
v 188.5823 -0.1459351 140.8449
v 187.5728 -0.1459351 140.8449
v 188.5823 -0.1459351 141.5178
v 187.5728 -0.1459351 141.5178
v 199.6866 -0.1459351 132.096
v 198.6771 -0.1459351 132.096
v 199.6866 -0.1459351 133.1055
v 198.6771 -0.1459351 133.1055
v 199.3501 -0.1459351 129.4041
v 198.3407 -0.1459351 129.4041
v 199.3501 -0.1459351 130.4136
v 198.3407 -0.1459351 130.4136
v 200.3596 -0.1459351 128.7311
v 199.3501 -0.1459351 128.7311
v 200.3596 -0.1459351 129.4041
v 199.3501 -0.1459351 129.4041
v 198.6771 -0.1459351 127.3851
v 197.6677 -0.1459351 127.3851
v 198.6771 -0.1459351 128.3946
v 197.6677 -0.1459351 128.3946
v 197.6677 -0.1459351 126.7121
v 196.6582 -0.1459351 126.7121
v 197.6677 -0.1459351 127.3851
v 196.6582 -0.1459351 127.3851
v 196.3217 -0.1459351 125.7027
v 195.6487 -0.1459351 125.7027
v 196.3217 -0.1459351 126.3756
v 195.6487 -0.1459351 126.3756
v 198.6771 -0.1459351 123.6837
v 198.0042 -0.1459351 123.6837
v 198.6771 -0.1459351 124.3567
v 198.0042 -0.1459351 124.3567
v 196.9947 -0.1459351 122.0012
v 196.3217 -0.1459351 122.0012
v 196.9947 -0.1459351 123.0107
v 196.3217 -0.1459351 123.0107
v 198.3407 -0.1459351 120.6553
v 197.3312 -0.1459351 120.6553
v 198.3407 -0.1459351 121.3282
v 197.3312 -0.1459351 121.3282
v 198.3407 -0.1459351 119.6458
v 197.3312 -0.1459351 119.6458
v 198.3407 -0.1459351 120.6553
v 197.3312 -0.1459351 120.6553
v 201.7056 -0.1459351 118.6363
v 200.6961 -0.1459351 118.6363
v 201.7056 -0.1459351 119.3093
v 200.6961 -0.1459351 119.3093
v 181.516 -0.1459351 116.2808
v 180.843 -0.1459351 116.2808
v 181.516 -0.1459351 116.9538
v 180.843 -0.1459351 116.9538
vt 0.06738281 0.9369141
vt 0.1331457 0.9369141
vt 0.06738281 0.9990234
vt 0.1331457 0.9990234
vt 0.06738281 0.9369141
vt 0.1331457 0.9369141
vt 0.06738281 0.9990234
vt 0.1331457 0.9990234
vt 0.06738281 0.9369141
vt 0.1331457 0.9369141
vt 0.06738281 0.9990234
vt 0.1331457 0.9990234
vt 0.06738281 0.9369141
vt 0.1331457 0.9369141
vt 0.06738281 0.9990234
vt 0.1331457 0.9990234
vt 0.06738281 0.9369141
vt 0.1331457 0.9369141
vt 0.06738281 0.9990234
vt 0.1331457 0.9990234
vt 0.06738281 0.9369141
vt 0.1331457 0.9369141
vt 0.06738281 0.9990234
vt 0.1331457 0.9990234
vt 0.06738281 0.9369141
vt 0.1331457 0.9369141
vt 0.06738281 0.9990234
vt 0.1331457 0.9990234
vt 0.06738281 0.9369141
vt 0.1331457 0.9369141
vt 0.06738281 0.9990234
vt 0.1331457 0.9990234
vt 0.06738281 0.9369141
vt 0.1331457 0.9369141
vt 0.06738281 0.9990234
vt 0.1331457 0.9990234
vt 0.06738281 0.9369141
vt 0.1331457 0.9369141
vt 0.06738281 0.9990234
vt 0.1331457 0.9990234
vt 0.06738281 0.9369141
vt 0.1331457 0.9369141
vt 0.06738281 0.9990234
vt 0.1331457 0.9990234
vt 0.06738281 0.9369141
vt 0.1331457 0.9369141
vt 0.06738281 0.9990234
vt 0.1331457 0.9990234
vt 0.06738281 0.9369141
vt 0.1331457 0.9369141
vt 0.06738281 0.9990234
vt 0.1331457 0.9990234
vt 0.06738281 0.9369141
vt 0.1331457 0.9369141
vt 0.06738281 0.9990234
vt 0.1331457 0.9990234
vn 0 1 0
vn 0 1 0
vn 0 1 0
vn 0 1 0
vn 0 1 0
vn 0 1 0
vn 0 1 0
vn 0 1 0
vn 0 1 0
vn 0 1 0
vn 0 1 0
vn 0 1 0
vn 0 1 0
vn 0 1 0
vn 0 1 0
vn 0 1 0
vn 0 1 0
vn 0 1 0
vn 0 1 0
vn 0 1 0
vn 0 1 0
vn 0 1 0
vn 0 1 0
vn 0 1 0
vn 0 1 0
vn 0 1 0
vn 0 1 0
vn 0 1 0
vn 0 1 0
vn 0 1 0
vn 0 1 0
vn 0 1 0
vn 0 1 0
vn 0 1 0
vn 0 1 0
vn 0 1 0
vn 0 1 0
vn 0 1 0
vn 0 1 0
vn 0 1 0
vn 0 1 0
vn 0 1 0
vn 0 1 0
vn 0 1 0
vn 0 1 0
vn 0 1 0
vn 0 1 0
vn 0 1 0
vn 0 1 0
vn 0 1 0
vn 0 1 0
vn 0 1 0
vn 0 1 0
vn 0 1 0
vn 0 1 0
vn 0 1 0
g Grass_1_Cluster103_0
f 2/2/2 3/3/3 1/1/1
f 2/2/2 4/4/4 3/3/3
f 6/6/6 7/7/7 5/5/5
f 6/6/6 8/8/8 7/7/7
f 10/10/10 11/11/11 9/9/9
f 10/10/10 12/12/12 11/11/11
f 14/14/14 15/15/15 13/13/13
f 14/14/14 16/16/16 15/15/15
f 18/18/18 19/19/19 17/17/17
f 18/18/18 20/20/20 19/19/19
f 22/22/22 23/23/23 21/21/21
f 22/22/22 24/24/24 23/23/23
f 26/26/26 27/27/27 25/25/25
f 26/26/26 28/28/28 27/27/27
f 30/30/30 31/31/31 29/29/29
f 30/30/30 32/32/32 31/31/31
f 34/34/34 35/35/35 33/33/33
f 34/34/34 36/36/36 35/35/35
f 38/38/38 39/39/39 37/37/37
f 38/38/38 40/40/40 39/39/39
f 42/42/42 43/43/43 41/41/41
f 42/42/42 44/44/44 43/43/43
f 46/46/46 47/47/47 45/45/45
f 46/46/46 48/48/48 47/47/47
f 50/50/50 51/51/51 49/49/49
f 50/50/50 52/52/52 51/51/51
f 54/54/54 55/55/55 53/53/53
f 54/54/54 56/56/56 55/55/55
