g Grass_1_Cluster241
v 244.114 0.02331543 351.1962
v 242.9113 0.02331543 351.1962
v 244.114 0.02331543 351.7975
v 242.9113 0.02331543 351.7975
v 244.7153 0.02331543 350.5948
v 243.5126 0.02331543 350.5948
v 244.7153 0.02331543 351.7975
v 243.5126 0.02331543 351.7975
v 245.9179 0.02331543 347.5883
v 244.7153 0.02331543 347.5883
v 245.9179 0.02331543 348.7909
v 244.7153 0.02331543 348.7909
v 263.3563 0.02331543 327.7446
v 262.1537 0.02331543 327.7446
v 263.3563 0.02331543 328.3459
v 262.1537 0.02331543 328.3459
vt 0.06738281 0.9369141
vt 0.1331457 0.9369141
vt 0.06738281 0.9990234
vt 0.1331457 0.9990234
vt 0.06738281 0.9369141
vt 0.1331457 0.9369141
vt 0.06738281 0.9990234
vt 0.1331457 0.9990234
vt 0.06738281 0.9369141
vt 0.1331457 0.9369141
vt 0.06738281 0.9990234
vt 0.1331457 0.9990234
vt 0.06738281 0.9369141
vt 0.1331457 0.9369141
vt 0.06738281 0.9990234
vt 0.1331457 0.9990234
vn 0 1 0
vn 0 1 0
vn 0 1 0
vn 0 1 0
vn 0 1 0
vn 0 1 0
vn 0 1 0
vn 0 1 0
vn 0 1 0
vn 0 1 0
vn 0 1 0
vn 0 1 0
vn 0 1 0
vn 0 1 0
vn 0 1 0
vn 0 1 0
g Grass_1_Cluster241_0
f 2/2/2 3/3/3 1/1/1
f 2/2/2 4/4/4 3/3/3
f 6/6/6 7/7/7 5/5/5
f 6/6/6 8/8/8 7/7/7
f 10/10/10 11/11/11 9/9/9
f 10/10/10 12/12/12 11/11/11
f 14/14/14 15/15/15 13/13/13
f 14/14/14 16/16/16 15/15/15
