g Grass_2_Cluster71
v -37.73041 0 83.02333
v -38.71682 0 83.02333
v -37.73041 0 84.09195
v -38.71682 0 84.09195
v -55.73249 0 82.85893
v -56.63671 0 82.85893
v -55.73249 0 83.92755
v -56.63671 0 83.92755
v -40.36085 0 81.87251
v -41.34726 0 81.87251
v -40.36085 0 83.02333
v -41.34726 0 83.02333
v -45.45733 0 81.46151
v -46.36155 0 81.46151
v -45.45733 0 82.44792
v -46.36155 0 82.44792
v -54.58168 0 80.9683
v -55.56809 0 80.9683
v -54.58168 0 82.11912
v -55.56809 0 82.11912
v -49.7318 0 67.48728
v -50.71822 0 67.48728
v -49.7318 0 68.5559
v -50.71822 0 68.5559
v -50.30721 0 67.32288
v -51.21142 0 67.32288
v -50.30721 0 68.3093
v -51.21142 0 68.3093
v -48.58098 0 66.99408
v -49.5674 0 66.99408
v -48.58098 0 68.06269
v -49.5674 0 68.06269
v -48.00557 0 66.33646
v -48.99199 0 66.33646
v -48.00557 0 67.40508
v -48.99199 0 67.40508
v -44.79972 0 65.92546
v -45.78614 0 65.92546
v -44.79972 0 66.99408
v -45.78614 0 66.99408
v -46.60815 0 65.67886
v -47.59457 0 65.67886
v -46.60815 0 66.82967
v -47.59457 0 66.82967
v -52.28004 0 65.67886
v -53.26646 0 65.67886
v -52.28004 0 66.82967
v -53.26646 0 66.82967
v -46.44374 0 64.69244
v -47.43016 0 64.69244
v -46.44374 0 65.84326
v -47.43016 0 65.84326
v -47.59457 0 64.69244
v -48.58098 0 64.69244
v -47.59457 0 65.76105
v -48.58098 0 65.76105
v -50.47161 0 64.44584
v -51.54023 0 64.44584
v -50.47161 0 65.59666
v -51.54023 0 65.59666
v -49.6496 0 64.36363
v -50.47161 0 64.36363
v -49.6496 0 65.43225
v -50.47161 0 65.43225
v -51.54023 0 64.11703
v -52.44444 0 64.11703
v -51.54023 0 65.18565
v -52.44444 0 65.18565
v -51.70463 0 63.29502
v -52.60884 0 63.29502
v -51.70463 0 64.36363
v -52.60884 0 64.36363
v -44.79972 0 62.55521
v -45.86834 0 62.55521
v -44.79972 0 63.62382
v -45.86834 0 63.62382
v -35.83978 0 61.40439
v -36.82619 0 61.40439
v -35.83978 0 62.55521
v -36.82619 0 62.55521
v -57.70533 0 57.86973
v -58.69174 0 57.86973
v -57.70533 0 58.93835
v -58.69174 0 58.93835
v -59.43156 0 56.47231
v -60.41797 0 56.47231
v -59.43156 0 57.62313
v -60.41797 0 57.62313
v -59.10275 0 55.73249
v -60.08916 0 55.73249
v -59.10275 0 56.88332
v -60.08916 0 56.88332
v -57.78753 0 55.32149
v -58.69174 0 55.32149
v -57.78753 0 56.3079
v -58.69174 0 56.3079
v -59.02055 0 54.74608
v -60.00697 0 54.74608
v -59.02055 0 55.8147
v -60.00697 0 55.8147
vt 0.1347656 0.9185662
vt 0.2060202 0.9185662
vt 0.1347656 1
vt 0.2060202 1
vt 0.1347656 0.9185662
vt 0.2060202 0.9185662
vt 0.1347656 1
vt 0.2060202 1
vt 0.1347656 0.9185662
vt 0.2060202 0.9185662
vt 0.1347656 1
vt 0.2060202 1
vt 0.1347656 0.9185662
vt 0.2060202 0.9185662
vt 0.1347656 1
vt 0.2060202 1
vt 0.1347656 0.9185662
vt 0.2060202 0.9185662
vt 0.1347656 1
vt 0.2060202 1
vt 0.1347656 0.9185662
vt 0.2060202 0.9185662
vt 0.1347656 1
vt 0.2060202 1
vt 0.1347656 0.9185662
vt 0.2060202 0.9185662
vt 0.1347656 1
vt 0.2060202 1
vt 0.1347656 0.9185662
vt 0.2060202 0.9185662
vt 0.1347656 1
vt 0.2060202 1
vt 0.1347656 0.9185662
vt 0.2060202 0.9185662
vt 0.1347656 1
vt 0.2060202 1
vt 0.1347656 0.9185662
vt 0.2060202 0.9185662
vt 0.1347656 1
vt 0.2060202 1
vt 0.1347656 0.9185662
vt 0.2060202 0.9185662
vt 0.1347656 1
vt 0.2060202 1
vt 0.1347656 0.9185662
vt 0.2060202 0.9185662
vt 0.1347656 1
vt 0.2060202 1
vt 0.1347656 0.9185662
vt 0.2060202 0.9185662
vt 0.1347656 1
vt 0.2060202 1
vt 0.1347656 0.9185662
vt 0.2060202 0.9185662
vt 0.1347656 1
vt 0.2060202 1
vt 0.1347656 0.9185662
vt 0.2060202 0.9185662
vt 0.1347656 1
vt 0.2060202 1
vt 0.1347656 0.9185662
vt 0.2060202 0.9185662
vt 0.1347656 1
vt 0.2060202 1
vt 0.1347656 0.9185662
vt 0.2060202 0.9185662
vt 0.1347656 1
vt 0.2060202 1
vt 0.1347656 0.9185662
vt 0.2060202 0.9185662
vt 0.1347656 1
vt 0.2060202 1
vt 0.1347656 0.9185662
vt 0.2060202 0.9185662
vt 0.1347656 1
vt 0.2060202 1
vt 0.1347656 0.9185662
vt 0.2060202 0.9185662
vt 0.1347656 1
vt 0.2060202 1
vt 0.1347656 0.9185662
vt 0.2060202 0.9185662
vt 0.1347656 1
vt 0.2060202 1
vt 0.1347656 0.9185662
vt 0.2060202 0.9185662
vt 0.1347656 1
vt 0.2060202 1
vt 0.1347656 0.9185662
vt 0.2060202 0.9185662
vt 0.1347656 1
vt 0.2060202 1
vt 0.1347656 0.9185662
vt 0.2060202 0.9185662
vt 0.1347656 1
vt 0.2060202 1
vt 0.1347656 0.9185662
vt 0.2060202 0.9185662
vt 0.1347656 1
vt 0.2060202 1
vn 0 1 0
vn 0 1 0
vn 0 1 0
vn 0 1 0
vn 0 1 0
vn 0 1 0
vn 0 1 0
vn 0 1 0
vn 0 1 0
vn 0 1 0
vn 0 1 0
vn 0 1 0
vn 0 1 0
vn 0 1 0
vn 0 1 0
vn 0 1 0
vn 0 1 0
vn 0 1 0
vn 0 1 0
vn 0 1 0
vn 0 1 0
vn 0 1 0
vn 0 1 0
vn 0 1 0
vn 0 1 0
vn 0 1 0
vn 0 1 0
vn 0 1 0
vn 0 1 0
vn 0 1 0
vn 0 1 0
vn 0 1 0
vn 0 1 0
vn 0 1 0
vn 0 1 0
vn 0 1 0
vn 0 1 0
vn 0 1 0
vn 0 1 0
vn 0 1 0
vn 0 1 0
vn 0 1 0
vn 0 1 0
vn 0 1 0
vn 0 1 0
vn 0 1 0
vn 0 1 0
vn 0 1 0
vn 0 1 0
vn 0 1 0
vn 0 1 0
vn 0 1 0
vn 0 1 0
vn 0 1 0
vn 0 1 0
vn 0 1 0
vn 0 1 0
vn 0 1 0
vn 0 1 0
vn 0 1 0
vn 0 1 0
vn 0 1 0
vn 0 1 0
vn 0 1 0
vn 0 1 0
vn 0 1 0
vn 0 1 0
vn 0 1 0
vn 0 1 0
vn 0 1 0
vn 0 1 0
vn 0 1 0
vn 0 1 0
vn 0 1 0
vn 0 1 0
vn 0 1 0
vn 0 1 0
vn 0 1 0
vn 0 1 0
vn 0 1 0
vn 0 1 0
vn 0 1 0
vn 0 1 0
vn 0 1 0
vn 0 1 0
vn 0 1 0
vn 0 1 0
vn 0 1 0
vn 0 1 0
vn 0 1 0
vn 0 1 0
vn 0 1 0
vn 0 1 0
vn 0 1 0
vn 0 1 0
vn 0 1 0
vn 0 1 0
vn 0 1 0
vn 0 1 0
vn 0 1 0
g Grass_2_Cluster71_0
f 2/2/2 3/3/3 1/1/1
f 2/2/2 4/4/4 3/3/3
f 6/6/6 7/7/7 5/5/5
f 6/6/6 8/8/8 7/7/7
f 10/10/10 11/11/11 9/9/9
f 10/10/10 12/12/12 11/11/11
f 14/14/14 15/15/15 13/13/13
f 14/14/14 16/16/16 15/15/15
f 18/18/18 19/19/19 17/17/17
f 18/18/18 20/20/20 19/19/19
f 22/22/22 23/23/23 21/21/21
f 22/22/22 24/24/24 23/23/23
f 26/26/26 27/27/27 25/25/25
f 26/26/26 28/28/28 27/27/27
f 30/30/30 31/31/31 29/29/29
f 30/30/30 32/32/32 31/31/31
f 34/34/34 35/35/35 33/33/33
f 34/34/34 36/36/36 35/35/35
f 38/38/38 39/39/39 37/37/37
f 38/38/38 40/40/40 39/39/39
f 42/42/42 43/43/43 41/41/41
f 42/42/42 44/44/44 43/43/43
f 46/46/46 47/47/47 45/45/45
f 46/46/46 48/48/48 47/47/47
f 50/50/50 51/51/51 49/49/49
f 50/50/50 52/52/52 51/51/51
f 54/54/54 55/55/55 53/53/53
f 54/54/54 56/56/56 55/55/55
f 58/58/58 59/59/59 57/57/57
f 58/58/58 60/60/60 59/59/59
f 62/62/62 63/63/63 61/61/61
f 62/62/62 64/64/64 63/63/63
f 66/66/66 67/67/67 65/65/65
f 66/66/66 68/68/68 67/67/67
f 70/70/70 71/71/71 69/69/69
f 70/70/70 72/72/72 71/71/71
f 74/74/74 75/75/75 73/73/73
f 74/74/74 76/76/76 75/75/75
f 78/78/78 79/79/79 77/77/77
f 78/78/78 80/80/80 79/79/79
f 82/82/82 83/83/83 81/81/81
f 82/82/82 84/84/84 83/83/83
f 86/86/86 87/87/87 85/85/85
f 86/86/86 88/88/88 87/87/87
f 90/90/90 91/91/91 89/89/89
f 90/90/90 92/92/92 91/91/91
f 94/94/94 95/95/95 93/93/93
f 94/94/94 96/96/96 95/95/95
f 98/98/98 99/99/99 97/97/97
f 98/98/98 100/100/100 99/99/99
