g Grass_2_Cluster137
v -235.7662 0 168.2061
v -236.6917 0 168.2061
v -235.7662 0 169.1316
v -236.6917 0 169.1316
v -235.0721 0 167.2807
v -235.9976 0 167.2807
v -235.0721 0 168.2061
v -235.9976 0 168.2061
v -215.637 0 161.4964
v -216.7939 0 161.4964
v -215.637 0 162.4219
v -216.7939 0 162.4219
v -216.5625 0 157.3317
v -217.488 0 157.3317
v -216.5625 0 158.4886
v -217.488 0 158.4886
v -228.5938 0 157.1004
v -229.7506 0 157.1004
v -228.5938 0 158.2572
v -229.7506 0 158.2572
v -228.131 0 156.4063
v -229.2879 0 156.4063
v -228.131 0 157.5631
v -229.2879 0 157.5631
v -226.9742 0 155.9435
v -227.8996 0 155.9435
v -226.9742 0 157.1004
v -227.8996 0 157.1004
v -217.0253 0 155.4808
v -218.1821 0 155.4808
v -217.0253 0 156.6376
v -218.1821 0 156.6376
v -228.3624 0 155.2494
v -229.2879 0 155.2494
v -228.3624 0 156.1749
v -229.2879 0 156.1749
v -229.5192 0 155.018
v -230.4447 0 155.018
v -229.5192 0 155.9435
v -230.4447 0 155.9435
v -217.9507 0 155.018
v -218.8762 0 155.018
v -217.9507 0 155.9435
v -218.8762 0 155.9435
v -225.1232 0 154.7867
v -226.0487 0 154.7867
v -225.1232 0 155.9435
v -226.0487 0 155.9435
v -229.0565 0 154.5553
v -229.982 0 154.5553
v -229.0565 0 155.4808
v -229.982 0 155.4808
v -227.6683 0 153.8612
v -228.5938 0 153.8612
v -227.6683 0 154.7867
v -228.5938 0 154.7867
v -229.5192 0 153.6298
v -230.4447 0 153.6298
v -229.5192 0 154.7867
v -230.4447 0 154.7867
vt 0.1347656 0.9185662
vt 0.2060202 0.9185662
vt 0.1347656 1
vt 0.2060202 1
vt 0.1347656 0.9185662
vt 0.2060202 0.9185662
vt 0.1347656 1
vt 0.2060202 1
vt 0.1347656 0.9185662
vt 0.2060202 0.9185662
vt 0.1347656 1
vt 0.2060202 1
vt 0.1347656 0.9185662
vt 0.2060202 0.9185662
vt 0.1347656 1
vt 0.2060202 1
vt 0.1347656 0.9185662
vt 0.2060202 0.9185662
vt 0.1347656 1
vt 0.2060202 1
vt 0.1347656 0.9185662
vt 0.2060202 0.9185662
vt 0.1347656 1
vt 0.2060202 1
vt 0.1347656 0.9185662
vt 0.2060202 0.9185662
vt 0.1347656 1
vt 0.2060202 1
vt 0.1347656 0.9185662
vt 0.2060202 0.9185662
vt 0.1347656 1
vt 0.2060202 1
vt 0.1347656 0.9185662
vt 0.2060202 0.9185662
vt 0.1347656 1
vt 0.2060202 1
vt 0.1347656 0.9185662
vt 0.2060202 0.9185662
vt 0.1347656 1
vt 0.2060202 1
vt 0.1347656 0.9185662
vt 0.2060202 0.9185662
vt 0.1347656 1
vt 0.2060202 1
vt 0.1347656 0.9185662
vt 0.2060202 0.9185662
vt 0.1347656 1
vt 0.2060202 1
vt 0.1347656 0.9185662
vt 0.2060202 0.9185662
vt 0.1347656 1
vt 0.2060202 1
vt 0.1347656 0.9185662
vt 0.2060202 0.9185662
vt 0.1347656 1
vt 0.2060202 1
vt 0.1347656 0.9185662
vt 0.2060202 0.9185662
vt 0.1347656 1
vt 0.2060202 1
vn 0 1 0
vn 0 1 0
vn 0 1 0
vn 0 1 0
vn 0 1 0
vn 0 1 0
vn 0 1 0
vn 0 1 0
vn 0 1 0
vn 0 1 0
vn 0 1 0
vn 0 1 0
vn 0 1 0
vn 0 1 0
vn 0 1 0
vn 0 1 0
vn 0 1 0
vn 0 1 0
vn 0 1 0
vn 0 1 0
vn 0 1 0
vn 0 1 0
vn 0 1 0
vn 0 1 0
vn 0 1 0
vn 0 1 0
vn 0 1 0
vn 0 1 0
vn 0 1 0
vn 0 1 0
vn 0 1 0
vn 0 1 0
vn 0 1 0
vn 0 1 0
vn 0 1 0
vn 0 1 0
vn 0 1 0
vn 0 1 0
vn 0 1 0
vn 0 1 0
vn 0 1 0
vn 0 1 0
vn 0 1 0
vn 0 1 0
vn 0 1 0
vn 0 1 0
vn 0 1 0
vn 0 1 0
vn 0 1 0
vn 0 1 0
vn 0 1 0
vn 0 1 0
vn 0 1 0
vn 0 1 0
vn 0 1 0
vn 0 1 0
vn 0 1 0
vn 0 1 0
vn 0 1 0
vn 0 1 0
g Grass_2_Cluster137_0
f 2/2/2 3/3/3 1/1/1
f 2/2/2 4/4/4 3/3/3
f 6/6/6 7/7/7 5/5/5
f 6/6/6 8/8/8 7/7/7
f 10/10/10 11/11/11 9/9/9
f 10/10/10 12/12/12 11/11/11
f 14/14/14 15/15/15 13/13/13
f 14/14/14 16/16/16 15/15/15
f 18/18/18 19/19/19 17/17/17
f 18/18/18 20/20/20 19/19/19
f 22/22/22 23/23/23 21/21/21
f 22/22/22 24/24/24 23/23/23
f 26/26/26 27/27/27 25/25/25
f 26/26/26 28/28/28 27/27/27
f 30/30/30 31/31/31 29/29/29
f 30/30/30 32/32/32 31/31/31
f 34/34/34 35/35/35 33/33/33
f 34/34/34 36/36/36 35/35/35
f 38/38/38 39/39/39 37/37/37
f 38/38/38 40/40/40 39/39/39
f 42/42/42 43/43/43 41/41/41
f 42/42/42 44/44/44 43/43/43
f 46/46/46 47/47/47 45/45/45
f 46/46/46 48/48/48 47/47/47
f 50/50/50 51/51/51 49/49/49
f 50/50/50 52/52/52 51/51/51
f 54/54/54 55/55/55 53/53/53
f 54/54/54 56/56/56 55/55/55
f 58/58/58 59/59/59 57/57/57
f 58/58/58 60/60/60 59/59/59
