g Grass_0_Cluster144
v 166.0815 0.1322479 202.2842
v 164.9585 0.1322479 202.2842
v 166.0815 0.1322479 203.4072
v 164.9585 0.1322479 203.4072
v 163.4611 0.1322479 201.1611
v 162.7123 0.1322479 201.1611
v 163.4611 0.1322479 202.6585
v 162.7123 0.1322479 202.6585
v 162.7123 0.1322479 200.4124
v 161.9636 0.1322479 200.4124
v 162.7123 0.1322479 201.5354
v 161.9636 0.1322479 201.5354
v 160.0919 0.1322479 199.6637
v 159.3431 0.1322479 199.6637
v 160.0919 0.1322479 200.7867
v 159.3431 0.1322479 200.7867
v 158.2201 0.1322479 199.2893
v 157.097 0.1322479 199.2893
v 158.2201 0.1322479 200.4124
v 157.097 0.1322479 200.4124
v 164.2098 0.1322479 198.915
v 163.4611 0.1322479 198.915
v 164.2098 0.1322479 200.4124
v 163.4611 0.1322479 200.4124
v 160.0919 0.1322479 197.7919
v 159.3431 0.1322479 197.7919
v 160.0919 0.1322479 198.915
v 159.3431 0.1322479 198.915
v 158.9688 0.1322479 197.0432
v 157.8457 0.1322479 197.0432
v 158.9688 0.1322479 198.1662
v 157.8457 0.1322479 198.1662
v 179.5583 0.1322479 196.6688
v 178.8096 0.1322479 196.6688
v 179.5583 0.1322479 197.7919
v 178.8096 0.1322479 197.7919
v 162.338 0.1322479 195.9201
v 161.5893 0.1322479 195.9201
v 162.338 0.1322479 197.0432
v 161.5893 0.1322479 197.0432
v 158.5944 0.1322479 194.4227
v 157.8457 0.1322479 194.4227
v 158.5944 0.1322479 195.5458
v 157.8457 0.1322479 195.5458
v 158.2201 0.1322479 193.2996
v 157.097 0.1322479 193.2996
v 158.2201 0.1322479 194.4227
v 157.097 0.1322479 194.4227
v 173.1943 0.1322479 188.8074
v 172.0712 0.1322479 188.8074
v 173.1943 0.1322479 189.9304
v 172.0712 0.1322479 189.9304
v 174.6917 0.1322479 187.31
v 173.5686 0.1322479 187.31
v 174.6917 0.1322479 188.433
v 173.5686 0.1322479 188.433
v 171.6969 0.1322479 186.9356
v 170.9482 0.1322479 186.9356
v 171.6969 0.1322479 188.433
v 170.9482 0.1322479 188.433
v 173.5686 0.1322479 186.5612
v 172.4456 0.1322479 186.5612
v 173.5686 0.1322479 188.0587
v 172.4456 0.1322479 188.0587
v 173.943 0.1322479 186.1869
v 173.1943 0.1322479 186.1869
v 173.943 0.1322479 187.31
v 173.1943 0.1322479 187.31
v 172.8199 0.1322479 185.8125
v 171.6969 0.1322479 185.8125
v 172.8199 0.1322479 187.31
v 171.6969 0.1322479 187.31
v 173.943 0.1322479 185.4382
v 172.8199 0.1322479 185.4382
v 173.943 0.1322479 186.5612
v 172.8199 0.1322479 186.5612
v 175.4404 0.1322479 185.0638
v 174.3174 0.1322479 185.0638
v 175.4404 0.1322479 186.1869
v 174.3174 0.1322479 186.1869
v 172.4456 0.1322479 184.6895
v 171.6969 0.1322479 184.6895
v 172.4456 0.1322479 185.8125
v 171.6969 0.1322479 185.8125
v 172.8199 0.1322479 184.6895
v 172.0712 0.1322479 184.6895
v 172.8199 0.1322479 185.8125
v 172.0712 0.1322479 185.8125
v 161.9636 0.1322479 184.3151
v 161.2149 0.1322479 184.3151
v 161.9636 0.1322479 185.8125
v 161.2149 0.1322479 185.8125
v 175.8148 0.1322479 184.3151
v 175.0661 0.1322479 184.3151
v 175.8148 0.1322479 185.4382
v 175.0661 0.1322479 185.4382
v 170.1994 0.1322479 183.9408
v 169.4507 0.1322479 183.9408
v 170.1994 0.1322479 185.4382
v 169.4507 0.1322479 185.4382
v 177.6866 0.1322479 183.9408
v 176.9379 0.1322479 183.9408
v 177.6866 0.1322479 185.0638
v 176.9379 0.1322479 185.0638
v 171.6969 0.1322479 182.8177
v 170.9482 0.1322479 182.8177
v 171.6969 0.1322479 184.3151
v 170.9482 0.1322479 184.3151
v 171.3225 0.1322479 182.4433
v 170.1994 0.1322479 182.4433
v 171.3225 0.1322479 183.9408
v 170.1994 0.1322479 183.9408
v 170.1994 0.1322479 181.6946
v 169.4507 0.1322479 181.6946
v 170.1994 0.1322479 182.8177
v 169.4507 0.1322479 182.8177
v 171.6969 0.1322479 181.3203
v 170.5738 0.1322479 181.3203
v 171.6969 0.1322479 182.4433
v 170.5738 0.1322479 182.4433
v 175.4404 0.1322479 180.9459
v 174.6917 0.1322479 180.9459
v 175.4404 0.1322479 182.069
v 174.6917 0.1322479 182.069
v 167.2046 0.1322479 180.1972
v 166.4559 0.1322479 180.1972
v 167.2046 0.1322479 181.3203
v 166.4559 0.1322479 181.3203
v 173.1943 0.1322479 180.1972
v 172.4456 0.1322479 180.1972
v 173.1943 0.1322479 181.3203
v 172.4456 0.1322479 181.3203
v 171.6969 0.1322479 179.8228
v 170.9482 0.1322479 179.8228
v 171.6969 0.1322479 180.9459
v 170.9482 0.1322479 180.9459
v 171.6969 0.1322479 178.6998
v 170.9482 0.1322479 178.6998
v 171.6969 0.1322479 179.8228
v 170.9482 0.1322479 179.8228
v 173.1943 0.1322479 178.6998
v 172.0712 0.1322479 178.6998
v 173.1943 0.1322479 179.8228
v 172.0712 0.1322479 179.8228
v 169.4507 0.1322479 177.9511
v 168.3277 0.1322479 177.9511
v 169.4507 0.1322479 179.4485
v 168.3277 0.1322479 179.4485
v 168.3277 0.1322479 177.2023
v 167.579 0.1322479 177.2023
v 168.3277 0.1322479 178.3254
v 167.579 0.1322479 178.3254
v 174.3174 0.1322479 176.4536
v 173.1943 0.1322479 176.4536
v 174.3174 0.1322479 177.9511
v 173.1943 0.1322479 177.9511
v 170.5738 0.1322479 175.7049
v 169.8251 0.1322479 175.7049
v 170.5738 0.1322479 176.828
v 169.8251 0.1322479 176.828
v 166.8302 0.1322479 175.3306
v 165.7072 0.1322479 175.3306
v 166.8302 0.1322479 176.828
v 165.7072 0.1322479 176.828
v 160.8406 0.1322479 174.5819
v 159.7175 0.1322479 174.5819
v 160.8406 0.1322479 175.7049
v 159.7175 0.1322479 175.7049
v 155.2252 0.1322479 173.8331
v 154.4765 0.1322479 173.8331
v 155.2252 0.1322479 174.9562
v 154.4765 0.1322479 174.9562
vt 0 0.9058824
vt 0.06666667 0.9058824
vt 0 1
vt 0.06666667 1
vt 0 0.9058824
vt 0.06666667 0.9058824
vt 0 1
vt 0.06666667 1
vt 0 0.9058824
vt 0.06666667 0.9058824
vt 0 1
vt 0.06666667 1
vt 0 0.9058824
vt 0.06666667 0.9058824
vt 0 1
vt 0.06666667 1
vt 0 0.9058824
vt 0.06666667 0.9058824
vt 0 1
vt 0.06666667 1
vt 0 0.9058824
vt 0.06666667 0.9058824
vt 0 1
vt 0.06666667 1
vt 0 0.9058824
vt 0.06666667 0.9058824
vt 0 1
vt 0.06666667 1
vt 0 0.9058824
vt 0.06666667 0.9058824
vt 0 1
vt 0.06666667 1
vt 0 0.9058824
vt 0.06666667 0.9058824
vt 0 1
vt 0.06666667 1
vt 0 0.9058824
vt 0.06666667 0.9058824
vt 0 1
vt 0.06666667 1
vt 0 0.9058824
vt 0.06666667 0.9058824
vt 0 1
vt 0.06666667 1
vt 0 0.9058824
vt 0.06666667 0.9058824
vt 0 1
vt 0.06666667 1
vt 0 0.9058824
vt 0.06666667 0.9058824
vt 0 1
vt 0.06666667 1
vt 0 0.9058824
vt 0.06666667 0.9058824
vt 0 1
vt 0.06666667 1
vt 0 0.9058824
vt 0.06666667 0.9058824
vt 0 1
vt 0.06666667 1
vt 0 0.9058824
vt 0.06666667 0.9058824
vt 0 1
vt 0.06666667 1
vt 0 0.9058824
vt 0.06666667 0.9058824
vt 0 1
vt 0.06666667 1
vt 0 0.9058824
vt 0.06666667 0.9058824
vt 0 1
vt 0.06666667 1
vt 0 0.9058824
vt 0.06666667 0.9058824
vt 0 1
vt 0.06666667 1
vt 0 0.9058824
vt 0.06666667 0.9058824
vt 0 1
vt 0.06666667 1
vt 0 0.9058824
vt 0.06666667 0.9058824
vt 0 1
vt 0.06666667 1
vt 0 0.9058824
vt 0.06666667 0.9058824
vt 0 1
vt 0.06666667 1
vt 0 0.9058824
vt 0.06666667 0.9058824
vt 0 1
vt 0.06666667 1
vt 0 0.9058824
vt 0.06666667 0.9058824
vt 0 1
vt 0.06666667 1
vt 0 0.9058824
vt 0.06666667 0.9058824
vt 0 1
vt 0.06666667 1
vt 0 0.9058824
vt 0.06666667 0.9058824
vt 0 1
vt 0.06666667 1
vt 0 0.9058824
vt 0.06666667 0.9058824
vt 0 1
vt 0.06666667 1
vt 0 0.9058824
vt 0.06666667 0.9058824
vt 0 1
vt 0.06666667 1
vt 0 0.9058824
vt 0.06666667 0.9058824
vt 0 1
vt 0.06666667 1
vt 0 0.9058824
vt 0.06666667 0.9058824
vt 0 1
vt 0.06666667 1
vt 0 0.9058824
vt 0.06666667 0.9058824
vt 0 1
vt 0.06666667 1
vt 0 0.9058824
vt 0.06666667 0.9058824
vt 0 1
vt 0.06666667 1
vt 0 0.9058824
vt 0.06666667 0.9058824
vt 0 1
vt 0.06666667 1
vt 0 0.9058824
vt 0.06666667 0.9058824
vt 0 1
vt 0.06666667 1
vt 0 0.9058824
vt 0.06666667 0.9058824
vt 0 1
vt 0.06666667 1
vt 0 0.9058824
vt 0.06666667 0.9058824
vt 0 1
vt 0.06666667 1
vt 0 0.9058824
vt 0.06666667 0.9058824
vt 0 1
vt 0.06666667 1
vt 0 0.9058824
vt 0.06666667 0.9058824
vt 0 1
vt 0.06666667 1
vt 0 0.9058824
vt 0.06666667 0.9058824
vt 0 1
vt 0.06666667 1
vt 0 0.9058824
vt 0.06666667 0.9058824
vt 0 1
vt 0.06666667 1
vt 0 0.9058824
vt 0.06666667 0.9058824
vt 0 1
vt 0.06666667 1
vt 0 0.9058824
vt 0.06666667 0.9058824
vt 0 1
vt 0.06666667 1
vt 0 0.9058824
vt 0.06666667 0.9058824
vt 0 1
vt 0.06666667 1
vn 0 1 0
vn 0 1 0
vn 0 1 0
vn 0 1 0
vn 0 1 0
vn 0 1 0
vn 0 1 0
vn 0 1 0
vn 0 1 0
vn 0 1 0
vn 0 1 0
vn 0 1 0
vn 0 1 0
vn 0 1 0
vn 0 1 0
vn 0 1 0
vn 0 1 0
vn 0 1 0
vn 0 1 0
vn 0 1 0
vn 0 1 0
vn 0 1 0
vn 0 1 0
vn 0 1 0
vn 0 1 0
vn 0 1 0
vn 0 1 0
vn 0 1 0
vn 0 1 0
vn 0 1 0
vn 0 1 0
vn 0 1 0
vn 0 1 0
vn 0 1 0
vn 0 1 0
vn 0 1 0
vn 0 1 0
vn 0 1 0
vn 0 1 0
vn 0 1 0
vn 0 1 0
vn 0 1 0
vn 0 1 0
vn 0 1 0
vn 0 1 0
vn 0 1 0
vn 0 1 0
vn 0 1 0
vn 0 1 0
vn 0 1 0
vn 0 1 0
vn 0 1 0
vn 0 1 0
vn 0 1 0
vn 0 1 0
vn 0 1 0
vn 0 1 0
vn 0 1 0
vn 0 1 0
vn 0 1 0
vn 0 1 0
vn 0 1 0
vn 0 1 0
vn 0 1 0
vn 0 1 0
vn 0 1 0
vn 0 1 0
vn 0 1 0
vn 0 1 0
vn 0 1 0
vn 0 1 0
vn 0 1 0
vn 0 1 0
vn 0 1 0
vn 0 1 0
vn 0 1 0
vn 0 1 0
vn 0 1 0
vn 0 1 0
vn 0 1 0
vn 0 1 0
vn 0 1 0
vn 0 1 0
vn 0 1 0
vn 0 1 0
vn 0 1 0
vn 0 1 0
vn 0 1 0
vn 0 1 0
vn 0 1 0
vn 0 1 0
vn 0 1 0
vn 0 1 0
vn 0 1 0
vn 0 1 0
vn 0 1 0
vn 0 1 0
vn 0 1 0
vn 0 1 0
vn 0 1 0
vn 0 1 0
vn 0 1 0
vn 0 1 0
vn 0 1 0
vn 0 1 0
vn 0 1 0
vn 0 1 0
vn 0 1 0
vn 0 1 0
vn 0 1 0
vn 0 1 0
vn 0 1 0
vn 0 1 0
vn 0 1 0
vn 0 1 0
vn 0 1 0
vn 0 1 0
vn 0 1 0
vn 0 1 0
vn 0 1 0
vn 0 1 0
vn 0 1 0
vn 0 1 0
vn 0 1 0
vn 0 1 0
vn 0 1 0
vn 0 1 0
vn 0 1 0
vn 0 1 0
vn 0 1 0
vn 0 1 0
vn 0 1 0
vn 0 1 0
vn 0 1 0
vn 0 1 0
vn 0 1 0
vn 0 1 0
vn 0 1 0
vn 0 1 0
vn 0 1 0
vn 0 1 0
vn 0 1 0
vn 0 1 0
vn 0 1 0
vn 0 1 0
vn 0 1 0
vn 0 1 0
vn 0 1 0
vn 0 1 0
vn 0 1 0
vn 0 1 0
vn 0 1 0
vn 0 1 0
vn 0 1 0
vn 0 1 0
vn 0 1 0
vn 0 1 0
vn 0 1 0
vn 0 1 0
vn 0 1 0
vn 0 1 0
vn 0 1 0
vn 0 1 0
vn 0 1 0
vn 0 1 0
vn 0 1 0
vn 0 1 0
vn 0 1 0
vn 0 1 0
vn 0 1 0
vn 0 1 0
vn 0 1 0
g Grass_0_Cluster144_0
f 2/2/2 3/3/3 1/1/1
f 2/2/2 4/4/4 3/3/3
f 6/6/6 7/7/7 5/5/5
f 6/6/6 8/8/8 7/7/7
f 10/10/10 11/11/11 9/9/9
f 10/10/10 12/12/12 11/11/11
f 14/14/14 15/15/15 13/13/13
f 14/14/14 16/16/16 15/15/15
f 18/18/18 19/19/19 17/17/17
f 18/18/18 20/20/20 19/19/19
f 22/22/22 23/23/23 21/21/21
f 22/22/22 24/24/24 23/23/23
f 26/26/26 27/27/27 25/25/25
f 26/26/26 28/28/28 27/27/27
f 30/30/30 31/31/31 29/29/29
f 30/30/30 32/32/32 31/31/31
f 34/34/34 35/35/35 33/33/33
f 34/34/34 36/36/36 35/35/35
f 38/38/38 39/39/39 37/37/37
f 38/38/38 40/40/40 39/39/39
f 42/42/42 43/43/43 41/41/41
f 42/42/42 44/44/44 43/43/43
f 46/46/46 47/47/47 45/45/45
f 46/46/46 48/48/48 47/47/47
f 50/50/50 51/51/51 49/49/49
f 50/50/50 52/52/52 51/51/51
f 54/54/54 55/55/55 53/53/53
f 54/54/54 56/56/56 55/55/55
f 58/58/58 59/59/59 57/57/57
f 58/58/58 60/60/60 59/59/59
f 62/62/62 63/63/63 61/61/61
f 62/62/62 64/64/64 63/63/63
f 66/66/66 67/67/67 65/65/65
f 66/66/66 68/68/68 67/67/67
f 70/70/70 71/71/71 69/69/69
f 70/70/70 72/72/72 71/71/71
f 74/74/74 75/75/75 73/73/73
f 74/74/74 76/76/76 75/75/75
f 78/78/78 79/79/79 77/77/77
f 78/78/78 80/80/80 79/79/79
f 82/82/82 83/83/83 81/81/81
f 82/82/82 84/84/84 83/83/83
f 86/86/86 87/87/87 85/85/85
f 86/86/86 88/88/88 87/87/87
f 90/90/90 91/91/91 89/89/89
f 90/90/90 92/92/92 91/91/91
f 94/94/94 95/95/95 93/93/93
f 94/94/94 96/96/96 95/95/95
f 98/98/98 99/99/99 97/97/97
f 98/98/98 100/100/100 99/99/99
f 102/102/102 103/103/103 101/101/101
f 102/102/102 104/104/104 103/103/103
f 106/106/106 107/107/107 105/105/105
f 106/106/106 108/108/108 107/107/107
f 110/110/110 111/111/111 109/109/109
f 110/110/110 112/112/112 111/111/111
f 114/114/114 115/115/115 113/113/113
f 114/114/114 116/116/116 115/115/115
f 118/118/118 119/119/119 117/117/117
f 118/118/118 120/120/120 119/119/119
f 122/122/122 123/123/123 121/121/121
f 122/122/122 124/124/124 123/123/123
f 126/126/126 127/127/127 125/125/125
f 126/126/126 128/128/128 127/127/127
f 130/130/130 131/131/131 129/129/129
f 130/130/130 132/132/132 131/131/131
f 134/134/134 135/135/135 133/133/133
f 134/134/134 136/136/136 135/135/135
f 138/138/138 139/139/139 137/137/137
f 138/138/138 140/140/140 139/139/139
f 142/142/142 143/143/143 141/141/141
f 142/142/142 144/144/144 143/143/143
f 146/146/146 147/147/147 145/145/145
f 146/146/146 148/148/148 147/147/147
f 150/150/150 151/151/151 149/149/149
f 150/150/150 152/152/152 151/151/151
f 154/154/154 155/155/155 153/153/153
f 154/154/154 156/156/156 155/155/155
f 158/158/158 159/159/159 157/157/157
f 158/158/158 160/160/160 159/159/159
f 162/162/162 163/163/163 161/161/161
f 162/162/162 164/164/164 163/163/163
f 166/166/166 167/167/167 165/165/165
f 166/166/166 168/168/168 167/167/167
f 170/170/170 171/171/171 169/169/169
f 170/170/170 172/172/172 171/171/171
