g Grass_0_Cluster2
v 212.373 0 -10.10182
v 211.4333 0 -10.10182
v 212.373 0 -8.927185
v 211.4333 0 -8.927185
v 211.4333 0 -11.04152
v 210.4936 0 -11.04152
v 211.4333 0 -9.631973
v 210.4936 0 -9.631973
v 213.3127 0 -11.27644
v 212.373 0 -11.27644
v 213.3127 0 -9.866898
v 212.373 0 -9.866898
v 213.3127 0 -11.98123
v 212.373 0 -11.98123
v 213.3127 0 -10.57167
v 212.373 0 -10.57167
v 239.1546 0 -12.686
v 238.2149 0 -12.686
v 239.1546 0 -11.51137
v 238.2149 0 -11.51137
v 212.373 0 -12.92093
v 211.4333 0 -12.92093
v 212.373 0 -11.74631
v 211.4333 0 -11.74631
v 211.4333 0 -13.6257
v 210.7286 0 -13.6257
v 211.4333 0 -12.45108
v 210.7286 0 -12.45108
v 232.5767 0 -13.6257
v 231.637 0 -13.6257
v 232.5767 0 -12.45108
v 231.637 0 -12.45108
v 212.608 0 -13.86063
v 211.6683 0 -13.86063
v 212.608 0 -12.686
v 211.6683 0 -12.686
v 211.1984 0 -14.09557
v 210.4936 0 -14.09557
v 211.1984 0 -12.92093
v 210.4936 0 -12.92093
v 212.1381 0 -14.33049
v 211.1984 0 -14.33049
v 212.1381 0 -13.15585
v 211.1984 0 -13.15585
v 223.1796 0 -14.33049
v 222.2399 0 -14.33049
v 223.1796 0 -12.92093
v 222.2399 0 -12.92093
v 225.059 0 -15.03526
v 224.1193 0 -15.03526
v 225.059 0 -13.6257
v 224.1193 0 -13.6257
v 225.9987 0 -15.03526
v 225.294 0 -15.03526
v 225.9987 0 -13.86063
v 225.294 0 -13.86063
v 210.4936 0 -15.50511
v 209.7888 0 -15.50511
v 210.4936 0 -14.09557
v 209.7888 0 -14.09557
v 238.9197 0 -15.50511
v 238.2149 0 -15.50511
v 238.9197 0 -14.09557
v 238.2149 0 -14.09557
v 224.3543 0 -16.44482
v 223.4146 0 -16.44482
v 224.3543 0 -15.03526
v 223.4146 0 -15.03526
v 226.2337 0 -16.67975
v 225.5289 0 -16.67975
v 226.2337 0 -15.27019
v 225.5289 0 -15.27019
v 226.9384 0 -16.91467
v 225.9987 0 -16.91467
v 226.9384 0 -15.50511
v 225.9987 0 -15.50511
v 227.4083 0 -17.61945
v 226.4686 0 -17.61945
v 227.4083 0 -16.44482
v 226.4686 0 -16.44482
v 225.9987 0 -17.61945
v 225.059 0 -17.61945
v 225.9987 0 -16.44482
v 225.059 0 -16.44482
v 225.059 0 -18.08929
v 224.3543 0 -18.08929
v 225.059 0 -16.91467
v 224.3543 0 -16.91467
v 236.3355 0 -18.32422
v 235.3958 0 -18.32422
v 236.3355 0 -16.91467
v 235.3958 0 -16.91467
v 228.5829 0 -18.32422
v 227.6432 0 -18.32422
v 228.5829 0 -17.1496
v 227.6432 0 -17.1496
v 211.1984 0 -25.13708
v 210.4936 0 -25.13708
v 211.1984 0 -23.96245
v 210.4936 0 -23.96245
v 216.8366 0 -25.37201
v 215.8969 0 -25.37201
v 216.8366 0 -23.96245
v 215.8969 0 -23.96245
v 213.7826 0 -25.37201
v 213.0778 0 -25.37201
v 213.7826 0 -24.19737
v 213.0778 0 -24.19737
v 218.4811 0 -26.07678
v 217.5414 0 -26.07678
v 218.4811 0 -24.66722
v 217.5414 0 -24.66722
v 213.7826 0 -26.07678
v 212.8429 0 -26.07678
v 213.7826 0 -24.66722
v 212.8429 0 -24.66722
v 240.3292 0 -26.07678
v 239.3895 0 -26.07678
v 240.3292 0 -24.90215
v 239.3895 0 -24.90215
v 236.1006 0 -26.31171
v 235.3958 0 -26.31171
v 236.1006 0 -24.90215
v 235.3958 0 -24.90215
v 215.662 0 -26.54663
v 214.7223 0 -26.54663
v 215.662 0 -25.37201
v 214.7223 0 -25.37201
v 217.7763 0 -26.54663
v 216.8366 0 -26.54663
v 217.7763 0 -25.37201
v 216.8366 0 -25.37201
v 215.4271 0 -26.54663
v 214.7223 0 -26.54663
v 215.4271 0 -25.37201
v 214.7223 0 -25.37201
v 214.2524 0 -26.78156
v 213.3127 0 -26.78156
v 214.2524 0 -25.60693
v 213.3127 0 -25.60693
v 211.4333 0 -27.2514
v 210.4936 0 -27.2514
v 211.4333 0 -25.84186
v 210.4936 0 -25.84186
v 213.0778 0 -27.2514
v 212.1381 0 -27.2514
v 213.0778 0 -26.07678
v 212.1381 0 -26.07678
v 214.7223 0 -27.48634
v 213.7826 0 -27.48634
v 214.7223 0 -26.31171
v 213.7826 0 -26.31171
v 214.9572 0 -28.42604
v 214.2524 0 -28.42604
v 214.9572 0 -27.2514
v 214.2524 0 -27.2514
v 229.5226 0 -29.60068
v 228.5829 0 -29.60068
v 229.5226 0 -28.19112
v 228.5829 0 -28.19112
v 239.6245 0 -29.60068
v 238.6847 0 -29.60068
v 239.6245 0 -28.42604
v 238.6847 0 -28.42604
v 226.9384 0 -31.48007
v 225.9987 0 -31.48007
v 226.9384 0 -30.30545
v 225.9987 0 -30.30545
v 233.5164 0 -31.94994
v 232.5767 0 -31.94994
v 233.5164 0 -30.7753
v 232.5767 0 -30.7753
v 231.637 0 -33.82933
v 230.6973 0 -33.82933
v 231.637 0 -32.65471
v 230.6973 0 -32.65471
vt 0 0.9058824
vt 0.06666667 0.9058824
vt 0 1
vt 0.06666667 1
vt 0 0.9058824
vt 0.06666667 0.9058824
vt 0 1
vt 0.06666667 1
vt 0 0.9058824
vt 0.06666667 0.9058824
vt 0 1
vt 0.06666667 1
vt 0 0.9058824
vt 0.06666667 0.9058824
vt 0 1
vt 0.06666667 1
vt 0 0.9058824
vt 0.06666667 0.9058824
vt 0 1
vt 0.06666667 1
vt 0 0.9058824
vt 0.06666667 0.9058824
vt 0 1
vt 0.06666667 1
vt 0 0.9058824
vt 0.06666667 0.9058824
vt 0 1
vt 0.06666667 1
vt 0 0.9058824
vt 0.06666667 0.9058824
vt 0 1
vt 0.06666667 1
vt 0 0.9058824
vt 0.06666667 0.9058824
vt 0 1
vt 0.06666667 1
vt 0 0.9058824
vt 0.06666667 0.9058824
vt 0 1
vt 0.06666667 1
vt 0 0.9058824
vt 0.06666667 0.9058824
vt 0 1
vt 0.06666667 1
vt 0 0.9058824
vt 0.06666667 0.9058824
vt 0 1
vt 0.06666667 1
vt 0 0.9058824
vt 0.06666667 0.9058824
vt 0 1
vt 0.06666667 1
vt 0 0.9058824
vt 0.06666667 0.9058824
vt 0 1
vt 0.06666667 1
vt 0 0.9058824
vt 0.06666667 0.9058824
vt 0 1
vt 0.06666667 1
vt 0 0.9058824
vt 0.06666667 0.9058824
vt 0 1
vt 0.06666667 1
vt 0 0.9058824
vt 0.06666667 0.9058824
vt 0 1
vt 0.06666667 1
vt 0 0.9058824
vt 0.06666667 0.9058824
vt 0 1
vt 0.06666667 1
vt 0 0.9058824
vt 0.06666667 0.9058824
vt 0 1
vt 0.06666667 1
vt 0 0.9058824
vt 0.06666667 0.9058824
vt 0 1
vt 0.06666667 1
vt 0 0.9058824
vt 0.06666667 0.9058824
vt 0 1
vt 0.06666667 1
vt 0 0.9058824
vt 0.06666667 0.9058824
vt 0 1
vt 0.06666667 1
vt 0 0.9058824
vt 0.06666667 0.9058824
vt 0 1
vt 0.06666667 1
vt 0 0.9058824
vt 0.06666667 0.9058824
vt 0 1
vt 0.06666667 1
vt 0 0.9058824
vt 0.06666667 0.9058824
vt 0 1
vt 0.06666667 1
vt 0 0.9058824
vt 0.06666667 0.9058824
vt 0 1
vt 0.06666667 1
vt 0 0.9058824
vt 0.06666667 0.9058824
vt 0 1
vt 0.06666667 1
vt 0 0.9058824
vt 0.06666667 0.9058824
vt 0 1
vt 0.06666667 1
vt 0 0.9058824
vt 0.06666667 0.9058824
vt 0 1
vt 0.06666667 1
vt 0 0.9058824
vt 0.06666667 0.9058824
vt 0 1
vt 0.06666667 1
vt 0 0.9058824
vt 0.06666667 0.9058824
vt 0 1
vt 0.06666667 1
vt 0 0.9058824
vt 0.06666667 0.9058824
vt 0 1
vt 0.06666667 1
vt 0 0.9058824
vt 0.06666667 0.9058824
vt 0 1
vt 0.06666667 1
vt 0 0.9058824
vt 0.06666667 0.9058824
vt 0 1
vt 0.06666667 1
vt 0 0.9058824
vt 0.06666667 0.9058824
vt 0 1
vt 0.06666667 1
vt 0 0.9058824
vt 0.06666667 0.9058824
vt 0 1
vt 0.06666667 1
vt 0 0.9058824
vt 0.06666667 0.9058824
vt 0 1
vt 0.06666667 1
vt 0 0.9058824
vt 0.06666667 0.9058824
vt 0 1
vt 0.06666667 1
vt 0 0.9058824
vt 0.06666667 0.9058824
vt 0 1
vt 0.06666667 1
vt 0 0.9058824
vt 0.06666667 0.9058824
vt 0 1
vt 0.06666667 1
vt 0 0.9058824
vt 0.06666667 0.9058824
vt 0 1
vt 0.06666667 1
vt 0 0.9058824
vt 0.06666667 0.9058824
vt 0 1
vt 0.06666667 1
vt 0 0.9058824
vt 0.06666667 0.9058824
vt 0 1
vt 0.06666667 1
vt 0 0.9058824
vt 0.06666667 0.9058824
vt 0 1
vt 0.06666667 1
vn 0 1 0
vn 0 1 0
vn 0 1 0
vn 0 1 0
vn 0 1 0
vn 0 1 0
vn 0 1 0
vn 0 1 0
vn 0 1 0
vn 0 1 0
vn 0 1 0
vn 0 1 0
vn 0 1 0
vn 0 1 0
vn 0 1 0
vn 0 1 0
vn 0 1 0
vn 0 1 0
vn 0 1 0
vn 0 1 0
vn 0 1 0
vn 0 1 0
vn 0 1 0
vn 0 1 0
vn 0 1 0
vn 0 1 0
vn 0 1 0
vn 0 1 0
vn 0 1 0
vn 0 1 0
vn 0 1 0
vn 0 1 0
vn 0 1 0
vn 0 1 0
vn 0 1 0
vn 0 1 0
vn 0 1 0
vn 0 1 0
vn 0 1 0
vn 0 1 0
vn 0 1 0
vn 0 1 0
vn 0 1 0
vn 0 1 0
vn 0 1 0
vn 0 1 0
vn 0 1 0
vn 0 1 0
vn 0 1 0
vn 0 1 0
vn 0 1 0
vn 0 1 0
vn 0 1 0
vn 0 1 0
vn 0 1 0
vn 0 1 0
vn 0 1 0
vn 0 1 0
vn 0 1 0
vn 0 1 0
vn 0 1 0
vn 0 1 0
vn 0 1 0
vn 0 1 0
vn 0 1 0
vn 0 1 0
vn 0 1 0
vn 0 1 0
vn 0 1 0
vn 0 1 0
vn 0 1 0
vn 0 1 0
vn 0 1 0
vn 0 1 0
vn 0 1 0
vn 0 1 0
vn 0 1 0
vn 0 1 0
vn 0 1 0
vn 0 1 0
vn 0 1 0
vn 0 1 0
vn 0 1 0
vn 0 1 0
vn 0 1 0
vn 0 1 0
vn 0 1 0
vn 0 1 0
vn 0 1 0
vn 0 1 0
vn 0 1 0
vn 0 1 0
vn 0 1 0
vn 0 1 0
vn 0 1 0
vn 0 1 0
vn 0 1 0
vn 0 1 0
vn 0 1 0
vn 0 1 0
vn 0 1 0
vn 0 1 0
vn 0 1 0
vn 0 1 0
vn 0 1 0
vn 0 1 0
vn 0 1 0
vn 0 1 0
vn 0 1 0
vn 0 1 0
vn 0 1 0
vn 0 1 0
vn 0 1 0
vn 0 1 0
vn 0 1 0
vn 0 1 0
vn 0 1 0
vn 0 1 0
vn 0 1 0
vn 0 1 0
vn 0 1 0
vn 0 1 0
vn 0 1 0
vn 0 1 0
vn 0 1 0
vn 0 1 0
vn 0 1 0
vn 0 1 0
vn 0 1 0
vn 0 1 0
vn 0 1 0
vn 0 1 0
vn 0 1 0
vn 0 1 0
vn 0 1 0
vn 0 1 0
vn 0 1 0
vn 0 1 0
vn 0 1 0
vn 0 1 0
vn 0 1 0
vn 0 1 0
vn 0 1 0
vn 0 1 0
vn 0 1 0
vn 0 1 0
vn 0 1 0
vn 0 1 0
vn 0 1 0
vn 0 1 0
vn 0 1 0
vn 0 1 0
vn 0 1 0
vn 0 1 0
vn 0 1 0
vn 0 1 0
vn 0 1 0
vn 0 1 0
vn 0 1 0
vn 0 1 0
vn 0 1 0
vn 0 1 0
vn 0 1 0
vn 0 1 0
vn 0 1 0
vn 0 1 0
vn 0 1 0
vn 0 1 0
vn 0 1 0
vn 0 1 0
vn 0 1 0
vn 0 1 0
vn 0 1 0
vn 0 1 0
vn 0 1 0
vn 0 1 0
g Grass_0_Cluster2_0
f 2/2/2 3/3/3 1/1/1
f 2/2/2 4/4/4 3/3/3
f 6/6/6 7/7/7 5/5/5
f 6/6/6 8/8/8 7/7/7
f 10/10/10 11/11/11 9/9/9
f 10/10/10 12/12/12 11/11/11
f 14/14/14 15/15/15 13/13/13
f 14/14/14 16/16/16 15/15/15
f 18/18/18 19/19/19 17/17/17
f 18/18/18 20/20/20 19/19/19
f 22/22/22 23/23/23 21/21/21
f 22/22/22 24/24/24 23/23/23
f 26/26/26 27/27/27 25/25/25
f 26/26/26 28/28/28 27/27/27
f 30/30/30 31/31/31 29/29/29
f 30/30/30 32/32/32 31/31/31
f 34/34/34 35/35/35 33/33/33
f 34/34/34 36/36/36 35/35/35
f 38/38/38 39/39/39 37/37/37
f 38/38/38 40/40/40 39/39/39
f 42/42/42 43/43/43 41/41/41
f 42/42/42 44/44/44 43/43/43
f 46/46/46 47/47/47 45/45/45
f 46/46/46 48/48/48 47/47/47
f 50/50/50 51/51/51 49/49/49
f 50/50/50 52/52/52 51/51/51
f 54/54/54 55/55/55 53/53/53
f 54/54/54 56/56/56 55/55/55
f 58/58/58 59/59/59 57/57/57
f 58/58/58 60/60/60 59/59/59
f 62/62/62 63/63/63 61/61/61
f 62/62/62 64/64/64 63/63/63
f 66/66/66 67/67/67 65/65/65
f 66/66/66 68/68/68 67/67/67
f 70/70/70 71/71/71 69/69/69
f 70/70/70 72/72/72 71/71/71
f 74/74/74 75/75/75 73/73/73
f 74/74/74 76/76/76 75/75/75
f 78/78/78 79/79/79 77/77/77
f 78/78/78 80/80/80 79/79/79
f 82/82/82 83/83/83 81/81/81
f 82/82/82 84/84/84 83/83/83
f 86/86/86 87/87/87 85/85/85
f 86/86/86 88/88/88 87/87/87
f 90/90/90 91/91/91 89/89/89
f 90/90/90 92/92/92 91/91/91
f 94/94/94 95/95/95 93/93/93
f 94/94/94 96/96/96 95/95/95
f 98/98/98 99/99/99 97/97/97
f 98/98/98 100/100/100 99/99/99
f 102/102/102 103/103/103 101/101/101
f 102/102/102 104/104/104 103/103/103
f 106/106/106 107/107/107 105/105/105
f 106/106/106 108/108/108 107/107/107
f 110/110/110 111/111/111 109/109/109
f 110/110/110 112/112/112 111/111/111
f 114/114/114 115/115/115 113/113/113
f 114/114/114 116/116/116 115/115/115
f 118/118/118 119/119/119 117/117/117
f 118/118/118 120/120/120 119/119/119
f 122/122/122 123/123/123 121/121/121
f 122/122/122 124/124/124 123/123/123
f 126/126/126 127/127/127 125/125/125
f 126/126/126 128/128/128 127/127/127
f 130/130/130 131/131/131 129/129/129
f 130/130/130 132/132/132 131/131/131
f 134/134/134 135/135/135 133/133/133
f 134/134/134 136/136/136 135/135/135
f 138/138/138 139/139/139 137/137/137
f 138/138/138 140/140/140 139/139/139
f 142/142/142 143/143/143 141/141/141
f 142/142/142 144/144/144 143/143/143
f 146/146/146 147/147/147 145/145/145
f 146/146/146 148/148/148 147/147/147
f 150/150/150 151/151/151 149/149/149
f 150/150/150 152/152/152 151/151/151
f 154/154/154 155/155/155 153/153/153
f 154/154/154 156/156/156 155/155/155
f 158/158/158 159/159/159 157/157/157
f 158/158/158 160/160/160 159/159/159
f 162/162/162 163/163/163 161/161/161
f 162/162/162 164/164/164 163/163/163
f 166/166/166 167/167/167 165/165/165
f 166/166/166 168/168/168 167/167/167
f 170/170/170 171/171/171 169/169/169
f 170/170/170 172/172/172 171/171/171
f 174/174/174 175/175/175 173/173/173
f 174/174/174 176/176/176 175/175/175
