g Grass_2_Cluster104
v 166.1904 -0.08946228 142.2827
v 165.2412 -0.08946228 142.2827
v 166.1904 -0.08946228 143.2319
v 165.2412 -0.08946228 143.2319
v 165.2412 -0.08946228 140.7008
v 164.2921 -0.08946228 140.7008
v 165.2412 -0.08946228 141.9664
v 164.2921 -0.08946228 141.9664
v 167.4559 -0.08946228 140.3844
v 166.5067 -0.08946228 140.3844
v 167.4559 -0.08946228 141.65
v 166.5067 -0.08946228 141.65
v 164.6084 -0.08946228 140.068
v 163.6593 -0.08946228 140.068
v 164.6084 -0.08946228 141.3336
v 163.6593 -0.08946228 141.3336
v 166.1904 -0.08946228 139.7517
v 165.2412 -0.08946228 139.7517
v 166.1904 -0.08946228 140.7008
v 165.2412 -0.08946228 140.7008
v 163.6593 -0.08946228 139.7517
v 162.7101 -0.08946228 139.7517
v 163.6593 -0.08946228 140.7008
v 162.7101 -0.08946228 140.7008
v 165.5576 -0.08946228 138.1698
v 164.6084 -0.08946228 138.1698
v 165.5576 -0.08946228 139.1189
v 164.6084 -0.08946228 139.1189
v 164.6084 -0.08946228 137.537
v 163.6593 -0.08946228 137.537
v 164.6084 -0.08946228 138.4861
v 163.6593 -0.08946228 138.4861
v 165.5576 -0.08946228 137.2206
v 164.6084 -0.08946228 137.2206
v 165.5576 -0.08946228 138.4861
v 164.6084 -0.08946228 138.4861
v 164.2921 -0.08946228 136.9042
v 163.3429 -0.08946228 136.9042
v 164.2921 -0.08946228 137.8534
v 163.3429 -0.08946228 137.8534
v 164.9248 -0.08946228 136.2715
v 163.9757 -0.08946228 136.2715
v 164.9248 -0.08946228 137.2206
v 163.9757 -0.08946228 137.2206
v 180.4276 -0.08946228 135.3223
v 179.4784 -0.08946228 135.3223
v 180.4276 -0.08946228 136.2715
v 179.4784 -0.08946228 136.2715
v 152.5859 -0.08946228 117.2885
v 151.6367 -0.08946228 117.2885
v 152.5859 -0.08946228 118.554
v 151.6367 -0.08946228 118.554
v 163.3429 -0.08946228 116.9721
v 162.3938 -0.08946228 116.9721
v 163.3429 -0.08946228 117.9213
v 162.3938 -0.08946228 117.9213
v 154.4842 -0.08946228 116.9721
v 153.535 -0.08946228 116.9721
v 154.4842 -0.08946228 117.9213
v 153.535 -0.08946228 117.9213
v 155.117 -0.08946228 116.6557
v 154.1678 -0.08946228 116.6557
v 155.117 -0.08946228 117.9213
v 154.1678 -0.08946228 117.9213
v 151.3204 -0.08946228 116.3393
v 150.3712 -0.08946228 116.3393
v 151.3204 -0.08946228 117.6049
v 150.3712 -0.08946228 117.6049
v 152.5859 -0.08946228 115.7066
v 151.3204 -0.08946228 115.7066
v 152.5859 -0.08946228 116.9721
v 151.3204 -0.08946228 116.9721
v 153.8514 -0.08946228 115.7066
v 152.9023 -0.08946228 115.7066
v 153.8514 -0.08946228 116.6557
v 152.9023 -0.08946228 116.6557
v 154.1678 -0.08946228 115.3902
v 153.2187 -0.08946228 115.3902
v 154.1678 -0.08946228 116.6557
v 153.2187 -0.08946228 116.6557
v 151.9531 -0.08946228 115.0738
v 151.004 -0.08946228 115.0738
v 151.9531 -0.08946228 116.3393
v 151.004 -0.08946228 116.3393
v 154.8006 -0.08946228 114.7574
v 153.8514 -0.08946228 114.7574
v 154.8006 -0.08946228 115.7066
v 153.8514 -0.08946228 115.7066
v 156.3825 -0.08946228 114.7574
v 155.117 -0.08946228 114.7574
v 156.3825 -0.08946228 115.7066
v 155.117 -0.08946228 115.7066
v 153.2187 -0.08946228 114.4411
v 152.2695 -0.08946228 114.4411
v 153.2187 -0.08946228 115.3902
v 152.2695 -0.08946228 115.3902
v 150.6876 -0.08946228 114.4411
v 149.7384 -0.08946228 114.4411
v 150.6876 -0.08946228 115.3902
v 149.7384 -0.08946228 115.3902
v 152.2695 -0.08946228 114.1247
v 151.3204 -0.08946228 114.1247
v 152.2695 -0.08946228 115.0738
v 151.3204 -0.08946228 115.0738
v 155.117 -0.08946228 113.8083
v 154.1678 -0.08946228 113.8083
v 155.117 -0.08946228 115.0738
v 154.1678 -0.08946228 115.0738
v 156.6989 -0.08946228 113.8083
v 155.7497 -0.08946228 113.8083
v 156.6989 -0.08946228 114.7574
v 155.7497 -0.08946228 114.7574
v 153.8514 -0.08946228 113.8083
v 152.9023 -0.08946228 113.8083
v 153.8514 -0.08946228 114.7574
v 152.9023 -0.08946228 114.7574
v 151.9531 -0.08946228 113.1755
v 151.004 -0.08946228 113.1755
v 151.9531 -0.08946228 114.4411
v 151.004 -0.08946228 114.4411
v 157.0153 -0.08946228 113.1755
v 156.0661 -0.08946228 113.1755
v 157.0153 -0.08946228 114.1247
v 156.0661 -0.08946228 114.1247
vt 0.1347656 0.9185662
vt 0.2060202 0.9185662
vt 0.1347656 1
vt 0.2060202 1
vt 0.1347656 0.9185662
vt 0.2060202 0.9185662
vt 0.1347656 1
vt 0.2060202 1
vt 0.1347656 0.9185662
vt 0.2060202 0.9185662
vt 0.1347656 1
vt 0.2060202 1
vt 0.1347656 0.9185662
vt 0.2060202 0.9185662
vt 0.1347656 1
vt 0.2060202 1
vt 0.1347656 0.9185662
vt 0.2060202 0.9185662
vt 0.1347656 1
vt 0.2060202 1
vt 0.1347656 0.9185662
vt 0.2060202 0.9185662
vt 0.1347656 1
vt 0.2060202 1
vt 0.1347656 0.9185662
vt 0.2060202 0.9185662
vt 0.1347656 1
vt 0.2060202 1
vt 0.1347656 0.9185662
vt 0.2060202 0.9185662
vt 0.1347656 1
vt 0.2060202 1
vt 0.1347656 0.9185662
vt 0.2060202 0.9185662
vt 0.1347656 1
vt 0.2060202 1
vt 0.1347656 0.9185662
vt 0.2060202 0.9185662
vt 0.1347656 1
vt 0.2060202 1
vt 0.1347656 0.9185662
vt 0.2060202 0.9185662
vt 0.1347656 1
vt 0.2060202 1
vt 0.1347656 0.9185662
vt 0.2060202 0.9185662
vt 0.1347656 1
vt 0.2060202 1
vt 0.1347656 0.9185662
vt 0.2060202 0.9185662
vt 0.1347656 1
vt 0.2060202 1
vt 0.1347656 0.9185662
vt 0.2060202 0.9185662
vt 0.1347656 1
vt 0.2060202 1
vt 0.1347656 0.9185662
vt 0.2060202 0.9185662
vt 0.1347656 1
vt 0.2060202 1
vt 0.1347656 0.9185662
vt 0.2060202 0.9185662
vt 0.1347656 1
vt 0.2060202 1
vt 0.1347656 0.9185662
vt 0.2060202 0.9185662
vt 0.1347656 1
vt 0.2060202 1
vt 0.1347656 0.9185662
vt 0.2060202 0.9185662
vt 0.1347656 1
vt 0.2060202 1
vt 0.1347656 0.9185662
vt 0.2060202 0.9185662
vt 0.1347656 1
vt 0.2060202 1
vt 0.1347656 0.9185662
vt 0.2060202 0.9185662
vt 0.1347656 1
vt 0.2060202 1
vt 0.1347656 0.9185662
vt 0.2060202 0.9185662
vt 0.1347656 1
vt 0.2060202 1
vt 0.1347656 0.9185662
vt 0.2060202 0.9185662
vt 0.1347656 1
vt 0.2060202 1
vt 0.1347656 0.9185662
vt 0.2060202 0.9185662
vt 0.1347656 1
vt 0.2060202 1
vt 0.1347656 0.9185662
vt 0.2060202 0.9185662
vt 0.1347656 1
vt 0.2060202 1
vt 0.1347656 0.9185662
vt 0.2060202 0.9185662
vt 0.1347656 1
vt 0.2060202 1
vt 0.1347656 0.9185662
vt 0.2060202 0.9185662
vt 0.1347656 1
vt 0.2060202 1
vt 0.1347656 0.9185662
vt 0.2060202 0.9185662
vt 0.1347656 1
vt 0.2060202 1
vt 0.1347656 0.9185662
vt 0.2060202 0.9185662
vt 0.1347656 1
vt 0.2060202 1
vt 0.1347656 0.9185662
vt 0.2060202 0.9185662
vt 0.1347656 1
vt 0.2060202 1
vt 0.1347656 0.9185662
vt 0.2060202 0.9185662
vt 0.1347656 1
vt 0.2060202 1
vt 0.1347656 0.9185662
vt 0.2060202 0.9185662
vt 0.1347656 1
vt 0.2060202 1
vn 0 1 0
vn 0 1 0
vn 0 1 0
vn 0 1 0
vn 0 1 0
vn 0 1 0
vn 0 1 0
vn 0 1 0
vn 0 1 0
vn 0 1 0
vn 0 1 0
vn 0 1 0
vn 0 1 0
vn 0 1 0
vn 0 1 0
vn 0 1 0
vn 0 1 0
vn 0 1 0
vn 0 1 0
vn 0 1 0
vn 0 1 0
vn 0 1 0
vn 0 1 0
vn 0 1 0
vn 0 1 0
vn 0 1 0
vn 0 1 0
vn 0 1 0
vn 0 1 0
vn 0 1 0
vn 0 1 0
vn 0 1 0
vn 0 1 0
vn 0 1 0
vn 0 1 0
vn 0 1 0
vn 0 1 0
vn 0 1 0
vn 0 1 0
vn 0 1 0
vn 0 1 0
vn 0 1 0
vn 0 1 0
vn 0 1 0
vn 0 1 0
vn 0 1 0
vn 0 1 0
vn 0 1 0
vn 0 1 0
vn 0 1 0
vn 0 1 0
vn 0 1 0
vn 0 1 0
vn 0 1 0
vn 0 1 0
vn 0 1 0
vn 0 1 0
vn 0 1 0
vn 0 1 0
vn 0 1 0
vn 0 1 0
vn 0 1 0
vn 0 1 0
vn 0 1 0
vn 0 1 0
vn 0 1 0
vn 0 1 0
vn 0 1 0
vn 0 1 0
vn 0 1 0
vn 0 1 0
vn 0 1 0
vn 0 1 0
vn 0 1 0
vn 0 1 0
vn 0 1 0
vn 0 1 0
vn 0 1 0
vn 0 1 0
vn 0 1 0
vn 0 1 0
vn 0 1 0
vn 0 1 0
vn 0 1 0
vn 0 1 0
vn 0 1 0
vn 0 1 0
vn 0 1 0
vn 0 1 0
vn 0 1 0
vn 0 1 0
vn 0 1 0
vn 0 1 0
vn 0 1 0
vn 0 1 0
vn 0 1 0
vn 0 1 0
vn 0 1 0
vn 0 1 0
vn 0 1 0
vn 0 1 0
vn 0 1 0
vn 0 1 0
vn 0 1 0
vn 0 1 0
vn 0 1 0
vn 0 1 0
vn 0 1 0
vn 0 1 0
vn 0 1 0
vn 0 1 0
vn 0 1 0
vn 0 1 0
vn 0 1 0
vn 0 1 0
vn 0 1 0
vn 0 1 0
vn 0 1 0
vn 0 1 0
vn 0 1 0
vn 0 1 0
vn 0 1 0
vn 0 1 0
vn 0 1 0
g Grass_2_Cluster104_0
f 2/2/2 3/3/3 1/1/1
f 2/2/2 4/4/4 3/3/3
f 6/6/6 7/7/7 5/5/5
f 6/6/6 8/8/8 7/7/7
f 10/10/10 11/11/11 9/9/9
f 10/10/10 12/12/12 11/11/11
f 14/14/14 15/15/15 13/13/13
f 14/14/14 16/16/16 15/15/15
f 18/18/18 19/19/19 17/17/17
f 18/18/18 20/20/20 19/19/19
f 22/22/22 23/23/23 21/21/21
f 22/22/22 24/24/24 23/23/23
f 26/26/26 27/27/27 25/25/25
f 26/26/26 28/28/28 27/27/27
f 30/30/30 31/31/31 29/29/29
f 30/30/30 32/32/32 31/31/31
f 34/34/34 35/35/35 33/33/33
f 34/34/34 36/36/36 35/35/35
f 38/38/38 39/39/39 37/37/37
f 38/38/38 40/40/40 39/39/39
f 42/42/42 43/43/43 41/41/41
f 42/42/42 44/44/44 43/43/43
f 46/46/46 47/47/47 45/45/45
f 46/46/46 48/48/48 47/47/47
f 50/50/50 51/51/51 49/49/49
f 50/50/50 52/52/52 51/51/51
f 54/54/54 55/55/55 53/53/53
f 54/54/54 56/56/56 55/55/55
f 58/58/58 59/59/59 57/57/57
f 58/58/58 60/60/60 59/59/59
f 62/62/62 63/63/63 61/61/61
f 62/62/62 64/64/64 63/63/63
f 66/66/66 67/67/67 65/65/65
f 66/66/66 68/68/68 67/67/67
f 70/70/70 71/71/71 69/69/69
f 70/70/70 72/72/72 71/71/71
f 74/74/74 75/75/75 73/73/73
f 74/74/74 76/76/76 75/75/75
f 78/78/78 79/79/79 77/77/77
f 78/78/78 80/80/80 79/79/79
f 82/82/82 83/83/83 81/81/81
f 82/82/82 84/84/84 83/83/83
f 86/86/86 87/87/87 85/85/85
f 86/86/86 88/88/88 87/87/87
f 90/90/90 91/91/91 89/89/89
f 90/90/90 92/92/92 91/91/91
f 94/94/94 95/95/95 93/93/93
f 94/94/94 96/96/96 95/95/95
f 98/98/98 99/99/99 97/97/97
f 98/98/98 100/100/100 99/99/99
f 102/102/102 103/103/103 101/101/101
f 102/102/102 104/104/104 103/103/103
f 106/106/106 107/107/107 105/105/105
f 106/106/106 108/108/108 107/107/107
f 110/110/110 111/111/111 109/109/109
f 110/110/110 112/112/112 111/111/111
f 114/114/114 115/115/115 113/113/113
f 114/114/114 116/116/116 115/115/115
f 118/118/118 119/119/119 117/117/117
f 118/118/118 120/120/120 119/119/119
f 122/122/122 123/123/123 121/121/121
f 122/122/122 124/124/124 123/123/123
