g Grass_2_Cluster94
v -143.4508 0 112.8265
v -144.4765 0 112.8265
v -143.4508 0 113.8522
v -144.4765 0 113.8522
v -140.3737 0 112.3869
v -141.3994 0 112.3869
v -140.3737 0 113.5591
v -141.3994 0 113.5591
v -143.0112 0 112.0938
v -143.8904 0 112.0938
v -143.0112 0 113.1195
v -143.8904 0 113.1195
v -142.2786 0 111.9473
v -143.1577 0 111.9473
v -142.2786 0 112.973
v -143.1577 0 112.973
v -144.33 0 111.6542
v -145.2091 0 111.6542
v -144.33 0 112.8265
v -145.2091 0 112.8265
v -145.7952 0 111.0681
v -146.6744 0 111.0681
v -145.7952 0 112.0938
v -146.6744 0 112.0938
v -142.7181 0 110.6285
v -143.5973 0 110.6285
v -142.7181 0 111.6542
v -143.5973 0 111.6542
v -144.9161 0 110.3355
v -145.7952 0 110.3355
v -144.9161 0 111.3612
v -145.7952 0 111.3612
v -143.4508 0 109.8959
v -144.33 0 109.8959
v -143.4508 0 111.0681
v -144.33 0 111.0681
v -144.0369 0 109.4563
v -144.9161 0 109.4563
v -144.0369 0 110.6285
v -144.9161 0 110.6285
v -145.3557 0 109.1633
v -146.3813 0 109.1633
v -145.3557 0 110.189
v -146.3813 0 110.189
v -145.5022 0 108.4306
v -146.3813 0 108.4306
v -145.5022 0 109.4563
v -146.3813 0 109.4563
v -144.7695 0 108.2841
v -145.7952 0 108.2841
v -144.7695 0 109.3098
v -145.7952 0 109.3098
v -145.9418 0 107.5515
v -146.8209 0 107.5515
v -145.9418 0 108.5771
v -146.8209 0 108.5771
v -146.8209 0 106.6723
v -147.8466 0 106.6723
v -146.8209 0 107.8445
v -147.8466 0 107.8445
v -133.9265 0 101.8369
v -134.9522 0 101.8369
v -133.9265 0 103.0091
v -134.9522 0 103.0091
v -135.9779 0 100.8112
v -136.857 0 100.8112
v -135.9779 0 101.8369
v -136.857 0 101.8369
v -133.3404 0 100.3716
v -134.3661 0 100.3716
v -133.3404 0 101.5438
v -134.3661 0 101.5438
v -136.1244 0 100.2251
v -137.1501 0 100.2251
v -136.1244 0 101.3973
v -137.1501 0 101.3973
v -134.5126 0 99.63895
v -135.5383 0 99.63895
v -134.5126 0 100.8112
v -135.5383 0 100.8112
v -133.6334 0 99.05284
v -134.5126 0 99.05284
v -133.6334 0 100.2251
v -134.5126 0 100.2251
v -134.3661 0 98.02715
v -135.2452 0 98.02715
v -134.3661 0 99.05284
v -135.2452 0 99.05284
v -134.2195 0 97.88062
v -135.0987 0 97.88062
v -134.2195 0 99.05284
v -135.0987 0 99.05284
v -132.9008 0 97.73409
v -133.7799 0 97.73409
v -132.9008 0 98.75978
v -133.7799 0 98.75978
v -131.582 0 97.2945
v -132.4612 0 97.2945
v -131.582 0 98.3202
v -132.4612 0 98.3202
v -134.073 0 97.00145
v -135.0987 0 97.00145
v -134.073 0 98.17368
v -135.0987 0 98.17368
v -148.2862 0 96.56187
v -149.3119 0 96.56187
v -148.2862 0 97.73409
v -149.3119 0 97.73409
v -132.9008 0 96.26881
v -133.7799 0 96.26881
v -132.9008 0 97.2945
v -133.7799 0 97.2945
v -129.2376 0 95.97575
v -130.2633 0 95.97575
v -129.2376 0 97.14798
v -130.2633 0 97.14798
v -147.5536 0 95.97575
v -148.5793 0 95.97575
v -147.5536 0 97.14798
v -148.5793 0 97.14798
v -133.3404 0 95.82922
v -134.2195 0 95.82922
v -133.3404 0 96.85492
v -134.2195 0 96.85492
v -148.4327 0 95.6827
v -149.3119 0 95.6827
v -148.4327 0 96.7084
v -149.3119 0 96.7084
v -146.0883 0 95.53617
v -146.9675 0 95.53617
v -146.0883 0 96.56187
v -146.9675 0 96.56187
v -132.4612 0 95.38964
v -133.3404 0 95.38964
v -132.4612 0 96.41534
v -133.3404 0 96.41534
v -146.5279 0 95.24312
v -147.407 0 95.24312
v -146.5279 0 96.26881
v -147.407 0 96.26881
v -128.3584 0 95.24312
v -129.3841 0 95.24312
v -128.3584 0 96.26881
v -129.3841 0 96.26881
v -148.2862 0 94.95006
v -149.1654 0 94.95006
v -148.2862 0 95.97575
v -149.1654 0 95.97575
v -131.4355 0 94.80353
v -132.4612 0 94.80353
v -131.4355 0 95.82922
v -132.4612 0 95.82922
v -146.6744 0 94.51048
v -147.7001 0 94.51048
v -146.6744 0 95.6827
v -147.7001 0 95.6827
v -147.7001 0 94.21742
v -148.7258 0 94.21742
v -147.7001 0 95.38964
v -148.7258 0 95.38964
v -129.091 0 94.21742
v -130.1167 0 94.21742
v -129.091 0 95.24312
v -130.1167 0 95.24312
v -149.0188 0 93.77784
v -149.898 0 93.77784
v -149.0188 0 94.95006
v -149.898 0 94.95006
v -132.3147 0 93.92436
v -133.1938 0 93.92436
v -132.3147 0 94.95006
v -133.1938 0 94.95006
v -146.6744 0 93.48478
v -147.5536 0 93.48478
v -146.6744 0 94.51048
v -147.5536 0 94.51048
v -148.4327 0 93.33825
v -149.4584 0 93.33825
v -148.4327 0 94.51048
v -149.4584 0 94.51048
v -147.407 0 92.75214
v -148.4327 0 92.75214
v -147.407 0 93.77784
v -148.4327 0 93.77784
v -131.1424 0 92.60561
v -132.0216 0 92.60561
v -131.1424 0 93.77784
v -132.0216 0 93.77784
v -137.8827 0 85.86533
v -138.7619 0 85.86533
v -137.8827 0 86.89103
v -138.7619 0 86.89103
v -119.4202 0 85.27922
v -120.4459 0 85.27922
v -119.4202 0 86.45145
v -120.4459 0 86.45145
v -121.032 0 83.96047
v -122.0577 0 83.96047
v -121.032 0 84.98617
v -122.0577 0 84.98617
v -121.4716 0 83.22783
v -122.4973 0 83.22783
v -121.4716 0 84.25352
v -122.4973 0 84.25352
vt 0.1347656 0.9185662
vt 0.2060202 0.9185662
vt 0.1347656 1
vt 0.2060202 1
vt 0.1347656 0.9185662
vt 0.2060202 0.9185662
vt 0.1347656 1
vt 0.2060202 1
vt 0.1347656 0.9185662
vt 0.2060202 0.9185662
vt 0.1347656 1
vt 0.2060202 1
vt 0.1347656 0.9185662
vt 0.2060202 0.9185662
vt 0.1347656 1
vt 0.2060202 1
vt 0.1347656 0.9185662
vt 0.2060202 0.9185662
vt 0.1347656 1
vt 0.2060202 1
vt 0.1347656 0.9185662
vt 0.2060202 0.9185662
vt 0.1347656 1
vt 0.2060202 1
vt 0.1347656 0.9185662
vt 0.2060202 0.9185662
vt 0.1347656 1
vt 0.2060202 1
vt 0.1347656 0.9185662
vt 0.2060202 0.9185662
vt 0.1347656 1
vt 0.2060202 1
vt 0.1347656 0.9185662
vt 0.2060202 0.9185662
vt 0.1347656 1
vt 0.2060202 1
vt 0.1347656 0.9185662
vt 0.2060202 0.9185662
vt 0.1347656 1
vt 0.2060202 1
vt 0.1347656 0.9185662
vt 0.2060202 0.9185662
vt 0.1347656 1
vt 0.2060202 1
vt 0.1347656 0.9185662
vt 0.2060202 0.9185662
vt 0.1347656 1
vt 0.2060202 1
vt 0.1347656 0.9185662
vt 0.2060202 0.9185662
vt 0.1347656 1
vt 0.2060202 1
vt 0.1347656 0.9185662
vt 0.2060202 0.9185662
vt 0.1347656 1
vt 0.2060202 1
vt 0.1347656 0.9185662
vt 0.2060202 0.9185662
vt 0.1347656 1
vt 0.2060202 1
vt 0.1347656 0.9185662
vt 0.2060202 0.9185662
vt 0.1347656 1
vt 0.2060202 1
vt 0.1347656 0.9185662
vt 0.2060202 0.9185662
vt 0.1347656 1
vt 0.2060202 1
vt 0.1347656 0.9185662
vt 0.2060202 0.9185662
vt 0.1347656 1
vt 0.2060202 1
vt 0.1347656 0.9185662
vt 0.2060202 0.9185662
vt 0.1347656 1
vt 0.2060202 1
vt 0.1347656 0.9185662
vt 0.2060202 0.9185662
vt 0.1347656 1
vt 0.2060202 1
vt 0.1347656 0.9185662
vt 0.2060202 0.9185662
vt 0.1347656 1
vt 0.2060202 1
vt 0.1347656 0.9185662
vt 0.2060202 0.9185662
vt 0.1347656 1
vt 0.2060202 1
vt 0.1347656 0.9185662
vt 0.2060202 0.9185662
vt 0.1347656 1
vt 0.2060202 1
vt 0.1347656 0.9185662
vt 0.2060202 0.9185662
vt 0.1347656 1
vt 0.2060202 1
vt 0.1347656 0.9185662
vt 0.2060202 0.9185662
vt 0.1347656 1
vt 0.2060202 1
vt 0.1347656 0.9185662
vt 0.2060202 0.9185662
vt 0.1347656 1
vt 0.2060202 1
vt 0.1347656 0.9185662
vt 0.2060202 0.9185662
vt 0.1347656 1
vt 0.2060202 1
vt 0.1347656 0.9185662
vt 0.2060202 0.9185662
vt 0.1347656 1
vt 0.2060202 1
vt 0.1347656 0.9185662
vt 0.2060202 0.9185662
vt 0.1347656 1
vt 0.2060202 1
vt 0.1347656 0.9185662
vt 0.2060202 0.9185662
vt 0.1347656 1
vt 0.2060202 1
vt 0.1347656 0.9185662
vt 0.2060202 0.9185662
vt 0.1347656 1
vt 0.2060202 1
vt 0.1347656 0.9185662
vt 0.2060202 0.9185662
vt 0.1347656 1
vt 0.2060202 1
vt 0.1347656 0.9185662
vt 0.2060202 0.9185662
vt 0.1347656 1
vt 0.2060202 1
vt 0.1347656 0.9185662
vt 0.2060202 0.9185662
vt 0.1347656 1
vt 0.2060202 1
vt 0.1347656 0.9185662
vt 0.2060202 0.9185662
vt 0.1347656 1
vt 0.2060202 1
vt 0.1347656 0.9185662
vt 0.2060202 0.9185662
vt 0.1347656 1
vt 0.2060202 1
vt 0.1347656 0.9185662
vt 0.2060202 0.9185662
vt 0.1347656 1
vt 0.2060202 1
vt 0.1347656 0.9185662
vt 0.2060202 0.9185662
vt 0.1347656 1
vt 0.2060202 1
vt 0.1347656 0.9185662
vt 0.2060202 0.9185662
vt 0.1347656 1
vt 0.2060202 1
vt 0.1347656 0.9185662
vt 0.2060202 0.9185662
vt 0.1347656 1
vt 0.2060202 1
vt 0.1347656 0.9185662
vt 0.2060202 0.9185662
vt 0.1347656 1
vt 0.2060202 1
vt 0.1347656 0.9185662
vt 0.2060202 0.9185662
vt 0.1347656 1
vt 0.2060202 1
vt 0.1347656 0.9185662
vt 0.2060202 0.9185662
vt 0.1347656 1
vt 0.2060202 1
vt 0.1347656 0.9185662
vt 0.2060202 0.9185662
vt 0.1347656 1
vt 0.2060202 1
vt 0.1347656 0.9185662
vt 0.2060202 0.9185662
vt 0.1347656 1
vt 0.2060202 1
vt 0.1347656 0.9185662
vt 0.2060202 0.9185662
vt 0.1347656 1
vt 0.2060202 1
vt 0.1347656 0.9185662
vt 0.2060202 0.9185662
vt 0.1347656 1
vt 0.2060202 1
vt 0.1347656 0.9185662
vt 0.2060202 0.9185662
vt 0.1347656 1
vt 0.2060202 1
vt 0.1347656 0.9185662
vt 0.2060202 0.9185662
vt 0.1347656 1
vt 0.2060202 1
vt 0.1347656 0.9185662
vt 0.2060202 0.9185662
vt 0.1347656 1
vt 0.2060202 1
vt 0.1347656 0.9185662
vt 0.2060202 0.9185662
vt 0.1347656 1
vt 0.2060202 1
vn 0 1 0
vn 0 1 0
vn 0 1 0
vn 0 1 0
vn 0 1 0
vn 0 1 0
vn 0 1 0
vn 0 1 0
vn 0 1 0
vn 0 1 0
vn 0 1 0
vn 0 1 0
vn 0 1 0
vn 0 1 0
vn 0 1 0
vn 0 1 0
vn 0 1 0
vn 0 1 0
vn 0 1 0
vn 0 1 0
vn 0 1 0
vn 0 1 0
vn 0 1 0
vn 0 1 0
vn 0 1 0
vn 0 1 0
vn 0 1 0
vn 0 1 0
vn 0 1 0
vn 0 1 0
vn 0 1 0
vn 0 1 0
vn 0 1 0
vn 0 1 0
vn 0 1 0
vn 0 1 0
vn 0 1 0
vn 0 1 0
vn 0 1 0
vn 0 1 0
vn 0 1 0
vn 0 1 0
vn 0 1 0
vn 0 1 0
vn 0 1 0
vn 0 1 0
vn 0 1 0
vn 0 1 0
vn 0 1 0
vn 0 1 0
vn 0 1 0
vn 0 1 0
vn 0 1 0
vn 0 1 0
vn 0 1 0
vn 0 1 0
vn 0 1 0
vn 0 1 0
vn 0 1 0
vn 0 1 0
vn 0 1 0
vn 0 1 0
vn 0 1 0
vn 0 1 0
vn 0 1 0
vn 0 1 0
vn 0 1 0
vn 0 1 0
vn 0 1 0
vn 0 1 0
vn 0 1 0
vn 0 1 0
vn 0 1 0
vn 0 1 0
vn 0 1 0
vn 0 1 0
vn 0 1 0
vn 0 1 0
vn 0 1 0
vn 0 1 0
vn 0 1 0
vn 0 1 0
vn 0 1 0
vn 0 1 0
vn 0 1 0
vn 0 1 0
vn 0 1 0
vn 0 1 0
vn 0 1 0
vn 0 1 0
vn 0 1 0
vn 0 1 0
vn 0 1 0
vn 0 1 0
vn 0 1 0
vn 0 1 0
vn 0 1 0
vn 0 1 0
vn 0 1 0
vn 0 1 0
vn 0 1 0
vn 0 1 0
vn 0 1 0
vn 0 1 0
vn 0 1 0
vn 0 1 0
vn 0 1 0
vn 0 1 0
vn 0 1 0
vn 0 1 0
vn 0 1 0
vn 0 1 0
vn 0 1 0
vn 0 1 0
vn 0 1 0
vn 0 1 0
vn 0 1 0
vn 0 1 0
vn 0 1 0
vn 0 1 0
vn 0 1 0
vn 0 1 0
vn 0 1 0
vn 0 1 0
vn 0 1 0
vn 0 1 0
vn 0 1 0
vn 0 1 0
vn 0 1 0
vn 0 1 0
vn 0 1 0
vn 0 1 0
vn 0 1 0
vn 0 1 0
vn 0 1 0
vn 0 1 0
vn 0 1 0
vn 0 1 0
vn 0 1 0
vn 0 1 0
vn 0 1 0
vn 0 1 0
vn 0 1 0
vn 0 1 0
vn 0 1 0
vn 0 1 0
vn 0 1 0
vn 0 1 0
vn 0 1 0
vn 0 1 0
vn 0 1 0
vn 0 1 0
vn 0 1 0
vn 0 1 0
vn 0 1 0
vn 0 1 0
vn 0 1 0
vn 0 1 0
vn 0 1 0
vn 0 1 0
vn 0 1 0
vn 0 1 0
vn 0 1 0
vn 0 1 0
vn 0 1 0
vn 0 1 0
vn 0 1 0
vn 0 1 0
vn 0 1 0
vn 0 1 0
vn 0 1 0
vn 0 1 0
vn 0 1 0
vn 0 1 0
vn 0 1 0
vn 0 1 0
vn 0 1 0
vn 0 1 0
vn 0 1 0
vn 0 1 0
vn 0 1 0
vn 0 1 0
vn 0 1 0
vn 0 1 0
vn 0 1 0
vn 0 1 0
vn 0 1 0
vn 0 1 0
vn 0 1 0
vn 0 1 0
vn 0 1 0
vn 0 1 0
vn 0 1 0
vn 0 1 0
vn 0 1 0
vn 0 1 0
vn 0 1 0
vn 0 1 0
vn 0 1 0
vn 0 1 0
vn 0 1 0
vn 0 1 0
vn 0 1 0
vn 0 1 0
g Grass_2_Cluster94_0
f 2/2/2 3/3/3 1/1/1
f 2/2/2 4/4/4 3/3/3
f 6/6/6 7/7/7 5/5/5
f 6/6/6 8/8/8 7/7/7
f 10/10/10 11/11/11 9/9/9
f 10/10/10 12/12/12 11/11/11
f 14/14/14 15/15/15 13/13/13
f 14/14/14 16/16/16 15/15/15
f 18/18/18 19/19/19 17/17/17
f 18/18/18 20/20/20 19/19/19
f 22/22/22 23/23/23 21/21/21
f 22/22/22 24/24/24 23/23/23
f 26/26/26 27/27/27 25/25/25
f 26/26/26 28/28/28 27/27/27
f 30/30/30 31/31/31 29/29/29
f 30/30/30 32/32/32 31/31/31
f 34/34/34 35/35/35 33/33/33
f 34/34/34 36/36/36 35/35/35
f 38/38/38 39/39/39 37/37/37
f 38/38/38 40/40/40 39/39/39
f 42/42/42 43/43/43 41/41/41
f 42/42/42 44/44/44 43/43/43
f 46/46/46 47/47/47 45/45/45
f 46/46/46 48/48/48 47/47/47
f 50/50/50 51/51/51 49/49/49
f 50/50/50 52/52/52 51/51/51
f 54/54/54 55/55/55 53/53/53
f 54/54/54 56/56/56 55/55/55
f 58/58/58 59/59/59 57/57/57
f 58/58/58 60/60/60 59/59/59
f 62/62/62 63/63/63 61/61/61
f 62/62/62 64/64/64 63/63/63
f 66/66/66 67/67/67 65/65/65
f 66/66/66 68/68/68 67/67/67
f 70/70/70 71/71/71 69/69/69
f 70/70/70 72/72/72 71/71/71
f 74/74/74 75/75/75 73/73/73
f 74/74/74 76/76/76 75/75/75
f 78/78/78 79/79/79 77/77/77
f 78/78/78 80/80/80 79/79/79
f 82/82/82 83/83/83 81/81/81
f 82/82/82 84/84/84 83/83/83
f 86/86/86 87/87/87 85/85/85
f 86/86/86 88/88/88 87/87/87
f 90/90/90 91/91/91 89/89/89
f 90/90/90 92/92/92 91/91/91
f 94/94/94 95/95/95 93/93/93
f 94/94/94 96/96/96 95/95/95
f 98/98/98 99/99/99 97/97/97
f 98/98/98 100/100/100 99/99/99
f 102/102/102 103/103/103 101/101/101
f 102/102/102 104/104/104 103/103/103
f 106/106/106 107/107/107 105/105/105
f 106/106/106 108/108/108 107/107/107
f 110/110/110 111/111/111 109/109/109
f 110/110/110 112/112/112 111/111/111
f 114/114/114 115/115/115 113/113/113
f 114/114/114 116/116/116 115/115/115
f 118/118/118 119/119/119 117/117/117
f 118/118/118 120/120/120 119/119/119
f 122/122/122 123/123/123 121/121/121
f 122/122/122 124/124/124 123/123/123
f 126/126/126 127/127/127 125/125/125
f 126/126/126 128/128/128 127/127/127
f 130/130/130 131/131/131 129/129/129
f 130/130/130 132/132/132 131/131/131
f 134/134/134 135/135/135 133/133/133
f 134/134/134 136/136/136 135/135/135
f 138/138/138 139/139/139 137/137/137
f 138/138/138 140/140/140 139/139/139
f 142/142/142 143/143/143 141/141/141
f 142/142/142 144/144/144 143/143/143
f 146/146/146 147/147/147 145/145/145
f 146/146/146 148/148/148 147/147/147
f 150/150/150 151/151/151 149/149/149
f 150/150/150 152/152/152 151/151/151
f 154/154/154 155/155/155 153/153/153
f 154/154/154 156/156/156 155/155/155
f 158/158/158 159/159/159 157/157/157
f 158/158/158 160/160/160 159/159/159
f 162/162/162 163/163/163 161/161/161
f 162/162/162 164/164/164 163/163/163
f 166/166/166 167/167/167 165/165/165
f 166/166/166 168/168/168 167/167/167
f 170/170/170 171/171/171 169/169/169
f 170/170/170 172/172/172 171/171/171
f 174/174/174 175/175/175 173/173/173
f 174/174/174 176/176/176 175/175/175
f 178/178/178 179/179/179 177/177/177
f 178/178/178 180/180/180 179/179/179
f 182/182/182 183/183/183 181/181/181
f 182/182/182 184/184/184 183/183/183
f 186/186/186 187/187/187 185/185/185
f 186/186/186 188/188/188 187/187/187
f 190/190/190 191/191/191 189/189/189
f 190/190/190 192/192/192 191/191/191
f 194/194/194 195/195/195 193/193/193
f 194/194/194 196/196/196 195/195/195
f 198/198/198 199/199/199 197/197/197
f 198/198/198 200/200/200 199/199/199
f 202/202/202 203/203/203 201/201/201
f 202/202/202 204/204/204 203/203/203
