g Grass_0_Cluster276
v -204.6644 0 383.0415
v -205.4154 0 383.0415
v -204.6644 0 384.1681
v -205.4154 0 384.1681
v -185.8878 0 383.0415
v -186.6389 0 383.0415
v -185.8878 0 384.1681
v -186.6389 0 384.1681
v -208.7952 0 382.666
v -209.5462 0 382.666
v -208.7952 0 383.7926
v -209.5462 0 383.7926
v -205.0399 0 382.666
v -205.7909 0 382.666
v -205.0399 0 383.7926
v -205.7909 0 383.7926
v -209.5462 0 382.2905
v -210.2973 0 382.2905
v -209.5462 0 383.7926
v -210.2973 0 383.7926
v -203.5378 0 382.2905
v -204.2888 0 382.2905
v -203.5378 0 383.7926
v -204.2888 0 383.7926
v -202.7867 0 382.2905
v -203.9133 0 382.2905
v -202.7867 0 383.4171
v -203.9133 0 383.4171
v -182.1325 0 382.2905
v -183.2591 0 382.2905
v -182.1325 0 383.4171
v -183.2591 0 383.4171
v -206.9175 0 382.2905
v -207.6686 0 382.2905
v -206.9175 0 383.4171
v -207.6686 0 383.4171
v -207.6686 0 381.9149
v -208.4197 0 381.9149
v -207.6686 0 383.0415
v -208.4197 0 383.0415
v -207.2931 0 381.1639
v -208.0441 0 381.1639
v -207.2931 0 382.666
v -208.0441 0 382.666
v -206.1665 0 380.0373
v -206.9175 0 380.0373
v -206.1665 0 381.1639
v -206.9175 0 381.1639
v -208.4197 0 379.2862
v -209.1707 0 379.2862
v -208.4197 0 380.7883
v -209.1707 0 380.7883
v -206.542 0 378.9107
v -207.2931 0 378.9107
v -206.542 0 380.4128
v -207.2931 0 380.4128
v -205.7909 0 378.1596
v -206.9175 0 378.1596
v -205.7909 0 379.6617
v -206.9175 0 379.6617
v -208.0441 0 378.1596
v -208.7952 0 378.1596
v -208.0441 0 379.2862
v -208.7952 0 379.2862
v -209.1707 0 376.6575
v -209.9218 0 376.6575
v -209.1707 0 378.1596
v -209.9218 0 378.1596
v -198.2803 0 367.6448
v -199.0314 0 367.6448
v -198.2803 0 368.7714
v -199.0314 0 368.7714
v -180.2548 0 367.2692
v -181.0059 0 367.2692
v -180.2548 0 368.3958
v -181.0059 0 368.3958
v -197.9048 0 366.5182
v -199.0314 0 366.5182
v -197.9048 0 368.0203
v -199.0314 0 368.0203
v -190.3942 0 366.5182
v -191.1452 0 366.5182
v -190.3942 0 367.6448
v -191.1452 0 367.6448
v -184.3857 0 366.5182
v -185.5123 0 366.5182
v -184.3857 0 367.6448
v -185.5123 0 367.6448
v -181.757 0 366.1426
v -182.508 0 366.1426
v -181.757 0 367.2692
v -182.508 0 367.2692
v -198.6559 0 366.1426
v -199.7824 0 366.1426
v -198.6559 0 367.2692
v -199.7824 0 367.2692
v -190.3942 0 365.7671
v -191.5208 0 365.7671
v -190.3942 0 367.2692
v -191.5208 0 367.2692
v -191.8963 0 365.7671
v -192.6474 0 365.7671
v -191.8963 0 366.8937
v -192.6474 0 366.8937
v -199.0314 0 365.7671
v -199.7824 0 365.7671
v -199.0314 0 366.8937
v -199.7824 0 366.8937
v -189.6431 0 365.0161
v -190.3942 0 365.0161
v -189.6431 0 366.1426
v -190.3942 0 366.1426
v -201.2846 0 365.0161
v -202.0356 0 365.0161
v -201.2846 0 366.5182
v -202.0356 0 366.5182
v -184.0101 0 365.3916
v -184.7612 0 365.3916
v -184.0101 0 366.5182
v -184.7612 0 366.5182
v -191.5208 0 365.0161
v -192.2718 0 365.0161
v -191.5208 0 366.1426
v -192.2718 0 366.1426
v -188.5165 0 364.6405
v -189.2676 0 364.6405
v -188.5165 0 365.7671
v -189.2676 0 365.7671
v -192.2718 0 364.265
v -193.3984 0 364.265
v -192.2718 0 365.7671
v -193.3984 0 365.7671
v -179.8793 0 364.6405
v -181.0059 0 364.6405
v -179.8793 0 365.7671
v -181.0059 0 365.7671
v -194.9005 0 364.265
v -196.0271 0 364.265
v -194.9005 0 365.3916
v -196.0271 0 365.3916
v -196.4027 0 364.265
v -197.1537 0 364.265
v -196.4027 0 365.3916
v -197.1537 0 365.3916
v -183.2591 0 364.265
v -184.0101 0 364.265
v -183.2591 0 365.3916
v -184.0101 0 365.3916
v -189.6431 0 364.265
v -190.7697 0 364.265
v -189.6431 0 365.3916
v -190.7697 0 365.3916
v -195.6516 0 363.5139
v -196.7782 0 363.5139
v -195.6516 0 365.0161
v -196.7782 0 365.0161
v -198.6559 0 363.5139
v -199.7824 0 363.5139
v -198.6559 0 365.0161
v -199.7824 0 365.0161
v -192.6474 0 363.5139
v -193.3984 0 363.5139
v -192.6474 0 364.6405
v -193.3984 0 364.6405
v -197.1537 0 363.5139
v -198.2803 0 363.5139
v -197.1537 0 365.0161
v -198.2803 0 365.0161
v -187.3899 0 363.5139
v -188.5165 0 363.5139
v -187.3899 0 364.6405
v -188.5165 0 364.6405
v -185.1367 0 363.5139
v -185.8878 0 363.5139
v -185.1367 0 364.6405
v -185.8878 0 364.6405
v -201.6601 0 363.1384
v -202.7867 0 363.1384
v -201.6601 0 364.265
v -202.7867 0 364.265
v -200.909 0 363.1384
v -201.6601 0 363.1384
v -200.909 0 364.265
v -201.6601 0 364.265
v -180.6304 0 363.1384
v -181.3814 0 363.1384
v -180.6304 0 364.265
v -181.3814 0 364.265
v -188.141 0 363.1384
v -189.2676 0 363.1384
v -188.141 0 364.265
v -189.2676 0 364.265
v -194.9005 0 362.7628
v -195.6516 0 362.7628
v -194.9005 0 363.8895
v -195.6516 0 363.8895
v -189.6431 0 362.3873
v -190.7697 0 362.3873
v -189.6431 0 363.8895
v -190.7697 0 363.8895
v -188.141 0 362.0118
v -188.892 0 362.0118
v -188.141 0 363.5139
v -188.892 0 363.5139
v -182.8836 0 362.0118
v -183.6346 0 362.0118
v -182.8836 0 363.5139
v -183.6346 0 363.5139
v -181.3814 0 362.0118
v -182.1325 0 362.0118
v -181.3814 0 363.5139
v -182.1325 0 363.5139
v -194.1495 0 362.0118
v -195.2761 0 362.0118
v -194.1495 0 363.5139
v -195.2761 0 363.5139
v -197.9048 0 361.6363
v -198.6559 0 361.6363
v -197.9048 0 363.1384
v -198.6559 0 363.1384
v -190.3942 0 361.6363
v -191.1452 0 361.6363
v -190.3942 0 363.1384
v -191.1452 0 363.1384
v -190.7697 0 361.6363
v -191.5208 0 361.6363
v -190.7697 0 362.7628
v -191.5208 0 362.7628
v -185.8878 0 361.2607
v -186.6389 0 361.2607
v -185.8878 0 362.3873
v -186.6389 0 362.3873
v -188.141 0 361.2607
v -188.892 0 361.2607
v -188.141 0 362.3873
v -188.892 0 362.3873
v -190.0186 0 359.7586
v -190.7697 0 359.7586
v -190.0186 0 360.8852
v -190.7697 0 360.8852
v -179.8793 0 359.0075
v -181.0059 0 359.0075
v -179.8793 0 360.1342
v -181.0059 0 360.1342
v -181.757 0 354.1256
v -182.8836 0 354.1256
v -181.757 0 355.6278
v -182.8836 0 355.6278
vt 0 0.9058824
vt 0.06666667 0.9058824
vt 0 1
vt 0.06666667 1
vt 0 0.9058824
vt 0.06666667 0.9058824
vt 0 1
vt 0.06666667 1
vt 0 0.9058824
vt 0.06666667 0.9058824
vt 0 1
vt 0.06666667 1
vt 0 0.9058824
vt 0.06666667 0.9058824
vt 0 1
vt 0.06666667 1
vt 0 0.9058824
vt 0.06666667 0.9058824
vt 0 1
vt 0.06666667 1
vt 0 0.9058824
vt 0.06666667 0.9058824
vt 0 1
vt 0.06666667 1
vt 0 0.9058824
vt 0.06666667 0.9058824
vt 0 1
vt 0.06666667 1
vt 0 0.9058824
vt 0.06666667 0.9058824
vt 0 1
vt 0.06666667 1
vt 0 0.9058824
vt 0.06666667 0.9058824
vt 0 1
vt 0.06666667 1
vt 0 0.9058824
vt 0.06666667 0.9058824
vt 0 1
vt 0.06666667 1
vt 0 0.9058824
vt 0.06666667 0.9058824
vt 0 1
vt 0.06666667 1
vt 0 0.9058824
vt 0.06666667 0.9058824
vt 0 1
vt 0.06666667 1
vt 0 0.9058824
vt 0.06666667 0.9058824
vt 0 1
vt 0.06666667 1
vt 0 0.9058824
vt 0.06666667 0.9058824
vt 0 1
vt 0.06666667 1
vt 0 0.9058824
vt 0.06666667 0.9058824
vt 0 1
vt 0.06666667 1
vt 0 0.9058824
vt 0.06666667 0.9058824
vt 0 1
vt 0.06666667 1
vt 0 0.9058824
vt 0.06666667 0.9058824
vt 0 1
vt 0.06666667 1
vt 0 0.9058824
vt 0.06666667 0.9058824
vt 0 1
vt 0.06666667 1
vt 0 0.9058824
vt 0.06666667 0.9058824
vt 0 1
vt 0.06666667 1
vt 0 0.9058824
vt 0.06666667 0.9058824
vt 0 1
vt 0.06666667 1
vt 0 0.9058824
vt 0.06666667 0.9058824
vt 0 1
vt 0.06666667 1
vt 0 0.9058824
vt 0.06666667 0.9058824
vt 0 1
vt 0.06666667 1
vt 0 0.9058824
vt 0.06666667 0.9058824
vt 0 1
vt 0.06666667 1
vt 0 0.9058824
vt 0.06666667 0.9058824
vt 0 1
vt 0.06666667 1
vt 0 0.9058824
vt 0.06666667 0.9058824
vt 0 1
vt 0.06666667 1
vt 0 0.9058824
vt 0.06666667 0.9058824
vt 0 1
vt 0.06666667 1
vt 0 0.9058824
vt 0.06666667 0.9058824
vt 0 1
vt 0.06666667 1
vt 0 0.9058824
vt 0.06666667 0.9058824
vt 0 1
vt 0.06666667 1
vt 0 0.9058824
vt 0.06666667 0.9058824
vt 0 1
vt 0.06666667 1
vt 0 0.9058824
vt 0.06666667 0.9058824
vt 0 1
vt 0.06666667 1
vt 0 0.9058824
vt 0.06666667 0.9058824
vt 0 1
vt 0.06666667 1
vt 0 0.9058824
vt 0.06666667 0.9058824
vt 0 1
vt 0.06666667 1
vt 0 0.9058824
vt 0.06666667 0.9058824
vt 0 1
vt 0.06666667 1
vt 0 0.9058824
vt 0.06666667 0.9058824
vt 0 1
vt 0.06666667 1
vt 0 0.9058824
vt 0.06666667 0.9058824
vt 0 1
vt 0.06666667 1
vt 0 0.9058824
vt 0.06666667 0.9058824
vt 0 1
vt 0.06666667 1
vt 0 0.9058824
vt 0.06666667 0.9058824
vt 0 1
vt 0.06666667 1
vt 0 0.9058824
vt 0.06666667 0.9058824
vt 0 1
vt 0.06666667 1
vt 0 0.9058824
vt 0.06666667 0.9058824
vt 0 1
vt 0.06666667 1
vt 0 0.9058824
vt 0.06666667 0.9058824
vt 0 1
vt 0.06666667 1
vt 0 0.9058824
vt 0.06666667 0.9058824
vt 0 1
vt 0.06666667 1
vt 0 0.9058824
vt 0.06666667 0.9058824
vt 0 1
vt 0.06666667 1
vt 0 0.9058824
vt 0.06666667 0.9058824
vt 0 1
vt 0.06666667 1
vt 0 0.9058824
vt 0.06666667 0.9058824
vt 0 1
vt 0.06666667 1
vt 0 0.9058824
vt 0.06666667 0.9058824
vt 0 1
vt 0.06666667 1
vt 0 0.9058824
vt 0.06666667 0.9058824
vt 0 1
vt 0.06666667 1
vt 0 0.9058824
vt 0.06666667 0.9058824
vt 0 1
vt 0.06666667 1
vt 0 0.9058824
vt 0.06666667 0.9058824
vt 0 1
vt 0.06666667 1
vt 0 0.9058824
vt 0.06666667 0.9058824
vt 0 1
vt 0.06666667 1
vt 0 0.9058824
vt 0.06666667 0.9058824
vt 0 1
vt 0.06666667 1
vt 0 0.9058824
vt 0.06666667 0.9058824
vt 0 1
vt 0.06666667 1
vt 0 0.9058824
vt 0.06666667 0.9058824
vt 0 1
vt 0.06666667 1
vt 0 0.9058824
vt 0.06666667 0.9058824
vt 0 1
vt 0.06666667 1
vt 0 0.9058824
vt 0.06666667 0.9058824
vt 0 1
vt 0.06666667 1
vt 0 0.9058824
vt 0.06666667 0.9058824
vt 0 1
vt 0.06666667 1
vt 0 0.9058824
vt 0.06666667 0.9058824
vt 0 1
vt 0.06666667 1
vt 0 0.9058824
vt 0.06666667 0.9058824
vt 0 1
vt 0.06666667 1
vt 0 0.9058824
vt 0.06666667 0.9058824
vt 0 1
vt 0.06666667 1
vt 0 0.9058824
vt 0.06666667 0.9058824
vt 0 1
vt 0.06666667 1
vt 0 0.9058824
vt 0.06666667 0.9058824
vt 0 1
vt 0.06666667 1
vt 0 0.9058824
vt 0.06666667 0.9058824
vt 0 1
vt 0.06666667 1
vt 0 0.9058824
vt 0.06666667 0.9058824
vt 0 1
vt 0.06666667 1
vn 0 1 0
vn 0 1 0
vn 0 1 0
vn 0 1 0
vn 0 1 0
vn 0 1 0
vn 0 1 0
vn 0 1 0
vn 0 1 0
vn 0 1 0
vn 0 1 0
vn 0 1 0
vn 0 1 0
vn 0 1 0
vn 0 1 0
vn 0 1 0
vn 0 1 0
vn 0 1 0
vn 0 1 0
vn 0 1 0
vn 0 1 0
vn 0 1 0
vn 0 1 0
vn 0 1 0
vn 0 1 0
vn 0 1 0
vn 0 1 0
vn 0 1 0
vn 0 1 0
vn 0 1 0
vn 0 1 0
vn 0 1 0
vn 0 1 0
vn 0 1 0
vn 0 1 0
vn 0 1 0
vn 0 1 0
vn 0 1 0
vn 0 1 0
vn 0 1 0
vn 0 1 0
vn 0 1 0
vn 0 1 0
vn 0 1 0
vn 0 1 0
vn 0 1 0
vn 0 1 0
vn 0 1 0
vn 0 1 0
vn 0 1 0
vn 0 1 0
vn 0 1 0
vn 0 1 0
vn 0 1 0
vn 0 1 0
vn 0 1 0
vn 0 1 0
vn 0 1 0
vn 0 1 0
vn 0 1 0
vn 0 1 0
vn 0 1 0
vn 0 1 0
vn 0 1 0
vn 0 1 0
vn 0 1 0
vn 0 1 0
vn 0 1 0
vn 0 1 0
vn 0 1 0
vn 0 1 0
vn 0 1 0
vn 0 1 0
vn 0 1 0
vn 0 1 0
vn 0 1 0
vn 0 1 0
vn 0 1 0
vn 0 1 0
vn 0 1 0
vn 0 1 0
vn 0 1 0
vn 0 1 0
vn 0 1 0
vn 0 1 0
vn 0 1 0
vn 0 1 0
vn 0 1 0
vn 0 1 0
vn 0 1 0
vn 0 1 0
vn 0 1 0
vn 0 1 0
vn 0 1 0
vn 0 1 0
vn 0 1 0
vn 0 1 0
vn 0 1 0
vn 0 1 0
vn 0 1 0
vn 0 1 0
vn 0 1 0
vn 0 1 0
vn 0 1 0
vn 0 1 0
vn 0 1 0
vn 0 1 0
vn 0 1 0
vn 0 1 0
vn 0 1 0
vn 0 1 0
vn 0 1 0
vn 0 1 0
vn 0 1 0
vn 0 1 0
vn 0 1 0
vn 0 1 0
vn 0 1 0
vn 0 1 0
vn 0 1 0
vn 0 1 0
vn 0 1 0
vn 0 1 0
vn 0 1 0
vn 0 1 0
vn 0 1 0
vn 0 1 0
vn 0 1 0
vn 0 1 0
vn 0 1 0
vn 0 1 0
vn 0 1 0
vn 0 1 0
vn 0 1 0
vn 0 1 0
vn 0 1 0
vn 0 1 0
vn 0 1 0
vn 0 1 0
vn 0 1 0
vn 0 1 0
vn 0 1 0
vn 0 1 0
vn 0 1 0
vn 0 1 0
vn 0 1 0
vn 0 1 0
vn 0 1 0
vn 0 1 0
vn 0 1 0
vn 0 1 0
vn 0 1 0
vn 0 1 0
vn 0 1 0
vn 0 1 0
vn 0 1 0
vn 0 1 0
vn 0 1 0
vn 0 1 0
vn 0 1 0
vn 0 1 0
vn 0 1 0
vn 0 1 0
vn 0 1 0
vn 0 1 0
vn 0 1 0
vn 0 1 0
vn 0 1 0
vn 0 1 0
vn 0 1 0
vn 0 1 0
vn 0 1 0
vn 0 1 0
vn 0 1 0
vn 0 1 0
vn 0 1 0
vn 0 1 0
vn 0 1 0
vn 0 1 0
vn 0 1 0
vn 0 1 0
vn 0 1 0
vn 0 1 0
vn 0 1 0
vn 0 1 0
vn 0 1 0
vn 0 1 0
vn 0 1 0
vn 0 1 0
vn 0 1 0
vn 0 1 0
vn 0 1 0
vn 0 1 0
vn 0 1 0
vn 0 1 0
vn 0 1 0
vn 0 1 0
vn 0 1 0
vn 0 1 0
vn 0 1 0
vn 0 1 0
vn 0 1 0
vn 0 1 0
vn 0 1 0
vn 0 1 0
vn 0 1 0
vn 0 1 0
vn 0 1 0
vn 0 1 0
vn 0 1 0
vn 0 1 0
vn 0 1 0
vn 0 1 0
vn 0 1 0
vn 0 1 0
vn 0 1 0
vn 0 1 0
vn 0 1 0
vn 0 1 0
vn 0 1 0
vn 0 1 0
vn 0 1 0
vn 0 1 0
vn 0 1 0
vn 0 1 0
vn 0 1 0
vn 0 1 0
vn 0 1 0
vn 0 1 0
vn 0 1 0
vn 0 1 0
vn 0 1 0
vn 0 1 0
vn 0 1 0
vn 0 1 0
vn 0 1 0
vn 0 1 0
vn 0 1 0
vn 0 1 0
vn 0 1 0
vn 0 1 0
vn 0 1 0
vn 0 1 0
vn 0 1 0
vn 0 1 0
vn 0 1 0
vn 0 1 0
vn 0 1 0
g Grass_0_Cluster276_0
f 2/2/2 3/3/3 1/1/1
f 2/2/2 4/4/4 3/3/3
f 6/6/6 7/7/7 5/5/5
f 6/6/6 8/8/8 7/7/7
f 10/10/10 11/11/11 9/9/9
f 10/10/10 12/12/12 11/11/11
f 14/14/14 15/15/15 13/13/13
f 14/14/14 16/16/16 15/15/15
f 18/18/18 19/19/19 17/17/17
f 18/18/18 20/20/20 19/19/19
f 22/22/22 23/23/23 21/21/21
f 22/22/22 24/24/24 23/23/23
f 26/26/26 27/27/27 25/25/25
f 26/26/26 28/28/28 27/27/27
f 30/30/30 31/31/31 29/29/29
f 30/30/30 32/32/32 31/31/31
f 34/34/34 35/35/35 33/33/33
f 34/34/34 36/36/36 35/35/35
f 38/38/38 39/39/39 37/37/37
f 38/38/38 40/40/40 39/39/39
f 42/42/42 43/43/43 41/41/41
f 42/42/42 44/44/44 43/43/43
f 46/46/46 47/47/47 45/45/45
f 46/46/46 48/48/48 47/47/47
f 50/50/50 51/51/51 49/49/49
f 50/50/50 52/52/52 51/51/51
f 54/54/54 55/55/55 53/53/53
f 54/54/54 56/56/56 55/55/55
f 58/58/58 59/59/59 57/57/57
f 58/58/58 60/60/60 59/59/59
f 62/62/62 63/63/63 61/61/61
f 62/62/62 64/64/64 63/63/63
f 66/66/66 67/67/67 65/65/65
f 66/66/66 68/68/68 67/67/67
f 70/70/70 71/71/71 69/69/69
f 70/70/70 72/72/72 71/71/71
f 74/74/74 75/75/75 73/73/73
f 74/74/74 76/76/76 75/75/75
f 78/78/78 79/79/79 77/77/77
f 78/78/78 80/80/80 79/79/79
f 82/82/82 83/83/83 81/81/81
f 82/82/82 84/84/84 83/83/83
f 86/86/86 87/87/87 85/85/85
f 86/86/86 88/88/88 87/87/87
f 90/90/90 91/91/91 89/89/89
f 90/90/90 92/92/92 91/91/91
f 94/94/94 95/95/95 93/93/93
f 94/94/94 96/96/96 95/95/95
f 98/98/98 99/99/99 97/97/97
f 98/98/98 100/100/100 99/99/99
f 102/102/102 103/103/103 101/101/101
f 102/102/102 104/104/104 103/103/103
f 106/106/106 107/107/107 105/105/105
f 106/106/106 108/108/108 107/107/107
f 110/110/110 111/111/111 109/109/109
f 110/110/110 112/112/112 111/111/111
f 114/114/114 115/115/115 113/113/113
f 114/114/114 116/116/116 115/115/115
f 118/118/118 119/119/119 117/117/117
f 118/118/118 120/120/120 119/119/119
f 122/122/122 123/123/123 121/121/121
f 122/122/122 124/124/124 123/123/123
f 126/126/126 127/127/127 125/125/125
f 126/126/126 128/128/128 127/127/127
f 130/130/130 131/131/131 129/129/129
f 130/130/130 132/132/132 131/131/131
f 134/134/134 135/135/135 133/133/133
f 134/134/134 136/136/136 135/135/135
f 138/138/138 139/139/139 137/137/137
f 138/138/138 140/140/140 139/139/139
f 142/142/142 143/143/143 141/141/141
f 142/142/142 144/144/144 143/143/143
f 146/146/146 147/147/147 145/145/145
f 146/146/146 148/148/148 147/147/147
f 150/150/150 151/151/151 149/149/149
f 150/150/150 152/152/152 151/151/151
f 154/154/154 155/155/155 153/153/153
f 154/154/154 156/156/156 155/155/155
f 158/158/158 159/159/159 157/157/157
f 158/158/158 160/160/160 159/159/159
f 162/162/162 163/163/163 161/161/161
f 162/162/162 164/164/164 163/163/163
f 166/166/166 167/167/167 165/165/165
f 166/166/166 168/168/168 167/167/167
f 170/170/170 171/171/171 169/169/169
f 170/170/170 172/172/172 171/171/171
f 174/174/174 175/175/175 173/173/173
f 174/174/174 176/176/176 175/175/175
f 178/178/178 179/179/179 177/177/177
f 178/178/178 180/180/180 179/179/179
f 182/182/182 183/183/183 181/181/181
f 182/182/182 184/184/184 183/183/183
f 186/186/186 187/187/187 185/185/185
f 186/186/186 188/188/188 187/187/187
f 190/190/190 191/191/191 189/189/189
f 190/190/190 192/192/192 191/191/191
f 194/194/194 195/195/195 193/193/193
f 194/194/194 196/196/196 195/195/195
f 198/198/198 199/199/199 197/197/197
f 198/198/198 200/200/200 199/199/199
f 202/202/202 203/203/203 201/201/201
f 202/202/202 204/204/204 203/203/203
f 206/206/206 207/207/207 205/205/205
f 206/206/206 208/208/208 207/207/207
f 210/210/210 211/211/211 209/209/209
f 210/210/210 212/212/212 211/211/211
f 214/214/214 215/215/215 213/213/213
f 214/214/214 216/216/216 215/215/215
f 218/218/218 219/219/219 217/217/217
f 218/218/218 220/220/220 219/219/219
f 222/222/222 223/223/223 221/221/221
f 222/222/222 224/224/224 223/223/223
f 226/226/226 227/227/227 225/225/225
f 226/226/226 228/228/228 227/227/227
f 230/230/230 231/231/231 229/229/229
f 230/230/230 232/232/232 231/231/231
f 234/234/234 235/235/235 233/233/233
f 234/234/234 236/236/236 235/235/235
f 238/238/238 239/239/239 237/237/237
f 238/238/238 240/240/240 239/239/239
f 242/242/242 243/243/243 241/241/241
f 242/242/242 244/244/244 243/243/243
f 246/246/246 247/247/247 245/245/245
f 246/246/246 248/248/248 247/247/247
