g Grass_0_Cluster338
v -249.5591 0 472.264
v -250.4851 0 472.264
v -249.5591 0 473.653
v -250.4851 0 473.653
v -259.7452 0 472.264
v -260.6712 0 472.264
v -259.7452 0 473.653
v -260.6712 0 473.653
v -249.0961 0 470.875
v -250.0221 0 470.875
v -249.0961 0 471.801
v -250.0221 0 471.801
v -250.9481 0 470.412
v -251.8741 0 470.412
v -250.9481 0 471.801
v -251.8741 0 471.801
v -247.7071 0 468.097
v -248.6331 0 468.097
v -247.7071 0 469.486
v -248.6331 0 469.486
v -260.6712 0 465.3189
v -261.5972 0 465.3189
v -260.6712 0 466.708
v -261.5972 0 466.708
v -245.3921 0 464.856
v -246.3181 0 464.856
v -245.3921 0 466.245
v -246.3181 0 466.245
v -240.299 0 463.9299
v -241.2251 0 463.9299
v -240.299 0 465.3189
v -241.2251 0 465.3189
v -266.2273 0 462.0779
v -267.1533 0 462.0779
v -266.2273 0 463.4669
v -267.1533 0 463.4669
v -262.5232 0 462.0779
v -263.4492 0 462.0779
v -262.5232 0 463.4669
v -263.4492 0 463.4669
v -249.0961 0 462.0779
v -250.0221 0 462.0779
v -249.0961 0 463.0039
v -250.0221 0 463.0039
v -267.1533 0 461.1519
v -268.0793 0 461.1519
v -267.1533 0 462.0779
v -268.0793 0 462.0779
v -262.9862 0 460.6889
v -263.9122 0 460.6889
v -262.9862 0 462.0779
v -263.9122 0 462.0779
v -250.9481 0 459.7629
v -251.8741 0 459.7629
v -250.9481 0 461.1519
v -251.8741 0 461.1519
v -264.8383 0 458.3739
v -265.7643 0 458.3739
v -264.8383 0 459.7629
v -265.7643 0 459.7629
v -250.0221 0 456.9849
v -250.9481 0 456.9849
v -250.0221 0 458.3739
v -250.9481 0 458.3739
v -248.1701 0 453.2809
v -248.6331 0 453.2809
v -248.1701 0 454.6699
v -248.6331 0 454.6699
v -249.0961 0 453.2809
v -250.0221 0 453.2809
v -249.0961 0 454.2068
v -250.0221 0 454.2068
v -269.4683 0 452.8178
v -269.9313 0 452.8178
v -269.4683 0 453.7439
v -269.9313 0 453.7439
v -250.9481 0 452.8178
v -251.8741 0 452.8178
v -250.9481 0 453.7439
v -251.8741 0 453.7439
v -253.2632 0 452.3548
v -254.1892 0 452.3548
v -253.2632 0 453.7439
v -254.1892 0 453.7439
v -250.0221 0 452.3548
v -250.9481 0 452.3548
v -250.0221 0 453.7439
v -250.9481 0 453.7439
v -246.3181 0 452.3548
v -247.2441 0 452.3548
v -246.3181 0 453.2809
v -247.2441 0 453.2809
v -249.0961 0 451.8918
v -250.0221 0 451.8918
v -249.0961 0 453.2809
v -250.0221 0 453.2809
v -243.5401 0 451.8918
v -244.4661 0 451.8918
v -243.5401 0 452.8178
v -244.4661 0 452.8178
v -243.0771 0 451.4288
v -243.5401 0 451.4288
v -243.0771 0 452.3548
v -243.5401 0 452.3548
v -252.8001 0 450.9658
v -253.7262 0 450.9658
v -252.8001 0 452.3548
v -253.7262 0 452.3548
vt 0 0.9058824
vt 0.06666667 0.9058824
vt 0 1
vt 0.06666667 1
vt 0 0.9058824
vt 0.06666667 0.9058824
vt 0 1
vt 0.06666667 1
vt 0 0.9058824
vt 0.06666667 0.9058824
vt 0 1
vt 0.06666667 1
vt 0 0.9058824
vt 0.06666667 0.9058824
vt 0 1
vt 0.06666667 1
vt 0 0.9058824
vt 0.06666667 0.9058824
vt 0 1
vt 0.06666667 1
vt 0 0.9058824
vt 0.06666667 0.9058824
vt 0 1
vt 0.06666667 1
vt 0 0.9058824
vt 0.06666667 0.9058824
vt 0 1
vt 0.06666667 1
vt 0 0.9058824
vt 0.06666667 0.9058824
vt 0 1
vt 0.06666667 1
vt 0 0.9058824
vt 0.06666667 0.9058824
vt 0 1
vt 0.06666667 1
vt 0 0.9058824
vt 0.06666667 0.9058824
vt 0 1
vt 0.06666667 1
vt 0 0.9058824
vt 0.06666667 0.9058824
vt 0 1
vt 0.06666667 1
vt 0 0.9058824
vt 0.06666667 0.9058824
vt 0 1
vt 0.06666667 1
vt 0 0.9058824
vt 0.06666667 0.9058824
vt 0 1
vt 0.06666667 1
vt 0 0.9058824
vt 0.06666667 0.9058824
vt 0 1
vt 0.06666667 1
vt 0 0.9058824
vt 0.06666667 0.9058824
vt 0 1
vt 0.06666667 1
vt 0 0.9058824
vt 0.06666667 0.9058824
vt 0 1
vt 0.06666667 1
vt 0 0.9058824
vt 0.06666667 0.9058824
vt 0 1
vt 0.06666667 1
vt 0 0.9058824
vt 0.06666667 0.9058824
vt 0 1
vt 0.06666667 1
vt 0 0.9058824
vt 0.06666667 0.9058824
vt 0 1
vt 0.06666667 1
vt 0 0.9058824
vt 0.06666667 0.9058824
vt 0 1
vt 0.06666667 1
vt 0 0.9058824
vt 0.06666667 0.9058824
vt 0 1
vt 0.06666667 1
vt 0 0.9058824
vt 0.06666667 0.9058824
vt 0 1
vt 0.06666667 1
vt 0 0.9058824
vt 0.06666667 0.9058824
vt 0 1
vt 0.06666667 1
vt 0 0.9058824
vt 0.06666667 0.9058824
vt 0 1
vt 0.06666667 1
vt 0 0.9058824
vt 0.06666667 0.9058824
vt 0 1
vt 0.06666667 1
vt 0 0.9058824
vt 0.06666667 0.9058824
vt 0 1
vt 0.06666667 1
vt 0 0.9058824
vt 0.06666667 0.9058824
vt 0 1
vt 0.06666667 1
vn 0 1 0
vn 0 1 0
vn 0 1 0
vn 0 1 0
vn 0 1 0
vn 0 1 0
vn 0 1 0
vn 0 1 0
vn 0 1 0
vn 0 1 0
vn 0 1 0
vn 0 1 0
vn 0 1 0
vn 0 1 0
vn 0 1 0
vn 0 1 0
vn 0 1 0
vn 0 1 0
vn 0 1 0
vn 0 1 0
vn 0 1 0
vn 0 1 0
vn 0 1 0
vn 0 1 0
vn 0 1 0
vn 0 1 0
vn 0 1 0
vn 0 1 0
vn 0 1 0
vn 0 1 0
vn 0 1 0
vn 0 1 0
vn 0 1 0
vn 0 1 0
vn 0 1 0
vn 0 1 0
vn 0 1 0
vn 0 1 0
vn 0 1 0
vn 0 1 0
vn 0 1 0
vn 0 1 0
vn 0 1 0
vn 0 1 0
vn 0 1 0
vn 0 1 0
vn 0 1 0
vn 0 1 0
vn 0 1 0
vn 0 1 0
vn 0 1 0
vn 0 1 0
vn 0 1 0
vn 0 1 0
vn 0 1 0
vn 0 1 0
vn 0 1 0
vn 0 1 0
vn 0 1 0
vn 0 1 0
vn 0 1 0
vn 0 1 0
vn 0 1 0
vn 0 1 0
vn 0 1 0
vn 0 1 0
vn 0 1 0
vn 0 1 0
vn 0 1 0
vn 0 1 0
vn 0 1 0
vn 0 1 0
vn 0 1 0
vn 0 1 0
vn 0 1 0
vn 0 1 0
vn 0 1 0
vn 0 1 0
vn 0 1 0
vn 0 1 0
vn 0 1 0
vn 0 1 0
vn 0 1 0
vn 0 1 0
vn 0 1 0
vn 0 1 0
vn 0 1 0
vn 0 1 0
vn 0 1 0
vn 0 1 0
vn 0 1 0
vn 0 1 0
vn 0 1 0
vn 0 1 0
vn 0 1 0
vn 0 1 0
vn 0 1 0
vn 0 1 0
vn 0 1 0
vn 0 1 0
vn 0 1 0
vn 0 1 0
vn 0 1 0
vn 0 1 0
vn 0 1 0
vn 0 1 0
vn 0 1 0
vn 0 1 0
g Grass_0_Cluster338_0
f 2/2/2 3/3/3 1/1/1
f 2/2/2 4/4/4 3/3/3
f 6/6/6 7/7/7 5/5/5
f 6/6/6 8/8/8 7/7/7
f 10/10/10 11/11/11 9/9/9
f 10/10/10 12/12/12 11/11/11
f 14/14/14 15/15/15 13/13/13
f 14/14/14 16/16/16 15/15/15
f 18/18/18 19/19/19 17/17/17
f 18/18/18 20/20/20 19/19/19
f 22/22/22 23/23/23 21/21/21
f 22/22/22 24/24/24 23/23/23
f 26/26/26 27/27/27 25/25/25
f 26/26/26 28/28/28 27/27/27
f 30/30/30 31/31/31 29/29/29
f 30/30/30 32/32/32 31/31/31
f 34/34/34 35/35/35 33/33/33
f 34/34/34 36/36/36 35/35/35
f 38/38/38 39/39/39 37/37/37
f 38/38/38 40/40/40 39/39/39
f 42/42/42 43/43/43 41/41/41
f 42/42/42 44/44/44 43/43/43
f 46/46/46 47/47/47 45/45/45
f 46/46/46 48/48/48 47/47/47
f 50/50/50 51/51/51 49/49/49
f 50/50/50 52/52/52 51/51/51
f 54/54/54 55/55/55 53/53/53
f 54/54/54 56/56/56 55/55/55
f 58/58/58 59/59/59 57/57/57
f 58/58/58 60/60/60 59/59/59
f 62/62/62 63/63/63 61/61/61
f 62/62/62 64/64/64 63/63/63
f 66/66/66 67/67/67 65/65/65
f 66/66/66 68/68/68 67/67/67
f 70/70/70 71/71/71 69/69/69
f 70/70/70 72/72/72 71/71/71
f 74/74/74 75/75/75 73/73/73
f 74/74/74 76/76/76 75/75/75
f 78/78/78 79/79/79 77/77/77
f 78/78/78 80/80/80 79/79/79
f 82/82/82 83/83/83 81/81/81
f 82/82/82 84/84/84 83/83/83
f 86/86/86 87/87/87 85/85/85
f 86/86/86 88/88/88 87/87/87
f 90/90/90 91/91/91 89/89/89
f 90/90/90 92/92/92 91/91/91
f 94/94/94 95/95/95 93/93/93
f 94/94/94 96/96/96 95/95/95
f 98/98/98 99/99/99 97/97/97
f 98/98/98 100/100/100 99/99/99
f 102/102/102 103/103/103 101/101/101
f 102/102/102 104/104/104 103/103/103
f 106/106/106 107/107/107 105/105/105
f 106/106/106 108/108/108 107/107/107
