g Grass_1_Cluster240
v 278.2933 0.2972717 348.068
v 277.67 0.2972717 348.068
v 278.2933 0.2972717 348.6913
v 277.67 0.2972717 348.6913
v 277.67 0.2972717 346.8215
v 276.4235 0.2972717 346.8215
v 277.67 0.2972717 347.4448
v 276.4235 0.2972717 347.4448
v 276.4235 0.2972717 344.9518
v 275.8003 0.2972717 344.9518
v 276.4235 0.2972717 346.1983
v 275.8003 0.2972717 346.1983
v 277.67 0.2972717 344.9518
v 276.4235 0.2972717 344.9518
v 277.67 0.2972717 345.575
v 276.4235 0.2972717 345.575
v 275.8003 0.2972717 342.4588
v 274.5538 0.2972717 342.4588
v 275.8003 0.2972717 343.082
v 274.5538 0.2972717 343.082
v 276.4235 0.2972717 333.7334
v 275.8003 0.2972717 333.7334
v 276.4235 0.2972717 334.3566
v 275.8003 0.2972717 334.3566
v 277.0468 0.2972717 333.1102
v 276.4235 0.2972717 333.1102
v 277.0468 0.2972717 333.7334
v 276.4235 0.2972717 333.7334
v 285.7722 0.2972717 332.4869
v 284.5257 0.2972717 332.4869
v 285.7722 0.2972717 333.1102
v 284.5257 0.2972717 333.1102
v 273.9305 0.2972717 331.8636
v 273.3073 0.2972717 331.8636
v 273.9305 0.2972717 333.1102
v 273.3073 0.2972717 333.1102
v 275.8003 0.2972717 331.8636
v 275.177 0.2972717 331.8636
v 275.8003 0.2972717 332.4869
v 275.177 0.2972717 332.4869
v 287.0187 0.2972717 331.8636
v 286.3954 0.2972717 331.8636
v 287.0187 0.2972717 332.4869
v 286.3954 0.2972717 332.4869
v 282.0327 0.2972717 331.2404
v 280.7863 0.2972717 331.2404
v 282.0327 0.2972717 332.4869
v 280.7863 0.2972717 332.4869
v 283.9025 0.2972717 330.6172
v 283.2792 0.2972717 330.6172
v 283.9025 0.2972717 331.8636
v 283.2792 0.2972717 331.8636
v 277.67 0.2972717 330.6172
v 277.0468 0.2972717 330.6172
v 277.67 0.2972717 331.8636
v 277.0468 0.2972717 331.8636
v 275.177 0.2972717 330.6172
v 274.5538 0.2972717 330.6172
v 275.177 0.2972717 331.2404
v 274.5538 0.2972717 331.2404
v 288.8884 0.2972717 330.6172
v 288.2652 0.2972717 330.6172
v 288.8884 0.2972717 331.2404
v 288.2652 0.2972717 331.2404
v 278.9165 0.2972717 329.3707
v 278.2933 0.2972717 329.3707
v 278.9165 0.2972717 330.6172
v 278.2933 0.2972717 330.6172
v 280.7863 0.2972717 329.3707
v 280.163 0.2972717 329.3707
v 280.7863 0.2972717 329.9939
v 280.163 0.2972717 329.9939
v 285.149 0.2972717 329.3707
v 283.9025 0.2972717 329.3707
v 285.149 0.2972717 329.9939
v 283.9025 0.2972717 329.9939
v 272.6841 0.2972717 328.7474
v 272.0608 0.2972717 328.7474
v 272.6841 0.2972717 329.9939
v 272.0608 0.2972717 329.9939
v 283.2792 0.2972717 328.7474
v 282.656 0.2972717 328.7474
v 283.2792 0.2972717 329.3707
v 282.656 0.2972717 329.3707
v 275.8003 0.2972717 328.7474
v 274.5538 0.2972717 328.7474
v 275.8003 0.2972717 329.3707
v 274.5538 0.2972717 329.3707
v 274.5538 0.2972717 328.1242
v 273.9305 0.2972717 328.1242
v 274.5538 0.2972717 328.7474
v 273.9305 0.2972717 328.7474
v 282.0327 0.2972717 326.8777
v 280.7863 0.2972717 326.8777
v 282.0327 0.2972717 328.1242
v 280.7863 0.2972717 328.1242
v 276.4235 0.2972717 326.8777
v 275.177 0.2972717 326.8777
v 276.4235 0.2972717 327.5009
v 275.177 0.2972717 327.5009
vt 0.06738281 0.9369141
vt 0.1331457 0.9369141
vt 0.06738281 0.9990234
vt 0.1331457 0.9990234
vt 0.06738281 0.9369141
vt 0.1331457 0.9369141
vt 0.06738281 0.9990234
vt 0.1331457 0.9990234
vt 0.06738281 0.9369141
vt 0.1331457 0.9369141
vt 0.06738281 0.9990234
vt 0.1331457 0.9990234
vt 0.06738281 0.9369141
vt 0.1331457 0.9369141
vt 0.06738281 0.9990234
vt 0.1331457 0.9990234
vt 0.06738281 0.9369141
vt 0.1331457 0.9369141
vt 0.06738281 0.9990234
vt 0.1331457 0.9990234
vt 0.06738281 0.9369141
vt 0.1331457 0.9369141
vt 0.06738281 0.9990234
vt 0.1331457 0.9990234
vt 0.06738281 0.9369141
vt 0.1331457 0.9369141
vt 0.06738281 0.9990234
vt 0.1331457 0.9990234
vt 0.06738281 0.9369141
vt 0.1331457 0.9369141
vt 0.06738281 0.9990234
vt 0.1331457 0.9990234
vt 0.06738281 0.9369141
vt 0.1331457 0.9369141
vt 0.06738281 0.9990234
vt 0.1331457 0.9990234
vt 0.06738281 0.9369141
vt 0.1331457 0.9369141
vt 0.06738281 0.9990234
vt 0.1331457 0.9990234
vt 0.06738281 0.9369141
vt 0.1331457 0.9369141
vt 0.06738281 0.9990234
vt 0.1331457 0.9990234
vt 0.06738281 0.9369141
vt 0.1331457 0.9369141
vt 0.06738281 0.9990234
vt 0.1331457 0.9990234
vt 0.06738281 0.9369141
vt 0.1331457 0.9369141
vt 0.06738281 0.9990234
vt 0.1331457 0.9990234
vt 0.06738281 0.9369141
vt 0.1331457 0.9369141
vt 0.06738281 0.9990234
vt 0.1331457 0.9990234
vt 0.06738281 0.9369141
vt 0.1331457 0.9369141
vt 0.06738281 0.9990234
vt 0.1331457 0.9990234
vt 0.06738281 0.9369141
vt 0.1331457 0.9369141
vt 0.06738281 0.9990234
vt 0.1331457 0.9990234
vt 0.06738281 0.9369141
vt 0.1331457 0.9369141
vt 0.06738281 0.9990234
vt 0.1331457 0.9990234
vt 0.06738281 0.9369141
vt 0.1331457 0.9369141
vt 0.06738281 0.9990234
vt 0.1331457 0.9990234
vt 0.06738281 0.9369141
vt 0.1331457 0.9369141
vt 0.06738281 0.9990234
vt 0.1331457 0.9990234
vt 0.06738281 0.9369141
vt 0.1331457 0.9369141
vt 0.06738281 0.9990234
vt 0.1331457 0.9990234
vt 0.06738281 0.9369141
vt 0.1331457 0.9369141
vt 0.06738281 0.9990234
vt 0.1331457 0.9990234
vt 0.06738281 0.9369141
vt 0.1331457 0.9369141
vt 0.06738281 0.9990234
vt 0.1331457 0.9990234
vt 0.06738281 0.9369141
vt 0.1331457 0.9369141
vt 0.06738281 0.9990234
vt 0.1331457 0.9990234
vt 0.06738281 0.9369141
vt 0.1331457 0.9369141
vt 0.06738281 0.9990234
vt 0.1331457 0.9990234
vt 0.06738281 0.9369141
vt 0.1331457 0.9369141
vt 0.06738281 0.9990234
vt 0.1331457 0.9990234
vn 0 1 0
vn 0 1 0
vn 0 1 0
vn 0 1 0
vn 0 1 0
vn 0 1 0
vn 0 1 0
vn 0 1 0
vn 0 1 0
vn 0 1 0
vn 0 1 0
vn 0 1 0
vn 0 1 0
vn 0 1 0
vn 0 1 0
vn 0 1 0
vn 0 1 0
vn 0 1 0
vn 0 1 0
vn 0 1 0
vn 0 1 0
vn 0 1 0
vn 0 1 0
vn 0 1 0
vn 0 1 0
vn 0 1 0
vn 0 1 0
vn 0 1 0
vn 0 1 0
vn 0 1 0
vn 0 1 0
vn 0 1 0
vn 0 1 0
vn 0 1 0
vn 0 1 0
vn 0 1 0
vn 0 1 0
vn 0 1 0
vn 0 1 0
vn 0 1 0
vn 0 1 0
vn 0 1 0
vn 0 1 0
vn 0 1 0
vn 0 1 0
vn 0 1 0
vn 0 1 0
vn 0 1 0
vn 0 1 0
vn 0 1 0
vn 0 1 0
vn 0 1 0
vn 0 1 0
vn 0 1 0
vn 0 1 0
vn 0 1 0
vn 0 1 0
vn 0 1 0
vn 0 1 0
vn 0 1 0
vn 0 1 0
vn 0 1 0
vn 0 1 0
vn 0 1 0
vn 0 1 0
vn 0 1 0
vn 0 1 0
vn 0 1 0
vn 0 1 0
vn 0 1 0
vn 0 1 0
vn 0 1 0
vn 0 1 0
vn 0 1 0
vn 0 1 0
vn 0 1 0
vn 0 1 0
vn 0 1 0
vn 0 1 0
vn 0 1 0
vn 0 1 0
vn 0 1 0
vn 0 1 0
vn 0 1 0
vn 0 1 0
vn 0 1 0
vn 0 1 0
vn 0 1 0
vn 0 1 0
vn 0 1 0
vn 0 1 0
vn 0 1 0
vn 0 1 0
vn 0 1 0
vn 0 1 0
vn 0 1 0
vn 0 1 0
vn 0 1 0
vn 0 1 0
vn 0 1 0
g Grass_1_Cluster240_0
f 2/2/2 3/3/3 1/1/1
f 2/2/2 4/4/4 3/3/3
f 6/6/6 7/7/7 5/5/5
f 6/6/6 8/8/8 7/7/7
f 10/10/10 11/11/11 9/9/9
f 10/10/10 12/12/12 11/11/11
f 14/14/14 15/15/15 13/13/13
f 14/14/14 16/16/16 15/15/15
f 18/18/18 19/19/19 17/17/17
f 18/18/18 20/20/20 19/19/19
f 22/22/22 23/23/23 21/21/21
f 22/22/22 24/24/24 23/23/23
f 26/26/26 27/27/27 25/25/25
f 26/26/26 28/28/28 27/27/27
f 30/30/30 31/31/31 29/29/29
f 30/30/30 32/32/32 31/31/31
f 34/34/34 35/35/35 33/33/33
f 34/34/34 36/36/36 35/35/35
f 38/38/38 39/39/39 37/37/37
f 38/38/38 40/40/40 39/39/39
f 42/42/42 43/43/43 41/41/41
f 42/42/42 44/44/44 43/43/43
f 46/46/46 47/47/47 45/45/45
f 46/46/46 48/48/48 47/47/47
f 50/50/50 51/51/51 49/49/49
f 50/50/50 52/52/52 51/51/51
f 54/54/54 55/55/55 53/53/53
f 54/54/54 56/56/56 55/55/55
f 58/58/58 59/59/59 57/57/57
f 58/58/58 60/60/60 59/59/59
f 62/62/62 63/63/63 61/61/61
f 62/62/62 64/64/64 63/63/63
f 66/66/66 67/67/67 65/65/65
f 66/66/66 68/68/68 67/67/67
f 70/70/70 71/71/71 69/69/69
f 70/70/70 72/72/72 71/71/71
f 74/74/74 75/75/75 73/73/73
f 74/74/74 76/76/76 75/75/75
f 78/78/78 79/79/79 77/77/77
f 78/78/78 80/80/80 79/79/79
f 82/82/82 83/83/83 81/81/81
f 82/82/82 84/84/84 83/83/83
f 86/86/86 87/87/87 85/85/85
f 86/86/86 88/88/88 87/87/87
f 90/90/90 91/91/91 89/89/89
f 90/90/90 92/92/92 91/91/91
f 94/94/94 95/95/95 93/93/93
f 94/94/94 96/96/96 95/95/95
f 98/98/98 99/99/99 97/97/97
f 98/98/98 100/100/100 99/99/99
