g Grass_1_Cluster269
v 26.77127 0.175293 376.6346
v 25.97873 0.175293 376.6346
v 26.77127 0.175293 377.4272
v 25.97873 0.175293 377.4272
v 27.96009 0.175293 375.8421
v 27.16755 0.175293 375.8421
v 27.96009 0.175293 376.6346
v 27.16755 0.175293 376.6346
v 8.146441 0.175293 375.0496
v 7.353895 0.175293 375.0496
v 8.146441 0.175293 375.8421
v 7.353895 0.175293 375.8421
v 8.146441 0.175293 371.0868
v 7.353895 0.175293 371.0868
v 8.146441 0.175293 371.8794
v 7.353895 0.175293 371.8794
vt 0.06738281 0.9369141
vt 0.1331457 0.9369141
vt 0.06738281 0.9990234
vt 0.1331457 0.9990234
vt 0.06738281 0.9369141
vt 0.1331457 0.9369141
vt 0.06738281 0.9990234
vt 0.1331457 0.9990234
vt 0.06738281 0.9369141
vt 0.1331457 0.9369141
vt 0.06738281 0.9990234
vt 0.1331457 0.9990234
vt 0.06738281 0.9369141
vt 0.1331457 0.9369141
vt 0.06738281 0.9990234
vt 0.1331457 0.9990234
vn 0 1 0
vn 0 1 0
vn 0 1 0
vn 0 1 0
vn 0 1 0
vn 0 1 0
vn 0 1 0
vn 0 1 0
vn 0 1 0
vn 0 1 0
vn 0 1 0
vn 0 1 0
vn 0 1 0
vn 0 1 0
vn 0 1 0
vn 0 1 0
g Grass_1_Cluster269_0
f 2/2/2 3/3/3 1/1/1
f 2/2/2 4/4/4 3/3/3
f 6/6/6 7/7/7 5/5/5
f 6/6/6 8/8/8 7/7/7
f 10/10/10 11/11/11 9/9/9
f 10/10/10 12/12/12 11/11/11
f 14/14/14 15/15/15 13/13/13
f 14/14/14 16/16/16 15/15/15
