g Grass_2_Cluster258
v -250.7562 0 347.5154
v -251.7783 0 347.5154
v -250.7562 0 348.5375
v -251.7783 0 348.5375
v -251.7783 0 345.8119
v -252.8004 0 345.8119
v -251.7783 0 346.834
v -252.8004 0 346.834
v -251.0969 0 345.4712
v -252.119 0 345.4712
v -251.0969 0 346.4933
v -252.119 0 346.4933
v -249.7341 0 345.1305
v -250.7562 0 345.1305
v -249.7341 0 346.4933
v -250.7562 0 346.4933
v -248.712 0 344.7898
v -249.7341 0 344.7898
v -248.712 0 346.1526
v -249.7341 0 346.1526
v -248.0306 0 344.7898
v -248.712 0 344.7898
v -248.0306 0 345.8119
v -248.712 0 345.8119
v -248.3713 0 344.7898
v -249.3934 0 344.7898
v -248.3713 0 346.1526
v -249.3934 0 346.1526
v -254.5039 0 344.4491
v -255.526 0 344.4491
v -254.5039 0 345.4712
v -255.526 0 345.4712
v -247.0085 0 344.1084
v -248.0306 0 344.1084
v -247.0085 0 345.4712
v -248.0306 0 345.4712
v -251.0969 0 344.1084
v -251.7783 0 344.1084
v -251.0969 0 345.4712
v -251.7783 0 345.4712
v -253.1411 0 344.1084
v -254.1632 0 344.1084
v -253.1411 0 345.1305
v -254.1632 0 345.1305
v -250.0748 0 343.7677
v -251.0969 0 343.7677
v -250.0748 0 345.1305
v -251.0969 0 345.1305
v -244.6236 0 343.7677
v -245.6457 0 343.7677
v -244.6236 0 344.7898
v -245.6457 0 344.7898
v -246.3271 0 343.0863
v -247.3492 0 343.0863
v -246.3271 0 344.4491
v -247.3492 0 344.4491
v -246.6678 0 342.7456
v -247.6899 0 342.7456
v -246.6678 0 343.7677
v -247.6899 0 343.7677
v -247.6899 0 342.0642
v -248.712 0 342.0642
v -247.6899 0 343.0863
v -248.712 0 343.0863
v -246.6678 0 341.7235
v -247.6899 0 341.7235
v -246.6678 0 343.0863
v -247.6899 0 343.0863
v -245.305 0 341.7235
v -246.3271 0 341.7235
v -245.305 0 342.7456
v -246.3271 0 342.7456
v -244.2829 0 340.7014
v -244.9643 0 340.7014
v -244.2829 0 341.7235
v -244.9643 0 341.7235
v -244.9643 0 339.6793
v -245.9864 0 339.6793
v -244.9643 0 341.0421
v -245.9864 0 341.0421
v -242.9201 0 338.9979
v -243.9422 0 338.9979
v -242.9201 0 340.3607
v -243.9422 0 340.3607
v -243.6015 0 338.9979
v -244.2829 0 338.9979
v -243.6015 0 340.02
v -244.2829 0 340.02
v -243.2608 0 337.9758
v -244.2829 0 337.9758
v -243.2608 0 338.9979
v -244.2829 0 338.9979
v -240.1945 0 336.613
v -240.8759 0 336.613
v -240.1945 0 337.6351
v -240.8759 0 337.6351
v -242.2387 0 335.9316
v -243.2608 0 335.9316
v -242.2387 0 336.9537
v -243.2608 0 336.9537
v -254.1632 0 331.1617
v -255.1853 0 331.1617
v -254.1632 0 332.1839
v -255.1853 0 332.1839
v -254.5039 0 330.4803
v -255.526 0 330.4803
v -254.5039 0 331.5025
v -255.526 0 331.5025
v -256.5482 0 330.1396
v -257.5703 0 330.1396
v -256.5482 0 331.5025
v -257.5703 0 331.5025
v -253.1411 0 329.799
v -254.1632 0 329.799
v -253.1411 0 330.821
v -254.1632 0 330.821
v -256.2075 0 329.799
v -257.2296 0 329.799
v -256.2075 0 330.821
v -257.2296 0 330.821
v -254.8447 0 329.1176
v -255.8667 0 329.1176
v -254.8447 0 330.1396
v -255.8667 0 330.1396
v -255.1853 0 328.4362
v -256.2075 0 328.4362
v -255.1853 0 329.4583
v -256.2075 0 329.4583
v -254.1632 0 328.4362
v -255.1853 0 328.4362
v -254.1632 0 329.4583
v -255.1853 0 329.4583
v -252.119 0 328.0954
v -253.1411 0 328.0954
v -252.119 0 329.4583
v -253.1411 0 329.4583
v -252.8004 0 328.0954
v -253.8225 0 328.0954
v -252.8004 0 329.4583
v -253.8225 0 329.4583
v -255.1853 0 328.0954
v -255.8667 0 328.0954
v -255.1853 0 329.1176
v -255.8667 0 329.1176
v -240.1945 0 327.7547
v -241.2166 0 327.7547
v -240.1945 0 328.7769
v -241.2166 0 328.7769
v -252.119 0 327.414
v -253.1411 0 327.414
v -252.119 0 328.7769
v -253.1411 0 328.7769
v -253.4818 0 327.414
v -254.5039 0 327.414
v -253.4818 0 328.4362
v -254.5039 0 328.4362
v -266.7692 0 327.0733
v -267.7913 0 327.0733
v -266.7692 0 328.0954
v -267.7913 0 328.0954
v -249.3934 0 327.0733
v -250.4155 0 327.0733
v -249.3934 0 328.0954
v -250.4155 0 328.0954
v -255.8667 0 326.7326
v -256.5482 0 326.7326
v -255.8667 0 327.7547
v -256.5482 0 327.7547
v -266.4285 0 326.3919
v -267.4506 0 326.3919
v -266.4285 0 327.7547
v -267.4506 0 327.7547
v -251.7783 0 326.3919
v -252.8004 0 326.3919
v -251.7783 0 327.7547
v -252.8004 0 327.7547
v -254.8447 0 326.3919
v -255.8667 0 326.3919
v -254.8447 0 327.414
v -255.8667 0 327.414
v -248.712 0 326.3919
v -249.3934 0 326.3919
v -248.712 0 327.414
v -249.3934 0 327.414
v -268.132 0 326.3919
v -269.1541 0 326.3919
v -268.132 0 327.414
v -269.1541 0 327.414
v -253.4818 0 326.0512
v -254.5039 0 326.0512
v -253.4818 0 327.0733
v -254.5039 0 327.0733
v -250.7562 0 326.0512
v -251.7783 0 326.0512
v -250.7562 0 327.0733
v -251.7783 0 327.0733
v -249.0527 0 325.7105
v -250.0748 0 325.7105
v -249.0527 0 327.0733
v -250.0748 0 327.0733
v -267.1099 0 325.7105
v -268.132 0 325.7105
v -267.1099 0 326.7326
v -268.132 0 326.7326
v -269.1541 0 325.7105
v -270.1762 0 325.7105
v -269.1541 0 326.7326
v -270.1762 0 326.7326
v -252.119 0 325.7105
v -252.8004 0 325.7105
v -252.119 0 326.7326
v -252.8004 0 326.7326
v -251.0969 0 325.0291
v -252.119 0 325.0291
v -251.0969 0 326.3919
v -252.119 0 326.3919
v -254.5039 0 325.0291
v -255.526 0 325.0291
v -254.5039 0 326.0512
v -255.526 0 326.0512
v -267.4506 0 325.0291
v -268.4727 0 325.0291
v -267.4506 0 326.0512
v -268.4727 0 326.0512
v -249.0527 0 324.6884
v -250.0748 0 324.6884
v -249.0527 0 325.7105
v -250.0748 0 325.7105
v -267.7913 0 324.6884
v -268.8134 0 324.6884
v -267.7913 0 325.7105
v -268.8134 0 325.7105
v -252.4597 0 324.3477
v -253.4818 0 324.3477
v -252.4597 0 325.3698
v -253.4818 0 325.3698
v -268.8134 0 324.007
v -269.8355 0 324.007
v -268.8134 0 325.3698
v -269.8355 0 325.3698
v -248.3713 0 324.007
v -249.3934 0 324.007
v -248.3713 0 325.0291
v -249.3934 0 325.0291
v -247.0085 0 324.007
v -248.0306 0 324.007
v -247.0085 0 325.0291
v -248.0306 0 325.0291
v -249.7341 0 323.6663
v -250.7562 0 323.6663
v -249.7341 0 324.6884
v -250.7562 0 324.6884
vt 0.1347656 0.9185662
vt 0.2060202 0.9185662
vt 0.1347656 1
vt 0.2060202 1
vt 0.1347656 0.9185662
vt 0.2060202 0.9185662
vt 0.1347656 1
vt 0.2060202 1
vt 0.1347656 0.9185662
vt 0.2060202 0.9185662
vt 0.1347656 1
vt 0.2060202 1
vt 0.1347656 0.9185662
vt 0.2060202 0.9185662
vt 0.1347656 1
vt 0.2060202 1
vt 0.1347656 0.9185662
vt 0.2060202 0.9185662
vt 0.1347656 1
vt 0.2060202 1
vt 0.1347656 0.9185662
vt 0.2060202 0.9185662
vt 0.1347656 1
vt 0.2060202 1
vt 0.1347656 0.9185662
vt 0.2060202 0.9185662
vt 0.1347656 1
vt 0.2060202 1
vt 0.1347656 0.9185662
vt 0.2060202 0.9185662
vt 0.1347656 1
vt 0.2060202 1
vt 0.1347656 0.9185662
vt 0.2060202 0.9185662
vt 0.1347656 1
vt 0.2060202 1
vt 0.1347656 0.9185662
vt 0.2060202 0.9185662
vt 0.1347656 1
vt 0.2060202 1
vt 0.1347656 0.9185662
vt 0.2060202 0.9185662
vt 0.1347656 1
vt 0.2060202 1
vt 0.1347656 0.9185662
vt 0.2060202 0.9185662
vt 0.1347656 1
vt 0.2060202 1
vt 0.1347656 0.9185662
vt 0.2060202 0.9185662
vt 0.1347656 1
vt 0.2060202 1
vt 0.1347656 0.9185662
vt 0.2060202 0.9185662
vt 0.1347656 1
vt 0.2060202 1
vt 0.1347656 0.9185662
vt 0.2060202 0.9185662
vt 0.1347656 1
vt 0.2060202 1
vt 0.1347656 0.9185662
vt 0.2060202 0.9185662
vt 0.1347656 1
vt 0.2060202 1
vt 0.1347656 0.9185662
vt 0.2060202 0.9185662
vt 0.1347656 1
vt 0.2060202 1
vt 0.1347656 0.9185662
vt 0.2060202 0.9185662
vt 0.1347656 1
vt 0.2060202 1
vt 0.1347656 0.9185662
vt 0.2060202 0.9185662
vt 0.1347656 1
vt 0.2060202 1
vt 0.1347656 0.9185662
vt 0.2060202 0.9185662
vt 0.1347656 1
vt 0.2060202 1
vt 0.1347656 0.9185662
vt 0.2060202 0.9185662
vt 0.1347656 1
vt 0.2060202 1
vt 0.1347656 0.9185662
vt 0.2060202 0.9185662
vt 0.1347656 1
vt 0.2060202 1
vt 0.1347656 0.9185662
vt 0.2060202 0.9185662
vt 0.1347656 1
vt 0.2060202 1
vt 0.1347656 0.9185662
vt 0.2060202 0.9185662
vt 0.1347656 1
vt 0.2060202 1
vt 0.1347656 0.9185662
vt 0.2060202 0.9185662
vt 0.1347656 1
vt 0.2060202 1
vt 0.1347656 0.9185662
vt 0.2060202 0.9185662
vt 0.1347656 1
vt 0.2060202 1
vt 0.1347656 0.9185662
vt 0.2060202 0.9185662
vt 0.1347656 1
vt 0.2060202 1
vt 0.1347656 0.9185662
vt 0.2060202 0.9185662
vt 0.1347656 1
vt 0.2060202 1
vt 0.1347656 0.9185662
vt 0.2060202 0.9185662
vt 0.1347656 1
vt 0.2060202 1
vt 0.1347656 0.9185662
vt 0.2060202 0.9185662
vt 0.1347656 1
vt 0.2060202 1
vt 0.1347656 0.9185662
vt 0.2060202 0.9185662
vt 0.1347656 1
vt 0.2060202 1
vt 0.1347656 0.9185662
vt 0.2060202 0.9185662
vt 0.1347656 1
vt 0.2060202 1
vt 0.1347656 0.9185662
vt 0.2060202 0.9185662
vt 0.1347656 1
vt 0.2060202 1
vt 0.1347656 0.9185662
vt 0.2060202 0.9185662
vt 0.1347656 1
vt 0.2060202 1
vt 0.1347656 0.9185662
vt 0.2060202 0.9185662
vt 0.1347656 1
vt 0.2060202 1
vt 0.1347656 0.9185662
vt 0.2060202 0.9185662
vt 0.1347656 1
vt 0.2060202 1
vt 0.1347656 0.9185662
vt 0.2060202 0.9185662
vt 0.1347656 1
vt 0.2060202 1
vt 0.1347656 0.9185662
vt 0.2060202 0.9185662
vt 0.1347656 1
vt 0.2060202 1
vt 0.1347656 0.9185662
vt 0.2060202 0.9185662
vt 0.1347656 1
vt 0.2060202 1
vt 0.1347656 0.9185662
vt 0.2060202 0.9185662
vt 0.1347656 1
vt 0.2060202 1
vt 0.1347656 0.9185662
vt 0.2060202 0.9185662
vt 0.1347656 1
vt 0.2060202 1
vt 0.1347656 0.9185662
vt 0.2060202 0.9185662
vt 0.1347656 1
vt 0.2060202 1
vt 0.1347656 0.9185662
vt 0.2060202 0.9185662
vt 0.1347656 1
vt 0.2060202 1
vt 0.1347656 0.9185662
vt 0.2060202 0.9185662
vt 0.1347656 1
vt 0.2060202 1
vt 0.1347656 0.9185662
vt 0.2060202 0.9185662
vt 0.1347656 1
vt 0.2060202 1
vt 0.1347656 0.9185662
vt 0.2060202 0.9185662
vt 0.1347656 1
vt 0.2060202 1
vt 0.1347656 0.9185662
vt 0.2060202 0.9185662
vt 0.1347656 1
vt 0.2060202 1
vt 0.1347656 0.9185662
vt 0.2060202 0.9185662
vt 0.1347656 1
vt 0.2060202 1
vt 0.1347656 0.9185662
vt 0.2060202 0.9185662
vt 0.1347656 1
vt 0.2060202 1
vt 0.1347656 0.9185662
vt 0.2060202 0.9185662
vt 0.1347656 1
vt 0.2060202 1
vt 0.1347656 0.9185662
vt 0.2060202 0.9185662
vt 0.1347656 1
vt 0.2060202 1
vt 0.1347656 0.9185662
vt 0.2060202 0.9185662
vt 0.1347656 1
vt 0.2060202 1
vt 0.1347656 0.9185662
vt 0.2060202 0.9185662
vt 0.1347656 1
vt 0.2060202 1
vt 0.1347656 0.9185662
vt 0.2060202 0.9185662
vt 0.1347656 1
vt 0.2060202 1
vt 0.1347656 0.9185662
vt 0.2060202 0.9185662
vt 0.1347656 1
vt 0.2060202 1
vt 0.1347656 0.9185662
vt 0.2060202 0.9185662
vt 0.1347656 1
vt 0.2060202 1
vt 0.1347656 0.9185662
vt 0.2060202 0.9185662
vt 0.1347656 1
vt 0.2060202 1
vt 0.1347656 0.9185662
vt 0.2060202 0.9185662
vt 0.1347656 1
vt 0.2060202 1
vt 0.1347656 0.9185662
vt 0.2060202 0.9185662
vt 0.1347656 1
vt 0.2060202 1
vt 0.1347656 0.9185662
vt 0.2060202 0.9185662
vt 0.1347656 1
vt 0.2060202 1
vt 0.1347656 0.9185662
vt 0.2060202 0.9185662
vt 0.1347656 1
vt 0.2060202 1
vt 0.1347656 0.9185662
vt 0.2060202 0.9185662
vt 0.1347656 1
vt 0.2060202 1
vt 0.1347656 0.9185662
vt 0.2060202 0.9185662
vt 0.1347656 1
vt 0.2060202 1
vn 0 1 0
vn 0 1 0
vn 0 1 0
vn 0 1 0
vn 0 1 0
vn 0 1 0
vn 0 1 0
vn 0 1 0
vn 0 1 0
vn 0 1 0
vn 0 1 0
vn 0 1 0
vn 0 1 0
vn 0 1 0
vn 0 1 0
vn 0 1 0
vn 0 1 0
vn 0 1 0
vn 0 1 0
vn 0 1 0
vn 0 1 0
vn 0 1 0
vn 0 1 0
vn 0 1 0
vn 0 1 0
vn 0 1 0
vn 0 1 0
vn 0 1 0
vn 0 1 0
vn 0 1 0
vn 0 1 0
vn 0 1 0
vn 0 1 0
vn 0 1 0
vn 0 1 0
vn 0 1 0
vn 0 1 0
vn 0 1 0
vn 0 1 0
vn 0 1 0
vn 0 1 0
vn 0 1 0
vn 0 1 0
vn 0 1 0
vn 0 1 0
vn 0 1 0
vn 0 1 0
vn 0 1 0
vn 0 1 0
vn 0 1 0
vn 0 1 0
vn 0 1 0
vn 0 1 0
vn 0 1 0
vn 0 1 0
vn 0 1 0
vn 0 1 0
vn 0 1 0
vn 0 1 0
vn 0 1 0
vn 0 1 0
vn 0 1 0
vn 0 1 0
vn 0 1 0
vn 0 1 0
vn 0 1 0
vn 0 1 0
vn 0 1 0
vn 0 1 0
vn 0 1 0
vn 0 1 0
vn 0 1 0
vn 0 1 0
vn 0 1 0
vn 0 1 0
vn 0 1 0
vn 0 1 0
vn 0 1 0
vn 0 1 0
vn 0 1 0
vn 0 1 0
vn 0 1 0
vn 0 1 0
vn 0 1 0
vn 0 1 0
vn 0 1 0
vn 0 1 0
vn 0 1 0
vn 0 1 0
vn 0 1 0
vn 0 1 0
vn 0 1 0
vn 0 1 0
vn 0 1 0
vn 0 1 0
vn 0 1 0
vn 0 1 0
vn 0 1 0
vn 0 1 0
vn 0 1 0
vn 0 1 0
vn 0 1 0
vn 0 1 0
vn 0 1 0
vn 0 1 0
vn 0 1 0
vn 0 1 0
vn 0 1 0
vn 0 1 0
vn 0 1 0
vn 0 1 0
vn 0 1 0
vn 0 1 0
vn 0 1 0
vn 0 1 0
vn 0 1 0
vn 0 1 0
vn 0 1 0
vn 0 1 0
vn 0 1 0
vn 0 1 0
vn 0 1 0
vn 0 1 0
vn 0 1 0
vn 0 1 0
vn 0 1 0
vn 0 1 0
vn 0 1 0
vn 0 1 0
vn 0 1 0
vn 0 1 0
vn 0 1 0
vn 0 1 0
vn 0 1 0
vn 0 1 0
vn 0 1 0
vn 0 1 0
vn 0 1 0
vn 0 1 0
vn 0 1 0
vn 0 1 0
vn 0 1 0
vn 0 1 0
vn 0 1 0
vn 0 1 0
vn 0 1 0
vn 0 1 0
vn 0 1 0
vn 0 1 0
vn 0 1 0
vn 0 1 0
vn 0 1 0
vn 0 1 0
vn 0 1 0
vn 0 1 0
vn 0 1 0
vn 0 1 0
vn 0 1 0
vn 0 1 0
vn 0 1 0
vn 0 1 0
vn 0 1 0
vn 0 1 0
vn 0 1 0
vn 0 1 0
vn 0 1 0
vn 0 1 0
vn 0 1 0
vn 0 1 0
vn 0 1 0
vn 0 1 0
vn 0 1 0
vn 0 1 0
vn 0 1 0
vn 0 1 0
vn 0 1 0
vn 0 1 0
vn 0 1 0
vn 0 1 0
vn 0 1 0
vn 0 1 0
vn 0 1 0
vn 0 1 0
vn 0 1 0
vn 0 1 0
vn 0 1 0
vn 0 1 0
vn 0 1 0
vn 0 1 0
vn 0 1 0
vn 0 1 0
vn 0 1 0
vn 0 1 0
vn 0 1 0
vn 0 1 0
vn 0 1 0
vn 0 1 0
vn 0 1 0
vn 0 1 0
vn 0 1 0
vn 0 1 0
vn 0 1 0
vn 0 1 0
vn 0 1 0
vn 0 1 0
vn 0 1 0
vn 0 1 0
vn 0 1 0
vn 0 1 0
vn 0 1 0
vn 0 1 0
vn 0 1 0
vn 0 1 0
vn 0 1 0
vn 0 1 0
vn 0 1 0
vn 0 1 0
vn 0 1 0
vn 0 1 0
vn 0 1 0
vn 0 1 0
vn 0 1 0
vn 0 1 0
vn 0 1 0
vn 0 1 0
vn 0 1 0
vn 0 1 0
vn 0 1 0
vn 0 1 0
vn 0 1 0
vn 0 1 0
vn 0 1 0
vn 0 1 0
vn 0 1 0
vn 0 1 0
vn 0 1 0
vn 0 1 0
vn 0 1 0
vn 0 1 0
vn 0 1 0
vn 0 1 0
vn 0 1 0
vn 0 1 0
vn 0 1 0
vn 0 1 0
vn 0 1 0
vn 0 1 0
vn 0 1 0
vn 0 1 0
vn 0 1 0
vn 0 1 0
vn 0 1 0
g Grass_2_Cluster258_0
f 2/2/2 3/3/3 1/1/1
f 2/2/2 4/4/4 3/3/3
f 6/6/6 7/7/7 5/5/5
f 6/6/6 8/8/8 7/7/7
f 10/10/10 11/11/11 9/9/9
f 10/10/10 12/12/12 11/11/11
f 14/14/14 15/15/15 13/13/13
f 14/14/14 16/16/16 15/15/15
f 18/18/18 19/19/19 17/17/17
f 18/18/18 20/20/20 19/19/19
f 22/22/22 23/23/23 21/21/21
f 22/22/22 24/24/24 23/23/23
f 26/26/26 27/27/27 25/25/25
f 26/26/26 28/28/28 27/27/27
f 30/30/30 31/31/31 29/29/29
f 30/30/30 32/32/32 31/31/31
f 34/34/34 35/35/35 33/33/33
f 34/34/34 36/36/36 35/35/35
f 38/38/38 39/39/39 37/37/37
f 38/38/38 40/40/40 39/39/39
f 42/42/42 43/43/43 41/41/41
f 42/42/42 44/44/44 43/43/43
f 46/46/46 47/47/47 45/45/45
f 46/46/46 48/48/48 47/47/47
f 50/50/50 51/51/51 49/49/49
f 50/50/50 52/52/52 51/51/51
f 54/54/54 55/55/55 53/53/53
f 54/54/54 56/56/56 55/55/55
f 58/58/58 59/59/59 57/57/57
f 58/58/58 60/60/60 59/59/59
f 62/62/62 63/63/63 61/61/61
f 62/62/62 64/64/64 63/63/63
f 66/66/66 67/67/67 65/65/65
f 66/66/66 68/68/68 67/67/67
f 70/70/70 71/71/71 69/69/69
f 70/70/70 72/72/72 71/71/71
f 74/74/74 75/75/75 73/73/73
f 74/74/74 76/76/76 75/75/75
f 78/78/78 79/79/79 77/77/77
f 78/78/78 80/80/80 79/79/79
f 82/82/82 83/83/83 81/81/81
f 82/82/82 84/84/84 83/83/83
f 86/86/86 87/87/87 85/85/85
f 86/86/86 88/88/88 87/87/87
f 90/90/90 91/91/91 89/89/89
f 90/90/90 92/92/92 91/91/91
f 94/94/94 95/95/95 93/93/93
f 94/94/94 96/96/96 95/95/95
f 98/98/98 99/99/99 97/97/97
f 98/98/98 100/100/100 99/99/99
f 102/102/102 103/103/103 101/101/101
f 102/102/102 104/104/104 103/103/103
f 106/106/106 107/107/107 105/105/105
f 106/106/106 108/108/108 107/107/107
f 110/110/110 111/111/111 109/109/109
f 110/110/110 112/112/112 111/111/111
f 114/114/114 115/115/115 113/113/113
f 114/114/114 116/116/116 115/115/115
f 118/118/118 119/119/119 117/117/117
f 118/118/118 120/120/120 119/119/119
f 122/122/122 123/123/123 121/121/121
f 122/122/122 124/124/124 123/123/123
f 126/126/126 127/127/127 125/125/125
f 126/126/126 128/128/128 127/127/127
f 130/130/130 131/131/131 129/129/129
f 130/130/130 132/132/132 131/131/131
f 134/134/134 135/135/135 133/133/133
f 134/134/134 136/136/136 135/135/135
f 138/138/138 139/139/139 137/137/137
f 138/138/138 140/140/140 139/139/139
f 142/142/142 143/143/143 141/141/141
f 142/142/142 144/144/144 143/143/143
f 146/146/146 147/147/147 145/145/145
f 146/146/146 148/148/148 147/147/147
f 150/150/150 151/151/151 149/149/149
f 150/150/150 152/152/152 151/151/151
f 154/154/154 155/155/155 153/153/153
f 154/154/154 156/156/156 155/155/155
f 158/158/158 159/159/159 157/157/157
f 158/158/158 160/160/160 159/159/159
f 162/162/162 163/163/163 161/161/161
f 162/162/162 164/164/164 163/163/163
f 166/166/166 167/167/167 165/165/165
f 166/166/166 168/168/168 167/167/167
f 170/170/170 171/171/171 169/169/169
f 170/170/170 172/172/172 171/171/171
f 174/174/174 175/175/175 173/173/173
f 174/174/174 176/176/176 175/175/175
f 178/178/178 179/179/179 177/177/177
f 178/178/178 180/180/180 179/179/179
f 182/182/182 183/183/183 181/181/181
f 182/182/182 184/184/184 183/183/183
f 186/186/186 187/187/187 185/185/185
f 186/186/186 188/188/188 187/187/187
f 190/190/190 191/191/191 189/189/189
f 190/190/190 192/192/192 191/191/191
f 194/194/194 195/195/195 193/193/193
f 194/194/194 196/196/196 195/195/195
f 198/198/198 199/199/199 197/197/197
f 198/198/198 200/200/200 199/199/199
f 202/202/202 203/203/203 201/201/201
f 202/202/202 204/204/204 203/203/203
f 206/206/206 207/207/207 205/205/205
f 206/206/206 208/208/208 207/207/207
f 210/210/210 211/211/211 209/209/209
f 210/210/210 212/212/212 211/211/211
f 214/214/214 215/215/215 213/213/213
f 214/214/214 216/216/216 215/215/215
f 218/218/218 219/219/219 217/217/217
f 218/218/218 220/220/220 219/219/219
f 222/222/222 223/223/223 221/221/221
f 222/222/222 224/224/224 223/223/223
f 226/226/226 227/227/227 225/225/225
f 226/226/226 228/228/228 227/227/227
f 230/230/230 231/231/231 229/229/229
f 230/230/230 232/232/232 231/231/231
f 234/234/234 235/235/235 233/233/233
f 234/234/234 236/236/236 235/235/235
f 238/238/238 239/239/239 237/237/237
f 238/238/238 240/240/240 239/239/239
f 242/242/242 243/243/243 241/241/241
f 242/242/242 244/244/244 243/243/243
f 246/246/246 247/247/247 245/245/245
f 246/246/246 248/248/248 247/247/247
f 250/250/250 251/251/251 249/249/249
f 250/250/250 252/252/252 251/251/251
