g Grass_1_Cluster81
v 246.4651 -0.1372681 104.3322
v 245.732 -0.1372681 104.3322
v 246.4651 -0.1372681 105.0653
v 245.732 -0.1372681 105.0653
v 247.9314 -0.1372681 103.2325
v 247.1983 -0.1372681 103.2325
v 247.9314 -0.1372681 103.9656
v 247.1983 -0.1372681 103.9656
v 244.2658 -0.1372681 102.4994
v 243.5327 -0.1372681 102.4994
v 244.2658 -0.1372681 103.2325
v 243.5327 -0.1372681 103.2325
v 240.9668 -0.1372681 100.6666
v 240.2336 -0.1372681 100.6666
v 240.9668 -0.1372681 101.3997
v 240.2336 -0.1372681 101.3997
v 241.3333 -0.1372681 98.46722
v 240.6002 -0.1372681 98.46722
v 241.3333 -0.1372681 99.20035
v 240.6002 -0.1372681 99.20035
v 266.6259 -0.1372681 94.06851
v 265.5262 -0.1372681 94.06851
v 266.6259 -0.1372681 94.80164
v 265.5262 -0.1372681 94.80164
v 269.925 -0.1372681 92.96884
v 269.1918 -0.1372681 92.96884
v 269.925 -0.1372681 93.70193
v 269.1918 -0.1372681 93.70193
v 268.0922 -0.1372681 91.50259
v 267.359 -0.1372681 91.50259
v 268.0922 -0.1372681 92.23572
v 267.359 -0.1372681 92.23572
v 265.8928 -0.1372681 91.13602
v 265.1597 -0.1372681 91.13602
v 265.8928 -0.1372681 91.86914
v 265.1597 -0.1372681 91.86914
v 269.1918 -0.1372681 90.76947
v 268.4587 -0.1372681 90.76947
v 269.1918 -0.1372681 91.86914
v 268.4587 -0.1372681 91.86914
v 260.761 -0.1372681 90.76947
v 259.6613 -0.1372681 90.76947
v 260.761 -0.1372681 91.50259
v 259.6613 -0.1372681 91.50259
v 255.9957 -0.1372681 90.76947
v 254.896 -0.1372681 90.76947
v 255.9957 -0.1372681 91.50259
v 254.896 -0.1372681 91.50259
v 263.6935 -0.1372681 90.40292
v 262.5938 -0.1372681 90.40292
v 263.6935 -0.1372681 91.13602
v 262.5938 -0.1372681 91.13602
v 257.4619 -0.1372681 90.03635
v 256.7288 -0.1372681 90.03635
v 257.4619 -0.1372681 90.76947
v 256.7288 -0.1372681 90.76947
v 262.5938 -0.1372681 89.6698
v 261.8607 -0.1372681 89.6698
v 262.5938 -0.1372681 90.40292
v 261.8607 -0.1372681 90.40292
v 258.9282 -0.1372681 89.6698
v 257.8285 -0.1372681 89.6698
v 258.9282 -0.1372681 90.40292
v 257.8285 -0.1372681 90.40292
v 265.5262 -0.1372681 88.93668
v 264.4266 -0.1372681 88.93668
v 265.5262 -0.1372681 89.6698
v 264.4266 -0.1372681 89.6698
v 264.4266 -0.1372681 88.57013
v 263.6935 -0.1372681 88.57013
v 264.4266 -0.1372681 89.30322
v 263.6935 -0.1372681 89.30322
v 267.359 -0.1372681 87.83701
v 266.2594 -0.1372681 87.83701
v 267.359 -0.1372681 88.93668
v 266.2594 -0.1372681 88.93668
vt 0.06738281 0.9369141
vt 0.1331457 0.9369141
vt 0.06738281 0.9990234
vt 0.1331457 0.9990234
vt 0.06738281 0.9369141
vt 0.1331457 0.9369141
vt 0.06738281 0.9990234
vt 0.1331457 0.9990234
vt 0.06738281 0.9369141
vt 0.1331457 0.9369141
vt 0.06738281 0.9990234
vt 0.1331457 0.9990234
vt 0.06738281 0.9369141
vt 0.1331457 0.9369141
vt 0.06738281 0.9990234
vt 0.1331457 0.9990234
vt 0.06738281 0.9369141
vt 0.1331457 0.9369141
vt 0.06738281 0.9990234
vt 0.1331457 0.9990234
vt 0.06738281 0.9369141
vt 0.1331457 0.9369141
vt 0.06738281 0.9990234
vt 0.1331457 0.9990234
vt 0.06738281 0.9369141
vt 0.1331457 0.9369141
vt 0.06738281 0.9990234
vt 0.1331457 0.9990234
vt 0.06738281 0.9369141
vt 0.1331457 0.9369141
vt 0.06738281 0.9990234
vt 0.1331457 0.9990234
vt 0.06738281 0.9369141
vt 0.1331457 0.9369141
vt 0.06738281 0.9990234
vt 0.1331457 0.9990234
vt 0.06738281 0.9369141
vt 0.1331457 0.9369141
vt 0.06738281 0.9990234
vt 0.1331457 0.9990234
vt 0.06738281 0.9369141
vt 0.1331457 0.9369141
vt 0.06738281 0.9990234
vt 0.1331457 0.9990234
vt 0.06738281 0.9369141
vt 0.1331457 0.9369141
vt 0.06738281 0.9990234
vt 0.1331457 0.9990234
vt 0.06738281 0.9369141
vt 0.1331457 0.9369141
vt 0.06738281 0.9990234
vt 0.1331457 0.9990234
vt 0.06738281 0.9369141
vt 0.1331457 0.9369141
vt 0.06738281 0.9990234
vt 0.1331457 0.9990234
vt 0.06738281 0.9369141
vt 0.1331457 0.9369141
vt 0.06738281 0.9990234
vt 0.1331457 0.9990234
vt 0.06738281 0.9369141
vt 0.1331457 0.9369141
vt 0.06738281 0.9990234
vt 0.1331457 0.9990234
vt 0.06738281 0.9369141
vt 0.1331457 0.9369141
vt 0.06738281 0.9990234
vt 0.1331457 0.9990234
vt 0.06738281 0.9369141
vt 0.1331457 0.9369141
vt 0.06738281 0.9990234
vt 0.1331457 0.9990234
vt 0.06738281 0.9369141
vt 0.1331457 0.9369141
vt 0.06738281 0.9990234
vt 0.1331457 0.9990234
vn 0 1 0
vn 0 1 0
vn 0 1 0
vn 0 1 0
vn 0 1 0
vn 0 1 0
vn 0 1 0
vn 0 1 0
vn 0 1 0
vn 0 1 0
vn 0 1 0
vn 0 1 0
vn 0 1 0
vn 0 1 0
vn 0 1 0
vn 0 1 0
vn 0 1 0
vn 0 1 0
vn 0 1 0
vn 0 1 0
vn 0 1 0
vn 0 1 0
vn 0 1 0
vn 0 1 0
vn 0 1 0
vn 0 1 0
vn 0 1 0
vn 0 1 0
vn 0 1 0
vn 0 1 0
vn 0 1 0
vn 0 1 0
vn 0 1 0
vn 0 1 0
vn 0 1 0
vn 0 1 0
vn 0 1 0
vn 0 1 0
vn 0 1 0
vn 0 1 0
vn 0 1 0
vn 0 1 0
vn 0 1 0
vn 0 1 0
vn 0 1 0
vn 0 1 0
vn 0 1 0
vn 0 1 0
vn 0 1 0
vn 0 1 0
vn 0 1 0
vn 0 1 0
vn 0 1 0
vn 0 1 0
vn 0 1 0
vn 0 1 0
vn 0 1 0
vn 0 1 0
vn 0 1 0
vn 0 1 0
vn 0 1 0
vn 0 1 0
vn 0 1 0
vn 0 1 0
vn 0 1 0
vn 0 1 0
vn 0 1 0
vn 0 1 0
vn 0 1 0
vn 0 1 0
vn 0 1 0
vn 0 1 0
vn 0 1 0
vn 0 1 0
vn 0 1 0
vn 0 1 0
g Grass_1_Cluster81_0
f 2/2/2 3/3/3 1/1/1
f 2/2/2 4/4/4 3/3/3
f 6/6/6 7/7/7 5/5/5
f 6/6/6 8/8/8 7/7/7
f 10/10/10 11/11/11 9/9/9
f 10/10/10 12/12/12 11/11/11
f 14/14/14 15/15/15 13/13/13
f 14/14/14 16/16/16 15/15/15
f 18/18/18 19/19/19 17/17/17
f 18/18/18 20/20/20 19/19/19
f 22/22/22 23/23/23 21/21/21
f 22/22/22 24/24/24 23/23/23
f 26/26/26 27/27/27 25/25/25
f 26/26/26 28/28/28 27/27/27
f 30/30/30 31/31/31 29/29/29
f 30/30/30 32/32/32 31/31/31
f 34/34/34 35/35/35 33/33/33
f 34/34/34 36/36/36 35/35/35
f 38/38/38 39/39/39 37/37/37
f 38/38/38 40/40/40 39/39/39
f 42/42/42 43/43/43 41/41/41
f 42/42/42 44/44/44 43/43/43
f 46/46/46 47/47/47 45/45/45
f 46/46/46 48/48/48 47/47/47
f 50/50/50 51/51/51 49/49/49
f 50/50/50 52/52/52 51/51/51
f 54/54/54 55/55/55 53/53/53
f 54/54/54 56/56/56 55/55/55
f 58/58/58 59/59/59 57/57/57
f 58/58/58 60/60/60 59/59/59
f 62/62/62 63/63/63 61/61/61
f 62/62/62 64/64/64 63/63/63
f 66/66/66 67/67/67 65/65/65
f 66/66/66 68/68/68 67/67/67
f 70/70/70 71/71/71 69/69/69
f 70/70/70 72/72/72 71/71/71
f 74/74/74 75/75/75 73/73/73
f 74/74/74 76/76/76 75/75/75
