g Grass_2_Cluster292
v -73.2917 0 410.7557
v -74.4998 0 410.7557
v -73.2917 0 411.9638
v -74.4998 0 411.9638
v -73.2917 0 410.7557
v -74.09711 0 410.7557
v -73.2917 0 411.5611
v -74.09711 0 411.5611
v -75.70791 0 409.5476
v -76.51331 0 409.5476
v -75.70791 0 410.7557
v -76.51331 0 410.7557
v -74.09711 0 409.1449
v -75.30521 0 409.1449
v -74.09711 0 410.353
v -75.30521 0 410.353
v -74.9025 0 408.3395
v -75.70791 0 408.3395
v -74.9025 0 409.5476
v -75.70791 0 409.5476
v -72.4863 0 407.5341
v -73.2917 0 407.5341
v -72.4863 0 408.7422
v -73.2917 0 408.7422
v -74.4998 0 407.5341
v -75.30521 0 407.5341
v -74.4998 0 408.7422
v -75.30521 0 408.7422
v -74.4998 0 407.1314
v -75.70791 0 407.1314
v -74.4998 0 408.3395
v -75.70791 0 408.3395
v -73.6944 0 407.1314
v -74.9025 0 407.1314
v -73.6944 0 407.9368
v -74.9025 0 407.9368
v -76.91602 0 406.7287
v -78.12412 0 406.7287
v -76.91602 0 407.5341
v -78.12412 0 407.5341
v -75.30521 0 405.9232
v -76.11061 0 405.9232
v -75.30521 0 407.1314
v -76.11061 0 407.1314
v -76.91602 0 405.1179
v -77.72142 0 405.1179
v -76.91602 0 406.326
v -77.72142 0 406.326
v -81.34573 0 402.7017
v -82.15114 0 402.7017
v -81.34573 0 403.9098
v -82.15114 0 403.9098
v -64.83497 0 402.299
v -65.64037 0 402.299
v -64.83497 0 403.1043
v -65.64037 0 403.1043
v -63.22416 0 401.4935
v -64.43227 0 401.4935
v -63.22416 0 402.7017
v -64.43227 0 402.7017
v -64.43227 0 401.4935
v -65.64037 0 401.4935
v -64.43227 0 402.299
v -65.64037 0 402.299
v -62.82146 0 400.2854
v -64.02956 0 400.2854
v -62.82146 0 401.4935
v -64.02956 0 401.4935
v -64.43227 0 400.2854
v -65.23767 0 400.2854
v -64.43227 0 401.4935
v -65.23767 0 401.4935
v -63.22416 0 399.0773
v -64.02956 0 399.0773
v -63.22416 0 400.2854
v -64.02956 0 400.2854
v -66.44577 0 399.0773
v -67.25117 0 399.0773
v -66.44577 0 400.2854
v -67.25117 0 400.2854
v -63.62686 0 398.2719
v -64.43227 0 398.2719
v -63.62686 0 399.48
v -64.43227 0 399.48
v -66.44577 0 398.2719
v -67.25117 0 398.2719
v -66.44577 0 399.0773
v -67.25117 0 399.0773
v -65.23767 0 397.8692
v -66.04307 0 397.8692
v -65.23767 0 399.0773
v -66.04307 0 399.0773
v -62.41875 0 397.4665
v -63.22416 0 397.4665
v -62.41875 0 398.6746
v -63.22416 0 398.6746
v -63.22416 0 397.0638
v -64.02956 0 397.0638
v -63.22416 0 398.2719
v -64.02956 0 398.2719
v -61.61335 0 397.0638
v -62.82146 0 397.0638
v -61.61335 0 397.8692
v -62.82146 0 397.8692
v -63.62686 0 396.2584
v -64.83497 0 396.2584
v -63.62686 0 397.4665
v -64.83497 0 397.4665
v -64.02956 0 395.8557
v -64.83497 0 395.8557
v -64.02956 0 397.0638
v -64.83497 0 397.0638
v -65.23767 0 395.8557
v -66.04307 0 395.8557
v -65.23767 0 397.0638
v -66.04307 0 397.0638
v -64.83497 0 395.453
v -66.04307 0 395.453
v -64.83497 0 396.6611
v -66.04307 0 396.6611
v -61.21065 0 395.0503
v -62.41875 0 395.0503
v -61.21065 0 396.2584
v -62.41875 0 396.2584
v -62.41875 0 394.6476
v -63.22416 0 394.6476
v -62.41875 0 395.8557
v -63.22416 0 395.8557
v -60.40525 0 394.6476
v -61.61335 0 394.6476
v -60.40525 0 395.8557
v -61.61335 0 395.8557
v -82.95654 0 387.8017
v -83.76194 0 387.8017
v -82.95654 0 389.0098
v -83.76194 0 389.0098
v -70.87549 0 387.399
v -71.68089 0 387.399
v -70.87549 0 388.2044
v -71.68089 0 388.2044
v -71.68089 0 386.9963
v -72.4863 0 386.9963
v -71.68089 0 387.8017
v -72.4863 0 387.8017
v -69.26469 0 386.5936
v -70.07008 0 386.5936
v -69.26469 0 387.399
v -70.07008 0 387.399
v -71.68089 0 386.1909
v -72.4863 0 386.1909
v -71.68089 0 387.399
v -72.4863 0 387.399
v -70.87549 0 385.7882
v -71.68089 0 385.7882
v -70.87549 0 386.9963
v -71.68089 0 386.9963
v -73.2917 0 385.7882
v -74.09711 0 385.7882
v -73.2917 0 386.9963
v -74.09711 0 386.9963
v -70.07008 0 384.9828
v -70.87549 0 384.9828
v -70.07008 0 386.1909
v -70.87549 0 386.1909
v -83.35925 0 384.9828
v -84.16464 0 384.9828
v -83.35925 0 386.1909
v -84.16464 0 386.1909
v -70.07008 0 384.5801
v -70.87549 0 384.5801
v -70.07008 0 385.3855
v -70.87549 0 385.3855
v -68.86198 0 384.5801
v -70.07008 0 384.5801
v -68.86198 0 385.3855
v -70.07008 0 385.3855
v -72.0836 0 384.1774
v -72.889 0 384.1774
v -72.0836 0 385.3855
v -72.889 0 385.3855
v -72.4863 0 383.7747
v -73.2917 0 383.7747
v -72.4863 0 384.9828
v -73.2917 0 384.9828
v -71.27819 0 383.372
v -72.4863 0 383.372
v -71.27819 0 384.5801
v -72.4863 0 384.5801
v -70.47279 0 383.372
v -71.27819 0 383.372
v -70.47279 0 384.5801
v -71.27819 0 384.5801
v -83.76194 0 383.372
v -84.97005 0 383.372
v -83.76194 0 384.1774
v -84.97005 0 384.1774
vt 0.1347656 0.9185662
vt 0.2060202 0.9185662
vt 0.1347656 1
vt 0.2060202 1
vt 0.1347656 0.9185662
vt 0.2060202 0.9185662
vt 0.1347656 1
vt 0.2060202 1
vt 0.1347656 0.9185662
vt 0.2060202 0.9185662
vt 0.1347656 1
vt 0.2060202 1
vt 0.1347656 0.9185662
vt 0.2060202 0.9185662
vt 0.1347656 1
vt 0.2060202 1
vt 0.1347656 0.9185662
vt 0.2060202 0.9185662
vt 0.1347656 1
vt 0.2060202 1
vt 0.1347656 0.9185662
vt 0.2060202 0.9185662
vt 0.1347656 1
vt 0.2060202 1
vt 0.1347656 0.9185662
vt 0.2060202 0.9185662
vt 0.1347656 1
vt 0.2060202 1
vt 0.1347656 0.9185662
vt 0.2060202 0.9185662
vt 0.1347656 1
vt 0.2060202 1
vt 0.1347656 0.9185662
vt 0.2060202 0.9185662
vt 0.1347656 1
vt 0.2060202 1
vt 0.1347656 0.9185662
vt 0.2060202 0.9185662
vt 0.1347656 1
vt 0.2060202 1
vt 0.1347656 0.9185662
vt 0.2060202 0.9185662
vt 0.1347656 1
vt 0.2060202 1
vt 0.1347656 0.9185662
vt 0.2060202 0.9185662
vt 0.1347656 1
vt 0.2060202 1
vt 0.1347656 0.9185662
vt 0.2060202 0.9185662
vt 0.1347656 1
vt 0.2060202 1
vt 0.1347656 0.9185662
vt 0.2060202 0.9185662
vt 0.1347656 1
vt 0.2060202 1
vt 0.1347656 0.9185662
vt 0.2060202 0.9185662
vt 0.1347656 1
vt 0.2060202 1
vt 0.1347656 0.9185662
vt 0.2060202 0.9185662
vt 0.1347656 1
vt 0.2060202 1
vt 0.1347656 0.9185662
vt 0.2060202 0.9185662
vt 0.1347656 1
vt 0.2060202 1
vt 0.1347656 0.9185662
vt 0.2060202 0.9185662
vt 0.1347656 1
vt 0.2060202 1
vt 0.1347656 0.9185662
vt 0.2060202 0.9185662
vt 0.1347656 1
vt 0.2060202 1
vt 0.1347656 0.9185662
vt 0.2060202 0.9185662
vt 0.1347656 1
vt 0.2060202 1
vt 0.1347656 0.9185662
vt 0.2060202 0.9185662
vt 0.1347656 1
vt 0.2060202 1
vt 0.1347656 0.9185662
vt 0.2060202 0.9185662
vt 0.1347656 1
vt 0.2060202 1
vt 0.1347656 0.9185662
vt 0.2060202 0.9185662
vt 0.1347656 1
vt 0.2060202 1
vt 0.1347656 0.9185662
vt 0.2060202 0.9185662
vt 0.1347656 1
vt 0.2060202 1
vt 0.1347656 0.9185662
vt 0.2060202 0.9185662
vt 0.1347656 1
vt 0.2060202 1
vt 0.1347656 0.9185662
vt 0.2060202 0.9185662
vt 0.1347656 1
vt 0.2060202 1
vt 0.1347656 0.9185662
vt 0.2060202 0.9185662
vt 0.1347656 1
vt 0.2060202 1
vt 0.1347656 0.9185662
vt 0.2060202 0.9185662
vt 0.1347656 1
vt 0.2060202 1
vt 0.1347656 0.9185662
vt 0.2060202 0.9185662
vt 0.1347656 1
vt 0.2060202 1
vt 0.1347656 0.9185662
vt 0.2060202 0.9185662
vt 0.1347656 1
vt 0.2060202 1
vt 0.1347656 0.9185662
vt 0.2060202 0.9185662
vt 0.1347656 1
vt 0.2060202 1
vt 0.1347656 0.9185662
vt 0.2060202 0.9185662
vt 0.1347656 1
vt 0.2060202 1
vt 0.1347656 0.9185662
vt 0.2060202 0.9185662
vt 0.1347656 1
vt 0.2060202 1
vt 0.1347656 0.9185662
vt 0.2060202 0.9185662
vt 0.1347656 1
vt 0.2060202 1
vt 0.1347656 0.9185662
vt 0.2060202 0.9185662
vt 0.1347656 1
vt 0.2060202 1
vt 0.1347656 0.9185662
vt 0.2060202 0.9185662
vt 0.1347656 1
vt 0.2060202 1
vt 0.1347656 0.9185662
vt 0.2060202 0.9185662
vt 0.1347656 1
vt 0.2060202 1
vt 0.1347656 0.9185662
vt 0.2060202 0.9185662
vt 0.1347656 1
vt 0.2060202 1
vt 0.1347656 0.9185662
vt 0.2060202 0.9185662
vt 0.1347656 1
vt 0.2060202 1
vt 0.1347656 0.9185662
vt 0.2060202 0.9185662
vt 0.1347656 1
vt 0.2060202 1
vt 0.1347656 0.9185662
vt 0.2060202 0.9185662
vt 0.1347656 1
vt 0.2060202 1
vt 0.1347656 0.9185662
vt 0.2060202 0.9185662
vt 0.1347656 1
vt 0.2060202 1
vt 0.1347656 0.9185662
vt 0.2060202 0.9185662
vt 0.1347656 1
vt 0.2060202 1
vt 0.1347656 0.9185662
vt 0.2060202 0.9185662
vt 0.1347656 1
vt 0.2060202 1
vt 0.1347656 0.9185662
vt 0.2060202 0.9185662
vt 0.1347656 1
vt 0.2060202 1
vt 0.1347656 0.9185662
vt 0.2060202 0.9185662
vt 0.1347656 1
vt 0.2060202 1
vt 0.1347656 0.9185662
vt 0.2060202 0.9185662
vt 0.1347656 1
vt 0.2060202 1
vt 0.1347656 0.9185662
vt 0.2060202 0.9185662
vt 0.1347656 1
vt 0.2060202 1
vt 0.1347656 0.9185662
vt 0.2060202 0.9185662
vt 0.1347656 1
vt 0.2060202 1
vn 0 1 0
vn 0 1 0
vn 0 1 0
vn 0 1 0
vn 0 1 0
vn 0 1 0
vn 0 1 0
vn 0 1 0
vn 0 1 0
vn 0 1 0
vn 0 1 0
vn 0 1 0
vn 0 1 0
vn 0 1 0
vn 0 1 0
vn 0 1 0
vn 0 1 0
vn 0 1 0
vn 0 1 0
vn 0 1 0
vn 0 1 0
vn 0 1 0
vn 0 1 0
vn 0 1 0
vn 0 1 0
vn 0 1 0
vn 0 1 0
vn 0 1 0
vn 0 1 0
vn 0 1 0
vn 0 1 0
vn 0 1 0
vn 0 1 0
vn 0 1 0
vn 0 1 0
vn 0 1 0
vn 0 1 0
vn 0 1 0
vn 0 1 0
vn 0 1 0
vn 0 1 0
vn 0 1 0
vn 0 1 0
vn 0 1 0
vn 0 1 0
vn 0 1 0
vn 0 1 0
vn 0 1 0
vn 0 1 0
vn 0 1 0
vn 0 1 0
vn 0 1 0
vn 0 1 0
vn 0 1 0
vn 0 1 0
vn 0 1 0
vn 0 1 0
vn 0 1 0
vn 0 1 0
vn 0 1 0
vn 0 1 0
vn 0 1 0
vn 0 1 0
vn 0 1 0
vn 0 1 0
vn 0 1 0
vn 0 1 0
vn 0 1 0
vn 0 1 0
vn 0 1 0
vn 0 1 0
vn 0 1 0
vn 0 1 0
vn 0 1 0
vn 0 1 0
vn 0 1 0
vn 0 1 0
vn 0 1 0
vn 0 1 0
vn 0 1 0
vn 0 1 0
vn 0 1 0
vn 0 1 0
vn 0 1 0
vn 0 1 0
vn 0 1 0
vn 0 1 0
vn 0 1 0
vn 0 1 0
vn 0 1 0
vn 0 1 0
vn 0 1 0
vn 0 1 0
vn 0 1 0
vn 0 1 0
vn 0 1 0
vn 0 1 0
vn 0 1 0
vn 0 1 0
vn 0 1 0
vn 0 1 0
vn 0 1 0
vn 0 1 0
vn 0 1 0
vn 0 1 0
vn 0 1 0
vn 0 1 0
vn 0 1 0
vn 0 1 0
vn 0 1 0
vn 0 1 0
vn 0 1 0
vn 0 1 0
vn 0 1 0
vn 0 1 0
vn 0 1 0
vn 0 1 0
vn 0 1 0
vn 0 1 0
vn 0 1 0
vn 0 1 0
vn 0 1 0
vn 0 1 0
vn 0 1 0
vn 0 1 0
vn 0 1 0
vn 0 1 0
vn 0 1 0
vn 0 1 0
vn 0 1 0
vn 0 1 0
vn 0 1 0
vn 0 1 0
vn 0 1 0
vn 0 1 0
vn 0 1 0
vn 0 1 0
vn 0 1 0
vn 0 1 0
vn 0 1 0
vn 0 1 0
vn 0 1 0
vn 0 1 0
vn 0 1 0
vn 0 1 0
vn 0 1 0
vn 0 1 0
vn 0 1 0
vn 0 1 0
vn 0 1 0
vn 0 1 0
vn 0 1 0
vn 0 1 0
vn 0 1 0
vn 0 1 0
vn 0 1 0
vn 0 1 0
vn 0 1 0
vn 0 1 0
vn 0 1 0
vn 0 1 0
vn 0 1 0
vn 0 1 0
vn 0 1 0
vn 0 1 0
vn 0 1 0
vn 0 1 0
vn 0 1 0
vn 0 1 0
vn 0 1 0
vn 0 1 0
vn 0 1 0
vn 0 1 0
vn 0 1 0
vn 0 1 0
vn 0 1 0
vn 0 1 0
vn 0 1 0
vn 0 1 0
vn 0 1 0
vn 0 1 0
vn 0 1 0
vn 0 1 0
vn 0 1 0
vn 0 1 0
vn 0 1 0
vn 0 1 0
vn 0 1 0
vn 0 1 0
vn 0 1 0
vn 0 1 0
vn 0 1 0
vn 0 1 0
vn 0 1 0
vn 0 1 0
vn 0 1 0
g Grass_2_Cluster292_0
f 2/2/2 3/3/3 1/1/1
f 2/2/2 4/4/4 3/3/3
f 6/6/6 7/7/7 5/5/5
f 6/6/6 8/8/8 7/7/7
f 10/10/10 11/11/11 9/9/9
f 10/10/10 12/12/12 11/11/11
f 14/14/14 15/15/15 13/13/13
f 14/14/14 16/16/16 15/15/15
f 18/18/18 19/19/19 17/17/17
f 18/18/18 20/20/20 19/19/19
f 22/22/22 23/23/23 21/21/21
f 22/22/22 24/24/24 23/23/23
f 26/26/26 27/27/27 25/25/25
f 26/26/26 28/28/28 27/27/27
f 30/30/30 31/31/31 29/29/29
f 30/30/30 32/32/32 31/31/31
f 34/34/34 35/35/35 33/33/33
f 34/34/34 36/36/36 35/35/35
f 38/38/38 39/39/39 37/37/37
f 38/38/38 40/40/40 39/39/39
f 42/42/42 43/43/43 41/41/41
f 42/42/42 44/44/44 43/43/43
f 46/46/46 47/47/47 45/45/45
f 46/46/46 48/48/48 47/47/47
f 50/50/50 51/51/51 49/49/49
f 50/50/50 52/52/52 51/51/51
f 54/54/54 55/55/55 53/53/53
f 54/54/54 56/56/56 55/55/55
f 58/58/58 59/59/59 57/57/57
f 58/58/58 60/60/60 59/59/59
f 62/62/62 63/63/63 61/61/61
f 62/62/62 64/64/64 63/63/63
f 66/66/66 67/67/67 65/65/65
f 66/66/66 68/68/68 67/67/67
f 70/70/70 71/71/71 69/69/69
f 70/70/70 72/72/72 71/71/71
f 74/74/74 75/75/75 73/73/73
f 74/74/74 76/76/76 75/75/75
f 78/78/78 79/79/79 77/77/77
f 78/78/78 80/80/80 79/79/79
f 82/82/82 83/83/83 81/81/81
f 82/82/82 84/84/84 83/83/83
f 86/86/86 87/87/87 85/85/85
f 86/86/86 88/88/88 87/87/87
f 90/90/90 91/91/91 89/89/89
f 90/90/90 92/92/92 91/91/91
f 94/94/94 95/95/95 93/93/93
f 94/94/94 96/96/96 95/95/95
f 98/98/98 99/99/99 97/97/97
f 98/98/98 100/100/100 99/99/99
f 102/102/102 103/103/103 101/101/101
f 102/102/102 104/104/104 103/103/103
f 106/106/106 107/107/107 105/105/105
f 106/106/106 108/108/108 107/107/107
f 110/110/110 111/111/111 109/109/109
f 110/110/110 112/112/112 111/111/111
f 114/114/114 115/115/115 113/113/113
f 114/114/114 116/116/116 115/115/115
f 118/118/118 119/119/119 117/117/117
f 118/118/118 120/120/120 119/119/119
f 122/122/122 123/123/123 121/121/121
f 122/122/122 124/124/124 123/123/123
f 126/126/126 127/127/127 125/125/125
f 126/126/126 128/128/128 127/127/127
f 130/130/130 131/131/131 129/129/129
f 130/130/130 132/132/132 131/131/131
f 134/134/134 135/135/135 133/133/133
f 134/134/134 136/136/136 135/135/135
f 138/138/138 139/139/139 137/137/137
f 138/138/138 140/140/140 139/139/139
f 142/142/142 143/143/143 141/141/141
f 142/142/142 144/144/144 143/143/143
f 146/146/146 147/147/147 145/145/145
f 146/146/146 148/148/148 147/147/147
f 150/150/150 151/151/151 149/149/149
f 150/150/150 152/152/152 151/151/151
f 154/154/154 155/155/155 153/153/153
f 154/154/154 156/156/156 155/155/155
f 158/158/158 159/159/159 157/157/157
f 158/158/158 160/160/160 159/159/159
f 162/162/162 163/163/163 161/161/161
f 162/162/162 164/164/164 163/163/163
f 166/166/166 167/167/167 165/165/165
f 166/166/166 168/168/168 167/167/167
f 170/170/170 171/171/171 169/169/169
f 170/170/170 172/172/172 171/171/171
f 174/174/174 175/175/175 173/173/173
f 174/174/174 176/176/176 175/175/175
f 178/178/178 179/179/179 177/177/177
f 178/178/178 180/180/180 179/179/179
f 182/182/182 183/183/183 181/181/181
f 182/182/182 184/184/184 183/183/183
f 186/186/186 187/187/187 185/185/185
f 186/186/186 188/188/188 187/187/187
f 190/190/190 191/191/191 189/189/189
f 190/190/190 192/192/192 191/191/191
f 194/194/194 195/195/195 193/193/193
f 194/194/194 196/196/196 195/195/195
