g Grass_2_Cluster171
v -32.20248 0 229.2456
v -33.10325 0 229.2456
v -32.20248 0 230.3716
v -33.10325 0 230.3716
v -48.64151 0 227.2189
v -49.54227 0 227.2189
v -48.64151 0 228.3448
v -49.54227 0 228.3448
v -50.44304 0 226.7685
v -51.569 0 226.7685
v -50.44304 0 227.8945
v -51.569 0 227.8945
v -46.61478 0 226.3181
v -47.51554 0 226.3181
v -46.61478 0 227.2189
v -47.51554 0 227.2189
v -47.29036 0 225.4174
v -47.96593 0 225.4174
v -47.29036 0 226.5433
v -47.96593 0 226.5433
v -49.31709 0 225.4174
v -50.21785 0 225.4174
v -49.31709 0 226.5433
v -50.21785 0 226.5433
v -52.01939 0 224.967
v -52.92016 0 224.967
v -52.01939 0 226.0929
v -52.92016 0 226.0929
v -46.16439 0 224.967
v -47.06516 0 224.967
v -46.16439 0 226.0929
v -47.06516 0 226.0929
v -47.74074 0 224.967
v -48.64151 0 224.967
v -47.74074 0 226.0929
v -48.64151 0 226.0929
v -49.31709 0 224.5166
v -50.21785 0 224.5166
v -49.31709 0 225.6425
v -50.21785 0 225.6425
v -47.29036 0 224.0662
v -48.19112 0 224.0662
v -47.29036 0 225.1922
v -48.19112 0 225.1922
v -48.19112 0 223.6158
v -49.31709 0 223.6158
v -48.19112 0 224.7418
v -49.31709 0 224.7418
v -49.76747 0 222.9402
v -50.66824 0 222.9402
v -49.76747 0 224.2914
v -50.66824 0 224.2914
v -58.77515 0 216.4097
v -59.67592 0 216.4097
v -58.77515 0 217.3104
v -59.67592 0 217.3104
v -58.09958 0 215.7341
v -59.22554 0 215.7341
v -58.09958 0 216.86
v -59.22554 0 216.86
v -56.52323 0 215.0585
v -57.424 0 215.0585
v -56.52323 0 215.9593
v -57.424 0 215.9593
v -56.29804 0 214.6081
v -57.424 0 214.6081
v -56.29804 0 215.7341
v -57.424 0 215.7341
v -37.3819 0 214.6081
v -38.28267 0 214.6081
v -37.3819 0 215.5089
v -38.28267 0 215.5089
v -56.97362 0 214.1577
v -58.09958 0 214.1577
v -56.97362 0 215.2837
v -58.09958 0 215.2837
v -58.77515 0 213.9326
v -59.67592 0 213.9326
v -58.77515 0 214.8333
v -59.67592 0 214.8333
v -54.72169 0 213.9326
v -55.62246 0 213.9326
v -54.72169 0 214.8333
v -55.62246 0 214.8333
v -58.09958 0 213.4822
v -59.00035 0 213.4822
v -58.09958 0 214.6081
v -59.00035 0 214.6081
v -56.29804 0 213.4822
v -57.19881 0 213.4822
v -56.29804 0 214.3829
v -57.19881 0 214.3829
v -58.32477 0 213.0318
v -59.22554 0 213.0318
v -58.32477 0 214.1577
v -59.22554 0 214.1577
v -55.62246 0 213.0318
v -56.52323 0 213.0318
v -55.62246 0 214.1577
v -56.52323 0 214.1577
v -54.4965 0 212.5814
v -55.62246 0 212.5814
v -54.4965 0 213.7074
v -55.62246 0 213.7074
v -55.84766 0 212.131
v -56.97362 0 212.131
v -55.84766 0 213.257
v -56.97362 0 213.257
v -55.39727 0 211.6806
v -56.52323 0 211.6806
v -55.39727 0 212.8066
v -56.52323 0 212.8066
v -56.97362 0 211.4554
v -58.09958 0 211.4554
v -56.97362 0 212.5814
v -58.09958 0 212.5814
v -32.87806 0 211.2303
v -33.77882 0 211.2303
v -32.87806 0 212.3562
v -33.77882 0 212.3562
v -54.72169 0 211.0051
v -55.84766 0 211.0051
v -54.72169 0 212.131
v -55.84766 0 212.131
v -36.25594 0 210.7799
v -37.15671 0 210.7799
v -36.25594 0 211.9058
v -37.15671 0 211.9058
v -53.37054 0 210.7799
v -54.4965 0 210.7799
v -53.37054 0 211.9058
v -54.4965 0 211.9058
v -53.37054 0 210.5547
v -54.4965 0 210.5547
v -53.37054 0 211.6806
v -54.4965 0 211.6806
v -34.90479 0 210.3295
v -35.80555 0 210.3295
v -34.90479 0 211.4554
v -35.80555 0 211.4554
v -33.55363 0 209.8791
v -34.4544 0 209.8791
v -33.55363 0 211.0051
v -34.4544 0 211.0051
v -35.35517 0 209.6539
v -36.25594 0 209.6539
v -35.35517 0 210.5547
v -36.25594 0 210.5547
v -32.65286 0 209.2035
v -33.77882 0 209.2035
v -32.65286 0 210.3295
v -33.77882 0 210.3295
v -34.22921 0 208.7531
v -35.12998 0 208.7531
v -34.22921 0 209.8791
v -35.12998 0 209.8791
v -36.93151 0 208.7531
v -37.83228 0 208.7531
v -36.93151 0 209.6539
v -37.83228 0 209.6539
v -54.27131 0 208.5279
v -55.17208 0 208.5279
v -54.27131 0 209.6539
v -55.17208 0 209.6539
v -35.12998 0 208.5279
v -36.03075 0 208.5279
v -35.12998 0 209.6539
v -36.03075 0 209.6539
v -32.42767 0 208.3027
v -33.32844 0 208.3027
v -32.42767 0 209.4287
v -33.32844 0 209.4287
v -33.77882 0 208.0776
v -34.67959 0 208.0776
v -33.77882 0 209.4287
v -34.67959 0 209.4287
v -35.58036 0 207.8524
v -36.48113 0 207.8524
v -35.58036 0 208.9783
v -36.48113 0 208.9783
v -38.28267 0 207.402
v -39.18344 0 207.402
v -38.28267 0 208.5279
v -39.18344 0 208.5279
v -33.10325 0 207.1768
v -34.22921 0 207.1768
v -33.10325 0 208.3027
v -34.22921 0 208.3027
v -34.22921 0 206.9516
v -35.12998 0 206.9516
v -34.22921 0 208.0776
v -35.12998 0 208.0776
v -36.93151 0 206.7264
v -38.05748 0 206.7264
v -36.93151 0 207.8524
v -38.05748 0 207.8524
v -32.87806 0 206.7264
v -33.77882 0 206.7264
v -32.87806 0 207.6272
v -33.77882 0 207.6272
v -38.05748 0 206.5012
v -38.95824 0 206.5012
v -38.05748 0 207.6272
v -38.95824 0 207.6272
v -35.80555 0 206.276
v -36.70632 0 206.276
v -35.80555 0 207.402
v -36.70632 0 207.402
v -38.73305 0 206.0508
v -39.63382 0 206.0508
v -38.73305 0 207.402
v -39.63382 0 207.402
v -34.22921 0 206.276
v -35.12998 0 206.276
v -34.22921 0 207.1768
v -35.12998 0 207.1768
v -33.10325 0 205.6004
v -34.00402 0 205.6004
v -33.10325 0 206.7264
v -34.00402 0 206.7264
v -36.70632 0 205.3752
v -37.83228 0 205.3752
v -36.70632 0 206.5012
v -37.83228 0 206.5012
v -37.60709 0 205.1501
v -38.50786 0 205.1501
v -37.60709 0 206.0508
v -38.50786 0 206.0508
v -32.42767 0 205.1501
v -33.55363 0 205.1501
v -32.42767 0 206.276
v -33.55363 0 206.276
v -34.00402 0 204.9249
v -34.90479 0 204.9249
v -34.00402 0 206.0508
v -34.90479 0 206.0508
v -35.80555 0 204.9249
v -36.93151 0 204.9249
v -35.80555 0 206.0508
v -36.93151 0 206.0508
v -31.97729 0 204.4745
v -32.87806 0 204.4745
v -31.97729 0 205.6004
v -32.87806 0 205.6004
v -37.15671 0 204.4745
v -38.28267 0 204.4745
v -37.15671 0 205.6004
v -38.28267 0 205.6004
v -34.67959 0 204.2493
v -35.58036 0 204.2493
v -34.67959 0 205.3752
v -35.58036 0 205.3752
v -32.65286 0 203.7989
v -33.55363 0 203.7989
v -32.65286 0 204.9249
v -33.55363 0 204.9249
v -36.25594 0 203.1233
v -37.15671 0 203.1233
v -36.25594 0 204.2493
v -37.15671 0 204.2493
v -33.10325 0 203.1233
v -34.00402 0 203.1233
v -33.10325 0 204.2493
v -34.00402 0 204.2493
vt 0.1347656 0.9185662
vt 0.2060202 0.9185662
vt 0.1347656 1
vt 0.2060202 1
vt 0.1347656 0.9185662
vt 0.2060202 0.9185662
vt 0.1347656 1
vt 0.2060202 1
vt 0.1347656 0.9185662
vt 0.2060202 0.9185662
vt 0.1347656 1
vt 0.2060202 1
vt 0.1347656 0.9185662
vt 0.2060202 0.9185662
vt 0.1347656 1
vt 0.2060202 1
vt 0.1347656 0.9185662
vt 0.2060202 0.9185662
vt 0.1347656 1
vt 0.2060202 1
vt 0.1347656 0.9185662
vt 0.2060202 0.9185662
vt 0.1347656 1
vt 0.2060202 1
vt 0.1347656 0.9185662
vt 0.2060202 0.9185662
vt 0.1347656 1
vt 0.2060202 1
vt 0.1347656 0.9185662
vt 0.2060202 0.9185662
vt 0.1347656 1
vt 0.2060202 1
vt 0.1347656 0.9185662
vt 0.2060202 0.9185662
vt 0.1347656 1
vt 0.2060202 1
vt 0.1347656 0.9185662
vt 0.2060202 0.9185662
vt 0.1347656 1
vt 0.2060202 1
vt 0.1347656 0.9185662
vt 0.2060202 0.9185662
vt 0.1347656 1
vt 0.2060202 1
vt 0.1347656 0.9185662
vt 0.2060202 0.9185662
vt 0.1347656 1
vt 0.2060202 1
vt 0.1347656 0.9185662
vt 0.2060202 0.9185662
vt 0.1347656 1
vt 0.2060202 1
vt 0.1347656 0.9185662
vt 0.2060202 0.9185662
vt 0.1347656 1
vt 0.2060202 1
vt 0.1347656 0.9185662
vt 0.2060202 0.9185662
vt 0.1347656 1
vt 0.2060202 1
vt 0.1347656 0.9185662
vt 0.2060202 0.9185662
vt 0.1347656 1
vt 0.2060202 1
vt 0.1347656 0.9185662
vt 0.2060202 0.9185662
vt 0.1347656 1
vt 0.2060202 1
vt 0.1347656 0.9185662
vt 0.2060202 0.9185662
vt 0.1347656 1
vt 0.2060202 1
vt 0.1347656 0.9185662
vt 0.2060202 0.9185662
vt 0.1347656 1
vt 0.2060202 1
vt 0.1347656 0.9185662
vt 0.2060202 0.9185662
vt 0.1347656 1
vt 0.2060202 1
vt 0.1347656 0.9185662
vt 0.2060202 0.9185662
vt 0.1347656 1
vt 0.2060202 1
vt 0.1347656 0.9185662
vt 0.2060202 0.9185662
vt 0.1347656 1
vt 0.2060202 1
vt 0.1347656 0.9185662
vt 0.2060202 0.9185662
vt 0.1347656 1
vt 0.2060202 1
vt 0.1347656 0.9185662
vt 0.2060202 0.9185662
vt 0.1347656 1
vt 0.2060202 1
vt 0.1347656 0.9185662
vt 0.2060202 0.9185662
vt 0.1347656 1
vt 0.2060202 1
vt 0.1347656 0.9185662
vt 0.2060202 0.9185662
vt 0.1347656 1
vt 0.2060202 1
vt 0.1347656 0.9185662
vt 0.2060202 0.9185662
vt 0.1347656 1
vt 0.2060202 1
vt 0.1347656 0.9185662
vt 0.2060202 0.9185662
vt 0.1347656 1
vt 0.2060202 1
vt 0.1347656 0.9185662
vt 0.2060202 0.9185662
vt 0.1347656 1
vt 0.2060202 1
vt 0.1347656 0.9185662
vt 0.2060202 0.9185662
vt 0.1347656 1
vt 0.2060202 1
vt 0.1347656 0.9185662
vt 0.2060202 0.9185662
vt 0.1347656 1
vt 0.2060202 1
vt 0.1347656 0.9185662
vt 0.2060202 0.9185662
vt 0.1347656 1
vt 0.2060202 1
vt 0.1347656 0.9185662
vt 0.2060202 0.9185662
vt 0.1347656 1
vt 0.2060202 1
vt 0.1347656 0.9185662
vt 0.2060202 0.9185662
vt 0.1347656 1
vt 0.2060202 1
vt 0.1347656 0.9185662
vt 0.2060202 0.9185662
vt 0.1347656 1
vt 0.2060202 1
vt 0.1347656 0.9185662
vt 0.2060202 0.9185662
vt 0.1347656 1
vt 0.2060202 1
vt 0.1347656 0.9185662
vt 0.2060202 0.9185662
vt 0.1347656 1
vt 0.2060202 1
vt 0.1347656 0.9185662
vt 0.2060202 0.9185662
vt 0.1347656 1
vt 0.2060202 1
vt 0.1347656 0.9185662
vt 0.2060202 0.9185662
vt 0.1347656 1
vt 0.2060202 1
vt 0.1347656 0.9185662
vt 0.2060202 0.9185662
vt 0.1347656 1
vt 0.2060202 1
vt 0.1347656 0.9185662
vt 0.2060202 0.9185662
vt 0.1347656 1
vt 0.2060202 1
vt 0.1347656 0.9185662
vt 0.2060202 0.9185662
vt 0.1347656 1
vt 0.2060202 1
vt 0.1347656 0.9185662
vt 0.2060202 0.9185662
vt 0.1347656 1
vt 0.2060202 1
vt 0.1347656 0.9185662
vt 0.2060202 0.9185662
vt 0.1347656 1
vt 0.2060202 1
vt 0.1347656 0.9185662
vt 0.2060202 0.9185662
vt 0.1347656 1
vt 0.2060202 1
vt 0.1347656 0.9185662
vt 0.2060202 0.9185662
vt 0.1347656 1
vt 0.2060202 1
vt 0.1347656 0.9185662
vt 0.2060202 0.9185662
vt 0.1347656 1
vt 0.2060202 1
vt 0.1347656 0.9185662
vt 0.2060202 0.9185662
vt 0.1347656 1
vt 0.2060202 1
vt 0.1347656 0.9185662
vt 0.2060202 0.9185662
vt 0.1347656 1
vt 0.2060202 1
vt 0.1347656 0.9185662
vt 0.2060202 0.9185662
vt 0.1347656 1
vt 0.2060202 1
vt 0.1347656 0.9185662
vt 0.2060202 0.9185662
vt 0.1347656 1
vt 0.2060202 1
vt 0.1347656 0.9185662
vt 0.2060202 0.9185662
vt 0.1347656 1
vt 0.2060202 1
vt 0.1347656 0.9185662
vt 0.2060202 0.9185662
vt 0.1347656 1
vt 0.2060202 1
vt 0.1347656 0.9185662
vt 0.2060202 0.9185662
vt 0.1347656 1
vt 0.2060202 1
vt 0.1347656 0.9185662
vt 0.2060202 0.9185662
vt 0.1347656 1
vt 0.2060202 1
vt 0.1347656 0.9185662
vt 0.2060202 0.9185662
vt 0.1347656 1
vt 0.2060202 1
vt 0.1347656 0.9185662
vt 0.2060202 0.9185662
vt 0.1347656 1
vt 0.2060202 1
vt 0.1347656 0.9185662
vt 0.2060202 0.9185662
vt 0.1347656 1
vt 0.2060202 1
vt 0.1347656 0.9185662
vt 0.2060202 0.9185662
vt 0.1347656 1
vt 0.2060202 1
vt 0.1347656 0.9185662
vt 0.2060202 0.9185662
vt 0.1347656 1
vt 0.2060202 1
vt 0.1347656 0.9185662
vt 0.2060202 0.9185662
vt 0.1347656 1
vt 0.2060202 1
vt 0.1347656 0.9185662
vt 0.2060202 0.9185662
vt 0.1347656 1
vt 0.2060202 1
vt 0.1347656 0.9185662
vt 0.2060202 0.9185662
vt 0.1347656 1
vt 0.2060202 1
vt 0.1347656 0.9185662
vt 0.2060202 0.9185662
vt 0.1347656 1
vt 0.2060202 1
vt 0.1347656 0.9185662
vt 0.2060202 0.9185662
vt 0.1347656 1
vt 0.2060202 1
vt 0.1347656 0.9185662
vt 0.2060202 0.9185662
vt 0.1347656 1
vt 0.2060202 1
vn 0 1 0
vn 0 1 0
vn 0 1 0
vn 0 1 0
vn 0 1 0
vn 0 1 0
vn 0 1 0
vn 0 1 0
vn 0 1 0
vn 0 1 0
vn 0 1 0
vn 0 1 0
vn 0 1 0
vn 0 1 0
vn 0 1 0
vn 0 1 0
vn 0 1 0
vn 0 1 0
vn 0 1 0
vn 0 1 0
vn 0 1 0
vn 0 1 0
vn 0 1 0
vn 0 1 0
vn 0 1 0
vn 0 1 0
vn 0 1 0
vn 0 1 0
vn 0 1 0
vn 0 1 0
vn 0 1 0
vn 0 1 0
vn 0 1 0
vn 0 1 0
vn 0 1 0
vn 0 1 0
vn 0 1 0
vn 0 1 0
vn 0 1 0
vn 0 1 0
vn 0 1 0
vn 0 1 0
vn 0 1 0
vn 0 1 0
vn 0 1 0
vn 0 1 0
vn 0 1 0
vn 0 1 0
vn 0 1 0
vn 0 1 0
vn 0 1 0
vn 0 1 0
vn 0 1 0
vn 0 1 0
vn 0 1 0
vn 0 1 0
vn 0 1 0
vn 0 1 0
vn 0 1 0
vn 0 1 0
vn 0 1 0
vn 0 1 0
vn 0 1 0
vn 0 1 0
vn 0 1 0
vn 0 1 0
vn 0 1 0
vn 0 1 0
vn 0 1 0
vn 0 1 0
vn 0 1 0
vn 0 1 0
vn 0 1 0
vn 0 1 0
vn 0 1 0
vn 0 1 0
vn 0 1 0
vn 0 1 0
vn 0 1 0
vn 0 1 0
vn 0 1 0
vn 0 1 0
vn 0 1 0
vn 0 1 0
vn 0 1 0
vn 0 1 0
vn 0 1 0
vn 0 1 0
vn 0 1 0
vn 0 1 0
vn 0 1 0
vn 0 1 0
vn 0 1 0
vn 0 1 0
vn 0 1 0
vn 0 1 0
vn 0 1 0
vn 0 1 0
vn 0 1 0
vn 0 1 0
vn 0 1 0
vn 0 1 0
vn 0 1 0
vn 0 1 0
vn 0 1 0
vn 0 1 0
vn 0 1 0
vn 0 1 0
vn 0 1 0
vn 0 1 0
vn 0 1 0
vn 0 1 0
vn 0 1 0
vn 0 1 0
vn 0 1 0
vn 0 1 0
vn 0 1 0
vn 0 1 0
vn 0 1 0
vn 0 1 0
vn 0 1 0
vn 0 1 0
vn 0 1 0
vn 0 1 0
vn 0 1 0
vn 0 1 0
vn 0 1 0
vn 0 1 0
vn 0 1 0
vn 0 1 0
vn 0 1 0
vn 0 1 0
vn 0 1 0
vn 0 1 0
vn 0 1 0
vn 0 1 0
vn 0 1 0
vn 0 1 0
vn 0 1 0
vn 0 1 0
vn 0 1 0
vn 0 1 0
vn 0 1 0
vn 0 1 0
vn 0 1 0
vn 0 1 0
vn 0 1 0
vn 0 1 0
vn 0 1 0
vn 0 1 0
vn 0 1 0
vn 0 1 0
vn 0 1 0
vn 0 1 0
vn 0 1 0
vn 0 1 0
vn 0 1 0
vn 0 1 0
vn 0 1 0
vn 0 1 0
vn 0 1 0
vn 0 1 0
vn 0 1 0
vn 0 1 0
vn 0 1 0
vn 0 1 0
vn 0 1 0
vn 0 1 0
vn 0 1 0
vn 0 1 0
vn 0 1 0
vn 0 1 0
vn 0 1 0
vn 0 1 0
vn 0 1 0
vn 0 1 0
vn 0 1 0
vn 0 1 0
vn 0 1 0
vn 0 1 0
vn 0 1 0
vn 0 1 0
vn 0 1 0
vn 0 1 0
vn 0 1 0
vn 0 1 0
vn 0 1 0
vn 0 1 0
vn 0 1 0
vn 0 1 0
vn 0 1 0
vn 0 1 0
vn 0 1 0
vn 0 1 0
vn 0 1 0
vn 0 1 0
vn 0 1 0
vn 0 1 0
vn 0 1 0
vn 0 1 0
vn 0 1 0
vn 0 1 0
vn 0 1 0
vn 0 1 0
vn 0 1 0
vn 0 1 0
vn 0 1 0
vn 0 1 0
vn 0 1 0
vn 0 1 0
vn 0 1 0
vn 0 1 0
vn 0 1 0
vn 0 1 0
vn 0 1 0
vn 0 1 0
vn 0 1 0
vn 0 1 0
vn 0 1 0
vn 0 1 0
vn 0 1 0
vn 0 1 0
vn 0 1 0
vn 0 1 0
vn 0 1 0
vn 0 1 0
vn 0 1 0
vn 0 1 0
vn 0 1 0
vn 0 1 0
vn 0 1 0
vn 0 1 0
vn 0 1 0
vn 0 1 0
vn 0 1 0
vn 0 1 0
vn 0 1 0
vn 0 1 0
vn 0 1 0
vn 0 1 0
vn 0 1 0
vn 0 1 0
vn 0 1 0
vn 0 1 0
vn 0 1 0
vn 0 1 0
vn 0 1 0
vn 0 1 0
vn 0 1 0
vn 0 1 0
vn 0 1 0
vn 0 1 0
vn 0 1 0
vn 0 1 0
vn 0 1 0
vn 0 1 0
vn 0 1 0
vn 0 1 0
vn 0 1 0
vn 0 1 0
vn 0 1 0
vn 0 1 0
vn 0 1 0
vn 0 1 0
g Grass_2_Cluster171_0
f 2/2/2 3/3/3 1/1/1
f 2/2/2 4/4/4 3/3/3
f 6/6/6 7/7/7 5/5/5
f 6/6/6 8/8/8 7/7/7
f 10/10/10 11/11/11 9/9/9
f 10/10/10 12/12/12 11/11/11
f 14/14/14 15/15/15 13/13/13
f 14/14/14 16/16/16 15/15/15
f 18/18/18 19/19/19 17/17/17
f 18/18/18 20/20/20 19/19/19
f 22/22/22 23/23/23 21/21/21
f 22/22/22 24/24/24 23/23/23
f 26/26/26 27/27/27 25/25/25
f 26/26/26 28/28/28 27/27/27
f 30/30/30 31/31/31 29/29/29
f 30/30/30 32/32/32 31/31/31
f 34/34/34 35/35/35 33/33/33
f 34/34/34 36/36/36 35/35/35
f 38/38/38 39/39/39 37/37/37
f 38/38/38 40/40/40 39/39/39
f 42/42/42 43/43/43 41/41/41
f 42/42/42 44/44/44 43/43/43
f 46/46/46 47/47/47 45/45/45
f 46/46/46 48/48/48 47/47/47
f 50/50/50 51/51/51 49/49/49
f 50/50/50 52/52/52 51/51/51
f 54/54/54 55/55/55 53/53/53
f 54/54/54 56/56/56 55/55/55
f 58/58/58 59/59/59 57/57/57
f 58/58/58 60/60/60 59/59/59
f 62/62/62 63/63/63 61/61/61
f 62/62/62 64/64/64 63/63/63
f 66/66/66 67/67/67 65/65/65
f 66/66/66 68/68/68 67/67/67
f 70/70/70 71/71/71 69/69/69
f 70/70/70 72/72/72 71/71/71
f 74/74/74 75/75/75 73/73/73
f 74/74/74 76/76/76 75/75/75
f 78/78/78 79/79/79 77/77/77
f 78/78/78 80/80/80 79/79/79
f 82/82/82 83/83/83 81/81/81
f 82/82/82 84/84/84 83/83/83
f 86/86/86 87/87/87 85/85/85
f 86/86/86 88/88/88 87/87/87
f 90/90/90 91/91/91 89/89/89
f 90/90/90 92/92/92 91/91/91
f 94/94/94 95/95/95 93/93/93
f 94/94/94 96/96/96 95/95/95
f 98/98/98 99/99/99 97/97/97
f 98/98/98 100/100/100 99/99/99
f 102/102/102 103/103/103 101/101/101
f 102/102/102 104/104/104 103/103/103
f 106/106/106 107/107/107 105/105/105
f 106/106/106 108/108/108 107/107/107
f 110/110/110 111/111/111 109/109/109
f 110/110/110 112/112/112 111/111/111
f 114/114/114 115/115/115 113/113/113
f 114/114/114 116/116/116 115/115/115
f 118/118/118 119/119/119 117/117/117
f 118/118/118 120/120/120 119/119/119
f 122/122/122 123/123/123 121/121/121
f 122/122/122 124/124/124 123/123/123
f 126/126/126 127/127/127 125/125/125
f 126/126/126 128/128/128 127/127/127
f 130/130/130 131/131/131 129/129/129
f 130/130/130 132/132/132 131/131/131
f 134/134/134 135/135/135 133/133/133
f 134/134/134 136/136/136 135/135/135
f 138/138/138 139/139/139 137/137/137
f 138/138/138 140/140/140 139/139/139
f 142/142/142 143/143/143 141/141/141
f 142/142/142 144/144/144 143/143/143
f 146/146/146 147/147/147 145/145/145
f 146/146/146 148/148/148 147/147/147
f 150/150/150 151/151/151 149/149/149
f 150/150/150 152/152/152 151/151/151
f 154/154/154 155/155/155 153/153/153
f 154/154/154 156/156/156 155/155/155
f 158/158/158 159/159/159 157/157/157
f 158/158/158 160/160/160 159/159/159
f 162/162/162 163/163/163 161/161/161
f 162/162/162 164/164/164 163/163/163
f 166/166/166 167/167/167 165/165/165
f 166/166/166 168/168/168 167/167/167
f 170/170/170 171/171/171 169/169/169
f 170/170/170 172/172/172 171/171/171
f 174/174/174 175/175/175 173/173/173
f 174/174/174 176/176/176 175/175/175
f 178/178/178 179/179/179 177/177/177
f 178/178/178 180/180/180 179/179/179
f 182/182/182 183/183/183 181/181/181
f 182/182/182 184/184/184 183/183/183
f 186/186/186 187/187/187 185/185/185
f 186/186/186 188/188/188 187/187/187
f 190/190/190 191/191/191 189/189/189
f 190/190/190 192/192/192 191/191/191
f 194/194/194 195/195/195 193/193/193
f 194/194/194 196/196/196 195/195/195
f 198/198/198 199/199/199 197/197/197
f 198/198/198 200/200/200 199/199/199
f 202/202/202 203/203/203 201/201/201
f 202/202/202 204/204/204 203/203/203
f 206/206/206 207/207/207 205/205/205
f 206/206/206 208/208/208 207/207/207
f 210/210/210 211/211/211 209/209/209
f 210/210/210 212/212/212 211/211/211
f 214/214/214 215/215/215 213/213/213
f 214/214/214 216/216/216 215/215/215
f 218/218/218 219/219/219 217/217/217
f 218/218/218 220/220/220 219/219/219
f 222/222/222 223/223/223 221/221/221
f 222/222/222 224/224/224 223/223/223
f 226/226/226 227/227/227 225/225/225
f 226/226/226 228/228/228 227/227/227
f 230/230/230 231/231/231 229/229/229
f 230/230/230 232/232/232 231/231/231
f 234/234/234 235/235/235 233/233/233
f 234/234/234 236/236/236 235/235/235
f 238/238/238 239/239/239 237/237/237
f 238/238/238 240/240/240 239/239/239
f 242/242/242 243/243/243 241/241/241
f 242/242/242 244/244/244 243/243/243
f 246/246/246 247/247/247 245/245/245
f 246/246/246 248/248/248 247/247/247
f 250/250/250 251/251/251 249/249/249
f 250/250/250 252/252/252 251/251/251
f 254/254/254 255/255/255 253/253/253
f 254/254/254 256/256/256 255/255/255
f 258/258/258 259/259/259 257/257/257
f 258/258/258 260/260/260 259/259/259
f 262/262/262 263/263/263 261/261/261
f 262/262/262 264/264/264 263/263/263
