g Grass_0_Cluster164
v 157.6002 -0.1154938 231.6698
v 156.7926 -0.1154938 231.6698
v 157.6002 -0.1154938 232.8811
v 156.7926 -0.1154938 232.8811
v 160.4269 -0.1154938 231.6698
v 159.6193 -0.1154938 231.6698
v 160.4269 -0.1154938 232.8811
v 159.6193 -0.1154938 232.8811
v 158.8116 -0.1154938 231.2659
v 158.004 -0.1154938 231.2659
v 158.8116 -0.1154938 232.4773
v 158.004 -0.1154938 232.4773
v 151.9469 -0.1154938 229.2469
v 151.1393 -0.1154938 229.2469
v 151.9469 -0.1154938 230.4583
v 151.1393 -0.1154938 230.4583
v 166.484 -0.1154938 227.6317
v 165.2726 -0.1154938 227.6317
v 166.484 -0.1154938 228.8431
v 165.2726 -0.1154938 228.8431
v 173.3487 -0.1154938 226.8241
v 172.5411 -0.1154938 226.8241
v 173.3487 -0.1154938 228.0355
v 172.5411 -0.1154938 228.0355
v 170.1183 -0.1154938 226.4202
v 168.9068 -0.1154938 226.4202
v 170.1183 -0.1154938 227.6317
v 168.9068 -0.1154938 227.6317
v 173.3487 -0.1154938 226.0164
v 172.5411 -0.1154938 226.0164
v 173.3487 -0.1154938 227.2279
v 172.5411 -0.1154938 227.2279
v 176.983 -0.1154938 225.6126
v 176.1754 -0.1154938 225.6126
v 176.983 -0.1154938 226.8241
v 176.1754 -0.1154938 226.8241
v 174.9639 -0.1154938 225.6126
v 173.7525 -0.1154938 225.6126
v 174.9639 -0.1154938 226.8241
v 173.7525 -0.1154938 226.8241
v 163.2535 -0.1154938 225.6126
v 162.4459 -0.1154938 225.6126
v 163.2535 -0.1154938 226.8241
v 162.4459 -0.1154938 226.8241
v 164.8688 -0.1154938 225.2088
v 164.0611 -0.1154938 225.2088
v 164.8688 -0.1154938 226.4202
v 164.0611 -0.1154938 226.4202
v 175.7715 -0.1154938 225.2088
v 174.9639 -0.1154938 225.2088
v 175.7715 -0.1154938 226.4202
v 174.9639 -0.1154938 226.4202
v 177.3868 -0.1154938 224.4012
v 176.5792 -0.1154938 224.4012
v 177.3868 -0.1154938 225.6126
v 176.5792 -0.1154938 225.6126
v 175.3677 -0.1154938 224.4012
v 174.5601 -0.1154938 224.4012
v 175.3677 -0.1154938 225.6126
v 174.5601 -0.1154938 225.6126
v 173.3487 -0.1154938 223.9974
v 172.5411 -0.1154938 223.9974
v 173.3487 -0.1154938 225.2088
v 172.5411 -0.1154938 225.2088
v 163.6573 -0.1154938 223.9974
v 162.8497 -0.1154938 223.9974
v 163.6573 -0.1154938 225.2088
v 162.8497 -0.1154938 225.2088
v 174.9639 -0.1154938 223.9974
v 174.1563 -0.1154938 223.9974
v 174.9639 -0.1154938 225.2088
v 174.1563 -0.1154938 225.2088
v 180.2134 -0.1154938 223.5936
v 179.4058 -0.1154938 223.5936
v 180.2134 -0.1154938 224.805
v 179.4058 -0.1154938 224.805
v 158.4078 -0.1154938 223.5936
v 157.1964 -0.1154938 223.5936
v 158.4078 -0.1154938 224.805
v 157.1964 -0.1154938 224.805
v 176.5792 -0.1154938 223.5936
v 175.7715 -0.1154938 223.5936
v 176.5792 -0.1154938 224.805
v 175.7715 -0.1154938 224.805
v 160.4269 -0.1154938 223.5936
v 159.6193 -0.1154938 223.5936
v 160.4269 -0.1154938 224.805
v 159.6193 -0.1154938 224.805
v 160.4269 -0.1154938 221.5746
v 159.6193 -0.1154938 221.5746
v 160.4269 -0.1154938 222.786
v 159.6193 -0.1154938 222.786
v 158.8116 -0.1154938 221.1708
v 157.6002 -0.1154938 221.1708
v 158.8116 -0.1154938 222.3822
v 157.6002 -0.1154938 222.3822
v 174.9639 -0.1154938 221.1708
v 174.1563 -0.1154938 221.1708
v 174.9639 -0.1154938 222.3822
v 174.1563 -0.1154938 222.3822
v 163.2535 -0.1154938 221.1708
v 162.4459 -0.1154938 221.1708
v 163.2535 -0.1154938 222.3822
v 162.4459 -0.1154938 222.3822
v 160.4269 -0.1154938 220.767
v 159.6193 -0.1154938 220.767
v 160.4269 -0.1154938 221.9784
v 159.6193 -0.1154938 221.9784
v 161.6383 -0.1154938 220.767
v 160.8307 -0.1154938 220.767
v 161.6383 -0.1154938 221.9784
v 160.8307 -0.1154938 221.9784
v 158.8116 -0.1154938 220.3631
v 158.004 -0.1154938 220.3631
v 158.8116 -0.1154938 221.5746
v 158.004 -0.1154938 221.5746
v 173.7525 -0.1154938 219.9593
v 172.9449 -0.1154938 219.9593
v 173.7525 -0.1154938 221.1708
v 172.9449 -0.1154938 221.1708
v 163.2535 -0.1154938 219.9593
v 162.4459 -0.1154938 219.9593
v 163.2535 -0.1154938 221.1708
v 162.4459 -0.1154938 221.1708
v 161.6383 -0.1154938 219.9593
v 160.4269 -0.1154938 219.9593
v 161.6383 -0.1154938 221.1708
v 160.4269 -0.1154938 221.1708
v 160.0231 -0.1154938 219.5555
v 159.2155 -0.1154938 219.5555
v 160.0231 -0.1154938 220.767
v 159.2155 -0.1154938 220.767
v 162.8497 -0.1154938 218.7479
v 161.6383 -0.1154938 218.7479
v 162.8497 -0.1154938 219.9593
v 161.6383 -0.1154938 219.9593
v 161.2345 -0.1154938 218.7479
v 160.4269 -0.1154938 218.7479
v 161.2345 -0.1154938 219.9593
v 160.4269 -0.1154938 219.9593
v 158.4078 -0.1154938 218.3441
v 157.6002 -0.1154938 218.3441
v 158.4078 -0.1154938 219.5555
v 157.6002 -0.1154938 219.5555
v 161.6383 -0.1154938 217.9403
v 160.8307 -0.1154938 217.9403
v 161.6383 -0.1154938 219.1517
v 160.8307 -0.1154938 219.1517
v 162.8497 -0.1154938 217.1327
v 162.0421 -0.1154938 217.1327
v 162.8497 -0.1154938 218.3441
v 162.0421 -0.1154938 218.3441
v 175.7715 -0.1154938 213.4984
v 174.9639 -0.1154938 213.4984
v 175.7715 -0.1154938 214.7099
v 174.9639 -0.1154938 214.7099
v 178.1944 -0.1154938 212.287
v 177.3868 -0.1154938 212.287
v 178.1944 -0.1154938 213.4984
v 177.3868 -0.1154938 213.4984
v 152.3507 -0.1154938 211.8832
v 151.5431 -0.1154938 211.8832
v 152.3507 -0.1154938 213.4984
v 151.5431 -0.1154938 213.4984
v 179.8096 -0.1154938 211.0756
v 179.002 -0.1154938 211.0756
v 179.8096 -0.1154938 212.287
v 179.002 -0.1154938 212.287
v 179.002 -0.1154938 210.6718
v 178.1944 -0.1154938 210.6718
v 179.002 -0.1154938 211.8832
v 178.1944 -0.1154938 211.8832
v 151.9469 -0.1154938 209.8642
v 150.7355 -0.1154938 209.8642
v 151.9469 -0.1154938 211.0756
v 150.7355 -0.1154938 211.0756
v 152.3507 -0.1154938 209.0565
v 151.1393 -0.1154938 209.0565
v 152.3507 -0.1154938 210.268
v 151.1393 -0.1154938 210.268
v 151.5431 -0.1154938 208.2489
v 150.7355 -0.1154938 208.2489
v 151.5431 -0.1154938 209.4603
v 150.7355 -0.1154938 209.4603
v 155.5812 -0.1154938 207.8451
v 154.7736 -0.1154938 207.8451
v 155.5812 -0.1154938 209.0565
v 154.7736 -0.1154938 209.0565
v 150.7355 -0.1154938 207.0375
v 149.9279 -0.1154938 207.0375
v 150.7355 -0.1154938 208.2489
v 149.9279 -0.1154938 208.2489
v 167.2916 -0.1154938 206.6337
v 166.0802 -0.1154938 206.6337
v 167.2916 -0.1154938 207.8451
v 166.0802 -0.1154938 207.8451
v 170.1183 -0.1154938 206.2299
v 169.3106 -0.1154938 206.2299
v 170.1183 -0.1154938 207.4413
v 169.3106 -0.1154938 207.4413
v 169.7144 -0.1154938 203.8071
v 168.503 -0.1154938 203.8071
v 169.7144 -0.1154938 205.0185
v 168.503 -0.1154938 205.0185
vt 0 0.9058824
vt 0.06666667 0.9058824
vt 0 1
vt 0.06666667 1
vt 0 0.9058824
vt 0.06666667 0.9058824
vt 0 1
vt 0.06666667 1
vt 0 0.9058824
vt 0.06666667 0.9058824
vt 0 1
vt 0.06666667 1
vt 0 0.9058824
vt 0.06666667 0.9058824
vt 0 1
vt 0.06666667 1
vt 0 0.9058824
vt 0.06666667 0.9058824
vt 0 1
vt 0.06666667 1
vt 0 0.9058824
vt 0.06666667 0.9058824
vt 0 1
vt 0.06666667 1
vt 0 0.9058824
vt 0.06666667 0.9058824
vt 0 1
vt 0.06666667 1
vt 0 0.9058824
vt 0.06666667 0.9058824
vt 0 1
vt 0.06666667 1
vt 0 0.9058824
vt 0.06666667 0.9058824
vt 0 1
vt 0.06666667 1
vt 0 0.9058824
vt 0.06666667 0.9058824
vt 0 1
vt 0.06666667 1
vt 0 0.9058824
vt 0.06666667 0.9058824
vt 0 1
vt 0.06666667 1
vt 0 0.9058824
vt 0.06666667 0.9058824
vt 0 1
vt 0.06666667 1
vt 0 0.9058824
vt 0.06666667 0.9058824
vt 0 1
vt 0.06666667 1
vt 0 0.9058824
vt 0.06666667 0.9058824
vt 0 1
vt 0.06666667 1
vt 0 0.9058824
vt 0.06666667 0.9058824
vt 0 1
vt 0.06666667 1
vt 0 0.9058824
vt 0.06666667 0.9058824
vt 0 1
vt 0.06666667 1
vt 0 0.9058824
vt 0.06666667 0.9058824
vt 0 1
vt 0.06666667 1
vt 0 0.9058824
vt 0.06666667 0.9058824
vt 0 1
vt 0.06666667 1
vt 0 0.9058824
vt 0.06666667 0.9058824
vt 0 1
vt 0.06666667 1
vt 0 0.9058824
vt 0.06666667 0.9058824
vt 0 1
vt 0.06666667 1
vt 0 0.9058824
vt 0.06666667 0.9058824
vt 0 1
vt 0.06666667 1
vt 0 0.9058824
vt 0.06666667 0.9058824
vt 0 1
vt 0.06666667 1
vt 0 0.9058824
vt 0.06666667 0.9058824
vt 0 1
vt 0.06666667 1
vt 0 0.9058824
vt 0.06666667 0.9058824
vt 0 1
vt 0.06666667 1
vt 0 0.9058824
vt 0.06666667 0.9058824
vt 0 1
vt 0.06666667 1
vt 0 0.9058824
vt 0.06666667 0.9058824
vt 0 1
vt 0.06666667 1
vt 0 0.9058824
vt 0.06666667 0.9058824
vt 0 1
vt 0.06666667 1
vt 0 0.9058824
vt 0.06666667 0.9058824
vt 0 1
vt 0.06666667 1
vt 0 0.9058824
vt 0.06666667 0.9058824
vt 0 1
vt 0.06666667 1
vt 0 0.9058824
vt 0.06666667 0.9058824
vt 0 1
vt 0.06666667 1
vt 0 0.9058824
vt 0.06666667 0.9058824
vt 0 1
vt 0.06666667 1
vt 0 0.9058824
vt 0.06666667 0.9058824
vt 0 1
vt 0.06666667 1
vt 0 0.9058824
vt 0.06666667 0.9058824
vt 0 1
vt 0.06666667 1
vt 0 0.9058824
vt 0.06666667 0.9058824
vt 0 1
vt 0.06666667 1
vt 0 0.9058824
vt 0.06666667 0.9058824
vt 0 1
vt 0.06666667 1
vt 0 0.9058824
vt 0.06666667 0.9058824
vt 0 1
vt 0.06666667 1
vt 0 0.9058824
vt 0.06666667 0.9058824
vt 0 1
vt 0.06666667 1
vt 0 0.9058824
vt 0.06666667 0.9058824
vt 0 1
vt 0.06666667 1
vt 0 0.9058824
vt 0.06666667 0.9058824
vt 0 1
vt 0.06666667 1
vt 0 0.9058824
vt 0.06666667 0.9058824
vt 0 1
vt 0.06666667 1
vt 0 0.9058824
vt 0.06666667 0.9058824
vt 0 1
vt 0.06666667 1
vt 0 0.9058824
vt 0.06666667 0.9058824
vt 0 1
vt 0.06666667 1
vt 0 0.9058824
vt 0.06666667 0.9058824
vt 0 1
vt 0.06666667 1
vt 0 0.9058824
vt 0.06666667 0.9058824
vt 0 1
vt 0.06666667 1
vt 0 0.9058824
vt 0.06666667 0.9058824
vt 0 1
vt 0.06666667 1
vt 0 0.9058824
vt 0.06666667 0.9058824
vt 0 1
vt 0.06666667 1
vt 0 0.9058824
vt 0.06666667 0.9058824
vt 0 1
vt 0.06666667 1
vt 0 0.9058824
vt 0.06666667 0.9058824
vt 0 1
vt 0.06666667 1
vt 0 0.9058824
vt 0.06666667 0.9058824
vt 0 1
vt 0.06666667 1
vt 0 0.9058824
vt 0.06666667 0.9058824
vt 0 1
vt 0.06666667 1
vt 0 0.9058824
vt 0.06666667 0.9058824
vt 0 1
vt 0.06666667 1
vn 0 1 0
vn 0 1 0
vn 0 1 0
vn 0 1 0
vn 0 1 0
vn 0 1 0
vn 0 1 0
vn 0 1 0
vn 0 1 0
vn 0 1 0
vn 0 1 0
vn 0 1 0
vn 0 1 0
vn 0 1 0
vn 0 1 0
vn 0 1 0
vn 0 1 0
vn 0 1 0
vn 0 1 0
vn 0 1 0
vn 0 1 0
vn 0 1 0
vn 0 1 0
vn 0 1 0
vn 0 1 0
vn 0 1 0
vn 0 1 0
vn 0 1 0
vn 0 1 0
vn 0 1 0
vn 0 1 0
vn 0 1 0
vn 0 1 0
vn 0 1 0
vn 0 1 0
vn 0 1 0
vn 0 1 0
vn 0 1 0
vn 0 1 0
vn 0 1 0
vn 0 1 0
vn 0 1 0
vn 0 1 0
vn 0 1 0
vn 0 1 0
vn 0 1 0
vn 0 1 0
vn 0 1 0
vn 0 1 0
vn 0 1 0
vn 0 1 0
vn 0 1 0
vn 0 1 0
vn 0 1 0
vn 0 1 0
vn 0 1 0
vn 0 1 0
vn 0 1 0
vn 0 1 0
vn 0 1 0
vn 0 1 0
vn 0 1 0
vn 0 1 0
vn 0 1 0
vn 0 1 0
vn 0 1 0
vn 0 1 0
vn 0 1 0
vn 0 1 0
vn 0 1 0
vn 0 1 0
vn 0 1 0
vn 0 1 0
vn 0 1 0
vn 0 1 0
vn 0 1 0
vn 0 1 0
vn 0 1 0
vn 0 1 0
vn 0 1 0
vn 0 1 0
vn 0 1 0
vn 0 1 0
vn 0 1 0
vn 0 1 0
vn 0 1 0
vn 0 1 0
vn 0 1 0
vn 0 1 0
vn 0 1 0
vn 0 1 0
vn 0 1 0
vn 0 1 0
vn 0 1 0
vn 0 1 0
vn 0 1 0
vn 0 1 0
vn 0 1 0
vn 0 1 0
vn 0 1 0
vn 0 1 0
vn 0 1 0
vn 0 1 0
vn 0 1 0
vn 0 1 0
vn 0 1 0
vn 0 1 0
vn 0 1 0
vn 0 1 0
vn 0 1 0
vn 0 1 0
vn 0 1 0
vn 0 1 0
vn 0 1 0
vn 0 1 0
vn 0 1 0
vn 0 1 0
vn 0 1 0
vn 0 1 0
vn 0 1 0
vn 0 1 0
vn 0 1 0
vn 0 1 0
vn 0 1 0
vn 0 1 0
vn 0 1 0
vn 0 1 0
vn 0 1 0
vn 0 1 0
vn 0 1 0
vn 0 1 0
vn 0 1 0
vn 0 1 0
vn 0 1 0
vn 0 1 0
vn 0 1 0
vn 0 1 0
vn 0 1 0
vn 0 1 0
vn 0 1 0
vn 0 1 0
vn 0 1 0
vn 0 1 0
vn 0 1 0
vn 0 1 0
vn 0 1 0
vn 0 1 0
vn 0 1 0
vn 0 1 0
vn 0 1 0
vn 0 1 0
vn 0 1 0
vn 0 1 0
vn 0 1 0
vn 0 1 0
vn 0 1 0
vn 0 1 0
vn 0 1 0
vn 0 1 0
vn 0 1 0
vn 0 1 0
vn 0 1 0
vn 0 1 0
vn 0 1 0
vn 0 1 0
vn 0 1 0
vn 0 1 0
vn 0 1 0
vn 0 1 0
vn 0 1 0
vn 0 1 0
vn 0 1 0
vn 0 1 0
vn 0 1 0
vn 0 1 0
vn 0 1 0
vn 0 1 0
vn 0 1 0
vn 0 1 0
vn 0 1 0
vn 0 1 0
vn 0 1 0
vn 0 1 0
vn 0 1 0
vn 0 1 0
vn 0 1 0
vn 0 1 0
vn 0 1 0
vn 0 1 0
vn 0 1 0
vn 0 1 0
vn 0 1 0
vn 0 1 0
vn 0 1 0
vn 0 1 0
vn 0 1 0
vn 0 1 0
vn 0 1 0
vn 0 1 0
vn 0 1 0
vn 0 1 0
vn 0 1 0
vn 0 1 0
vn 0 1 0
g Grass_0_Cluster164_0
f 2/2/2 3/3/3 1/1/1
f 2/2/2 4/4/4 3/3/3
f 6/6/6 7/7/7 5/5/5
f 6/6/6 8/8/8 7/7/7
f 10/10/10 11/11/11 9/9/9
f 10/10/10 12/12/12 11/11/11
f 14/14/14 15/15/15 13/13/13
f 14/14/14 16/16/16 15/15/15
f 18/18/18 19/19/19 17/17/17
f 18/18/18 20/20/20 19/19/19
f 22/22/22 23/23/23 21/21/21
f 22/22/22 24/24/24 23/23/23
f 26/26/26 27/27/27 25/25/25
f 26/26/26 28/28/28 27/27/27
f 30/30/30 31/31/31 29/29/29
f 30/30/30 32/32/32 31/31/31
f 34/34/34 35/35/35 33/33/33
f 34/34/34 36/36/36 35/35/35
f 38/38/38 39/39/39 37/37/37
f 38/38/38 40/40/40 39/39/39
f 42/42/42 43/43/43 41/41/41
f 42/42/42 44/44/44 43/43/43
f 46/46/46 47/47/47 45/45/45
f 46/46/46 48/48/48 47/47/47
f 50/50/50 51/51/51 49/49/49
f 50/50/50 52/52/52 51/51/51
f 54/54/54 55/55/55 53/53/53
f 54/54/54 56/56/56 55/55/55
f 58/58/58 59/59/59 57/57/57
f 58/58/58 60/60/60 59/59/59
f 62/62/62 63/63/63 61/61/61
f 62/62/62 64/64/64 63/63/63
f 66/66/66 67/67/67 65/65/65
f 66/66/66 68/68/68 67/67/67
f 70/70/70 71/71/71 69/69/69
f 70/70/70 72/72/72 71/71/71
f 74/74/74 75/75/75 73/73/73
f 74/74/74 76/76/76 75/75/75
f 78/78/78 79/79/79 77/77/77
f 78/78/78 80/80/80 79/79/79
f 82/82/82 83/83/83 81/81/81
f 82/82/82 84/84/84 83/83/83
f 86/86/86 87/87/87 85/85/85
f 86/86/86 88/88/88 87/87/87
f 90/90/90 91/91/91 89/89/89
f 90/90/90 92/92/92 91/91/91
f 94/94/94 95/95/95 93/93/93
f 94/94/94 96/96/96 95/95/95
f 98/98/98 99/99/99 97/97/97
f 98/98/98 100/100/100 99/99/99
f 102/102/102 103/103/103 101/101/101
f 102/102/102 104/104/104 103/103/103
f 106/106/106 107/107/107 105/105/105
f 106/106/106 108/108/108 107/107/107
f 110/110/110 111/111/111 109/109/109
f 110/110/110 112/112/112 111/111/111
f 114/114/114 115/115/115 113/113/113
f 114/114/114 116/116/116 115/115/115
f 118/118/118 119/119/119 117/117/117
f 118/118/118 120/120/120 119/119/119
f 122/122/122 123/123/123 121/121/121
f 122/122/122 124/124/124 123/123/123
f 126/126/126 127/127/127 125/125/125
f 126/126/126 128/128/128 127/127/127
f 130/130/130 131/131/131 129/129/129
f 130/130/130 132/132/132 131/131/131
f 134/134/134 135/135/135 133/133/133
f 134/134/134 136/136/136 135/135/135
f 138/138/138 139/139/139 137/137/137
f 138/138/138 140/140/140 139/139/139
f 142/142/142 143/143/143 141/141/141
f 142/142/142 144/144/144 143/143/143
f 146/146/146 147/147/147 145/145/145
f 146/146/146 148/148/148 147/147/147
f 150/150/150 151/151/151 149/149/149
f 150/150/150 152/152/152 151/151/151
f 154/154/154 155/155/155 153/153/153
f 154/154/154 156/156/156 155/155/155
f 158/158/158 159/159/159 157/157/157
f 158/158/158 160/160/160 159/159/159
f 162/162/162 163/163/163 161/161/161
f 162/162/162 164/164/164 163/163/163
f 166/166/166 167/167/167 165/165/165
f 166/166/166 168/168/168 167/167/167
f 170/170/170 171/171/171 169/169/169
f 170/170/170 172/172/172 171/171/171
f 174/174/174 175/175/175 173/173/173
f 174/174/174 176/176/176 175/175/175
f 178/178/178 179/179/179 177/177/177
f 178/178/178 180/180/180 179/179/179
f 182/182/182 183/183/183 181/181/181
f 182/182/182 184/184/184 183/183/183
f 186/186/186 187/187/187 185/185/185
f 186/186/186 188/188/188 187/187/187
f 190/190/190 191/191/191 189/189/189
f 190/190/190 192/192/192 191/191/191
f 194/194/194 195/195/195 193/193/193
f 194/194/194 196/196/196 195/195/195
f 198/198/198 199/199/199 197/197/197
f 198/198/198 200/200/200 199/199/199
f 202/202/202 203/203/203 201/201/201
f 202/202/202 204/204/204 203/203/203
