g Grass_0_Cluster3
v 192.3047 0 -7.404251
v 191.2763 0 -7.404251
v 192.3047 0 -6.170212
v 191.2763 0 -6.170212
v 192.716 0 -9.049637
v 191.8933 0 -9.049637
v 192.716 0 -7.815598
v 191.8933 0 -7.815598
v 191.0706 0 -9.666656
v 190.0423 0 -9.666656
v 191.0706 0 -8.432617
v 190.0423 0 -8.432617
v 191.8933 0 -10.9007
v 190.865 0 -10.9007
v 191.8933 0 -9.460983
v 190.865 0 -9.460983
v 192.5104 0 -11.51772
v 191.6877 0 -11.51772
v 192.5104 0 -10.28368
v 191.6877 0 -10.28368
v 192.3047 0 -12.13474
v 191.6877 0 -12.13474
v 192.3047 0 -11.10637
v 191.6877 0 -11.10637
v 210.4039 0 -12.34041
v 209.5813 0 -12.34041
v 210.4039 0 -11.10637
v 209.5813 0 -11.10637
v 193.5387 0 -12.13474
v 192.716 0 -12.13474
v 193.5387 0 -11.10637
v 192.716 0 -11.10637
v 190.4536 0 -12.54608
v 189.6309 0 -12.54608
v 190.4536 0 -11.51772
v 189.6309 0 -11.51772
v 190.0423 0 -12.75175
v 189.2196 0 -12.75175
v 190.0423 0 -11.51772
v 189.2196 0 -11.51772
v 192.9217 0 -12.95743
v 192.099 0 -12.95743
v 192.9217 0 -11.72339
v 192.099 0 -11.72339
v 191.0706 0 -13.1631
v 190.0423 0 -13.1631
v 191.0706 0 -11.92906
v 190.0423 0 -11.92906
v 192.099 0 -13.36877
v 191.0706 0 -13.36877
v 192.099 0 -12.13474
v 191.0706 0 -12.13474
v 189.2196 0 -13.36877
v 188.1912 0 -13.36877
v 189.2196 0 -12.13474
v 188.1912 0 -12.13474
v 186.1345 0 -13.78012
v 185.3118 0 -13.78012
v 186.1345 0 -12.54608
v 185.3118 0 -12.54608
v 210.1983 0 -13.78012
v 209.3756 0 -13.78012
v 210.1983 0 -12.54608
v 209.3756 0 -12.54608
v 188.6026 0 -13.98581
v 187.7799 0 -13.98581
v 188.6026 0 -12.54608
v 187.7799 0 -12.54608
v 192.9217 0 -14.19148
v 191.8933 0 -14.19148
v 192.9217 0 -12.95743
v 191.8933 0 -12.95743
v 191.2763 0 -14.60283
v 190.4536 0 -14.60283
v 191.2763 0 -13.36877
v 190.4536 0 -13.36877
v 201.56 0 -14.8085
v 200.7373 0 -14.8085
v 201.56 0 -13.78012
v 200.7373 0 -13.78012
v 189.4253 0 -15.01418
v 188.6026 0 -15.01418
v 189.4253 0 -13.78012
v 188.6026 0 -13.78012
v 190.4536 0 -15.21985
v 189.6309 0 -15.21985
v 190.4536 0 -13.98581
v 189.6309 0 -13.98581
v 192.099 0 -15.42552
v 191.2763 0 -15.42552
v 192.099 0 -14.19148
v 191.2763 0 -14.19148
v 187.1628 0 -15.6312
v 186.1345 0 -15.6312
v 187.1628 0 -14.39716
v 186.1345 0 -14.39716
v 190.248 0 -15.83687
v 189.4253 0 -15.83687
v 190.248 0 -14.39716
v 189.4253 0 -14.39716
v 187.9855 0 -15.83687
v 187.1628 0 -15.83687
v 187.9855 0 -14.60283
v 187.1628 0 -14.60283
v 185.7231 0 -15.83687
v 184.9004 0 -15.83687
v 185.7231 0 -14.60283
v 184.9004 0 -14.60283
v 187.9855 0 -16.04254
v 186.9572 0 -16.04254
v 187.9855 0 -14.8085
v 186.9572 0 -14.8085
v 193.7444 0 -16.24821
v 192.716 0 -16.24821
v 193.7444 0 -14.8085
v 192.716 0 -14.8085
v 186.9572 0 -16.45389
v 185.9288 0 -16.45389
v 186.9572 0 -15.21985
v 185.9288 0 -15.21985
v 189.4253 0 -16.24821
v 188.6026 0 -16.24821
v 189.4253 0 -15.21985
v 188.6026 0 -15.21985
v 190.865 0 -16.45389
v 190.0423 0 -16.45389
v 190.865 0 -15.21985
v 190.0423 0 -15.21985
v 192.5104 0 -16.86523
v 191.6877 0 -16.86523
v 192.5104 0 -15.6312
v 191.6877 0 -15.6312
v 189.8366 0 -17.07091
v 189.0139 0 -17.07091
v 189.8366 0 -15.6312
v 189.0139 0 -15.6312
v 193.1274 0 -17.48225
v 192.3047 0 -17.48225
v 193.1274 0 -16.24821
v 192.3047 0 -16.24821
v 187.5742 0 -17.48225
v 186.7515 0 -17.48225
v 187.5742 0 -16.24821
v 186.7515 0 -16.24821
v 191.6877 0 -17.48225
v 190.865 0 -17.48225
v 191.6877 0 -16.24821
v 190.865 0 -16.24821
v 194.3614 0 -17.8936
v 193.5387 0 -17.8936
v 194.3614 0 -16.65956
v 193.5387 0 -16.65956
v 188.8082 0 -18.09927
v 187.9855 0 -18.09927
v 188.8082 0 -17.07091
v 187.9855 0 -17.07091
v 189.0139 0 -18.30495
v 188.1912 0 -18.30495
v 189.0139 0 -17.07091
v 188.1912 0 -17.07091
v 190.6593 0 -18.51062
v 189.8366 0 -18.51062
v 190.6593 0 -17.27658
v 189.8366 0 -17.27658
v 188.1912 0 -18.51062
v 187.3685 0 -18.51062
v 188.1912 0 -17.27658
v 187.3685 0 -17.27658
v 189.8366 0 -19.12764
v 189.0139 0 -19.12764
v 189.8366 0 -17.8936
v 189.0139 0 -17.8936
v 200.3259 0 -19.12764
v 199.5033 0 -19.12764
v 200.3259 0 -18.09927
v 199.5033 0 -18.09927
v 204.0281 0 -20.77303
v 203.2054 0 -20.77303
v 204.0281 0 -19.53899
v 203.2054 0 -19.53899
v 202.3827 0 -23.2411
v 201.3543 0 -23.2411
v 202.3827 0 -22.00706
v 201.3543 0 -22.00706
v 180.787 0 -25.91486
v 179.9643 0 -25.91486
v 180.787 0 -24.68082
v 179.9643 0 -24.68082
v 195.5955 0 -26.73755
v 194.7728 0 -26.73755
v 195.5955 0 -25.50351
v 194.7728 0 -25.50351
v 201.7657 0 -27.1489
v 200.7373 0 -27.1489
v 201.7657 0 -25.91486
v 200.7373 0 -25.91486
v 200.5316 0 -27.1489
v 199.5033 0 -27.1489
v 200.5316 0 -26.12053
v 199.5033 0 -26.12053
v 200.1203 0 -27.9716
v 199.0919 0 -27.9716
v 200.1203 0 -26.73755
v 199.0919 0 -26.73755
vt 0 0.9058824
vt 0.06666667 0.9058824
vt 0 1
vt 0.06666667 1
vt 0 0.9058824
vt 0.06666667 0.9058824
vt 0 1
vt 0.06666667 1
vt 0 0.9058824
vt 0.06666667 0.9058824
vt 0 1
vt 0.06666667 1
vt 0 0.9058824
vt 0.06666667 0.9058824
vt 0 1
vt 0.06666667 1
vt 0 0.9058824
vt 0.06666667 0.9058824
vt 0 1
vt 0.06666667 1
vt 0 0.9058824
vt 0.06666667 0.9058824
vt 0 1
vt 0.06666667 1
vt 0 0.9058824
vt 0.06666667 0.9058824
vt 0 1
vt 0.06666667 1
vt 0 0.9058824
vt 0.06666667 0.9058824
vt 0 1
vt 0.06666667 1
vt 0 0.9058824
vt 0.06666667 0.9058824
vt 0 1
vt 0.06666667 1
vt 0 0.9058824
vt 0.06666667 0.9058824
vt 0 1
vt 0.06666667 1
vt 0 0.9058824
vt 0.06666667 0.9058824
vt 0 1
vt 0.06666667 1
vt 0 0.9058824
vt 0.06666667 0.9058824
vt 0 1
vt 0.06666667 1
vt 0 0.9058824
vt 0.06666667 0.9058824
vt 0 1
vt 0.06666667 1
vt 0 0.9058824
vt 0.06666667 0.9058824
vt 0 1
vt 0.06666667 1
vt 0 0.9058824
vt 0.06666667 0.9058824
vt 0 1
vt 0.06666667 1
vt 0 0.9058824
vt 0.06666667 0.9058824
vt 0 1
vt 0.06666667 1
vt 0 0.9058824
vt 0.06666667 0.9058824
vt 0 1
vt 0.06666667 1
vt 0 0.9058824
vt 0.06666667 0.9058824
vt 0 1
vt 0.06666667 1
vt 0 0.9058824
vt 0.06666667 0.9058824
vt 0 1
vt 0.06666667 1
vt 0 0.9058824
vt 0.06666667 0.9058824
vt 0 1
vt 0.06666667 1
vt 0 0.9058824
vt 0.06666667 0.9058824
vt 0 1
vt 0.06666667 1
vt 0 0.9058824
vt 0.06666667 0.9058824
vt 0 1
vt 0.06666667 1
vt 0 0.9058824
vt 0.06666667 0.9058824
vt 0 1
vt 0.06666667 1
vt 0 0.9058824
vt 0.06666667 0.9058824
vt 0 1
vt 0.06666667 1
vt 0 0.9058824
vt 0.06666667 0.9058824
vt 0 1
vt 0.06666667 1
vt 0 0.9058824
vt 0.06666667 0.9058824
vt 0 1
vt 0.06666667 1
vt 0 0.9058824
vt 0.06666667 0.9058824
vt 0 1
vt 0.06666667 1
vt 0 0.9058824
vt 0.06666667 0.9058824
vt 0 1
vt 0.06666667 1
vt 0 0.9058824
vt 0.06666667 0.9058824
vt 0 1
vt 0.06666667 1
vt 0 0.9058824
vt 0.06666667 0.9058824
vt 0 1
vt 0.06666667 1
vt 0 0.9058824
vt 0.06666667 0.9058824
vt 0 1
vt 0.06666667 1
vt 0 0.9058824
vt 0.06666667 0.9058824
vt 0 1
vt 0.06666667 1
vt 0 0.9058824
vt 0.06666667 0.9058824
vt 0 1
vt 0.06666667 1
vt 0 0.9058824
vt 0.06666667 0.9058824
vt 0 1
vt 0.06666667 1
vt 0 0.9058824
vt 0.06666667 0.9058824
vt 0 1
vt 0.06666667 1
vt 0 0.9058824
vt 0.06666667 0.9058824
vt 0 1
vt 0.06666667 1
vt 0 0.9058824
vt 0.06666667 0.9058824
vt 0 1
vt 0.06666667 1
vt 0 0.9058824
vt 0.06666667 0.9058824
vt 0 1
vt 0.06666667 1
vt 0 0.9058824
vt 0.06666667 0.9058824
vt 0 1
vt 0.06666667 1
vt 0 0.9058824
vt 0.06666667 0.9058824
vt 0 1
vt 0.06666667 1
vt 0 0.9058824
vt 0.06666667 0.9058824
vt 0 1
vt 0.06666667 1
vt 0 0.9058824
vt 0.06666667 0.9058824
vt 0 1
vt 0.06666667 1
vt 0 0.9058824
vt 0.06666667 0.9058824
vt 0 1
vt 0.06666667 1
vt 0 0.9058824
vt 0.06666667 0.9058824
vt 0 1
vt 0.06666667 1
vt 0 0.9058824
vt 0.06666667 0.9058824
vt 0 1
vt 0.06666667 1
vt 0 0.9058824
vt 0.06666667 0.9058824
vt 0 1
vt 0.06666667 1
vt 0 0.9058824
vt 0.06666667 0.9058824
vt 0 1
vt 0.06666667 1
vt 0 0.9058824
vt 0.06666667 0.9058824
vt 0 1
vt 0.06666667 1
vt 0 0.9058824
vt 0.06666667 0.9058824
vt 0 1
vt 0.06666667 1
vt 0 0.9058824
vt 0.06666667 0.9058824
vt 0 1
vt 0.06666667 1
vt 0 0.9058824
vt 0.06666667 0.9058824
vt 0 1
vt 0.06666667 1
vn 0 1 0
vn 0 1 0
vn 0 1 0
vn 0 1 0
vn 0 1 0
vn 0 1 0
vn 0 1 0
vn 0 1 0
vn 0 1 0
vn 0 1 0
vn 0 1 0
vn 0 1 0
vn 0 1 0
vn 0 1 0
vn 0 1 0
vn 0 1 0
vn 0 1 0
vn 0 1 0
vn 0 1 0
vn 0 1 0
vn 0 1 0
vn 0 1 0
vn 0 1 0
vn 0 1 0
vn 0 1 0
vn 0 1 0
vn 0 1 0
vn 0 1 0
vn 0 1 0
vn 0 1 0
vn 0 1 0
vn 0 1 0
vn 0 1 0
vn 0 1 0
vn 0 1 0
vn 0 1 0
vn 0 1 0
vn 0 1 0
vn 0 1 0
vn 0 1 0
vn 0 1 0
vn 0 1 0
vn 0 1 0
vn 0 1 0
vn 0 1 0
vn 0 1 0
vn 0 1 0
vn 0 1 0
vn 0 1 0
vn 0 1 0
vn 0 1 0
vn 0 1 0
vn 0 1 0
vn 0 1 0
vn 0 1 0
vn 0 1 0
vn 0 1 0
vn 0 1 0
vn 0 1 0
vn 0 1 0
vn 0 1 0
vn 0 1 0
vn 0 1 0
vn 0 1 0
vn 0 1 0
vn 0 1 0
vn 0 1 0
vn 0 1 0
vn 0 1 0
vn 0 1 0
vn 0 1 0
vn 0 1 0
vn 0 1 0
vn 0 1 0
vn 0 1 0
vn 0 1 0
vn 0 1 0
vn 0 1 0
vn 0 1 0
vn 0 1 0
vn 0 1 0
vn 0 1 0
vn 0 1 0
vn 0 1 0
vn 0 1 0
vn 0 1 0
vn 0 1 0
vn 0 1 0
vn 0 1 0
vn 0 1 0
vn 0 1 0
vn 0 1 0
vn 0 1 0
vn 0 1 0
vn 0 1 0
vn 0 1 0
vn 0 1 0
vn 0 1 0
vn 0 1 0
vn 0 1 0
vn 0 1 0
vn 0 1 0
vn 0 1 0
vn 0 1 0
vn 0 1 0
vn 0 1 0
vn 0 1 0
vn 0 1 0
vn 0 1 0
vn 0 1 0
vn 0 1 0
vn 0 1 0
vn 0 1 0
vn 0 1 0
vn 0 1 0
vn 0 1 0
vn 0 1 0
vn 0 1 0
vn 0 1 0
vn 0 1 0
vn 0 1 0
vn 0 1 0
vn 0 1 0
vn 0 1 0
vn 0 1 0
vn 0 1 0
vn 0 1 0
vn 0 1 0
vn 0 1 0
vn 0 1 0
vn 0 1 0
vn 0 1 0
vn 0 1 0
vn 0 1 0
vn 0 1 0
vn 0 1 0
vn 0 1 0
vn 0 1 0
vn 0 1 0
vn 0 1 0
vn 0 1 0
vn 0 1 0
vn 0 1 0
vn 0 1 0
vn 0 1 0
vn 0 1 0
vn 0 1 0
vn 0 1 0
vn 0 1 0
vn 0 1 0
vn 0 1 0
vn 0 1 0
vn 0 1 0
vn 0 1 0
vn 0 1 0
vn 0 1 0
vn 0 1 0
vn 0 1 0
vn 0 1 0
vn 0 1 0
vn 0 1 0
vn 0 1 0
vn 0 1 0
vn 0 1 0
vn 0 1 0
vn 0 1 0
vn 0 1 0
vn 0 1 0
vn 0 1 0
vn 0 1 0
vn 0 1 0
vn 0 1 0
vn 0 1 0
vn 0 1 0
vn 0 1 0
vn 0 1 0
vn 0 1 0
vn 0 1 0
vn 0 1 0
vn 0 1 0
vn 0 1 0
vn 0 1 0
vn 0 1 0
vn 0 1 0
vn 0 1 0
vn 0 1 0
vn 0 1 0
vn 0 1 0
vn 0 1 0
vn 0 1 0
vn 0 1 0
vn 0 1 0
vn 0 1 0
vn 0 1 0
vn 0 1 0
vn 0 1 0
vn 0 1 0
vn 0 1 0
vn 0 1 0
vn 0 1 0
vn 0 1 0
vn 0 1 0
vn 0 1 0
vn 0 1 0
g Grass_0_Cluster3_0
f 2/2/2 3/3/3 1/1/1
f 2/2/2 4/4/4 3/3/3
f 6/6/6 7/7/7 5/5/5
f 6/6/6 8/8/8 7/7/7
f 10/10/10 11/11/11 9/9/9
f 10/10/10 12/12/12 11/11/11
f 14/14/14 15/15/15 13/13/13
f 14/14/14 16/16/16 15/15/15
f 18/18/18 19/19/19 17/17/17
f 18/18/18 20/20/20 19/19/19
f 22/22/22 23/23/23 21/21/21
f 22/22/22 24/24/24 23/23/23
f 26/26/26 27/27/27 25/25/25
f 26/26/26 28/28/28 27/27/27
f 30/30/30 31/31/31 29/29/29
f 30/30/30 32/32/32 31/31/31
f 34/34/34 35/35/35 33/33/33
f 34/34/34 36/36/36 35/35/35
f 38/38/38 39/39/39 37/37/37
f 38/38/38 40/40/40 39/39/39
f 42/42/42 43/43/43 41/41/41
f 42/42/42 44/44/44 43/43/43
f 46/46/46 47/47/47 45/45/45
f 46/46/46 48/48/48 47/47/47
f 50/50/50 51/51/51 49/49/49
f 50/50/50 52/52/52 51/51/51
f 54/54/54 55/55/55 53/53/53
f 54/54/54 56/56/56 55/55/55
f 58/58/58 59/59/59 57/57/57
f 58/58/58 60/60/60 59/59/59
f 62/62/62 63/63/63 61/61/61
f 62/62/62 64/64/64 63/63/63
f 66/66/66 67/67/67 65/65/65
f 66/66/66 68/68/68 67/67/67
f 70/70/70 71/71/71 69/69/69
f 70/70/70 72/72/72 71/71/71
f 74/74/74 75/75/75 73/73/73
f 74/74/74 76/76/76 75/75/75
f 78/78/78 79/79/79 77/77/77
f 78/78/78 80/80/80 79/79/79
f 82/82/82 83/83/83 81/81/81
f 82/82/82 84/84/84 83/83/83
f 86/86/86 87/87/87 85/85/85
f 86/86/86 88/88/88 87/87/87
f 90/90/90 91/91/91 89/89/89
f 90/90/90 92/92/92 91/91/91
f 94/94/94 95/95/95 93/93/93
f 94/94/94 96/96/96 95/95/95
f 98/98/98 99/99/99 97/97/97
f 98/98/98 100/100/100 99/99/99
f 102/102/102 103/103/103 101/101/101
f 102/102/102 104/104/104 103/103/103
f 106/106/106 107/107/107 105/105/105
f 106/106/106 108/108/108 107/107/107
f 110/110/110 111/111/111 109/109/109
f 110/110/110 112/112/112 111/111/111
f 114/114/114 115/115/115 113/113/113
f 114/114/114 116/116/116 115/115/115
f 118/118/118 119/119/119 117/117/117
f 118/118/118 120/120/120 119/119/119
f 122/122/122 123/123/123 121/121/121
f 122/122/122 124/124/124 123/123/123
f 126/126/126 127/127/127 125/125/125
f 126/126/126 128/128/128 127/127/127
f 130/130/130 131/131/131 129/129/129
f 130/130/130 132/132/132 131/131/131
f 134/134/134 135/135/135 133/133/133
f 134/134/134 136/136/136 135/135/135
f 138/138/138 139/139/139 137/137/137
f 138/138/138 140/140/140 139/139/139
f 142/142/142 143/143/143 141/141/141
f 142/142/142 144/144/144 143/143/143
f 146/146/146 147/147/147 145/145/145
f 146/146/146 148/148/148 147/147/147
f 150/150/150 151/151/151 149/149/149
f 150/150/150 152/152/152 151/151/151
f 154/154/154 155/155/155 153/153/153
f 154/154/154 156/156/156 155/155/155
f 158/158/158 159/159/159 157/157/157
f 158/158/158 160/160/160 159/159/159
f 162/162/162 163/163/163 161/161/161
f 162/162/162 164/164/164 163/163/163
f 166/166/166 167/167/167 165/165/165
f 166/166/166 168/168/168 167/167/167
f 170/170/170 171/171/171 169/169/169
f 170/170/170 172/172/172 171/171/171
f 174/174/174 175/175/175 173/173/173
f 174/174/174 176/176/176 175/175/175
f 178/178/178 179/179/179 177/177/177
f 178/178/178 180/180/180 179/179/179
f 182/182/182 183/183/183 181/181/181
f 182/182/182 184/184/184 183/183/183
f 186/186/186 187/187/187 185/185/185
f 186/186/186 188/188/188 187/187/187
f 190/190/190 191/191/191 189/189/189
f 190/190/190 192/192/192 191/191/191
f 194/194/194 195/195/195 193/193/193
f 194/194/194 196/196/196 195/195/195
f 198/198/198 199/199/199 197/197/197
f 198/198/198 200/200/200 199/199/199
f 202/202/202 203/203/203 201/201/201
f 202/202/202 204/204/204 203/203/203
