g TerrainCreep
v 36.07689 -3.814697E-06 -10.13174
v 36.6426 -3.814697E-06 -10.22921
v 36.56334 -3.814697E-06 -10.07799
v 36.25999 -3.814697E-06 -9.973232
v 36.64897 -3.814697E-06 -10.05066
v 36.84392 -3.814697E-06 -10.09348
v 36.59796 -3.814697E-06 -9.979607
v 36.35473 -3.814697E-06 -9.902176
v 36.48682 -3.814697E-06 -9.737293
v 35.56219 -3.814697E-06 -8.574902
v 35.41644 -3.814697E-06 -8.758919
v 36.79929 -3.814697E-06 -9.861183
v 34.19028 -3.814697E-06 -8.077518
v 34.33239 -3.814697E-06 -7.891682
v 33.76213 -3.814697E-06 -7.254005
v 34.00627 -3.814697E-06 -7.182041
v 34.08643 -3.814697E-06 -6.570782
v 33.84685 -3.814697E-06 -6.618153
v 32.79924 -3.814697E-06 -7.564644
v 32.89854 -3.814697E-06 -6.834961
v 32.55602 -3.814697E-06 -7.636612
v 32.66169 -3.814697E-06 -6.868668
v 43.10042 -3.814697E-06 -6.700142
v 42.43541 -3.814697E-06 -3.540009
v 57.66399 -3.814697E-06 -7.794209
v 57.44991 -3.814697E-06 -5.500401
v 33.77033 -3.814697E-06 -8.670555
v 33.62731 -3.814697E-06 -8.856392
v 35.114 -3.814697E-06 -9.128769
v 35.25975 -3.814697E-06 -8.944756
v 28.64981 -3.814697E-06 -8.100292
v 30.37517 -3.814697E-06 -10.29936
v 23.00001 -3.814697E-06 -14.49981
v 30.99645 -3.814697E-06 -11.08187
v 31.72431 -3.814697E-06 -12.00013
v 27.60038 -3.814697E-06 -16.19967
v 26.34962 -3.814697E-06 -26.10002
v 19.20038 -3.814697E-06 -23.15032
v 59.69999 -3.814697E-06 -29.65004
v 22.52995 -3.814697E-06 -34.99011
v 20.74993 -3.814697E-06 -35.1304
v 23.72969 -3.814697E-06 -35.64965
v 25.6828 -3.814697E-06 -38.14933
v 29.68192 -3.814697E-06 -46.30519
v 17.59982 -3.814697E-06 -36.09966
v 16.50029 -3.814697E-06 -35.31988
v 14.66014 -3.814697E-06 -32.13971
v 13.4604 -3.814697E-06 -30.79968
vt 0.7450206 0.3648579
vt 0.7472181 0.3670553
vt 0.7472181 0.3648579
vt 0.7461194 0.3637591
vt 0.7494156 0.3632097
vt 0.7505143 0.3648579
vt 0.7521625 0.3615616
vt 0.7505143 0.3599135
vt 0.751613 0.3588148
vt 0.7439219 0.3494755
vt 0.7428231 0.3505743
vt 0.7543599 0.362111
vt 0.735132 0.3467287
vt 0.7362307 0.34563
vt 0.7318358 0.3423337
vt 0.7334839 0.3417844
vt 0.7340332 0.3379388
vt 0.7323852 0.3379388
vt 0.7252434 0.3445312
vt 0.7263421 0.3395869
vt 0.7235953 0.3445312
vt 0.724694 0.3395869
vt 0.7818283 0.3423337
vt 0.782927 0.3346426
vt 0.881264 0.3511236
vt 0.8796158 0.3357413
vt 0.7312864 0.351673
vt 0.7301877 0.3527717
vt 0.7384282 0.3571667
vt 0.739527 0.356068
vt 0.6692078 0.351673
vt 0.69338 0.3741971
vt 0.651628 0.4005668
vt 0.7005218 0.3807895
vt 0.7087623 0.3884807
vt 0.6719546 0.4126529
vt 0.656023 0.4774783
vt 0.6263571 0.4747315
vt 0.8966463 0.4978049
vt 0.6439369 0.5565873
vt 0.6329495 0.551643
vt 0.6549243 0.562081
vt 0.6648129 0.5813089
vt 0.6488812 0.6076786
vt 0.6153697 0.5434025
vt 0.609876 0.541205
vt 0.5966913 0.535162
vt 0.5835063 0.5291189
vn 0 1 0
vn 0 1 0
vn 0 1 0
vn 0 1 0
vn 0 1 0
vn 0 1 0
vn 0 1 0
vn 0 1 0
vn 0 1 0
vn 0 1 0
vn 0 1 0
vn 0 1 0
vn 0 1 0
vn 0 1 0
vn 0 1 0
vn 0 1 0
vn 0 1 0
vn 0 1 0
vn 0 1 0
vn 0 1 0
vn 0 1 0
vn 0 1 0
vn 0 1 0
vn 0 1 0
vn 0 1 0
vn 0 1 0
vn 0 1 0
vn 0 1 0
vn 0 1 0
vn 0 1 0
vn 0 1 0
vn 0 1 0
vn 0 1 0
vn 0 1 0
vn 0 1 0
vn 0 1 0
vn 0 1 0
vn 0 1 0
vn 0 1 0
vn 0 1 0
vn 0 1 0
vn 0 1 0
vn 0 1 0
vn 0 1 0
vn 0 1 0
vn 0 1 0
vn 0 1 0
vn 0 1 0
g TerrainCreep_0
f 3/3/3 2/2/2 1/1/1
f 4/4/4 3/3/3 1/1/1
f 3/3/3 5/5/5 2/2/2
f 5/5/5 3/3/3 4/4/4
f 5/5/5 6/6/6 2/2/2
f 4/4/4 7/7/7 5/5/5
f 4/4/4 8/8/8 7/7/7
f 7/7/7 8/8/8 9/9/9
f 9/9/9 8/8/8 10/10/10
f 8/8/8 11/11/11 10/10/10
f 12/12/12 7/7/7 9/9/9
f 5/5/5 7/7/7 12/12/12
f 6/6/6 5/5/5 12/12/12
f 11/11/11 13/13/13 10/10/10
f 13/13/13 14/14/14 10/10/10
f 14/14/14 13/13/13 15/15/15
f 16/16/16 14/14/14 15/15/15
f 17/17/17 16/16/16 15/15/15
f 18/18/18 17/17/17 15/15/15
f 18/18/18 15/15/15 19/19/19
f 15/15/15 13/13/13 19/19/19
f 20/20/20 18/18/18 19/19/19
f 20/20/20 19/19/19 21/21/21
f 22/22/22 20/20/20 21/21/21
f 16/16/16 17/17/17 23/23/23
f 23/23/23 12/12/12 9/9/9
f 9/9/9 10/10/10 23/23/23
f 10/10/10 14/14/14 23/23/23
f 23/23/23 14/14/14 16/16/16
f 17/17/17 24/24/24 23/23/23
f 23/23/23 24/24/24 25/25/25
f 12/12/12 23/23/23 25/25/25
f 24/24/24 26/26/26 25/25/25
f 27/27/27 13/13/13 11/11/11
f 13/13/13 27/27/27 19/19/19
f 19/19/19 27/27/27 21/21/21
f 27/27/27 28/28/28 21/21/21
f 29/29/29 28/28/28 27/27/27
f 30/30/30 29/29/29 27/27/27
f 30/30/30 27/27/27 11/11/11
f 30/30/30 11/11/11 8/8/8
f 4/4/4 30/30/30 8/8/8
f 29/29/29 30/30/30 4/4/4
f 31/31/31 21/21/21 28/28/28
f 31/31/31 22/22/22 21/21/21
f 28/28/28 32/32/32 31/31/31
f 1/1/1 29/29/29 4/4/4
f 33/33/33 31/31/31 32/32/32
f 33/33/33 32/32/32 34/34/34
f 28/28/28 29/29/29 34/34/34
f 32/32/32 28/28/28 34/34/34
f 34/34/34 29/29/29 1/1/1
f 33/33/33 34/34/34 35/35/35
f 35/35/35 34/34/34 1/1/1
f 35/35/35 36/36/36 33/33/33
f 36/36/36 35/35/35 25/25/25
f 33/33/33 36/36/36 37/37/37
f 38/38/38 33/33/33 37/37/37
f 2/2/2 35/35/35 1/1/1
f 37/37/37 36/36/36 25/25/25
f 35/35/35 2/2/2 25/25/25
f 37/37/37 25/25/25 39/39/39
f 40/40/40 37/37/37 39/39/39
f 41/41/41 37/37/37 40/40/40
f 37/37/37 41/41/41 38/38/38
f 42/42/42 40/40/40 39/39/39
f 43/43/43 42/42/42 39/39/39
f 39/39/39 44/44/44 43/43/43
f 2/2/2 6/6/6 25/25/25
f 6/6/6 12/12/12 25/25/25
f 41/41/41 45/45/45 38/38/38
f 38/38/38 45/45/45 46/46/46
f 47/47/47 38/38/38 46/46/46
f 48/48/48 38/38/38 47/47/47
