g Zone_02
v 97.57739 0 -378.7226
v 100.2173 0 -375.5475
v 100.1089 0 -375.5258
v 97.54123 0 -378.6069
v 100.0004 0 -375.4968
v 97.49783 0 -378.4984
v 98.5972 0 -369.9854
v 98.69846 0 -369.971
v 98.50317 0 -369.9999
v 98.5972 0 -364.0256
v 98.69846 0 -364.0546
v 98.50317 0 -363.9967
v 102.0979 0 -358.0369
v 102.1919 0 -358.0731
v 101.9966 0 -358.0007
v 103.1104 0 -352.4532
v 103.2189 0 -352.4098
v 103.002 0 -352.4966
v 99.50131 0 -349.8783
v 99.50131 0 -349.7554
v 99.50131 0 -350.0013
v 98.41638 0 -350.2472
v 98.43085 0 -350.3629
v 89.65027 0 -356.4963
v 89.76599 0 -356.5397
v 88.34836 0 -357.9356
v 88.47131 0 -357.9718
v 89.87448 0 -356.5831
v 88.6015 0 -358.0007
v 98.43808 0 -350.4714
v 88.47855 0 -358.3985
v 88.6015 0 -358.4275
v 91.32101 0 -364.0907
v 91.41504 0 -364.0473
v 93.91037 0 -368.5461
v 93.82358 0 -368.5967
v 93.99716 0 -368.5027
v 91.50186 0 -363.9967
v 95.54498 0 -372.0323
v 95.66071 0 -372.0396
v 95.58838 0 -372.4807
v 95.7041 0 -372.488
v 95.39307 0 -372.9437
v 95.51605 0 -372.9509
v 92.33362 0 -377.5654
v 92.49997 0 -377.5003
v 92.16003 0 -377.6377
v 95.63901 0 -372.9509
v 95.81982 0 -372.5024
v 95.7692 0 -372.0396
v 203.5014 0 -470.4993
v 212.065 0 -474
v 212.0795 0 -473.8987
v 203.863 0 -470.5427
v 212.1012 0 -473.7975
v 204.2247 0 -470.5789
v 209.4974 0 -469.5012
v 209.5118 0 -469.6025
v 209.5263 0 -469.6965
v 214.5024 0 -469.0021
v 214.8713 0 -469.06
v 215.2474 0 -469.1251
v 199.5017 0 -462.0008
v 199.6102 0 -461.943
v 199.7259 0 -461.8851
v 200.4998 0 -457.003
v 200.601 0 -457.0102
v 200.7023 0 -457.0175
v 200.4998 0 -447.9982
v 200.601 0 -447.9692
v 200.7023 0 -447.9331
v 196.001 0 -442.0022
v 196.0082 0 -441.8431
v 196.0155 0 -441.684
v 192.0013 0 -446.501
v 191.9073 0 -446.4503
v 191.8132 0 -446.407
v 189.9978 0 -455.9976
v 189.9327 0 -455.824
v 189.8676 0 -455.6432
v 170.9973 0 -440.9968
v 171.0841 0 -440.939
v 171.1709 0 -440.8811
v 168.0029 0 -431.0012
v 168.1114 0 -431.0156
v 168.2199 0 -431.0301
v 176.0024 0 -419.002
v 176.1398 0 -418.973
v 176.2772 0 -418.9441
v 169.5001 0 -414.5032
v 169.558 0 -414.4164
v 169.6086 0 -414.3368
v 162.4988 0 -409.9972
v 162.5928 0 -409.9393
v 162.6868 0 -409.8814
v 161.0016 0 -395.5027
v 161.1028 0 -395.5461
v 161.2113 0 -395.5895
v 169.001 0 -389.4995
v 169.0661 0 -389.5718
v 169.1385 0 -389.6514
v 177.0005 0 -380.5019
v 177.1017 0 -380.5308
v 177.2102 0 -380.567
v 174.997 0 -365.0021
v 175.0983 0 -364.9587
v 175.1923 0 -364.908
v 169.001 0 -358.4998
v 169.0806 0 -358.4419
v 169.1602 0 -358.3768
v 163.4969 0 -350.0013
v 163.5837 0 -349.9434
v 163.6705 0 -349.8928
v 156.5028 0 -339.0002
v 156.5751 0 -338.9279
v 156.6475 0 -338.8628
v 146.0008 0 -331.4998
v 146.0081 0 -331.3841
v 146.0225 0 -331.2684
v 137.0032 0 -335.4996
v 136.9381 0 -335.42
v 136.873 0 -335.3332
v 129.5029 0 -344.4971
v 129.4088 0 -344.4465
v 129.322 0 -344.3959
v 124.4978 0 -358.4998
v 124.4037 0 -358.4781
v 124.3025 0 -358.4564
v 122.4003 0 -374.4987
v 122.299 0 -374.4915
v 122.5015 0 -374.4987
v 122.8993 0 -393.0074
v 122.7981 0 -393.0146
v 123.0006 0 -393.0001
v 124.9028 0 -408.0298
v 124.8088 0 -408.0515
v 124.9968 0 -408.0009
v 129.85 0 -419.407
v 129.7054 0 -419.313
v 130.0019 0 -419.501
v 121.055 0 -419.8988
v 121.1128 0 -419.7903
v 120.9971 0 -420.0001
v 112.5926 0 -405.4622
v 112.6866 0 -405.4188
v 112.4986 0 -405.4984
v 109.5621 0 -395.358
v 109.62 0 -395.2134
v 109.497 0 -395.5027
v 105.4032 0 -397.4411
v 105.302 0 -397.376
v 105.4973 0 -397.4989
v 105.4032 0 -410.0189
v 105.302 0 -410.0406
v 105.4973 0 -409.9972
v 109.9093 0 -421.0344
v 109.8152 0 -421.0778
v 110.0033 0 -420.9982
v 115.4062 0 -435.0298
v 115.3049 0 -435.0587
v 115.5002 0 -435.0009
v 118.415 0 -449.5966
v 118.3354 0 -449.6906
v 118.5018 0 -449.5026
v 125.0836 0 -450.1101
v 125.1632 0 -450.2114
v 124.9968 0 -450.0016
v 126.5953 0 -441.5538
v 126.6821 0 -441.6044
v 126.5013 0 -441.5031
v 130.0164 0 -438.6172
v 130.0309 0 -438.7402
v 130.0019 0 -438.5015
v 138.9272 0 -443.0726
v 138.8548 0 -443.1522
v 138.9995 0 -443.0003
v 142.8907 0 -450.0161
v 142.7895 0 -450.0306
v 142.9992 0 -450.0016
v 140.8872 0 -458.5363
v 140.7787 0 -458.5725
v 141.003 0 -458.5002
v 148.9012 0 -465.5449
v 148.7999 0 -465.5883
v 149.0024 0 -465.5015
v 148.9807 0 -473.8987
v 148.8795 0 -473.7975
v 149.082 0 -474
v 88.72446 0 -358.4492
vn 0 1 0
vn 0 1 0
vn 0 1 0
vn 0 1 0
vn 0 1 0
vn 0 1 0
vn 0 1 0
vn 0 1 0
vn 0 1 0
vn 0 1 0
vn 0 1 0
vn 0 1 0
vn 0 1 0
vn 0 1 0
vn 0 1 0
vn 0 1 0
vn 0 1 0
vn 0 1 0
vn 0 1 0
vn 0 1 0
vn 0 1 0
vn 0 1 0
vn 0 1 0
vn 0 1 0
vn 0 1 0
vn 0 1 0
vn 0 1 0
vn 0 1 0
vn 0 1 0
vn 0 1 0
vn 0 1 0
vn 0 1 0
vn 0 1 0
vn 0 1 0
vn 0 1 0
vn 0 1 0
vn 0 1 0
vn 0 1 0
vn 0 1 0
vn 0 1 0
vn 0 1 0
vn 0 1 0
vn 0 1 0
vn 0 1 0
vn 0 1 0
vn 0 1 0
vn 0 1 0
vn 0 1 0
vn 0 1 0
vn 0 1 0
vn 0 1 0
vn 0 1 0
vn 0 1 0
vn 0 1 0
vn 0 1 0
vn 0 1 0
vn 0 1 0
vn 0 1 0
vn 0 1 0
vn 0 1 0
vn 0 1 0
vn 0 1 0
vn 0 1 0
vn 0 1 0
vn 0 1 0
vn 0 1 0
vn 0 1 0
vn 0 1 0
vn 0 1 0
vn 0 1 0
vn 0 1 0
vn 0 1 0
vn 0 1 0
vn 0 1 0
vn 0 1 0
vn 0 1 0
vn 0 1 0
vn 0 1 0
vn 0 1 0
vn 0 1 0
vn 0 1 0
vn 0 1 0
vn 0 1 0
vn 0 1 0
vn 0 1 0
vn 0 1 0
vn 0 1 0
vn 0 1 0
vn 0 1 0
vn 0 1 0
vn 0 1 0
vn 0 1 0
vn 0 1 0
vn 0 1 0
vn 0 1 0
vn 0 1 0
vn 0 1 0
vn 0 1 0
vn 0 1 0
vn 0 1 0
vn 0 1 0
vn 0 1 0
vn 0 1 0
vn 0 1 0
vn 0 1 0
vn 0 1 0
vn 0 1 0
vn 0 1 0
vn 0 1 0
vn 0 1 0
vn 0 1 0
vn 0 1 0
vn 0 1 0
vn 0 1 0
vn 0 1 0
vn 0 1 0
vn 0 1 0
vn 0 1 0
vn 0 1 0
vn 0 1 0
vn 0 1 0
vn 0 1 0
vn 0 1 0
vn 0 1 0
vn 0 1 0
vn 0 1 0
vn 0 1 0
vn 0 1 0
vn 0 1 0
vn 0 1 0
vn 0 1 0
vn 0 1 0
vn 0 1 0
vn 0 1 0
vn 0 1 0
vn 0 1 0
vn 0 1 0
vn 0 1 0
vn 0 1 0
vn 0 1 0
vn 0 1 0
vn 0 1 0
vn 0 1 0
vn 0 1 0
vn 0 1 0
vn 0 1 0
vn 0 1 0
vn 0 1 0
vn 0 1 0
vn 0 1 0
vn 0 1 0
vn 0 1 0
vn 0 1 0
vn 0 1 0
vn 0 1 0
vn 0 1 0
vn 0 1 0
vn 0 1 0
vn 0 1 0
vn 0 1 0
vn 0 1 0
vn 0 1 0
vn 0 1 0
vn 0 1 0
vn 0 1 0
vn 0 1 0
vn 0 1 0
vn 0 1 0
vn 0 1 0
vn 0 1 0
vn 0 1 0
vn 0 1 0
vn 0 1 0
vn 0 1 0
vn 0 1 0
vn 0 1 0
vn 0 1 0
vn 0 1 0
vn 0 1 0
vn 0 1 0
vn 0 1 0
vn 0 1 0
vn 0 1 0
vn 0 1 0
vn 0 1 0
vn 0 1 0
vn 0 1 0
vn 0 1 0
vn 0 1 0
g Zone_02_0
f 3/3/3 2/2/2 1/1/1
f 4/4/4 3/3/3 1/1/1
f 5/5/5 3/3/3 4/4/4
f 6/6/6 5/5/5 4/4/4
f 3/3/3 7/7/7 2/2/2
f 7/7/7 8/8/8 2/2/2
f 9/9/9 7/7/7 3/3/3
f 5/5/5 9/9/9 3/3/3
f 7/7/7 10/10/10 8/8/8
f 10/10/10 11/11/11 8/8/8
f 12/12/12 10/10/10 7/7/7
f 9/9/9 12/12/12 7/7/7
f 10/10/10 13/13/13 11/11/11
f 13/13/13 14/14/14 11/11/11
f 15/15/15 13/13/13 10/10/10
f 12/12/12 15/15/15 10/10/10
f 13/13/13 16/16/16 14/14/14
f 16/16/16 17/17/17 14/14/14
f 18/18/18 16/16/16 13/13/13
f 15/15/15 18/18/18 13/13/13
f 16/16/16 19/19/19 17/17/17
f 19/19/19 20/20/20 17/17/17
f 21/21/21 19/19/19 16/16/16
f 18/18/18 21/21/21 16/16/16
f 22/22/22 20/20/20 19/19/19
f 23/23/23 22/22/22 19/19/19
f 23/23/23 19/19/19 21/21/21
f 24/24/24 22/22/22 23/23/23
f 25/25/25 24/24/24 23/23/23
f 26/26/26 24/24/24 25/25/25
f 27/27/27 26/26/26 25/25/25
f 27/27/27 25/25/25 28/28/28
f 29/29/29 27/27/27 28/28/28
f 30/30/30 23/23/23 21/21/21
f 25/25/25 23/23/23 30/30/30
f 28/28/28 25/25/25 30/30/30
f 26/26/26 27/27/27 31/31/31
f 27/27/27 32/32/32 31/31/31
f 27/27/27 29/29/29 32/32/32
f 31/31/31 32/32/32 33/33/33
f 32/32/32 34/34/34 33/33/33
f 34/34/34 35/35/35 33/33/33
f 35/35/35 36/36/36 33/33/33
f 37/37/37 35/35/35 34/34/34
f 38/38/38 37/37/37 34/34/34
f 36/36/36 35/35/35 39/39/39
f 35/35/35 40/40/40 39/39/39
f 35/35/35 37/37/37 40/40/40
f 39/39/39 40/40/40 41/41/41
f 40/40/40 42/42/42 41/41/41
f 43/43/43 41/41/41 42/42/42
f 44/44/44 43/43/43 42/42/42
f 44/44/44 45/45/45 43/43/43
f 46/46/46 45/45/45 44/44/44
f 46/46/46 6/6/6 45/45/45
f 6/6/6 4/4/4 45/45/45
f 45/45/45 4/4/4 47/47/47
f 45/45/45 47/47/47 43/43/43
f 4/4/4 1/1/1 47/47/47
f 48/48/48 46/46/46 44/44/44
f 44/44/44 42/42/42 49/49/49
f 48/48/48 44/44/44 49/49/49
f 50/50/50 49/49/49 42/42/42
f 40/40/40 50/50/50 42/42/42
f 37/37/37 50/50/50 40/40/40
f 53/53/53 52/52/52 51/51/51
f 54/54/54 53/53/53 51/51/51
f 55/55/55 53/53/53 54/54/54
f 56/56/56 55/55/55 54/54/54
f 54/54/54 51/51/51 57/57/57
f 58/58/58 54/54/54 57/57/57
f 56/56/56 54/54/54 58/58/58
f 59/59/59 56/56/56 58/58/58
f 58/58/58 57/57/57 60/60/60
f 61/61/61 58/58/58 60/60/60
f 59/59/59 58/58/58 61/61/61
f 62/62/62 59/59/59 61/61/61
f 61/61/61 60/60/60 63/63/63
f 64/64/64 61/61/61 63/63/63
f 62/62/62 61/61/61 64/64/64
f 65/65/65 62/62/62 64/64/64
f 64/64/64 63/63/63 66/66/66
f 67/67/67 64/64/64 66/66/66
f 65/65/65 64/64/64 67/67/67
f 68/68/68 65/65/65 67/67/67
f 67/67/67 66/66/66 69/69/69
f 70/70/70 67/67/67 69/69/69
f 68/68/68 67/67/67 70/70/70
f 71/71/71 68/68/68 70/70/70
f 70/70/70 69/69/69 72/72/72
f 73/73/73 70/70/70 72/72/72
f 71/71/71 70/70/70 73/73/73
f 74/74/74 71/71/71 73/73/73
f 73/73/73 72/72/72 75/75/75
f 76/76/76 73/73/73 75/75/75
f 74/74/74 73/73/73 76/76/76
f 77/77/77 74/74/74 76/76/76
f 76/76/76 75/75/75 78/78/78
f 79/79/79 76/76/76 78/78/78
f 77/77/77 76/76/76 79/79/79
f 80/80/80 77/77/77 79/79/79
f 79/79/79 78/78/78 81/81/81
f 82/82/82 79/79/79 81/81/81
f 80/80/80 79/79/79 82/82/82
f 83/83/83 80/80/80 82/82/82
f 82/82/82 81/81/81 84/84/84
f 85/85/85 82/82/82 84/84/84
f 83/83/83 82/82/82 85/85/85
f 86/86/86 83/83/83 85/85/85
f 85/85/85 84/84/84 87/87/87
f 88/88/88 85/85/85 87/87/87
f 86/86/86 85/85/85 88/88/88
f 89/89/89 86/86/86 88/88/88
f 88/88/88 87/87/87 90/90/90
f 91/91/91 88/88/88 90/90/90
f 89/89/89 88/88/88 91/91/91
f 92/92/92 89/89/89 91/91/91
f 91/91/91 90/90/90 93/93/93
f 94/94/94 91/91/91 93/93/93
f 92/92/92 91/91/91 94/94/94
f 95/95/95 92/92/92 94/94/94
f 94/94/94 93/93/93 96/96/96
f 97/97/97 94/94/94 96/96/96
f 95/95/95 94/94/94 97/97/97
f 98/98/98 95/95/95 97/97/97
f 97/97/97 96/96/96 99/99/99
f 100/100/100 97/97/97 99/99/99
f 98/98/98 97/97/97 100/100/100
f 101/101/101 98/98/98 100/100/100
f 100/100/100 99/99/99 102/102/102
f 103/103/103 100/100/100 102/102/102
f 101/101/101 100/100/100 103/103/103
f 104/104/104 101/101/101 103/103/103
f 103/103/103 102/102/102 105/105/105
f 106/106/106 103/103/103 105/105/105
f 104/104/104 103/103/103 106/106/106
f 107/107/107 104/104/104 106/106/106
f 106/106/106 105/105/105 108/108/108
f 109/109/109 106/106/106 108/108/108
f 107/107/107 106/106/106 109/109/109
f 110/110/110 107/107/107 109/109/109
f 109/109/109 108/108/108 111/111/111
f 112/112/112 109/109/109 111/111/111
f 110/110/110 109/109/109 112/112/112
f 113/113/113 110/110/110 112/112/112
f 112/112/112 111/111/111 114/114/114
f 115/115/115 112/112/112 114/114/114
f 113/113/113 112/112/112 115/115/115
f 116/116/116 113/113/113 115/115/115
f 115/115/115 114/114/114 117/117/117
f 118/118/118 115/115/115 117/117/117
f 116/116/116 115/115/115 118/118/118
f 119/119/119 116/116/116 118/118/118
f 118/118/118 117/117/117 120/120/120
f 121/121/121 118/118/118 120/120/120
f 119/119/119 118/118/118 121/121/121
f 122/122/122 119/119/119 121/121/121
f 121/121/121 120/120/120 123/123/123
f 124/124/124 121/121/121 123/123/123
f 122/122/122 121/121/121 124/124/124
f 125/125/125 122/122/122 124/124/124
f 124/124/124 123/123/123 126/126/126
f 127/127/127 124/124/124 126/126/126
f 125/125/125 124/124/124 127/127/127
f 128/128/128 125/125/125 127/127/127
f 127/127/127 129/129/129 128/128/128
f 129/129/129 130/130/130 128/128/128
f 131/131/131 129/129/129 127/127/127
f 126/126/126 131/131/131 127/127/127
f 129/129/129 132/132/132 130/130/130
f 132/132/132 133/133/133 130/130/130
f 134/134/134 132/132/132 129/129/129
f 131/131/131 134/134/134 129/129/129
f 132/132/132 135/135/135 133/133/133
f 135/135/135 136/136/136 133/133/133
f 137/137/137 135/135/135 132/132/132
f 134/134/134 137/137/137 132/132/132
f 135/135/135 138/138/138 136/136/136
f 138/138/138 139/139/139 136/136/136
f 140/140/140 138/138/138 135/135/135
f 137/137/137 140/140/140 135/135/135
f 138/138/138 141/141/141 139/139/139
f 141/141/141 142/142/142 139/139/139
f 143/143/143 141/141/141 138/138/138
f 140/140/140 143/143/143 138/138/138
f 141/141/141 144/144/144 142/142/142
f 144/144/144 145/145/145 142/142/142
f 146/146/146 144/144/144 141/141/141
f 143/143/143 146/146/146 141/141/141
f 144/144/144 147/147/147 145/145/145
f 147/147/147 148/148/148 145/145/145
f 149/149/149 147/147/147 144/144/144
f 146/146/146 149/149/149 144/144/144
f 147/147/147 150/150/150 148/148/148
f 150/150/150 151/151/151 148/148/148
f 152/152/152 150/150/150 147/147/147
f 149/149/149 152/152/152 147/147/147
f 150/150/150 153/153/153 151/151/151
f 153/153/153 154/154/154 151/151/151
f 155/155/155 153/153/153 150/150/150
f 152/152/152 155/155/155 150/150/150
f 153/153/153 156/156/156 154/154/154
f 156/156/156 157/157/157 154/154/154
f 158/158/158 156/156/156 153/153/153
f 155/155/155 158/158/158 153/153/153
f 156/156/156 159/159/159 157/157/157
f 159/159/159 160/160/160 157/157/157
f 161/161/161 159/159/159 156/156/156
f 158/158/158 161/161/161 156/156/156
f 159/159/159 162/162/162 160/160/160
f 162/162/162 163/163/163 160/160/160
f 164/164/164 162/162/162 159/159/159
f 161/161/161 164/164/164 159/159/159
f 162/162/162 165/165/165 163/163/163
f 165/165/165 166/166/166 163/163/163
f 167/167/167 165/165/165 162/162/162
f 164/164/164 167/167/167 162/162/162
f 165/165/165 168/168/168 166/166/166
f 168/168/168 169/169/169 166/166/166
f 170/170/170 168/168/168 165/165/165
f 167/167/167 170/170/170 165/165/165
f 168/168/168 171/171/171 169/169/169
f 171/171/171 172/172/172 169/169/169
f 173/173/173 171/171/171 168/168/168
f 170/170/170 173/173/173 168/168/168
f 171/171/171 174/174/174 172/172/172
f 174/174/174 175/175/175 172/172/172
f 176/176/176 174/174/174 171/171/171
f 173/173/173 176/176/176 171/171/171
f 174/174/174 177/177/177 175/175/175
f 177/177/177 178/178/178 175/175/175
f 179/179/179 177/177/177 174/174/174
f 176/176/176 179/179/179 174/174/174
f 177/177/177 180/180/180 178/178/178
f 180/180/180 181/181/181 178/178/178
f 182/182/182 180/180/180 177/177/177
f 179/179/179 182/182/182 177/177/177
f 180/180/180 183/183/183 181/181/181
f 183/183/183 184/184/184 181/181/181
f 185/185/185 183/183/183 180/180/180
f 182/182/182 185/185/185 180/180/180
f 183/183/183 186/186/186 184/184/184
f 186/186/186 187/187/187 184/184/184
f 188/188/188 186/186/186 183/183/183
f 185/185/185 188/188/188 183/183/183
f 189/189/189 38/38/38 34/34/34
f 32/32/32 189/189/189 34/34/34
f 29/29/29 189/189/189 32/32/32
