g Zone_01
v -230.3239 -0.0007400513 13.97812
v -229.9465 -0.0007400513 17.35066
v -230.0481 -0.0007400513 17.34582
v -230.4206 -0.0007400513 14.01199
v -229.8497 -0.0007400513 17.3555
v -230.2271 -0.0007400513 13.94909
v -232.2303 -0.0007400513 10.98783
v -232.1287 -0.0007400513 10.95396
v -232.0319 -0.0007400513 10.92493
v -232.6271 -0.0007400513 8.47657
v -232.5303 -0.0007400513 8.471733
v -232.6271 -0.0007400513 7.102394
v -232.5255 -0.0007400513 7.126587
v -232.2835 -0.0007400513 5.999184
v -232.1916 -0.0007400513 6.047569
v -230.8949 -0.0007400513 4.179848
v -230.8174 -0.0007400513 4.242752
v -225.8046 -0.0007400513 0.1879654
v -225.7272 -0.0007400513 0.2557068
v -225.6546 -0.0007400513 0.3234482
v -230.74 -0.0007400513 4.310493
v -222.9111 -0.0007400513 -4.399078
v -223.003 -0.0007400513 -4.43779
v -222.8191 -0.0007400513 -4.360367
v -221.8417 -0.0007400513 -9.286118
v -221.7449 -0.0007400513 -9.266762
v -221.6482 -0.0007400513 -9.242569
v -220.3804 -0.0007400513 -15.87152
v -220.4675 -0.0007400513 -15.92474
v -220.2885 -0.0007400513 -15.82313
v -232.1045 -0.0007400513 6.091118
v -232.4238 -0.0007400513 7.15078
v -232.4287 -0.0007400513 8.466896
v -220.2401 -0.0007400513 -16.36506
v -220.153 -0.0007400513 -16.307
v -218.7014 -0.0007400513 -17.60859
v -218.6289 -0.0007400513 -17.54086
v -214.9176 -0.0007400513 -22.39402
v -215.0144 -0.0007400513 -22.43273
v -218.5514 -0.0007400513 -17.46827
v -214.8208 -0.0007400513 -22.35531
v -220.0659 -0.0007400513 -16.25377
v -214.8305 -0.0007400513 -26.05688
v -214.7337 -0.0007400513 -26.02301
v -214.6128 -0.0007400513 -26.623
v -214.516 -0.0007400513 -26.58429
v -210.2386 -0.0007400513 -32.52132
v -210.3161 -0.0007400513 -32.58422
v -214.4192 -0.0007400513 -26.55042
v -210.1612 -0.0007400513 -32.46325
v -204.5919 -0.0007400513 -39.2422
v -204.6839 -0.0007400513 -39.29059
v -204.5 -0.0007400513 -39.19382
v -203.5806 -0.0007400513 -42.76958
v -203.6774 -0.0007400513 -42.80829
v -203.4887 -0.0007400513 -42.73571
v -202.4242 -0.0007400513 -45.34374
v -202.3371 -0.0007400513 -45.29536
v -202.25 -0.0007400513 -45.24213
v -200.2323 -0.0007400513 -48.12597
v -200.3146 -0.0007400513 -48.18403
v -200.1549 -0.0007400513 -48.0679
v -197.2662 -0.0007400513 -52.38882
v -197.363 -0.0007400513 -52.42753
v -197.1694 -0.0007400513 -52.35011
v -196.5017 -0.0007400513 -56.07587
v -196.4049 -0.0007400513 -56.05651
v -196.4533 -0.0007400513 -59.18228
v -196.3517 -0.0007400513 -59.18228
v -197.8178 -0.0007400513 -69.9628
v -197.7259 -0.0007400513 -70.00635
v -197.6291 -0.0007400513 -70.0499
v -196.2501 -0.0007400513 -59.18228
v -201.3839 -0.0007400513 -73.98856
v -201.4371 -0.0007400513 -73.90146
v -201.3307 -0.0007400513 -74.07565
v -205.9468 -0.0007400513 -75.4595
v -205.9322 -0.0007400513 -75.55628
v -205.9129 -0.0007400513 -75.65789
v -213.8289 -0.0007400513 -76.1224
v -213.9547 -0.0007400513 -76.04015
v -213.8483 -0.0007400513 -76.32079
v -213.7757 -0.0007400513 -76.23853
v -205.7677 -0.0007400513 -75.89983
v -205.7822 -0.0007400513 -75.79821
v -201.1226 -0.0007400513 -74.44823
v -201.1759 -0.0007400513 -74.36113
v -205.7968 -0.0007400513 -75.70144
v -201.2339 -0.0007400513 -74.27403
v -197.334 -0.0007400513 -70.24344
v -197.2372 -0.0007400513 -70.28215
v -197.4307 -0.0007400513 -70.19989
v -195.6501 -0.0007400513 -59.28873
v -195.5485 -0.0007400513 -59.29357
v -195.7517 -0.0007400513 -59.28873
v -213.6886 -0.0007400513 -76.17078
v -195.6356 -0.0007400513 -55.95974
v -195.7324 -0.0007400513 -55.9791
v -196.5356 -0.0007400513 -52.05011
v -196.6323 -0.0007400513 -52.08882
v -199.4775 -0.0007400513 -47.70016
v -199.5646 -0.0007400513 -47.75339
v -199.6468 -0.0007400513 -47.81145
v -196.7291 -0.0007400513 -52.12269
v -201.921 -0.0007400513 -43.68892
v -202.0129 -0.0007400513 -43.73247
v -202.1049 -0.0007400513 -43.77602
v -204.0258 -0.0007400513 -38.4777
v -204.1129 -0.0007400513 -38.53092
v -204.2 -0.0007400513 -38.58415
v -209.7645 -0.0007400513 -32.0568
v -209.6822 -0.0007400513 -31.9939
v -209.8419 -0.0007400513 -32.11971
v -213.8822 -0.0007400513 -26.1972
v -213.7854 -0.0007400513 -26.16333
v -213.9789 -0.0007400513 -26.23107
v -213.9983 -0.0007400513 -25.43269
v -214.095 -0.0007400513 -25.46656
v -214.187 -0.0007400513 -20.74404
v -214.2838 -0.0007400513 -20.78759
v -217.7627 -0.0007400513 -16.8586
v -217.6756 -0.0007400513 -16.80538
v -214.3805 -0.0007400513 -20.8263
v -217.845 -0.0007400513 -16.91667
v -219.0159 -0.0007400513 -13.70864
v -219.0982 -0.0007400513 -13.7667
v -219.1805 -0.0007400513 -13.82477
v -220.1627 -0.0007400513 -12.5522
v -220.2595 -0.0007400513 -12.59575
v -220.3514 -0.0007400513 -12.64414
v -220.9756 -0.0007400513 -6.460342
v -221.0724 -0.0007400513 -6.489372
v -221.1691 -0.0007400513 -6.51841
v -223.4917 -0.0007400513 -0.9878311
v -223.574 -0.0007400513 -1.041054
v -223.6611 -0.0007400513 -1.099121
v -225.1804 -0.0007400513 0.7589264
v -225.1078 -0.0007400513 0.8315048
v -225.2481 -0.0007400513 0.686348
v -230.2706 -0.0007400513 4.857262
v -230.1835 -0.0007400513 4.915329
v -230.3577 -0.0007400513 4.799194
v -230.8223 -0.0007400513 6.250793
v -230.9142 -0.0007400513 6.212082
v -230.9771 -0.0007400513 7.586258
v -231.0787 -0.0007400513 7.571747
v -231.0061 -0.0007400513 6.178215
v -231.1755 -0.0007400513 7.557228
v -230.9723 -0.0007400513 9.105598
v -231.0739 -0.0007400513 9.115273
v -230.7642 -0.0007400513 10.60558
v -230.8658 -0.0007400513 10.63461
v -231.1706 -0.0007400513 9.12011
v -230.9674 -0.0007400513 10.66364
v -229.4675 -0.0007400513 13.0491
v -229.569 -0.0007400513 13.07813
v -229.3174 -0.0007400513 13.64909
v -229.4142 -0.0007400513 13.67812
v -229.1529 -0.0007400513 17.7571
v -229.0513 -0.0007400513 17.76678
v -229.2545 -0.0007400513 17.75227
v -229.5158 -0.0007400513 13.70715
v -229.6707 -0.0007400513 13.10716
v -229.3804 -0.0007400513 20.49094
v -229.4771 -0.0007400513 20.47159
v -230.1933 -0.0007400513 23.44252
v -230.29 -0.0007400513 23.40865
v -232.5497 -0.0007400513 27.50215
v -232.6609 -0.0007400513 27.49731
v -234.2045 -0.0007400513 31.55694
v -234.3351 -0.0007400513 31.59081
v -239.0286 -0.0007400513 40.00038
v -239.198 -0.0007400513 40.102
v -234.4658 -0.0007400513 31.61984
v -239.3625 -0.0007400513 40.19877
v -230.3868 -0.0007400513 23.37478
v -232.7722 -0.0007400513 27.49731
v -229.5739 -0.0007400513 20.45223
v -235.4819 -0.0007400513 31.03436
v -235.4045 -0.0007400513 31.1021
v -240.7222 -0.0007400513 40.102
v -240.7802 -0.0007400513 40.00038
v -240.6641 -0.0007400513 40.19877
v -235.327 -0.0007400513 31.16501
v -233.6916 -0.0007400513 26.89732
v -233.6045 -0.0007400513 26.9457
v -231.2045 -0.0007400513 22.75543
v -231.1077 -0.0007400513 22.79414
v -233.5222 -0.0007400513 26.99893
v -231.0158 -0.0007400513 22.82801
v -230.3819 -0.0007400513 19.94418
v -230.2852 -0.0007400513 19.96353
v -230.1884 -0.0007400513 19.98289
v -214.637 -0.0007400513 -25.9843
v -214.1918 -0.0007400513 -25.50043
v -196.3033 -0.0007400513 -56.042
v -195.834 -0.0007400513 -55.99361
vt 0.0004885197 0.0004885197
vt 0.0004885197 0.0004885197
vt 0.0004885197 0.0004885197
vt 0.0004885197 0.0004885197
vt 0.0004885197 0.0004885197
vt 0.0004885197 0.0004885197
vt 0.0004885197 0.0004885197
vt 0.0004885197 0.0004885197
vt 0.0004885197 0.0004885197
vt 0.0004885197 0.0004885197
vt 0.0004885197 0.0004885197
vt 0.0004885197 0.0004885197
vt 0.0004885197 0.0004885197
vt 0.0004885197 0.0004885197
vt 0.0004885197 0.0004885197
vt 0.0004885197 0.0004885197
vt 0.0004885197 0.0004885197
vt 0.0004885197 0.0004885197
vt 0.0004885197 0.0004885197
vt 0.0004885197 0.0004885197
vt 0.0004885197 0.0004885197
vt 0.0004885197 0.0004885197
vt 0.0004885197 0.0004885197
vt 0.0004885197 0.0004885197
vt 0.0004885197 0.0004885197
vt 0.0004885197 0.0004885197
vt 0.0004885197 0.0004885197
vt 0.0004885197 0.0004885197
vt 0.0004885197 0.0004885197
vt 0.0004885197 0.0004885197
vt 0.0004885197 0.0004885197
vt 0.0004885197 0.0004885197
vt 0.0004885197 0.0004885197
vt 0.0004885197 0.0004885197
vt 0.0004885197 0.0004885197
vt 0.0004885197 0.0004885197
vt 0.0004885197 0.0004885197
vt 0.0004885197 0.0004885197
vt 0.0004885197 0.0004885197
vt 0.0004885197 0.0004885197
vt 0.0004885197 0.0004885197
vt 0.0004885197 0.0004885197
vt 0.0004885197 0.0004885197
vt 0.0004885197 0.0004885197
vt 0.0004885197 0.0004885197
vt 0.0004885197 0.0004885197
vt 0.0004885197 0.0004885197
vt 0.0004885197 0.0004885197
vt 0.0004885197 0.0004885197
vt 0.0004885197 0.0004885197
vt 0.0004885197 0.0004885197
vt 0.0004885197 0.0004885197
vt 0.0004885197 0.0004885197
vt 0.0004885197 0.0004885197
vt 0.0004885197 0.0004885197
vt 0.0004885197 0.0004885197
vt 0.0004885197 0.0004885197
vt 0.0004885197 0.0004885197
vt 0.0004885197 0.0004885197
vt 0.0004885197 0.0004885197
vt 0.0004885197 0.0004885197
vt 0.0004885197 0.0004885197
vt 0.0004885197 0.0004885197
vt 0.0004885197 0.0004885197
vt 0.0004885197 0.0004885197
vt 0.0004885197 0.0004885197
vt 0.0004885197 0.0004885197
vt 0.0004885197 0.0004885197
vt 0.0004885197 0.0004885197
vt 0.0004885197 0.0004885197
vt 0.0004885197 0.0004885197
vt 0.0004885197 0.0004885197
vt 0.0004885197 0.0004885197
vt 0.0004885197 0.0004885197
vt 0.0004885197 0.0004885197
vt 0.0004885197 0.0004885197
vt 0.0004885197 0.0004885197
vt 0.0004885197 0.0004885197
vt 0.0004885197 0.0004885197
vt -1 1
vt -1 1
vt -1 1
vt -1 1
vt -1 1
vt -1 1
vt -1 1
vt -1 1
vt -1 1
vt -1 1
vt -1 1
vt -1 1
vt -1 1
vt -1 1
vt -1 1
vt -1 1
vt -1 1
vt -1 1
vt -1 1
vt -1 1
vt -1 1
vt -1 1
vt -1 1
vt -1 1
vt -1 1
vt -1 1
vt -1 1
vt -1 1
vt -1 1
vt -1 1
vt -1 1
vt -1 1
vt -1 1
vt -1 1
vt -1 1
vt -1 1
vt -1 1
vt -1 1
vt -1 1
vt -1 1
vt -1 1
vt -1 1
vt -1 1
vt -1 1
vt -1 1
vt -1 1
vt -1 1
vt -1 1
vt -1 1
vt -1 1
vt -1 1
vt -1 1
vt -1 1
vt -1 1
vt -1 1
vt -1 1
vt -1 1
vt -1 1
vt -1 1
vt -1 1
vt -1 1
vt -1 1
vt -1 1
vt -1 1
vt -1 1
vt -1 1
vt -1 1
vt -1 1
vt -1 1
vt -1 1
vt -1 1
vt -1 1
vt -1 1
vt -1 1
vt -1 1
vt -1 1
vt -1 1
vt -1 1
vt -1 1
vt -1 1
vt -1 1
vt -1 1
vt -1 1
vt -1 1
vt -1 1
vt -1 1
vt -1 1
vt -1 1
vt -0.7547631 1
vt -0.7547631 1
vt -0.5095261 1
vt -0.5095261 1
vt 0.0004885197 1
vt 0.0004885197 1
vt -0.5095261 1
vt 0.0004885197 1
vt -1 1
vt -0.7547631 1
vt -1 1
vt 0.0004885197 0.0004885197
vt 0.0004885197 0.0004885197
vt 0.0004885197 0.0004885197
vt 0.0004885197 0.0004885197
vt 0.0004885197 0.0004885197
vt 0.0004885197 0.0004885197
vt 0.0004885197 0.0004885197
vt 0.0004885197 0.0004885197
vt 0.0004885197 0.0004885197
vt 0.0004885197 0.0004885197
vt 0.0004885197 0.0004885197
vt 0.0004885197 0.0004885197
vt 0.0004885197 0.0004885197
vt 0.0004885197 0.0004885197
vt 0.0004885197 0.0004885197
vt 0.0004885197 0.0004885197
vt -1 1
vt 0.0004885197 0.0004885197
vt -1 1
vn 0 1 0
vn 0 1 0
vn 0 1 0
vn 0 1 0
vn 0 1 0
vn 0 1 0
vn 0 1 0
vn 0 1 0
vn 0 1 0
vn 0 1 0
vn 0 1 0
vn 0 1 0
vn 0 1 0
vn 0 1 0
vn 0 1 0
vn 0 1 0
vn 0 1 0
vn 0 1 0
vn 0 1 0
vn 0 1 0
vn 0 1 0
vn 0 1 0
vn 0 1 0
vn 0 1 0
vn 0 1 0
vn 0 1 0
vn 0 1 0
vn 0 1 0
vn 0 1 0
vn 0 1 0
vn 0 1 0
vn 0 1 0
vn 0 1 0
vn 0 1 0
vn 0 1 0
vn 0 1 0
vn 0 1 0
vn 0 1 0
vn 0 1 0
vn 0 1 0
vn 0 1 0
vn 0 1 0
vn 0 1 0
vn 0 1 0
vn 0 1 0
vn 0 1 0
vn 0 1 0
vn 0 1 0
vn 0 1 0
vn 0 1 0
vn 0 1 0
vn 0 1 0
vn 0 1 0
vn 0 1 0
vn 0 1 0
vn 0 1 0
vn 0 1 0
vn 0 1 0
vn 0 1 0
vn 0 1 0
vn 0 1 0
vn 0 1 0
vn 0 1 0
vn 0 1 0
vn 0 1 0
vn 0 1 0
vn 0 1 0
vn 0 1 0
vn 0 1 0
vn 0 1 0
vn 0 1 0
vn 0 1 0
vn 0 1 0
vn 0 1 0
vn 0 1 0
vn 0 1 0
vn 0 1 0
vn 0 1 0
vn 0 1 0
vn 0 1 0
vn 0 1 0
vn 0 1 0
vn 0 1 0
vn 0 1 0
vn 0 1 0
vn 0 1 0
vn 0 1 0
vn 0 1 0
vn 0 1 0
vn 0 1 0
vn 0 1 0
vn 0 1 0
vn 0 1 0
vn 0 1 0
vn 0 1 0
vn 0 1 0
vn 0 1 0
vn 0 1 0
vn 0 1 0
vn 0 1 0
vn 0 1 0
vn 0 1 0
vn 0 1 0
vn 0 1 0
vn 0 1 0
vn 0 1 0
vn 0 1 0
vn 0 1 0
vn 0 1 0
vn 0 1 0
vn 0 1 0
vn 0 1 0
vn 0 1 0
vn 0 1 0
vn 0 1 0
vn 0 1 0
vn 0 1 0
vn 0 1 0
vn 0 1 0
vn 0 1 0
vn 0 1 0
vn 0 1 0
vn 0 1 0
vn 0 1 0
vn 0 1 0
vn 0 1 0
vn 0 1 0
vn 0 1 0
vn 0 1 0
vn 0 1 0
vn 0 1 0
vn 0 1 0
vn 0 1 0
vn 0 1 0
vn 0 1 0
vn 0 1 0
vn 0 1 0
vn 0 1 0
vn 0 1 0
vn 0 1 0
vn 0 1 0
vn 0 1 0
vn 0 1 0
vn 0 1 0
vn 0 1 0
vn 0 1 0
vn 0 1 0
vn 0 1 0
vn 0 1 0
vn 0 1 0
vn 0 1 0
vn 0 1 0
vn 0 1 0
vn 0 1 0
vn 0 1 0
vn 0 1 0
vn 0 1 0
vn 0 1 0
vn 0 1 0
vn 0 1 0
vn 0 1 0
vn 0 1 0
vn 0 1 0
vn 0 1 0
vn 0 1 0
vn 0 1 0
vn 0 1 0
vn 0 1 0
vn 0 1 0
vn 0 1 0
vn 0 1 0
vn 0 1 0
vn 0 1 0
vn 0 1 0
vn 0 1 0
vn 0 1 0
vn 0 1 0
vn 0 1 0
vn 0 1 0
vn 0 1 0
vn 0 1 0
vn 0 1 0
vn 0 1 0
vn 0 1 0
vn 0 1 0
vn 0 1 0
vn 0 1 0
vn 0 1 0
vn 0 1 0
vn 0 1 0
vn 0 1 0
vn 0 1 0
vn 0 1 0
vn 0 1 0
vn 0 1 0
vn 0 1 0
vn 0 1 0
g Zone_01_0
f 3/3/3 2/2/2 1/1/1
f 4/4/4 3/3/3 1/1/1
f 1/1/1 2/2/2 5/5/5
f 6/6/6 1/1/1 5/5/5
f 4/4/4 1/1/1 7/7/7
f 1/1/1 8/8/8 7/7/7
f 9/9/9 8/8/8 1/1/1
f 6/6/6 9/9/9 1/1/1
f 10/10/10 7/7/7 8/8/8
f 11/11/11 10/10/10 8/8/8
f 11/11/11 8/8/8 9/9/9
f 12/12/12 10/10/10 11/11/11
f 13/13/13 12/12/12 11/11/11
f 12/12/12 13/13/13 14/14/14
f 13/13/13 15/15/15 14/14/14
f 14/14/14 15/15/15 16/16/16
f 15/15/15 17/17/17 16/16/16
f 16/16/16 17/17/17 18/18/18
f 17/17/17 19/19/19 18/18/18
f 20/20/20 19/19/19 17/17/17
f 21/21/21 20/20/20 17/17/17
f 18/18/18 19/19/19 22/22/22
f 23/23/23 18/18/18 22/22/22
f 19/19/19 20/20/20 24/24/24
f 22/22/22 19/19/19 24/24/24
f 25/25/25 23/23/23 22/22/22
f 26/26/26 25/25/25 22/22/22
f 26/26/26 22/22/22 24/24/24
f 27/27/27 26/26/26 24/24/24
f 26/26/26 28/28/28 25/25/25
f 26/26/26 27/27/27 28/28/28
f 28/28/28 29/29/29 25/25/25
f 27/27/27 30/30/30 28/28/28
f 31/31/31 21/21/21 17/17/17
f 15/15/15 31/31/31 17/17/17
f 32/32/32 31/31/31 15/15/15
f 13/13/13 32/32/32 15/15/15
f 32/32/32 13/13/13 33/33/33
f 13/13/13 11/11/11 33/33/33
f 33/33/33 11/11/11 9/9/9
f 29/29/29 28/28/28 34/34/34
f 28/28/28 35/35/35 34/34/34
f 28/28/28 30/30/30 35/35/35
f 34/34/34 35/35/35 36/36/36
f 35/35/35 37/37/37 36/36/36
f 36/36/36 37/37/37 38/38/38
f 39/39/39 36/36/36 38/38/38
f 38/38/38 37/37/37 40/40/40
f 41/41/41 38/38/38 40/40/40
f 42/42/42 40/40/40 37/37/37
f 35/35/35 42/42/42 37/37/37
f 30/30/30 42/42/42 35/35/35
f 39/39/39 38/38/38 43/43/43
f 38/38/38 44/44/44 43/43/43
f 38/38/38 41/41/41 44/44/44
f 43/43/43 44/44/44 45/45/45
f 44/44/44 46/46/46 45/45/45
f 46/46/46 47/47/47 45/45/45
f 47/47/47 48/48/48 45/45/45
f 46/46/46 49/49/49 47/47/47
f 49/49/49 50/50/50 47/47/47
f 48/48/48 47/47/47 51/51/51
f 52/52/52 48/48/48 51/51/51
f 47/47/47 50/50/50 53/53/53
f 51/51/51 47/47/47 53/53/53
f 52/52/52 51/51/51 54/54/54
f 54/54/54 51/51/51 53/53/53
f 55/55/55 52/52/52 54/54/54
f 56/56/56 54/54/54 53/53/53
f 55/55/55 54/54/54 57/57/57
f 54/54/54 58/58/58 57/57/57
f 54/54/54 56/56/56 58/58/58
f 56/56/56 59/59/59 58/58/58
f 58/58/58 60/60/60 57/57/57
f 60/60/60 61/61/61 57/57/57
f 62/62/62 60/60/60 58/58/58
f 59/59/59 62/62/62 58/58/58
f 61/61/61 60/60/60 63/63/63
f 63/63/63 60/60/60 62/62/62
f 64/64/64 61/61/61 63/63/63
f 65/65/65 63/63/63 62/62/62
f 64/64/64 63/63/63 66/66/66
f 63/63/63 67/67/67 66/66/66
f 63/63/63 65/65/65 67/67/67
f 66/66/66 67/67/67 68/68/68
f 67/67/67 69/69/69 68/68/68
f 70/70/70 68/68/68 69/69/69
f 71/71/71 70/70/70 69/69/69
f 71/71/71 69/69/69 72/72/72
f 69/69/69 73/73/73 72/72/72
f 70/70/70 71/71/71 74/74/74
f 74/74/74 71/71/71 72/72/72
f 75/75/75 70/70/70 74/74/74
f 76/76/76 74/74/74 72/72/72
f 77/77/77 75/75/75 74/74/74
f 78/78/78 77/77/77 74/74/74
f 78/78/78 74/74/74 76/76/76
f 79/79/79 78/78/78 76/76/76
f 78/78/78 80/80/80 77/77/77
f 80/80/80 81/81/81 77/77/77
f 81/81/81 80/80/80 82/82/82
f 80/80/80 83/83/83 82/82/82
f 82/82/82 83/83/83 84/84/84
f 83/83/83 85/85/85 84/84/84
f 84/84/84 85/85/85 86/86/86
f 85/85/85 87/87/87 86/86/86
f 85/85/85 88/88/88 87/87/87
f 88/88/88 85/85/85 83/83/83
f 88/88/88 89/89/89 87/87/87
f 87/87/87 90/90/90 86/86/86
f 90/90/90 91/91/91 86/86/86
f 92/92/92 90/90/90 87/87/87
f 89/89/89 92/92/92 87/87/87
f 90/90/90 93/93/93 91/91/91
f 93/93/93 94/94/94 91/91/91
f 95/95/95 93/93/93 90/90/90
f 92/92/92 95/95/95 90/90/90
f 96/96/96 88/88/88 83/83/83
f 80/80/80 96/96/96 83/83/83
f 96/96/96 80/80/80 78/78/78
f 79/79/79 96/96/96 78/78/78
f 97/97/97 94/94/94 93/93/93
f 98/98/98 97/97/97 93/93/93
f 98/98/98 93/93/93 95/95/95
f 99/99/99 97/97/97 98/98/98
f 100/100/100 99/99/99 98/98/98
f 99/99/99 100/100/100 101/101/101
f 100/100/100 102/102/102 101/101/101
f 103/103/103 102/102/102 100/100/100
f 104/104/104 103/103/103 100/100/100
f 105/105/105 101/101/101 102/102/102
f 106/106/106 105/105/105 102/102/102
f 102/102/102 103/103/103 107/107/107
f 106/106/106 102/102/102 107/107/107
f 105/105/105 106/106/106 108/108/108
f 106/106/106 109/109/109 108/108/108
f 106/106/106 107/107/107 109/109/109
f 107/107/107 110/110/110 109/109/109
f 109/109/109 111/111/111 108/108/108
f 111/111/111 112/112/112 108/108/108
f 113/113/113 111/111/111 109/109/109
f 110/110/110 113/113/113 109/109/109
f 112/112/112 111/111/111 114/114/114
f 114/114/114 111/111/111 113/113/113
f 115/115/115 112/112/112 114/114/114
f 116/116/116 114/114/114 113/113/113
f 117/117/117 115/115/115 114/114/114
f 118/118/118 117/117/117 114/114/114
f 118/118/118 114/114/114 116/116/116
f 119/119/119 117/117/117 118/118/118
f 120/120/120 119/119/119 118/118/118
f 120/120/120 121/121/121 119/119/119
f 121/121/121 122/122/122 119/119/119
f 120/120/120 123/123/123 121/121/121
f 123/123/123 124/124/124 121/121/121
f 122/122/122 121/121/121 125/125/125
f 121/121/121 126/126/126 125/125/125
f 127/127/127 126/126/126 121/121/121
f 124/124/124 127/127/127 121/121/121
f 128/128/128 125/125/125 126/126/126
f 129/129/129 128/128/128 126/126/126
f 126/126/126 127/127/127 130/130/130
f 129/129/129 126/126/126 130/130/130
f 131/131/131 128/128/128 129/129/129
f 132/132/132 131/131/131 129/129/129
f 132/132/132 129/129/129 130/130/130
f 133/133/133 132/132/132 130/130/130
f 131/131/131 132/132/132 134/134/134
f 132/132/132 135/135/135 134/134/134
f 132/132/132 133/133/133 135/135/135
f 133/133/133 136/136/136 135/135/135
f 135/135/135 137/137/137 134/134/134
f 137/137/137 138/138/138 134/134/134
f 139/139/139 137/137/137 135/135/135
f 136/136/136 139/139/139 135/135/135
f 138/138/138 137/137/137 140/140/140
f 140/140/140 137/137/137 139/139/139
f 141/141/141 138/138/138 140/140/140
f 142/142/142 140/140/140 139/139/139
f 143/143/143 141/141/141 140/140/140
f 144/144/144 143/143/143 140/140/140
f 144/144/144 140/140/140 142/142/142
f 145/145/145 143/143/143 144/144/144
f 146/146/146 145/145/145 144/144/144
f 147/147/147 144/144/144 142/142/142
f 146/146/146 144/144/144 147/147/147
f 148/148/148 146/146/146 147/147/147
f 149/149/149 145/145/145 146/146/146
f 150/150/150 149/149/149 146/146/146
f 150/150/150 146/146/146 148/148/148
f 151/151/151 149/149/149 150/150/150
f 152/152/152 151/151/151 150/150/150
f 153/153/153 150/150/150 148/148/148
f 152/152/152 150/150/150 153/153/153
f 154/154/154 152/152/152 153/153/153
f 151/151/151 152/152/152 155/155/155
f 152/152/152 156/156/156 155/155/155
f 152/152/152 154/154/154 156/156/156
f 155/155/155 156/156/156 157/157/157
f 156/156/156 158/158/158 157/157/157
f 158/158/158 159/159/159 157/157/157
f 159/159/159 160/160/160 157/157/157
f 161/161/161 159/159/159 158/158/158
f 162/162/162 161/161/161 158/158/158
f 163/163/163 162/162/162 158/158/158
f 156/156/156 163/163/163 158/158/158
f 154/154/154 163/163/163 156/156/156
f 164/164/164 160/160/160 159/159/159
f 165/165/165 164/164/164 159/159/159
f 165/165/165 159/159/159 161/161/161
f 166/166/166 164/164/164 165/165/165
f 167/167/167 166/166/166 165/165/165
f 168/168/168 166/166/166 167/167/167
f 169/169/169 168/168/168 167/167/167
f 170/170/170 168/168/168 169/169/169
f 171/171/171 170/170/170 169/169/169
f 172/172/172 170/170/170 171/171/171
f 173/173/173 172/172/172 171/171/171
f 173/173/173 171/171/171 174/174/174
f 175/175/175 173/173/173 174/174/174
f 169/169/169 167/167/167 176/176/176
f 177/177/177 169/169/169 176/176/176
f 171/171/171 169/169/169 177/177/177
f 174/174/174 171/171/171 177/177/177
f 167/167/167 165/165/165 178/178/178
f 176/176/176 167/167/167 178/178/178
f 178/178/178 165/165/165 161/161/161
f 181/181/181 180/180/180 179/179/179
f 182/182/182 181/181/181 179/179/179
f 181/181/181 183/183/183 180/180/180
f 183/183/183 184/184/184 180/180/180
f 179/179/179 180/180/180 185/185/185
f 180/180/180 186/186/186 185/185/185
f 180/180/180 184/184/184 186/186/186
f 185/185/185 186/186/186 187/187/187
f 186/186/186 188/188/188 187/187/187
f 186/186/186 189/189/189 188/188/188
f 184/184/184 189/189/189 186/186/186
f 189/189/189 190/190/190 188/188/188
f 187/187/187 188/188/188 191/191/191
f 188/188/188 192/192/192 191/191/191
f 188/188/188 190/190/190 192/192/192
f 191/191/191 192/192/192 3/3/3
f 192/192/192 2/2/2 3/3/3
f 192/192/192 193/193/193 2/2/2
f 190/190/190 193/193/193 192/192/192
f 193/193/193 5/5/5 2/2/2
f 194/194/194 49/49/49 46/46/46
f 44/44/44 194/194/194 46/46/46
f 41/41/41 194/194/194 44/44/44
f 195/195/195 118/118/118 116/116/116
f 120/120/120 118/118/118 195/195/195
f 123/123/123 120/120/120 195/195/195
f 196/196/196 73/73/73 69/69/69
f 67/67/67 196/196/196 69/69/69
f 65/65/65 196/196/196 67/67/67
f 197/197/197 98/98/98 95/95/95
f 100/100/100 98/98/98 197/197/197
f 104/104/104 100/100/100 197/197/197
